%TF.GenerationSoftware,KiCad,Pcbnew,7.0.11+dfsg-1*%
%TF.CreationDate,2024-04-05T15:38:58+03:00*%
%TF.ProjectId,extra_av_out,65787472-615f-4617-965f-6f75742e6b69,rev?*%
%TF.SameCoordinates,Original*%
%TF.FileFunction,Copper,L3,Inr*%
%TF.FilePolarity,Positive*%
%FSLAX46Y46*%
G04 Gerber Fmt 4.6, Leading zero omitted, Abs format (unit mm)*
G04 Created by KiCad (PCBNEW 7.0.11+dfsg-1) date 2024-04-05 15:38:58*
%MOMM*%
%LPD*%
G01*
G04 APERTURE LIST*
%TA.AperFunction,ComponentPad*%
%ADD10C,1.524000*%
%TD*%
%TA.AperFunction,ComponentPad*%
%ADD11C,1.800000*%
%TD*%
%TA.AperFunction,ComponentPad*%
%ADD12R,1.700000X1.700000*%
%TD*%
%TA.AperFunction,ComponentPad*%
%ADD13O,1.700000X1.700000*%
%TD*%
%TA.AperFunction,ComponentPad*%
%ADD14C,1.600000*%
%TD*%
%TA.AperFunction,ComponentPad*%
%ADD15C,4.500000*%
%TD*%
%TA.AperFunction,ComponentPad*%
%ADD16C,2.540000*%
%TD*%
%TA.AperFunction,ComponentPad*%
%ADD17O,2.800000X1.800000*%
%TD*%
%TA.AperFunction,ComponentPad*%
%ADD18C,5.500000*%
%TD*%
%TA.AperFunction,ViaPad*%
%ADD19C,0.686000*%
%TD*%
G04 APERTURE END LIST*
D10*
%TO.N,/SPDIF*%
%TO.C,J3*%
X112460000Y-76345000D03*
%TO.N,/DVDD3v3*%
X115000000Y-76345000D03*
%TO.N,GND*%
X117540000Y-76345000D03*
D11*
%TO.N,N/C*%
X112460000Y-78970000D03*
X117540000Y-78970000D03*
%TD*%
D12*
%TO.N,unconnected-(J1-Pin_1-Pad1)*%
%TO.C,J1*%
X48925790Y-27248710D03*
D13*
%TO.N,unconnected-(J1-Pin_2-Pad2)*%
X46385790Y-27248710D03*
%TO.N,unconnected-(J1-Pin_3-Pad3)*%
X48925790Y-29788710D03*
%TO.N,unconnected-(J1-Pin_4-Pad4)*%
X46385790Y-29788710D03*
%TO.N,unconnected-(J1-Pin_5-Pad5)*%
X48925790Y-32328710D03*
%TO.N,unconnected-(J1-Pin_6-Pad6)*%
X46385790Y-32328710D03*
%TO.N,/VGA_PSAVE*%
X48925790Y-34868710D03*
%TO.N,/AUDIO_MUTE_N*%
X46385790Y-34868710D03*
%TO.N,/VGA_R1*%
X48925790Y-37408710D03*
%TO.N,/VGA_R0*%
X46385790Y-37408710D03*
%TO.N,/VGA_R3*%
X48925790Y-39948710D03*
%TO.N,/VGA_R2*%
X46385790Y-39948710D03*
%TO.N,/VGA_R5*%
X48925790Y-42488710D03*
%TO.N,/VGA_R4*%
X46385790Y-42488710D03*
%TO.N,/VGA_R7*%
X48925790Y-45028710D03*
%TO.N,/VGA_R6*%
X46385790Y-45028710D03*
%TO.N,/DVDD5*%
X48925790Y-47568710D03*
%TO.N,GND*%
X46385790Y-47568710D03*
%TO.N,/VGA_G1*%
X48925790Y-50108710D03*
%TO.N,/VGA_G0*%
X46385790Y-50108710D03*
%TO.N,/VGA_G3*%
X48925790Y-52648710D03*
%TO.N,/VGA_G2*%
X46385790Y-52648710D03*
%TO.N,/VGA_G5*%
X48925790Y-55188710D03*
%TO.N,/VGA_G4*%
X46385790Y-55188710D03*
%TO.N,/VGA_G7*%
X48925790Y-57728710D03*
%TO.N,/VGA_G6*%
X46385790Y-57728710D03*
%TO.N,/VGA_SOG*%
X48925790Y-60268710D03*
%TO.N,/VGA_BL_N*%
X46385790Y-60268710D03*
%TO.N,/VGA_B1*%
X48925790Y-62808710D03*
%TO.N,/VGA_B0*%
X46385790Y-62808710D03*
%TO.N,/VGA_B3*%
X48925790Y-65348710D03*
%TO.N,/VGA_B2*%
X46385790Y-65348710D03*
%TO.N,/VGA_B5*%
X48925790Y-67888710D03*
%TO.N,/VGA_B4*%
X46385790Y-67888710D03*
%TO.N,/DVDD3v3*%
X48925790Y-70428710D03*
%TO.N,GND*%
X46385790Y-70428710D03*
%TO.N,/VGA_B7*%
X48925790Y-72968710D03*
%TO.N,/VGA_B6*%
X46385790Y-72968710D03*
%TO.N,unconnected-(J1-Pin_39-Pad39)*%
X48925790Y-75508710D03*
%TO.N,/VGA_CLK*%
X46385790Y-75508710D03*
%TO.N,unconnected-(J1-Pin_41-Pad41)*%
X48925790Y-78048710D03*
%TO.N,/VGA_HS*%
X46385790Y-78048710D03*
%TO.N,/VGA_VS*%
X48925790Y-80588710D03*
%TO.N,unconnected-(J1-Pin_44-Pad44)*%
X46385790Y-80588710D03*
%TO.N,/I2S_BCK*%
X48925790Y-83128710D03*
%TO.N,/I2S_WS*%
X46385790Y-83128710D03*
%TO.N,/I2S_DATA*%
X48925790Y-85668710D03*
%TO.N,/SPDIF*%
X46385790Y-85668710D03*
%TO.N,/SDA*%
X48925790Y-88208710D03*
%TO.N,/SCL*%
X46385790Y-88208710D03*
%TD*%
D14*
%TO.N,/R_OUT*%
%TO.C,J4*%
X80560000Y-73590000D03*
%TO.N,/G_OUT*%
X78270000Y-73590000D03*
%TO.N,/B_OUT*%
X75980000Y-73590000D03*
%TO.N,/VGA_CS_75*%
X73690000Y-73590000D03*
%TO.N,GND*%
X71400000Y-73590000D03*
X81700000Y-76130000D03*
X79410000Y-76130000D03*
X77120000Y-76130000D03*
%TO.N,/DVDD5*%
X74830000Y-76130000D03*
D15*
%TO.N,GND*%
X63740000Y-76130000D03*
D14*
X72540000Y-76130000D03*
D15*
X88740000Y-76130000D03*
D14*
%TO.N,unconnected-(J4-ID0{slash}RES-Pad11)*%
X80560000Y-78670000D03*
%TO.N,unconnected-(J4-ID1{slash}SDA-Pad12)*%
X78270000Y-78670000D03*
%TO.N,/VGA_HS_TTL*%
X75980000Y-78670000D03*
%TO.N,/VGA_VS_TTL*%
X73690000Y-78670000D03*
%TO.N,unconnected-(J4-ID3{slash}SCL-Pad15)*%
X71400000Y-78670000D03*
%TD*%
D16*
%TO.N,GND*%
%TO.C,ST1*%
X53190000Y-15300000D03*
X48110000Y-15300000D03*
X53190000Y-20740000D03*
X48110000Y-20740000D03*
%TD*%
%TO.N,GND*%
%TO.C,ST2*%
X53190000Y-94720000D03*
X48110000Y-94720000D03*
X53190000Y-100160000D03*
X48110000Y-100160000D03*
%TD*%
D17*
%TO.N,/AR_OUT*%
%TO.C,J2*%
X100610000Y-74270000D03*
%TO.N,GND*%
X102610000Y-82170000D03*
%TO.N,/AL_OUT*%
X100610000Y-79770000D03*
%TD*%
D18*
%TO.N,N/C*%
%TO.C,MH4*%
X94900000Y-79930000D03*
%TD*%
%TO.N,N/C*%
%TO.C,MH5*%
X65950000Y-38360000D03*
%TD*%
D19*
%TO.N,GND*%
X49438408Y-98366427D03*
X74838408Y-47566427D03*
X74750000Y-58410000D03*
X62138408Y-37406427D03*
X88610000Y-63920000D03*
X90300000Y-63850000D03*
X68480000Y-53110000D03*
X79918408Y-55186427D03*
X90210000Y-68000000D03*
X59598408Y-34866427D03*
X74838408Y-60266427D03*
X72960000Y-48910000D03*
X110398408Y-62806427D03*
X72298408Y-42486427D03*
X54518408Y-98366427D03*
X64810000Y-54980000D03*
X107858408Y-80586427D03*
X74838408Y-39946427D03*
X105318408Y-67886427D03*
X115478408Y-80586427D03*
X72298408Y-37406427D03*
X55080000Y-76200000D03*
X69758408Y-34866427D03*
X54518408Y-90746427D03*
X54518408Y-17086427D03*
X72298408Y-62806427D03*
X72298408Y-39946427D03*
X79918408Y-42486427D03*
X49438408Y-24706427D03*
X74838408Y-37406427D03*
X72298408Y-34866427D03*
X69758408Y-39946427D03*
X97698408Y-72966427D03*
X64678408Y-72966427D03*
X102778408Y-65346427D03*
X57058408Y-52646427D03*
X69758408Y-42486427D03*
X97698408Y-62806427D03*
X51978408Y-98366427D03*
X51978408Y-90746427D03*
X102778408Y-62806427D03*
X71870000Y-59420000D03*
X79918408Y-60266427D03*
X110398408Y-75506427D03*
X70750000Y-59420000D03*
X69758408Y-75506427D03*
X67330000Y-53150000D03*
X112938408Y-65346427D03*
X87340000Y-67792000D03*
X112938408Y-62806427D03*
X87538408Y-70426427D03*
X118018408Y-67886427D03*
X74838408Y-67886427D03*
X57058408Y-34866427D03*
X62138408Y-42486427D03*
X72298408Y-67886427D03*
X76940000Y-58170000D03*
X64678408Y-34866427D03*
X71590000Y-48920000D03*
X105318408Y-80586427D03*
X73320000Y-56330000D03*
X51978408Y-17086427D03*
X74838408Y-62806427D03*
X49438408Y-90746427D03*
X90290000Y-64650000D03*
X87340000Y-69022000D03*
X54518408Y-24706427D03*
X67218408Y-75506427D03*
X112938408Y-80586427D03*
X110398408Y-70426427D03*
X59598408Y-39946427D03*
X110398408Y-67886427D03*
X88530000Y-66370000D03*
X79918408Y-39946427D03*
X118018408Y-80586427D03*
X115478408Y-65346427D03*
X118018408Y-62806427D03*
X77378408Y-37406427D03*
X105318408Y-70426427D03*
X62138408Y-34866427D03*
X79918408Y-34866427D03*
X66640000Y-58480000D03*
X107858408Y-70426427D03*
X79918408Y-70426427D03*
X110398408Y-80586427D03*
X54518408Y-32326427D03*
X49438408Y-17086427D03*
X79918408Y-37406427D03*
X51978408Y-32326427D03*
X67218408Y-70426427D03*
X105318408Y-78046427D03*
X64678408Y-70426427D03*
X118018408Y-70426427D03*
X107858408Y-67886427D03*
X105318408Y-62806427D03*
X115478408Y-62806427D03*
X74838408Y-34866427D03*
X74838408Y-42486427D03*
X110398408Y-78046427D03*
X112938408Y-70426427D03*
X79918408Y-52646427D03*
X82458408Y-78046427D03*
X79918408Y-57726427D03*
X110398408Y-65346427D03*
X82458408Y-72966427D03*
X67218408Y-42486427D03*
X59598408Y-37406427D03*
X54518408Y-34866427D03*
X100238408Y-62806427D03*
X105318408Y-65346427D03*
X107858408Y-65346427D03*
X59598408Y-52646427D03*
X79918408Y-62806427D03*
X107858408Y-78046427D03*
X62138408Y-39946427D03*
X69758408Y-37406427D03*
X78600000Y-55150000D03*
X102790000Y-69850000D03*
X118018408Y-65346427D03*
X105318408Y-72966427D03*
X77378408Y-39946427D03*
X55110000Y-77400000D03*
X115478408Y-78046427D03*
X102778408Y-78046427D03*
X102778408Y-80586427D03*
X79918408Y-67886427D03*
X51978408Y-24706427D03*
X112938408Y-67886427D03*
X102778408Y-72966427D03*
X74720000Y-70840000D03*
X100238408Y-78046427D03*
X107858408Y-62806427D03*
X67218408Y-34866427D03*
X77380000Y-52870000D03*
X57058408Y-37406427D03*
X77378408Y-34866427D03*
X65410000Y-58470000D03*
X77378408Y-42486427D03*
X79918408Y-45026427D03*
X64850000Y-53620000D03*
X74790000Y-54950000D03*
X87538408Y-80586427D03*
X67218408Y-72966427D03*
X64678408Y-42486427D03*
X68420000Y-78610000D03*
X82458408Y-70426427D03*
X107858408Y-72966427D03*
X92618408Y-75506427D03*
%TO.N,/DVDD3v3*%
X93330000Y-69950000D03*
X84430000Y-63132000D03*
X93350000Y-64500000D03*
X50910000Y-70260000D03*
X93350000Y-65390000D03*
X69970000Y-56540000D03*
X50880000Y-71630000D03*
X69960000Y-55790000D03*
X79030000Y-48010000D03*
X63610000Y-60620000D03*
X62650000Y-60620000D03*
X84070000Y-70250000D03*
X78020000Y-48020000D03*
X84060000Y-71020000D03*
X75790000Y-52760000D03*
%TO.N,Net-(U2-VNEG)*%
X93330000Y-67424500D03*
%TO.N,Net-(U2-CAPP)*%
X90200000Y-69400000D03*
%TO.N,Net-(U2-CAPM)*%
X93330000Y-68550000D03*
%TO.N,Net-(U2-LDOO)*%
X84080000Y-68830000D03*
%TO.N,/AL_OUT*%
X98530000Y-70960000D03*
%TO.N,Net-(U1-COMP)*%
X72736508Y-53212669D03*
%TO.N,/DVDD5*%
X57110000Y-77160000D03*
X57800000Y-77860000D03*
%TO.N,/I2S_DATA*%
X84070000Y-65770000D03*
%TO.N,/I2S_WS*%
X81950000Y-63860000D03*
%TO.N,/I2S_BCK*%
X83470000Y-64640000D03*
%TO.N,/VGA_HS*%
X55380000Y-73670000D03*
%TO.N,/VGA_HS_TTL*%
X68460000Y-77380000D03*
%TO.N,/B_OUT*%
X74220000Y-69480000D03*
%TO.N,/G_OUT*%
X76310000Y-69500000D03*
%TO.N,/R_OUT*%
X77270000Y-70820000D03*
%TO.N,/SCL_F*%
X55290000Y-82300000D03*
X95380000Y-63550000D03*
%TO.N,/SDA_F*%
X56210000Y-80150000D03*
X94010000Y-63670000D03*
%TD*%
%TA.AperFunction,Conductor*%
%TO.N,/DVDD3v3*%
G36*
X74283858Y-47090002D02*
G01*
X74330351Y-47143658D01*
X74340455Y-47213932D01*
X74321669Y-47258549D01*
X74324118Y-47259963D01*
X74319986Y-47267118D01*
X74260184Y-47411493D01*
X74239787Y-47566426D01*
X74239787Y-47566427D01*
X74260185Y-47721362D01*
X74319985Y-47865737D01*
X74415118Y-47989716D01*
X74539097Y-48084849D01*
X74630139Y-48122558D01*
X74683473Y-48144650D01*
X74838408Y-48165048D01*
X74993343Y-48144650D01*
X75084385Y-48106939D01*
X75137718Y-48084849D01*
X75261697Y-47989716D01*
X75356830Y-47865737D01*
X75395742Y-47771793D01*
X75416631Y-47721362D01*
X75437029Y-47566427D01*
X75416631Y-47411492D01*
X75356829Y-47267117D01*
X75356826Y-47267113D01*
X75352698Y-47259963D01*
X75355548Y-47258317D01*
X75335513Y-47206445D01*
X75349799Y-47136901D01*
X75399416Y-47086120D01*
X75461079Y-47070000D01*
X81348500Y-47070000D01*
X81416621Y-47090002D01*
X81463114Y-47143658D01*
X81474500Y-47196000D01*
X81474500Y-59469867D01*
X81472398Y-59480435D01*
X81472399Y-59499999D01*
X81474498Y-59505067D01*
X81474499Y-59505072D01*
X81474500Y-59505072D01*
X81480483Y-59519517D01*
X81500000Y-59527601D01*
X81519575Y-59527601D01*
X81530137Y-59525500D01*
X115493224Y-59525500D01*
X115561345Y-59545502D01*
X115607838Y-59599158D01*
X115619224Y-59651308D01*
X115622939Y-62082966D01*
X115603041Y-62151117D01*
X115549456Y-62197692D01*
X115486667Y-62207151D01*
X115486667Y-62207806D01*
X115482322Y-62207806D01*
X115480497Y-62208081D01*
X115478408Y-62207806D01*
X115323474Y-62228203D01*
X115179099Y-62288005D01*
X115179096Y-62288007D01*
X115055119Y-62383138D01*
X114959988Y-62507115D01*
X114959986Y-62507118D01*
X114900184Y-62651493D01*
X114879787Y-62806426D01*
X114879787Y-62806427D01*
X114900185Y-62961362D01*
X114959985Y-63105737D01*
X115055118Y-63229716D01*
X115179097Y-63324849D01*
X115270139Y-63362558D01*
X115323473Y-63384650D01*
X115478408Y-63405048D01*
X115482697Y-63404483D01*
X115486321Y-63405048D01*
X115486667Y-63405048D01*
X115486667Y-63405102D01*
X115552845Y-63415418D01*
X115605946Y-63462543D01*
X115625149Y-63529211D01*
X115626821Y-64623476D01*
X115606923Y-64691628D01*
X115553338Y-64738203D01*
X115484379Y-64748592D01*
X115481617Y-64748228D01*
X115478408Y-64747806D01*
X115478407Y-64747806D01*
X115323474Y-64768203D01*
X115179099Y-64828005D01*
X115179096Y-64828007D01*
X115055119Y-64923138D01*
X114959988Y-65047115D01*
X114959986Y-65047118D01*
X114900184Y-65191493D01*
X114879787Y-65346426D01*
X114879787Y-65346427D01*
X114900185Y-65501362D01*
X114959985Y-65645737D01*
X115055118Y-65769716D01*
X115179097Y-65864849D01*
X115270139Y-65902558D01*
X115323473Y-65924650D01*
X115478408Y-65945048D01*
X115486578Y-65943972D01*
X115556725Y-65954907D01*
X115609826Y-66002033D01*
X115629029Y-66068700D01*
X115629373Y-66293307D01*
X115609475Y-66361458D01*
X115555891Y-66408033D01*
X115503373Y-66419500D01*
X115432369Y-66419500D01*
X115229839Y-66434323D01*
X115229838Y-66434323D01*
X114965456Y-66493217D01*
X114965441Y-66493222D01*
X114712441Y-66589986D01*
X114476229Y-66722555D01*
X114476225Y-66722557D01*
X114261818Y-66888116D01*
X114073815Y-67083117D01*
X114073810Y-67083123D01*
X113916203Y-67303417D01*
X113916196Y-67303427D01*
X113792343Y-67544324D01*
X113792342Y-67544327D01*
X113740649Y-67695852D01*
X113699724Y-67753866D01*
X113633930Y-67780544D01*
X113564158Y-67767417D01*
X113512559Y-67718651D01*
X113504992Y-67703393D01*
X113456829Y-67587117D01*
X113361697Y-67463138D01*
X113361695Y-67463136D01*
X113361694Y-67463135D01*
X113237718Y-67368004D01*
X113093343Y-67308204D01*
X112938408Y-67287806D01*
X112783474Y-67308203D01*
X112639099Y-67368005D01*
X112639096Y-67368007D01*
X112515119Y-67463138D01*
X112419988Y-67587115D01*
X112419986Y-67587118D01*
X112360184Y-67731493D01*
X112339787Y-67886426D01*
X112339787Y-67886427D01*
X112360185Y-68041362D01*
X112419985Y-68185737D01*
X112515118Y-68309716D01*
X112639097Y-68404849D01*
X112730139Y-68442558D01*
X112783473Y-68464650D01*
X112938408Y-68485048D01*
X113093343Y-68464650D01*
X113193198Y-68423289D01*
X113237718Y-68404849D01*
X113290464Y-68364375D01*
X113361697Y-68309716D01*
X113420777Y-68232720D01*
X113478114Y-68190854D01*
X113548985Y-68186632D01*
X113610888Y-68221395D01*
X113644169Y-68284108D01*
X113646655Y-68314024D01*
X113645788Y-68337765D01*
X113675412Y-68607014D01*
X113743928Y-68869090D01*
X113849869Y-69118389D01*
X113849870Y-69118390D01*
X113990982Y-69349610D01*
X114164255Y-69557820D01*
X114164257Y-69557822D01*
X114164259Y-69557824D01*
X114305227Y-69684131D01*
X114365998Y-69738582D01*
X114591910Y-69888044D01*
X114837176Y-70003020D01*
X115096569Y-70081060D01*
X115096572Y-70081060D01*
X115096574Y-70081061D01*
X115364557Y-70120500D01*
X115509413Y-70120500D01*
X115577534Y-70140502D01*
X115624027Y-70194158D01*
X115635413Y-70246307D01*
X115646230Y-77326031D01*
X115626332Y-77394183D01*
X115572747Y-77440758D01*
X115503786Y-77451146D01*
X115478412Y-77447806D01*
X115478408Y-77447806D01*
X115323474Y-77468203D01*
X115179099Y-77528005D01*
X115179096Y-77528007D01*
X115055119Y-77623138D01*
X114959988Y-77747115D01*
X114959986Y-77747118D01*
X114900184Y-77891493D01*
X114879787Y-78046426D01*
X114879787Y-78046427D01*
X114900185Y-78201362D01*
X114959985Y-78345737D01*
X115055118Y-78469716D01*
X115179097Y-78564849D01*
X115242393Y-78591066D01*
X115323473Y-78624650D01*
X115478408Y-78645048D01*
X115505984Y-78641417D01*
X115576130Y-78652355D01*
X115629230Y-78699482D01*
X115648430Y-78766146D01*
X115650112Y-79866542D01*
X115630214Y-79934694D01*
X115576629Y-79981268D01*
X115507668Y-79991657D01*
X115478412Y-79987806D01*
X115478408Y-79987806D01*
X115323473Y-80008204D01*
X115179099Y-80068004D01*
X115179096Y-80068006D01*
X115132524Y-80103742D01*
X115066304Y-80129341D01*
X115055831Y-80129778D01*
X113361157Y-80129896D01*
X113293035Y-80109899D01*
X113284445Y-80103859D01*
X113237719Y-80068006D01*
X113232268Y-80065748D01*
X113176988Y-80021199D01*
X113154567Y-79953836D01*
X113172126Y-79885044D01*
X113195598Y-79856228D01*
X113313872Y-79748407D01*
X113442366Y-79578255D01*
X113537405Y-79387389D01*
X113595756Y-79182310D01*
X113615429Y-78970000D01*
X113595756Y-78757690D01*
X113537405Y-78552611D01*
X113442366Y-78361745D01*
X113313872Y-78191593D01*
X113156302Y-78047948D01*
X113156300Y-78047946D01*
X113156298Y-78047945D01*
X112975025Y-77935705D01*
X112975021Y-77935703D01*
X112975019Y-77935702D01*
X112853222Y-77888517D01*
X112776199Y-77858679D01*
X112703525Y-77845094D01*
X112566610Y-77819500D01*
X112353390Y-77819500D01*
X112227637Y-77843007D01*
X112143800Y-77858679D01*
X112041215Y-77898421D01*
X111944981Y-77935702D01*
X111944980Y-77935702D01*
X111944979Y-77935703D01*
X111944974Y-77935705D01*
X111763701Y-78047945D01*
X111763699Y-78047946D01*
X111606129Y-78191591D01*
X111549903Y-78266046D01*
X111477634Y-78361745D01*
X111402409Y-78512819D01*
X111382593Y-78552615D01*
X111324244Y-78757688D01*
X111304571Y-78970000D01*
X111324244Y-79182311D01*
X111382593Y-79387384D01*
X111382594Y-79387386D01*
X111382595Y-79387389D01*
X111477634Y-79578255D01*
X111606128Y-79748407D01*
X111763698Y-79892052D01*
X111771501Y-79896883D01*
X111818890Y-79949749D01*
X111830175Y-80019843D01*
X111801772Y-80084911D01*
X111742700Y-80124294D01*
X111705182Y-80130012D01*
X110821389Y-80130074D01*
X110753267Y-80110077D01*
X110744677Y-80104037D01*
X110697717Y-80068004D01*
X110553343Y-80008204D01*
X110398408Y-79987806D01*
X110243473Y-80008204D01*
X110099099Y-80068004D01*
X110099096Y-80068006D01*
X110052060Y-80104098D01*
X109985840Y-80129697D01*
X109975367Y-80130134D01*
X108281620Y-80130252D01*
X108213498Y-80110255D01*
X108204915Y-80104221D01*
X108179293Y-80084560D01*
X108137427Y-80027225D01*
X108129999Y-79984609D01*
X108129998Y-78648254D01*
X108150000Y-78580134D01*
X108179291Y-78548294D01*
X108281697Y-78469716D01*
X108351750Y-78378421D01*
X108376830Y-78345737D01*
X108418383Y-78245416D01*
X108436631Y-78201362D01*
X108457029Y-78046427D01*
X109799787Y-78046427D01*
X109820185Y-78201362D01*
X109879985Y-78345737D01*
X109975118Y-78469716D01*
X110099097Y-78564849D01*
X110162393Y-78591066D01*
X110243473Y-78624650D01*
X110398408Y-78645048D01*
X110553343Y-78624650D01*
X110660815Y-78580134D01*
X110697718Y-78564849D01*
X110821697Y-78469716D01*
X110916830Y-78345737D01*
X110958383Y-78245416D01*
X110976631Y-78201362D01*
X110997029Y-78046427D01*
X110976631Y-77891492D01*
X110916829Y-77747117D01*
X110821697Y-77623138D01*
X110821695Y-77623136D01*
X110821694Y-77623135D01*
X110697718Y-77528004D01*
X110553343Y-77468204D01*
X110398408Y-77447806D01*
X110243474Y-77468203D01*
X110099099Y-77528005D01*
X110099096Y-77528007D01*
X109975119Y-77623138D01*
X109879988Y-77747115D01*
X109879986Y-77747118D01*
X109820184Y-77891493D01*
X109799787Y-78046426D01*
X109799787Y-78046427D01*
X108457029Y-78046427D01*
X108436631Y-77891492D01*
X108376829Y-77747117D01*
X108281697Y-77623138D01*
X108179289Y-77544557D01*
X108137424Y-77487222D01*
X108129996Y-77444607D01*
X108129995Y-76345003D01*
X111442601Y-76345003D01*
X111462148Y-76543476D01*
X111462149Y-76543481D01*
X111462150Y-76543485D01*
X111491907Y-76641579D01*
X111520046Y-76734343D01*
X111595983Y-76876410D01*
X111614064Y-76910237D01*
X111740590Y-77064410D01*
X111894763Y-77190936D01*
X111894765Y-77190937D01*
X112052800Y-77275409D01*
X112070658Y-77284954D01*
X112261515Y-77342850D01*
X112261521Y-77342850D01*
X112261523Y-77342851D01*
X112459997Y-77362399D01*
X112460000Y-77362399D01*
X112460003Y-77362399D01*
X112658476Y-77342851D01*
X112658476Y-77342850D01*
X112658485Y-77342850D01*
X112849342Y-77284954D01*
X113025237Y-77190936D01*
X113179410Y-77064410D01*
X113305936Y-76910237D01*
X113399954Y-76734342D01*
X113457850Y-76543485D01*
X113472899Y-76390691D01*
X113477399Y-76345003D01*
X113477399Y-76344996D01*
X113457851Y-76146523D01*
X113457850Y-76146521D01*
X113457850Y-76146515D01*
X113399954Y-75955658D01*
X113305936Y-75779763D01*
X113179410Y-75625590D01*
X113025237Y-75499064D01*
X113025235Y-75499063D01*
X113025234Y-75499062D01*
X112849343Y-75405046D01*
X112778611Y-75383590D01*
X112658485Y-75347150D01*
X112658481Y-75347149D01*
X112658476Y-75347148D01*
X112460003Y-75327601D01*
X112459997Y-75327601D01*
X112261523Y-75347148D01*
X112261517Y-75347149D01*
X112261515Y-75347150D01*
X112182703Y-75371057D01*
X112070656Y-75405046D01*
X111894765Y-75499062D01*
X111740590Y-75625590D01*
X111614062Y-75779765D01*
X111520046Y-75955656D01*
X111462148Y-76146523D01*
X111442601Y-76344996D01*
X111442601Y-76345003D01*
X108129995Y-76345003D01*
X108129994Y-75506427D01*
X109799787Y-75506427D01*
X109820185Y-75661362D01*
X109879985Y-75805737D01*
X109975118Y-75929716D01*
X110099097Y-76024849D01*
X110190139Y-76062558D01*
X110243473Y-76084650D01*
X110398408Y-76105048D01*
X110553343Y-76084650D01*
X110644385Y-76046939D01*
X110697718Y-76024849D01*
X110821697Y-75929716D01*
X110916830Y-75805737D01*
X110955742Y-75711793D01*
X110976631Y-75661362D01*
X110997029Y-75506427D01*
X110976631Y-75351492D01*
X110916829Y-75207117D01*
X110821697Y-75083138D01*
X110821695Y-75083136D01*
X110821694Y-75083135D01*
X110697718Y-74988004D01*
X110553343Y-74928204D01*
X110398408Y-74907806D01*
X110243474Y-74928203D01*
X110099099Y-74988005D01*
X110099096Y-74988007D01*
X109975119Y-75083138D01*
X109879988Y-75207115D01*
X109879986Y-75207118D01*
X109820184Y-75351493D01*
X109799787Y-75506426D01*
X109799787Y-75506427D01*
X108129994Y-75506427D01*
X108129993Y-74171100D01*
X102366350Y-74170046D01*
X102298233Y-74150031D01*
X102251750Y-74096367D01*
X102242519Y-74067201D01*
X102221321Y-73953802D01*
X102144298Y-73754981D01*
X102139468Y-73747181D01*
X102032054Y-73573701D01*
X102032053Y-73573699D01*
X101888408Y-73416129D01*
X101888407Y-73416128D01*
X101718255Y-73287634D01*
X101527389Y-73192595D01*
X101527386Y-73192594D01*
X101527384Y-73192593D01*
X101322311Y-73134244D01*
X101302420Y-73132401D01*
X101163194Y-73119500D01*
X100056806Y-73119500D01*
X99933049Y-73130967D01*
X99897688Y-73134244D01*
X99692615Y-73192593D01*
X99692611Y-73192595D01*
X99501745Y-73287634D01*
X99501744Y-73287635D01*
X99331591Y-73416129D01*
X99187946Y-73573699D01*
X99187945Y-73573701D01*
X99075705Y-73754974D01*
X99075703Y-73754979D01*
X98998678Y-73953804D01*
X98977600Y-74066558D01*
X98945421Y-74129843D01*
X98884136Y-74165684D01*
X98853723Y-74169404D01*
X90334352Y-74167849D01*
X90266235Y-74147835D01*
X90260314Y-74143785D01*
X90255630Y-74140382D01*
X90181252Y-74086343D01*
X90082486Y-74014585D01*
X90000131Y-73969310D01*
X89806766Y-73863006D01*
X89722564Y-73829668D01*
X89514230Y-73747182D01*
X89514227Y-73747181D01*
X89310016Y-73694749D01*
X89209473Y-73668934D01*
X89209467Y-73668933D01*
X89209459Y-73668932D01*
X88897332Y-73629501D01*
X88897321Y-73629500D01*
X88897318Y-73629500D01*
X88582682Y-73629500D01*
X88582679Y-73629500D01*
X88582667Y-73629501D01*
X88270540Y-73668932D01*
X88270527Y-73668934D01*
X87965772Y-73747181D01*
X87965769Y-73747182D01*
X87673234Y-73863006D01*
X87397514Y-74014585D01*
X87220484Y-74143203D01*
X87153616Y-74167061D01*
X87146401Y-74167266D01*
X81652408Y-74166263D01*
X81584291Y-74146249D01*
X81537808Y-74092584D01*
X81527717Y-74022309D01*
X81533840Y-74000001D01*
X81533435Y-73999878D01*
X81541718Y-73972573D01*
X81595300Y-73795934D01*
X81599335Y-73754974D01*
X81615583Y-73590003D01*
X81615583Y-73589996D01*
X81595301Y-73384072D01*
X81595300Y-73384070D01*
X81595300Y-73384066D01*
X81535232Y-73186046D01*
X81437685Y-73003550D01*
X81407219Y-72966427D01*
X81859787Y-72966427D01*
X81880185Y-73121362D01*
X81939985Y-73265737D01*
X82035118Y-73389716D01*
X82159097Y-73484849D01*
X82232050Y-73515066D01*
X82303473Y-73544650D01*
X82458408Y-73565048D01*
X82613343Y-73544650D01*
X82704385Y-73506939D01*
X82757718Y-73484849D01*
X82881697Y-73389716D01*
X82976830Y-73265737D01*
X82998920Y-73212404D01*
X83036631Y-73121362D01*
X83057029Y-72966427D01*
X97099787Y-72966427D01*
X97120185Y-73121362D01*
X97179985Y-73265737D01*
X97275118Y-73389716D01*
X97399097Y-73484849D01*
X97472050Y-73515066D01*
X97543473Y-73544650D01*
X97698408Y-73565048D01*
X97853343Y-73544650D01*
X97944385Y-73506939D01*
X97997718Y-73484849D01*
X98121697Y-73389716D01*
X98216830Y-73265737D01*
X98238920Y-73212404D01*
X98276631Y-73121362D01*
X98297029Y-72966427D01*
X102179787Y-72966427D01*
X102200185Y-73121362D01*
X102259985Y-73265737D01*
X102355118Y-73389716D01*
X102479097Y-73484849D01*
X102552050Y-73515066D01*
X102623473Y-73544650D01*
X102778408Y-73565048D01*
X102933343Y-73544650D01*
X103024385Y-73506939D01*
X103077718Y-73484849D01*
X103201697Y-73389716D01*
X103296830Y-73265737D01*
X103318920Y-73212404D01*
X103356631Y-73121362D01*
X103377029Y-72966427D01*
X104719787Y-72966427D01*
X104740185Y-73121362D01*
X104799985Y-73265737D01*
X104895118Y-73389716D01*
X105019097Y-73484849D01*
X105092050Y-73515066D01*
X105163473Y-73544650D01*
X105318408Y-73565048D01*
X105473343Y-73544650D01*
X105564385Y-73506939D01*
X105617718Y-73484849D01*
X105741697Y-73389716D01*
X105836830Y-73265737D01*
X105858920Y-73212404D01*
X105896631Y-73121362D01*
X105917029Y-72966427D01*
X107259787Y-72966427D01*
X107280185Y-73121362D01*
X107339985Y-73265737D01*
X107435118Y-73389716D01*
X107559097Y-73484849D01*
X107632050Y-73515066D01*
X107703473Y-73544650D01*
X107858408Y-73565048D01*
X108013343Y-73544650D01*
X108104385Y-73506939D01*
X108157718Y-73484849D01*
X108281697Y-73389716D01*
X108376830Y-73265737D01*
X108398920Y-73212404D01*
X108436631Y-73121362D01*
X108457029Y-72966427D01*
X108436631Y-72811492D01*
X108376829Y-72667117D01*
X108281697Y-72543138D01*
X108281695Y-72543136D01*
X108281694Y-72543135D01*
X108157718Y-72448004D01*
X108013343Y-72388204D01*
X107858408Y-72367806D01*
X107703474Y-72388203D01*
X107559099Y-72448005D01*
X107559096Y-72448007D01*
X107435119Y-72543138D01*
X107339988Y-72667115D01*
X107339986Y-72667118D01*
X107280184Y-72811493D01*
X107259787Y-72966426D01*
X107259787Y-72966427D01*
X105917029Y-72966427D01*
X105896631Y-72811492D01*
X105836829Y-72667117D01*
X105741697Y-72543138D01*
X105741695Y-72543136D01*
X105741694Y-72543135D01*
X105617718Y-72448004D01*
X105473343Y-72388204D01*
X105318408Y-72367806D01*
X105163474Y-72388203D01*
X105019099Y-72448005D01*
X105019096Y-72448007D01*
X104895119Y-72543138D01*
X104799988Y-72667115D01*
X104799986Y-72667118D01*
X104740184Y-72811493D01*
X104719787Y-72966426D01*
X104719787Y-72966427D01*
X103377029Y-72966427D01*
X103356631Y-72811492D01*
X103296829Y-72667117D01*
X103201697Y-72543138D01*
X103201695Y-72543136D01*
X103201694Y-72543135D01*
X103077718Y-72448004D01*
X102933343Y-72388204D01*
X102778408Y-72367806D01*
X102623474Y-72388203D01*
X102479099Y-72448005D01*
X102479096Y-72448007D01*
X102355119Y-72543138D01*
X102259988Y-72667115D01*
X102259986Y-72667118D01*
X102200184Y-72811493D01*
X102179787Y-72966426D01*
X102179787Y-72966427D01*
X98297029Y-72966427D01*
X98276631Y-72811492D01*
X98216829Y-72667117D01*
X98121697Y-72543138D01*
X98121695Y-72543136D01*
X98121694Y-72543135D01*
X97997718Y-72448004D01*
X97853343Y-72388204D01*
X97698408Y-72367806D01*
X97543474Y-72388203D01*
X97399099Y-72448005D01*
X97399096Y-72448007D01*
X97275119Y-72543138D01*
X97179988Y-72667115D01*
X97179986Y-72667118D01*
X97120184Y-72811493D01*
X97099787Y-72966426D01*
X97099787Y-72966427D01*
X83057029Y-72966427D01*
X83036631Y-72811492D01*
X82976829Y-72667117D01*
X82881697Y-72543138D01*
X82881695Y-72543136D01*
X82881694Y-72543135D01*
X82757718Y-72448004D01*
X82613343Y-72388204D01*
X82458408Y-72367806D01*
X82303474Y-72388203D01*
X82159099Y-72448005D01*
X82159096Y-72448007D01*
X82035119Y-72543138D01*
X81939988Y-72667115D01*
X81939986Y-72667118D01*
X81880184Y-72811493D01*
X81859787Y-72966426D01*
X81859787Y-72966427D01*
X81407219Y-72966427D01*
X81306410Y-72843590D01*
X81146450Y-72712315D01*
X81146448Y-72712314D01*
X81146447Y-72712313D01*
X80963954Y-72614768D01*
X80814595Y-72569461D01*
X80765934Y-72554700D01*
X80765933Y-72554699D01*
X80765927Y-72554698D01*
X80560003Y-72534417D01*
X80559997Y-72534417D01*
X80354072Y-72554698D01*
X80156045Y-72614768D01*
X79973552Y-72712313D01*
X79813590Y-72843590D01*
X79682313Y-73003552D01*
X79584768Y-73186045D01*
X79535575Y-73348217D01*
X79496660Y-73407599D01*
X79431819Y-73436514D01*
X79361638Y-73425784D01*
X79308399Y-73378815D01*
X79294425Y-73348217D01*
X79276048Y-73287635D01*
X79245232Y-73186046D01*
X79147685Y-73003550D01*
X79016410Y-72843590D01*
X78856450Y-72712315D01*
X78856448Y-72712314D01*
X78856447Y-72712313D01*
X78673954Y-72614768D01*
X78524595Y-72569461D01*
X78475934Y-72554700D01*
X78475933Y-72554699D01*
X78475927Y-72554698D01*
X78270003Y-72534417D01*
X78269997Y-72534417D01*
X78064072Y-72554698D01*
X77866045Y-72614768D01*
X77683552Y-72712313D01*
X77523590Y-72843590D01*
X77392313Y-73003552D01*
X77294768Y-73186045D01*
X77245575Y-73348217D01*
X77206660Y-73407599D01*
X77141819Y-73436514D01*
X77071638Y-73425784D01*
X77018399Y-73378815D01*
X77004425Y-73348217D01*
X76986048Y-73287635D01*
X76955232Y-73186046D01*
X76857685Y-73003550D01*
X76726410Y-72843590D01*
X76566450Y-72712315D01*
X76566448Y-72712314D01*
X76566447Y-72712313D01*
X76383954Y-72614768D01*
X76234595Y-72569461D01*
X76185934Y-72554700D01*
X76185933Y-72554699D01*
X76185927Y-72554698D01*
X75980003Y-72534417D01*
X75979997Y-72534417D01*
X75774072Y-72554698D01*
X75576045Y-72614768D01*
X75393552Y-72712313D01*
X75233590Y-72843590D01*
X75102313Y-73003552D01*
X75004768Y-73186045D01*
X74955575Y-73348217D01*
X74916660Y-73407599D01*
X74851819Y-73436514D01*
X74781638Y-73425784D01*
X74728399Y-73378815D01*
X74714425Y-73348217D01*
X74696048Y-73287635D01*
X74665232Y-73186046D01*
X74567685Y-73003550D01*
X74436410Y-72843590D01*
X74276450Y-72712315D01*
X74276448Y-72712314D01*
X74276447Y-72712313D01*
X74093954Y-72614768D01*
X73944595Y-72569461D01*
X73895934Y-72554700D01*
X73895933Y-72554699D01*
X73895927Y-72554698D01*
X73690003Y-72534417D01*
X73689997Y-72534417D01*
X73484072Y-72554698D01*
X73286045Y-72614768D01*
X73103552Y-72712313D01*
X72943590Y-72843590D01*
X72812313Y-73003552D01*
X72714768Y-73186045D01*
X72665575Y-73348217D01*
X72626660Y-73407599D01*
X72561819Y-73436514D01*
X72491638Y-73425784D01*
X72438399Y-73378815D01*
X72424425Y-73348217D01*
X72406048Y-73287635D01*
X72375232Y-73186046D01*
X72277685Y-73003550D01*
X72146410Y-72843590D01*
X71986450Y-72712315D01*
X71986448Y-72712314D01*
X71986447Y-72712313D01*
X71803954Y-72614768D01*
X71654595Y-72569461D01*
X71605934Y-72554700D01*
X71605933Y-72554699D01*
X71605927Y-72554698D01*
X71400003Y-72534417D01*
X71399997Y-72534417D01*
X71194072Y-72554698D01*
X70996045Y-72614768D01*
X70813552Y-72712313D01*
X70653590Y-72843590D01*
X70522313Y-73003552D01*
X70424768Y-73186045D01*
X70364698Y-73384072D01*
X70344417Y-73589996D01*
X70344417Y-73590003D01*
X70364698Y-73795927D01*
X70426565Y-73999878D01*
X70424263Y-74000576D01*
X70430702Y-74060591D01*
X70398907Y-74124071D01*
X70337840Y-74160284D01*
X70306686Y-74164190D01*
X65328065Y-74163281D01*
X65259948Y-74143267D01*
X65254027Y-74139217D01*
X65082486Y-74014585D01*
X65000131Y-73969310D01*
X64806766Y-73863006D01*
X64727903Y-73831782D01*
X64661339Y-73805427D01*
X64605365Y-73761752D01*
X64581889Y-73694749D01*
X64598365Y-73625690D01*
X64649561Y-73576502D01*
X64691273Y-73563354D01*
X64833343Y-73544650D01*
X64924385Y-73506939D01*
X64977718Y-73484849D01*
X65101697Y-73389716D01*
X65196830Y-73265737D01*
X65218920Y-73212404D01*
X65256631Y-73121362D01*
X65277029Y-72966427D01*
X66619787Y-72966427D01*
X66640185Y-73121362D01*
X66699985Y-73265737D01*
X66795118Y-73389716D01*
X66919097Y-73484849D01*
X66992050Y-73515066D01*
X67063473Y-73544650D01*
X67218408Y-73565048D01*
X67373343Y-73544650D01*
X67464385Y-73506939D01*
X67517718Y-73484849D01*
X67641697Y-73389716D01*
X67736830Y-73265737D01*
X67758920Y-73212404D01*
X67796631Y-73121362D01*
X67817029Y-72966427D01*
X67796631Y-72811492D01*
X67736829Y-72667117D01*
X67641697Y-72543138D01*
X67641695Y-72543136D01*
X67641694Y-72543135D01*
X67517718Y-72448004D01*
X67373343Y-72388204D01*
X67218408Y-72367806D01*
X67063474Y-72388203D01*
X66919099Y-72448005D01*
X66919096Y-72448007D01*
X66795119Y-72543138D01*
X66699988Y-72667115D01*
X66699986Y-72667118D01*
X66640184Y-72811493D01*
X66619787Y-72966426D01*
X66619787Y-72966427D01*
X65277029Y-72966427D01*
X65256631Y-72811492D01*
X65196829Y-72667117D01*
X65101697Y-72543138D01*
X65101695Y-72543136D01*
X65101694Y-72543135D01*
X64977718Y-72448004D01*
X64833343Y-72388204D01*
X64678408Y-72367806D01*
X64523474Y-72388203D01*
X64379099Y-72448005D01*
X64379096Y-72448007D01*
X64255119Y-72543138D01*
X64159988Y-72667115D01*
X64159986Y-72667118D01*
X64100184Y-72811493D01*
X64079787Y-72966426D01*
X64079787Y-72966427D01*
X64100185Y-73121362D01*
X64159985Y-73265737D01*
X64255116Y-73389713D01*
X64255117Y-73389714D01*
X64255119Y-73389716D01*
X64335802Y-73451626D01*
X64377668Y-73508963D01*
X64381890Y-73579834D01*
X64347126Y-73641737D01*
X64284413Y-73675018D01*
X64227765Y-73673630D01*
X64209485Y-73668936D01*
X64209474Y-73668934D01*
X64209473Y-73668934D01*
X64209467Y-73668933D01*
X64209459Y-73668932D01*
X63897332Y-73629501D01*
X63897321Y-73629500D01*
X63897318Y-73629500D01*
X63582682Y-73629500D01*
X63582679Y-73629500D01*
X63582667Y-73629501D01*
X63270540Y-73668932D01*
X63270527Y-73668934D01*
X62965772Y-73747181D01*
X62965769Y-73747182D01*
X62673234Y-73863006D01*
X62397514Y-74014585D01*
X62226768Y-74138638D01*
X62159900Y-74162496D01*
X62152685Y-74162701D01*
X56005631Y-74161578D01*
X55937514Y-74141563D01*
X55891031Y-74087899D01*
X55880940Y-74017624D01*
X55896537Y-73972573D01*
X55898418Y-73969314D01*
X55898421Y-73969311D01*
X55898422Y-73969307D01*
X55898425Y-73969303D01*
X55922761Y-73910546D01*
X55958223Y-73824935D01*
X55978621Y-73670000D01*
X55978480Y-73668932D01*
X55966750Y-73579834D01*
X55958223Y-73515065D01*
X55898421Y-73370690D01*
X55803289Y-73246711D01*
X55803287Y-73246709D01*
X55803286Y-73246708D01*
X55679310Y-73151577D01*
X55534935Y-73091777D01*
X55380000Y-73071379D01*
X55225066Y-73091776D01*
X55080691Y-73151578D01*
X55080688Y-73151580D01*
X54956711Y-73246711D01*
X54861580Y-73370688D01*
X54861578Y-73370691D01*
X54801776Y-73515066D01*
X54781379Y-73669999D01*
X54781379Y-73670000D01*
X54801777Y-73824935D01*
X54861578Y-73969310D01*
X54863329Y-73972343D01*
X54864029Y-73975228D01*
X54864739Y-73976942D01*
X54864471Y-73977052D01*
X54880072Y-74041337D01*
X54856855Y-74108430D01*
X54801050Y-74152321D01*
X54754191Y-74161349D01*
X49534459Y-74160396D01*
X49466342Y-74140382D01*
X49419859Y-74086717D01*
X49409768Y-74016442D01*
X49439273Y-73951866D01*
X49468144Y-73927274D01*
X49591831Y-73850691D01*
X49742554Y-73713289D01*
X49865463Y-73550531D01*
X49956372Y-73367960D01*
X50012187Y-73171793D01*
X50031005Y-72968710D01*
X50012187Y-72765627D01*
X49956372Y-72569460D01*
X49865463Y-72386889D01*
X49851052Y-72367806D01*
X49742555Y-72224131D01*
X49591830Y-72086728D01*
X49591829Y-72086727D01*
X49418438Y-71979368D01*
X49418431Y-71979364D01*
X49418427Y-71979362D01*
X49301923Y-71934228D01*
X49228247Y-71905686D01*
X49161419Y-71893194D01*
X49027766Y-71868210D01*
X48823814Y-71868210D01*
X48723574Y-71886948D01*
X48623332Y-71905686D01*
X48475980Y-71962770D01*
X48433153Y-71979362D01*
X48433152Y-71979362D01*
X48433151Y-71979363D01*
X48433141Y-71979368D01*
X48259750Y-72086727D01*
X48259749Y-72086728D01*
X48109024Y-72224131D01*
X47986119Y-72386885D01*
X47895206Y-72569464D01*
X47839393Y-72765625D01*
X47820575Y-72968710D01*
X47839393Y-73171794D01*
X47895206Y-73367955D01*
X47895207Y-73367957D01*
X47895208Y-73367960D01*
X47986117Y-73550531D01*
X47986118Y-73550532D01*
X47986119Y-73550534D01*
X48109024Y-73713288D01*
X48259746Y-73850689D01*
X48259748Y-73850690D01*
X48259749Y-73850691D01*
X48383069Y-73927047D01*
X48430456Y-73979913D01*
X48441739Y-74050008D01*
X48413335Y-74115075D01*
X48354263Y-74154457D01*
X48316715Y-74160174D01*
X47485977Y-74160022D01*
X47417860Y-74140007D01*
X47371377Y-74086343D01*
X47360000Y-74034022D01*
X47360000Y-73510805D01*
X47373210Y-73454642D01*
X47416368Y-73367969D01*
X47416369Y-73367965D01*
X47416372Y-73367960D01*
X47472187Y-73171793D01*
X47491005Y-72968710D01*
X47472187Y-72765627D01*
X47416372Y-72569460D01*
X47398923Y-72534417D01*
X47373209Y-72482775D01*
X47360000Y-72426613D01*
X47360000Y-70970805D01*
X47373210Y-70914642D01*
X47416368Y-70827969D01*
X47416369Y-70827965D01*
X47416372Y-70827960D01*
X47472187Y-70631793D01*
X47491005Y-70428710D01*
X47490793Y-70426427D01*
X64079787Y-70426427D01*
X64100185Y-70581362D01*
X64159985Y-70725737D01*
X64255118Y-70849716D01*
X64379097Y-70944849D01*
X64441763Y-70970805D01*
X64523473Y-71004650D01*
X64678408Y-71025048D01*
X64833343Y-71004650D01*
X64941141Y-70959999D01*
X64977718Y-70944849D01*
X65101697Y-70849716D01*
X65196830Y-70725737D01*
X65223772Y-70660691D01*
X65256631Y-70581362D01*
X65277029Y-70426427D01*
X66619787Y-70426427D01*
X66640185Y-70581362D01*
X66699985Y-70725737D01*
X66795118Y-70849716D01*
X66919097Y-70944849D01*
X66981763Y-70970805D01*
X67063473Y-71004650D01*
X67218408Y-71025048D01*
X67373343Y-71004650D01*
X67481141Y-70959999D01*
X67517718Y-70944849D01*
X67641697Y-70849716D01*
X67649152Y-70840000D01*
X74121379Y-70840000D01*
X74141777Y-70994935D01*
X74201577Y-71139310D01*
X74296710Y-71263289D01*
X74420689Y-71358422D01*
X74511731Y-71396131D01*
X74565065Y-71418223D01*
X74720000Y-71438621D01*
X74874935Y-71418223D01*
X74965977Y-71380512D01*
X75019310Y-71358422D01*
X75143289Y-71263289D01*
X75238422Y-71139310D01*
X75260512Y-71085977D01*
X75298223Y-70994935D01*
X75318621Y-70840000D01*
X75315988Y-70820000D01*
X76671379Y-70820000D01*
X76691777Y-70974935D01*
X76751577Y-71119310D01*
X76846710Y-71243289D01*
X76970689Y-71338422D01*
X77061731Y-71376131D01*
X77115065Y-71398223D01*
X77270000Y-71418621D01*
X77424935Y-71398223D01*
X77521026Y-71358421D01*
X77569310Y-71338422D01*
X77693289Y-71243289D01*
X77788422Y-71119310D01*
X77810512Y-71065977D01*
X77848223Y-70974935D01*
X77868621Y-70820000D01*
X77848223Y-70665065D01*
X77788421Y-70520690D01*
X77716091Y-70426427D01*
X79319787Y-70426427D01*
X79340185Y-70581362D01*
X79399985Y-70725737D01*
X79495118Y-70849716D01*
X79619097Y-70944849D01*
X79681763Y-70970805D01*
X79763473Y-71004650D01*
X79918408Y-71025048D01*
X80073343Y-71004650D01*
X80181141Y-70959999D01*
X80217718Y-70944849D01*
X80341697Y-70849716D01*
X80436830Y-70725737D01*
X80463772Y-70660691D01*
X80496631Y-70581362D01*
X80517029Y-70426427D01*
X81859787Y-70426427D01*
X81880185Y-70581362D01*
X81939985Y-70725737D01*
X82035118Y-70849716D01*
X82159097Y-70944849D01*
X82221763Y-70970805D01*
X82303473Y-71004650D01*
X82458408Y-71025048D01*
X82613343Y-71004650D01*
X82721141Y-70959999D01*
X82757718Y-70944849D01*
X82881697Y-70849716D01*
X82976830Y-70725737D01*
X83003772Y-70660691D01*
X83036631Y-70581362D01*
X83057029Y-70426427D01*
X83055749Y-70416708D01*
X83040592Y-70301577D01*
X83036631Y-70271492D01*
X82976829Y-70127117D01*
X82881697Y-70003138D01*
X82881695Y-70003136D01*
X82881694Y-70003135D01*
X82757718Y-69908004D01*
X82613343Y-69848204D01*
X82458408Y-69827806D01*
X82303474Y-69848203D01*
X82159099Y-69908005D01*
X82159096Y-69908007D01*
X82035119Y-70003138D01*
X81939988Y-70127115D01*
X81939986Y-70127118D01*
X81880184Y-70271493D01*
X81859787Y-70426426D01*
X81859787Y-70426427D01*
X80517029Y-70426427D01*
X80515749Y-70416708D01*
X80500592Y-70301577D01*
X80496631Y-70271492D01*
X80436829Y-70127117D01*
X80341697Y-70003138D01*
X80341695Y-70003136D01*
X80341694Y-70003135D01*
X80217718Y-69908004D01*
X80073343Y-69848204D01*
X79918408Y-69827806D01*
X79763474Y-69848203D01*
X79619099Y-69908005D01*
X79619096Y-69908007D01*
X79495119Y-70003138D01*
X79399988Y-70127115D01*
X79399986Y-70127118D01*
X79340184Y-70271493D01*
X79319787Y-70426426D01*
X79319787Y-70426427D01*
X77716091Y-70426427D01*
X77693289Y-70396711D01*
X77693287Y-70396709D01*
X77693286Y-70396708D01*
X77569310Y-70301577D01*
X77424935Y-70241777D01*
X77270000Y-70221379D01*
X77115066Y-70241776D01*
X76970691Y-70301578D01*
X76970688Y-70301580D01*
X76846711Y-70396711D01*
X76751580Y-70520688D01*
X76751578Y-70520691D01*
X76691776Y-70665066D01*
X76671379Y-70819999D01*
X76671379Y-70820000D01*
X75315988Y-70820000D01*
X75298223Y-70685065D01*
X75238421Y-70540690D01*
X75143289Y-70416711D01*
X75143287Y-70416709D01*
X75143286Y-70416708D01*
X75019310Y-70321577D01*
X74874935Y-70261777D01*
X74720000Y-70241379D01*
X74565066Y-70261776D01*
X74420691Y-70321578D01*
X74420688Y-70321580D01*
X74296711Y-70416711D01*
X74201580Y-70540688D01*
X74201578Y-70540691D01*
X74141776Y-70685066D01*
X74121379Y-70839999D01*
X74121379Y-70840000D01*
X67649152Y-70840000D01*
X67736830Y-70725737D01*
X67763772Y-70660691D01*
X67796631Y-70581362D01*
X67817029Y-70426427D01*
X67815749Y-70416708D01*
X67800592Y-70301577D01*
X67796631Y-70271492D01*
X67736829Y-70127117D01*
X67641697Y-70003138D01*
X67641695Y-70003136D01*
X67641694Y-70003135D01*
X67517718Y-69908004D01*
X67373343Y-69848204D01*
X67218408Y-69827806D01*
X67063474Y-69848203D01*
X66919099Y-69908005D01*
X66919096Y-69908007D01*
X66795119Y-70003138D01*
X66699988Y-70127115D01*
X66699986Y-70127118D01*
X66640184Y-70271493D01*
X66619787Y-70426426D01*
X66619787Y-70426427D01*
X65277029Y-70426427D01*
X65275749Y-70416708D01*
X65260592Y-70301577D01*
X65256631Y-70271492D01*
X65196829Y-70127117D01*
X65101697Y-70003138D01*
X65101695Y-70003136D01*
X65101694Y-70003135D01*
X64977718Y-69908004D01*
X64833343Y-69848204D01*
X64678408Y-69827806D01*
X64523474Y-69848203D01*
X64379099Y-69908005D01*
X64379096Y-69908007D01*
X64255119Y-70003138D01*
X64159988Y-70127115D01*
X64159986Y-70127118D01*
X64100184Y-70271493D01*
X64079787Y-70426426D01*
X64079787Y-70426427D01*
X47490793Y-70426427D01*
X47472187Y-70225627D01*
X47416372Y-70029460D01*
X47376813Y-69950014D01*
X47373209Y-69942775D01*
X47360000Y-69886613D01*
X47360000Y-69480000D01*
X73621379Y-69480000D01*
X73641777Y-69634935D01*
X73701577Y-69779310D01*
X73796710Y-69903289D01*
X73920689Y-69998422D01*
X73995629Y-70029462D01*
X74065065Y-70058223D01*
X74220000Y-70078621D01*
X74374935Y-70058223D01*
X74471026Y-70018421D01*
X74519310Y-69998422D01*
X74643289Y-69903289D01*
X74738422Y-69779310D01*
X74773316Y-69695066D01*
X74798223Y-69634935D01*
X74815988Y-69500000D01*
X75711379Y-69500000D01*
X75731777Y-69654935D01*
X75791577Y-69799310D01*
X75886710Y-69923289D01*
X76010689Y-70018422D01*
X76079154Y-70046780D01*
X76155065Y-70078223D01*
X76310000Y-70098621D01*
X76464935Y-70078223D01*
X76555977Y-70040512D01*
X76609310Y-70018422D01*
X76733289Y-69923289D01*
X76828422Y-69799310D01*
X76853575Y-69738583D01*
X76888223Y-69654935D01*
X76908621Y-69500000D01*
X76888223Y-69345065D01*
X76828421Y-69200690D01*
X76733289Y-69076711D01*
X76733287Y-69076709D01*
X76733286Y-69076708D01*
X76609310Y-68981577D01*
X76464935Y-68921777D01*
X76310000Y-68901379D01*
X76155066Y-68921776D01*
X76010691Y-68981578D01*
X76010688Y-68981580D01*
X75886711Y-69076711D01*
X75791580Y-69200688D01*
X75791578Y-69200691D01*
X75731776Y-69345066D01*
X75711379Y-69499999D01*
X75711379Y-69500000D01*
X74815988Y-69500000D01*
X74818621Y-69480000D01*
X74798223Y-69325065D01*
X74738421Y-69180690D01*
X74643289Y-69056711D01*
X74643287Y-69056709D01*
X74643286Y-69056708D01*
X74519310Y-68961577D01*
X74374935Y-68901777D01*
X74220000Y-68881379D01*
X74065066Y-68901776D01*
X73920691Y-68961578D01*
X73920688Y-68961580D01*
X73796711Y-69056711D01*
X73701580Y-69180688D01*
X73701578Y-69180691D01*
X73641776Y-69325066D01*
X73621379Y-69479999D01*
X73621379Y-69480000D01*
X47360000Y-69480000D01*
X47360000Y-68976598D01*
X47380002Y-68908477D01*
X47433658Y-68861984D01*
X47486592Y-68850599D01*
X48360242Y-68854740D01*
X48425971Y-68873611D01*
X48433153Y-68878058D01*
X48623334Y-68951734D01*
X48823814Y-68989210D01*
X48823816Y-68989210D01*
X49027764Y-68989210D01*
X49027766Y-68989210D01*
X49228246Y-68951734D01*
X49418427Y-68878058D01*
X49418435Y-68878052D01*
X49423644Y-68875460D01*
X49424346Y-68876871D01*
X49483931Y-68860066D01*
X51580000Y-68870000D01*
X51580000Y-68869999D01*
X51580000Y-68830000D01*
X83481379Y-68830000D01*
X83501777Y-68984935D01*
X83561577Y-69129310D01*
X83656710Y-69253289D01*
X83780689Y-69348422D01*
X83871731Y-69386131D01*
X83925065Y-69408223D01*
X84080000Y-69428621D01*
X84234935Y-69408223D01*
X84325977Y-69370512D01*
X84379310Y-69348422D01*
X84503289Y-69253289D01*
X84598422Y-69129310D01*
X84623642Y-69068421D01*
X84642870Y-69022000D01*
X86741379Y-69022000D01*
X86761777Y-69176935D01*
X86821577Y-69321310D01*
X86916710Y-69445289D01*
X87040689Y-69540422D01*
X87131731Y-69578131D01*
X87185065Y-69600223D01*
X87323694Y-69618474D01*
X87388621Y-69647197D01*
X87427712Y-69706462D01*
X87428557Y-69777453D01*
X87390887Y-69837632D01*
X87355466Y-69859804D01*
X87239098Y-69908006D01*
X87239097Y-69908007D01*
X87239096Y-69908007D01*
X87115119Y-70003138D01*
X87019988Y-70127115D01*
X87019986Y-70127118D01*
X86960184Y-70271493D01*
X86939787Y-70426426D01*
X86939787Y-70426427D01*
X86960185Y-70581362D01*
X87019985Y-70725737D01*
X87115118Y-70849716D01*
X87239097Y-70944849D01*
X87301763Y-70970805D01*
X87383473Y-71004650D01*
X87538408Y-71025048D01*
X87693343Y-71004650D01*
X87801139Y-70960000D01*
X97931379Y-70960000D01*
X97951777Y-71114935D01*
X98011577Y-71259310D01*
X98106710Y-71383289D01*
X98230689Y-71478422D01*
X98321731Y-71516131D01*
X98375065Y-71538223D01*
X98530000Y-71558621D01*
X98684935Y-71538223D01*
X98775977Y-71500512D01*
X98829310Y-71478422D01*
X98953289Y-71383289D01*
X99048422Y-71259310D01*
X99084052Y-71173289D01*
X99108223Y-71114935D01*
X99128621Y-70960000D01*
X99108223Y-70805065D01*
X99048421Y-70660690D01*
X98953289Y-70536711D01*
X98953287Y-70536709D01*
X98953286Y-70536708D01*
X98829310Y-70441577D01*
X98684935Y-70381777D01*
X98530000Y-70361379D01*
X98375066Y-70381776D01*
X98230691Y-70441578D01*
X98230688Y-70441580D01*
X98106711Y-70536711D01*
X98011580Y-70660688D01*
X98011578Y-70660691D01*
X97951776Y-70805066D01*
X97931379Y-70959999D01*
X97931379Y-70960000D01*
X87801139Y-70960000D01*
X87801141Y-70959999D01*
X87837718Y-70944849D01*
X87961697Y-70849716D01*
X88056830Y-70725737D01*
X88083772Y-70660691D01*
X88116631Y-70581362D01*
X88137029Y-70426427D01*
X88135749Y-70416708D01*
X88120592Y-70301577D01*
X88116631Y-70271492D01*
X88056829Y-70127117D01*
X87961697Y-70003138D01*
X87961695Y-70003136D01*
X87961694Y-70003135D01*
X87837718Y-69908004D01*
X87693343Y-69848204D01*
X87554713Y-69829952D01*
X87489786Y-69801229D01*
X87450695Y-69741963D01*
X87449850Y-69670972D01*
X87487521Y-69610794D01*
X87522937Y-69588624D01*
X87639311Y-69540421D01*
X87763289Y-69445289D01*
X87798041Y-69400000D01*
X89601379Y-69400000D01*
X89621777Y-69554935D01*
X89681577Y-69699310D01*
X89776710Y-69823289D01*
X89900689Y-69918422D01*
X89991731Y-69956131D01*
X90045065Y-69978223D01*
X90200000Y-69998621D01*
X90354935Y-69978223D01*
X90445977Y-69940512D01*
X90499310Y-69918422D01*
X90588479Y-69850000D01*
X102191379Y-69850000D01*
X102211777Y-70004935D01*
X102271577Y-70149310D01*
X102366710Y-70273289D01*
X102490689Y-70368422D01*
X102581731Y-70406131D01*
X102635065Y-70428223D01*
X102790000Y-70448621D01*
X102944935Y-70428223D01*
X102949271Y-70426427D01*
X104719787Y-70426427D01*
X104740185Y-70581362D01*
X104799985Y-70725737D01*
X104895118Y-70849716D01*
X105019097Y-70944849D01*
X105081763Y-70970805D01*
X105163473Y-71004650D01*
X105318408Y-71025048D01*
X105473343Y-71004650D01*
X105581141Y-70959999D01*
X105617718Y-70944849D01*
X105741697Y-70849716D01*
X105836830Y-70725737D01*
X105863772Y-70660691D01*
X105896631Y-70581362D01*
X105917029Y-70426427D01*
X107259787Y-70426427D01*
X107280185Y-70581362D01*
X107339985Y-70725737D01*
X107435118Y-70849716D01*
X107559097Y-70944849D01*
X107621763Y-70970805D01*
X107703473Y-71004650D01*
X107858408Y-71025048D01*
X108013343Y-71004650D01*
X108121141Y-70959999D01*
X108157718Y-70944849D01*
X108281697Y-70849716D01*
X108376830Y-70725737D01*
X108403772Y-70660691D01*
X108436631Y-70581362D01*
X108457029Y-70426427D01*
X109799787Y-70426427D01*
X109820185Y-70581362D01*
X109879985Y-70725737D01*
X109975118Y-70849716D01*
X110099097Y-70944849D01*
X110161763Y-70970805D01*
X110243473Y-71004650D01*
X110398408Y-71025048D01*
X110553343Y-71004650D01*
X110661141Y-70959999D01*
X110697718Y-70944849D01*
X110821697Y-70849716D01*
X110916830Y-70725737D01*
X110943772Y-70660691D01*
X110976631Y-70581362D01*
X110997029Y-70426427D01*
X112339787Y-70426427D01*
X112360185Y-70581362D01*
X112419985Y-70725737D01*
X112515118Y-70849716D01*
X112639097Y-70944849D01*
X112701763Y-70970805D01*
X112783473Y-71004650D01*
X112938408Y-71025048D01*
X113093343Y-71004650D01*
X113201141Y-70959999D01*
X113237718Y-70944849D01*
X113361697Y-70849716D01*
X113456830Y-70725737D01*
X113483772Y-70660691D01*
X113516631Y-70581362D01*
X113537029Y-70426427D01*
X113535749Y-70416708D01*
X113520592Y-70301577D01*
X113516631Y-70271492D01*
X113456829Y-70127117D01*
X113361697Y-70003138D01*
X113361695Y-70003136D01*
X113361694Y-70003135D01*
X113237718Y-69908004D01*
X113093343Y-69848204D01*
X112938408Y-69827806D01*
X112783474Y-69848203D01*
X112639099Y-69908005D01*
X112639096Y-69908007D01*
X112515119Y-70003138D01*
X112419988Y-70127115D01*
X112419986Y-70127118D01*
X112360184Y-70271493D01*
X112339787Y-70426426D01*
X112339787Y-70426427D01*
X110997029Y-70426427D01*
X110995749Y-70416708D01*
X110980592Y-70301577D01*
X110976631Y-70271492D01*
X110916829Y-70127117D01*
X110821697Y-70003138D01*
X110821695Y-70003136D01*
X110821694Y-70003135D01*
X110697718Y-69908004D01*
X110553343Y-69848204D01*
X110398408Y-69827806D01*
X110243474Y-69848203D01*
X110099099Y-69908005D01*
X110099096Y-69908007D01*
X109975119Y-70003138D01*
X109879988Y-70127115D01*
X109879986Y-70127118D01*
X109820184Y-70271493D01*
X109799787Y-70426426D01*
X109799787Y-70426427D01*
X108457029Y-70426427D01*
X108455749Y-70416708D01*
X108440592Y-70301577D01*
X108436631Y-70271492D01*
X108376829Y-70127117D01*
X108281697Y-70003138D01*
X108281695Y-70003136D01*
X108281694Y-70003135D01*
X108157718Y-69908004D01*
X108013343Y-69848204D01*
X107858408Y-69827806D01*
X107703474Y-69848203D01*
X107559099Y-69908005D01*
X107559096Y-69908007D01*
X107435119Y-70003138D01*
X107339988Y-70127115D01*
X107339986Y-70127118D01*
X107280184Y-70271493D01*
X107259787Y-70426426D01*
X107259787Y-70426427D01*
X105917029Y-70426427D01*
X105915749Y-70416708D01*
X105900592Y-70301577D01*
X105896631Y-70271492D01*
X105836829Y-70127117D01*
X105741697Y-70003138D01*
X105741695Y-70003136D01*
X105741694Y-70003135D01*
X105617718Y-69908004D01*
X105473343Y-69848204D01*
X105318408Y-69827806D01*
X105163474Y-69848203D01*
X105019099Y-69908005D01*
X105019096Y-69908007D01*
X104895119Y-70003138D01*
X104799988Y-70127115D01*
X104799986Y-70127118D01*
X104740184Y-70271493D01*
X104719787Y-70426426D01*
X104719787Y-70426427D01*
X102949271Y-70426427D01*
X103035977Y-70390512D01*
X103089310Y-70368422D01*
X103213289Y-70273289D01*
X103308422Y-70149310D01*
X103336691Y-70081060D01*
X103368223Y-70004935D01*
X103388621Y-69850000D01*
X103388384Y-69848203D01*
X103368223Y-69695066D01*
X103351601Y-69654935D01*
X103308421Y-69550690D01*
X103213289Y-69426711D01*
X103213287Y-69426709D01*
X103213286Y-69426708D01*
X103089310Y-69331577D01*
X102944935Y-69271777D01*
X102790000Y-69251379D01*
X102635066Y-69271776D01*
X102490691Y-69331578D01*
X102490688Y-69331580D01*
X102366711Y-69426711D01*
X102271580Y-69550688D01*
X102271578Y-69550691D01*
X102211776Y-69695066D01*
X102191379Y-69849999D01*
X102191379Y-69850000D01*
X90588479Y-69850000D01*
X90623289Y-69823289D01*
X90718422Y-69699310D01*
X90751015Y-69620621D01*
X90778223Y-69554935D01*
X90798621Y-69400000D01*
X90791986Y-69349607D01*
X90778223Y-69245066D01*
X90759843Y-69200691D01*
X90718421Y-69100690D01*
X90623289Y-68976711D01*
X90623287Y-68976709D01*
X90623286Y-68976708D01*
X90499310Y-68881577D01*
X90347306Y-68818617D01*
X90348332Y-68816138D01*
X90299034Y-68786079D01*
X90268023Y-68722213D01*
X90276463Y-68651720D01*
X90321675Y-68596980D01*
X90359679Y-68579630D01*
X90364924Y-68578224D01*
X90364935Y-68578223D01*
X90433072Y-68550000D01*
X92731379Y-68550000D01*
X92751777Y-68704935D01*
X92811577Y-68849310D01*
X92906710Y-68973289D01*
X93030689Y-69068422D01*
X93108589Y-69100688D01*
X93175065Y-69128223D01*
X93330000Y-69148621D01*
X93484935Y-69128223D01*
X93575977Y-69090512D01*
X93629310Y-69068422D01*
X93753289Y-68973289D01*
X93848422Y-68849310D01*
X93890279Y-68748255D01*
X93908223Y-68704935D01*
X93928621Y-68550000D01*
X93926078Y-68530688D01*
X93908223Y-68395066D01*
X93901467Y-68378754D01*
X93848421Y-68250690D01*
X93753289Y-68126711D01*
X93753287Y-68126710D01*
X93753287Y-68126709D01*
X93707155Y-68091311D01*
X93701813Y-68087212D01*
X93659946Y-68029875D01*
X93655724Y-67959004D01*
X93690488Y-67897101D01*
X93701814Y-67887287D01*
X93702935Y-67886427D01*
X104719787Y-67886427D01*
X104740185Y-68041362D01*
X104799985Y-68185737D01*
X104895118Y-68309716D01*
X105019097Y-68404849D01*
X105110139Y-68442558D01*
X105163473Y-68464650D01*
X105318408Y-68485048D01*
X105473343Y-68464650D01*
X105573198Y-68423289D01*
X105617718Y-68404849D01*
X105741697Y-68309716D01*
X105836830Y-68185737D01*
X105875742Y-68091793D01*
X105896631Y-68041362D01*
X105917029Y-67886427D01*
X107259787Y-67886427D01*
X107280185Y-68041362D01*
X107339985Y-68185737D01*
X107435118Y-68309716D01*
X107559097Y-68404849D01*
X107650139Y-68442558D01*
X107703473Y-68464650D01*
X107858408Y-68485048D01*
X108013343Y-68464650D01*
X108113198Y-68423289D01*
X108157718Y-68404849D01*
X108281697Y-68309716D01*
X108376830Y-68185737D01*
X108415742Y-68091793D01*
X108436631Y-68041362D01*
X108457029Y-67886427D01*
X109799787Y-67886427D01*
X109820185Y-68041362D01*
X109879985Y-68185737D01*
X109975118Y-68309716D01*
X110099097Y-68404849D01*
X110190139Y-68442558D01*
X110243473Y-68464650D01*
X110398408Y-68485048D01*
X110553343Y-68464650D01*
X110653198Y-68423289D01*
X110697718Y-68404849D01*
X110821697Y-68309716D01*
X110916830Y-68185737D01*
X110955742Y-68091793D01*
X110976631Y-68041362D01*
X110997029Y-67886427D01*
X110991583Y-67845065D01*
X110976631Y-67731493D01*
X110964990Y-67703387D01*
X110916829Y-67587117D01*
X110821697Y-67463138D01*
X110821695Y-67463136D01*
X110821694Y-67463135D01*
X110697718Y-67368004D01*
X110553343Y-67308204D01*
X110398408Y-67287806D01*
X110243474Y-67308203D01*
X110099099Y-67368005D01*
X110099096Y-67368007D01*
X109975119Y-67463138D01*
X109879988Y-67587115D01*
X109879986Y-67587118D01*
X109820184Y-67731493D01*
X109799787Y-67886426D01*
X109799787Y-67886427D01*
X108457029Y-67886427D01*
X108451583Y-67845065D01*
X108436631Y-67731493D01*
X108424990Y-67703387D01*
X108376829Y-67587117D01*
X108281697Y-67463138D01*
X108281695Y-67463136D01*
X108281694Y-67463135D01*
X108157718Y-67368004D01*
X108013343Y-67308204D01*
X107858408Y-67287806D01*
X107703474Y-67308203D01*
X107559099Y-67368005D01*
X107559096Y-67368007D01*
X107435119Y-67463138D01*
X107339988Y-67587115D01*
X107339986Y-67587118D01*
X107280184Y-67731493D01*
X107259787Y-67886426D01*
X107259787Y-67886427D01*
X105917029Y-67886427D01*
X105911583Y-67845065D01*
X105896631Y-67731493D01*
X105884990Y-67703387D01*
X105836829Y-67587117D01*
X105741697Y-67463138D01*
X105741695Y-67463136D01*
X105741694Y-67463135D01*
X105617718Y-67368004D01*
X105473343Y-67308204D01*
X105318408Y-67287806D01*
X105163474Y-67308203D01*
X105019099Y-67368005D01*
X105019096Y-67368007D01*
X104895119Y-67463138D01*
X104799988Y-67587115D01*
X104799986Y-67587118D01*
X104740184Y-67731493D01*
X104719787Y-67886426D01*
X104719787Y-67886427D01*
X93702935Y-67886427D01*
X93702936Y-67886426D01*
X93753289Y-67847789D01*
X93826287Y-67752656D01*
X93848422Y-67723810D01*
X93870512Y-67670477D01*
X93908223Y-67579435D01*
X93928621Y-67424500D01*
X93908223Y-67269565D01*
X93848421Y-67125190D01*
X93753289Y-67001211D01*
X93753287Y-67001209D01*
X93753286Y-67001208D01*
X93629310Y-66906077D01*
X93484935Y-66846277D01*
X93330000Y-66825879D01*
X93175066Y-66846276D01*
X93030691Y-66906078D01*
X93030688Y-66906080D01*
X92906711Y-67001211D01*
X92811580Y-67125188D01*
X92811578Y-67125191D01*
X92751776Y-67269566D01*
X92731379Y-67424499D01*
X92731379Y-67424500D01*
X92751777Y-67579435D01*
X92811577Y-67723810D01*
X92906710Y-67847789D01*
X92958186Y-67887288D01*
X93000053Y-67944626D01*
X93004275Y-68015497D01*
X92969511Y-68077400D01*
X92958186Y-68087212D01*
X92906713Y-68126708D01*
X92811580Y-68250688D01*
X92811578Y-68250691D01*
X92751776Y-68395066D01*
X92731379Y-68549999D01*
X92731379Y-68550000D01*
X90433072Y-68550000D01*
X90433074Y-68549999D01*
X90509310Y-68518422D01*
X90633289Y-68423289D01*
X90728422Y-68299310D01*
X90756559Y-68231379D01*
X90788223Y-68154935D01*
X90808621Y-68000000D01*
X90806942Y-67987250D01*
X90793782Y-67887287D01*
X90788223Y-67845065D01*
X90728421Y-67700690D01*
X90633289Y-67576711D01*
X90633287Y-67576709D01*
X90633286Y-67576708D01*
X90509310Y-67481577D01*
X90364935Y-67421777D01*
X90210000Y-67401379D01*
X90055066Y-67421776D01*
X89910691Y-67481578D01*
X89910688Y-67481580D01*
X89786711Y-67576711D01*
X89691580Y-67700688D01*
X89691578Y-67700691D01*
X89631776Y-67845066D01*
X89611379Y-67999999D01*
X89611379Y-68000000D01*
X89631777Y-68154935D01*
X89691577Y-68299310D01*
X89786710Y-68423289D01*
X89910689Y-68518422D01*
X90062694Y-68581383D01*
X90061665Y-68583865D01*
X90110947Y-68613901D01*
X90141972Y-68677760D01*
X90133546Y-68748255D01*
X90088346Y-68803004D01*
X90050331Y-68820366D01*
X90045066Y-68821776D01*
X89900691Y-68881578D01*
X89900688Y-68881580D01*
X89776711Y-68976711D01*
X89681580Y-69100688D01*
X89681578Y-69100691D01*
X89621776Y-69245066D01*
X89601379Y-69399999D01*
X89601379Y-69400000D01*
X87798041Y-69400000D01*
X87824371Y-69365686D01*
X87858422Y-69321310D01*
X87886596Y-69253289D01*
X87918223Y-69176935D01*
X87938621Y-69022000D01*
X87933299Y-68981580D01*
X87920134Y-68881578D01*
X87918223Y-68867065D01*
X87858421Y-68722690D01*
X87763289Y-68598711D01*
X87643718Y-68506961D01*
X87601853Y-68449625D01*
X87597631Y-68378754D01*
X87632395Y-68316851D01*
X87643711Y-68307044D01*
X87763289Y-68215289D01*
X87858421Y-68091311D01*
X87858420Y-68091311D01*
X87858422Y-68091310D01*
X87901524Y-67987250D01*
X87918223Y-67946935D01*
X87938621Y-67792000D01*
X87933600Y-67753866D01*
X87918223Y-67637066D01*
X87897534Y-67587117D01*
X87858421Y-67492690D01*
X87763289Y-67368711D01*
X87763287Y-67368709D01*
X87763286Y-67368708D01*
X87639310Y-67273577D01*
X87494935Y-67213777D01*
X87340000Y-67193379D01*
X87185066Y-67213776D01*
X87040691Y-67273578D01*
X87040688Y-67273580D01*
X86916711Y-67368711D01*
X86821580Y-67492688D01*
X86821578Y-67492691D01*
X86761776Y-67637066D01*
X86741379Y-67791999D01*
X86741379Y-67792000D01*
X86761777Y-67946935D01*
X86821577Y-68091310D01*
X86916708Y-68215286D01*
X86916709Y-68215287D01*
X86916711Y-68215289D01*
X87036281Y-68307038D01*
X87078147Y-68364375D01*
X87082369Y-68435246D01*
X87047605Y-68497149D01*
X87036281Y-68506962D01*
X87021346Y-68518422D01*
X86916711Y-68598711D01*
X86821580Y-68722688D01*
X86821578Y-68722691D01*
X86761776Y-68867066D01*
X86741379Y-69021999D01*
X86741379Y-69022000D01*
X84642870Y-69022000D01*
X84658223Y-68984935D01*
X84678621Y-68830000D01*
X84677538Y-68821777D01*
X84664430Y-68722213D01*
X84658223Y-68675065D01*
X84598421Y-68530690D01*
X84503289Y-68406711D01*
X84503287Y-68406709D01*
X84503286Y-68406708D01*
X84379310Y-68311577D01*
X84234935Y-68251777D01*
X84080000Y-68231379D01*
X83925066Y-68251776D01*
X83780691Y-68311578D01*
X83780688Y-68311580D01*
X83656711Y-68406711D01*
X83561580Y-68530688D01*
X83561578Y-68530691D01*
X83501776Y-68675066D01*
X83481379Y-68829999D01*
X83481379Y-68830000D01*
X51580000Y-68830000D01*
X51580000Y-67886427D01*
X71699787Y-67886427D01*
X71720185Y-68041362D01*
X71779985Y-68185737D01*
X71875118Y-68309716D01*
X71999097Y-68404849D01*
X72090139Y-68442558D01*
X72143473Y-68464650D01*
X72298408Y-68485048D01*
X72453343Y-68464650D01*
X72553198Y-68423289D01*
X72597718Y-68404849D01*
X72721697Y-68309716D01*
X72816830Y-68185737D01*
X72855742Y-68091793D01*
X72876631Y-68041362D01*
X72897029Y-67886427D01*
X74239787Y-67886427D01*
X74260185Y-68041362D01*
X74319985Y-68185737D01*
X74415118Y-68309716D01*
X74539097Y-68404849D01*
X74630139Y-68442558D01*
X74683473Y-68464650D01*
X74838408Y-68485048D01*
X74993343Y-68464650D01*
X75093198Y-68423289D01*
X75137718Y-68404849D01*
X75261697Y-68309716D01*
X75356830Y-68185737D01*
X75395742Y-68091793D01*
X75416631Y-68041362D01*
X75437029Y-67886427D01*
X79319787Y-67886427D01*
X79340185Y-68041362D01*
X79399985Y-68185737D01*
X79495118Y-68309716D01*
X79619097Y-68404849D01*
X79710139Y-68442558D01*
X79763473Y-68464650D01*
X79918408Y-68485048D01*
X80073343Y-68464650D01*
X80173198Y-68423289D01*
X80217718Y-68404849D01*
X80341697Y-68309716D01*
X80436830Y-68185737D01*
X80475742Y-68091793D01*
X80496631Y-68041362D01*
X80517029Y-67886427D01*
X80511583Y-67845065D01*
X80496631Y-67731493D01*
X80484990Y-67703387D01*
X80436829Y-67587117D01*
X80341697Y-67463138D01*
X80341695Y-67463136D01*
X80341694Y-67463135D01*
X80217718Y-67368004D01*
X80073343Y-67308204D01*
X79918408Y-67287806D01*
X79763474Y-67308203D01*
X79619099Y-67368005D01*
X79619096Y-67368007D01*
X79495119Y-67463138D01*
X79399988Y-67587115D01*
X79399986Y-67587118D01*
X79340184Y-67731493D01*
X79319787Y-67886426D01*
X79319787Y-67886427D01*
X75437029Y-67886427D01*
X75431583Y-67845065D01*
X75416631Y-67731493D01*
X75404990Y-67703387D01*
X75356829Y-67587117D01*
X75261697Y-67463138D01*
X75261695Y-67463136D01*
X75261694Y-67463135D01*
X75137718Y-67368004D01*
X74993343Y-67308204D01*
X74838408Y-67287806D01*
X74683474Y-67308203D01*
X74539099Y-67368005D01*
X74539096Y-67368007D01*
X74415119Y-67463138D01*
X74319988Y-67587115D01*
X74319986Y-67587118D01*
X74260184Y-67731493D01*
X74239787Y-67886426D01*
X74239787Y-67886427D01*
X72897029Y-67886427D01*
X72891583Y-67845065D01*
X72876631Y-67731493D01*
X72864990Y-67703387D01*
X72816829Y-67587117D01*
X72721697Y-67463138D01*
X72721695Y-67463136D01*
X72721694Y-67463135D01*
X72597718Y-67368004D01*
X72453343Y-67308204D01*
X72298408Y-67287806D01*
X72143474Y-67308203D01*
X71999099Y-67368005D01*
X71999096Y-67368007D01*
X71875119Y-67463138D01*
X71779988Y-67587115D01*
X71779986Y-67587118D01*
X71720184Y-67731493D01*
X71699787Y-67886426D01*
X71699787Y-67886427D01*
X51580000Y-67886427D01*
X51580000Y-66370000D01*
X87931379Y-66370000D01*
X87951777Y-66524935D01*
X88011577Y-66669310D01*
X88106710Y-66793289D01*
X88230689Y-66888422D01*
X88321731Y-66926131D01*
X88375065Y-66948223D01*
X88530000Y-66968621D01*
X88684935Y-66948223D01*
X88786678Y-66906080D01*
X88829310Y-66888422D01*
X88953289Y-66793289D01*
X89048422Y-66669310D01*
X89081278Y-66589986D01*
X89108223Y-66524935D01*
X89128621Y-66370000D01*
X89128439Y-66368621D01*
X89108223Y-66215066D01*
X89057782Y-66093289D01*
X89048421Y-66070690D01*
X88953289Y-65946711D01*
X88953287Y-65946709D01*
X88953286Y-65946708D01*
X88829310Y-65851577D01*
X88684935Y-65791777D01*
X88530000Y-65771379D01*
X88375066Y-65791776D01*
X88230691Y-65851578D01*
X88230688Y-65851580D01*
X88106711Y-65946711D01*
X88011580Y-66070688D01*
X88011578Y-66070691D01*
X87951776Y-66215066D01*
X87931379Y-66369999D01*
X87931379Y-66370000D01*
X51580000Y-66370000D01*
X51580000Y-64640000D01*
X82871379Y-64640000D01*
X82891777Y-64794935D01*
X82951577Y-64939310D01*
X83046710Y-65063289D01*
X83170689Y-65158422D01*
X83251218Y-65191777D01*
X83315065Y-65218223D01*
X83470000Y-65238621D01*
X83474149Y-65238621D01*
X83477521Y-65239611D01*
X83478188Y-65239699D01*
X83478174Y-65239802D01*
X83542270Y-65258623D01*
X83588763Y-65312279D01*
X83598867Y-65382553D01*
X83574112Y-65441323D01*
X83562733Y-65456153D01*
X83551580Y-65470688D01*
X83551578Y-65470691D01*
X83491776Y-65615066D01*
X83471379Y-65769999D01*
X83471379Y-65770000D01*
X83491777Y-65924935D01*
X83551577Y-66069310D01*
X83646710Y-66193289D01*
X83770689Y-66288422D01*
X83861731Y-66326131D01*
X83915065Y-66348223D01*
X84070000Y-66368621D01*
X84224935Y-66348223D01*
X84315977Y-66310512D01*
X84369310Y-66288422D01*
X84493289Y-66193289D01*
X84588422Y-66069310D01*
X84635808Y-65954907D01*
X84648223Y-65924935D01*
X84668621Y-65770000D01*
X84648223Y-65615065D01*
X84588421Y-65470690D01*
X84493289Y-65346711D01*
X84493287Y-65346709D01*
X84493286Y-65346708D01*
X84492920Y-65346427D01*
X102179787Y-65346427D01*
X102200185Y-65501362D01*
X102259985Y-65645737D01*
X102355118Y-65769716D01*
X102479097Y-65864849D01*
X102570139Y-65902558D01*
X102623473Y-65924650D01*
X102778408Y-65945048D01*
X102933343Y-65924650D01*
X103024385Y-65886939D01*
X103077718Y-65864849D01*
X103201697Y-65769716D01*
X103296830Y-65645737D01*
X103335742Y-65551793D01*
X103356631Y-65501362D01*
X103377029Y-65346427D01*
X104719787Y-65346427D01*
X104740185Y-65501362D01*
X104799985Y-65645737D01*
X104895118Y-65769716D01*
X105019097Y-65864849D01*
X105110139Y-65902558D01*
X105163473Y-65924650D01*
X105318408Y-65945048D01*
X105473343Y-65924650D01*
X105564385Y-65886939D01*
X105617718Y-65864849D01*
X105741697Y-65769716D01*
X105836830Y-65645737D01*
X105875742Y-65551793D01*
X105896631Y-65501362D01*
X105917029Y-65346427D01*
X107259787Y-65346427D01*
X107280185Y-65501362D01*
X107339985Y-65645737D01*
X107435118Y-65769716D01*
X107559097Y-65864849D01*
X107650139Y-65902558D01*
X107703473Y-65924650D01*
X107858408Y-65945048D01*
X108013343Y-65924650D01*
X108104385Y-65886939D01*
X108157718Y-65864849D01*
X108281697Y-65769716D01*
X108376830Y-65645737D01*
X108415742Y-65551793D01*
X108436631Y-65501362D01*
X108457029Y-65346427D01*
X109799787Y-65346427D01*
X109820185Y-65501362D01*
X109879985Y-65645737D01*
X109975118Y-65769716D01*
X110099097Y-65864849D01*
X110190139Y-65902558D01*
X110243473Y-65924650D01*
X110398408Y-65945048D01*
X110553343Y-65924650D01*
X110644385Y-65886939D01*
X110697718Y-65864849D01*
X110821697Y-65769716D01*
X110916830Y-65645737D01*
X110955742Y-65551793D01*
X110976631Y-65501362D01*
X110997029Y-65346427D01*
X112339787Y-65346427D01*
X112360185Y-65501362D01*
X112419985Y-65645737D01*
X112515118Y-65769716D01*
X112639097Y-65864849D01*
X112730139Y-65902558D01*
X112783473Y-65924650D01*
X112938408Y-65945048D01*
X113093343Y-65924650D01*
X113184385Y-65886939D01*
X113237718Y-65864849D01*
X113361697Y-65769716D01*
X113456830Y-65645737D01*
X113495742Y-65551793D01*
X113516631Y-65501362D01*
X113537029Y-65346427D01*
X113516631Y-65191492D01*
X113456829Y-65047117D01*
X113361697Y-64923138D01*
X113361695Y-64923136D01*
X113361694Y-64923135D01*
X113237718Y-64828004D01*
X113093343Y-64768204D01*
X112938408Y-64747806D01*
X112783474Y-64768203D01*
X112639099Y-64828005D01*
X112639096Y-64828007D01*
X112515119Y-64923138D01*
X112419988Y-65047115D01*
X112419986Y-65047118D01*
X112360184Y-65191493D01*
X112339787Y-65346426D01*
X112339787Y-65346427D01*
X110997029Y-65346427D01*
X110976631Y-65191492D01*
X110916829Y-65047117D01*
X110821697Y-64923138D01*
X110821695Y-64923136D01*
X110821694Y-64923135D01*
X110697718Y-64828004D01*
X110553343Y-64768204D01*
X110398408Y-64747806D01*
X110243474Y-64768203D01*
X110099099Y-64828005D01*
X110099096Y-64828007D01*
X109975119Y-64923138D01*
X109879988Y-65047115D01*
X109879986Y-65047118D01*
X109820184Y-65191493D01*
X109799787Y-65346426D01*
X109799787Y-65346427D01*
X108457029Y-65346427D01*
X108436631Y-65191492D01*
X108376829Y-65047117D01*
X108281697Y-64923138D01*
X108281695Y-64923136D01*
X108281694Y-64923135D01*
X108157718Y-64828004D01*
X108013343Y-64768204D01*
X107858408Y-64747806D01*
X107703474Y-64768203D01*
X107559099Y-64828005D01*
X107559096Y-64828007D01*
X107435119Y-64923138D01*
X107339988Y-65047115D01*
X107339986Y-65047118D01*
X107280184Y-65191493D01*
X107259787Y-65346426D01*
X107259787Y-65346427D01*
X105917029Y-65346427D01*
X105896631Y-65191492D01*
X105836829Y-65047117D01*
X105741697Y-64923138D01*
X105741695Y-64923136D01*
X105741694Y-64923135D01*
X105617718Y-64828004D01*
X105473343Y-64768204D01*
X105318408Y-64747806D01*
X105163474Y-64768203D01*
X105019099Y-64828005D01*
X105019096Y-64828007D01*
X104895119Y-64923138D01*
X104799988Y-65047115D01*
X104799986Y-65047118D01*
X104740184Y-65191493D01*
X104719787Y-65346426D01*
X104719787Y-65346427D01*
X103377029Y-65346427D01*
X103356631Y-65191492D01*
X103296829Y-65047117D01*
X103201697Y-64923138D01*
X103201695Y-64923136D01*
X103201694Y-64923135D01*
X103077718Y-64828004D01*
X102933343Y-64768204D01*
X102778408Y-64747806D01*
X102623474Y-64768203D01*
X102479099Y-64828005D01*
X102479096Y-64828007D01*
X102355119Y-64923138D01*
X102259988Y-65047115D01*
X102259986Y-65047118D01*
X102200184Y-65191493D01*
X102179787Y-65346426D01*
X102179787Y-65346427D01*
X84492920Y-65346427D01*
X84369310Y-65251577D01*
X84224935Y-65191777D01*
X84070000Y-65171379D01*
X84065852Y-65171379D01*
X84062480Y-65170388D01*
X84061812Y-65170301D01*
X84061825Y-65170196D01*
X83997731Y-65151377D01*
X83951238Y-65097721D01*
X83941134Y-65027447D01*
X83965889Y-64968676D01*
X83980748Y-64949310D01*
X83988421Y-64939311D01*
X84048223Y-64794935D01*
X84067304Y-64650000D01*
X89691379Y-64650000D01*
X89711777Y-64804935D01*
X89771577Y-64949310D01*
X89866710Y-65073289D01*
X89990689Y-65168422D01*
X90081731Y-65206131D01*
X90135065Y-65228223D01*
X90290000Y-65248621D01*
X90444935Y-65228223D01*
X90535977Y-65190512D01*
X90589310Y-65168422D01*
X90713289Y-65073289D01*
X90808422Y-64949310D01*
X90858666Y-64828007D01*
X90868223Y-64804935D01*
X90888621Y-64650000D01*
X90887304Y-64640000D01*
X90868223Y-64495066D01*
X90864081Y-64485065D01*
X90808421Y-64350690D01*
X90795015Y-64333219D01*
X90769415Y-64267001D01*
X90783679Y-64197452D01*
X90795011Y-64179818D01*
X90818421Y-64149311D01*
X90829908Y-64121580D01*
X90854678Y-64061777D01*
X90878223Y-64004935D01*
X90898621Y-63850000D01*
X90895321Y-63824938D01*
X90879540Y-63705066D01*
X90878223Y-63695065D01*
X90867841Y-63670000D01*
X93411379Y-63670000D01*
X93431777Y-63824935D01*
X93491577Y-63969310D01*
X93586710Y-64093289D01*
X93710689Y-64188422D01*
X93801731Y-64226131D01*
X93855065Y-64248223D01*
X94010000Y-64268621D01*
X94164935Y-64248223D01*
X94255977Y-64210512D01*
X94309310Y-64188422D01*
X94433289Y-64093289D01*
X94528422Y-63969310D01*
X94568838Y-63871734D01*
X94588223Y-63824935D01*
X94590337Y-63808870D01*
X94619057Y-63743947D01*
X94678321Y-63704854D01*
X94749313Y-63704007D01*
X94809492Y-63741676D01*
X94831668Y-63777100D01*
X94861578Y-63849311D01*
X94956710Y-63973289D01*
X95080689Y-64068422D01*
X95171731Y-64106131D01*
X95225065Y-64128223D01*
X95380000Y-64148621D01*
X95534935Y-64128223D01*
X95625977Y-64090512D01*
X95679310Y-64068422D01*
X95803289Y-63973289D01*
X95898422Y-63849310D01*
X95920512Y-63795977D01*
X95958223Y-63704935D01*
X95978621Y-63550000D01*
X95958223Y-63395065D01*
X95898421Y-63250690D01*
X95803289Y-63126711D01*
X95803287Y-63126709D01*
X95803286Y-63126708D01*
X95679310Y-63031577D01*
X95534935Y-62971777D01*
X95380000Y-62951379D01*
X95225066Y-62971776D01*
X95080691Y-63031578D01*
X95080688Y-63031580D01*
X94956711Y-63126711D01*
X94861580Y-63250688D01*
X94861578Y-63250691D01*
X94801777Y-63395065D01*
X94799662Y-63411130D01*
X94770939Y-63476057D01*
X94711673Y-63515148D01*
X94640681Y-63515992D01*
X94580503Y-63478321D01*
X94558331Y-63442900D01*
X94528421Y-63370690D01*
X94433289Y-63246711D01*
X94433287Y-63246709D01*
X94433286Y-63246708D01*
X94309310Y-63151577D01*
X94164935Y-63091777D01*
X94010000Y-63071379D01*
X93855066Y-63091776D01*
X93710691Y-63151578D01*
X93710688Y-63151580D01*
X93586711Y-63246711D01*
X93491580Y-63370688D01*
X93491578Y-63370691D01*
X93431776Y-63515066D01*
X93411379Y-63669999D01*
X93411379Y-63670000D01*
X90867841Y-63670000D01*
X90818421Y-63550690D01*
X90723289Y-63426711D01*
X90723287Y-63426709D01*
X90723286Y-63426708D01*
X90599310Y-63331577D01*
X90454935Y-63271777D01*
X90300000Y-63251379D01*
X90145066Y-63271776D01*
X90000691Y-63331578D01*
X90000688Y-63331580D01*
X89876711Y-63426711D01*
X89781580Y-63550688D01*
X89781578Y-63550691D01*
X89721776Y-63695066D01*
X89701379Y-63849999D01*
X89701379Y-63850000D01*
X89721777Y-64004935D01*
X89781576Y-64149307D01*
X89781578Y-64149310D01*
X89781579Y-64149311D01*
X89794982Y-64166779D01*
X89820584Y-64232997D01*
X89806321Y-64302546D01*
X89794985Y-64320185D01*
X89771579Y-64350688D01*
X89771577Y-64350691D01*
X89711777Y-64495065D01*
X89691379Y-64649999D01*
X89691379Y-64650000D01*
X84067304Y-64650000D01*
X84068621Y-64640000D01*
X84048223Y-64485065D01*
X83988421Y-64340690D01*
X83893289Y-64216711D01*
X83893287Y-64216709D01*
X83893286Y-64216708D01*
X83769310Y-64121577D01*
X83624935Y-64061777D01*
X83470000Y-64041379D01*
X83315066Y-64061776D01*
X83170691Y-64121578D01*
X83170688Y-64121580D01*
X83046711Y-64216711D01*
X82951580Y-64340688D01*
X82951578Y-64340691D01*
X82891776Y-64485066D01*
X82871379Y-64639999D01*
X82871379Y-64640000D01*
X51580000Y-64640000D01*
X51580000Y-63860000D01*
X81351379Y-63860000D01*
X81371777Y-64014935D01*
X81431577Y-64159310D01*
X81526710Y-64283289D01*
X81650689Y-64378422D01*
X81741731Y-64416131D01*
X81795065Y-64438223D01*
X81950000Y-64458621D01*
X82104935Y-64438223D01*
X82195977Y-64400512D01*
X82249310Y-64378422D01*
X82373289Y-64283289D01*
X82468422Y-64159310D01*
X82506068Y-64068422D01*
X82528223Y-64014935D01*
X82540722Y-63920000D01*
X88011379Y-63920000D01*
X88031777Y-64074935D01*
X88091577Y-64219310D01*
X88186710Y-64343289D01*
X88310689Y-64438422D01*
X88379031Y-64466729D01*
X88455065Y-64498223D01*
X88610000Y-64518621D01*
X88764935Y-64498223D01*
X88855977Y-64460512D01*
X88909310Y-64438422D01*
X89033289Y-64343289D01*
X89128422Y-64219310D01*
X89157417Y-64149307D01*
X89188223Y-64074935D01*
X89208621Y-63920000D01*
X89207200Y-63909210D01*
X89188223Y-63765066D01*
X89179476Y-63743947D01*
X89128421Y-63620690D01*
X89033289Y-63496711D01*
X89033287Y-63496709D01*
X89033286Y-63496708D01*
X88909310Y-63401577D01*
X88764935Y-63341777D01*
X88610000Y-63321379D01*
X88455066Y-63341776D01*
X88310691Y-63401578D01*
X88310688Y-63401580D01*
X88186711Y-63496711D01*
X88091580Y-63620688D01*
X88091578Y-63620691D01*
X88031776Y-63765066D01*
X88011379Y-63919999D01*
X88011379Y-63920000D01*
X82540722Y-63920000D01*
X82548621Y-63860000D01*
X82547304Y-63850000D01*
X82528223Y-63705066D01*
X82528136Y-63704854D01*
X82468421Y-63560690D01*
X82373289Y-63436711D01*
X82373287Y-63436709D01*
X82373286Y-63436708D01*
X82249310Y-63341577D01*
X82104935Y-63281777D01*
X81950000Y-63261379D01*
X81795066Y-63281776D01*
X81650691Y-63341578D01*
X81650688Y-63341580D01*
X81526711Y-63436711D01*
X81431580Y-63560688D01*
X81431578Y-63560691D01*
X81371776Y-63705066D01*
X81351379Y-63859999D01*
X81351379Y-63860000D01*
X51580000Y-63860000D01*
X51580000Y-62806427D01*
X71699787Y-62806427D01*
X71720185Y-62961362D01*
X71779985Y-63105737D01*
X71875118Y-63229716D01*
X71999097Y-63324849D01*
X72090139Y-63362558D01*
X72143473Y-63384650D01*
X72298408Y-63405048D01*
X72453343Y-63384650D01*
X72544385Y-63346939D01*
X72597718Y-63324849D01*
X72721697Y-63229716D01*
X72816830Y-63105737D01*
X72855742Y-63011793D01*
X72876631Y-62961362D01*
X72897029Y-62806427D01*
X74239787Y-62806427D01*
X74260185Y-62961362D01*
X74319985Y-63105737D01*
X74415118Y-63229716D01*
X74539097Y-63324849D01*
X74630139Y-63362558D01*
X74683473Y-63384650D01*
X74838408Y-63405048D01*
X74993343Y-63384650D01*
X75084385Y-63346939D01*
X75137718Y-63324849D01*
X75261697Y-63229716D01*
X75356830Y-63105737D01*
X75395742Y-63011793D01*
X75416631Y-62961362D01*
X75437029Y-62806427D01*
X79319787Y-62806427D01*
X79340185Y-62961362D01*
X79399985Y-63105737D01*
X79495118Y-63229716D01*
X79619097Y-63324849D01*
X79710139Y-63362558D01*
X79763473Y-63384650D01*
X79918408Y-63405048D01*
X80073343Y-63384650D01*
X80164385Y-63346939D01*
X80217718Y-63324849D01*
X80341697Y-63229716D01*
X80436830Y-63105737D01*
X80475742Y-63011793D01*
X80496631Y-62961362D01*
X80517029Y-62806427D01*
X97099787Y-62806427D01*
X97120185Y-62961362D01*
X97179985Y-63105737D01*
X97275118Y-63229716D01*
X97399097Y-63324849D01*
X97490139Y-63362558D01*
X97543473Y-63384650D01*
X97698408Y-63405048D01*
X97853343Y-63384650D01*
X97944385Y-63346939D01*
X97997718Y-63324849D01*
X98121697Y-63229716D01*
X98216830Y-63105737D01*
X98255742Y-63011793D01*
X98276631Y-62961362D01*
X98297029Y-62806427D01*
X99639787Y-62806427D01*
X99660185Y-62961362D01*
X99719985Y-63105737D01*
X99815118Y-63229716D01*
X99939097Y-63324849D01*
X100030139Y-63362558D01*
X100083473Y-63384650D01*
X100238408Y-63405048D01*
X100393343Y-63384650D01*
X100484385Y-63346939D01*
X100537718Y-63324849D01*
X100661697Y-63229716D01*
X100756830Y-63105737D01*
X100795742Y-63011793D01*
X100816631Y-62961362D01*
X100837029Y-62806427D01*
X102179787Y-62806427D01*
X102200185Y-62961362D01*
X102259985Y-63105737D01*
X102355118Y-63229716D01*
X102479097Y-63324849D01*
X102570139Y-63362558D01*
X102623473Y-63384650D01*
X102778408Y-63405048D01*
X102933343Y-63384650D01*
X103024385Y-63346939D01*
X103077718Y-63324849D01*
X103201697Y-63229716D01*
X103296830Y-63105737D01*
X103335742Y-63011793D01*
X103356631Y-62961362D01*
X103377029Y-62806427D01*
X104719787Y-62806427D01*
X104740185Y-62961362D01*
X104799985Y-63105737D01*
X104895118Y-63229716D01*
X105019097Y-63324849D01*
X105110139Y-63362558D01*
X105163473Y-63384650D01*
X105318408Y-63405048D01*
X105473343Y-63384650D01*
X105564385Y-63346939D01*
X105617718Y-63324849D01*
X105741697Y-63229716D01*
X105836830Y-63105737D01*
X105875742Y-63011793D01*
X105896631Y-62961362D01*
X105917029Y-62806427D01*
X107259787Y-62806427D01*
X107280185Y-62961362D01*
X107339985Y-63105737D01*
X107435118Y-63229716D01*
X107559097Y-63324849D01*
X107650139Y-63362558D01*
X107703473Y-63384650D01*
X107858408Y-63405048D01*
X108013343Y-63384650D01*
X108104385Y-63346939D01*
X108157718Y-63324849D01*
X108281697Y-63229716D01*
X108376830Y-63105737D01*
X108415742Y-63011793D01*
X108436631Y-62961362D01*
X108457029Y-62806427D01*
X109799787Y-62806427D01*
X109820185Y-62961362D01*
X109879985Y-63105737D01*
X109975118Y-63229716D01*
X110099097Y-63324849D01*
X110190139Y-63362558D01*
X110243473Y-63384650D01*
X110398408Y-63405048D01*
X110553343Y-63384650D01*
X110644385Y-63346939D01*
X110697718Y-63324849D01*
X110821697Y-63229716D01*
X110916830Y-63105737D01*
X110955742Y-63011793D01*
X110976631Y-62961362D01*
X110997029Y-62806427D01*
X112339787Y-62806427D01*
X112360185Y-62961362D01*
X112419985Y-63105737D01*
X112515118Y-63229716D01*
X112639097Y-63324849D01*
X112730139Y-63362558D01*
X112783473Y-63384650D01*
X112938408Y-63405048D01*
X113093343Y-63384650D01*
X113184385Y-63346939D01*
X113237718Y-63324849D01*
X113361697Y-63229716D01*
X113456830Y-63105737D01*
X113495742Y-63011793D01*
X113516631Y-62961362D01*
X113537029Y-62806427D01*
X113516631Y-62651492D01*
X113456829Y-62507117D01*
X113361697Y-62383138D01*
X113361695Y-62383136D01*
X113361694Y-62383135D01*
X113237718Y-62288004D01*
X113093343Y-62228204D01*
X112938408Y-62207806D01*
X112783474Y-62228203D01*
X112639099Y-62288005D01*
X112639096Y-62288007D01*
X112515119Y-62383138D01*
X112419988Y-62507115D01*
X112419986Y-62507118D01*
X112360184Y-62651493D01*
X112339787Y-62806426D01*
X112339787Y-62806427D01*
X110997029Y-62806427D01*
X110976631Y-62651492D01*
X110916829Y-62507117D01*
X110821697Y-62383138D01*
X110821695Y-62383136D01*
X110821694Y-62383135D01*
X110697718Y-62288004D01*
X110553343Y-62228204D01*
X110398408Y-62207806D01*
X110243474Y-62228203D01*
X110099099Y-62288005D01*
X110099096Y-62288007D01*
X109975119Y-62383138D01*
X109879988Y-62507115D01*
X109879986Y-62507118D01*
X109820184Y-62651493D01*
X109799787Y-62806426D01*
X109799787Y-62806427D01*
X108457029Y-62806427D01*
X108436631Y-62651492D01*
X108376829Y-62507117D01*
X108281697Y-62383138D01*
X108281695Y-62383136D01*
X108281694Y-62383135D01*
X108157718Y-62288004D01*
X108013343Y-62228204D01*
X107858408Y-62207806D01*
X107703474Y-62228203D01*
X107559099Y-62288005D01*
X107559096Y-62288007D01*
X107435119Y-62383138D01*
X107339988Y-62507115D01*
X107339986Y-62507118D01*
X107280184Y-62651493D01*
X107259787Y-62806426D01*
X107259787Y-62806427D01*
X105917029Y-62806427D01*
X105896631Y-62651492D01*
X105836829Y-62507117D01*
X105741697Y-62383138D01*
X105741695Y-62383136D01*
X105741694Y-62383135D01*
X105617718Y-62288004D01*
X105473343Y-62228204D01*
X105318408Y-62207806D01*
X105163474Y-62228203D01*
X105019099Y-62288005D01*
X105019096Y-62288007D01*
X104895119Y-62383138D01*
X104799988Y-62507115D01*
X104799986Y-62507118D01*
X104740184Y-62651493D01*
X104719787Y-62806426D01*
X104719787Y-62806427D01*
X103377029Y-62806427D01*
X103356631Y-62651492D01*
X103296829Y-62507117D01*
X103201697Y-62383138D01*
X103201695Y-62383136D01*
X103201694Y-62383135D01*
X103077718Y-62288004D01*
X102933343Y-62228204D01*
X102778408Y-62207806D01*
X102623474Y-62228203D01*
X102479099Y-62288005D01*
X102479096Y-62288007D01*
X102355119Y-62383138D01*
X102259988Y-62507115D01*
X102259986Y-62507118D01*
X102200184Y-62651493D01*
X102179787Y-62806426D01*
X102179787Y-62806427D01*
X100837029Y-62806427D01*
X100816631Y-62651492D01*
X100756829Y-62507117D01*
X100661697Y-62383138D01*
X100661695Y-62383136D01*
X100661694Y-62383135D01*
X100537718Y-62288004D01*
X100393343Y-62228204D01*
X100238408Y-62207806D01*
X100083474Y-62228203D01*
X99939099Y-62288005D01*
X99939096Y-62288007D01*
X99815119Y-62383138D01*
X99719988Y-62507115D01*
X99719986Y-62507118D01*
X99660184Y-62651493D01*
X99639787Y-62806426D01*
X99639787Y-62806427D01*
X98297029Y-62806427D01*
X98276631Y-62651492D01*
X98216829Y-62507117D01*
X98121697Y-62383138D01*
X98121695Y-62383136D01*
X98121694Y-62383135D01*
X97997718Y-62288004D01*
X97853343Y-62228204D01*
X97698408Y-62207806D01*
X97543474Y-62228203D01*
X97399099Y-62288005D01*
X97399096Y-62288007D01*
X97275119Y-62383138D01*
X97179988Y-62507115D01*
X97179986Y-62507118D01*
X97120184Y-62651493D01*
X97099787Y-62806426D01*
X97099787Y-62806427D01*
X80517029Y-62806427D01*
X80496631Y-62651492D01*
X80436829Y-62507117D01*
X80341697Y-62383138D01*
X80341695Y-62383136D01*
X80341694Y-62383135D01*
X80217718Y-62288004D01*
X80073343Y-62228204D01*
X79918408Y-62207806D01*
X79763474Y-62228203D01*
X79619099Y-62288005D01*
X79619096Y-62288007D01*
X79495119Y-62383138D01*
X79399988Y-62507115D01*
X79399986Y-62507118D01*
X79340184Y-62651493D01*
X79319787Y-62806426D01*
X79319787Y-62806427D01*
X75437029Y-62806427D01*
X75416631Y-62651492D01*
X75356829Y-62507117D01*
X75261697Y-62383138D01*
X75261695Y-62383136D01*
X75261694Y-62383135D01*
X75137718Y-62288004D01*
X74993343Y-62228204D01*
X74838408Y-62207806D01*
X74683474Y-62228203D01*
X74539099Y-62288005D01*
X74539096Y-62288007D01*
X74415119Y-62383138D01*
X74319988Y-62507115D01*
X74319986Y-62507118D01*
X74260184Y-62651493D01*
X74239787Y-62806426D01*
X74239787Y-62806427D01*
X72897029Y-62806427D01*
X72876631Y-62651492D01*
X72816829Y-62507117D01*
X72721697Y-62383138D01*
X72721695Y-62383136D01*
X72721694Y-62383135D01*
X72597718Y-62288004D01*
X72453343Y-62228204D01*
X72298408Y-62207806D01*
X72143474Y-62228203D01*
X71999099Y-62288005D01*
X71999096Y-62288007D01*
X71875119Y-62383138D01*
X71779988Y-62507115D01*
X71779986Y-62507118D01*
X71720184Y-62651493D01*
X71699787Y-62806426D01*
X71699787Y-62806427D01*
X51580000Y-62806427D01*
X51580000Y-60266427D01*
X74239787Y-60266427D01*
X74260185Y-60421362D01*
X74319985Y-60565737D01*
X74415118Y-60689716D01*
X74539097Y-60784849D01*
X74630139Y-60822558D01*
X74683473Y-60844650D01*
X74838408Y-60865048D01*
X74993343Y-60844650D01*
X75084385Y-60806939D01*
X75137718Y-60784849D01*
X75261697Y-60689716D01*
X75356830Y-60565737D01*
X75395742Y-60471793D01*
X75416631Y-60421362D01*
X75437029Y-60266427D01*
X79319787Y-60266427D01*
X79340185Y-60421362D01*
X79399985Y-60565737D01*
X79495118Y-60689716D01*
X79619097Y-60784849D01*
X79710139Y-60822558D01*
X79763473Y-60844650D01*
X79918408Y-60865048D01*
X80073343Y-60844650D01*
X80164385Y-60806939D01*
X80217718Y-60784849D01*
X80341697Y-60689716D01*
X80436830Y-60565737D01*
X80475742Y-60471793D01*
X80496631Y-60421362D01*
X80517029Y-60266427D01*
X80496631Y-60111492D01*
X80436829Y-59967117D01*
X80341697Y-59843138D01*
X80341695Y-59843136D01*
X80341694Y-59843135D01*
X80217718Y-59748004D01*
X80073343Y-59688204D01*
X79918408Y-59667806D01*
X79763474Y-59688203D01*
X79619099Y-59748005D01*
X79619096Y-59748007D01*
X79495119Y-59843138D01*
X79399988Y-59967115D01*
X79399986Y-59967118D01*
X79340184Y-60111493D01*
X79319787Y-60266426D01*
X79319787Y-60266427D01*
X75437029Y-60266427D01*
X75416631Y-60111492D01*
X75356829Y-59967117D01*
X75261697Y-59843138D01*
X75261695Y-59843136D01*
X75261694Y-59843135D01*
X75137718Y-59748004D01*
X74993343Y-59688204D01*
X74838408Y-59667806D01*
X74683474Y-59688203D01*
X74539099Y-59748005D01*
X74539096Y-59748007D01*
X74415119Y-59843138D01*
X74319988Y-59967115D01*
X74319986Y-59967118D01*
X74260184Y-60111493D01*
X74239787Y-60266426D01*
X74239787Y-60266427D01*
X51580000Y-60266427D01*
X51580000Y-59420000D01*
X70151379Y-59420000D01*
X70171777Y-59574935D01*
X70231577Y-59719310D01*
X70326710Y-59843289D01*
X70450689Y-59938422D01*
X70519970Y-59967118D01*
X70595065Y-59998223D01*
X70750000Y-60018621D01*
X70904935Y-59998223D01*
X70995977Y-59960512D01*
X71049310Y-59938422D01*
X71173286Y-59843291D01*
X71173285Y-59843291D01*
X71173289Y-59843289D01*
X71210039Y-59795395D01*
X71267375Y-59753530D01*
X71338246Y-59749308D01*
X71400149Y-59784072D01*
X71409954Y-59795387D01*
X71446711Y-59843289D01*
X71446713Y-59843291D01*
X71570689Y-59938422D01*
X71639970Y-59967118D01*
X71715065Y-59998223D01*
X71870000Y-60018621D01*
X72024935Y-59998223D01*
X72115977Y-59960512D01*
X72169310Y-59938422D01*
X72293289Y-59843289D01*
X72388422Y-59719310D01*
X72410512Y-59665977D01*
X72448223Y-59574935D01*
X72468621Y-59420000D01*
X72448223Y-59265065D01*
X72388421Y-59120690D01*
X72293289Y-58996711D01*
X72293287Y-58996709D01*
X72293286Y-58996708D01*
X72169310Y-58901577D01*
X72024935Y-58841777D01*
X71870000Y-58821379D01*
X71715066Y-58841776D01*
X71570691Y-58901578D01*
X71570688Y-58901580D01*
X71446708Y-58996713D01*
X71409962Y-59044602D01*
X71352624Y-59086469D01*
X71281753Y-59090691D01*
X71219850Y-59055927D01*
X71210038Y-59044602D01*
X71173289Y-58996710D01*
X71049310Y-58901577D01*
X70904935Y-58841777D01*
X70750000Y-58821379D01*
X70595066Y-58841776D01*
X70450691Y-58901578D01*
X70450688Y-58901580D01*
X70326711Y-58996711D01*
X70231580Y-59120688D01*
X70231578Y-59120691D01*
X70171776Y-59265066D01*
X70151379Y-59419999D01*
X70151379Y-59420000D01*
X51580000Y-59420000D01*
X51580000Y-58470000D01*
X64811379Y-58470000D01*
X64831777Y-58624935D01*
X64891577Y-58769310D01*
X64986710Y-58893289D01*
X65110689Y-58988422D01*
X65201731Y-59026131D01*
X65255065Y-59048223D01*
X65410000Y-59068621D01*
X65564935Y-59048223D01*
X65655977Y-59010512D01*
X65709310Y-58988422D01*
X65787504Y-58928421D01*
X65833289Y-58893289D01*
X65921202Y-58778718D01*
X65978538Y-58736853D01*
X66049409Y-58732631D01*
X66111312Y-58767395D01*
X66121125Y-58778720D01*
X66216710Y-58903289D01*
X66340689Y-58998422D01*
X66431731Y-59036131D01*
X66485065Y-59058223D01*
X66640000Y-59078621D01*
X66794935Y-59058223D01*
X66885977Y-59020512D01*
X66939310Y-58998422D01*
X67063289Y-58903289D01*
X67158422Y-58779310D01*
X67196068Y-58688422D01*
X67218223Y-58634935D01*
X67238621Y-58480000D01*
X67237737Y-58473289D01*
X67229405Y-58410000D01*
X74151379Y-58410000D01*
X74171777Y-58564935D01*
X74231577Y-58709310D01*
X74326710Y-58833289D01*
X74450689Y-58928422D01*
X74541731Y-58966131D01*
X74595065Y-58988223D01*
X74750000Y-59008621D01*
X74904935Y-58988223D01*
X74995977Y-58950512D01*
X75049310Y-58928422D01*
X75173289Y-58833289D01*
X75268422Y-58709310D01*
X75316478Y-58593289D01*
X75328223Y-58564935D01*
X75348621Y-58410000D01*
X75328223Y-58255065D01*
X75292988Y-58170000D01*
X76341379Y-58170000D01*
X76361777Y-58324935D01*
X76421577Y-58469310D01*
X76516710Y-58593289D01*
X76640689Y-58688422D01*
X76731731Y-58726131D01*
X76785065Y-58748223D01*
X76940000Y-58768621D01*
X77094935Y-58748223D01*
X77188880Y-58709310D01*
X77239310Y-58688422D01*
X77363289Y-58593289D01*
X77458422Y-58469310D01*
X77482989Y-58409999D01*
X77518223Y-58324935D01*
X77538621Y-58170000D01*
X77518223Y-58015065D01*
X77458421Y-57870690D01*
X77363289Y-57746711D01*
X77363287Y-57746709D01*
X77363286Y-57746708D01*
X77336856Y-57726427D01*
X79319787Y-57726427D01*
X79340185Y-57881362D01*
X79399985Y-58025737D01*
X79495118Y-58149716D01*
X79619097Y-58244849D01*
X79710139Y-58282558D01*
X79763473Y-58304650D01*
X79918408Y-58325048D01*
X80073343Y-58304650D01*
X80164385Y-58266939D01*
X80217718Y-58244849D01*
X80341697Y-58149716D01*
X80436830Y-58025737D01*
X80475742Y-57931793D01*
X80496631Y-57881362D01*
X80517029Y-57726427D01*
X80496631Y-57571492D01*
X80436829Y-57427117D01*
X80341697Y-57303138D01*
X80341695Y-57303136D01*
X80341694Y-57303135D01*
X80217718Y-57208004D01*
X80073343Y-57148204D01*
X79918408Y-57127806D01*
X79763474Y-57148203D01*
X79619099Y-57208005D01*
X79619096Y-57208007D01*
X79495119Y-57303138D01*
X79399988Y-57427115D01*
X79399986Y-57427118D01*
X79340184Y-57571493D01*
X79319787Y-57726426D01*
X79319787Y-57726427D01*
X77336856Y-57726427D01*
X77239310Y-57651577D01*
X77094935Y-57591777D01*
X76940000Y-57571379D01*
X76785066Y-57591776D01*
X76640691Y-57651578D01*
X76640688Y-57651580D01*
X76516711Y-57746711D01*
X76421580Y-57870688D01*
X76421578Y-57870691D01*
X76361776Y-58015066D01*
X76341379Y-58169999D01*
X76341379Y-58170000D01*
X75292988Y-58170000D01*
X75268421Y-58110690D01*
X75173289Y-57986711D01*
X75173287Y-57986709D01*
X75173286Y-57986708D01*
X75049310Y-57891577D01*
X74904935Y-57831777D01*
X74750000Y-57811379D01*
X74595066Y-57831776D01*
X74450691Y-57891578D01*
X74450688Y-57891580D01*
X74326711Y-57986711D01*
X74231580Y-58110688D01*
X74231578Y-58110691D01*
X74171776Y-58255066D01*
X74151379Y-58409999D01*
X74151379Y-58410000D01*
X67229405Y-58410000D01*
X67218223Y-58325066D01*
X67214081Y-58315065D01*
X67158421Y-58180690D01*
X67063289Y-58056711D01*
X67063287Y-58056709D01*
X67063286Y-58056708D01*
X66939310Y-57961577D01*
X66794935Y-57901777D01*
X66640000Y-57881379D01*
X66485066Y-57901776D01*
X66340691Y-57961578D01*
X66340688Y-57961580D01*
X66216708Y-58056713D01*
X66128798Y-58171280D01*
X66071460Y-58213147D01*
X66000589Y-58217369D01*
X65938686Y-58182605D01*
X65928873Y-58171280D01*
X65928421Y-58170691D01*
X65928421Y-58170690D01*
X65833289Y-58046711D01*
X65833287Y-58046709D01*
X65833286Y-58046708D01*
X65709310Y-57951577D01*
X65564935Y-57891777D01*
X65410000Y-57871379D01*
X65255066Y-57891776D01*
X65110691Y-57951578D01*
X65110688Y-57951580D01*
X64986711Y-58046711D01*
X64891580Y-58170688D01*
X64891578Y-58170691D01*
X64831776Y-58315066D01*
X64811379Y-58469999D01*
X64811379Y-58470000D01*
X51580000Y-58470000D01*
X51580000Y-56330000D01*
X72721379Y-56330000D01*
X72741777Y-56484935D01*
X72801577Y-56629310D01*
X72896710Y-56753289D01*
X73020689Y-56848422D01*
X73111731Y-56886131D01*
X73165065Y-56908223D01*
X73320000Y-56928621D01*
X73474935Y-56908223D01*
X73565977Y-56870512D01*
X73619310Y-56848422D01*
X73743289Y-56753289D01*
X73838422Y-56629310D01*
X73860512Y-56575977D01*
X73898223Y-56484935D01*
X73918621Y-56330000D01*
X73898223Y-56175065D01*
X73838421Y-56030690D01*
X73743289Y-55906711D01*
X73743287Y-55906709D01*
X73743286Y-55906708D01*
X73619310Y-55811577D01*
X73474935Y-55751777D01*
X73320000Y-55731379D01*
X73165066Y-55751776D01*
X73020691Y-55811578D01*
X73020688Y-55811580D01*
X72896711Y-55906711D01*
X72801580Y-56030688D01*
X72801578Y-56030691D01*
X72741776Y-56175066D01*
X72721379Y-56329999D01*
X72721379Y-56330000D01*
X51580000Y-56330000D01*
X51580000Y-54980000D01*
X64211379Y-54980000D01*
X64231777Y-55134935D01*
X64291577Y-55279310D01*
X64386710Y-55403289D01*
X64510689Y-55498422D01*
X64601731Y-55536131D01*
X64655065Y-55558223D01*
X64810000Y-55578621D01*
X64964935Y-55558223D01*
X65055977Y-55520512D01*
X65109310Y-55498422D01*
X65233289Y-55403289D01*
X65328422Y-55279310D01*
X65350512Y-55225977D01*
X65388223Y-55134935D01*
X65408621Y-54980000D01*
X65404671Y-54950000D01*
X74191379Y-54950000D01*
X74211777Y-55104935D01*
X74271577Y-55249310D01*
X74366710Y-55373289D01*
X74490689Y-55468422D01*
X74563116Y-55498421D01*
X74635065Y-55528223D01*
X74790000Y-55548621D01*
X74944935Y-55528223D01*
X75047506Y-55485737D01*
X75089310Y-55468422D01*
X75213289Y-55373289D01*
X75308422Y-55249310D01*
X75330512Y-55195977D01*
X75349556Y-55150000D01*
X78001379Y-55150000D01*
X78021777Y-55304935D01*
X78081577Y-55449310D01*
X78176710Y-55573289D01*
X78300689Y-55668422D01*
X78388632Y-55704848D01*
X78445065Y-55728223D01*
X78600000Y-55748621D01*
X78754935Y-55728223D01*
X78845977Y-55690512D01*
X78899310Y-55668422D01*
X79023289Y-55573289D01*
X79118421Y-55449311D01*
X79135251Y-55408680D01*
X79179796Y-55353401D01*
X79247159Y-55330978D01*
X79315950Y-55348535D01*
X79364330Y-55400496D01*
X79368068Y-55408680D01*
X79399986Y-55485738D01*
X79495118Y-55609716D01*
X79619097Y-55704849D01*
X79710139Y-55742558D01*
X79763473Y-55764650D01*
X79918408Y-55785048D01*
X80073343Y-55764650D01*
X80164385Y-55726939D01*
X80217718Y-55704849D01*
X80341697Y-55609716D01*
X80436830Y-55485737D01*
X80475742Y-55391793D01*
X80496631Y-55341362D01*
X80517029Y-55186427D01*
X80496631Y-55031492D01*
X80436829Y-54887117D01*
X80341697Y-54763138D01*
X80341695Y-54763136D01*
X80341694Y-54763135D01*
X80217718Y-54668004D01*
X80073343Y-54608204D01*
X79918408Y-54587806D01*
X79763474Y-54608203D01*
X79619099Y-54668005D01*
X79619096Y-54668007D01*
X79495119Y-54763138D01*
X79399988Y-54887115D01*
X79399984Y-54887123D01*
X79383156Y-54927749D01*
X79338607Y-54983030D01*
X79271244Y-55005450D01*
X79202453Y-54987891D01*
X79154075Y-54935928D01*
X79150343Y-54927757D01*
X79118421Y-54850690D01*
X79023289Y-54726711D01*
X79023287Y-54726709D01*
X79023286Y-54726708D01*
X78899310Y-54631577D01*
X78754935Y-54571777D01*
X78600000Y-54551379D01*
X78445066Y-54571776D01*
X78300691Y-54631578D01*
X78300688Y-54631580D01*
X78176711Y-54726711D01*
X78081580Y-54850688D01*
X78081578Y-54850691D01*
X78021776Y-54995066D01*
X78001379Y-55149999D01*
X78001379Y-55150000D01*
X75349556Y-55150000D01*
X75368223Y-55104935D01*
X75388621Y-54950000D01*
X75385691Y-54927748D01*
X75368223Y-54795066D01*
X75339910Y-54726711D01*
X75308421Y-54650690D01*
X75213289Y-54526711D01*
X75213287Y-54526709D01*
X75213286Y-54526708D01*
X75089310Y-54431577D01*
X74944935Y-54371777D01*
X74790000Y-54351379D01*
X74635066Y-54371776D01*
X74490691Y-54431578D01*
X74490688Y-54431580D01*
X74366711Y-54526711D01*
X74271580Y-54650688D01*
X74271578Y-54650691D01*
X74211776Y-54795066D01*
X74191379Y-54949999D01*
X74191379Y-54950000D01*
X65404671Y-54950000D01*
X65388223Y-54825065D01*
X65328421Y-54680690D01*
X65233289Y-54556711D01*
X65233287Y-54556709D01*
X65233286Y-54556708D01*
X65109310Y-54461577D01*
X65020260Y-54424693D01*
X64964979Y-54380146D01*
X64942557Y-54312782D01*
X64960115Y-54243991D01*
X65012076Y-54195612D01*
X65020254Y-54191877D01*
X65060260Y-54175307D01*
X65149310Y-54138422D01*
X65273289Y-54043289D01*
X65368422Y-53919310D01*
X65421613Y-53790892D01*
X65428223Y-53774935D01*
X65448621Y-53620000D01*
X65428223Y-53465065D01*
X65368421Y-53320690D01*
X65273289Y-53196711D01*
X65273287Y-53196709D01*
X65273286Y-53196708D01*
X65212416Y-53150000D01*
X66731379Y-53150000D01*
X66751777Y-53304935D01*
X66811577Y-53449310D01*
X66906710Y-53573289D01*
X67030689Y-53668422D01*
X67121731Y-53706131D01*
X67175065Y-53728223D01*
X67330000Y-53748621D01*
X67484935Y-53728223D01*
X67581507Y-53688222D01*
X67629310Y-53668422D01*
X67753286Y-53573291D01*
X67753285Y-53573291D01*
X67753289Y-53573289D01*
X67820385Y-53485846D01*
X67877721Y-53443982D01*
X67948592Y-53439760D01*
X68010495Y-53474524D01*
X68020308Y-53485848D01*
X68054717Y-53530691D01*
X68056712Y-53533290D01*
X68180689Y-53628422D01*
X68271731Y-53666131D01*
X68325065Y-53688223D01*
X68480000Y-53708621D01*
X68634935Y-53688223D01*
X68725977Y-53650512D01*
X68779310Y-53628422D01*
X68903289Y-53533289D01*
X68998422Y-53409310D01*
X69035128Y-53320691D01*
X69058223Y-53264935D01*
X69065104Y-53212669D01*
X72137887Y-53212669D01*
X72158285Y-53367604D01*
X72218085Y-53511979D01*
X72313218Y-53635958D01*
X72437197Y-53731091D01*
X72528239Y-53768800D01*
X72581573Y-53790892D01*
X72736508Y-53811290D01*
X72891443Y-53790892D01*
X72993495Y-53748621D01*
X73035818Y-53731091D01*
X73159797Y-53635958D01*
X73254930Y-53511979D01*
X73280887Y-53449311D01*
X73314731Y-53367604D01*
X73335129Y-53212669D01*
X73314731Y-53057734D01*
X73254929Y-52913359D01*
X73221659Y-52870000D01*
X76781379Y-52870000D01*
X76801777Y-53024935D01*
X76861577Y-53169310D01*
X76956710Y-53293289D01*
X77080689Y-53388422D01*
X77171731Y-53426131D01*
X77225065Y-53448223D01*
X77380000Y-53468621D01*
X77534935Y-53448223D01*
X77628880Y-53409310D01*
X77679310Y-53388422D01*
X77803289Y-53293289D01*
X77898422Y-53169310D01*
X77939674Y-53069716D01*
X77958223Y-53024935D01*
X77978621Y-52870000D01*
X77976078Y-52850688D01*
X77958223Y-52715066D01*
X77949601Y-52694249D01*
X77929792Y-52646427D01*
X79319787Y-52646427D01*
X79340185Y-52801362D01*
X79399985Y-52945737D01*
X79495118Y-53069716D01*
X79619097Y-53164849D01*
X79710139Y-53202558D01*
X79763473Y-53224650D01*
X79918408Y-53245048D01*
X80073343Y-53224650D01*
X80164385Y-53186939D01*
X80217718Y-53164849D01*
X80341697Y-53069716D01*
X80436830Y-52945737D01*
X80476198Y-52850691D01*
X80496631Y-52801362D01*
X80517029Y-52646427D01*
X80496631Y-52491492D01*
X80436829Y-52347117D01*
X80341697Y-52223138D01*
X80341695Y-52223136D01*
X80341694Y-52223135D01*
X80217718Y-52128004D01*
X80073343Y-52068204D01*
X79918408Y-52047806D01*
X79763474Y-52068203D01*
X79619099Y-52128005D01*
X79619096Y-52128007D01*
X79495119Y-52223138D01*
X79399988Y-52347115D01*
X79399986Y-52347118D01*
X79340184Y-52491493D01*
X79319787Y-52646426D01*
X79319787Y-52646427D01*
X77929792Y-52646427D01*
X77898421Y-52570690D01*
X77803289Y-52446711D01*
X77803287Y-52446709D01*
X77803286Y-52446708D01*
X77679310Y-52351577D01*
X77534935Y-52291777D01*
X77380000Y-52271379D01*
X77225066Y-52291776D01*
X77080691Y-52351578D01*
X77080688Y-52351580D01*
X76956711Y-52446711D01*
X76861580Y-52570688D01*
X76861578Y-52570691D01*
X76801776Y-52715066D01*
X76781379Y-52869999D01*
X76781379Y-52870000D01*
X73221659Y-52870000D01*
X73159797Y-52789380D01*
X73159795Y-52789378D01*
X73159794Y-52789377D01*
X73035818Y-52694246D01*
X72891443Y-52634446D01*
X72736508Y-52614048D01*
X72581574Y-52634445D01*
X72437199Y-52694247D01*
X72437196Y-52694249D01*
X72313219Y-52789380D01*
X72218088Y-52913357D01*
X72218086Y-52913360D01*
X72158284Y-53057735D01*
X72137887Y-53212668D01*
X72137887Y-53212669D01*
X69065104Y-53212669D01*
X69078621Y-53110000D01*
X69077512Y-53101580D01*
X69058223Y-52955066D01*
X69054360Y-52945738D01*
X68998421Y-52810690D01*
X68903289Y-52686711D01*
X68903287Y-52686709D01*
X68903286Y-52686708D01*
X68779310Y-52591577D01*
X68634935Y-52531777D01*
X68480000Y-52511379D01*
X68325066Y-52531776D01*
X68180691Y-52591578D01*
X68180688Y-52591580D01*
X68056708Y-52686713D01*
X67989615Y-52774151D01*
X67932277Y-52816018D01*
X67861406Y-52820240D01*
X67799503Y-52785476D01*
X67789690Y-52774150D01*
X67753288Y-52726710D01*
X67629310Y-52631577D01*
X67484935Y-52571777D01*
X67330000Y-52551379D01*
X67175066Y-52571776D01*
X67030691Y-52631578D01*
X67030688Y-52631580D01*
X66906711Y-52726711D01*
X66811580Y-52850688D01*
X66811578Y-52850691D01*
X66751776Y-52995066D01*
X66731379Y-53149999D01*
X66731379Y-53150000D01*
X65212416Y-53150000D01*
X65149310Y-53101577D01*
X65004935Y-53041777D01*
X64850000Y-53021379D01*
X64695066Y-53041776D01*
X64550691Y-53101578D01*
X64550688Y-53101580D01*
X64426711Y-53196711D01*
X64331580Y-53320688D01*
X64331578Y-53320691D01*
X64271776Y-53465066D01*
X64251379Y-53619999D01*
X64251379Y-53620000D01*
X64271777Y-53774935D01*
X64331577Y-53919310D01*
X64426710Y-54043289D01*
X64550688Y-54138421D01*
X64639740Y-54175307D01*
X64695021Y-54219855D01*
X64717442Y-54287218D01*
X64699884Y-54356009D01*
X64647922Y-54404388D01*
X64639740Y-54408125D01*
X64510691Y-54461578D01*
X64510688Y-54461580D01*
X64386711Y-54556711D01*
X64291580Y-54680688D01*
X64291578Y-54680691D01*
X64231776Y-54825066D01*
X64211379Y-54979999D01*
X64211379Y-54980000D01*
X51580000Y-54980000D01*
X51580000Y-52646427D01*
X56459787Y-52646427D01*
X56480185Y-52801362D01*
X56539985Y-52945737D01*
X56635118Y-53069716D01*
X56759097Y-53164849D01*
X56850139Y-53202558D01*
X56903473Y-53224650D01*
X57058408Y-53245048D01*
X57213343Y-53224650D01*
X57304385Y-53186939D01*
X57357718Y-53164849D01*
X57481697Y-53069716D01*
X57576830Y-52945737D01*
X57616198Y-52850691D01*
X57636631Y-52801362D01*
X57657029Y-52646427D01*
X58999787Y-52646427D01*
X59020185Y-52801362D01*
X59079985Y-52945737D01*
X59175118Y-53069716D01*
X59299097Y-53164849D01*
X59390139Y-53202558D01*
X59443473Y-53224650D01*
X59598408Y-53245048D01*
X59753343Y-53224650D01*
X59844385Y-53186939D01*
X59897718Y-53164849D01*
X60021697Y-53069716D01*
X60116830Y-52945737D01*
X60156198Y-52850691D01*
X60176631Y-52801362D01*
X60197029Y-52646427D01*
X60176631Y-52491492D01*
X60116829Y-52347117D01*
X60021697Y-52223138D01*
X60021695Y-52223136D01*
X60021694Y-52223135D01*
X59897718Y-52128004D01*
X59753343Y-52068204D01*
X59598408Y-52047806D01*
X59443474Y-52068203D01*
X59299099Y-52128005D01*
X59299096Y-52128007D01*
X59175119Y-52223138D01*
X59079988Y-52347115D01*
X59079986Y-52347118D01*
X59020184Y-52491493D01*
X58999787Y-52646426D01*
X58999787Y-52646427D01*
X57657029Y-52646427D01*
X57636631Y-52491492D01*
X57576829Y-52347117D01*
X57481697Y-52223138D01*
X57481695Y-52223136D01*
X57481694Y-52223135D01*
X57357718Y-52128004D01*
X57213343Y-52068204D01*
X57058408Y-52047806D01*
X56903474Y-52068203D01*
X56759099Y-52128005D01*
X56759096Y-52128007D01*
X56635119Y-52223138D01*
X56539988Y-52347115D01*
X56539986Y-52347118D01*
X56480184Y-52491493D01*
X56459787Y-52646426D01*
X56459787Y-52646427D01*
X51580000Y-52646427D01*
X51580000Y-48920000D01*
X70991379Y-48920000D01*
X71011777Y-49074935D01*
X71071577Y-49219310D01*
X71166710Y-49343289D01*
X71290689Y-49438422D01*
X71381731Y-49476131D01*
X71435065Y-49498223D01*
X71590000Y-49518621D01*
X71744935Y-49498223D01*
X71835977Y-49460512D01*
X71889310Y-49438422D01*
X72013289Y-49343289D01*
X72108422Y-49219310D01*
X72160662Y-49093189D01*
X72205209Y-49037908D01*
X72272573Y-49015486D01*
X72341364Y-49033044D01*
X72389743Y-49085005D01*
X72393480Y-49093189D01*
X72441577Y-49209310D01*
X72536710Y-49333289D01*
X72660689Y-49428422D01*
X72751731Y-49466131D01*
X72805065Y-49488223D01*
X72960000Y-49508621D01*
X73114935Y-49488223D01*
X73205977Y-49450512D01*
X73259310Y-49428422D01*
X73383289Y-49333289D01*
X73478422Y-49209310D01*
X73500512Y-49155977D01*
X73538223Y-49064935D01*
X73558621Y-48910000D01*
X73538223Y-48755065D01*
X73478421Y-48610690D01*
X73383289Y-48486711D01*
X73383287Y-48486709D01*
X73383286Y-48486708D01*
X73259310Y-48391577D01*
X73114935Y-48331777D01*
X72960000Y-48311379D01*
X72805066Y-48331776D01*
X72660691Y-48391578D01*
X72660688Y-48391580D01*
X72536711Y-48486711D01*
X72441580Y-48610688D01*
X72441576Y-48610695D01*
X72389336Y-48736813D01*
X72344788Y-48792094D01*
X72277424Y-48814514D01*
X72208633Y-48796955D01*
X72160255Y-48744993D01*
X72156532Y-48736841D01*
X72108421Y-48620690D01*
X72013289Y-48496711D01*
X72013287Y-48496709D01*
X72013286Y-48496708D01*
X71889310Y-48401577D01*
X71744935Y-48341777D01*
X71590000Y-48321379D01*
X71435066Y-48341776D01*
X71290691Y-48401578D01*
X71290688Y-48401580D01*
X71166711Y-48496711D01*
X71071580Y-48620688D01*
X71071578Y-48620691D01*
X71011776Y-48765066D01*
X70991379Y-48919999D01*
X70991379Y-48920000D01*
X51580000Y-48920000D01*
X51580000Y-47196000D01*
X51600002Y-47127879D01*
X51653658Y-47081386D01*
X51706000Y-47070000D01*
X74215737Y-47070000D01*
X74283858Y-47090002D01*
G37*
%TD.AperFunction*%
%TD*%
%TA.AperFunction,Conductor*%
%TO.N,/DVDD5*%
G36*
X45804924Y-46359798D02*
G01*
X45873041Y-46379803D01*
X45919531Y-46433461D01*
X45929632Y-46503735D01*
X45900136Y-46568315D01*
X45871246Y-46592925D01*
X45719747Y-46686729D01*
X45569024Y-46824131D01*
X45446119Y-46986885D01*
X45355206Y-47169464D01*
X45299393Y-47365625D01*
X45280575Y-47568710D01*
X45299393Y-47771794D01*
X45355206Y-47967955D01*
X45355207Y-47967957D01*
X45355208Y-47967960D01*
X45446117Y-48150531D01*
X45446118Y-48150532D01*
X45446119Y-48150534D01*
X45569024Y-48313288D01*
X45719749Y-48450691D01*
X45719750Y-48450692D01*
X45893141Y-48558051D01*
X45893144Y-48558052D01*
X45893153Y-48558058D01*
X46083334Y-48631734D01*
X46283814Y-48669210D01*
X46283816Y-48669210D01*
X46487764Y-48669210D01*
X46487766Y-48669210D01*
X46688246Y-48631734D01*
X46878427Y-48558058D01*
X47051831Y-48450691D01*
X47202554Y-48313289D01*
X47203997Y-48311379D01*
X47314500Y-48165048D01*
X47325463Y-48150531D01*
X47416372Y-47967960D01*
X47472187Y-47771793D01*
X47491005Y-47568710D01*
X47472187Y-47365627D01*
X47416372Y-47169460D01*
X47325463Y-46986889D01*
X47311052Y-46967806D01*
X47202555Y-46824131D01*
X47051832Y-46686729D01*
X46900420Y-46592979D01*
X46853033Y-46540112D01*
X46841750Y-46470018D01*
X46870154Y-46404951D01*
X46929227Y-46365569D01*
X46966754Y-46359852D01*
X50054006Y-46359994D01*
X50122126Y-46379999D01*
X50168616Y-46433657D01*
X50180000Y-46485994D01*
X50180000Y-49622846D01*
X50159998Y-49690967D01*
X50106342Y-49737460D01*
X50036068Y-49747564D01*
X49971488Y-49718070D01*
X49941209Y-49679009D01*
X49865463Y-49526889D01*
X49851668Y-49508621D01*
X49742555Y-49364131D01*
X49591830Y-49226728D01*
X49591829Y-49226727D01*
X49418438Y-49119368D01*
X49418431Y-49119364D01*
X49418427Y-49119362D01*
X49277934Y-49064935D01*
X49228247Y-49045686D01*
X49161419Y-49033194D01*
X49027766Y-49008210D01*
X48823814Y-49008210D01*
X48723574Y-49026948D01*
X48623332Y-49045686D01*
X48475980Y-49102770D01*
X48433153Y-49119362D01*
X48433152Y-49119362D01*
X48433151Y-49119363D01*
X48433141Y-49119368D01*
X48259750Y-49226727D01*
X48259749Y-49226728D01*
X48109024Y-49364131D01*
X47986119Y-49526885D01*
X47895206Y-49709464D01*
X47839393Y-49905625D01*
X47820575Y-50108710D01*
X47839393Y-50311794D01*
X47895206Y-50507955D01*
X47895207Y-50507957D01*
X47895208Y-50507960D01*
X47986117Y-50690531D01*
X47986118Y-50690532D01*
X47986119Y-50690534D01*
X48109024Y-50853288D01*
X48259749Y-50990691D01*
X48259750Y-50990692D01*
X48433141Y-51098051D01*
X48433144Y-51098052D01*
X48433153Y-51098058D01*
X48623334Y-51171734D01*
X48823814Y-51209210D01*
X48823816Y-51209210D01*
X49027764Y-51209210D01*
X49027766Y-51209210D01*
X49228246Y-51171734D01*
X49418427Y-51098058D01*
X49591831Y-50990691D01*
X49742554Y-50853289D01*
X49865463Y-50690531D01*
X49941210Y-50538408D01*
X49989478Y-50486347D01*
X50058232Y-50468644D01*
X50125643Y-50490923D01*
X50170307Y-50546110D01*
X50180000Y-50594573D01*
X50180000Y-52162846D01*
X50159998Y-52230967D01*
X50106342Y-52277460D01*
X50036068Y-52287564D01*
X49971488Y-52258070D01*
X49941209Y-52219009D01*
X49922670Y-52181777D01*
X49865463Y-52066889D01*
X49851052Y-52047806D01*
X49742555Y-51904131D01*
X49591830Y-51766728D01*
X49591829Y-51766727D01*
X49418438Y-51659368D01*
X49418431Y-51659364D01*
X49418427Y-51659362D01*
X49301923Y-51614228D01*
X49228247Y-51585686D01*
X49161419Y-51573194D01*
X49027766Y-51548210D01*
X48823814Y-51548210D01*
X48723574Y-51566948D01*
X48623332Y-51585686D01*
X48475980Y-51642770D01*
X48433153Y-51659362D01*
X48433152Y-51659362D01*
X48433151Y-51659363D01*
X48433141Y-51659368D01*
X48259750Y-51766727D01*
X48259749Y-51766728D01*
X48109024Y-51904131D01*
X47986119Y-52066885D01*
X47895206Y-52249464D01*
X47839393Y-52445625D01*
X47820575Y-52648710D01*
X47839393Y-52851794D01*
X47895206Y-53047955D01*
X47895207Y-53047957D01*
X47895208Y-53047960D01*
X47986117Y-53230531D01*
X47986118Y-53230532D01*
X47986119Y-53230534D01*
X48109024Y-53393288D01*
X48259749Y-53530691D01*
X48259750Y-53530692D01*
X48433141Y-53638051D01*
X48433144Y-53638052D01*
X48433153Y-53638058D01*
X48623334Y-53711734D01*
X48823814Y-53749210D01*
X48823816Y-53749210D01*
X49027764Y-53749210D01*
X49027766Y-53749210D01*
X49228246Y-53711734D01*
X49418427Y-53638058D01*
X49591831Y-53530691D01*
X49742554Y-53393289D01*
X49865463Y-53230531D01*
X49941210Y-53078408D01*
X49989478Y-53026347D01*
X50058232Y-53008644D01*
X50125643Y-53030923D01*
X50170307Y-53086110D01*
X50180000Y-53134573D01*
X50180000Y-54702846D01*
X50159998Y-54770967D01*
X50106342Y-54817460D01*
X50036068Y-54827564D01*
X49971488Y-54798070D01*
X49941209Y-54759009D01*
X49865463Y-54606889D01*
X49865460Y-54606885D01*
X49742555Y-54444131D01*
X49591830Y-54306728D01*
X49591829Y-54306727D01*
X49418438Y-54199368D01*
X49418431Y-54199364D01*
X49418427Y-54199362D01*
X49301923Y-54154228D01*
X49228247Y-54125686D01*
X49161419Y-54113194D01*
X49027766Y-54088210D01*
X48823814Y-54088210D01*
X48723574Y-54106948D01*
X48623332Y-54125686D01*
X48475980Y-54182770D01*
X48433153Y-54199362D01*
X48433152Y-54199362D01*
X48433151Y-54199363D01*
X48433141Y-54199368D01*
X48259750Y-54306727D01*
X48259749Y-54306728D01*
X48109024Y-54444131D01*
X47986119Y-54606885D01*
X47895206Y-54789464D01*
X47839393Y-54985625D01*
X47820575Y-55188710D01*
X47839393Y-55391794D01*
X47895206Y-55587955D01*
X47895207Y-55587957D01*
X47895208Y-55587960D01*
X47986117Y-55770531D01*
X47986118Y-55770532D01*
X47986119Y-55770534D01*
X48109024Y-55933288D01*
X48259749Y-56070691D01*
X48259750Y-56070692D01*
X48433141Y-56178051D01*
X48433144Y-56178052D01*
X48433153Y-56178058D01*
X48623334Y-56251734D01*
X48823814Y-56289210D01*
X48823816Y-56289210D01*
X49027764Y-56289210D01*
X49027766Y-56289210D01*
X49228246Y-56251734D01*
X49418427Y-56178058D01*
X49591831Y-56070691D01*
X49742554Y-55933289D01*
X49865463Y-55770531D01*
X49941210Y-55618408D01*
X49989478Y-55566347D01*
X50058232Y-55548644D01*
X50125643Y-55570923D01*
X50170307Y-55626110D01*
X50180000Y-55674573D01*
X50180000Y-57242846D01*
X50159998Y-57310967D01*
X50106342Y-57357460D01*
X50036068Y-57367564D01*
X49971488Y-57338070D01*
X49941209Y-57299009D01*
X49865463Y-57146889D01*
X49859219Y-57138621D01*
X49742555Y-56984131D01*
X49591830Y-56846728D01*
X49591829Y-56846727D01*
X49418438Y-56739368D01*
X49418431Y-56739364D01*
X49418427Y-56739362D01*
X49301923Y-56694228D01*
X49228247Y-56665686D01*
X49161419Y-56653194D01*
X49027766Y-56628210D01*
X48823814Y-56628210D01*
X48723574Y-56646948D01*
X48623332Y-56665686D01*
X48475980Y-56722770D01*
X48433153Y-56739362D01*
X48433152Y-56739362D01*
X48433151Y-56739363D01*
X48433141Y-56739368D01*
X48259750Y-56846727D01*
X48259749Y-56846728D01*
X48109024Y-56984131D01*
X47986119Y-57146885D01*
X47895206Y-57329464D01*
X47839393Y-57525625D01*
X47820575Y-57728710D01*
X47839393Y-57931794D01*
X47895206Y-58127955D01*
X47895207Y-58127957D01*
X47895208Y-58127960D01*
X47986117Y-58310531D01*
X47986118Y-58310532D01*
X47986119Y-58310534D01*
X48109024Y-58473288D01*
X48259749Y-58610691D01*
X48259750Y-58610692D01*
X48433141Y-58718051D01*
X48433144Y-58718052D01*
X48433153Y-58718058D01*
X48623334Y-58791734D01*
X48823814Y-58829210D01*
X48823816Y-58829210D01*
X49027764Y-58829210D01*
X49027766Y-58829210D01*
X49228246Y-58791734D01*
X49418427Y-58718058D01*
X49591831Y-58610691D01*
X49742554Y-58473289D01*
X49865463Y-58310531D01*
X49941210Y-58158408D01*
X49989478Y-58106347D01*
X50058232Y-58088644D01*
X50125643Y-58110923D01*
X50170307Y-58166110D01*
X50180000Y-58214573D01*
X50180000Y-59782846D01*
X50159998Y-59850967D01*
X50106342Y-59897460D01*
X50036068Y-59907564D01*
X49971488Y-59878070D01*
X49941209Y-59839009D01*
X49865463Y-59686889D01*
X49814142Y-59618929D01*
X49742555Y-59524131D01*
X49591830Y-59386728D01*
X49591829Y-59386727D01*
X49418438Y-59279368D01*
X49418431Y-59279364D01*
X49418427Y-59279362D01*
X49267957Y-59221070D01*
X49228247Y-59205686D01*
X49161419Y-59193194D01*
X49027766Y-59168210D01*
X48823814Y-59168210D01*
X48723574Y-59186948D01*
X48623332Y-59205686D01*
X48475980Y-59262770D01*
X48433153Y-59279362D01*
X48433152Y-59279362D01*
X48433151Y-59279363D01*
X48433141Y-59279368D01*
X48259750Y-59386727D01*
X48259749Y-59386728D01*
X48109024Y-59524131D01*
X47986119Y-59686885D01*
X47895206Y-59869464D01*
X47839393Y-60065625D01*
X47820575Y-60268710D01*
X47839393Y-60471794D01*
X47895206Y-60667955D01*
X47895207Y-60667957D01*
X47895208Y-60667960D01*
X47986117Y-60850531D01*
X47986118Y-60850532D01*
X47986119Y-60850534D01*
X48109024Y-61013288D01*
X48259749Y-61150691D01*
X48259750Y-61150692D01*
X48433141Y-61258051D01*
X48433144Y-61258052D01*
X48433153Y-61258058D01*
X48623334Y-61331734D01*
X48823814Y-61369210D01*
X48823816Y-61369210D01*
X49027764Y-61369210D01*
X49027766Y-61369210D01*
X49228246Y-61331734D01*
X49418427Y-61258058D01*
X49591831Y-61150691D01*
X49742554Y-61013289D01*
X49865463Y-60850531D01*
X49941210Y-60698408D01*
X49989478Y-60646347D01*
X50058232Y-60628644D01*
X50125643Y-60650923D01*
X50170307Y-60706110D01*
X50180000Y-60754573D01*
X50180000Y-62322846D01*
X50159998Y-62390967D01*
X50106342Y-62437460D01*
X50036068Y-62447564D01*
X49971488Y-62418070D01*
X49941209Y-62379009D01*
X49865463Y-62226889D01*
X49851052Y-62207806D01*
X49742555Y-62064131D01*
X49591830Y-61926728D01*
X49591829Y-61926727D01*
X49418438Y-61819368D01*
X49418431Y-61819364D01*
X49418427Y-61819362D01*
X49301923Y-61774228D01*
X49228247Y-61745686D01*
X49161419Y-61733194D01*
X49027766Y-61708210D01*
X48823814Y-61708210D01*
X48723574Y-61726948D01*
X48623332Y-61745686D01*
X48475980Y-61802770D01*
X48433153Y-61819362D01*
X48433152Y-61819362D01*
X48433151Y-61819363D01*
X48433141Y-61819368D01*
X48259750Y-61926727D01*
X48259749Y-61926728D01*
X48109024Y-62064131D01*
X47986119Y-62226885D01*
X47895206Y-62409464D01*
X47839393Y-62605625D01*
X47820575Y-62808710D01*
X47839393Y-63011794D01*
X47895206Y-63207955D01*
X47895207Y-63207957D01*
X47895208Y-63207960D01*
X47986117Y-63390531D01*
X47986118Y-63390532D01*
X47986119Y-63390534D01*
X48109024Y-63553288D01*
X48259749Y-63690691D01*
X48259750Y-63690692D01*
X48433141Y-63798051D01*
X48433144Y-63798052D01*
X48433153Y-63798058D01*
X48623334Y-63871734D01*
X48823814Y-63909210D01*
X48823816Y-63909210D01*
X49027764Y-63909210D01*
X49027766Y-63909210D01*
X49228246Y-63871734D01*
X49418427Y-63798058D01*
X49591831Y-63690691D01*
X49742554Y-63553289D01*
X49865463Y-63390531D01*
X49941210Y-63238408D01*
X49989478Y-63186347D01*
X50058232Y-63168644D01*
X50125643Y-63190923D01*
X50170307Y-63246110D01*
X50180000Y-63294573D01*
X50180000Y-64862846D01*
X50159998Y-64930967D01*
X50106342Y-64977460D01*
X50036068Y-64987564D01*
X49971488Y-64958070D01*
X49941209Y-64919009D01*
X49865463Y-64766889D01*
X49865460Y-64766885D01*
X49742555Y-64604131D01*
X49591830Y-64466728D01*
X49591829Y-64466727D01*
X49418438Y-64359368D01*
X49418431Y-64359364D01*
X49418427Y-64359362D01*
X49301923Y-64314228D01*
X49228247Y-64285686D01*
X49161419Y-64273194D01*
X49027766Y-64248210D01*
X48823814Y-64248210D01*
X48723574Y-64266948D01*
X48623332Y-64285686D01*
X48475980Y-64342770D01*
X48433153Y-64359362D01*
X48433152Y-64359362D01*
X48433151Y-64359363D01*
X48433141Y-64359368D01*
X48259750Y-64466727D01*
X48259749Y-64466728D01*
X48109024Y-64604131D01*
X47986119Y-64766885D01*
X47895206Y-64949464D01*
X47839393Y-65145625D01*
X47820575Y-65348710D01*
X47839393Y-65551794D01*
X47895206Y-65747955D01*
X47895207Y-65747957D01*
X47895208Y-65747960D01*
X47986117Y-65930531D01*
X47986118Y-65930532D01*
X47986119Y-65930534D01*
X48109024Y-66093288D01*
X48259749Y-66230691D01*
X48259750Y-66230692D01*
X48433141Y-66338051D01*
X48433144Y-66338052D01*
X48433153Y-66338058D01*
X48623334Y-66411734D01*
X48823814Y-66449210D01*
X48823816Y-66449210D01*
X49027764Y-66449210D01*
X49027766Y-66449210D01*
X49228246Y-66411734D01*
X49418427Y-66338058D01*
X49591831Y-66230691D01*
X49742554Y-66093289D01*
X49865463Y-65930531D01*
X49941210Y-65778408D01*
X49989478Y-65726347D01*
X50058232Y-65708644D01*
X50125643Y-65730923D01*
X50170307Y-65786110D01*
X50180000Y-65834573D01*
X50180000Y-67402846D01*
X50159998Y-67470967D01*
X50106342Y-67517460D01*
X50036068Y-67527564D01*
X49971488Y-67498070D01*
X49941209Y-67459009D01*
X49865463Y-67306889D01*
X49851052Y-67287806D01*
X49742555Y-67144131D01*
X49591830Y-67006728D01*
X49591829Y-67006727D01*
X49418438Y-66899368D01*
X49418431Y-66899364D01*
X49418427Y-66899362D01*
X49301923Y-66854228D01*
X49228247Y-66825686D01*
X49161419Y-66813194D01*
X49027766Y-66788210D01*
X48823814Y-66788210D01*
X48723574Y-66806948D01*
X48623332Y-66825686D01*
X48475980Y-66882770D01*
X48433153Y-66899362D01*
X48433152Y-66899362D01*
X48433151Y-66899363D01*
X48433141Y-66899368D01*
X48259750Y-67006727D01*
X48259749Y-67006728D01*
X48109024Y-67144131D01*
X47986119Y-67306885D01*
X47895206Y-67489464D01*
X47839393Y-67685625D01*
X47820575Y-67888710D01*
X47839393Y-68091796D01*
X47863698Y-68177218D01*
X47863102Y-68248212D01*
X47824217Y-68307614D01*
X47759391Y-68336563D01*
X47741356Y-68337694D01*
X47568369Y-68336112D01*
X47500434Y-68315488D01*
X47454434Y-68261409D01*
X47444973Y-68191046D01*
X47448329Y-68175644D01*
X47472187Y-68091793D01*
X47491005Y-67888710D01*
X47472187Y-67685627D01*
X47416372Y-67489460D01*
X47325463Y-67306889D01*
X47311052Y-67287806D01*
X47202555Y-67144131D01*
X47051830Y-67006728D01*
X47051829Y-67006727D01*
X46878438Y-66899368D01*
X46878431Y-66899364D01*
X46878427Y-66899362D01*
X46761923Y-66854228D01*
X46688247Y-66825686D01*
X46621419Y-66813194D01*
X46487766Y-66788210D01*
X46283814Y-66788210D01*
X46183574Y-66806948D01*
X46083332Y-66825686D01*
X45935980Y-66882770D01*
X45893153Y-66899362D01*
X45893152Y-66899362D01*
X45893151Y-66899363D01*
X45893141Y-66899368D01*
X45719750Y-67006727D01*
X45719749Y-67006728D01*
X45569024Y-67144131D01*
X45446119Y-67306885D01*
X45355206Y-67489464D01*
X45299393Y-67685625D01*
X45280575Y-67888710D01*
X45299393Y-68091794D01*
X45355206Y-68287955D01*
X45355207Y-68287957D01*
X45355208Y-68287960D01*
X45446117Y-68470531D01*
X45446118Y-68470532D01*
X45446119Y-68470534D01*
X45569024Y-68633288D01*
X45719749Y-68770691D01*
X45719750Y-68770692D01*
X45893141Y-68878051D01*
X45893144Y-68878052D01*
X45893153Y-68878058D01*
X46083334Y-68951734D01*
X46283814Y-68989210D01*
X46283816Y-68989210D01*
X46487764Y-68989210D01*
X46487766Y-68989210D01*
X46688246Y-68951734D01*
X46727023Y-68936711D01*
X46797766Y-68930754D01*
X46860503Y-68963991D01*
X46895311Y-69025869D01*
X46898538Y-69054457D01*
X46898117Y-69263307D01*
X46877977Y-69331387D01*
X46824228Y-69377772D01*
X46753934Y-69387734D01*
X46726603Y-69380545D01*
X46709954Y-69374095D01*
X46688247Y-69365686D01*
X46621419Y-69353194D01*
X46487766Y-69328210D01*
X46283814Y-69328210D01*
X46193647Y-69345065D01*
X46083332Y-69365686D01*
X45935980Y-69422770D01*
X45893153Y-69439362D01*
X45893152Y-69439362D01*
X45893151Y-69439363D01*
X45893141Y-69439368D01*
X45719750Y-69546727D01*
X45719749Y-69546728D01*
X45569024Y-69684131D01*
X45446119Y-69846885D01*
X45355206Y-70029464D01*
X45299393Y-70225625D01*
X45280575Y-70428710D01*
X45299393Y-70631794D01*
X45355206Y-70827955D01*
X45355207Y-70827957D01*
X45355208Y-70827960D01*
X45446117Y-71010531D01*
X45446118Y-71010532D01*
X45446119Y-71010534D01*
X45569024Y-71173288D01*
X45719749Y-71310691D01*
X45719750Y-71310692D01*
X45893141Y-71418051D01*
X45893144Y-71418052D01*
X45893153Y-71418058D01*
X46083334Y-71491734D01*
X46283814Y-71529210D01*
X46283816Y-71529210D01*
X46487764Y-71529210D01*
X46487766Y-71529210D01*
X46688246Y-71491734D01*
X46721899Y-71478696D01*
X46792642Y-71472739D01*
X46855378Y-71505976D01*
X46890187Y-71567854D01*
X46893414Y-71596442D01*
X46893001Y-71801325D01*
X46872861Y-71869405D01*
X46819112Y-71915790D01*
X46748818Y-71925752D01*
X46721486Y-71918563D01*
X46709026Y-71913736D01*
X46688247Y-71905686D01*
X46621419Y-71893194D01*
X46487766Y-71868210D01*
X46283814Y-71868210D01*
X46183574Y-71886948D01*
X46083332Y-71905686D01*
X45935980Y-71962770D01*
X45893153Y-71979362D01*
X45893152Y-71979362D01*
X45893151Y-71979363D01*
X45893141Y-71979368D01*
X45719750Y-72086727D01*
X45719749Y-72086728D01*
X45569024Y-72224131D01*
X45446119Y-72386885D01*
X45355206Y-72569464D01*
X45299393Y-72765625D01*
X45280575Y-72968710D01*
X45299393Y-73171794D01*
X45355206Y-73367955D01*
X45355207Y-73367957D01*
X45355208Y-73367960D01*
X45446117Y-73550531D01*
X45446118Y-73550532D01*
X45446119Y-73550534D01*
X45569024Y-73713288D01*
X45719749Y-73850691D01*
X45719750Y-73850692D01*
X45893141Y-73958051D01*
X45893144Y-73958052D01*
X45893153Y-73958058D01*
X46083334Y-74031734D01*
X46283814Y-74069210D01*
X46283816Y-74069210D01*
X46487764Y-74069210D01*
X46487766Y-74069210D01*
X46688246Y-74031734D01*
X46716775Y-74020681D01*
X46787517Y-74014724D01*
X46850254Y-74047960D01*
X46885063Y-74109838D01*
X46888290Y-74138427D01*
X46887885Y-74339343D01*
X46867745Y-74407423D01*
X46813996Y-74453808D01*
X46743702Y-74463770D01*
X46716369Y-74456581D01*
X46688247Y-74445686D01*
X46621419Y-74433194D01*
X46487766Y-74408210D01*
X46283814Y-74408210D01*
X46183574Y-74426948D01*
X46083332Y-74445686D01*
X45935980Y-74502770D01*
X45893153Y-74519362D01*
X45893152Y-74519362D01*
X45893151Y-74519363D01*
X45893141Y-74519368D01*
X45719750Y-74626727D01*
X45719749Y-74626728D01*
X45569024Y-74764131D01*
X45446119Y-74926885D01*
X45355206Y-75109464D01*
X45299393Y-75305625D01*
X45280575Y-75508710D01*
X45299393Y-75711794D01*
X45355206Y-75907955D01*
X45355207Y-75907957D01*
X45355208Y-75907960D01*
X45446117Y-76090531D01*
X45446118Y-76090532D01*
X45446119Y-76090534D01*
X45569024Y-76253288D01*
X45719749Y-76390691D01*
X45719750Y-76390692D01*
X45893141Y-76498051D01*
X45893144Y-76498052D01*
X45893153Y-76498058D01*
X46083334Y-76571734D01*
X46283814Y-76609210D01*
X46283816Y-76609210D01*
X46487764Y-76609210D01*
X46487766Y-76609210D01*
X46688246Y-76571734D01*
X46878427Y-76498058D01*
X47051831Y-76390691D01*
X47202554Y-76253289D01*
X47325463Y-76090531D01*
X47416372Y-75907960D01*
X47472187Y-75711793D01*
X47491005Y-75508710D01*
X47472187Y-75305627D01*
X47416372Y-75109460D01*
X47388053Y-75052588D01*
X47375596Y-74982696D01*
X47402903Y-74917161D01*
X47461306Y-74876793D01*
X47500923Y-74870429D01*
X47810717Y-74870646D01*
X47878821Y-74890695D01*
X47925276Y-74944383D01*
X47935331Y-75014664D01*
X47923417Y-75052806D01*
X47895209Y-75109456D01*
X47895207Y-75109462D01*
X47839393Y-75305625D01*
X47820575Y-75508710D01*
X47839393Y-75711794D01*
X47895206Y-75907955D01*
X47895207Y-75907957D01*
X47895208Y-75907960D01*
X47986117Y-76090531D01*
X47986118Y-76090532D01*
X47986119Y-76090534D01*
X48109024Y-76253288D01*
X48259749Y-76390691D01*
X48259750Y-76390692D01*
X48433141Y-76498051D01*
X48433144Y-76498052D01*
X48433153Y-76498058D01*
X48623334Y-76571734D01*
X48823814Y-76609210D01*
X48823816Y-76609210D01*
X49027764Y-76609210D01*
X49027766Y-76609210D01*
X49228246Y-76571734D01*
X49418427Y-76498058D01*
X49591831Y-76390691D01*
X49742554Y-76253289D01*
X49782796Y-76200000D01*
X54481379Y-76200000D01*
X54501777Y-76354935D01*
X54561577Y-76499310D01*
X54656710Y-76623289D01*
X54771731Y-76711548D01*
X54813598Y-76768886D01*
X54817820Y-76839757D01*
X54783056Y-76901660D01*
X54771731Y-76911472D01*
X54686713Y-76976708D01*
X54591580Y-77100688D01*
X54591578Y-77100691D01*
X54531776Y-77245066D01*
X54511379Y-77399999D01*
X54511379Y-77400000D01*
X54531777Y-77554935D01*
X54591577Y-77699310D01*
X54686710Y-77823289D01*
X54810689Y-77918422D01*
X54901731Y-77956131D01*
X54955065Y-77978223D01*
X55110000Y-77998621D01*
X55264935Y-77978223D01*
X55355977Y-77940512D01*
X55409310Y-77918422D01*
X55533289Y-77823289D01*
X55628422Y-77699310D01*
X55650512Y-77645977D01*
X55688223Y-77554935D01*
X55708621Y-77400000D01*
X55688223Y-77245065D01*
X55628421Y-77100690D01*
X55533289Y-76976711D01*
X55418266Y-76888450D01*
X55376401Y-76831115D01*
X55372179Y-76760244D01*
X55406943Y-76698341D01*
X55418256Y-76688536D01*
X55503289Y-76623289D01*
X55598421Y-76499311D01*
X55598420Y-76499311D01*
X55598422Y-76499310D01*
X55621333Y-76443997D01*
X55658223Y-76354935D01*
X55678621Y-76200000D01*
X55658223Y-76045065D01*
X55598421Y-75900690D01*
X55503289Y-75776711D01*
X55503287Y-75776709D01*
X55503286Y-75776708D01*
X55379310Y-75681577D01*
X55234935Y-75621777D01*
X55080000Y-75601379D01*
X54925066Y-75621776D01*
X54780691Y-75681578D01*
X54780688Y-75681580D01*
X54656711Y-75776711D01*
X54561580Y-75900688D01*
X54561578Y-75900691D01*
X54501776Y-76045066D01*
X54481379Y-76199999D01*
X54481379Y-76200000D01*
X49782796Y-76200000D01*
X49865463Y-76090531D01*
X49956372Y-75907960D01*
X50012187Y-75711793D01*
X50031005Y-75508710D01*
X50012187Y-75305627D01*
X49956372Y-75109460D01*
X49956370Y-75109456D01*
X49928940Y-75054369D01*
X49916480Y-74984474D01*
X49943787Y-74918939D01*
X50002190Y-74878571D01*
X50041814Y-74872206D01*
X61366180Y-74880126D01*
X61434285Y-74900176D01*
X61480740Y-74953864D01*
X61490795Y-75024145D01*
X61480098Y-75059774D01*
X61410500Y-75207678D01*
X61410498Y-75207682D01*
X61313270Y-75506917D01*
X61313268Y-75506925D01*
X61254313Y-75815978D01*
X61254310Y-75816002D01*
X61234556Y-76129993D01*
X61234556Y-76130006D01*
X61254310Y-76443997D01*
X61254313Y-76444021D01*
X61306281Y-76716447D01*
X61313269Y-76753079D01*
X61379433Y-76956711D01*
X61410498Y-77052317D01*
X61410500Y-77052321D01*
X61544460Y-77337002D01*
X61544468Y-77337016D01*
X61713050Y-77602660D01*
X61913606Y-77845090D01*
X61913609Y-77845092D01*
X61913610Y-77845094D01*
X61969510Y-77897587D01*
X62142966Y-78060475D01*
X62142969Y-78060477D01*
X62142970Y-78060478D01*
X62397516Y-78245416D01*
X62673234Y-78396994D01*
X62842639Y-78464066D01*
X62965769Y-78512817D01*
X62965772Y-78512818D01*
X62965775Y-78512819D01*
X63270527Y-78591066D01*
X63582682Y-78630500D01*
X63582686Y-78630500D01*
X63897314Y-78630500D01*
X63897318Y-78630500D01*
X64059594Y-78610000D01*
X67821379Y-78610000D01*
X67841777Y-78764935D01*
X67901577Y-78909310D01*
X67996710Y-79033289D01*
X68120689Y-79128422D01*
X68211731Y-79166131D01*
X68265065Y-79188223D01*
X68420000Y-79208621D01*
X68574935Y-79188223D01*
X68665977Y-79150512D01*
X68719310Y-79128422D01*
X68843289Y-79033289D01*
X68938422Y-78909310D01*
X68961994Y-78852401D01*
X68998223Y-78764935D01*
X69018621Y-78610000D01*
X68998223Y-78455065D01*
X68938421Y-78310690D01*
X68843289Y-78186711D01*
X68843287Y-78186709D01*
X68843286Y-78186708D01*
X68742443Y-78109328D01*
X68700576Y-78051990D01*
X68696354Y-77981119D01*
X68731118Y-77919216D01*
X68756155Y-77900242D01*
X68759301Y-77898424D01*
X68759311Y-77898421D01*
X68883289Y-77803289D01*
X68891711Y-77792313D01*
X68978422Y-77679310D01*
X69010169Y-77602663D01*
X69038223Y-77534935D01*
X69058621Y-77380000D01*
X69038223Y-77225065D01*
X68978421Y-77080690D01*
X68883289Y-76956711D01*
X68883287Y-76956709D01*
X68883286Y-76956708D01*
X68759310Y-76861577D01*
X68614935Y-76801777D01*
X68460000Y-76781379D01*
X68305066Y-76801776D01*
X68160691Y-76861578D01*
X68160688Y-76861580D01*
X68036711Y-76956711D01*
X67941580Y-77080688D01*
X67941578Y-77080691D01*
X67881776Y-77225066D01*
X67861379Y-77379999D01*
X67861379Y-77380000D01*
X67881777Y-77534935D01*
X67941577Y-77679310D01*
X68036708Y-77803286D01*
X68036709Y-77803287D01*
X68036711Y-77803289D01*
X68137558Y-77880672D01*
X68179424Y-77938008D01*
X68183646Y-78008879D01*
X68148882Y-78070782D01*
X68123858Y-78089749D01*
X68120696Y-78091574D01*
X67996711Y-78186711D01*
X67901580Y-78310688D01*
X67901578Y-78310691D01*
X67841776Y-78455066D01*
X67821379Y-78609999D01*
X67821379Y-78610000D01*
X64059594Y-78610000D01*
X64209473Y-78591066D01*
X64514225Y-78512819D01*
X64806766Y-78396994D01*
X65082484Y-78245416D01*
X65337030Y-78060478D01*
X65566390Y-77845094D01*
X65766947Y-77602663D01*
X65935537Y-77337007D01*
X66069503Y-77052315D01*
X66166731Y-76753079D01*
X66225688Y-76444015D01*
X66232488Y-76335927D01*
X66245444Y-76130006D01*
X66245444Y-76129993D01*
X66225689Y-75816002D01*
X66225688Y-75815985D01*
X66166731Y-75506921D01*
X66069503Y-75207685D01*
X66001463Y-75063094D01*
X65990558Y-74992941D01*
X66019311Y-74928028D01*
X66078595Y-74888964D01*
X66115550Y-74883448D01*
X66692625Y-74883852D01*
X66760729Y-74903901D01*
X66807184Y-74957589D01*
X66817239Y-75027870D01*
X66792497Y-75086554D01*
X66699991Y-75207111D01*
X66699986Y-75207118D01*
X66640184Y-75351493D01*
X66619787Y-75506426D01*
X66619787Y-75506427D01*
X66640185Y-75661362D01*
X66699985Y-75805737D01*
X66795118Y-75929716D01*
X66919097Y-76024849D01*
X67010139Y-76062558D01*
X67063473Y-76084650D01*
X67218408Y-76105048D01*
X67373343Y-76084650D01*
X67468908Y-76045066D01*
X67517718Y-76024849D01*
X67641697Y-75929716D01*
X67736830Y-75805737D01*
X67769838Y-75726046D01*
X67796631Y-75661362D01*
X67817029Y-75506427D01*
X67796631Y-75351492D01*
X67736829Y-75207117D01*
X67644882Y-75087289D01*
X67619283Y-75021070D01*
X67633548Y-74951522D01*
X67683149Y-74900726D01*
X67744930Y-74884588D01*
X69231264Y-74885627D01*
X69299366Y-74905676D01*
X69345821Y-74959364D01*
X69355876Y-75029645D01*
X69331134Y-75088329D01*
X69239991Y-75207110D01*
X69239986Y-75207118D01*
X69180184Y-75351493D01*
X69159787Y-75506426D01*
X69159787Y-75506427D01*
X69180185Y-75661362D01*
X69239985Y-75805737D01*
X69335118Y-75929716D01*
X69459097Y-76024849D01*
X69550139Y-76062558D01*
X69603473Y-76084650D01*
X69758408Y-76105048D01*
X69913343Y-76084650D01*
X70008908Y-76045066D01*
X70057718Y-76024849D01*
X70181697Y-75929716D01*
X70276830Y-75805737D01*
X70309838Y-75726046D01*
X70336631Y-75661362D01*
X70357029Y-75506427D01*
X70336631Y-75351492D01*
X70276829Y-75207117D01*
X70186246Y-75089067D01*
X70160647Y-75022847D01*
X70174912Y-74953298D01*
X70224513Y-74902503D01*
X70286292Y-74886365D01*
X72167183Y-74887680D01*
X72235287Y-74907730D01*
X72281742Y-74961418D01*
X72291797Y-75031699D01*
X72262259Y-75096259D01*
X72203668Y-75134254D01*
X72136051Y-75154765D01*
X72136046Y-75154767D01*
X71953552Y-75252313D01*
X71793590Y-75383590D01*
X71662313Y-75543552D01*
X71564768Y-75726045D01*
X71504698Y-75924072D01*
X71484417Y-76129996D01*
X71484417Y-76130003D01*
X71504698Y-76335927D01*
X71504699Y-76335933D01*
X71504700Y-76335934D01*
X71553877Y-76498051D01*
X71564768Y-76533954D01*
X71659694Y-76711548D01*
X71662315Y-76716450D01*
X71793590Y-76876410D01*
X71953550Y-77007685D01*
X72136046Y-77105232D01*
X72334066Y-77165300D01*
X72334070Y-77165300D01*
X72334072Y-77165301D01*
X72539997Y-77185583D01*
X72540000Y-77185583D01*
X72540003Y-77185583D01*
X72745927Y-77165301D01*
X72745928Y-77165300D01*
X72745934Y-77165300D01*
X72943954Y-77105232D01*
X73126450Y-77007685D01*
X73286410Y-76876410D01*
X73417685Y-76716450D01*
X73515232Y-76533954D01*
X73575300Y-76335934D01*
X73595583Y-76130006D01*
X73595583Y-76130003D01*
X73595583Y-76129996D01*
X73575301Y-75924072D01*
X73575300Y-75924070D01*
X73575300Y-75924066D01*
X73515232Y-75726046D01*
X73417685Y-75543550D01*
X73286410Y-75383590D01*
X73126450Y-75252315D01*
X73126448Y-75252314D01*
X73126447Y-75252313D01*
X72943954Y-75154768D01*
X72878055Y-75134778D01*
X72818673Y-75095863D01*
X72789757Y-75031021D01*
X72800488Y-74960840D01*
X72847458Y-74907602D01*
X72914715Y-74888203D01*
X75768166Y-74890199D01*
X75836272Y-74910249D01*
X75882727Y-74963937D01*
X75894058Y-75014037D01*
X75936765Y-77502311D01*
X75917935Y-77570765D01*
X75865085Y-77618172D01*
X75823137Y-77629866D01*
X75779089Y-77634205D01*
X75774066Y-77634700D01*
X75675056Y-77664734D01*
X75576045Y-77694768D01*
X75393552Y-77792313D01*
X75233590Y-77923590D01*
X75102313Y-78083552D01*
X75004768Y-78266045D01*
X74955575Y-78428217D01*
X74916660Y-78487599D01*
X74851819Y-78516514D01*
X74781638Y-78505784D01*
X74728399Y-78458815D01*
X74714425Y-78428217D01*
X74704954Y-78396994D01*
X74665232Y-78266046D01*
X74567685Y-78083550D01*
X74436410Y-77923590D01*
X74276450Y-77792315D01*
X74276448Y-77792314D01*
X74276447Y-77792313D01*
X74093954Y-77694768D01*
X73944605Y-77649464D01*
X73895934Y-77634700D01*
X73895933Y-77634699D01*
X73895927Y-77634698D01*
X73690003Y-77614417D01*
X73689997Y-77614417D01*
X73484072Y-77634698D01*
X73286045Y-77694768D01*
X73103552Y-77792313D01*
X72943590Y-77923590D01*
X72812313Y-78083552D01*
X72714768Y-78266045D01*
X72665575Y-78428217D01*
X72626660Y-78487599D01*
X72561819Y-78516514D01*
X72491638Y-78505784D01*
X72438399Y-78458815D01*
X72424425Y-78428217D01*
X72414954Y-78396994D01*
X72375232Y-78266046D01*
X72277685Y-78083550D01*
X72146410Y-77923590D01*
X71986450Y-77792315D01*
X71986448Y-77792314D01*
X71986447Y-77792313D01*
X71803954Y-77694768D01*
X71654605Y-77649464D01*
X71605934Y-77634700D01*
X71605933Y-77634699D01*
X71605927Y-77634698D01*
X71400003Y-77614417D01*
X71399997Y-77614417D01*
X71194072Y-77634698D01*
X70996045Y-77694768D01*
X70813552Y-77792313D01*
X70653590Y-77923590D01*
X70522313Y-78083552D01*
X70424768Y-78266045D01*
X70364698Y-78464072D01*
X70344417Y-78669996D01*
X70344417Y-78670003D01*
X70364698Y-78875927D01*
X70364699Y-78875933D01*
X70364700Y-78875934D01*
X70412433Y-79033289D01*
X70424768Y-79073954D01*
X70496749Y-79208621D01*
X70522315Y-79256450D01*
X70653590Y-79416410D01*
X70813550Y-79547685D01*
X70996046Y-79645232D01*
X71194066Y-79705300D01*
X71194070Y-79705300D01*
X71194072Y-79705301D01*
X71399997Y-79725583D01*
X71400000Y-79725583D01*
X71400003Y-79725583D01*
X71605927Y-79705301D01*
X71605928Y-79705300D01*
X71605934Y-79705300D01*
X71803954Y-79645232D01*
X71986450Y-79547685D01*
X72146410Y-79416410D01*
X72277685Y-79256450D01*
X72375232Y-79073954D01*
X72424426Y-78911779D01*
X72463340Y-78852401D01*
X72528181Y-78823485D01*
X72598362Y-78834215D01*
X72651601Y-78881184D01*
X72665572Y-78911777D01*
X72702433Y-79033289D01*
X72714768Y-79073954D01*
X72786749Y-79208621D01*
X72812315Y-79256450D01*
X72943590Y-79416410D01*
X73103550Y-79547685D01*
X73286046Y-79645232D01*
X73484066Y-79705300D01*
X73484070Y-79705300D01*
X73484072Y-79705301D01*
X73689997Y-79725583D01*
X73690000Y-79725583D01*
X73690003Y-79725583D01*
X73895927Y-79705301D01*
X73895928Y-79705300D01*
X73895934Y-79705300D01*
X74093954Y-79645232D01*
X74276450Y-79547685D01*
X74436410Y-79416410D01*
X74567685Y-79256450D01*
X74665232Y-79073954D01*
X74714426Y-78911779D01*
X74753340Y-78852401D01*
X74818181Y-78823485D01*
X74888362Y-78834215D01*
X74941601Y-78881184D01*
X74955572Y-78911777D01*
X74992433Y-79033289D01*
X75004768Y-79073954D01*
X75076749Y-79208621D01*
X75102315Y-79256450D01*
X75233590Y-79416410D01*
X75393550Y-79547685D01*
X75576046Y-79645232D01*
X75774066Y-79705300D01*
X75774071Y-79705300D01*
X75774073Y-79705301D01*
X75863208Y-79714080D01*
X75929041Y-79740662D01*
X75970051Y-79798616D01*
X75976840Y-79837311D01*
X76009944Y-81766100D01*
X75991114Y-81834554D01*
X75938264Y-81881961D01*
X75883999Y-81894262D01*
X55786511Y-81900049D01*
X55718385Y-81880067D01*
X55709771Y-81874011D01*
X55589310Y-81781577D01*
X55444935Y-81721777D01*
X55290000Y-81701379D01*
X55135066Y-81721776D01*
X54990691Y-81781578D01*
X54990683Y-81781583D01*
X54869855Y-81874297D01*
X54803635Y-81899897D01*
X54793188Y-81900334D01*
X49249601Y-81901930D01*
X49181475Y-81881948D01*
X49134966Y-81828305D01*
X49124842Y-81758034D01*
X49154317Y-81693445D01*
X49214032Y-81655044D01*
X49226397Y-81652079D01*
X49228246Y-81651734D01*
X49418427Y-81578058D01*
X49591831Y-81470691D01*
X49742554Y-81333289D01*
X49865463Y-81170531D01*
X49956372Y-80987960D01*
X50012187Y-80791793D01*
X50031005Y-80588710D01*
X50012187Y-80385627D01*
X49956372Y-80189460D01*
X49936723Y-80150000D01*
X55611379Y-80150000D01*
X55631777Y-80304935D01*
X55691577Y-80449310D01*
X55786710Y-80573289D01*
X55910689Y-80668422D01*
X56001731Y-80706131D01*
X56055065Y-80728223D01*
X56210000Y-80748621D01*
X56364935Y-80728223D01*
X56455977Y-80690512D01*
X56509310Y-80668422D01*
X56633289Y-80573289D01*
X56728422Y-80449310D01*
X56750512Y-80395977D01*
X56788223Y-80304935D01*
X56808621Y-80150000D01*
X56788223Y-79995065D01*
X56728421Y-79850690D01*
X56633289Y-79726711D01*
X56633287Y-79726709D01*
X56633286Y-79726708D01*
X56509310Y-79631577D01*
X56364935Y-79571777D01*
X56210000Y-79551379D01*
X56055066Y-79571776D01*
X55910691Y-79631578D01*
X55910688Y-79631580D01*
X55786711Y-79726711D01*
X55691580Y-79850688D01*
X55691578Y-79850691D01*
X55631776Y-79995066D01*
X55611379Y-80149999D01*
X55611379Y-80150000D01*
X49936723Y-80150000D01*
X49865463Y-80006889D01*
X49856534Y-79995065D01*
X49742555Y-79844131D01*
X49591830Y-79706728D01*
X49591829Y-79706727D01*
X49418438Y-79599368D01*
X49418431Y-79599364D01*
X49418427Y-79599362D01*
X49285035Y-79547686D01*
X49228247Y-79525686D01*
X49161419Y-79513194D01*
X49027766Y-79488210D01*
X48823814Y-79488210D01*
X48723574Y-79506948D01*
X48623332Y-79525686D01*
X48475980Y-79582770D01*
X48433153Y-79599362D01*
X48433152Y-79599362D01*
X48433151Y-79599363D01*
X48433141Y-79599368D01*
X48259750Y-79706727D01*
X48259749Y-79706728D01*
X48109024Y-79844131D01*
X47986119Y-80006885D01*
X47895206Y-80189464D01*
X47839393Y-80385625D01*
X47820575Y-80588710D01*
X47839393Y-80791794D01*
X47895206Y-80987955D01*
X47895207Y-80987957D01*
X47895208Y-80987960D01*
X47986117Y-81170531D01*
X47986118Y-81170532D01*
X47986119Y-81170534D01*
X48109024Y-81333288D01*
X48259749Y-81470691D01*
X48259750Y-81470692D01*
X48433141Y-81578051D01*
X48433144Y-81578052D01*
X48433153Y-81578058D01*
X48623334Y-81651734D01*
X48626163Y-81652263D01*
X48627396Y-81652889D01*
X48628934Y-81653327D01*
X48628848Y-81653627D01*
X48689448Y-81684441D01*
X48725290Y-81745726D01*
X48722309Y-81816660D01*
X48681452Y-81874722D01*
X48615690Y-81901477D01*
X48603046Y-81902117D01*
X46705683Y-81902663D01*
X46637557Y-81882681D01*
X46591048Y-81829038D01*
X46580924Y-81758767D01*
X46610399Y-81694178D01*
X46670114Y-81655777D01*
X46682493Y-81652809D01*
X46688246Y-81651734D01*
X46878427Y-81578058D01*
X47051831Y-81470691D01*
X47202554Y-81333289D01*
X47325463Y-81170531D01*
X47416372Y-80987960D01*
X47472187Y-80791793D01*
X47491005Y-80588710D01*
X47472187Y-80385627D01*
X47416372Y-80189460D01*
X47325463Y-80006889D01*
X47316534Y-79995065D01*
X47202555Y-79844131D01*
X47051830Y-79706728D01*
X47051829Y-79706727D01*
X46878438Y-79599368D01*
X46878431Y-79599364D01*
X46878427Y-79599362D01*
X46745035Y-79547686D01*
X46688247Y-79525686D01*
X46621419Y-79513194D01*
X46487766Y-79488210D01*
X46283814Y-79488210D01*
X46183574Y-79506948D01*
X46083332Y-79525686D01*
X45935980Y-79582770D01*
X45893153Y-79599362D01*
X45893152Y-79599362D01*
X45893151Y-79599363D01*
X45893141Y-79599368D01*
X45719750Y-79706727D01*
X45719749Y-79706728D01*
X45569024Y-79844131D01*
X45446119Y-80006885D01*
X45355206Y-80189464D01*
X45299393Y-80385625D01*
X45280575Y-80588710D01*
X45299393Y-80791794D01*
X45355206Y-80987955D01*
X45355207Y-80987957D01*
X45355208Y-80987960D01*
X45446117Y-81170531D01*
X45446118Y-81170532D01*
X45446119Y-81170534D01*
X45569024Y-81333288D01*
X45719749Y-81470691D01*
X45719750Y-81470692D01*
X45893141Y-81578051D01*
X45893144Y-81578052D01*
X45893153Y-81578058D01*
X46083334Y-81651734D01*
X46090068Y-81652992D01*
X46153353Y-81685170D01*
X46189196Y-81746454D01*
X46186216Y-81817388D01*
X46145359Y-81875451D01*
X46079597Y-81902207D01*
X46066952Y-81902847D01*
X43651536Y-81903542D01*
X43583410Y-81883560D01*
X43536901Y-81829917D01*
X43525500Y-81777542D01*
X43525500Y-78048710D01*
X45280575Y-78048710D01*
X45299393Y-78251794D01*
X45355206Y-78447955D01*
X45355207Y-78447957D01*
X45355208Y-78447960D01*
X45446117Y-78630531D01*
X45446118Y-78630532D01*
X45446119Y-78630534D01*
X45569024Y-78793288D01*
X45719749Y-78930691D01*
X45719750Y-78930692D01*
X45893141Y-79038051D01*
X45893144Y-79038052D01*
X45893153Y-79038058D01*
X46083334Y-79111734D01*
X46283814Y-79149210D01*
X46283816Y-79149210D01*
X46487764Y-79149210D01*
X46487766Y-79149210D01*
X46688246Y-79111734D01*
X46878427Y-79038058D01*
X47051831Y-78930691D01*
X47202554Y-78793289D01*
X47325463Y-78630531D01*
X47416372Y-78447960D01*
X47472187Y-78251793D01*
X47491005Y-78048710D01*
X47820575Y-78048710D01*
X47839393Y-78251794D01*
X47895206Y-78447955D01*
X47895207Y-78447957D01*
X47895208Y-78447960D01*
X47986117Y-78630531D01*
X47986118Y-78630532D01*
X47986119Y-78630534D01*
X48109024Y-78793288D01*
X48259749Y-78930691D01*
X48259750Y-78930692D01*
X48433141Y-79038051D01*
X48433144Y-79038052D01*
X48433153Y-79038058D01*
X48623334Y-79111734D01*
X48823814Y-79149210D01*
X48823816Y-79149210D01*
X49027764Y-79149210D01*
X49027766Y-79149210D01*
X49228246Y-79111734D01*
X49418427Y-79038058D01*
X49591831Y-78930691D01*
X49742554Y-78793289D01*
X49865463Y-78630531D01*
X49956372Y-78447960D01*
X50012187Y-78251793D01*
X50031005Y-78048710D01*
X50012187Y-77845627D01*
X49956372Y-77649460D01*
X49865463Y-77466889D01*
X49767388Y-77337016D01*
X49742555Y-77304131D01*
X49591830Y-77166728D01*
X49591829Y-77166727D01*
X49418438Y-77059368D01*
X49418431Y-77059364D01*
X49418427Y-77059362D01*
X49285035Y-77007686D01*
X49228247Y-76985686D01*
X49161419Y-76973194D01*
X49027766Y-76948210D01*
X48823814Y-76948210D01*
X48723574Y-76966948D01*
X48623332Y-76985686D01*
X48475980Y-77042770D01*
X48433153Y-77059362D01*
X48433152Y-77059362D01*
X48433151Y-77059363D01*
X48433141Y-77059368D01*
X48259750Y-77166727D01*
X48259749Y-77166728D01*
X48109024Y-77304131D01*
X47986119Y-77466885D01*
X47895206Y-77649464D01*
X47839393Y-77845625D01*
X47820575Y-78048710D01*
X47491005Y-78048710D01*
X47472187Y-77845627D01*
X47416372Y-77649460D01*
X47325463Y-77466889D01*
X47227388Y-77337016D01*
X47202555Y-77304131D01*
X47051830Y-77166728D01*
X47051829Y-77166727D01*
X46878438Y-77059368D01*
X46878431Y-77059364D01*
X46878427Y-77059362D01*
X46745035Y-77007686D01*
X46688247Y-76985686D01*
X46621419Y-76973194D01*
X46487766Y-76948210D01*
X46283814Y-76948210D01*
X46183574Y-76966948D01*
X46083332Y-76985686D01*
X45935980Y-77042770D01*
X45893153Y-77059362D01*
X45893152Y-77059362D01*
X45893151Y-77059363D01*
X45893141Y-77059368D01*
X45719750Y-77166727D01*
X45719749Y-77166728D01*
X45569024Y-77304131D01*
X45446119Y-77466885D01*
X45355206Y-77649464D01*
X45299393Y-77845625D01*
X45280575Y-78048710D01*
X43525500Y-78048710D01*
X43525500Y-65348710D01*
X45280575Y-65348710D01*
X45299393Y-65551794D01*
X45355206Y-65747955D01*
X45355207Y-65747957D01*
X45355208Y-65747960D01*
X45446117Y-65930531D01*
X45446118Y-65930532D01*
X45446119Y-65930534D01*
X45569024Y-66093288D01*
X45719749Y-66230691D01*
X45719750Y-66230692D01*
X45893141Y-66338051D01*
X45893144Y-66338052D01*
X45893153Y-66338058D01*
X46083334Y-66411734D01*
X46283814Y-66449210D01*
X46283816Y-66449210D01*
X46487764Y-66449210D01*
X46487766Y-66449210D01*
X46688246Y-66411734D01*
X46878427Y-66338058D01*
X47051831Y-66230691D01*
X47202554Y-66093289D01*
X47325463Y-65930531D01*
X47416372Y-65747960D01*
X47472187Y-65551793D01*
X47491005Y-65348710D01*
X47472187Y-65145627D01*
X47416372Y-64949460D01*
X47325463Y-64766889D01*
X47325460Y-64766885D01*
X47202555Y-64604131D01*
X47051830Y-64466728D01*
X47051829Y-64466727D01*
X46878438Y-64359368D01*
X46878431Y-64359364D01*
X46878427Y-64359362D01*
X46761923Y-64314228D01*
X46688247Y-64285686D01*
X46621419Y-64273194D01*
X46487766Y-64248210D01*
X46283814Y-64248210D01*
X46183574Y-64266948D01*
X46083332Y-64285686D01*
X45935980Y-64342770D01*
X45893153Y-64359362D01*
X45893152Y-64359362D01*
X45893151Y-64359363D01*
X45893141Y-64359368D01*
X45719750Y-64466727D01*
X45719749Y-64466728D01*
X45569024Y-64604131D01*
X45446119Y-64766885D01*
X45355206Y-64949464D01*
X45299393Y-65145625D01*
X45280575Y-65348710D01*
X43525500Y-65348710D01*
X43525500Y-62808710D01*
X45280575Y-62808710D01*
X45299393Y-63011794D01*
X45355206Y-63207955D01*
X45355207Y-63207957D01*
X45355208Y-63207960D01*
X45446117Y-63390531D01*
X45446118Y-63390532D01*
X45446119Y-63390534D01*
X45569024Y-63553288D01*
X45719749Y-63690691D01*
X45719750Y-63690692D01*
X45893141Y-63798051D01*
X45893144Y-63798052D01*
X45893153Y-63798058D01*
X46083334Y-63871734D01*
X46283814Y-63909210D01*
X46283816Y-63909210D01*
X46487764Y-63909210D01*
X46487766Y-63909210D01*
X46688246Y-63871734D01*
X46878427Y-63798058D01*
X47051831Y-63690691D01*
X47202554Y-63553289D01*
X47325463Y-63390531D01*
X47416372Y-63207960D01*
X47472187Y-63011793D01*
X47491005Y-62808710D01*
X47472187Y-62605627D01*
X47416372Y-62409460D01*
X47325463Y-62226889D01*
X47311052Y-62207806D01*
X47202555Y-62064131D01*
X47051830Y-61926728D01*
X47051829Y-61926727D01*
X46878438Y-61819368D01*
X46878431Y-61819364D01*
X46878427Y-61819362D01*
X46761923Y-61774228D01*
X46688247Y-61745686D01*
X46621419Y-61733194D01*
X46487766Y-61708210D01*
X46283814Y-61708210D01*
X46183574Y-61726948D01*
X46083332Y-61745686D01*
X45935980Y-61802770D01*
X45893153Y-61819362D01*
X45893152Y-61819362D01*
X45893151Y-61819363D01*
X45893141Y-61819368D01*
X45719750Y-61926727D01*
X45719749Y-61926728D01*
X45569024Y-62064131D01*
X45446119Y-62226885D01*
X45355206Y-62409464D01*
X45299393Y-62605625D01*
X45280575Y-62808710D01*
X43525500Y-62808710D01*
X43525500Y-60268710D01*
X45280575Y-60268710D01*
X45299393Y-60471794D01*
X45355206Y-60667955D01*
X45355207Y-60667957D01*
X45355208Y-60667960D01*
X45446117Y-60850531D01*
X45446118Y-60850532D01*
X45446119Y-60850534D01*
X45569024Y-61013288D01*
X45719749Y-61150691D01*
X45719750Y-61150692D01*
X45893141Y-61258051D01*
X45893144Y-61258052D01*
X45893153Y-61258058D01*
X46083334Y-61331734D01*
X46283814Y-61369210D01*
X46283816Y-61369210D01*
X46487764Y-61369210D01*
X46487766Y-61369210D01*
X46688246Y-61331734D01*
X46878427Y-61258058D01*
X47051831Y-61150691D01*
X47202554Y-61013289D01*
X47325463Y-60850531D01*
X47416372Y-60667960D01*
X47472187Y-60471793D01*
X47491005Y-60268710D01*
X47472187Y-60065627D01*
X47416372Y-59869460D01*
X47325463Y-59686889D01*
X47274142Y-59618929D01*
X47202555Y-59524131D01*
X47051830Y-59386728D01*
X47051829Y-59386727D01*
X46878438Y-59279368D01*
X46878431Y-59279364D01*
X46878427Y-59279362D01*
X46727957Y-59221070D01*
X46688247Y-59205686D01*
X46621419Y-59193194D01*
X46487766Y-59168210D01*
X46283814Y-59168210D01*
X46183574Y-59186948D01*
X46083332Y-59205686D01*
X45935980Y-59262770D01*
X45893153Y-59279362D01*
X45893152Y-59279362D01*
X45893151Y-59279363D01*
X45893141Y-59279368D01*
X45719750Y-59386727D01*
X45719749Y-59386728D01*
X45569024Y-59524131D01*
X45446119Y-59686885D01*
X45355206Y-59869464D01*
X45299393Y-60065625D01*
X45280575Y-60268710D01*
X43525500Y-60268710D01*
X43525500Y-57728710D01*
X45280575Y-57728710D01*
X45299393Y-57931794D01*
X45355206Y-58127955D01*
X45355207Y-58127957D01*
X45355208Y-58127960D01*
X45446117Y-58310531D01*
X45446118Y-58310532D01*
X45446119Y-58310534D01*
X45569024Y-58473288D01*
X45719749Y-58610691D01*
X45719750Y-58610692D01*
X45893141Y-58718051D01*
X45893144Y-58718052D01*
X45893153Y-58718058D01*
X46083334Y-58791734D01*
X46283814Y-58829210D01*
X46283816Y-58829210D01*
X46487764Y-58829210D01*
X46487766Y-58829210D01*
X46688246Y-58791734D01*
X46878427Y-58718058D01*
X47051831Y-58610691D01*
X47202554Y-58473289D01*
X47325463Y-58310531D01*
X47416372Y-58127960D01*
X47472187Y-57931793D01*
X47491005Y-57728710D01*
X47472187Y-57525627D01*
X47416372Y-57329460D01*
X47325463Y-57146889D01*
X47319219Y-57138621D01*
X47202555Y-56984131D01*
X47051830Y-56846728D01*
X47051829Y-56846727D01*
X46878438Y-56739368D01*
X46878431Y-56739364D01*
X46878427Y-56739362D01*
X46761923Y-56694228D01*
X46688247Y-56665686D01*
X46621419Y-56653194D01*
X46487766Y-56628210D01*
X46283814Y-56628210D01*
X46183574Y-56646948D01*
X46083332Y-56665686D01*
X45935980Y-56722770D01*
X45893153Y-56739362D01*
X45893152Y-56739362D01*
X45893151Y-56739363D01*
X45893141Y-56739368D01*
X45719750Y-56846727D01*
X45719749Y-56846728D01*
X45569024Y-56984131D01*
X45446119Y-57146885D01*
X45355206Y-57329464D01*
X45299393Y-57525625D01*
X45280575Y-57728710D01*
X43525500Y-57728710D01*
X43525500Y-55188710D01*
X45280575Y-55188710D01*
X45299393Y-55391794D01*
X45355206Y-55587955D01*
X45355207Y-55587957D01*
X45355208Y-55587960D01*
X45446117Y-55770531D01*
X45446118Y-55770532D01*
X45446119Y-55770534D01*
X45569024Y-55933288D01*
X45719749Y-56070691D01*
X45719750Y-56070692D01*
X45893141Y-56178051D01*
X45893144Y-56178052D01*
X45893153Y-56178058D01*
X46083334Y-56251734D01*
X46283814Y-56289210D01*
X46283816Y-56289210D01*
X46487764Y-56289210D01*
X46487766Y-56289210D01*
X46688246Y-56251734D01*
X46878427Y-56178058D01*
X47051831Y-56070691D01*
X47202554Y-55933289D01*
X47325463Y-55770531D01*
X47416372Y-55587960D01*
X47472187Y-55391793D01*
X47491005Y-55188710D01*
X47472187Y-54985627D01*
X47416372Y-54789460D01*
X47325463Y-54606889D01*
X47325460Y-54606885D01*
X47202555Y-54444131D01*
X47051830Y-54306728D01*
X47051829Y-54306727D01*
X46878438Y-54199368D01*
X46878431Y-54199364D01*
X46878427Y-54199362D01*
X46761923Y-54154228D01*
X46688247Y-54125686D01*
X46621419Y-54113194D01*
X46487766Y-54088210D01*
X46283814Y-54088210D01*
X46183574Y-54106948D01*
X46083332Y-54125686D01*
X45935980Y-54182770D01*
X45893153Y-54199362D01*
X45893152Y-54199362D01*
X45893151Y-54199363D01*
X45893141Y-54199368D01*
X45719750Y-54306727D01*
X45719749Y-54306728D01*
X45569024Y-54444131D01*
X45446119Y-54606885D01*
X45355206Y-54789464D01*
X45299393Y-54985625D01*
X45280575Y-55188710D01*
X43525500Y-55188710D01*
X43525500Y-52648710D01*
X45280575Y-52648710D01*
X45299393Y-52851794D01*
X45355206Y-53047955D01*
X45355207Y-53047957D01*
X45355208Y-53047960D01*
X45446117Y-53230531D01*
X45446118Y-53230532D01*
X45446119Y-53230534D01*
X45569024Y-53393288D01*
X45719749Y-53530691D01*
X45719750Y-53530692D01*
X45893141Y-53638051D01*
X45893144Y-53638052D01*
X45893153Y-53638058D01*
X46083334Y-53711734D01*
X46283814Y-53749210D01*
X46283816Y-53749210D01*
X46487764Y-53749210D01*
X46487766Y-53749210D01*
X46688246Y-53711734D01*
X46878427Y-53638058D01*
X47051831Y-53530691D01*
X47202554Y-53393289D01*
X47325463Y-53230531D01*
X47416372Y-53047960D01*
X47472187Y-52851793D01*
X47491005Y-52648710D01*
X47472187Y-52445627D01*
X47416372Y-52249460D01*
X47325463Y-52066889D01*
X47311052Y-52047806D01*
X47202555Y-51904131D01*
X47051830Y-51766728D01*
X47051829Y-51766727D01*
X46878438Y-51659368D01*
X46878431Y-51659364D01*
X46878427Y-51659362D01*
X46761923Y-51614228D01*
X46688247Y-51585686D01*
X46621419Y-51573194D01*
X46487766Y-51548210D01*
X46283814Y-51548210D01*
X46183574Y-51566948D01*
X46083332Y-51585686D01*
X45935980Y-51642770D01*
X45893153Y-51659362D01*
X45893152Y-51659362D01*
X45893151Y-51659363D01*
X45893141Y-51659368D01*
X45719750Y-51766727D01*
X45719749Y-51766728D01*
X45569024Y-51904131D01*
X45446119Y-52066885D01*
X45355206Y-52249464D01*
X45299393Y-52445625D01*
X45280575Y-52648710D01*
X43525500Y-52648710D01*
X43525500Y-50108710D01*
X45280575Y-50108710D01*
X45299393Y-50311794D01*
X45355206Y-50507955D01*
X45355207Y-50507957D01*
X45355208Y-50507960D01*
X45446117Y-50690531D01*
X45446118Y-50690532D01*
X45446119Y-50690534D01*
X45569024Y-50853288D01*
X45719749Y-50990691D01*
X45719750Y-50990692D01*
X45893141Y-51098051D01*
X45893144Y-51098052D01*
X45893153Y-51098058D01*
X46083334Y-51171734D01*
X46283814Y-51209210D01*
X46283816Y-51209210D01*
X46487764Y-51209210D01*
X46487766Y-51209210D01*
X46688246Y-51171734D01*
X46878427Y-51098058D01*
X47051831Y-50990691D01*
X47202554Y-50853289D01*
X47325463Y-50690531D01*
X47416372Y-50507960D01*
X47472187Y-50311793D01*
X47491005Y-50108710D01*
X47472187Y-49905627D01*
X47416372Y-49709460D01*
X47325463Y-49526889D01*
X47311668Y-49508621D01*
X47202555Y-49364131D01*
X47051830Y-49226728D01*
X47051829Y-49226727D01*
X46878438Y-49119368D01*
X46878431Y-49119364D01*
X46878427Y-49119362D01*
X46737934Y-49064935D01*
X46688247Y-49045686D01*
X46621419Y-49033194D01*
X46487766Y-49008210D01*
X46283814Y-49008210D01*
X46183574Y-49026948D01*
X46083332Y-49045686D01*
X45935980Y-49102770D01*
X45893153Y-49119362D01*
X45893152Y-49119362D01*
X45893151Y-49119363D01*
X45893141Y-49119368D01*
X45719750Y-49226727D01*
X45719749Y-49226728D01*
X45569024Y-49364131D01*
X45446119Y-49526885D01*
X45355206Y-49709464D01*
X45299393Y-49905625D01*
X45280575Y-50108710D01*
X43525500Y-50108710D01*
X43525500Y-46485699D01*
X43545502Y-46417578D01*
X43599158Y-46371085D01*
X43651501Y-46359699D01*
X45804924Y-46359798D01*
G37*
%TD.AperFunction*%
%TD*%
M02*
