%TF.GenerationSoftware,KiCad,Pcbnew,7.0.11+dfsg-1*%
%TF.CreationDate,2024-04-05T15:38:58+03:00*%
%TF.ProjectId,extra_av_out,65787472-615f-4617-965f-6f75742e6b69,rev?*%
%TF.SameCoordinates,Original*%
%TF.FileFunction,Paste,Bot*%
%TF.FilePolarity,Positive*%
%FSLAX46Y46*%
G04 Gerber Fmt 4.6, Leading zero omitted, Abs format (unit mm)*
G04 Created by KiCad (PCBNEW 7.0.11+dfsg-1) date 2024-04-05 15:38:58*
%MOMM*%
%LPD*%
G01*
G04 APERTURE LIST*
G04 Aperture macros list*
%AMRoundRect*
0 Rectangle with rounded corners*
0 $1 Rounding radius*
0 $2 $3 $4 $5 $6 $7 $8 $9 X,Y pos of 4 corners*
0 Add a 4 corners polygon primitive as box body*
4,1,4,$2,$3,$4,$5,$6,$7,$8,$9,$2,$3,0*
0 Add four circle primitives for the rounded corners*
1,1,$1+$1,$2,$3*
1,1,$1+$1,$4,$5*
1,1,$1+$1,$6,$7*
1,1,$1+$1,$8,$9*
0 Add four rect primitives between the rounded corners*
20,1,$1+$1,$2,$3,$4,$5,0*
20,1,$1+$1,$4,$5,$6,$7,0*
20,1,$1+$1,$6,$7,$8,$9,0*
20,1,$1+$1,$8,$9,$2,$3,0*%
G04 Aperture macros list end*
%ADD10R,1.143000X0.635000*%
%ADD11R,0.635000X1.143000*%
%ADD12R,0.500000X0.380000*%
%ADD13R,0.650000X0.300000*%
%ADD14RoundRect,0.150000X0.150000X-0.587500X0.150000X0.587500X-0.150000X0.587500X-0.150000X-0.587500X0*%
%ADD15RoundRect,0.150000X-0.150000X0.587500X-0.150000X-0.587500X0.150000X-0.587500X0.150000X0.587500X0*%
G04 APERTURE END LIST*
D10*
%TO.C,C1*%
X62780000Y-59642000D03*
X62780000Y-58118000D03*
%TD*%
%TO.C,C2*%
X64420000Y-59642000D03*
X64420000Y-58118000D03*
%TD*%
D11*
%TO.C,C3*%
X92670000Y-70480000D03*
X91146000Y-70480000D03*
%TD*%
%TO.C,C4*%
X92690000Y-63840000D03*
X91166000Y-63840000D03*
%TD*%
%TO.C,C5*%
X84870000Y-70480000D03*
X86394000Y-70480000D03*
%TD*%
%TO.C,C7*%
X92674000Y-67180000D03*
X91150000Y-67180000D03*
%TD*%
%TO.C,C8*%
X92680000Y-65510000D03*
X91156000Y-65510000D03*
%TD*%
%TO.C,C9*%
X91140000Y-68830000D03*
X92664000Y-68830000D03*
%TD*%
%TO.C,C10*%
X84860000Y-68860000D03*
X86384000Y-68860000D03*
%TD*%
%TO.C,C15*%
X69482000Y-55300000D03*
X67958000Y-55300000D03*
%TD*%
%TO.C,C16*%
X75112000Y-52890000D03*
X73588000Y-52890000D03*
%TD*%
%TO.C,C17*%
X69492000Y-53660000D03*
X67968000Y-53660000D03*
%TD*%
%TO.C,C18*%
X69482000Y-56940000D03*
X67958000Y-56940000D03*
%TD*%
%TO.C,C19*%
X69472000Y-58580000D03*
X67948000Y-58580000D03*
%TD*%
%TO.C,C21*%
X114302000Y-73700000D03*
X112778000Y-73700000D03*
%TD*%
D10*
%TO.C,C22*%
X58040000Y-77062000D03*
X58040000Y-75538000D03*
%TD*%
D11*
%TO.C,R12*%
X57256000Y-71920000D03*
X58780000Y-71920000D03*
%TD*%
D12*
%TO.C,D4*%
X73860000Y-71370000D03*
D13*
X73780000Y-70830000D03*
D12*
X73860000Y-70290000D03*
X75560000Y-70290000D03*
X75560000Y-71370000D03*
%TD*%
D10*
%TO.C,R10*%
X70300000Y-71306000D03*
X70300000Y-69782000D03*
%TD*%
D14*
%TO.C,D3*%
X101550000Y-71915000D03*
X99650000Y-71915000D03*
X100600000Y-70040000D03*
%TD*%
D10*
%TO.C,R9*%
X68610000Y-69786000D03*
X68610000Y-71310000D03*
%TD*%
%TO.C,R11*%
X71970000Y-71306000D03*
X71970000Y-69782000D03*
%TD*%
D11*
%TO.C,R13*%
X58780000Y-73640000D03*
X57256000Y-73640000D03*
%TD*%
D15*
%TO.C,Q1*%
X60700000Y-70840000D03*
X62600000Y-70840000D03*
X61650000Y-72715000D03*
%TD*%
D12*
%TO.C,D2*%
X69240000Y-77810000D03*
D13*
X69320000Y-78350000D03*
D12*
X69240000Y-78890000D03*
X67540000Y-78890000D03*
X67540000Y-77810000D03*
%TD*%
M02*
