%TF.GenerationSoftware,KiCad,Pcbnew,5.1.9+dfsg1-1*%
%TF.CreationDate,2021-08-04T00:34:55+03:00*%
%TF.ProjectId,extra_av_out,65787472-615f-4617-965f-6f75742e6b69,rev?*%
%TF.SameCoordinates,Original*%
%TF.FileFunction,Paste,Top*%
%TF.FilePolarity,Positive*%
%FSLAX46Y46*%
G04 Gerber Fmt 4.6, Leading zero omitted, Abs format (unit mm)*
G04 Created by KiCad (PCBNEW 5.1.9+dfsg1-1) date 2021-08-04 00:34:55*
%MOMM*%
%LPD*%
G01*
G04 APERTURE LIST*
%ADD10R,0.700000X0.510000*%
%ADD11R,1.143000X0.635000*%
%ADD12R,0.635000X1.143000*%
%ADD13R,1.900000X0.800000*%
G04 APERTURE END LIST*
D10*
%TO.C,U3*%
X53810000Y-75720000D03*
X53810000Y-76670000D03*
X53810000Y-77620000D03*
X56130000Y-77620000D03*
X56130000Y-76670000D03*
X56130000Y-75720000D03*
%TD*%
%TO.C,U2*%
G36*
G01*
X97080000Y-64035000D02*
X97080000Y-64235000D01*
G75*
G02*
X96980000Y-64335000I-100000J0D01*
G01*
X95705000Y-64335000D01*
G75*
G02*
X95605000Y-64235000I0J100000D01*
G01*
X95605000Y-64035000D01*
G75*
G02*
X95705000Y-63935000I100000J0D01*
G01*
X96980000Y-63935000D01*
G75*
G02*
X97080000Y-64035000I0J-100000D01*
G01*
G37*
G36*
G01*
X97080000Y-63385000D02*
X97080000Y-63585000D01*
G75*
G02*
X96980000Y-63685000I-100000J0D01*
G01*
X95705000Y-63685000D01*
G75*
G02*
X95605000Y-63585000I0J100000D01*
G01*
X95605000Y-63385000D01*
G75*
G02*
X95705000Y-63285000I100000J0D01*
G01*
X96980000Y-63285000D01*
G75*
G02*
X97080000Y-63385000I0J-100000D01*
G01*
G37*
G36*
G01*
X97080000Y-62735000D02*
X97080000Y-62935000D01*
G75*
G02*
X96980000Y-63035000I-100000J0D01*
G01*
X95705000Y-63035000D01*
G75*
G02*
X95605000Y-62935000I0J100000D01*
G01*
X95605000Y-62735000D01*
G75*
G02*
X95705000Y-62635000I100000J0D01*
G01*
X96980000Y-62635000D01*
G75*
G02*
X97080000Y-62735000I0J-100000D01*
G01*
G37*
G36*
G01*
X97080000Y-62085000D02*
X97080000Y-62285000D01*
G75*
G02*
X96980000Y-62385000I-100000J0D01*
G01*
X95705000Y-62385000D01*
G75*
G02*
X95605000Y-62285000I0J100000D01*
G01*
X95605000Y-62085000D01*
G75*
G02*
X95705000Y-61985000I100000J0D01*
G01*
X96980000Y-61985000D01*
G75*
G02*
X97080000Y-62085000I0J-100000D01*
G01*
G37*
G36*
G01*
X97080000Y-61435000D02*
X97080000Y-61635000D01*
G75*
G02*
X96980000Y-61735000I-100000J0D01*
G01*
X95705000Y-61735000D01*
G75*
G02*
X95605000Y-61635000I0J100000D01*
G01*
X95605000Y-61435000D01*
G75*
G02*
X95705000Y-61335000I100000J0D01*
G01*
X96980000Y-61335000D01*
G75*
G02*
X97080000Y-61435000I0J-100000D01*
G01*
G37*
G36*
G01*
X97080000Y-60785000D02*
X97080000Y-60985000D01*
G75*
G02*
X96980000Y-61085000I-100000J0D01*
G01*
X95705000Y-61085000D01*
G75*
G02*
X95605000Y-60985000I0J100000D01*
G01*
X95605000Y-60785000D01*
G75*
G02*
X95705000Y-60685000I100000J0D01*
G01*
X96980000Y-60685000D01*
G75*
G02*
X97080000Y-60785000I0J-100000D01*
G01*
G37*
G36*
G01*
X97080000Y-60135000D02*
X97080000Y-60335000D01*
G75*
G02*
X96980000Y-60435000I-100000J0D01*
G01*
X95705000Y-60435000D01*
G75*
G02*
X95605000Y-60335000I0J100000D01*
G01*
X95605000Y-60135000D01*
G75*
G02*
X95705000Y-60035000I100000J0D01*
G01*
X96980000Y-60035000D01*
G75*
G02*
X97080000Y-60135000I0J-100000D01*
G01*
G37*
G36*
G01*
X97080000Y-59485000D02*
X97080000Y-59685000D01*
G75*
G02*
X96980000Y-59785000I-100000J0D01*
G01*
X95705000Y-59785000D01*
G75*
G02*
X95605000Y-59685000I0J100000D01*
G01*
X95605000Y-59485000D01*
G75*
G02*
X95705000Y-59385000I100000J0D01*
G01*
X96980000Y-59385000D01*
G75*
G02*
X97080000Y-59485000I0J-100000D01*
G01*
G37*
G36*
G01*
X97080000Y-58835000D02*
X97080000Y-59035000D01*
G75*
G02*
X96980000Y-59135000I-100000J0D01*
G01*
X95705000Y-59135000D01*
G75*
G02*
X95605000Y-59035000I0J100000D01*
G01*
X95605000Y-58835000D01*
G75*
G02*
X95705000Y-58735000I100000J0D01*
G01*
X96980000Y-58735000D01*
G75*
G02*
X97080000Y-58835000I0J-100000D01*
G01*
G37*
G36*
G01*
X97080000Y-58185000D02*
X97080000Y-58385000D01*
G75*
G02*
X96980000Y-58485000I-100000J0D01*
G01*
X95705000Y-58485000D01*
G75*
G02*
X95605000Y-58385000I0J100000D01*
G01*
X95605000Y-58185000D01*
G75*
G02*
X95705000Y-58085000I100000J0D01*
G01*
X96980000Y-58085000D01*
G75*
G02*
X97080000Y-58185000I0J-100000D01*
G01*
G37*
G36*
G01*
X97080000Y-57535000D02*
X97080000Y-57735000D01*
G75*
G02*
X96980000Y-57835000I-100000J0D01*
G01*
X95705000Y-57835000D01*
G75*
G02*
X95605000Y-57735000I0J100000D01*
G01*
X95605000Y-57535000D01*
G75*
G02*
X95705000Y-57435000I100000J0D01*
G01*
X96980000Y-57435000D01*
G75*
G02*
X97080000Y-57535000I0J-100000D01*
G01*
G37*
G36*
G01*
X97080000Y-56885000D02*
X97080000Y-57085000D01*
G75*
G02*
X96980000Y-57185000I-100000J0D01*
G01*
X95705000Y-57185000D01*
G75*
G02*
X95605000Y-57085000I0J100000D01*
G01*
X95605000Y-56885000D01*
G75*
G02*
X95705000Y-56785000I100000J0D01*
G01*
X96980000Y-56785000D01*
G75*
G02*
X97080000Y-56885000I0J-100000D01*
G01*
G37*
G36*
G01*
X97080000Y-56235000D02*
X97080000Y-56435000D01*
G75*
G02*
X96980000Y-56535000I-100000J0D01*
G01*
X95705000Y-56535000D01*
G75*
G02*
X95605000Y-56435000I0J100000D01*
G01*
X95605000Y-56235000D01*
G75*
G02*
X95705000Y-56135000I100000J0D01*
G01*
X96980000Y-56135000D01*
G75*
G02*
X97080000Y-56235000I0J-100000D01*
G01*
G37*
G36*
G01*
X97080000Y-55585000D02*
X97080000Y-55785000D01*
G75*
G02*
X96980000Y-55885000I-100000J0D01*
G01*
X95705000Y-55885000D01*
G75*
G02*
X95605000Y-55785000I0J100000D01*
G01*
X95605000Y-55585000D01*
G75*
G02*
X95705000Y-55485000I100000J0D01*
G01*
X96980000Y-55485000D01*
G75*
G02*
X97080000Y-55585000I0J-100000D01*
G01*
G37*
G36*
G01*
X91355000Y-55585000D02*
X91355000Y-55785000D01*
G75*
G02*
X91255000Y-55885000I-100000J0D01*
G01*
X89980000Y-55885000D01*
G75*
G02*
X89880000Y-55785000I0J100000D01*
G01*
X89880000Y-55585000D01*
G75*
G02*
X89980000Y-55485000I100000J0D01*
G01*
X91255000Y-55485000D01*
G75*
G02*
X91355000Y-55585000I0J-100000D01*
G01*
G37*
G36*
G01*
X91355000Y-56235000D02*
X91355000Y-56435000D01*
G75*
G02*
X91255000Y-56535000I-100000J0D01*
G01*
X89980000Y-56535000D01*
G75*
G02*
X89880000Y-56435000I0J100000D01*
G01*
X89880000Y-56235000D01*
G75*
G02*
X89980000Y-56135000I100000J0D01*
G01*
X91255000Y-56135000D01*
G75*
G02*
X91355000Y-56235000I0J-100000D01*
G01*
G37*
G36*
G01*
X91355000Y-56885000D02*
X91355000Y-57085000D01*
G75*
G02*
X91255000Y-57185000I-100000J0D01*
G01*
X89980000Y-57185000D01*
G75*
G02*
X89880000Y-57085000I0J100000D01*
G01*
X89880000Y-56885000D01*
G75*
G02*
X89980000Y-56785000I100000J0D01*
G01*
X91255000Y-56785000D01*
G75*
G02*
X91355000Y-56885000I0J-100000D01*
G01*
G37*
G36*
G01*
X91355000Y-57535000D02*
X91355000Y-57735000D01*
G75*
G02*
X91255000Y-57835000I-100000J0D01*
G01*
X89980000Y-57835000D01*
G75*
G02*
X89880000Y-57735000I0J100000D01*
G01*
X89880000Y-57535000D01*
G75*
G02*
X89980000Y-57435000I100000J0D01*
G01*
X91255000Y-57435000D01*
G75*
G02*
X91355000Y-57535000I0J-100000D01*
G01*
G37*
G36*
G01*
X91355000Y-58185000D02*
X91355000Y-58385000D01*
G75*
G02*
X91255000Y-58485000I-100000J0D01*
G01*
X89980000Y-58485000D01*
G75*
G02*
X89880000Y-58385000I0J100000D01*
G01*
X89880000Y-58185000D01*
G75*
G02*
X89980000Y-58085000I100000J0D01*
G01*
X91255000Y-58085000D01*
G75*
G02*
X91355000Y-58185000I0J-100000D01*
G01*
G37*
G36*
G01*
X91355000Y-58835000D02*
X91355000Y-59035000D01*
G75*
G02*
X91255000Y-59135000I-100000J0D01*
G01*
X89980000Y-59135000D01*
G75*
G02*
X89880000Y-59035000I0J100000D01*
G01*
X89880000Y-58835000D01*
G75*
G02*
X89980000Y-58735000I100000J0D01*
G01*
X91255000Y-58735000D01*
G75*
G02*
X91355000Y-58835000I0J-100000D01*
G01*
G37*
G36*
G01*
X91355000Y-59485000D02*
X91355000Y-59685000D01*
G75*
G02*
X91255000Y-59785000I-100000J0D01*
G01*
X89980000Y-59785000D01*
G75*
G02*
X89880000Y-59685000I0J100000D01*
G01*
X89880000Y-59485000D01*
G75*
G02*
X89980000Y-59385000I100000J0D01*
G01*
X91255000Y-59385000D01*
G75*
G02*
X91355000Y-59485000I0J-100000D01*
G01*
G37*
G36*
G01*
X91355000Y-60135000D02*
X91355000Y-60335000D01*
G75*
G02*
X91255000Y-60435000I-100000J0D01*
G01*
X89980000Y-60435000D01*
G75*
G02*
X89880000Y-60335000I0J100000D01*
G01*
X89880000Y-60135000D01*
G75*
G02*
X89980000Y-60035000I100000J0D01*
G01*
X91255000Y-60035000D01*
G75*
G02*
X91355000Y-60135000I0J-100000D01*
G01*
G37*
G36*
G01*
X91355000Y-60785000D02*
X91355000Y-60985000D01*
G75*
G02*
X91255000Y-61085000I-100000J0D01*
G01*
X89980000Y-61085000D01*
G75*
G02*
X89880000Y-60985000I0J100000D01*
G01*
X89880000Y-60785000D01*
G75*
G02*
X89980000Y-60685000I100000J0D01*
G01*
X91255000Y-60685000D01*
G75*
G02*
X91355000Y-60785000I0J-100000D01*
G01*
G37*
G36*
G01*
X91355000Y-61435000D02*
X91355000Y-61635000D01*
G75*
G02*
X91255000Y-61735000I-100000J0D01*
G01*
X89980000Y-61735000D01*
G75*
G02*
X89880000Y-61635000I0J100000D01*
G01*
X89880000Y-61435000D01*
G75*
G02*
X89980000Y-61335000I100000J0D01*
G01*
X91255000Y-61335000D01*
G75*
G02*
X91355000Y-61435000I0J-100000D01*
G01*
G37*
G36*
G01*
X91355000Y-62085000D02*
X91355000Y-62285000D01*
G75*
G02*
X91255000Y-62385000I-100000J0D01*
G01*
X89980000Y-62385000D01*
G75*
G02*
X89880000Y-62285000I0J100000D01*
G01*
X89880000Y-62085000D01*
G75*
G02*
X89980000Y-61985000I100000J0D01*
G01*
X91255000Y-61985000D01*
G75*
G02*
X91355000Y-62085000I0J-100000D01*
G01*
G37*
G36*
G01*
X91355000Y-62735000D02*
X91355000Y-62935000D01*
G75*
G02*
X91255000Y-63035000I-100000J0D01*
G01*
X89980000Y-63035000D01*
G75*
G02*
X89880000Y-62935000I0J100000D01*
G01*
X89880000Y-62735000D01*
G75*
G02*
X89980000Y-62635000I100000J0D01*
G01*
X91255000Y-62635000D01*
G75*
G02*
X91355000Y-62735000I0J-100000D01*
G01*
G37*
G36*
G01*
X91355000Y-63385000D02*
X91355000Y-63585000D01*
G75*
G02*
X91255000Y-63685000I-100000J0D01*
G01*
X89980000Y-63685000D01*
G75*
G02*
X89880000Y-63585000I0J100000D01*
G01*
X89880000Y-63385000D01*
G75*
G02*
X89980000Y-63285000I100000J0D01*
G01*
X91255000Y-63285000D01*
G75*
G02*
X91355000Y-63385000I0J-100000D01*
G01*
G37*
G36*
G01*
X91355000Y-64035000D02*
X91355000Y-64235000D01*
G75*
G02*
X91255000Y-64335000I-100000J0D01*
G01*
X89980000Y-64335000D01*
G75*
G02*
X89880000Y-64235000I0J100000D01*
G01*
X89880000Y-64035000D01*
G75*
G02*
X89980000Y-63935000I100000J0D01*
G01*
X91255000Y-63935000D01*
G75*
G02*
X91355000Y-64035000I0J-100000D01*
G01*
G37*
%TD*%
%TO.C,U1*%
G36*
G01*
X62190000Y-53105000D02*
X62190000Y-52955000D01*
G75*
G02*
X62265000Y-52880000I75000J0D01*
G01*
X63590000Y-52880000D01*
G75*
G02*
X63665000Y-52955000I0J-75000D01*
G01*
X63665000Y-53105000D01*
G75*
G02*
X63590000Y-53180000I-75000J0D01*
G01*
X62265000Y-53180000D01*
G75*
G02*
X62190000Y-53105000I0J75000D01*
G01*
G37*
G36*
G01*
X62190000Y-53605000D02*
X62190000Y-53455000D01*
G75*
G02*
X62265000Y-53380000I75000J0D01*
G01*
X63590000Y-53380000D01*
G75*
G02*
X63665000Y-53455000I0J-75000D01*
G01*
X63665000Y-53605000D01*
G75*
G02*
X63590000Y-53680000I-75000J0D01*
G01*
X62265000Y-53680000D01*
G75*
G02*
X62190000Y-53605000I0J75000D01*
G01*
G37*
G36*
G01*
X62190000Y-54105000D02*
X62190000Y-53955000D01*
G75*
G02*
X62265000Y-53880000I75000J0D01*
G01*
X63590000Y-53880000D01*
G75*
G02*
X63665000Y-53955000I0J-75000D01*
G01*
X63665000Y-54105000D01*
G75*
G02*
X63590000Y-54180000I-75000J0D01*
G01*
X62265000Y-54180000D01*
G75*
G02*
X62190000Y-54105000I0J75000D01*
G01*
G37*
G36*
G01*
X62190000Y-54605000D02*
X62190000Y-54455000D01*
G75*
G02*
X62265000Y-54380000I75000J0D01*
G01*
X63590000Y-54380000D01*
G75*
G02*
X63665000Y-54455000I0J-75000D01*
G01*
X63665000Y-54605000D01*
G75*
G02*
X63590000Y-54680000I-75000J0D01*
G01*
X62265000Y-54680000D01*
G75*
G02*
X62190000Y-54605000I0J75000D01*
G01*
G37*
G36*
G01*
X62190000Y-55105000D02*
X62190000Y-54955000D01*
G75*
G02*
X62265000Y-54880000I75000J0D01*
G01*
X63590000Y-54880000D01*
G75*
G02*
X63665000Y-54955000I0J-75000D01*
G01*
X63665000Y-55105000D01*
G75*
G02*
X63590000Y-55180000I-75000J0D01*
G01*
X62265000Y-55180000D01*
G75*
G02*
X62190000Y-55105000I0J75000D01*
G01*
G37*
G36*
G01*
X62190000Y-55605000D02*
X62190000Y-55455000D01*
G75*
G02*
X62265000Y-55380000I75000J0D01*
G01*
X63590000Y-55380000D01*
G75*
G02*
X63665000Y-55455000I0J-75000D01*
G01*
X63665000Y-55605000D01*
G75*
G02*
X63590000Y-55680000I-75000J0D01*
G01*
X62265000Y-55680000D01*
G75*
G02*
X62190000Y-55605000I0J75000D01*
G01*
G37*
G36*
G01*
X62190000Y-56105000D02*
X62190000Y-55955000D01*
G75*
G02*
X62265000Y-55880000I75000J0D01*
G01*
X63590000Y-55880000D01*
G75*
G02*
X63665000Y-55955000I0J-75000D01*
G01*
X63665000Y-56105000D01*
G75*
G02*
X63590000Y-56180000I-75000J0D01*
G01*
X62265000Y-56180000D01*
G75*
G02*
X62190000Y-56105000I0J75000D01*
G01*
G37*
G36*
G01*
X62190000Y-56605000D02*
X62190000Y-56455000D01*
G75*
G02*
X62265000Y-56380000I75000J0D01*
G01*
X63590000Y-56380000D01*
G75*
G02*
X63665000Y-56455000I0J-75000D01*
G01*
X63665000Y-56605000D01*
G75*
G02*
X63590000Y-56680000I-75000J0D01*
G01*
X62265000Y-56680000D01*
G75*
G02*
X62190000Y-56605000I0J75000D01*
G01*
G37*
G36*
G01*
X62190000Y-57105000D02*
X62190000Y-56955000D01*
G75*
G02*
X62265000Y-56880000I75000J0D01*
G01*
X63590000Y-56880000D01*
G75*
G02*
X63665000Y-56955000I0J-75000D01*
G01*
X63665000Y-57105000D01*
G75*
G02*
X63590000Y-57180000I-75000J0D01*
G01*
X62265000Y-57180000D01*
G75*
G02*
X62190000Y-57105000I0J75000D01*
G01*
G37*
G36*
G01*
X62190000Y-57605000D02*
X62190000Y-57455000D01*
G75*
G02*
X62265000Y-57380000I75000J0D01*
G01*
X63590000Y-57380000D01*
G75*
G02*
X63665000Y-57455000I0J-75000D01*
G01*
X63665000Y-57605000D01*
G75*
G02*
X63590000Y-57680000I-75000J0D01*
G01*
X62265000Y-57680000D01*
G75*
G02*
X62190000Y-57605000I0J75000D01*
G01*
G37*
G36*
G01*
X62190000Y-58105000D02*
X62190000Y-57955000D01*
G75*
G02*
X62265000Y-57880000I75000J0D01*
G01*
X63590000Y-57880000D01*
G75*
G02*
X63665000Y-57955000I0J-75000D01*
G01*
X63665000Y-58105000D01*
G75*
G02*
X63590000Y-58180000I-75000J0D01*
G01*
X62265000Y-58180000D01*
G75*
G02*
X62190000Y-58105000I0J75000D01*
G01*
G37*
G36*
G01*
X62190000Y-58605000D02*
X62190000Y-58455000D01*
G75*
G02*
X62265000Y-58380000I75000J0D01*
G01*
X63590000Y-58380000D01*
G75*
G02*
X63665000Y-58455000I0J-75000D01*
G01*
X63665000Y-58605000D01*
G75*
G02*
X63590000Y-58680000I-75000J0D01*
G01*
X62265000Y-58680000D01*
G75*
G02*
X62190000Y-58605000I0J75000D01*
G01*
G37*
G36*
G01*
X64190000Y-60605000D02*
X64190000Y-59280000D01*
G75*
G02*
X64265000Y-59205000I75000J0D01*
G01*
X64415000Y-59205000D01*
G75*
G02*
X64490000Y-59280000I0J-75000D01*
G01*
X64490000Y-60605000D01*
G75*
G02*
X64415000Y-60680000I-75000J0D01*
G01*
X64265000Y-60680000D01*
G75*
G02*
X64190000Y-60605000I0J75000D01*
G01*
G37*
G36*
G01*
X64690000Y-60605000D02*
X64690000Y-59280000D01*
G75*
G02*
X64765000Y-59205000I75000J0D01*
G01*
X64915000Y-59205000D01*
G75*
G02*
X64990000Y-59280000I0J-75000D01*
G01*
X64990000Y-60605000D01*
G75*
G02*
X64915000Y-60680000I-75000J0D01*
G01*
X64765000Y-60680000D01*
G75*
G02*
X64690000Y-60605000I0J75000D01*
G01*
G37*
G36*
G01*
X65190000Y-60605000D02*
X65190000Y-59280000D01*
G75*
G02*
X65265000Y-59205000I75000J0D01*
G01*
X65415000Y-59205000D01*
G75*
G02*
X65490000Y-59280000I0J-75000D01*
G01*
X65490000Y-60605000D01*
G75*
G02*
X65415000Y-60680000I-75000J0D01*
G01*
X65265000Y-60680000D01*
G75*
G02*
X65190000Y-60605000I0J75000D01*
G01*
G37*
G36*
G01*
X65690000Y-60605000D02*
X65690000Y-59280000D01*
G75*
G02*
X65765000Y-59205000I75000J0D01*
G01*
X65915000Y-59205000D01*
G75*
G02*
X65990000Y-59280000I0J-75000D01*
G01*
X65990000Y-60605000D01*
G75*
G02*
X65915000Y-60680000I-75000J0D01*
G01*
X65765000Y-60680000D01*
G75*
G02*
X65690000Y-60605000I0J75000D01*
G01*
G37*
G36*
G01*
X66190000Y-60605000D02*
X66190000Y-59280000D01*
G75*
G02*
X66265000Y-59205000I75000J0D01*
G01*
X66415000Y-59205000D01*
G75*
G02*
X66490000Y-59280000I0J-75000D01*
G01*
X66490000Y-60605000D01*
G75*
G02*
X66415000Y-60680000I-75000J0D01*
G01*
X66265000Y-60680000D01*
G75*
G02*
X66190000Y-60605000I0J75000D01*
G01*
G37*
G36*
G01*
X66690000Y-60605000D02*
X66690000Y-59280000D01*
G75*
G02*
X66765000Y-59205000I75000J0D01*
G01*
X66915000Y-59205000D01*
G75*
G02*
X66990000Y-59280000I0J-75000D01*
G01*
X66990000Y-60605000D01*
G75*
G02*
X66915000Y-60680000I-75000J0D01*
G01*
X66765000Y-60680000D01*
G75*
G02*
X66690000Y-60605000I0J75000D01*
G01*
G37*
G36*
G01*
X67190000Y-60605000D02*
X67190000Y-59280000D01*
G75*
G02*
X67265000Y-59205000I75000J0D01*
G01*
X67415000Y-59205000D01*
G75*
G02*
X67490000Y-59280000I0J-75000D01*
G01*
X67490000Y-60605000D01*
G75*
G02*
X67415000Y-60680000I-75000J0D01*
G01*
X67265000Y-60680000D01*
G75*
G02*
X67190000Y-60605000I0J75000D01*
G01*
G37*
G36*
G01*
X67690000Y-60605000D02*
X67690000Y-59280000D01*
G75*
G02*
X67765000Y-59205000I75000J0D01*
G01*
X67915000Y-59205000D01*
G75*
G02*
X67990000Y-59280000I0J-75000D01*
G01*
X67990000Y-60605000D01*
G75*
G02*
X67915000Y-60680000I-75000J0D01*
G01*
X67765000Y-60680000D01*
G75*
G02*
X67690000Y-60605000I0J75000D01*
G01*
G37*
G36*
G01*
X68190000Y-60605000D02*
X68190000Y-59280000D01*
G75*
G02*
X68265000Y-59205000I75000J0D01*
G01*
X68415000Y-59205000D01*
G75*
G02*
X68490000Y-59280000I0J-75000D01*
G01*
X68490000Y-60605000D01*
G75*
G02*
X68415000Y-60680000I-75000J0D01*
G01*
X68265000Y-60680000D01*
G75*
G02*
X68190000Y-60605000I0J75000D01*
G01*
G37*
G36*
G01*
X68690000Y-60605000D02*
X68690000Y-59280000D01*
G75*
G02*
X68765000Y-59205000I75000J0D01*
G01*
X68915000Y-59205000D01*
G75*
G02*
X68990000Y-59280000I0J-75000D01*
G01*
X68990000Y-60605000D01*
G75*
G02*
X68915000Y-60680000I-75000J0D01*
G01*
X68765000Y-60680000D01*
G75*
G02*
X68690000Y-60605000I0J75000D01*
G01*
G37*
G36*
G01*
X69190000Y-60605000D02*
X69190000Y-59280000D01*
G75*
G02*
X69265000Y-59205000I75000J0D01*
G01*
X69415000Y-59205000D01*
G75*
G02*
X69490000Y-59280000I0J-75000D01*
G01*
X69490000Y-60605000D01*
G75*
G02*
X69415000Y-60680000I-75000J0D01*
G01*
X69265000Y-60680000D01*
G75*
G02*
X69190000Y-60605000I0J75000D01*
G01*
G37*
G36*
G01*
X69690000Y-60605000D02*
X69690000Y-59280000D01*
G75*
G02*
X69765000Y-59205000I75000J0D01*
G01*
X69915000Y-59205000D01*
G75*
G02*
X69990000Y-59280000I0J-75000D01*
G01*
X69990000Y-60605000D01*
G75*
G02*
X69915000Y-60680000I-75000J0D01*
G01*
X69765000Y-60680000D01*
G75*
G02*
X69690000Y-60605000I0J75000D01*
G01*
G37*
G36*
G01*
X70515000Y-58605000D02*
X70515000Y-58455000D01*
G75*
G02*
X70590000Y-58380000I75000J0D01*
G01*
X71915000Y-58380000D01*
G75*
G02*
X71990000Y-58455000I0J-75000D01*
G01*
X71990000Y-58605000D01*
G75*
G02*
X71915000Y-58680000I-75000J0D01*
G01*
X70590000Y-58680000D01*
G75*
G02*
X70515000Y-58605000I0J75000D01*
G01*
G37*
G36*
G01*
X70515000Y-58105000D02*
X70515000Y-57955000D01*
G75*
G02*
X70590000Y-57880000I75000J0D01*
G01*
X71915000Y-57880000D01*
G75*
G02*
X71990000Y-57955000I0J-75000D01*
G01*
X71990000Y-58105000D01*
G75*
G02*
X71915000Y-58180000I-75000J0D01*
G01*
X70590000Y-58180000D01*
G75*
G02*
X70515000Y-58105000I0J75000D01*
G01*
G37*
G36*
G01*
X70515000Y-57605000D02*
X70515000Y-57455000D01*
G75*
G02*
X70590000Y-57380000I75000J0D01*
G01*
X71915000Y-57380000D01*
G75*
G02*
X71990000Y-57455000I0J-75000D01*
G01*
X71990000Y-57605000D01*
G75*
G02*
X71915000Y-57680000I-75000J0D01*
G01*
X70590000Y-57680000D01*
G75*
G02*
X70515000Y-57605000I0J75000D01*
G01*
G37*
G36*
G01*
X70515000Y-57105000D02*
X70515000Y-56955000D01*
G75*
G02*
X70590000Y-56880000I75000J0D01*
G01*
X71915000Y-56880000D01*
G75*
G02*
X71990000Y-56955000I0J-75000D01*
G01*
X71990000Y-57105000D01*
G75*
G02*
X71915000Y-57180000I-75000J0D01*
G01*
X70590000Y-57180000D01*
G75*
G02*
X70515000Y-57105000I0J75000D01*
G01*
G37*
G36*
G01*
X70515000Y-56605000D02*
X70515000Y-56455000D01*
G75*
G02*
X70590000Y-56380000I75000J0D01*
G01*
X71915000Y-56380000D01*
G75*
G02*
X71990000Y-56455000I0J-75000D01*
G01*
X71990000Y-56605000D01*
G75*
G02*
X71915000Y-56680000I-75000J0D01*
G01*
X70590000Y-56680000D01*
G75*
G02*
X70515000Y-56605000I0J75000D01*
G01*
G37*
G36*
G01*
X70515000Y-56105000D02*
X70515000Y-55955000D01*
G75*
G02*
X70590000Y-55880000I75000J0D01*
G01*
X71915000Y-55880000D01*
G75*
G02*
X71990000Y-55955000I0J-75000D01*
G01*
X71990000Y-56105000D01*
G75*
G02*
X71915000Y-56180000I-75000J0D01*
G01*
X70590000Y-56180000D01*
G75*
G02*
X70515000Y-56105000I0J75000D01*
G01*
G37*
G36*
G01*
X70515000Y-55605000D02*
X70515000Y-55455000D01*
G75*
G02*
X70590000Y-55380000I75000J0D01*
G01*
X71915000Y-55380000D01*
G75*
G02*
X71990000Y-55455000I0J-75000D01*
G01*
X71990000Y-55605000D01*
G75*
G02*
X71915000Y-55680000I-75000J0D01*
G01*
X70590000Y-55680000D01*
G75*
G02*
X70515000Y-55605000I0J75000D01*
G01*
G37*
G36*
G01*
X70515000Y-55105000D02*
X70515000Y-54955000D01*
G75*
G02*
X70590000Y-54880000I75000J0D01*
G01*
X71915000Y-54880000D01*
G75*
G02*
X71990000Y-54955000I0J-75000D01*
G01*
X71990000Y-55105000D01*
G75*
G02*
X71915000Y-55180000I-75000J0D01*
G01*
X70590000Y-55180000D01*
G75*
G02*
X70515000Y-55105000I0J75000D01*
G01*
G37*
G36*
G01*
X70515000Y-54605000D02*
X70515000Y-54455000D01*
G75*
G02*
X70590000Y-54380000I75000J0D01*
G01*
X71915000Y-54380000D01*
G75*
G02*
X71990000Y-54455000I0J-75000D01*
G01*
X71990000Y-54605000D01*
G75*
G02*
X71915000Y-54680000I-75000J0D01*
G01*
X70590000Y-54680000D01*
G75*
G02*
X70515000Y-54605000I0J75000D01*
G01*
G37*
G36*
G01*
X70515000Y-54105000D02*
X70515000Y-53955000D01*
G75*
G02*
X70590000Y-53880000I75000J0D01*
G01*
X71915000Y-53880000D01*
G75*
G02*
X71990000Y-53955000I0J-75000D01*
G01*
X71990000Y-54105000D01*
G75*
G02*
X71915000Y-54180000I-75000J0D01*
G01*
X70590000Y-54180000D01*
G75*
G02*
X70515000Y-54105000I0J75000D01*
G01*
G37*
G36*
G01*
X70515000Y-53605000D02*
X70515000Y-53455000D01*
G75*
G02*
X70590000Y-53380000I75000J0D01*
G01*
X71915000Y-53380000D01*
G75*
G02*
X71990000Y-53455000I0J-75000D01*
G01*
X71990000Y-53605000D01*
G75*
G02*
X71915000Y-53680000I-75000J0D01*
G01*
X70590000Y-53680000D01*
G75*
G02*
X70515000Y-53605000I0J75000D01*
G01*
G37*
G36*
G01*
X70515000Y-53105000D02*
X70515000Y-52955000D01*
G75*
G02*
X70590000Y-52880000I75000J0D01*
G01*
X71915000Y-52880000D01*
G75*
G02*
X71990000Y-52955000I0J-75000D01*
G01*
X71990000Y-53105000D01*
G75*
G02*
X71915000Y-53180000I-75000J0D01*
G01*
X70590000Y-53180000D01*
G75*
G02*
X70515000Y-53105000I0J75000D01*
G01*
G37*
G36*
G01*
X69690000Y-52280000D02*
X69690000Y-50955000D01*
G75*
G02*
X69765000Y-50880000I75000J0D01*
G01*
X69915000Y-50880000D01*
G75*
G02*
X69990000Y-50955000I0J-75000D01*
G01*
X69990000Y-52280000D01*
G75*
G02*
X69915000Y-52355000I-75000J0D01*
G01*
X69765000Y-52355000D01*
G75*
G02*
X69690000Y-52280000I0J75000D01*
G01*
G37*
G36*
G01*
X69190000Y-52280000D02*
X69190000Y-50955000D01*
G75*
G02*
X69265000Y-50880000I75000J0D01*
G01*
X69415000Y-50880000D01*
G75*
G02*
X69490000Y-50955000I0J-75000D01*
G01*
X69490000Y-52280000D01*
G75*
G02*
X69415000Y-52355000I-75000J0D01*
G01*
X69265000Y-52355000D01*
G75*
G02*
X69190000Y-52280000I0J75000D01*
G01*
G37*
G36*
G01*
X68690000Y-52280000D02*
X68690000Y-50955000D01*
G75*
G02*
X68765000Y-50880000I75000J0D01*
G01*
X68915000Y-50880000D01*
G75*
G02*
X68990000Y-50955000I0J-75000D01*
G01*
X68990000Y-52280000D01*
G75*
G02*
X68915000Y-52355000I-75000J0D01*
G01*
X68765000Y-52355000D01*
G75*
G02*
X68690000Y-52280000I0J75000D01*
G01*
G37*
G36*
G01*
X68190000Y-52280000D02*
X68190000Y-50955000D01*
G75*
G02*
X68265000Y-50880000I75000J0D01*
G01*
X68415000Y-50880000D01*
G75*
G02*
X68490000Y-50955000I0J-75000D01*
G01*
X68490000Y-52280000D01*
G75*
G02*
X68415000Y-52355000I-75000J0D01*
G01*
X68265000Y-52355000D01*
G75*
G02*
X68190000Y-52280000I0J75000D01*
G01*
G37*
G36*
G01*
X67690000Y-52280000D02*
X67690000Y-50955000D01*
G75*
G02*
X67765000Y-50880000I75000J0D01*
G01*
X67915000Y-50880000D01*
G75*
G02*
X67990000Y-50955000I0J-75000D01*
G01*
X67990000Y-52280000D01*
G75*
G02*
X67915000Y-52355000I-75000J0D01*
G01*
X67765000Y-52355000D01*
G75*
G02*
X67690000Y-52280000I0J75000D01*
G01*
G37*
G36*
G01*
X67190000Y-52280000D02*
X67190000Y-50955000D01*
G75*
G02*
X67265000Y-50880000I75000J0D01*
G01*
X67415000Y-50880000D01*
G75*
G02*
X67490000Y-50955000I0J-75000D01*
G01*
X67490000Y-52280000D01*
G75*
G02*
X67415000Y-52355000I-75000J0D01*
G01*
X67265000Y-52355000D01*
G75*
G02*
X67190000Y-52280000I0J75000D01*
G01*
G37*
G36*
G01*
X66690000Y-52280000D02*
X66690000Y-50955000D01*
G75*
G02*
X66765000Y-50880000I75000J0D01*
G01*
X66915000Y-50880000D01*
G75*
G02*
X66990000Y-50955000I0J-75000D01*
G01*
X66990000Y-52280000D01*
G75*
G02*
X66915000Y-52355000I-75000J0D01*
G01*
X66765000Y-52355000D01*
G75*
G02*
X66690000Y-52280000I0J75000D01*
G01*
G37*
G36*
G01*
X66190000Y-52280000D02*
X66190000Y-50955000D01*
G75*
G02*
X66265000Y-50880000I75000J0D01*
G01*
X66415000Y-50880000D01*
G75*
G02*
X66490000Y-50955000I0J-75000D01*
G01*
X66490000Y-52280000D01*
G75*
G02*
X66415000Y-52355000I-75000J0D01*
G01*
X66265000Y-52355000D01*
G75*
G02*
X66190000Y-52280000I0J75000D01*
G01*
G37*
G36*
G01*
X65690000Y-52280000D02*
X65690000Y-50955000D01*
G75*
G02*
X65765000Y-50880000I75000J0D01*
G01*
X65915000Y-50880000D01*
G75*
G02*
X65990000Y-50955000I0J-75000D01*
G01*
X65990000Y-52280000D01*
G75*
G02*
X65915000Y-52355000I-75000J0D01*
G01*
X65765000Y-52355000D01*
G75*
G02*
X65690000Y-52280000I0J75000D01*
G01*
G37*
G36*
G01*
X65190000Y-52280000D02*
X65190000Y-50955000D01*
G75*
G02*
X65265000Y-50880000I75000J0D01*
G01*
X65415000Y-50880000D01*
G75*
G02*
X65490000Y-50955000I0J-75000D01*
G01*
X65490000Y-52280000D01*
G75*
G02*
X65415000Y-52355000I-75000J0D01*
G01*
X65265000Y-52355000D01*
G75*
G02*
X65190000Y-52280000I0J75000D01*
G01*
G37*
G36*
G01*
X64690000Y-52280000D02*
X64690000Y-50955000D01*
G75*
G02*
X64765000Y-50880000I75000J0D01*
G01*
X64915000Y-50880000D01*
G75*
G02*
X64990000Y-50955000I0J-75000D01*
G01*
X64990000Y-52280000D01*
G75*
G02*
X64915000Y-52355000I-75000J0D01*
G01*
X64765000Y-52355000D01*
G75*
G02*
X64690000Y-52280000I0J75000D01*
G01*
G37*
G36*
G01*
X64190000Y-52280000D02*
X64190000Y-50955000D01*
G75*
G02*
X64265000Y-50880000I75000J0D01*
G01*
X64415000Y-50880000D01*
G75*
G02*
X64490000Y-50955000I0J-75000D01*
G01*
X64490000Y-52280000D01*
G75*
G02*
X64415000Y-52355000I-75000J0D01*
G01*
X64265000Y-52355000D01*
G75*
G02*
X64190000Y-52280000I0J75000D01*
G01*
G37*
%TD*%
D11*
%TO.C,R8*%
X79830000Y-49688000D03*
X79830000Y-51212000D03*
%TD*%
D12*
%TO.C,R7*%
X72218000Y-60690000D03*
X73742000Y-60690000D03*
%TD*%
%TO.C,R6*%
X74188000Y-57060000D03*
X75712000Y-57060000D03*
%TD*%
%TO.C,R5*%
X77402000Y-54200000D03*
X75878000Y-54200000D03*
%TD*%
D11*
%TO.C,R4*%
X69980000Y-47438000D03*
X69980000Y-48962000D03*
%TD*%
%TO.C,R3*%
X100990000Y-70512000D03*
X100990000Y-68988000D03*
%TD*%
%TO.C,R2*%
X98730000Y-70512000D03*
X98730000Y-68988000D03*
%TD*%
%TO.C,R1*%
X86870000Y-63612000D03*
X86870000Y-62088000D03*
%TD*%
D13*
%TO.C,D1*%
X75440000Y-51220000D03*
X75440000Y-49320000D03*
X72440000Y-50270000D03*
%TD*%
D11*
%TO.C,C20*%
X77910000Y-51222000D03*
X77910000Y-49698000D03*
%TD*%
D12*
%TO.C,C13*%
X102728000Y-71070000D03*
X104252000Y-71070000D03*
%TD*%
%TO.C,C11*%
X95538000Y-71050000D03*
X97062000Y-71050000D03*
%TD*%
M02*
