M48
; DRILL file {KiCad 7.0.11+dfsg-1} date 2024-04-05T15:39:00 EEST
; FORMAT={-:-/ absolute / inch / decimal}
; #@! TF.CreationDate,2024-04-05T15:39:00+03:00
; #@! TF.GenerationSoftware,Kicad,Pcbnew,7.0.11+dfsg-1
; #@! TF.FileFunction,MixedPlating,1,4
FMAT,2
INCH
; #@! TA.AperFunction,Plated,PTH,ViaDrill
T1C0.0130
; #@! TA.AperFunction,Plated,PTH,ComponentDrill
T2C0.0315
; #@! TA.AperFunction,Plated,PTH,ComponentDrill
T3C0.0394
; #@! TA.AperFunction,Plated,PTH,ComponentDrill
T4C0.0433
; #@! TA.AperFunction,Plated,PTH,ComponentDrill
T5C0.0669
; #@! TA.AperFunction,Plated,PTH,ComponentDrill
T6C0.1260
; #@! TA.AperFunction,NonPlated,NPTH,ComponentDrill
T7C0.1260
%
G90
G05
T1
X1.9464Y-0.6727
X1.9464Y-0.9727
X1.9464Y-3.5727
X1.9464Y-3.8727
X2.0031Y-2.8201
X2.0043Y-2.7661
X2.0464Y-0.6727
X2.0464Y-0.9727
X2.0464Y-1.2727
X2.0464Y-3.5727
X2.0464Y-3.8727
X2.1464Y-0.6727
X2.1464Y-0.9727
X2.1464Y-1.2727
X2.1464Y-1.3727
X2.1464Y-3.5727
X2.1464Y-3.8727
X2.1685Y-3.0
X2.1697Y-3.0472
X2.1768Y-3.2402
X2.1803Y-2.9004
X2.213Y-3.1555
X2.2464Y-1.3727
X2.2464Y-1.4727
X2.2464Y-2.0727
X2.2484Y-3.0378
X2.2756Y-3.0654
X2.3464Y-1.3727
X2.3464Y-1.4727
X2.3464Y-1.5727
X2.3464Y-2.0727
X2.4464Y-1.3727
X2.4464Y-1.4727
X2.4464Y-1.5727
X2.4464Y-1.6727
X2.4665Y-2.3866
X2.5043Y-2.3866
X2.5464Y-1.3727
X2.5464Y-1.6727
X2.5464Y-2.7727
X2.5464Y-2.8727
X2.5516Y-2.1646
X2.5531Y-2.111
X2.5752Y-2.302
X2.6236Y-2.3024
X2.6464Y-1.3727
X2.6464Y-1.6727
X2.6464Y-2.7727
X2.6464Y-2.8727
X2.6464Y-2.9727
X2.6508Y-2.0925
X2.6937Y-3.0949
X2.6953Y-3.0465
X2.6961Y-2.0909
X2.7464Y-1.3727
X2.7464Y-1.4727
X2.7464Y-1.5727
X2.7464Y-1.6727
X2.7464Y-2.9727
X2.7543Y-2.1965
X2.7547Y-2.226
X2.7854Y-2.3394
X2.8185Y-1.926
X2.8295Y-2.3394
X2.8464Y-1.3727
X2.8464Y-1.4727
X2.8464Y-1.5727
X2.8464Y-1.6727
X2.8464Y-2.4727
X2.8464Y-2.6727
X2.8636Y-2.095
X2.8724Y-1.9256
X2.8866Y-2.2177
X2.922Y-2.7354
X2.9417Y-2.789
X2.9429Y-2.2996
X2.9445Y-2.1634
X2.9464Y-1.3727
X2.9464Y-1.4727
X2.9464Y-1.5727
X2.9464Y-1.6727
X2.9464Y-1.8727
X2.9464Y-2.3727
X2.9464Y-2.4727
X2.9464Y-2.6727
X2.9839Y-2.0772
X3.0043Y-2.7362
X3.0291Y-2.2902
X3.0421Y-2.7882
X3.0464Y-1.3727
X3.0464Y-1.4727
X3.0464Y-1.5727
X3.0464Y-1.6727
X3.0465Y-2.0815
X3.0717Y-1.8906
X3.0945Y-2.1713
X3.1114Y-1.8902
X3.1464Y-1.3727
X3.1464Y-1.4727
X3.1464Y-1.5727
X3.1464Y-1.6727
X3.1464Y-1.7727
X3.1464Y-2.0727
X3.1464Y-2.1727
X3.1464Y-2.2727
X3.1464Y-2.3727
X3.1464Y-2.4727
X3.1464Y-2.6727
X3.1464Y-2.7727
X3.2264Y-2.5142
X3.2464Y-2.7727
X3.2464Y-2.8727
X3.2464Y-3.0727
X3.2862Y-2.5449
X3.3094Y-2.7961
X3.3098Y-2.5894
X3.3098Y-2.7657
X3.3102Y-2.7098
X3.324Y-2.4855
X3.4386Y-2.669
X3.4386Y-2.7174
X3.4464Y-2.7727
X3.4464Y-3.1727
X3.4854Y-2.613
X3.4886Y-2.5165
X3.5512Y-2.7323
X3.5516Y-2.6772
X3.5547Y-2.5453
X3.5551Y-2.5138
X3.6464Y-2.9727
X3.6744Y-2.6545
X3.6744Y-2.6988
X3.6744Y-2.7539
X3.6752Y-2.5394
X3.6752Y-2.5744
X3.7012Y-2.5067
X3.7551Y-2.502
X3.8464Y-2.4727
X3.8464Y-2.8727
X3.8791Y-2.7937
X3.9464Y-2.4727
X3.9464Y-3.0727
X4.0464Y-2.4727
X4.0464Y-2.5727
X4.0464Y-2.8727
X4.0464Y-3.0727
X4.0464Y-3.1727
X4.0469Y-2.75
X4.1464Y-2.4727
X4.1464Y-2.5727
X4.1464Y-2.6727
X4.1464Y-2.7727
X4.1464Y-2.8727
X4.1464Y-3.0727
X4.1464Y-3.1727
X4.2464Y-2.4727
X4.2464Y-2.5727
X4.2464Y-2.6727
X4.2464Y-2.7727
X4.2464Y-2.8727
X4.2464Y-3.0727
X4.2464Y-3.1727
X4.3464Y-2.4727
X4.3464Y-2.5727
X4.3464Y-2.6727
X4.3464Y-2.7727
X4.3464Y-2.9727
X4.3464Y-3.0727
X4.3464Y-3.1727
X4.4464Y-2.4727
X4.4464Y-2.5727
X4.4464Y-2.6727
X4.4464Y-2.7727
X4.4464Y-3.1727
X4.5464Y-2.4727
X4.5464Y-2.5727
X4.5464Y-3.0727
X4.5464Y-3.1727
X4.6464Y-2.4727
X4.6464Y-2.5727
X4.6464Y-2.6727
X4.6464Y-2.7727
X4.6464Y-3.1727
T2
X4.4276Y-3.0057
X4.5276Y-3.0057
X4.6276Y-3.0057
T3
X1.8262Y-1.0728
X1.8262Y-1.1728
X1.8262Y-1.2728
X1.8262Y-1.3728
X1.8262Y-1.4728
X1.8262Y-1.5728
X1.8262Y-1.6728
X1.8262Y-1.7728
X1.8262Y-1.8728
X1.8262Y-1.9728
X1.8262Y-2.0728
X1.8262Y-2.1728
X1.8262Y-2.2728
X1.8262Y-2.3728
X1.8262Y-2.4728
X1.8262Y-2.5728
X1.8262Y-2.6728
X1.8262Y-2.7728
X1.8262Y-2.8728
X1.8262Y-2.9728
X1.8262Y-3.0728
X1.8262Y-3.1728
X1.8262Y-3.2728
X1.8262Y-3.3728
X1.8262Y-3.4728
X1.9262Y-1.0728
X1.9262Y-1.1728
X1.9262Y-1.2728
X1.9262Y-1.3728
X1.9262Y-1.4728
X1.9262Y-1.5728
X1.9262Y-1.6728
X1.9262Y-1.7728
X1.9262Y-1.8728
X1.9262Y-1.9728
X1.9262Y-2.0728
X1.9262Y-2.1728
X1.9262Y-2.2728
X1.9262Y-2.3728
X1.9262Y-2.4728
X1.9262Y-2.5728
X1.9262Y-2.6728
X1.9262Y-2.7728
X1.9262Y-2.8728
X1.9262Y-2.9728
X1.9262Y-3.0728
X1.9262Y-3.1728
X1.9262Y-3.2728
X1.9262Y-3.3728
X1.9262Y-3.4728
X2.811Y-2.8972
X2.811Y-3.0972
X2.8559Y-2.9972
X2.9012Y-2.8972
X2.9012Y-3.0972
X2.9461Y-2.9972
X2.9913Y-2.8972
X2.9913Y-3.0972
X3.0362Y-2.9972
X3.0815Y-2.8972
X3.0815Y-3.0972
X3.1264Y-2.9972
X3.1717Y-2.8972
X3.1717Y-3.0972
X3.2165Y-2.9972
T4
X4.4276Y-3.1091
X4.6276Y-3.1091
T5
X1.8941Y-0.6024
X1.8941Y-0.8165
X1.8941Y-3.7291
X1.8941Y-3.9433
X2.0941Y-0.6024
X2.0941Y-0.8165
X2.0941Y-3.7291
X2.0941Y-3.9433
T6
X2.5094Y-2.9972
X2.5965Y-1.5102
X3.4937Y-2.9972
X3.7362Y-3.1469
T7
X2.0984Y-1.1417
X2.0984Y-3.4055
X4.5472Y-2.6878
T3
G00X3.9807Y-2.924
M15
G01X3.9413Y-2.924
M16
G05
G00X3.9807Y-3.1406
M15
G01X3.9413Y-3.1406
M16
G05
G00X4.0594Y-3.235
M15
G01X4.0201Y-3.235
M16
G05
M30
