%TF.GenerationSoftware,KiCad,Pcbnew,5.1.9+dfsg1-1*%
%TF.CreationDate,2021-08-04T00:34:55+03:00*%
%TF.ProjectId,extra_av_out,65787472-615f-4617-965f-6f75742e6b69,rev?*%
%TF.SameCoordinates,Original*%
%TF.FileFunction,Soldermask,Bot*%
%TF.FilePolarity,Negative*%
%FSLAX46Y46*%
G04 Gerber Fmt 4.6, Leading zero omitted, Abs format (unit mm)*
G04 Created by KiCad (PCBNEW 5.1.9+dfsg1-1) date 2021-08-04 00:34:55*
%MOMM*%
%LPD*%
G01*
G04 APERTURE LIST*
%ADD10O,2.800000X1.800000*%
%ADD11C,2.540000*%
%ADD12C,1.600000*%
%ADD13C,4.500000*%
%ADD14C,1.524000*%
%ADD15R,1.700000X1.700000*%
%ADD16O,1.700000X1.700000*%
%ADD17R,1.143000X0.635000*%
%ADD18R,0.635000X1.143000*%
G04 APERTURE END LIST*
D10*
%TO.C,J2*%
X101020000Y-86100000D03*
X99020000Y-83700000D03*
X99020000Y-78200000D03*
%TD*%
D11*
%TO.C,ST2*%
X53190000Y-94720000D03*
X53190000Y-100160000D03*
X48110000Y-94720000D03*
X48110000Y-100160000D03*
%TD*%
%TO.C,ST1*%
X53190000Y-15300000D03*
X53190000Y-20740000D03*
X48110000Y-15300000D03*
X48110000Y-20740000D03*
%TD*%
D12*
%TO.C,J4*%
X75330000Y-76060000D03*
X73040000Y-76060000D03*
X70750000Y-76060000D03*
X78770000Y-73520000D03*
X76480000Y-73520000D03*
X74190000Y-73520000D03*
X71900000Y-73520000D03*
X69610000Y-73520000D03*
X79910000Y-76060000D03*
X77620000Y-76060000D03*
X78770000Y-78600000D03*
X76480000Y-78600000D03*
X74190000Y-78600000D03*
X71900000Y-78600000D03*
X69610000Y-78600000D03*
D13*
X86950000Y-76060000D03*
X61950000Y-76060000D03*
%TD*%
D14*
%TO.C,J3*%
X117520000Y-79100000D03*
X114980000Y-79100000D03*
X112440000Y-79100000D03*
X112440000Y-81725000D03*
X117520000Y-81725000D03*
%TD*%
D15*
%TO.C,J1*%
X48925790Y-27248710D03*
D16*
X46385790Y-27248710D03*
X48925790Y-29788710D03*
X46385790Y-29788710D03*
X48925790Y-32328710D03*
X46385790Y-32328710D03*
X48925790Y-34868710D03*
X46385790Y-34868710D03*
X48925790Y-37408710D03*
X46385790Y-37408710D03*
X48925790Y-39948710D03*
X46385790Y-39948710D03*
X48925790Y-42488710D03*
X46385790Y-42488710D03*
X48925790Y-45028710D03*
X46385790Y-45028710D03*
X48925790Y-47568710D03*
X46385790Y-47568710D03*
X48925790Y-50108710D03*
X46385790Y-50108710D03*
X48925790Y-52648710D03*
X46385790Y-52648710D03*
X48925790Y-55188710D03*
X46385790Y-55188710D03*
X48925790Y-57728710D03*
X46385790Y-57728710D03*
X48925790Y-60268710D03*
X46385790Y-60268710D03*
X48925790Y-62808710D03*
X46385790Y-62808710D03*
X48925790Y-65348710D03*
X46385790Y-65348710D03*
X48925790Y-67888710D03*
X46385790Y-67888710D03*
X48925790Y-70428710D03*
X46385790Y-70428710D03*
X48925790Y-72968710D03*
X46385790Y-72968710D03*
X48925790Y-75508710D03*
X46385790Y-75508710D03*
X48925790Y-78048710D03*
X46385790Y-78048710D03*
X48925790Y-80588710D03*
X46385790Y-80588710D03*
X48925790Y-83128710D03*
X46385790Y-83128710D03*
X48925790Y-85668710D03*
X46385790Y-85668710D03*
X48925790Y-88208710D03*
X46385790Y-88208710D03*
%TD*%
D17*
%TO.C,C22*%
X58040000Y-77062000D03*
X58040000Y-75538000D03*
%TD*%
D18*
%TO.C,C21*%
X114302000Y-76700000D03*
X112778000Y-76700000D03*
%TD*%
%TO.C,C19*%
X69472000Y-58580000D03*
X67948000Y-58580000D03*
%TD*%
%TO.C,C18*%
X69482000Y-56940000D03*
X67958000Y-56940000D03*
%TD*%
%TO.C,C17*%
X69492000Y-53660000D03*
X67968000Y-53660000D03*
%TD*%
%TO.C,C16*%
X75112000Y-52890000D03*
X73588000Y-52890000D03*
%TD*%
%TO.C,C15*%
X69482000Y-55300000D03*
X67958000Y-55300000D03*
%TD*%
%TO.C,C14*%
X88092000Y-61940000D03*
X86568000Y-61940000D03*
%TD*%
%TO.C,C12*%
X96168000Y-57690000D03*
X97692000Y-57690000D03*
%TD*%
%TO.C,C10*%
X88082000Y-63560000D03*
X86558000Y-63560000D03*
%TD*%
D17*
%TO.C,C9*%
X98670000Y-63802000D03*
X98670000Y-62278000D03*
%TD*%
D18*
%TO.C,C8*%
X96168000Y-59340000D03*
X97692000Y-59340000D03*
%TD*%
D17*
%TO.C,C7*%
X96180000Y-61458000D03*
X96180000Y-62982000D03*
%TD*%
D18*
%TO.C,C6*%
X90568000Y-66240000D03*
X92092000Y-66240000D03*
%TD*%
%TO.C,C5*%
X90578000Y-64620000D03*
X92102000Y-64620000D03*
%TD*%
D17*
%TO.C,C4*%
X95600000Y-65648000D03*
X95600000Y-67172000D03*
%TD*%
%TO.C,C3*%
X97220000Y-65638000D03*
X97220000Y-67162000D03*
%TD*%
%TO.C,C2*%
X64420000Y-59642000D03*
X64420000Y-58118000D03*
%TD*%
%TO.C,C1*%
X62780000Y-59642000D03*
X62780000Y-58118000D03*
%TD*%
M02*
