%TF.GenerationSoftware,KiCad,Pcbnew,7.0.11+dfsg-1*%
%TF.CreationDate,2024-04-05T15:38:58+03:00*%
%TF.ProjectId,extra_av_out,65787472-615f-4617-965f-6f75742e6b69,rev?*%
%TF.SameCoordinates,Original*%
%TF.FileFunction,Copper,L2,Inr*%
%TF.FilePolarity,Positive*%
%FSLAX46Y46*%
G04 Gerber Fmt 4.6, Leading zero omitted, Abs format (unit mm)*
G04 Created by KiCad (PCBNEW 7.0.11+dfsg-1) date 2024-04-05 15:38:58*
%MOMM*%
%LPD*%
G01*
G04 APERTURE LIST*
%TA.AperFunction,ComponentPad*%
%ADD10C,1.524000*%
%TD*%
%TA.AperFunction,ComponentPad*%
%ADD11C,1.800000*%
%TD*%
%TA.AperFunction,ComponentPad*%
%ADD12R,1.700000X1.700000*%
%TD*%
%TA.AperFunction,ComponentPad*%
%ADD13O,1.700000X1.700000*%
%TD*%
%TA.AperFunction,ComponentPad*%
%ADD14C,1.600000*%
%TD*%
%TA.AperFunction,ComponentPad*%
%ADD15C,4.500000*%
%TD*%
%TA.AperFunction,ComponentPad*%
%ADD16C,2.540000*%
%TD*%
%TA.AperFunction,ComponentPad*%
%ADD17O,2.800000X1.800000*%
%TD*%
%TA.AperFunction,ComponentPad*%
%ADD18C,5.500000*%
%TD*%
%TA.AperFunction,ViaPad*%
%ADD19C,0.686000*%
%TD*%
G04 APERTURE END LIST*
D10*
%TO.N,/SPDIF*%
%TO.C,J3*%
X112460000Y-76345000D03*
%TO.N,/DVDD3v3*%
X115000000Y-76345000D03*
%TO.N,GND*%
X117540000Y-76345000D03*
D11*
%TO.N,N/C*%
X112460000Y-78970000D03*
X117540000Y-78970000D03*
%TD*%
D12*
%TO.N,unconnected-(J1-Pin_1-Pad1)*%
%TO.C,J1*%
X48925790Y-27248710D03*
D13*
%TO.N,unconnected-(J1-Pin_2-Pad2)*%
X46385790Y-27248710D03*
%TO.N,unconnected-(J1-Pin_3-Pad3)*%
X48925790Y-29788710D03*
%TO.N,unconnected-(J1-Pin_4-Pad4)*%
X46385790Y-29788710D03*
%TO.N,unconnected-(J1-Pin_5-Pad5)*%
X48925790Y-32328710D03*
%TO.N,unconnected-(J1-Pin_6-Pad6)*%
X46385790Y-32328710D03*
%TO.N,/VGA_PSAVE*%
X48925790Y-34868710D03*
%TO.N,/AUDIO_MUTE_N*%
X46385790Y-34868710D03*
%TO.N,/VGA_R1*%
X48925790Y-37408710D03*
%TO.N,/VGA_R0*%
X46385790Y-37408710D03*
%TO.N,/VGA_R3*%
X48925790Y-39948710D03*
%TO.N,/VGA_R2*%
X46385790Y-39948710D03*
%TO.N,/VGA_R5*%
X48925790Y-42488710D03*
%TO.N,/VGA_R4*%
X46385790Y-42488710D03*
%TO.N,/VGA_R7*%
X48925790Y-45028710D03*
%TO.N,/VGA_R6*%
X46385790Y-45028710D03*
%TO.N,/DVDD5*%
X48925790Y-47568710D03*
%TO.N,GND*%
X46385790Y-47568710D03*
%TO.N,/VGA_G1*%
X48925790Y-50108710D03*
%TO.N,/VGA_G0*%
X46385790Y-50108710D03*
%TO.N,/VGA_G3*%
X48925790Y-52648710D03*
%TO.N,/VGA_G2*%
X46385790Y-52648710D03*
%TO.N,/VGA_G5*%
X48925790Y-55188710D03*
%TO.N,/VGA_G4*%
X46385790Y-55188710D03*
%TO.N,/VGA_G7*%
X48925790Y-57728710D03*
%TO.N,/VGA_G6*%
X46385790Y-57728710D03*
%TO.N,/VGA_SOG*%
X48925790Y-60268710D03*
%TO.N,/VGA_BL_N*%
X46385790Y-60268710D03*
%TO.N,/VGA_B1*%
X48925790Y-62808710D03*
%TO.N,/VGA_B0*%
X46385790Y-62808710D03*
%TO.N,/VGA_B3*%
X48925790Y-65348710D03*
%TO.N,/VGA_B2*%
X46385790Y-65348710D03*
%TO.N,/VGA_B5*%
X48925790Y-67888710D03*
%TO.N,/VGA_B4*%
X46385790Y-67888710D03*
%TO.N,/DVDD3v3*%
X48925790Y-70428710D03*
%TO.N,GND*%
X46385790Y-70428710D03*
%TO.N,/VGA_B7*%
X48925790Y-72968710D03*
%TO.N,/VGA_B6*%
X46385790Y-72968710D03*
%TO.N,unconnected-(J1-Pin_39-Pad39)*%
X48925790Y-75508710D03*
%TO.N,/VGA_CLK*%
X46385790Y-75508710D03*
%TO.N,unconnected-(J1-Pin_41-Pad41)*%
X48925790Y-78048710D03*
%TO.N,/VGA_HS*%
X46385790Y-78048710D03*
%TO.N,/VGA_VS*%
X48925790Y-80588710D03*
%TO.N,unconnected-(J1-Pin_44-Pad44)*%
X46385790Y-80588710D03*
%TO.N,/I2S_BCK*%
X48925790Y-83128710D03*
%TO.N,/I2S_WS*%
X46385790Y-83128710D03*
%TO.N,/I2S_DATA*%
X48925790Y-85668710D03*
%TO.N,/SPDIF*%
X46385790Y-85668710D03*
%TO.N,/SDA*%
X48925790Y-88208710D03*
%TO.N,/SCL*%
X46385790Y-88208710D03*
%TD*%
D14*
%TO.N,/R_OUT*%
%TO.C,J4*%
X80560000Y-73590000D03*
%TO.N,/G_OUT*%
X78270000Y-73590000D03*
%TO.N,/B_OUT*%
X75980000Y-73590000D03*
%TO.N,/VGA_CS_75*%
X73690000Y-73590000D03*
%TO.N,GND*%
X71400000Y-73590000D03*
X81700000Y-76130000D03*
X79410000Y-76130000D03*
X77120000Y-76130000D03*
%TO.N,/DVDD5*%
X74830000Y-76130000D03*
D15*
%TO.N,GND*%
X63740000Y-76130000D03*
D14*
X72540000Y-76130000D03*
D15*
X88740000Y-76130000D03*
D14*
%TO.N,unconnected-(J4-ID0{slash}RES-Pad11)*%
X80560000Y-78670000D03*
%TO.N,unconnected-(J4-ID1{slash}SDA-Pad12)*%
X78270000Y-78670000D03*
%TO.N,/VGA_HS_TTL*%
X75980000Y-78670000D03*
%TO.N,/VGA_VS_TTL*%
X73690000Y-78670000D03*
%TO.N,unconnected-(J4-ID3{slash}SCL-Pad15)*%
X71400000Y-78670000D03*
%TD*%
D16*
%TO.N,GND*%
%TO.C,ST1*%
X53190000Y-15300000D03*
X48110000Y-15300000D03*
X53190000Y-20740000D03*
X48110000Y-20740000D03*
%TD*%
%TO.N,GND*%
%TO.C,ST2*%
X53190000Y-94720000D03*
X48110000Y-94720000D03*
X53190000Y-100160000D03*
X48110000Y-100160000D03*
%TD*%
D17*
%TO.N,/AR_OUT*%
%TO.C,J2*%
X100610000Y-74270000D03*
%TO.N,GND*%
X102610000Y-82170000D03*
%TO.N,/AL_OUT*%
X100610000Y-79770000D03*
%TD*%
D18*
%TO.N,N/C*%
%TO.C,MH4*%
X94900000Y-79930000D03*
%TD*%
%TO.N,N/C*%
%TO.C,MH5*%
X65950000Y-38360000D03*
%TD*%
D19*
%TO.N,GND*%
X49438408Y-98366427D03*
X74838408Y-47566427D03*
X74750000Y-58410000D03*
X62138408Y-37406427D03*
X88610000Y-63920000D03*
X90300000Y-63850000D03*
X68480000Y-53110000D03*
X79918408Y-55186427D03*
X90210000Y-68000000D03*
X59598408Y-34866427D03*
X74838408Y-60266427D03*
X72960000Y-48910000D03*
X110398408Y-62806427D03*
X72298408Y-42486427D03*
X54518408Y-98366427D03*
X64810000Y-54980000D03*
X107858408Y-80586427D03*
X74838408Y-39946427D03*
X105318408Y-67886427D03*
X115478408Y-80586427D03*
X72298408Y-37406427D03*
X55080000Y-76200000D03*
X69758408Y-34866427D03*
X54518408Y-90746427D03*
X54518408Y-17086427D03*
X72298408Y-62806427D03*
X72298408Y-39946427D03*
X79918408Y-42486427D03*
X49438408Y-24706427D03*
X74838408Y-37406427D03*
X72298408Y-34866427D03*
X69758408Y-39946427D03*
X97698408Y-72966427D03*
X64678408Y-72966427D03*
X102778408Y-65346427D03*
X57058408Y-52646427D03*
X69758408Y-42486427D03*
X97698408Y-62806427D03*
X51978408Y-98366427D03*
X51978408Y-90746427D03*
X102778408Y-62806427D03*
X71870000Y-59420000D03*
X79918408Y-60266427D03*
X110398408Y-75506427D03*
X70750000Y-59420000D03*
X69758408Y-75506427D03*
X67330000Y-53150000D03*
X112938408Y-65346427D03*
X87340000Y-67792000D03*
X112938408Y-62806427D03*
X87538408Y-70426427D03*
X118018408Y-67886427D03*
X74838408Y-67886427D03*
X57058408Y-34866427D03*
X62138408Y-42486427D03*
X72298408Y-67886427D03*
X76940000Y-58170000D03*
X64678408Y-34866427D03*
X71590000Y-48920000D03*
X105318408Y-80586427D03*
X73320000Y-56330000D03*
X51978408Y-17086427D03*
X74838408Y-62806427D03*
X49438408Y-90746427D03*
X90290000Y-64650000D03*
X87340000Y-69022000D03*
X54518408Y-24706427D03*
X67218408Y-75506427D03*
X112938408Y-80586427D03*
X110398408Y-70426427D03*
X59598408Y-39946427D03*
X110398408Y-67886427D03*
X88530000Y-66370000D03*
X79918408Y-39946427D03*
X118018408Y-80586427D03*
X115478408Y-65346427D03*
X118018408Y-62806427D03*
X77378408Y-37406427D03*
X105318408Y-70426427D03*
X62138408Y-34866427D03*
X79918408Y-34866427D03*
X66640000Y-58480000D03*
X107858408Y-70426427D03*
X79918408Y-70426427D03*
X110398408Y-80586427D03*
X54518408Y-32326427D03*
X49438408Y-17086427D03*
X79918408Y-37406427D03*
X51978408Y-32326427D03*
X67218408Y-70426427D03*
X105318408Y-78046427D03*
X64678408Y-70426427D03*
X118018408Y-70426427D03*
X107858408Y-67886427D03*
X105318408Y-62806427D03*
X115478408Y-62806427D03*
X74838408Y-34866427D03*
X74838408Y-42486427D03*
X110398408Y-78046427D03*
X112938408Y-70426427D03*
X79918408Y-52646427D03*
X82458408Y-78046427D03*
X79918408Y-57726427D03*
X110398408Y-65346427D03*
X82458408Y-72966427D03*
X67218408Y-42486427D03*
X59598408Y-37406427D03*
X54518408Y-34866427D03*
X100238408Y-62806427D03*
X105318408Y-65346427D03*
X107858408Y-65346427D03*
X59598408Y-52646427D03*
X79918408Y-62806427D03*
X107858408Y-78046427D03*
X62138408Y-39946427D03*
X69758408Y-37406427D03*
X78600000Y-55150000D03*
X102790000Y-69850000D03*
X118018408Y-65346427D03*
X105318408Y-72966427D03*
X77378408Y-39946427D03*
X55110000Y-77400000D03*
X115478408Y-78046427D03*
X102778408Y-78046427D03*
X102778408Y-80586427D03*
X79918408Y-67886427D03*
X51978408Y-24706427D03*
X112938408Y-67886427D03*
X102778408Y-72966427D03*
X74720000Y-70840000D03*
X100238408Y-78046427D03*
X107858408Y-62806427D03*
X67218408Y-34866427D03*
X77380000Y-52870000D03*
X57058408Y-37406427D03*
X77378408Y-34866427D03*
X65410000Y-58470000D03*
X77378408Y-42486427D03*
X79918408Y-45026427D03*
X64850000Y-53620000D03*
X74790000Y-54950000D03*
X87538408Y-80586427D03*
X67218408Y-72966427D03*
X64678408Y-42486427D03*
X68420000Y-78610000D03*
X82458408Y-70426427D03*
X107858408Y-72966427D03*
X92618408Y-75506427D03*
%TO.N,/DVDD3v3*%
X93330000Y-69950000D03*
X84430000Y-63132000D03*
X93350000Y-64500000D03*
X50910000Y-70260000D03*
X93350000Y-65390000D03*
X69970000Y-56540000D03*
X50880000Y-71630000D03*
X69960000Y-55790000D03*
X79030000Y-48010000D03*
X63610000Y-60620000D03*
X62650000Y-60620000D03*
X84070000Y-70250000D03*
X78020000Y-48020000D03*
X84060000Y-71020000D03*
X75790000Y-52760000D03*
%TO.N,Net-(U2-VNEG)*%
X93330000Y-67424500D03*
%TO.N,Net-(U2-CAPP)*%
X90200000Y-69400000D03*
%TO.N,Net-(U2-CAPM)*%
X93330000Y-68550000D03*
%TO.N,Net-(U2-LDOO)*%
X84080000Y-68830000D03*
%TO.N,/AL_OUT*%
X98530000Y-70960000D03*
%TO.N,Net-(U1-COMP)*%
X72736508Y-53212669D03*
%TO.N,/DVDD5*%
X57110000Y-77160000D03*
X57800000Y-77860000D03*
%TO.N,/I2S_DATA*%
X84070000Y-65770000D03*
%TO.N,/I2S_WS*%
X81950000Y-63860000D03*
%TO.N,/I2S_BCK*%
X83470000Y-64640000D03*
%TO.N,/VGA_HS*%
X55380000Y-73670000D03*
%TO.N,/VGA_HS_TTL*%
X68460000Y-77380000D03*
%TO.N,/B_OUT*%
X74220000Y-69480000D03*
%TO.N,/G_OUT*%
X76310000Y-69500000D03*
%TO.N,/R_OUT*%
X77270000Y-70820000D03*
%TO.N,/SCL_F*%
X55290000Y-82300000D03*
X95380000Y-63550000D03*
%TO.N,/SDA_F*%
X56210000Y-80150000D03*
X94010000Y-63670000D03*
%TD*%
%TA.AperFunction,Conductor*%
%TO.N,GND*%
G36*
X57156621Y-13715502D02*
G01*
X57203114Y-13769158D01*
X57214500Y-13821500D01*
X57214500Y-32449867D01*
X57212398Y-32460435D01*
X57212399Y-32479999D01*
X57214498Y-32485067D01*
X57214499Y-32485072D01*
X57214500Y-32485072D01*
X57220483Y-32499517D01*
X57240000Y-32507601D01*
X57259575Y-32507601D01*
X57270137Y-32505500D01*
X81348500Y-32505500D01*
X81416621Y-32525502D01*
X81463114Y-32579158D01*
X81474500Y-32631500D01*
X81474500Y-59469867D01*
X81472398Y-59480435D01*
X81472399Y-59499999D01*
X81474498Y-59505067D01*
X81474499Y-59505072D01*
X81474500Y-59505072D01*
X81480483Y-59519517D01*
X81500000Y-59527601D01*
X81519575Y-59527601D01*
X81530137Y-59525500D01*
X119688500Y-59525500D01*
X119756621Y-59545502D01*
X119803114Y-59599158D01*
X119814500Y-59651500D01*
X119814500Y-83348500D01*
X119794498Y-83416621D01*
X119740842Y-83463114D01*
X119688500Y-83474500D01*
X57270136Y-83474500D01*
X57259574Y-83472399D01*
X57239998Y-83472399D01*
X57234931Y-83474498D01*
X57234928Y-83474500D01*
X57220482Y-83480483D01*
X57212399Y-83499999D01*
X57212399Y-83519575D01*
X57214500Y-83530136D01*
X57214500Y-101598500D01*
X57194498Y-101666621D01*
X57140842Y-101713114D01*
X57088500Y-101724500D01*
X46651500Y-101724500D01*
X46583379Y-101704498D01*
X46536886Y-101650842D01*
X46525500Y-101598500D01*
X46525500Y-91530136D01*
X46527601Y-91519575D01*
X46527601Y-91499999D01*
X46519517Y-91480483D01*
X46505072Y-91474500D01*
X46505072Y-91474499D01*
X46505067Y-91474498D01*
X46500000Y-91472399D01*
X46480426Y-91472399D01*
X46469864Y-91474500D01*
X43651500Y-91474500D01*
X43583379Y-91454498D01*
X43536886Y-91400842D01*
X43525500Y-91348500D01*
X43525500Y-88208710D01*
X45280575Y-88208710D01*
X45299393Y-88411794D01*
X45355206Y-88607955D01*
X45355207Y-88607957D01*
X45355208Y-88607960D01*
X45446117Y-88790531D01*
X45446118Y-88790532D01*
X45446119Y-88790534D01*
X45569024Y-88953288D01*
X45719749Y-89090691D01*
X45719750Y-89090692D01*
X45893141Y-89198051D01*
X45893144Y-89198052D01*
X45893153Y-89198058D01*
X46083334Y-89271734D01*
X46283814Y-89309210D01*
X46283816Y-89309210D01*
X46487764Y-89309210D01*
X46487766Y-89309210D01*
X46688246Y-89271734D01*
X46878427Y-89198058D01*
X47051831Y-89090691D01*
X47202554Y-88953289D01*
X47325463Y-88790531D01*
X47416372Y-88607960D01*
X47472187Y-88411793D01*
X47491005Y-88208710D01*
X47820575Y-88208710D01*
X47839393Y-88411794D01*
X47895206Y-88607955D01*
X47895207Y-88607957D01*
X47895208Y-88607960D01*
X47986117Y-88790531D01*
X47986118Y-88790532D01*
X47986119Y-88790534D01*
X48109024Y-88953288D01*
X48259749Y-89090691D01*
X48259750Y-89090692D01*
X48433141Y-89198051D01*
X48433144Y-89198052D01*
X48433153Y-89198058D01*
X48623334Y-89271734D01*
X48823814Y-89309210D01*
X48823816Y-89309210D01*
X49027764Y-89309210D01*
X49027766Y-89309210D01*
X49228246Y-89271734D01*
X49418427Y-89198058D01*
X49591831Y-89090691D01*
X49742554Y-88953289D01*
X49865463Y-88790531D01*
X49956372Y-88607960D01*
X50012187Y-88411793D01*
X50031005Y-88208710D01*
X50012187Y-88005627D01*
X49956372Y-87809460D01*
X49865463Y-87626889D01*
X49829760Y-87579610D01*
X49742555Y-87464131D01*
X49591830Y-87326728D01*
X49591829Y-87326727D01*
X49418438Y-87219368D01*
X49418431Y-87219364D01*
X49418427Y-87219362D01*
X49301923Y-87174228D01*
X49228247Y-87145686D01*
X49161419Y-87133194D01*
X49027766Y-87108210D01*
X48823814Y-87108210D01*
X48723574Y-87126948D01*
X48623332Y-87145686D01*
X48475980Y-87202770D01*
X48433153Y-87219362D01*
X48433152Y-87219362D01*
X48433151Y-87219363D01*
X48433141Y-87219368D01*
X48259750Y-87326727D01*
X48259749Y-87326728D01*
X48109024Y-87464131D01*
X47986119Y-87626885D01*
X47895206Y-87809464D01*
X47839393Y-88005625D01*
X47820575Y-88208710D01*
X47491005Y-88208710D01*
X47472187Y-88005627D01*
X47416372Y-87809460D01*
X47325463Y-87626889D01*
X47289760Y-87579610D01*
X47202555Y-87464131D01*
X47051830Y-87326728D01*
X47051829Y-87326727D01*
X46878438Y-87219368D01*
X46878431Y-87219364D01*
X46878427Y-87219362D01*
X46761923Y-87174228D01*
X46688247Y-87145686D01*
X46621419Y-87133194D01*
X46487766Y-87108210D01*
X46283814Y-87108210D01*
X46183574Y-87126948D01*
X46083332Y-87145686D01*
X45935980Y-87202770D01*
X45893153Y-87219362D01*
X45893152Y-87219362D01*
X45893151Y-87219363D01*
X45893141Y-87219368D01*
X45719750Y-87326727D01*
X45719749Y-87326728D01*
X45569024Y-87464131D01*
X45446119Y-87626885D01*
X45355206Y-87809464D01*
X45299393Y-88005625D01*
X45280575Y-88208710D01*
X43525500Y-88208710D01*
X43525500Y-85668710D01*
X45280575Y-85668710D01*
X45299393Y-85871794D01*
X45355206Y-86067955D01*
X45355207Y-86067957D01*
X45355208Y-86067960D01*
X45446117Y-86250531D01*
X45446118Y-86250532D01*
X45446119Y-86250534D01*
X45569024Y-86413288D01*
X45719749Y-86550691D01*
X45719750Y-86550692D01*
X45893141Y-86658051D01*
X45893144Y-86658052D01*
X45893153Y-86658058D01*
X46083334Y-86731734D01*
X46283814Y-86769210D01*
X46283816Y-86769210D01*
X46487764Y-86769210D01*
X46487766Y-86769210D01*
X46688246Y-86731734D01*
X46878427Y-86658058D01*
X47051831Y-86550691D01*
X47202554Y-86413289D01*
X47325463Y-86250531D01*
X47416372Y-86067960D01*
X47472187Y-85871793D01*
X47491005Y-85668710D01*
X47820575Y-85668710D01*
X47839393Y-85871794D01*
X47895206Y-86067955D01*
X47895207Y-86067957D01*
X47895208Y-86067960D01*
X47986117Y-86250531D01*
X47986118Y-86250532D01*
X47986119Y-86250534D01*
X48109024Y-86413288D01*
X48259749Y-86550691D01*
X48259750Y-86550692D01*
X48433141Y-86658051D01*
X48433144Y-86658052D01*
X48433153Y-86658058D01*
X48623334Y-86731734D01*
X48823814Y-86769210D01*
X48823816Y-86769210D01*
X49027764Y-86769210D01*
X49027766Y-86769210D01*
X49228246Y-86731734D01*
X49418427Y-86658058D01*
X49564255Y-86567765D01*
X51445788Y-86567765D01*
X51475412Y-86837014D01*
X51543928Y-87099090D01*
X51649869Y-87348389D01*
X51649870Y-87348390D01*
X51790982Y-87579610D01*
X51964255Y-87787820D01*
X51964257Y-87787822D01*
X51964259Y-87787824D01*
X51988411Y-87809464D01*
X52165998Y-87968582D01*
X52391910Y-88118044D01*
X52637176Y-88233020D01*
X52896569Y-88311060D01*
X52896572Y-88311060D01*
X52896574Y-88311061D01*
X53164557Y-88350500D01*
X53164561Y-88350500D01*
X53367631Y-88350500D01*
X53570156Y-88335677D01*
X53570160Y-88335676D01*
X53570161Y-88335676D01*
X53680665Y-88311060D01*
X53834553Y-88276780D01*
X54087558Y-88180014D01*
X54323777Y-88047441D01*
X54538177Y-87881888D01*
X54726186Y-87686881D01*
X54883799Y-87466579D01*
X55007656Y-87225675D01*
X55095118Y-86969305D01*
X55132077Y-86769210D01*
X55144318Y-86702941D01*
X55144319Y-86702930D01*
X55145959Y-86658051D01*
X55154212Y-86432235D01*
X55139338Y-86297058D01*
X55124587Y-86162985D01*
X55056071Y-85900909D01*
X54950130Y-85651610D01*
X54809018Y-85420390D01*
X54635745Y-85212180D01*
X54635741Y-85212177D01*
X54635740Y-85212175D01*
X54434012Y-85031427D01*
X54434002Y-85031418D01*
X54208090Y-84881956D01*
X53962824Y-84766980D01*
X53805392Y-84719615D01*
X53703425Y-84688938D01*
X53435442Y-84649500D01*
X53435439Y-84649500D01*
X53232369Y-84649500D01*
X53029839Y-84664323D01*
X53029838Y-84664323D01*
X52765456Y-84723217D01*
X52765441Y-84723222D01*
X52512441Y-84819986D01*
X52276229Y-84952555D01*
X52276225Y-84952557D01*
X52061818Y-85118116D01*
X51873815Y-85313117D01*
X51873810Y-85313123D01*
X51716203Y-85533417D01*
X51716196Y-85533427D01*
X51592343Y-85774324D01*
X51592342Y-85774327D01*
X51504883Y-86030689D01*
X51504880Y-86030702D01*
X51455681Y-86297058D01*
X51455680Y-86297069D01*
X51445788Y-86567765D01*
X49564255Y-86567765D01*
X49591831Y-86550691D01*
X49742554Y-86413289D01*
X49865463Y-86250531D01*
X49956372Y-86067960D01*
X50012187Y-85871793D01*
X50031005Y-85668710D01*
X50012187Y-85465627D01*
X49956372Y-85269460D01*
X49865463Y-85086889D01*
X49823580Y-85031427D01*
X49742555Y-84924131D01*
X49591830Y-84786728D01*
X49591829Y-84786727D01*
X49418438Y-84679368D01*
X49418431Y-84679364D01*
X49418427Y-84679362D01*
X49301923Y-84634228D01*
X49228247Y-84605686D01*
X49161419Y-84593194D01*
X49027766Y-84568210D01*
X48823814Y-84568210D01*
X48723574Y-84586948D01*
X48623332Y-84605686D01*
X48510236Y-84649500D01*
X48433153Y-84679362D01*
X48433152Y-84679362D01*
X48433151Y-84679363D01*
X48433141Y-84679368D01*
X48259750Y-84786727D01*
X48259749Y-84786728D01*
X48109024Y-84924131D01*
X47986119Y-85086885D01*
X47895206Y-85269464D01*
X47839393Y-85465625D01*
X47820575Y-85668710D01*
X47491005Y-85668710D01*
X47472187Y-85465627D01*
X47416372Y-85269460D01*
X47325463Y-85086889D01*
X47283580Y-85031427D01*
X47202555Y-84924131D01*
X47051830Y-84786728D01*
X47051829Y-84786727D01*
X46878438Y-84679368D01*
X46878431Y-84679364D01*
X46878427Y-84679362D01*
X46761923Y-84634228D01*
X46688247Y-84605686D01*
X46621419Y-84593194D01*
X46487766Y-84568210D01*
X46283814Y-84568210D01*
X46183574Y-84586948D01*
X46083332Y-84605686D01*
X45970236Y-84649500D01*
X45893153Y-84679362D01*
X45893152Y-84679362D01*
X45893151Y-84679363D01*
X45893141Y-84679368D01*
X45719750Y-84786727D01*
X45719749Y-84786728D01*
X45569024Y-84924131D01*
X45446119Y-85086885D01*
X45355206Y-85269464D01*
X45299393Y-85465625D01*
X45280575Y-85668710D01*
X43525500Y-85668710D01*
X43525500Y-83128710D01*
X45280575Y-83128710D01*
X45299393Y-83331794D01*
X45355206Y-83527955D01*
X45355207Y-83527957D01*
X45355208Y-83527960D01*
X45446117Y-83710531D01*
X45446118Y-83710532D01*
X45446119Y-83710534D01*
X45569024Y-83873288D01*
X45719749Y-84010691D01*
X45719750Y-84010692D01*
X45893141Y-84118051D01*
X45893144Y-84118052D01*
X45893153Y-84118058D01*
X46083334Y-84191734D01*
X46283814Y-84229210D01*
X46283816Y-84229210D01*
X46487764Y-84229210D01*
X46487766Y-84229210D01*
X46688246Y-84191734D01*
X46878427Y-84118058D01*
X47051831Y-84010691D01*
X47202554Y-83873289D01*
X47325463Y-83710531D01*
X47416372Y-83527960D01*
X47472187Y-83331793D01*
X47491005Y-83128710D01*
X47820575Y-83128710D01*
X47839393Y-83331794D01*
X47895206Y-83527955D01*
X47895207Y-83527957D01*
X47895208Y-83527960D01*
X47986117Y-83710531D01*
X47986118Y-83710532D01*
X47986119Y-83710534D01*
X48109024Y-83873288D01*
X48259749Y-84010691D01*
X48259750Y-84010692D01*
X48433141Y-84118051D01*
X48433144Y-84118052D01*
X48433153Y-84118058D01*
X48623334Y-84191734D01*
X48823814Y-84229210D01*
X48823816Y-84229210D01*
X49027764Y-84229210D01*
X49027766Y-84229210D01*
X49228246Y-84191734D01*
X49418427Y-84118058D01*
X49591831Y-84010691D01*
X49742554Y-83873289D01*
X49865463Y-83710531D01*
X49956372Y-83527960D01*
X50012187Y-83331793D01*
X50031005Y-83128710D01*
X50012187Y-82925627D01*
X49956372Y-82729460D01*
X49865463Y-82546889D01*
X49796023Y-82454935D01*
X49742555Y-82384131D01*
X49650267Y-82300000D01*
X54691379Y-82300000D01*
X54711777Y-82454935D01*
X54771577Y-82599310D01*
X54866710Y-82723289D01*
X54990689Y-82818422D01*
X55081731Y-82856131D01*
X55135065Y-82878223D01*
X55290000Y-82898621D01*
X55444935Y-82878223D01*
X55535977Y-82840512D01*
X55589310Y-82818422D01*
X55713289Y-82723289D01*
X55808422Y-82599310D01*
X55835926Y-82532908D01*
X55868223Y-82454935D01*
X55888621Y-82300000D01*
X55881607Y-82246728D01*
X55868223Y-82145066D01*
X55865861Y-82139362D01*
X55808421Y-82000690D01*
X55713289Y-81876711D01*
X55713287Y-81876709D01*
X55713286Y-81876708D01*
X55589310Y-81781577D01*
X55444935Y-81721777D01*
X55290000Y-81701379D01*
X55135066Y-81721776D01*
X54990691Y-81781578D01*
X54990688Y-81781580D01*
X54866711Y-81876711D01*
X54771580Y-82000688D01*
X54771578Y-82000691D01*
X54711776Y-82145066D01*
X54691379Y-82299999D01*
X54691379Y-82300000D01*
X49650267Y-82300000D01*
X49591830Y-82246728D01*
X49591829Y-82246727D01*
X49418438Y-82139368D01*
X49418431Y-82139364D01*
X49418427Y-82139362D01*
X49301923Y-82094228D01*
X49228247Y-82065686D01*
X49161419Y-82053194D01*
X49027766Y-82028210D01*
X48823814Y-82028210D01*
X48723574Y-82046948D01*
X48623332Y-82065686D01*
X48475980Y-82122770D01*
X48433153Y-82139362D01*
X48433152Y-82139362D01*
X48433151Y-82139363D01*
X48433141Y-82139368D01*
X48259750Y-82246727D01*
X48259749Y-82246728D01*
X48109024Y-82384131D01*
X47986119Y-82546885D01*
X47895206Y-82729464D01*
X47839393Y-82925625D01*
X47820575Y-83128710D01*
X47491005Y-83128710D01*
X47472187Y-82925627D01*
X47416372Y-82729460D01*
X47325463Y-82546889D01*
X47256023Y-82454935D01*
X47202555Y-82384131D01*
X47051830Y-82246728D01*
X47051829Y-82246727D01*
X46878438Y-82139368D01*
X46878431Y-82139364D01*
X46878427Y-82139362D01*
X46761923Y-82094228D01*
X46688247Y-82065686D01*
X46621419Y-82053194D01*
X46487766Y-82028210D01*
X46283814Y-82028210D01*
X46183574Y-82046948D01*
X46083332Y-82065686D01*
X45935980Y-82122770D01*
X45893153Y-82139362D01*
X45893152Y-82139362D01*
X45893151Y-82139363D01*
X45893141Y-82139368D01*
X45719750Y-82246727D01*
X45719749Y-82246728D01*
X45569024Y-82384131D01*
X45446119Y-82546885D01*
X45355206Y-82729464D01*
X45299393Y-82925625D01*
X45280575Y-83128710D01*
X43525500Y-83128710D01*
X43525500Y-80588710D01*
X45280575Y-80588710D01*
X45299393Y-80791794D01*
X45355206Y-80987955D01*
X45355207Y-80987957D01*
X45355208Y-80987960D01*
X45446117Y-81170531D01*
X45446118Y-81170532D01*
X45446119Y-81170534D01*
X45569024Y-81333288D01*
X45719749Y-81470691D01*
X45719750Y-81470692D01*
X45893141Y-81578051D01*
X45893144Y-81578052D01*
X45893153Y-81578058D01*
X46083334Y-81651734D01*
X46283814Y-81689210D01*
X46283816Y-81689210D01*
X46487764Y-81689210D01*
X46487766Y-81689210D01*
X46688246Y-81651734D01*
X46878427Y-81578058D01*
X47051831Y-81470691D01*
X47202554Y-81333289D01*
X47325463Y-81170531D01*
X47416372Y-80987960D01*
X47472187Y-80791793D01*
X47491005Y-80588710D01*
X47820575Y-80588710D01*
X47839393Y-80791794D01*
X47895206Y-80987955D01*
X47895207Y-80987957D01*
X47895208Y-80987960D01*
X47986117Y-81170531D01*
X47986118Y-81170532D01*
X47986119Y-81170534D01*
X48109024Y-81333288D01*
X48259749Y-81470691D01*
X48259750Y-81470692D01*
X48433141Y-81578051D01*
X48433144Y-81578052D01*
X48433153Y-81578058D01*
X48623334Y-81651734D01*
X48823814Y-81689210D01*
X48823816Y-81689210D01*
X49027764Y-81689210D01*
X49027766Y-81689210D01*
X49228246Y-81651734D01*
X49418427Y-81578058D01*
X49591831Y-81470691D01*
X49742554Y-81333289D01*
X49865463Y-81170531D01*
X49956372Y-80987960D01*
X50012187Y-80791793D01*
X50031005Y-80588710D01*
X50012187Y-80385627D01*
X49956372Y-80189460D01*
X49936723Y-80150000D01*
X55611379Y-80150000D01*
X55631777Y-80304935D01*
X55691577Y-80449310D01*
X55786710Y-80573289D01*
X55910689Y-80668422D01*
X56001731Y-80706131D01*
X56055065Y-80728223D01*
X56210000Y-80748621D01*
X56364935Y-80728223D01*
X56455977Y-80690512D01*
X56509310Y-80668422D01*
X56633289Y-80573289D01*
X56728422Y-80449310D01*
X56750512Y-80395977D01*
X56788223Y-80304935D01*
X56808621Y-80150000D01*
X56788223Y-79995065D01*
X56761272Y-79930000D01*
X91894415Y-79930000D01*
X91907228Y-80149999D01*
X91914738Y-80278927D01*
X91975431Y-80623136D01*
X92075674Y-80957971D01*
X92075676Y-80957977D01*
X92075677Y-80957978D01*
X92214109Y-81278901D01*
X92214112Y-81278906D01*
X92245510Y-81333289D01*
X92388870Y-81581596D01*
X92597588Y-81861953D01*
X92789800Y-82065686D01*
X92837445Y-82116186D01*
X93105193Y-82340852D01*
X93397199Y-82532908D01*
X93397207Y-82532913D01*
X93709549Y-82689777D01*
X93873769Y-82749548D01*
X94037980Y-82809316D01*
X94037981Y-82809316D01*
X94037989Y-82809319D01*
X94378086Y-82889923D01*
X94576460Y-82913109D01*
X94725238Y-82930500D01*
X94725241Y-82930500D01*
X95074762Y-82930500D01*
X95204942Y-82915283D01*
X95421914Y-82889923D01*
X95762011Y-82809319D01*
X96090451Y-82689777D01*
X96402793Y-82532913D01*
X96694811Y-82340849D01*
X96962558Y-82116183D01*
X97202412Y-81861953D01*
X97411130Y-81581596D01*
X97585889Y-81278904D01*
X97724326Y-80957971D01*
X97824569Y-80623136D01*
X97885262Y-80278927D01*
X97905585Y-79930000D01*
X97902475Y-79876610D01*
X98959500Y-79876610D01*
X98990843Y-80044280D01*
X98998679Y-80086199D01*
X99023395Y-80149999D01*
X99075702Y-80285019D01*
X99075703Y-80285020D01*
X99075705Y-80285025D01*
X99187945Y-80466298D01*
X99187946Y-80466300D01*
X99187948Y-80466302D01*
X99331593Y-80623872D01*
X99501745Y-80752366D01*
X99692611Y-80847405D01*
X99897690Y-80905756D01*
X100056806Y-80920500D01*
X100056813Y-80920500D01*
X101163187Y-80920500D01*
X101163194Y-80920500D01*
X101322310Y-80905756D01*
X101527389Y-80847405D01*
X101718255Y-80752366D01*
X101888407Y-80623872D01*
X102032052Y-80466302D01*
X102144298Y-80285019D01*
X102221321Y-80086198D01*
X102260500Y-79876610D01*
X102260500Y-79663390D01*
X102221321Y-79453802D01*
X102144298Y-79254981D01*
X102133080Y-79236864D01*
X102032054Y-79073701D01*
X102032053Y-79073699D01*
X101937518Y-78970000D01*
X111304571Y-78970000D01*
X111324244Y-79182311D01*
X111382593Y-79387384D01*
X111382594Y-79387386D01*
X111382595Y-79387389D01*
X111477634Y-79578255D01*
X111574654Y-79706729D01*
X111606129Y-79748408D01*
X111763699Y-79892053D01*
X111763701Y-79892054D01*
X111944974Y-80004294D01*
X111944975Y-80004294D01*
X111944981Y-80004298D01*
X112143802Y-80081321D01*
X112353390Y-80120500D01*
X112353393Y-80120500D01*
X112566607Y-80120500D01*
X112566610Y-80120500D01*
X112776198Y-80081321D01*
X112975019Y-80004298D01*
X113156302Y-79892052D01*
X113313872Y-79748407D01*
X113442366Y-79578255D01*
X113537405Y-79387389D01*
X113595756Y-79182310D01*
X113615429Y-78970000D01*
X116384571Y-78970000D01*
X116404244Y-79182311D01*
X116462593Y-79387384D01*
X116462594Y-79387386D01*
X116462595Y-79387389D01*
X116557634Y-79578255D01*
X116654654Y-79706729D01*
X116686129Y-79748408D01*
X116843699Y-79892053D01*
X116843701Y-79892054D01*
X117024974Y-80004294D01*
X117024975Y-80004294D01*
X117024981Y-80004298D01*
X117223802Y-80081321D01*
X117433390Y-80120500D01*
X117433393Y-80120500D01*
X117646607Y-80120500D01*
X117646610Y-80120500D01*
X117856198Y-80081321D01*
X118055019Y-80004298D01*
X118236302Y-79892052D01*
X118393872Y-79748407D01*
X118522366Y-79578255D01*
X118617405Y-79387389D01*
X118675756Y-79182310D01*
X118695429Y-78970000D01*
X118675756Y-78757690D01*
X118617405Y-78552611D01*
X118522366Y-78361745D01*
X118393872Y-78191593D01*
X118358460Y-78159310D01*
X118236300Y-78047946D01*
X118236298Y-78047945D01*
X118055025Y-77935705D01*
X118055021Y-77935703D01*
X118055019Y-77935702D01*
X117933222Y-77888517D01*
X117856199Y-77858679D01*
X117786376Y-77845627D01*
X117646610Y-77819500D01*
X117433390Y-77819500D01*
X117307637Y-77843007D01*
X117223800Y-77858679D01*
X117069754Y-77918356D01*
X117024981Y-77935702D01*
X117024980Y-77935702D01*
X117024979Y-77935703D01*
X117024974Y-77935705D01*
X116843701Y-78047945D01*
X116843699Y-78047946D01*
X116686129Y-78191591D01*
X116620571Y-78278404D01*
X116557634Y-78361745D01*
X116506685Y-78464066D01*
X116462593Y-78552615D01*
X116404244Y-78757688D01*
X116384571Y-78970000D01*
X113615429Y-78970000D01*
X113595756Y-78757690D01*
X113537405Y-78552611D01*
X113442366Y-78361745D01*
X113313872Y-78191593D01*
X113278460Y-78159310D01*
X113156300Y-78047946D01*
X113156298Y-78047945D01*
X112975025Y-77935705D01*
X112975021Y-77935703D01*
X112975019Y-77935702D01*
X112853222Y-77888517D01*
X112776199Y-77858679D01*
X112706376Y-77845627D01*
X112566610Y-77819500D01*
X112353390Y-77819500D01*
X112227637Y-77843007D01*
X112143800Y-77858679D01*
X111989754Y-77918356D01*
X111944981Y-77935702D01*
X111944980Y-77935702D01*
X111944979Y-77935703D01*
X111944974Y-77935705D01*
X111763701Y-78047945D01*
X111763699Y-78047946D01*
X111606129Y-78191591D01*
X111540571Y-78278404D01*
X111477634Y-78361745D01*
X111426685Y-78464066D01*
X111382593Y-78552615D01*
X111324244Y-78757688D01*
X111304571Y-78970000D01*
X101937518Y-78970000D01*
X101888408Y-78916129D01*
X101869726Y-78902021D01*
X101718255Y-78787634D01*
X101527389Y-78692595D01*
X101527386Y-78692594D01*
X101527384Y-78692593D01*
X101322311Y-78634244D01*
X101302420Y-78632401D01*
X101163194Y-78619500D01*
X100056806Y-78619500D01*
X99937728Y-78630534D01*
X99897688Y-78634244D01*
X99692615Y-78692593D01*
X99692611Y-78692595D01*
X99501745Y-78787634D01*
X99501744Y-78787635D01*
X99331591Y-78916129D01*
X99187946Y-79073699D01*
X99187945Y-79073701D01*
X99075705Y-79254974D01*
X99075703Y-79254979D01*
X98998679Y-79453800D01*
X98998679Y-79453802D01*
X98959500Y-79663390D01*
X98959500Y-79876610D01*
X97902475Y-79876610D01*
X97885262Y-79581073D01*
X97824569Y-79236864D01*
X97724326Y-78902029D01*
X97608815Y-78634244D01*
X97585890Y-78581098D01*
X97585887Y-78581093D01*
X97411130Y-78278404D01*
X97202412Y-77998047D01*
X96962558Y-77743817D01*
X96962556Y-77743816D01*
X96962554Y-77743813D01*
X96757185Y-77571489D01*
X96694811Y-77519151D01*
X96694809Y-77519150D01*
X96694806Y-77519147D01*
X96402800Y-77327091D01*
X96402796Y-77327089D01*
X96402793Y-77327087D01*
X96090451Y-77170223D01*
X96090446Y-77170221D01*
X96090441Y-77170219D01*
X95762019Y-77050683D01*
X95762012Y-77050681D01*
X95762011Y-77050681D01*
X95487774Y-76985686D01*
X95421919Y-76970078D01*
X95421909Y-76970076D01*
X95074762Y-76929500D01*
X95074759Y-76929500D01*
X94725241Y-76929500D01*
X94725238Y-76929500D01*
X94378090Y-76970076D01*
X94378080Y-76970078D01*
X94037989Y-77050681D01*
X94037980Y-77050683D01*
X93709558Y-77170219D01*
X93709553Y-77170221D01*
X93397199Y-77327091D01*
X93105193Y-77519147D01*
X92837445Y-77743813D01*
X92597589Y-77998045D01*
X92388873Y-78278399D01*
X92388863Y-78278415D01*
X92214112Y-78581093D01*
X92214109Y-78581098D01*
X92075677Y-78902021D01*
X92075674Y-78902029D01*
X91975431Y-79236864D01*
X91943773Y-79416410D01*
X91914738Y-79581074D01*
X91914737Y-79581083D01*
X91894415Y-79930000D01*
X56761272Y-79930000D01*
X56728421Y-79850690D01*
X56633289Y-79726711D01*
X56633287Y-79726709D01*
X56633286Y-79726708D01*
X56509310Y-79631577D01*
X56364935Y-79571777D01*
X56210000Y-79551379D01*
X56055066Y-79571776D01*
X55910691Y-79631578D01*
X55910688Y-79631580D01*
X55786711Y-79726711D01*
X55691580Y-79850688D01*
X55691578Y-79850691D01*
X55631776Y-79995066D01*
X55611379Y-80149999D01*
X55611379Y-80150000D01*
X49936723Y-80150000D01*
X49865463Y-80006889D01*
X49856534Y-79995065D01*
X49742555Y-79844131D01*
X49591830Y-79706728D01*
X49591829Y-79706727D01*
X49418438Y-79599368D01*
X49418431Y-79599364D01*
X49418427Y-79599362D01*
X49285035Y-79547686D01*
X49228247Y-79525686D01*
X49161419Y-79513194D01*
X49027766Y-79488210D01*
X48823814Y-79488210D01*
X48723574Y-79506948D01*
X48623332Y-79525686D01*
X48487637Y-79578255D01*
X48433153Y-79599362D01*
X48433152Y-79599362D01*
X48433151Y-79599363D01*
X48433141Y-79599368D01*
X48259750Y-79706727D01*
X48259749Y-79706728D01*
X48109024Y-79844131D01*
X47986119Y-80006885D01*
X47895206Y-80189464D01*
X47839393Y-80385625D01*
X47820575Y-80588710D01*
X47491005Y-80588710D01*
X47472187Y-80385627D01*
X47416372Y-80189460D01*
X47325463Y-80006889D01*
X47316534Y-79995065D01*
X47202555Y-79844131D01*
X47051830Y-79706728D01*
X47051829Y-79706727D01*
X46878438Y-79599368D01*
X46878431Y-79599364D01*
X46878427Y-79599362D01*
X46745035Y-79547686D01*
X46688247Y-79525686D01*
X46621419Y-79513194D01*
X46487766Y-79488210D01*
X46283814Y-79488210D01*
X46183574Y-79506948D01*
X46083332Y-79525686D01*
X45947637Y-79578255D01*
X45893153Y-79599362D01*
X45893152Y-79599362D01*
X45893151Y-79599363D01*
X45893141Y-79599368D01*
X45719750Y-79706727D01*
X45719749Y-79706728D01*
X45569024Y-79844131D01*
X45446119Y-80006885D01*
X45355206Y-80189464D01*
X45299393Y-80385625D01*
X45280575Y-80588710D01*
X43525500Y-80588710D01*
X43525500Y-78048710D01*
X45280575Y-78048710D01*
X45299393Y-78251794D01*
X45355206Y-78447955D01*
X45355207Y-78447957D01*
X45355208Y-78447960D01*
X45446117Y-78630531D01*
X45446118Y-78630532D01*
X45446119Y-78630534D01*
X45569024Y-78793288D01*
X45719749Y-78930691D01*
X45719750Y-78930692D01*
X45893141Y-79038051D01*
X45893144Y-79038052D01*
X45893153Y-79038058D01*
X46083334Y-79111734D01*
X46283814Y-79149210D01*
X46283816Y-79149210D01*
X46487764Y-79149210D01*
X46487766Y-79149210D01*
X46688246Y-79111734D01*
X46878427Y-79038058D01*
X47051831Y-78930691D01*
X47202554Y-78793289D01*
X47206825Y-78787634D01*
X47295660Y-78669996D01*
X47325463Y-78630531D01*
X47416372Y-78447960D01*
X47472187Y-78251793D01*
X47491005Y-78048710D01*
X47820575Y-78048710D01*
X47839393Y-78251794D01*
X47895206Y-78447955D01*
X47895207Y-78447957D01*
X47895208Y-78447960D01*
X47986117Y-78630531D01*
X47986118Y-78630532D01*
X47986119Y-78630534D01*
X48109024Y-78793288D01*
X48259749Y-78930691D01*
X48259750Y-78930692D01*
X48433141Y-79038051D01*
X48433144Y-79038052D01*
X48433153Y-79038058D01*
X48623334Y-79111734D01*
X48823814Y-79149210D01*
X48823816Y-79149210D01*
X49027764Y-79149210D01*
X49027766Y-79149210D01*
X49228246Y-79111734D01*
X49418427Y-79038058D01*
X49591831Y-78930691D01*
X49742554Y-78793289D01*
X49746825Y-78787634D01*
X49835655Y-78670003D01*
X70344417Y-78670003D01*
X70364698Y-78875927D01*
X70364699Y-78875933D01*
X70364700Y-78875934D01*
X70393234Y-78970000D01*
X70424768Y-79073954D01*
X70521529Y-79254981D01*
X70522315Y-79256450D01*
X70653590Y-79416410D01*
X70813550Y-79547685D01*
X70996046Y-79645232D01*
X71194066Y-79705300D01*
X71194070Y-79705300D01*
X71194072Y-79705301D01*
X71399997Y-79725583D01*
X71400000Y-79725583D01*
X71400003Y-79725583D01*
X71605927Y-79705301D01*
X71605928Y-79705300D01*
X71605934Y-79705300D01*
X71803954Y-79645232D01*
X71986450Y-79547685D01*
X72146410Y-79416410D01*
X72277685Y-79256450D01*
X72375232Y-79073954D01*
X72424426Y-78911779D01*
X72463340Y-78852401D01*
X72528181Y-78823485D01*
X72598362Y-78834215D01*
X72651601Y-78881184D01*
X72665572Y-78911777D01*
X72703877Y-79038051D01*
X72714768Y-79073954D01*
X72811529Y-79254981D01*
X72812315Y-79256450D01*
X72943590Y-79416410D01*
X73103550Y-79547685D01*
X73286046Y-79645232D01*
X73484066Y-79705300D01*
X73484070Y-79705300D01*
X73484072Y-79705301D01*
X73689997Y-79725583D01*
X73690000Y-79725583D01*
X73690003Y-79725583D01*
X73895927Y-79705301D01*
X73895928Y-79705300D01*
X73895934Y-79705300D01*
X74093954Y-79645232D01*
X74276450Y-79547685D01*
X74436410Y-79416410D01*
X74567685Y-79256450D01*
X74665232Y-79073954D01*
X74714426Y-78911779D01*
X74753340Y-78852401D01*
X74818181Y-78823485D01*
X74888362Y-78834215D01*
X74941601Y-78881184D01*
X74955572Y-78911777D01*
X74993877Y-79038051D01*
X75004768Y-79073954D01*
X75101529Y-79254981D01*
X75102315Y-79256450D01*
X75233590Y-79416410D01*
X75393550Y-79547685D01*
X75576046Y-79645232D01*
X75774066Y-79705300D01*
X75774070Y-79705300D01*
X75774072Y-79705301D01*
X75979997Y-79725583D01*
X75980000Y-79725583D01*
X75980003Y-79725583D01*
X76185927Y-79705301D01*
X76185928Y-79705300D01*
X76185934Y-79705300D01*
X76383954Y-79645232D01*
X76566450Y-79547685D01*
X76726410Y-79416410D01*
X76857685Y-79256450D01*
X76955232Y-79073954D01*
X77004426Y-78911779D01*
X77043340Y-78852401D01*
X77108181Y-78823485D01*
X77178362Y-78834215D01*
X77231601Y-78881184D01*
X77245572Y-78911777D01*
X77283877Y-79038051D01*
X77294768Y-79073954D01*
X77391529Y-79254981D01*
X77392315Y-79256450D01*
X77523590Y-79416410D01*
X77683550Y-79547685D01*
X77866046Y-79645232D01*
X78064066Y-79705300D01*
X78064070Y-79705300D01*
X78064072Y-79705301D01*
X78269997Y-79725583D01*
X78270000Y-79725583D01*
X78270003Y-79725583D01*
X78475927Y-79705301D01*
X78475928Y-79705300D01*
X78475934Y-79705300D01*
X78673954Y-79645232D01*
X78856450Y-79547685D01*
X79016410Y-79416410D01*
X79147685Y-79256450D01*
X79245232Y-79073954D01*
X79294426Y-78911779D01*
X79333340Y-78852401D01*
X79398181Y-78823485D01*
X79468362Y-78834215D01*
X79521601Y-78881184D01*
X79535572Y-78911777D01*
X79573877Y-79038051D01*
X79584768Y-79073954D01*
X79681529Y-79254981D01*
X79682315Y-79256450D01*
X79813590Y-79416410D01*
X79973550Y-79547685D01*
X80156046Y-79645232D01*
X80354066Y-79705300D01*
X80354070Y-79705300D01*
X80354072Y-79705301D01*
X80559997Y-79725583D01*
X80560000Y-79725583D01*
X80560003Y-79725583D01*
X80765927Y-79705301D01*
X80765928Y-79705300D01*
X80765934Y-79705300D01*
X80963954Y-79645232D01*
X81146450Y-79547685D01*
X81306410Y-79416410D01*
X81437685Y-79256450D01*
X81535232Y-79073954D01*
X81595300Y-78875934D01*
X81606947Y-78757688D01*
X81615583Y-78670003D01*
X81615583Y-78669996D01*
X81595301Y-78464072D01*
X81595300Y-78464070D01*
X81595300Y-78464066D01*
X81535232Y-78266046D01*
X81437685Y-78083550D01*
X81306410Y-77923590D01*
X81146450Y-77792315D01*
X81146448Y-77792314D01*
X81146447Y-77792313D01*
X80963954Y-77694768D01*
X80910068Y-77678422D01*
X80765934Y-77634700D01*
X80765933Y-77634699D01*
X80765927Y-77634698D01*
X80560003Y-77614417D01*
X80559997Y-77614417D01*
X80354072Y-77634698D01*
X80156045Y-77694768D01*
X79973552Y-77792313D01*
X79813590Y-77923590D01*
X79682313Y-78083552D01*
X79584768Y-78266045D01*
X79584768Y-78266046D01*
X79555739Y-78361745D01*
X79535575Y-78428217D01*
X79496660Y-78487599D01*
X79431819Y-78516514D01*
X79361638Y-78505784D01*
X79308399Y-78458815D01*
X79294425Y-78428217D01*
X79279320Y-78378421D01*
X79245232Y-78266046D01*
X79147685Y-78083550D01*
X79016410Y-77923590D01*
X78856450Y-77792315D01*
X78856448Y-77792314D01*
X78856447Y-77792313D01*
X78673954Y-77694768D01*
X78620068Y-77678422D01*
X78475934Y-77634700D01*
X78475933Y-77634699D01*
X78475927Y-77634698D01*
X78270003Y-77614417D01*
X78269997Y-77614417D01*
X78064072Y-77634698D01*
X77866045Y-77694768D01*
X77683552Y-77792313D01*
X77523590Y-77923590D01*
X77392313Y-78083552D01*
X77294768Y-78266045D01*
X77294768Y-78266046D01*
X77265739Y-78361745D01*
X77245575Y-78428217D01*
X77206660Y-78487599D01*
X77141819Y-78516514D01*
X77071638Y-78505784D01*
X77018399Y-78458815D01*
X77004425Y-78428217D01*
X76989320Y-78378421D01*
X76955232Y-78266046D01*
X76857685Y-78083550D01*
X76726410Y-77923590D01*
X76566450Y-77792315D01*
X76566448Y-77792314D01*
X76566447Y-77792313D01*
X76383954Y-77694768D01*
X76330068Y-77678422D01*
X76185934Y-77634700D01*
X76185933Y-77634699D01*
X76185927Y-77634698D01*
X75980003Y-77614417D01*
X75979997Y-77614417D01*
X75774072Y-77634698D01*
X75576045Y-77694768D01*
X75393552Y-77792313D01*
X75233590Y-77923590D01*
X75102313Y-78083552D01*
X75004768Y-78266045D01*
X75004768Y-78266046D01*
X74975739Y-78361745D01*
X74955575Y-78428217D01*
X74916660Y-78487599D01*
X74851819Y-78516514D01*
X74781638Y-78505784D01*
X74728399Y-78458815D01*
X74714425Y-78428217D01*
X74699320Y-78378421D01*
X74665232Y-78266046D01*
X74567685Y-78083550D01*
X74436410Y-77923590D01*
X74276450Y-77792315D01*
X74276448Y-77792314D01*
X74276447Y-77792313D01*
X74093954Y-77694768D01*
X74040068Y-77678422D01*
X73895934Y-77634700D01*
X73895933Y-77634699D01*
X73895927Y-77634698D01*
X73690003Y-77614417D01*
X73689997Y-77614417D01*
X73484072Y-77634698D01*
X73286045Y-77694768D01*
X73103552Y-77792313D01*
X72943590Y-77923590D01*
X72812313Y-78083552D01*
X72714768Y-78266045D01*
X72714768Y-78266046D01*
X72685739Y-78361745D01*
X72665575Y-78428217D01*
X72626660Y-78487599D01*
X72561819Y-78516514D01*
X72491638Y-78505784D01*
X72438399Y-78458815D01*
X72424425Y-78428217D01*
X72409320Y-78378421D01*
X72375232Y-78266046D01*
X72277685Y-78083550D01*
X72146410Y-77923590D01*
X71986450Y-77792315D01*
X71986448Y-77792314D01*
X71986447Y-77792313D01*
X71803954Y-77694768D01*
X71750068Y-77678422D01*
X71605934Y-77634700D01*
X71605933Y-77634699D01*
X71605927Y-77634698D01*
X71400003Y-77614417D01*
X71399997Y-77614417D01*
X71194072Y-77634698D01*
X70996045Y-77694768D01*
X70813552Y-77792313D01*
X70653590Y-77923590D01*
X70522313Y-78083552D01*
X70424768Y-78266045D01*
X70364698Y-78464072D01*
X70344417Y-78669996D01*
X70344417Y-78670003D01*
X49835655Y-78670003D01*
X49835660Y-78669996D01*
X49865463Y-78630531D01*
X49956372Y-78447960D01*
X50012187Y-78251793D01*
X50031005Y-78048710D01*
X50012187Y-77845627D01*
X49956372Y-77649460D01*
X49865463Y-77466889D01*
X49842674Y-77436711D01*
X49742555Y-77304131D01*
X49591830Y-77166728D01*
X49591829Y-77166727D01*
X49580965Y-77160000D01*
X56511379Y-77160000D01*
X56531777Y-77314935D01*
X56591577Y-77459310D01*
X56686710Y-77583289D01*
X56810689Y-77678422D01*
X56875016Y-77705066D01*
X56955065Y-77738223D01*
X57093553Y-77756455D01*
X57158479Y-77785177D01*
X57197571Y-77844442D01*
X57202028Y-77864930D01*
X57221777Y-78014935D01*
X57281577Y-78159310D01*
X57376710Y-78283289D01*
X57500689Y-78378422D01*
X57591731Y-78416131D01*
X57645065Y-78438223D01*
X57800000Y-78458621D01*
X57954935Y-78438223D01*
X58045977Y-78400512D01*
X58099310Y-78378422D01*
X58223289Y-78283289D01*
X58318422Y-78159310D01*
X58349802Y-78083550D01*
X58378223Y-78014935D01*
X58398621Y-77860000D01*
X58396728Y-77845625D01*
X58378223Y-77705066D01*
X58373958Y-77694768D01*
X58318421Y-77560690D01*
X58223289Y-77436711D01*
X58223287Y-77436709D01*
X58223286Y-77436708D01*
X58149383Y-77380000D01*
X67861379Y-77380000D01*
X67881777Y-77534935D01*
X67941577Y-77679310D01*
X68036710Y-77803289D01*
X68160689Y-77898422D01*
X68250694Y-77935702D01*
X68305065Y-77958223D01*
X68460000Y-77978621D01*
X68614935Y-77958223D01*
X68705977Y-77920512D01*
X68759310Y-77898422D01*
X68883289Y-77803289D01*
X68978422Y-77679310D01*
X69018194Y-77583289D01*
X69038223Y-77534935D01*
X69058621Y-77380000D01*
X69038223Y-77225065D01*
X68978421Y-77080690D01*
X68883289Y-76956711D01*
X68883287Y-76956709D01*
X68883286Y-76956708D01*
X68759310Y-76861577D01*
X68614935Y-76801777D01*
X68460000Y-76781379D01*
X68305066Y-76801776D01*
X68160691Y-76861578D01*
X68160688Y-76861580D01*
X68036711Y-76956711D01*
X67941580Y-77080688D01*
X67941578Y-77080691D01*
X67881776Y-77225066D01*
X67861379Y-77379999D01*
X67861379Y-77380000D01*
X58149383Y-77380000D01*
X58099310Y-77341577D01*
X57954935Y-77281777D01*
X57816446Y-77263544D01*
X57751519Y-77234821D01*
X57712428Y-77175556D01*
X57707972Y-77155075D01*
X57688223Y-77005065D01*
X57628421Y-76860690D01*
X57533289Y-76736711D01*
X57533287Y-76736709D01*
X57533286Y-76736708D01*
X57409310Y-76641577D01*
X57264935Y-76581777D01*
X57110000Y-76561379D01*
X56955066Y-76581776D01*
X56810691Y-76641578D01*
X56810688Y-76641580D01*
X56686711Y-76736711D01*
X56591580Y-76860688D01*
X56591578Y-76860691D01*
X56531776Y-77005066D01*
X56511379Y-77159999D01*
X56511379Y-77160000D01*
X49580965Y-77160000D01*
X49418438Y-77059368D01*
X49418431Y-77059364D01*
X49418427Y-77059362D01*
X49285035Y-77007686D01*
X49228247Y-76985686D01*
X49144739Y-76970076D01*
X49027766Y-76948210D01*
X48823814Y-76948210D01*
X48723574Y-76966948D01*
X48623332Y-76985686D01*
X48475980Y-77042770D01*
X48433153Y-77059362D01*
X48433152Y-77059362D01*
X48433151Y-77059363D01*
X48433141Y-77059368D01*
X48259750Y-77166727D01*
X48259749Y-77166728D01*
X48109024Y-77304131D01*
X47986119Y-77466885D01*
X47895206Y-77649464D01*
X47839393Y-77845625D01*
X47820575Y-78048710D01*
X47491005Y-78048710D01*
X47472187Y-77845627D01*
X47416372Y-77649460D01*
X47325463Y-77466889D01*
X47302674Y-77436711D01*
X47202555Y-77304131D01*
X47051830Y-77166728D01*
X47051829Y-77166727D01*
X46878438Y-77059368D01*
X46878431Y-77059364D01*
X46878427Y-77059362D01*
X46745035Y-77007686D01*
X46688247Y-76985686D01*
X46604739Y-76970076D01*
X46487766Y-76948210D01*
X46283814Y-76948210D01*
X46183574Y-76966948D01*
X46083332Y-76985686D01*
X45935980Y-77042770D01*
X45893153Y-77059362D01*
X45893152Y-77059362D01*
X45893151Y-77059363D01*
X45893141Y-77059368D01*
X45719750Y-77166727D01*
X45719749Y-77166728D01*
X45569024Y-77304131D01*
X45446119Y-77466885D01*
X45355206Y-77649464D01*
X45299393Y-77845625D01*
X45280575Y-78048710D01*
X43525500Y-78048710D01*
X43525500Y-75508710D01*
X45280575Y-75508710D01*
X45299393Y-75711794D01*
X45355206Y-75907955D01*
X45355207Y-75907957D01*
X45355208Y-75907960D01*
X45446117Y-76090531D01*
X45446118Y-76090532D01*
X45446119Y-76090534D01*
X45569024Y-76253288D01*
X45719749Y-76390691D01*
X45719750Y-76390692D01*
X45893141Y-76498051D01*
X45893144Y-76498052D01*
X45893153Y-76498058D01*
X46083334Y-76571734D01*
X46283814Y-76609210D01*
X46283816Y-76609210D01*
X46487764Y-76609210D01*
X46487766Y-76609210D01*
X46688246Y-76571734D01*
X46878427Y-76498058D01*
X47051831Y-76390691D01*
X47202554Y-76253289D01*
X47325463Y-76090531D01*
X47416372Y-75907960D01*
X47472187Y-75711793D01*
X47491005Y-75508710D01*
X47820575Y-75508710D01*
X47839393Y-75711794D01*
X47895206Y-75907955D01*
X47895207Y-75907957D01*
X47895208Y-75907960D01*
X47986117Y-76090531D01*
X47986118Y-76090532D01*
X47986119Y-76090534D01*
X48109024Y-76253288D01*
X48259749Y-76390691D01*
X48259750Y-76390692D01*
X48433141Y-76498051D01*
X48433144Y-76498052D01*
X48433153Y-76498058D01*
X48623334Y-76571734D01*
X48823814Y-76609210D01*
X48823816Y-76609210D01*
X49027764Y-76609210D01*
X49027766Y-76609210D01*
X49228246Y-76571734D01*
X49418427Y-76498058D01*
X49591831Y-76390691D01*
X49742554Y-76253289D01*
X49835655Y-76130003D01*
X73774417Y-76130003D01*
X73794698Y-76335927D01*
X73794699Y-76335933D01*
X73794700Y-76335934D01*
X73843877Y-76498051D01*
X73854768Y-76533954D01*
X73912294Y-76641578D01*
X73952315Y-76716450D01*
X74083590Y-76876410D01*
X74243550Y-77007685D01*
X74426046Y-77105232D01*
X74624066Y-77165300D01*
X74624070Y-77165300D01*
X74624072Y-77165301D01*
X74829997Y-77185583D01*
X74830000Y-77185583D01*
X74830003Y-77185583D01*
X75035927Y-77165301D01*
X75035928Y-77165300D01*
X75035934Y-77165300D01*
X75233954Y-77105232D01*
X75416450Y-77007685D01*
X75576410Y-76876410D01*
X75707685Y-76716450D01*
X75805232Y-76533954D01*
X75862549Y-76345003D01*
X111442601Y-76345003D01*
X111462148Y-76543476D01*
X111462149Y-76543481D01*
X111462150Y-76543485D01*
X111473766Y-76581777D01*
X111520046Y-76734343D01*
X111595983Y-76876410D01*
X111614064Y-76910237D01*
X111740590Y-77064410D01*
X111894763Y-77190936D01*
X111894765Y-77190937D01*
X112052800Y-77275409D01*
X112070658Y-77284954D01*
X112261515Y-77342850D01*
X112261521Y-77342850D01*
X112261523Y-77342851D01*
X112459997Y-77362399D01*
X112460000Y-77362399D01*
X112460003Y-77362399D01*
X112658476Y-77342851D01*
X112658476Y-77342850D01*
X112658485Y-77342850D01*
X112849342Y-77284954D01*
X113025237Y-77190936D01*
X113179410Y-77064410D01*
X113305936Y-76910237D01*
X113399954Y-76734342D01*
X113457850Y-76543485D01*
X113462324Y-76498058D01*
X113477399Y-76345003D01*
X113982601Y-76345003D01*
X114002148Y-76543476D01*
X114002149Y-76543481D01*
X114002150Y-76543485D01*
X114013766Y-76581777D01*
X114060046Y-76734343D01*
X114135983Y-76876410D01*
X114154064Y-76910237D01*
X114280590Y-77064410D01*
X114434763Y-77190936D01*
X114434765Y-77190937D01*
X114592800Y-77275409D01*
X114610658Y-77284954D01*
X114801515Y-77342850D01*
X114801521Y-77342850D01*
X114801523Y-77342851D01*
X114999997Y-77362399D01*
X115000000Y-77362399D01*
X115000003Y-77362399D01*
X115198476Y-77342851D01*
X115198476Y-77342850D01*
X115198485Y-77342850D01*
X115389342Y-77284954D01*
X115565237Y-77190936D01*
X115719410Y-77064410D01*
X115845936Y-76910237D01*
X115939954Y-76734342D01*
X115997850Y-76543485D01*
X116002324Y-76498058D01*
X116017399Y-76345003D01*
X116017399Y-76344996D01*
X115997851Y-76146523D01*
X115997850Y-76146521D01*
X115997850Y-76146515D01*
X115939954Y-75955658D01*
X115845936Y-75779763D01*
X115719410Y-75625590D01*
X115565237Y-75499064D01*
X115565235Y-75499063D01*
X115565234Y-75499062D01*
X115389343Y-75405046D01*
X115318611Y-75383590D01*
X115198485Y-75347150D01*
X115198481Y-75347149D01*
X115198476Y-75347148D01*
X115000003Y-75327601D01*
X114999997Y-75327601D01*
X114801523Y-75347148D01*
X114801517Y-75347149D01*
X114801515Y-75347150D01*
X114722703Y-75371057D01*
X114610656Y-75405046D01*
X114434765Y-75499062D01*
X114280590Y-75625590D01*
X114154062Y-75779765D01*
X114060046Y-75955656D01*
X114002148Y-76146523D01*
X113982601Y-76344996D01*
X113982601Y-76345003D01*
X113477399Y-76345003D01*
X113477399Y-76344996D01*
X113457851Y-76146523D01*
X113457850Y-76146521D01*
X113457850Y-76146515D01*
X113399954Y-75955658D01*
X113305936Y-75779763D01*
X113179410Y-75625590D01*
X113025237Y-75499064D01*
X113025235Y-75499063D01*
X113025234Y-75499062D01*
X112849343Y-75405046D01*
X112778611Y-75383590D01*
X112658485Y-75347150D01*
X112658481Y-75347149D01*
X112658476Y-75347148D01*
X112460003Y-75327601D01*
X112459997Y-75327601D01*
X112261523Y-75347148D01*
X112261517Y-75347149D01*
X112261515Y-75347150D01*
X112182703Y-75371057D01*
X112070656Y-75405046D01*
X111894765Y-75499062D01*
X111740590Y-75625590D01*
X111614062Y-75779765D01*
X111520046Y-75955656D01*
X111462148Y-76146523D01*
X111442601Y-76344996D01*
X111442601Y-76345003D01*
X75862549Y-76345003D01*
X75865300Y-76335934D01*
X75883957Y-76146515D01*
X75885583Y-76130003D01*
X75885583Y-76129996D01*
X75865301Y-75924072D01*
X75865300Y-75924070D01*
X75865300Y-75924066D01*
X75805232Y-75726046D01*
X75707685Y-75543550D01*
X75576410Y-75383590D01*
X75416450Y-75252315D01*
X75416448Y-75252314D01*
X75416447Y-75252313D01*
X75233954Y-75154768D01*
X75084605Y-75109464D01*
X75035934Y-75094700D01*
X75035933Y-75094699D01*
X75035927Y-75094698D01*
X74830003Y-75074417D01*
X74829997Y-75074417D01*
X74624072Y-75094698D01*
X74426045Y-75154768D01*
X74243552Y-75252313D01*
X74083590Y-75383590D01*
X73952313Y-75543552D01*
X73854768Y-75726045D01*
X73794698Y-75924072D01*
X73774417Y-76129996D01*
X73774417Y-76130003D01*
X49835655Y-76130003D01*
X49865463Y-76090531D01*
X49956372Y-75907960D01*
X50012187Y-75711793D01*
X50031005Y-75508710D01*
X50012187Y-75305627D01*
X49956372Y-75109460D01*
X49865463Y-74926889D01*
X49865460Y-74926885D01*
X49742555Y-74764131D01*
X49591830Y-74626728D01*
X49591829Y-74626727D01*
X49418438Y-74519368D01*
X49418431Y-74519364D01*
X49418427Y-74519362D01*
X49285035Y-74467686D01*
X49228247Y-74445686D01*
X49161419Y-74433194D01*
X49027766Y-74408210D01*
X48823814Y-74408210D01*
X48723574Y-74426948D01*
X48623332Y-74445686D01*
X48475980Y-74502770D01*
X48433153Y-74519362D01*
X48433152Y-74519362D01*
X48433151Y-74519363D01*
X48433141Y-74519368D01*
X48259750Y-74626727D01*
X48259749Y-74626728D01*
X48109024Y-74764131D01*
X47986119Y-74926885D01*
X47895206Y-75109464D01*
X47839393Y-75305625D01*
X47820575Y-75508710D01*
X47491005Y-75508710D01*
X47472187Y-75305627D01*
X47416372Y-75109460D01*
X47325463Y-74926889D01*
X47325460Y-74926885D01*
X47202555Y-74764131D01*
X47051830Y-74626728D01*
X47051829Y-74626727D01*
X46878438Y-74519368D01*
X46878431Y-74519364D01*
X46878427Y-74519362D01*
X46745035Y-74467686D01*
X46688247Y-74445686D01*
X46621419Y-74433194D01*
X46487766Y-74408210D01*
X46283814Y-74408210D01*
X46183574Y-74426948D01*
X46083332Y-74445686D01*
X45935980Y-74502770D01*
X45893153Y-74519362D01*
X45893152Y-74519362D01*
X45893151Y-74519363D01*
X45893141Y-74519368D01*
X45719750Y-74626727D01*
X45719749Y-74626728D01*
X45569024Y-74764131D01*
X45446119Y-74926885D01*
X45355206Y-75109464D01*
X45299393Y-75305625D01*
X45280575Y-75508710D01*
X43525500Y-75508710D01*
X43525500Y-72968710D01*
X45280575Y-72968710D01*
X45299393Y-73171794D01*
X45355206Y-73367955D01*
X45355207Y-73367957D01*
X45355208Y-73367960D01*
X45446117Y-73550531D01*
X45446118Y-73550532D01*
X45446119Y-73550534D01*
X45569024Y-73713288D01*
X45719749Y-73850691D01*
X45719750Y-73850692D01*
X45893141Y-73958051D01*
X45893144Y-73958052D01*
X45893153Y-73958058D01*
X46083334Y-74031734D01*
X46283814Y-74069210D01*
X46283816Y-74069210D01*
X46487764Y-74069210D01*
X46487766Y-74069210D01*
X46688246Y-74031734D01*
X46878427Y-73958058D01*
X47051831Y-73850691D01*
X47202554Y-73713289D01*
X47325463Y-73550531D01*
X47416372Y-73367960D01*
X47472187Y-73171793D01*
X47491005Y-72968710D01*
X47820575Y-72968710D01*
X47839393Y-73171794D01*
X47895206Y-73367955D01*
X47895207Y-73367957D01*
X47895208Y-73367960D01*
X47986117Y-73550531D01*
X47986118Y-73550532D01*
X47986119Y-73550534D01*
X48109024Y-73713288D01*
X48259749Y-73850691D01*
X48259750Y-73850692D01*
X48433141Y-73958051D01*
X48433144Y-73958052D01*
X48433153Y-73958058D01*
X48623334Y-74031734D01*
X48823814Y-74069210D01*
X48823816Y-74069210D01*
X49027764Y-74069210D01*
X49027766Y-74069210D01*
X49228246Y-74031734D01*
X49418427Y-73958058D01*
X49591831Y-73850691D01*
X49742554Y-73713289D01*
X49775244Y-73670000D01*
X54781379Y-73670000D01*
X54801777Y-73824935D01*
X54861577Y-73969310D01*
X54956710Y-74093289D01*
X55080689Y-74188422D01*
X55171731Y-74226131D01*
X55225065Y-74248223D01*
X55380000Y-74268621D01*
X55534935Y-74248223D01*
X55625977Y-74210512D01*
X55679310Y-74188422D01*
X55803289Y-74093289D01*
X55898422Y-73969310D01*
X55920512Y-73915977D01*
X55958223Y-73824935D01*
X55978621Y-73670000D01*
X55968089Y-73590003D01*
X72634417Y-73590003D01*
X72654698Y-73795927D01*
X72654699Y-73795933D01*
X72654700Y-73795934D01*
X72702588Y-73953800D01*
X72714768Y-73993954D01*
X72805335Y-74163393D01*
X72812315Y-74176450D01*
X72943590Y-74336410D01*
X73103550Y-74467685D01*
X73286046Y-74565232D01*
X73484066Y-74625300D01*
X73484070Y-74625300D01*
X73484072Y-74625301D01*
X73689997Y-74645583D01*
X73690000Y-74645583D01*
X73690003Y-74645583D01*
X73895927Y-74625301D01*
X73895928Y-74625300D01*
X73895934Y-74625300D01*
X74093954Y-74565232D01*
X74276450Y-74467685D01*
X74436410Y-74336410D01*
X74567685Y-74176450D01*
X74665232Y-73993954D01*
X74714426Y-73831779D01*
X74753340Y-73772401D01*
X74818181Y-73743485D01*
X74888362Y-73754215D01*
X74941601Y-73801184D01*
X74955572Y-73831777D01*
X74997293Y-73969311D01*
X75004768Y-73993954D01*
X75095335Y-74163393D01*
X75102315Y-74176450D01*
X75233590Y-74336410D01*
X75393550Y-74467685D01*
X75576046Y-74565232D01*
X75774066Y-74625300D01*
X75774070Y-74625300D01*
X75774072Y-74625301D01*
X75979997Y-74645583D01*
X75980000Y-74645583D01*
X75980003Y-74645583D01*
X76185927Y-74625301D01*
X76185928Y-74625300D01*
X76185934Y-74625300D01*
X76383954Y-74565232D01*
X76566450Y-74467685D01*
X76726410Y-74336410D01*
X76857685Y-74176450D01*
X76955232Y-73993954D01*
X77004426Y-73831779D01*
X77043340Y-73772401D01*
X77108181Y-73743485D01*
X77178362Y-73754215D01*
X77231601Y-73801184D01*
X77245572Y-73831777D01*
X77287293Y-73969311D01*
X77294768Y-73993954D01*
X77385335Y-74163393D01*
X77392315Y-74176450D01*
X77523590Y-74336410D01*
X77683550Y-74467685D01*
X77866046Y-74565232D01*
X78064066Y-74625300D01*
X78064070Y-74625300D01*
X78064072Y-74625301D01*
X78269997Y-74645583D01*
X78270000Y-74645583D01*
X78270003Y-74645583D01*
X78475927Y-74625301D01*
X78475928Y-74625300D01*
X78475934Y-74625300D01*
X78673954Y-74565232D01*
X78856450Y-74467685D01*
X79016410Y-74336410D01*
X79147685Y-74176450D01*
X79245232Y-73993954D01*
X79294426Y-73831779D01*
X79333340Y-73772401D01*
X79398181Y-73743485D01*
X79468362Y-73754215D01*
X79521601Y-73801184D01*
X79535572Y-73831777D01*
X79577293Y-73969311D01*
X79584768Y-73993954D01*
X79675335Y-74163393D01*
X79682315Y-74176450D01*
X79813590Y-74336410D01*
X79973550Y-74467685D01*
X80156046Y-74565232D01*
X80354066Y-74625300D01*
X80354070Y-74625300D01*
X80354072Y-74625301D01*
X80559997Y-74645583D01*
X80560000Y-74645583D01*
X80560003Y-74645583D01*
X80765927Y-74625301D01*
X80765928Y-74625300D01*
X80765934Y-74625300D01*
X80963954Y-74565232D01*
X81146450Y-74467685D01*
X81257426Y-74376610D01*
X98959500Y-74376610D01*
X98972413Y-74445686D01*
X98998679Y-74586199D01*
X99021685Y-74645583D01*
X99075702Y-74785019D01*
X99075703Y-74785020D01*
X99075705Y-74785025D01*
X99187945Y-74966298D01*
X99187946Y-74966300D01*
X99318455Y-75109460D01*
X99331593Y-75123872D01*
X99501745Y-75252366D01*
X99692611Y-75347405D01*
X99897690Y-75405756D01*
X100056806Y-75420500D01*
X100056813Y-75420500D01*
X101163187Y-75420500D01*
X101163194Y-75420500D01*
X101322310Y-75405756D01*
X101527389Y-75347405D01*
X101718255Y-75252366D01*
X101888407Y-75123872D01*
X102032052Y-74966302D01*
X102144298Y-74785019D01*
X102221321Y-74586198D01*
X102260500Y-74376610D01*
X102260500Y-74163390D01*
X102221321Y-73953802D01*
X102144298Y-73754981D01*
X102118483Y-73713289D01*
X102032054Y-73573701D01*
X102032053Y-73573699D01*
X101888408Y-73416129D01*
X101888407Y-73416128D01*
X101718255Y-73287634D01*
X101527389Y-73192595D01*
X101527386Y-73192594D01*
X101527384Y-73192593D01*
X101322311Y-73134244D01*
X101302420Y-73132401D01*
X101163194Y-73119500D01*
X100056806Y-73119500D01*
X99933049Y-73130967D01*
X99897688Y-73134244D01*
X99692615Y-73192593D01*
X99692611Y-73192595D01*
X99501745Y-73287634D01*
X99501744Y-73287635D01*
X99331591Y-73416129D01*
X99187946Y-73573699D01*
X99187945Y-73573701D01*
X99075705Y-73754974D01*
X99075703Y-73754979D01*
X98998679Y-73953800D01*
X98997883Y-73958058D01*
X98959500Y-74163390D01*
X98959500Y-74376610D01*
X81257426Y-74376610D01*
X81306410Y-74336410D01*
X81437685Y-74176450D01*
X81535232Y-73993954D01*
X81595300Y-73795934D01*
X81599335Y-73754974D01*
X81615583Y-73590003D01*
X81615583Y-73589996D01*
X81595301Y-73384072D01*
X81595300Y-73384070D01*
X81595300Y-73384066D01*
X81535232Y-73186046D01*
X81437685Y-73003550D01*
X81306410Y-72843590D01*
X81146450Y-72712315D01*
X81146448Y-72712314D01*
X81146447Y-72712313D01*
X80963954Y-72614768D01*
X80814605Y-72569464D01*
X80765934Y-72554700D01*
X80765933Y-72554699D01*
X80765927Y-72554698D01*
X80560003Y-72534417D01*
X80559997Y-72534417D01*
X80354072Y-72554698D01*
X80156045Y-72614768D01*
X79973552Y-72712313D01*
X79813590Y-72843590D01*
X79682313Y-73003552D01*
X79584768Y-73186045D01*
X79535575Y-73348217D01*
X79496660Y-73407599D01*
X79431819Y-73436514D01*
X79361638Y-73425784D01*
X79308399Y-73378815D01*
X79294425Y-73348217D01*
X79276048Y-73287635D01*
X79245232Y-73186046D01*
X79147685Y-73003550D01*
X79016410Y-72843590D01*
X78856450Y-72712315D01*
X78856448Y-72712314D01*
X78856447Y-72712313D01*
X78673954Y-72614768D01*
X78524605Y-72569464D01*
X78475934Y-72554700D01*
X78475933Y-72554699D01*
X78475927Y-72554698D01*
X78270003Y-72534417D01*
X78269997Y-72534417D01*
X78064072Y-72554698D01*
X77866045Y-72614768D01*
X77683552Y-72712313D01*
X77523590Y-72843590D01*
X77392313Y-73003552D01*
X77294768Y-73186045D01*
X77245575Y-73348217D01*
X77206660Y-73407599D01*
X77141819Y-73436514D01*
X77071638Y-73425784D01*
X77018399Y-73378815D01*
X77004425Y-73348217D01*
X76986048Y-73287635D01*
X76955232Y-73186046D01*
X76857685Y-73003550D01*
X76726410Y-72843590D01*
X76566450Y-72712315D01*
X76566448Y-72712314D01*
X76566447Y-72712313D01*
X76383954Y-72614768D01*
X76234605Y-72569464D01*
X76185934Y-72554700D01*
X76185933Y-72554699D01*
X76185927Y-72554698D01*
X75980003Y-72534417D01*
X75979997Y-72534417D01*
X75774072Y-72554698D01*
X75576045Y-72614768D01*
X75393552Y-72712313D01*
X75233590Y-72843590D01*
X75102313Y-73003552D01*
X75004768Y-73186045D01*
X74955575Y-73348217D01*
X74916660Y-73407599D01*
X74851819Y-73436514D01*
X74781638Y-73425784D01*
X74728399Y-73378815D01*
X74714425Y-73348217D01*
X74696048Y-73287635D01*
X74665232Y-73186046D01*
X74567685Y-73003550D01*
X74436410Y-72843590D01*
X74276450Y-72712315D01*
X74276448Y-72712314D01*
X74276447Y-72712313D01*
X74093954Y-72614768D01*
X73944605Y-72569464D01*
X73895934Y-72554700D01*
X73895933Y-72554699D01*
X73895927Y-72554698D01*
X73690003Y-72534417D01*
X73689997Y-72534417D01*
X73484072Y-72554698D01*
X73286045Y-72614768D01*
X73103552Y-72712313D01*
X72943590Y-72843590D01*
X72812313Y-73003552D01*
X72714768Y-73186045D01*
X72654698Y-73384072D01*
X72634417Y-73589996D01*
X72634417Y-73590003D01*
X55968089Y-73590003D01*
X55958223Y-73515065D01*
X55898421Y-73370690D01*
X55803289Y-73246711D01*
X55803287Y-73246709D01*
X55803286Y-73246708D01*
X55679310Y-73151577D01*
X55534935Y-73091777D01*
X55380000Y-73071379D01*
X55225066Y-73091776D01*
X55080691Y-73151578D01*
X55080688Y-73151580D01*
X54956711Y-73246711D01*
X54861580Y-73370688D01*
X54861578Y-73370691D01*
X54801776Y-73515066D01*
X54781379Y-73669999D01*
X54781379Y-73670000D01*
X49775244Y-73670000D01*
X49865463Y-73550531D01*
X49956372Y-73367960D01*
X50012187Y-73171793D01*
X50031005Y-72968710D01*
X50012187Y-72765627D01*
X49956372Y-72569460D01*
X49865463Y-72386889D01*
X49865460Y-72386885D01*
X49742555Y-72224131D01*
X49591830Y-72086728D01*
X49591829Y-72086727D01*
X49418438Y-71979368D01*
X49418431Y-71979364D01*
X49418427Y-71979362D01*
X49289227Y-71929310D01*
X49228247Y-71905686D01*
X49161419Y-71893194D01*
X49027766Y-71868210D01*
X48823814Y-71868210D01*
X48723574Y-71886948D01*
X48623332Y-71905686D01*
X48475980Y-71962770D01*
X48433153Y-71979362D01*
X48433152Y-71979362D01*
X48433151Y-71979363D01*
X48433141Y-71979368D01*
X48259750Y-72086727D01*
X48259749Y-72086728D01*
X48109024Y-72224131D01*
X47986119Y-72386885D01*
X47895206Y-72569464D01*
X47839393Y-72765625D01*
X47820575Y-72968710D01*
X47491005Y-72968710D01*
X47472187Y-72765627D01*
X47416372Y-72569460D01*
X47325463Y-72386889D01*
X47325460Y-72386885D01*
X47202555Y-72224131D01*
X47051830Y-72086728D01*
X47051829Y-72086727D01*
X46878438Y-71979368D01*
X46878431Y-71979364D01*
X46878427Y-71979362D01*
X46749227Y-71929310D01*
X46688247Y-71905686D01*
X46621419Y-71893194D01*
X46487766Y-71868210D01*
X46283814Y-71868210D01*
X46183574Y-71886948D01*
X46083332Y-71905686D01*
X45935980Y-71962770D01*
X45893153Y-71979362D01*
X45893152Y-71979362D01*
X45893151Y-71979363D01*
X45893141Y-71979368D01*
X45719750Y-72086727D01*
X45719749Y-72086728D01*
X45569024Y-72224131D01*
X45446119Y-72386885D01*
X45355206Y-72569464D01*
X45299393Y-72765625D01*
X45280575Y-72968710D01*
X43525500Y-72968710D01*
X43525500Y-71630000D01*
X50281379Y-71630000D01*
X50301777Y-71784935D01*
X50361577Y-71929310D01*
X50456710Y-72053289D01*
X50580689Y-72148422D01*
X50671731Y-72186131D01*
X50725065Y-72208223D01*
X50880000Y-72228621D01*
X51034935Y-72208223D01*
X51125977Y-72170512D01*
X51179310Y-72148422D01*
X51303289Y-72053289D01*
X51398422Y-71929310D01*
X51423730Y-71868210D01*
X51458223Y-71784935D01*
X51478621Y-71630000D01*
X51458223Y-71475065D01*
X51398421Y-71330690D01*
X51303289Y-71206711D01*
X51303287Y-71206709D01*
X51303286Y-71206708D01*
X51179310Y-71111577D01*
X51073189Y-71067622D01*
X51017908Y-71023074D01*
X50995486Y-70955711D01*
X51013044Y-70886920D01*
X51065005Y-70838541D01*
X51073189Y-70834804D01*
X51108930Y-70820000D01*
X76671379Y-70820000D01*
X76691777Y-70974935D01*
X76751577Y-71119310D01*
X76846710Y-71243289D01*
X76970689Y-71338422D01*
X77061731Y-71376131D01*
X77115065Y-71398223D01*
X77270000Y-71418621D01*
X77424935Y-71398223D01*
X77515977Y-71360512D01*
X77569310Y-71338422D01*
X77693289Y-71243289D01*
X77788422Y-71119310D01*
X77828283Y-71023074D01*
X77829556Y-71020000D01*
X83461379Y-71020000D01*
X83481777Y-71174935D01*
X83541577Y-71319310D01*
X83636710Y-71443289D01*
X83760689Y-71538422D01*
X83851731Y-71576131D01*
X83905065Y-71598223D01*
X84060000Y-71618621D01*
X84214935Y-71598223D01*
X84305977Y-71560512D01*
X84359310Y-71538422D01*
X84483289Y-71443289D01*
X84578422Y-71319310D01*
X84609910Y-71243289D01*
X84638223Y-71174935D01*
X84658621Y-71020000D01*
X84650722Y-70960000D01*
X97931379Y-70960000D01*
X97951777Y-71114935D01*
X98011577Y-71259310D01*
X98106710Y-71383289D01*
X98230689Y-71478422D01*
X98321731Y-71516131D01*
X98375065Y-71538223D01*
X98530000Y-71558621D01*
X98684935Y-71538223D01*
X98775977Y-71500512D01*
X98829310Y-71478422D01*
X98953289Y-71383289D01*
X99048422Y-71259310D01*
X99084052Y-71173289D01*
X99108223Y-71114935D01*
X99128621Y-70960000D01*
X99108223Y-70805065D01*
X99048421Y-70660690D01*
X98953289Y-70536711D01*
X98953287Y-70536709D01*
X98953286Y-70536708D01*
X98829310Y-70441577D01*
X98684935Y-70381777D01*
X98530000Y-70361379D01*
X98375066Y-70381776D01*
X98230691Y-70441578D01*
X98230688Y-70441580D01*
X98106711Y-70536711D01*
X98011580Y-70660688D01*
X98011578Y-70660691D01*
X97951776Y-70805066D01*
X97931379Y-70959999D01*
X97931379Y-70960000D01*
X84650722Y-70960000D01*
X84638223Y-70865065D01*
X84578421Y-70720690D01*
X84576525Y-70718219D01*
X84575575Y-70715763D01*
X84574290Y-70713536D01*
X84574637Y-70713335D01*
X84550925Y-70652001D01*
X84565189Y-70582452D01*
X84576523Y-70564815D01*
X84588421Y-70549311D01*
X84648223Y-70404935D01*
X84668621Y-70250000D01*
X84667538Y-70241777D01*
X84649540Y-70105066D01*
X84648223Y-70095065D01*
X84588421Y-69950690D01*
X84493289Y-69826711D01*
X84493287Y-69826709D01*
X84493286Y-69826708D01*
X84369310Y-69731577D01*
X84224935Y-69671777D01*
X84177866Y-69665580D01*
X84112939Y-69636857D01*
X84074115Y-69577998D01*
X84039327Y-69633576D01*
X83975102Y-69663836D01*
X83972134Y-69664263D01*
X83925792Y-69670364D01*
X83915065Y-69671777D01*
X83890923Y-69681777D01*
X83770691Y-69731578D01*
X83770688Y-69731580D01*
X83646711Y-69826711D01*
X83551580Y-69950688D01*
X83551578Y-69950691D01*
X83491776Y-70095066D01*
X83471379Y-70249999D01*
X83471379Y-70250000D01*
X83491777Y-70404935D01*
X83551576Y-70549307D01*
X83553474Y-70551780D01*
X83554426Y-70554244D01*
X83555706Y-70556460D01*
X83555360Y-70556659D01*
X83579074Y-70618001D01*
X83564809Y-70687550D01*
X83553477Y-70705183D01*
X83541582Y-70720687D01*
X83541577Y-70720693D01*
X83481777Y-70865065D01*
X83461379Y-71019999D01*
X83461379Y-71020000D01*
X77829556Y-71020000D01*
X77848223Y-70974935D01*
X77868621Y-70820000D01*
X77848223Y-70665065D01*
X77788421Y-70520690D01*
X77693289Y-70396711D01*
X77693287Y-70396709D01*
X77693286Y-70396708D01*
X77569310Y-70301577D01*
X77424935Y-70241777D01*
X77270000Y-70221379D01*
X77115066Y-70241776D01*
X76970691Y-70301578D01*
X76970688Y-70301580D01*
X76846711Y-70396711D01*
X76751580Y-70520688D01*
X76751578Y-70520691D01*
X76691776Y-70665066D01*
X76671379Y-70819999D01*
X76671379Y-70820000D01*
X51108930Y-70820000D01*
X51209310Y-70778422D01*
X51333289Y-70683289D01*
X51428422Y-70559310D01*
X51466068Y-70468422D01*
X51488223Y-70414935D01*
X51508621Y-70260000D01*
X51507304Y-70250000D01*
X51490255Y-70120500D01*
X51488223Y-70105065D01*
X51428421Y-69960690D01*
X51333289Y-69836711D01*
X51333287Y-69836709D01*
X51333286Y-69836708D01*
X51209310Y-69741577D01*
X51064935Y-69681777D01*
X50910000Y-69661379D01*
X50755066Y-69681776D01*
X50610691Y-69741578D01*
X50610688Y-69741580D01*
X50486711Y-69836711D01*
X50391580Y-69960688D01*
X50391578Y-69960691D01*
X50331776Y-70105066D01*
X50311379Y-70259999D01*
X50311379Y-70260000D01*
X50331777Y-70414935D01*
X50391577Y-70559310D01*
X50486710Y-70683289D01*
X50610689Y-70778422D01*
X50675016Y-70805066D01*
X50716811Y-70822377D01*
X50772091Y-70866924D01*
X50794513Y-70934287D01*
X50776956Y-71003079D01*
X50724994Y-71051458D01*
X50716812Y-71055194D01*
X50580695Y-71111576D01*
X50580688Y-71111580D01*
X50456711Y-71206711D01*
X50361580Y-71330688D01*
X50361578Y-71330691D01*
X50301776Y-71475066D01*
X50281379Y-71629999D01*
X50281379Y-71630000D01*
X43525500Y-71630000D01*
X43525500Y-70428710D01*
X47820575Y-70428710D01*
X47839393Y-70631794D01*
X47895206Y-70827955D01*
X47895207Y-70827957D01*
X47895208Y-70827960D01*
X47986117Y-71010531D01*
X47986118Y-71010532D01*
X47986119Y-71010534D01*
X48109024Y-71173288D01*
X48259749Y-71310691D01*
X48259750Y-71310692D01*
X48433141Y-71418051D01*
X48433144Y-71418052D01*
X48433153Y-71418058D01*
X48623334Y-71491734D01*
X48823814Y-71529210D01*
X48823816Y-71529210D01*
X49027764Y-71529210D01*
X49027766Y-71529210D01*
X49228246Y-71491734D01*
X49418427Y-71418058D01*
X49591831Y-71310691D01*
X49742554Y-71173289D01*
X49865463Y-71010531D01*
X49956372Y-70827960D01*
X50012187Y-70631793D01*
X50031005Y-70428710D01*
X50012187Y-70225627D01*
X49956372Y-70029460D01*
X49865463Y-69846889D01*
X49826328Y-69795066D01*
X49742555Y-69684131D01*
X49591830Y-69546728D01*
X49591829Y-69546727D01*
X49484061Y-69480000D01*
X73621379Y-69480000D01*
X73641777Y-69634935D01*
X73701577Y-69779310D01*
X73796710Y-69903289D01*
X73920689Y-69998422D01*
X73995624Y-70029460D01*
X74065065Y-70058223D01*
X74220000Y-70078621D01*
X74374935Y-70058223D01*
X74471026Y-70018421D01*
X74519310Y-69998422D01*
X74643289Y-69903289D01*
X74738422Y-69779310D01*
X74771558Y-69699310D01*
X74798223Y-69634935D01*
X74815988Y-69500000D01*
X75711379Y-69500000D01*
X75731777Y-69654935D01*
X75791577Y-69799310D01*
X75886710Y-69923289D01*
X76010689Y-70018422D01*
X76101731Y-70056131D01*
X76155065Y-70078223D01*
X76310000Y-70098621D01*
X76464935Y-70078223D01*
X76582651Y-70029464D01*
X76609310Y-70018422D01*
X76733289Y-69923289D01*
X76828422Y-69799310D01*
X76853575Y-69738583D01*
X76888223Y-69654935D01*
X76908621Y-69500000D01*
X76900638Y-69439368D01*
X76891740Y-69371776D01*
X76888223Y-69345065D01*
X76828421Y-69200690D01*
X76733289Y-69076711D01*
X76733287Y-69076709D01*
X76733286Y-69076708D01*
X76609310Y-68981577D01*
X76464935Y-68921777D01*
X76310000Y-68901379D01*
X76155066Y-68921776D01*
X76010691Y-68981578D01*
X76010688Y-68981580D01*
X75886711Y-69076711D01*
X75791580Y-69200688D01*
X75791578Y-69200691D01*
X75731776Y-69345066D01*
X75711379Y-69499999D01*
X75711379Y-69500000D01*
X74815988Y-69500000D01*
X74818621Y-69480000D01*
X74798223Y-69325065D01*
X74738421Y-69180690D01*
X74643289Y-69056711D01*
X74643287Y-69056709D01*
X74643286Y-69056708D01*
X74519310Y-68961577D01*
X74374935Y-68901777D01*
X74220000Y-68881379D01*
X74065066Y-68901776D01*
X73920691Y-68961578D01*
X73920688Y-68961580D01*
X73796711Y-69056711D01*
X73701580Y-69180688D01*
X73701578Y-69180691D01*
X73641776Y-69325066D01*
X73621379Y-69479999D01*
X73621379Y-69480000D01*
X49484061Y-69480000D01*
X49418438Y-69439368D01*
X49418431Y-69439364D01*
X49418427Y-69439362D01*
X49301923Y-69394228D01*
X49228247Y-69365686D01*
X49151710Y-69351379D01*
X49027766Y-69328210D01*
X48823814Y-69328210D01*
X48733647Y-69345065D01*
X48623332Y-69365686D01*
X48494139Y-69415736D01*
X48433153Y-69439362D01*
X48433152Y-69439362D01*
X48433151Y-69439363D01*
X48433141Y-69439368D01*
X48259750Y-69546727D01*
X48259749Y-69546728D01*
X48109024Y-69684131D01*
X47986119Y-69846885D01*
X47895206Y-70029464D01*
X47839393Y-70225625D01*
X47820575Y-70428710D01*
X43525500Y-70428710D01*
X43525500Y-67888710D01*
X45280575Y-67888710D01*
X45299393Y-68091794D01*
X45355206Y-68287955D01*
X45355207Y-68287957D01*
X45355208Y-68287960D01*
X45446117Y-68470531D01*
X45446118Y-68470532D01*
X45446119Y-68470534D01*
X45569024Y-68633288D01*
X45719749Y-68770691D01*
X45719750Y-68770692D01*
X45893141Y-68878051D01*
X45893144Y-68878052D01*
X45893153Y-68878058D01*
X46083334Y-68951734D01*
X46283814Y-68989210D01*
X46283816Y-68989210D01*
X46487764Y-68989210D01*
X46487766Y-68989210D01*
X46688246Y-68951734D01*
X46878427Y-68878058D01*
X47051831Y-68770691D01*
X47202554Y-68633289D01*
X47325463Y-68470531D01*
X47416372Y-68287960D01*
X47472187Y-68091793D01*
X47491005Y-67888710D01*
X47820575Y-67888710D01*
X47839393Y-68091794D01*
X47895206Y-68287955D01*
X47895207Y-68287957D01*
X47895208Y-68287960D01*
X47986117Y-68470531D01*
X47986118Y-68470532D01*
X47986119Y-68470534D01*
X48109024Y-68633288D01*
X48259749Y-68770691D01*
X48259750Y-68770692D01*
X48433141Y-68878051D01*
X48433144Y-68878052D01*
X48433153Y-68878058D01*
X48623334Y-68951734D01*
X48823814Y-68989210D01*
X48823816Y-68989210D01*
X49027764Y-68989210D01*
X49027766Y-68989210D01*
X49228246Y-68951734D01*
X49418427Y-68878058D01*
X49496043Y-68830000D01*
X83481379Y-68830000D01*
X83501777Y-68984935D01*
X83561577Y-69129310D01*
X83656710Y-69253289D01*
X83780689Y-69348422D01*
X83925063Y-69408222D01*
X83925065Y-69408223D01*
X83972132Y-69414419D01*
X84037059Y-69443141D01*
X84075882Y-69501999D01*
X84110674Y-69446422D01*
X84174899Y-69416163D01*
X84177842Y-69415739D01*
X84234935Y-69408223D01*
X84254787Y-69400000D01*
X89601379Y-69400000D01*
X89621777Y-69554935D01*
X89681577Y-69699310D01*
X89776710Y-69823289D01*
X89900689Y-69918422D01*
X89978589Y-69950688D01*
X90045065Y-69978223D01*
X90200000Y-69998621D01*
X90354935Y-69978223D01*
X90423071Y-69950000D01*
X92731379Y-69950000D01*
X92751777Y-70104935D01*
X92811577Y-70249310D01*
X92906710Y-70373289D01*
X93030689Y-70468422D01*
X93121731Y-70506131D01*
X93175065Y-70528223D01*
X93330000Y-70548621D01*
X93484935Y-70528223D01*
X93575977Y-70490512D01*
X93629310Y-70468422D01*
X93753289Y-70373289D01*
X93848422Y-70249310D01*
X93870512Y-70195977D01*
X93908223Y-70104935D01*
X93928621Y-69950000D01*
X93924463Y-69918421D01*
X93913706Y-69836711D01*
X93908223Y-69795065D01*
X93848421Y-69650690D01*
X93753289Y-69526711D01*
X93753287Y-69526709D01*
X93753286Y-69526708D01*
X93629310Y-69431577D01*
X93484936Y-69371777D01*
X93484673Y-69371707D01*
X93484475Y-69371586D01*
X93477306Y-69368617D01*
X93477769Y-69367499D01*
X93424050Y-69334757D01*
X93393027Y-69270897D01*
X93401454Y-69200402D01*
X93446656Y-69145655D01*
X93477401Y-69131613D01*
X93477306Y-69131383D01*
X93483765Y-69128707D01*
X93484673Y-69128293D01*
X93484929Y-69128223D01*
X93484935Y-69128223D01*
X93557123Y-69098322D01*
X93629310Y-69068422D01*
X93753289Y-68973289D01*
X93848422Y-68849310D01*
X93880986Y-68770691D01*
X93908223Y-68704935D01*
X93928621Y-68550000D01*
X93926078Y-68530688D01*
X93908223Y-68395066D01*
X93884489Y-68337765D01*
X113645788Y-68337765D01*
X113675412Y-68607014D01*
X113743928Y-68869090D01*
X113849869Y-69118389D01*
X113868320Y-69148621D01*
X113990982Y-69349610D01*
X114164255Y-69557820D01*
X114164257Y-69557822D01*
X114164259Y-69557824D01*
X114268673Y-69651379D01*
X114365998Y-69738582D01*
X114591910Y-69888044D01*
X114837176Y-70003020D01*
X115096569Y-70081060D01*
X115096572Y-70081060D01*
X115096574Y-70081061D01*
X115364557Y-70120500D01*
X115364561Y-70120500D01*
X115567631Y-70120500D01*
X115770156Y-70105677D01*
X115770160Y-70105676D01*
X115770161Y-70105676D01*
X115893405Y-70078222D01*
X116034553Y-70046780D01*
X116287558Y-69950014D01*
X116523777Y-69817441D01*
X116738177Y-69651888D01*
X116926186Y-69456881D01*
X117083799Y-69236579D01*
X117102251Y-69200691D01*
X117207656Y-68995675D01*
X117207657Y-68995672D01*
X117239690Y-68901776D01*
X117295118Y-68739305D01*
X117330084Y-68550000D01*
X117344318Y-68472941D01*
X117344319Y-68472930D01*
X117346739Y-68406708D01*
X117354212Y-68202235D01*
X117333665Y-68015497D01*
X117324587Y-67932985D01*
X117290000Y-67800689D01*
X117256072Y-67670912D01*
X117217198Y-67579435D01*
X117150130Y-67421610D01*
X117009018Y-67190390D01*
X116835745Y-66982180D01*
X116835741Y-66982177D01*
X116835740Y-66982175D01*
X116634012Y-66801427D01*
X116634002Y-66801418D01*
X116408090Y-66651956D01*
X116162824Y-66536980D01*
X116005392Y-66489615D01*
X115903425Y-66458938D01*
X115635442Y-66419500D01*
X115635439Y-66419500D01*
X115432369Y-66419500D01*
X115229839Y-66434323D01*
X115229838Y-66434323D01*
X114965456Y-66493217D01*
X114965441Y-66493222D01*
X114712441Y-66589986D01*
X114476229Y-66722555D01*
X114476225Y-66722557D01*
X114261818Y-66888116D01*
X114073815Y-67083117D01*
X114073810Y-67083123D01*
X113916203Y-67303417D01*
X113916196Y-67303427D01*
X113792343Y-67544324D01*
X113792342Y-67544327D01*
X113704883Y-67800689D01*
X113704880Y-67800702D01*
X113655681Y-68067058D01*
X113655680Y-68067069D01*
X113645788Y-68337765D01*
X93884489Y-68337765D01*
X93848421Y-68250690D01*
X93753289Y-68126711D01*
X93753287Y-68126710D01*
X93753287Y-68126709D01*
X93701814Y-68087213D01*
X93659946Y-68029875D01*
X93655724Y-67959004D01*
X93690488Y-67897101D01*
X93701814Y-67887287D01*
X93753289Y-67847789D01*
X93848421Y-67723811D01*
X93848420Y-67723811D01*
X93848422Y-67723810D01*
X93870512Y-67670477D01*
X93908223Y-67579435D01*
X93928621Y-67424500D01*
X93908223Y-67269565D01*
X93848421Y-67125190D01*
X93753289Y-67001211D01*
X93753287Y-67001209D01*
X93753286Y-67001208D01*
X93629310Y-66906077D01*
X93484935Y-66846277D01*
X93330000Y-66825879D01*
X93175066Y-66846276D01*
X93030691Y-66906078D01*
X93030688Y-66906080D01*
X92906711Y-67001211D01*
X92811580Y-67125188D01*
X92811578Y-67125191D01*
X92751776Y-67269566D01*
X92731379Y-67424499D01*
X92731379Y-67424500D01*
X92751777Y-67579435D01*
X92811577Y-67723810D01*
X92906710Y-67847789D01*
X92958186Y-67887288D01*
X93000053Y-67944626D01*
X93004275Y-68015497D01*
X92969511Y-68077400D01*
X92958186Y-68087212D01*
X92906713Y-68126708D01*
X92811580Y-68250688D01*
X92811578Y-68250691D01*
X92751776Y-68395066D01*
X92731379Y-68549999D01*
X92731379Y-68550000D01*
X92751777Y-68704935D01*
X92811577Y-68849310D01*
X92906710Y-68973289D01*
X93030689Y-69068422D01*
X93108589Y-69100688D01*
X93175065Y-69128223D01*
X93175070Y-69128223D01*
X93175330Y-69128294D01*
X93175528Y-69128415D01*
X93182694Y-69131383D01*
X93182231Y-69132500D01*
X93235952Y-69165246D01*
X93266973Y-69229107D01*
X93258543Y-69299601D01*
X93213340Y-69354348D01*
X93182599Y-69368386D01*
X93182695Y-69368617D01*
X93176232Y-69371293D01*
X93175330Y-69371706D01*
X93175068Y-69371776D01*
X93175065Y-69371776D01*
X93175065Y-69371777D01*
X93132781Y-69389291D01*
X93030691Y-69431578D01*
X93030688Y-69431580D01*
X92906711Y-69526711D01*
X92811580Y-69650688D01*
X92811578Y-69650691D01*
X92751776Y-69795066D01*
X92731379Y-69949999D01*
X92731379Y-69950000D01*
X90423071Y-69950000D01*
X90445977Y-69940512D01*
X90499310Y-69918422D01*
X90623289Y-69823289D01*
X90718422Y-69699310D01*
X90745649Y-69633576D01*
X90778223Y-69554935D01*
X90798621Y-69400000D01*
X90791986Y-69349607D01*
X90778223Y-69245066D01*
X90759843Y-69200691D01*
X90718421Y-69100690D01*
X90623289Y-68976711D01*
X90623287Y-68976709D01*
X90623286Y-68976708D01*
X90499310Y-68881577D01*
X90354935Y-68821777D01*
X90200000Y-68801379D01*
X90045066Y-68821776D01*
X89900691Y-68881578D01*
X89900688Y-68881580D01*
X89776711Y-68976711D01*
X89681580Y-69100688D01*
X89681578Y-69100691D01*
X89621776Y-69245066D01*
X89601379Y-69399999D01*
X89601379Y-69400000D01*
X84254787Y-69400000D01*
X84333252Y-69367499D01*
X84379310Y-69348422D01*
X84503289Y-69253289D01*
X84598422Y-69129310D01*
X84623642Y-69068421D01*
X84658223Y-68984935D01*
X84678621Y-68830000D01*
X84677538Y-68821777D01*
X84666679Y-68739297D01*
X84658223Y-68675065D01*
X84598421Y-68530690D01*
X84503289Y-68406711D01*
X84503287Y-68406709D01*
X84503286Y-68406708D01*
X84379310Y-68311577D01*
X84234935Y-68251777D01*
X84080000Y-68231379D01*
X83925066Y-68251776D01*
X83780691Y-68311578D01*
X83780688Y-68311580D01*
X83656711Y-68406711D01*
X83561580Y-68530688D01*
X83561578Y-68530691D01*
X83501776Y-68675066D01*
X83481379Y-68829999D01*
X83481379Y-68830000D01*
X49496043Y-68830000D01*
X49591831Y-68770691D01*
X49742554Y-68633289D01*
X49865463Y-68470531D01*
X49956372Y-68287960D01*
X50012187Y-68091793D01*
X50031005Y-67888710D01*
X50012187Y-67685627D01*
X49956372Y-67489460D01*
X49865463Y-67306889D01*
X49837278Y-67269566D01*
X49742555Y-67144131D01*
X49591830Y-67006728D01*
X49591829Y-67006727D01*
X49418438Y-66899368D01*
X49418431Y-66899364D01*
X49418427Y-66899362D01*
X49281398Y-66846277D01*
X49228247Y-66825686D01*
X49161419Y-66813194D01*
X49027766Y-66788210D01*
X48823814Y-66788210D01*
X48753109Y-66801427D01*
X48623332Y-66825686D01*
X48475980Y-66882770D01*
X48433153Y-66899362D01*
X48433152Y-66899362D01*
X48433151Y-66899363D01*
X48433141Y-66899368D01*
X48259750Y-67006727D01*
X48259749Y-67006728D01*
X48109024Y-67144131D01*
X47986119Y-67306885D01*
X47895206Y-67489464D01*
X47839393Y-67685625D01*
X47820575Y-67888710D01*
X47491005Y-67888710D01*
X47472187Y-67685627D01*
X47416372Y-67489460D01*
X47325463Y-67306889D01*
X47297278Y-67269566D01*
X47202555Y-67144131D01*
X47051830Y-67006728D01*
X47051829Y-67006727D01*
X46878438Y-66899368D01*
X46878431Y-66899364D01*
X46878427Y-66899362D01*
X46741398Y-66846277D01*
X46688247Y-66825686D01*
X46621419Y-66813194D01*
X46487766Y-66788210D01*
X46283814Y-66788210D01*
X46213109Y-66801427D01*
X46083332Y-66825686D01*
X45935980Y-66882770D01*
X45893153Y-66899362D01*
X45893152Y-66899362D01*
X45893151Y-66899363D01*
X45893141Y-66899368D01*
X45719750Y-67006727D01*
X45719749Y-67006728D01*
X45569024Y-67144131D01*
X45446119Y-67306885D01*
X45355206Y-67489464D01*
X45299393Y-67685625D01*
X45280575Y-67888710D01*
X43525500Y-67888710D01*
X43525500Y-65348710D01*
X45280575Y-65348710D01*
X45299393Y-65551794D01*
X45355206Y-65747955D01*
X45355207Y-65747957D01*
X45355208Y-65747960D01*
X45446117Y-65930531D01*
X45446118Y-65930532D01*
X45446119Y-65930534D01*
X45569024Y-66093288D01*
X45719749Y-66230691D01*
X45719750Y-66230692D01*
X45893141Y-66338051D01*
X45893144Y-66338052D01*
X45893153Y-66338058D01*
X46083334Y-66411734D01*
X46283814Y-66449210D01*
X46283816Y-66449210D01*
X46487764Y-66449210D01*
X46487766Y-66449210D01*
X46688246Y-66411734D01*
X46878427Y-66338058D01*
X47051831Y-66230691D01*
X47202554Y-66093289D01*
X47325463Y-65930531D01*
X47416372Y-65747960D01*
X47472187Y-65551793D01*
X47491005Y-65348710D01*
X47820575Y-65348710D01*
X47839393Y-65551794D01*
X47895206Y-65747955D01*
X47895207Y-65747957D01*
X47895208Y-65747960D01*
X47986117Y-65930531D01*
X47986118Y-65930532D01*
X47986119Y-65930534D01*
X48109024Y-66093288D01*
X48259749Y-66230691D01*
X48259750Y-66230692D01*
X48433141Y-66338051D01*
X48433144Y-66338052D01*
X48433153Y-66338058D01*
X48623334Y-66411734D01*
X48823814Y-66449210D01*
X48823816Y-66449210D01*
X49027764Y-66449210D01*
X49027766Y-66449210D01*
X49228246Y-66411734D01*
X49418427Y-66338058D01*
X49591831Y-66230691D01*
X49742554Y-66093289D01*
X49865463Y-65930531D01*
X49956372Y-65747960D01*
X50012187Y-65551793D01*
X50031005Y-65348710D01*
X50012187Y-65145627D01*
X49956372Y-64949460D01*
X49865463Y-64766889D01*
X49865460Y-64766885D01*
X49769642Y-64640000D01*
X82871379Y-64640000D01*
X82891777Y-64794935D01*
X82951577Y-64939310D01*
X83046710Y-65063289D01*
X83170689Y-65158422D01*
X83251218Y-65191777D01*
X83315065Y-65218223D01*
X83470000Y-65238621D01*
X83474149Y-65238621D01*
X83477521Y-65239611D01*
X83478188Y-65239699D01*
X83478174Y-65239802D01*
X83542270Y-65258623D01*
X83588763Y-65312279D01*
X83598867Y-65382553D01*
X83574112Y-65441323D01*
X83562733Y-65456153D01*
X83551580Y-65470688D01*
X83551578Y-65470691D01*
X83491776Y-65615066D01*
X83471379Y-65769999D01*
X83471379Y-65770000D01*
X83491777Y-65924935D01*
X83551577Y-66069310D01*
X83646710Y-66193289D01*
X83770689Y-66288422D01*
X83861731Y-66326131D01*
X83915065Y-66348223D01*
X84070000Y-66368621D01*
X84224935Y-66348223D01*
X84315977Y-66310512D01*
X84369310Y-66288422D01*
X84493289Y-66193289D01*
X84588422Y-66069310D01*
X84610512Y-66015977D01*
X84648223Y-65924935D01*
X84668621Y-65770000D01*
X84648223Y-65615065D01*
X84588421Y-65470690D01*
X84526506Y-65390000D01*
X92751379Y-65390000D01*
X92771777Y-65544935D01*
X92831577Y-65689310D01*
X92926710Y-65813289D01*
X93050689Y-65908422D01*
X93141731Y-65946131D01*
X93195065Y-65968223D01*
X93350000Y-65988621D01*
X93504935Y-65968223D01*
X93595977Y-65930512D01*
X93649310Y-65908422D01*
X93773289Y-65813289D01*
X93868422Y-65689310D01*
X93899174Y-65615065D01*
X93928223Y-65544935D01*
X93948621Y-65390000D01*
X93928223Y-65235065D01*
X93868421Y-65090690D01*
X93815485Y-65021702D01*
X93789886Y-64955483D01*
X93804151Y-64885935D01*
X93815487Y-64868296D01*
X93831815Y-64847015D01*
X93868421Y-64799311D01*
X93928223Y-64654935D01*
X93948621Y-64500000D01*
X93936170Y-64405427D01*
X93947109Y-64335279D01*
X93994237Y-64282180D01*
X94044643Y-64264060D01*
X94164935Y-64248223D01*
X94255977Y-64210512D01*
X94309310Y-64188422D01*
X94433289Y-64093289D01*
X94528422Y-63969310D01*
X94568838Y-63871734D01*
X94588223Y-63824935D01*
X94590337Y-63808870D01*
X94619057Y-63743947D01*
X94678321Y-63704854D01*
X94749313Y-63704007D01*
X94809492Y-63741676D01*
X94831668Y-63777100D01*
X94861578Y-63849311D01*
X94956710Y-63973289D01*
X95080689Y-64068422D01*
X95171731Y-64106131D01*
X95225065Y-64128223D01*
X95380000Y-64148621D01*
X95534935Y-64128223D01*
X95625977Y-64090512D01*
X95679310Y-64068422D01*
X95803289Y-63973289D01*
X95898422Y-63849310D01*
X95920512Y-63795977D01*
X95958223Y-63704935D01*
X95978621Y-63550000D01*
X95958223Y-63395065D01*
X95898421Y-63250690D01*
X95803289Y-63126711D01*
X95803287Y-63126709D01*
X95803286Y-63126708D01*
X95679310Y-63031577D01*
X95534935Y-62971777D01*
X95380000Y-62951379D01*
X95225066Y-62971776D01*
X95080691Y-63031578D01*
X95080688Y-63031580D01*
X94956711Y-63126711D01*
X94861580Y-63250688D01*
X94861578Y-63250691D01*
X94801777Y-63395065D01*
X94799662Y-63411130D01*
X94770939Y-63476057D01*
X94711673Y-63515148D01*
X94640681Y-63515992D01*
X94580503Y-63478321D01*
X94558331Y-63442900D01*
X94528421Y-63370690D01*
X94433289Y-63246711D01*
X94433287Y-63246709D01*
X94433286Y-63246708D01*
X94309310Y-63151577D01*
X94164935Y-63091777D01*
X94010000Y-63071379D01*
X93855066Y-63091776D01*
X93710691Y-63151578D01*
X93710688Y-63151580D01*
X93586711Y-63246711D01*
X93491580Y-63370688D01*
X93491578Y-63370691D01*
X93431776Y-63515066D01*
X93411379Y-63669999D01*
X93411379Y-63670001D01*
X93423829Y-63764572D01*
X93412889Y-63834721D01*
X93365761Y-63887819D01*
X93315354Y-63905940D01*
X93195066Y-63921776D01*
X93050691Y-63981578D01*
X93050688Y-63981580D01*
X92926711Y-64076711D01*
X92831580Y-64200688D01*
X92831578Y-64200691D01*
X92771776Y-64345066D01*
X92751379Y-64499999D01*
X92751379Y-64500000D01*
X92771777Y-64654935D01*
X92831577Y-64799309D01*
X92884513Y-64868297D01*
X92910113Y-64934517D01*
X92895848Y-65004066D01*
X92884513Y-65021703D01*
X92831583Y-65090683D01*
X92831578Y-65090691D01*
X92771776Y-65235066D01*
X92751379Y-65389999D01*
X92751379Y-65390000D01*
X84526506Y-65390000D01*
X84493289Y-65346711D01*
X84493287Y-65346709D01*
X84493286Y-65346708D01*
X84369310Y-65251577D01*
X84224935Y-65191777D01*
X84070000Y-65171379D01*
X84065852Y-65171379D01*
X84062480Y-65170388D01*
X84061812Y-65170301D01*
X84061825Y-65170196D01*
X83997731Y-65151377D01*
X83951238Y-65097721D01*
X83941134Y-65027447D01*
X83965889Y-64968676D01*
X83980633Y-64949460D01*
X83988421Y-64939311D01*
X83995058Y-64923289D01*
X84010530Y-64885935D01*
X84048223Y-64794935D01*
X84068621Y-64640000D01*
X84048223Y-64485065D01*
X83988421Y-64340690D01*
X83893289Y-64216711D01*
X83893287Y-64216709D01*
X83893286Y-64216708D01*
X83769310Y-64121577D01*
X83624935Y-64061777D01*
X83470000Y-64041379D01*
X83315066Y-64061776D01*
X83170691Y-64121578D01*
X83170688Y-64121580D01*
X83046711Y-64216711D01*
X82951580Y-64340688D01*
X82951578Y-64340691D01*
X82891776Y-64485066D01*
X82871379Y-64639999D01*
X82871379Y-64640000D01*
X49769642Y-64640000D01*
X49742555Y-64604131D01*
X49591830Y-64466728D01*
X49591829Y-64466727D01*
X49418438Y-64359368D01*
X49418431Y-64359364D01*
X49418427Y-64359362D01*
X49301923Y-64314228D01*
X49228247Y-64285686D01*
X49161419Y-64273194D01*
X49027766Y-64248210D01*
X48823814Y-64248210D01*
X48739029Y-64264059D01*
X48623332Y-64285686D01*
X48495319Y-64335279D01*
X48433153Y-64359362D01*
X48433152Y-64359362D01*
X48433151Y-64359363D01*
X48433141Y-64359368D01*
X48259750Y-64466727D01*
X48259749Y-64466728D01*
X48109024Y-64604131D01*
X47986119Y-64766885D01*
X47895206Y-64949464D01*
X47839393Y-65145625D01*
X47820575Y-65348710D01*
X47491005Y-65348710D01*
X47472187Y-65145627D01*
X47416372Y-64949460D01*
X47325463Y-64766889D01*
X47325460Y-64766885D01*
X47202555Y-64604131D01*
X47051830Y-64466728D01*
X47051829Y-64466727D01*
X46878438Y-64359368D01*
X46878431Y-64359364D01*
X46878427Y-64359362D01*
X46761923Y-64314228D01*
X46688247Y-64285686D01*
X46621419Y-64273194D01*
X46487766Y-64248210D01*
X46283814Y-64248210D01*
X46199029Y-64264059D01*
X46083332Y-64285686D01*
X45955319Y-64335279D01*
X45893153Y-64359362D01*
X45893152Y-64359362D01*
X45893151Y-64359363D01*
X45893141Y-64359368D01*
X45719750Y-64466727D01*
X45719749Y-64466728D01*
X45569024Y-64604131D01*
X45446119Y-64766885D01*
X45355206Y-64949464D01*
X45299393Y-65145625D01*
X45280575Y-65348710D01*
X43525500Y-65348710D01*
X43525500Y-62808710D01*
X45280575Y-62808710D01*
X45299393Y-63011794D01*
X45355206Y-63207955D01*
X45355207Y-63207957D01*
X45355208Y-63207960D01*
X45446117Y-63390531D01*
X45446118Y-63390532D01*
X45446119Y-63390534D01*
X45569024Y-63553288D01*
X45719749Y-63690691D01*
X45719750Y-63690692D01*
X45893141Y-63798051D01*
X45893144Y-63798052D01*
X45893153Y-63798058D01*
X46083334Y-63871734D01*
X46283814Y-63909210D01*
X46283816Y-63909210D01*
X46487764Y-63909210D01*
X46487766Y-63909210D01*
X46688246Y-63871734D01*
X46878427Y-63798058D01*
X47051831Y-63690691D01*
X47202554Y-63553289D01*
X47205039Y-63549999D01*
X47260877Y-63476057D01*
X47325463Y-63390531D01*
X47416372Y-63207960D01*
X47472187Y-63011793D01*
X47491005Y-62808710D01*
X47820575Y-62808710D01*
X47839393Y-63011794D01*
X47895206Y-63207955D01*
X47895207Y-63207957D01*
X47895208Y-63207960D01*
X47986117Y-63390531D01*
X47986118Y-63390532D01*
X47986119Y-63390534D01*
X48109024Y-63553288D01*
X48259749Y-63690691D01*
X48259750Y-63690692D01*
X48433141Y-63798051D01*
X48433144Y-63798052D01*
X48433153Y-63798058D01*
X48623334Y-63871734D01*
X48823814Y-63909210D01*
X48823816Y-63909210D01*
X49027764Y-63909210D01*
X49027766Y-63909210D01*
X49228246Y-63871734D01*
X49258535Y-63860000D01*
X81351379Y-63860000D01*
X81371777Y-64014935D01*
X81431577Y-64159310D01*
X81526710Y-64283289D01*
X81650689Y-64378422D01*
X81715890Y-64405428D01*
X81795065Y-64438223D01*
X81950000Y-64458621D01*
X82104935Y-64438223D01*
X82195977Y-64400512D01*
X82249310Y-64378422D01*
X82373289Y-64283289D01*
X82468422Y-64159310D01*
X82495768Y-64093289D01*
X82528223Y-64014935D01*
X82548621Y-63860000D01*
X82528223Y-63705065D01*
X82468421Y-63560690D01*
X82373289Y-63436711D01*
X82373287Y-63436709D01*
X82373286Y-63436708D01*
X82249310Y-63341577D01*
X82104935Y-63281777D01*
X81950000Y-63261379D01*
X81795066Y-63281776D01*
X81650691Y-63341578D01*
X81650688Y-63341580D01*
X81526711Y-63436711D01*
X81431580Y-63560688D01*
X81431578Y-63560691D01*
X81371776Y-63705066D01*
X81351379Y-63859999D01*
X81351379Y-63860000D01*
X49258535Y-63860000D01*
X49418427Y-63798058D01*
X49591831Y-63690691D01*
X49742554Y-63553289D01*
X49745039Y-63549999D01*
X49800877Y-63476057D01*
X49865463Y-63390531D01*
X49956372Y-63207960D01*
X49977985Y-63132000D01*
X83831379Y-63132000D01*
X83851777Y-63286935D01*
X83911577Y-63431310D01*
X84006710Y-63555289D01*
X84130689Y-63650422D01*
X84221731Y-63688131D01*
X84275065Y-63710223D01*
X84430000Y-63730621D01*
X84584935Y-63710223D01*
X84682045Y-63669999D01*
X84729310Y-63650422D01*
X84853289Y-63555289D01*
X84948422Y-63431310D01*
X84985589Y-63341578D01*
X85008223Y-63286935D01*
X85028621Y-63132000D01*
X85008223Y-62977065D01*
X84948421Y-62832690D01*
X84853289Y-62708711D01*
X84853287Y-62708709D01*
X84853286Y-62708708D01*
X84729310Y-62613577D01*
X84584935Y-62553777D01*
X84430000Y-62533379D01*
X84275066Y-62553776D01*
X84130691Y-62613578D01*
X84130688Y-62613580D01*
X84006711Y-62708711D01*
X83911580Y-62832688D01*
X83911578Y-62832691D01*
X83851776Y-62977066D01*
X83831379Y-63131999D01*
X83831379Y-63132000D01*
X49977985Y-63132000D01*
X50012187Y-63011793D01*
X50031005Y-62808710D01*
X50012187Y-62605627D01*
X49956372Y-62409460D01*
X49865463Y-62226889D01*
X49865460Y-62226885D01*
X49742555Y-62064131D01*
X49591830Y-61926728D01*
X49591829Y-61926727D01*
X49418438Y-61819368D01*
X49418431Y-61819364D01*
X49418427Y-61819362D01*
X49301923Y-61774228D01*
X49228247Y-61745686D01*
X49161419Y-61733194D01*
X49027766Y-61708210D01*
X48823814Y-61708210D01*
X48723574Y-61726948D01*
X48623332Y-61745686D01*
X48475980Y-61802770D01*
X48433153Y-61819362D01*
X48433152Y-61819362D01*
X48433151Y-61819363D01*
X48433141Y-61819368D01*
X48259750Y-61926727D01*
X48259749Y-61926728D01*
X48109024Y-62064131D01*
X47986119Y-62226885D01*
X47895206Y-62409464D01*
X47839393Y-62605625D01*
X47820575Y-62808710D01*
X47491005Y-62808710D01*
X47472187Y-62605627D01*
X47416372Y-62409460D01*
X47325463Y-62226889D01*
X47325460Y-62226885D01*
X47202555Y-62064131D01*
X47051830Y-61926728D01*
X47051829Y-61926727D01*
X46878438Y-61819368D01*
X46878431Y-61819364D01*
X46878427Y-61819362D01*
X46761923Y-61774228D01*
X46688247Y-61745686D01*
X46621419Y-61733194D01*
X46487766Y-61708210D01*
X46283814Y-61708210D01*
X46183574Y-61726948D01*
X46083332Y-61745686D01*
X45935980Y-61802770D01*
X45893153Y-61819362D01*
X45893152Y-61819362D01*
X45893151Y-61819363D01*
X45893141Y-61819368D01*
X45719750Y-61926727D01*
X45719749Y-61926728D01*
X45569024Y-62064131D01*
X45446119Y-62226885D01*
X45355206Y-62409464D01*
X45299393Y-62605625D01*
X45280575Y-62808710D01*
X43525500Y-62808710D01*
X43525500Y-60268710D01*
X45280575Y-60268710D01*
X45299393Y-60471794D01*
X45355206Y-60667955D01*
X45355207Y-60667957D01*
X45355208Y-60667960D01*
X45446117Y-60850531D01*
X45446118Y-60850532D01*
X45446119Y-60850534D01*
X45569024Y-61013288D01*
X45719749Y-61150691D01*
X45719750Y-61150692D01*
X45893141Y-61258051D01*
X45893144Y-61258052D01*
X45893153Y-61258058D01*
X46083334Y-61331734D01*
X46283814Y-61369210D01*
X46283816Y-61369210D01*
X46487764Y-61369210D01*
X46487766Y-61369210D01*
X46688246Y-61331734D01*
X46878427Y-61258058D01*
X47051831Y-61150691D01*
X47202554Y-61013289D01*
X47325463Y-60850531D01*
X47416372Y-60667960D01*
X47472187Y-60471793D01*
X47491005Y-60268710D01*
X47820575Y-60268710D01*
X47839393Y-60471794D01*
X47895206Y-60667955D01*
X47895207Y-60667957D01*
X47895208Y-60667960D01*
X47986117Y-60850531D01*
X47986118Y-60850532D01*
X47986119Y-60850534D01*
X48109024Y-61013288D01*
X48259749Y-61150691D01*
X48259750Y-61150692D01*
X48433141Y-61258051D01*
X48433144Y-61258052D01*
X48433153Y-61258058D01*
X48623334Y-61331734D01*
X48823814Y-61369210D01*
X48823816Y-61369210D01*
X49027764Y-61369210D01*
X49027766Y-61369210D01*
X49228246Y-61331734D01*
X49418427Y-61258058D01*
X49591831Y-61150691D01*
X49742554Y-61013289D01*
X49865463Y-60850531D01*
X49956372Y-60667960D01*
X49970018Y-60620000D01*
X62051379Y-60620000D01*
X62071777Y-60774935D01*
X62131577Y-60919310D01*
X62226710Y-61043289D01*
X62350689Y-61138422D01*
X62441731Y-61176131D01*
X62495065Y-61198223D01*
X62650000Y-61218621D01*
X62804935Y-61198223D01*
X62949311Y-61138421D01*
X63053296Y-61058629D01*
X63119516Y-61033029D01*
X63189065Y-61047293D01*
X63206704Y-61058630D01*
X63310690Y-61138422D01*
X63382877Y-61168322D01*
X63455065Y-61198223D01*
X63610000Y-61218621D01*
X63764935Y-61198223D01*
X63855977Y-61160512D01*
X63909310Y-61138422D01*
X64033289Y-61043289D01*
X64128422Y-60919310D01*
X64156910Y-60850531D01*
X64188223Y-60774935D01*
X64208621Y-60620000D01*
X64188223Y-60465065D01*
X64128421Y-60320690D01*
X64033289Y-60196711D01*
X64033287Y-60196709D01*
X64033286Y-60196708D01*
X63909310Y-60101577D01*
X63764935Y-60041777D01*
X63610000Y-60021379D01*
X63455066Y-60041776D01*
X63310691Y-60101578D01*
X63310684Y-60101583D01*
X63206703Y-60181370D01*
X63140483Y-60206970D01*
X63070934Y-60192705D01*
X63053296Y-60181370D01*
X62949307Y-60101576D01*
X62804935Y-60041777D01*
X62650000Y-60021379D01*
X62495066Y-60041776D01*
X62350691Y-60101578D01*
X62350688Y-60101580D01*
X62226711Y-60196711D01*
X62131580Y-60320688D01*
X62131578Y-60320691D01*
X62071776Y-60465066D01*
X62051379Y-60619999D01*
X62051379Y-60620000D01*
X49970018Y-60620000D01*
X50012187Y-60471793D01*
X50031005Y-60268710D01*
X50012187Y-60065627D01*
X49956372Y-59869460D01*
X49865463Y-59686889D01*
X49865460Y-59686885D01*
X49742555Y-59524131D01*
X49591830Y-59386728D01*
X49591829Y-59386727D01*
X49418438Y-59279368D01*
X49418431Y-59279364D01*
X49418427Y-59279362D01*
X49301923Y-59234228D01*
X49228247Y-59205686D01*
X49161419Y-59193194D01*
X49027766Y-59168210D01*
X48823814Y-59168210D01*
X48723574Y-59186948D01*
X48623332Y-59205686D01*
X48475980Y-59262770D01*
X48433153Y-59279362D01*
X48433152Y-59279362D01*
X48433151Y-59279363D01*
X48433141Y-59279368D01*
X48259750Y-59386727D01*
X48259749Y-59386728D01*
X48109024Y-59524131D01*
X47986119Y-59686885D01*
X47895206Y-59869464D01*
X47839393Y-60065625D01*
X47820575Y-60268710D01*
X47491005Y-60268710D01*
X47472187Y-60065627D01*
X47416372Y-59869460D01*
X47325463Y-59686889D01*
X47325460Y-59686885D01*
X47202555Y-59524131D01*
X47051830Y-59386728D01*
X47051829Y-59386727D01*
X46878438Y-59279368D01*
X46878431Y-59279364D01*
X46878427Y-59279362D01*
X46761923Y-59234228D01*
X46688247Y-59205686D01*
X46621419Y-59193194D01*
X46487766Y-59168210D01*
X46283814Y-59168210D01*
X46183574Y-59186948D01*
X46083332Y-59205686D01*
X45935980Y-59262770D01*
X45893153Y-59279362D01*
X45893152Y-59279362D01*
X45893151Y-59279363D01*
X45893141Y-59279368D01*
X45719750Y-59386727D01*
X45719749Y-59386728D01*
X45569024Y-59524131D01*
X45446119Y-59686885D01*
X45355206Y-59869464D01*
X45299393Y-60065625D01*
X45280575Y-60268710D01*
X43525500Y-60268710D01*
X43525500Y-57728710D01*
X45280575Y-57728710D01*
X45299393Y-57931794D01*
X45355206Y-58127955D01*
X45355207Y-58127957D01*
X45355208Y-58127960D01*
X45446117Y-58310531D01*
X45446118Y-58310532D01*
X45446119Y-58310534D01*
X45569024Y-58473288D01*
X45719749Y-58610691D01*
X45719750Y-58610692D01*
X45893141Y-58718051D01*
X45893144Y-58718052D01*
X45893153Y-58718058D01*
X46083334Y-58791734D01*
X46283814Y-58829210D01*
X46283816Y-58829210D01*
X46487764Y-58829210D01*
X46487766Y-58829210D01*
X46688246Y-58791734D01*
X46878427Y-58718058D01*
X47051831Y-58610691D01*
X47202554Y-58473289D01*
X47325463Y-58310531D01*
X47416372Y-58127960D01*
X47472187Y-57931793D01*
X47491005Y-57728710D01*
X47820575Y-57728710D01*
X47839393Y-57931794D01*
X47895206Y-58127955D01*
X47895207Y-58127957D01*
X47895208Y-58127960D01*
X47986117Y-58310531D01*
X47986118Y-58310532D01*
X47986119Y-58310534D01*
X48109024Y-58473288D01*
X48259749Y-58610691D01*
X48259750Y-58610692D01*
X48433141Y-58718051D01*
X48433144Y-58718052D01*
X48433153Y-58718058D01*
X48623334Y-58791734D01*
X48823814Y-58829210D01*
X48823816Y-58829210D01*
X49027764Y-58829210D01*
X49027766Y-58829210D01*
X49228246Y-58791734D01*
X49418427Y-58718058D01*
X49591831Y-58610691D01*
X49742554Y-58473289D01*
X49865463Y-58310531D01*
X49956372Y-58127960D01*
X50012187Y-57931793D01*
X50031005Y-57728710D01*
X50012187Y-57525627D01*
X49956372Y-57329460D01*
X49865463Y-57146889D01*
X49859219Y-57138621D01*
X49742555Y-56984131D01*
X49591830Y-56846728D01*
X49591829Y-56846727D01*
X49418438Y-56739368D01*
X49418431Y-56739364D01*
X49418427Y-56739362D01*
X49301923Y-56694228D01*
X49228247Y-56665686D01*
X49161419Y-56653194D01*
X49027766Y-56628210D01*
X48823814Y-56628210D01*
X48723574Y-56646948D01*
X48623332Y-56665686D01*
X48475980Y-56722770D01*
X48433153Y-56739362D01*
X48433152Y-56739362D01*
X48433151Y-56739363D01*
X48433141Y-56739368D01*
X48259750Y-56846727D01*
X48259749Y-56846728D01*
X48109024Y-56984131D01*
X47986119Y-57146885D01*
X47895206Y-57329464D01*
X47839393Y-57525625D01*
X47820575Y-57728710D01*
X47491005Y-57728710D01*
X47472187Y-57525627D01*
X47416372Y-57329460D01*
X47325463Y-57146889D01*
X47319219Y-57138621D01*
X47202555Y-56984131D01*
X47051830Y-56846728D01*
X47051829Y-56846727D01*
X46878438Y-56739368D01*
X46878431Y-56739364D01*
X46878427Y-56739362D01*
X46761923Y-56694228D01*
X46688247Y-56665686D01*
X46621419Y-56653194D01*
X46487766Y-56628210D01*
X46283814Y-56628210D01*
X46183574Y-56646948D01*
X46083332Y-56665686D01*
X45935980Y-56722770D01*
X45893153Y-56739362D01*
X45893152Y-56739362D01*
X45893151Y-56739363D01*
X45893141Y-56739368D01*
X45719750Y-56846727D01*
X45719749Y-56846728D01*
X45569024Y-56984131D01*
X45446119Y-57146885D01*
X45355206Y-57329464D01*
X45299393Y-57525625D01*
X45280575Y-57728710D01*
X43525500Y-57728710D01*
X43525500Y-55188710D01*
X45280575Y-55188710D01*
X45299393Y-55391794D01*
X45355206Y-55587955D01*
X45355207Y-55587957D01*
X45355208Y-55587960D01*
X45446117Y-55770531D01*
X45446118Y-55770532D01*
X45446119Y-55770534D01*
X45569024Y-55933288D01*
X45719749Y-56070691D01*
X45719750Y-56070692D01*
X45893141Y-56178051D01*
X45893144Y-56178052D01*
X45893153Y-56178058D01*
X46083334Y-56251734D01*
X46283814Y-56289210D01*
X46283816Y-56289210D01*
X46487764Y-56289210D01*
X46487766Y-56289210D01*
X46688246Y-56251734D01*
X46878427Y-56178058D01*
X47051831Y-56070691D01*
X47202554Y-55933289D01*
X47325463Y-55770531D01*
X47416372Y-55587960D01*
X47472187Y-55391793D01*
X47491005Y-55188710D01*
X47820575Y-55188710D01*
X47839393Y-55391794D01*
X47895206Y-55587955D01*
X47895207Y-55587957D01*
X47895208Y-55587960D01*
X47986117Y-55770531D01*
X47986118Y-55770532D01*
X47986119Y-55770534D01*
X48109024Y-55933288D01*
X48259749Y-56070691D01*
X48259750Y-56070692D01*
X48433141Y-56178051D01*
X48433144Y-56178052D01*
X48433153Y-56178058D01*
X48623334Y-56251734D01*
X48823814Y-56289210D01*
X48823816Y-56289210D01*
X49027764Y-56289210D01*
X49027766Y-56289210D01*
X49228246Y-56251734D01*
X49418427Y-56178058D01*
X49591831Y-56070691D01*
X49742554Y-55933289D01*
X49850761Y-55790000D01*
X69361379Y-55790000D01*
X69381777Y-55944935D01*
X69441576Y-56089306D01*
X69441578Y-56089308D01*
X69441579Y-56089311D01*
X69445908Y-56094953D01*
X69471507Y-56161173D01*
X69457242Y-56230722D01*
X69455061Y-56234658D01*
X69451579Y-56240687D01*
X69391777Y-56385065D01*
X69371379Y-56539999D01*
X69371379Y-56540000D01*
X69391777Y-56694935D01*
X69451577Y-56839310D01*
X69546710Y-56963289D01*
X69670689Y-57058422D01*
X69761731Y-57096131D01*
X69815065Y-57118223D01*
X69970000Y-57138621D01*
X70124935Y-57118223D01*
X70215977Y-57080512D01*
X70269310Y-57058422D01*
X70393289Y-56963289D01*
X70488422Y-56839310D01*
X70529820Y-56739363D01*
X70548223Y-56694935D01*
X70568621Y-56540000D01*
X70548223Y-56385065D01*
X70488421Y-56240690D01*
X70484093Y-56235050D01*
X70458492Y-56168834D01*
X70472754Y-56099285D01*
X70474938Y-56095343D01*
X70478419Y-56089313D01*
X70478421Y-56089311D01*
X70538223Y-55944935D01*
X70558621Y-55790000D01*
X70538223Y-55635065D01*
X70478421Y-55490690D01*
X70383289Y-55366711D01*
X70383287Y-55366709D01*
X70383286Y-55366708D01*
X70259310Y-55271577D01*
X70114935Y-55211777D01*
X69960000Y-55191379D01*
X69805066Y-55211776D01*
X69660691Y-55271578D01*
X69660688Y-55271580D01*
X69536711Y-55366711D01*
X69441580Y-55490688D01*
X69441578Y-55490691D01*
X69381776Y-55635066D01*
X69361379Y-55789999D01*
X69361379Y-55790000D01*
X49850761Y-55790000D01*
X49865463Y-55770531D01*
X49956372Y-55587960D01*
X50012187Y-55391793D01*
X50031005Y-55188710D01*
X50012187Y-54985627D01*
X49956372Y-54789460D01*
X49865463Y-54606889D01*
X49865460Y-54606885D01*
X49742555Y-54444131D01*
X49591830Y-54306728D01*
X49591829Y-54306727D01*
X49418438Y-54199368D01*
X49418431Y-54199364D01*
X49418427Y-54199362D01*
X49301923Y-54154228D01*
X49228247Y-54125686D01*
X49161419Y-54113194D01*
X49027766Y-54088210D01*
X48823814Y-54088210D01*
X48723574Y-54106948D01*
X48623332Y-54125686D01*
X48475980Y-54182770D01*
X48433153Y-54199362D01*
X48433152Y-54199362D01*
X48433151Y-54199363D01*
X48433141Y-54199368D01*
X48259750Y-54306727D01*
X48259749Y-54306728D01*
X48109024Y-54444131D01*
X47986119Y-54606885D01*
X47895206Y-54789464D01*
X47839393Y-54985625D01*
X47820575Y-55188710D01*
X47491005Y-55188710D01*
X47472187Y-54985627D01*
X47416372Y-54789460D01*
X47325463Y-54606889D01*
X47325460Y-54606885D01*
X47202555Y-54444131D01*
X47051830Y-54306728D01*
X47051829Y-54306727D01*
X46878438Y-54199368D01*
X46878431Y-54199364D01*
X46878427Y-54199362D01*
X46761923Y-54154228D01*
X46688247Y-54125686D01*
X46621419Y-54113194D01*
X46487766Y-54088210D01*
X46283814Y-54088210D01*
X46183574Y-54106948D01*
X46083332Y-54125686D01*
X45935980Y-54182770D01*
X45893153Y-54199362D01*
X45893152Y-54199362D01*
X45893151Y-54199363D01*
X45893141Y-54199368D01*
X45719750Y-54306727D01*
X45719749Y-54306728D01*
X45569024Y-54444131D01*
X45446119Y-54606885D01*
X45355206Y-54789464D01*
X45299393Y-54985625D01*
X45280575Y-55188710D01*
X43525500Y-55188710D01*
X43525500Y-52648710D01*
X45280575Y-52648710D01*
X45299393Y-52851794D01*
X45355206Y-53047955D01*
X45355207Y-53047957D01*
X45355208Y-53047960D01*
X45446117Y-53230531D01*
X45446118Y-53230532D01*
X45446119Y-53230534D01*
X45569024Y-53393288D01*
X45719749Y-53530691D01*
X45719750Y-53530692D01*
X45893141Y-53638051D01*
X45893144Y-53638052D01*
X45893153Y-53638058D01*
X46083334Y-53711734D01*
X46283814Y-53749210D01*
X46283816Y-53749210D01*
X46487764Y-53749210D01*
X46487766Y-53749210D01*
X46688246Y-53711734D01*
X46878427Y-53638058D01*
X47051831Y-53530691D01*
X47202554Y-53393289D01*
X47325463Y-53230531D01*
X47416372Y-53047960D01*
X47472187Y-52851793D01*
X47491005Y-52648710D01*
X47820575Y-52648710D01*
X47839393Y-52851794D01*
X47895206Y-53047955D01*
X47895207Y-53047957D01*
X47895208Y-53047960D01*
X47986117Y-53230531D01*
X47986118Y-53230532D01*
X47986119Y-53230534D01*
X48109024Y-53393288D01*
X48259749Y-53530691D01*
X48259750Y-53530692D01*
X48433141Y-53638051D01*
X48433144Y-53638052D01*
X48433153Y-53638058D01*
X48623334Y-53711734D01*
X48823814Y-53749210D01*
X48823816Y-53749210D01*
X49027764Y-53749210D01*
X49027766Y-53749210D01*
X49228246Y-53711734D01*
X49418427Y-53638058D01*
X49591831Y-53530691D01*
X49742554Y-53393289D01*
X49865463Y-53230531D01*
X49874357Y-53212669D01*
X72137887Y-53212669D01*
X72158285Y-53367604D01*
X72218085Y-53511979D01*
X72313218Y-53635958D01*
X72437197Y-53731091D01*
X72528239Y-53768800D01*
X72581573Y-53790892D01*
X72736508Y-53811290D01*
X72891443Y-53790892D01*
X72992073Y-53749210D01*
X73035818Y-53731091D01*
X73159797Y-53635958D01*
X73254930Y-53511979D01*
X73277020Y-53458646D01*
X73314731Y-53367604D01*
X73335129Y-53212669D01*
X73314731Y-53057734D01*
X73254929Y-52913359D01*
X73159797Y-52789380D01*
X73159795Y-52789378D01*
X73159794Y-52789377D01*
X73121509Y-52760000D01*
X75191379Y-52760000D01*
X75211777Y-52914935D01*
X75271577Y-53059310D01*
X75366710Y-53183289D01*
X75490689Y-53278422D01*
X75581731Y-53316131D01*
X75635065Y-53338223D01*
X75790000Y-53358621D01*
X75944935Y-53338223D01*
X76035977Y-53300512D01*
X76089310Y-53278422D01*
X76213289Y-53183289D01*
X76308422Y-53059310D01*
X76330512Y-53005977D01*
X76368223Y-52914935D01*
X76388621Y-52760000D01*
X76368223Y-52605065D01*
X76308421Y-52460690D01*
X76213289Y-52336711D01*
X76213287Y-52336709D01*
X76213286Y-52336708D01*
X76089310Y-52241577D01*
X75944935Y-52181777D01*
X75790000Y-52161379D01*
X75635066Y-52181776D01*
X75490691Y-52241578D01*
X75490688Y-52241580D01*
X75366711Y-52336711D01*
X75271580Y-52460688D01*
X75271578Y-52460691D01*
X75211776Y-52605066D01*
X75191379Y-52759999D01*
X75191379Y-52760000D01*
X73121509Y-52760000D01*
X73035818Y-52694246D01*
X72891443Y-52634446D01*
X72736508Y-52614048D01*
X72581574Y-52634445D01*
X72437199Y-52694247D01*
X72437196Y-52694249D01*
X72313219Y-52789380D01*
X72218088Y-52913357D01*
X72218086Y-52913360D01*
X72158284Y-53057735D01*
X72137887Y-53212668D01*
X72137887Y-53212669D01*
X49874357Y-53212669D01*
X49956372Y-53047960D01*
X50012187Y-52851793D01*
X50031005Y-52648710D01*
X50012187Y-52445627D01*
X49956372Y-52249460D01*
X49865463Y-52066889D01*
X49865460Y-52066885D01*
X49742555Y-51904131D01*
X49591830Y-51766728D01*
X49591829Y-51766727D01*
X49418438Y-51659368D01*
X49418431Y-51659364D01*
X49418427Y-51659362D01*
X49301923Y-51614228D01*
X49228247Y-51585686D01*
X49161419Y-51573194D01*
X49027766Y-51548210D01*
X48823814Y-51548210D01*
X48723574Y-51566948D01*
X48623332Y-51585686D01*
X48475980Y-51642770D01*
X48433153Y-51659362D01*
X48433152Y-51659362D01*
X48433151Y-51659363D01*
X48433141Y-51659368D01*
X48259750Y-51766727D01*
X48259749Y-51766728D01*
X48109024Y-51904131D01*
X47986119Y-52066885D01*
X47895206Y-52249464D01*
X47839393Y-52445625D01*
X47820575Y-52648710D01*
X47491005Y-52648710D01*
X47472187Y-52445627D01*
X47416372Y-52249460D01*
X47325463Y-52066889D01*
X47325460Y-52066885D01*
X47202555Y-51904131D01*
X47051830Y-51766728D01*
X47051829Y-51766727D01*
X46878438Y-51659368D01*
X46878431Y-51659364D01*
X46878427Y-51659362D01*
X46761923Y-51614228D01*
X46688247Y-51585686D01*
X46621419Y-51573194D01*
X46487766Y-51548210D01*
X46283814Y-51548210D01*
X46183574Y-51566948D01*
X46083332Y-51585686D01*
X45935980Y-51642770D01*
X45893153Y-51659362D01*
X45893152Y-51659362D01*
X45893151Y-51659363D01*
X45893141Y-51659368D01*
X45719750Y-51766727D01*
X45719749Y-51766728D01*
X45569024Y-51904131D01*
X45446119Y-52066885D01*
X45355206Y-52249464D01*
X45299393Y-52445625D01*
X45280575Y-52648710D01*
X43525500Y-52648710D01*
X43525500Y-50108710D01*
X45280575Y-50108710D01*
X45299393Y-50311794D01*
X45355206Y-50507955D01*
X45355207Y-50507957D01*
X45355208Y-50507960D01*
X45446117Y-50690531D01*
X45446118Y-50690532D01*
X45446119Y-50690534D01*
X45569024Y-50853288D01*
X45719749Y-50990691D01*
X45719750Y-50990692D01*
X45893141Y-51098051D01*
X45893144Y-51098052D01*
X45893153Y-51098058D01*
X46083334Y-51171734D01*
X46283814Y-51209210D01*
X46283816Y-51209210D01*
X46487764Y-51209210D01*
X46487766Y-51209210D01*
X46688246Y-51171734D01*
X46878427Y-51098058D01*
X47051831Y-50990691D01*
X47202554Y-50853289D01*
X47325463Y-50690531D01*
X47416372Y-50507960D01*
X47472187Y-50311793D01*
X47491005Y-50108710D01*
X47820575Y-50108710D01*
X47839393Y-50311794D01*
X47895206Y-50507955D01*
X47895207Y-50507957D01*
X47895208Y-50507960D01*
X47986117Y-50690531D01*
X47986118Y-50690532D01*
X47986119Y-50690534D01*
X48109024Y-50853288D01*
X48259749Y-50990691D01*
X48259750Y-50990692D01*
X48433141Y-51098051D01*
X48433144Y-51098052D01*
X48433153Y-51098058D01*
X48623334Y-51171734D01*
X48823814Y-51209210D01*
X48823816Y-51209210D01*
X49027764Y-51209210D01*
X49027766Y-51209210D01*
X49228246Y-51171734D01*
X49418427Y-51098058D01*
X49591831Y-50990691D01*
X49742554Y-50853289D01*
X49865463Y-50690531D01*
X49956372Y-50507960D01*
X50012187Y-50311793D01*
X50031005Y-50108710D01*
X50012187Y-49905627D01*
X49956372Y-49709460D01*
X49865463Y-49526889D01*
X49865460Y-49526885D01*
X49742555Y-49364131D01*
X49591830Y-49226728D01*
X49591829Y-49226727D01*
X49418438Y-49119368D01*
X49418431Y-49119364D01*
X49418427Y-49119362D01*
X49301923Y-49074228D01*
X49228247Y-49045686D01*
X49161419Y-49033194D01*
X49027766Y-49008210D01*
X48823814Y-49008210D01*
X48723574Y-49026948D01*
X48623332Y-49045686D01*
X48475980Y-49102770D01*
X48433153Y-49119362D01*
X48433152Y-49119362D01*
X48433151Y-49119363D01*
X48433141Y-49119368D01*
X48259750Y-49226727D01*
X48259749Y-49226728D01*
X48109024Y-49364131D01*
X47986119Y-49526885D01*
X47895206Y-49709464D01*
X47839393Y-49905625D01*
X47820575Y-50108710D01*
X47491005Y-50108710D01*
X47472187Y-49905627D01*
X47416372Y-49709460D01*
X47325463Y-49526889D01*
X47325460Y-49526885D01*
X47202555Y-49364131D01*
X47051830Y-49226728D01*
X47051829Y-49226727D01*
X46878438Y-49119368D01*
X46878431Y-49119364D01*
X46878427Y-49119362D01*
X46761923Y-49074228D01*
X46688247Y-49045686D01*
X46621419Y-49033194D01*
X46487766Y-49008210D01*
X46283814Y-49008210D01*
X46183574Y-49026948D01*
X46083332Y-49045686D01*
X45935980Y-49102770D01*
X45893153Y-49119362D01*
X45893152Y-49119362D01*
X45893151Y-49119363D01*
X45893141Y-49119368D01*
X45719750Y-49226727D01*
X45719749Y-49226728D01*
X45569024Y-49364131D01*
X45446119Y-49526885D01*
X45355206Y-49709464D01*
X45299393Y-49905625D01*
X45280575Y-50108710D01*
X43525500Y-50108710D01*
X43525500Y-47568710D01*
X47820575Y-47568710D01*
X47839393Y-47771794D01*
X47895206Y-47967955D01*
X47895207Y-47967957D01*
X47895208Y-47967960D01*
X47986117Y-48150531D01*
X47986118Y-48150532D01*
X47986119Y-48150534D01*
X48109024Y-48313288D01*
X48259749Y-48450691D01*
X48259750Y-48450692D01*
X48433141Y-48558051D01*
X48433144Y-48558052D01*
X48433153Y-48558058D01*
X48623334Y-48631734D01*
X48823814Y-48669210D01*
X48823816Y-48669210D01*
X49027764Y-48669210D01*
X49027766Y-48669210D01*
X49228246Y-48631734D01*
X49418427Y-48558058D01*
X49591831Y-48450691D01*
X49742554Y-48313289D01*
X49865463Y-48150531D01*
X49930459Y-48020000D01*
X77421379Y-48020000D01*
X77441777Y-48174935D01*
X77501577Y-48319310D01*
X77596710Y-48443289D01*
X77720689Y-48538422D01*
X77811731Y-48576131D01*
X77865065Y-48598223D01*
X78020000Y-48618621D01*
X78174935Y-48598223D01*
X78271920Y-48558051D01*
X78319310Y-48538422D01*
X78449841Y-48438262D01*
X78451000Y-48439772D01*
X78504064Y-48410790D01*
X78574880Y-48415846D01*
X78607565Y-48433945D01*
X78730689Y-48528422D01*
X78821731Y-48566131D01*
X78875065Y-48588223D01*
X79030000Y-48608621D01*
X79184935Y-48588223D01*
X79275977Y-48550512D01*
X79329310Y-48528422D01*
X79453289Y-48433289D01*
X79548422Y-48309310D01*
X79570512Y-48255977D01*
X79608223Y-48164935D01*
X79628621Y-48010000D01*
X79608223Y-47855065D01*
X79548421Y-47710690D01*
X79453289Y-47586711D01*
X79453287Y-47586709D01*
X79453286Y-47586708D01*
X79329310Y-47491577D01*
X79184935Y-47431777D01*
X79030000Y-47411379D01*
X78875066Y-47431776D01*
X78730691Y-47491578D01*
X78730688Y-47491580D01*
X78717656Y-47501580D01*
X78606711Y-47586711D01*
X78606710Y-47586712D01*
X78600159Y-47591739D01*
X78599002Y-47590231D01*
X78545907Y-47619216D01*
X78475092Y-47614143D01*
X78442434Y-47596055D01*
X78430253Y-47586708D01*
X78319311Y-47501579D01*
X78319310Y-47501578D01*
X78319307Y-47501576D01*
X78174935Y-47441777D01*
X78020000Y-47421379D01*
X77865066Y-47441776D01*
X77720691Y-47501578D01*
X77720688Y-47501580D01*
X77596711Y-47596711D01*
X77501580Y-47720688D01*
X77501578Y-47720691D01*
X77441776Y-47865066D01*
X77421379Y-48019999D01*
X77421379Y-48020000D01*
X49930459Y-48020000D01*
X49956372Y-47967960D01*
X50012187Y-47771793D01*
X50031005Y-47568710D01*
X50012187Y-47365627D01*
X49956372Y-47169460D01*
X49865463Y-46986889D01*
X49865460Y-46986885D01*
X49742555Y-46824131D01*
X49591830Y-46686728D01*
X49591829Y-46686727D01*
X49418438Y-46579368D01*
X49418431Y-46579364D01*
X49418427Y-46579362D01*
X49301923Y-46534228D01*
X49228247Y-46505686D01*
X49161419Y-46493194D01*
X49027766Y-46468210D01*
X48823814Y-46468210D01*
X48723574Y-46486948D01*
X48623332Y-46505686D01*
X48475980Y-46562770D01*
X48433153Y-46579362D01*
X48433152Y-46579362D01*
X48433151Y-46579363D01*
X48433141Y-46579368D01*
X48259750Y-46686727D01*
X48259749Y-46686728D01*
X48109024Y-46824131D01*
X47986119Y-46986885D01*
X47895206Y-47169464D01*
X47839393Y-47365625D01*
X47820575Y-47568710D01*
X43525500Y-47568710D01*
X43525500Y-45028710D01*
X45280575Y-45028710D01*
X45299393Y-45231794D01*
X45355206Y-45427955D01*
X45355207Y-45427957D01*
X45355208Y-45427960D01*
X45446117Y-45610531D01*
X45446118Y-45610532D01*
X45446119Y-45610534D01*
X45569024Y-45773288D01*
X45719749Y-45910691D01*
X45719750Y-45910692D01*
X45893141Y-46018051D01*
X45893144Y-46018052D01*
X45893153Y-46018058D01*
X46083334Y-46091734D01*
X46283814Y-46129210D01*
X46283816Y-46129210D01*
X46487764Y-46129210D01*
X46487766Y-46129210D01*
X46688246Y-46091734D01*
X46878427Y-46018058D01*
X47051831Y-45910691D01*
X47202554Y-45773289D01*
X47325463Y-45610531D01*
X47416372Y-45427960D01*
X47472187Y-45231793D01*
X47491005Y-45028710D01*
X47820575Y-45028710D01*
X47839393Y-45231794D01*
X47895206Y-45427955D01*
X47895207Y-45427957D01*
X47895208Y-45427960D01*
X47986117Y-45610531D01*
X47986118Y-45610532D01*
X47986119Y-45610534D01*
X48109024Y-45773288D01*
X48259749Y-45910691D01*
X48259750Y-45910692D01*
X48433141Y-46018051D01*
X48433144Y-46018052D01*
X48433153Y-46018058D01*
X48623334Y-46091734D01*
X48823814Y-46129210D01*
X48823816Y-46129210D01*
X49027764Y-46129210D01*
X49027766Y-46129210D01*
X49228246Y-46091734D01*
X49418427Y-46018058D01*
X49591831Y-45910691D01*
X49742554Y-45773289D01*
X49865463Y-45610531D01*
X49956372Y-45427960D01*
X50012187Y-45231793D01*
X50031005Y-45028710D01*
X50012187Y-44825627D01*
X49956372Y-44629460D01*
X49865463Y-44446889D01*
X49865460Y-44446885D01*
X49742555Y-44284131D01*
X49591830Y-44146728D01*
X49591829Y-44146727D01*
X49418438Y-44039368D01*
X49418431Y-44039364D01*
X49418427Y-44039362D01*
X49301923Y-43994228D01*
X49228247Y-43965686D01*
X49161419Y-43953194D01*
X49027766Y-43928210D01*
X48823814Y-43928210D01*
X48723574Y-43946948D01*
X48623332Y-43965686D01*
X48475980Y-44022770D01*
X48433153Y-44039362D01*
X48433152Y-44039362D01*
X48433151Y-44039363D01*
X48433141Y-44039368D01*
X48259750Y-44146727D01*
X48259749Y-44146728D01*
X48109024Y-44284131D01*
X47986119Y-44446885D01*
X47895206Y-44629464D01*
X47839393Y-44825625D01*
X47820575Y-45028710D01*
X47491005Y-45028710D01*
X47472187Y-44825627D01*
X47416372Y-44629460D01*
X47325463Y-44446889D01*
X47325460Y-44446885D01*
X47202555Y-44284131D01*
X47051830Y-44146728D01*
X47051829Y-44146727D01*
X46878438Y-44039368D01*
X46878431Y-44039364D01*
X46878427Y-44039362D01*
X46761923Y-43994228D01*
X46688247Y-43965686D01*
X46621419Y-43953194D01*
X46487766Y-43928210D01*
X46283814Y-43928210D01*
X46183574Y-43946948D01*
X46083332Y-43965686D01*
X45935980Y-44022770D01*
X45893153Y-44039362D01*
X45893152Y-44039362D01*
X45893151Y-44039363D01*
X45893141Y-44039368D01*
X45719750Y-44146727D01*
X45719749Y-44146728D01*
X45569024Y-44284131D01*
X45446119Y-44446885D01*
X45355206Y-44629464D01*
X45299393Y-44825625D01*
X45280575Y-45028710D01*
X43525500Y-45028710D01*
X43525500Y-42488710D01*
X45280575Y-42488710D01*
X45299393Y-42691794D01*
X45355206Y-42887955D01*
X45355207Y-42887957D01*
X45355208Y-42887960D01*
X45446117Y-43070531D01*
X45446118Y-43070532D01*
X45446119Y-43070534D01*
X45569024Y-43233288D01*
X45719749Y-43370691D01*
X45719750Y-43370692D01*
X45893141Y-43478051D01*
X45893144Y-43478052D01*
X45893153Y-43478058D01*
X46083334Y-43551734D01*
X46283814Y-43589210D01*
X46283816Y-43589210D01*
X46487764Y-43589210D01*
X46487766Y-43589210D01*
X46688246Y-43551734D01*
X46878427Y-43478058D01*
X47051831Y-43370691D01*
X47202554Y-43233289D01*
X47325463Y-43070531D01*
X47416372Y-42887960D01*
X47472187Y-42691793D01*
X47491005Y-42488710D01*
X47820575Y-42488710D01*
X47839393Y-42691794D01*
X47895206Y-42887955D01*
X47895207Y-42887957D01*
X47895208Y-42887960D01*
X47986117Y-43070531D01*
X47986118Y-43070532D01*
X47986119Y-43070534D01*
X48109024Y-43233288D01*
X48259749Y-43370691D01*
X48259750Y-43370692D01*
X48433141Y-43478051D01*
X48433144Y-43478052D01*
X48433153Y-43478058D01*
X48623334Y-43551734D01*
X48823814Y-43589210D01*
X48823816Y-43589210D01*
X49027764Y-43589210D01*
X49027766Y-43589210D01*
X49228246Y-43551734D01*
X49418427Y-43478058D01*
X49591831Y-43370691D01*
X49742554Y-43233289D01*
X49865463Y-43070531D01*
X49956372Y-42887960D01*
X50012187Y-42691793D01*
X50031005Y-42488710D01*
X50012187Y-42285627D01*
X49956372Y-42089460D01*
X49865463Y-41906889D01*
X49865460Y-41906885D01*
X49742555Y-41744131D01*
X49591830Y-41606728D01*
X49591829Y-41606727D01*
X49418438Y-41499368D01*
X49418431Y-41499364D01*
X49418427Y-41499362D01*
X49301923Y-41454228D01*
X49228247Y-41425686D01*
X49161419Y-41413194D01*
X49027766Y-41388210D01*
X48823814Y-41388210D01*
X48723574Y-41406948D01*
X48623332Y-41425686D01*
X48475980Y-41482770D01*
X48433153Y-41499362D01*
X48433152Y-41499362D01*
X48433151Y-41499363D01*
X48433141Y-41499368D01*
X48259750Y-41606727D01*
X48259749Y-41606728D01*
X48109024Y-41744131D01*
X47986119Y-41906885D01*
X47895206Y-42089464D01*
X47839393Y-42285625D01*
X47820575Y-42488710D01*
X47491005Y-42488710D01*
X47472187Y-42285627D01*
X47416372Y-42089460D01*
X47325463Y-41906889D01*
X47325460Y-41906885D01*
X47202555Y-41744131D01*
X47051830Y-41606728D01*
X47051829Y-41606727D01*
X46878438Y-41499368D01*
X46878431Y-41499364D01*
X46878427Y-41499362D01*
X46761923Y-41454228D01*
X46688247Y-41425686D01*
X46621419Y-41413194D01*
X46487766Y-41388210D01*
X46283814Y-41388210D01*
X46183574Y-41406948D01*
X46083332Y-41425686D01*
X45935980Y-41482770D01*
X45893153Y-41499362D01*
X45893152Y-41499362D01*
X45893151Y-41499363D01*
X45893141Y-41499368D01*
X45719750Y-41606727D01*
X45719749Y-41606728D01*
X45569024Y-41744131D01*
X45446119Y-41906885D01*
X45355206Y-42089464D01*
X45299393Y-42285625D01*
X45280575Y-42488710D01*
X43525500Y-42488710D01*
X43525500Y-39948710D01*
X45280575Y-39948710D01*
X45299393Y-40151794D01*
X45355206Y-40347955D01*
X45355207Y-40347957D01*
X45355208Y-40347960D01*
X45446117Y-40530531D01*
X45446118Y-40530532D01*
X45446119Y-40530534D01*
X45569024Y-40693288D01*
X45719749Y-40830691D01*
X45719750Y-40830692D01*
X45893141Y-40938051D01*
X45893144Y-40938052D01*
X45893153Y-40938058D01*
X46083334Y-41011734D01*
X46283814Y-41049210D01*
X46283816Y-41049210D01*
X46487764Y-41049210D01*
X46487766Y-41049210D01*
X46688246Y-41011734D01*
X46878427Y-40938058D01*
X47051831Y-40830691D01*
X47202554Y-40693289D01*
X47325463Y-40530531D01*
X47416372Y-40347960D01*
X47472187Y-40151793D01*
X47491005Y-39948710D01*
X47820575Y-39948710D01*
X47839393Y-40151794D01*
X47895206Y-40347955D01*
X47895207Y-40347957D01*
X47895208Y-40347960D01*
X47986117Y-40530531D01*
X47986118Y-40530532D01*
X47986119Y-40530534D01*
X48109024Y-40693288D01*
X48259749Y-40830691D01*
X48259750Y-40830692D01*
X48433141Y-40938051D01*
X48433144Y-40938052D01*
X48433153Y-40938058D01*
X48623334Y-41011734D01*
X48823814Y-41049210D01*
X48823816Y-41049210D01*
X49027764Y-41049210D01*
X49027766Y-41049210D01*
X49228246Y-41011734D01*
X49418427Y-40938058D01*
X49591831Y-40830691D01*
X49742554Y-40693289D01*
X49865463Y-40530531D01*
X49956372Y-40347960D01*
X50012187Y-40151793D01*
X50031005Y-39948710D01*
X50012187Y-39745627D01*
X49956372Y-39549460D01*
X49865463Y-39366889D01*
X49865460Y-39366885D01*
X49742555Y-39204131D01*
X49591830Y-39066728D01*
X49591829Y-39066727D01*
X49418438Y-38959368D01*
X49418431Y-38959364D01*
X49418427Y-38959362D01*
X49301923Y-38914228D01*
X49228247Y-38885686D01*
X49161419Y-38873194D01*
X49027766Y-38848210D01*
X48823814Y-38848210D01*
X48723574Y-38866948D01*
X48623332Y-38885686D01*
X48475980Y-38942770D01*
X48433153Y-38959362D01*
X48433152Y-38959362D01*
X48433151Y-38959363D01*
X48433141Y-38959368D01*
X48259750Y-39066727D01*
X48259749Y-39066728D01*
X48109024Y-39204131D01*
X47986119Y-39366885D01*
X47895206Y-39549464D01*
X47839393Y-39745625D01*
X47820575Y-39948710D01*
X47491005Y-39948710D01*
X47472187Y-39745627D01*
X47416372Y-39549460D01*
X47325463Y-39366889D01*
X47325460Y-39366885D01*
X47202555Y-39204131D01*
X47051830Y-39066728D01*
X47051829Y-39066727D01*
X46878438Y-38959368D01*
X46878431Y-38959364D01*
X46878427Y-38959362D01*
X46761923Y-38914228D01*
X46688247Y-38885686D01*
X46621419Y-38873194D01*
X46487766Y-38848210D01*
X46283814Y-38848210D01*
X46183574Y-38866948D01*
X46083332Y-38885686D01*
X45935980Y-38942770D01*
X45893153Y-38959362D01*
X45893152Y-38959362D01*
X45893151Y-38959363D01*
X45893141Y-38959368D01*
X45719750Y-39066727D01*
X45719749Y-39066728D01*
X45569024Y-39204131D01*
X45446119Y-39366885D01*
X45355206Y-39549464D01*
X45299393Y-39745625D01*
X45280575Y-39948710D01*
X43525500Y-39948710D01*
X43525500Y-37408710D01*
X45280575Y-37408710D01*
X45299393Y-37611794D01*
X45355206Y-37807955D01*
X45355207Y-37807957D01*
X45355208Y-37807960D01*
X45446117Y-37990531D01*
X45446118Y-37990532D01*
X45446119Y-37990534D01*
X45569024Y-38153288D01*
X45719749Y-38290691D01*
X45719750Y-38290692D01*
X45893141Y-38398051D01*
X45893144Y-38398052D01*
X45893153Y-38398058D01*
X46083334Y-38471734D01*
X46283814Y-38509210D01*
X46283816Y-38509210D01*
X46487764Y-38509210D01*
X46487766Y-38509210D01*
X46688246Y-38471734D01*
X46878427Y-38398058D01*
X47051831Y-38290691D01*
X47202554Y-38153289D01*
X47325463Y-37990531D01*
X47416372Y-37807960D01*
X47472187Y-37611793D01*
X47491005Y-37408710D01*
X47820575Y-37408710D01*
X47839393Y-37611794D01*
X47895206Y-37807955D01*
X47895207Y-37807957D01*
X47895208Y-37807960D01*
X47986117Y-37990531D01*
X47986118Y-37990532D01*
X47986119Y-37990534D01*
X48109024Y-38153288D01*
X48259749Y-38290691D01*
X48259750Y-38290692D01*
X48433141Y-38398051D01*
X48433144Y-38398052D01*
X48433153Y-38398058D01*
X48623334Y-38471734D01*
X48823814Y-38509210D01*
X48823816Y-38509210D01*
X49027764Y-38509210D01*
X49027766Y-38509210D01*
X49228246Y-38471734D01*
X49418427Y-38398058D01*
X49479893Y-38360000D01*
X62944415Y-38360000D01*
X62953105Y-38509210D01*
X62964738Y-38708927D01*
X63025431Y-39053136D01*
X63125674Y-39387971D01*
X63125676Y-39387977D01*
X63125677Y-39387978D01*
X63264109Y-39708901D01*
X63264111Y-39708904D01*
X63438870Y-40011596D01*
X63438873Y-40011600D01*
X63647589Y-40291954D01*
X63887445Y-40546186D01*
X64041471Y-40675429D01*
X64062756Y-40693289D01*
X64155193Y-40770852D01*
X64409417Y-40938058D01*
X64447207Y-40962913D01*
X64759549Y-41119777D01*
X64923769Y-41179548D01*
X65087980Y-41239316D01*
X65087981Y-41239316D01*
X65087989Y-41239319D01*
X65428086Y-41319923D01*
X65626460Y-41343109D01*
X65775238Y-41360500D01*
X65775241Y-41360500D01*
X66124762Y-41360500D01*
X66254942Y-41345283D01*
X66471914Y-41319923D01*
X66812011Y-41239319D01*
X67140451Y-41119777D01*
X67452793Y-40962913D01*
X67744811Y-40770849D01*
X68012558Y-40546183D01*
X68252412Y-40291953D01*
X68461130Y-40011596D01*
X68635889Y-39708904D01*
X68774326Y-39387971D01*
X68874569Y-39053136D01*
X68935262Y-38708927D01*
X68955585Y-38360000D01*
X68935262Y-38011073D01*
X68874569Y-37666864D01*
X68774326Y-37332029D01*
X68635889Y-37011096D01*
X68461130Y-36708404D01*
X68252412Y-36428047D01*
X68012558Y-36173817D01*
X68012556Y-36173816D01*
X68012554Y-36173813D01*
X67744806Y-35949147D01*
X67452800Y-35757091D01*
X67452796Y-35757089D01*
X67452793Y-35757087D01*
X67140451Y-35600223D01*
X67140446Y-35600221D01*
X67140441Y-35600219D01*
X66812019Y-35480683D01*
X66812012Y-35480681D01*
X66812011Y-35480681D01*
X66621016Y-35435414D01*
X66471919Y-35400078D01*
X66471909Y-35400076D01*
X66124762Y-35359500D01*
X66124759Y-35359500D01*
X65775241Y-35359500D01*
X65775238Y-35359500D01*
X65428090Y-35400076D01*
X65428080Y-35400078D01*
X65087989Y-35480681D01*
X65087980Y-35480683D01*
X64759558Y-35600219D01*
X64759553Y-35600221D01*
X64447199Y-35757091D01*
X64155193Y-35949147D01*
X63887445Y-36173813D01*
X63647589Y-36428045D01*
X63438873Y-36708399D01*
X63438863Y-36708415D01*
X63264112Y-37011093D01*
X63264109Y-37011098D01*
X63125677Y-37332021D01*
X63125674Y-37332029D01*
X63041918Y-37611793D01*
X63025431Y-37666864D01*
X63025431Y-37666865D01*
X62964738Y-38011074D01*
X62964737Y-38011083D01*
X62944415Y-38360000D01*
X49479893Y-38360000D01*
X49591831Y-38290691D01*
X49742554Y-38153289D01*
X49865463Y-37990531D01*
X49956372Y-37807960D01*
X50012187Y-37611793D01*
X50031005Y-37408710D01*
X50012187Y-37205627D01*
X49956372Y-37009460D01*
X49865463Y-36826889D01*
X49775996Y-36708415D01*
X49742555Y-36664131D01*
X49591830Y-36526728D01*
X49591829Y-36526727D01*
X49418438Y-36419368D01*
X49418431Y-36419364D01*
X49418427Y-36419362D01*
X49301923Y-36374228D01*
X49228247Y-36345686D01*
X49161419Y-36333194D01*
X49027766Y-36308210D01*
X48823814Y-36308210D01*
X48723574Y-36326948D01*
X48623332Y-36345686D01*
X48475980Y-36402770D01*
X48433153Y-36419362D01*
X48433152Y-36419362D01*
X48433151Y-36419363D01*
X48433141Y-36419368D01*
X48259750Y-36526727D01*
X48259749Y-36526728D01*
X48109024Y-36664131D01*
X47986119Y-36826885D01*
X47895206Y-37009464D01*
X47839393Y-37205625D01*
X47820575Y-37408710D01*
X47491005Y-37408710D01*
X47472187Y-37205627D01*
X47416372Y-37009460D01*
X47325463Y-36826889D01*
X47235996Y-36708415D01*
X47202555Y-36664131D01*
X47051830Y-36526728D01*
X47051829Y-36526727D01*
X46878438Y-36419368D01*
X46878431Y-36419364D01*
X46878427Y-36419362D01*
X46761923Y-36374228D01*
X46688247Y-36345686D01*
X46621419Y-36333194D01*
X46487766Y-36308210D01*
X46283814Y-36308210D01*
X46183574Y-36326948D01*
X46083332Y-36345686D01*
X45935980Y-36402770D01*
X45893153Y-36419362D01*
X45893152Y-36419362D01*
X45893151Y-36419363D01*
X45893141Y-36419368D01*
X45719750Y-36526727D01*
X45719749Y-36526728D01*
X45569024Y-36664131D01*
X45446119Y-36826885D01*
X45355206Y-37009464D01*
X45299393Y-37205625D01*
X45280575Y-37408710D01*
X43525500Y-37408710D01*
X43525500Y-34868710D01*
X45280575Y-34868710D01*
X45299393Y-35071794D01*
X45355206Y-35267955D01*
X45355207Y-35267957D01*
X45355208Y-35267960D01*
X45446117Y-35450531D01*
X45446118Y-35450532D01*
X45446119Y-35450534D01*
X45569024Y-35613288D01*
X45719749Y-35750691D01*
X45719750Y-35750692D01*
X45893141Y-35858051D01*
X45893144Y-35858052D01*
X45893153Y-35858058D01*
X46083334Y-35931734D01*
X46283814Y-35969210D01*
X46283816Y-35969210D01*
X46487764Y-35969210D01*
X46487766Y-35969210D01*
X46688246Y-35931734D01*
X46878427Y-35858058D01*
X47051831Y-35750691D01*
X47202554Y-35613289D01*
X47212423Y-35600221D01*
X47302693Y-35480683D01*
X47325463Y-35450531D01*
X47416372Y-35267960D01*
X47472187Y-35071793D01*
X47491005Y-34868710D01*
X47820575Y-34868710D01*
X47839393Y-35071794D01*
X47895206Y-35267955D01*
X47895207Y-35267957D01*
X47895208Y-35267960D01*
X47986117Y-35450531D01*
X47986118Y-35450532D01*
X47986119Y-35450534D01*
X48109024Y-35613288D01*
X48259749Y-35750691D01*
X48259750Y-35750692D01*
X48433141Y-35858051D01*
X48433144Y-35858052D01*
X48433153Y-35858058D01*
X48623334Y-35931734D01*
X48823814Y-35969210D01*
X48823816Y-35969210D01*
X49027764Y-35969210D01*
X49027766Y-35969210D01*
X49228246Y-35931734D01*
X49418427Y-35858058D01*
X49591831Y-35750691D01*
X49742554Y-35613289D01*
X49752423Y-35600221D01*
X49842693Y-35480683D01*
X49865463Y-35450531D01*
X49956372Y-35267960D01*
X50012187Y-35071793D01*
X50031005Y-34868710D01*
X50012187Y-34665627D01*
X49956372Y-34469460D01*
X49865463Y-34286889D01*
X49865460Y-34286885D01*
X49742555Y-34124131D01*
X49591830Y-33986728D01*
X49591829Y-33986727D01*
X49418438Y-33879368D01*
X49418431Y-33879364D01*
X49418427Y-33879362D01*
X49301923Y-33834228D01*
X49228247Y-33805686D01*
X49161419Y-33793194D01*
X49027766Y-33768210D01*
X48823814Y-33768210D01*
X48723574Y-33786948D01*
X48623332Y-33805686D01*
X48475980Y-33862770D01*
X48433153Y-33879362D01*
X48433152Y-33879362D01*
X48433151Y-33879363D01*
X48433141Y-33879368D01*
X48259750Y-33986727D01*
X48259749Y-33986728D01*
X48109024Y-34124131D01*
X47986119Y-34286885D01*
X47895206Y-34469464D01*
X47839393Y-34665625D01*
X47820575Y-34868710D01*
X47491005Y-34868710D01*
X47472187Y-34665627D01*
X47416372Y-34469460D01*
X47325463Y-34286889D01*
X47325460Y-34286885D01*
X47202555Y-34124131D01*
X47051830Y-33986728D01*
X47051829Y-33986727D01*
X46878438Y-33879368D01*
X46878431Y-33879364D01*
X46878427Y-33879362D01*
X46761923Y-33834228D01*
X46688247Y-33805686D01*
X46621419Y-33793194D01*
X46487766Y-33768210D01*
X46283814Y-33768210D01*
X46183574Y-33786948D01*
X46083332Y-33805686D01*
X45935980Y-33862770D01*
X45893153Y-33879362D01*
X45893152Y-33879362D01*
X45893151Y-33879363D01*
X45893141Y-33879368D01*
X45719750Y-33986727D01*
X45719749Y-33986728D01*
X45569024Y-34124131D01*
X45446119Y-34286885D01*
X45355206Y-34469464D01*
X45299393Y-34665625D01*
X45280575Y-34868710D01*
X43525500Y-34868710D01*
X43525500Y-32328710D01*
X45280575Y-32328710D01*
X45299393Y-32531794D01*
X45355206Y-32727955D01*
X45355207Y-32727957D01*
X45355208Y-32727960D01*
X45446117Y-32910531D01*
X45446118Y-32910532D01*
X45446119Y-32910534D01*
X45569024Y-33073288D01*
X45719749Y-33210691D01*
X45719750Y-33210692D01*
X45893141Y-33318051D01*
X45893144Y-33318052D01*
X45893153Y-33318058D01*
X46083334Y-33391734D01*
X46283814Y-33429210D01*
X46283816Y-33429210D01*
X46487764Y-33429210D01*
X46487766Y-33429210D01*
X46688246Y-33391734D01*
X46878427Y-33318058D01*
X47051831Y-33210691D01*
X47202554Y-33073289D01*
X47325463Y-32910531D01*
X47416372Y-32727960D01*
X47472187Y-32531793D01*
X47491005Y-32328710D01*
X47820575Y-32328710D01*
X47839393Y-32531794D01*
X47895206Y-32727955D01*
X47895207Y-32727957D01*
X47895208Y-32727960D01*
X47986117Y-32910531D01*
X47986118Y-32910532D01*
X47986119Y-32910534D01*
X48109024Y-33073288D01*
X48259749Y-33210691D01*
X48259750Y-33210692D01*
X48433141Y-33318051D01*
X48433144Y-33318052D01*
X48433153Y-33318058D01*
X48623334Y-33391734D01*
X48823814Y-33429210D01*
X48823816Y-33429210D01*
X49027764Y-33429210D01*
X49027766Y-33429210D01*
X49228246Y-33391734D01*
X49418427Y-33318058D01*
X49591831Y-33210691D01*
X49742554Y-33073289D01*
X49865463Y-32910531D01*
X49956372Y-32727960D01*
X50012187Y-32531793D01*
X50031005Y-32328710D01*
X50012187Y-32125627D01*
X49956372Y-31929460D01*
X49865463Y-31746889D01*
X49865460Y-31746885D01*
X49742555Y-31584131D01*
X49591830Y-31446728D01*
X49591829Y-31446727D01*
X49418438Y-31339368D01*
X49418431Y-31339364D01*
X49418427Y-31339362D01*
X49301923Y-31294228D01*
X49228247Y-31265686D01*
X49161419Y-31253194D01*
X49027766Y-31228210D01*
X48823814Y-31228210D01*
X48723574Y-31246948D01*
X48623332Y-31265686D01*
X48475980Y-31322770D01*
X48433153Y-31339362D01*
X48433152Y-31339362D01*
X48433151Y-31339363D01*
X48433141Y-31339368D01*
X48259750Y-31446727D01*
X48259749Y-31446728D01*
X48109024Y-31584131D01*
X47986119Y-31746885D01*
X47895206Y-31929464D01*
X47839393Y-32125625D01*
X47820575Y-32328710D01*
X47491005Y-32328710D01*
X47472187Y-32125627D01*
X47416372Y-31929460D01*
X47325463Y-31746889D01*
X47325460Y-31746885D01*
X47202555Y-31584131D01*
X47051830Y-31446728D01*
X47051829Y-31446727D01*
X46878438Y-31339368D01*
X46878431Y-31339364D01*
X46878427Y-31339362D01*
X46761923Y-31294228D01*
X46688247Y-31265686D01*
X46621419Y-31253194D01*
X46487766Y-31228210D01*
X46283814Y-31228210D01*
X46183574Y-31246948D01*
X46083332Y-31265686D01*
X45935980Y-31322770D01*
X45893153Y-31339362D01*
X45893152Y-31339362D01*
X45893151Y-31339363D01*
X45893141Y-31339368D01*
X45719750Y-31446727D01*
X45719749Y-31446728D01*
X45569024Y-31584131D01*
X45446119Y-31746885D01*
X45355206Y-31929464D01*
X45299393Y-32125625D01*
X45280575Y-32328710D01*
X43525500Y-32328710D01*
X43525500Y-29788710D01*
X45280575Y-29788710D01*
X45299393Y-29991794D01*
X45355206Y-30187955D01*
X45355207Y-30187957D01*
X45355208Y-30187960D01*
X45446117Y-30370531D01*
X45446118Y-30370532D01*
X45446119Y-30370534D01*
X45569024Y-30533288D01*
X45719749Y-30670691D01*
X45719750Y-30670692D01*
X45893141Y-30778051D01*
X45893144Y-30778052D01*
X45893153Y-30778058D01*
X46083334Y-30851734D01*
X46283814Y-30889210D01*
X46283816Y-30889210D01*
X46487764Y-30889210D01*
X46487766Y-30889210D01*
X46688246Y-30851734D01*
X46878427Y-30778058D01*
X47051831Y-30670691D01*
X47202554Y-30533289D01*
X47325463Y-30370531D01*
X47416372Y-30187960D01*
X47472187Y-29991793D01*
X47491005Y-29788710D01*
X47820575Y-29788710D01*
X47839393Y-29991794D01*
X47895206Y-30187955D01*
X47895207Y-30187957D01*
X47895208Y-30187960D01*
X47986117Y-30370531D01*
X47986118Y-30370532D01*
X47986119Y-30370534D01*
X48109024Y-30533288D01*
X48259749Y-30670691D01*
X48259750Y-30670692D01*
X48433141Y-30778051D01*
X48433144Y-30778052D01*
X48433153Y-30778058D01*
X48623334Y-30851734D01*
X48823814Y-30889210D01*
X48823816Y-30889210D01*
X49027764Y-30889210D01*
X49027766Y-30889210D01*
X49228246Y-30851734D01*
X49418427Y-30778058D01*
X49591831Y-30670691D01*
X49742554Y-30533289D01*
X49865463Y-30370531D01*
X49956372Y-30187960D01*
X50012187Y-29991793D01*
X50031005Y-29788710D01*
X50012187Y-29585627D01*
X49956372Y-29389460D01*
X49865463Y-29206889D01*
X49760402Y-29067765D01*
X51445788Y-29067765D01*
X51475412Y-29337014D01*
X51543928Y-29599090D01*
X51649869Y-29848389D01*
X51649870Y-29848390D01*
X51790982Y-30079610D01*
X51964255Y-30287820D01*
X51964257Y-30287822D01*
X51964259Y-30287824D01*
X52069236Y-30381883D01*
X52165998Y-30468582D01*
X52391910Y-30618044D01*
X52637176Y-30733020D01*
X52896569Y-30811060D01*
X52896572Y-30811060D01*
X52896574Y-30811061D01*
X53164557Y-30850500D01*
X53164561Y-30850500D01*
X53367631Y-30850500D01*
X53570156Y-30835677D01*
X53570160Y-30835676D01*
X53570161Y-30835676D01*
X53680665Y-30811060D01*
X53834553Y-30776780D01*
X54087558Y-30680014D01*
X54323777Y-30547441D01*
X54538177Y-30381888D01*
X54726186Y-30186881D01*
X54883799Y-29966579D01*
X55007656Y-29725675D01*
X55095118Y-29469305D01*
X55119718Y-29336119D01*
X55144318Y-29202941D01*
X55144319Y-29202930D01*
X55154212Y-28932235D01*
X55139338Y-28797058D01*
X55124587Y-28662985D01*
X55056071Y-28400909D01*
X54950130Y-28151610D01*
X54932904Y-28123384D01*
X54809018Y-27920390D01*
X54635745Y-27712180D01*
X54635741Y-27712177D01*
X54635740Y-27712175D01*
X54434012Y-27531427D01*
X54434002Y-27531418D01*
X54208090Y-27381956D01*
X53962824Y-27266980D01*
X53805392Y-27219615D01*
X53703425Y-27188938D01*
X53435442Y-27149500D01*
X53435439Y-27149500D01*
X53232369Y-27149500D01*
X53029839Y-27164323D01*
X53029838Y-27164323D01*
X52765456Y-27223217D01*
X52765441Y-27223222D01*
X52512441Y-27319986D01*
X52276229Y-27452555D01*
X52276225Y-27452557D01*
X52061818Y-27618116D01*
X51873815Y-27813117D01*
X51873810Y-27813123D01*
X51716203Y-28033417D01*
X51716196Y-28033427D01*
X51592343Y-28274324D01*
X51592342Y-28274327D01*
X51504883Y-28530689D01*
X51504880Y-28530702D01*
X51455681Y-28797058D01*
X51455680Y-28797069D01*
X51445788Y-29067765D01*
X49760402Y-29067765D01*
X49742555Y-29044131D01*
X49591830Y-28906728D01*
X49591829Y-28906727D01*
X49418438Y-28799368D01*
X49418431Y-28799364D01*
X49418427Y-28799362D01*
X49301923Y-28754228D01*
X49228247Y-28725686D01*
X49161419Y-28713194D01*
X49027766Y-28688210D01*
X48823814Y-28688210D01*
X48723574Y-28706948D01*
X48623332Y-28725686D01*
X48475980Y-28782770D01*
X48433153Y-28799362D01*
X48433152Y-28799362D01*
X48433151Y-28799363D01*
X48433141Y-28799368D01*
X48259750Y-28906727D01*
X48259749Y-28906728D01*
X48109024Y-29044131D01*
X47986119Y-29206885D01*
X47895206Y-29389464D01*
X47839393Y-29585625D01*
X47820575Y-29788710D01*
X47491005Y-29788710D01*
X47472187Y-29585627D01*
X47416372Y-29389460D01*
X47325463Y-29206889D01*
X47220402Y-29067765D01*
X47202555Y-29044131D01*
X47051830Y-28906728D01*
X47051829Y-28906727D01*
X46878438Y-28799368D01*
X46878431Y-28799364D01*
X46878427Y-28799362D01*
X46761923Y-28754228D01*
X46688247Y-28725686D01*
X46621419Y-28713194D01*
X46487766Y-28688210D01*
X46283814Y-28688210D01*
X46183574Y-28706948D01*
X46083332Y-28725686D01*
X45935980Y-28782770D01*
X45893153Y-28799362D01*
X45893152Y-28799362D01*
X45893151Y-28799363D01*
X45893141Y-28799368D01*
X45719750Y-28906727D01*
X45719749Y-28906728D01*
X45569024Y-29044131D01*
X45446119Y-29206885D01*
X45355206Y-29389464D01*
X45299393Y-29585625D01*
X45280575Y-29788710D01*
X43525500Y-29788710D01*
X43525500Y-27248710D01*
X45280575Y-27248710D01*
X45299393Y-27451794D01*
X45355206Y-27647955D01*
X45355207Y-27647957D01*
X45355208Y-27647960D01*
X45446117Y-27830531D01*
X45446118Y-27830532D01*
X45446119Y-27830534D01*
X45569024Y-27993288D01*
X45719749Y-28130691D01*
X45719750Y-28130692D01*
X45893141Y-28238051D01*
X45893144Y-28238052D01*
X45893153Y-28238058D01*
X46083334Y-28311734D01*
X46283814Y-28349210D01*
X46283816Y-28349210D01*
X46487764Y-28349210D01*
X46487766Y-28349210D01*
X46688246Y-28311734D01*
X46878427Y-28238058D01*
X47051831Y-28130691D01*
X47059843Y-28123387D01*
X47825290Y-28123387D01*
X47839823Y-28196449D01*
X47839824Y-28196450D01*
X47895189Y-28279311D01*
X47978050Y-28334676D01*
X48051116Y-28349210D01*
X49800464Y-28349210D01*
X49873530Y-28334676D01*
X49956391Y-28279311D01*
X50011756Y-28196450D01*
X50026290Y-28123384D01*
X50026290Y-26374036D01*
X50011756Y-26300970D01*
X49956391Y-26218109D01*
X49873530Y-26162744D01*
X49873529Y-26162743D01*
X49800467Y-26148210D01*
X49800464Y-26148210D01*
X48051116Y-26148210D01*
X48051112Y-26148210D01*
X47978050Y-26162743D01*
X47895189Y-26218109D01*
X47839823Y-26300970D01*
X47825290Y-26374032D01*
X47825290Y-28123387D01*
X47059843Y-28123387D01*
X47202554Y-27993289D01*
X47325463Y-27830531D01*
X47416372Y-27647960D01*
X47472187Y-27451793D01*
X47491005Y-27248710D01*
X47472187Y-27045627D01*
X47416372Y-26849460D01*
X47325463Y-26666889D01*
X47325460Y-26666885D01*
X47202555Y-26504131D01*
X47051830Y-26366728D01*
X47051829Y-26366727D01*
X46878438Y-26259368D01*
X46878431Y-26259364D01*
X46878427Y-26259362D01*
X46761923Y-26214228D01*
X46688247Y-26185686D01*
X46565516Y-26162744D01*
X46487766Y-26148210D01*
X46283814Y-26148210D01*
X46206069Y-26162743D01*
X46083332Y-26185686D01*
X45935980Y-26242770D01*
X45893153Y-26259362D01*
X45893152Y-26259362D01*
X45893151Y-26259363D01*
X45893141Y-26259368D01*
X45719750Y-26366727D01*
X45719749Y-26366728D01*
X45569024Y-26504131D01*
X45446119Y-26666885D01*
X45355206Y-26849464D01*
X45299393Y-27045625D01*
X45280575Y-27248710D01*
X43525500Y-27248710D01*
X43525500Y-24151500D01*
X43545502Y-24083379D01*
X43599158Y-24036886D01*
X43651500Y-24025500D01*
X46469863Y-24025500D01*
X46480425Y-24027601D01*
X46500000Y-24027601D01*
X46519517Y-24019517D01*
X46525500Y-24005072D01*
X46527601Y-24000000D01*
X46527600Y-23999998D01*
X46527601Y-23999997D01*
X46527601Y-23980435D01*
X46525500Y-23969867D01*
X46525500Y-13821500D01*
X46545502Y-13753379D01*
X46599158Y-13706886D01*
X46651500Y-13695500D01*
X57088500Y-13695500D01*
X57156621Y-13715502D01*
G37*
%TD.AperFunction*%
%TD*%
M02*
