M48
; DRILL file {KiCad 5.1.9+dfsg1-1} date Wed Aug  4 00:34:59 2021
; FORMAT={-:-/ absolute / inch / decimal}
; #@! TF.CreationDate,2021-08-04T00:34:59+03:00
; #@! TF.GenerationSoftware,Kicad,Pcbnew,5.1.9+dfsg1-1
FMAT,2
INCH
T1C0.0130
T2C0.0315
T3C0.0394
T4C0.0669
T5C0.1260
%
G90
G05
T1
X1.7866Y-1.0025
X1.8913Y-0.6886
X1.8913Y-0.8979
X1.8913Y-3.6187
X1.8913Y-3.828
X1.961Y-0.9677
X1.9959Y-0.6537
X1.9959Y-0.863
X1.9959Y-1.1769
X1.9959Y-3.514
X1.9959Y-3.6536
X1.9959Y-3.7931
X2.0031Y-2.8201
X2.0043Y-2.7661
X2.0308Y-0.7584
X2.0308Y-1.0374
X2.0308Y-1.2816
X2.0308Y-3.3745
X2.0308Y-3.8977
X2.0657Y-0.9328
X2.1006Y-0.6886
X2.1006Y-1.1072
X2.1006Y-1.3514
X2.1006Y-3.3047
X2.1006Y-3.6187
X2.1006Y-3.828
X2.1354Y-1.0025
X2.1354Y-1.2118
X2.1685Y-3.0
X2.1697Y-3.0472
X2.1703Y-0.8979
X2.1703Y-1.4211
X2.1703Y-2.2932
X2.1703Y-2.8862
X2.1703Y-3.1303
X2.1703Y-3.5489
X2.2052Y-0.584
X2.2052Y-0.7235
X2.2052Y-1.0723
X2.2052Y-1.2816
X2.2052Y-2.0839
X2.2052Y-3.235
X2.2052Y-3.6536
X2.2052Y-3.7931
X2.2052Y-3.9326
X2.2401Y-1.1769
X2.2401Y-1.4909
X2.2484Y-3.0378
X2.275Y-1.3514
X2.275Y-2.921
X2.275Y-3.3745
X2.2756Y-3.0654
X2.3099Y-1.2467
X2.3099Y-1.5606
X2.3099Y-2.2932
X2.3099Y-3.2001
X2.3447Y-1.4211
X2.3447Y-2.0839
X2.3796Y-1.1769
X2.3796Y-1.3165
X2.3796Y-1.6304
X2.3796Y-2.8862
X2.4145Y-1.4909
X2.4145Y-3.235
X2.4145Y-3.3745
X2.4494Y-1.2467
X2.4494Y-1.3862
X2.4494Y-1.7002
X2.4665Y-2.3866
X2.4843Y-1.5606
X2.4843Y-2.8164
X2.5043Y-2.3866
X2.5191Y-1.1769
X2.5191Y-1.3165
X2.5191Y-1.456
X2.5191Y-3.2001
X2.5516Y-2.1646
X2.5531Y-2.111
X2.554Y-1.6304
X2.554Y-2.2234
X2.554Y-2.7466
X2.554Y-2.8862
X2.554Y-3.0257
X2.554Y-3.3745
X2.5752Y-2.302
X2.5889Y-1.2467
X2.5889Y-1.3862
X2.5889Y-1.5258
X2.5889Y-1.7351
X2.6236Y-2.3024
X2.6238Y-2.1536
X2.6238Y-2.6769
X2.6238Y-2.8164
X2.6238Y-2.9559
X2.6238Y-3.235
X2.6508Y-2.0925
X2.6587Y-1.1769
X2.6587Y-1.3165
X2.6587Y-1.456
X2.6587Y-1.5955
X2.6936Y-1.7002
X2.6936Y-2.6071
X2.6936Y-2.7466
X2.6936Y-3.3745
X2.6961Y-2.0909
X2.7284Y-1.2467
X2.7284Y-1.3862
X2.7284Y-1.5258
X2.7284Y-2.9908
X2.7284Y-3.2001
X2.7543Y-2.1965
X2.7547Y-2.226
X2.7633Y-1.6304
X2.7633Y-2.5373
X2.7633Y-2.6769
X2.7633Y-2.8164
X2.7854Y-2.3394
X2.7982Y-1.1769
X2.7982Y-1.3165
X2.7982Y-1.456
X2.7982Y-1.7351
X2.7982Y-2.3978
X2.8185Y-1.926
X2.8295Y-2.3394
X2.8331Y-1.5606
X2.8331Y-2.6071
X2.8331Y-2.7466
X2.8331Y-3.1652
X2.8331Y-3.3745
X2.8636Y-2.095
X2.868Y-1.2467
X2.868Y-1.3862
X2.868Y-1.6653
X2.868Y-2.4676
X2.8724Y-1.9256
X2.8866Y-2.2177
X2.9029Y-1.4909
X2.9029Y-3.235
X2.9377Y-1.1769
X2.9377Y-1.3165
X2.9377Y-1.5955
X2.9377Y-1.7351
X2.9377Y-2.5373
X2.9377Y-2.6769
X2.9377Y-2.8164
X2.9429Y-2.2996
X2.9445Y-2.1634
X2.9726Y-1.4211
X2.9726Y-3.1652
X2.9726Y-3.3745
X2.9839Y-2.0772
X3.0075Y-1.2467
X3.0075Y-1.5258
X3.0075Y-1.6653
X3.0291Y-2.2902
X3.0424Y-1.3514
X3.0424Y-3.235
X3.0465Y-2.0815
X3.0773Y-1.1769
X3.0773Y-1.456
X3.0773Y-1.5955
X3.0773Y-1.7351
X3.0945Y-2.1713
X3.1121Y-1.2816
X3.1121Y-2.0839
X3.1121Y-2.2234
X3.1121Y-2.3629
X3.1121Y-2.5025
X3.1121Y-2.642
X3.1121Y-2.7815
X3.1121Y-3.1652
X3.1121Y-3.3745
X3.147Y-1.3862
X3.147Y-1.5258
X3.147Y-1.6653
X3.1819Y-1.2118
X3.1819Y-2.1536
X3.1819Y-2.2932
X3.1819Y-2.4327
X3.1819Y-2.5722
X3.1819Y-2.7117
X3.1819Y-2.8513
X3.1819Y-3.0606
X3.1819Y-3.235
X3.2063Y-2.0583
X3.2067Y-2.0157
X3.2168Y-1.3165
X3.2168Y-1.456
X3.2168Y-1.5955
X3.2168Y-1.7351
X3.2168Y-2.9559
X3.2517Y-2.5025
X3.2517Y-2.642
X3.2517Y-2.7815
X3.2517Y-3.1303
X3.2517Y-3.3745
X3.2866Y-1.1769
X3.2866Y-1.3862
X3.2866Y-1.5258
X3.2866Y-1.6653
X3.2866Y-2.8862
X3.2866Y-3.0257
X3.3214Y-1.2816
X3.3214Y-1.7699
X3.3214Y-2.2234
X3.3214Y-2.5722
X3.3214Y-2.7117
X3.3214Y-3.2001
X3.3236Y-2.0925
X3.3563Y-1.456
X3.3563Y-1.5955
X3.3563Y-1.8746
X3.3563Y-2.328
X3.3563Y-2.8164
X3.3563Y-3.0954
X3.3728Y-2.0933
X3.3791Y-2.5331
X3.3846Y-2.4059
X3.3912Y-1.2118
X3.3912Y-1.3514
X3.3912Y-1.7002
X3.3912Y-2.642
X3.4146Y-2.3217
X3.4261Y-1.5258
X3.4261Y-1.8048
X3.4261Y-1.9443
X3.4261Y-2.7466
X3.461Y-1.2816
X3.461Y-1.4211
X3.461Y-1.6304
X3.461Y-2.049
X3.461Y-2.1885
X3.461Y-2.8513
X3.4958Y-1.1769
X3.4958Y-1.7351
X3.4958Y-1.8746
X3.4958Y-2.6769
X3.4958Y-3.3745
X3.5047Y-2.5248
X3.5059Y-2.489
X3.5114Y-2.2543
X3.5295Y-2.5945
X3.5307Y-1.3514
X3.5307Y-1.4909
X3.5307Y-1.9792
X3.5307Y-2.1188
X3.5319Y-2.5559
X3.5656Y-1.2467
X3.5656Y-1.5955
X3.5656Y-1.8048
X3.5656Y-3.3047
X3.6005Y-1.4211
X3.6005Y-1.7002
X3.6005Y-1.9095
X3.6005Y-2.049
X3.626Y-2.4378
X3.626Y-2.4862
X3.6354Y-1.1769
X3.6354Y-1.3165
X3.6354Y-1.5258
X3.6354Y-2.1536
X3.6354Y-2.8862
X3.6354Y-3.0257
X3.6354Y-3.235
X3.6354Y-3.3745
X3.6703Y-1.6304
X3.6703Y-1.7699
X3.6703Y-1.9792
X3.6717Y-2.274
X3.7051Y-1.2467
X3.7051Y-1.3862
X3.7051Y-1.8746
X3.7051Y-2.0839
X3.7051Y-2.8164
X3.7051Y-3.1652
X3.7051Y-3.3047
X3.7079Y-2.3051
X3.74Y-1.4909
X3.74Y-1.7002
X3.74Y-2.1885
X3.74Y-2.7117
X3.74Y-3.0606
X3.7409Y-2.4862
X3.7449Y-2.348
X3.7453Y-2.4173
X3.7669Y-2.5512
X3.7749Y-1.1769
X3.7749Y-1.3165
X3.7749Y-1.5955
X3.7749Y-1.8048
X3.7749Y-1.9443
X3.7749Y-3.3745
X3.8098Y-1.4211
X3.8098Y-2.049
X3.8098Y-2.8513
X3.8224Y-2.5504
X3.8429Y-2.4535
X3.8447Y-1.2467
X3.8447Y-1.5258
X3.8447Y-1.6653
X3.8447Y-1.8746
X3.8447Y-2.1536
X3.8447Y-3.1652
X3.8453Y-2.5079
X3.874Y-2.3228
X3.8756Y-2.2823
X3.8795Y-1.3514
X3.8795Y-1.7699
X3.8795Y-1.9792
X3.8795Y-2.9908
X3.9144Y-1.1769
X3.9144Y-1.456
X3.9144Y-1.5955
X3.9144Y-2.0839
X3.9144Y-2.2234
X3.9493Y-1.2816
X3.9493Y-1.7002
X3.9493Y-1.8397
X3.9493Y-2.328
X3.9493Y-3.2001
X3.9842Y-1.3862
X3.9842Y-1.5258
X3.9842Y-1.9443
X3.9842Y-2.1536
X3.9842Y-3.0257
X4.0191Y-1.2118
X4.0191Y-1.6304
X4.0191Y-1.7699
X4.0191Y-2.049
X4.0191Y-2.2583
X4.0191Y-2.3978
X4.0191Y-2.5373
X4.0191Y-2.6769
X4.0191Y-2.8513
X4.0191Y-3.1303
X4.0191Y-3.2699
X4.054Y-1.3165
X4.054Y-1.456
X4.054Y-1.8746
X4.054Y-2.9559
X4.0888Y-1.5606
X4.0888Y-1.7002
X4.0888Y-1.9792
X4.0888Y-2.1188
X4.0888Y-2.328
X4.0888Y-2.4676
X4.0888Y-2.6071
X4.0888Y-2.7466
X4.0888Y-3.0606
X4.0888Y-3.2001
X4.0888Y-3.3396
X4.1237Y-1.1769
X4.1237Y-1.3862
X4.1237Y-1.8048
X4.1237Y-2.2234
X4.1586Y-1.2816
X4.1586Y-1.4909
X4.1586Y-1.6304
X4.1586Y-1.9095
X4.1586Y-2.049
X4.1586Y-2.3978
X4.1586Y-2.5373
X4.1586Y-2.6769
X4.1586Y-2.8164
X4.1586Y-2.9908
X4.1586Y-3.1303
X4.1586Y-3.2699
X4.1935Y-1.7351
X4.1935Y-2.1536
X4.1935Y-2.2932
X4.1935Y-3.3745
X4.2284Y-1.2118
X4.2284Y-1.3514
X4.2284Y-1.5606
X4.2284Y-1.8397
X4.2284Y-1.9792
X4.2284Y-2.4676
X4.2284Y-2.6071
X4.2284Y-2.7466
X4.2284Y-2.921
X4.2284Y-3.0606
X4.2284Y-3.2001
X4.2632Y-1.456
X4.2632Y-1.6653
X4.2632Y-2.0839
X4.2632Y-2.2234
X4.2632Y-2.3629
X4.2632Y-3.3047
X4.2981Y-1.2816
X4.2981Y-1.7699
X4.2981Y-1.9095
X4.2981Y-2.5373
X4.2981Y-2.6769
X4.2981Y-2.8164
X4.2981Y-2.9908
X4.2981Y-3.1303
X4.333Y-1.1769
X4.333Y-1.3862
X4.333Y-1.5258
X4.333Y-2.0141
X4.333Y-2.1536
X4.333Y-2.2932
X4.333Y-2.4327
X4.333Y-3.235
X4.333Y-3.3745
X4.3679Y-1.6304
X4.3679Y-1.8397
X4.3679Y-2.6071
X4.3679Y-2.7466
X4.3679Y-2.921
X4.3679Y-3.0606
X4.4028Y-1.2467
X4.4028Y-1.456
X4.4028Y-1.7351
X4.4028Y-1.9443
X4.4028Y-2.0839
X4.4028Y-2.2234
X4.4028Y-2.3629
X4.4028Y-2.5025
X4.4028Y-3.3047
X4.4377Y-1.3514
X4.4377Y-1.5606
X4.4377Y-2.6769
X4.4377Y-2.8164
X4.4725Y-1.1769
X4.4725Y-1.6653
X4.4725Y-1.8048
X4.4725Y-2.0141
X4.4725Y-2.1536
X4.4725Y-2.2932
X4.4725Y-2.4327
X4.4725Y-2.5722
X4.4725Y-2.9559
X4.4725Y-3.3745
X4.5074Y-1.2816
X4.5074Y-1.4211
X4.5074Y-1.9095
X4.5074Y-2.7466
X4.5074Y-3.2001
X4.5423Y-1.5258
X4.5423Y-1.7351
X4.5423Y-2.0839
X4.5423Y-2.2234
X4.5423Y-2.3629
X4.5423Y-2.5025
X4.5423Y-2.642
X4.5423Y-2.8513
X4.5423Y-3.3047
X4.5772Y-1.2118
X4.5772Y-1.3514
X4.5772Y-1.6304
X4.5772Y-1.8397
X4.5772Y-1.9792
X4.5772Y-3.0257
X4.6121Y-1.456
X4.6121Y-2.1536
X4.6121Y-2.2932
X4.6121Y-2.4327
X4.6121Y-2.5722
X4.6121Y-2.7117
X4.6121Y-2.921
X4.6121Y-3.3745
X4.6469Y-1.2816
X4.6469Y-1.5606
X4.6469Y-1.7002
X4.6469Y-1.9095
X4.6469Y-2.049
X4.6469Y-2.8164
T2
X4.4268Y-3.1142
X4.4268Y-3.2175
X4.5268Y-3.1142
X4.6268Y-3.1142
X4.6268Y-3.2175
T3
X1.8262Y-1.0728
X1.8262Y-1.1728
X1.8262Y-1.2728
X1.8262Y-1.3728
X1.8262Y-1.4728
X1.8262Y-1.5728
X1.8262Y-1.6728
X1.8262Y-1.7728
X1.8262Y-1.8728
X1.8262Y-1.9728
X1.8262Y-2.0728
X1.8262Y-2.1728
X1.8262Y-2.2728
X1.8262Y-2.3728
X1.8262Y-2.4728
X1.8262Y-2.5728
X1.8262Y-2.6728
X1.8262Y-2.7728
X1.8262Y-2.8728
X1.8262Y-2.9728
X1.8262Y-3.0728
X1.8262Y-3.1728
X1.8262Y-3.2728
X1.8262Y-3.3728
X1.8262Y-3.4728
X1.9262Y-1.0728
X1.9262Y-1.1728
X1.9262Y-1.2728
X1.9262Y-1.3728
X1.9262Y-1.4728
X1.9262Y-1.5728
X1.9262Y-1.6728
X1.9262Y-1.7728
X1.9262Y-1.8728
X1.9262Y-1.9728
X1.9262Y-2.0728
X1.9262Y-2.1728
X1.9262Y-2.2728
X1.9262Y-2.3728
X1.9262Y-2.4728
X1.9262Y-2.5728
X1.9262Y-2.6728
X1.9262Y-2.7728
X1.9262Y-2.8728
X1.9262Y-2.9728
X1.9262Y-3.0728
X1.9262Y-3.1728
X1.9262Y-3.2728
X1.9262Y-3.3728
X1.9262Y-3.4728
X2.7406Y-2.8945
X2.7406Y-3.0945
X2.7854Y-2.9945
X2.8307Y-2.8945
X2.8307Y-3.0945
X2.8756Y-2.9945
X2.9209Y-2.8945
X2.9209Y-3.0945
X2.9657Y-2.9945
X3.011Y-2.8945
X3.011Y-3.0945
X3.0559Y-2.9945
X3.1012Y-2.8945
X3.1012Y-3.0945
X3.1461Y-2.9945
T4
X1.8941Y-0.6024
X1.8941Y-0.8165
X1.8941Y-3.7291
X1.8941Y-3.9433
X2.0941Y-0.6024
X2.0941Y-0.8165
X2.0941Y-3.7291
X2.0941Y-3.9433
T5
X2.439Y-2.9945
X3.4232Y-2.9945
T3
G00X3.9181Y-3.0787
M15
G01X3.8787Y-3.0787
M16
G05
G00X3.9181Y-3.2953
M15
G01X3.8787Y-3.2953
M16
G05
G00X3.9969Y-3.3898
M15
G01X3.9575Y-3.3898
M16
G05
T0
M30
