%TF.GenerationSoftware,KiCad,Pcbnew,7.0.11+dfsg-1*%
%TF.CreationDate,2024-04-05T15:38:59+03:00*%
%TF.ProjectId,extra_av_out,65787472-615f-4617-965f-6f75742e6b69,rev?*%
%TF.SameCoordinates,Original*%
%TF.FileFunction,Legend,Top*%
%TF.FilePolarity,Positive*%
%FSLAX46Y46*%
G04 Gerber Fmt 4.6, Leading zero omitted, Abs format (unit mm)*
G04 Created by KiCad (PCBNEW 7.0.11+dfsg-1) date 2024-04-05 15:38:59*
%MOMM*%
%LPD*%
G01*
G04 APERTURE LIST*
%ADD10C,0.300000*%
%ADD11C,0.150000*%
%ADD12C,0.127000*%
%ADD13C,0.114300*%
%ADD14C,0.119380*%
%ADD15C,0.120000*%
%ADD16C,1.600000*%
%ADD17C,4.500000*%
G04 APERTURE END LIST*
D10*
X95740000Y-61886900D02*
X95597143Y-61958328D01*
X95597143Y-61958328D02*
X95311429Y-61958328D01*
X95311429Y-61958328D02*
X95168571Y-61886900D01*
X95168571Y-61886900D02*
X95097143Y-61744042D01*
X95097143Y-61744042D02*
X95097143Y-61172614D01*
X95097143Y-61172614D02*
X95168571Y-61029757D01*
X95168571Y-61029757D02*
X95311429Y-60958328D01*
X95311429Y-60958328D02*
X95597143Y-60958328D01*
X95597143Y-60958328D02*
X95740000Y-61029757D01*
X95740000Y-61029757D02*
X95811429Y-61172614D01*
X95811429Y-61172614D02*
X95811429Y-61315471D01*
X95811429Y-61315471D02*
X95097143Y-61458328D01*
X96311428Y-61958328D02*
X97097143Y-60958328D01*
X96311428Y-60958328D02*
X97097143Y-61958328D01*
X97454286Y-60958328D02*
X98025714Y-60958328D01*
X97668571Y-60458328D02*
X97668571Y-61744042D01*
X97668571Y-61744042D02*
X97740000Y-61886900D01*
X97740000Y-61886900D02*
X97882857Y-61958328D01*
X97882857Y-61958328D02*
X98025714Y-61958328D01*
X98525714Y-61958328D02*
X98525714Y-60958328D01*
X98525714Y-61244042D02*
X98597143Y-61101185D01*
X98597143Y-61101185D02*
X98668572Y-61029757D01*
X98668572Y-61029757D02*
X98811429Y-60958328D01*
X98811429Y-60958328D02*
X98954286Y-60958328D01*
X100097143Y-61958328D02*
X100097143Y-61172614D01*
X100097143Y-61172614D02*
X100025714Y-61029757D01*
X100025714Y-61029757D02*
X99882857Y-60958328D01*
X99882857Y-60958328D02*
X99597143Y-60958328D01*
X99597143Y-60958328D02*
X99454285Y-61029757D01*
X100097143Y-61886900D02*
X99954285Y-61958328D01*
X99954285Y-61958328D02*
X99597143Y-61958328D01*
X99597143Y-61958328D02*
X99454285Y-61886900D01*
X99454285Y-61886900D02*
X99382857Y-61744042D01*
X99382857Y-61744042D02*
X99382857Y-61601185D01*
X99382857Y-61601185D02*
X99454285Y-61458328D01*
X99454285Y-61458328D02*
X99597143Y-61386900D01*
X99597143Y-61386900D02*
X99954285Y-61386900D01*
X99954285Y-61386900D02*
X100097143Y-61315471D01*
X100454286Y-62101185D02*
X101597143Y-62101185D01*
X102597143Y-61958328D02*
X102597143Y-61172614D01*
X102597143Y-61172614D02*
X102525714Y-61029757D01*
X102525714Y-61029757D02*
X102382857Y-60958328D01*
X102382857Y-60958328D02*
X102097143Y-60958328D01*
X102097143Y-60958328D02*
X101954285Y-61029757D01*
X102597143Y-61886900D02*
X102454285Y-61958328D01*
X102454285Y-61958328D02*
X102097143Y-61958328D01*
X102097143Y-61958328D02*
X101954285Y-61886900D01*
X101954285Y-61886900D02*
X101882857Y-61744042D01*
X101882857Y-61744042D02*
X101882857Y-61601185D01*
X101882857Y-61601185D02*
X101954285Y-61458328D01*
X101954285Y-61458328D02*
X102097143Y-61386900D01*
X102097143Y-61386900D02*
X102454285Y-61386900D01*
X102454285Y-61386900D02*
X102597143Y-61315471D01*
X103168571Y-60958328D02*
X103525714Y-61958328D01*
X103525714Y-61958328D02*
X103882857Y-60958328D01*
X104097143Y-62101185D02*
X105240000Y-62101185D01*
X105811428Y-61958328D02*
X105668571Y-61886900D01*
X105668571Y-61886900D02*
X105597142Y-61815471D01*
X105597142Y-61815471D02*
X105525714Y-61672614D01*
X105525714Y-61672614D02*
X105525714Y-61244042D01*
X105525714Y-61244042D02*
X105597142Y-61101185D01*
X105597142Y-61101185D02*
X105668571Y-61029757D01*
X105668571Y-61029757D02*
X105811428Y-60958328D01*
X105811428Y-60958328D02*
X106025714Y-60958328D01*
X106025714Y-60958328D02*
X106168571Y-61029757D01*
X106168571Y-61029757D02*
X106240000Y-61101185D01*
X106240000Y-61101185D02*
X106311428Y-61244042D01*
X106311428Y-61244042D02*
X106311428Y-61672614D01*
X106311428Y-61672614D02*
X106240000Y-61815471D01*
X106240000Y-61815471D02*
X106168571Y-61886900D01*
X106168571Y-61886900D02*
X106025714Y-61958328D01*
X106025714Y-61958328D02*
X105811428Y-61958328D01*
X107597143Y-60958328D02*
X107597143Y-61958328D01*
X106954285Y-60958328D02*
X106954285Y-61744042D01*
X106954285Y-61744042D02*
X107025714Y-61886900D01*
X107025714Y-61886900D02*
X107168571Y-61958328D01*
X107168571Y-61958328D02*
X107382857Y-61958328D01*
X107382857Y-61958328D02*
X107525714Y-61886900D01*
X107525714Y-61886900D02*
X107597143Y-61815471D01*
X108097143Y-60958328D02*
X108668571Y-60958328D01*
X108311428Y-60458328D02*
X108311428Y-61744042D01*
X108311428Y-61744042D02*
X108382857Y-61886900D01*
X108382857Y-61886900D02*
X108525714Y-61958328D01*
X108525714Y-61958328D02*
X108668571Y-61958328D01*
X110168571Y-60958328D02*
X110525714Y-61958328D01*
X110525714Y-61958328D02*
X110882857Y-60958328D01*
X112240000Y-61958328D02*
X111382857Y-61958328D01*
X111811428Y-61958328D02*
X111811428Y-60458328D01*
X111811428Y-60458328D02*
X111668571Y-60672614D01*
X111668571Y-60672614D02*
X111525714Y-60815471D01*
X111525714Y-60815471D02*
X111382857Y-60886900D01*
X112882856Y-61815471D02*
X112954285Y-61886900D01*
X112954285Y-61886900D02*
X112882856Y-61958328D01*
X112882856Y-61958328D02*
X112811428Y-61886900D01*
X112811428Y-61886900D02*
X112882856Y-61815471D01*
X112882856Y-61815471D02*
X112882856Y-61958328D01*
X113525714Y-60601185D02*
X113597142Y-60529757D01*
X113597142Y-60529757D02*
X113740000Y-60458328D01*
X113740000Y-60458328D02*
X114097142Y-60458328D01*
X114097142Y-60458328D02*
X114240000Y-60529757D01*
X114240000Y-60529757D02*
X114311428Y-60601185D01*
X114311428Y-60601185D02*
X114382857Y-60744042D01*
X114382857Y-60744042D02*
X114382857Y-60886900D01*
X114382857Y-60886900D02*
X114311428Y-61101185D01*
X114311428Y-61101185D02*
X113454285Y-61958328D01*
X113454285Y-61958328D02*
X114382857Y-61958328D01*
D11*
X114265346Y-71359899D02*
X114265346Y-72074184D01*
X114265346Y-72074184D02*
X114217727Y-72217041D01*
X114217727Y-72217041D02*
X114122489Y-72312280D01*
X114122489Y-72312280D02*
X113979632Y-72359899D01*
X113979632Y-72359899D02*
X113884394Y-72359899D01*
X114646299Y-71359899D02*
X115265346Y-71359899D01*
X115265346Y-71359899D02*
X114932013Y-71740851D01*
X114932013Y-71740851D02*
X115074870Y-71740851D01*
X115074870Y-71740851D02*
X115170108Y-71788470D01*
X115170108Y-71788470D02*
X115217727Y-71836089D01*
X115217727Y-71836089D02*
X115265346Y-71931327D01*
X115265346Y-71931327D02*
X115265346Y-72169422D01*
X115265346Y-72169422D02*
X115217727Y-72264660D01*
X115217727Y-72264660D02*
X115170108Y-72312280D01*
X115170108Y-72312280D02*
X115074870Y-72359899D01*
X115074870Y-72359899D02*
X114789156Y-72359899D01*
X114789156Y-72359899D02*
X114693918Y-72312280D01*
X114693918Y-72312280D02*
X114646299Y-72264660D01*
D12*
X96483428Y-71278019D02*
X96459237Y-71305839D01*
X96459237Y-71305839D02*
X96386666Y-71333658D01*
X96386666Y-71333658D02*
X96338285Y-71333658D01*
X96338285Y-71333658D02*
X96265713Y-71305839D01*
X96265713Y-71305839D02*
X96217332Y-71250200D01*
X96217332Y-71250200D02*
X96193142Y-71194562D01*
X96193142Y-71194562D02*
X96168951Y-71083286D01*
X96168951Y-71083286D02*
X96168951Y-70999829D01*
X96168951Y-70999829D02*
X96193142Y-70888553D01*
X96193142Y-70888553D02*
X96217332Y-70832915D01*
X96217332Y-70832915D02*
X96265713Y-70777277D01*
X96265713Y-70777277D02*
X96338285Y-70749458D01*
X96338285Y-70749458D02*
X96386666Y-70749458D01*
X96386666Y-70749458D02*
X96459237Y-70777277D01*
X96459237Y-70777277D02*
X96483428Y-70805096D01*
X96967237Y-71333658D02*
X96676951Y-71333658D01*
X96822094Y-71333658D02*
X96822094Y-70749458D01*
X96822094Y-70749458D02*
X96773713Y-70832915D01*
X96773713Y-70832915D02*
X96725332Y-70888553D01*
X96725332Y-70888553D02*
X96676951Y-70916372D01*
X97451047Y-71333658D02*
X97160761Y-71333658D01*
X97305904Y-71333658D02*
X97305904Y-70749458D01*
X97305904Y-70749458D02*
X97257523Y-70832915D01*
X97257523Y-70832915D02*
X97209142Y-70888553D01*
X97209142Y-70888553D02*
X97160761Y-70916372D01*
D13*
X96145971Y-69061447D02*
X96167743Y-69037256D01*
X96167743Y-69037256D02*
X96211286Y-69013066D01*
X96211286Y-69013066D02*
X96320143Y-69013066D01*
X96320143Y-69013066D02*
X96363686Y-69037256D01*
X96363686Y-69037256D02*
X96385457Y-69061447D01*
X96385457Y-69061447D02*
X96407228Y-69109828D01*
X96407228Y-69109828D02*
X96407228Y-69158209D01*
X96407228Y-69158209D02*
X96385457Y-69230780D01*
X96385457Y-69230780D02*
X96124200Y-69521066D01*
X96124200Y-69521066D02*
X96407228Y-69521066D01*
X96603172Y-69472685D02*
X96624943Y-69496876D01*
X96624943Y-69496876D02*
X96603172Y-69521066D01*
X96603172Y-69521066D02*
X96581400Y-69496876D01*
X96581400Y-69496876D02*
X96603172Y-69472685D01*
X96603172Y-69472685D02*
X96603172Y-69521066D01*
X96799114Y-69061447D02*
X96820886Y-69037256D01*
X96820886Y-69037256D02*
X96864429Y-69013066D01*
X96864429Y-69013066D02*
X96973286Y-69013066D01*
X96973286Y-69013066D02*
X97016829Y-69037256D01*
X97016829Y-69037256D02*
X97038600Y-69061447D01*
X97038600Y-69061447D02*
X97060371Y-69109828D01*
X97060371Y-69109828D02*
X97060371Y-69158209D01*
X97060371Y-69158209D02*
X97038600Y-69230780D01*
X97038600Y-69230780D02*
X96777343Y-69521066D01*
X96777343Y-69521066D02*
X97060371Y-69521066D01*
X97256315Y-69182399D02*
X97256315Y-69521066D01*
X97256315Y-69230780D02*
X97278086Y-69206590D01*
X97278086Y-69206590D02*
X97321629Y-69182399D01*
X97321629Y-69182399D02*
X97386943Y-69182399D01*
X97386943Y-69182399D02*
X97430486Y-69206590D01*
X97430486Y-69206590D02*
X97452258Y-69254971D01*
X97452258Y-69254971D02*
X97452258Y-69521066D01*
D12*
X105508019Y-68396571D02*
X105535839Y-68420762D01*
X105535839Y-68420762D02*
X105563658Y-68493333D01*
X105563658Y-68493333D02*
X105563658Y-68541714D01*
X105563658Y-68541714D02*
X105535839Y-68614286D01*
X105535839Y-68614286D02*
X105480200Y-68662667D01*
X105480200Y-68662667D02*
X105424562Y-68686857D01*
X105424562Y-68686857D02*
X105313286Y-68711048D01*
X105313286Y-68711048D02*
X105229829Y-68711048D01*
X105229829Y-68711048D02*
X105118553Y-68686857D01*
X105118553Y-68686857D02*
X105062915Y-68662667D01*
X105062915Y-68662667D02*
X105007277Y-68614286D01*
X105007277Y-68614286D02*
X104979458Y-68541714D01*
X104979458Y-68541714D02*
X104979458Y-68493333D01*
X104979458Y-68493333D02*
X105007277Y-68420762D01*
X105007277Y-68420762D02*
X105035096Y-68396571D01*
X105563658Y-67912762D02*
X105563658Y-68203048D01*
X105563658Y-68057905D02*
X104979458Y-68057905D01*
X104979458Y-68057905D02*
X105062915Y-68106286D01*
X105062915Y-68106286D02*
X105118553Y-68154667D01*
X105118553Y-68154667D02*
X105146372Y-68203048D01*
X104979458Y-67743428D02*
X104979458Y-67428952D01*
X104979458Y-67428952D02*
X105202010Y-67598285D01*
X105202010Y-67598285D02*
X105202010Y-67525714D01*
X105202010Y-67525714D02*
X105229829Y-67477333D01*
X105229829Y-67477333D02*
X105257648Y-67453142D01*
X105257648Y-67453142D02*
X105313286Y-67428952D01*
X105313286Y-67428952D02*
X105452381Y-67428952D01*
X105452381Y-67428952D02*
X105508019Y-67453142D01*
X105508019Y-67453142D02*
X105535839Y-67477333D01*
X105535839Y-67477333D02*
X105563658Y-67525714D01*
X105563658Y-67525714D02*
X105563658Y-67670857D01*
X105563658Y-67670857D02*
X105535839Y-67719238D01*
X105535839Y-67719238D02*
X105508019Y-67743428D01*
D13*
X103259447Y-68734028D02*
X103235256Y-68712256D01*
X103235256Y-68712256D02*
X103211066Y-68668714D01*
X103211066Y-68668714D02*
X103211066Y-68559856D01*
X103211066Y-68559856D02*
X103235256Y-68516314D01*
X103235256Y-68516314D02*
X103259447Y-68494542D01*
X103259447Y-68494542D02*
X103307828Y-68472771D01*
X103307828Y-68472771D02*
X103356209Y-68472771D01*
X103356209Y-68472771D02*
X103428780Y-68494542D01*
X103428780Y-68494542D02*
X103719066Y-68755799D01*
X103719066Y-68755799D02*
X103719066Y-68472771D01*
X103670685Y-68276827D02*
X103694876Y-68255056D01*
X103694876Y-68255056D02*
X103719066Y-68276827D01*
X103719066Y-68276827D02*
X103694876Y-68298599D01*
X103694876Y-68298599D02*
X103670685Y-68276827D01*
X103670685Y-68276827D02*
X103719066Y-68276827D01*
X103259447Y-68080885D02*
X103235256Y-68059113D01*
X103235256Y-68059113D02*
X103211066Y-68015571D01*
X103211066Y-68015571D02*
X103211066Y-67906713D01*
X103211066Y-67906713D02*
X103235256Y-67863171D01*
X103235256Y-67863171D02*
X103259447Y-67841399D01*
X103259447Y-67841399D02*
X103307828Y-67819628D01*
X103307828Y-67819628D02*
X103356209Y-67819628D01*
X103356209Y-67819628D02*
X103428780Y-67841399D01*
X103428780Y-67841399D02*
X103719066Y-68102656D01*
X103719066Y-68102656D02*
X103719066Y-67819628D01*
X103380399Y-67623684D02*
X103719066Y-67623684D01*
X103428780Y-67623684D02*
X103404590Y-67601913D01*
X103404590Y-67601913D02*
X103380399Y-67558370D01*
X103380399Y-67558370D02*
X103380399Y-67493056D01*
X103380399Y-67493056D02*
X103404590Y-67449513D01*
X103404590Y-67449513D02*
X103452971Y-67427742D01*
X103452971Y-67427742D02*
X103719066Y-67427742D01*
D12*
X77363428Y-48918019D02*
X77339237Y-48945839D01*
X77339237Y-48945839D02*
X77266666Y-48973658D01*
X77266666Y-48973658D02*
X77218285Y-48973658D01*
X77218285Y-48973658D02*
X77145713Y-48945839D01*
X77145713Y-48945839D02*
X77097332Y-48890200D01*
X77097332Y-48890200D02*
X77073142Y-48834562D01*
X77073142Y-48834562D02*
X77048951Y-48723286D01*
X77048951Y-48723286D02*
X77048951Y-48639829D01*
X77048951Y-48639829D02*
X77073142Y-48528553D01*
X77073142Y-48528553D02*
X77097332Y-48472915D01*
X77097332Y-48472915D02*
X77145713Y-48417277D01*
X77145713Y-48417277D02*
X77218285Y-48389458D01*
X77218285Y-48389458D02*
X77266666Y-48389458D01*
X77266666Y-48389458D02*
X77339237Y-48417277D01*
X77339237Y-48417277D02*
X77363428Y-48445096D01*
X77556951Y-48445096D02*
X77581142Y-48417277D01*
X77581142Y-48417277D02*
X77629523Y-48389458D01*
X77629523Y-48389458D02*
X77750475Y-48389458D01*
X77750475Y-48389458D02*
X77798856Y-48417277D01*
X77798856Y-48417277D02*
X77823047Y-48445096D01*
X77823047Y-48445096D02*
X77847237Y-48500734D01*
X77847237Y-48500734D02*
X77847237Y-48556372D01*
X77847237Y-48556372D02*
X77823047Y-48639829D01*
X77823047Y-48639829D02*
X77532761Y-48973658D01*
X77532761Y-48973658D02*
X77847237Y-48973658D01*
X78161714Y-48389458D02*
X78210095Y-48389458D01*
X78210095Y-48389458D02*
X78258476Y-48417277D01*
X78258476Y-48417277D02*
X78282666Y-48445096D01*
X78282666Y-48445096D02*
X78306857Y-48500734D01*
X78306857Y-48500734D02*
X78331047Y-48612010D01*
X78331047Y-48612010D02*
X78331047Y-48751105D01*
X78331047Y-48751105D02*
X78306857Y-48862381D01*
X78306857Y-48862381D02*
X78282666Y-48918019D01*
X78282666Y-48918019D02*
X78258476Y-48945839D01*
X78258476Y-48945839D02*
X78210095Y-48973658D01*
X78210095Y-48973658D02*
X78161714Y-48973658D01*
X78161714Y-48973658D02*
X78113333Y-48945839D01*
X78113333Y-48945839D02*
X78089142Y-48918019D01*
X78089142Y-48918019D02*
X78064952Y-48862381D01*
X78064952Y-48862381D02*
X78040761Y-48751105D01*
X78040761Y-48751105D02*
X78040761Y-48612010D01*
X78040761Y-48612010D02*
X78064952Y-48500734D01*
X78064952Y-48500734D02*
X78089142Y-48445096D01*
X78089142Y-48445096D02*
X78113333Y-48417277D01*
X78113333Y-48417277D02*
X78161714Y-48389458D01*
D13*
X77623799Y-50689066D02*
X77362542Y-50689066D01*
X77493171Y-50689066D02*
X77493171Y-50181066D01*
X77493171Y-50181066D02*
X77449628Y-50253637D01*
X77449628Y-50253637D02*
X77406085Y-50302018D01*
X77406085Y-50302018D02*
X77362542Y-50326209D01*
X78015686Y-50350399D02*
X78015686Y-50689066D01*
X77819743Y-50350399D02*
X77819743Y-50616495D01*
X77819743Y-50616495D02*
X77841514Y-50664876D01*
X77841514Y-50664876D02*
X77885057Y-50689066D01*
X77885057Y-50689066D02*
X77950371Y-50689066D01*
X77950371Y-50689066D02*
X77993914Y-50664876D01*
X77993914Y-50664876D02*
X78015686Y-50640685D01*
D11*
X73301905Y-48204819D02*
X73301905Y-47204819D01*
X73301905Y-47204819D02*
X73540000Y-47204819D01*
X73540000Y-47204819D02*
X73682857Y-47252438D01*
X73682857Y-47252438D02*
X73778095Y-47347676D01*
X73778095Y-47347676D02*
X73825714Y-47442914D01*
X73825714Y-47442914D02*
X73873333Y-47633390D01*
X73873333Y-47633390D02*
X73873333Y-47776247D01*
X73873333Y-47776247D02*
X73825714Y-47966723D01*
X73825714Y-47966723D02*
X73778095Y-48061961D01*
X73778095Y-48061961D02*
X73682857Y-48157200D01*
X73682857Y-48157200D02*
X73540000Y-48204819D01*
X73540000Y-48204819D02*
X73301905Y-48204819D01*
X74825714Y-48204819D02*
X74254286Y-48204819D01*
X74540000Y-48204819D02*
X74540000Y-47204819D01*
X74540000Y-47204819D02*
X74444762Y-47347676D01*
X74444762Y-47347676D02*
X74349524Y-47442914D01*
X74349524Y-47442914D02*
X74254286Y-47490533D01*
X49126666Y-24214819D02*
X49126666Y-24929104D01*
X49126666Y-24929104D02*
X49079047Y-25071961D01*
X49079047Y-25071961D02*
X48983809Y-25167200D01*
X48983809Y-25167200D02*
X48840952Y-25214819D01*
X48840952Y-25214819D02*
X48745714Y-25214819D01*
X50126666Y-25214819D02*
X49555238Y-25214819D01*
X49840952Y-25214819D02*
X49840952Y-24214819D01*
X49840952Y-24214819D02*
X49745714Y-24357676D01*
X49745714Y-24357676D02*
X49650476Y-24452914D01*
X49650476Y-24452914D02*
X49555238Y-24500533D01*
X72146666Y-70394819D02*
X72146666Y-71109104D01*
X72146666Y-71109104D02*
X72099047Y-71251961D01*
X72099047Y-71251961D02*
X72003809Y-71347200D01*
X72003809Y-71347200D02*
X71860952Y-71394819D01*
X71860952Y-71394819D02*
X71765714Y-71394819D01*
X73051428Y-70728152D02*
X73051428Y-71394819D01*
X72813333Y-70347200D02*
X72575238Y-71061485D01*
X72575238Y-71061485D02*
X73194285Y-71061485D01*
D12*
X82025333Y-70763658D02*
X81855999Y-70485467D01*
X81735047Y-70763658D02*
X81735047Y-70179458D01*
X81735047Y-70179458D02*
X81928571Y-70179458D01*
X81928571Y-70179458D02*
X81976952Y-70207277D01*
X81976952Y-70207277D02*
X82001142Y-70235096D01*
X82001142Y-70235096D02*
X82025333Y-70290734D01*
X82025333Y-70290734D02*
X82025333Y-70374191D01*
X82025333Y-70374191D02*
X82001142Y-70429829D01*
X82001142Y-70429829D02*
X81976952Y-70457648D01*
X81976952Y-70457648D02*
X81928571Y-70485467D01*
X81928571Y-70485467D02*
X81735047Y-70485467D01*
X82509142Y-70763658D02*
X82218856Y-70763658D01*
X82363999Y-70763658D02*
X82363999Y-70179458D01*
X82363999Y-70179458D02*
X82315618Y-70262915D01*
X82315618Y-70262915D02*
X82267237Y-70318553D01*
X82267237Y-70318553D02*
X82218856Y-70346372D01*
D13*
X81837856Y-68951066D02*
X81576599Y-68951066D01*
X81707228Y-68951066D02*
X81707228Y-68443066D01*
X81707228Y-68443066D02*
X81663685Y-68515637D01*
X81663685Y-68515637D02*
X81620142Y-68564018D01*
X81620142Y-68564018D02*
X81576599Y-68588209D01*
X82120885Y-68443066D02*
X82164428Y-68443066D01*
X82164428Y-68443066D02*
X82207971Y-68467256D01*
X82207971Y-68467256D02*
X82229743Y-68491447D01*
X82229743Y-68491447D02*
X82251514Y-68539828D01*
X82251514Y-68539828D02*
X82273285Y-68636590D01*
X82273285Y-68636590D02*
X82273285Y-68757542D01*
X82273285Y-68757542D02*
X82251514Y-68854304D01*
X82251514Y-68854304D02*
X82229743Y-68902685D01*
X82229743Y-68902685D02*
X82207971Y-68926876D01*
X82207971Y-68926876D02*
X82164428Y-68951066D01*
X82164428Y-68951066D02*
X82120885Y-68951066D01*
X82120885Y-68951066D02*
X82077343Y-68926876D01*
X82077343Y-68926876D02*
X82055571Y-68902685D01*
X82055571Y-68902685D02*
X82033800Y-68854304D01*
X82033800Y-68854304D02*
X82012028Y-68757542D01*
X82012028Y-68757542D02*
X82012028Y-68636590D01*
X82012028Y-68636590D02*
X82033800Y-68539828D01*
X82033800Y-68539828D02*
X82055571Y-68491447D01*
X82055571Y-68491447D02*
X82077343Y-68467256D01*
X82077343Y-68467256D02*
X82120885Y-68443066D01*
X82469229Y-68951066D02*
X82469229Y-68443066D01*
X82512772Y-68757542D02*
X82643400Y-68951066D01*
X82643400Y-68612399D02*
X82469229Y-68805923D01*
D12*
X98595333Y-66121658D02*
X98425999Y-65843467D01*
X98305047Y-66121658D02*
X98305047Y-65537458D01*
X98305047Y-65537458D02*
X98498571Y-65537458D01*
X98498571Y-65537458D02*
X98546952Y-65565277D01*
X98546952Y-65565277D02*
X98571142Y-65593096D01*
X98571142Y-65593096D02*
X98595333Y-65648734D01*
X98595333Y-65648734D02*
X98595333Y-65732191D01*
X98595333Y-65732191D02*
X98571142Y-65787829D01*
X98571142Y-65787829D02*
X98546952Y-65815648D01*
X98546952Y-65815648D02*
X98498571Y-65843467D01*
X98498571Y-65843467D02*
X98305047Y-65843467D01*
X98788856Y-65593096D02*
X98813047Y-65565277D01*
X98813047Y-65565277D02*
X98861428Y-65537458D01*
X98861428Y-65537458D02*
X98982380Y-65537458D01*
X98982380Y-65537458D02*
X99030761Y-65565277D01*
X99030761Y-65565277D02*
X99054952Y-65593096D01*
X99054952Y-65593096D02*
X99079142Y-65648734D01*
X99079142Y-65648734D02*
X99079142Y-65704372D01*
X99079142Y-65704372D02*
X99054952Y-65787829D01*
X99054952Y-65787829D02*
X98764666Y-66121658D01*
X98764666Y-66121658D02*
X99079142Y-66121658D01*
D13*
X98401657Y-67458399D02*
X98401657Y-67797066D01*
X98292799Y-67264876D02*
X98183942Y-67627733D01*
X98183942Y-67627733D02*
X98466971Y-67627733D01*
X98597600Y-67289066D02*
X98902400Y-67289066D01*
X98902400Y-67289066D02*
X98706457Y-67797066D01*
X99163657Y-67289066D02*
X99207200Y-67289066D01*
X99207200Y-67289066D02*
X99250743Y-67313256D01*
X99250743Y-67313256D02*
X99272515Y-67337447D01*
X99272515Y-67337447D02*
X99294286Y-67385828D01*
X99294286Y-67385828D02*
X99316057Y-67482590D01*
X99316057Y-67482590D02*
X99316057Y-67603542D01*
X99316057Y-67603542D02*
X99294286Y-67700304D01*
X99294286Y-67700304D02*
X99272515Y-67748685D01*
X99272515Y-67748685D02*
X99250743Y-67772876D01*
X99250743Y-67772876D02*
X99207200Y-67797066D01*
X99207200Y-67797066D02*
X99163657Y-67797066D01*
X99163657Y-67797066D02*
X99120115Y-67772876D01*
X99120115Y-67772876D02*
X99098343Y-67748685D01*
X99098343Y-67748685D02*
X99076572Y-67700304D01*
X99076572Y-67700304D02*
X99054800Y-67603542D01*
X99054800Y-67603542D02*
X99054800Y-67482590D01*
X99054800Y-67482590D02*
X99076572Y-67385828D01*
X99076572Y-67385828D02*
X99098343Y-67337447D01*
X99098343Y-67337447D02*
X99120115Y-67313256D01*
X99120115Y-67313256D02*
X99163657Y-67289066D01*
D12*
X100865333Y-66111658D02*
X100695999Y-65833467D01*
X100575047Y-66111658D02*
X100575047Y-65527458D01*
X100575047Y-65527458D02*
X100768571Y-65527458D01*
X100768571Y-65527458D02*
X100816952Y-65555277D01*
X100816952Y-65555277D02*
X100841142Y-65583096D01*
X100841142Y-65583096D02*
X100865333Y-65638734D01*
X100865333Y-65638734D02*
X100865333Y-65722191D01*
X100865333Y-65722191D02*
X100841142Y-65777829D01*
X100841142Y-65777829D02*
X100816952Y-65805648D01*
X100816952Y-65805648D02*
X100768571Y-65833467D01*
X100768571Y-65833467D02*
X100575047Y-65833467D01*
X101034666Y-65527458D02*
X101349142Y-65527458D01*
X101349142Y-65527458D02*
X101179809Y-65750010D01*
X101179809Y-65750010D02*
X101252380Y-65750010D01*
X101252380Y-65750010D02*
X101300761Y-65777829D01*
X101300761Y-65777829D02*
X101324952Y-65805648D01*
X101324952Y-65805648D02*
X101349142Y-65861286D01*
X101349142Y-65861286D02*
X101349142Y-66000381D01*
X101349142Y-66000381D02*
X101324952Y-66056019D01*
X101324952Y-66056019D02*
X101300761Y-66083839D01*
X101300761Y-66083839D02*
X101252380Y-66111658D01*
X101252380Y-66111658D02*
X101107237Y-66111658D01*
X101107237Y-66111658D02*
X101058856Y-66083839D01*
X101058856Y-66083839D02*
X101034666Y-66056019D01*
D13*
X100661657Y-67458399D02*
X100661657Y-67797066D01*
X100552799Y-67264876D02*
X100443942Y-67627733D01*
X100443942Y-67627733D02*
X100726971Y-67627733D01*
X100857600Y-67289066D02*
X101162400Y-67289066D01*
X101162400Y-67289066D02*
X100966457Y-67797066D01*
X101423657Y-67289066D02*
X101467200Y-67289066D01*
X101467200Y-67289066D02*
X101510743Y-67313256D01*
X101510743Y-67313256D02*
X101532515Y-67337447D01*
X101532515Y-67337447D02*
X101554286Y-67385828D01*
X101554286Y-67385828D02*
X101576057Y-67482590D01*
X101576057Y-67482590D02*
X101576057Y-67603542D01*
X101576057Y-67603542D02*
X101554286Y-67700304D01*
X101554286Y-67700304D02*
X101532515Y-67748685D01*
X101532515Y-67748685D02*
X101510743Y-67772876D01*
X101510743Y-67772876D02*
X101467200Y-67797066D01*
X101467200Y-67797066D02*
X101423657Y-67797066D01*
X101423657Y-67797066D02*
X101380115Y-67772876D01*
X101380115Y-67772876D02*
X101358343Y-67748685D01*
X101358343Y-67748685D02*
X101336572Y-67700304D01*
X101336572Y-67700304D02*
X101314800Y-67603542D01*
X101314800Y-67603542D02*
X101314800Y-67482590D01*
X101314800Y-67482590D02*
X101336572Y-67385828D01*
X101336572Y-67385828D02*
X101358343Y-67337447D01*
X101358343Y-67337447D02*
X101380115Y-67313256D01*
X101380115Y-67313256D02*
X101423657Y-67289066D01*
D12*
X69895333Y-46685658D02*
X69725999Y-46407467D01*
X69605047Y-46685658D02*
X69605047Y-46101458D01*
X69605047Y-46101458D02*
X69798571Y-46101458D01*
X69798571Y-46101458D02*
X69846952Y-46129277D01*
X69846952Y-46129277D02*
X69871142Y-46157096D01*
X69871142Y-46157096D02*
X69895333Y-46212734D01*
X69895333Y-46212734D02*
X69895333Y-46296191D01*
X69895333Y-46296191D02*
X69871142Y-46351829D01*
X69871142Y-46351829D02*
X69846952Y-46379648D01*
X69846952Y-46379648D02*
X69798571Y-46407467D01*
X69798571Y-46407467D02*
X69605047Y-46407467D01*
X70330761Y-46296191D02*
X70330761Y-46685658D01*
X70209809Y-46073639D02*
X70088856Y-46490924D01*
X70088856Y-46490924D02*
X70403333Y-46490924D01*
D13*
X69653428Y-47921066D02*
X69435714Y-47921066D01*
X69435714Y-47921066D02*
X69413942Y-48162971D01*
X69413942Y-48162971D02*
X69435714Y-48138780D01*
X69435714Y-48138780D02*
X69479257Y-48114590D01*
X69479257Y-48114590D02*
X69588114Y-48114590D01*
X69588114Y-48114590D02*
X69631657Y-48138780D01*
X69631657Y-48138780D02*
X69653428Y-48162971D01*
X69653428Y-48162971D02*
X69675199Y-48211352D01*
X69675199Y-48211352D02*
X69675199Y-48332304D01*
X69675199Y-48332304D02*
X69653428Y-48380685D01*
X69653428Y-48380685D02*
X69631657Y-48404876D01*
X69631657Y-48404876D02*
X69588114Y-48429066D01*
X69588114Y-48429066D02*
X69479257Y-48429066D01*
X69479257Y-48429066D02*
X69435714Y-48404876D01*
X69435714Y-48404876D02*
X69413942Y-48380685D01*
X69827600Y-47921066D02*
X70110628Y-47921066D01*
X70110628Y-47921066D02*
X69958228Y-48114590D01*
X69958228Y-48114590D02*
X70023543Y-48114590D01*
X70023543Y-48114590D02*
X70067086Y-48138780D01*
X70067086Y-48138780D02*
X70088857Y-48162971D01*
X70088857Y-48162971D02*
X70110628Y-48211352D01*
X70110628Y-48211352D02*
X70110628Y-48332304D01*
X70110628Y-48332304D02*
X70088857Y-48380685D01*
X70088857Y-48380685D02*
X70067086Y-48404876D01*
X70067086Y-48404876D02*
X70023543Y-48429066D01*
X70023543Y-48429066D02*
X69892914Y-48429066D01*
X69892914Y-48429066D02*
X69849371Y-48404876D01*
X69849371Y-48404876D02*
X69827600Y-48380685D01*
X70393657Y-47921066D02*
X70437200Y-47921066D01*
X70437200Y-47921066D02*
X70480743Y-47945256D01*
X70480743Y-47945256D02*
X70502515Y-47969447D01*
X70502515Y-47969447D02*
X70524286Y-48017828D01*
X70524286Y-48017828D02*
X70546057Y-48114590D01*
X70546057Y-48114590D02*
X70546057Y-48235542D01*
X70546057Y-48235542D02*
X70524286Y-48332304D01*
X70524286Y-48332304D02*
X70502515Y-48380685D01*
X70502515Y-48380685D02*
X70480743Y-48404876D01*
X70480743Y-48404876D02*
X70437200Y-48429066D01*
X70437200Y-48429066D02*
X70393657Y-48429066D01*
X70393657Y-48429066D02*
X70350115Y-48404876D01*
X70350115Y-48404876D02*
X70328343Y-48380685D01*
X70328343Y-48380685D02*
X70306572Y-48332304D01*
X70306572Y-48332304D02*
X70284800Y-48235542D01*
X70284800Y-48235542D02*
X70284800Y-48114590D01*
X70284800Y-48114590D02*
X70306572Y-48017828D01*
X70306572Y-48017828D02*
X70328343Y-47969447D01*
X70328343Y-47969447D02*
X70350115Y-47945256D01*
X70350115Y-47945256D02*
X70393657Y-47921066D01*
D12*
X78681658Y-54284666D02*
X78403467Y-54454000D01*
X78681658Y-54574952D02*
X78097458Y-54574952D01*
X78097458Y-54574952D02*
X78097458Y-54381428D01*
X78097458Y-54381428D02*
X78125277Y-54333047D01*
X78125277Y-54333047D02*
X78153096Y-54308857D01*
X78153096Y-54308857D02*
X78208734Y-54284666D01*
X78208734Y-54284666D02*
X78292191Y-54284666D01*
X78292191Y-54284666D02*
X78347829Y-54308857D01*
X78347829Y-54308857D02*
X78375648Y-54333047D01*
X78375648Y-54333047D02*
X78403467Y-54381428D01*
X78403467Y-54381428D02*
X78403467Y-54574952D01*
X78097458Y-53825047D02*
X78097458Y-54066952D01*
X78097458Y-54066952D02*
X78375648Y-54091143D01*
X78375648Y-54091143D02*
X78347829Y-54066952D01*
X78347829Y-54066952D02*
X78320010Y-54018571D01*
X78320010Y-54018571D02*
X78320010Y-53897619D01*
X78320010Y-53897619D02*
X78347829Y-53849238D01*
X78347829Y-53849238D02*
X78375648Y-53825047D01*
X78375648Y-53825047D02*
X78431286Y-53800857D01*
X78431286Y-53800857D02*
X78570381Y-53800857D01*
X78570381Y-53800857D02*
X78626019Y-53825047D01*
X78626019Y-53825047D02*
X78653839Y-53849238D01*
X78653839Y-53849238D02*
X78681658Y-53897619D01*
X78681658Y-53897619D02*
X78681658Y-54018571D01*
X78681658Y-54018571D02*
X78653839Y-54066952D01*
X78653839Y-54066952D02*
X78626019Y-54091143D01*
D13*
X76361066Y-54570114D02*
X76361066Y-54265314D01*
X76361066Y-54265314D02*
X76869066Y-54461257D01*
X76361066Y-53873428D02*
X76361066Y-54091142D01*
X76361066Y-54091142D02*
X76602971Y-54112914D01*
X76602971Y-54112914D02*
X76578780Y-54091142D01*
X76578780Y-54091142D02*
X76554590Y-54047600D01*
X76554590Y-54047600D02*
X76554590Y-53938742D01*
X76554590Y-53938742D02*
X76578780Y-53895200D01*
X76578780Y-53895200D02*
X76602971Y-53873428D01*
X76602971Y-53873428D02*
X76651352Y-53851657D01*
X76651352Y-53851657D02*
X76772304Y-53851657D01*
X76772304Y-53851657D02*
X76820685Y-53873428D01*
X76820685Y-53873428D02*
X76844876Y-53895200D01*
X76844876Y-53895200D02*
X76869066Y-53938742D01*
X76869066Y-53938742D02*
X76869066Y-54047600D01*
X76869066Y-54047600D02*
X76844876Y-54091142D01*
X76844876Y-54091142D02*
X76820685Y-54112914D01*
D12*
X76983658Y-57144666D02*
X76705467Y-57314000D01*
X76983658Y-57434952D02*
X76399458Y-57434952D01*
X76399458Y-57434952D02*
X76399458Y-57241428D01*
X76399458Y-57241428D02*
X76427277Y-57193047D01*
X76427277Y-57193047D02*
X76455096Y-57168857D01*
X76455096Y-57168857D02*
X76510734Y-57144666D01*
X76510734Y-57144666D02*
X76594191Y-57144666D01*
X76594191Y-57144666D02*
X76649829Y-57168857D01*
X76649829Y-57168857D02*
X76677648Y-57193047D01*
X76677648Y-57193047D02*
X76705467Y-57241428D01*
X76705467Y-57241428D02*
X76705467Y-57434952D01*
X76399458Y-56709238D02*
X76399458Y-56806000D01*
X76399458Y-56806000D02*
X76427277Y-56854381D01*
X76427277Y-56854381D02*
X76455096Y-56878571D01*
X76455096Y-56878571D02*
X76538553Y-56926952D01*
X76538553Y-56926952D02*
X76649829Y-56951143D01*
X76649829Y-56951143D02*
X76872381Y-56951143D01*
X76872381Y-56951143D02*
X76928019Y-56926952D01*
X76928019Y-56926952D02*
X76955839Y-56902762D01*
X76955839Y-56902762D02*
X76983658Y-56854381D01*
X76983658Y-56854381D02*
X76983658Y-56757619D01*
X76983658Y-56757619D02*
X76955839Y-56709238D01*
X76955839Y-56709238D02*
X76928019Y-56685047D01*
X76928019Y-56685047D02*
X76872381Y-56660857D01*
X76872381Y-56660857D02*
X76733286Y-56660857D01*
X76733286Y-56660857D02*
X76677648Y-56685047D01*
X76677648Y-56685047D02*
X76649829Y-56709238D01*
X76649829Y-56709238D02*
X76622010Y-56757619D01*
X76622010Y-56757619D02*
X76622010Y-56854381D01*
X76622010Y-56854381D02*
X76649829Y-56902762D01*
X76649829Y-56902762D02*
X76677648Y-56926952D01*
X76677648Y-56926952D02*
X76733286Y-56951143D01*
D13*
X74671066Y-57430114D02*
X74671066Y-57125314D01*
X74671066Y-57125314D02*
X75179066Y-57321257D01*
X74671066Y-56733428D02*
X74671066Y-56951142D01*
X74671066Y-56951142D02*
X74912971Y-56972914D01*
X74912971Y-56972914D02*
X74888780Y-56951142D01*
X74888780Y-56951142D02*
X74864590Y-56907600D01*
X74864590Y-56907600D02*
X74864590Y-56798742D01*
X74864590Y-56798742D02*
X74888780Y-56755200D01*
X74888780Y-56755200D02*
X74912971Y-56733428D01*
X74912971Y-56733428D02*
X74961352Y-56711657D01*
X74961352Y-56711657D02*
X75082304Y-56711657D01*
X75082304Y-56711657D02*
X75130685Y-56733428D01*
X75130685Y-56733428D02*
X75154876Y-56755200D01*
X75154876Y-56755200D02*
X75179066Y-56798742D01*
X75179066Y-56798742D02*
X75179066Y-56907600D01*
X75179066Y-56907600D02*
X75154876Y-56951142D01*
X75154876Y-56951142D02*
X75130685Y-56972914D01*
D12*
X75053658Y-60764666D02*
X74775467Y-60934000D01*
X75053658Y-61054952D02*
X74469458Y-61054952D01*
X74469458Y-61054952D02*
X74469458Y-60861428D01*
X74469458Y-60861428D02*
X74497277Y-60813047D01*
X74497277Y-60813047D02*
X74525096Y-60788857D01*
X74525096Y-60788857D02*
X74580734Y-60764666D01*
X74580734Y-60764666D02*
X74664191Y-60764666D01*
X74664191Y-60764666D02*
X74719829Y-60788857D01*
X74719829Y-60788857D02*
X74747648Y-60813047D01*
X74747648Y-60813047D02*
X74775467Y-60861428D01*
X74775467Y-60861428D02*
X74775467Y-61054952D01*
X74469458Y-60595333D02*
X74469458Y-60256666D01*
X74469458Y-60256666D02*
X75053658Y-60474381D01*
D13*
X72701066Y-61060114D02*
X72701066Y-60755314D01*
X72701066Y-60755314D02*
X73209066Y-60951257D01*
X72701066Y-60363428D02*
X72701066Y-60581142D01*
X72701066Y-60581142D02*
X72942971Y-60602914D01*
X72942971Y-60602914D02*
X72918780Y-60581142D01*
X72918780Y-60581142D02*
X72894590Y-60537600D01*
X72894590Y-60537600D02*
X72894590Y-60428742D01*
X72894590Y-60428742D02*
X72918780Y-60385200D01*
X72918780Y-60385200D02*
X72942971Y-60363428D01*
X72942971Y-60363428D02*
X72991352Y-60341657D01*
X72991352Y-60341657D02*
X73112304Y-60341657D01*
X73112304Y-60341657D02*
X73160685Y-60363428D01*
X73160685Y-60363428D02*
X73184876Y-60385200D01*
X73184876Y-60385200D02*
X73209066Y-60428742D01*
X73209066Y-60428742D02*
X73209066Y-60537600D01*
X73209066Y-60537600D02*
X73184876Y-60581142D01*
X73184876Y-60581142D02*
X73160685Y-60602914D01*
D12*
X79325333Y-48943658D02*
X79155999Y-48665467D01*
X79035047Y-48943658D02*
X79035047Y-48359458D01*
X79035047Y-48359458D02*
X79228571Y-48359458D01*
X79228571Y-48359458D02*
X79276952Y-48387277D01*
X79276952Y-48387277D02*
X79301142Y-48415096D01*
X79301142Y-48415096D02*
X79325333Y-48470734D01*
X79325333Y-48470734D02*
X79325333Y-48554191D01*
X79325333Y-48554191D02*
X79301142Y-48609829D01*
X79301142Y-48609829D02*
X79276952Y-48637648D01*
X79276952Y-48637648D02*
X79228571Y-48665467D01*
X79228571Y-48665467D02*
X79035047Y-48665467D01*
X79615618Y-48609829D02*
X79567237Y-48582010D01*
X79567237Y-48582010D02*
X79543047Y-48554191D01*
X79543047Y-48554191D02*
X79518856Y-48498553D01*
X79518856Y-48498553D02*
X79518856Y-48470734D01*
X79518856Y-48470734D02*
X79543047Y-48415096D01*
X79543047Y-48415096D02*
X79567237Y-48387277D01*
X79567237Y-48387277D02*
X79615618Y-48359458D01*
X79615618Y-48359458D02*
X79712380Y-48359458D01*
X79712380Y-48359458D02*
X79760761Y-48387277D01*
X79760761Y-48387277D02*
X79784952Y-48415096D01*
X79784952Y-48415096D02*
X79809142Y-48470734D01*
X79809142Y-48470734D02*
X79809142Y-48498553D01*
X79809142Y-48498553D02*
X79784952Y-48554191D01*
X79784952Y-48554191D02*
X79760761Y-48582010D01*
X79760761Y-48582010D02*
X79712380Y-48609829D01*
X79712380Y-48609829D02*
X79615618Y-48609829D01*
X79615618Y-48609829D02*
X79567237Y-48637648D01*
X79567237Y-48637648D02*
X79543047Y-48665467D01*
X79543047Y-48665467D02*
X79518856Y-48721105D01*
X79518856Y-48721105D02*
X79518856Y-48832381D01*
X79518856Y-48832381D02*
X79543047Y-48888019D01*
X79543047Y-48888019D02*
X79567237Y-48915839D01*
X79567237Y-48915839D02*
X79615618Y-48943658D01*
X79615618Y-48943658D02*
X79712380Y-48943658D01*
X79712380Y-48943658D02*
X79760761Y-48915839D01*
X79760761Y-48915839D02*
X79784952Y-48888019D01*
X79784952Y-48888019D02*
X79809142Y-48832381D01*
X79809142Y-48832381D02*
X79809142Y-48721105D01*
X79809142Y-48721105D02*
X79784952Y-48665467D01*
X79784952Y-48665467D02*
X79760761Y-48637648D01*
X79760761Y-48637648D02*
X79712380Y-48609829D01*
D13*
X79355571Y-50687066D02*
X79094314Y-50687066D01*
X79224943Y-50687066D02*
X79224943Y-50179066D01*
X79224943Y-50179066D02*
X79181400Y-50251637D01*
X79181400Y-50251637D02*
X79137857Y-50300018D01*
X79137857Y-50300018D02*
X79094314Y-50324209D01*
X79551515Y-50687066D02*
X79551515Y-50179066D01*
X79595058Y-50493542D02*
X79725686Y-50687066D01*
X79725686Y-50348399D02*
X79551515Y-50541923D01*
D11*
X66328095Y-49384819D02*
X66328095Y-50194342D01*
X66328095Y-50194342D02*
X66375714Y-50289580D01*
X66375714Y-50289580D02*
X66423333Y-50337200D01*
X66423333Y-50337200D02*
X66518571Y-50384819D01*
X66518571Y-50384819D02*
X66709047Y-50384819D01*
X66709047Y-50384819D02*
X66804285Y-50337200D01*
X66804285Y-50337200D02*
X66851904Y-50289580D01*
X66851904Y-50289580D02*
X66899523Y-50194342D01*
X66899523Y-50194342D02*
X66899523Y-49384819D01*
X67899523Y-50384819D02*
X67328095Y-50384819D01*
X67613809Y-50384819D02*
X67613809Y-49384819D01*
X67613809Y-49384819D02*
X67518571Y-49527676D01*
X67518571Y-49527676D02*
X67423333Y-49622914D01*
X67423333Y-49622914D02*
X67328095Y-49670533D01*
X54208095Y-73674819D02*
X54208095Y-74484342D01*
X54208095Y-74484342D02*
X54255714Y-74579580D01*
X54255714Y-74579580D02*
X54303333Y-74627200D01*
X54303333Y-74627200D02*
X54398571Y-74674819D01*
X54398571Y-74674819D02*
X54589047Y-74674819D01*
X54589047Y-74674819D02*
X54684285Y-74627200D01*
X54684285Y-74627200D02*
X54731904Y-74579580D01*
X54731904Y-74579580D02*
X54779523Y-74484342D01*
X54779523Y-74484342D02*
X54779523Y-73674819D01*
X55160476Y-73674819D02*
X55779523Y-73674819D01*
X55779523Y-73674819D02*
X55446190Y-74055771D01*
X55446190Y-74055771D02*
X55589047Y-74055771D01*
X55589047Y-74055771D02*
X55684285Y-74103390D01*
X55684285Y-74103390D02*
X55731904Y-74151009D01*
X55731904Y-74151009D02*
X55779523Y-74246247D01*
X55779523Y-74246247D02*
X55779523Y-74484342D01*
X55779523Y-74484342D02*
X55731904Y-74579580D01*
X55731904Y-74579580D02*
X55684285Y-74627200D01*
X55684285Y-74627200D02*
X55589047Y-74674819D01*
X55589047Y-74674819D02*
X55303333Y-74674819D01*
X55303333Y-74674819D02*
X55208095Y-74627200D01*
X55208095Y-74627200D02*
X55160476Y-74579580D01*
X55532680Y-19444796D02*
X55580299Y-19301939D01*
X55580299Y-19301939D02*
X55580299Y-19063844D01*
X55580299Y-19063844D02*
X55532680Y-18968606D01*
X55532680Y-18968606D02*
X55485060Y-18920987D01*
X55485060Y-18920987D02*
X55389822Y-18873368D01*
X55389822Y-18873368D02*
X55294584Y-18873368D01*
X55294584Y-18873368D02*
X55199346Y-18920987D01*
X55199346Y-18920987D02*
X55151727Y-18968606D01*
X55151727Y-18968606D02*
X55104108Y-19063844D01*
X55104108Y-19063844D02*
X55056489Y-19254320D01*
X55056489Y-19254320D02*
X55008870Y-19349558D01*
X55008870Y-19349558D02*
X54961251Y-19397177D01*
X54961251Y-19397177D02*
X54866013Y-19444796D01*
X54866013Y-19444796D02*
X54770775Y-19444796D01*
X54770775Y-19444796D02*
X54675537Y-19397177D01*
X54675537Y-19397177D02*
X54627918Y-19349558D01*
X54627918Y-19349558D02*
X54580299Y-19254320D01*
X54580299Y-19254320D02*
X54580299Y-19016225D01*
X54580299Y-19016225D02*
X54627918Y-18873368D01*
X54580299Y-18587653D02*
X54580299Y-18016225D01*
X55580299Y-18301939D02*
X54580299Y-18301939D01*
X55580299Y-17159082D02*
X55580299Y-17730510D01*
X55580299Y-17444796D02*
X54580299Y-17444796D01*
X54580299Y-17444796D02*
X54723156Y-17540034D01*
X54723156Y-17540034D02*
X54818394Y-17635272D01*
X54818394Y-17635272D02*
X54866013Y-17730510D01*
X55532680Y-98864796D02*
X55580299Y-98721939D01*
X55580299Y-98721939D02*
X55580299Y-98483844D01*
X55580299Y-98483844D02*
X55532680Y-98388606D01*
X55532680Y-98388606D02*
X55485060Y-98340987D01*
X55485060Y-98340987D02*
X55389822Y-98293368D01*
X55389822Y-98293368D02*
X55294584Y-98293368D01*
X55294584Y-98293368D02*
X55199346Y-98340987D01*
X55199346Y-98340987D02*
X55151727Y-98388606D01*
X55151727Y-98388606D02*
X55104108Y-98483844D01*
X55104108Y-98483844D02*
X55056489Y-98674320D01*
X55056489Y-98674320D02*
X55008870Y-98769558D01*
X55008870Y-98769558D02*
X54961251Y-98817177D01*
X54961251Y-98817177D02*
X54866013Y-98864796D01*
X54866013Y-98864796D02*
X54770775Y-98864796D01*
X54770775Y-98864796D02*
X54675537Y-98817177D01*
X54675537Y-98817177D02*
X54627918Y-98769558D01*
X54627918Y-98769558D02*
X54580299Y-98674320D01*
X54580299Y-98674320D02*
X54580299Y-98436225D01*
X54580299Y-98436225D02*
X54627918Y-98293368D01*
X54580299Y-98007653D02*
X54580299Y-97436225D01*
X55580299Y-97721939D02*
X54580299Y-97721939D01*
X54675537Y-97150510D02*
X54627918Y-97102891D01*
X54627918Y-97102891D02*
X54580299Y-97007653D01*
X54580299Y-97007653D02*
X54580299Y-96769558D01*
X54580299Y-96769558D02*
X54627918Y-96674320D01*
X54627918Y-96674320D02*
X54675537Y-96626701D01*
X54675537Y-96626701D02*
X54770775Y-96579082D01*
X54770775Y-96579082D02*
X54866013Y-96579082D01*
X54866013Y-96579082D02*
X55008870Y-96626701D01*
X55008870Y-96626701D02*
X55580299Y-97198129D01*
X55580299Y-97198129D02*
X55580299Y-96579082D01*
X107626666Y-69644819D02*
X107626666Y-70359104D01*
X107626666Y-70359104D02*
X107579047Y-70501961D01*
X107579047Y-70501961D02*
X107483809Y-70597200D01*
X107483809Y-70597200D02*
X107340952Y-70644819D01*
X107340952Y-70644819D02*
X107245714Y-70644819D01*
X108055238Y-69740057D02*
X108102857Y-69692438D01*
X108102857Y-69692438D02*
X108198095Y-69644819D01*
X108198095Y-69644819D02*
X108436190Y-69644819D01*
X108436190Y-69644819D02*
X108531428Y-69692438D01*
X108531428Y-69692438D02*
X108579047Y-69740057D01*
X108579047Y-69740057D02*
X108626666Y-69835295D01*
X108626666Y-69835295D02*
X108626666Y-69930533D01*
X108626666Y-69930533D02*
X108579047Y-70073390D01*
X108579047Y-70073390D02*
X108007619Y-70644819D01*
X108007619Y-70644819D02*
X108626666Y-70644819D01*
X84158095Y-60024819D02*
X84158095Y-60834342D01*
X84158095Y-60834342D02*
X84205714Y-60929580D01*
X84205714Y-60929580D02*
X84253333Y-60977200D01*
X84253333Y-60977200D02*
X84348571Y-61024819D01*
X84348571Y-61024819D02*
X84539047Y-61024819D01*
X84539047Y-61024819D02*
X84634285Y-60977200D01*
X84634285Y-60977200D02*
X84681904Y-60929580D01*
X84681904Y-60929580D02*
X84729523Y-60834342D01*
X84729523Y-60834342D02*
X84729523Y-60024819D01*
X85158095Y-60120057D02*
X85205714Y-60072438D01*
X85205714Y-60072438D02*
X85300952Y-60024819D01*
X85300952Y-60024819D02*
X85539047Y-60024819D01*
X85539047Y-60024819D02*
X85634285Y-60072438D01*
X85634285Y-60072438D02*
X85681904Y-60120057D01*
X85681904Y-60120057D02*
X85729523Y-60215295D01*
X85729523Y-60215295D02*
X85729523Y-60310533D01*
X85729523Y-60310533D02*
X85681904Y-60453390D01*
X85681904Y-60453390D02*
X85110476Y-61024819D01*
X85110476Y-61024819D02*
X85729523Y-61024819D01*
D12*
X51527648Y-82313333D02*
X51527648Y-82482666D01*
X51833658Y-82482666D02*
X51249458Y-82482666D01*
X51249458Y-82482666D02*
X51249458Y-82240761D01*
X51527648Y-81877904D02*
X51555467Y-81805332D01*
X51555467Y-81805332D02*
X51583286Y-81781142D01*
X51583286Y-81781142D02*
X51638924Y-81756951D01*
X51638924Y-81756951D02*
X51722381Y-81756951D01*
X51722381Y-81756951D02*
X51778019Y-81781142D01*
X51778019Y-81781142D02*
X51805839Y-81805332D01*
X51805839Y-81805332D02*
X51833658Y-81853713D01*
X51833658Y-81853713D02*
X51833658Y-82047237D01*
X51833658Y-82047237D02*
X51249458Y-82047237D01*
X51249458Y-82047237D02*
X51249458Y-81877904D01*
X51249458Y-81877904D02*
X51277277Y-81829523D01*
X51277277Y-81829523D02*
X51305096Y-81805332D01*
X51305096Y-81805332D02*
X51360734Y-81781142D01*
X51360734Y-81781142D02*
X51416372Y-81781142D01*
X51416372Y-81781142D02*
X51472010Y-81805332D01*
X51472010Y-81805332D02*
X51499829Y-81829523D01*
X51499829Y-81829523D02*
X51527648Y-81877904D01*
X51527648Y-81877904D02*
X51527648Y-82047237D01*
X51833658Y-81273142D02*
X51833658Y-81563428D01*
X51833658Y-81418285D02*
X51249458Y-81418285D01*
X51249458Y-81418285D02*
X51332915Y-81466666D01*
X51332915Y-81466666D02*
X51388553Y-81515047D01*
X51388553Y-81515047D02*
X51416372Y-81563428D01*
X51527648Y-80573333D02*
X51527648Y-80742666D01*
X51833658Y-80742666D02*
X51249458Y-80742666D01*
X51249458Y-80742666D02*
X51249458Y-80500761D01*
X51527648Y-80137904D02*
X51555467Y-80065332D01*
X51555467Y-80065332D02*
X51583286Y-80041142D01*
X51583286Y-80041142D02*
X51638924Y-80016951D01*
X51638924Y-80016951D02*
X51722381Y-80016951D01*
X51722381Y-80016951D02*
X51778019Y-80041142D01*
X51778019Y-80041142D02*
X51805839Y-80065332D01*
X51805839Y-80065332D02*
X51833658Y-80113713D01*
X51833658Y-80113713D02*
X51833658Y-80307237D01*
X51833658Y-80307237D02*
X51249458Y-80307237D01*
X51249458Y-80307237D02*
X51249458Y-80137904D01*
X51249458Y-80137904D02*
X51277277Y-80089523D01*
X51277277Y-80089523D02*
X51305096Y-80065332D01*
X51305096Y-80065332D02*
X51360734Y-80041142D01*
X51360734Y-80041142D02*
X51416372Y-80041142D01*
X51416372Y-80041142D02*
X51472010Y-80065332D01*
X51472010Y-80065332D02*
X51499829Y-80089523D01*
X51499829Y-80089523D02*
X51527648Y-80137904D01*
X51527648Y-80137904D02*
X51527648Y-80307237D01*
X51305096Y-79823428D02*
X51277277Y-79799237D01*
X51277277Y-79799237D02*
X51249458Y-79750856D01*
X51249458Y-79750856D02*
X51249458Y-79629904D01*
X51249458Y-79629904D02*
X51277277Y-79581523D01*
X51277277Y-79581523D02*
X51305096Y-79557332D01*
X51305096Y-79557332D02*
X51360734Y-79533142D01*
X51360734Y-79533142D02*
X51416372Y-79533142D01*
X51416372Y-79533142D02*
X51499829Y-79557332D01*
X51499829Y-79557332D02*
X51833658Y-79847618D01*
X51833658Y-79847618D02*
X51833658Y-79533142D01*
D11*
%TO.C,J3*%
X119850000Y-87070000D02*
X110150000Y-87070000D01*
X119850000Y-84720000D02*
X110150000Y-84720000D01*
X119850000Y-73570000D02*
X119850000Y-87070000D01*
X110150000Y-87070000D02*
X110150000Y-73570000D01*
X110150000Y-73570000D02*
X119850000Y-73570000D01*
D14*
%TO.C,C11*%
X97546600Y-70531520D02*
X96073400Y-70531520D01*
X96075940Y-70490880D02*
X96075940Y-69792380D01*
X97544060Y-69792380D02*
X97544060Y-70490880D01*
X96075940Y-68791620D02*
X96075940Y-68093120D01*
X97544060Y-68791620D02*
X97544060Y-68093120D01*
X96073400Y-68052480D02*
X97546600Y-68052480D01*
%TO.C,C13*%
X102250480Y-68806600D02*
X102250480Y-67333400D01*
X102291120Y-67335940D02*
X102989620Y-67335940D01*
X102989620Y-68804060D02*
X102291120Y-68804060D01*
X103990380Y-67335940D02*
X104688880Y-67335940D01*
X103990380Y-68804060D02*
X104688880Y-68804060D01*
X104729520Y-67333400D02*
X104729520Y-68806600D01*
%TO.C,C20*%
X78436600Y-51699520D02*
X76963400Y-51699520D01*
X76965940Y-51658880D02*
X76965940Y-50960380D01*
X78434060Y-50960380D02*
X78434060Y-51658880D01*
X76965940Y-49959620D02*
X76965940Y-49261120D01*
X78434060Y-49959620D02*
X78434060Y-49261120D01*
X76963400Y-49220480D02*
X78436600Y-49220480D01*
D15*
%TO.C,D1*%
X73180000Y-51850000D02*
X76340000Y-51850000D01*
X73180000Y-51850000D02*
X73180000Y-50920000D01*
X73180000Y-48690000D02*
X74640000Y-48690000D01*
X73180000Y-48690000D02*
X73180000Y-49620000D01*
%TO.C,J1*%
X36295790Y-25918710D02*
X36295790Y-89538710D01*
X36295790Y-25918710D02*
X44925790Y-25918710D01*
X36295790Y-26038710D02*
X44925790Y-26038710D01*
X36295790Y-26156805D02*
X44925790Y-26156805D01*
X36295790Y-26274900D02*
X44925790Y-26274900D01*
X36295790Y-26392995D02*
X44925790Y-26392995D01*
X36295790Y-26511090D02*
X44925790Y-26511090D01*
X36295790Y-26629185D02*
X44925790Y-26629185D01*
X36295790Y-26747280D02*
X44925790Y-26747280D01*
X36295790Y-26865375D02*
X44925790Y-26865375D01*
X36295790Y-26983470D02*
X44925790Y-26983470D01*
X36295790Y-27101565D02*
X44925790Y-27101565D01*
X36295790Y-27219660D02*
X44925790Y-27219660D01*
X36295790Y-27337755D02*
X44925790Y-27337755D01*
X36295790Y-27455850D02*
X44925790Y-27455850D01*
X36295790Y-27573945D02*
X44925790Y-27573945D01*
X36295790Y-27692040D02*
X44925790Y-27692040D01*
X36295790Y-27810135D02*
X44925790Y-27810135D01*
X36295790Y-27928230D02*
X44925790Y-27928230D01*
X36295790Y-28046325D02*
X44925790Y-28046325D01*
X36295790Y-28164420D02*
X44925790Y-28164420D01*
X36295790Y-28282515D02*
X44925790Y-28282515D01*
X36295790Y-28400610D02*
X44925790Y-28400610D01*
X36295790Y-28518710D02*
X44925790Y-28518710D01*
X36295790Y-31058710D02*
X44925790Y-31058710D01*
X36295790Y-33598710D02*
X44925790Y-33598710D01*
X36295790Y-36138710D02*
X44925790Y-36138710D01*
X36295790Y-38678710D02*
X44925790Y-38678710D01*
X36295790Y-41218710D02*
X44925790Y-41218710D01*
X36295790Y-43758710D02*
X44925790Y-43758710D01*
X36295790Y-46298710D02*
X44925790Y-46298710D01*
X36295790Y-48838710D02*
X44925790Y-48838710D01*
X36295790Y-51378710D02*
X44925790Y-51378710D01*
X36295790Y-53918710D02*
X44925790Y-53918710D01*
X36295790Y-56458710D02*
X44925790Y-56458710D01*
X36295790Y-58998710D02*
X44925790Y-58998710D01*
X36295790Y-61538710D02*
X44925790Y-61538710D01*
X36295790Y-64078710D02*
X44925790Y-64078710D01*
X36295790Y-66618710D02*
X44925790Y-66618710D01*
X36295790Y-69158710D02*
X44925790Y-69158710D01*
X36295790Y-71698710D02*
X44925790Y-71698710D01*
X36295790Y-74238710D02*
X44925790Y-74238710D01*
X36295790Y-76778710D02*
X44925790Y-76778710D01*
X36295790Y-79318710D02*
X44925790Y-79318710D01*
X36295790Y-81858710D02*
X44925790Y-81858710D01*
X36295790Y-84398710D02*
X44925790Y-84398710D01*
X36295790Y-86938710D02*
X44925790Y-86938710D01*
X36295790Y-89538710D02*
X44925790Y-89538710D01*
X44925790Y-25918710D02*
X44925790Y-89538710D01*
X44925790Y-26888710D02*
X45335790Y-26888710D01*
X44925790Y-27608710D02*
X45335790Y-27608710D01*
X44925790Y-29428710D02*
X45335790Y-29428710D01*
X44925790Y-30148710D02*
X45335790Y-30148710D01*
X44925790Y-31968710D02*
X45335790Y-31968710D01*
X44925790Y-32688710D02*
X45335790Y-32688710D01*
X44925790Y-34508710D02*
X45335790Y-34508710D01*
X44925790Y-35228710D02*
X45335790Y-35228710D01*
X44925790Y-37048710D02*
X45335790Y-37048710D01*
X44925790Y-37768710D02*
X45335790Y-37768710D01*
X44925790Y-39588710D02*
X45335790Y-39588710D01*
X44925790Y-40308710D02*
X45335790Y-40308710D01*
X44925790Y-42128710D02*
X45335790Y-42128710D01*
X44925790Y-42848710D02*
X45335790Y-42848710D01*
X44925790Y-44668710D02*
X45335790Y-44668710D01*
X44925790Y-45388710D02*
X45335790Y-45388710D01*
X44925790Y-47208710D02*
X45335790Y-47208710D01*
X44925790Y-47928710D02*
X45335790Y-47928710D01*
X44925790Y-49748710D02*
X45335790Y-49748710D01*
X44925790Y-50468710D02*
X45335790Y-50468710D01*
X44925790Y-52288710D02*
X45335790Y-52288710D01*
X44925790Y-53008710D02*
X45335790Y-53008710D01*
X44925790Y-54828710D02*
X45335790Y-54828710D01*
X44925790Y-55548710D02*
X45335790Y-55548710D01*
X44925790Y-57368710D02*
X45335790Y-57368710D01*
X44925790Y-58088710D02*
X45335790Y-58088710D01*
X44925790Y-59908710D02*
X45335790Y-59908710D01*
X44925790Y-60628710D02*
X45335790Y-60628710D01*
X44925790Y-62448710D02*
X45335790Y-62448710D01*
X44925790Y-63168710D02*
X45335790Y-63168710D01*
X44925790Y-64988710D02*
X45335790Y-64988710D01*
X44925790Y-65708710D02*
X45335790Y-65708710D01*
X44925790Y-67528710D02*
X45335790Y-67528710D01*
X44925790Y-68248710D02*
X45335790Y-68248710D01*
X44925790Y-70068710D02*
X45335790Y-70068710D01*
X44925790Y-70788710D02*
X45335790Y-70788710D01*
X44925790Y-72608710D02*
X45335790Y-72608710D01*
X44925790Y-73328710D02*
X45335790Y-73328710D01*
X44925790Y-75148710D02*
X45335790Y-75148710D01*
X44925790Y-75868710D02*
X45335790Y-75868710D01*
X44925790Y-77688710D02*
X45335790Y-77688710D01*
X44925790Y-78408710D02*
X45335790Y-78408710D01*
X44925790Y-80228710D02*
X45335790Y-80228710D01*
X44925790Y-80948710D02*
X45335790Y-80948710D01*
X44925790Y-82768710D02*
X45335790Y-82768710D01*
X44925790Y-83488710D02*
X45335790Y-83488710D01*
X44925790Y-85308710D02*
X45335790Y-85308710D01*
X44925790Y-86028710D02*
X45335790Y-86028710D01*
X44925790Y-87848710D02*
X45335790Y-87848710D01*
X44925790Y-88568710D02*
X45335790Y-88568710D01*
X47435790Y-26888710D02*
X47815790Y-26888710D01*
X47435790Y-27608710D02*
X47815790Y-27608710D01*
X47435790Y-29428710D02*
X47875790Y-29428710D01*
X47435790Y-30148710D02*
X47875790Y-30148710D01*
X47435790Y-31968710D02*
X47875790Y-31968710D01*
X47435790Y-32688710D02*
X47875790Y-32688710D01*
X47435790Y-34508710D02*
X47875790Y-34508710D01*
X47435790Y-35228710D02*
X47875790Y-35228710D01*
X47435790Y-37048710D02*
X47875790Y-37048710D01*
X47435790Y-37768710D02*
X47875790Y-37768710D01*
X47435790Y-39588710D02*
X47875790Y-39588710D01*
X47435790Y-40308710D02*
X47875790Y-40308710D01*
X47435790Y-42128710D02*
X47875790Y-42128710D01*
X47435790Y-42848710D02*
X47875790Y-42848710D01*
X47435790Y-44668710D02*
X47875790Y-44668710D01*
X47435790Y-45388710D02*
X47875790Y-45388710D01*
X47435790Y-47208710D02*
X47875790Y-47208710D01*
X47435790Y-47928710D02*
X47875790Y-47928710D01*
X47435790Y-49748710D02*
X47875790Y-49748710D01*
X47435790Y-50468710D02*
X47875790Y-50468710D01*
X47435790Y-52288710D02*
X47875790Y-52288710D01*
X47435790Y-53008710D02*
X47875790Y-53008710D01*
X47435790Y-54828710D02*
X47875790Y-54828710D01*
X47435790Y-55548710D02*
X47875790Y-55548710D01*
X47435790Y-57368710D02*
X47875790Y-57368710D01*
X47435790Y-58088710D02*
X47875790Y-58088710D01*
X47435790Y-59908710D02*
X47875790Y-59908710D01*
X47435790Y-60628710D02*
X47875790Y-60628710D01*
X47435790Y-62448710D02*
X47875790Y-62448710D01*
X47435790Y-63168710D02*
X47875790Y-63168710D01*
X47435790Y-64988710D02*
X47875790Y-64988710D01*
X47435790Y-65708710D02*
X47875790Y-65708710D01*
X47435790Y-67528710D02*
X47875790Y-67528710D01*
X47435790Y-68248710D02*
X47875790Y-68248710D01*
X47435790Y-70068710D02*
X47875790Y-70068710D01*
X47435790Y-70788710D02*
X47875790Y-70788710D01*
X47435790Y-72608710D02*
X47875790Y-72608710D01*
X47435790Y-73328710D02*
X47875790Y-73328710D01*
X47435790Y-75148710D02*
X47875790Y-75148710D01*
X47435790Y-75868710D02*
X47875790Y-75868710D01*
X47435790Y-77688710D02*
X47875790Y-77688710D01*
X47435790Y-78408710D02*
X47875790Y-78408710D01*
X47435790Y-80228710D02*
X47875790Y-80228710D01*
X47435790Y-80948710D02*
X47875790Y-80948710D01*
X47435790Y-82768710D02*
X47875790Y-82768710D01*
X47435790Y-83488710D02*
X47875790Y-83488710D01*
X47435790Y-85308710D02*
X47875790Y-85308710D01*
X47435790Y-86028710D02*
X47875790Y-86028710D01*
X47435790Y-87848710D02*
X47875790Y-87848710D01*
X47435790Y-88568710D02*
X47875790Y-88568710D01*
X48925790Y-25918710D02*
X50035790Y-25918710D01*
X50035790Y-25918710D02*
X50035790Y-27248710D01*
D11*
%TO.C,J4*%
X60720000Y-87560000D02*
X60720000Y-72030000D01*
X91520000Y-72030000D02*
X60720000Y-72030000D01*
X91520000Y-72030000D02*
X91520000Y-87560000D01*
X91520000Y-83510000D02*
X60720000Y-83510000D01*
X91520000Y-87560000D02*
X60720000Y-87560000D01*
D14*
%TO.C,R1*%
X82846600Y-69961520D02*
X81373400Y-69961520D01*
X81375940Y-69920880D02*
X81375940Y-69222380D01*
X82844060Y-69222380D02*
X82844060Y-69920880D01*
X81375940Y-68221620D02*
X81375940Y-67523120D01*
X82844060Y-68221620D02*
X82844060Y-67523120D01*
X81373400Y-67482480D02*
X82846600Y-67482480D01*
%TO.C,R2*%
X99486600Y-68807520D02*
X98013400Y-68807520D01*
X98015940Y-68766880D02*
X98015940Y-68068380D01*
X99484060Y-68068380D02*
X99484060Y-68766880D01*
X98015940Y-67067620D02*
X98015940Y-66369120D01*
X99484060Y-67067620D02*
X99484060Y-66369120D01*
X98013400Y-66328480D02*
X99486600Y-66328480D01*
%TO.C,R3*%
X101746600Y-68807520D02*
X100273400Y-68807520D01*
X100275940Y-68766880D02*
X100275940Y-68068380D01*
X101744060Y-68068380D02*
X101744060Y-68766880D01*
X100275940Y-67067620D02*
X100275940Y-66369120D01*
X101744060Y-67067620D02*
X101744060Y-66369120D01*
X100273400Y-66328480D02*
X101746600Y-66328480D01*
%TO.C,R4*%
X69243400Y-46960480D02*
X70716600Y-46960480D01*
X70714060Y-47001120D02*
X70714060Y-47699620D01*
X69245940Y-47699620D02*
X69245940Y-47001120D01*
X70714060Y-48700380D02*
X70714060Y-49398880D01*
X69245940Y-48700380D02*
X69245940Y-49398880D01*
X70716600Y-49439520D02*
X69243400Y-49439520D01*
%TO.C,R5*%
X77879520Y-53463400D02*
X77879520Y-54936600D01*
X77838880Y-54934060D02*
X77140380Y-54934060D01*
X77140380Y-53465940D02*
X77838880Y-53465940D01*
X76139620Y-54934060D02*
X75441120Y-54934060D01*
X76139620Y-53465940D02*
X75441120Y-53465940D01*
X75400480Y-54936600D02*
X75400480Y-53463400D01*
%TO.C,R6*%
X73710480Y-57796600D02*
X73710480Y-56323400D01*
X73751120Y-56325940D02*
X74449620Y-56325940D01*
X74449620Y-57794060D02*
X73751120Y-57794060D01*
X75450380Y-56325940D02*
X76148880Y-56325940D01*
X75450380Y-57794060D02*
X76148880Y-57794060D01*
X76189520Y-56323400D02*
X76189520Y-57796600D01*
%TO.C,R7*%
X71740480Y-61426600D02*
X71740480Y-59953400D01*
X71781120Y-59955940D02*
X72479620Y-59955940D01*
X72479620Y-61424060D02*
X71781120Y-61424060D01*
X73480380Y-59955940D02*
X74178880Y-59955940D01*
X73480380Y-61424060D02*
X74178880Y-61424060D01*
X74219520Y-59953400D02*
X74219520Y-61426600D01*
%TO.C,R8*%
X78673400Y-49218480D02*
X80146600Y-49218480D01*
X80144060Y-49259120D02*
X80144060Y-49957620D01*
X78675940Y-49957620D02*
X78675940Y-49259120D01*
X80144060Y-50958380D02*
X80144060Y-51656880D01*
X78675940Y-50958380D02*
X78675940Y-51656880D01*
X80146600Y-51697520D02*
X78673400Y-51697520D01*
D15*
%TO.C,U1*%
X63480000Y-52170000D02*
X63480000Y-52620000D01*
X63480000Y-52620000D02*
X62190000Y-52620000D01*
X63480000Y-59390000D02*
X63480000Y-58940000D01*
X63930000Y-52170000D02*
X63480000Y-52170000D01*
X63930000Y-59390000D02*
X63480000Y-59390000D01*
X70250000Y-52170000D02*
X70700000Y-52170000D01*
X70250000Y-59390000D02*
X70700000Y-59390000D01*
X70700000Y-52170000D02*
X70700000Y-52620000D01*
X70700000Y-59390000D02*
X70700000Y-58940000D01*
%TO.C,U3*%
X54170000Y-78270000D02*
X55770000Y-78270000D01*
X55770000Y-75070000D02*
X53470000Y-75070000D01*
D11*
%TO.C,ST1*%
X51830000Y-15300000D02*
X49490000Y-15300000D01*
X46710000Y-15300000D02*
X44930000Y-15300000D01*
X44930000Y-15300000D02*
X44930000Y-20740000D01*
X51830000Y-20740000D02*
X49490000Y-20740000D01*
X44930000Y-20740000D02*
X46710000Y-20740000D01*
%TO.C,ST2*%
X51830000Y-94720000D02*
X49490000Y-94720000D01*
X46710000Y-94720000D02*
X44930000Y-94720000D01*
X44930000Y-94720000D02*
X44930000Y-100160000D01*
X51830000Y-100160000D02*
X49490000Y-100160000D01*
X44930000Y-100160000D02*
X46710000Y-100160000D01*
D15*
%TO.C,J2*%
X106730000Y-83490000D02*
X104830000Y-83490000D01*
X106730000Y-69250000D02*
X106730000Y-83490000D01*
X104830000Y-87490000D02*
X98590000Y-87490000D01*
X104830000Y-83490000D02*
X104830000Y-87490000D01*
X98590000Y-87490000D02*
X98590000Y-83490000D01*
X98590000Y-83490000D02*
X98290000Y-83490000D01*
X98290000Y-83490000D02*
X98290000Y-69250000D01*
X98290000Y-69250000D02*
X106730000Y-69250000D01*
%TO.C,U2*%
X91030000Y-70742000D02*
X91030000Y-70467000D01*
X91030000Y-70467000D02*
X92320000Y-70467000D01*
X91030000Y-60822000D02*
X91030000Y-61097000D01*
X88720000Y-70742000D02*
X91030000Y-70742000D01*
X88720000Y-70742000D02*
X86410000Y-70742000D01*
X88720000Y-60822000D02*
X91030000Y-60822000D01*
X88720000Y-60822000D02*
X86410000Y-60822000D01*
X86410000Y-70742000D02*
X86410000Y-70467000D01*
X86410000Y-60822000D02*
X86410000Y-61097000D01*
D14*
%TO.C,FB1*%
X52108480Y-82626600D02*
X52108480Y-81153400D01*
X52149120Y-81155940D02*
X52847620Y-81155940D01*
X52847620Y-82624060D02*
X52149120Y-82624060D01*
X53848380Y-81155940D02*
X54546880Y-81155940D01*
X53848380Y-82624060D02*
X54546880Y-82624060D01*
X54587520Y-81153400D02*
X54587520Y-82626600D01*
%TO.C,FB2*%
X52108480Y-80886600D02*
X52108480Y-79413400D01*
X52149120Y-79415940D02*
X52847620Y-79415940D01*
X52847620Y-80884060D02*
X52149120Y-80884060D01*
X53848380Y-79415940D02*
X54546880Y-79415940D01*
X53848380Y-80884060D02*
X54546880Y-80884060D01*
X54587520Y-79413400D02*
X54587520Y-80886600D01*
%TD*%
D16*
%TO.C,J4*%
X80560000Y-73590000D03*
X78270000Y-73590000D03*
X75980000Y-73590000D03*
X73690000Y-73590000D03*
X71400000Y-73590000D03*
X81700000Y-76130000D03*
X79410000Y-76130000D03*
X77120000Y-76130000D03*
X74830000Y-76130000D03*
D17*
X63740000Y-76130000D03*
D16*
X72540000Y-76130000D03*
D17*
X88740000Y-76130000D03*
D16*
X80560000Y-78670000D03*
X78270000Y-78670000D03*
X75980000Y-78670000D03*
X73690000Y-78670000D03*
X71400000Y-78670000D03*
%TD*%
M02*
