%TF.GenerationSoftware,KiCad,Pcbnew,5.1.9+dfsg1-1*%
%TF.CreationDate,2021-08-04T00:34:55+03:00*%
%TF.ProjectId,extra_av_out,65787472-615f-4617-965f-6f75742e6b69,rev?*%
%TF.SameCoordinates,Original*%
%TF.FileFunction,Legend,Top*%
%TF.FilePolarity,Positive*%
%FSLAX46Y46*%
G04 Gerber Fmt 4.6, Leading zero omitted, Abs format (unit mm)*
G04 Created by KiCad (PCBNEW 5.1.9+dfsg1-1) date 2021-08-04 00:34:55*
%MOMM*%
%LPD*%
G01*
G04 APERTURE LIST*
%ADD10C,0.300000*%
%ADD11C,0.120000*%
%ADD12C,0.150000*%
%ADD13C,0.119380*%
%ADD14C,0.127000*%
%ADD15C,0.114300*%
G04 APERTURE END LIST*
D10*
X97400000Y-37907142D02*
X97257142Y-37978571D01*
X96971428Y-37978571D01*
X96828571Y-37907142D01*
X96757142Y-37764285D01*
X96757142Y-37192857D01*
X96828571Y-37050000D01*
X96971428Y-36978571D01*
X97257142Y-36978571D01*
X97400000Y-37050000D01*
X97471428Y-37192857D01*
X97471428Y-37335714D01*
X96757142Y-37478571D01*
X97971428Y-37978571D02*
X98757142Y-36978571D01*
X97971428Y-36978571D02*
X98757142Y-37978571D01*
X99114285Y-36978571D02*
X99685714Y-36978571D01*
X99328571Y-36478571D02*
X99328571Y-37764285D01*
X99400000Y-37907142D01*
X99542857Y-37978571D01*
X99685714Y-37978571D01*
X100185714Y-37978571D02*
X100185714Y-36978571D01*
X100185714Y-37264285D02*
X100257142Y-37121428D01*
X100328571Y-37050000D01*
X100471428Y-36978571D01*
X100614285Y-36978571D01*
X101757142Y-37978571D02*
X101757142Y-37192857D01*
X101685714Y-37050000D01*
X101542857Y-36978571D01*
X101257142Y-36978571D01*
X101114285Y-37050000D01*
X101757142Y-37907142D02*
X101614285Y-37978571D01*
X101257142Y-37978571D01*
X101114285Y-37907142D01*
X101042857Y-37764285D01*
X101042857Y-37621428D01*
X101114285Y-37478571D01*
X101257142Y-37407142D01*
X101614285Y-37407142D01*
X101757142Y-37335714D01*
X102114285Y-38121428D02*
X103257142Y-38121428D01*
X104257142Y-37978571D02*
X104257142Y-37192857D01*
X104185714Y-37050000D01*
X104042857Y-36978571D01*
X103757142Y-36978571D01*
X103614285Y-37050000D01*
X104257142Y-37907142D02*
X104114285Y-37978571D01*
X103757142Y-37978571D01*
X103614285Y-37907142D01*
X103542857Y-37764285D01*
X103542857Y-37621428D01*
X103614285Y-37478571D01*
X103757142Y-37407142D01*
X104114285Y-37407142D01*
X104257142Y-37335714D01*
X104828571Y-36978571D02*
X105185714Y-37978571D01*
X105542857Y-36978571D01*
X105757142Y-38121428D02*
X106900000Y-38121428D01*
X107471428Y-37978571D02*
X107328571Y-37907142D01*
X107257142Y-37835714D01*
X107185714Y-37692857D01*
X107185714Y-37264285D01*
X107257142Y-37121428D01*
X107328571Y-37050000D01*
X107471428Y-36978571D01*
X107685714Y-36978571D01*
X107828571Y-37050000D01*
X107900000Y-37121428D01*
X107971428Y-37264285D01*
X107971428Y-37692857D01*
X107900000Y-37835714D01*
X107828571Y-37907142D01*
X107685714Y-37978571D01*
X107471428Y-37978571D01*
X109257142Y-36978571D02*
X109257142Y-37978571D01*
X108614285Y-36978571D02*
X108614285Y-37764285D01*
X108685714Y-37907142D01*
X108828571Y-37978571D01*
X109042857Y-37978571D01*
X109185714Y-37907142D01*
X109257142Y-37835714D01*
X109757142Y-36978571D02*
X110328571Y-36978571D01*
X109971428Y-36478571D02*
X109971428Y-37764285D01*
X110042857Y-37907142D01*
X110185714Y-37978571D01*
X110328571Y-37978571D01*
X111828571Y-36978571D02*
X112185714Y-37978571D01*
X112542857Y-36978571D01*
X113900000Y-37978571D02*
X113042857Y-37978571D01*
X113471428Y-37978571D02*
X113471428Y-36478571D01*
X113328571Y-36692857D01*
X113185714Y-36835714D01*
X113042857Y-36907142D01*
X114542857Y-37835714D02*
X114614285Y-37907142D01*
X114542857Y-37978571D01*
X114471428Y-37907142D01*
X114542857Y-37835714D01*
X114542857Y-37978571D01*
X115542857Y-36478571D02*
X115685714Y-36478571D01*
X115828571Y-36550000D01*
X115900000Y-36621428D01*
X115971428Y-36764285D01*
X116042857Y-37050000D01*
X116042857Y-37407142D01*
X115971428Y-37692857D01*
X115900000Y-37835714D01*
X115828571Y-37907142D01*
X115685714Y-37978571D01*
X115542857Y-37978571D01*
X115400000Y-37907142D01*
X115328571Y-37835714D01*
X115257142Y-37692857D01*
X115185714Y-37407142D01*
X115185714Y-37050000D01*
X115257142Y-36764285D01*
X115328571Y-36621428D01*
X115400000Y-36550000D01*
X115542857Y-36478571D01*
D11*
%TO.C,J2*%
X103240000Y-87420000D02*
X103240000Y-91420000D01*
X105140000Y-87420000D02*
X103240000Y-87420000D01*
X105140000Y-73180000D02*
X105140000Y-87420000D01*
X96700000Y-73180000D02*
X105140000Y-73180000D01*
X96700000Y-87420000D02*
X96700000Y-73180000D01*
X97000000Y-87420000D02*
X96700000Y-87420000D01*
X97000000Y-91420000D02*
X97000000Y-87420000D01*
X103240000Y-91420000D02*
X97000000Y-91420000D01*
D12*
%TO.C,ST2*%
X51830000Y-94720000D02*
X49490000Y-94720000D01*
X51830000Y-100160000D02*
X49490000Y-100160000D01*
X46710000Y-94720000D02*
X44930000Y-94720000D01*
X44930000Y-94720000D02*
X44930000Y-100160000D01*
X44930000Y-100160000D02*
X46710000Y-100160000D01*
%TO.C,ST1*%
X51830000Y-15300000D02*
X49490000Y-15300000D01*
X51830000Y-20740000D02*
X49490000Y-20740000D01*
X46710000Y-15300000D02*
X44930000Y-15300000D01*
X44930000Y-15300000D02*
X44930000Y-20740000D01*
X44930000Y-20740000D02*
X46710000Y-20740000D01*
D11*
%TO.C,U3*%
X55770000Y-75070000D02*
X53470000Y-75070000D01*
X54170000Y-78270000D02*
X55770000Y-78270000D01*
%TO.C,U2*%
X95790000Y-64595000D02*
X97080000Y-64595000D01*
X95790000Y-64870000D02*
X95790000Y-64595000D01*
X93480000Y-64870000D02*
X95790000Y-64870000D01*
X91170000Y-64870000D02*
X91170000Y-64595000D01*
X93480000Y-64870000D02*
X91170000Y-64870000D01*
X95790000Y-54950000D02*
X95790000Y-55225000D01*
X93480000Y-54950000D02*
X95790000Y-54950000D01*
X91170000Y-54950000D02*
X91170000Y-55225000D01*
X93480000Y-54950000D02*
X91170000Y-54950000D01*
%TO.C,U1*%
X63480000Y-52620000D02*
X62190000Y-52620000D01*
X63480000Y-52170000D02*
X63480000Y-52620000D01*
X63930000Y-52170000D02*
X63480000Y-52170000D01*
X70700000Y-52170000D02*
X70700000Y-52620000D01*
X70250000Y-52170000D02*
X70700000Y-52170000D01*
X63480000Y-59390000D02*
X63480000Y-58940000D01*
X63930000Y-59390000D02*
X63480000Y-59390000D01*
X70700000Y-59390000D02*
X70700000Y-58940000D01*
X70250000Y-59390000D02*
X70700000Y-59390000D01*
D13*
%TO.C,R8*%
X79093400Y-49210480D02*
X80566600Y-49210480D01*
X80566600Y-51689520D02*
X79093400Y-51689520D01*
X80564060Y-49251120D02*
X80564060Y-49949620D01*
X80564060Y-50950380D02*
X80564060Y-51648880D01*
X79095940Y-49949620D02*
X79095940Y-49251120D01*
X79095940Y-50950380D02*
X79095940Y-51648880D01*
%TO.C,R7*%
X71740480Y-61426600D02*
X71740480Y-59953400D01*
X74219520Y-59953400D02*
X74219520Y-61426600D01*
X71781120Y-59955940D02*
X72479620Y-59955940D01*
X73480380Y-59955940D02*
X74178880Y-59955940D01*
X72479620Y-61424060D02*
X71781120Y-61424060D01*
X73480380Y-61424060D02*
X74178880Y-61424060D01*
%TO.C,R6*%
X73710480Y-57796600D02*
X73710480Y-56323400D01*
X76189520Y-56323400D02*
X76189520Y-57796600D01*
X73751120Y-56325940D02*
X74449620Y-56325940D01*
X75450380Y-56325940D02*
X76148880Y-56325940D01*
X74449620Y-57794060D02*
X73751120Y-57794060D01*
X75450380Y-57794060D02*
X76148880Y-57794060D01*
%TO.C,R5*%
X77879520Y-53463400D02*
X77879520Y-54936600D01*
X75400480Y-54936600D02*
X75400480Y-53463400D01*
X77838880Y-54934060D02*
X77140380Y-54934060D01*
X76139620Y-54934060D02*
X75441120Y-54934060D01*
X77140380Y-53465940D02*
X77838880Y-53465940D01*
X76139620Y-53465940D02*
X75441120Y-53465940D01*
%TO.C,R4*%
X69243400Y-46960480D02*
X70716600Y-46960480D01*
X70716600Y-49439520D02*
X69243400Y-49439520D01*
X70714060Y-47001120D02*
X70714060Y-47699620D01*
X70714060Y-48700380D02*
X70714060Y-49398880D01*
X69245940Y-47699620D02*
X69245940Y-47001120D01*
X69245940Y-48700380D02*
X69245940Y-49398880D01*
%TO.C,R3*%
X101726600Y-70989520D02*
X100253400Y-70989520D01*
X100253400Y-68510480D02*
X101726600Y-68510480D01*
X100255940Y-70948880D02*
X100255940Y-70250380D01*
X100255940Y-69249620D02*
X100255940Y-68551120D01*
X101724060Y-70250380D02*
X101724060Y-70948880D01*
X101724060Y-69249620D02*
X101724060Y-68551120D01*
%TO.C,R2*%
X99466600Y-70989520D02*
X97993400Y-70989520D01*
X97993400Y-68510480D02*
X99466600Y-68510480D01*
X97995940Y-70948880D02*
X97995940Y-70250380D01*
X97995940Y-69249620D02*
X97995940Y-68551120D01*
X99464060Y-70250380D02*
X99464060Y-70948880D01*
X99464060Y-69249620D02*
X99464060Y-68551120D01*
%TO.C,R1*%
X87606600Y-64089520D02*
X86133400Y-64089520D01*
X86133400Y-61610480D02*
X87606600Y-61610480D01*
X86135940Y-64048880D02*
X86135940Y-63350380D01*
X86135940Y-62349620D02*
X86135940Y-61651120D01*
X87604060Y-63350380D02*
X87604060Y-64048880D01*
X87604060Y-62349620D02*
X87604060Y-61651120D01*
D12*
%TO.C,J4*%
X58930000Y-87490000D02*
X58930000Y-71960000D01*
X89730000Y-87490000D02*
X58930000Y-87490000D01*
X89730000Y-71960000D02*
X89730000Y-87490000D01*
X89730000Y-71960000D02*
X58930000Y-71960000D01*
X89730000Y-83440000D02*
X58930000Y-83440000D01*
%TO.C,J3*%
X119830000Y-87475000D02*
X110130000Y-87475000D01*
X119830000Y-76325000D02*
X119830000Y-89825000D01*
X110130000Y-76325000D02*
X119830000Y-76325000D01*
X110130000Y-89825000D02*
X110130000Y-76325000D01*
X119830000Y-89825000D02*
X110130000Y-89825000D01*
D11*
%TO.C,J1*%
X48925790Y-25918710D02*
X50035790Y-25918710D01*
X50035790Y-25918710D02*
X50035790Y-27248710D01*
X36295790Y-25918710D02*
X36295790Y-89538710D01*
X36295790Y-89538710D02*
X44925790Y-89538710D01*
X44925790Y-25918710D02*
X44925790Y-89538710D01*
X36295790Y-25918710D02*
X44925790Y-25918710D01*
X36295790Y-86938710D02*
X44925790Y-86938710D01*
X36295790Y-84398710D02*
X44925790Y-84398710D01*
X36295790Y-81858710D02*
X44925790Y-81858710D01*
X36295790Y-79318710D02*
X44925790Y-79318710D01*
X36295790Y-76778710D02*
X44925790Y-76778710D01*
X36295790Y-74238710D02*
X44925790Y-74238710D01*
X36295790Y-71698710D02*
X44925790Y-71698710D01*
X36295790Y-69158710D02*
X44925790Y-69158710D01*
X36295790Y-66618710D02*
X44925790Y-66618710D01*
X36295790Y-64078710D02*
X44925790Y-64078710D01*
X36295790Y-61538710D02*
X44925790Y-61538710D01*
X36295790Y-58998710D02*
X44925790Y-58998710D01*
X36295790Y-56458710D02*
X44925790Y-56458710D01*
X36295790Y-53918710D02*
X44925790Y-53918710D01*
X36295790Y-51378710D02*
X44925790Y-51378710D01*
X36295790Y-48838710D02*
X44925790Y-48838710D01*
X36295790Y-46298710D02*
X44925790Y-46298710D01*
X36295790Y-43758710D02*
X44925790Y-43758710D01*
X36295790Y-41218710D02*
X44925790Y-41218710D01*
X36295790Y-38678710D02*
X44925790Y-38678710D01*
X36295790Y-36138710D02*
X44925790Y-36138710D01*
X36295790Y-33598710D02*
X44925790Y-33598710D01*
X36295790Y-31058710D02*
X44925790Y-31058710D01*
X36295790Y-28518710D02*
X44925790Y-28518710D01*
X47435790Y-88568710D02*
X47875790Y-88568710D01*
X44925790Y-88568710D02*
X45335790Y-88568710D01*
X47435790Y-87848710D02*
X47875790Y-87848710D01*
X44925790Y-87848710D02*
X45335790Y-87848710D01*
X47435790Y-86028710D02*
X47875790Y-86028710D01*
X44925790Y-86028710D02*
X45335790Y-86028710D01*
X47435790Y-85308710D02*
X47875790Y-85308710D01*
X44925790Y-85308710D02*
X45335790Y-85308710D01*
X47435790Y-83488710D02*
X47875790Y-83488710D01*
X44925790Y-83488710D02*
X45335790Y-83488710D01*
X47435790Y-82768710D02*
X47875790Y-82768710D01*
X44925790Y-82768710D02*
X45335790Y-82768710D01*
X47435790Y-80948710D02*
X47875790Y-80948710D01*
X44925790Y-80948710D02*
X45335790Y-80948710D01*
X47435790Y-80228710D02*
X47875790Y-80228710D01*
X44925790Y-80228710D02*
X45335790Y-80228710D01*
X47435790Y-78408710D02*
X47875790Y-78408710D01*
X44925790Y-78408710D02*
X45335790Y-78408710D01*
X47435790Y-77688710D02*
X47875790Y-77688710D01*
X44925790Y-77688710D02*
X45335790Y-77688710D01*
X47435790Y-75868710D02*
X47875790Y-75868710D01*
X44925790Y-75868710D02*
X45335790Y-75868710D01*
X47435790Y-75148710D02*
X47875790Y-75148710D01*
X44925790Y-75148710D02*
X45335790Y-75148710D01*
X47435790Y-73328710D02*
X47875790Y-73328710D01*
X44925790Y-73328710D02*
X45335790Y-73328710D01*
X47435790Y-72608710D02*
X47875790Y-72608710D01*
X44925790Y-72608710D02*
X45335790Y-72608710D01*
X47435790Y-70788710D02*
X47875790Y-70788710D01*
X44925790Y-70788710D02*
X45335790Y-70788710D01*
X47435790Y-70068710D02*
X47875790Y-70068710D01*
X44925790Y-70068710D02*
X45335790Y-70068710D01*
X47435790Y-68248710D02*
X47875790Y-68248710D01*
X44925790Y-68248710D02*
X45335790Y-68248710D01*
X47435790Y-67528710D02*
X47875790Y-67528710D01*
X44925790Y-67528710D02*
X45335790Y-67528710D01*
X47435790Y-65708710D02*
X47875790Y-65708710D01*
X44925790Y-65708710D02*
X45335790Y-65708710D01*
X47435790Y-64988710D02*
X47875790Y-64988710D01*
X44925790Y-64988710D02*
X45335790Y-64988710D01*
X47435790Y-63168710D02*
X47875790Y-63168710D01*
X44925790Y-63168710D02*
X45335790Y-63168710D01*
X47435790Y-62448710D02*
X47875790Y-62448710D01*
X44925790Y-62448710D02*
X45335790Y-62448710D01*
X47435790Y-60628710D02*
X47875790Y-60628710D01*
X44925790Y-60628710D02*
X45335790Y-60628710D01*
X47435790Y-59908710D02*
X47875790Y-59908710D01*
X44925790Y-59908710D02*
X45335790Y-59908710D01*
X47435790Y-58088710D02*
X47875790Y-58088710D01*
X44925790Y-58088710D02*
X45335790Y-58088710D01*
X47435790Y-57368710D02*
X47875790Y-57368710D01*
X44925790Y-57368710D02*
X45335790Y-57368710D01*
X47435790Y-55548710D02*
X47875790Y-55548710D01*
X44925790Y-55548710D02*
X45335790Y-55548710D01*
X47435790Y-54828710D02*
X47875790Y-54828710D01*
X44925790Y-54828710D02*
X45335790Y-54828710D01*
X47435790Y-53008710D02*
X47875790Y-53008710D01*
X44925790Y-53008710D02*
X45335790Y-53008710D01*
X47435790Y-52288710D02*
X47875790Y-52288710D01*
X44925790Y-52288710D02*
X45335790Y-52288710D01*
X47435790Y-50468710D02*
X47875790Y-50468710D01*
X44925790Y-50468710D02*
X45335790Y-50468710D01*
X47435790Y-49748710D02*
X47875790Y-49748710D01*
X44925790Y-49748710D02*
X45335790Y-49748710D01*
X47435790Y-47928710D02*
X47875790Y-47928710D01*
X44925790Y-47928710D02*
X45335790Y-47928710D01*
X47435790Y-47208710D02*
X47875790Y-47208710D01*
X44925790Y-47208710D02*
X45335790Y-47208710D01*
X47435790Y-45388710D02*
X47875790Y-45388710D01*
X44925790Y-45388710D02*
X45335790Y-45388710D01*
X47435790Y-44668710D02*
X47875790Y-44668710D01*
X44925790Y-44668710D02*
X45335790Y-44668710D01*
X47435790Y-42848710D02*
X47875790Y-42848710D01*
X44925790Y-42848710D02*
X45335790Y-42848710D01*
X47435790Y-42128710D02*
X47875790Y-42128710D01*
X44925790Y-42128710D02*
X45335790Y-42128710D01*
X47435790Y-40308710D02*
X47875790Y-40308710D01*
X44925790Y-40308710D02*
X45335790Y-40308710D01*
X47435790Y-39588710D02*
X47875790Y-39588710D01*
X44925790Y-39588710D02*
X45335790Y-39588710D01*
X47435790Y-37768710D02*
X47875790Y-37768710D01*
X44925790Y-37768710D02*
X45335790Y-37768710D01*
X47435790Y-37048710D02*
X47875790Y-37048710D01*
X44925790Y-37048710D02*
X45335790Y-37048710D01*
X47435790Y-35228710D02*
X47875790Y-35228710D01*
X44925790Y-35228710D02*
X45335790Y-35228710D01*
X47435790Y-34508710D02*
X47875790Y-34508710D01*
X44925790Y-34508710D02*
X45335790Y-34508710D01*
X47435790Y-32688710D02*
X47875790Y-32688710D01*
X44925790Y-32688710D02*
X45335790Y-32688710D01*
X47435790Y-31968710D02*
X47875790Y-31968710D01*
X44925790Y-31968710D02*
X45335790Y-31968710D01*
X47435790Y-30148710D02*
X47875790Y-30148710D01*
X44925790Y-30148710D02*
X45335790Y-30148710D01*
X47435790Y-29428710D02*
X47875790Y-29428710D01*
X44925790Y-29428710D02*
X45335790Y-29428710D01*
X47435790Y-27608710D02*
X47815790Y-27608710D01*
X44925790Y-27608710D02*
X45335790Y-27608710D01*
X47435790Y-26888710D02*
X47815790Y-26888710D01*
X44925790Y-26888710D02*
X45335790Y-26888710D01*
X36295790Y-28400610D02*
X44925790Y-28400610D01*
X36295790Y-28282515D02*
X44925790Y-28282515D01*
X36295790Y-28164420D02*
X44925790Y-28164420D01*
X36295790Y-28046325D02*
X44925790Y-28046325D01*
X36295790Y-27928230D02*
X44925790Y-27928230D01*
X36295790Y-27810135D02*
X44925790Y-27810135D01*
X36295790Y-27692040D02*
X44925790Y-27692040D01*
X36295790Y-27573945D02*
X44925790Y-27573945D01*
X36295790Y-27455850D02*
X44925790Y-27455850D01*
X36295790Y-27337755D02*
X44925790Y-27337755D01*
X36295790Y-27219660D02*
X44925790Y-27219660D01*
X36295790Y-27101565D02*
X44925790Y-27101565D01*
X36295790Y-26983470D02*
X44925790Y-26983470D01*
X36295790Y-26865375D02*
X44925790Y-26865375D01*
X36295790Y-26747280D02*
X44925790Y-26747280D01*
X36295790Y-26629185D02*
X44925790Y-26629185D01*
X36295790Y-26511090D02*
X44925790Y-26511090D01*
X36295790Y-26392995D02*
X44925790Y-26392995D01*
X36295790Y-26274900D02*
X44925790Y-26274900D01*
X36295790Y-26156805D02*
X44925790Y-26156805D01*
X36295790Y-26038710D02*
X44925790Y-26038710D01*
%TO.C,D1*%
X73180000Y-48690000D02*
X74640000Y-48690000D01*
X73180000Y-51850000D02*
X76340000Y-51850000D01*
X73180000Y-51850000D02*
X73180000Y-50920000D01*
X73180000Y-48690000D02*
X73180000Y-49620000D01*
D13*
%TO.C,C20*%
X78646600Y-51699520D02*
X77173400Y-51699520D01*
X77173400Y-49220480D02*
X78646600Y-49220480D01*
X77175940Y-51658880D02*
X77175940Y-50960380D01*
X77175940Y-49959620D02*
X77175940Y-49261120D01*
X78644060Y-50960380D02*
X78644060Y-51658880D01*
X78644060Y-49959620D02*
X78644060Y-49261120D01*
%TO.C,C13*%
X102250480Y-71806600D02*
X102250480Y-70333400D01*
X104729520Y-70333400D02*
X104729520Y-71806600D01*
X102291120Y-70335940D02*
X102989620Y-70335940D01*
X103990380Y-70335940D02*
X104688880Y-70335940D01*
X102989620Y-71804060D02*
X102291120Y-71804060D01*
X103990380Y-71804060D02*
X104688880Y-71804060D01*
%TO.C,C11*%
X95060480Y-71786600D02*
X95060480Y-70313400D01*
X97539520Y-70313400D02*
X97539520Y-71786600D01*
X95101120Y-70315940D02*
X95799620Y-70315940D01*
X96800380Y-70315940D02*
X97498880Y-70315940D01*
X95799620Y-71784060D02*
X95101120Y-71784060D01*
X96800380Y-71784060D02*
X97498880Y-71784060D01*
%TO.C,J2*%
D12*
X100586666Y-92002380D02*
X100586666Y-92716666D01*
X100539047Y-92859523D01*
X100443809Y-92954761D01*
X100300952Y-93002380D01*
X100205714Y-93002380D01*
X101015238Y-92097619D02*
X101062857Y-92050000D01*
X101158095Y-92002380D01*
X101396190Y-92002380D01*
X101491428Y-92050000D01*
X101539047Y-92097619D01*
X101586666Y-92192857D01*
X101586666Y-92288095D01*
X101539047Y-92430952D01*
X100967619Y-93002380D01*
X101586666Y-93002380D01*
%TO.C,ST2*%
X55530241Y-98864797D02*
X55577860Y-98721940D01*
X55577860Y-98483844D01*
X55530241Y-98388606D01*
X55482622Y-98340987D01*
X55387384Y-98293368D01*
X55292146Y-98293368D01*
X55196908Y-98340987D01*
X55149289Y-98388606D01*
X55101670Y-98483844D01*
X55054051Y-98674320D01*
X55006432Y-98769559D01*
X54958813Y-98817178D01*
X54863575Y-98864797D01*
X54768337Y-98864797D01*
X54673099Y-98817178D01*
X54625480Y-98769559D01*
X54577860Y-98674320D01*
X54577860Y-98436225D01*
X54625480Y-98293368D01*
X54577860Y-98007654D02*
X54577860Y-97436225D01*
X55577860Y-97721940D02*
X54577860Y-97721940D01*
X54673099Y-97150511D02*
X54625480Y-97102892D01*
X54577860Y-97007654D01*
X54577860Y-96769559D01*
X54625480Y-96674320D01*
X54673099Y-96626701D01*
X54768337Y-96579082D01*
X54863575Y-96579082D01*
X55006432Y-96626701D01*
X55577860Y-97198130D01*
X55577860Y-96579082D01*
%TO.C,ST1*%
X55530241Y-19444797D02*
X55577860Y-19301940D01*
X55577860Y-19063844D01*
X55530241Y-18968606D01*
X55482622Y-18920987D01*
X55387384Y-18873368D01*
X55292146Y-18873368D01*
X55196908Y-18920987D01*
X55149289Y-18968606D01*
X55101670Y-19063844D01*
X55054051Y-19254320D01*
X55006432Y-19349559D01*
X54958813Y-19397178D01*
X54863575Y-19444797D01*
X54768337Y-19444797D01*
X54673099Y-19397178D01*
X54625480Y-19349559D01*
X54577860Y-19254320D01*
X54577860Y-19016225D01*
X54625480Y-18873368D01*
X54577860Y-18587654D02*
X54577860Y-18016225D01*
X55577860Y-18301940D02*
X54577860Y-18301940D01*
X55577860Y-17159082D02*
X55577860Y-17730511D01*
X55577860Y-17444797D02*
X54577860Y-17444797D01*
X54720718Y-17540035D01*
X54815956Y-17635273D01*
X54863575Y-17730511D01*
%TO.C,U3*%
X54208095Y-73672380D02*
X54208095Y-74481904D01*
X54255714Y-74577142D01*
X54303333Y-74624761D01*
X54398571Y-74672380D01*
X54589047Y-74672380D01*
X54684285Y-74624761D01*
X54731904Y-74577142D01*
X54779523Y-74481904D01*
X54779523Y-73672380D01*
X55160476Y-73672380D02*
X55779523Y-73672380D01*
X55446190Y-74053333D01*
X55589047Y-74053333D01*
X55684285Y-74100952D01*
X55731904Y-74148571D01*
X55779523Y-74243809D01*
X55779523Y-74481904D01*
X55731904Y-74577142D01*
X55684285Y-74624761D01*
X55589047Y-74672380D01*
X55303333Y-74672380D01*
X55208095Y-74624761D01*
X55160476Y-74577142D01*
%TO.C,U2*%
X92718095Y-65162380D02*
X92718095Y-65971904D01*
X92765714Y-66067142D01*
X92813333Y-66114761D01*
X92908571Y-66162380D01*
X93099047Y-66162380D01*
X93194285Y-66114761D01*
X93241904Y-66067142D01*
X93289523Y-65971904D01*
X93289523Y-65162380D01*
X93718095Y-65257619D02*
X93765714Y-65210000D01*
X93860952Y-65162380D01*
X94099047Y-65162380D01*
X94194285Y-65210000D01*
X94241904Y-65257619D01*
X94289523Y-65352857D01*
X94289523Y-65448095D01*
X94241904Y-65590952D01*
X93670476Y-66162380D01*
X94289523Y-66162380D01*
%TO.C,U1*%
X66328095Y-49382380D02*
X66328095Y-50191904D01*
X66375714Y-50287142D01*
X66423333Y-50334761D01*
X66518571Y-50382380D01*
X66709047Y-50382380D01*
X66804285Y-50334761D01*
X66851904Y-50287142D01*
X66899523Y-50191904D01*
X66899523Y-49382380D01*
X67899523Y-50382380D02*
X67328095Y-50382380D01*
X67613809Y-50382380D02*
X67613809Y-49382380D01*
X67518571Y-49525238D01*
X67423333Y-49620476D01*
X67328095Y-49668095D01*
%TO.C,R8*%
D14*
X79745333Y-48936280D02*
X79576000Y-48658090D01*
X79455047Y-48936280D02*
X79455047Y-48352080D01*
X79648571Y-48352080D01*
X79696952Y-48379900D01*
X79721142Y-48407719D01*
X79745333Y-48463357D01*
X79745333Y-48546814D01*
X79721142Y-48602452D01*
X79696952Y-48630271D01*
X79648571Y-48658090D01*
X79455047Y-48658090D01*
X80035619Y-48602452D02*
X79987238Y-48574633D01*
X79963047Y-48546814D01*
X79938857Y-48491176D01*
X79938857Y-48463357D01*
X79963047Y-48407719D01*
X79987238Y-48379900D01*
X80035619Y-48352080D01*
X80132380Y-48352080D01*
X80180761Y-48379900D01*
X80204952Y-48407719D01*
X80229142Y-48463357D01*
X80229142Y-48491176D01*
X80204952Y-48546814D01*
X80180761Y-48574633D01*
X80132380Y-48602452D01*
X80035619Y-48602452D01*
X79987238Y-48630271D01*
X79963047Y-48658090D01*
X79938857Y-48713728D01*
X79938857Y-48825004D01*
X79963047Y-48880642D01*
X79987238Y-48908461D01*
X80035619Y-48936280D01*
X80132380Y-48936280D01*
X80180761Y-48908461D01*
X80204952Y-48880642D01*
X80229142Y-48825004D01*
X80229142Y-48713728D01*
X80204952Y-48658090D01*
X80180761Y-48630271D01*
X80132380Y-48602452D01*
D15*
X79775571Y-50679809D02*
X79514314Y-50679809D01*
X79644942Y-50679809D02*
X79644942Y-50171809D01*
X79601400Y-50244380D01*
X79557857Y-50292761D01*
X79514314Y-50316952D01*
X79971514Y-50679809D02*
X79971514Y-50171809D01*
X80015057Y-50486285D02*
X80145685Y-50679809D01*
X80145685Y-50341142D02*
X79971514Y-50534666D01*
%TO.C,R7*%
D14*
X75054280Y-60764666D02*
X74776090Y-60934000D01*
X75054280Y-61054952D02*
X74470080Y-61054952D01*
X74470080Y-60861428D01*
X74497900Y-60813047D01*
X74525719Y-60788857D01*
X74581357Y-60764666D01*
X74664814Y-60764666D01*
X74720452Y-60788857D01*
X74748271Y-60813047D01*
X74776090Y-60861428D01*
X74776090Y-61054952D01*
X74470080Y-60595333D02*
X74470080Y-60256666D01*
X75054280Y-60474380D01*
D15*
X72701809Y-61060114D02*
X72701809Y-60755314D01*
X73209809Y-60951257D01*
X72701809Y-60363428D02*
X72701809Y-60581142D01*
X72943714Y-60602914D01*
X72919523Y-60581142D01*
X72895333Y-60537600D01*
X72895333Y-60428742D01*
X72919523Y-60385200D01*
X72943714Y-60363428D01*
X72992095Y-60341657D01*
X73113047Y-60341657D01*
X73161428Y-60363428D01*
X73185619Y-60385200D01*
X73209809Y-60428742D01*
X73209809Y-60537600D01*
X73185619Y-60581142D01*
X73161428Y-60602914D01*
%TO.C,R6*%
D14*
X76984280Y-57144666D02*
X76706090Y-57314000D01*
X76984280Y-57434952D02*
X76400080Y-57434952D01*
X76400080Y-57241428D01*
X76427900Y-57193047D01*
X76455719Y-57168857D01*
X76511357Y-57144666D01*
X76594814Y-57144666D01*
X76650452Y-57168857D01*
X76678271Y-57193047D01*
X76706090Y-57241428D01*
X76706090Y-57434952D01*
X76400080Y-56709238D02*
X76400080Y-56806000D01*
X76427900Y-56854380D01*
X76455719Y-56878571D01*
X76539176Y-56926952D01*
X76650452Y-56951142D01*
X76873004Y-56951142D01*
X76928642Y-56926952D01*
X76956461Y-56902761D01*
X76984280Y-56854380D01*
X76984280Y-56757619D01*
X76956461Y-56709238D01*
X76928642Y-56685047D01*
X76873004Y-56660857D01*
X76733909Y-56660857D01*
X76678271Y-56685047D01*
X76650452Y-56709238D01*
X76622633Y-56757619D01*
X76622633Y-56854380D01*
X76650452Y-56902761D01*
X76678271Y-56926952D01*
X76733909Y-56951142D01*
D15*
X74671809Y-57430114D02*
X74671809Y-57125314D01*
X75179809Y-57321257D01*
X74671809Y-56733428D02*
X74671809Y-56951142D01*
X74913714Y-56972914D01*
X74889523Y-56951142D01*
X74865333Y-56907600D01*
X74865333Y-56798742D01*
X74889523Y-56755200D01*
X74913714Y-56733428D01*
X74962095Y-56711657D01*
X75083047Y-56711657D01*
X75131428Y-56733428D01*
X75155619Y-56755200D01*
X75179809Y-56798742D01*
X75179809Y-56907600D01*
X75155619Y-56951142D01*
X75131428Y-56972914D01*
%TO.C,R5*%
D14*
X78682280Y-54284666D02*
X78404090Y-54454000D01*
X78682280Y-54574952D02*
X78098080Y-54574952D01*
X78098080Y-54381428D01*
X78125900Y-54333047D01*
X78153719Y-54308857D01*
X78209357Y-54284666D01*
X78292814Y-54284666D01*
X78348452Y-54308857D01*
X78376271Y-54333047D01*
X78404090Y-54381428D01*
X78404090Y-54574952D01*
X78098080Y-53825047D02*
X78098080Y-54066952D01*
X78376271Y-54091142D01*
X78348452Y-54066952D01*
X78320633Y-54018571D01*
X78320633Y-53897619D01*
X78348452Y-53849238D01*
X78376271Y-53825047D01*
X78431909Y-53800857D01*
X78571004Y-53800857D01*
X78626642Y-53825047D01*
X78654461Y-53849238D01*
X78682280Y-53897619D01*
X78682280Y-54018571D01*
X78654461Y-54066952D01*
X78626642Y-54091142D01*
D15*
X76361809Y-54570114D02*
X76361809Y-54265314D01*
X76869809Y-54461257D01*
X76361809Y-53873428D02*
X76361809Y-54091142D01*
X76603714Y-54112914D01*
X76579523Y-54091142D01*
X76555333Y-54047600D01*
X76555333Y-53938742D01*
X76579523Y-53895200D01*
X76603714Y-53873428D01*
X76652095Y-53851657D01*
X76773047Y-53851657D01*
X76821428Y-53873428D01*
X76845619Y-53895200D01*
X76869809Y-53938742D01*
X76869809Y-54047600D01*
X76845619Y-54091142D01*
X76821428Y-54112914D01*
%TO.C,R4*%
D14*
X69895333Y-46686280D02*
X69726000Y-46408090D01*
X69605047Y-46686280D02*
X69605047Y-46102080D01*
X69798571Y-46102080D01*
X69846952Y-46129900D01*
X69871142Y-46157719D01*
X69895333Y-46213357D01*
X69895333Y-46296814D01*
X69871142Y-46352452D01*
X69846952Y-46380271D01*
X69798571Y-46408090D01*
X69605047Y-46408090D01*
X70330761Y-46296814D02*
X70330761Y-46686280D01*
X70209809Y-46074261D02*
X70088857Y-46491547D01*
X70403333Y-46491547D01*
D15*
X69653428Y-47921809D02*
X69435714Y-47921809D01*
X69413942Y-48163714D01*
X69435714Y-48139523D01*
X69479257Y-48115333D01*
X69588114Y-48115333D01*
X69631657Y-48139523D01*
X69653428Y-48163714D01*
X69675200Y-48212095D01*
X69675200Y-48333047D01*
X69653428Y-48381428D01*
X69631657Y-48405619D01*
X69588114Y-48429809D01*
X69479257Y-48429809D01*
X69435714Y-48405619D01*
X69413942Y-48381428D01*
X69827600Y-47921809D02*
X70110628Y-47921809D01*
X69958228Y-48115333D01*
X70023542Y-48115333D01*
X70067085Y-48139523D01*
X70088857Y-48163714D01*
X70110628Y-48212095D01*
X70110628Y-48333047D01*
X70088857Y-48381428D01*
X70067085Y-48405619D01*
X70023542Y-48429809D01*
X69892914Y-48429809D01*
X69849371Y-48405619D01*
X69827600Y-48381428D01*
X70393657Y-47921809D02*
X70437200Y-47921809D01*
X70480742Y-47946000D01*
X70502514Y-47970190D01*
X70524285Y-48018571D01*
X70546057Y-48115333D01*
X70546057Y-48236285D01*
X70524285Y-48333047D01*
X70502514Y-48381428D01*
X70480742Y-48405619D01*
X70437200Y-48429809D01*
X70393657Y-48429809D01*
X70350114Y-48405619D01*
X70328342Y-48381428D01*
X70306571Y-48333047D01*
X70284800Y-48236285D01*
X70284800Y-48115333D01*
X70306571Y-48018571D01*
X70328342Y-47970190D01*
X70350114Y-47946000D01*
X70393657Y-47921809D01*
%TO.C,R3*%
D14*
X100905333Y-71792280D02*
X100736000Y-71514090D01*
X100615047Y-71792280D02*
X100615047Y-71208080D01*
X100808571Y-71208080D01*
X100856952Y-71235900D01*
X100881142Y-71263719D01*
X100905333Y-71319357D01*
X100905333Y-71402814D01*
X100881142Y-71458452D01*
X100856952Y-71486271D01*
X100808571Y-71514090D01*
X100615047Y-71514090D01*
X101074666Y-71208080D02*
X101389142Y-71208080D01*
X101219809Y-71430633D01*
X101292380Y-71430633D01*
X101340761Y-71458452D01*
X101364952Y-71486271D01*
X101389142Y-71541909D01*
X101389142Y-71681004D01*
X101364952Y-71736642D01*
X101340761Y-71764461D01*
X101292380Y-71792280D01*
X101147238Y-71792280D01*
X101098857Y-71764461D01*
X101074666Y-71736642D01*
D15*
X100641657Y-69641142D02*
X100641657Y-69979809D01*
X100532800Y-69447619D02*
X100423942Y-69810476D01*
X100706971Y-69810476D01*
X100837600Y-69471809D02*
X101142400Y-69471809D01*
X100946457Y-69979809D01*
X101403657Y-69471809D02*
X101447200Y-69471809D01*
X101490742Y-69496000D01*
X101512514Y-69520190D01*
X101534285Y-69568571D01*
X101556057Y-69665333D01*
X101556057Y-69786285D01*
X101534285Y-69883047D01*
X101512514Y-69931428D01*
X101490742Y-69955619D01*
X101447200Y-69979809D01*
X101403657Y-69979809D01*
X101360114Y-69955619D01*
X101338342Y-69931428D01*
X101316571Y-69883047D01*
X101294800Y-69786285D01*
X101294800Y-69665333D01*
X101316571Y-69568571D01*
X101338342Y-69520190D01*
X101360114Y-69496000D01*
X101403657Y-69471809D01*
%TO.C,R2*%
D14*
X98645333Y-71792280D02*
X98476000Y-71514090D01*
X98355047Y-71792280D02*
X98355047Y-71208080D01*
X98548571Y-71208080D01*
X98596952Y-71235900D01*
X98621142Y-71263719D01*
X98645333Y-71319357D01*
X98645333Y-71402814D01*
X98621142Y-71458452D01*
X98596952Y-71486271D01*
X98548571Y-71514090D01*
X98355047Y-71514090D01*
X98838857Y-71263719D02*
X98863047Y-71235900D01*
X98911428Y-71208080D01*
X99032380Y-71208080D01*
X99080761Y-71235900D01*
X99104952Y-71263719D01*
X99129142Y-71319357D01*
X99129142Y-71374995D01*
X99104952Y-71458452D01*
X98814666Y-71792280D01*
X99129142Y-71792280D01*
D15*
X98381657Y-69641142D02*
X98381657Y-69979809D01*
X98272800Y-69447619D02*
X98163942Y-69810476D01*
X98446971Y-69810476D01*
X98577600Y-69471809D02*
X98882400Y-69471809D01*
X98686457Y-69979809D01*
X99143657Y-69471809D02*
X99187200Y-69471809D01*
X99230742Y-69496000D01*
X99252514Y-69520190D01*
X99274285Y-69568571D01*
X99296057Y-69665333D01*
X99296057Y-69786285D01*
X99274285Y-69883047D01*
X99252514Y-69931428D01*
X99230742Y-69955619D01*
X99187200Y-69979809D01*
X99143657Y-69979809D01*
X99100114Y-69955619D01*
X99078342Y-69931428D01*
X99056571Y-69883047D01*
X99034800Y-69786285D01*
X99034800Y-69665333D01*
X99056571Y-69568571D01*
X99078342Y-69520190D01*
X99100114Y-69496000D01*
X99143657Y-69471809D01*
%TO.C,R1*%
D14*
X86785333Y-64892280D02*
X86616000Y-64614090D01*
X86495047Y-64892280D02*
X86495047Y-64308080D01*
X86688571Y-64308080D01*
X86736952Y-64335900D01*
X86761142Y-64363719D01*
X86785333Y-64419357D01*
X86785333Y-64502814D01*
X86761142Y-64558452D01*
X86736952Y-64586271D01*
X86688571Y-64614090D01*
X86495047Y-64614090D01*
X87269142Y-64892280D02*
X86978857Y-64892280D01*
X87124000Y-64892280D02*
X87124000Y-64308080D01*
X87075619Y-64391538D01*
X87027238Y-64447176D01*
X86978857Y-64474995D01*
D15*
X86597857Y-63079809D02*
X86336600Y-63079809D01*
X86467228Y-63079809D02*
X86467228Y-62571809D01*
X86423685Y-62644380D01*
X86380142Y-62692761D01*
X86336600Y-62716952D01*
X86880885Y-62571809D02*
X86924428Y-62571809D01*
X86967971Y-62596000D01*
X86989742Y-62620190D01*
X87011514Y-62668571D01*
X87033285Y-62765333D01*
X87033285Y-62886285D01*
X87011514Y-62983047D01*
X86989742Y-63031428D01*
X86967971Y-63055619D01*
X86924428Y-63079809D01*
X86880885Y-63079809D01*
X86837342Y-63055619D01*
X86815571Y-63031428D01*
X86793800Y-62983047D01*
X86772028Y-62886285D01*
X86772028Y-62765333D01*
X86793800Y-62668571D01*
X86815571Y-62620190D01*
X86837342Y-62596000D01*
X86880885Y-62571809D01*
X87229228Y-63079809D02*
X87229228Y-62571809D01*
X87272771Y-62886285D02*
X87403400Y-63079809D01*
X87403400Y-62741142D02*
X87229228Y-62934666D01*
%TO.C,J4*%
D12*
X90484660Y-76388253D02*
X91198946Y-76388253D01*
X91341803Y-76435872D01*
X91437041Y-76531110D01*
X91484660Y-76673967D01*
X91484660Y-76769205D01*
X90817994Y-75483491D02*
X91484660Y-75483491D01*
X90437041Y-75721586D02*
X91151327Y-75959681D01*
X91151327Y-75340634D01*
%TO.C,J3*%
X114245346Y-74112460D02*
X114245346Y-74826746D01*
X114197727Y-74969603D01*
X114102489Y-75064841D01*
X113959632Y-75112460D01*
X113864394Y-75112460D01*
X114626299Y-74112460D02*
X115245346Y-74112460D01*
X114912013Y-74493413D01*
X115054870Y-74493413D01*
X115150108Y-74541032D01*
X115197727Y-74588651D01*
X115245346Y-74683889D01*
X115245346Y-74921984D01*
X115197727Y-75017222D01*
X115150108Y-75064841D01*
X115054870Y-75112460D01*
X114769156Y-75112460D01*
X114673918Y-75064841D01*
X114626299Y-75017222D01*
%TO.C,J1*%
X42942456Y-23931090D02*
X42942456Y-24645376D01*
X42894837Y-24788233D01*
X42799599Y-24883471D01*
X42656742Y-24931090D01*
X42561504Y-24931090D01*
X43942456Y-24931090D02*
X43371028Y-24931090D01*
X43656742Y-24931090D02*
X43656742Y-23931090D01*
X43561504Y-24073948D01*
X43466266Y-24169186D01*
X43371028Y-24216805D01*
%TO.C,D1*%
X73301904Y-48202380D02*
X73301904Y-47202380D01*
X73540000Y-47202380D01*
X73682857Y-47250000D01*
X73778095Y-47345238D01*
X73825714Y-47440476D01*
X73873333Y-47630952D01*
X73873333Y-47773809D01*
X73825714Y-47964285D01*
X73778095Y-48059523D01*
X73682857Y-48154761D01*
X73540000Y-48202380D01*
X73301904Y-48202380D01*
X74825714Y-48202380D02*
X74254285Y-48202380D01*
X74540000Y-48202380D02*
X74540000Y-47202380D01*
X74444761Y-47345238D01*
X74349523Y-47440476D01*
X74254285Y-47488095D01*
%TO.C,C20*%
D14*
X77573428Y-48918642D02*
X77549238Y-48946461D01*
X77476666Y-48974280D01*
X77428285Y-48974280D01*
X77355714Y-48946461D01*
X77307333Y-48890823D01*
X77283142Y-48835185D01*
X77258952Y-48723909D01*
X77258952Y-48640452D01*
X77283142Y-48529176D01*
X77307333Y-48473538D01*
X77355714Y-48417900D01*
X77428285Y-48390080D01*
X77476666Y-48390080D01*
X77549238Y-48417900D01*
X77573428Y-48445719D01*
X77766952Y-48445719D02*
X77791142Y-48417900D01*
X77839523Y-48390080D01*
X77960476Y-48390080D01*
X78008857Y-48417900D01*
X78033047Y-48445719D01*
X78057238Y-48501357D01*
X78057238Y-48556995D01*
X78033047Y-48640452D01*
X77742761Y-48974280D01*
X78057238Y-48974280D01*
X78371714Y-48390080D02*
X78420095Y-48390080D01*
X78468476Y-48417900D01*
X78492666Y-48445719D01*
X78516857Y-48501357D01*
X78541047Y-48612633D01*
X78541047Y-48751728D01*
X78516857Y-48863004D01*
X78492666Y-48918642D01*
X78468476Y-48946461D01*
X78420095Y-48974280D01*
X78371714Y-48974280D01*
X78323333Y-48946461D01*
X78299142Y-48918642D01*
X78274952Y-48863004D01*
X78250761Y-48751728D01*
X78250761Y-48612633D01*
X78274952Y-48501357D01*
X78299142Y-48445719D01*
X78323333Y-48417900D01*
X78371714Y-48390080D01*
D15*
X77833800Y-50689809D02*
X77572542Y-50689809D01*
X77703171Y-50689809D02*
X77703171Y-50181809D01*
X77659628Y-50254380D01*
X77616085Y-50302761D01*
X77572542Y-50326952D01*
X78225685Y-50351142D02*
X78225685Y-50689809D01*
X78029742Y-50351142D02*
X78029742Y-50617238D01*
X78051514Y-50665619D01*
X78095057Y-50689809D01*
X78160371Y-50689809D01*
X78203914Y-50665619D01*
X78225685Y-50641428D01*
%TO.C,C13*%
D14*
X105508642Y-71396571D02*
X105536461Y-71420761D01*
X105564280Y-71493333D01*
X105564280Y-71541714D01*
X105536461Y-71614285D01*
X105480823Y-71662666D01*
X105425185Y-71686857D01*
X105313909Y-71711047D01*
X105230452Y-71711047D01*
X105119176Y-71686857D01*
X105063538Y-71662666D01*
X105007900Y-71614285D01*
X104980080Y-71541714D01*
X104980080Y-71493333D01*
X105007900Y-71420761D01*
X105035719Y-71396571D01*
X105564280Y-70912761D02*
X105564280Y-71203047D01*
X105564280Y-71057904D02*
X104980080Y-71057904D01*
X105063538Y-71106285D01*
X105119176Y-71154666D01*
X105146995Y-71203047D01*
X104980080Y-70743428D02*
X104980080Y-70428952D01*
X105202633Y-70598285D01*
X105202633Y-70525714D01*
X105230452Y-70477333D01*
X105258271Y-70453142D01*
X105313909Y-70428952D01*
X105453004Y-70428952D01*
X105508642Y-70453142D01*
X105536461Y-70477333D01*
X105564280Y-70525714D01*
X105564280Y-70670857D01*
X105536461Y-70719238D01*
X105508642Y-70743428D01*
D15*
X103260190Y-71734028D02*
X103236000Y-71712257D01*
X103211809Y-71668714D01*
X103211809Y-71559857D01*
X103236000Y-71516314D01*
X103260190Y-71494542D01*
X103308571Y-71472771D01*
X103356952Y-71472771D01*
X103429523Y-71494542D01*
X103719809Y-71755800D01*
X103719809Y-71472771D01*
X103671428Y-71276828D02*
X103695619Y-71255057D01*
X103719809Y-71276828D01*
X103695619Y-71298600D01*
X103671428Y-71276828D01*
X103719809Y-71276828D01*
X103260190Y-71080885D02*
X103236000Y-71059114D01*
X103211809Y-71015571D01*
X103211809Y-70906714D01*
X103236000Y-70863171D01*
X103260190Y-70841400D01*
X103308571Y-70819628D01*
X103356952Y-70819628D01*
X103429523Y-70841400D01*
X103719809Y-71102657D01*
X103719809Y-70819628D01*
X103381142Y-70623685D02*
X103719809Y-70623685D01*
X103429523Y-70623685D02*
X103405333Y-70601914D01*
X103381142Y-70558371D01*
X103381142Y-70493057D01*
X103405333Y-70449514D01*
X103453714Y-70427742D01*
X103719809Y-70427742D01*
%TO.C,C11*%
D14*
X94730642Y-71376571D02*
X94758461Y-71400761D01*
X94786280Y-71473333D01*
X94786280Y-71521714D01*
X94758461Y-71594285D01*
X94702823Y-71642666D01*
X94647185Y-71666857D01*
X94535909Y-71691047D01*
X94452452Y-71691047D01*
X94341176Y-71666857D01*
X94285538Y-71642666D01*
X94229900Y-71594285D01*
X94202080Y-71521714D01*
X94202080Y-71473333D01*
X94229900Y-71400761D01*
X94257719Y-71376571D01*
X94786280Y-70892761D02*
X94786280Y-71183047D01*
X94786280Y-71037904D02*
X94202080Y-71037904D01*
X94285538Y-71086285D01*
X94341176Y-71134666D01*
X94368995Y-71183047D01*
X94786280Y-70408952D02*
X94786280Y-70699238D01*
X94786280Y-70554095D02*
X94202080Y-70554095D01*
X94285538Y-70602476D01*
X94341176Y-70650857D01*
X94368995Y-70699238D01*
D15*
X96070190Y-71714028D02*
X96046000Y-71692257D01*
X96021809Y-71648714D01*
X96021809Y-71539857D01*
X96046000Y-71496314D01*
X96070190Y-71474542D01*
X96118571Y-71452771D01*
X96166952Y-71452771D01*
X96239523Y-71474542D01*
X96529809Y-71735800D01*
X96529809Y-71452771D01*
X96481428Y-71256828D02*
X96505619Y-71235057D01*
X96529809Y-71256828D01*
X96505619Y-71278600D01*
X96481428Y-71256828D01*
X96529809Y-71256828D01*
X96070190Y-71060885D02*
X96046000Y-71039114D01*
X96021809Y-70995571D01*
X96021809Y-70886714D01*
X96046000Y-70843171D01*
X96070190Y-70821400D01*
X96118571Y-70799628D01*
X96166952Y-70799628D01*
X96239523Y-70821400D01*
X96529809Y-71082657D01*
X96529809Y-70799628D01*
X96191142Y-70603685D02*
X96529809Y-70603685D01*
X96239523Y-70603685D02*
X96215333Y-70581914D01*
X96191142Y-70538371D01*
X96191142Y-70473057D01*
X96215333Y-70429514D01*
X96263714Y-70407742D01*
X96529809Y-70407742D01*
%TD*%
M02*
