%TF.GenerationSoftware,KiCad,Pcbnew,7.0.11+dfsg-1*%
%TF.CreationDate,2024-04-05T15:38:59+03:00*%
%TF.ProjectId,extra_av_out,65787472-615f-4617-965f-6f75742e6b69,rev?*%
%TF.SameCoordinates,Original*%
%TF.FileFunction,Soldermask,Bot*%
%TF.FilePolarity,Negative*%
%FSLAX46Y46*%
G04 Gerber Fmt 4.6, Leading zero omitted, Abs format (unit mm)*
G04 Created by KiCad (PCBNEW 7.0.11+dfsg-1) date 2024-04-05 15:38:59*
%MOMM*%
%LPD*%
G01*
G04 APERTURE LIST*
G04 Aperture macros list*
%AMRoundRect*
0 Rectangle with rounded corners*
0 $1 Rounding radius*
0 $2 $3 $4 $5 $6 $7 $8 $9 X,Y pos of 4 corners*
0 Add a 4 corners polygon primitive as box body*
4,1,4,$2,$3,$4,$5,$6,$7,$8,$9,$2,$3,0*
0 Add four circle primitives for the rounded corners*
1,1,$1+$1,$2,$3*
1,1,$1+$1,$4,$5*
1,1,$1+$1,$6,$7*
1,1,$1+$1,$8,$9*
0 Add four rect primitives between the rounded corners*
20,1,$1+$1,$2,$3,$4,$5,0*
20,1,$1+$1,$4,$5,$6,$7,0*
20,1,$1+$1,$6,$7,$8,$9,0*
20,1,$1+$1,$8,$9,$2,$3,0*%
G04 Aperture macros list end*
%ADD10C,1.524000*%
%ADD11C,1.800000*%
%ADD12R,1.700000X1.700000*%
%ADD13O,1.700000X1.700000*%
%ADD14C,1.600000*%
%ADD15C,4.500000*%
%ADD16C,2.540000*%
%ADD17O,2.800000X1.800000*%
%ADD18C,3.200000*%
%ADD19C,5.500000*%
%ADD20R,1.143000X0.635000*%
%ADD21R,0.635000X1.143000*%
%ADD22R,0.500000X0.380000*%
%ADD23R,0.650000X0.300000*%
%ADD24RoundRect,0.150000X0.150000X-0.587500X0.150000X0.587500X-0.150000X0.587500X-0.150000X-0.587500X0*%
%ADD25RoundRect,0.150000X-0.150000X0.587500X-0.150000X-0.587500X0.150000X-0.587500X0.150000X0.587500X0*%
G04 APERTURE END LIST*
D10*
%TO.C,J3*%
X112460000Y-76345000D03*
X115000000Y-76345000D03*
X117540000Y-76345000D03*
D11*
X112460000Y-78970000D03*
X117540000Y-78970000D03*
%TD*%
D12*
%TO.C,J1*%
X48925790Y-27248710D03*
D13*
X46385790Y-27248710D03*
X48925790Y-29788710D03*
X46385790Y-29788710D03*
X48925790Y-32328710D03*
X46385790Y-32328710D03*
X48925790Y-34868710D03*
X46385790Y-34868710D03*
X48925790Y-37408710D03*
X46385790Y-37408710D03*
X48925790Y-39948710D03*
X46385790Y-39948710D03*
X48925790Y-42488710D03*
X46385790Y-42488710D03*
X48925790Y-45028710D03*
X46385790Y-45028710D03*
X48925790Y-47568710D03*
X46385790Y-47568710D03*
X48925790Y-50108710D03*
X46385790Y-50108710D03*
X48925790Y-52648710D03*
X46385790Y-52648710D03*
X48925790Y-55188710D03*
X46385790Y-55188710D03*
X48925790Y-57728710D03*
X46385790Y-57728710D03*
X48925790Y-60268710D03*
X46385790Y-60268710D03*
X48925790Y-62808710D03*
X46385790Y-62808710D03*
X48925790Y-65348710D03*
X46385790Y-65348710D03*
X48925790Y-67888710D03*
X46385790Y-67888710D03*
X48925790Y-70428710D03*
X46385790Y-70428710D03*
X48925790Y-72968710D03*
X46385790Y-72968710D03*
X48925790Y-75508710D03*
X46385790Y-75508710D03*
X48925790Y-78048710D03*
X46385790Y-78048710D03*
X48925790Y-80588710D03*
X46385790Y-80588710D03*
X48925790Y-83128710D03*
X46385790Y-83128710D03*
X48925790Y-85668710D03*
X46385790Y-85668710D03*
X48925790Y-88208710D03*
X46385790Y-88208710D03*
%TD*%
D14*
%TO.C,J4*%
X80560000Y-73590000D03*
X78270000Y-73590000D03*
X75980000Y-73590000D03*
X73690000Y-73590000D03*
X71400000Y-73590000D03*
X81700000Y-76130000D03*
X79410000Y-76130000D03*
X77120000Y-76130000D03*
X74830000Y-76130000D03*
D15*
X63740000Y-76130000D03*
D14*
X72540000Y-76130000D03*
D15*
X88740000Y-76130000D03*
D14*
X80560000Y-78670000D03*
X78270000Y-78670000D03*
X75980000Y-78670000D03*
X73690000Y-78670000D03*
X71400000Y-78670000D03*
%TD*%
D16*
%TO.C,ST1*%
X53190000Y-15300000D03*
X48110000Y-15300000D03*
X53190000Y-20740000D03*
X48110000Y-20740000D03*
%TD*%
%TO.C,ST2*%
X53190000Y-94720000D03*
X48110000Y-94720000D03*
X53190000Y-100160000D03*
X48110000Y-100160000D03*
%TD*%
D17*
%TO.C,J2*%
X100610000Y-74270000D03*
X102610000Y-82170000D03*
X100610000Y-79770000D03*
%TD*%
D18*
%TO.C,MH3*%
X115500000Y-68270000D03*
%TD*%
D19*
%TO.C,MH4*%
X94900000Y-79930000D03*
%TD*%
D18*
%TO.C,MH2*%
X53300000Y-86500000D03*
%TD*%
%TO.C,MH1*%
X53300000Y-29000000D03*
%TD*%
D19*
%TO.C,MH5*%
X65950000Y-38360000D03*
%TD*%
D20*
%TO.C,C1*%
X62780000Y-59642000D03*
X62780000Y-58118000D03*
%TD*%
%TO.C,C2*%
X64420000Y-59642000D03*
X64420000Y-58118000D03*
%TD*%
D21*
%TO.C,C3*%
X92670000Y-70480000D03*
X91146000Y-70480000D03*
%TD*%
%TO.C,C4*%
X92690000Y-63840000D03*
X91166000Y-63840000D03*
%TD*%
%TO.C,C5*%
X84870000Y-70480000D03*
X86394000Y-70480000D03*
%TD*%
%TO.C,C7*%
X92674000Y-67180000D03*
X91150000Y-67180000D03*
%TD*%
%TO.C,C8*%
X92680000Y-65510000D03*
X91156000Y-65510000D03*
%TD*%
%TO.C,C9*%
X91140000Y-68830000D03*
X92664000Y-68830000D03*
%TD*%
%TO.C,C10*%
X84860000Y-68860000D03*
X86384000Y-68860000D03*
%TD*%
%TO.C,C15*%
X69482000Y-55300000D03*
X67958000Y-55300000D03*
%TD*%
%TO.C,C16*%
X75112000Y-52890000D03*
X73588000Y-52890000D03*
%TD*%
%TO.C,C17*%
X69492000Y-53660000D03*
X67968000Y-53660000D03*
%TD*%
%TO.C,C18*%
X69482000Y-56940000D03*
X67958000Y-56940000D03*
%TD*%
%TO.C,C19*%
X69472000Y-58580000D03*
X67948000Y-58580000D03*
%TD*%
%TO.C,C21*%
X114302000Y-73700000D03*
X112778000Y-73700000D03*
%TD*%
D20*
%TO.C,C22*%
X58040000Y-77062000D03*
X58040000Y-75538000D03*
%TD*%
D21*
%TO.C,R12*%
X57256000Y-71920000D03*
X58780000Y-71920000D03*
%TD*%
D22*
%TO.C,D4*%
X73860000Y-71370000D03*
D23*
X73780000Y-70830000D03*
D22*
X73860000Y-70290000D03*
X75560000Y-70290000D03*
X75560000Y-71370000D03*
%TD*%
D20*
%TO.C,R10*%
X70300000Y-71306000D03*
X70300000Y-69782000D03*
%TD*%
D24*
%TO.C,D3*%
X101550000Y-71915000D03*
X99650000Y-71915000D03*
X100600000Y-70040000D03*
%TD*%
D20*
%TO.C,R9*%
X68610000Y-69786000D03*
X68610000Y-71310000D03*
%TD*%
%TO.C,R11*%
X71970000Y-71306000D03*
X71970000Y-69782000D03*
%TD*%
D21*
%TO.C,R13*%
X58780000Y-73640000D03*
X57256000Y-73640000D03*
%TD*%
D25*
%TO.C,Q1*%
X60700000Y-70840000D03*
X62600000Y-70840000D03*
X61650000Y-72715000D03*
%TD*%
D22*
%TO.C,D2*%
X69240000Y-77810000D03*
D23*
X69320000Y-78350000D03*
D22*
X69240000Y-78890000D03*
X67540000Y-78890000D03*
X67540000Y-77810000D03*
%TD*%
M02*
