%TF.GenerationSoftware,KiCad,Pcbnew,7.0.11+dfsg-1*%
%TF.CreationDate,2024-04-05T15:38:59+03:00*%
%TF.ProjectId,extra_av_out,65787472-615f-4617-965f-6f75742e6b69,rev?*%
%TF.SameCoordinates,Original*%
%TF.FileFunction,Legend,Bot*%
%TF.FilePolarity,Positive*%
%FSLAX46Y46*%
G04 Gerber Fmt 4.6, Leading zero omitted, Abs format (unit mm)*
G04 Created by KiCad (PCBNEW 7.0.11+dfsg-1) date 2024-04-05 15:38:59*
%MOMM*%
%LPD*%
G01*
G04 APERTURE LIST*
%ADD10C,0.127000*%
%ADD11C,0.114300*%
%ADD12C,0.150000*%
%ADD13C,0.119380*%
%ADD14C,0.120000*%
G04 APERTURE END LIST*
D10*
X62864666Y-60866019D02*
X62888857Y-60893839D01*
X62888857Y-60893839D02*
X62961428Y-60921658D01*
X62961428Y-60921658D02*
X63009809Y-60921658D01*
X63009809Y-60921658D02*
X63082381Y-60893839D01*
X63082381Y-60893839D02*
X63130762Y-60838200D01*
X63130762Y-60838200D02*
X63154952Y-60782562D01*
X63154952Y-60782562D02*
X63179143Y-60671286D01*
X63179143Y-60671286D02*
X63179143Y-60587829D01*
X63179143Y-60587829D02*
X63154952Y-60476553D01*
X63154952Y-60476553D02*
X63130762Y-60420915D01*
X63130762Y-60420915D02*
X63082381Y-60365277D01*
X63082381Y-60365277D02*
X63009809Y-60337458D01*
X63009809Y-60337458D02*
X62961428Y-60337458D01*
X62961428Y-60337458D02*
X62888857Y-60365277D01*
X62888857Y-60365277D02*
X62864666Y-60393096D01*
X62380857Y-60921658D02*
X62671143Y-60921658D01*
X62526000Y-60921658D02*
X62526000Y-60337458D01*
X62526000Y-60337458D02*
X62574381Y-60420915D01*
X62574381Y-60420915D02*
X62622762Y-60476553D01*
X62622762Y-60476553D02*
X62671143Y-60504372D01*
D11*
X63335171Y-58601066D02*
X63291628Y-58601066D01*
X63291628Y-58601066D02*
X63248085Y-58625256D01*
X63248085Y-58625256D02*
X63226314Y-58649447D01*
X63226314Y-58649447D02*
X63204542Y-58697828D01*
X63204542Y-58697828D02*
X63182771Y-58794590D01*
X63182771Y-58794590D02*
X63182771Y-58915542D01*
X63182771Y-58915542D02*
X63204542Y-59012304D01*
X63204542Y-59012304D02*
X63226314Y-59060685D01*
X63226314Y-59060685D02*
X63248085Y-59084876D01*
X63248085Y-59084876D02*
X63291628Y-59109066D01*
X63291628Y-59109066D02*
X63335171Y-59109066D01*
X63335171Y-59109066D02*
X63378714Y-59084876D01*
X63378714Y-59084876D02*
X63400485Y-59060685D01*
X63400485Y-59060685D02*
X63422256Y-59012304D01*
X63422256Y-59012304D02*
X63444028Y-58915542D01*
X63444028Y-58915542D02*
X63444028Y-58794590D01*
X63444028Y-58794590D02*
X63422256Y-58697828D01*
X63422256Y-58697828D02*
X63400485Y-58649447D01*
X63400485Y-58649447D02*
X63378714Y-58625256D01*
X63378714Y-58625256D02*
X63335171Y-58601066D01*
X62986827Y-59060685D02*
X62965056Y-59084876D01*
X62965056Y-59084876D02*
X62986827Y-59109066D01*
X62986827Y-59109066D02*
X63008599Y-59084876D01*
X63008599Y-59084876D02*
X62986827Y-59060685D01*
X62986827Y-59060685D02*
X62986827Y-59109066D01*
X62529628Y-59109066D02*
X62790885Y-59109066D01*
X62660256Y-59109066D02*
X62660256Y-58601066D01*
X62660256Y-58601066D02*
X62703799Y-58673637D01*
X62703799Y-58673637D02*
X62747342Y-58722018D01*
X62747342Y-58722018D02*
X62790885Y-58746209D01*
X62137742Y-58770399D02*
X62137742Y-59109066D01*
X62333684Y-58770399D02*
X62333684Y-59036495D01*
X62333684Y-59036495D02*
X62311913Y-59084876D01*
X62311913Y-59084876D02*
X62268370Y-59109066D01*
X62268370Y-59109066D02*
X62203056Y-59109066D01*
X62203056Y-59109066D02*
X62159513Y-59084876D01*
X62159513Y-59084876D02*
X62137742Y-59060685D01*
D10*
X64504666Y-60866019D02*
X64528857Y-60893839D01*
X64528857Y-60893839D02*
X64601428Y-60921658D01*
X64601428Y-60921658D02*
X64649809Y-60921658D01*
X64649809Y-60921658D02*
X64722381Y-60893839D01*
X64722381Y-60893839D02*
X64770762Y-60838200D01*
X64770762Y-60838200D02*
X64794952Y-60782562D01*
X64794952Y-60782562D02*
X64819143Y-60671286D01*
X64819143Y-60671286D02*
X64819143Y-60587829D01*
X64819143Y-60587829D02*
X64794952Y-60476553D01*
X64794952Y-60476553D02*
X64770762Y-60420915D01*
X64770762Y-60420915D02*
X64722381Y-60365277D01*
X64722381Y-60365277D02*
X64649809Y-60337458D01*
X64649809Y-60337458D02*
X64601428Y-60337458D01*
X64601428Y-60337458D02*
X64528857Y-60365277D01*
X64528857Y-60365277D02*
X64504666Y-60393096D01*
X64311143Y-60393096D02*
X64286952Y-60365277D01*
X64286952Y-60365277D02*
X64238571Y-60337458D01*
X64238571Y-60337458D02*
X64117619Y-60337458D01*
X64117619Y-60337458D02*
X64069238Y-60365277D01*
X64069238Y-60365277D02*
X64045047Y-60393096D01*
X64045047Y-60393096D02*
X64020857Y-60448734D01*
X64020857Y-60448734D02*
X64020857Y-60504372D01*
X64020857Y-60504372D02*
X64045047Y-60587829D01*
X64045047Y-60587829D02*
X64335333Y-60921658D01*
X64335333Y-60921658D02*
X64020857Y-60921658D01*
D11*
X64713914Y-59109066D02*
X64975171Y-59109066D01*
X64844542Y-59109066D02*
X64844542Y-58601066D01*
X64844542Y-58601066D02*
X64888085Y-58673637D01*
X64888085Y-58673637D02*
X64931628Y-58722018D01*
X64931628Y-58722018D02*
X64975171Y-58746209D01*
X64430885Y-58601066D02*
X64387342Y-58601066D01*
X64387342Y-58601066D02*
X64343799Y-58625256D01*
X64343799Y-58625256D02*
X64322028Y-58649447D01*
X64322028Y-58649447D02*
X64300256Y-58697828D01*
X64300256Y-58697828D02*
X64278485Y-58794590D01*
X64278485Y-58794590D02*
X64278485Y-58915542D01*
X64278485Y-58915542D02*
X64300256Y-59012304D01*
X64300256Y-59012304D02*
X64322028Y-59060685D01*
X64322028Y-59060685D02*
X64343799Y-59084876D01*
X64343799Y-59084876D02*
X64387342Y-59109066D01*
X64387342Y-59109066D02*
X64430885Y-59109066D01*
X64430885Y-59109066D02*
X64474428Y-59084876D01*
X64474428Y-59084876D02*
X64496199Y-59060685D01*
X64496199Y-59060685D02*
X64517970Y-59012304D01*
X64517970Y-59012304D02*
X64539742Y-58915542D01*
X64539742Y-58915542D02*
X64539742Y-58794590D01*
X64539742Y-58794590D02*
X64517970Y-58697828D01*
X64517970Y-58697828D02*
X64496199Y-58649447D01*
X64496199Y-58649447D02*
X64474428Y-58625256D01*
X64474428Y-58625256D02*
X64430885Y-58601066D01*
X64082541Y-58770399D02*
X64082541Y-59109066D01*
X64082541Y-58818780D02*
X64060770Y-58794590D01*
X64060770Y-58794590D02*
X64017227Y-58770399D01*
X64017227Y-58770399D02*
X63951913Y-58770399D01*
X63951913Y-58770399D02*
X63908370Y-58794590D01*
X63908370Y-58794590D02*
X63886599Y-58842971D01*
X63886599Y-58842971D02*
X63886599Y-59109066D01*
D10*
X90308019Y-70445333D02*
X90335839Y-70421142D01*
X90335839Y-70421142D02*
X90363658Y-70348571D01*
X90363658Y-70348571D02*
X90363658Y-70300190D01*
X90363658Y-70300190D02*
X90335839Y-70227618D01*
X90335839Y-70227618D02*
X90280200Y-70179237D01*
X90280200Y-70179237D02*
X90224562Y-70155047D01*
X90224562Y-70155047D02*
X90113286Y-70130856D01*
X90113286Y-70130856D02*
X90029829Y-70130856D01*
X90029829Y-70130856D02*
X89918553Y-70155047D01*
X89918553Y-70155047D02*
X89862915Y-70179237D01*
X89862915Y-70179237D02*
X89807277Y-70227618D01*
X89807277Y-70227618D02*
X89779458Y-70300190D01*
X89779458Y-70300190D02*
X89779458Y-70348571D01*
X89779458Y-70348571D02*
X89807277Y-70421142D01*
X89807277Y-70421142D02*
X89835096Y-70445333D01*
X89779458Y-70614666D02*
X89779458Y-70929142D01*
X89779458Y-70929142D02*
X90002010Y-70759809D01*
X90002010Y-70759809D02*
X90002010Y-70832380D01*
X90002010Y-70832380D02*
X90029829Y-70880761D01*
X90029829Y-70880761D02*
X90057648Y-70904952D01*
X90057648Y-70904952D02*
X90113286Y-70929142D01*
X90113286Y-70929142D02*
X90252381Y-70929142D01*
X90252381Y-70929142D02*
X90308019Y-70904952D01*
X90308019Y-70904952D02*
X90335839Y-70880761D01*
X90335839Y-70880761D02*
X90363658Y-70832380D01*
X90363658Y-70832380D02*
X90363658Y-70687237D01*
X90363658Y-70687237D02*
X90335839Y-70638856D01*
X90335839Y-70638856D02*
X90308019Y-70614666D01*
D11*
X91629066Y-69924828D02*
X91629066Y-69968371D01*
X91629066Y-69968371D02*
X91653256Y-70011914D01*
X91653256Y-70011914D02*
X91677447Y-70033686D01*
X91677447Y-70033686D02*
X91725828Y-70055457D01*
X91725828Y-70055457D02*
X91822590Y-70077228D01*
X91822590Y-70077228D02*
X91943542Y-70077228D01*
X91943542Y-70077228D02*
X92040304Y-70055457D01*
X92040304Y-70055457D02*
X92088685Y-70033686D01*
X92088685Y-70033686D02*
X92112876Y-70011914D01*
X92112876Y-70011914D02*
X92137066Y-69968371D01*
X92137066Y-69968371D02*
X92137066Y-69924828D01*
X92137066Y-69924828D02*
X92112876Y-69881286D01*
X92112876Y-69881286D02*
X92088685Y-69859514D01*
X92088685Y-69859514D02*
X92040304Y-69837743D01*
X92040304Y-69837743D02*
X91943542Y-69815971D01*
X91943542Y-69815971D02*
X91822590Y-69815971D01*
X91822590Y-69815971D02*
X91725828Y-69837743D01*
X91725828Y-69837743D02*
X91677447Y-69859514D01*
X91677447Y-69859514D02*
X91653256Y-69881286D01*
X91653256Y-69881286D02*
X91629066Y-69924828D01*
X92088685Y-70273172D02*
X92112876Y-70294943D01*
X92112876Y-70294943D02*
X92137066Y-70273172D01*
X92137066Y-70273172D02*
X92112876Y-70251400D01*
X92112876Y-70251400D02*
X92088685Y-70273172D01*
X92088685Y-70273172D02*
X92137066Y-70273172D01*
X92137066Y-70730371D02*
X92137066Y-70469114D01*
X92137066Y-70599743D02*
X91629066Y-70599743D01*
X91629066Y-70599743D02*
X91701637Y-70556200D01*
X91701637Y-70556200D02*
X91750018Y-70512657D01*
X91750018Y-70512657D02*
X91774209Y-70469114D01*
X91798399Y-71122258D02*
X92137066Y-71122258D01*
X91798399Y-70926315D02*
X92064495Y-70926315D01*
X92064495Y-70926315D02*
X92112876Y-70948086D01*
X92112876Y-70948086D02*
X92137066Y-70991629D01*
X92137066Y-70991629D02*
X92137066Y-71056943D01*
X92137066Y-71056943D02*
X92112876Y-71100486D01*
X92112876Y-71100486D02*
X92088685Y-71122258D01*
D10*
X90318019Y-63755333D02*
X90345839Y-63731142D01*
X90345839Y-63731142D02*
X90373658Y-63658571D01*
X90373658Y-63658571D02*
X90373658Y-63610190D01*
X90373658Y-63610190D02*
X90345839Y-63537618D01*
X90345839Y-63537618D02*
X90290200Y-63489237D01*
X90290200Y-63489237D02*
X90234562Y-63465047D01*
X90234562Y-63465047D02*
X90123286Y-63440856D01*
X90123286Y-63440856D02*
X90039829Y-63440856D01*
X90039829Y-63440856D02*
X89928553Y-63465047D01*
X89928553Y-63465047D02*
X89872915Y-63489237D01*
X89872915Y-63489237D02*
X89817277Y-63537618D01*
X89817277Y-63537618D02*
X89789458Y-63610190D01*
X89789458Y-63610190D02*
X89789458Y-63658571D01*
X89789458Y-63658571D02*
X89817277Y-63731142D01*
X89817277Y-63731142D02*
X89845096Y-63755333D01*
X89984191Y-64190761D02*
X90373658Y-64190761D01*
X89761639Y-64069809D02*
X90178924Y-63948856D01*
X90178924Y-63948856D02*
X90178924Y-64263333D01*
D11*
X92157066Y-63546085D02*
X92157066Y-63284828D01*
X92157066Y-63415457D02*
X91649066Y-63415457D01*
X91649066Y-63415457D02*
X91721637Y-63371914D01*
X91721637Y-63371914D02*
X91770018Y-63328371D01*
X91770018Y-63328371D02*
X91794209Y-63284828D01*
X91649066Y-63829114D02*
X91649066Y-63872657D01*
X91649066Y-63872657D02*
X91673256Y-63916200D01*
X91673256Y-63916200D02*
X91697447Y-63937972D01*
X91697447Y-63937972D02*
X91745828Y-63959743D01*
X91745828Y-63959743D02*
X91842590Y-63981514D01*
X91842590Y-63981514D02*
X91963542Y-63981514D01*
X91963542Y-63981514D02*
X92060304Y-63959743D01*
X92060304Y-63959743D02*
X92108685Y-63937972D01*
X92108685Y-63937972D02*
X92132876Y-63916200D01*
X92132876Y-63916200D02*
X92157066Y-63872657D01*
X92157066Y-63872657D02*
X92157066Y-63829114D01*
X92157066Y-63829114D02*
X92132876Y-63785572D01*
X92132876Y-63785572D02*
X92108685Y-63763800D01*
X92108685Y-63763800D02*
X92060304Y-63742029D01*
X92060304Y-63742029D02*
X91963542Y-63720257D01*
X91963542Y-63720257D02*
X91842590Y-63720257D01*
X91842590Y-63720257D02*
X91745828Y-63742029D01*
X91745828Y-63742029D02*
X91697447Y-63763800D01*
X91697447Y-63763800D02*
X91673256Y-63785572D01*
X91673256Y-63785572D02*
X91649066Y-63829114D01*
X91818399Y-64373401D02*
X92157066Y-64373401D01*
X91818399Y-64177458D02*
X92084495Y-64177458D01*
X92084495Y-64177458D02*
X92132876Y-64199229D01*
X92132876Y-64199229D02*
X92157066Y-64242772D01*
X92157066Y-64242772D02*
X92157066Y-64308086D01*
X92157066Y-64308086D02*
X92132876Y-64351629D01*
X92132876Y-64351629D02*
X92108685Y-64373401D01*
D10*
X87648019Y-70345333D02*
X87675839Y-70321142D01*
X87675839Y-70321142D02*
X87703658Y-70248571D01*
X87703658Y-70248571D02*
X87703658Y-70200190D01*
X87703658Y-70200190D02*
X87675839Y-70127618D01*
X87675839Y-70127618D02*
X87620200Y-70079237D01*
X87620200Y-70079237D02*
X87564562Y-70055047D01*
X87564562Y-70055047D02*
X87453286Y-70030856D01*
X87453286Y-70030856D02*
X87369829Y-70030856D01*
X87369829Y-70030856D02*
X87258553Y-70055047D01*
X87258553Y-70055047D02*
X87202915Y-70079237D01*
X87202915Y-70079237D02*
X87147277Y-70127618D01*
X87147277Y-70127618D02*
X87119458Y-70200190D01*
X87119458Y-70200190D02*
X87119458Y-70248571D01*
X87119458Y-70248571D02*
X87147277Y-70321142D01*
X87147277Y-70321142D02*
X87175096Y-70345333D01*
X87119458Y-70804952D02*
X87119458Y-70563047D01*
X87119458Y-70563047D02*
X87397648Y-70538856D01*
X87397648Y-70538856D02*
X87369829Y-70563047D01*
X87369829Y-70563047D02*
X87342010Y-70611428D01*
X87342010Y-70611428D02*
X87342010Y-70732380D01*
X87342010Y-70732380D02*
X87369829Y-70780761D01*
X87369829Y-70780761D02*
X87397648Y-70804952D01*
X87397648Y-70804952D02*
X87453286Y-70829142D01*
X87453286Y-70829142D02*
X87592381Y-70829142D01*
X87592381Y-70829142D02*
X87648019Y-70804952D01*
X87648019Y-70804952D02*
X87675839Y-70780761D01*
X87675839Y-70780761D02*
X87703658Y-70732380D01*
X87703658Y-70732380D02*
X87703658Y-70611428D01*
X87703658Y-70611428D02*
X87675839Y-70563047D01*
X87675839Y-70563047D02*
X87648019Y-70538856D01*
D11*
X85353066Y-69924828D02*
X85353066Y-69968371D01*
X85353066Y-69968371D02*
X85377256Y-70011914D01*
X85377256Y-70011914D02*
X85401447Y-70033686D01*
X85401447Y-70033686D02*
X85449828Y-70055457D01*
X85449828Y-70055457D02*
X85546590Y-70077228D01*
X85546590Y-70077228D02*
X85667542Y-70077228D01*
X85667542Y-70077228D02*
X85764304Y-70055457D01*
X85764304Y-70055457D02*
X85812685Y-70033686D01*
X85812685Y-70033686D02*
X85836876Y-70011914D01*
X85836876Y-70011914D02*
X85861066Y-69968371D01*
X85861066Y-69968371D02*
X85861066Y-69924828D01*
X85861066Y-69924828D02*
X85836876Y-69881286D01*
X85836876Y-69881286D02*
X85812685Y-69859514D01*
X85812685Y-69859514D02*
X85764304Y-69837743D01*
X85764304Y-69837743D02*
X85667542Y-69815971D01*
X85667542Y-69815971D02*
X85546590Y-69815971D01*
X85546590Y-69815971D02*
X85449828Y-69837743D01*
X85449828Y-69837743D02*
X85401447Y-69859514D01*
X85401447Y-69859514D02*
X85377256Y-69881286D01*
X85377256Y-69881286D02*
X85353066Y-69924828D01*
X85812685Y-70273172D02*
X85836876Y-70294943D01*
X85836876Y-70294943D02*
X85861066Y-70273172D01*
X85861066Y-70273172D02*
X85836876Y-70251400D01*
X85836876Y-70251400D02*
X85812685Y-70273172D01*
X85812685Y-70273172D02*
X85861066Y-70273172D01*
X85861066Y-70730371D02*
X85861066Y-70469114D01*
X85861066Y-70599743D02*
X85353066Y-70599743D01*
X85353066Y-70599743D02*
X85425637Y-70556200D01*
X85425637Y-70556200D02*
X85474018Y-70512657D01*
X85474018Y-70512657D02*
X85498209Y-70469114D01*
X85522399Y-71122258D02*
X85861066Y-71122258D01*
X85522399Y-70926315D02*
X85788495Y-70926315D01*
X85788495Y-70926315D02*
X85836876Y-70948086D01*
X85836876Y-70948086D02*
X85861066Y-70991629D01*
X85861066Y-70991629D02*
X85861066Y-71056943D01*
X85861066Y-71056943D02*
X85836876Y-71100486D01*
X85836876Y-71100486D02*
X85812685Y-71122258D01*
D10*
X90320019Y-67055333D02*
X90347839Y-67031142D01*
X90347839Y-67031142D02*
X90375658Y-66958571D01*
X90375658Y-66958571D02*
X90375658Y-66910190D01*
X90375658Y-66910190D02*
X90347839Y-66837618D01*
X90347839Y-66837618D02*
X90292200Y-66789237D01*
X90292200Y-66789237D02*
X90236562Y-66765047D01*
X90236562Y-66765047D02*
X90125286Y-66740856D01*
X90125286Y-66740856D02*
X90041829Y-66740856D01*
X90041829Y-66740856D02*
X89930553Y-66765047D01*
X89930553Y-66765047D02*
X89874915Y-66789237D01*
X89874915Y-66789237D02*
X89819277Y-66837618D01*
X89819277Y-66837618D02*
X89791458Y-66910190D01*
X89791458Y-66910190D02*
X89791458Y-66958571D01*
X89791458Y-66958571D02*
X89819277Y-67031142D01*
X89819277Y-67031142D02*
X89847096Y-67055333D01*
X89791458Y-67224666D02*
X89791458Y-67563333D01*
X89791458Y-67563333D02*
X90375658Y-67345618D01*
D11*
X91681447Y-66515971D02*
X91657256Y-66537743D01*
X91657256Y-66537743D02*
X91633066Y-66581286D01*
X91633066Y-66581286D02*
X91633066Y-66690143D01*
X91633066Y-66690143D02*
X91657256Y-66733686D01*
X91657256Y-66733686D02*
X91681447Y-66755457D01*
X91681447Y-66755457D02*
X91729828Y-66777228D01*
X91729828Y-66777228D02*
X91778209Y-66777228D01*
X91778209Y-66777228D02*
X91850780Y-66755457D01*
X91850780Y-66755457D02*
X92141066Y-66494200D01*
X92141066Y-66494200D02*
X92141066Y-66777228D01*
X92092685Y-66973172D02*
X92116876Y-66994943D01*
X92116876Y-66994943D02*
X92141066Y-66973172D01*
X92141066Y-66973172D02*
X92116876Y-66951400D01*
X92116876Y-66951400D02*
X92092685Y-66973172D01*
X92092685Y-66973172D02*
X92141066Y-66973172D01*
X91681447Y-67169114D02*
X91657256Y-67190886D01*
X91657256Y-67190886D02*
X91633066Y-67234429D01*
X91633066Y-67234429D02*
X91633066Y-67343286D01*
X91633066Y-67343286D02*
X91657256Y-67386829D01*
X91657256Y-67386829D02*
X91681447Y-67408600D01*
X91681447Y-67408600D02*
X91729828Y-67430371D01*
X91729828Y-67430371D02*
X91778209Y-67430371D01*
X91778209Y-67430371D02*
X91850780Y-67408600D01*
X91850780Y-67408600D02*
X92141066Y-67147343D01*
X92141066Y-67147343D02*
X92141066Y-67430371D01*
X91802399Y-67822258D02*
X92141066Y-67822258D01*
X91802399Y-67626315D02*
X92068495Y-67626315D01*
X92068495Y-67626315D02*
X92116876Y-67648086D01*
X92116876Y-67648086D02*
X92141066Y-67691629D01*
X92141066Y-67691629D02*
X92141066Y-67756943D01*
X92141066Y-67756943D02*
X92116876Y-67800486D01*
X92116876Y-67800486D02*
X92092685Y-67822258D01*
D10*
X90288019Y-65345333D02*
X90315839Y-65321142D01*
X90315839Y-65321142D02*
X90343658Y-65248571D01*
X90343658Y-65248571D02*
X90343658Y-65200190D01*
X90343658Y-65200190D02*
X90315839Y-65127618D01*
X90315839Y-65127618D02*
X90260200Y-65079237D01*
X90260200Y-65079237D02*
X90204562Y-65055047D01*
X90204562Y-65055047D02*
X90093286Y-65030856D01*
X90093286Y-65030856D02*
X90009829Y-65030856D01*
X90009829Y-65030856D02*
X89898553Y-65055047D01*
X89898553Y-65055047D02*
X89842915Y-65079237D01*
X89842915Y-65079237D02*
X89787277Y-65127618D01*
X89787277Y-65127618D02*
X89759458Y-65200190D01*
X89759458Y-65200190D02*
X89759458Y-65248571D01*
X89759458Y-65248571D02*
X89787277Y-65321142D01*
X89787277Y-65321142D02*
X89815096Y-65345333D01*
X90009829Y-65635618D02*
X89982010Y-65587237D01*
X89982010Y-65587237D02*
X89954191Y-65563047D01*
X89954191Y-65563047D02*
X89898553Y-65538856D01*
X89898553Y-65538856D02*
X89870734Y-65538856D01*
X89870734Y-65538856D02*
X89815096Y-65563047D01*
X89815096Y-65563047D02*
X89787277Y-65587237D01*
X89787277Y-65587237D02*
X89759458Y-65635618D01*
X89759458Y-65635618D02*
X89759458Y-65732380D01*
X89759458Y-65732380D02*
X89787277Y-65780761D01*
X89787277Y-65780761D02*
X89815096Y-65804952D01*
X89815096Y-65804952D02*
X89870734Y-65829142D01*
X89870734Y-65829142D02*
X89898553Y-65829142D01*
X89898553Y-65829142D02*
X89954191Y-65804952D01*
X89954191Y-65804952D02*
X89982010Y-65780761D01*
X89982010Y-65780761D02*
X90009829Y-65732380D01*
X90009829Y-65732380D02*
X90009829Y-65635618D01*
X90009829Y-65635618D02*
X90037648Y-65587237D01*
X90037648Y-65587237D02*
X90065467Y-65563047D01*
X90065467Y-65563047D02*
X90121105Y-65538856D01*
X90121105Y-65538856D02*
X90232381Y-65538856D01*
X90232381Y-65538856D02*
X90288019Y-65563047D01*
X90288019Y-65563047D02*
X90315839Y-65587237D01*
X90315839Y-65587237D02*
X90343658Y-65635618D01*
X90343658Y-65635618D02*
X90343658Y-65732380D01*
X90343658Y-65732380D02*
X90315839Y-65780761D01*
X90315839Y-65780761D02*
X90288019Y-65804952D01*
X90288019Y-65804952D02*
X90232381Y-65829142D01*
X90232381Y-65829142D02*
X90121105Y-65829142D01*
X90121105Y-65829142D02*
X90065467Y-65804952D01*
X90065467Y-65804952D02*
X90037648Y-65780761D01*
X90037648Y-65780761D02*
X90009829Y-65732380D01*
D11*
X91639066Y-64954828D02*
X91639066Y-64998371D01*
X91639066Y-64998371D02*
X91663256Y-65041914D01*
X91663256Y-65041914D02*
X91687447Y-65063686D01*
X91687447Y-65063686D02*
X91735828Y-65085457D01*
X91735828Y-65085457D02*
X91832590Y-65107228D01*
X91832590Y-65107228D02*
X91953542Y-65107228D01*
X91953542Y-65107228D02*
X92050304Y-65085457D01*
X92050304Y-65085457D02*
X92098685Y-65063686D01*
X92098685Y-65063686D02*
X92122876Y-65041914D01*
X92122876Y-65041914D02*
X92147066Y-64998371D01*
X92147066Y-64998371D02*
X92147066Y-64954828D01*
X92147066Y-64954828D02*
X92122876Y-64911286D01*
X92122876Y-64911286D02*
X92098685Y-64889514D01*
X92098685Y-64889514D02*
X92050304Y-64867743D01*
X92050304Y-64867743D02*
X91953542Y-64845971D01*
X91953542Y-64845971D02*
X91832590Y-64845971D01*
X91832590Y-64845971D02*
X91735828Y-64867743D01*
X91735828Y-64867743D02*
X91687447Y-64889514D01*
X91687447Y-64889514D02*
X91663256Y-64911286D01*
X91663256Y-64911286D02*
X91639066Y-64954828D01*
X92098685Y-65303172D02*
X92122876Y-65324943D01*
X92122876Y-65324943D02*
X92147066Y-65303172D01*
X92147066Y-65303172D02*
X92122876Y-65281400D01*
X92122876Y-65281400D02*
X92098685Y-65303172D01*
X92098685Y-65303172D02*
X92147066Y-65303172D01*
X92147066Y-65760371D02*
X92147066Y-65499114D01*
X92147066Y-65629743D02*
X91639066Y-65629743D01*
X91639066Y-65629743D02*
X91711637Y-65586200D01*
X91711637Y-65586200D02*
X91760018Y-65542657D01*
X91760018Y-65542657D02*
X91784209Y-65499114D01*
X91808399Y-66152258D02*
X92147066Y-66152258D01*
X91808399Y-65956315D02*
X92074495Y-65956315D01*
X92074495Y-65956315D02*
X92122876Y-65978086D01*
X92122876Y-65978086D02*
X92147066Y-66021629D01*
X92147066Y-66021629D02*
X92147066Y-66086943D01*
X92147066Y-66086943D02*
X92122876Y-66130486D01*
X92122876Y-66130486D02*
X92098685Y-66152258D01*
D10*
X90332019Y-68745333D02*
X90359839Y-68721142D01*
X90359839Y-68721142D02*
X90387658Y-68648571D01*
X90387658Y-68648571D02*
X90387658Y-68600190D01*
X90387658Y-68600190D02*
X90359839Y-68527618D01*
X90359839Y-68527618D02*
X90304200Y-68479237D01*
X90304200Y-68479237D02*
X90248562Y-68455047D01*
X90248562Y-68455047D02*
X90137286Y-68430856D01*
X90137286Y-68430856D02*
X90053829Y-68430856D01*
X90053829Y-68430856D02*
X89942553Y-68455047D01*
X89942553Y-68455047D02*
X89886915Y-68479237D01*
X89886915Y-68479237D02*
X89831277Y-68527618D01*
X89831277Y-68527618D02*
X89803458Y-68600190D01*
X89803458Y-68600190D02*
X89803458Y-68648571D01*
X89803458Y-68648571D02*
X89831277Y-68721142D01*
X89831277Y-68721142D02*
X89859096Y-68745333D01*
X90387658Y-68987237D02*
X90387658Y-69083999D01*
X90387658Y-69083999D02*
X90359839Y-69132380D01*
X90359839Y-69132380D02*
X90332019Y-69156571D01*
X90332019Y-69156571D02*
X90248562Y-69204952D01*
X90248562Y-69204952D02*
X90137286Y-69229142D01*
X90137286Y-69229142D02*
X89914734Y-69229142D01*
X89914734Y-69229142D02*
X89859096Y-69204952D01*
X89859096Y-69204952D02*
X89831277Y-69180761D01*
X89831277Y-69180761D02*
X89803458Y-69132380D01*
X89803458Y-69132380D02*
X89803458Y-69035618D01*
X89803458Y-69035618D02*
X89831277Y-68987237D01*
X89831277Y-68987237D02*
X89859096Y-68963047D01*
X89859096Y-68963047D02*
X89914734Y-68938856D01*
X89914734Y-68938856D02*
X90053829Y-68938856D01*
X90053829Y-68938856D02*
X90109467Y-68963047D01*
X90109467Y-68963047D02*
X90137286Y-68987237D01*
X90137286Y-68987237D02*
X90165105Y-69035618D01*
X90165105Y-69035618D02*
X90165105Y-69132380D01*
X90165105Y-69132380D02*
X90137286Y-69180761D01*
X90137286Y-69180761D02*
X90109467Y-69204952D01*
X90109467Y-69204952D02*
X90053829Y-69229142D01*
D11*
X91671447Y-68165971D02*
X91647256Y-68187743D01*
X91647256Y-68187743D02*
X91623066Y-68231286D01*
X91623066Y-68231286D02*
X91623066Y-68340143D01*
X91623066Y-68340143D02*
X91647256Y-68383686D01*
X91647256Y-68383686D02*
X91671447Y-68405457D01*
X91671447Y-68405457D02*
X91719828Y-68427228D01*
X91719828Y-68427228D02*
X91768209Y-68427228D01*
X91768209Y-68427228D02*
X91840780Y-68405457D01*
X91840780Y-68405457D02*
X92131066Y-68144200D01*
X92131066Y-68144200D02*
X92131066Y-68427228D01*
X92082685Y-68623172D02*
X92106876Y-68644943D01*
X92106876Y-68644943D02*
X92131066Y-68623172D01*
X92131066Y-68623172D02*
X92106876Y-68601400D01*
X92106876Y-68601400D02*
X92082685Y-68623172D01*
X92082685Y-68623172D02*
X92131066Y-68623172D01*
X91671447Y-68819114D02*
X91647256Y-68840886D01*
X91647256Y-68840886D02*
X91623066Y-68884429D01*
X91623066Y-68884429D02*
X91623066Y-68993286D01*
X91623066Y-68993286D02*
X91647256Y-69036829D01*
X91647256Y-69036829D02*
X91671447Y-69058600D01*
X91671447Y-69058600D02*
X91719828Y-69080371D01*
X91719828Y-69080371D02*
X91768209Y-69080371D01*
X91768209Y-69080371D02*
X91840780Y-69058600D01*
X91840780Y-69058600D02*
X92131066Y-68797343D01*
X92131066Y-68797343D02*
X92131066Y-69080371D01*
X91792399Y-69472258D02*
X92131066Y-69472258D01*
X91792399Y-69276315D02*
X92058495Y-69276315D01*
X92058495Y-69276315D02*
X92106876Y-69298086D01*
X92106876Y-69298086D02*
X92131066Y-69341629D01*
X92131066Y-69341629D02*
X92131066Y-69406943D01*
X92131066Y-69406943D02*
X92106876Y-69450486D01*
X92106876Y-69450486D02*
X92082685Y-69472258D01*
D10*
X87620019Y-68583428D02*
X87647839Y-68559237D01*
X87647839Y-68559237D02*
X87675658Y-68486666D01*
X87675658Y-68486666D02*
X87675658Y-68438285D01*
X87675658Y-68438285D02*
X87647839Y-68365713D01*
X87647839Y-68365713D02*
X87592200Y-68317332D01*
X87592200Y-68317332D02*
X87536562Y-68293142D01*
X87536562Y-68293142D02*
X87425286Y-68268951D01*
X87425286Y-68268951D02*
X87341829Y-68268951D01*
X87341829Y-68268951D02*
X87230553Y-68293142D01*
X87230553Y-68293142D02*
X87174915Y-68317332D01*
X87174915Y-68317332D02*
X87119277Y-68365713D01*
X87119277Y-68365713D02*
X87091458Y-68438285D01*
X87091458Y-68438285D02*
X87091458Y-68486666D01*
X87091458Y-68486666D02*
X87119277Y-68559237D01*
X87119277Y-68559237D02*
X87147096Y-68583428D01*
X87675658Y-69067237D02*
X87675658Y-68776951D01*
X87675658Y-68922094D02*
X87091458Y-68922094D01*
X87091458Y-68922094D02*
X87174915Y-68873713D01*
X87174915Y-68873713D02*
X87230553Y-68825332D01*
X87230553Y-68825332D02*
X87258372Y-68776951D01*
X87091458Y-69381714D02*
X87091458Y-69430095D01*
X87091458Y-69430095D02*
X87119277Y-69478476D01*
X87119277Y-69478476D02*
X87147096Y-69502666D01*
X87147096Y-69502666D02*
X87202734Y-69526857D01*
X87202734Y-69526857D02*
X87314010Y-69551047D01*
X87314010Y-69551047D02*
X87453105Y-69551047D01*
X87453105Y-69551047D02*
X87564381Y-69526857D01*
X87564381Y-69526857D02*
X87620019Y-69502666D01*
X87620019Y-69502666D02*
X87647839Y-69478476D01*
X87647839Y-69478476D02*
X87675658Y-69430095D01*
X87675658Y-69430095D02*
X87675658Y-69381714D01*
X87675658Y-69381714D02*
X87647839Y-69333333D01*
X87647839Y-69333333D02*
X87620019Y-69309142D01*
X87620019Y-69309142D02*
X87564381Y-69284952D01*
X87564381Y-69284952D02*
X87453105Y-69260761D01*
X87453105Y-69260761D02*
X87314010Y-69260761D01*
X87314010Y-69260761D02*
X87202734Y-69284952D01*
X87202734Y-69284952D02*
X87147096Y-69309142D01*
X87147096Y-69309142D02*
X87119277Y-69333333D01*
X87119277Y-69333333D02*
X87091458Y-69381714D01*
D11*
X85343066Y-68304828D02*
X85343066Y-68348371D01*
X85343066Y-68348371D02*
X85367256Y-68391914D01*
X85367256Y-68391914D02*
X85391447Y-68413686D01*
X85391447Y-68413686D02*
X85439828Y-68435457D01*
X85439828Y-68435457D02*
X85536590Y-68457228D01*
X85536590Y-68457228D02*
X85657542Y-68457228D01*
X85657542Y-68457228D02*
X85754304Y-68435457D01*
X85754304Y-68435457D02*
X85802685Y-68413686D01*
X85802685Y-68413686D02*
X85826876Y-68391914D01*
X85826876Y-68391914D02*
X85851066Y-68348371D01*
X85851066Y-68348371D02*
X85851066Y-68304828D01*
X85851066Y-68304828D02*
X85826876Y-68261286D01*
X85826876Y-68261286D02*
X85802685Y-68239514D01*
X85802685Y-68239514D02*
X85754304Y-68217743D01*
X85754304Y-68217743D02*
X85657542Y-68195971D01*
X85657542Y-68195971D02*
X85536590Y-68195971D01*
X85536590Y-68195971D02*
X85439828Y-68217743D01*
X85439828Y-68217743D02*
X85391447Y-68239514D01*
X85391447Y-68239514D02*
X85367256Y-68261286D01*
X85367256Y-68261286D02*
X85343066Y-68304828D01*
X85802685Y-68653172D02*
X85826876Y-68674943D01*
X85826876Y-68674943D02*
X85851066Y-68653172D01*
X85851066Y-68653172D02*
X85826876Y-68631400D01*
X85826876Y-68631400D02*
X85802685Y-68653172D01*
X85802685Y-68653172D02*
X85851066Y-68653172D01*
X85851066Y-69110371D02*
X85851066Y-68849114D01*
X85851066Y-68979743D02*
X85343066Y-68979743D01*
X85343066Y-68979743D02*
X85415637Y-68936200D01*
X85415637Y-68936200D02*
X85464018Y-68892657D01*
X85464018Y-68892657D02*
X85488209Y-68849114D01*
X85512399Y-69502258D02*
X85851066Y-69502258D01*
X85512399Y-69306315D02*
X85778495Y-69306315D01*
X85778495Y-69306315D02*
X85826876Y-69328086D01*
X85826876Y-69328086D02*
X85851066Y-69371629D01*
X85851066Y-69371629D02*
X85851066Y-69436943D01*
X85851066Y-69436943D02*
X85826876Y-69480486D01*
X85826876Y-69480486D02*
X85802685Y-69502258D01*
D10*
X70706019Y-54973428D02*
X70733839Y-54949237D01*
X70733839Y-54949237D02*
X70761658Y-54876666D01*
X70761658Y-54876666D02*
X70761658Y-54828285D01*
X70761658Y-54828285D02*
X70733839Y-54755713D01*
X70733839Y-54755713D02*
X70678200Y-54707332D01*
X70678200Y-54707332D02*
X70622562Y-54683142D01*
X70622562Y-54683142D02*
X70511286Y-54658951D01*
X70511286Y-54658951D02*
X70427829Y-54658951D01*
X70427829Y-54658951D02*
X70316553Y-54683142D01*
X70316553Y-54683142D02*
X70260915Y-54707332D01*
X70260915Y-54707332D02*
X70205277Y-54755713D01*
X70205277Y-54755713D02*
X70177458Y-54828285D01*
X70177458Y-54828285D02*
X70177458Y-54876666D01*
X70177458Y-54876666D02*
X70205277Y-54949237D01*
X70205277Y-54949237D02*
X70233096Y-54973428D01*
X70761658Y-55457237D02*
X70761658Y-55166951D01*
X70761658Y-55312094D02*
X70177458Y-55312094D01*
X70177458Y-55312094D02*
X70260915Y-55263713D01*
X70260915Y-55263713D02*
X70316553Y-55215332D01*
X70316553Y-55215332D02*
X70344372Y-55166951D01*
X70177458Y-55916857D02*
X70177458Y-55674952D01*
X70177458Y-55674952D02*
X70455648Y-55650761D01*
X70455648Y-55650761D02*
X70427829Y-55674952D01*
X70427829Y-55674952D02*
X70400010Y-55723333D01*
X70400010Y-55723333D02*
X70400010Y-55844285D01*
X70400010Y-55844285D02*
X70427829Y-55892666D01*
X70427829Y-55892666D02*
X70455648Y-55916857D01*
X70455648Y-55916857D02*
X70511286Y-55941047D01*
X70511286Y-55941047D02*
X70650381Y-55941047D01*
X70650381Y-55941047D02*
X70706019Y-55916857D01*
X70706019Y-55916857D02*
X70733839Y-55892666D01*
X70733839Y-55892666D02*
X70761658Y-55844285D01*
X70761658Y-55844285D02*
X70761658Y-55723333D01*
X70761658Y-55723333D02*
X70733839Y-55674952D01*
X70733839Y-55674952D02*
X70706019Y-55650761D01*
D11*
X68441066Y-54744828D02*
X68441066Y-54788371D01*
X68441066Y-54788371D02*
X68465256Y-54831914D01*
X68465256Y-54831914D02*
X68489447Y-54853686D01*
X68489447Y-54853686D02*
X68537828Y-54875457D01*
X68537828Y-54875457D02*
X68634590Y-54897228D01*
X68634590Y-54897228D02*
X68755542Y-54897228D01*
X68755542Y-54897228D02*
X68852304Y-54875457D01*
X68852304Y-54875457D02*
X68900685Y-54853686D01*
X68900685Y-54853686D02*
X68924876Y-54831914D01*
X68924876Y-54831914D02*
X68949066Y-54788371D01*
X68949066Y-54788371D02*
X68949066Y-54744828D01*
X68949066Y-54744828D02*
X68924876Y-54701286D01*
X68924876Y-54701286D02*
X68900685Y-54679514D01*
X68900685Y-54679514D02*
X68852304Y-54657743D01*
X68852304Y-54657743D02*
X68755542Y-54635971D01*
X68755542Y-54635971D02*
X68634590Y-54635971D01*
X68634590Y-54635971D02*
X68537828Y-54657743D01*
X68537828Y-54657743D02*
X68489447Y-54679514D01*
X68489447Y-54679514D02*
X68465256Y-54701286D01*
X68465256Y-54701286D02*
X68441066Y-54744828D01*
X68900685Y-55093172D02*
X68924876Y-55114943D01*
X68924876Y-55114943D02*
X68949066Y-55093172D01*
X68949066Y-55093172D02*
X68924876Y-55071400D01*
X68924876Y-55071400D02*
X68900685Y-55093172D01*
X68900685Y-55093172D02*
X68949066Y-55093172D01*
X68949066Y-55550371D02*
X68949066Y-55289114D01*
X68949066Y-55419743D02*
X68441066Y-55419743D01*
X68441066Y-55419743D02*
X68513637Y-55376200D01*
X68513637Y-55376200D02*
X68562018Y-55332657D01*
X68562018Y-55332657D02*
X68586209Y-55289114D01*
X68610399Y-55942258D02*
X68949066Y-55942258D01*
X68610399Y-55746315D02*
X68876495Y-55746315D01*
X68876495Y-55746315D02*
X68924876Y-55768086D01*
X68924876Y-55768086D02*
X68949066Y-55811629D01*
X68949066Y-55811629D02*
X68949066Y-55876943D01*
X68949066Y-55876943D02*
X68924876Y-55920486D01*
X68924876Y-55920486D02*
X68900685Y-55942258D01*
D10*
X76336019Y-52563428D02*
X76363839Y-52539237D01*
X76363839Y-52539237D02*
X76391658Y-52466666D01*
X76391658Y-52466666D02*
X76391658Y-52418285D01*
X76391658Y-52418285D02*
X76363839Y-52345713D01*
X76363839Y-52345713D02*
X76308200Y-52297332D01*
X76308200Y-52297332D02*
X76252562Y-52273142D01*
X76252562Y-52273142D02*
X76141286Y-52248951D01*
X76141286Y-52248951D02*
X76057829Y-52248951D01*
X76057829Y-52248951D02*
X75946553Y-52273142D01*
X75946553Y-52273142D02*
X75890915Y-52297332D01*
X75890915Y-52297332D02*
X75835277Y-52345713D01*
X75835277Y-52345713D02*
X75807458Y-52418285D01*
X75807458Y-52418285D02*
X75807458Y-52466666D01*
X75807458Y-52466666D02*
X75835277Y-52539237D01*
X75835277Y-52539237D02*
X75863096Y-52563428D01*
X76391658Y-53047237D02*
X76391658Y-52756951D01*
X76391658Y-52902094D02*
X75807458Y-52902094D01*
X75807458Y-52902094D02*
X75890915Y-52853713D01*
X75890915Y-52853713D02*
X75946553Y-52805332D01*
X75946553Y-52805332D02*
X75974372Y-52756951D01*
X75807458Y-53482666D02*
X75807458Y-53385904D01*
X75807458Y-53385904D02*
X75835277Y-53337523D01*
X75835277Y-53337523D02*
X75863096Y-53313333D01*
X75863096Y-53313333D02*
X75946553Y-53264952D01*
X75946553Y-53264952D02*
X76057829Y-53240761D01*
X76057829Y-53240761D02*
X76280381Y-53240761D01*
X76280381Y-53240761D02*
X76336019Y-53264952D01*
X76336019Y-53264952D02*
X76363839Y-53289142D01*
X76363839Y-53289142D02*
X76391658Y-53337523D01*
X76391658Y-53337523D02*
X76391658Y-53434285D01*
X76391658Y-53434285D02*
X76363839Y-53482666D01*
X76363839Y-53482666D02*
X76336019Y-53506857D01*
X76336019Y-53506857D02*
X76280381Y-53531047D01*
X76280381Y-53531047D02*
X76141286Y-53531047D01*
X76141286Y-53531047D02*
X76085648Y-53506857D01*
X76085648Y-53506857D02*
X76057829Y-53482666D01*
X76057829Y-53482666D02*
X76030010Y-53434285D01*
X76030010Y-53434285D02*
X76030010Y-53337523D01*
X76030010Y-53337523D02*
X76057829Y-53289142D01*
X76057829Y-53289142D02*
X76085648Y-53264952D01*
X76085648Y-53264952D02*
X76141286Y-53240761D01*
D11*
X74071066Y-52334828D02*
X74071066Y-52378371D01*
X74071066Y-52378371D02*
X74095256Y-52421914D01*
X74095256Y-52421914D02*
X74119447Y-52443686D01*
X74119447Y-52443686D02*
X74167828Y-52465457D01*
X74167828Y-52465457D02*
X74264590Y-52487228D01*
X74264590Y-52487228D02*
X74385542Y-52487228D01*
X74385542Y-52487228D02*
X74482304Y-52465457D01*
X74482304Y-52465457D02*
X74530685Y-52443686D01*
X74530685Y-52443686D02*
X74554876Y-52421914D01*
X74554876Y-52421914D02*
X74579066Y-52378371D01*
X74579066Y-52378371D02*
X74579066Y-52334828D01*
X74579066Y-52334828D02*
X74554876Y-52291286D01*
X74554876Y-52291286D02*
X74530685Y-52269514D01*
X74530685Y-52269514D02*
X74482304Y-52247743D01*
X74482304Y-52247743D02*
X74385542Y-52225971D01*
X74385542Y-52225971D02*
X74264590Y-52225971D01*
X74264590Y-52225971D02*
X74167828Y-52247743D01*
X74167828Y-52247743D02*
X74119447Y-52269514D01*
X74119447Y-52269514D02*
X74095256Y-52291286D01*
X74095256Y-52291286D02*
X74071066Y-52334828D01*
X74530685Y-52683172D02*
X74554876Y-52704943D01*
X74554876Y-52704943D02*
X74579066Y-52683172D01*
X74579066Y-52683172D02*
X74554876Y-52661400D01*
X74554876Y-52661400D02*
X74530685Y-52683172D01*
X74530685Y-52683172D02*
X74579066Y-52683172D01*
X74579066Y-53140371D02*
X74579066Y-52879114D01*
X74579066Y-53009743D02*
X74071066Y-53009743D01*
X74071066Y-53009743D02*
X74143637Y-52966200D01*
X74143637Y-52966200D02*
X74192018Y-52922657D01*
X74192018Y-52922657D02*
X74216209Y-52879114D01*
X74240399Y-53532258D02*
X74579066Y-53532258D01*
X74240399Y-53336315D02*
X74506495Y-53336315D01*
X74506495Y-53336315D02*
X74554876Y-53358086D01*
X74554876Y-53358086D02*
X74579066Y-53401629D01*
X74579066Y-53401629D02*
X74579066Y-53466943D01*
X74579066Y-53466943D02*
X74554876Y-53510486D01*
X74554876Y-53510486D02*
X74530685Y-53532258D01*
D10*
X70716019Y-53333428D02*
X70743839Y-53309237D01*
X70743839Y-53309237D02*
X70771658Y-53236666D01*
X70771658Y-53236666D02*
X70771658Y-53188285D01*
X70771658Y-53188285D02*
X70743839Y-53115713D01*
X70743839Y-53115713D02*
X70688200Y-53067332D01*
X70688200Y-53067332D02*
X70632562Y-53043142D01*
X70632562Y-53043142D02*
X70521286Y-53018951D01*
X70521286Y-53018951D02*
X70437829Y-53018951D01*
X70437829Y-53018951D02*
X70326553Y-53043142D01*
X70326553Y-53043142D02*
X70270915Y-53067332D01*
X70270915Y-53067332D02*
X70215277Y-53115713D01*
X70215277Y-53115713D02*
X70187458Y-53188285D01*
X70187458Y-53188285D02*
X70187458Y-53236666D01*
X70187458Y-53236666D02*
X70215277Y-53309237D01*
X70215277Y-53309237D02*
X70243096Y-53333428D01*
X70771658Y-53817237D02*
X70771658Y-53526951D01*
X70771658Y-53672094D02*
X70187458Y-53672094D01*
X70187458Y-53672094D02*
X70270915Y-53623713D01*
X70270915Y-53623713D02*
X70326553Y-53575332D01*
X70326553Y-53575332D02*
X70354372Y-53526951D01*
X70187458Y-53986571D02*
X70187458Y-54325238D01*
X70187458Y-54325238D02*
X70771658Y-54107523D01*
D11*
X68959066Y-53366085D02*
X68959066Y-53104828D01*
X68959066Y-53235457D02*
X68451066Y-53235457D01*
X68451066Y-53235457D02*
X68523637Y-53191914D01*
X68523637Y-53191914D02*
X68572018Y-53148371D01*
X68572018Y-53148371D02*
X68596209Y-53104828D01*
X68451066Y-53649114D02*
X68451066Y-53692657D01*
X68451066Y-53692657D02*
X68475256Y-53736200D01*
X68475256Y-53736200D02*
X68499447Y-53757972D01*
X68499447Y-53757972D02*
X68547828Y-53779743D01*
X68547828Y-53779743D02*
X68644590Y-53801514D01*
X68644590Y-53801514D02*
X68765542Y-53801514D01*
X68765542Y-53801514D02*
X68862304Y-53779743D01*
X68862304Y-53779743D02*
X68910685Y-53757972D01*
X68910685Y-53757972D02*
X68934876Y-53736200D01*
X68934876Y-53736200D02*
X68959066Y-53692657D01*
X68959066Y-53692657D02*
X68959066Y-53649114D01*
X68959066Y-53649114D02*
X68934876Y-53605572D01*
X68934876Y-53605572D02*
X68910685Y-53583800D01*
X68910685Y-53583800D02*
X68862304Y-53562029D01*
X68862304Y-53562029D02*
X68765542Y-53540257D01*
X68765542Y-53540257D02*
X68644590Y-53540257D01*
X68644590Y-53540257D02*
X68547828Y-53562029D01*
X68547828Y-53562029D02*
X68499447Y-53583800D01*
X68499447Y-53583800D02*
X68475256Y-53605572D01*
X68475256Y-53605572D02*
X68451066Y-53649114D01*
X68620399Y-53997458D02*
X68959066Y-53997458D01*
X68668780Y-53997458D02*
X68644590Y-54019229D01*
X68644590Y-54019229D02*
X68620399Y-54062772D01*
X68620399Y-54062772D02*
X68620399Y-54128086D01*
X68620399Y-54128086D02*
X68644590Y-54171629D01*
X68644590Y-54171629D02*
X68692971Y-54193401D01*
X68692971Y-54193401D02*
X68959066Y-54193401D01*
D10*
X70706019Y-56613428D02*
X70733839Y-56589237D01*
X70733839Y-56589237D02*
X70761658Y-56516666D01*
X70761658Y-56516666D02*
X70761658Y-56468285D01*
X70761658Y-56468285D02*
X70733839Y-56395713D01*
X70733839Y-56395713D02*
X70678200Y-56347332D01*
X70678200Y-56347332D02*
X70622562Y-56323142D01*
X70622562Y-56323142D02*
X70511286Y-56298951D01*
X70511286Y-56298951D02*
X70427829Y-56298951D01*
X70427829Y-56298951D02*
X70316553Y-56323142D01*
X70316553Y-56323142D02*
X70260915Y-56347332D01*
X70260915Y-56347332D02*
X70205277Y-56395713D01*
X70205277Y-56395713D02*
X70177458Y-56468285D01*
X70177458Y-56468285D02*
X70177458Y-56516666D01*
X70177458Y-56516666D02*
X70205277Y-56589237D01*
X70205277Y-56589237D02*
X70233096Y-56613428D01*
X70761658Y-57097237D02*
X70761658Y-56806951D01*
X70761658Y-56952094D02*
X70177458Y-56952094D01*
X70177458Y-56952094D02*
X70260915Y-56903713D01*
X70260915Y-56903713D02*
X70316553Y-56855332D01*
X70316553Y-56855332D02*
X70344372Y-56806951D01*
X70427829Y-57387523D02*
X70400010Y-57339142D01*
X70400010Y-57339142D02*
X70372191Y-57314952D01*
X70372191Y-57314952D02*
X70316553Y-57290761D01*
X70316553Y-57290761D02*
X70288734Y-57290761D01*
X70288734Y-57290761D02*
X70233096Y-57314952D01*
X70233096Y-57314952D02*
X70205277Y-57339142D01*
X70205277Y-57339142D02*
X70177458Y-57387523D01*
X70177458Y-57387523D02*
X70177458Y-57484285D01*
X70177458Y-57484285D02*
X70205277Y-57532666D01*
X70205277Y-57532666D02*
X70233096Y-57556857D01*
X70233096Y-57556857D02*
X70288734Y-57581047D01*
X70288734Y-57581047D02*
X70316553Y-57581047D01*
X70316553Y-57581047D02*
X70372191Y-57556857D01*
X70372191Y-57556857D02*
X70400010Y-57532666D01*
X70400010Y-57532666D02*
X70427829Y-57484285D01*
X70427829Y-57484285D02*
X70427829Y-57387523D01*
X70427829Y-57387523D02*
X70455648Y-57339142D01*
X70455648Y-57339142D02*
X70483467Y-57314952D01*
X70483467Y-57314952D02*
X70539105Y-57290761D01*
X70539105Y-57290761D02*
X70650381Y-57290761D01*
X70650381Y-57290761D02*
X70706019Y-57314952D01*
X70706019Y-57314952D02*
X70733839Y-57339142D01*
X70733839Y-57339142D02*
X70761658Y-57387523D01*
X70761658Y-57387523D02*
X70761658Y-57484285D01*
X70761658Y-57484285D02*
X70733839Y-57532666D01*
X70733839Y-57532666D02*
X70706019Y-57556857D01*
X70706019Y-57556857D02*
X70650381Y-57581047D01*
X70650381Y-57581047D02*
X70539105Y-57581047D01*
X70539105Y-57581047D02*
X70483467Y-57556857D01*
X70483467Y-57556857D02*
X70455648Y-57532666D01*
X70455648Y-57532666D02*
X70427829Y-57484285D01*
D11*
X68441066Y-56384828D02*
X68441066Y-56428371D01*
X68441066Y-56428371D02*
X68465256Y-56471914D01*
X68465256Y-56471914D02*
X68489447Y-56493686D01*
X68489447Y-56493686D02*
X68537828Y-56515457D01*
X68537828Y-56515457D02*
X68634590Y-56537228D01*
X68634590Y-56537228D02*
X68755542Y-56537228D01*
X68755542Y-56537228D02*
X68852304Y-56515457D01*
X68852304Y-56515457D02*
X68900685Y-56493686D01*
X68900685Y-56493686D02*
X68924876Y-56471914D01*
X68924876Y-56471914D02*
X68949066Y-56428371D01*
X68949066Y-56428371D02*
X68949066Y-56384828D01*
X68949066Y-56384828D02*
X68924876Y-56341286D01*
X68924876Y-56341286D02*
X68900685Y-56319514D01*
X68900685Y-56319514D02*
X68852304Y-56297743D01*
X68852304Y-56297743D02*
X68755542Y-56275971D01*
X68755542Y-56275971D02*
X68634590Y-56275971D01*
X68634590Y-56275971D02*
X68537828Y-56297743D01*
X68537828Y-56297743D02*
X68489447Y-56319514D01*
X68489447Y-56319514D02*
X68465256Y-56341286D01*
X68465256Y-56341286D02*
X68441066Y-56384828D01*
X68900685Y-56733172D02*
X68924876Y-56754943D01*
X68924876Y-56754943D02*
X68949066Y-56733172D01*
X68949066Y-56733172D02*
X68924876Y-56711400D01*
X68924876Y-56711400D02*
X68900685Y-56733172D01*
X68900685Y-56733172D02*
X68949066Y-56733172D01*
X68949066Y-57190371D02*
X68949066Y-56929114D01*
X68949066Y-57059743D02*
X68441066Y-57059743D01*
X68441066Y-57059743D02*
X68513637Y-57016200D01*
X68513637Y-57016200D02*
X68562018Y-56972657D01*
X68562018Y-56972657D02*
X68586209Y-56929114D01*
X68610399Y-57582258D02*
X68949066Y-57582258D01*
X68610399Y-57386315D02*
X68876495Y-57386315D01*
X68876495Y-57386315D02*
X68924876Y-57408086D01*
X68924876Y-57408086D02*
X68949066Y-57451629D01*
X68949066Y-57451629D02*
X68949066Y-57516943D01*
X68949066Y-57516943D02*
X68924876Y-57560486D01*
X68924876Y-57560486D02*
X68900685Y-57582258D01*
D10*
X70696019Y-58253428D02*
X70723839Y-58229237D01*
X70723839Y-58229237D02*
X70751658Y-58156666D01*
X70751658Y-58156666D02*
X70751658Y-58108285D01*
X70751658Y-58108285D02*
X70723839Y-58035713D01*
X70723839Y-58035713D02*
X70668200Y-57987332D01*
X70668200Y-57987332D02*
X70612562Y-57963142D01*
X70612562Y-57963142D02*
X70501286Y-57938951D01*
X70501286Y-57938951D02*
X70417829Y-57938951D01*
X70417829Y-57938951D02*
X70306553Y-57963142D01*
X70306553Y-57963142D02*
X70250915Y-57987332D01*
X70250915Y-57987332D02*
X70195277Y-58035713D01*
X70195277Y-58035713D02*
X70167458Y-58108285D01*
X70167458Y-58108285D02*
X70167458Y-58156666D01*
X70167458Y-58156666D02*
X70195277Y-58229237D01*
X70195277Y-58229237D02*
X70223096Y-58253428D01*
X70751658Y-58737237D02*
X70751658Y-58446951D01*
X70751658Y-58592094D02*
X70167458Y-58592094D01*
X70167458Y-58592094D02*
X70250915Y-58543713D01*
X70250915Y-58543713D02*
X70306553Y-58495332D01*
X70306553Y-58495332D02*
X70334372Y-58446951D01*
X70751658Y-58979142D02*
X70751658Y-59075904D01*
X70751658Y-59075904D02*
X70723839Y-59124285D01*
X70723839Y-59124285D02*
X70696019Y-59148476D01*
X70696019Y-59148476D02*
X70612562Y-59196857D01*
X70612562Y-59196857D02*
X70501286Y-59221047D01*
X70501286Y-59221047D02*
X70278734Y-59221047D01*
X70278734Y-59221047D02*
X70223096Y-59196857D01*
X70223096Y-59196857D02*
X70195277Y-59172666D01*
X70195277Y-59172666D02*
X70167458Y-59124285D01*
X70167458Y-59124285D02*
X70167458Y-59027523D01*
X70167458Y-59027523D02*
X70195277Y-58979142D01*
X70195277Y-58979142D02*
X70223096Y-58954952D01*
X70223096Y-58954952D02*
X70278734Y-58930761D01*
X70278734Y-58930761D02*
X70417829Y-58930761D01*
X70417829Y-58930761D02*
X70473467Y-58954952D01*
X70473467Y-58954952D02*
X70501286Y-58979142D01*
X70501286Y-58979142D02*
X70529105Y-59027523D01*
X70529105Y-59027523D02*
X70529105Y-59124285D01*
X70529105Y-59124285D02*
X70501286Y-59172666D01*
X70501286Y-59172666D02*
X70473467Y-59196857D01*
X70473467Y-59196857D02*
X70417829Y-59221047D01*
D11*
X68939066Y-58286085D02*
X68939066Y-58024828D01*
X68939066Y-58155457D02*
X68431066Y-58155457D01*
X68431066Y-58155457D02*
X68503637Y-58111914D01*
X68503637Y-58111914D02*
X68552018Y-58068371D01*
X68552018Y-58068371D02*
X68576209Y-58024828D01*
X68431066Y-58569114D02*
X68431066Y-58612657D01*
X68431066Y-58612657D02*
X68455256Y-58656200D01*
X68455256Y-58656200D02*
X68479447Y-58677972D01*
X68479447Y-58677972D02*
X68527828Y-58699743D01*
X68527828Y-58699743D02*
X68624590Y-58721514D01*
X68624590Y-58721514D02*
X68745542Y-58721514D01*
X68745542Y-58721514D02*
X68842304Y-58699743D01*
X68842304Y-58699743D02*
X68890685Y-58677972D01*
X68890685Y-58677972D02*
X68914876Y-58656200D01*
X68914876Y-58656200D02*
X68939066Y-58612657D01*
X68939066Y-58612657D02*
X68939066Y-58569114D01*
X68939066Y-58569114D02*
X68914876Y-58525572D01*
X68914876Y-58525572D02*
X68890685Y-58503800D01*
X68890685Y-58503800D02*
X68842304Y-58482029D01*
X68842304Y-58482029D02*
X68745542Y-58460257D01*
X68745542Y-58460257D02*
X68624590Y-58460257D01*
X68624590Y-58460257D02*
X68527828Y-58482029D01*
X68527828Y-58482029D02*
X68479447Y-58503800D01*
X68479447Y-58503800D02*
X68455256Y-58525572D01*
X68455256Y-58525572D02*
X68431066Y-58569114D01*
X68600399Y-58917458D02*
X68939066Y-58917458D01*
X68648780Y-58917458D02*
X68624590Y-58939229D01*
X68624590Y-58939229D02*
X68600399Y-58982772D01*
X68600399Y-58982772D02*
X68600399Y-59048086D01*
X68600399Y-59048086D02*
X68624590Y-59091629D01*
X68624590Y-59091629D02*
X68672971Y-59113401D01*
X68672971Y-59113401D02*
X68939066Y-59113401D01*
D10*
X115526019Y-73373428D02*
X115553839Y-73349237D01*
X115553839Y-73349237D02*
X115581658Y-73276666D01*
X115581658Y-73276666D02*
X115581658Y-73228285D01*
X115581658Y-73228285D02*
X115553839Y-73155713D01*
X115553839Y-73155713D02*
X115498200Y-73107332D01*
X115498200Y-73107332D02*
X115442562Y-73083142D01*
X115442562Y-73083142D02*
X115331286Y-73058951D01*
X115331286Y-73058951D02*
X115247829Y-73058951D01*
X115247829Y-73058951D02*
X115136553Y-73083142D01*
X115136553Y-73083142D02*
X115080915Y-73107332D01*
X115080915Y-73107332D02*
X115025277Y-73155713D01*
X115025277Y-73155713D02*
X114997458Y-73228285D01*
X114997458Y-73228285D02*
X114997458Y-73276666D01*
X114997458Y-73276666D02*
X115025277Y-73349237D01*
X115025277Y-73349237D02*
X115053096Y-73373428D01*
X115053096Y-73566951D02*
X115025277Y-73591142D01*
X115025277Y-73591142D02*
X114997458Y-73639523D01*
X114997458Y-73639523D02*
X114997458Y-73760475D01*
X114997458Y-73760475D02*
X115025277Y-73808856D01*
X115025277Y-73808856D02*
X115053096Y-73833047D01*
X115053096Y-73833047D02*
X115108734Y-73857237D01*
X115108734Y-73857237D02*
X115164372Y-73857237D01*
X115164372Y-73857237D02*
X115247829Y-73833047D01*
X115247829Y-73833047D02*
X115581658Y-73542761D01*
X115581658Y-73542761D02*
X115581658Y-73857237D01*
X115581658Y-74341047D02*
X115581658Y-74050761D01*
X115581658Y-74195904D02*
X114997458Y-74195904D01*
X114997458Y-74195904D02*
X115080915Y-74147523D01*
X115080915Y-74147523D02*
X115136553Y-74099142D01*
X115136553Y-74099142D02*
X115164372Y-74050761D01*
D11*
X113261066Y-73144828D02*
X113261066Y-73188371D01*
X113261066Y-73188371D02*
X113285256Y-73231914D01*
X113285256Y-73231914D02*
X113309447Y-73253686D01*
X113309447Y-73253686D02*
X113357828Y-73275457D01*
X113357828Y-73275457D02*
X113454590Y-73297228D01*
X113454590Y-73297228D02*
X113575542Y-73297228D01*
X113575542Y-73297228D02*
X113672304Y-73275457D01*
X113672304Y-73275457D02*
X113720685Y-73253686D01*
X113720685Y-73253686D02*
X113744876Y-73231914D01*
X113744876Y-73231914D02*
X113769066Y-73188371D01*
X113769066Y-73188371D02*
X113769066Y-73144828D01*
X113769066Y-73144828D02*
X113744876Y-73101286D01*
X113744876Y-73101286D02*
X113720685Y-73079514D01*
X113720685Y-73079514D02*
X113672304Y-73057743D01*
X113672304Y-73057743D02*
X113575542Y-73035971D01*
X113575542Y-73035971D02*
X113454590Y-73035971D01*
X113454590Y-73035971D02*
X113357828Y-73057743D01*
X113357828Y-73057743D02*
X113309447Y-73079514D01*
X113309447Y-73079514D02*
X113285256Y-73101286D01*
X113285256Y-73101286D02*
X113261066Y-73144828D01*
X113720685Y-73493172D02*
X113744876Y-73514943D01*
X113744876Y-73514943D02*
X113769066Y-73493172D01*
X113769066Y-73493172D02*
X113744876Y-73471400D01*
X113744876Y-73471400D02*
X113720685Y-73493172D01*
X113720685Y-73493172D02*
X113769066Y-73493172D01*
X113769066Y-73950371D02*
X113769066Y-73689114D01*
X113769066Y-73819743D02*
X113261066Y-73819743D01*
X113261066Y-73819743D02*
X113333637Y-73776200D01*
X113333637Y-73776200D02*
X113382018Y-73732657D01*
X113382018Y-73732657D02*
X113406209Y-73689114D01*
X113430399Y-74342258D02*
X113769066Y-74342258D01*
X113430399Y-74146315D02*
X113696495Y-74146315D01*
X113696495Y-74146315D02*
X113744876Y-74168086D01*
X113744876Y-74168086D02*
X113769066Y-74211629D01*
X113769066Y-74211629D02*
X113769066Y-74276943D01*
X113769066Y-74276943D02*
X113744876Y-74320486D01*
X113744876Y-74320486D02*
X113720685Y-74342258D01*
D10*
X58366571Y-78286019D02*
X58390762Y-78313839D01*
X58390762Y-78313839D02*
X58463333Y-78341658D01*
X58463333Y-78341658D02*
X58511714Y-78341658D01*
X58511714Y-78341658D02*
X58584286Y-78313839D01*
X58584286Y-78313839D02*
X58632667Y-78258200D01*
X58632667Y-78258200D02*
X58656857Y-78202562D01*
X58656857Y-78202562D02*
X58681048Y-78091286D01*
X58681048Y-78091286D02*
X58681048Y-78007829D01*
X58681048Y-78007829D02*
X58656857Y-77896553D01*
X58656857Y-77896553D02*
X58632667Y-77840915D01*
X58632667Y-77840915D02*
X58584286Y-77785277D01*
X58584286Y-77785277D02*
X58511714Y-77757458D01*
X58511714Y-77757458D02*
X58463333Y-77757458D01*
X58463333Y-77757458D02*
X58390762Y-77785277D01*
X58390762Y-77785277D02*
X58366571Y-77813096D01*
X58173048Y-77813096D02*
X58148857Y-77785277D01*
X58148857Y-77785277D02*
X58100476Y-77757458D01*
X58100476Y-77757458D02*
X57979524Y-77757458D01*
X57979524Y-77757458D02*
X57931143Y-77785277D01*
X57931143Y-77785277D02*
X57906952Y-77813096D01*
X57906952Y-77813096D02*
X57882762Y-77868734D01*
X57882762Y-77868734D02*
X57882762Y-77924372D01*
X57882762Y-77924372D02*
X57906952Y-78007829D01*
X57906952Y-78007829D02*
X58197238Y-78341658D01*
X58197238Y-78341658D02*
X57882762Y-78341658D01*
X57689238Y-77813096D02*
X57665047Y-77785277D01*
X57665047Y-77785277D02*
X57616666Y-77757458D01*
X57616666Y-77757458D02*
X57495714Y-77757458D01*
X57495714Y-77757458D02*
X57447333Y-77785277D01*
X57447333Y-77785277D02*
X57423142Y-77813096D01*
X57423142Y-77813096D02*
X57398952Y-77868734D01*
X57398952Y-77868734D02*
X57398952Y-77924372D01*
X57398952Y-77924372D02*
X57423142Y-78007829D01*
X57423142Y-78007829D02*
X57713428Y-78341658D01*
X57713428Y-78341658D02*
X57398952Y-78341658D01*
D11*
X58595171Y-76021066D02*
X58551628Y-76021066D01*
X58551628Y-76021066D02*
X58508085Y-76045256D01*
X58508085Y-76045256D02*
X58486314Y-76069447D01*
X58486314Y-76069447D02*
X58464542Y-76117828D01*
X58464542Y-76117828D02*
X58442771Y-76214590D01*
X58442771Y-76214590D02*
X58442771Y-76335542D01*
X58442771Y-76335542D02*
X58464542Y-76432304D01*
X58464542Y-76432304D02*
X58486314Y-76480685D01*
X58486314Y-76480685D02*
X58508085Y-76504876D01*
X58508085Y-76504876D02*
X58551628Y-76529066D01*
X58551628Y-76529066D02*
X58595171Y-76529066D01*
X58595171Y-76529066D02*
X58638714Y-76504876D01*
X58638714Y-76504876D02*
X58660485Y-76480685D01*
X58660485Y-76480685D02*
X58682256Y-76432304D01*
X58682256Y-76432304D02*
X58704028Y-76335542D01*
X58704028Y-76335542D02*
X58704028Y-76214590D01*
X58704028Y-76214590D02*
X58682256Y-76117828D01*
X58682256Y-76117828D02*
X58660485Y-76069447D01*
X58660485Y-76069447D02*
X58638714Y-76045256D01*
X58638714Y-76045256D02*
X58595171Y-76021066D01*
X58246827Y-76480685D02*
X58225056Y-76504876D01*
X58225056Y-76504876D02*
X58246827Y-76529066D01*
X58246827Y-76529066D02*
X58268599Y-76504876D01*
X58268599Y-76504876D02*
X58246827Y-76480685D01*
X58246827Y-76480685D02*
X58246827Y-76529066D01*
X57789628Y-76529066D02*
X58050885Y-76529066D01*
X57920256Y-76529066D02*
X57920256Y-76021066D01*
X57920256Y-76021066D02*
X57963799Y-76093637D01*
X57963799Y-76093637D02*
X58007342Y-76142018D01*
X58007342Y-76142018D02*
X58050885Y-76166209D01*
X57397742Y-76190399D02*
X57397742Y-76529066D01*
X57593684Y-76190399D02*
X57593684Y-76456495D01*
X57593684Y-76456495D02*
X57571913Y-76504876D01*
X57571913Y-76504876D02*
X57528370Y-76529066D01*
X57528370Y-76529066D02*
X57463056Y-76529066D01*
X57463056Y-76529066D02*
X57419513Y-76504876D01*
X57419513Y-76504876D02*
X57397742Y-76480685D01*
D10*
X56503658Y-71593428D02*
X56225467Y-71424094D01*
X56503658Y-71303142D02*
X55919458Y-71303142D01*
X55919458Y-71303142D02*
X55919458Y-71496666D01*
X55919458Y-71496666D02*
X55947277Y-71545047D01*
X55947277Y-71545047D02*
X55975096Y-71569237D01*
X55975096Y-71569237D02*
X56030734Y-71593428D01*
X56030734Y-71593428D02*
X56114191Y-71593428D01*
X56114191Y-71593428D02*
X56169829Y-71569237D01*
X56169829Y-71569237D02*
X56197648Y-71545047D01*
X56197648Y-71545047D02*
X56225467Y-71496666D01*
X56225467Y-71496666D02*
X56225467Y-71303142D01*
X56503658Y-72077237D02*
X56503658Y-71786951D01*
X56503658Y-71932094D02*
X55919458Y-71932094D01*
X55919458Y-71932094D02*
X56002915Y-71883713D01*
X56002915Y-71883713D02*
X56058553Y-71835332D01*
X56058553Y-71835332D02*
X56086372Y-71786951D01*
X55975096Y-72270761D02*
X55947277Y-72294952D01*
X55947277Y-72294952D02*
X55919458Y-72343333D01*
X55919458Y-72343333D02*
X55919458Y-72464285D01*
X55919458Y-72464285D02*
X55947277Y-72512666D01*
X55947277Y-72512666D02*
X55975096Y-72536857D01*
X55975096Y-72536857D02*
X56030734Y-72561047D01*
X56030734Y-72561047D02*
X56086372Y-72561047D01*
X56086372Y-72561047D02*
X56169829Y-72536857D01*
X56169829Y-72536857D02*
X56503658Y-72246571D01*
X56503658Y-72246571D02*
X56503658Y-72561047D01*
D11*
X58247066Y-71647856D02*
X58247066Y-71386599D01*
X58247066Y-71517228D02*
X57739066Y-71517228D01*
X57739066Y-71517228D02*
X57811637Y-71473685D01*
X57811637Y-71473685D02*
X57860018Y-71430142D01*
X57860018Y-71430142D02*
X57884209Y-71386599D01*
X57739066Y-71930885D02*
X57739066Y-71974428D01*
X57739066Y-71974428D02*
X57763256Y-72017971D01*
X57763256Y-72017971D02*
X57787447Y-72039743D01*
X57787447Y-72039743D02*
X57835828Y-72061514D01*
X57835828Y-72061514D02*
X57932590Y-72083285D01*
X57932590Y-72083285D02*
X58053542Y-72083285D01*
X58053542Y-72083285D02*
X58150304Y-72061514D01*
X58150304Y-72061514D02*
X58198685Y-72039743D01*
X58198685Y-72039743D02*
X58222876Y-72017971D01*
X58222876Y-72017971D02*
X58247066Y-71974428D01*
X58247066Y-71974428D02*
X58247066Y-71930885D01*
X58247066Y-71930885D02*
X58222876Y-71887343D01*
X58222876Y-71887343D02*
X58198685Y-71865571D01*
X58198685Y-71865571D02*
X58150304Y-71843800D01*
X58150304Y-71843800D02*
X58053542Y-71822028D01*
X58053542Y-71822028D02*
X57932590Y-71822028D01*
X57932590Y-71822028D02*
X57835828Y-71843800D01*
X57835828Y-71843800D02*
X57787447Y-71865571D01*
X57787447Y-71865571D02*
X57763256Y-71887343D01*
X57763256Y-71887343D02*
X57739066Y-71930885D01*
X58247066Y-72279229D02*
X57739066Y-72279229D01*
X58053542Y-72322772D02*
X58247066Y-72453400D01*
X57908399Y-72453400D02*
X58101923Y-72279229D01*
D12*
X75498094Y-69484819D02*
X75498094Y-68484819D01*
X75498094Y-68484819D02*
X75259999Y-68484819D01*
X75259999Y-68484819D02*
X75117142Y-68532438D01*
X75117142Y-68532438D02*
X75021904Y-68627676D01*
X75021904Y-68627676D02*
X74974285Y-68722914D01*
X74974285Y-68722914D02*
X74926666Y-68913390D01*
X74926666Y-68913390D02*
X74926666Y-69056247D01*
X74926666Y-69056247D02*
X74974285Y-69246723D01*
X74974285Y-69246723D02*
X75021904Y-69341961D01*
X75021904Y-69341961D02*
X75117142Y-69437200D01*
X75117142Y-69437200D02*
X75259999Y-69484819D01*
X75259999Y-69484819D02*
X75498094Y-69484819D01*
X74069523Y-68818152D02*
X74069523Y-69484819D01*
X74307618Y-68437200D02*
X74545713Y-69151485D01*
X74545713Y-69151485D02*
X73926666Y-69151485D01*
D10*
X70656571Y-68985658D02*
X70825905Y-68707467D01*
X70946857Y-68985658D02*
X70946857Y-68401458D01*
X70946857Y-68401458D02*
X70753333Y-68401458D01*
X70753333Y-68401458D02*
X70704952Y-68429277D01*
X70704952Y-68429277D02*
X70680762Y-68457096D01*
X70680762Y-68457096D02*
X70656571Y-68512734D01*
X70656571Y-68512734D02*
X70656571Y-68596191D01*
X70656571Y-68596191D02*
X70680762Y-68651829D01*
X70680762Y-68651829D02*
X70704952Y-68679648D01*
X70704952Y-68679648D02*
X70753333Y-68707467D01*
X70753333Y-68707467D02*
X70946857Y-68707467D01*
X70172762Y-68985658D02*
X70463048Y-68985658D01*
X70317905Y-68985658D02*
X70317905Y-68401458D01*
X70317905Y-68401458D02*
X70366286Y-68484915D01*
X70366286Y-68484915D02*
X70414667Y-68540553D01*
X70414667Y-68540553D02*
X70463048Y-68568372D01*
X69858285Y-68401458D02*
X69809904Y-68401458D01*
X69809904Y-68401458D02*
X69761523Y-68429277D01*
X69761523Y-68429277D02*
X69737333Y-68457096D01*
X69737333Y-68457096D02*
X69713142Y-68512734D01*
X69713142Y-68512734D02*
X69688952Y-68624010D01*
X69688952Y-68624010D02*
X69688952Y-68763105D01*
X69688952Y-68763105D02*
X69713142Y-68874381D01*
X69713142Y-68874381D02*
X69737333Y-68930019D01*
X69737333Y-68930019D02*
X69761523Y-68957839D01*
X69761523Y-68957839D02*
X69809904Y-68985658D01*
X69809904Y-68985658D02*
X69858285Y-68985658D01*
X69858285Y-68985658D02*
X69906666Y-68957839D01*
X69906666Y-68957839D02*
X69930857Y-68930019D01*
X69930857Y-68930019D02*
X69955047Y-68874381D01*
X69955047Y-68874381D02*
X69979238Y-68763105D01*
X69979238Y-68763105D02*
X69979238Y-68624010D01*
X69979238Y-68624010D02*
X69955047Y-68512734D01*
X69955047Y-68512734D02*
X69930857Y-68457096D01*
X69930857Y-68457096D02*
X69906666Y-68429277D01*
X69906666Y-68429277D02*
X69858285Y-68401458D01*
D11*
X70430629Y-70434399D02*
X70430629Y-70773066D01*
X70539486Y-70240876D02*
X70648343Y-70603733D01*
X70648343Y-70603733D02*
X70365314Y-70603733D01*
X70234685Y-70265066D02*
X69929885Y-70265066D01*
X69929885Y-70265066D02*
X70125828Y-70773066D01*
D12*
X103454819Y-70239405D02*
X102454819Y-70239405D01*
X102454819Y-70239405D02*
X102454819Y-70477500D01*
X102454819Y-70477500D02*
X102502438Y-70620357D01*
X102502438Y-70620357D02*
X102597676Y-70715595D01*
X102597676Y-70715595D02*
X102692914Y-70763214D01*
X102692914Y-70763214D02*
X102883390Y-70810833D01*
X102883390Y-70810833D02*
X103026247Y-70810833D01*
X103026247Y-70810833D02*
X103216723Y-70763214D01*
X103216723Y-70763214D02*
X103311961Y-70715595D01*
X103311961Y-70715595D02*
X103407200Y-70620357D01*
X103407200Y-70620357D02*
X103454819Y-70477500D01*
X103454819Y-70477500D02*
X103454819Y-70239405D01*
X102454819Y-71144167D02*
X102454819Y-71763214D01*
X102454819Y-71763214D02*
X102835771Y-71429881D01*
X102835771Y-71429881D02*
X102835771Y-71572738D01*
X102835771Y-71572738D02*
X102883390Y-71667976D01*
X102883390Y-71667976D02*
X102931009Y-71715595D01*
X102931009Y-71715595D02*
X103026247Y-71763214D01*
X103026247Y-71763214D02*
X103264342Y-71763214D01*
X103264342Y-71763214D02*
X103359580Y-71715595D01*
X103359580Y-71715595D02*
X103407200Y-71667976D01*
X103407200Y-71667976D02*
X103454819Y-71572738D01*
X103454819Y-71572738D02*
X103454819Y-71287024D01*
X103454819Y-71287024D02*
X103407200Y-71191786D01*
X103407200Y-71191786D02*
X103359580Y-71144167D01*
D10*
X68694666Y-69033658D02*
X68864000Y-68755467D01*
X68984952Y-69033658D02*
X68984952Y-68449458D01*
X68984952Y-68449458D02*
X68791428Y-68449458D01*
X68791428Y-68449458D02*
X68743047Y-68477277D01*
X68743047Y-68477277D02*
X68718857Y-68505096D01*
X68718857Y-68505096D02*
X68694666Y-68560734D01*
X68694666Y-68560734D02*
X68694666Y-68644191D01*
X68694666Y-68644191D02*
X68718857Y-68699829D01*
X68718857Y-68699829D02*
X68743047Y-68727648D01*
X68743047Y-68727648D02*
X68791428Y-68755467D01*
X68791428Y-68755467D02*
X68984952Y-68755467D01*
X68452762Y-69033658D02*
X68356000Y-69033658D01*
X68356000Y-69033658D02*
X68307619Y-69005839D01*
X68307619Y-69005839D02*
X68283428Y-68978019D01*
X68283428Y-68978019D02*
X68235047Y-68894562D01*
X68235047Y-68894562D02*
X68210857Y-68783286D01*
X68210857Y-68783286D02*
X68210857Y-68560734D01*
X68210857Y-68560734D02*
X68235047Y-68505096D01*
X68235047Y-68505096D02*
X68259238Y-68477277D01*
X68259238Y-68477277D02*
X68307619Y-68449458D01*
X68307619Y-68449458D02*
X68404381Y-68449458D01*
X68404381Y-68449458D02*
X68452762Y-68477277D01*
X68452762Y-68477277D02*
X68476952Y-68505096D01*
X68476952Y-68505096D02*
X68501143Y-68560734D01*
X68501143Y-68560734D02*
X68501143Y-68699829D01*
X68501143Y-68699829D02*
X68476952Y-68755467D01*
X68476952Y-68755467D02*
X68452762Y-68783286D01*
X68452762Y-68783286D02*
X68404381Y-68811105D01*
X68404381Y-68811105D02*
X68307619Y-68811105D01*
X68307619Y-68811105D02*
X68259238Y-68783286D01*
X68259238Y-68783286D02*
X68235047Y-68755467D01*
X68235047Y-68755467D02*
X68210857Y-68699829D01*
D11*
X68740629Y-70438399D02*
X68740629Y-70777066D01*
X68849486Y-70244876D02*
X68958343Y-70607733D01*
X68958343Y-70607733D02*
X68675314Y-70607733D01*
X68544685Y-70269066D02*
X68239885Y-70269066D01*
X68239885Y-70269066D02*
X68435828Y-70777066D01*
D10*
X72266571Y-68979658D02*
X72435905Y-68701467D01*
X72556857Y-68979658D02*
X72556857Y-68395458D01*
X72556857Y-68395458D02*
X72363333Y-68395458D01*
X72363333Y-68395458D02*
X72314952Y-68423277D01*
X72314952Y-68423277D02*
X72290762Y-68451096D01*
X72290762Y-68451096D02*
X72266571Y-68506734D01*
X72266571Y-68506734D02*
X72266571Y-68590191D01*
X72266571Y-68590191D02*
X72290762Y-68645829D01*
X72290762Y-68645829D02*
X72314952Y-68673648D01*
X72314952Y-68673648D02*
X72363333Y-68701467D01*
X72363333Y-68701467D02*
X72556857Y-68701467D01*
X71782762Y-68979658D02*
X72073048Y-68979658D01*
X71927905Y-68979658D02*
X71927905Y-68395458D01*
X71927905Y-68395458D02*
X71976286Y-68478915D01*
X71976286Y-68478915D02*
X72024667Y-68534553D01*
X72024667Y-68534553D02*
X72073048Y-68562372D01*
X71298952Y-68979658D02*
X71589238Y-68979658D01*
X71444095Y-68979658D02*
X71444095Y-68395458D01*
X71444095Y-68395458D02*
X71492476Y-68478915D01*
X71492476Y-68478915D02*
X71540857Y-68534553D01*
X71540857Y-68534553D02*
X71589238Y-68562372D01*
D11*
X72100629Y-70434399D02*
X72100629Y-70773066D01*
X72209486Y-70240876D02*
X72318343Y-70603733D01*
X72318343Y-70603733D02*
X72035314Y-70603733D01*
X71904685Y-70265066D02*
X71599885Y-70265066D01*
X71599885Y-70265066D02*
X71795828Y-70773066D01*
D10*
X56519658Y-73263428D02*
X56241467Y-73094094D01*
X56519658Y-72973142D02*
X55935458Y-72973142D01*
X55935458Y-72973142D02*
X55935458Y-73166666D01*
X55935458Y-73166666D02*
X55963277Y-73215047D01*
X55963277Y-73215047D02*
X55991096Y-73239237D01*
X55991096Y-73239237D02*
X56046734Y-73263428D01*
X56046734Y-73263428D02*
X56130191Y-73263428D01*
X56130191Y-73263428D02*
X56185829Y-73239237D01*
X56185829Y-73239237D02*
X56213648Y-73215047D01*
X56213648Y-73215047D02*
X56241467Y-73166666D01*
X56241467Y-73166666D02*
X56241467Y-72973142D01*
X56519658Y-73747237D02*
X56519658Y-73456951D01*
X56519658Y-73602094D02*
X55935458Y-73602094D01*
X55935458Y-73602094D02*
X56018915Y-73553713D01*
X56018915Y-73553713D02*
X56074553Y-73505332D01*
X56074553Y-73505332D02*
X56102372Y-73456951D01*
X55935458Y-73916571D02*
X55935458Y-74231047D01*
X55935458Y-74231047D02*
X56158010Y-74061714D01*
X56158010Y-74061714D02*
X56158010Y-74134285D01*
X56158010Y-74134285D02*
X56185829Y-74182666D01*
X56185829Y-74182666D02*
X56213648Y-74206857D01*
X56213648Y-74206857D02*
X56269286Y-74231047D01*
X56269286Y-74231047D02*
X56408381Y-74231047D01*
X56408381Y-74231047D02*
X56464019Y-74206857D01*
X56464019Y-74206857D02*
X56491839Y-74182666D01*
X56491839Y-74182666D02*
X56519658Y-74134285D01*
X56519658Y-74134285D02*
X56519658Y-73989142D01*
X56519658Y-73989142D02*
X56491839Y-73940761D01*
X56491839Y-73940761D02*
X56464019Y-73916571D01*
D11*
X57908399Y-73215457D02*
X58247066Y-73215457D01*
X57714876Y-73106599D02*
X58077733Y-72997742D01*
X58077733Y-72997742D02*
X58077733Y-73280771D01*
X58198685Y-73454943D02*
X58222876Y-73476714D01*
X58222876Y-73476714D02*
X58247066Y-73454943D01*
X58247066Y-73454943D02*
X58222876Y-73433171D01*
X58222876Y-73433171D02*
X58198685Y-73454943D01*
X58198685Y-73454943D02*
X58247066Y-73454943D01*
X57739066Y-73629114D02*
X57739066Y-73933914D01*
X57739066Y-73933914D02*
X58247066Y-73737971D01*
X58247066Y-74108086D02*
X57739066Y-74108086D01*
X58053542Y-74151629D02*
X58247066Y-74282257D01*
X57908399Y-74282257D02*
X58101923Y-74108086D01*
D12*
X64770057Y-71649761D02*
X64722438Y-71554523D01*
X64722438Y-71554523D02*
X64627200Y-71459285D01*
X64627200Y-71459285D02*
X64484342Y-71316428D01*
X64484342Y-71316428D02*
X64436723Y-71221190D01*
X64436723Y-71221190D02*
X64436723Y-71125952D01*
X64674819Y-71173571D02*
X64627200Y-71078333D01*
X64627200Y-71078333D02*
X64531961Y-70983095D01*
X64531961Y-70983095D02*
X64341485Y-70935476D01*
X64341485Y-70935476D02*
X64008152Y-70935476D01*
X64008152Y-70935476D02*
X63817676Y-70983095D01*
X63817676Y-70983095D02*
X63722438Y-71078333D01*
X63722438Y-71078333D02*
X63674819Y-71173571D01*
X63674819Y-71173571D02*
X63674819Y-71364047D01*
X63674819Y-71364047D02*
X63722438Y-71459285D01*
X63722438Y-71459285D02*
X63817676Y-71554523D01*
X63817676Y-71554523D02*
X64008152Y-71602142D01*
X64008152Y-71602142D02*
X64341485Y-71602142D01*
X64341485Y-71602142D02*
X64531961Y-71554523D01*
X64531961Y-71554523D02*
X64627200Y-71459285D01*
X64627200Y-71459285D02*
X64674819Y-71364047D01*
X64674819Y-71364047D02*
X64674819Y-71173571D01*
X64674819Y-72554523D02*
X64674819Y-71983095D01*
X64674819Y-72268809D02*
X63674819Y-72268809D01*
X63674819Y-72268809D02*
X63817676Y-72173571D01*
X63817676Y-72173571D02*
X63912914Y-72078333D01*
X63912914Y-72078333D02*
X63960533Y-71983095D01*
X69128094Y-77054819D02*
X69128094Y-76054819D01*
X69128094Y-76054819D02*
X68889999Y-76054819D01*
X68889999Y-76054819D02*
X68747142Y-76102438D01*
X68747142Y-76102438D02*
X68651904Y-76197676D01*
X68651904Y-76197676D02*
X68604285Y-76292914D01*
X68604285Y-76292914D02*
X68556666Y-76483390D01*
X68556666Y-76483390D02*
X68556666Y-76626247D01*
X68556666Y-76626247D02*
X68604285Y-76816723D01*
X68604285Y-76816723D02*
X68651904Y-76911961D01*
X68651904Y-76911961D02*
X68747142Y-77007200D01*
X68747142Y-77007200D02*
X68889999Y-77054819D01*
X68889999Y-77054819D02*
X69128094Y-77054819D01*
X68175713Y-76150057D02*
X68128094Y-76102438D01*
X68128094Y-76102438D02*
X68032856Y-76054819D01*
X68032856Y-76054819D02*
X67794761Y-76054819D01*
X67794761Y-76054819D02*
X67699523Y-76102438D01*
X67699523Y-76102438D02*
X67651904Y-76150057D01*
X67651904Y-76150057D02*
X67604285Y-76245295D01*
X67604285Y-76245295D02*
X67604285Y-76340533D01*
X67604285Y-76340533D02*
X67651904Y-76483390D01*
X67651904Y-76483390D02*
X68223332Y-77054819D01*
X68223332Y-77054819D02*
X67604285Y-77054819D01*
D13*
%TO.C,C1*%
X62043400Y-60119520D02*
X63516600Y-60119520D01*
X63514060Y-60078880D02*
X63514060Y-59380380D01*
X62045940Y-59380380D02*
X62045940Y-60078880D01*
X62045940Y-58379620D02*
X62045940Y-57681120D01*
X63514060Y-58379620D02*
X63514060Y-57681120D01*
X63516600Y-57640480D02*
X62043400Y-57640480D01*
%TO.C,C2*%
X63683400Y-60119520D02*
X65156600Y-60119520D01*
X65154060Y-60078880D02*
X65154060Y-59380380D01*
X63685940Y-59380380D02*
X63685940Y-60078880D01*
X63685940Y-58379620D02*
X63685940Y-57681120D01*
X65154060Y-58379620D02*
X65154060Y-57681120D01*
X65156600Y-57640480D02*
X63683400Y-57640480D01*
%TO.C,C3*%
X93147520Y-71216600D02*
X93147520Y-69743400D01*
X93106880Y-69745940D02*
X92408380Y-69745940D01*
X92408380Y-71214060D02*
X93106880Y-71214060D01*
X91407620Y-71214060D02*
X90709120Y-71214060D01*
X91407620Y-69745940D02*
X90709120Y-69745940D01*
X90668480Y-69743400D02*
X90668480Y-71216600D01*
%TO.C,C4*%
X93167520Y-64576600D02*
X93167520Y-63103400D01*
X93126880Y-63105940D02*
X92428380Y-63105940D01*
X92428380Y-64574060D02*
X93126880Y-64574060D01*
X91427620Y-64574060D02*
X90729120Y-64574060D01*
X91427620Y-63105940D02*
X90729120Y-63105940D01*
X90688480Y-63103400D02*
X90688480Y-64576600D01*
%TO.C,C5*%
X84392480Y-69743400D02*
X84392480Y-71216600D01*
X84433120Y-71214060D02*
X85131620Y-71214060D01*
X85131620Y-69745940D02*
X84433120Y-69745940D01*
X86132380Y-69745940D02*
X86830880Y-69745940D01*
X86132380Y-71214060D02*
X86830880Y-71214060D01*
X86871520Y-71216600D02*
X86871520Y-69743400D01*
%TO.C,C7*%
X93151520Y-67916600D02*
X93151520Y-66443400D01*
X93110880Y-66445940D02*
X92412380Y-66445940D01*
X92412380Y-67914060D02*
X93110880Y-67914060D01*
X91411620Y-67914060D02*
X90713120Y-67914060D01*
X91411620Y-66445940D02*
X90713120Y-66445940D01*
X90672480Y-66443400D02*
X90672480Y-67916600D01*
%TO.C,C8*%
X93157520Y-66246600D02*
X93157520Y-64773400D01*
X93116880Y-64775940D02*
X92418380Y-64775940D01*
X92418380Y-66244060D02*
X93116880Y-66244060D01*
X91417620Y-66244060D02*
X90719120Y-66244060D01*
X91417620Y-64775940D02*
X90719120Y-64775940D01*
X90678480Y-64773400D02*
X90678480Y-66246600D01*
%TO.C,C9*%
X90662480Y-68093400D02*
X90662480Y-69566600D01*
X90703120Y-69564060D02*
X91401620Y-69564060D01*
X91401620Y-68095940D02*
X90703120Y-68095940D01*
X92402380Y-68095940D02*
X93100880Y-68095940D01*
X92402380Y-69564060D02*
X93100880Y-69564060D01*
X93141520Y-69566600D02*
X93141520Y-68093400D01*
%TO.C,C10*%
X84382480Y-68123400D02*
X84382480Y-69596600D01*
X84423120Y-69594060D02*
X85121620Y-69594060D01*
X85121620Y-68125940D02*
X84423120Y-68125940D01*
X86122380Y-68125940D02*
X86820880Y-68125940D01*
X86122380Y-69594060D02*
X86820880Y-69594060D01*
X86861520Y-69596600D02*
X86861520Y-68123400D01*
%TO.C,C15*%
X69959520Y-56036600D02*
X69959520Y-54563400D01*
X69918880Y-54565940D02*
X69220380Y-54565940D01*
X69220380Y-56034060D02*
X69918880Y-56034060D01*
X68219620Y-56034060D02*
X67521120Y-56034060D01*
X68219620Y-54565940D02*
X67521120Y-54565940D01*
X67480480Y-54563400D02*
X67480480Y-56036600D01*
%TO.C,C16*%
X75589520Y-53626600D02*
X75589520Y-52153400D01*
X75548880Y-52155940D02*
X74850380Y-52155940D01*
X74850380Y-53624060D02*
X75548880Y-53624060D01*
X73849620Y-53624060D02*
X73151120Y-53624060D01*
X73849620Y-52155940D02*
X73151120Y-52155940D01*
X73110480Y-52153400D02*
X73110480Y-53626600D01*
%TO.C,C17*%
X69969520Y-54396600D02*
X69969520Y-52923400D01*
X69928880Y-52925940D02*
X69230380Y-52925940D01*
X69230380Y-54394060D02*
X69928880Y-54394060D01*
X68229620Y-54394060D02*
X67531120Y-54394060D01*
X68229620Y-52925940D02*
X67531120Y-52925940D01*
X67490480Y-52923400D02*
X67490480Y-54396600D01*
%TO.C,C18*%
X69959520Y-57676600D02*
X69959520Y-56203400D01*
X69918880Y-56205940D02*
X69220380Y-56205940D01*
X69220380Y-57674060D02*
X69918880Y-57674060D01*
X68219620Y-57674060D02*
X67521120Y-57674060D01*
X68219620Y-56205940D02*
X67521120Y-56205940D01*
X67480480Y-56203400D02*
X67480480Y-57676600D01*
%TO.C,C19*%
X69949520Y-59316600D02*
X69949520Y-57843400D01*
X69908880Y-57845940D02*
X69210380Y-57845940D01*
X69210380Y-59314060D02*
X69908880Y-59314060D01*
X68209620Y-59314060D02*
X67511120Y-59314060D01*
X68209620Y-57845940D02*
X67511120Y-57845940D01*
X67470480Y-57843400D02*
X67470480Y-59316600D01*
%TO.C,C21*%
X114779520Y-74436600D02*
X114779520Y-72963400D01*
X114738880Y-72965940D02*
X114040380Y-72965940D01*
X114040380Y-74434060D02*
X114738880Y-74434060D01*
X113039620Y-74434060D02*
X112341120Y-74434060D01*
X113039620Y-72965940D02*
X112341120Y-72965940D01*
X112300480Y-72963400D02*
X112300480Y-74436600D01*
%TO.C,C22*%
X57303400Y-77539520D02*
X58776600Y-77539520D01*
X58774060Y-77498880D02*
X58774060Y-76800380D01*
X57305940Y-76800380D02*
X57305940Y-77498880D01*
X57305940Y-75799620D02*
X57305940Y-75101120D01*
X58774060Y-75799620D02*
X58774060Y-75101120D01*
X58776600Y-75060480D02*
X57303400Y-75060480D01*
%TO.C,R12*%
X56778480Y-71183400D02*
X56778480Y-72656600D01*
X56819120Y-72654060D02*
X57517620Y-72654060D01*
X57517620Y-71185940D02*
X56819120Y-71185940D01*
X58518380Y-71185940D02*
X59216880Y-71185940D01*
X58518380Y-72654060D02*
X59216880Y-72654060D01*
X59257520Y-72656600D02*
X59257520Y-71183400D01*
D14*
%TO.C,D4*%
X73910000Y-69930000D02*
X75510000Y-69930000D01*
X75510000Y-71730000D02*
X73610000Y-71730000D01*
D13*
%TO.C,R10*%
X69563400Y-71783520D02*
X71036600Y-71783520D01*
X71034060Y-71742880D02*
X71034060Y-71044380D01*
X69565940Y-71044380D02*
X69565940Y-71742880D01*
X69565940Y-70043620D02*
X69565940Y-69345120D01*
X71034060Y-70043620D02*
X71034060Y-69345120D01*
X71036600Y-69304480D02*
X69563400Y-69304480D01*
D14*
%TO.C,D3*%
X99040000Y-70977500D02*
X99040000Y-71627500D01*
X99040000Y-70977500D02*
X99040000Y-70327500D01*
X102160000Y-70977500D02*
X102160000Y-72652500D01*
X102160000Y-70977500D02*
X102160000Y-70327500D01*
D13*
%TO.C,R9*%
X69346600Y-69308480D02*
X67873400Y-69308480D01*
X67875940Y-69349120D02*
X67875940Y-70047620D01*
X69344060Y-70047620D02*
X69344060Y-69349120D01*
X69344060Y-71048380D02*
X69344060Y-71746880D01*
X67875940Y-71048380D02*
X67875940Y-71746880D01*
X67873400Y-71787520D02*
X69346600Y-71787520D01*
%TO.C,R11*%
X71233400Y-71783520D02*
X72706600Y-71783520D01*
X72704060Y-71742880D02*
X72704060Y-71044380D01*
X71235940Y-71044380D02*
X71235940Y-71742880D01*
X71235940Y-70043620D02*
X71235940Y-69345120D01*
X72704060Y-70043620D02*
X72704060Y-69345120D01*
X72706600Y-69304480D02*
X71233400Y-69304480D01*
%TO.C,R13*%
X59257520Y-74376600D02*
X59257520Y-72903400D01*
X59216880Y-72905940D02*
X58518380Y-72905940D01*
X58518380Y-74374060D02*
X59216880Y-74374060D01*
X57517620Y-74374060D02*
X56819120Y-74374060D01*
X57517620Y-72905940D02*
X56819120Y-72905940D01*
X56778480Y-72903400D02*
X56778480Y-74376600D01*
D14*
%TO.C,Q1*%
X63210000Y-71777500D02*
X63210000Y-71127500D01*
X63210000Y-71777500D02*
X63210000Y-72427500D01*
X60090000Y-71777500D02*
X60090000Y-70102500D01*
X60090000Y-71777500D02*
X60090000Y-72427500D01*
%TO.C,D2*%
X69190000Y-79250000D02*
X67590000Y-79250000D01*
X67590000Y-77450000D02*
X69490000Y-77450000D01*
%TD*%
M02*
