%TF.GenerationSoftware,KiCad,Pcbnew,7.0.11+dfsg-1*%
%TF.CreationDate,2024-04-05T15:38:58+03:00*%
%TF.ProjectId,extra_av_out,65787472-615f-4617-965f-6f75742e6b69,rev?*%
%TF.SameCoordinates,Original*%
%TF.FileFunction,Paste,Top*%
%TF.FilePolarity,Positive*%
%FSLAX46Y46*%
G04 Gerber Fmt 4.6, Leading zero omitted, Abs format (unit mm)*
G04 Created by KiCad (PCBNEW 7.0.11+dfsg-1) date 2024-04-05 15:38:58*
%MOMM*%
%LPD*%
G01*
G04 APERTURE LIST*
G04 Aperture macros list*
%AMRoundRect*
0 Rectangle with rounded corners*
0 $1 Rounding radius*
0 $2 $3 $4 $5 $6 $7 $8 $9 X,Y pos of 4 corners*
0 Add a 4 corners polygon primitive as box body*
4,1,4,$2,$3,$4,$5,$6,$7,$8,$9,$2,$3,0*
0 Add four circle primitives for the rounded corners*
1,1,$1+$1,$2,$3*
1,1,$1+$1,$4,$5*
1,1,$1+$1,$6,$7*
1,1,$1+$1,$8,$9*
0 Add four rect primitives between the rounded corners*
20,1,$1+$1,$2,$3,$4,$5,0*
20,1,$1+$1,$4,$5,$6,$7,0*
20,1,$1+$1,$6,$7,$8,$9,0*
20,1,$1+$1,$8,$9,$2,$3,0*%
G04 Aperture macros list end*
%ADD10R,1.143000X0.635000*%
%ADD11R,0.635000X1.143000*%
%ADD12R,1.900000X0.800000*%
%ADD13RoundRect,0.075000X-0.662500X-0.075000X0.662500X-0.075000X0.662500X0.075000X-0.662500X0.075000X0*%
%ADD14RoundRect,0.075000X-0.075000X-0.662500X0.075000X-0.662500X0.075000X0.662500X-0.075000X0.662500X0*%
%ADD15R,0.700000X0.510000*%
%ADD16RoundRect,0.100000X0.637500X0.100000X-0.637500X0.100000X-0.637500X-0.100000X0.637500X-0.100000X0*%
G04 APERTURE END LIST*
D10*
%TO.C,C11*%
X96810000Y-70054000D03*
X96810000Y-68530000D03*
%TD*%
D11*
%TO.C,C13*%
X102728000Y-68070000D03*
X104252000Y-68070000D03*
%TD*%
D10*
%TO.C,C20*%
X77700000Y-51222000D03*
X77700000Y-49698000D03*
%TD*%
D12*
%TO.C,D1*%
X75440000Y-51220000D03*
X75440000Y-49320000D03*
X72440000Y-50270000D03*
%TD*%
D10*
%TO.C,R1*%
X82110000Y-69484000D03*
X82110000Y-67960000D03*
%TD*%
%TO.C,R2*%
X98750000Y-68330000D03*
X98750000Y-66806000D03*
%TD*%
%TO.C,R3*%
X101010000Y-68330000D03*
X101010000Y-66806000D03*
%TD*%
%TO.C,R4*%
X69980000Y-47438000D03*
X69980000Y-48962000D03*
%TD*%
D11*
%TO.C,R5*%
X77402000Y-54200000D03*
X75878000Y-54200000D03*
%TD*%
%TO.C,R6*%
X74188000Y-57060000D03*
X75712000Y-57060000D03*
%TD*%
%TO.C,R7*%
X72218000Y-60690000D03*
X73742000Y-60690000D03*
%TD*%
D10*
%TO.C,R8*%
X79410000Y-49696000D03*
X79410000Y-51220000D03*
%TD*%
D13*
%TO.C,U1*%
X62927500Y-53030000D03*
X62927500Y-53530000D03*
X62927500Y-54030000D03*
X62927500Y-54530000D03*
X62927500Y-55030000D03*
X62927500Y-55530000D03*
X62927500Y-56030000D03*
X62927500Y-56530000D03*
X62927500Y-57030000D03*
X62927500Y-57530000D03*
X62927500Y-58030000D03*
X62927500Y-58530000D03*
D14*
X64340000Y-59942500D03*
X64840000Y-59942500D03*
X65340000Y-59942500D03*
X65840000Y-59942500D03*
X66340000Y-59942500D03*
X66840000Y-59942500D03*
X67340000Y-59942500D03*
X67840000Y-59942500D03*
X68340000Y-59942500D03*
X68840000Y-59942500D03*
X69340000Y-59942500D03*
X69840000Y-59942500D03*
D13*
X71252500Y-58530000D03*
X71252500Y-58030000D03*
X71252500Y-57530000D03*
X71252500Y-57030000D03*
X71252500Y-56530000D03*
X71252500Y-56030000D03*
X71252500Y-55530000D03*
X71252500Y-55030000D03*
X71252500Y-54530000D03*
X71252500Y-54030000D03*
X71252500Y-53530000D03*
X71252500Y-53030000D03*
D14*
X69840000Y-51617500D03*
X69340000Y-51617500D03*
X68840000Y-51617500D03*
X68340000Y-51617500D03*
X67840000Y-51617500D03*
X67340000Y-51617500D03*
X66840000Y-51617500D03*
X66340000Y-51617500D03*
X65840000Y-51617500D03*
X65340000Y-51617500D03*
X64840000Y-51617500D03*
X64340000Y-51617500D03*
%TD*%
D15*
%TO.C,U3*%
X53810000Y-75720000D03*
X53810000Y-76670000D03*
X53810000Y-77620000D03*
X56130000Y-77620000D03*
X56130000Y-76670000D03*
X56130000Y-75720000D03*
%TD*%
D16*
%TO.C,U2*%
X91582500Y-70007000D03*
X91582500Y-69357000D03*
X91582500Y-68707000D03*
X91582500Y-68057000D03*
X91582500Y-67407000D03*
X91582500Y-66757000D03*
X91582500Y-66107000D03*
X91582500Y-65457000D03*
X91582500Y-64807000D03*
X91582500Y-64157000D03*
X91582500Y-63507000D03*
X91582500Y-62857000D03*
X91582500Y-62207000D03*
X91582500Y-61557000D03*
X85857500Y-61557000D03*
X85857500Y-62207000D03*
X85857500Y-62857000D03*
X85857500Y-63507000D03*
X85857500Y-64157000D03*
X85857500Y-64807000D03*
X85857500Y-65457000D03*
X85857500Y-66107000D03*
X85857500Y-66757000D03*
X85857500Y-67407000D03*
X85857500Y-68057000D03*
X85857500Y-68707000D03*
X85857500Y-69357000D03*
X85857500Y-70007000D03*
%TD*%
D11*
%TO.C,FB1*%
X52586000Y-81890000D03*
X54110000Y-81890000D03*
%TD*%
%TO.C,FB2*%
X52586000Y-80150000D03*
X54110000Y-80150000D03*
%TD*%
M02*
