%TF.GenerationSoftware,KiCad,Pcbnew,5.1.9+dfsg1-1*%
%TF.CreationDate,2021-08-04T00:34:55+03:00*%
%TF.ProjectId,extra_av_out,65787472-615f-4617-965f-6f75742e6b69,rev?*%
%TF.SameCoordinates,Original*%
%TF.FileFunction,Copper,L2,Inr*%
%TF.FilePolarity,Positive*%
%FSLAX46Y46*%
G04 Gerber Fmt 4.6, Leading zero omitted, Abs format (unit mm)*
G04 Created by KiCad (PCBNEW 5.1.9+dfsg1-1) date 2021-08-04 00:34:55*
%MOMM*%
%LPD*%
G01*
G04 APERTURE LIST*
%TA.AperFunction,ComponentPad*%
%ADD10O,2.800000X1.800000*%
%TD*%
%TA.AperFunction,ComponentPad*%
%ADD11C,2.540000*%
%TD*%
%TA.AperFunction,ComponentPad*%
%ADD12C,1.600000*%
%TD*%
%TA.AperFunction,ComponentPad*%
%ADD13C,4.500000*%
%TD*%
%TA.AperFunction,ComponentPad*%
%ADD14C,1.524000*%
%TD*%
%TA.AperFunction,ComponentPad*%
%ADD15R,1.700000X1.700000*%
%TD*%
%TA.AperFunction,ComponentPad*%
%ADD16O,1.700000X1.700000*%
%TD*%
%TA.AperFunction,ViaPad*%
%ADD17C,0.686000*%
%TD*%
%TA.AperFunction,Conductor*%
%ADD18C,0.254000*%
%TD*%
%TA.AperFunction,Conductor*%
%ADD19C,0.100000*%
%TD*%
G04 APERTURE END LIST*
D10*
%TO.N,GND*%
%TO.C,J2*%
X101020000Y-86100000D03*
%TO.N,Net-(C11-Pad2)*%
X99020000Y-83700000D03*
%TO.N,Net-(C13-Pad1)*%
X99020000Y-78200000D03*
%TD*%
D11*
%TO.N,GND*%
%TO.C,ST2*%
X53190000Y-94720000D03*
X53190000Y-100160000D03*
X48110000Y-94720000D03*
X48110000Y-100160000D03*
%TD*%
%TO.N,GND*%
%TO.C,ST1*%
X53190000Y-15300000D03*
X53190000Y-20740000D03*
X48110000Y-15300000D03*
X48110000Y-20740000D03*
%TD*%
D12*
%TO.N,GND*%
%TO.C,J4*%
X75330000Y-76060000D03*
%TO.N,/DVDD5*%
X73040000Y-76060000D03*
%TO.N,GND*%
X70750000Y-76060000D03*
%TO.N,Net-(J4-Pad1)*%
X78770000Y-73520000D03*
%TO.N,Net-(J4-Pad2)*%
X76480000Y-73520000D03*
%TO.N,Net-(J4-Pad3)*%
X74190000Y-73520000D03*
%TO.N,Net-(J4-Pad4)*%
X71900000Y-73520000D03*
%TO.N,GND*%
X69610000Y-73520000D03*
X79910000Y-76060000D03*
X77620000Y-76060000D03*
%TO.N,Net-(J4-Pad11)*%
X78770000Y-78600000D03*
%TO.N,Net-(J4-Pad12)*%
X76480000Y-78600000D03*
%TO.N,/VGA_HS_TTL*%
X74190000Y-78600000D03*
%TO.N,/VGA_VS_TTL*%
X71900000Y-78600000D03*
%TO.N,Net-(J4-Pad15)*%
X69610000Y-78600000D03*
D13*
%TO.N,GND*%
X86950000Y-76060000D03*
X61950000Y-76060000D03*
%TD*%
D14*
%TO.N,/SPDIF*%
%TO.C,J3*%
X117520000Y-79100000D03*
%TO.N,/DVDD3v3*%
X114980000Y-79100000D03*
%TO.N,GND*%
X112440000Y-79100000D03*
%TO.N,N/C*%
X112440000Y-81725000D03*
X117520000Y-81725000D03*
%TD*%
D15*
%TO.N,Net-(J1-Pad1)*%
%TO.C,J1*%
X48925790Y-27248710D03*
D16*
%TO.N,Net-(J1-Pad2)*%
X46385790Y-27248710D03*
%TO.N,Net-(J1-Pad3)*%
X48925790Y-29788710D03*
%TO.N,Net-(J1-Pad4)*%
X46385790Y-29788710D03*
%TO.N,Net-(J1-Pad5)*%
X48925790Y-32328710D03*
%TO.N,Net-(J1-Pad6)*%
X46385790Y-32328710D03*
%TO.N,/VGA_PSAVE*%
X48925790Y-34868710D03*
%TO.N,/AUDIO_MUTE_N*%
X46385790Y-34868710D03*
%TO.N,/VGA_R1*%
X48925790Y-37408710D03*
%TO.N,/VGA_R0*%
X46385790Y-37408710D03*
%TO.N,/VGA_R3*%
X48925790Y-39948710D03*
%TO.N,/VGA_R2*%
X46385790Y-39948710D03*
%TO.N,/VGA_R5*%
X48925790Y-42488710D03*
%TO.N,/VGA_R4*%
X46385790Y-42488710D03*
%TO.N,/VGA_R7*%
X48925790Y-45028710D03*
%TO.N,/VGA_R6*%
X46385790Y-45028710D03*
%TO.N,/DVDD5*%
X48925790Y-47568710D03*
%TO.N,GND*%
X46385790Y-47568710D03*
%TO.N,/VGA_G1*%
X48925790Y-50108710D03*
%TO.N,/VGA_G0*%
X46385790Y-50108710D03*
%TO.N,/VGA_G3*%
X48925790Y-52648710D03*
%TO.N,/VGA_G2*%
X46385790Y-52648710D03*
%TO.N,/VGA_G5*%
X48925790Y-55188710D03*
%TO.N,/VGA_G4*%
X46385790Y-55188710D03*
%TO.N,/VGA_G7*%
X48925790Y-57728710D03*
%TO.N,/VGA_G6*%
X46385790Y-57728710D03*
%TO.N,/VGA_SOG*%
X48925790Y-60268710D03*
%TO.N,/VGA_BL_N*%
X46385790Y-60268710D03*
%TO.N,/VGA_B1*%
X48925790Y-62808710D03*
%TO.N,/VGA_B0*%
X46385790Y-62808710D03*
%TO.N,/VGA_B3*%
X48925790Y-65348710D03*
%TO.N,/VGA_B2*%
X46385790Y-65348710D03*
%TO.N,/VGA_B5*%
X48925790Y-67888710D03*
%TO.N,/VGA_B4*%
X46385790Y-67888710D03*
%TO.N,/DVDD3v3*%
X48925790Y-70428710D03*
%TO.N,GND*%
X46385790Y-70428710D03*
%TO.N,/VGA_B7*%
X48925790Y-72968710D03*
%TO.N,/VGA_B6*%
X46385790Y-72968710D03*
%TO.N,Net-(J1-Pad39)*%
X48925790Y-75508710D03*
%TO.N,/VGA_CLK*%
X46385790Y-75508710D03*
%TO.N,Net-(J1-Pad41)*%
X48925790Y-78048710D03*
%TO.N,/VGA_HS*%
X46385790Y-78048710D03*
%TO.N,/VGA_VS*%
X48925790Y-80588710D03*
%TO.N,Net-(J1-Pad44)*%
X46385790Y-80588710D03*
%TO.N,/I2S_BCK*%
X48925790Y-83128710D03*
%TO.N,/I2S_WS*%
X46385790Y-83128710D03*
%TO.N,/I2S_DATA*%
X48925790Y-85668710D03*
%TO.N,/SPDIF*%
X46385790Y-85668710D03*
%TO.N,/SDA*%
X48925790Y-88208710D03*
%TO.N,/SCL*%
X46385790Y-88208710D03*
%TD*%
D17*
%TO.N,GND*%
X55080000Y-76200000D03*
X55110000Y-77400000D03*
X65410000Y-58470000D03*
X66640000Y-58480000D03*
X70750000Y-59420000D03*
X71870000Y-59420000D03*
X73320000Y-56330000D03*
X74750000Y-58410000D03*
X74790000Y-54950000D03*
X76940000Y-58170000D03*
X77380000Y-52870000D03*
X78600000Y-55150000D03*
X72960000Y-48910000D03*
X71590000Y-48920000D03*
X67330000Y-53150000D03*
X68480000Y-53110000D03*
X64850000Y-53620000D03*
X64810000Y-54980000D03*
X92100000Y-63150000D03*
X92100000Y-61920000D03*
X95020000Y-63150000D03*
X98400000Y-59000000D03*
X98440000Y-57970000D03*
X85830000Y-64340000D03*
X85970000Y-61110000D03*
X45380409Y-25464428D03*
X48038409Y-17490428D03*
X48038409Y-22806428D03*
X48038409Y-91914428D03*
X48038409Y-97230428D03*
X49810409Y-24578428D03*
X50696409Y-16604428D03*
X50696409Y-21920428D03*
X50696409Y-29894428D03*
X50696409Y-89256428D03*
X50696409Y-92800428D03*
X50696409Y-96344428D03*
X51582409Y-19262428D03*
X51582409Y-26350428D03*
X51582409Y-32552428D03*
X51582409Y-85712428D03*
X51582409Y-99002428D03*
X52468409Y-23692428D03*
X53354409Y-17490428D03*
X53354409Y-28122428D03*
X53354409Y-34324428D03*
X53354409Y-83940428D03*
X53354409Y-91914428D03*
X53354409Y-97230428D03*
X54240409Y-25464428D03*
X54240409Y-30780428D03*
X55126409Y-22806428D03*
X55126409Y-36096428D03*
X55126409Y-58246428D03*
X55126409Y-73308428D03*
X55126409Y-79510428D03*
X55126409Y-90142428D03*
X56012409Y-14832428D03*
X56012409Y-18376428D03*
X56012409Y-27236428D03*
X56012409Y-32552428D03*
X56012409Y-52930428D03*
X56012409Y-82168428D03*
X56012409Y-92800428D03*
X56012409Y-96344428D03*
X56012409Y-99888428D03*
X56898409Y-29894428D03*
X56898409Y-37868428D03*
X57784409Y-34324428D03*
X57784409Y-74194428D03*
X57784409Y-85712428D03*
X58670409Y-31666428D03*
X58670409Y-39640428D03*
X58670409Y-58246428D03*
X58670409Y-81282428D03*
X59556409Y-36096428D03*
X59556409Y-52930428D03*
X60442409Y-29894428D03*
X60442409Y-33438428D03*
X60442409Y-41412428D03*
X60442409Y-73308428D03*
X61328409Y-37868428D03*
X61328409Y-82168428D03*
X61328409Y-85712428D03*
X62214409Y-31666428D03*
X62214409Y-35210428D03*
X62214409Y-43184428D03*
X63100409Y-39640428D03*
X63100409Y-71536428D03*
X63986409Y-29894428D03*
X63986409Y-33438428D03*
X63986409Y-36982428D03*
X63986409Y-81282428D03*
X64872409Y-41412428D03*
X64872409Y-56474428D03*
X64872409Y-69764428D03*
X64872409Y-73308428D03*
X64872409Y-76852428D03*
X64872409Y-85712428D03*
X65758409Y-31666428D03*
X65758409Y-35210428D03*
X65758409Y-38754428D03*
X65758409Y-44070428D03*
X66644409Y-54702428D03*
X66644409Y-67992428D03*
X66644409Y-71536428D03*
X66644409Y-75080428D03*
X66644409Y-82168428D03*
X67530409Y-29894428D03*
X67530409Y-33438428D03*
X67530409Y-36982428D03*
X67530409Y-40526428D03*
X68416409Y-43184428D03*
X68416409Y-66220428D03*
X68416409Y-69764428D03*
X68416409Y-85712428D03*
X69302409Y-31666428D03*
X69302409Y-35210428D03*
X69302409Y-38754428D03*
X69302409Y-75966428D03*
X69302409Y-81282428D03*
X70188409Y-41412428D03*
X70188409Y-64448428D03*
X70188409Y-67992428D03*
X70188409Y-71536428D03*
X71074409Y-29894428D03*
X71074409Y-33438428D03*
X71074409Y-36982428D03*
X71074409Y-44070428D03*
X71074409Y-60904428D03*
X71960409Y-39640428D03*
X71960409Y-66220428D03*
X71960409Y-69764428D03*
X71960409Y-80396428D03*
X71960409Y-85712428D03*
X72846409Y-31666428D03*
X72846409Y-35210428D03*
X72846409Y-42298428D03*
X72846409Y-62676428D03*
X73732409Y-37868428D03*
X73732409Y-82168428D03*
X74618409Y-29894428D03*
X74618409Y-33438428D03*
X74618409Y-40526428D03*
X74618409Y-44070428D03*
X74618409Y-64448428D03*
X74618409Y-67992428D03*
X74618409Y-71536428D03*
X75504409Y-36096428D03*
X75504409Y-80396428D03*
X75504409Y-85712428D03*
X76390409Y-31666428D03*
X76390409Y-38754428D03*
X76390409Y-42298428D03*
X77276409Y-34324428D03*
X77276409Y-82168428D03*
X78162409Y-29894428D03*
X78162409Y-36982428D03*
X78162409Y-40526428D03*
X78162409Y-44070428D03*
X79048409Y-32552428D03*
X79048409Y-52930428D03*
X79048409Y-56474428D03*
X79048409Y-60018428D03*
X79048409Y-63562428D03*
X79048409Y-67106428D03*
X79048409Y-70650428D03*
X79048409Y-80396428D03*
X79048409Y-85712428D03*
X79934409Y-35210428D03*
X79934409Y-38754428D03*
X79934409Y-42298428D03*
X80820409Y-30780428D03*
X80820409Y-54702428D03*
X80820409Y-58246428D03*
X80820409Y-61790428D03*
X80820409Y-65334428D03*
X80820409Y-68878428D03*
X80820409Y-72422428D03*
X80820409Y-77738428D03*
X80820409Y-82168428D03*
X81706409Y-33438428D03*
X81706409Y-36982428D03*
X81706409Y-40526428D03*
X81706409Y-44070428D03*
X81706409Y-75080428D03*
X82592409Y-63562428D03*
X82592409Y-67106428D03*
X82592409Y-70650428D03*
X82592409Y-79510428D03*
X82592409Y-85712428D03*
X83478409Y-29894428D03*
X83478409Y-35210428D03*
X83478409Y-38754428D03*
X83478409Y-42298428D03*
X83478409Y-73308428D03*
X83478409Y-76852428D03*
X84364409Y-32552428D03*
X84364409Y-44956428D03*
X84364409Y-56474428D03*
X84364409Y-65334428D03*
X84364409Y-68878428D03*
X84364409Y-81282428D03*
X85250409Y-36982428D03*
X85250409Y-40526428D03*
X85250409Y-47614428D03*
X85250409Y-59132428D03*
X85250409Y-71536428D03*
X85250409Y-78624428D03*
X86136409Y-30780428D03*
X86136409Y-34324428D03*
X86136409Y-43184428D03*
X86136409Y-67106428D03*
X87022409Y-38754428D03*
X87022409Y-45842428D03*
X87022409Y-49386428D03*
X87022409Y-69764428D03*
X87908409Y-32552428D03*
X87908409Y-36096428D03*
X87908409Y-41412428D03*
X87908409Y-52044428D03*
X87908409Y-55588428D03*
X87908409Y-72422428D03*
X88794409Y-29894428D03*
X88794409Y-44070428D03*
X88794409Y-47614428D03*
X88794409Y-67992428D03*
X88794409Y-85712428D03*
X89680409Y-34324428D03*
X89680409Y-37868428D03*
X89680409Y-50272428D03*
X89680409Y-53816428D03*
X90566409Y-31666428D03*
X90566409Y-40526428D03*
X90566409Y-45842428D03*
X90566409Y-83940428D03*
X91452409Y-36096428D03*
X91452409Y-43184428D03*
X91452409Y-48500428D03*
X91452409Y-52044428D03*
X92338409Y-29894428D03*
X92338409Y-33438428D03*
X92338409Y-38754428D03*
X92338409Y-54702428D03*
X92338409Y-73308428D03*
X92338409Y-76852428D03*
X92338409Y-82168428D03*
X92338409Y-85712428D03*
X93224409Y-41412428D03*
X93224409Y-44956428D03*
X93224409Y-50272428D03*
X94110409Y-31666428D03*
X94110409Y-35210428D03*
X94110409Y-47614428D03*
X94110409Y-52930428D03*
X94110409Y-71536428D03*
X94110409Y-80396428D03*
X94110409Y-83940428D03*
X94996409Y-37868428D03*
X94996409Y-43184428D03*
X94996409Y-55588428D03*
X94996409Y-68878428D03*
X94996409Y-77738428D03*
X95882409Y-29894428D03*
X95882409Y-33438428D03*
X95882409Y-40526428D03*
X95882409Y-45842428D03*
X95882409Y-49386428D03*
X95882409Y-85712428D03*
X96768409Y-36096428D03*
X96768409Y-52044428D03*
X96768409Y-72422428D03*
X97654409Y-31666428D03*
X97654409Y-38754428D03*
X97654409Y-42298428D03*
X97654409Y-47614428D03*
X97654409Y-54702428D03*
X97654409Y-80396428D03*
X98540409Y-34324428D03*
X98540409Y-44956428D03*
X98540409Y-50272428D03*
X98540409Y-75966428D03*
X99426409Y-29894428D03*
X99426409Y-36982428D03*
X99426409Y-40526428D03*
X99426409Y-52930428D03*
X99426409Y-56474428D03*
X100312409Y-32552428D03*
X100312409Y-43184428D03*
X100312409Y-46728428D03*
X100312409Y-59132428D03*
X100312409Y-81282428D03*
X101198409Y-35210428D03*
X101198409Y-38754428D03*
X101198409Y-49386428D03*
X101198409Y-54702428D03*
X101198409Y-76852428D03*
X102084409Y-30780428D03*
X102084409Y-41412428D03*
X102084409Y-44956428D03*
X102084409Y-52044428D03*
X102084409Y-57360428D03*
X102084409Y-60904428D03*
X102084409Y-64448428D03*
X102084409Y-67992428D03*
X102084409Y-72422428D03*
X102084409Y-79510428D03*
X102084409Y-83054428D03*
X102970409Y-33438428D03*
X102970409Y-36982428D03*
X102970409Y-47614428D03*
X102970409Y-75080428D03*
X103856409Y-39640428D03*
X103856409Y-43184428D03*
X103856409Y-50272428D03*
X103856409Y-53816428D03*
X103856409Y-59132428D03*
X103856409Y-62676428D03*
X103856409Y-66220428D03*
X103856409Y-69764428D03*
X103856409Y-77738428D03*
X103856409Y-81282428D03*
X103856409Y-84826428D03*
X104742409Y-29894428D03*
X104742409Y-35210428D03*
X104742409Y-45842428D03*
X104742409Y-56474428D03*
X105628409Y-32552428D03*
X105628409Y-37868428D03*
X105628409Y-41412428D03*
X105628409Y-48500428D03*
X105628409Y-52044428D03*
X105628409Y-60904428D03*
X105628409Y-64448428D03*
X105628409Y-67992428D03*
X105628409Y-71536428D03*
X105628409Y-75966428D03*
X105628409Y-79510428D03*
X105628409Y-83054428D03*
X106514409Y-44070428D03*
X106514409Y-54702428D03*
X106514409Y-58246428D03*
X106514409Y-85712428D03*
X107400409Y-30780428D03*
X107400409Y-34324428D03*
X107400409Y-39640428D03*
X107400409Y-46728428D03*
X107400409Y-50272428D03*
X107400409Y-62676428D03*
X107400409Y-66220428D03*
X107400409Y-69764428D03*
X107400409Y-74194428D03*
X107400409Y-77738428D03*
X107400409Y-81282428D03*
X108286409Y-36982428D03*
X108286409Y-42298428D03*
X108286409Y-52930428D03*
X108286409Y-56474428D03*
X108286409Y-60018428D03*
X108286409Y-83940428D03*
X109172409Y-32552428D03*
X109172409Y-44956428D03*
X109172409Y-48500428D03*
X109172409Y-64448428D03*
X109172409Y-67992428D03*
X109172409Y-71536428D03*
X109172409Y-75966428D03*
X109172409Y-79510428D03*
X110058409Y-29894428D03*
X110058409Y-35210428D03*
X110058409Y-38754428D03*
X110058409Y-51158428D03*
X110058409Y-54702428D03*
X110058409Y-58246428D03*
X110058409Y-61790428D03*
X110058409Y-82168428D03*
X110058409Y-85712428D03*
X110944409Y-41412428D03*
X110944409Y-46728428D03*
X110944409Y-66220428D03*
X110944409Y-69764428D03*
X110944409Y-74194428D03*
X110944409Y-77738428D03*
X111830409Y-31666428D03*
X111830409Y-36982428D03*
X111830409Y-44070428D03*
X111830409Y-49386428D03*
X111830409Y-52930428D03*
X111830409Y-56474428D03*
X111830409Y-60018428D03*
X111830409Y-63562428D03*
X111830409Y-83940428D03*
X112716409Y-34324428D03*
X112716409Y-39640428D03*
X112716409Y-67992428D03*
X112716409Y-71536428D03*
X113602409Y-29894428D03*
X113602409Y-42298428D03*
X113602409Y-45842428D03*
X113602409Y-51158428D03*
X113602409Y-54702428D03*
X113602409Y-58246428D03*
X113602409Y-61790428D03*
X113602409Y-65334428D03*
X113602409Y-75080428D03*
X113602409Y-85712428D03*
X114488409Y-32552428D03*
X114488409Y-36096428D03*
X114488409Y-48500428D03*
X114488409Y-69764428D03*
X114488409Y-81282428D03*
X115374409Y-38754428D03*
X115374409Y-44070428D03*
X115374409Y-52930428D03*
X115374409Y-56474428D03*
X115374409Y-60018428D03*
X115374409Y-63562428D03*
X115374409Y-67106428D03*
X115374409Y-72422428D03*
X115374409Y-83940428D03*
X116260409Y-30780428D03*
X116260409Y-34324428D03*
X116260409Y-41412428D03*
X116260409Y-46728428D03*
X116260409Y-50272428D03*
X116260409Y-76852428D03*
X117146409Y-36982428D03*
X117146409Y-54702428D03*
X117146409Y-58246428D03*
X117146409Y-61790428D03*
X117146409Y-65334428D03*
X117146409Y-68878428D03*
X117146409Y-74194428D03*
X117146409Y-85712428D03*
X118032409Y-32552428D03*
X118032409Y-39640428D03*
X118032409Y-43184428D03*
X118032409Y-48500428D03*
X118032409Y-52044428D03*
X118032409Y-71536428D03*
%TO.N,/DVDD3v3*%
X50910000Y-70260000D03*
X50880000Y-71630000D03*
X63610000Y-60620000D03*
X62650000Y-60620000D03*
X69970000Y-56540000D03*
X69960000Y-55790000D03*
X75790000Y-52760000D03*
X81450000Y-51200000D03*
X81440000Y-52280000D03*
X89710000Y-64920000D03*
X89650000Y-65900000D03*
X95120000Y-59640000D03*
X95680000Y-64800000D03*
X97090000Y-64780000D03*
X89190000Y-57260000D03*
%TO.N,Net-(C7-Pad1)*%
X95130000Y-61400000D03*
%TO.N,Net-(C9-Pad2)*%
X97610000Y-62320000D03*
%TO.N,Net-(C9-Pad1)*%
X97670000Y-63700000D03*
%TO.N,Net-(C10-Pad1)*%
X89050000Y-63220000D03*
X89020000Y-64130000D03*
%TO.N,Net-(C16-Pad2)*%
X72736508Y-53212669D03*
%TO.N,/DVDD5*%
X57110000Y-77160000D03*
X57800000Y-77860000D03*
%TO.N,/SCL*%
X93260000Y-57760000D03*
%TO.N,/SDA*%
X94180000Y-58550000D03*
%TO.N,/I2S_DATA*%
X84420000Y-53150000D03*
%TO.N,/I2S_WS*%
X86730000Y-58970000D03*
%TO.N,/I2S_BCK*%
X85670000Y-53170000D03*
%TD*%
D18*
%TO.N,GND*%
X56838000Y-28460253D02*
X56836055Y-28480000D01*
X56843817Y-28558806D01*
X56866803Y-28634583D01*
X56904132Y-28704420D01*
X56954368Y-28765632D01*
X57015580Y-28815868D01*
X57085417Y-28853197D01*
X57161194Y-28876183D01*
X57240000Y-28883945D01*
X57259747Y-28882000D01*
X119438001Y-28882000D01*
X119438000Y-87098000D01*
X57259747Y-87098000D01*
X57240000Y-87096055D01*
X57220253Y-87098000D01*
X57161194Y-87103817D01*
X57085417Y-87126803D01*
X57015580Y-87164132D01*
X56954368Y-87214368D01*
X56904132Y-87275580D01*
X56866803Y-87345417D01*
X56843817Y-87421194D01*
X56836055Y-87500000D01*
X56838001Y-87519757D01*
X56838000Y-101348000D01*
X46902000Y-101348000D01*
X46902000Y-91519747D01*
X46903945Y-91500000D01*
X46896183Y-91421194D01*
X46873197Y-91345417D01*
X46835868Y-91275580D01*
X46785632Y-91214368D01*
X46724420Y-91164132D01*
X46654583Y-91126803D01*
X46578806Y-91103817D01*
X46519747Y-91098000D01*
X46500000Y-91096055D01*
X46480253Y-91098000D01*
X44402000Y-91098000D01*
X44402000Y-88087861D01*
X45158790Y-88087861D01*
X45158790Y-88329559D01*
X45205943Y-88566613D01*
X45298437Y-88789912D01*
X45432717Y-88990877D01*
X45603623Y-89161783D01*
X45804588Y-89296063D01*
X46027887Y-89388557D01*
X46264941Y-89435710D01*
X46506639Y-89435710D01*
X46743693Y-89388557D01*
X46966992Y-89296063D01*
X47167957Y-89161783D01*
X47338863Y-88990877D01*
X47473143Y-88789912D01*
X47565637Y-88566613D01*
X47612790Y-88329559D01*
X47612790Y-88087861D01*
X47698790Y-88087861D01*
X47698790Y-88329559D01*
X47745943Y-88566613D01*
X47838437Y-88789912D01*
X47972717Y-88990877D01*
X48143623Y-89161783D01*
X48344588Y-89296063D01*
X48567887Y-89388557D01*
X48804941Y-89435710D01*
X49046639Y-89435710D01*
X49283693Y-89388557D01*
X49506992Y-89296063D01*
X49707957Y-89161783D01*
X49878863Y-88990877D01*
X50013143Y-88789912D01*
X50105637Y-88566613D01*
X50152790Y-88329559D01*
X50152790Y-88087861D01*
X50105637Y-87850807D01*
X50013143Y-87627508D01*
X49878863Y-87426543D01*
X49707957Y-87255637D01*
X49506992Y-87121357D01*
X49283693Y-87028863D01*
X49046639Y-86981710D01*
X48804941Y-86981710D01*
X48567887Y-87028863D01*
X48344588Y-87121357D01*
X48143623Y-87255637D01*
X47972717Y-87426543D01*
X47838437Y-87627508D01*
X47745943Y-87850807D01*
X47698790Y-88087861D01*
X47612790Y-88087861D01*
X47565637Y-87850807D01*
X47473143Y-87627508D01*
X47338863Y-87426543D01*
X47167957Y-87255637D01*
X46966992Y-87121357D01*
X46743693Y-87028863D01*
X46506639Y-86981710D01*
X46264941Y-86981710D01*
X46027887Y-87028863D01*
X45804588Y-87121357D01*
X45603623Y-87255637D01*
X45432717Y-87426543D01*
X45298437Y-87627508D01*
X45205943Y-87850807D01*
X45158790Y-88087861D01*
X44402000Y-88087861D01*
X44402000Y-85547861D01*
X45158790Y-85547861D01*
X45158790Y-85789559D01*
X45205943Y-86026613D01*
X45298437Y-86249912D01*
X45432717Y-86450877D01*
X45603623Y-86621783D01*
X45804588Y-86756063D01*
X46027887Y-86848557D01*
X46264941Y-86895710D01*
X46506639Y-86895710D01*
X46743693Y-86848557D01*
X46966992Y-86756063D01*
X47167957Y-86621783D01*
X47338863Y-86450877D01*
X47473143Y-86249912D01*
X47565637Y-86026613D01*
X47612790Y-85789559D01*
X47612790Y-85547861D01*
X47698790Y-85547861D01*
X47698790Y-85789559D01*
X47745943Y-86026613D01*
X47838437Y-86249912D01*
X47972717Y-86450877D01*
X48143623Y-86621783D01*
X48344588Y-86756063D01*
X48567887Y-86848557D01*
X48804941Y-86895710D01*
X49046639Y-86895710D01*
X49283693Y-86848557D01*
X49506992Y-86756063D01*
X49707957Y-86621783D01*
X49878863Y-86450877D01*
X50013143Y-86249912D01*
X50105637Y-86026613D01*
X50152790Y-85789559D01*
X50152790Y-85547861D01*
X50105637Y-85310807D01*
X50013143Y-85087508D01*
X49878863Y-84886543D01*
X49707957Y-84715637D01*
X49506992Y-84581357D01*
X49283693Y-84488863D01*
X49046639Y-84441710D01*
X48804941Y-84441710D01*
X48567887Y-84488863D01*
X48344588Y-84581357D01*
X48143623Y-84715637D01*
X47972717Y-84886543D01*
X47838437Y-85087508D01*
X47745943Y-85310807D01*
X47698790Y-85547861D01*
X47612790Y-85547861D01*
X47565637Y-85310807D01*
X47473143Y-85087508D01*
X47338863Y-84886543D01*
X47167957Y-84715637D01*
X46966992Y-84581357D01*
X46743693Y-84488863D01*
X46506639Y-84441710D01*
X46264941Y-84441710D01*
X46027887Y-84488863D01*
X45804588Y-84581357D01*
X45603623Y-84715637D01*
X45432717Y-84886543D01*
X45298437Y-85087508D01*
X45205943Y-85310807D01*
X45158790Y-85547861D01*
X44402000Y-85547861D01*
X44402000Y-83007861D01*
X45158790Y-83007861D01*
X45158790Y-83249559D01*
X45205943Y-83486613D01*
X45298437Y-83709912D01*
X45432717Y-83910877D01*
X45603623Y-84081783D01*
X45804588Y-84216063D01*
X46027887Y-84308557D01*
X46264941Y-84355710D01*
X46506639Y-84355710D01*
X46743693Y-84308557D01*
X46966992Y-84216063D01*
X47167957Y-84081783D01*
X47338863Y-83910877D01*
X47473143Y-83709912D01*
X47565637Y-83486613D01*
X47612790Y-83249559D01*
X47612790Y-83007861D01*
X47698790Y-83007861D01*
X47698790Y-83249559D01*
X47745943Y-83486613D01*
X47838437Y-83709912D01*
X47972717Y-83910877D01*
X48143623Y-84081783D01*
X48344588Y-84216063D01*
X48567887Y-84308557D01*
X48804941Y-84355710D01*
X49046639Y-84355710D01*
X49283693Y-84308557D01*
X49506992Y-84216063D01*
X49707957Y-84081783D01*
X49878863Y-83910877D01*
X50013143Y-83709912D01*
X50017248Y-83700000D01*
X97236822Y-83700000D01*
X97261478Y-83950336D01*
X97334498Y-84191051D01*
X97453076Y-84412896D01*
X97612656Y-84607344D01*
X97807104Y-84766924D01*
X98028949Y-84885502D01*
X98269664Y-84958522D01*
X98457274Y-84977000D01*
X99582726Y-84977000D01*
X99770336Y-84958522D01*
X100011051Y-84885502D01*
X100232896Y-84766924D01*
X100427344Y-84607344D01*
X100586924Y-84412896D01*
X100705502Y-84191051D01*
X100778522Y-83950336D01*
X100803178Y-83700000D01*
X100778522Y-83449664D01*
X100705502Y-83208949D01*
X100586924Y-82987104D01*
X100427344Y-82792656D01*
X100232896Y-82633076D01*
X100011051Y-82514498D01*
X99770336Y-82441478D01*
X99582726Y-82423000D01*
X98457274Y-82423000D01*
X98269664Y-82441478D01*
X98028949Y-82514498D01*
X97807104Y-82633076D01*
X97612656Y-82792656D01*
X97453076Y-82987104D01*
X97334498Y-83208949D01*
X97261478Y-83449664D01*
X97236822Y-83700000D01*
X50017248Y-83700000D01*
X50105637Y-83486613D01*
X50152790Y-83249559D01*
X50152790Y-83007861D01*
X50105637Y-82770807D01*
X50013143Y-82547508D01*
X49878863Y-82346543D01*
X49707957Y-82175637D01*
X49506992Y-82041357D01*
X49283693Y-81948863D01*
X49046639Y-81901710D01*
X48804941Y-81901710D01*
X48567887Y-81948863D01*
X48344588Y-82041357D01*
X48143623Y-82175637D01*
X47972717Y-82346543D01*
X47838437Y-82547508D01*
X47745943Y-82770807D01*
X47698790Y-83007861D01*
X47612790Y-83007861D01*
X47565637Y-82770807D01*
X47473143Y-82547508D01*
X47338863Y-82346543D01*
X47167957Y-82175637D01*
X46966992Y-82041357D01*
X46743693Y-81948863D01*
X46506639Y-81901710D01*
X46264941Y-81901710D01*
X46027887Y-81948863D01*
X45804588Y-82041357D01*
X45603623Y-82175637D01*
X45432717Y-82346543D01*
X45298437Y-82547508D01*
X45205943Y-82770807D01*
X45158790Y-83007861D01*
X44402000Y-83007861D01*
X44402000Y-80467861D01*
X45158790Y-80467861D01*
X45158790Y-80709559D01*
X45205943Y-80946613D01*
X45298437Y-81169912D01*
X45432717Y-81370877D01*
X45603623Y-81541783D01*
X45804588Y-81676063D01*
X46027887Y-81768557D01*
X46264941Y-81815710D01*
X46506639Y-81815710D01*
X46743693Y-81768557D01*
X46966992Y-81676063D01*
X47167957Y-81541783D01*
X47338863Y-81370877D01*
X47473143Y-81169912D01*
X47565637Y-80946613D01*
X47612790Y-80709559D01*
X47612790Y-80467861D01*
X47698790Y-80467861D01*
X47698790Y-80709559D01*
X47745943Y-80946613D01*
X47838437Y-81169912D01*
X47972717Y-81370877D01*
X48143623Y-81541783D01*
X48344588Y-81676063D01*
X48567887Y-81768557D01*
X48804941Y-81815710D01*
X49046639Y-81815710D01*
X49283693Y-81768557D01*
X49506992Y-81676063D01*
X49601645Y-81612818D01*
X111301000Y-81612818D01*
X111301000Y-81837182D01*
X111344771Y-82057234D01*
X111430631Y-82264519D01*
X111555281Y-82451070D01*
X111713930Y-82609719D01*
X111900481Y-82734369D01*
X112107766Y-82820229D01*
X112327818Y-82864000D01*
X112552182Y-82864000D01*
X112772234Y-82820229D01*
X112979519Y-82734369D01*
X113166070Y-82609719D01*
X113324719Y-82451070D01*
X113449369Y-82264519D01*
X113535229Y-82057234D01*
X113579000Y-81837182D01*
X113579000Y-81612818D01*
X116381000Y-81612818D01*
X116381000Y-81837182D01*
X116424771Y-82057234D01*
X116510631Y-82264519D01*
X116635281Y-82451070D01*
X116793930Y-82609719D01*
X116980481Y-82734369D01*
X117187766Y-82820229D01*
X117407818Y-82864000D01*
X117632182Y-82864000D01*
X117852234Y-82820229D01*
X118059519Y-82734369D01*
X118246070Y-82609719D01*
X118404719Y-82451070D01*
X118529369Y-82264519D01*
X118615229Y-82057234D01*
X118659000Y-81837182D01*
X118659000Y-81612818D01*
X118615229Y-81392766D01*
X118529369Y-81185481D01*
X118404719Y-80998930D01*
X118246070Y-80840281D01*
X118059519Y-80715631D01*
X117852234Y-80629771D01*
X117632182Y-80586000D01*
X117407818Y-80586000D01*
X117187766Y-80629771D01*
X116980481Y-80715631D01*
X116793930Y-80840281D01*
X116635281Y-80998930D01*
X116510631Y-81185481D01*
X116424771Y-81392766D01*
X116381000Y-81612818D01*
X113579000Y-81612818D01*
X113535229Y-81392766D01*
X113449369Y-81185481D01*
X113324719Y-80998930D01*
X113166070Y-80840281D01*
X112979519Y-80715631D01*
X112772234Y-80629771D01*
X112552182Y-80586000D01*
X112327818Y-80586000D01*
X112107766Y-80629771D01*
X111900481Y-80715631D01*
X111713930Y-80840281D01*
X111555281Y-80998930D01*
X111430631Y-81185481D01*
X111344771Y-81392766D01*
X111301000Y-81612818D01*
X49601645Y-81612818D01*
X49707957Y-81541783D01*
X49878863Y-81370877D01*
X50013143Y-81169912D01*
X50105637Y-80946613D01*
X50152790Y-80709559D01*
X50152790Y-80467861D01*
X50105637Y-80230807D01*
X50013143Y-80007508D01*
X49878863Y-79806543D01*
X49707957Y-79635637D01*
X49506992Y-79501357D01*
X49283693Y-79408863D01*
X49046639Y-79361710D01*
X48804941Y-79361710D01*
X48567887Y-79408863D01*
X48344588Y-79501357D01*
X48143623Y-79635637D01*
X47972717Y-79806543D01*
X47838437Y-80007508D01*
X47745943Y-80230807D01*
X47698790Y-80467861D01*
X47612790Y-80467861D01*
X47565637Y-80230807D01*
X47473143Y-80007508D01*
X47338863Y-79806543D01*
X47167957Y-79635637D01*
X46966992Y-79501357D01*
X46743693Y-79408863D01*
X46506639Y-79361710D01*
X46264941Y-79361710D01*
X46027887Y-79408863D01*
X45804588Y-79501357D01*
X45603623Y-79635637D01*
X45432717Y-79806543D01*
X45298437Y-80007508D01*
X45205943Y-80230807D01*
X45158790Y-80467861D01*
X44402000Y-80467861D01*
X44402000Y-77927861D01*
X45158790Y-77927861D01*
X45158790Y-78169559D01*
X45205943Y-78406613D01*
X45298437Y-78629912D01*
X45432717Y-78830877D01*
X45603623Y-79001783D01*
X45804588Y-79136063D01*
X46027887Y-79228557D01*
X46264941Y-79275710D01*
X46506639Y-79275710D01*
X46743693Y-79228557D01*
X46966992Y-79136063D01*
X47167957Y-79001783D01*
X47338863Y-78830877D01*
X47473143Y-78629912D01*
X47565637Y-78406613D01*
X47612790Y-78169559D01*
X47612790Y-77927861D01*
X47698790Y-77927861D01*
X47698790Y-78169559D01*
X47745943Y-78406613D01*
X47838437Y-78629912D01*
X47972717Y-78830877D01*
X48143623Y-79001783D01*
X48344588Y-79136063D01*
X48567887Y-79228557D01*
X48804941Y-79275710D01*
X49046639Y-79275710D01*
X49283693Y-79228557D01*
X49506992Y-79136063D01*
X49707957Y-79001783D01*
X49878863Y-78830877D01*
X50013143Y-78629912D01*
X50105637Y-78406613D01*
X50152790Y-78169559D01*
X50152790Y-77927861D01*
X50105637Y-77690807D01*
X50013143Y-77467508D01*
X49878863Y-77266543D01*
X49707957Y-77095637D01*
X49698153Y-77089086D01*
X56390000Y-77089086D01*
X56390000Y-77230914D01*
X56417669Y-77370016D01*
X56471944Y-77501048D01*
X56550739Y-77618973D01*
X56651027Y-77719261D01*
X56768952Y-77798056D01*
X56899984Y-77852331D01*
X57039086Y-77880000D01*
X57080000Y-77880000D01*
X57080000Y-77930914D01*
X57107669Y-78070016D01*
X57161944Y-78201048D01*
X57240739Y-78318973D01*
X57341027Y-78419261D01*
X57458952Y-78498056D01*
X57589984Y-78552331D01*
X57729086Y-78580000D01*
X57870914Y-78580000D01*
X58010016Y-78552331D01*
X58141048Y-78498056D01*
X58161970Y-78484076D01*
X68433000Y-78484076D01*
X68433000Y-78715924D01*
X68478231Y-78943318D01*
X68566956Y-79157519D01*
X68695764Y-79350294D01*
X68859706Y-79514236D01*
X69052481Y-79643044D01*
X69266682Y-79731769D01*
X69494076Y-79777000D01*
X69725924Y-79777000D01*
X69953318Y-79731769D01*
X70167519Y-79643044D01*
X70360294Y-79514236D01*
X70524236Y-79350294D01*
X70653044Y-79157519D01*
X70741769Y-78943318D01*
X70755000Y-78876801D01*
X70768231Y-78943318D01*
X70856956Y-79157519D01*
X70985764Y-79350294D01*
X71149706Y-79514236D01*
X71342481Y-79643044D01*
X71556682Y-79731769D01*
X71784076Y-79777000D01*
X72015924Y-79777000D01*
X72243318Y-79731769D01*
X72457519Y-79643044D01*
X72650294Y-79514236D01*
X72814236Y-79350294D01*
X72943044Y-79157519D01*
X73031769Y-78943318D01*
X73045000Y-78876801D01*
X73058231Y-78943318D01*
X73146956Y-79157519D01*
X73275764Y-79350294D01*
X73439706Y-79514236D01*
X73632481Y-79643044D01*
X73846682Y-79731769D01*
X74074076Y-79777000D01*
X74305924Y-79777000D01*
X74533318Y-79731769D01*
X74747519Y-79643044D01*
X74940294Y-79514236D01*
X75104236Y-79350294D01*
X75233044Y-79157519D01*
X75321769Y-78943318D01*
X75335000Y-78876801D01*
X75348231Y-78943318D01*
X75436956Y-79157519D01*
X75565764Y-79350294D01*
X75729706Y-79514236D01*
X75922481Y-79643044D01*
X76136682Y-79731769D01*
X76364076Y-79777000D01*
X76595924Y-79777000D01*
X76823318Y-79731769D01*
X77037519Y-79643044D01*
X77230294Y-79514236D01*
X77394236Y-79350294D01*
X77523044Y-79157519D01*
X77611769Y-78943318D01*
X77625000Y-78876801D01*
X77638231Y-78943318D01*
X77726956Y-79157519D01*
X77855764Y-79350294D01*
X78019706Y-79514236D01*
X78212481Y-79643044D01*
X78426682Y-79731769D01*
X78654076Y-79777000D01*
X78885924Y-79777000D01*
X79113318Y-79731769D01*
X79327519Y-79643044D01*
X79520294Y-79514236D01*
X79684236Y-79350294D01*
X79813044Y-79157519D01*
X79901769Y-78943318D01*
X79947000Y-78715924D01*
X79947000Y-78484076D01*
X79901769Y-78256682D01*
X79878291Y-78200000D01*
X97236822Y-78200000D01*
X97261478Y-78450336D01*
X97334498Y-78691051D01*
X97453076Y-78912896D01*
X97612656Y-79107344D01*
X97807104Y-79266924D01*
X98028949Y-79385502D01*
X98269664Y-79458522D01*
X98457274Y-79477000D01*
X99582726Y-79477000D01*
X99770336Y-79458522D01*
X100011051Y-79385502D01*
X100232896Y-79266924D01*
X100427344Y-79107344D01*
X100525436Y-78987818D01*
X113841000Y-78987818D01*
X113841000Y-79212182D01*
X113884771Y-79432234D01*
X113970631Y-79639519D01*
X114095281Y-79826070D01*
X114253930Y-79984719D01*
X114440481Y-80109369D01*
X114647766Y-80195229D01*
X114867818Y-80239000D01*
X115092182Y-80239000D01*
X115312234Y-80195229D01*
X115519519Y-80109369D01*
X115706070Y-79984719D01*
X115864719Y-79826070D01*
X115989369Y-79639519D01*
X116075229Y-79432234D01*
X116119000Y-79212182D01*
X116119000Y-78987818D01*
X116381000Y-78987818D01*
X116381000Y-79212182D01*
X116424771Y-79432234D01*
X116510631Y-79639519D01*
X116635281Y-79826070D01*
X116793930Y-79984719D01*
X116980481Y-80109369D01*
X117187766Y-80195229D01*
X117407818Y-80239000D01*
X117632182Y-80239000D01*
X117852234Y-80195229D01*
X118059519Y-80109369D01*
X118246070Y-79984719D01*
X118404719Y-79826070D01*
X118529369Y-79639519D01*
X118615229Y-79432234D01*
X118659000Y-79212182D01*
X118659000Y-78987818D01*
X118615229Y-78767766D01*
X118529369Y-78560481D01*
X118404719Y-78373930D01*
X118246070Y-78215281D01*
X118059519Y-78090631D01*
X117852234Y-78004771D01*
X117632182Y-77961000D01*
X117407818Y-77961000D01*
X117187766Y-78004771D01*
X116980481Y-78090631D01*
X116793930Y-78215281D01*
X116635281Y-78373930D01*
X116510631Y-78560481D01*
X116424771Y-78767766D01*
X116381000Y-78987818D01*
X116119000Y-78987818D01*
X116075229Y-78767766D01*
X115989369Y-78560481D01*
X115864719Y-78373930D01*
X115706070Y-78215281D01*
X115519519Y-78090631D01*
X115312234Y-78004771D01*
X115092182Y-77961000D01*
X114867818Y-77961000D01*
X114647766Y-78004771D01*
X114440481Y-78090631D01*
X114253930Y-78215281D01*
X114095281Y-78373930D01*
X113970631Y-78560481D01*
X113884771Y-78767766D01*
X113841000Y-78987818D01*
X100525436Y-78987818D01*
X100586924Y-78912896D01*
X100705502Y-78691051D01*
X100778522Y-78450336D01*
X100803178Y-78200000D01*
X100778522Y-77949664D01*
X100705502Y-77708949D01*
X100586924Y-77487104D01*
X100427344Y-77292656D01*
X100232896Y-77133076D01*
X100011051Y-77014498D01*
X99770336Y-76941478D01*
X99582726Y-76923000D01*
X98457274Y-76923000D01*
X98269664Y-76941478D01*
X98028949Y-77014498D01*
X97807104Y-77133076D01*
X97612656Y-77292656D01*
X97453076Y-77487104D01*
X97334498Y-77708949D01*
X97261478Y-77949664D01*
X97236822Y-78200000D01*
X79878291Y-78200000D01*
X79813044Y-78042481D01*
X79684236Y-77849706D01*
X79520294Y-77685764D01*
X79327519Y-77556956D01*
X79113318Y-77468231D01*
X78885924Y-77423000D01*
X78654076Y-77423000D01*
X78426682Y-77468231D01*
X78212481Y-77556956D01*
X78019706Y-77685764D01*
X77855764Y-77849706D01*
X77726956Y-78042481D01*
X77638231Y-78256682D01*
X77625000Y-78323199D01*
X77611769Y-78256682D01*
X77523044Y-78042481D01*
X77394236Y-77849706D01*
X77230294Y-77685764D01*
X77037519Y-77556956D01*
X76823318Y-77468231D01*
X76595924Y-77423000D01*
X76364076Y-77423000D01*
X76136682Y-77468231D01*
X75922481Y-77556956D01*
X75729706Y-77685764D01*
X75565764Y-77849706D01*
X75436956Y-78042481D01*
X75348231Y-78256682D01*
X75335000Y-78323199D01*
X75321769Y-78256682D01*
X75233044Y-78042481D01*
X75104236Y-77849706D01*
X74940294Y-77685764D01*
X74747519Y-77556956D01*
X74533318Y-77468231D01*
X74305924Y-77423000D01*
X74074076Y-77423000D01*
X73846682Y-77468231D01*
X73632481Y-77556956D01*
X73439706Y-77685764D01*
X73275764Y-77849706D01*
X73146956Y-78042481D01*
X73058231Y-78256682D01*
X73045000Y-78323199D01*
X73031769Y-78256682D01*
X72943044Y-78042481D01*
X72814236Y-77849706D01*
X72650294Y-77685764D01*
X72457519Y-77556956D01*
X72243318Y-77468231D01*
X72015924Y-77423000D01*
X71784076Y-77423000D01*
X71556682Y-77468231D01*
X71342481Y-77556956D01*
X71149706Y-77685764D01*
X70985764Y-77849706D01*
X70856956Y-78042481D01*
X70768231Y-78256682D01*
X70755000Y-78323199D01*
X70741769Y-78256682D01*
X70653044Y-78042481D01*
X70524236Y-77849706D01*
X70360294Y-77685764D01*
X70167519Y-77556956D01*
X69953318Y-77468231D01*
X69725924Y-77423000D01*
X69494076Y-77423000D01*
X69266682Y-77468231D01*
X69052481Y-77556956D01*
X68859706Y-77685764D01*
X68695764Y-77849706D01*
X68566956Y-78042481D01*
X68478231Y-78256682D01*
X68433000Y-78484076D01*
X58161970Y-78484076D01*
X58258973Y-78419261D01*
X58359261Y-78318973D01*
X58438056Y-78201048D01*
X58492331Y-78070016D01*
X58520000Y-77930914D01*
X58520000Y-77789086D01*
X58492331Y-77649984D01*
X58438056Y-77518952D01*
X58359261Y-77401027D01*
X58258973Y-77300739D01*
X58141048Y-77221944D01*
X58010016Y-77167669D01*
X57870914Y-77140000D01*
X57830000Y-77140000D01*
X57830000Y-77089086D01*
X57802331Y-76949984D01*
X57748056Y-76818952D01*
X57669261Y-76701027D01*
X57568973Y-76600739D01*
X57451048Y-76521944D01*
X57320016Y-76467669D01*
X57180914Y-76440000D01*
X57039086Y-76440000D01*
X56899984Y-76467669D01*
X56768952Y-76521944D01*
X56651027Y-76600739D01*
X56550739Y-76701027D01*
X56471944Y-76818952D01*
X56417669Y-76949984D01*
X56390000Y-77089086D01*
X49698153Y-77089086D01*
X49506992Y-76961357D01*
X49283693Y-76868863D01*
X49046639Y-76821710D01*
X48804941Y-76821710D01*
X48567887Y-76868863D01*
X48344588Y-76961357D01*
X48143623Y-77095637D01*
X47972717Y-77266543D01*
X47838437Y-77467508D01*
X47745943Y-77690807D01*
X47698790Y-77927861D01*
X47612790Y-77927861D01*
X47565637Y-77690807D01*
X47473143Y-77467508D01*
X47338863Y-77266543D01*
X47167957Y-77095637D01*
X46966992Y-76961357D01*
X46743693Y-76868863D01*
X46506639Y-76821710D01*
X46264941Y-76821710D01*
X46027887Y-76868863D01*
X45804588Y-76961357D01*
X45603623Y-77095637D01*
X45432717Y-77266543D01*
X45298437Y-77467508D01*
X45205943Y-77690807D01*
X45158790Y-77927861D01*
X44402000Y-77927861D01*
X44402000Y-75387861D01*
X45158790Y-75387861D01*
X45158790Y-75629559D01*
X45205943Y-75866613D01*
X45298437Y-76089912D01*
X45432717Y-76290877D01*
X45603623Y-76461783D01*
X45804588Y-76596063D01*
X46027887Y-76688557D01*
X46264941Y-76735710D01*
X46506639Y-76735710D01*
X46743693Y-76688557D01*
X46966992Y-76596063D01*
X47167957Y-76461783D01*
X47338863Y-76290877D01*
X47473143Y-76089912D01*
X47565637Y-75866613D01*
X47612790Y-75629559D01*
X47612790Y-75387861D01*
X47698790Y-75387861D01*
X47698790Y-75629559D01*
X47745943Y-75866613D01*
X47838437Y-76089912D01*
X47972717Y-76290877D01*
X48143623Y-76461783D01*
X48344588Y-76596063D01*
X48567887Y-76688557D01*
X48804941Y-76735710D01*
X49046639Y-76735710D01*
X49283693Y-76688557D01*
X49506992Y-76596063D01*
X49707957Y-76461783D01*
X49878863Y-76290877D01*
X50013143Y-76089912D01*
X50073550Y-75944076D01*
X71863000Y-75944076D01*
X71863000Y-76175924D01*
X71908231Y-76403318D01*
X71996956Y-76617519D01*
X72125764Y-76810294D01*
X72289706Y-76974236D01*
X72482481Y-77103044D01*
X72696682Y-77191769D01*
X72924076Y-77237000D01*
X73155924Y-77237000D01*
X73383318Y-77191769D01*
X73597519Y-77103044D01*
X73790294Y-76974236D01*
X73954236Y-76810294D01*
X74083044Y-76617519D01*
X74171769Y-76403318D01*
X74217000Y-76175924D01*
X74217000Y-75944076D01*
X74171769Y-75716682D01*
X74083044Y-75502481D01*
X73954236Y-75309706D01*
X73790294Y-75145764D01*
X73597519Y-75016956D01*
X73383318Y-74928231D01*
X73155924Y-74883000D01*
X72924076Y-74883000D01*
X72696682Y-74928231D01*
X72482481Y-75016956D01*
X72289706Y-75145764D01*
X72125764Y-75309706D01*
X71996956Y-75502481D01*
X71908231Y-75716682D01*
X71863000Y-75944076D01*
X50073550Y-75944076D01*
X50105637Y-75866613D01*
X50152790Y-75629559D01*
X50152790Y-75387861D01*
X50105637Y-75150807D01*
X50013143Y-74927508D01*
X49878863Y-74726543D01*
X49707957Y-74555637D01*
X49506992Y-74421357D01*
X49283693Y-74328863D01*
X49046639Y-74281710D01*
X48804941Y-74281710D01*
X48567887Y-74328863D01*
X48344588Y-74421357D01*
X48143623Y-74555637D01*
X47972717Y-74726543D01*
X47838437Y-74927508D01*
X47745943Y-75150807D01*
X47698790Y-75387861D01*
X47612790Y-75387861D01*
X47565637Y-75150807D01*
X47473143Y-74927508D01*
X47338863Y-74726543D01*
X47167957Y-74555637D01*
X46966992Y-74421357D01*
X46743693Y-74328863D01*
X46506639Y-74281710D01*
X46264941Y-74281710D01*
X46027887Y-74328863D01*
X45804588Y-74421357D01*
X45603623Y-74555637D01*
X45432717Y-74726543D01*
X45298437Y-74927508D01*
X45205943Y-75150807D01*
X45158790Y-75387861D01*
X44402000Y-75387861D01*
X44402000Y-72847861D01*
X45158790Y-72847861D01*
X45158790Y-73089559D01*
X45205943Y-73326613D01*
X45298437Y-73549912D01*
X45432717Y-73750877D01*
X45603623Y-73921783D01*
X45804588Y-74056063D01*
X46027887Y-74148557D01*
X46264941Y-74195710D01*
X46506639Y-74195710D01*
X46743693Y-74148557D01*
X46966992Y-74056063D01*
X47167957Y-73921783D01*
X47338863Y-73750877D01*
X47473143Y-73549912D01*
X47565637Y-73326613D01*
X47612790Y-73089559D01*
X47612790Y-72847861D01*
X47698790Y-72847861D01*
X47698790Y-73089559D01*
X47745943Y-73326613D01*
X47838437Y-73549912D01*
X47972717Y-73750877D01*
X48143623Y-73921783D01*
X48344588Y-74056063D01*
X48567887Y-74148557D01*
X48804941Y-74195710D01*
X49046639Y-74195710D01*
X49283693Y-74148557D01*
X49506992Y-74056063D01*
X49707957Y-73921783D01*
X49878863Y-73750877D01*
X50013143Y-73549912D01*
X50073550Y-73404076D01*
X70723000Y-73404076D01*
X70723000Y-73635924D01*
X70768231Y-73863318D01*
X70856956Y-74077519D01*
X70985764Y-74270294D01*
X71149706Y-74434236D01*
X71342481Y-74563044D01*
X71556682Y-74651769D01*
X71784076Y-74697000D01*
X72015924Y-74697000D01*
X72243318Y-74651769D01*
X72457519Y-74563044D01*
X72650294Y-74434236D01*
X72814236Y-74270294D01*
X72943044Y-74077519D01*
X73031769Y-73863318D01*
X73045000Y-73796801D01*
X73058231Y-73863318D01*
X73146956Y-74077519D01*
X73275764Y-74270294D01*
X73439706Y-74434236D01*
X73632481Y-74563044D01*
X73846682Y-74651769D01*
X74074076Y-74697000D01*
X74305924Y-74697000D01*
X74533318Y-74651769D01*
X74747519Y-74563044D01*
X74940294Y-74434236D01*
X75104236Y-74270294D01*
X75233044Y-74077519D01*
X75321769Y-73863318D01*
X75335000Y-73796801D01*
X75348231Y-73863318D01*
X75436956Y-74077519D01*
X75565764Y-74270294D01*
X75729706Y-74434236D01*
X75922481Y-74563044D01*
X76136682Y-74651769D01*
X76364076Y-74697000D01*
X76595924Y-74697000D01*
X76823318Y-74651769D01*
X77037519Y-74563044D01*
X77230294Y-74434236D01*
X77394236Y-74270294D01*
X77523044Y-74077519D01*
X77611769Y-73863318D01*
X77625000Y-73796801D01*
X77638231Y-73863318D01*
X77726956Y-74077519D01*
X77855764Y-74270294D01*
X78019706Y-74434236D01*
X78212481Y-74563044D01*
X78426682Y-74651769D01*
X78654076Y-74697000D01*
X78885924Y-74697000D01*
X79113318Y-74651769D01*
X79327519Y-74563044D01*
X79520294Y-74434236D01*
X79684236Y-74270294D01*
X79813044Y-74077519D01*
X79901769Y-73863318D01*
X79947000Y-73635924D01*
X79947000Y-73404076D01*
X79901769Y-73176682D01*
X79813044Y-72962481D01*
X79684236Y-72769706D01*
X79520294Y-72605764D01*
X79327519Y-72476956D01*
X79113318Y-72388231D01*
X78885924Y-72343000D01*
X78654076Y-72343000D01*
X78426682Y-72388231D01*
X78212481Y-72476956D01*
X78019706Y-72605764D01*
X77855764Y-72769706D01*
X77726956Y-72962481D01*
X77638231Y-73176682D01*
X77625000Y-73243199D01*
X77611769Y-73176682D01*
X77523044Y-72962481D01*
X77394236Y-72769706D01*
X77230294Y-72605764D01*
X77037519Y-72476956D01*
X76823318Y-72388231D01*
X76595924Y-72343000D01*
X76364076Y-72343000D01*
X76136682Y-72388231D01*
X75922481Y-72476956D01*
X75729706Y-72605764D01*
X75565764Y-72769706D01*
X75436956Y-72962481D01*
X75348231Y-73176682D01*
X75335000Y-73243199D01*
X75321769Y-73176682D01*
X75233044Y-72962481D01*
X75104236Y-72769706D01*
X74940294Y-72605764D01*
X74747519Y-72476956D01*
X74533318Y-72388231D01*
X74305924Y-72343000D01*
X74074076Y-72343000D01*
X73846682Y-72388231D01*
X73632481Y-72476956D01*
X73439706Y-72605764D01*
X73275764Y-72769706D01*
X73146956Y-72962481D01*
X73058231Y-73176682D01*
X73045000Y-73243199D01*
X73031769Y-73176682D01*
X72943044Y-72962481D01*
X72814236Y-72769706D01*
X72650294Y-72605764D01*
X72457519Y-72476956D01*
X72243318Y-72388231D01*
X72015924Y-72343000D01*
X71784076Y-72343000D01*
X71556682Y-72388231D01*
X71342481Y-72476956D01*
X71149706Y-72605764D01*
X70985764Y-72769706D01*
X70856956Y-72962481D01*
X70768231Y-73176682D01*
X70723000Y-73404076D01*
X50073550Y-73404076D01*
X50105637Y-73326613D01*
X50152790Y-73089559D01*
X50152790Y-72847861D01*
X50105637Y-72610807D01*
X50013143Y-72387508D01*
X49878863Y-72186543D01*
X49707957Y-72015637D01*
X49506992Y-71881357D01*
X49283693Y-71788863D01*
X49046639Y-71741710D01*
X48804941Y-71741710D01*
X48567887Y-71788863D01*
X48344588Y-71881357D01*
X48143623Y-72015637D01*
X47972717Y-72186543D01*
X47838437Y-72387508D01*
X47745943Y-72610807D01*
X47698790Y-72847861D01*
X47612790Y-72847861D01*
X47565637Y-72610807D01*
X47473143Y-72387508D01*
X47338863Y-72186543D01*
X47167957Y-72015637D01*
X46966992Y-71881357D01*
X46743693Y-71788863D01*
X46506639Y-71741710D01*
X46264941Y-71741710D01*
X46027887Y-71788863D01*
X45804588Y-71881357D01*
X45603623Y-72015637D01*
X45432717Y-72186543D01*
X45298437Y-72387508D01*
X45205943Y-72610807D01*
X45158790Y-72847861D01*
X44402000Y-72847861D01*
X44402000Y-70307861D01*
X47698790Y-70307861D01*
X47698790Y-70549559D01*
X47745943Y-70786613D01*
X47838437Y-71009912D01*
X47972717Y-71210877D01*
X48143623Y-71381783D01*
X48344588Y-71516063D01*
X48567887Y-71608557D01*
X48804941Y-71655710D01*
X49046639Y-71655710D01*
X49283693Y-71608557D01*
X49403125Y-71559086D01*
X50160000Y-71559086D01*
X50160000Y-71700914D01*
X50187669Y-71840016D01*
X50241944Y-71971048D01*
X50320739Y-72088973D01*
X50421027Y-72189261D01*
X50538952Y-72268056D01*
X50669984Y-72322331D01*
X50809086Y-72350000D01*
X50950914Y-72350000D01*
X51090016Y-72322331D01*
X51221048Y-72268056D01*
X51338973Y-72189261D01*
X51439261Y-72088973D01*
X51518056Y-71971048D01*
X51572331Y-71840016D01*
X51600000Y-71700914D01*
X51600000Y-71559086D01*
X51572331Y-71419984D01*
X51518056Y-71288952D01*
X51439261Y-71171027D01*
X51338973Y-71070739D01*
X51221048Y-70991944D01*
X51122715Y-70951213D01*
X51251048Y-70898056D01*
X51368973Y-70819261D01*
X51469261Y-70718973D01*
X51548056Y-70601048D01*
X51602331Y-70470016D01*
X51630000Y-70330914D01*
X51630000Y-70189086D01*
X51602331Y-70049984D01*
X51548056Y-69918952D01*
X51469261Y-69801027D01*
X51368973Y-69700739D01*
X51251048Y-69621944D01*
X51120016Y-69567669D01*
X50980914Y-69540000D01*
X50839086Y-69540000D01*
X50699984Y-69567669D01*
X50568952Y-69621944D01*
X50451027Y-69700739D01*
X50350739Y-69801027D01*
X50271944Y-69918952D01*
X50217669Y-70049984D01*
X50190000Y-70189086D01*
X50190000Y-70330914D01*
X50217669Y-70470016D01*
X50271944Y-70601048D01*
X50350739Y-70718973D01*
X50451027Y-70819261D01*
X50568952Y-70898056D01*
X50667285Y-70938787D01*
X50538952Y-70991944D01*
X50421027Y-71070739D01*
X50320739Y-71171027D01*
X50241944Y-71288952D01*
X50187669Y-71419984D01*
X50160000Y-71559086D01*
X49403125Y-71559086D01*
X49506992Y-71516063D01*
X49707957Y-71381783D01*
X49878863Y-71210877D01*
X50013143Y-71009912D01*
X50105637Y-70786613D01*
X50152790Y-70549559D01*
X50152790Y-70307861D01*
X50105637Y-70070807D01*
X50013143Y-69847508D01*
X49878863Y-69646543D01*
X49707957Y-69475637D01*
X49506992Y-69341357D01*
X49283693Y-69248863D01*
X49046639Y-69201710D01*
X48804941Y-69201710D01*
X48567887Y-69248863D01*
X48344588Y-69341357D01*
X48143623Y-69475637D01*
X47972717Y-69646543D01*
X47838437Y-69847508D01*
X47745943Y-70070807D01*
X47698790Y-70307861D01*
X44402000Y-70307861D01*
X44402000Y-67767861D01*
X45158790Y-67767861D01*
X45158790Y-68009559D01*
X45205943Y-68246613D01*
X45298437Y-68469912D01*
X45432717Y-68670877D01*
X45603623Y-68841783D01*
X45804588Y-68976063D01*
X46027887Y-69068557D01*
X46264941Y-69115710D01*
X46506639Y-69115710D01*
X46743693Y-69068557D01*
X46966992Y-68976063D01*
X47167957Y-68841783D01*
X47338863Y-68670877D01*
X47473143Y-68469912D01*
X47565637Y-68246613D01*
X47612790Y-68009559D01*
X47612790Y-67767861D01*
X47698790Y-67767861D01*
X47698790Y-68009559D01*
X47745943Y-68246613D01*
X47838437Y-68469912D01*
X47972717Y-68670877D01*
X48143623Y-68841783D01*
X48344588Y-68976063D01*
X48567887Y-69068557D01*
X48804941Y-69115710D01*
X49046639Y-69115710D01*
X49283693Y-69068557D01*
X49506992Y-68976063D01*
X49707957Y-68841783D01*
X49878863Y-68670877D01*
X50013143Y-68469912D01*
X50105637Y-68246613D01*
X50152790Y-68009559D01*
X50152790Y-67767861D01*
X50105637Y-67530807D01*
X50013143Y-67307508D01*
X49878863Y-67106543D01*
X49707957Y-66935637D01*
X49506992Y-66801357D01*
X49283693Y-66708863D01*
X49046639Y-66661710D01*
X48804941Y-66661710D01*
X48567887Y-66708863D01*
X48344588Y-66801357D01*
X48143623Y-66935637D01*
X47972717Y-67106543D01*
X47838437Y-67307508D01*
X47745943Y-67530807D01*
X47698790Y-67767861D01*
X47612790Y-67767861D01*
X47565637Y-67530807D01*
X47473143Y-67307508D01*
X47338863Y-67106543D01*
X47167957Y-66935637D01*
X46966992Y-66801357D01*
X46743693Y-66708863D01*
X46506639Y-66661710D01*
X46264941Y-66661710D01*
X46027887Y-66708863D01*
X45804588Y-66801357D01*
X45603623Y-66935637D01*
X45432717Y-67106543D01*
X45298437Y-67307508D01*
X45205943Y-67530807D01*
X45158790Y-67767861D01*
X44402000Y-67767861D01*
X44402000Y-65227861D01*
X45158790Y-65227861D01*
X45158790Y-65469559D01*
X45205943Y-65706613D01*
X45298437Y-65929912D01*
X45432717Y-66130877D01*
X45603623Y-66301783D01*
X45804588Y-66436063D01*
X46027887Y-66528557D01*
X46264941Y-66575710D01*
X46506639Y-66575710D01*
X46743693Y-66528557D01*
X46966992Y-66436063D01*
X47167957Y-66301783D01*
X47338863Y-66130877D01*
X47473143Y-65929912D01*
X47565637Y-65706613D01*
X47612790Y-65469559D01*
X47612790Y-65227861D01*
X47698790Y-65227861D01*
X47698790Y-65469559D01*
X47745943Y-65706613D01*
X47838437Y-65929912D01*
X47972717Y-66130877D01*
X48143623Y-66301783D01*
X48344588Y-66436063D01*
X48567887Y-66528557D01*
X48804941Y-66575710D01*
X49046639Y-66575710D01*
X49283693Y-66528557D01*
X49506992Y-66436063D01*
X49707957Y-66301783D01*
X49878863Y-66130877D01*
X50013143Y-65929912D01*
X50105637Y-65706613D01*
X50152790Y-65469559D01*
X50152790Y-65227861D01*
X50105637Y-64990807D01*
X50013143Y-64767508D01*
X49878863Y-64566543D01*
X49707957Y-64395637D01*
X49506992Y-64261357D01*
X49283693Y-64168863D01*
X49046639Y-64121710D01*
X48804941Y-64121710D01*
X48567887Y-64168863D01*
X48344588Y-64261357D01*
X48143623Y-64395637D01*
X47972717Y-64566543D01*
X47838437Y-64767508D01*
X47745943Y-64990807D01*
X47698790Y-65227861D01*
X47612790Y-65227861D01*
X47565637Y-64990807D01*
X47473143Y-64767508D01*
X47338863Y-64566543D01*
X47167957Y-64395637D01*
X46966992Y-64261357D01*
X46743693Y-64168863D01*
X46506639Y-64121710D01*
X46264941Y-64121710D01*
X46027887Y-64168863D01*
X45804588Y-64261357D01*
X45603623Y-64395637D01*
X45432717Y-64566543D01*
X45298437Y-64767508D01*
X45205943Y-64990807D01*
X45158790Y-65227861D01*
X44402000Y-65227861D01*
X44402000Y-64059086D01*
X88300000Y-64059086D01*
X88300000Y-64200914D01*
X88327669Y-64340016D01*
X88381944Y-64471048D01*
X88460739Y-64588973D01*
X88561027Y-64689261D01*
X88678952Y-64768056D01*
X88809984Y-64822331D01*
X88949086Y-64850000D01*
X88990000Y-64850000D01*
X88990000Y-64990914D01*
X89017669Y-65130016D01*
X89071944Y-65261048D01*
X89150739Y-65378973D01*
X89151766Y-65380000D01*
X89090739Y-65441027D01*
X89011944Y-65558952D01*
X88957669Y-65689984D01*
X88930000Y-65829086D01*
X88930000Y-65970914D01*
X88957669Y-66110016D01*
X89011944Y-66241048D01*
X89090739Y-66358973D01*
X89191027Y-66459261D01*
X89308952Y-66538056D01*
X89439984Y-66592331D01*
X89579086Y-66620000D01*
X89720914Y-66620000D01*
X89860016Y-66592331D01*
X89991048Y-66538056D01*
X90108973Y-66459261D01*
X90209261Y-66358973D01*
X90288056Y-66241048D01*
X90342331Y-66110016D01*
X90370000Y-65970914D01*
X90370000Y-65829086D01*
X90342331Y-65689984D01*
X90288056Y-65558952D01*
X90209261Y-65441027D01*
X90208234Y-65440000D01*
X90269261Y-65378973D01*
X90348056Y-65261048D01*
X90402331Y-65130016D01*
X90430000Y-64990914D01*
X90430000Y-64849086D01*
X90406131Y-64729086D01*
X94960000Y-64729086D01*
X94960000Y-64870914D01*
X94987669Y-65010016D01*
X95041944Y-65141048D01*
X95120739Y-65258973D01*
X95221027Y-65359261D01*
X95338952Y-65438056D01*
X95469984Y-65492331D01*
X95609086Y-65520000D01*
X95750914Y-65520000D01*
X95890016Y-65492331D01*
X96021048Y-65438056D01*
X96138973Y-65359261D01*
X96239261Y-65258973D01*
X96318056Y-65141048D01*
X96372331Y-65010016D01*
X96386989Y-64936324D01*
X96397669Y-64990016D01*
X96451944Y-65121048D01*
X96530739Y-65238973D01*
X96631027Y-65339261D01*
X96748952Y-65418056D01*
X96879984Y-65472331D01*
X97019086Y-65500000D01*
X97160914Y-65500000D01*
X97300016Y-65472331D01*
X97431048Y-65418056D01*
X97548973Y-65339261D01*
X97649261Y-65238973D01*
X97728056Y-65121048D01*
X97782331Y-64990016D01*
X97810000Y-64850914D01*
X97810000Y-64709086D01*
X97782331Y-64569984D01*
X97728056Y-64438952D01*
X97715393Y-64420000D01*
X97740914Y-64420000D01*
X97880016Y-64392331D01*
X98011048Y-64338056D01*
X98128973Y-64259261D01*
X98229261Y-64158973D01*
X98308056Y-64041048D01*
X98362331Y-63910016D01*
X98390000Y-63770914D01*
X98390000Y-63629086D01*
X98362331Y-63489984D01*
X98308056Y-63358952D01*
X98229261Y-63241027D01*
X98128973Y-63140739D01*
X98011048Y-63061944D01*
X97880016Y-63007669D01*
X97847085Y-63001119D01*
X97951048Y-62958056D01*
X98068973Y-62879261D01*
X98169261Y-62778973D01*
X98248056Y-62661048D01*
X98302331Y-62530016D01*
X98330000Y-62390914D01*
X98330000Y-62249086D01*
X98302331Y-62109984D01*
X98248056Y-61978952D01*
X98169261Y-61861027D01*
X98068973Y-61760739D01*
X97951048Y-61681944D01*
X97820016Y-61627669D01*
X97680914Y-61600000D01*
X97539086Y-61600000D01*
X97399984Y-61627669D01*
X97268952Y-61681944D01*
X97151027Y-61760739D01*
X97050739Y-61861027D01*
X96971944Y-61978952D01*
X96917669Y-62109984D01*
X96890000Y-62249086D01*
X96890000Y-62390914D01*
X96917669Y-62530016D01*
X96971944Y-62661048D01*
X97050739Y-62778973D01*
X97151027Y-62879261D01*
X97268952Y-62958056D01*
X97399984Y-63012331D01*
X97432915Y-63018881D01*
X97328952Y-63061944D01*
X97211027Y-63140739D01*
X97110739Y-63241027D01*
X97031944Y-63358952D01*
X96977669Y-63489984D01*
X96950000Y-63629086D01*
X96950000Y-63770914D01*
X96977669Y-63910016D01*
X97031944Y-64041048D01*
X97044607Y-64060000D01*
X97019086Y-64060000D01*
X96879984Y-64087669D01*
X96748952Y-64141944D01*
X96631027Y-64220739D01*
X96530739Y-64321027D01*
X96451944Y-64438952D01*
X96397669Y-64569984D01*
X96383011Y-64643676D01*
X96372331Y-64589984D01*
X96318056Y-64458952D01*
X96239261Y-64341027D01*
X96138973Y-64240739D01*
X96021048Y-64161944D01*
X95890016Y-64107669D01*
X95750914Y-64080000D01*
X95609086Y-64080000D01*
X95469984Y-64107669D01*
X95338952Y-64161944D01*
X95221027Y-64240739D01*
X95120739Y-64341027D01*
X95041944Y-64458952D01*
X94987669Y-64589984D01*
X94960000Y-64729086D01*
X90406131Y-64729086D01*
X90402331Y-64709984D01*
X90348056Y-64578952D01*
X90269261Y-64461027D01*
X90168973Y-64360739D01*
X90051048Y-64281944D01*
X89920016Y-64227669D01*
X89780914Y-64200000D01*
X89740000Y-64200000D01*
X89740000Y-64059086D01*
X89712331Y-63919984D01*
X89658056Y-63788952D01*
X89594460Y-63693774D01*
X89609261Y-63678973D01*
X89688056Y-63561048D01*
X89742331Y-63430016D01*
X89770000Y-63290914D01*
X89770000Y-63149086D01*
X89742331Y-63009984D01*
X89688056Y-62878952D01*
X89609261Y-62761027D01*
X89508973Y-62660739D01*
X89391048Y-62581944D01*
X89260016Y-62527669D01*
X89120914Y-62500000D01*
X88979086Y-62500000D01*
X88839984Y-62527669D01*
X88708952Y-62581944D01*
X88591027Y-62660739D01*
X88490739Y-62761027D01*
X88411944Y-62878952D01*
X88357669Y-63009984D01*
X88330000Y-63149086D01*
X88330000Y-63290914D01*
X88357669Y-63430016D01*
X88411944Y-63561048D01*
X88475540Y-63656226D01*
X88460739Y-63671027D01*
X88381944Y-63788952D01*
X88327669Y-63919984D01*
X88300000Y-64059086D01*
X44402000Y-64059086D01*
X44402000Y-62687861D01*
X45158790Y-62687861D01*
X45158790Y-62929559D01*
X45205943Y-63166613D01*
X45298437Y-63389912D01*
X45432717Y-63590877D01*
X45603623Y-63761783D01*
X45804588Y-63896063D01*
X46027887Y-63988557D01*
X46264941Y-64035710D01*
X46506639Y-64035710D01*
X46743693Y-63988557D01*
X46966992Y-63896063D01*
X47167957Y-63761783D01*
X47338863Y-63590877D01*
X47473143Y-63389912D01*
X47565637Y-63166613D01*
X47612790Y-62929559D01*
X47612790Y-62687861D01*
X47698790Y-62687861D01*
X47698790Y-62929559D01*
X47745943Y-63166613D01*
X47838437Y-63389912D01*
X47972717Y-63590877D01*
X48143623Y-63761783D01*
X48344588Y-63896063D01*
X48567887Y-63988557D01*
X48804941Y-64035710D01*
X49046639Y-64035710D01*
X49283693Y-63988557D01*
X49506992Y-63896063D01*
X49707957Y-63761783D01*
X49878863Y-63590877D01*
X50013143Y-63389912D01*
X50105637Y-63166613D01*
X50152790Y-62929559D01*
X50152790Y-62687861D01*
X50105637Y-62450807D01*
X50013143Y-62227508D01*
X49878863Y-62026543D01*
X49707957Y-61855637D01*
X49506992Y-61721357D01*
X49283693Y-61628863D01*
X49046639Y-61581710D01*
X48804941Y-61581710D01*
X48567887Y-61628863D01*
X48344588Y-61721357D01*
X48143623Y-61855637D01*
X47972717Y-62026543D01*
X47838437Y-62227508D01*
X47745943Y-62450807D01*
X47698790Y-62687861D01*
X47612790Y-62687861D01*
X47565637Y-62450807D01*
X47473143Y-62227508D01*
X47338863Y-62026543D01*
X47167957Y-61855637D01*
X46966992Y-61721357D01*
X46743693Y-61628863D01*
X46506639Y-61581710D01*
X46264941Y-61581710D01*
X46027887Y-61628863D01*
X45804588Y-61721357D01*
X45603623Y-61855637D01*
X45432717Y-62026543D01*
X45298437Y-62227508D01*
X45205943Y-62450807D01*
X45158790Y-62687861D01*
X44402000Y-62687861D01*
X44402000Y-60147861D01*
X45158790Y-60147861D01*
X45158790Y-60389559D01*
X45205943Y-60626613D01*
X45298437Y-60849912D01*
X45432717Y-61050877D01*
X45603623Y-61221783D01*
X45804588Y-61356063D01*
X46027887Y-61448557D01*
X46264941Y-61495710D01*
X46506639Y-61495710D01*
X46743693Y-61448557D01*
X46966992Y-61356063D01*
X47167957Y-61221783D01*
X47338863Y-61050877D01*
X47473143Y-60849912D01*
X47565637Y-60626613D01*
X47612790Y-60389559D01*
X47612790Y-60147861D01*
X47698790Y-60147861D01*
X47698790Y-60389559D01*
X47745943Y-60626613D01*
X47838437Y-60849912D01*
X47972717Y-61050877D01*
X48143623Y-61221783D01*
X48344588Y-61356063D01*
X48567887Y-61448557D01*
X48804941Y-61495710D01*
X49046639Y-61495710D01*
X49283693Y-61448557D01*
X49506992Y-61356063D01*
X49707957Y-61221783D01*
X49878863Y-61050877D01*
X50013143Y-60849912D01*
X50105637Y-60626613D01*
X50121058Y-60549086D01*
X61930000Y-60549086D01*
X61930000Y-60690914D01*
X61957669Y-60830016D01*
X62011944Y-60961048D01*
X62090739Y-61078973D01*
X62191027Y-61179261D01*
X62308952Y-61258056D01*
X62439984Y-61312331D01*
X62579086Y-61340000D01*
X62720914Y-61340000D01*
X62860016Y-61312331D01*
X62991048Y-61258056D01*
X63108973Y-61179261D01*
X63130000Y-61158234D01*
X63151027Y-61179261D01*
X63268952Y-61258056D01*
X63399984Y-61312331D01*
X63539086Y-61340000D01*
X63680914Y-61340000D01*
X63735782Y-61329086D01*
X94410000Y-61329086D01*
X94410000Y-61470914D01*
X94437669Y-61610016D01*
X94491944Y-61741048D01*
X94570739Y-61858973D01*
X94671027Y-61959261D01*
X94788952Y-62038056D01*
X94919984Y-62092331D01*
X95059086Y-62120000D01*
X95200914Y-62120000D01*
X95340016Y-62092331D01*
X95471048Y-62038056D01*
X95588973Y-61959261D01*
X95689261Y-61858973D01*
X95768056Y-61741048D01*
X95822331Y-61610016D01*
X95850000Y-61470914D01*
X95850000Y-61329086D01*
X95822331Y-61189984D01*
X95768056Y-61058952D01*
X95689261Y-60941027D01*
X95588973Y-60840739D01*
X95471048Y-60761944D01*
X95340016Y-60707669D01*
X95200914Y-60680000D01*
X95059086Y-60680000D01*
X94919984Y-60707669D01*
X94788952Y-60761944D01*
X94671027Y-60840739D01*
X94570739Y-60941027D01*
X94491944Y-61058952D01*
X94437669Y-61189984D01*
X94410000Y-61329086D01*
X63735782Y-61329086D01*
X63820016Y-61312331D01*
X63951048Y-61258056D01*
X64068973Y-61179261D01*
X64169261Y-61078973D01*
X64248056Y-60961048D01*
X64302331Y-60830016D01*
X64330000Y-60690914D01*
X64330000Y-60549086D01*
X64302331Y-60409984D01*
X64248056Y-60278952D01*
X64169261Y-60161027D01*
X64068973Y-60060739D01*
X63951048Y-59981944D01*
X63820016Y-59927669D01*
X63680914Y-59900000D01*
X63539086Y-59900000D01*
X63399984Y-59927669D01*
X63268952Y-59981944D01*
X63151027Y-60060739D01*
X63130000Y-60081766D01*
X63108973Y-60060739D01*
X62991048Y-59981944D01*
X62860016Y-59927669D01*
X62720914Y-59900000D01*
X62579086Y-59900000D01*
X62439984Y-59927669D01*
X62308952Y-59981944D01*
X62191027Y-60060739D01*
X62090739Y-60161027D01*
X62011944Y-60278952D01*
X61957669Y-60409984D01*
X61930000Y-60549086D01*
X50121058Y-60549086D01*
X50152790Y-60389559D01*
X50152790Y-60147861D01*
X50105637Y-59910807D01*
X50013143Y-59687508D01*
X49878863Y-59486543D01*
X49707957Y-59315637D01*
X49506992Y-59181357D01*
X49283693Y-59088863D01*
X49046639Y-59041710D01*
X48804941Y-59041710D01*
X48567887Y-59088863D01*
X48344588Y-59181357D01*
X48143623Y-59315637D01*
X47972717Y-59486543D01*
X47838437Y-59687508D01*
X47745943Y-59910807D01*
X47698790Y-60147861D01*
X47612790Y-60147861D01*
X47565637Y-59910807D01*
X47473143Y-59687508D01*
X47338863Y-59486543D01*
X47167957Y-59315637D01*
X46966992Y-59181357D01*
X46743693Y-59088863D01*
X46506639Y-59041710D01*
X46264941Y-59041710D01*
X46027887Y-59088863D01*
X45804588Y-59181357D01*
X45603623Y-59315637D01*
X45432717Y-59486543D01*
X45298437Y-59687508D01*
X45205943Y-59910807D01*
X45158790Y-60147861D01*
X44402000Y-60147861D01*
X44402000Y-57607861D01*
X45158790Y-57607861D01*
X45158790Y-57849559D01*
X45205943Y-58086613D01*
X45298437Y-58309912D01*
X45432717Y-58510877D01*
X45603623Y-58681783D01*
X45804588Y-58816063D01*
X46027887Y-58908557D01*
X46264941Y-58955710D01*
X46506639Y-58955710D01*
X46743693Y-58908557D01*
X46966992Y-58816063D01*
X47167957Y-58681783D01*
X47338863Y-58510877D01*
X47473143Y-58309912D01*
X47565637Y-58086613D01*
X47612790Y-57849559D01*
X47612790Y-57607861D01*
X47698790Y-57607861D01*
X47698790Y-57849559D01*
X47745943Y-58086613D01*
X47838437Y-58309912D01*
X47972717Y-58510877D01*
X48143623Y-58681783D01*
X48344588Y-58816063D01*
X48567887Y-58908557D01*
X48804941Y-58955710D01*
X49046639Y-58955710D01*
X49283693Y-58908557D01*
X49306557Y-58899086D01*
X86010000Y-58899086D01*
X86010000Y-59040914D01*
X86037669Y-59180016D01*
X86091944Y-59311048D01*
X86170739Y-59428973D01*
X86271027Y-59529261D01*
X86388952Y-59608056D01*
X86519984Y-59662331D01*
X86659086Y-59690000D01*
X86800914Y-59690000D01*
X86940016Y-59662331D01*
X87071048Y-59608056D01*
X87188973Y-59529261D01*
X87289261Y-59428973D01*
X87368056Y-59311048D01*
X87422331Y-59180016D01*
X87450000Y-59040914D01*
X87450000Y-58899086D01*
X87422331Y-58759984D01*
X87368056Y-58628952D01*
X87289261Y-58511027D01*
X87188973Y-58410739D01*
X87071048Y-58331944D01*
X86940016Y-58277669D01*
X86800914Y-58250000D01*
X86659086Y-58250000D01*
X86519984Y-58277669D01*
X86388952Y-58331944D01*
X86271027Y-58410739D01*
X86170739Y-58511027D01*
X86091944Y-58628952D01*
X86037669Y-58759984D01*
X86010000Y-58899086D01*
X49306557Y-58899086D01*
X49506992Y-58816063D01*
X49707957Y-58681783D01*
X49878863Y-58510877D01*
X50013143Y-58309912D01*
X50105637Y-58086613D01*
X50152790Y-57849559D01*
X50152790Y-57607861D01*
X50105637Y-57370807D01*
X50013143Y-57147508D01*
X49878863Y-56946543D01*
X49707957Y-56775637D01*
X49506992Y-56641357D01*
X49283693Y-56548863D01*
X49046639Y-56501710D01*
X48804941Y-56501710D01*
X48567887Y-56548863D01*
X48344588Y-56641357D01*
X48143623Y-56775637D01*
X47972717Y-56946543D01*
X47838437Y-57147508D01*
X47745943Y-57370807D01*
X47698790Y-57607861D01*
X47612790Y-57607861D01*
X47565637Y-57370807D01*
X47473143Y-57147508D01*
X47338863Y-56946543D01*
X47167957Y-56775637D01*
X46966992Y-56641357D01*
X46743693Y-56548863D01*
X46506639Y-56501710D01*
X46264941Y-56501710D01*
X46027887Y-56548863D01*
X45804588Y-56641357D01*
X45603623Y-56775637D01*
X45432717Y-56946543D01*
X45298437Y-57147508D01*
X45205943Y-57370807D01*
X45158790Y-57607861D01*
X44402000Y-57607861D01*
X44402000Y-55067861D01*
X45158790Y-55067861D01*
X45158790Y-55309559D01*
X45205943Y-55546613D01*
X45298437Y-55769912D01*
X45432717Y-55970877D01*
X45603623Y-56141783D01*
X45804588Y-56276063D01*
X46027887Y-56368557D01*
X46264941Y-56415710D01*
X46506639Y-56415710D01*
X46743693Y-56368557D01*
X46966992Y-56276063D01*
X47167957Y-56141783D01*
X47338863Y-55970877D01*
X47473143Y-55769912D01*
X47565637Y-55546613D01*
X47612790Y-55309559D01*
X47612790Y-55067861D01*
X47698790Y-55067861D01*
X47698790Y-55309559D01*
X47745943Y-55546613D01*
X47838437Y-55769912D01*
X47972717Y-55970877D01*
X48143623Y-56141783D01*
X48344588Y-56276063D01*
X48567887Y-56368557D01*
X48804941Y-56415710D01*
X49046639Y-56415710D01*
X49283693Y-56368557D01*
X49506992Y-56276063D01*
X49707957Y-56141783D01*
X49878863Y-55970877D01*
X50013143Y-55769912D01*
X50034195Y-55719086D01*
X69240000Y-55719086D01*
X69240000Y-55860914D01*
X69267669Y-56000016D01*
X69321944Y-56131048D01*
X69349630Y-56172483D01*
X69331944Y-56198952D01*
X69277669Y-56329984D01*
X69250000Y-56469086D01*
X69250000Y-56610914D01*
X69277669Y-56750016D01*
X69331944Y-56881048D01*
X69410739Y-56998973D01*
X69511027Y-57099261D01*
X69628952Y-57178056D01*
X69759984Y-57232331D01*
X69899086Y-57260000D01*
X70040914Y-57260000D01*
X70180016Y-57232331D01*
X70284419Y-57189086D01*
X88470000Y-57189086D01*
X88470000Y-57330914D01*
X88497669Y-57470016D01*
X88551944Y-57601048D01*
X88630739Y-57718973D01*
X88731027Y-57819261D01*
X88848952Y-57898056D01*
X88979984Y-57952331D01*
X89119086Y-57980000D01*
X89260914Y-57980000D01*
X89400016Y-57952331D01*
X89531048Y-57898056D01*
X89648973Y-57819261D01*
X89749261Y-57718973D01*
X89769230Y-57689086D01*
X92540000Y-57689086D01*
X92540000Y-57830914D01*
X92567669Y-57970016D01*
X92621944Y-58101048D01*
X92700739Y-58218973D01*
X92801027Y-58319261D01*
X92918952Y-58398056D01*
X93049984Y-58452331D01*
X93189086Y-58480000D01*
X93330914Y-58480000D01*
X93465129Y-58453303D01*
X93460000Y-58479086D01*
X93460000Y-58620914D01*
X93487669Y-58760016D01*
X93541944Y-58891048D01*
X93620739Y-59008973D01*
X93721027Y-59109261D01*
X93838952Y-59188056D01*
X93969984Y-59242331D01*
X94109086Y-59270000D01*
X94250914Y-59270000D01*
X94390016Y-59242331D01*
X94521048Y-59188056D01*
X94619481Y-59122285D01*
X94560739Y-59181027D01*
X94481944Y-59298952D01*
X94427669Y-59429984D01*
X94400000Y-59569086D01*
X94400000Y-59710914D01*
X94427669Y-59850016D01*
X94481944Y-59981048D01*
X94560739Y-60098973D01*
X94661027Y-60199261D01*
X94778952Y-60278056D01*
X94909984Y-60332331D01*
X95049086Y-60360000D01*
X95190914Y-60360000D01*
X95330016Y-60332331D01*
X95461048Y-60278056D01*
X95578973Y-60199261D01*
X95679261Y-60098973D01*
X95758056Y-59981048D01*
X95812331Y-59850016D01*
X95840000Y-59710914D01*
X95840000Y-59569086D01*
X95812331Y-59429984D01*
X95758056Y-59298952D01*
X95679261Y-59181027D01*
X95578973Y-59080739D01*
X95461048Y-59001944D01*
X95330016Y-58947669D01*
X95190914Y-58920000D01*
X95049086Y-58920000D01*
X94909984Y-58947669D01*
X94778952Y-59001944D01*
X94680519Y-59067715D01*
X94739261Y-59008973D01*
X94818056Y-58891048D01*
X94872331Y-58760016D01*
X94900000Y-58620914D01*
X94900000Y-58479086D01*
X94872331Y-58339984D01*
X94818056Y-58208952D01*
X94739261Y-58091027D01*
X94638973Y-57990739D01*
X94521048Y-57911944D01*
X94390016Y-57857669D01*
X94250914Y-57830000D01*
X94109086Y-57830000D01*
X93974871Y-57856697D01*
X93980000Y-57830914D01*
X93980000Y-57689086D01*
X93952331Y-57549984D01*
X93898056Y-57418952D01*
X93819261Y-57301027D01*
X93718973Y-57200739D01*
X93601048Y-57121944D01*
X93470016Y-57067669D01*
X93330914Y-57040000D01*
X93189086Y-57040000D01*
X93049984Y-57067669D01*
X92918952Y-57121944D01*
X92801027Y-57200739D01*
X92700739Y-57301027D01*
X92621944Y-57418952D01*
X92567669Y-57549984D01*
X92540000Y-57689086D01*
X89769230Y-57689086D01*
X89828056Y-57601048D01*
X89882331Y-57470016D01*
X89910000Y-57330914D01*
X89910000Y-57189086D01*
X89882331Y-57049984D01*
X89828056Y-56918952D01*
X89749261Y-56801027D01*
X89648973Y-56700739D01*
X89531048Y-56621944D01*
X89400016Y-56567669D01*
X89260914Y-56540000D01*
X89119086Y-56540000D01*
X88979984Y-56567669D01*
X88848952Y-56621944D01*
X88731027Y-56700739D01*
X88630739Y-56801027D01*
X88551944Y-56918952D01*
X88497669Y-57049984D01*
X88470000Y-57189086D01*
X70284419Y-57189086D01*
X70311048Y-57178056D01*
X70428973Y-57099261D01*
X70529261Y-56998973D01*
X70608056Y-56881048D01*
X70662331Y-56750016D01*
X70690000Y-56610914D01*
X70690000Y-56469086D01*
X70662331Y-56329984D01*
X70608056Y-56198952D01*
X70580370Y-56157517D01*
X70598056Y-56131048D01*
X70652331Y-56000016D01*
X70680000Y-55860914D01*
X70680000Y-55719086D01*
X70652331Y-55579984D01*
X70598056Y-55448952D01*
X70519261Y-55331027D01*
X70418973Y-55230739D01*
X70301048Y-55151944D01*
X70170016Y-55097669D01*
X70030914Y-55070000D01*
X69889086Y-55070000D01*
X69749984Y-55097669D01*
X69618952Y-55151944D01*
X69501027Y-55230739D01*
X69400739Y-55331027D01*
X69321944Y-55448952D01*
X69267669Y-55579984D01*
X69240000Y-55719086D01*
X50034195Y-55719086D01*
X50105637Y-55546613D01*
X50152790Y-55309559D01*
X50152790Y-55067861D01*
X50105637Y-54830807D01*
X50013143Y-54607508D01*
X49878863Y-54406543D01*
X49707957Y-54235637D01*
X49506992Y-54101357D01*
X49283693Y-54008863D01*
X49046639Y-53961710D01*
X48804941Y-53961710D01*
X48567887Y-54008863D01*
X48344588Y-54101357D01*
X48143623Y-54235637D01*
X47972717Y-54406543D01*
X47838437Y-54607508D01*
X47745943Y-54830807D01*
X47698790Y-55067861D01*
X47612790Y-55067861D01*
X47565637Y-54830807D01*
X47473143Y-54607508D01*
X47338863Y-54406543D01*
X47167957Y-54235637D01*
X46966992Y-54101357D01*
X46743693Y-54008863D01*
X46506639Y-53961710D01*
X46264941Y-53961710D01*
X46027887Y-54008863D01*
X45804588Y-54101357D01*
X45603623Y-54235637D01*
X45432717Y-54406543D01*
X45298437Y-54607508D01*
X45205943Y-54830807D01*
X45158790Y-55067861D01*
X44402000Y-55067861D01*
X44402000Y-52527861D01*
X45158790Y-52527861D01*
X45158790Y-52769559D01*
X45205943Y-53006613D01*
X45298437Y-53229912D01*
X45432717Y-53430877D01*
X45603623Y-53601783D01*
X45804588Y-53736063D01*
X46027887Y-53828557D01*
X46264941Y-53875710D01*
X46506639Y-53875710D01*
X46743693Y-53828557D01*
X46966992Y-53736063D01*
X47167957Y-53601783D01*
X47338863Y-53430877D01*
X47473143Y-53229912D01*
X47565637Y-53006613D01*
X47612790Y-52769559D01*
X47612790Y-52527861D01*
X47698790Y-52527861D01*
X47698790Y-52769559D01*
X47745943Y-53006613D01*
X47838437Y-53229912D01*
X47972717Y-53430877D01*
X48143623Y-53601783D01*
X48344588Y-53736063D01*
X48567887Y-53828557D01*
X48804941Y-53875710D01*
X49046639Y-53875710D01*
X49283693Y-53828557D01*
X49506992Y-53736063D01*
X49707957Y-53601783D01*
X49878863Y-53430877D01*
X50013143Y-53229912D01*
X50049659Y-53141755D01*
X72016508Y-53141755D01*
X72016508Y-53283583D01*
X72044177Y-53422685D01*
X72098452Y-53553717D01*
X72177247Y-53671642D01*
X72277535Y-53771930D01*
X72395460Y-53850725D01*
X72526492Y-53905000D01*
X72665594Y-53932669D01*
X72807422Y-53932669D01*
X72946524Y-53905000D01*
X73077556Y-53850725D01*
X73195481Y-53771930D01*
X73295769Y-53671642D01*
X73374564Y-53553717D01*
X73428839Y-53422685D01*
X73456508Y-53283583D01*
X73456508Y-53141755D01*
X73428839Y-53002653D01*
X73374564Y-52871621D01*
X73295769Y-52753696D01*
X73231159Y-52689086D01*
X75070000Y-52689086D01*
X75070000Y-52830914D01*
X75097669Y-52970016D01*
X75151944Y-53101048D01*
X75230739Y-53218973D01*
X75331027Y-53319261D01*
X75448952Y-53398056D01*
X75579984Y-53452331D01*
X75719086Y-53480000D01*
X75860914Y-53480000D01*
X76000016Y-53452331D01*
X76131048Y-53398056D01*
X76248973Y-53319261D01*
X76349261Y-53218973D01*
X76428056Y-53101048D01*
X76437152Y-53079086D01*
X83700000Y-53079086D01*
X83700000Y-53220914D01*
X83727669Y-53360016D01*
X83781944Y-53491048D01*
X83860739Y-53608973D01*
X83961027Y-53709261D01*
X84078952Y-53788056D01*
X84209984Y-53842331D01*
X84349086Y-53870000D01*
X84490914Y-53870000D01*
X84630016Y-53842331D01*
X84761048Y-53788056D01*
X84878973Y-53709261D01*
X84979261Y-53608973D01*
X85038318Y-53520588D01*
X85110739Y-53628973D01*
X85211027Y-53729261D01*
X85328952Y-53808056D01*
X85459984Y-53862331D01*
X85599086Y-53890000D01*
X85740914Y-53890000D01*
X85880016Y-53862331D01*
X86011048Y-53808056D01*
X86128973Y-53729261D01*
X86229261Y-53628973D01*
X86308056Y-53511048D01*
X86362331Y-53380016D01*
X86390000Y-53240914D01*
X86390000Y-53099086D01*
X86362331Y-52959984D01*
X86308056Y-52828952D01*
X86229261Y-52711027D01*
X86128973Y-52610739D01*
X86011048Y-52531944D01*
X85880016Y-52477669D01*
X85740914Y-52450000D01*
X85599086Y-52450000D01*
X85459984Y-52477669D01*
X85328952Y-52531944D01*
X85211027Y-52610739D01*
X85110739Y-52711027D01*
X85051682Y-52799412D01*
X84979261Y-52691027D01*
X84878973Y-52590739D01*
X84761048Y-52511944D01*
X84630016Y-52457669D01*
X84490914Y-52430000D01*
X84349086Y-52430000D01*
X84209984Y-52457669D01*
X84078952Y-52511944D01*
X83961027Y-52590739D01*
X83860739Y-52691027D01*
X83781944Y-52808952D01*
X83727669Y-52939984D01*
X83700000Y-53079086D01*
X76437152Y-53079086D01*
X76482331Y-52970016D01*
X76510000Y-52830914D01*
X76510000Y-52689086D01*
X76482331Y-52549984D01*
X76428056Y-52418952D01*
X76349261Y-52301027D01*
X76257320Y-52209086D01*
X80720000Y-52209086D01*
X80720000Y-52350914D01*
X80747669Y-52490016D01*
X80801944Y-52621048D01*
X80880739Y-52738973D01*
X80981027Y-52839261D01*
X81098952Y-52918056D01*
X81229984Y-52972331D01*
X81369086Y-53000000D01*
X81510914Y-53000000D01*
X81650016Y-52972331D01*
X81781048Y-52918056D01*
X81898973Y-52839261D01*
X81999261Y-52738973D01*
X82078056Y-52621048D01*
X82132331Y-52490016D01*
X82160000Y-52350914D01*
X82160000Y-52209086D01*
X82132331Y-52069984D01*
X82078056Y-51938952D01*
X81999261Y-51821027D01*
X81923234Y-51745000D01*
X82009261Y-51658973D01*
X82088056Y-51541048D01*
X82142331Y-51410016D01*
X82170000Y-51270914D01*
X82170000Y-51129086D01*
X82142331Y-50989984D01*
X82088056Y-50858952D01*
X82009261Y-50741027D01*
X81908973Y-50640739D01*
X81791048Y-50561944D01*
X81660016Y-50507669D01*
X81520914Y-50480000D01*
X81379086Y-50480000D01*
X81239984Y-50507669D01*
X81108952Y-50561944D01*
X80991027Y-50640739D01*
X80890739Y-50741027D01*
X80811944Y-50858952D01*
X80757669Y-50989984D01*
X80730000Y-51129086D01*
X80730000Y-51270914D01*
X80757669Y-51410016D01*
X80811944Y-51541048D01*
X80890739Y-51658973D01*
X80966766Y-51735000D01*
X80880739Y-51821027D01*
X80801944Y-51938952D01*
X80747669Y-52069984D01*
X80720000Y-52209086D01*
X76257320Y-52209086D01*
X76248973Y-52200739D01*
X76131048Y-52121944D01*
X76000016Y-52067669D01*
X75860914Y-52040000D01*
X75719086Y-52040000D01*
X75579984Y-52067669D01*
X75448952Y-52121944D01*
X75331027Y-52200739D01*
X75230739Y-52301027D01*
X75151944Y-52418952D01*
X75097669Y-52549984D01*
X75070000Y-52689086D01*
X73231159Y-52689086D01*
X73195481Y-52653408D01*
X73077556Y-52574613D01*
X72946524Y-52520338D01*
X72807422Y-52492669D01*
X72665594Y-52492669D01*
X72526492Y-52520338D01*
X72395460Y-52574613D01*
X72277535Y-52653408D01*
X72177247Y-52753696D01*
X72098452Y-52871621D01*
X72044177Y-53002653D01*
X72016508Y-53141755D01*
X50049659Y-53141755D01*
X50105637Y-53006613D01*
X50152790Y-52769559D01*
X50152790Y-52527861D01*
X50105637Y-52290807D01*
X50013143Y-52067508D01*
X49878863Y-51866543D01*
X49707957Y-51695637D01*
X49506992Y-51561357D01*
X49283693Y-51468863D01*
X49046639Y-51421710D01*
X48804941Y-51421710D01*
X48567887Y-51468863D01*
X48344588Y-51561357D01*
X48143623Y-51695637D01*
X47972717Y-51866543D01*
X47838437Y-52067508D01*
X47745943Y-52290807D01*
X47698790Y-52527861D01*
X47612790Y-52527861D01*
X47565637Y-52290807D01*
X47473143Y-52067508D01*
X47338863Y-51866543D01*
X47167957Y-51695637D01*
X46966992Y-51561357D01*
X46743693Y-51468863D01*
X46506639Y-51421710D01*
X46264941Y-51421710D01*
X46027887Y-51468863D01*
X45804588Y-51561357D01*
X45603623Y-51695637D01*
X45432717Y-51866543D01*
X45298437Y-52067508D01*
X45205943Y-52290807D01*
X45158790Y-52527861D01*
X44402000Y-52527861D01*
X44402000Y-49987861D01*
X45158790Y-49987861D01*
X45158790Y-50229559D01*
X45205943Y-50466613D01*
X45298437Y-50689912D01*
X45432717Y-50890877D01*
X45603623Y-51061783D01*
X45804588Y-51196063D01*
X46027887Y-51288557D01*
X46264941Y-51335710D01*
X46506639Y-51335710D01*
X46743693Y-51288557D01*
X46966992Y-51196063D01*
X47167957Y-51061783D01*
X47338863Y-50890877D01*
X47473143Y-50689912D01*
X47565637Y-50466613D01*
X47612790Y-50229559D01*
X47612790Y-49987861D01*
X47698790Y-49987861D01*
X47698790Y-50229559D01*
X47745943Y-50466613D01*
X47838437Y-50689912D01*
X47972717Y-50890877D01*
X48143623Y-51061783D01*
X48344588Y-51196063D01*
X48567887Y-51288557D01*
X48804941Y-51335710D01*
X49046639Y-51335710D01*
X49283693Y-51288557D01*
X49506992Y-51196063D01*
X49707957Y-51061783D01*
X49878863Y-50890877D01*
X50013143Y-50689912D01*
X50105637Y-50466613D01*
X50152790Y-50229559D01*
X50152790Y-49987861D01*
X50105637Y-49750807D01*
X50013143Y-49527508D01*
X49878863Y-49326543D01*
X49707957Y-49155637D01*
X49506992Y-49021357D01*
X49283693Y-48928863D01*
X49046639Y-48881710D01*
X48804941Y-48881710D01*
X48567887Y-48928863D01*
X48344588Y-49021357D01*
X48143623Y-49155637D01*
X47972717Y-49326543D01*
X47838437Y-49527508D01*
X47745943Y-49750807D01*
X47698790Y-49987861D01*
X47612790Y-49987861D01*
X47565637Y-49750807D01*
X47473143Y-49527508D01*
X47338863Y-49326543D01*
X47167957Y-49155637D01*
X46966992Y-49021357D01*
X46743693Y-48928863D01*
X46506639Y-48881710D01*
X46264941Y-48881710D01*
X46027887Y-48928863D01*
X45804588Y-49021357D01*
X45603623Y-49155637D01*
X45432717Y-49326543D01*
X45298437Y-49527508D01*
X45205943Y-49750807D01*
X45158790Y-49987861D01*
X44402000Y-49987861D01*
X44402000Y-47447861D01*
X47698790Y-47447861D01*
X47698790Y-47689559D01*
X47745943Y-47926613D01*
X47838437Y-48149912D01*
X47972717Y-48350877D01*
X48143623Y-48521783D01*
X48344588Y-48656063D01*
X48567887Y-48748557D01*
X48804941Y-48795710D01*
X49046639Y-48795710D01*
X49283693Y-48748557D01*
X49506992Y-48656063D01*
X49707957Y-48521783D01*
X49878863Y-48350877D01*
X50013143Y-48149912D01*
X50105637Y-47926613D01*
X50152790Y-47689559D01*
X50152790Y-47447861D01*
X50105637Y-47210807D01*
X50013143Y-46987508D01*
X49878863Y-46786543D01*
X49707957Y-46615637D01*
X49506992Y-46481357D01*
X49283693Y-46388863D01*
X49046639Y-46341710D01*
X48804941Y-46341710D01*
X48567887Y-46388863D01*
X48344588Y-46481357D01*
X48143623Y-46615637D01*
X47972717Y-46786543D01*
X47838437Y-46987508D01*
X47745943Y-47210807D01*
X47698790Y-47447861D01*
X44402000Y-47447861D01*
X44402000Y-44907861D01*
X45158790Y-44907861D01*
X45158790Y-45149559D01*
X45205943Y-45386613D01*
X45298437Y-45609912D01*
X45432717Y-45810877D01*
X45603623Y-45981783D01*
X45804588Y-46116063D01*
X46027887Y-46208557D01*
X46264941Y-46255710D01*
X46506639Y-46255710D01*
X46743693Y-46208557D01*
X46966992Y-46116063D01*
X47167957Y-45981783D01*
X47338863Y-45810877D01*
X47473143Y-45609912D01*
X47565637Y-45386613D01*
X47612790Y-45149559D01*
X47612790Y-44907861D01*
X47698790Y-44907861D01*
X47698790Y-45149559D01*
X47745943Y-45386613D01*
X47838437Y-45609912D01*
X47972717Y-45810877D01*
X48143623Y-45981783D01*
X48344588Y-46116063D01*
X48567887Y-46208557D01*
X48804941Y-46255710D01*
X49046639Y-46255710D01*
X49283693Y-46208557D01*
X49506992Y-46116063D01*
X49707957Y-45981783D01*
X49878863Y-45810877D01*
X50013143Y-45609912D01*
X50105637Y-45386613D01*
X50152790Y-45149559D01*
X50152790Y-44907861D01*
X50105637Y-44670807D01*
X50013143Y-44447508D01*
X49878863Y-44246543D01*
X49707957Y-44075637D01*
X49506992Y-43941357D01*
X49283693Y-43848863D01*
X49046639Y-43801710D01*
X48804941Y-43801710D01*
X48567887Y-43848863D01*
X48344588Y-43941357D01*
X48143623Y-44075637D01*
X47972717Y-44246543D01*
X47838437Y-44447508D01*
X47745943Y-44670807D01*
X47698790Y-44907861D01*
X47612790Y-44907861D01*
X47565637Y-44670807D01*
X47473143Y-44447508D01*
X47338863Y-44246543D01*
X47167957Y-44075637D01*
X46966992Y-43941357D01*
X46743693Y-43848863D01*
X46506639Y-43801710D01*
X46264941Y-43801710D01*
X46027887Y-43848863D01*
X45804588Y-43941357D01*
X45603623Y-44075637D01*
X45432717Y-44246543D01*
X45298437Y-44447508D01*
X45205943Y-44670807D01*
X45158790Y-44907861D01*
X44402000Y-44907861D01*
X44402000Y-42367861D01*
X45158790Y-42367861D01*
X45158790Y-42609559D01*
X45205943Y-42846613D01*
X45298437Y-43069912D01*
X45432717Y-43270877D01*
X45603623Y-43441783D01*
X45804588Y-43576063D01*
X46027887Y-43668557D01*
X46264941Y-43715710D01*
X46506639Y-43715710D01*
X46743693Y-43668557D01*
X46966992Y-43576063D01*
X47167957Y-43441783D01*
X47338863Y-43270877D01*
X47473143Y-43069912D01*
X47565637Y-42846613D01*
X47612790Y-42609559D01*
X47612790Y-42367861D01*
X47698790Y-42367861D01*
X47698790Y-42609559D01*
X47745943Y-42846613D01*
X47838437Y-43069912D01*
X47972717Y-43270877D01*
X48143623Y-43441783D01*
X48344588Y-43576063D01*
X48567887Y-43668557D01*
X48804941Y-43715710D01*
X49046639Y-43715710D01*
X49283693Y-43668557D01*
X49506992Y-43576063D01*
X49707957Y-43441783D01*
X49878863Y-43270877D01*
X50013143Y-43069912D01*
X50105637Y-42846613D01*
X50152790Y-42609559D01*
X50152790Y-42367861D01*
X50105637Y-42130807D01*
X50013143Y-41907508D01*
X49878863Y-41706543D01*
X49707957Y-41535637D01*
X49506992Y-41401357D01*
X49283693Y-41308863D01*
X49046639Y-41261710D01*
X48804941Y-41261710D01*
X48567887Y-41308863D01*
X48344588Y-41401357D01*
X48143623Y-41535637D01*
X47972717Y-41706543D01*
X47838437Y-41907508D01*
X47745943Y-42130807D01*
X47698790Y-42367861D01*
X47612790Y-42367861D01*
X47565637Y-42130807D01*
X47473143Y-41907508D01*
X47338863Y-41706543D01*
X47167957Y-41535637D01*
X46966992Y-41401357D01*
X46743693Y-41308863D01*
X46506639Y-41261710D01*
X46264941Y-41261710D01*
X46027887Y-41308863D01*
X45804588Y-41401357D01*
X45603623Y-41535637D01*
X45432717Y-41706543D01*
X45298437Y-41907508D01*
X45205943Y-42130807D01*
X45158790Y-42367861D01*
X44402000Y-42367861D01*
X44402000Y-39827861D01*
X45158790Y-39827861D01*
X45158790Y-40069559D01*
X45205943Y-40306613D01*
X45298437Y-40529912D01*
X45432717Y-40730877D01*
X45603623Y-40901783D01*
X45804588Y-41036063D01*
X46027887Y-41128557D01*
X46264941Y-41175710D01*
X46506639Y-41175710D01*
X46743693Y-41128557D01*
X46966992Y-41036063D01*
X47167957Y-40901783D01*
X47338863Y-40730877D01*
X47473143Y-40529912D01*
X47565637Y-40306613D01*
X47612790Y-40069559D01*
X47612790Y-39827861D01*
X47698790Y-39827861D01*
X47698790Y-40069559D01*
X47745943Y-40306613D01*
X47838437Y-40529912D01*
X47972717Y-40730877D01*
X48143623Y-40901783D01*
X48344588Y-41036063D01*
X48567887Y-41128557D01*
X48804941Y-41175710D01*
X49046639Y-41175710D01*
X49283693Y-41128557D01*
X49506992Y-41036063D01*
X49707957Y-40901783D01*
X49878863Y-40730877D01*
X50013143Y-40529912D01*
X50105637Y-40306613D01*
X50152790Y-40069559D01*
X50152790Y-39827861D01*
X50105637Y-39590807D01*
X50013143Y-39367508D01*
X49878863Y-39166543D01*
X49707957Y-38995637D01*
X49506992Y-38861357D01*
X49283693Y-38768863D01*
X49046639Y-38721710D01*
X48804941Y-38721710D01*
X48567887Y-38768863D01*
X48344588Y-38861357D01*
X48143623Y-38995637D01*
X47972717Y-39166543D01*
X47838437Y-39367508D01*
X47745943Y-39590807D01*
X47698790Y-39827861D01*
X47612790Y-39827861D01*
X47565637Y-39590807D01*
X47473143Y-39367508D01*
X47338863Y-39166543D01*
X47167957Y-38995637D01*
X46966992Y-38861357D01*
X46743693Y-38768863D01*
X46506639Y-38721710D01*
X46264941Y-38721710D01*
X46027887Y-38768863D01*
X45804588Y-38861357D01*
X45603623Y-38995637D01*
X45432717Y-39166543D01*
X45298437Y-39367508D01*
X45205943Y-39590807D01*
X45158790Y-39827861D01*
X44402000Y-39827861D01*
X44402000Y-37287861D01*
X45158790Y-37287861D01*
X45158790Y-37529559D01*
X45205943Y-37766613D01*
X45298437Y-37989912D01*
X45432717Y-38190877D01*
X45603623Y-38361783D01*
X45804588Y-38496063D01*
X46027887Y-38588557D01*
X46264941Y-38635710D01*
X46506639Y-38635710D01*
X46743693Y-38588557D01*
X46966992Y-38496063D01*
X47167957Y-38361783D01*
X47338863Y-38190877D01*
X47473143Y-37989912D01*
X47565637Y-37766613D01*
X47612790Y-37529559D01*
X47612790Y-37287861D01*
X47698790Y-37287861D01*
X47698790Y-37529559D01*
X47745943Y-37766613D01*
X47838437Y-37989912D01*
X47972717Y-38190877D01*
X48143623Y-38361783D01*
X48344588Y-38496063D01*
X48567887Y-38588557D01*
X48804941Y-38635710D01*
X49046639Y-38635710D01*
X49283693Y-38588557D01*
X49506992Y-38496063D01*
X49707957Y-38361783D01*
X49878863Y-38190877D01*
X50013143Y-37989912D01*
X50105637Y-37766613D01*
X50152790Y-37529559D01*
X50152790Y-37287861D01*
X50105637Y-37050807D01*
X50013143Y-36827508D01*
X49878863Y-36626543D01*
X49707957Y-36455637D01*
X49506992Y-36321357D01*
X49283693Y-36228863D01*
X49046639Y-36181710D01*
X48804941Y-36181710D01*
X48567887Y-36228863D01*
X48344588Y-36321357D01*
X48143623Y-36455637D01*
X47972717Y-36626543D01*
X47838437Y-36827508D01*
X47745943Y-37050807D01*
X47698790Y-37287861D01*
X47612790Y-37287861D01*
X47565637Y-37050807D01*
X47473143Y-36827508D01*
X47338863Y-36626543D01*
X47167957Y-36455637D01*
X46966992Y-36321357D01*
X46743693Y-36228863D01*
X46506639Y-36181710D01*
X46264941Y-36181710D01*
X46027887Y-36228863D01*
X45804588Y-36321357D01*
X45603623Y-36455637D01*
X45432717Y-36626543D01*
X45298437Y-36827508D01*
X45205943Y-37050807D01*
X45158790Y-37287861D01*
X44402000Y-37287861D01*
X44402000Y-34747861D01*
X45158790Y-34747861D01*
X45158790Y-34989559D01*
X45205943Y-35226613D01*
X45298437Y-35449912D01*
X45432717Y-35650877D01*
X45603623Y-35821783D01*
X45804588Y-35956063D01*
X46027887Y-36048557D01*
X46264941Y-36095710D01*
X46506639Y-36095710D01*
X46743693Y-36048557D01*
X46966992Y-35956063D01*
X47167957Y-35821783D01*
X47338863Y-35650877D01*
X47473143Y-35449912D01*
X47565637Y-35226613D01*
X47612790Y-34989559D01*
X47612790Y-34747861D01*
X47698790Y-34747861D01*
X47698790Y-34989559D01*
X47745943Y-35226613D01*
X47838437Y-35449912D01*
X47972717Y-35650877D01*
X48143623Y-35821783D01*
X48344588Y-35956063D01*
X48567887Y-36048557D01*
X48804941Y-36095710D01*
X49046639Y-36095710D01*
X49283693Y-36048557D01*
X49506992Y-35956063D01*
X49707957Y-35821783D01*
X49878863Y-35650877D01*
X50013143Y-35449912D01*
X50105637Y-35226613D01*
X50152790Y-34989559D01*
X50152790Y-34747861D01*
X50105637Y-34510807D01*
X50013143Y-34287508D01*
X49878863Y-34086543D01*
X49707957Y-33915637D01*
X49506992Y-33781357D01*
X49283693Y-33688863D01*
X49046639Y-33641710D01*
X48804941Y-33641710D01*
X48567887Y-33688863D01*
X48344588Y-33781357D01*
X48143623Y-33915637D01*
X47972717Y-34086543D01*
X47838437Y-34287508D01*
X47745943Y-34510807D01*
X47698790Y-34747861D01*
X47612790Y-34747861D01*
X47565637Y-34510807D01*
X47473143Y-34287508D01*
X47338863Y-34086543D01*
X47167957Y-33915637D01*
X46966992Y-33781357D01*
X46743693Y-33688863D01*
X46506639Y-33641710D01*
X46264941Y-33641710D01*
X46027887Y-33688863D01*
X45804588Y-33781357D01*
X45603623Y-33915637D01*
X45432717Y-34086543D01*
X45298437Y-34287508D01*
X45205943Y-34510807D01*
X45158790Y-34747861D01*
X44402000Y-34747861D01*
X44402000Y-32207861D01*
X45158790Y-32207861D01*
X45158790Y-32449559D01*
X45205943Y-32686613D01*
X45298437Y-32909912D01*
X45432717Y-33110877D01*
X45603623Y-33281783D01*
X45804588Y-33416063D01*
X46027887Y-33508557D01*
X46264941Y-33555710D01*
X46506639Y-33555710D01*
X46743693Y-33508557D01*
X46966992Y-33416063D01*
X47167957Y-33281783D01*
X47338863Y-33110877D01*
X47473143Y-32909912D01*
X47565637Y-32686613D01*
X47612790Y-32449559D01*
X47612790Y-32207861D01*
X47698790Y-32207861D01*
X47698790Y-32449559D01*
X47745943Y-32686613D01*
X47838437Y-32909912D01*
X47972717Y-33110877D01*
X48143623Y-33281783D01*
X48344588Y-33416063D01*
X48567887Y-33508557D01*
X48804941Y-33555710D01*
X49046639Y-33555710D01*
X49283693Y-33508557D01*
X49506992Y-33416063D01*
X49707957Y-33281783D01*
X49878863Y-33110877D01*
X50013143Y-32909912D01*
X50105637Y-32686613D01*
X50152790Y-32449559D01*
X50152790Y-32207861D01*
X50105637Y-31970807D01*
X50013143Y-31747508D01*
X49878863Y-31546543D01*
X49707957Y-31375637D01*
X49506992Y-31241357D01*
X49283693Y-31148863D01*
X49046639Y-31101710D01*
X48804941Y-31101710D01*
X48567887Y-31148863D01*
X48344588Y-31241357D01*
X48143623Y-31375637D01*
X47972717Y-31546543D01*
X47838437Y-31747508D01*
X47745943Y-31970807D01*
X47698790Y-32207861D01*
X47612790Y-32207861D01*
X47565637Y-31970807D01*
X47473143Y-31747508D01*
X47338863Y-31546543D01*
X47167957Y-31375637D01*
X46966992Y-31241357D01*
X46743693Y-31148863D01*
X46506639Y-31101710D01*
X46264941Y-31101710D01*
X46027887Y-31148863D01*
X45804588Y-31241357D01*
X45603623Y-31375637D01*
X45432717Y-31546543D01*
X45298437Y-31747508D01*
X45205943Y-31970807D01*
X45158790Y-32207861D01*
X44402000Y-32207861D01*
X44402000Y-29667861D01*
X45158790Y-29667861D01*
X45158790Y-29909559D01*
X45205943Y-30146613D01*
X45298437Y-30369912D01*
X45432717Y-30570877D01*
X45603623Y-30741783D01*
X45804588Y-30876063D01*
X46027887Y-30968557D01*
X46264941Y-31015710D01*
X46506639Y-31015710D01*
X46743693Y-30968557D01*
X46966992Y-30876063D01*
X47167957Y-30741783D01*
X47338863Y-30570877D01*
X47473143Y-30369912D01*
X47565637Y-30146613D01*
X47612790Y-29909559D01*
X47612790Y-29667861D01*
X47698790Y-29667861D01*
X47698790Y-29909559D01*
X47745943Y-30146613D01*
X47838437Y-30369912D01*
X47972717Y-30570877D01*
X48143623Y-30741783D01*
X48344588Y-30876063D01*
X48567887Y-30968557D01*
X48804941Y-31015710D01*
X49046639Y-31015710D01*
X49283693Y-30968557D01*
X49506992Y-30876063D01*
X49707957Y-30741783D01*
X49878863Y-30570877D01*
X50013143Y-30369912D01*
X50105637Y-30146613D01*
X50152790Y-29909559D01*
X50152790Y-29667861D01*
X50105637Y-29430807D01*
X50013143Y-29207508D01*
X49878863Y-29006543D01*
X49707957Y-28835637D01*
X49506992Y-28701357D01*
X49283693Y-28608863D01*
X49046639Y-28561710D01*
X48804941Y-28561710D01*
X48567887Y-28608863D01*
X48344588Y-28701357D01*
X48143623Y-28835637D01*
X47972717Y-29006543D01*
X47838437Y-29207508D01*
X47745943Y-29430807D01*
X47698790Y-29667861D01*
X47612790Y-29667861D01*
X47565637Y-29430807D01*
X47473143Y-29207508D01*
X47338863Y-29006543D01*
X47167957Y-28835637D01*
X46966992Y-28701357D01*
X46743693Y-28608863D01*
X46506639Y-28561710D01*
X46264941Y-28561710D01*
X46027887Y-28608863D01*
X45804588Y-28701357D01*
X45603623Y-28835637D01*
X45432717Y-29006543D01*
X45298437Y-29207508D01*
X45205943Y-29430807D01*
X45158790Y-29667861D01*
X44402000Y-29667861D01*
X44402000Y-27127861D01*
X45158790Y-27127861D01*
X45158790Y-27369559D01*
X45205943Y-27606613D01*
X45298437Y-27829912D01*
X45432717Y-28030877D01*
X45603623Y-28201783D01*
X45804588Y-28336063D01*
X46027887Y-28428557D01*
X46264941Y-28475710D01*
X46506639Y-28475710D01*
X46743693Y-28428557D01*
X46966992Y-28336063D01*
X47167957Y-28201783D01*
X47338863Y-28030877D01*
X47473143Y-27829912D01*
X47565637Y-27606613D01*
X47612790Y-27369559D01*
X47612790Y-27127861D01*
X47565637Y-26890807D01*
X47473143Y-26667508D01*
X47338863Y-26466543D01*
X47271030Y-26398710D01*
X47696966Y-26398710D01*
X47696966Y-28098710D01*
X47704245Y-28172615D01*
X47725802Y-28243680D01*
X47760809Y-28309173D01*
X47807921Y-28366579D01*
X47865327Y-28413691D01*
X47930820Y-28448698D01*
X48001885Y-28470255D01*
X48075790Y-28477534D01*
X49775790Y-28477534D01*
X49849695Y-28470255D01*
X49920760Y-28448698D01*
X49986253Y-28413691D01*
X50043659Y-28366579D01*
X50090771Y-28309173D01*
X50125778Y-28243680D01*
X50147335Y-28172615D01*
X50154614Y-28098710D01*
X50154614Y-26398710D01*
X50147335Y-26324805D01*
X50125778Y-26253740D01*
X50090771Y-26188247D01*
X50043659Y-26130841D01*
X49986253Y-26083729D01*
X49920760Y-26048722D01*
X49849695Y-26027165D01*
X49775790Y-26019886D01*
X48075790Y-26019886D01*
X48001885Y-26027165D01*
X47930820Y-26048722D01*
X47865327Y-26083729D01*
X47807921Y-26130841D01*
X47760809Y-26188247D01*
X47725802Y-26253740D01*
X47704245Y-26324805D01*
X47696966Y-26398710D01*
X47271030Y-26398710D01*
X47167957Y-26295637D01*
X46966992Y-26161357D01*
X46743693Y-26068863D01*
X46506639Y-26021710D01*
X46264941Y-26021710D01*
X46027887Y-26068863D01*
X45804588Y-26161357D01*
X45603623Y-26295637D01*
X45432717Y-26466543D01*
X45298437Y-26667508D01*
X45205943Y-26890807D01*
X45158790Y-27127861D01*
X44402000Y-27127861D01*
X44402000Y-24402000D01*
X46480253Y-24402000D01*
X46500000Y-24403945D01*
X46519747Y-24402000D01*
X46578806Y-24396183D01*
X46654583Y-24373197D01*
X46724420Y-24335868D01*
X46785632Y-24285632D01*
X46835868Y-24224420D01*
X46873197Y-24154583D01*
X46896183Y-24078806D01*
X46903945Y-24000000D01*
X46902000Y-23980253D01*
X46902000Y-14072000D01*
X56838001Y-14072000D01*
X56838000Y-28460253D01*
%TA.AperFunction,Conductor*%
D19*
G36*
X56838000Y-28460253D02*
G01*
X56836055Y-28480000D01*
X56843817Y-28558806D01*
X56866803Y-28634583D01*
X56904132Y-28704420D01*
X56954368Y-28765632D01*
X57015580Y-28815868D01*
X57085417Y-28853197D01*
X57161194Y-28876183D01*
X57240000Y-28883945D01*
X57259747Y-28882000D01*
X119438001Y-28882000D01*
X119438000Y-87098000D01*
X57259747Y-87098000D01*
X57240000Y-87096055D01*
X57220253Y-87098000D01*
X57161194Y-87103817D01*
X57085417Y-87126803D01*
X57015580Y-87164132D01*
X56954368Y-87214368D01*
X56904132Y-87275580D01*
X56866803Y-87345417D01*
X56843817Y-87421194D01*
X56836055Y-87500000D01*
X56838001Y-87519757D01*
X56838000Y-101348000D01*
X46902000Y-101348000D01*
X46902000Y-91519747D01*
X46903945Y-91500000D01*
X46896183Y-91421194D01*
X46873197Y-91345417D01*
X46835868Y-91275580D01*
X46785632Y-91214368D01*
X46724420Y-91164132D01*
X46654583Y-91126803D01*
X46578806Y-91103817D01*
X46519747Y-91098000D01*
X46500000Y-91096055D01*
X46480253Y-91098000D01*
X44402000Y-91098000D01*
X44402000Y-88087861D01*
X45158790Y-88087861D01*
X45158790Y-88329559D01*
X45205943Y-88566613D01*
X45298437Y-88789912D01*
X45432717Y-88990877D01*
X45603623Y-89161783D01*
X45804588Y-89296063D01*
X46027887Y-89388557D01*
X46264941Y-89435710D01*
X46506639Y-89435710D01*
X46743693Y-89388557D01*
X46966992Y-89296063D01*
X47167957Y-89161783D01*
X47338863Y-88990877D01*
X47473143Y-88789912D01*
X47565637Y-88566613D01*
X47612790Y-88329559D01*
X47612790Y-88087861D01*
X47698790Y-88087861D01*
X47698790Y-88329559D01*
X47745943Y-88566613D01*
X47838437Y-88789912D01*
X47972717Y-88990877D01*
X48143623Y-89161783D01*
X48344588Y-89296063D01*
X48567887Y-89388557D01*
X48804941Y-89435710D01*
X49046639Y-89435710D01*
X49283693Y-89388557D01*
X49506992Y-89296063D01*
X49707957Y-89161783D01*
X49878863Y-88990877D01*
X50013143Y-88789912D01*
X50105637Y-88566613D01*
X50152790Y-88329559D01*
X50152790Y-88087861D01*
X50105637Y-87850807D01*
X50013143Y-87627508D01*
X49878863Y-87426543D01*
X49707957Y-87255637D01*
X49506992Y-87121357D01*
X49283693Y-87028863D01*
X49046639Y-86981710D01*
X48804941Y-86981710D01*
X48567887Y-87028863D01*
X48344588Y-87121357D01*
X48143623Y-87255637D01*
X47972717Y-87426543D01*
X47838437Y-87627508D01*
X47745943Y-87850807D01*
X47698790Y-88087861D01*
X47612790Y-88087861D01*
X47565637Y-87850807D01*
X47473143Y-87627508D01*
X47338863Y-87426543D01*
X47167957Y-87255637D01*
X46966992Y-87121357D01*
X46743693Y-87028863D01*
X46506639Y-86981710D01*
X46264941Y-86981710D01*
X46027887Y-87028863D01*
X45804588Y-87121357D01*
X45603623Y-87255637D01*
X45432717Y-87426543D01*
X45298437Y-87627508D01*
X45205943Y-87850807D01*
X45158790Y-88087861D01*
X44402000Y-88087861D01*
X44402000Y-85547861D01*
X45158790Y-85547861D01*
X45158790Y-85789559D01*
X45205943Y-86026613D01*
X45298437Y-86249912D01*
X45432717Y-86450877D01*
X45603623Y-86621783D01*
X45804588Y-86756063D01*
X46027887Y-86848557D01*
X46264941Y-86895710D01*
X46506639Y-86895710D01*
X46743693Y-86848557D01*
X46966992Y-86756063D01*
X47167957Y-86621783D01*
X47338863Y-86450877D01*
X47473143Y-86249912D01*
X47565637Y-86026613D01*
X47612790Y-85789559D01*
X47612790Y-85547861D01*
X47698790Y-85547861D01*
X47698790Y-85789559D01*
X47745943Y-86026613D01*
X47838437Y-86249912D01*
X47972717Y-86450877D01*
X48143623Y-86621783D01*
X48344588Y-86756063D01*
X48567887Y-86848557D01*
X48804941Y-86895710D01*
X49046639Y-86895710D01*
X49283693Y-86848557D01*
X49506992Y-86756063D01*
X49707957Y-86621783D01*
X49878863Y-86450877D01*
X50013143Y-86249912D01*
X50105637Y-86026613D01*
X50152790Y-85789559D01*
X50152790Y-85547861D01*
X50105637Y-85310807D01*
X50013143Y-85087508D01*
X49878863Y-84886543D01*
X49707957Y-84715637D01*
X49506992Y-84581357D01*
X49283693Y-84488863D01*
X49046639Y-84441710D01*
X48804941Y-84441710D01*
X48567887Y-84488863D01*
X48344588Y-84581357D01*
X48143623Y-84715637D01*
X47972717Y-84886543D01*
X47838437Y-85087508D01*
X47745943Y-85310807D01*
X47698790Y-85547861D01*
X47612790Y-85547861D01*
X47565637Y-85310807D01*
X47473143Y-85087508D01*
X47338863Y-84886543D01*
X47167957Y-84715637D01*
X46966992Y-84581357D01*
X46743693Y-84488863D01*
X46506639Y-84441710D01*
X46264941Y-84441710D01*
X46027887Y-84488863D01*
X45804588Y-84581357D01*
X45603623Y-84715637D01*
X45432717Y-84886543D01*
X45298437Y-85087508D01*
X45205943Y-85310807D01*
X45158790Y-85547861D01*
X44402000Y-85547861D01*
X44402000Y-83007861D01*
X45158790Y-83007861D01*
X45158790Y-83249559D01*
X45205943Y-83486613D01*
X45298437Y-83709912D01*
X45432717Y-83910877D01*
X45603623Y-84081783D01*
X45804588Y-84216063D01*
X46027887Y-84308557D01*
X46264941Y-84355710D01*
X46506639Y-84355710D01*
X46743693Y-84308557D01*
X46966992Y-84216063D01*
X47167957Y-84081783D01*
X47338863Y-83910877D01*
X47473143Y-83709912D01*
X47565637Y-83486613D01*
X47612790Y-83249559D01*
X47612790Y-83007861D01*
X47698790Y-83007861D01*
X47698790Y-83249559D01*
X47745943Y-83486613D01*
X47838437Y-83709912D01*
X47972717Y-83910877D01*
X48143623Y-84081783D01*
X48344588Y-84216063D01*
X48567887Y-84308557D01*
X48804941Y-84355710D01*
X49046639Y-84355710D01*
X49283693Y-84308557D01*
X49506992Y-84216063D01*
X49707957Y-84081783D01*
X49878863Y-83910877D01*
X50013143Y-83709912D01*
X50017248Y-83700000D01*
X97236822Y-83700000D01*
X97261478Y-83950336D01*
X97334498Y-84191051D01*
X97453076Y-84412896D01*
X97612656Y-84607344D01*
X97807104Y-84766924D01*
X98028949Y-84885502D01*
X98269664Y-84958522D01*
X98457274Y-84977000D01*
X99582726Y-84977000D01*
X99770336Y-84958522D01*
X100011051Y-84885502D01*
X100232896Y-84766924D01*
X100427344Y-84607344D01*
X100586924Y-84412896D01*
X100705502Y-84191051D01*
X100778522Y-83950336D01*
X100803178Y-83700000D01*
X100778522Y-83449664D01*
X100705502Y-83208949D01*
X100586924Y-82987104D01*
X100427344Y-82792656D01*
X100232896Y-82633076D01*
X100011051Y-82514498D01*
X99770336Y-82441478D01*
X99582726Y-82423000D01*
X98457274Y-82423000D01*
X98269664Y-82441478D01*
X98028949Y-82514498D01*
X97807104Y-82633076D01*
X97612656Y-82792656D01*
X97453076Y-82987104D01*
X97334498Y-83208949D01*
X97261478Y-83449664D01*
X97236822Y-83700000D01*
X50017248Y-83700000D01*
X50105637Y-83486613D01*
X50152790Y-83249559D01*
X50152790Y-83007861D01*
X50105637Y-82770807D01*
X50013143Y-82547508D01*
X49878863Y-82346543D01*
X49707957Y-82175637D01*
X49506992Y-82041357D01*
X49283693Y-81948863D01*
X49046639Y-81901710D01*
X48804941Y-81901710D01*
X48567887Y-81948863D01*
X48344588Y-82041357D01*
X48143623Y-82175637D01*
X47972717Y-82346543D01*
X47838437Y-82547508D01*
X47745943Y-82770807D01*
X47698790Y-83007861D01*
X47612790Y-83007861D01*
X47565637Y-82770807D01*
X47473143Y-82547508D01*
X47338863Y-82346543D01*
X47167957Y-82175637D01*
X46966992Y-82041357D01*
X46743693Y-81948863D01*
X46506639Y-81901710D01*
X46264941Y-81901710D01*
X46027887Y-81948863D01*
X45804588Y-82041357D01*
X45603623Y-82175637D01*
X45432717Y-82346543D01*
X45298437Y-82547508D01*
X45205943Y-82770807D01*
X45158790Y-83007861D01*
X44402000Y-83007861D01*
X44402000Y-80467861D01*
X45158790Y-80467861D01*
X45158790Y-80709559D01*
X45205943Y-80946613D01*
X45298437Y-81169912D01*
X45432717Y-81370877D01*
X45603623Y-81541783D01*
X45804588Y-81676063D01*
X46027887Y-81768557D01*
X46264941Y-81815710D01*
X46506639Y-81815710D01*
X46743693Y-81768557D01*
X46966992Y-81676063D01*
X47167957Y-81541783D01*
X47338863Y-81370877D01*
X47473143Y-81169912D01*
X47565637Y-80946613D01*
X47612790Y-80709559D01*
X47612790Y-80467861D01*
X47698790Y-80467861D01*
X47698790Y-80709559D01*
X47745943Y-80946613D01*
X47838437Y-81169912D01*
X47972717Y-81370877D01*
X48143623Y-81541783D01*
X48344588Y-81676063D01*
X48567887Y-81768557D01*
X48804941Y-81815710D01*
X49046639Y-81815710D01*
X49283693Y-81768557D01*
X49506992Y-81676063D01*
X49601645Y-81612818D01*
X111301000Y-81612818D01*
X111301000Y-81837182D01*
X111344771Y-82057234D01*
X111430631Y-82264519D01*
X111555281Y-82451070D01*
X111713930Y-82609719D01*
X111900481Y-82734369D01*
X112107766Y-82820229D01*
X112327818Y-82864000D01*
X112552182Y-82864000D01*
X112772234Y-82820229D01*
X112979519Y-82734369D01*
X113166070Y-82609719D01*
X113324719Y-82451070D01*
X113449369Y-82264519D01*
X113535229Y-82057234D01*
X113579000Y-81837182D01*
X113579000Y-81612818D01*
X116381000Y-81612818D01*
X116381000Y-81837182D01*
X116424771Y-82057234D01*
X116510631Y-82264519D01*
X116635281Y-82451070D01*
X116793930Y-82609719D01*
X116980481Y-82734369D01*
X117187766Y-82820229D01*
X117407818Y-82864000D01*
X117632182Y-82864000D01*
X117852234Y-82820229D01*
X118059519Y-82734369D01*
X118246070Y-82609719D01*
X118404719Y-82451070D01*
X118529369Y-82264519D01*
X118615229Y-82057234D01*
X118659000Y-81837182D01*
X118659000Y-81612818D01*
X118615229Y-81392766D01*
X118529369Y-81185481D01*
X118404719Y-80998930D01*
X118246070Y-80840281D01*
X118059519Y-80715631D01*
X117852234Y-80629771D01*
X117632182Y-80586000D01*
X117407818Y-80586000D01*
X117187766Y-80629771D01*
X116980481Y-80715631D01*
X116793930Y-80840281D01*
X116635281Y-80998930D01*
X116510631Y-81185481D01*
X116424771Y-81392766D01*
X116381000Y-81612818D01*
X113579000Y-81612818D01*
X113535229Y-81392766D01*
X113449369Y-81185481D01*
X113324719Y-80998930D01*
X113166070Y-80840281D01*
X112979519Y-80715631D01*
X112772234Y-80629771D01*
X112552182Y-80586000D01*
X112327818Y-80586000D01*
X112107766Y-80629771D01*
X111900481Y-80715631D01*
X111713930Y-80840281D01*
X111555281Y-80998930D01*
X111430631Y-81185481D01*
X111344771Y-81392766D01*
X111301000Y-81612818D01*
X49601645Y-81612818D01*
X49707957Y-81541783D01*
X49878863Y-81370877D01*
X50013143Y-81169912D01*
X50105637Y-80946613D01*
X50152790Y-80709559D01*
X50152790Y-80467861D01*
X50105637Y-80230807D01*
X50013143Y-80007508D01*
X49878863Y-79806543D01*
X49707957Y-79635637D01*
X49506992Y-79501357D01*
X49283693Y-79408863D01*
X49046639Y-79361710D01*
X48804941Y-79361710D01*
X48567887Y-79408863D01*
X48344588Y-79501357D01*
X48143623Y-79635637D01*
X47972717Y-79806543D01*
X47838437Y-80007508D01*
X47745943Y-80230807D01*
X47698790Y-80467861D01*
X47612790Y-80467861D01*
X47565637Y-80230807D01*
X47473143Y-80007508D01*
X47338863Y-79806543D01*
X47167957Y-79635637D01*
X46966992Y-79501357D01*
X46743693Y-79408863D01*
X46506639Y-79361710D01*
X46264941Y-79361710D01*
X46027887Y-79408863D01*
X45804588Y-79501357D01*
X45603623Y-79635637D01*
X45432717Y-79806543D01*
X45298437Y-80007508D01*
X45205943Y-80230807D01*
X45158790Y-80467861D01*
X44402000Y-80467861D01*
X44402000Y-77927861D01*
X45158790Y-77927861D01*
X45158790Y-78169559D01*
X45205943Y-78406613D01*
X45298437Y-78629912D01*
X45432717Y-78830877D01*
X45603623Y-79001783D01*
X45804588Y-79136063D01*
X46027887Y-79228557D01*
X46264941Y-79275710D01*
X46506639Y-79275710D01*
X46743693Y-79228557D01*
X46966992Y-79136063D01*
X47167957Y-79001783D01*
X47338863Y-78830877D01*
X47473143Y-78629912D01*
X47565637Y-78406613D01*
X47612790Y-78169559D01*
X47612790Y-77927861D01*
X47698790Y-77927861D01*
X47698790Y-78169559D01*
X47745943Y-78406613D01*
X47838437Y-78629912D01*
X47972717Y-78830877D01*
X48143623Y-79001783D01*
X48344588Y-79136063D01*
X48567887Y-79228557D01*
X48804941Y-79275710D01*
X49046639Y-79275710D01*
X49283693Y-79228557D01*
X49506992Y-79136063D01*
X49707957Y-79001783D01*
X49878863Y-78830877D01*
X50013143Y-78629912D01*
X50105637Y-78406613D01*
X50152790Y-78169559D01*
X50152790Y-77927861D01*
X50105637Y-77690807D01*
X50013143Y-77467508D01*
X49878863Y-77266543D01*
X49707957Y-77095637D01*
X49698153Y-77089086D01*
X56390000Y-77089086D01*
X56390000Y-77230914D01*
X56417669Y-77370016D01*
X56471944Y-77501048D01*
X56550739Y-77618973D01*
X56651027Y-77719261D01*
X56768952Y-77798056D01*
X56899984Y-77852331D01*
X57039086Y-77880000D01*
X57080000Y-77880000D01*
X57080000Y-77930914D01*
X57107669Y-78070016D01*
X57161944Y-78201048D01*
X57240739Y-78318973D01*
X57341027Y-78419261D01*
X57458952Y-78498056D01*
X57589984Y-78552331D01*
X57729086Y-78580000D01*
X57870914Y-78580000D01*
X58010016Y-78552331D01*
X58141048Y-78498056D01*
X58161970Y-78484076D01*
X68433000Y-78484076D01*
X68433000Y-78715924D01*
X68478231Y-78943318D01*
X68566956Y-79157519D01*
X68695764Y-79350294D01*
X68859706Y-79514236D01*
X69052481Y-79643044D01*
X69266682Y-79731769D01*
X69494076Y-79777000D01*
X69725924Y-79777000D01*
X69953318Y-79731769D01*
X70167519Y-79643044D01*
X70360294Y-79514236D01*
X70524236Y-79350294D01*
X70653044Y-79157519D01*
X70741769Y-78943318D01*
X70755000Y-78876801D01*
X70768231Y-78943318D01*
X70856956Y-79157519D01*
X70985764Y-79350294D01*
X71149706Y-79514236D01*
X71342481Y-79643044D01*
X71556682Y-79731769D01*
X71784076Y-79777000D01*
X72015924Y-79777000D01*
X72243318Y-79731769D01*
X72457519Y-79643044D01*
X72650294Y-79514236D01*
X72814236Y-79350294D01*
X72943044Y-79157519D01*
X73031769Y-78943318D01*
X73045000Y-78876801D01*
X73058231Y-78943318D01*
X73146956Y-79157519D01*
X73275764Y-79350294D01*
X73439706Y-79514236D01*
X73632481Y-79643044D01*
X73846682Y-79731769D01*
X74074076Y-79777000D01*
X74305924Y-79777000D01*
X74533318Y-79731769D01*
X74747519Y-79643044D01*
X74940294Y-79514236D01*
X75104236Y-79350294D01*
X75233044Y-79157519D01*
X75321769Y-78943318D01*
X75335000Y-78876801D01*
X75348231Y-78943318D01*
X75436956Y-79157519D01*
X75565764Y-79350294D01*
X75729706Y-79514236D01*
X75922481Y-79643044D01*
X76136682Y-79731769D01*
X76364076Y-79777000D01*
X76595924Y-79777000D01*
X76823318Y-79731769D01*
X77037519Y-79643044D01*
X77230294Y-79514236D01*
X77394236Y-79350294D01*
X77523044Y-79157519D01*
X77611769Y-78943318D01*
X77625000Y-78876801D01*
X77638231Y-78943318D01*
X77726956Y-79157519D01*
X77855764Y-79350294D01*
X78019706Y-79514236D01*
X78212481Y-79643044D01*
X78426682Y-79731769D01*
X78654076Y-79777000D01*
X78885924Y-79777000D01*
X79113318Y-79731769D01*
X79327519Y-79643044D01*
X79520294Y-79514236D01*
X79684236Y-79350294D01*
X79813044Y-79157519D01*
X79901769Y-78943318D01*
X79947000Y-78715924D01*
X79947000Y-78484076D01*
X79901769Y-78256682D01*
X79878291Y-78200000D01*
X97236822Y-78200000D01*
X97261478Y-78450336D01*
X97334498Y-78691051D01*
X97453076Y-78912896D01*
X97612656Y-79107344D01*
X97807104Y-79266924D01*
X98028949Y-79385502D01*
X98269664Y-79458522D01*
X98457274Y-79477000D01*
X99582726Y-79477000D01*
X99770336Y-79458522D01*
X100011051Y-79385502D01*
X100232896Y-79266924D01*
X100427344Y-79107344D01*
X100525436Y-78987818D01*
X113841000Y-78987818D01*
X113841000Y-79212182D01*
X113884771Y-79432234D01*
X113970631Y-79639519D01*
X114095281Y-79826070D01*
X114253930Y-79984719D01*
X114440481Y-80109369D01*
X114647766Y-80195229D01*
X114867818Y-80239000D01*
X115092182Y-80239000D01*
X115312234Y-80195229D01*
X115519519Y-80109369D01*
X115706070Y-79984719D01*
X115864719Y-79826070D01*
X115989369Y-79639519D01*
X116075229Y-79432234D01*
X116119000Y-79212182D01*
X116119000Y-78987818D01*
X116381000Y-78987818D01*
X116381000Y-79212182D01*
X116424771Y-79432234D01*
X116510631Y-79639519D01*
X116635281Y-79826070D01*
X116793930Y-79984719D01*
X116980481Y-80109369D01*
X117187766Y-80195229D01*
X117407818Y-80239000D01*
X117632182Y-80239000D01*
X117852234Y-80195229D01*
X118059519Y-80109369D01*
X118246070Y-79984719D01*
X118404719Y-79826070D01*
X118529369Y-79639519D01*
X118615229Y-79432234D01*
X118659000Y-79212182D01*
X118659000Y-78987818D01*
X118615229Y-78767766D01*
X118529369Y-78560481D01*
X118404719Y-78373930D01*
X118246070Y-78215281D01*
X118059519Y-78090631D01*
X117852234Y-78004771D01*
X117632182Y-77961000D01*
X117407818Y-77961000D01*
X117187766Y-78004771D01*
X116980481Y-78090631D01*
X116793930Y-78215281D01*
X116635281Y-78373930D01*
X116510631Y-78560481D01*
X116424771Y-78767766D01*
X116381000Y-78987818D01*
X116119000Y-78987818D01*
X116075229Y-78767766D01*
X115989369Y-78560481D01*
X115864719Y-78373930D01*
X115706070Y-78215281D01*
X115519519Y-78090631D01*
X115312234Y-78004771D01*
X115092182Y-77961000D01*
X114867818Y-77961000D01*
X114647766Y-78004771D01*
X114440481Y-78090631D01*
X114253930Y-78215281D01*
X114095281Y-78373930D01*
X113970631Y-78560481D01*
X113884771Y-78767766D01*
X113841000Y-78987818D01*
X100525436Y-78987818D01*
X100586924Y-78912896D01*
X100705502Y-78691051D01*
X100778522Y-78450336D01*
X100803178Y-78200000D01*
X100778522Y-77949664D01*
X100705502Y-77708949D01*
X100586924Y-77487104D01*
X100427344Y-77292656D01*
X100232896Y-77133076D01*
X100011051Y-77014498D01*
X99770336Y-76941478D01*
X99582726Y-76923000D01*
X98457274Y-76923000D01*
X98269664Y-76941478D01*
X98028949Y-77014498D01*
X97807104Y-77133076D01*
X97612656Y-77292656D01*
X97453076Y-77487104D01*
X97334498Y-77708949D01*
X97261478Y-77949664D01*
X97236822Y-78200000D01*
X79878291Y-78200000D01*
X79813044Y-78042481D01*
X79684236Y-77849706D01*
X79520294Y-77685764D01*
X79327519Y-77556956D01*
X79113318Y-77468231D01*
X78885924Y-77423000D01*
X78654076Y-77423000D01*
X78426682Y-77468231D01*
X78212481Y-77556956D01*
X78019706Y-77685764D01*
X77855764Y-77849706D01*
X77726956Y-78042481D01*
X77638231Y-78256682D01*
X77625000Y-78323199D01*
X77611769Y-78256682D01*
X77523044Y-78042481D01*
X77394236Y-77849706D01*
X77230294Y-77685764D01*
X77037519Y-77556956D01*
X76823318Y-77468231D01*
X76595924Y-77423000D01*
X76364076Y-77423000D01*
X76136682Y-77468231D01*
X75922481Y-77556956D01*
X75729706Y-77685764D01*
X75565764Y-77849706D01*
X75436956Y-78042481D01*
X75348231Y-78256682D01*
X75335000Y-78323199D01*
X75321769Y-78256682D01*
X75233044Y-78042481D01*
X75104236Y-77849706D01*
X74940294Y-77685764D01*
X74747519Y-77556956D01*
X74533318Y-77468231D01*
X74305924Y-77423000D01*
X74074076Y-77423000D01*
X73846682Y-77468231D01*
X73632481Y-77556956D01*
X73439706Y-77685764D01*
X73275764Y-77849706D01*
X73146956Y-78042481D01*
X73058231Y-78256682D01*
X73045000Y-78323199D01*
X73031769Y-78256682D01*
X72943044Y-78042481D01*
X72814236Y-77849706D01*
X72650294Y-77685764D01*
X72457519Y-77556956D01*
X72243318Y-77468231D01*
X72015924Y-77423000D01*
X71784076Y-77423000D01*
X71556682Y-77468231D01*
X71342481Y-77556956D01*
X71149706Y-77685764D01*
X70985764Y-77849706D01*
X70856956Y-78042481D01*
X70768231Y-78256682D01*
X70755000Y-78323199D01*
X70741769Y-78256682D01*
X70653044Y-78042481D01*
X70524236Y-77849706D01*
X70360294Y-77685764D01*
X70167519Y-77556956D01*
X69953318Y-77468231D01*
X69725924Y-77423000D01*
X69494076Y-77423000D01*
X69266682Y-77468231D01*
X69052481Y-77556956D01*
X68859706Y-77685764D01*
X68695764Y-77849706D01*
X68566956Y-78042481D01*
X68478231Y-78256682D01*
X68433000Y-78484076D01*
X58161970Y-78484076D01*
X58258973Y-78419261D01*
X58359261Y-78318973D01*
X58438056Y-78201048D01*
X58492331Y-78070016D01*
X58520000Y-77930914D01*
X58520000Y-77789086D01*
X58492331Y-77649984D01*
X58438056Y-77518952D01*
X58359261Y-77401027D01*
X58258973Y-77300739D01*
X58141048Y-77221944D01*
X58010016Y-77167669D01*
X57870914Y-77140000D01*
X57830000Y-77140000D01*
X57830000Y-77089086D01*
X57802331Y-76949984D01*
X57748056Y-76818952D01*
X57669261Y-76701027D01*
X57568973Y-76600739D01*
X57451048Y-76521944D01*
X57320016Y-76467669D01*
X57180914Y-76440000D01*
X57039086Y-76440000D01*
X56899984Y-76467669D01*
X56768952Y-76521944D01*
X56651027Y-76600739D01*
X56550739Y-76701027D01*
X56471944Y-76818952D01*
X56417669Y-76949984D01*
X56390000Y-77089086D01*
X49698153Y-77089086D01*
X49506992Y-76961357D01*
X49283693Y-76868863D01*
X49046639Y-76821710D01*
X48804941Y-76821710D01*
X48567887Y-76868863D01*
X48344588Y-76961357D01*
X48143623Y-77095637D01*
X47972717Y-77266543D01*
X47838437Y-77467508D01*
X47745943Y-77690807D01*
X47698790Y-77927861D01*
X47612790Y-77927861D01*
X47565637Y-77690807D01*
X47473143Y-77467508D01*
X47338863Y-77266543D01*
X47167957Y-77095637D01*
X46966992Y-76961357D01*
X46743693Y-76868863D01*
X46506639Y-76821710D01*
X46264941Y-76821710D01*
X46027887Y-76868863D01*
X45804588Y-76961357D01*
X45603623Y-77095637D01*
X45432717Y-77266543D01*
X45298437Y-77467508D01*
X45205943Y-77690807D01*
X45158790Y-77927861D01*
X44402000Y-77927861D01*
X44402000Y-75387861D01*
X45158790Y-75387861D01*
X45158790Y-75629559D01*
X45205943Y-75866613D01*
X45298437Y-76089912D01*
X45432717Y-76290877D01*
X45603623Y-76461783D01*
X45804588Y-76596063D01*
X46027887Y-76688557D01*
X46264941Y-76735710D01*
X46506639Y-76735710D01*
X46743693Y-76688557D01*
X46966992Y-76596063D01*
X47167957Y-76461783D01*
X47338863Y-76290877D01*
X47473143Y-76089912D01*
X47565637Y-75866613D01*
X47612790Y-75629559D01*
X47612790Y-75387861D01*
X47698790Y-75387861D01*
X47698790Y-75629559D01*
X47745943Y-75866613D01*
X47838437Y-76089912D01*
X47972717Y-76290877D01*
X48143623Y-76461783D01*
X48344588Y-76596063D01*
X48567887Y-76688557D01*
X48804941Y-76735710D01*
X49046639Y-76735710D01*
X49283693Y-76688557D01*
X49506992Y-76596063D01*
X49707957Y-76461783D01*
X49878863Y-76290877D01*
X50013143Y-76089912D01*
X50073550Y-75944076D01*
X71863000Y-75944076D01*
X71863000Y-76175924D01*
X71908231Y-76403318D01*
X71996956Y-76617519D01*
X72125764Y-76810294D01*
X72289706Y-76974236D01*
X72482481Y-77103044D01*
X72696682Y-77191769D01*
X72924076Y-77237000D01*
X73155924Y-77237000D01*
X73383318Y-77191769D01*
X73597519Y-77103044D01*
X73790294Y-76974236D01*
X73954236Y-76810294D01*
X74083044Y-76617519D01*
X74171769Y-76403318D01*
X74217000Y-76175924D01*
X74217000Y-75944076D01*
X74171769Y-75716682D01*
X74083044Y-75502481D01*
X73954236Y-75309706D01*
X73790294Y-75145764D01*
X73597519Y-75016956D01*
X73383318Y-74928231D01*
X73155924Y-74883000D01*
X72924076Y-74883000D01*
X72696682Y-74928231D01*
X72482481Y-75016956D01*
X72289706Y-75145764D01*
X72125764Y-75309706D01*
X71996956Y-75502481D01*
X71908231Y-75716682D01*
X71863000Y-75944076D01*
X50073550Y-75944076D01*
X50105637Y-75866613D01*
X50152790Y-75629559D01*
X50152790Y-75387861D01*
X50105637Y-75150807D01*
X50013143Y-74927508D01*
X49878863Y-74726543D01*
X49707957Y-74555637D01*
X49506992Y-74421357D01*
X49283693Y-74328863D01*
X49046639Y-74281710D01*
X48804941Y-74281710D01*
X48567887Y-74328863D01*
X48344588Y-74421357D01*
X48143623Y-74555637D01*
X47972717Y-74726543D01*
X47838437Y-74927508D01*
X47745943Y-75150807D01*
X47698790Y-75387861D01*
X47612790Y-75387861D01*
X47565637Y-75150807D01*
X47473143Y-74927508D01*
X47338863Y-74726543D01*
X47167957Y-74555637D01*
X46966992Y-74421357D01*
X46743693Y-74328863D01*
X46506639Y-74281710D01*
X46264941Y-74281710D01*
X46027887Y-74328863D01*
X45804588Y-74421357D01*
X45603623Y-74555637D01*
X45432717Y-74726543D01*
X45298437Y-74927508D01*
X45205943Y-75150807D01*
X45158790Y-75387861D01*
X44402000Y-75387861D01*
X44402000Y-72847861D01*
X45158790Y-72847861D01*
X45158790Y-73089559D01*
X45205943Y-73326613D01*
X45298437Y-73549912D01*
X45432717Y-73750877D01*
X45603623Y-73921783D01*
X45804588Y-74056063D01*
X46027887Y-74148557D01*
X46264941Y-74195710D01*
X46506639Y-74195710D01*
X46743693Y-74148557D01*
X46966992Y-74056063D01*
X47167957Y-73921783D01*
X47338863Y-73750877D01*
X47473143Y-73549912D01*
X47565637Y-73326613D01*
X47612790Y-73089559D01*
X47612790Y-72847861D01*
X47698790Y-72847861D01*
X47698790Y-73089559D01*
X47745943Y-73326613D01*
X47838437Y-73549912D01*
X47972717Y-73750877D01*
X48143623Y-73921783D01*
X48344588Y-74056063D01*
X48567887Y-74148557D01*
X48804941Y-74195710D01*
X49046639Y-74195710D01*
X49283693Y-74148557D01*
X49506992Y-74056063D01*
X49707957Y-73921783D01*
X49878863Y-73750877D01*
X50013143Y-73549912D01*
X50073550Y-73404076D01*
X70723000Y-73404076D01*
X70723000Y-73635924D01*
X70768231Y-73863318D01*
X70856956Y-74077519D01*
X70985764Y-74270294D01*
X71149706Y-74434236D01*
X71342481Y-74563044D01*
X71556682Y-74651769D01*
X71784076Y-74697000D01*
X72015924Y-74697000D01*
X72243318Y-74651769D01*
X72457519Y-74563044D01*
X72650294Y-74434236D01*
X72814236Y-74270294D01*
X72943044Y-74077519D01*
X73031769Y-73863318D01*
X73045000Y-73796801D01*
X73058231Y-73863318D01*
X73146956Y-74077519D01*
X73275764Y-74270294D01*
X73439706Y-74434236D01*
X73632481Y-74563044D01*
X73846682Y-74651769D01*
X74074076Y-74697000D01*
X74305924Y-74697000D01*
X74533318Y-74651769D01*
X74747519Y-74563044D01*
X74940294Y-74434236D01*
X75104236Y-74270294D01*
X75233044Y-74077519D01*
X75321769Y-73863318D01*
X75335000Y-73796801D01*
X75348231Y-73863318D01*
X75436956Y-74077519D01*
X75565764Y-74270294D01*
X75729706Y-74434236D01*
X75922481Y-74563044D01*
X76136682Y-74651769D01*
X76364076Y-74697000D01*
X76595924Y-74697000D01*
X76823318Y-74651769D01*
X77037519Y-74563044D01*
X77230294Y-74434236D01*
X77394236Y-74270294D01*
X77523044Y-74077519D01*
X77611769Y-73863318D01*
X77625000Y-73796801D01*
X77638231Y-73863318D01*
X77726956Y-74077519D01*
X77855764Y-74270294D01*
X78019706Y-74434236D01*
X78212481Y-74563044D01*
X78426682Y-74651769D01*
X78654076Y-74697000D01*
X78885924Y-74697000D01*
X79113318Y-74651769D01*
X79327519Y-74563044D01*
X79520294Y-74434236D01*
X79684236Y-74270294D01*
X79813044Y-74077519D01*
X79901769Y-73863318D01*
X79947000Y-73635924D01*
X79947000Y-73404076D01*
X79901769Y-73176682D01*
X79813044Y-72962481D01*
X79684236Y-72769706D01*
X79520294Y-72605764D01*
X79327519Y-72476956D01*
X79113318Y-72388231D01*
X78885924Y-72343000D01*
X78654076Y-72343000D01*
X78426682Y-72388231D01*
X78212481Y-72476956D01*
X78019706Y-72605764D01*
X77855764Y-72769706D01*
X77726956Y-72962481D01*
X77638231Y-73176682D01*
X77625000Y-73243199D01*
X77611769Y-73176682D01*
X77523044Y-72962481D01*
X77394236Y-72769706D01*
X77230294Y-72605764D01*
X77037519Y-72476956D01*
X76823318Y-72388231D01*
X76595924Y-72343000D01*
X76364076Y-72343000D01*
X76136682Y-72388231D01*
X75922481Y-72476956D01*
X75729706Y-72605764D01*
X75565764Y-72769706D01*
X75436956Y-72962481D01*
X75348231Y-73176682D01*
X75335000Y-73243199D01*
X75321769Y-73176682D01*
X75233044Y-72962481D01*
X75104236Y-72769706D01*
X74940294Y-72605764D01*
X74747519Y-72476956D01*
X74533318Y-72388231D01*
X74305924Y-72343000D01*
X74074076Y-72343000D01*
X73846682Y-72388231D01*
X73632481Y-72476956D01*
X73439706Y-72605764D01*
X73275764Y-72769706D01*
X73146956Y-72962481D01*
X73058231Y-73176682D01*
X73045000Y-73243199D01*
X73031769Y-73176682D01*
X72943044Y-72962481D01*
X72814236Y-72769706D01*
X72650294Y-72605764D01*
X72457519Y-72476956D01*
X72243318Y-72388231D01*
X72015924Y-72343000D01*
X71784076Y-72343000D01*
X71556682Y-72388231D01*
X71342481Y-72476956D01*
X71149706Y-72605764D01*
X70985764Y-72769706D01*
X70856956Y-72962481D01*
X70768231Y-73176682D01*
X70723000Y-73404076D01*
X50073550Y-73404076D01*
X50105637Y-73326613D01*
X50152790Y-73089559D01*
X50152790Y-72847861D01*
X50105637Y-72610807D01*
X50013143Y-72387508D01*
X49878863Y-72186543D01*
X49707957Y-72015637D01*
X49506992Y-71881357D01*
X49283693Y-71788863D01*
X49046639Y-71741710D01*
X48804941Y-71741710D01*
X48567887Y-71788863D01*
X48344588Y-71881357D01*
X48143623Y-72015637D01*
X47972717Y-72186543D01*
X47838437Y-72387508D01*
X47745943Y-72610807D01*
X47698790Y-72847861D01*
X47612790Y-72847861D01*
X47565637Y-72610807D01*
X47473143Y-72387508D01*
X47338863Y-72186543D01*
X47167957Y-72015637D01*
X46966992Y-71881357D01*
X46743693Y-71788863D01*
X46506639Y-71741710D01*
X46264941Y-71741710D01*
X46027887Y-71788863D01*
X45804588Y-71881357D01*
X45603623Y-72015637D01*
X45432717Y-72186543D01*
X45298437Y-72387508D01*
X45205943Y-72610807D01*
X45158790Y-72847861D01*
X44402000Y-72847861D01*
X44402000Y-70307861D01*
X47698790Y-70307861D01*
X47698790Y-70549559D01*
X47745943Y-70786613D01*
X47838437Y-71009912D01*
X47972717Y-71210877D01*
X48143623Y-71381783D01*
X48344588Y-71516063D01*
X48567887Y-71608557D01*
X48804941Y-71655710D01*
X49046639Y-71655710D01*
X49283693Y-71608557D01*
X49403125Y-71559086D01*
X50160000Y-71559086D01*
X50160000Y-71700914D01*
X50187669Y-71840016D01*
X50241944Y-71971048D01*
X50320739Y-72088973D01*
X50421027Y-72189261D01*
X50538952Y-72268056D01*
X50669984Y-72322331D01*
X50809086Y-72350000D01*
X50950914Y-72350000D01*
X51090016Y-72322331D01*
X51221048Y-72268056D01*
X51338973Y-72189261D01*
X51439261Y-72088973D01*
X51518056Y-71971048D01*
X51572331Y-71840016D01*
X51600000Y-71700914D01*
X51600000Y-71559086D01*
X51572331Y-71419984D01*
X51518056Y-71288952D01*
X51439261Y-71171027D01*
X51338973Y-71070739D01*
X51221048Y-70991944D01*
X51122715Y-70951213D01*
X51251048Y-70898056D01*
X51368973Y-70819261D01*
X51469261Y-70718973D01*
X51548056Y-70601048D01*
X51602331Y-70470016D01*
X51630000Y-70330914D01*
X51630000Y-70189086D01*
X51602331Y-70049984D01*
X51548056Y-69918952D01*
X51469261Y-69801027D01*
X51368973Y-69700739D01*
X51251048Y-69621944D01*
X51120016Y-69567669D01*
X50980914Y-69540000D01*
X50839086Y-69540000D01*
X50699984Y-69567669D01*
X50568952Y-69621944D01*
X50451027Y-69700739D01*
X50350739Y-69801027D01*
X50271944Y-69918952D01*
X50217669Y-70049984D01*
X50190000Y-70189086D01*
X50190000Y-70330914D01*
X50217669Y-70470016D01*
X50271944Y-70601048D01*
X50350739Y-70718973D01*
X50451027Y-70819261D01*
X50568952Y-70898056D01*
X50667285Y-70938787D01*
X50538952Y-70991944D01*
X50421027Y-71070739D01*
X50320739Y-71171027D01*
X50241944Y-71288952D01*
X50187669Y-71419984D01*
X50160000Y-71559086D01*
X49403125Y-71559086D01*
X49506992Y-71516063D01*
X49707957Y-71381783D01*
X49878863Y-71210877D01*
X50013143Y-71009912D01*
X50105637Y-70786613D01*
X50152790Y-70549559D01*
X50152790Y-70307861D01*
X50105637Y-70070807D01*
X50013143Y-69847508D01*
X49878863Y-69646543D01*
X49707957Y-69475637D01*
X49506992Y-69341357D01*
X49283693Y-69248863D01*
X49046639Y-69201710D01*
X48804941Y-69201710D01*
X48567887Y-69248863D01*
X48344588Y-69341357D01*
X48143623Y-69475637D01*
X47972717Y-69646543D01*
X47838437Y-69847508D01*
X47745943Y-70070807D01*
X47698790Y-70307861D01*
X44402000Y-70307861D01*
X44402000Y-67767861D01*
X45158790Y-67767861D01*
X45158790Y-68009559D01*
X45205943Y-68246613D01*
X45298437Y-68469912D01*
X45432717Y-68670877D01*
X45603623Y-68841783D01*
X45804588Y-68976063D01*
X46027887Y-69068557D01*
X46264941Y-69115710D01*
X46506639Y-69115710D01*
X46743693Y-69068557D01*
X46966992Y-68976063D01*
X47167957Y-68841783D01*
X47338863Y-68670877D01*
X47473143Y-68469912D01*
X47565637Y-68246613D01*
X47612790Y-68009559D01*
X47612790Y-67767861D01*
X47698790Y-67767861D01*
X47698790Y-68009559D01*
X47745943Y-68246613D01*
X47838437Y-68469912D01*
X47972717Y-68670877D01*
X48143623Y-68841783D01*
X48344588Y-68976063D01*
X48567887Y-69068557D01*
X48804941Y-69115710D01*
X49046639Y-69115710D01*
X49283693Y-69068557D01*
X49506992Y-68976063D01*
X49707957Y-68841783D01*
X49878863Y-68670877D01*
X50013143Y-68469912D01*
X50105637Y-68246613D01*
X50152790Y-68009559D01*
X50152790Y-67767861D01*
X50105637Y-67530807D01*
X50013143Y-67307508D01*
X49878863Y-67106543D01*
X49707957Y-66935637D01*
X49506992Y-66801357D01*
X49283693Y-66708863D01*
X49046639Y-66661710D01*
X48804941Y-66661710D01*
X48567887Y-66708863D01*
X48344588Y-66801357D01*
X48143623Y-66935637D01*
X47972717Y-67106543D01*
X47838437Y-67307508D01*
X47745943Y-67530807D01*
X47698790Y-67767861D01*
X47612790Y-67767861D01*
X47565637Y-67530807D01*
X47473143Y-67307508D01*
X47338863Y-67106543D01*
X47167957Y-66935637D01*
X46966992Y-66801357D01*
X46743693Y-66708863D01*
X46506639Y-66661710D01*
X46264941Y-66661710D01*
X46027887Y-66708863D01*
X45804588Y-66801357D01*
X45603623Y-66935637D01*
X45432717Y-67106543D01*
X45298437Y-67307508D01*
X45205943Y-67530807D01*
X45158790Y-67767861D01*
X44402000Y-67767861D01*
X44402000Y-65227861D01*
X45158790Y-65227861D01*
X45158790Y-65469559D01*
X45205943Y-65706613D01*
X45298437Y-65929912D01*
X45432717Y-66130877D01*
X45603623Y-66301783D01*
X45804588Y-66436063D01*
X46027887Y-66528557D01*
X46264941Y-66575710D01*
X46506639Y-66575710D01*
X46743693Y-66528557D01*
X46966992Y-66436063D01*
X47167957Y-66301783D01*
X47338863Y-66130877D01*
X47473143Y-65929912D01*
X47565637Y-65706613D01*
X47612790Y-65469559D01*
X47612790Y-65227861D01*
X47698790Y-65227861D01*
X47698790Y-65469559D01*
X47745943Y-65706613D01*
X47838437Y-65929912D01*
X47972717Y-66130877D01*
X48143623Y-66301783D01*
X48344588Y-66436063D01*
X48567887Y-66528557D01*
X48804941Y-66575710D01*
X49046639Y-66575710D01*
X49283693Y-66528557D01*
X49506992Y-66436063D01*
X49707957Y-66301783D01*
X49878863Y-66130877D01*
X50013143Y-65929912D01*
X50105637Y-65706613D01*
X50152790Y-65469559D01*
X50152790Y-65227861D01*
X50105637Y-64990807D01*
X50013143Y-64767508D01*
X49878863Y-64566543D01*
X49707957Y-64395637D01*
X49506992Y-64261357D01*
X49283693Y-64168863D01*
X49046639Y-64121710D01*
X48804941Y-64121710D01*
X48567887Y-64168863D01*
X48344588Y-64261357D01*
X48143623Y-64395637D01*
X47972717Y-64566543D01*
X47838437Y-64767508D01*
X47745943Y-64990807D01*
X47698790Y-65227861D01*
X47612790Y-65227861D01*
X47565637Y-64990807D01*
X47473143Y-64767508D01*
X47338863Y-64566543D01*
X47167957Y-64395637D01*
X46966992Y-64261357D01*
X46743693Y-64168863D01*
X46506639Y-64121710D01*
X46264941Y-64121710D01*
X46027887Y-64168863D01*
X45804588Y-64261357D01*
X45603623Y-64395637D01*
X45432717Y-64566543D01*
X45298437Y-64767508D01*
X45205943Y-64990807D01*
X45158790Y-65227861D01*
X44402000Y-65227861D01*
X44402000Y-64059086D01*
X88300000Y-64059086D01*
X88300000Y-64200914D01*
X88327669Y-64340016D01*
X88381944Y-64471048D01*
X88460739Y-64588973D01*
X88561027Y-64689261D01*
X88678952Y-64768056D01*
X88809984Y-64822331D01*
X88949086Y-64850000D01*
X88990000Y-64850000D01*
X88990000Y-64990914D01*
X89017669Y-65130016D01*
X89071944Y-65261048D01*
X89150739Y-65378973D01*
X89151766Y-65380000D01*
X89090739Y-65441027D01*
X89011944Y-65558952D01*
X88957669Y-65689984D01*
X88930000Y-65829086D01*
X88930000Y-65970914D01*
X88957669Y-66110016D01*
X89011944Y-66241048D01*
X89090739Y-66358973D01*
X89191027Y-66459261D01*
X89308952Y-66538056D01*
X89439984Y-66592331D01*
X89579086Y-66620000D01*
X89720914Y-66620000D01*
X89860016Y-66592331D01*
X89991048Y-66538056D01*
X90108973Y-66459261D01*
X90209261Y-66358973D01*
X90288056Y-66241048D01*
X90342331Y-66110016D01*
X90370000Y-65970914D01*
X90370000Y-65829086D01*
X90342331Y-65689984D01*
X90288056Y-65558952D01*
X90209261Y-65441027D01*
X90208234Y-65440000D01*
X90269261Y-65378973D01*
X90348056Y-65261048D01*
X90402331Y-65130016D01*
X90430000Y-64990914D01*
X90430000Y-64849086D01*
X90406131Y-64729086D01*
X94960000Y-64729086D01*
X94960000Y-64870914D01*
X94987669Y-65010016D01*
X95041944Y-65141048D01*
X95120739Y-65258973D01*
X95221027Y-65359261D01*
X95338952Y-65438056D01*
X95469984Y-65492331D01*
X95609086Y-65520000D01*
X95750914Y-65520000D01*
X95890016Y-65492331D01*
X96021048Y-65438056D01*
X96138973Y-65359261D01*
X96239261Y-65258973D01*
X96318056Y-65141048D01*
X96372331Y-65010016D01*
X96386989Y-64936324D01*
X96397669Y-64990016D01*
X96451944Y-65121048D01*
X96530739Y-65238973D01*
X96631027Y-65339261D01*
X96748952Y-65418056D01*
X96879984Y-65472331D01*
X97019086Y-65500000D01*
X97160914Y-65500000D01*
X97300016Y-65472331D01*
X97431048Y-65418056D01*
X97548973Y-65339261D01*
X97649261Y-65238973D01*
X97728056Y-65121048D01*
X97782331Y-64990016D01*
X97810000Y-64850914D01*
X97810000Y-64709086D01*
X97782331Y-64569984D01*
X97728056Y-64438952D01*
X97715393Y-64420000D01*
X97740914Y-64420000D01*
X97880016Y-64392331D01*
X98011048Y-64338056D01*
X98128973Y-64259261D01*
X98229261Y-64158973D01*
X98308056Y-64041048D01*
X98362331Y-63910016D01*
X98390000Y-63770914D01*
X98390000Y-63629086D01*
X98362331Y-63489984D01*
X98308056Y-63358952D01*
X98229261Y-63241027D01*
X98128973Y-63140739D01*
X98011048Y-63061944D01*
X97880016Y-63007669D01*
X97847085Y-63001119D01*
X97951048Y-62958056D01*
X98068973Y-62879261D01*
X98169261Y-62778973D01*
X98248056Y-62661048D01*
X98302331Y-62530016D01*
X98330000Y-62390914D01*
X98330000Y-62249086D01*
X98302331Y-62109984D01*
X98248056Y-61978952D01*
X98169261Y-61861027D01*
X98068973Y-61760739D01*
X97951048Y-61681944D01*
X97820016Y-61627669D01*
X97680914Y-61600000D01*
X97539086Y-61600000D01*
X97399984Y-61627669D01*
X97268952Y-61681944D01*
X97151027Y-61760739D01*
X97050739Y-61861027D01*
X96971944Y-61978952D01*
X96917669Y-62109984D01*
X96890000Y-62249086D01*
X96890000Y-62390914D01*
X96917669Y-62530016D01*
X96971944Y-62661048D01*
X97050739Y-62778973D01*
X97151027Y-62879261D01*
X97268952Y-62958056D01*
X97399984Y-63012331D01*
X97432915Y-63018881D01*
X97328952Y-63061944D01*
X97211027Y-63140739D01*
X97110739Y-63241027D01*
X97031944Y-63358952D01*
X96977669Y-63489984D01*
X96950000Y-63629086D01*
X96950000Y-63770914D01*
X96977669Y-63910016D01*
X97031944Y-64041048D01*
X97044607Y-64060000D01*
X97019086Y-64060000D01*
X96879984Y-64087669D01*
X96748952Y-64141944D01*
X96631027Y-64220739D01*
X96530739Y-64321027D01*
X96451944Y-64438952D01*
X96397669Y-64569984D01*
X96383011Y-64643676D01*
X96372331Y-64589984D01*
X96318056Y-64458952D01*
X96239261Y-64341027D01*
X96138973Y-64240739D01*
X96021048Y-64161944D01*
X95890016Y-64107669D01*
X95750914Y-64080000D01*
X95609086Y-64080000D01*
X95469984Y-64107669D01*
X95338952Y-64161944D01*
X95221027Y-64240739D01*
X95120739Y-64341027D01*
X95041944Y-64458952D01*
X94987669Y-64589984D01*
X94960000Y-64729086D01*
X90406131Y-64729086D01*
X90402331Y-64709984D01*
X90348056Y-64578952D01*
X90269261Y-64461027D01*
X90168973Y-64360739D01*
X90051048Y-64281944D01*
X89920016Y-64227669D01*
X89780914Y-64200000D01*
X89740000Y-64200000D01*
X89740000Y-64059086D01*
X89712331Y-63919984D01*
X89658056Y-63788952D01*
X89594460Y-63693774D01*
X89609261Y-63678973D01*
X89688056Y-63561048D01*
X89742331Y-63430016D01*
X89770000Y-63290914D01*
X89770000Y-63149086D01*
X89742331Y-63009984D01*
X89688056Y-62878952D01*
X89609261Y-62761027D01*
X89508973Y-62660739D01*
X89391048Y-62581944D01*
X89260016Y-62527669D01*
X89120914Y-62500000D01*
X88979086Y-62500000D01*
X88839984Y-62527669D01*
X88708952Y-62581944D01*
X88591027Y-62660739D01*
X88490739Y-62761027D01*
X88411944Y-62878952D01*
X88357669Y-63009984D01*
X88330000Y-63149086D01*
X88330000Y-63290914D01*
X88357669Y-63430016D01*
X88411944Y-63561048D01*
X88475540Y-63656226D01*
X88460739Y-63671027D01*
X88381944Y-63788952D01*
X88327669Y-63919984D01*
X88300000Y-64059086D01*
X44402000Y-64059086D01*
X44402000Y-62687861D01*
X45158790Y-62687861D01*
X45158790Y-62929559D01*
X45205943Y-63166613D01*
X45298437Y-63389912D01*
X45432717Y-63590877D01*
X45603623Y-63761783D01*
X45804588Y-63896063D01*
X46027887Y-63988557D01*
X46264941Y-64035710D01*
X46506639Y-64035710D01*
X46743693Y-63988557D01*
X46966992Y-63896063D01*
X47167957Y-63761783D01*
X47338863Y-63590877D01*
X47473143Y-63389912D01*
X47565637Y-63166613D01*
X47612790Y-62929559D01*
X47612790Y-62687861D01*
X47698790Y-62687861D01*
X47698790Y-62929559D01*
X47745943Y-63166613D01*
X47838437Y-63389912D01*
X47972717Y-63590877D01*
X48143623Y-63761783D01*
X48344588Y-63896063D01*
X48567887Y-63988557D01*
X48804941Y-64035710D01*
X49046639Y-64035710D01*
X49283693Y-63988557D01*
X49506992Y-63896063D01*
X49707957Y-63761783D01*
X49878863Y-63590877D01*
X50013143Y-63389912D01*
X50105637Y-63166613D01*
X50152790Y-62929559D01*
X50152790Y-62687861D01*
X50105637Y-62450807D01*
X50013143Y-62227508D01*
X49878863Y-62026543D01*
X49707957Y-61855637D01*
X49506992Y-61721357D01*
X49283693Y-61628863D01*
X49046639Y-61581710D01*
X48804941Y-61581710D01*
X48567887Y-61628863D01*
X48344588Y-61721357D01*
X48143623Y-61855637D01*
X47972717Y-62026543D01*
X47838437Y-62227508D01*
X47745943Y-62450807D01*
X47698790Y-62687861D01*
X47612790Y-62687861D01*
X47565637Y-62450807D01*
X47473143Y-62227508D01*
X47338863Y-62026543D01*
X47167957Y-61855637D01*
X46966992Y-61721357D01*
X46743693Y-61628863D01*
X46506639Y-61581710D01*
X46264941Y-61581710D01*
X46027887Y-61628863D01*
X45804588Y-61721357D01*
X45603623Y-61855637D01*
X45432717Y-62026543D01*
X45298437Y-62227508D01*
X45205943Y-62450807D01*
X45158790Y-62687861D01*
X44402000Y-62687861D01*
X44402000Y-60147861D01*
X45158790Y-60147861D01*
X45158790Y-60389559D01*
X45205943Y-60626613D01*
X45298437Y-60849912D01*
X45432717Y-61050877D01*
X45603623Y-61221783D01*
X45804588Y-61356063D01*
X46027887Y-61448557D01*
X46264941Y-61495710D01*
X46506639Y-61495710D01*
X46743693Y-61448557D01*
X46966992Y-61356063D01*
X47167957Y-61221783D01*
X47338863Y-61050877D01*
X47473143Y-60849912D01*
X47565637Y-60626613D01*
X47612790Y-60389559D01*
X47612790Y-60147861D01*
X47698790Y-60147861D01*
X47698790Y-60389559D01*
X47745943Y-60626613D01*
X47838437Y-60849912D01*
X47972717Y-61050877D01*
X48143623Y-61221783D01*
X48344588Y-61356063D01*
X48567887Y-61448557D01*
X48804941Y-61495710D01*
X49046639Y-61495710D01*
X49283693Y-61448557D01*
X49506992Y-61356063D01*
X49707957Y-61221783D01*
X49878863Y-61050877D01*
X50013143Y-60849912D01*
X50105637Y-60626613D01*
X50121058Y-60549086D01*
X61930000Y-60549086D01*
X61930000Y-60690914D01*
X61957669Y-60830016D01*
X62011944Y-60961048D01*
X62090739Y-61078973D01*
X62191027Y-61179261D01*
X62308952Y-61258056D01*
X62439984Y-61312331D01*
X62579086Y-61340000D01*
X62720914Y-61340000D01*
X62860016Y-61312331D01*
X62991048Y-61258056D01*
X63108973Y-61179261D01*
X63130000Y-61158234D01*
X63151027Y-61179261D01*
X63268952Y-61258056D01*
X63399984Y-61312331D01*
X63539086Y-61340000D01*
X63680914Y-61340000D01*
X63735782Y-61329086D01*
X94410000Y-61329086D01*
X94410000Y-61470914D01*
X94437669Y-61610016D01*
X94491944Y-61741048D01*
X94570739Y-61858973D01*
X94671027Y-61959261D01*
X94788952Y-62038056D01*
X94919984Y-62092331D01*
X95059086Y-62120000D01*
X95200914Y-62120000D01*
X95340016Y-62092331D01*
X95471048Y-62038056D01*
X95588973Y-61959261D01*
X95689261Y-61858973D01*
X95768056Y-61741048D01*
X95822331Y-61610016D01*
X95850000Y-61470914D01*
X95850000Y-61329086D01*
X95822331Y-61189984D01*
X95768056Y-61058952D01*
X95689261Y-60941027D01*
X95588973Y-60840739D01*
X95471048Y-60761944D01*
X95340016Y-60707669D01*
X95200914Y-60680000D01*
X95059086Y-60680000D01*
X94919984Y-60707669D01*
X94788952Y-60761944D01*
X94671027Y-60840739D01*
X94570739Y-60941027D01*
X94491944Y-61058952D01*
X94437669Y-61189984D01*
X94410000Y-61329086D01*
X63735782Y-61329086D01*
X63820016Y-61312331D01*
X63951048Y-61258056D01*
X64068973Y-61179261D01*
X64169261Y-61078973D01*
X64248056Y-60961048D01*
X64302331Y-60830016D01*
X64330000Y-60690914D01*
X64330000Y-60549086D01*
X64302331Y-60409984D01*
X64248056Y-60278952D01*
X64169261Y-60161027D01*
X64068973Y-60060739D01*
X63951048Y-59981944D01*
X63820016Y-59927669D01*
X63680914Y-59900000D01*
X63539086Y-59900000D01*
X63399984Y-59927669D01*
X63268952Y-59981944D01*
X63151027Y-60060739D01*
X63130000Y-60081766D01*
X63108973Y-60060739D01*
X62991048Y-59981944D01*
X62860016Y-59927669D01*
X62720914Y-59900000D01*
X62579086Y-59900000D01*
X62439984Y-59927669D01*
X62308952Y-59981944D01*
X62191027Y-60060739D01*
X62090739Y-60161027D01*
X62011944Y-60278952D01*
X61957669Y-60409984D01*
X61930000Y-60549086D01*
X50121058Y-60549086D01*
X50152790Y-60389559D01*
X50152790Y-60147861D01*
X50105637Y-59910807D01*
X50013143Y-59687508D01*
X49878863Y-59486543D01*
X49707957Y-59315637D01*
X49506992Y-59181357D01*
X49283693Y-59088863D01*
X49046639Y-59041710D01*
X48804941Y-59041710D01*
X48567887Y-59088863D01*
X48344588Y-59181357D01*
X48143623Y-59315637D01*
X47972717Y-59486543D01*
X47838437Y-59687508D01*
X47745943Y-59910807D01*
X47698790Y-60147861D01*
X47612790Y-60147861D01*
X47565637Y-59910807D01*
X47473143Y-59687508D01*
X47338863Y-59486543D01*
X47167957Y-59315637D01*
X46966992Y-59181357D01*
X46743693Y-59088863D01*
X46506639Y-59041710D01*
X46264941Y-59041710D01*
X46027887Y-59088863D01*
X45804588Y-59181357D01*
X45603623Y-59315637D01*
X45432717Y-59486543D01*
X45298437Y-59687508D01*
X45205943Y-59910807D01*
X45158790Y-60147861D01*
X44402000Y-60147861D01*
X44402000Y-57607861D01*
X45158790Y-57607861D01*
X45158790Y-57849559D01*
X45205943Y-58086613D01*
X45298437Y-58309912D01*
X45432717Y-58510877D01*
X45603623Y-58681783D01*
X45804588Y-58816063D01*
X46027887Y-58908557D01*
X46264941Y-58955710D01*
X46506639Y-58955710D01*
X46743693Y-58908557D01*
X46966992Y-58816063D01*
X47167957Y-58681783D01*
X47338863Y-58510877D01*
X47473143Y-58309912D01*
X47565637Y-58086613D01*
X47612790Y-57849559D01*
X47612790Y-57607861D01*
X47698790Y-57607861D01*
X47698790Y-57849559D01*
X47745943Y-58086613D01*
X47838437Y-58309912D01*
X47972717Y-58510877D01*
X48143623Y-58681783D01*
X48344588Y-58816063D01*
X48567887Y-58908557D01*
X48804941Y-58955710D01*
X49046639Y-58955710D01*
X49283693Y-58908557D01*
X49306557Y-58899086D01*
X86010000Y-58899086D01*
X86010000Y-59040914D01*
X86037669Y-59180016D01*
X86091944Y-59311048D01*
X86170739Y-59428973D01*
X86271027Y-59529261D01*
X86388952Y-59608056D01*
X86519984Y-59662331D01*
X86659086Y-59690000D01*
X86800914Y-59690000D01*
X86940016Y-59662331D01*
X87071048Y-59608056D01*
X87188973Y-59529261D01*
X87289261Y-59428973D01*
X87368056Y-59311048D01*
X87422331Y-59180016D01*
X87450000Y-59040914D01*
X87450000Y-58899086D01*
X87422331Y-58759984D01*
X87368056Y-58628952D01*
X87289261Y-58511027D01*
X87188973Y-58410739D01*
X87071048Y-58331944D01*
X86940016Y-58277669D01*
X86800914Y-58250000D01*
X86659086Y-58250000D01*
X86519984Y-58277669D01*
X86388952Y-58331944D01*
X86271027Y-58410739D01*
X86170739Y-58511027D01*
X86091944Y-58628952D01*
X86037669Y-58759984D01*
X86010000Y-58899086D01*
X49306557Y-58899086D01*
X49506992Y-58816063D01*
X49707957Y-58681783D01*
X49878863Y-58510877D01*
X50013143Y-58309912D01*
X50105637Y-58086613D01*
X50152790Y-57849559D01*
X50152790Y-57607861D01*
X50105637Y-57370807D01*
X50013143Y-57147508D01*
X49878863Y-56946543D01*
X49707957Y-56775637D01*
X49506992Y-56641357D01*
X49283693Y-56548863D01*
X49046639Y-56501710D01*
X48804941Y-56501710D01*
X48567887Y-56548863D01*
X48344588Y-56641357D01*
X48143623Y-56775637D01*
X47972717Y-56946543D01*
X47838437Y-57147508D01*
X47745943Y-57370807D01*
X47698790Y-57607861D01*
X47612790Y-57607861D01*
X47565637Y-57370807D01*
X47473143Y-57147508D01*
X47338863Y-56946543D01*
X47167957Y-56775637D01*
X46966992Y-56641357D01*
X46743693Y-56548863D01*
X46506639Y-56501710D01*
X46264941Y-56501710D01*
X46027887Y-56548863D01*
X45804588Y-56641357D01*
X45603623Y-56775637D01*
X45432717Y-56946543D01*
X45298437Y-57147508D01*
X45205943Y-57370807D01*
X45158790Y-57607861D01*
X44402000Y-57607861D01*
X44402000Y-55067861D01*
X45158790Y-55067861D01*
X45158790Y-55309559D01*
X45205943Y-55546613D01*
X45298437Y-55769912D01*
X45432717Y-55970877D01*
X45603623Y-56141783D01*
X45804588Y-56276063D01*
X46027887Y-56368557D01*
X46264941Y-56415710D01*
X46506639Y-56415710D01*
X46743693Y-56368557D01*
X46966992Y-56276063D01*
X47167957Y-56141783D01*
X47338863Y-55970877D01*
X47473143Y-55769912D01*
X47565637Y-55546613D01*
X47612790Y-55309559D01*
X47612790Y-55067861D01*
X47698790Y-55067861D01*
X47698790Y-55309559D01*
X47745943Y-55546613D01*
X47838437Y-55769912D01*
X47972717Y-55970877D01*
X48143623Y-56141783D01*
X48344588Y-56276063D01*
X48567887Y-56368557D01*
X48804941Y-56415710D01*
X49046639Y-56415710D01*
X49283693Y-56368557D01*
X49506992Y-56276063D01*
X49707957Y-56141783D01*
X49878863Y-55970877D01*
X50013143Y-55769912D01*
X50034195Y-55719086D01*
X69240000Y-55719086D01*
X69240000Y-55860914D01*
X69267669Y-56000016D01*
X69321944Y-56131048D01*
X69349630Y-56172483D01*
X69331944Y-56198952D01*
X69277669Y-56329984D01*
X69250000Y-56469086D01*
X69250000Y-56610914D01*
X69277669Y-56750016D01*
X69331944Y-56881048D01*
X69410739Y-56998973D01*
X69511027Y-57099261D01*
X69628952Y-57178056D01*
X69759984Y-57232331D01*
X69899086Y-57260000D01*
X70040914Y-57260000D01*
X70180016Y-57232331D01*
X70284419Y-57189086D01*
X88470000Y-57189086D01*
X88470000Y-57330914D01*
X88497669Y-57470016D01*
X88551944Y-57601048D01*
X88630739Y-57718973D01*
X88731027Y-57819261D01*
X88848952Y-57898056D01*
X88979984Y-57952331D01*
X89119086Y-57980000D01*
X89260914Y-57980000D01*
X89400016Y-57952331D01*
X89531048Y-57898056D01*
X89648973Y-57819261D01*
X89749261Y-57718973D01*
X89769230Y-57689086D01*
X92540000Y-57689086D01*
X92540000Y-57830914D01*
X92567669Y-57970016D01*
X92621944Y-58101048D01*
X92700739Y-58218973D01*
X92801027Y-58319261D01*
X92918952Y-58398056D01*
X93049984Y-58452331D01*
X93189086Y-58480000D01*
X93330914Y-58480000D01*
X93465129Y-58453303D01*
X93460000Y-58479086D01*
X93460000Y-58620914D01*
X93487669Y-58760016D01*
X93541944Y-58891048D01*
X93620739Y-59008973D01*
X93721027Y-59109261D01*
X93838952Y-59188056D01*
X93969984Y-59242331D01*
X94109086Y-59270000D01*
X94250914Y-59270000D01*
X94390016Y-59242331D01*
X94521048Y-59188056D01*
X94619481Y-59122285D01*
X94560739Y-59181027D01*
X94481944Y-59298952D01*
X94427669Y-59429984D01*
X94400000Y-59569086D01*
X94400000Y-59710914D01*
X94427669Y-59850016D01*
X94481944Y-59981048D01*
X94560739Y-60098973D01*
X94661027Y-60199261D01*
X94778952Y-60278056D01*
X94909984Y-60332331D01*
X95049086Y-60360000D01*
X95190914Y-60360000D01*
X95330016Y-60332331D01*
X95461048Y-60278056D01*
X95578973Y-60199261D01*
X95679261Y-60098973D01*
X95758056Y-59981048D01*
X95812331Y-59850016D01*
X95840000Y-59710914D01*
X95840000Y-59569086D01*
X95812331Y-59429984D01*
X95758056Y-59298952D01*
X95679261Y-59181027D01*
X95578973Y-59080739D01*
X95461048Y-59001944D01*
X95330016Y-58947669D01*
X95190914Y-58920000D01*
X95049086Y-58920000D01*
X94909984Y-58947669D01*
X94778952Y-59001944D01*
X94680519Y-59067715D01*
X94739261Y-59008973D01*
X94818056Y-58891048D01*
X94872331Y-58760016D01*
X94900000Y-58620914D01*
X94900000Y-58479086D01*
X94872331Y-58339984D01*
X94818056Y-58208952D01*
X94739261Y-58091027D01*
X94638973Y-57990739D01*
X94521048Y-57911944D01*
X94390016Y-57857669D01*
X94250914Y-57830000D01*
X94109086Y-57830000D01*
X93974871Y-57856697D01*
X93980000Y-57830914D01*
X93980000Y-57689086D01*
X93952331Y-57549984D01*
X93898056Y-57418952D01*
X93819261Y-57301027D01*
X93718973Y-57200739D01*
X93601048Y-57121944D01*
X93470016Y-57067669D01*
X93330914Y-57040000D01*
X93189086Y-57040000D01*
X93049984Y-57067669D01*
X92918952Y-57121944D01*
X92801027Y-57200739D01*
X92700739Y-57301027D01*
X92621944Y-57418952D01*
X92567669Y-57549984D01*
X92540000Y-57689086D01*
X89769230Y-57689086D01*
X89828056Y-57601048D01*
X89882331Y-57470016D01*
X89910000Y-57330914D01*
X89910000Y-57189086D01*
X89882331Y-57049984D01*
X89828056Y-56918952D01*
X89749261Y-56801027D01*
X89648973Y-56700739D01*
X89531048Y-56621944D01*
X89400016Y-56567669D01*
X89260914Y-56540000D01*
X89119086Y-56540000D01*
X88979984Y-56567669D01*
X88848952Y-56621944D01*
X88731027Y-56700739D01*
X88630739Y-56801027D01*
X88551944Y-56918952D01*
X88497669Y-57049984D01*
X88470000Y-57189086D01*
X70284419Y-57189086D01*
X70311048Y-57178056D01*
X70428973Y-57099261D01*
X70529261Y-56998973D01*
X70608056Y-56881048D01*
X70662331Y-56750016D01*
X70690000Y-56610914D01*
X70690000Y-56469086D01*
X70662331Y-56329984D01*
X70608056Y-56198952D01*
X70580370Y-56157517D01*
X70598056Y-56131048D01*
X70652331Y-56000016D01*
X70680000Y-55860914D01*
X70680000Y-55719086D01*
X70652331Y-55579984D01*
X70598056Y-55448952D01*
X70519261Y-55331027D01*
X70418973Y-55230739D01*
X70301048Y-55151944D01*
X70170016Y-55097669D01*
X70030914Y-55070000D01*
X69889086Y-55070000D01*
X69749984Y-55097669D01*
X69618952Y-55151944D01*
X69501027Y-55230739D01*
X69400739Y-55331027D01*
X69321944Y-55448952D01*
X69267669Y-55579984D01*
X69240000Y-55719086D01*
X50034195Y-55719086D01*
X50105637Y-55546613D01*
X50152790Y-55309559D01*
X50152790Y-55067861D01*
X50105637Y-54830807D01*
X50013143Y-54607508D01*
X49878863Y-54406543D01*
X49707957Y-54235637D01*
X49506992Y-54101357D01*
X49283693Y-54008863D01*
X49046639Y-53961710D01*
X48804941Y-53961710D01*
X48567887Y-54008863D01*
X48344588Y-54101357D01*
X48143623Y-54235637D01*
X47972717Y-54406543D01*
X47838437Y-54607508D01*
X47745943Y-54830807D01*
X47698790Y-55067861D01*
X47612790Y-55067861D01*
X47565637Y-54830807D01*
X47473143Y-54607508D01*
X47338863Y-54406543D01*
X47167957Y-54235637D01*
X46966992Y-54101357D01*
X46743693Y-54008863D01*
X46506639Y-53961710D01*
X46264941Y-53961710D01*
X46027887Y-54008863D01*
X45804588Y-54101357D01*
X45603623Y-54235637D01*
X45432717Y-54406543D01*
X45298437Y-54607508D01*
X45205943Y-54830807D01*
X45158790Y-55067861D01*
X44402000Y-55067861D01*
X44402000Y-52527861D01*
X45158790Y-52527861D01*
X45158790Y-52769559D01*
X45205943Y-53006613D01*
X45298437Y-53229912D01*
X45432717Y-53430877D01*
X45603623Y-53601783D01*
X45804588Y-53736063D01*
X46027887Y-53828557D01*
X46264941Y-53875710D01*
X46506639Y-53875710D01*
X46743693Y-53828557D01*
X46966992Y-53736063D01*
X47167957Y-53601783D01*
X47338863Y-53430877D01*
X47473143Y-53229912D01*
X47565637Y-53006613D01*
X47612790Y-52769559D01*
X47612790Y-52527861D01*
X47698790Y-52527861D01*
X47698790Y-52769559D01*
X47745943Y-53006613D01*
X47838437Y-53229912D01*
X47972717Y-53430877D01*
X48143623Y-53601783D01*
X48344588Y-53736063D01*
X48567887Y-53828557D01*
X48804941Y-53875710D01*
X49046639Y-53875710D01*
X49283693Y-53828557D01*
X49506992Y-53736063D01*
X49707957Y-53601783D01*
X49878863Y-53430877D01*
X50013143Y-53229912D01*
X50049659Y-53141755D01*
X72016508Y-53141755D01*
X72016508Y-53283583D01*
X72044177Y-53422685D01*
X72098452Y-53553717D01*
X72177247Y-53671642D01*
X72277535Y-53771930D01*
X72395460Y-53850725D01*
X72526492Y-53905000D01*
X72665594Y-53932669D01*
X72807422Y-53932669D01*
X72946524Y-53905000D01*
X73077556Y-53850725D01*
X73195481Y-53771930D01*
X73295769Y-53671642D01*
X73374564Y-53553717D01*
X73428839Y-53422685D01*
X73456508Y-53283583D01*
X73456508Y-53141755D01*
X73428839Y-53002653D01*
X73374564Y-52871621D01*
X73295769Y-52753696D01*
X73231159Y-52689086D01*
X75070000Y-52689086D01*
X75070000Y-52830914D01*
X75097669Y-52970016D01*
X75151944Y-53101048D01*
X75230739Y-53218973D01*
X75331027Y-53319261D01*
X75448952Y-53398056D01*
X75579984Y-53452331D01*
X75719086Y-53480000D01*
X75860914Y-53480000D01*
X76000016Y-53452331D01*
X76131048Y-53398056D01*
X76248973Y-53319261D01*
X76349261Y-53218973D01*
X76428056Y-53101048D01*
X76437152Y-53079086D01*
X83700000Y-53079086D01*
X83700000Y-53220914D01*
X83727669Y-53360016D01*
X83781944Y-53491048D01*
X83860739Y-53608973D01*
X83961027Y-53709261D01*
X84078952Y-53788056D01*
X84209984Y-53842331D01*
X84349086Y-53870000D01*
X84490914Y-53870000D01*
X84630016Y-53842331D01*
X84761048Y-53788056D01*
X84878973Y-53709261D01*
X84979261Y-53608973D01*
X85038318Y-53520588D01*
X85110739Y-53628973D01*
X85211027Y-53729261D01*
X85328952Y-53808056D01*
X85459984Y-53862331D01*
X85599086Y-53890000D01*
X85740914Y-53890000D01*
X85880016Y-53862331D01*
X86011048Y-53808056D01*
X86128973Y-53729261D01*
X86229261Y-53628973D01*
X86308056Y-53511048D01*
X86362331Y-53380016D01*
X86390000Y-53240914D01*
X86390000Y-53099086D01*
X86362331Y-52959984D01*
X86308056Y-52828952D01*
X86229261Y-52711027D01*
X86128973Y-52610739D01*
X86011048Y-52531944D01*
X85880016Y-52477669D01*
X85740914Y-52450000D01*
X85599086Y-52450000D01*
X85459984Y-52477669D01*
X85328952Y-52531944D01*
X85211027Y-52610739D01*
X85110739Y-52711027D01*
X85051682Y-52799412D01*
X84979261Y-52691027D01*
X84878973Y-52590739D01*
X84761048Y-52511944D01*
X84630016Y-52457669D01*
X84490914Y-52430000D01*
X84349086Y-52430000D01*
X84209984Y-52457669D01*
X84078952Y-52511944D01*
X83961027Y-52590739D01*
X83860739Y-52691027D01*
X83781944Y-52808952D01*
X83727669Y-52939984D01*
X83700000Y-53079086D01*
X76437152Y-53079086D01*
X76482331Y-52970016D01*
X76510000Y-52830914D01*
X76510000Y-52689086D01*
X76482331Y-52549984D01*
X76428056Y-52418952D01*
X76349261Y-52301027D01*
X76257320Y-52209086D01*
X80720000Y-52209086D01*
X80720000Y-52350914D01*
X80747669Y-52490016D01*
X80801944Y-52621048D01*
X80880739Y-52738973D01*
X80981027Y-52839261D01*
X81098952Y-52918056D01*
X81229984Y-52972331D01*
X81369086Y-53000000D01*
X81510914Y-53000000D01*
X81650016Y-52972331D01*
X81781048Y-52918056D01*
X81898973Y-52839261D01*
X81999261Y-52738973D01*
X82078056Y-52621048D01*
X82132331Y-52490016D01*
X82160000Y-52350914D01*
X82160000Y-52209086D01*
X82132331Y-52069984D01*
X82078056Y-51938952D01*
X81999261Y-51821027D01*
X81923234Y-51745000D01*
X82009261Y-51658973D01*
X82088056Y-51541048D01*
X82142331Y-51410016D01*
X82170000Y-51270914D01*
X82170000Y-51129086D01*
X82142331Y-50989984D01*
X82088056Y-50858952D01*
X82009261Y-50741027D01*
X81908973Y-50640739D01*
X81791048Y-50561944D01*
X81660016Y-50507669D01*
X81520914Y-50480000D01*
X81379086Y-50480000D01*
X81239984Y-50507669D01*
X81108952Y-50561944D01*
X80991027Y-50640739D01*
X80890739Y-50741027D01*
X80811944Y-50858952D01*
X80757669Y-50989984D01*
X80730000Y-51129086D01*
X80730000Y-51270914D01*
X80757669Y-51410016D01*
X80811944Y-51541048D01*
X80890739Y-51658973D01*
X80966766Y-51735000D01*
X80880739Y-51821027D01*
X80801944Y-51938952D01*
X80747669Y-52069984D01*
X80720000Y-52209086D01*
X76257320Y-52209086D01*
X76248973Y-52200739D01*
X76131048Y-52121944D01*
X76000016Y-52067669D01*
X75860914Y-52040000D01*
X75719086Y-52040000D01*
X75579984Y-52067669D01*
X75448952Y-52121944D01*
X75331027Y-52200739D01*
X75230739Y-52301027D01*
X75151944Y-52418952D01*
X75097669Y-52549984D01*
X75070000Y-52689086D01*
X73231159Y-52689086D01*
X73195481Y-52653408D01*
X73077556Y-52574613D01*
X72946524Y-52520338D01*
X72807422Y-52492669D01*
X72665594Y-52492669D01*
X72526492Y-52520338D01*
X72395460Y-52574613D01*
X72277535Y-52653408D01*
X72177247Y-52753696D01*
X72098452Y-52871621D01*
X72044177Y-53002653D01*
X72016508Y-53141755D01*
X50049659Y-53141755D01*
X50105637Y-53006613D01*
X50152790Y-52769559D01*
X50152790Y-52527861D01*
X50105637Y-52290807D01*
X50013143Y-52067508D01*
X49878863Y-51866543D01*
X49707957Y-51695637D01*
X49506992Y-51561357D01*
X49283693Y-51468863D01*
X49046639Y-51421710D01*
X48804941Y-51421710D01*
X48567887Y-51468863D01*
X48344588Y-51561357D01*
X48143623Y-51695637D01*
X47972717Y-51866543D01*
X47838437Y-52067508D01*
X47745943Y-52290807D01*
X47698790Y-52527861D01*
X47612790Y-52527861D01*
X47565637Y-52290807D01*
X47473143Y-52067508D01*
X47338863Y-51866543D01*
X47167957Y-51695637D01*
X46966992Y-51561357D01*
X46743693Y-51468863D01*
X46506639Y-51421710D01*
X46264941Y-51421710D01*
X46027887Y-51468863D01*
X45804588Y-51561357D01*
X45603623Y-51695637D01*
X45432717Y-51866543D01*
X45298437Y-52067508D01*
X45205943Y-52290807D01*
X45158790Y-52527861D01*
X44402000Y-52527861D01*
X44402000Y-49987861D01*
X45158790Y-49987861D01*
X45158790Y-50229559D01*
X45205943Y-50466613D01*
X45298437Y-50689912D01*
X45432717Y-50890877D01*
X45603623Y-51061783D01*
X45804588Y-51196063D01*
X46027887Y-51288557D01*
X46264941Y-51335710D01*
X46506639Y-51335710D01*
X46743693Y-51288557D01*
X46966992Y-51196063D01*
X47167957Y-51061783D01*
X47338863Y-50890877D01*
X47473143Y-50689912D01*
X47565637Y-50466613D01*
X47612790Y-50229559D01*
X47612790Y-49987861D01*
X47698790Y-49987861D01*
X47698790Y-50229559D01*
X47745943Y-50466613D01*
X47838437Y-50689912D01*
X47972717Y-50890877D01*
X48143623Y-51061783D01*
X48344588Y-51196063D01*
X48567887Y-51288557D01*
X48804941Y-51335710D01*
X49046639Y-51335710D01*
X49283693Y-51288557D01*
X49506992Y-51196063D01*
X49707957Y-51061783D01*
X49878863Y-50890877D01*
X50013143Y-50689912D01*
X50105637Y-50466613D01*
X50152790Y-50229559D01*
X50152790Y-49987861D01*
X50105637Y-49750807D01*
X50013143Y-49527508D01*
X49878863Y-49326543D01*
X49707957Y-49155637D01*
X49506992Y-49021357D01*
X49283693Y-48928863D01*
X49046639Y-48881710D01*
X48804941Y-48881710D01*
X48567887Y-48928863D01*
X48344588Y-49021357D01*
X48143623Y-49155637D01*
X47972717Y-49326543D01*
X47838437Y-49527508D01*
X47745943Y-49750807D01*
X47698790Y-49987861D01*
X47612790Y-49987861D01*
X47565637Y-49750807D01*
X47473143Y-49527508D01*
X47338863Y-49326543D01*
X47167957Y-49155637D01*
X46966992Y-49021357D01*
X46743693Y-48928863D01*
X46506639Y-48881710D01*
X46264941Y-48881710D01*
X46027887Y-48928863D01*
X45804588Y-49021357D01*
X45603623Y-49155637D01*
X45432717Y-49326543D01*
X45298437Y-49527508D01*
X45205943Y-49750807D01*
X45158790Y-49987861D01*
X44402000Y-49987861D01*
X44402000Y-47447861D01*
X47698790Y-47447861D01*
X47698790Y-47689559D01*
X47745943Y-47926613D01*
X47838437Y-48149912D01*
X47972717Y-48350877D01*
X48143623Y-48521783D01*
X48344588Y-48656063D01*
X48567887Y-48748557D01*
X48804941Y-48795710D01*
X49046639Y-48795710D01*
X49283693Y-48748557D01*
X49506992Y-48656063D01*
X49707957Y-48521783D01*
X49878863Y-48350877D01*
X50013143Y-48149912D01*
X50105637Y-47926613D01*
X50152790Y-47689559D01*
X50152790Y-47447861D01*
X50105637Y-47210807D01*
X50013143Y-46987508D01*
X49878863Y-46786543D01*
X49707957Y-46615637D01*
X49506992Y-46481357D01*
X49283693Y-46388863D01*
X49046639Y-46341710D01*
X48804941Y-46341710D01*
X48567887Y-46388863D01*
X48344588Y-46481357D01*
X48143623Y-46615637D01*
X47972717Y-46786543D01*
X47838437Y-46987508D01*
X47745943Y-47210807D01*
X47698790Y-47447861D01*
X44402000Y-47447861D01*
X44402000Y-44907861D01*
X45158790Y-44907861D01*
X45158790Y-45149559D01*
X45205943Y-45386613D01*
X45298437Y-45609912D01*
X45432717Y-45810877D01*
X45603623Y-45981783D01*
X45804588Y-46116063D01*
X46027887Y-46208557D01*
X46264941Y-46255710D01*
X46506639Y-46255710D01*
X46743693Y-46208557D01*
X46966992Y-46116063D01*
X47167957Y-45981783D01*
X47338863Y-45810877D01*
X47473143Y-45609912D01*
X47565637Y-45386613D01*
X47612790Y-45149559D01*
X47612790Y-44907861D01*
X47698790Y-44907861D01*
X47698790Y-45149559D01*
X47745943Y-45386613D01*
X47838437Y-45609912D01*
X47972717Y-45810877D01*
X48143623Y-45981783D01*
X48344588Y-46116063D01*
X48567887Y-46208557D01*
X48804941Y-46255710D01*
X49046639Y-46255710D01*
X49283693Y-46208557D01*
X49506992Y-46116063D01*
X49707957Y-45981783D01*
X49878863Y-45810877D01*
X50013143Y-45609912D01*
X50105637Y-45386613D01*
X50152790Y-45149559D01*
X50152790Y-44907861D01*
X50105637Y-44670807D01*
X50013143Y-44447508D01*
X49878863Y-44246543D01*
X49707957Y-44075637D01*
X49506992Y-43941357D01*
X49283693Y-43848863D01*
X49046639Y-43801710D01*
X48804941Y-43801710D01*
X48567887Y-43848863D01*
X48344588Y-43941357D01*
X48143623Y-44075637D01*
X47972717Y-44246543D01*
X47838437Y-44447508D01*
X47745943Y-44670807D01*
X47698790Y-44907861D01*
X47612790Y-44907861D01*
X47565637Y-44670807D01*
X47473143Y-44447508D01*
X47338863Y-44246543D01*
X47167957Y-44075637D01*
X46966992Y-43941357D01*
X46743693Y-43848863D01*
X46506639Y-43801710D01*
X46264941Y-43801710D01*
X46027887Y-43848863D01*
X45804588Y-43941357D01*
X45603623Y-44075637D01*
X45432717Y-44246543D01*
X45298437Y-44447508D01*
X45205943Y-44670807D01*
X45158790Y-44907861D01*
X44402000Y-44907861D01*
X44402000Y-42367861D01*
X45158790Y-42367861D01*
X45158790Y-42609559D01*
X45205943Y-42846613D01*
X45298437Y-43069912D01*
X45432717Y-43270877D01*
X45603623Y-43441783D01*
X45804588Y-43576063D01*
X46027887Y-43668557D01*
X46264941Y-43715710D01*
X46506639Y-43715710D01*
X46743693Y-43668557D01*
X46966992Y-43576063D01*
X47167957Y-43441783D01*
X47338863Y-43270877D01*
X47473143Y-43069912D01*
X47565637Y-42846613D01*
X47612790Y-42609559D01*
X47612790Y-42367861D01*
X47698790Y-42367861D01*
X47698790Y-42609559D01*
X47745943Y-42846613D01*
X47838437Y-43069912D01*
X47972717Y-43270877D01*
X48143623Y-43441783D01*
X48344588Y-43576063D01*
X48567887Y-43668557D01*
X48804941Y-43715710D01*
X49046639Y-43715710D01*
X49283693Y-43668557D01*
X49506992Y-43576063D01*
X49707957Y-43441783D01*
X49878863Y-43270877D01*
X50013143Y-43069912D01*
X50105637Y-42846613D01*
X50152790Y-42609559D01*
X50152790Y-42367861D01*
X50105637Y-42130807D01*
X50013143Y-41907508D01*
X49878863Y-41706543D01*
X49707957Y-41535637D01*
X49506992Y-41401357D01*
X49283693Y-41308863D01*
X49046639Y-41261710D01*
X48804941Y-41261710D01*
X48567887Y-41308863D01*
X48344588Y-41401357D01*
X48143623Y-41535637D01*
X47972717Y-41706543D01*
X47838437Y-41907508D01*
X47745943Y-42130807D01*
X47698790Y-42367861D01*
X47612790Y-42367861D01*
X47565637Y-42130807D01*
X47473143Y-41907508D01*
X47338863Y-41706543D01*
X47167957Y-41535637D01*
X46966992Y-41401357D01*
X46743693Y-41308863D01*
X46506639Y-41261710D01*
X46264941Y-41261710D01*
X46027887Y-41308863D01*
X45804588Y-41401357D01*
X45603623Y-41535637D01*
X45432717Y-41706543D01*
X45298437Y-41907508D01*
X45205943Y-42130807D01*
X45158790Y-42367861D01*
X44402000Y-42367861D01*
X44402000Y-39827861D01*
X45158790Y-39827861D01*
X45158790Y-40069559D01*
X45205943Y-40306613D01*
X45298437Y-40529912D01*
X45432717Y-40730877D01*
X45603623Y-40901783D01*
X45804588Y-41036063D01*
X46027887Y-41128557D01*
X46264941Y-41175710D01*
X46506639Y-41175710D01*
X46743693Y-41128557D01*
X46966992Y-41036063D01*
X47167957Y-40901783D01*
X47338863Y-40730877D01*
X47473143Y-40529912D01*
X47565637Y-40306613D01*
X47612790Y-40069559D01*
X47612790Y-39827861D01*
X47698790Y-39827861D01*
X47698790Y-40069559D01*
X47745943Y-40306613D01*
X47838437Y-40529912D01*
X47972717Y-40730877D01*
X48143623Y-40901783D01*
X48344588Y-41036063D01*
X48567887Y-41128557D01*
X48804941Y-41175710D01*
X49046639Y-41175710D01*
X49283693Y-41128557D01*
X49506992Y-41036063D01*
X49707957Y-40901783D01*
X49878863Y-40730877D01*
X50013143Y-40529912D01*
X50105637Y-40306613D01*
X50152790Y-40069559D01*
X50152790Y-39827861D01*
X50105637Y-39590807D01*
X50013143Y-39367508D01*
X49878863Y-39166543D01*
X49707957Y-38995637D01*
X49506992Y-38861357D01*
X49283693Y-38768863D01*
X49046639Y-38721710D01*
X48804941Y-38721710D01*
X48567887Y-38768863D01*
X48344588Y-38861357D01*
X48143623Y-38995637D01*
X47972717Y-39166543D01*
X47838437Y-39367508D01*
X47745943Y-39590807D01*
X47698790Y-39827861D01*
X47612790Y-39827861D01*
X47565637Y-39590807D01*
X47473143Y-39367508D01*
X47338863Y-39166543D01*
X47167957Y-38995637D01*
X46966992Y-38861357D01*
X46743693Y-38768863D01*
X46506639Y-38721710D01*
X46264941Y-38721710D01*
X46027887Y-38768863D01*
X45804588Y-38861357D01*
X45603623Y-38995637D01*
X45432717Y-39166543D01*
X45298437Y-39367508D01*
X45205943Y-39590807D01*
X45158790Y-39827861D01*
X44402000Y-39827861D01*
X44402000Y-37287861D01*
X45158790Y-37287861D01*
X45158790Y-37529559D01*
X45205943Y-37766613D01*
X45298437Y-37989912D01*
X45432717Y-38190877D01*
X45603623Y-38361783D01*
X45804588Y-38496063D01*
X46027887Y-38588557D01*
X46264941Y-38635710D01*
X46506639Y-38635710D01*
X46743693Y-38588557D01*
X46966992Y-38496063D01*
X47167957Y-38361783D01*
X47338863Y-38190877D01*
X47473143Y-37989912D01*
X47565637Y-37766613D01*
X47612790Y-37529559D01*
X47612790Y-37287861D01*
X47698790Y-37287861D01*
X47698790Y-37529559D01*
X47745943Y-37766613D01*
X47838437Y-37989912D01*
X47972717Y-38190877D01*
X48143623Y-38361783D01*
X48344588Y-38496063D01*
X48567887Y-38588557D01*
X48804941Y-38635710D01*
X49046639Y-38635710D01*
X49283693Y-38588557D01*
X49506992Y-38496063D01*
X49707957Y-38361783D01*
X49878863Y-38190877D01*
X50013143Y-37989912D01*
X50105637Y-37766613D01*
X50152790Y-37529559D01*
X50152790Y-37287861D01*
X50105637Y-37050807D01*
X50013143Y-36827508D01*
X49878863Y-36626543D01*
X49707957Y-36455637D01*
X49506992Y-36321357D01*
X49283693Y-36228863D01*
X49046639Y-36181710D01*
X48804941Y-36181710D01*
X48567887Y-36228863D01*
X48344588Y-36321357D01*
X48143623Y-36455637D01*
X47972717Y-36626543D01*
X47838437Y-36827508D01*
X47745943Y-37050807D01*
X47698790Y-37287861D01*
X47612790Y-37287861D01*
X47565637Y-37050807D01*
X47473143Y-36827508D01*
X47338863Y-36626543D01*
X47167957Y-36455637D01*
X46966992Y-36321357D01*
X46743693Y-36228863D01*
X46506639Y-36181710D01*
X46264941Y-36181710D01*
X46027887Y-36228863D01*
X45804588Y-36321357D01*
X45603623Y-36455637D01*
X45432717Y-36626543D01*
X45298437Y-36827508D01*
X45205943Y-37050807D01*
X45158790Y-37287861D01*
X44402000Y-37287861D01*
X44402000Y-34747861D01*
X45158790Y-34747861D01*
X45158790Y-34989559D01*
X45205943Y-35226613D01*
X45298437Y-35449912D01*
X45432717Y-35650877D01*
X45603623Y-35821783D01*
X45804588Y-35956063D01*
X46027887Y-36048557D01*
X46264941Y-36095710D01*
X46506639Y-36095710D01*
X46743693Y-36048557D01*
X46966992Y-35956063D01*
X47167957Y-35821783D01*
X47338863Y-35650877D01*
X47473143Y-35449912D01*
X47565637Y-35226613D01*
X47612790Y-34989559D01*
X47612790Y-34747861D01*
X47698790Y-34747861D01*
X47698790Y-34989559D01*
X47745943Y-35226613D01*
X47838437Y-35449912D01*
X47972717Y-35650877D01*
X48143623Y-35821783D01*
X48344588Y-35956063D01*
X48567887Y-36048557D01*
X48804941Y-36095710D01*
X49046639Y-36095710D01*
X49283693Y-36048557D01*
X49506992Y-35956063D01*
X49707957Y-35821783D01*
X49878863Y-35650877D01*
X50013143Y-35449912D01*
X50105637Y-35226613D01*
X50152790Y-34989559D01*
X50152790Y-34747861D01*
X50105637Y-34510807D01*
X50013143Y-34287508D01*
X49878863Y-34086543D01*
X49707957Y-33915637D01*
X49506992Y-33781357D01*
X49283693Y-33688863D01*
X49046639Y-33641710D01*
X48804941Y-33641710D01*
X48567887Y-33688863D01*
X48344588Y-33781357D01*
X48143623Y-33915637D01*
X47972717Y-34086543D01*
X47838437Y-34287508D01*
X47745943Y-34510807D01*
X47698790Y-34747861D01*
X47612790Y-34747861D01*
X47565637Y-34510807D01*
X47473143Y-34287508D01*
X47338863Y-34086543D01*
X47167957Y-33915637D01*
X46966992Y-33781357D01*
X46743693Y-33688863D01*
X46506639Y-33641710D01*
X46264941Y-33641710D01*
X46027887Y-33688863D01*
X45804588Y-33781357D01*
X45603623Y-33915637D01*
X45432717Y-34086543D01*
X45298437Y-34287508D01*
X45205943Y-34510807D01*
X45158790Y-34747861D01*
X44402000Y-34747861D01*
X44402000Y-32207861D01*
X45158790Y-32207861D01*
X45158790Y-32449559D01*
X45205943Y-32686613D01*
X45298437Y-32909912D01*
X45432717Y-33110877D01*
X45603623Y-33281783D01*
X45804588Y-33416063D01*
X46027887Y-33508557D01*
X46264941Y-33555710D01*
X46506639Y-33555710D01*
X46743693Y-33508557D01*
X46966992Y-33416063D01*
X47167957Y-33281783D01*
X47338863Y-33110877D01*
X47473143Y-32909912D01*
X47565637Y-32686613D01*
X47612790Y-32449559D01*
X47612790Y-32207861D01*
X47698790Y-32207861D01*
X47698790Y-32449559D01*
X47745943Y-32686613D01*
X47838437Y-32909912D01*
X47972717Y-33110877D01*
X48143623Y-33281783D01*
X48344588Y-33416063D01*
X48567887Y-33508557D01*
X48804941Y-33555710D01*
X49046639Y-33555710D01*
X49283693Y-33508557D01*
X49506992Y-33416063D01*
X49707957Y-33281783D01*
X49878863Y-33110877D01*
X50013143Y-32909912D01*
X50105637Y-32686613D01*
X50152790Y-32449559D01*
X50152790Y-32207861D01*
X50105637Y-31970807D01*
X50013143Y-31747508D01*
X49878863Y-31546543D01*
X49707957Y-31375637D01*
X49506992Y-31241357D01*
X49283693Y-31148863D01*
X49046639Y-31101710D01*
X48804941Y-31101710D01*
X48567887Y-31148863D01*
X48344588Y-31241357D01*
X48143623Y-31375637D01*
X47972717Y-31546543D01*
X47838437Y-31747508D01*
X47745943Y-31970807D01*
X47698790Y-32207861D01*
X47612790Y-32207861D01*
X47565637Y-31970807D01*
X47473143Y-31747508D01*
X47338863Y-31546543D01*
X47167957Y-31375637D01*
X46966992Y-31241357D01*
X46743693Y-31148863D01*
X46506639Y-31101710D01*
X46264941Y-31101710D01*
X46027887Y-31148863D01*
X45804588Y-31241357D01*
X45603623Y-31375637D01*
X45432717Y-31546543D01*
X45298437Y-31747508D01*
X45205943Y-31970807D01*
X45158790Y-32207861D01*
X44402000Y-32207861D01*
X44402000Y-29667861D01*
X45158790Y-29667861D01*
X45158790Y-29909559D01*
X45205943Y-30146613D01*
X45298437Y-30369912D01*
X45432717Y-30570877D01*
X45603623Y-30741783D01*
X45804588Y-30876063D01*
X46027887Y-30968557D01*
X46264941Y-31015710D01*
X46506639Y-31015710D01*
X46743693Y-30968557D01*
X46966992Y-30876063D01*
X47167957Y-30741783D01*
X47338863Y-30570877D01*
X47473143Y-30369912D01*
X47565637Y-30146613D01*
X47612790Y-29909559D01*
X47612790Y-29667861D01*
X47698790Y-29667861D01*
X47698790Y-29909559D01*
X47745943Y-30146613D01*
X47838437Y-30369912D01*
X47972717Y-30570877D01*
X48143623Y-30741783D01*
X48344588Y-30876063D01*
X48567887Y-30968557D01*
X48804941Y-31015710D01*
X49046639Y-31015710D01*
X49283693Y-30968557D01*
X49506992Y-30876063D01*
X49707957Y-30741783D01*
X49878863Y-30570877D01*
X50013143Y-30369912D01*
X50105637Y-30146613D01*
X50152790Y-29909559D01*
X50152790Y-29667861D01*
X50105637Y-29430807D01*
X50013143Y-29207508D01*
X49878863Y-29006543D01*
X49707957Y-28835637D01*
X49506992Y-28701357D01*
X49283693Y-28608863D01*
X49046639Y-28561710D01*
X48804941Y-28561710D01*
X48567887Y-28608863D01*
X48344588Y-28701357D01*
X48143623Y-28835637D01*
X47972717Y-29006543D01*
X47838437Y-29207508D01*
X47745943Y-29430807D01*
X47698790Y-29667861D01*
X47612790Y-29667861D01*
X47565637Y-29430807D01*
X47473143Y-29207508D01*
X47338863Y-29006543D01*
X47167957Y-28835637D01*
X46966992Y-28701357D01*
X46743693Y-28608863D01*
X46506639Y-28561710D01*
X46264941Y-28561710D01*
X46027887Y-28608863D01*
X45804588Y-28701357D01*
X45603623Y-28835637D01*
X45432717Y-29006543D01*
X45298437Y-29207508D01*
X45205943Y-29430807D01*
X45158790Y-29667861D01*
X44402000Y-29667861D01*
X44402000Y-27127861D01*
X45158790Y-27127861D01*
X45158790Y-27369559D01*
X45205943Y-27606613D01*
X45298437Y-27829912D01*
X45432717Y-28030877D01*
X45603623Y-28201783D01*
X45804588Y-28336063D01*
X46027887Y-28428557D01*
X46264941Y-28475710D01*
X46506639Y-28475710D01*
X46743693Y-28428557D01*
X46966992Y-28336063D01*
X47167957Y-28201783D01*
X47338863Y-28030877D01*
X47473143Y-27829912D01*
X47565637Y-27606613D01*
X47612790Y-27369559D01*
X47612790Y-27127861D01*
X47565637Y-26890807D01*
X47473143Y-26667508D01*
X47338863Y-26466543D01*
X47271030Y-26398710D01*
X47696966Y-26398710D01*
X47696966Y-28098710D01*
X47704245Y-28172615D01*
X47725802Y-28243680D01*
X47760809Y-28309173D01*
X47807921Y-28366579D01*
X47865327Y-28413691D01*
X47930820Y-28448698D01*
X48001885Y-28470255D01*
X48075790Y-28477534D01*
X49775790Y-28477534D01*
X49849695Y-28470255D01*
X49920760Y-28448698D01*
X49986253Y-28413691D01*
X50043659Y-28366579D01*
X50090771Y-28309173D01*
X50125778Y-28243680D01*
X50147335Y-28172615D01*
X50154614Y-28098710D01*
X50154614Y-26398710D01*
X50147335Y-26324805D01*
X50125778Y-26253740D01*
X50090771Y-26188247D01*
X50043659Y-26130841D01*
X49986253Y-26083729D01*
X49920760Y-26048722D01*
X49849695Y-26027165D01*
X49775790Y-26019886D01*
X48075790Y-26019886D01*
X48001885Y-26027165D01*
X47930820Y-26048722D01*
X47865327Y-26083729D01*
X47807921Y-26130841D01*
X47760809Y-26188247D01*
X47725802Y-26253740D01*
X47704245Y-26324805D01*
X47696966Y-26398710D01*
X47271030Y-26398710D01*
X47167957Y-26295637D01*
X46966992Y-26161357D01*
X46743693Y-26068863D01*
X46506639Y-26021710D01*
X46264941Y-26021710D01*
X46027887Y-26068863D01*
X45804588Y-26161357D01*
X45603623Y-26295637D01*
X45432717Y-26466543D01*
X45298437Y-26667508D01*
X45205943Y-26890807D01*
X45158790Y-27127861D01*
X44402000Y-27127861D01*
X44402000Y-24402000D01*
X46480253Y-24402000D01*
X46500000Y-24403945D01*
X46519747Y-24402000D01*
X46578806Y-24396183D01*
X46654583Y-24373197D01*
X46724420Y-24335868D01*
X46785632Y-24285632D01*
X46835868Y-24224420D01*
X46873197Y-24154583D01*
X46896183Y-24078806D01*
X46903945Y-24000000D01*
X46902000Y-23980253D01*
X46902000Y-14072000D01*
X56838001Y-14072000D01*
X56838000Y-28460253D01*
G37*
%TD.AperFunction*%
%TD*%
M02*
