%TF.GenerationSoftware,KiCad,Pcbnew,7.0.11+dfsg-1*%
%TF.CreationDate,2024-03-22T13:59:39+02:00*%
%TF.ProjectId,dexx_video_adapter,64657878-5f76-4696-9465-6f5f61646170,rev?*%
%TF.SameCoordinates,Original*%
%TF.FileFunction,Legend,Top*%
%TF.FilePolarity,Positive*%
%FSLAX46Y46*%
G04 Gerber Fmt 4.6, Leading zero omitted, Abs format (unit mm)*
G04 Created by KiCad (PCBNEW 7.0.11+dfsg-1) date 2024-03-22 13:59:39*
%MOMM*%
%LPD*%
G01*
G04 APERTURE LIST*
%ADD10C,0.150000*%
%ADD11C,0.127000*%
%ADD12C,0.114300*%
%ADD13C,0.152400*%
%ADD14C,0.508000*%
%ADD15C,0.400000*%
%ADD16C,0.120000*%
%ADD17C,0.119380*%
%ADD18C,1.600000*%
%ADD19C,4.500000*%
%ADD20C,2.200000*%
G04 APERTURE END LIST*
D10*
X39035125Y-14826847D02*
X39035125Y-16255419D01*
X38320839Y-15541133D02*
X37558935Y-15541133D01*
X36082744Y-14826847D02*
X36082744Y-16255419D01*
X34654172Y-15207800D02*
X34511315Y-15160180D01*
X34511315Y-15160180D02*
X34273220Y-15160180D01*
X34273220Y-15160180D02*
X34177982Y-15207800D01*
X34177982Y-15207800D02*
X34130363Y-15255419D01*
X34130363Y-15255419D02*
X34082744Y-15350657D01*
X34082744Y-15350657D02*
X34082744Y-15445895D01*
X34082744Y-15445895D02*
X34130363Y-15541133D01*
X34130363Y-15541133D02*
X34177982Y-15588752D01*
X34177982Y-15588752D02*
X34273220Y-15636371D01*
X34273220Y-15636371D02*
X34463696Y-15683990D01*
X34463696Y-15683990D02*
X34558934Y-15731609D01*
X34558934Y-15731609D02*
X34606553Y-15779228D01*
X34606553Y-15779228D02*
X34654172Y-15874466D01*
X34654172Y-15874466D02*
X34654172Y-15969704D01*
X34654172Y-15969704D02*
X34606553Y-16064942D01*
X34606553Y-16064942D02*
X34558934Y-16112561D01*
X34558934Y-16112561D02*
X34463696Y-16160180D01*
X34463696Y-16160180D02*
X34225601Y-16160180D01*
X34225601Y-16160180D02*
X34082744Y-16112561D01*
X33082744Y-15255419D02*
X33130363Y-15207800D01*
X33130363Y-15207800D02*
X33273220Y-15160180D01*
X33273220Y-15160180D02*
X33368458Y-15160180D01*
X33368458Y-15160180D02*
X33511315Y-15207800D01*
X33511315Y-15207800D02*
X33606553Y-15303038D01*
X33606553Y-15303038D02*
X33654172Y-15398276D01*
X33654172Y-15398276D02*
X33701791Y-15588752D01*
X33701791Y-15588752D02*
X33701791Y-15731609D01*
X33701791Y-15731609D02*
X33654172Y-15922085D01*
X33654172Y-15922085D02*
X33606553Y-16017323D01*
X33606553Y-16017323D02*
X33511315Y-16112561D01*
X33511315Y-16112561D02*
X33368458Y-16160180D01*
X33368458Y-16160180D02*
X33273220Y-16160180D01*
X33273220Y-16160180D02*
X33130363Y-16112561D01*
X33130363Y-16112561D02*
X33082744Y-16064942D01*
X32701791Y-15445895D02*
X32225601Y-15445895D01*
X32797029Y-15160180D02*
X32463696Y-16160180D01*
X32463696Y-16160180D02*
X32130363Y-15160180D01*
X31225601Y-15160180D02*
X31558934Y-15636371D01*
X31797029Y-15160180D02*
X31797029Y-16160180D01*
X31797029Y-16160180D02*
X31416077Y-16160180D01*
X31416077Y-16160180D02*
X31320839Y-16112561D01*
X31320839Y-16112561D02*
X31273220Y-16064942D01*
X31273220Y-16064942D02*
X31225601Y-15969704D01*
X31225601Y-15969704D02*
X31225601Y-15826847D01*
X31225601Y-15826847D02*
X31273220Y-15731609D01*
X31273220Y-15731609D02*
X31320839Y-15683990D01*
X31320839Y-15683990D02*
X31416077Y-15636371D01*
X31416077Y-15636371D02*
X31797029Y-15636371D01*
X30939886Y-16160180D02*
X30368458Y-16160180D01*
X30654172Y-15160180D02*
X30654172Y-16160180D01*
X30273220Y-15064942D02*
X29511315Y-15064942D01*
X29273219Y-15160180D02*
X29273219Y-16160180D01*
X39035125Y-13216847D02*
X39035125Y-14645419D01*
X37558934Y-13931133D02*
X36797030Y-13931133D01*
X36082744Y-13216847D02*
X36082744Y-14645419D01*
X34654172Y-13597800D02*
X34511315Y-13550180D01*
X34511315Y-13550180D02*
X34273220Y-13550180D01*
X34273220Y-13550180D02*
X34177982Y-13597800D01*
X34177982Y-13597800D02*
X34130363Y-13645419D01*
X34130363Y-13645419D02*
X34082744Y-13740657D01*
X34082744Y-13740657D02*
X34082744Y-13835895D01*
X34082744Y-13835895D02*
X34130363Y-13931133D01*
X34130363Y-13931133D02*
X34177982Y-13978752D01*
X34177982Y-13978752D02*
X34273220Y-14026371D01*
X34273220Y-14026371D02*
X34463696Y-14073990D01*
X34463696Y-14073990D02*
X34558934Y-14121609D01*
X34558934Y-14121609D02*
X34606553Y-14169228D01*
X34606553Y-14169228D02*
X34654172Y-14264466D01*
X34654172Y-14264466D02*
X34654172Y-14359704D01*
X34654172Y-14359704D02*
X34606553Y-14454942D01*
X34606553Y-14454942D02*
X34558934Y-14502561D01*
X34558934Y-14502561D02*
X34463696Y-14550180D01*
X34463696Y-14550180D02*
X34225601Y-14550180D01*
X34225601Y-14550180D02*
X34082744Y-14502561D01*
X33082744Y-13645419D02*
X33130363Y-13597800D01*
X33130363Y-13597800D02*
X33273220Y-13550180D01*
X33273220Y-13550180D02*
X33368458Y-13550180D01*
X33368458Y-13550180D02*
X33511315Y-13597800D01*
X33511315Y-13597800D02*
X33606553Y-13693038D01*
X33606553Y-13693038D02*
X33654172Y-13788276D01*
X33654172Y-13788276D02*
X33701791Y-13978752D01*
X33701791Y-13978752D02*
X33701791Y-14121609D01*
X33701791Y-14121609D02*
X33654172Y-14312085D01*
X33654172Y-14312085D02*
X33606553Y-14407323D01*
X33606553Y-14407323D02*
X33511315Y-14502561D01*
X33511315Y-14502561D02*
X33368458Y-14550180D01*
X33368458Y-14550180D02*
X33273220Y-14550180D01*
X33273220Y-14550180D02*
X33130363Y-14502561D01*
X33130363Y-14502561D02*
X33082744Y-14454942D01*
X32701791Y-13835895D02*
X32225601Y-13835895D01*
X32797029Y-13550180D02*
X32463696Y-14550180D01*
X32463696Y-14550180D02*
X32130363Y-13550180D01*
X31225601Y-13550180D02*
X31558934Y-14026371D01*
X31797029Y-13550180D02*
X31797029Y-14550180D01*
X31797029Y-14550180D02*
X31416077Y-14550180D01*
X31416077Y-14550180D02*
X31320839Y-14502561D01*
X31320839Y-14502561D02*
X31273220Y-14454942D01*
X31273220Y-14454942D02*
X31225601Y-14359704D01*
X31225601Y-14359704D02*
X31225601Y-14216847D01*
X31225601Y-14216847D02*
X31273220Y-14121609D01*
X31273220Y-14121609D02*
X31320839Y-14073990D01*
X31320839Y-14073990D02*
X31416077Y-14026371D01*
X31416077Y-14026371D02*
X31797029Y-14026371D01*
X30939886Y-14550180D02*
X30368458Y-14550180D01*
X30654172Y-13550180D02*
X30654172Y-14550180D01*
X30273220Y-13454942D02*
X29511315Y-13454942D01*
X29082743Y-14550180D02*
X28892267Y-14550180D01*
X28892267Y-14550180D02*
X28797029Y-14502561D01*
X28797029Y-14502561D02*
X28701791Y-14407323D01*
X28701791Y-14407323D02*
X28654172Y-14216847D01*
X28654172Y-14216847D02*
X28654172Y-13883514D01*
X28654172Y-13883514D02*
X28701791Y-13693038D01*
X28701791Y-13693038D02*
X28797029Y-13597800D01*
X28797029Y-13597800D02*
X28892267Y-13550180D01*
X28892267Y-13550180D02*
X29082743Y-13550180D01*
X29082743Y-13550180D02*
X29177981Y-13597800D01*
X29177981Y-13597800D02*
X29273219Y-13693038D01*
X29273219Y-13693038D02*
X29320838Y-13883514D01*
X29320838Y-13883514D02*
X29320838Y-14216847D01*
X29320838Y-14216847D02*
X29273219Y-14407323D01*
X29273219Y-14407323D02*
X29177981Y-14502561D01*
X29177981Y-14502561D02*
X29082743Y-14550180D01*
X57554874Y-65603152D02*
X57554874Y-64174580D01*
X58269160Y-64888866D02*
X59031065Y-64888866D01*
X60507255Y-65603152D02*
X60507255Y-64174580D01*
X61935827Y-65222200D02*
X62078684Y-65269819D01*
X62078684Y-65269819D02*
X62316779Y-65269819D01*
X62316779Y-65269819D02*
X62412017Y-65222200D01*
X62412017Y-65222200D02*
X62459636Y-65174580D01*
X62459636Y-65174580D02*
X62507255Y-65079342D01*
X62507255Y-65079342D02*
X62507255Y-64984104D01*
X62507255Y-64984104D02*
X62459636Y-64888866D01*
X62459636Y-64888866D02*
X62412017Y-64841247D01*
X62412017Y-64841247D02*
X62316779Y-64793628D01*
X62316779Y-64793628D02*
X62126303Y-64746009D01*
X62126303Y-64746009D02*
X62031065Y-64698390D01*
X62031065Y-64698390D02*
X61983446Y-64650771D01*
X61983446Y-64650771D02*
X61935827Y-64555533D01*
X61935827Y-64555533D02*
X61935827Y-64460295D01*
X61935827Y-64460295D02*
X61983446Y-64365057D01*
X61983446Y-64365057D02*
X62031065Y-64317438D01*
X62031065Y-64317438D02*
X62126303Y-64269819D01*
X62126303Y-64269819D02*
X62364398Y-64269819D01*
X62364398Y-64269819D02*
X62507255Y-64317438D01*
X63507255Y-65174580D02*
X63459636Y-65222200D01*
X63459636Y-65222200D02*
X63316779Y-65269819D01*
X63316779Y-65269819D02*
X63221541Y-65269819D01*
X63221541Y-65269819D02*
X63078684Y-65222200D01*
X63078684Y-65222200D02*
X62983446Y-65126961D01*
X62983446Y-65126961D02*
X62935827Y-65031723D01*
X62935827Y-65031723D02*
X62888208Y-64841247D01*
X62888208Y-64841247D02*
X62888208Y-64698390D01*
X62888208Y-64698390D02*
X62935827Y-64507914D01*
X62935827Y-64507914D02*
X62983446Y-64412676D01*
X62983446Y-64412676D02*
X63078684Y-64317438D01*
X63078684Y-64317438D02*
X63221541Y-64269819D01*
X63221541Y-64269819D02*
X63316779Y-64269819D01*
X63316779Y-64269819D02*
X63459636Y-64317438D01*
X63459636Y-64317438D02*
X63507255Y-64365057D01*
X63888208Y-64984104D02*
X64364398Y-64984104D01*
X63792970Y-65269819D02*
X64126303Y-64269819D01*
X64126303Y-64269819D02*
X64459636Y-65269819D01*
X65364398Y-65269819D02*
X65031065Y-64793628D01*
X64792970Y-65269819D02*
X64792970Y-64269819D01*
X64792970Y-64269819D02*
X65173922Y-64269819D01*
X65173922Y-64269819D02*
X65269160Y-64317438D01*
X65269160Y-64317438D02*
X65316779Y-64365057D01*
X65316779Y-64365057D02*
X65364398Y-64460295D01*
X65364398Y-64460295D02*
X65364398Y-64603152D01*
X65364398Y-64603152D02*
X65316779Y-64698390D01*
X65316779Y-64698390D02*
X65269160Y-64746009D01*
X65269160Y-64746009D02*
X65173922Y-64793628D01*
X65173922Y-64793628D02*
X64792970Y-64793628D01*
X65650113Y-64269819D02*
X66221541Y-64269819D01*
X65935827Y-65269819D02*
X65935827Y-64269819D01*
X66316780Y-65365057D02*
X67078684Y-65365057D01*
X67507256Y-64269819D02*
X67697732Y-64269819D01*
X67697732Y-64269819D02*
X67792970Y-64317438D01*
X67792970Y-64317438D02*
X67888208Y-64412676D01*
X67888208Y-64412676D02*
X67935827Y-64603152D01*
X67935827Y-64603152D02*
X67935827Y-64936485D01*
X67935827Y-64936485D02*
X67888208Y-65126961D01*
X67888208Y-65126961D02*
X67792970Y-65222200D01*
X67792970Y-65222200D02*
X67697732Y-65269819D01*
X67697732Y-65269819D02*
X67507256Y-65269819D01*
X67507256Y-65269819D02*
X67412018Y-65222200D01*
X67412018Y-65222200D02*
X67316780Y-65126961D01*
X67316780Y-65126961D02*
X67269161Y-64936485D01*
X67269161Y-64936485D02*
X67269161Y-64603152D01*
X67269161Y-64603152D02*
X67316780Y-64412676D01*
X67316780Y-64412676D02*
X67412018Y-64317438D01*
X67412018Y-64317438D02*
X67507256Y-64269819D01*
X57554874Y-67213152D02*
X57554874Y-65784580D01*
X59031065Y-66498866D02*
X59792970Y-66498866D01*
X60507255Y-67213152D02*
X60507255Y-65784580D01*
X61935827Y-66832200D02*
X62078684Y-66879819D01*
X62078684Y-66879819D02*
X62316779Y-66879819D01*
X62316779Y-66879819D02*
X62412017Y-66832200D01*
X62412017Y-66832200D02*
X62459636Y-66784580D01*
X62459636Y-66784580D02*
X62507255Y-66689342D01*
X62507255Y-66689342D02*
X62507255Y-66594104D01*
X62507255Y-66594104D02*
X62459636Y-66498866D01*
X62459636Y-66498866D02*
X62412017Y-66451247D01*
X62412017Y-66451247D02*
X62316779Y-66403628D01*
X62316779Y-66403628D02*
X62126303Y-66356009D01*
X62126303Y-66356009D02*
X62031065Y-66308390D01*
X62031065Y-66308390D02*
X61983446Y-66260771D01*
X61983446Y-66260771D02*
X61935827Y-66165533D01*
X61935827Y-66165533D02*
X61935827Y-66070295D01*
X61935827Y-66070295D02*
X61983446Y-65975057D01*
X61983446Y-65975057D02*
X62031065Y-65927438D01*
X62031065Y-65927438D02*
X62126303Y-65879819D01*
X62126303Y-65879819D02*
X62364398Y-65879819D01*
X62364398Y-65879819D02*
X62507255Y-65927438D01*
X63507255Y-66784580D02*
X63459636Y-66832200D01*
X63459636Y-66832200D02*
X63316779Y-66879819D01*
X63316779Y-66879819D02*
X63221541Y-66879819D01*
X63221541Y-66879819D02*
X63078684Y-66832200D01*
X63078684Y-66832200D02*
X62983446Y-66736961D01*
X62983446Y-66736961D02*
X62935827Y-66641723D01*
X62935827Y-66641723D02*
X62888208Y-66451247D01*
X62888208Y-66451247D02*
X62888208Y-66308390D01*
X62888208Y-66308390D02*
X62935827Y-66117914D01*
X62935827Y-66117914D02*
X62983446Y-66022676D01*
X62983446Y-66022676D02*
X63078684Y-65927438D01*
X63078684Y-65927438D02*
X63221541Y-65879819D01*
X63221541Y-65879819D02*
X63316779Y-65879819D01*
X63316779Y-65879819D02*
X63459636Y-65927438D01*
X63459636Y-65927438D02*
X63507255Y-65975057D01*
X63888208Y-66594104D02*
X64364398Y-66594104D01*
X63792970Y-66879819D02*
X64126303Y-65879819D01*
X64126303Y-65879819D02*
X64459636Y-66879819D01*
X65364398Y-66879819D02*
X65031065Y-66403628D01*
X64792970Y-66879819D02*
X64792970Y-65879819D01*
X64792970Y-65879819D02*
X65173922Y-65879819D01*
X65173922Y-65879819D02*
X65269160Y-65927438D01*
X65269160Y-65927438D02*
X65316779Y-65975057D01*
X65316779Y-65975057D02*
X65364398Y-66070295D01*
X65364398Y-66070295D02*
X65364398Y-66213152D01*
X65364398Y-66213152D02*
X65316779Y-66308390D01*
X65316779Y-66308390D02*
X65269160Y-66356009D01*
X65269160Y-66356009D02*
X65173922Y-66403628D01*
X65173922Y-66403628D02*
X64792970Y-66403628D01*
X65650113Y-65879819D02*
X66221541Y-65879819D01*
X65935827Y-66879819D02*
X65935827Y-65879819D01*
X66316780Y-66975057D02*
X67078684Y-66975057D01*
X67316780Y-66879819D02*
X67316780Y-65879819D01*
X52153332Y-14442800D02*
X52010475Y-14395180D01*
X52010475Y-14395180D02*
X51772380Y-14395180D01*
X51772380Y-14395180D02*
X51677142Y-14442800D01*
X51677142Y-14442800D02*
X51629523Y-14490419D01*
X51629523Y-14490419D02*
X51581904Y-14585657D01*
X51581904Y-14585657D02*
X51581904Y-14680895D01*
X51581904Y-14680895D02*
X51629523Y-14776133D01*
X51629523Y-14776133D02*
X51677142Y-14823752D01*
X51677142Y-14823752D02*
X51772380Y-14871371D01*
X51772380Y-14871371D02*
X51962856Y-14918990D01*
X51962856Y-14918990D02*
X52058094Y-14966609D01*
X52058094Y-14966609D02*
X52105713Y-15014228D01*
X52105713Y-15014228D02*
X52153332Y-15109466D01*
X52153332Y-15109466D02*
X52153332Y-15204704D01*
X52153332Y-15204704D02*
X52105713Y-15299942D01*
X52105713Y-15299942D02*
X52058094Y-15347561D01*
X52058094Y-15347561D02*
X51962856Y-15395180D01*
X51962856Y-15395180D02*
X51724761Y-15395180D01*
X51724761Y-15395180D02*
X51581904Y-15347561D01*
X51248570Y-15395180D02*
X51010475Y-14395180D01*
X51010475Y-14395180D02*
X50819999Y-15109466D01*
X50819999Y-15109466D02*
X50629523Y-14395180D01*
X50629523Y-14395180D02*
X50391428Y-15395180D01*
X50058094Y-15299942D02*
X50010475Y-15347561D01*
X50010475Y-15347561D02*
X49915237Y-15395180D01*
X49915237Y-15395180D02*
X49677142Y-15395180D01*
X49677142Y-15395180D02*
X49581904Y-15347561D01*
X49581904Y-15347561D02*
X49534285Y-15299942D01*
X49534285Y-15299942D02*
X49486666Y-15204704D01*
X49486666Y-15204704D02*
X49486666Y-15109466D01*
X49486666Y-15109466D02*
X49534285Y-14966609D01*
X49534285Y-14966609D02*
X50105713Y-14395180D01*
X50105713Y-14395180D02*
X49486666Y-14395180D01*
X46186537Y-34834612D02*
X46186537Y-35549173D01*
X46186537Y-35549173D02*
X46138900Y-35692086D01*
X46138900Y-35692086D02*
X46043625Y-35787361D01*
X46043625Y-35787361D02*
X45900713Y-35834998D01*
X45900713Y-35834998D02*
X45805438Y-35834998D01*
X46567637Y-34834612D02*
X47186923Y-34834612D01*
X47186923Y-34834612D02*
X46853461Y-35215711D01*
X46853461Y-35215711D02*
X46996374Y-35215711D01*
X46996374Y-35215711D02*
X47091649Y-35263349D01*
X47091649Y-35263349D02*
X47139286Y-35310986D01*
X47139286Y-35310986D02*
X47186923Y-35406261D01*
X47186923Y-35406261D02*
X47186923Y-35644448D01*
X47186923Y-35644448D02*
X47139286Y-35739723D01*
X47139286Y-35739723D02*
X47091649Y-35787361D01*
X47091649Y-35787361D02*
X46996374Y-35834998D01*
X46996374Y-35834998D02*
X46710549Y-35834998D01*
X46710549Y-35834998D02*
X46615274Y-35787361D01*
X46615274Y-35787361D02*
X46567637Y-35739723D01*
X44356537Y-22084612D02*
X44356537Y-22799173D01*
X44356537Y-22799173D02*
X44308900Y-22942086D01*
X44308900Y-22942086D02*
X44213625Y-23037361D01*
X44213625Y-23037361D02*
X44070713Y-23084998D01*
X44070713Y-23084998D02*
X43975438Y-23084998D01*
X45261649Y-22418074D02*
X45261649Y-23084998D01*
X45023461Y-22036975D02*
X44785274Y-22751536D01*
X44785274Y-22751536D02*
X45404561Y-22751536D01*
X49191905Y-49764819D02*
X49191905Y-48764819D01*
X49191905Y-48764819D02*
X49430000Y-48764819D01*
X49430000Y-48764819D02*
X49572857Y-48812438D01*
X49572857Y-48812438D02*
X49668095Y-48907676D01*
X49668095Y-48907676D02*
X49715714Y-49002914D01*
X49715714Y-49002914D02*
X49763333Y-49193390D01*
X49763333Y-49193390D02*
X49763333Y-49336247D01*
X49763333Y-49336247D02*
X49715714Y-49526723D01*
X49715714Y-49526723D02*
X49668095Y-49621961D01*
X49668095Y-49621961D02*
X49572857Y-49717200D01*
X49572857Y-49717200D02*
X49430000Y-49764819D01*
X49430000Y-49764819D02*
X49191905Y-49764819D01*
X50715714Y-49764819D02*
X50144286Y-49764819D01*
X50430000Y-49764819D02*
X50430000Y-48764819D01*
X50430000Y-48764819D02*
X50334762Y-48907676D01*
X50334762Y-48907676D02*
X50239524Y-49002914D01*
X50239524Y-49002914D02*
X50144286Y-49050533D01*
X32271666Y-30234819D02*
X32271666Y-30949104D01*
X32271666Y-30949104D02*
X32224047Y-31091961D01*
X32224047Y-31091961D02*
X32128809Y-31187200D01*
X32128809Y-31187200D02*
X31985952Y-31234819D01*
X31985952Y-31234819D02*
X31890714Y-31234819D01*
X33176428Y-30234819D02*
X32985952Y-30234819D01*
X32985952Y-30234819D02*
X32890714Y-30282438D01*
X32890714Y-30282438D02*
X32843095Y-30330057D01*
X32843095Y-30330057D02*
X32747857Y-30472914D01*
X32747857Y-30472914D02*
X32700238Y-30663390D01*
X32700238Y-30663390D02*
X32700238Y-31044342D01*
X32700238Y-31044342D02*
X32747857Y-31139580D01*
X32747857Y-31139580D02*
X32795476Y-31187200D01*
X32795476Y-31187200D02*
X32890714Y-31234819D01*
X32890714Y-31234819D02*
X33081190Y-31234819D01*
X33081190Y-31234819D02*
X33176428Y-31187200D01*
X33176428Y-31187200D02*
X33224047Y-31139580D01*
X33224047Y-31139580D02*
X33271666Y-31044342D01*
X33271666Y-31044342D02*
X33271666Y-30806247D01*
X33271666Y-30806247D02*
X33224047Y-30711009D01*
X33224047Y-30711009D02*
X33176428Y-30663390D01*
X33176428Y-30663390D02*
X33081190Y-30615771D01*
X33081190Y-30615771D02*
X32890714Y-30615771D01*
X32890714Y-30615771D02*
X32795476Y-30663390D01*
X32795476Y-30663390D02*
X32747857Y-30711009D01*
X32747857Y-30711009D02*
X32700238Y-30806247D01*
X46306537Y-49744612D02*
X46306537Y-50459173D01*
X46306537Y-50459173D02*
X46258900Y-50602086D01*
X46258900Y-50602086D02*
X46163625Y-50697361D01*
X46163625Y-50697361D02*
X46020713Y-50744998D01*
X46020713Y-50744998D02*
X45925438Y-50744998D01*
X46735274Y-49839887D02*
X46782912Y-49792249D01*
X46782912Y-49792249D02*
X46878187Y-49744612D01*
X46878187Y-49744612D02*
X47116374Y-49744612D01*
X47116374Y-49744612D02*
X47211649Y-49792249D01*
X47211649Y-49792249D02*
X47259286Y-49839887D01*
X47259286Y-49839887D02*
X47306923Y-49935162D01*
X47306923Y-49935162D02*
X47306923Y-50030437D01*
X47306923Y-50030437D02*
X47259286Y-50173349D01*
X47259286Y-50173349D02*
X46687637Y-50744998D01*
X46687637Y-50744998D02*
X47306923Y-50744998D01*
X42926667Y-67857200D02*
X43069524Y-67904819D01*
X43069524Y-67904819D02*
X43307619Y-67904819D01*
X43307619Y-67904819D02*
X43402857Y-67857200D01*
X43402857Y-67857200D02*
X43450476Y-67809580D01*
X43450476Y-67809580D02*
X43498095Y-67714342D01*
X43498095Y-67714342D02*
X43498095Y-67619104D01*
X43498095Y-67619104D02*
X43450476Y-67523866D01*
X43450476Y-67523866D02*
X43402857Y-67476247D01*
X43402857Y-67476247D02*
X43307619Y-67428628D01*
X43307619Y-67428628D02*
X43117143Y-67381009D01*
X43117143Y-67381009D02*
X43021905Y-67333390D01*
X43021905Y-67333390D02*
X42974286Y-67285771D01*
X42974286Y-67285771D02*
X42926667Y-67190533D01*
X42926667Y-67190533D02*
X42926667Y-67095295D01*
X42926667Y-67095295D02*
X42974286Y-67000057D01*
X42974286Y-67000057D02*
X43021905Y-66952438D01*
X43021905Y-66952438D02*
X43117143Y-66904819D01*
X43117143Y-66904819D02*
X43355238Y-66904819D01*
X43355238Y-66904819D02*
X43498095Y-66952438D01*
X43831429Y-66904819D02*
X44069524Y-67904819D01*
X44069524Y-67904819D02*
X44260000Y-67190533D01*
X44260000Y-67190533D02*
X44450476Y-67904819D01*
X44450476Y-67904819D02*
X44688572Y-66904819D01*
X45593333Y-67904819D02*
X45021905Y-67904819D01*
X45307619Y-67904819D02*
X45307619Y-66904819D01*
X45307619Y-66904819D02*
X45212381Y-67047676D01*
X45212381Y-67047676D02*
X45117143Y-67142914D01*
X45117143Y-67142914D02*
X45021905Y-67190533D01*
X56220000Y-63524819D02*
X56220000Y-63762914D01*
X55981905Y-63667676D02*
X56220000Y-63762914D01*
X56220000Y-63762914D02*
X56458095Y-63667676D01*
X56077143Y-63953390D02*
X56220000Y-63762914D01*
X56220000Y-63762914D02*
X56362857Y-63953390D01*
X46160000Y-63464819D02*
X46160000Y-63702914D01*
X45921905Y-63607676D02*
X46160000Y-63702914D01*
X46160000Y-63702914D02*
X46398095Y-63607676D01*
X46017143Y-63893390D02*
X46160000Y-63702914D01*
X46160000Y-63702914D02*
X46302857Y-63893390D01*
D11*
X55983658Y-47324666D02*
X55705467Y-47494000D01*
X55983658Y-47614952D02*
X55399458Y-47614952D01*
X55399458Y-47614952D02*
X55399458Y-47421428D01*
X55399458Y-47421428D02*
X55427277Y-47373047D01*
X55427277Y-47373047D02*
X55455096Y-47348857D01*
X55455096Y-47348857D02*
X55510734Y-47324666D01*
X55510734Y-47324666D02*
X55594191Y-47324666D01*
X55594191Y-47324666D02*
X55649829Y-47348857D01*
X55649829Y-47348857D02*
X55677648Y-47373047D01*
X55677648Y-47373047D02*
X55705467Y-47421428D01*
X55705467Y-47421428D02*
X55705467Y-47614952D01*
X55983658Y-46840857D02*
X55983658Y-47131143D01*
X55983658Y-46986000D02*
X55399458Y-46986000D01*
X55399458Y-46986000D02*
X55482915Y-47034381D01*
X55482915Y-47034381D02*
X55538553Y-47082762D01*
X55538553Y-47082762D02*
X55566372Y-47131143D01*
D12*
X54171066Y-47544800D02*
X54171066Y-47806057D01*
X54171066Y-47675428D02*
X53663066Y-47675428D01*
X53663066Y-47675428D02*
X53735637Y-47718971D01*
X53735637Y-47718971D02*
X53784018Y-47762514D01*
X53784018Y-47762514D02*
X53808209Y-47806057D01*
X53663066Y-47131142D02*
X53663066Y-47348856D01*
X53663066Y-47348856D02*
X53904971Y-47370628D01*
X53904971Y-47370628D02*
X53880780Y-47348856D01*
X53880780Y-47348856D02*
X53856590Y-47305314D01*
X53856590Y-47305314D02*
X53856590Y-47196456D01*
X53856590Y-47196456D02*
X53880780Y-47152914D01*
X53880780Y-47152914D02*
X53904971Y-47131142D01*
X53904971Y-47131142D02*
X53953352Y-47109371D01*
X53953352Y-47109371D02*
X54074304Y-47109371D01*
X54074304Y-47109371D02*
X54122685Y-47131142D01*
X54122685Y-47131142D02*
X54146876Y-47152914D01*
X54146876Y-47152914D02*
X54171066Y-47196456D01*
X54171066Y-47196456D02*
X54171066Y-47305314D01*
X54171066Y-47305314D02*
X54146876Y-47348856D01*
X54146876Y-47348856D02*
X54122685Y-47370628D01*
X53663066Y-46826342D02*
X53663066Y-46782799D01*
X53663066Y-46782799D02*
X53687256Y-46739256D01*
X53687256Y-46739256D02*
X53711447Y-46717485D01*
X53711447Y-46717485D02*
X53759828Y-46695713D01*
X53759828Y-46695713D02*
X53856590Y-46673942D01*
X53856590Y-46673942D02*
X53977542Y-46673942D01*
X53977542Y-46673942D02*
X54074304Y-46695713D01*
X54074304Y-46695713D02*
X54122685Y-46717485D01*
X54122685Y-46717485D02*
X54146876Y-46739256D01*
X54146876Y-46739256D02*
X54171066Y-46782799D01*
X54171066Y-46782799D02*
X54171066Y-46826342D01*
X54171066Y-46826342D02*
X54146876Y-46869885D01*
X54146876Y-46869885D02*
X54122685Y-46891656D01*
X54122685Y-46891656D02*
X54074304Y-46913427D01*
X54074304Y-46913427D02*
X53977542Y-46935199D01*
X53977542Y-46935199D02*
X53856590Y-46935199D01*
X53856590Y-46935199D02*
X53759828Y-46913427D01*
X53759828Y-46913427D02*
X53711447Y-46891656D01*
X53711447Y-46891656D02*
X53687256Y-46869885D01*
X53687256Y-46869885D02*
X53663066Y-46826342D01*
D10*
X59946666Y-60324819D02*
X59946666Y-61039104D01*
X59946666Y-61039104D02*
X59899047Y-61181961D01*
X59899047Y-61181961D02*
X59803809Y-61277200D01*
X59803809Y-61277200D02*
X59660952Y-61324819D01*
X59660952Y-61324819D02*
X59565714Y-61324819D01*
X60946666Y-61324819D02*
X60375238Y-61324819D01*
X60660952Y-61324819D02*
X60660952Y-60324819D01*
X60660952Y-60324819D02*
X60565714Y-60467676D01*
X60565714Y-60467676D02*
X60470476Y-60562914D01*
X60470476Y-60562914D02*
X60375238Y-60610533D01*
X40034819Y-22573333D02*
X40749104Y-22573333D01*
X40749104Y-22573333D02*
X40891961Y-22620952D01*
X40891961Y-22620952D02*
X40987200Y-22716190D01*
X40987200Y-22716190D02*
X41034819Y-22859047D01*
X41034819Y-22859047D02*
X41034819Y-22954285D01*
X40034819Y-21620952D02*
X40034819Y-22097142D01*
X40034819Y-22097142D02*
X40511009Y-22144761D01*
X40511009Y-22144761D02*
X40463390Y-22097142D01*
X40463390Y-22097142D02*
X40415771Y-22001904D01*
X40415771Y-22001904D02*
X40415771Y-21763809D01*
X40415771Y-21763809D02*
X40463390Y-21668571D01*
X40463390Y-21668571D02*
X40511009Y-21620952D01*
X40511009Y-21620952D02*
X40606247Y-21573333D01*
X40606247Y-21573333D02*
X40844342Y-21573333D01*
X40844342Y-21573333D02*
X40939580Y-21620952D01*
X40939580Y-21620952D02*
X40987200Y-21668571D01*
X40987200Y-21668571D02*
X41034819Y-21763809D01*
X41034819Y-21763809D02*
X41034819Y-22001904D01*
X41034819Y-22001904D02*
X40987200Y-22097142D01*
X40987200Y-22097142D02*
X40939580Y-22144761D01*
D13*
%TO.C,SW2*%
X49094400Y-20170600D02*
X49094400Y-17934593D01*
X49094400Y-15345407D02*
X49094400Y-13121600D01*
X49094400Y-13121600D02*
X40229800Y-13121600D01*
X45373300Y-13121600D02*
X45373300Y-9121600D01*
X45373300Y-9121600D02*
X43265100Y-9121600D01*
X43265100Y-13121600D02*
X43265100Y-9121600D01*
X40229800Y-20170600D02*
X49094400Y-20170600D01*
X40229800Y-17934593D02*
X40229800Y-20170600D01*
X40229800Y-13121600D02*
X40229800Y-15345407D01*
D14*
X51253400Y-17884600D02*
G75*
G03*
X50491400Y-17884600I-381000J0D01*
G01*
X50491400Y-17884600D02*
G75*
G03*
X51253400Y-17884600I381000J0D01*
G01*
D11*
%TO.C,J3*%
X45830000Y-37065000D02*
X45830000Y-38435000D01*
X45830000Y-41965000D02*
X45830000Y-43335000D01*
X47296000Y-37065000D02*
X45830000Y-37065000D01*
X47296000Y-43335000D02*
X45830000Y-43335000D01*
X56530000Y-37065000D02*
X55064000Y-37065000D01*
X56530000Y-37065000D02*
X56530000Y-38435000D01*
X56530000Y-41965000D02*
X56530000Y-43335000D01*
X56530000Y-43335000D02*
X55064000Y-43335000D01*
X55063999Y-37065001D02*
G75*
G03*
X47296001Y-37065001I-3883999J-3148850D01*
G01*
X47296001Y-43334999D02*
G75*
G03*
X55063999Y-43334999I3883999J3148850D01*
G01*
D15*
X43980000Y-40200000D02*
G75*
G03*
X43580000Y-40200000I-200000J0D01*
G01*
X43580000Y-40200000D02*
G75*
G03*
X43980000Y-40200000I200000J0D01*
G01*
D11*
%TO.C,J4*%
X45830000Y-22065000D02*
X45830000Y-23435000D01*
X45830000Y-26965000D02*
X45830000Y-28335000D01*
X47296000Y-22065000D02*
X45830000Y-22065000D01*
X47296000Y-28335000D02*
X45830000Y-28335000D01*
X56530000Y-22065000D02*
X55064000Y-22065000D01*
X56530000Y-22065000D02*
X56530000Y-23435000D01*
X56530000Y-26965000D02*
X56530000Y-28335000D01*
X56530000Y-28335000D02*
X55064000Y-28335000D01*
X55063999Y-22065001D02*
G75*
G03*
X47296001Y-22065001I-3883999J-3148850D01*
G01*
X47296001Y-28334999D02*
G75*
G03*
X55063999Y-28334999I3883999J3148850D01*
G01*
D15*
X43980000Y-25200000D02*
G75*
G03*
X43580000Y-25200000I-200000J0D01*
G01*
X43580000Y-25200000D02*
G75*
G03*
X43980000Y-25200000I200000J0D01*
G01*
D16*
%TO.C,D1*%
X52290000Y-48310000D02*
X52290000Y-46310000D01*
X52290000Y-48310000D02*
X48280000Y-48310000D01*
X52290000Y-46310000D02*
X48280000Y-46310000D01*
D10*
%TO.C,J6*%
X21270000Y-31850000D02*
X36800000Y-31850000D01*
X36800000Y-62650000D02*
X36800000Y-31850000D01*
X36800000Y-62650000D02*
X21270000Y-62650000D01*
X25320000Y-62650000D02*
X25320000Y-31850000D01*
X21270000Y-62650000D02*
X21270000Y-31850000D01*
D11*
%TO.C,J2*%
X45830000Y-52065000D02*
X45830000Y-53435000D01*
X45830000Y-56965000D02*
X45830000Y-58335000D01*
X47296000Y-52065000D02*
X45830000Y-52065000D01*
X47296000Y-58335000D02*
X45830000Y-58335000D01*
X56530000Y-52065000D02*
X55064000Y-52065000D01*
X56530000Y-52065000D02*
X56530000Y-53435000D01*
X56530000Y-56965000D02*
X56530000Y-58335000D01*
X56530000Y-58335000D02*
X55064000Y-58335000D01*
X55063999Y-52065001D02*
G75*
G03*
X47296001Y-52065001I-3883999J-3148850D01*
G01*
X47296001Y-58334999D02*
G75*
G03*
X55063999Y-58334999I3883999J3148850D01*
G01*
D15*
X43980000Y-55200000D02*
G75*
G03*
X43580000Y-55200000I-200000J0D01*
G01*
X43580000Y-55200000D02*
G75*
G03*
X43980000Y-55200000I200000J0D01*
G01*
D13*
%TO.C,SW1*%
X46767701Y-66894593D02*
X46767701Y-68254200D01*
X46767701Y-68254200D02*
X55632301Y-68254200D01*
X49805251Y-62945600D02*
X48177255Y-62945600D01*
X51805252Y-62945600D02*
X49805251Y-62945600D01*
X53805253Y-62945600D02*
X51805252Y-62945600D01*
X54222748Y-62945600D02*
X53805253Y-62945600D01*
X55632301Y-68254200D02*
X55632301Y-66894593D01*
D17*
%TO.C,R1*%
X55181520Y-46503400D02*
X55181520Y-47976600D01*
X55140880Y-47974060D02*
X54442380Y-47974060D01*
X54442380Y-46505940D02*
X55140880Y-46505940D01*
X53441620Y-47974060D02*
X52743120Y-47974060D01*
X53441620Y-46505940D02*
X52743120Y-46505940D01*
X52702480Y-47976600D02*
X52702480Y-46503400D01*
D10*
%TO.C,J1*%
X72200000Y-68325000D02*
X68700000Y-68325000D01*
X68709740Y-68314280D02*
X72189540Y-65342480D01*
X72192080Y-68306660D02*
X68724980Y-65339940D01*
X72200000Y-65325000D02*
X68700000Y-65325000D01*
X78950000Y-64415000D02*
X72200000Y-64415000D01*
X61250000Y-62710000D02*
X61250000Y-19210000D01*
X68700000Y-62710000D02*
X68700000Y-68325000D01*
X68700000Y-62710000D02*
X61250000Y-62710000D01*
X61250000Y-19210000D02*
X68700000Y-19210000D01*
X68700000Y-19210000D02*
X68700000Y-13055000D01*
X78950000Y-17515000D02*
X78950000Y-64415000D01*
X78950000Y-17515000D02*
X72200000Y-17515000D01*
X68702120Y-16055300D02*
X72194620Y-13068260D01*
X68700000Y-16055000D02*
X72200000Y-16055000D01*
X72207320Y-16047680D02*
X68704660Y-13058100D01*
X68700000Y-13055000D02*
X72200000Y-13055000D01*
X72200000Y-13055000D02*
X72200000Y-68325000D01*
D16*
%TO.C,J5*%
X25220000Y-25180000D02*
X25220000Y-23280000D01*
X39460000Y-25180000D02*
X25220000Y-25180000D01*
X21220000Y-23280000D02*
X21220000Y-17040000D01*
X25220000Y-23280000D02*
X21220000Y-23280000D01*
X21220000Y-17040000D02*
X25220000Y-17040000D01*
X25220000Y-17040000D02*
X25220000Y-16740000D01*
X25220000Y-16740000D02*
X39460000Y-16740000D01*
X39460000Y-16740000D02*
X39460000Y-25180000D01*
%TD*%
D18*
%TO.C,J6*%
X35240000Y-51690000D03*
X35240000Y-49400000D03*
X35240000Y-47110000D03*
X35240000Y-44820000D03*
X35240000Y-42530000D03*
X32700000Y-52830000D03*
X32700000Y-50540000D03*
X32700000Y-48250000D03*
X32700000Y-45960000D03*
D19*
X32700000Y-34870000D03*
D18*
X32700000Y-43670000D03*
D19*
X32700000Y-59870000D03*
D18*
X30160000Y-51690000D03*
X30160000Y-49400000D03*
X30160000Y-47110000D03*
X30160000Y-44820000D03*
X30160000Y-42530000D03*
%TD*%
D20*
%TO.C,J1*%
X63170000Y-21910000D03*
X68250000Y-23815000D03*
X63170000Y-25720000D03*
X68250000Y-27625000D03*
X63170000Y-29530000D03*
X68250000Y-31435000D03*
X63170000Y-33340000D03*
X68250000Y-35245000D03*
X63170000Y-37150000D03*
X68250000Y-39055000D03*
X63170000Y-40960000D03*
X68250000Y-42865000D03*
X63170000Y-44770000D03*
X68250000Y-46675000D03*
X63170000Y-48580000D03*
X68250000Y-50485000D03*
X63170000Y-52390000D03*
X68250000Y-54295000D03*
X63170000Y-56200000D03*
X68250000Y-58105000D03*
X63170000Y-60010000D03*
%TD*%
M02*
