%TF.GenerationSoftware,KiCad,Pcbnew,8.0.2+dfsg-1*%
%TF.CreationDate,2024-05-25T23:21:13+03:00*%
%TF.ProjectId,dexx_video_adapter,64657878-5f76-4696-9465-6f5f61646170,rev?*%
%TF.SameCoordinates,Original*%
%TF.FileFunction,Copper,L2,Bot*%
%TF.FilePolarity,Positive*%
%FSLAX46Y46*%
G04 Gerber Fmt 4.6, Leading zero omitted, Abs format (unit mm)*
G04 Created by KiCad (PCBNEW 8.0.2+dfsg-1) date 2024-05-25 23:21:13*
%MOMM*%
%LPD*%
G01*
G04 APERTURE LIST*
%TA.AperFunction,ComponentPad*%
%ADD10C,2.550000*%
%TD*%
%TA.AperFunction,ComponentPad*%
%ADD11C,3.000000*%
%TD*%
%TA.AperFunction,ComponentPad*%
%ADD12C,5.500000*%
%TD*%
%TA.AperFunction,ComponentPad*%
%ADD13C,1.600000*%
%TD*%
%TA.AperFunction,ComponentPad*%
%ADD14C,4.500000*%
%TD*%
%TA.AperFunction,ComponentPad*%
%ADD15C,1.295400*%
%TD*%
%TA.AperFunction,ComponentPad*%
%ADD16C,2.006600*%
%TD*%
%TA.AperFunction,ComponentPad*%
%ADD17C,2.200000*%
%TD*%
%TA.AperFunction,ComponentPad*%
%ADD18O,1.800000X2.800000*%
%TD*%
%TA.AperFunction,ViaPad*%
%ADD19C,0.800000*%
%TD*%
%TA.AperFunction,Conductor*%
%ADD20C,0.350000*%
%TD*%
%TA.AperFunction,Conductor*%
%ADD21C,0.500000*%
%TD*%
G04 APERTURE END LIST*
D10*
%TO.P,J3,1,In*%
%TO.N,/AV_G*%
X51180000Y-38600000D03*
D11*
%TO.P,J3,2,Ext*%
%TO.N,GND*%
X46030000Y-40200000D03*
X56330000Y-40200000D03*
%TD*%
D10*
%TO.P,J4,1,In*%
%TO.N,/AV_B*%
X51180000Y-23600000D03*
D11*
%TO.P,J4,2,Ext*%
%TO.N,GND*%
X46030000Y-25200000D03*
X56330000Y-25200000D03*
%TD*%
D12*
%TO.P,MH2,1*%
%TO.N,N/C*%
X58140000Y-16590000D03*
%TD*%
D13*
%TO.P,J6,1*%
%TO.N,/AV_R*%
X35240000Y-51690000D03*
%TO.P,J6,2*%
%TO.N,/AV_G*%
X35240000Y-49400000D03*
%TO.P,J6,3*%
%TO.N,/AV_B*%
X35240000Y-47110000D03*
%TO.P,J6,4*%
%TO.N,/AV_S_SEL*%
X35240000Y-44820000D03*
%TO.P,J6,5*%
%TO.N,GND*%
X35240000Y-42530000D03*
%TO.P,J6,6*%
X32700000Y-52830000D03*
%TO.P,J6,7*%
X32700000Y-50540000D03*
%TO.P,J6,8*%
X32700000Y-48250000D03*
%TO.P,J6,9*%
%TO.N,/DDC_5V*%
X32700000Y-45960000D03*
D14*
%TO.P,J6,10*%
%TO.N,GND*%
X32700000Y-34870000D03*
D13*
X32700000Y-43670000D03*
D14*
X32700000Y-59870000D03*
D13*
%TO.P,J6,11*%
%TO.N,unconnected-(J6-Pad11)*%
X30160000Y-51690000D03*
%TO.P,J6,12*%
%TO.N,unconnected-(J6-Pad12)*%
X30160000Y-49400000D03*
%TO.P,J6,13*%
%TO.N,/AV_HS*%
X30160000Y-47110000D03*
%TO.P,J6,14*%
%TO.N,/AV_VS*%
X30160000Y-44820000D03*
%TO.P,J6,15*%
%TO.N,unconnected-(J6-Pad15)*%
X30160000Y-42530000D03*
%TD*%
D10*
%TO.P,J2,1,In*%
%TO.N,/AV_R*%
X51180000Y-53600000D03*
D11*
%TO.P,J2,2,Ext*%
%TO.N,GND*%
X46030000Y-55200000D03*
X56330000Y-55200000D03*
%TD*%
D15*
%TO.P,SW1,1,A*%
%TO.N,unconnected-(SW1-A-Pad1)*%
X49200000Y-63500000D03*
%TO.P,SW1,2,B*%
%TO.N,Net-(R2-Pad1)*%
X51206600Y-63500000D03*
%TO.P,SW1,3,C*%
%TO.N,/AV_S_OUT*%
X53213200Y-63500000D03*
%TO.P,SW1,4,A*%
X49200000Y-65989200D03*
%TO.P,SW1,5,B*%
%TO.N,/AV_S_SEL*%
X51206600Y-65989200D03*
%TO.P,SW1,6,C*%
%TO.N,/AV_S*%
X53213200Y-65989200D03*
D16*
%TO.P,SW1,7*%
%TO.N,N/C*%
X47104500Y-64744600D03*
%TO.P,SW1,8*%
X55308700Y-64744600D03*
%TD*%
D17*
%TO.P,J1,1,P1*%
%TO.N,/AV_AR_OUT*%
X63170000Y-21910000D03*
%TO.P,J1,2,P2*%
%TO.N,/AV_AR*%
X68250000Y-23815000D03*
%TO.P,J1,3,P3*%
%TO.N,/AV_AL_OUT*%
X63170000Y-25720000D03*
%TO.P,J1,4,P4*%
%TO.N,GND*%
X68250000Y-27625000D03*
%TO.P,J1,5,P5*%
X63170000Y-29530000D03*
%TO.P,J1,6,P6*%
%TO.N,/AV_AL*%
X68250000Y-31435000D03*
%TO.P,J1,7,P7*%
%TO.N,/AV_B*%
X63170000Y-33340000D03*
%TO.P,J1,8,P8*%
%TO.N,unconnected-(J1-P8-Pad8)*%
X68250000Y-35245000D03*
%TO.P,J1,9,P9*%
%TO.N,GND*%
X63170000Y-37150000D03*
%TO.P,J1,10,P10*%
%TO.N,/AV_VS*%
X68250000Y-39055000D03*
%TO.P,J1,11,P11*%
%TO.N,/AV_G*%
X63170000Y-40960000D03*
%TO.P,J1,12,P12*%
%TO.N,/AV_HS*%
X68250000Y-42865000D03*
%TO.P,J1,13,P13*%
%TO.N,GND*%
X63170000Y-44770000D03*
%TO.P,J1,14,P14*%
X68250000Y-46675000D03*
%TO.P,J1,15,P15*%
%TO.N,/AV_R*%
X63170000Y-48580000D03*
%TO.P,J1,16,P16*%
%TO.N,/AV_RGB_STATUS*%
X68250000Y-50485000D03*
%TO.P,J1,17,P17*%
%TO.N,GND*%
X63170000Y-52390000D03*
%TO.P,J1,18,P18*%
X68250000Y-54295000D03*
%TO.P,J1,19,P19*%
%TO.N,/AV_S_OUT*%
X63170000Y-56200000D03*
%TO.P,J1,20,P20*%
%TO.N,/AV_S*%
X68250000Y-58105000D03*
%TO.P,J1,21,P21*%
%TO.N,GND*%
X63170000Y-60010000D03*
%TD*%
D18*
%TO.P,J5,R*%
%TO.N,/AV_AR_SEL*%
X34440000Y-19060000D03*
%TO.P,J5,S*%
%TO.N,GND*%
X26540000Y-21060000D03*
%TO.P,J5,T*%
%TO.N,/AV_AL_SEL*%
X28940000Y-19060000D03*
%TD*%
D12*
%TO.P,MH1,1*%
%TO.N,N/C*%
X40400000Y-64810000D03*
%TD*%
D15*
%TO.P,SW2,1,A*%
%TO.N,/AV_AL*%
X46668700Y-17884600D03*
%TO.P,SW2,2,B*%
%TO.N,/AV_AL_SEL*%
X44662100Y-17884600D03*
%TO.P,SW2,3,C*%
%TO.N,/AV_AL_OUT*%
X42655500Y-17884600D03*
%TO.P,SW2,4,A*%
%TO.N,/AV_AR*%
X46668700Y-15395400D03*
%TO.P,SW2,5,B*%
%TO.N,/AV_AR_SEL*%
X44662100Y-15395400D03*
%TO.P,SW2,6,C*%
%TO.N,/AV_AR_OUT*%
X42655500Y-15395400D03*
D16*
%TO.P,SW2,7*%
%TO.N,N/C*%
X48764200Y-16640000D03*
%TO.P,SW2,8*%
X40560000Y-16640000D03*
%TD*%
D19*
%TO.N,GND*%
X36055000Y-62258400D03*
X51295000Y-26698400D03*
X58915000Y-41938400D03*
X28435000Y-36858400D03*
X66535000Y-21618400D03*
X58915000Y-57178400D03*
X63995000Y-64798400D03*
X46215000Y-21618400D03*
X36055000Y-64798400D03*
X51295000Y-49558400D03*
X41135000Y-29238400D03*
X36055000Y-29238400D03*
X38595000Y-31778400D03*
X69075000Y-62258400D03*
X28435000Y-54638400D03*
X51295000Y-57178400D03*
X53835000Y-31778400D03*
X48755000Y-59718400D03*
X28435000Y-62258400D03*
X30975000Y-19078400D03*
X53835000Y-57178400D03*
X58915000Y-54638400D03*
X30975000Y-31778400D03*
X38595000Y-29238400D03*
X56375000Y-31778400D03*
X41135000Y-26698400D03*
X46215000Y-62258400D03*
X51295000Y-29238400D03*
X48755000Y-39398400D03*
X66535000Y-16538400D03*
X33515000Y-26698400D03*
X53835000Y-29238400D03*
X30975000Y-16538400D03*
X33515000Y-29238400D03*
X69075000Y-21618400D03*
X36055000Y-31778400D03*
X28435000Y-52098400D03*
X38595000Y-24158400D03*
X28435000Y-57178400D03*
X33515000Y-64798400D03*
X28435000Y-29238400D03*
X28435000Y-31778400D03*
X48755000Y-21618400D03*
X28435000Y-26698400D03*
X58915000Y-52098400D03*
X66535000Y-19078400D03*
X46215000Y-31778400D03*
X61455000Y-64798400D03*
X43675000Y-26698400D03*
X48755000Y-29238400D03*
X63995000Y-16538400D03*
X53835000Y-59718400D03*
X38595000Y-26698400D03*
X36055000Y-59718400D03*
X48755000Y-36858400D03*
X66535000Y-64798400D03*
X30975000Y-24158400D03*
X41135000Y-24158400D03*
X46215000Y-59718400D03*
X53835000Y-39398400D03*
X66535000Y-62258400D03*
X53835000Y-41938400D03*
X43675000Y-57178400D03*
X33515000Y-24158400D03*
X30975000Y-26698400D03*
X38595000Y-59718400D03*
X53835000Y-54638400D03*
X28435000Y-64798400D03*
X48755000Y-31778400D03*
X69075000Y-19078400D03*
X38595000Y-16538400D03*
X28435000Y-59718400D03*
X41135000Y-57178400D03*
X43675000Y-34318400D03*
X41135000Y-19078400D03*
X28435000Y-16538400D03*
X56375000Y-52098400D03*
X38595000Y-41938400D03*
X48755000Y-54638400D03*
X51295000Y-59718400D03*
X28435000Y-24158400D03*
X36055000Y-24158400D03*
X36055000Y-34318400D03*
X30975000Y-29238400D03*
X38595000Y-44478400D03*
X28435000Y-47018400D03*
X48755000Y-57178400D03*
X61455000Y-19078400D03*
X58915000Y-64798400D03*
X43675000Y-59718400D03*
X36055000Y-36858400D03*
X36055000Y-26698400D03*
X48755000Y-62258400D03*
X28435000Y-49558400D03*
X56375000Y-59718400D03*
X28435000Y-39398400D03*
X30975000Y-64798400D03*
X58915000Y-39398400D03*
X38595000Y-34318400D03*
X28435000Y-34318400D03*
X38595000Y-36858400D03*
X30975000Y-54638400D03*
X38595000Y-19078400D03*
X63995000Y-19078400D03*
X36055000Y-57178400D03*
X33515000Y-54638400D03*
X51295000Y-31778400D03*
%TO.N,/AV_HS*%
X56840000Y-50010000D03*
%TO.N,/DDC_5V*%
X47060000Y-47860000D03*
%TD*%
D20*
%TO.N,/AV_HS*%
X46140000Y-45190000D02*
X41190000Y-40240000D01*
X68250000Y-42865000D02*
X61995000Y-42865000D01*
X33880000Y-40240000D02*
X31380000Y-42740000D01*
X61995000Y-42865000D02*
X59670000Y-45190000D01*
X56840000Y-50010000D02*
X56840000Y-48020000D01*
X31380000Y-42740000D02*
X31380000Y-45890000D01*
X31380000Y-45890000D02*
X30160000Y-47110000D01*
X41190000Y-40240000D02*
X33880000Y-40240000D01*
X56840000Y-48020000D02*
X59670000Y-45190000D01*
X59670000Y-45190000D02*
X46140000Y-45190000D01*
%TO.N,/AV_VS*%
X61995000Y-39055000D02*
X57180000Y-34240000D01*
X68250000Y-39055000D02*
X61995000Y-39055000D01*
X28620000Y-41800000D02*
X28620000Y-43280000D01*
X57180000Y-34240000D02*
X47530000Y-34240000D01*
X47530000Y-34240000D02*
X43430000Y-38340000D01*
X43430000Y-38340000D02*
X32080000Y-38340000D01*
X28620000Y-43280000D02*
X30160000Y-44820000D01*
X32080000Y-38340000D02*
X28620000Y-41800000D01*
%TO.N,/DDC_5V*%
X35060000Y-53690000D02*
X41230000Y-53690000D01*
X41230000Y-53690000D02*
X47060000Y-47860000D01*
X34065000Y-47325000D02*
X34065000Y-52695000D01*
X32700000Y-45960000D02*
X34065000Y-47325000D01*
X34065000Y-52695000D02*
X35060000Y-53690000D01*
D21*
%TO.N,/AV_AR_OUT*%
X50470000Y-13890000D02*
X44160900Y-13890000D01*
X58490000Y-21910000D02*
X50470000Y-13890000D01*
X44160900Y-13890000D02*
X42655500Y-15395400D01*
X63170000Y-21910000D02*
X58490000Y-21910000D01*
%TO.N,/AV_AL_OUT*%
X54300000Y-19810000D02*
X60210000Y-25720000D01*
X42655500Y-17884600D02*
X44580900Y-19810000D01*
X60210000Y-25720000D02*
X63170000Y-25720000D01*
X44580900Y-19810000D02*
X54300000Y-19810000D01*
%TD*%
%TA.AperFunction,Conductor*%
%TO.N,GND*%
G36*
X56912816Y-34943502D02*
G01*
X56933790Y-34960405D01*
X61464091Y-39490706D01*
X61559294Y-39585909D01*
X61671241Y-39660710D01*
X61707669Y-39675798D01*
X61707672Y-39675800D01*
X61707673Y-39675800D01*
X61778465Y-39705124D01*
X61795630Y-39712234D01*
X61862371Y-39725509D01*
X61925281Y-39758416D01*
X61960413Y-39820111D01*
X61956613Y-39891006D01*
X61933601Y-39930918D01*
X61864674Y-40011620D01*
X61864673Y-40011622D01*
X61732383Y-40227499D01*
X61635494Y-40461410D01*
X61584534Y-40673678D01*
X61576391Y-40707597D01*
X61556526Y-40960000D01*
X61576391Y-41212403D01*
X61590001Y-41269092D01*
X61635494Y-41458589D01*
X61729567Y-41685700D01*
X61732384Y-41692502D01*
X61864672Y-41908376D01*
X61933602Y-41989082D01*
X61962632Y-42053870D01*
X61952027Y-42124070D01*
X61905153Y-42177392D01*
X61862372Y-42194490D01*
X61795631Y-42207766D01*
X61795629Y-42207766D01*
X61795628Y-42207767D01*
X61795627Y-42207767D01*
X61728178Y-42235706D01*
X61671241Y-42259289D01*
X61662208Y-42265326D01*
X61662205Y-42265328D01*
X61559296Y-42334089D01*
X61559290Y-42334094D01*
X59423790Y-44469595D01*
X59361478Y-44503621D01*
X59334695Y-44506500D01*
X46475305Y-44506500D01*
X46407184Y-44486498D01*
X46386210Y-44469595D01*
X42116611Y-40199995D01*
X44017308Y-40199995D01*
X44017308Y-40200004D01*
X44036052Y-40474048D01*
X44036053Y-40474054D01*
X44091942Y-40743011D01*
X44091944Y-40743019D01*
X44183938Y-41001865D01*
X44310314Y-41245756D01*
X44310316Y-41245759D01*
X44440541Y-41430248D01*
X45165160Y-40705629D01*
X45253249Y-40837463D01*
X45392537Y-40976751D01*
X45524369Y-41064838D01*
X44800715Y-41788492D01*
X44800715Y-41788494D01*
X44869313Y-41844304D01*
X44869318Y-41844307D01*
X45104030Y-41987038D01*
X45355989Y-42096480D01*
X45620509Y-42170595D01*
X45892635Y-42207999D01*
X45892649Y-42208000D01*
X46167351Y-42208000D01*
X46167364Y-42207999D01*
X46439490Y-42170595D01*
X46704010Y-42096480D01*
X46955969Y-41987038D01*
X47190679Y-41844309D01*
X47259283Y-41788493D01*
X47259283Y-41788492D01*
X46535630Y-41064839D01*
X46667463Y-40976751D01*
X46806751Y-40837463D01*
X46894839Y-40705629D01*
X47619457Y-41430247D01*
X47749682Y-41245762D01*
X47749685Y-41245756D01*
X47876061Y-41001865D01*
X47968055Y-40743019D01*
X47968057Y-40743011D01*
X48023946Y-40474054D01*
X48023947Y-40474048D01*
X48042692Y-40200004D01*
X48042692Y-40199995D01*
X48023947Y-39925951D01*
X48023946Y-39925945D01*
X47968057Y-39656988D01*
X47968055Y-39656980D01*
X47876061Y-39398134D01*
X47749685Y-39154243D01*
X47749681Y-39154237D01*
X47619457Y-38969750D01*
X46894838Y-39694368D01*
X46806751Y-39562537D01*
X46667463Y-39423249D01*
X46535628Y-39335159D01*
X47259283Y-38611504D01*
X47245143Y-38600000D01*
X49391499Y-38600000D01*
X49411475Y-38866565D01*
X49470957Y-39127171D01*
X49470958Y-39127173D01*
X49568612Y-39375995D01*
X49568614Y-39375999D01*
X49702268Y-39607494D01*
X49702270Y-39607497D01*
X49702271Y-39607498D01*
X49741738Y-39656988D01*
X49868939Y-39816494D01*
X50008871Y-39946330D01*
X50064888Y-39998306D01*
X50064894Y-39998310D01*
X50285740Y-40148881D01*
X50285744Y-40148883D01*
X50285750Y-40148887D01*
X50526587Y-40264869D01*
X50695402Y-40316941D01*
X50782010Y-40343657D01*
X50782012Y-40343657D01*
X50782021Y-40343660D01*
X51046345Y-40383500D01*
X51046349Y-40383500D01*
X51313651Y-40383500D01*
X51313655Y-40383500D01*
X51577979Y-40343660D01*
X51577989Y-40343657D01*
X51833404Y-40264872D01*
X51833406Y-40264871D01*
X51833413Y-40264869D01*
X51968125Y-40199995D01*
X54317308Y-40199995D01*
X54317308Y-40200004D01*
X54336052Y-40474048D01*
X54336053Y-40474054D01*
X54391942Y-40743011D01*
X54391944Y-40743019D01*
X54483938Y-41001865D01*
X54610314Y-41245756D01*
X54610316Y-41245759D01*
X54740541Y-41430248D01*
X55465160Y-40705629D01*
X55553249Y-40837463D01*
X55692537Y-40976751D01*
X55824369Y-41064838D01*
X55100715Y-41788492D01*
X55100715Y-41788494D01*
X55169313Y-41844304D01*
X55169318Y-41844307D01*
X55404030Y-41987038D01*
X55655989Y-42096480D01*
X55920509Y-42170595D01*
X56192635Y-42207999D01*
X56192649Y-42208000D01*
X56467351Y-42208000D01*
X56467364Y-42207999D01*
X56739490Y-42170595D01*
X57004010Y-42096480D01*
X57255969Y-41987038D01*
X57490679Y-41844309D01*
X57559283Y-41788493D01*
X57559283Y-41788492D01*
X56835630Y-41064839D01*
X56967463Y-40976751D01*
X57106751Y-40837463D01*
X57194839Y-40705629D01*
X57919457Y-41430247D01*
X58049682Y-41245762D01*
X58049685Y-41245756D01*
X58176061Y-41001865D01*
X58268055Y-40743019D01*
X58268057Y-40743011D01*
X58323946Y-40474054D01*
X58323947Y-40474048D01*
X58342692Y-40200004D01*
X58342692Y-40199995D01*
X58323947Y-39925951D01*
X58323946Y-39925945D01*
X58268057Y-39656988D01*
X58268055Y-39656980D01*
X58176061Y-39398134D01*
X58049685Y-39154243D01*
X58049681Y-39154237D01*
X57919457Y-38969750D01*
X57194838Y-39694368D01*
X57106751Y-39562537D01*
X56967463Y-39423249D01*
X56835628Y-39335159D01*
X57559283Y-38611504D01*
X57490680Y-38555691D01*
X57255969Y-38412961D01*
X57004010Y-38303519D01*
X56739490Y-38229404D01*
X56467364Y-38192000D01*
X56192635Y-38192000D01*
X55920509Y-38229404D01*
X55655989Y-38303519D01*
X55404030Y-38412961D01*
X55169325Y-38555687D01*
X55100715Y-38611505D01*
X55100714Y-38611505D01*
X55824369Y-39335160D01*
X55692537Y-39423249D01*
X55553249Y-39562537D01*
X55465160Y-39694369D01*
X54740541Y-38969750D01*
X54610317Y-39154236D01*
X54483938Y-39398134D01*
X54391944Y-39656980D01*
X54391942Y-39656988D01*
X54336053Y-39925945D01*
X54336052Y-39925951D01*
X54317308Y-40199995D01*
X51968125Y-40199995D01*
X52074251Y-40148887D01*
X52295112Y-39998306D01*
X52464875Y-39840790D01*
X52491060Y-39816494D01*
X52491060Y-39816492D01*
X52491064Y-39816490D01*
X52657729Y-39607498D01*
X52791384Y-39376002D01*
X52889043Y-39127170D01*
X52948525Y-38866562D01*
X52968501Y-38600000D01*
X52948525Y-38333438D01*
X52889043Y-38072830D01*
X52814255Y-37882272D01*
X52791387Y-37824004D01*
X52791385Y-37824000D01*
X52657731Y-37592505D01*
X52600305Y-37520495D01*
X52491064Y-37383510D01*
X52491063Y-37383509D01*
X52491060Y-37383505D01*
X52295117Y-37201699D01*
X52295111Y-37201693D01*
X52219291Y-37150000D01*
X52074251Y-37051113D01*
X51885889Y-36960402D01*
X51833416Y-36935132D01*
X51833404Y-36935127D01*
X51577989Y-36856342D01*
X51577981Y-36856340D01*
X51577979Y-36856340D01*
X51313655Y-36816500D01*
X51046345Y-36816500D01*
X50782021Y-36856340D01*
X50782019Y-36856340D01*
X50782010Y-36856342D01*
X50526583Y-36935132D01*
X50285748Y-37051114D01*
X50285740Y-37051118D01*
X50064894Y-37201689D01*
X50064882Y-37201699D01*
X49868939Y-37383505D01*
X49702268Y-37592505D01*
X49568614Y-37824000D01*
X49568612Y-37824004D01*
X49470958Y-38072826D01*
X49470957Y-38072828D01*
X49411475Y-38333434D01*
X49391499Y-38600000D01*
X47245143Y-38600000D01*
X47190680Y-38555691D01*
X46955969Y-38412961D01*
X46704010Y-38303519D01*
X46439490Y-38229404D01*
X46167364Y-38192000D01*
X45892635Y-38192000D01*
X45620509Y-38229404D01*
X45355989Y-38303519D01*
X45104030Y-38412961D01*
X44869325Y-38555687D01*
X44800715Y-38611505D01*
X44800714Y-38611505D01*
X45524369Y-39335160D01*
X45392537Y-39423249D01*
X45253249Y-39562537D01*
X45165160Y-39694369D01*
X44440541Y-38969750D01*
X44310317Y-39154236D01*
X44183938Y-39398134D01*
X44091944Y-39656980D01*
X44091942Y-39656988D01*
X44036053Y-39925945D01*
X44036052Y-39925951D01*
X44017308Y-40199995D01*
X42116611Y-40199995D01*
X41625711Y-39709095D01*
X41625705Y-39709090D01*
X41553299Y-39660710D01*
X41513759Y-39634290D01*
X41449077Y-39607498D01*
X41389369Y-39582766D01*
X41257321Y-39556500D01*
X41257319Y-39556500D01*
X33947319Y-39556500D01*
X33812681Y-39556500D01*
X33812678Y-39556500D01*
X33680630Y-39582766D01*
X33680625Y-39582768D01*
X33620923Y-39607498D01*
X33556241Y-39634290D01*
X33444294Y-39709090D01*
X33444288Y-39709095D01*
X31396540Y-41756843D01*
X31334228Y-41790869D01*
X31263412Y-41785804D01*
X31206577Y-41743257D01*
X31204258Y-41740055D01*
X31166198Y-41685700D01*
X31004300Y-41523802D01*
X30937858Y-41477279D01*
X30816749Y-41392477D01*
X30609246Y-41295717D01*
X30609240Y-41295715D01*
X30564056Y-41283608D01*
X30411236Y-41242659D01*
X30350615Y-41205709D01*
X30319594Y-41141849D01*
X30328022Y-41071354D01*
X30354751Y-41031862D01*
X32326210Y-39060405D01*
X32388522Y-39026379D01*
X32415305Y-39023500D01*
X43497318Y-39023500D01*
X43497319Y-39023500D01*
X43629369Y-38997234D01*
X43710027Y-38963824D01*
X43753759Y-38945710D01*
X43865706Y-38870909D01*
X43960909Y-38775706D01*
X43978629Y-38757986D01*
X43978631Y-38757983D01*
X47776209Y-34960405D01*
X47838521Y-34926379D01*
X47865304Y-34923500D01*
X56844695Y-34923500D01*
X56912816Y-34943502D01*
G37*
%TD.AperFunction*%
%TA.AperFunction,Conductor*%
G36*
X68242098Y-13110847D02*
G01*
X68288602Y-13164492D01*
X68300000Y-13216859D01*
X68300000Y-16000000D01*
X72084000Y-16000000D01*
X72152121Y-16020002D01*
X72198614Y-16073658D01*
X72210000Y-16126000D01*
X72210000Y-65274000D01*
X72189998Y-65342121D01*
X72136342Y-65388614D01*
X72084000Y-65400000D01*
X68300000Y-65400000D01*
X68300000Y-68194000D01*
X68279998Y-68262121D01*
X68226342Y-68308614D01*
X68174000Y-68320000D01*
X40588096Y-68320000D01*
X40519975Y-68299998D01*
X40473482Y-68246342D01*
X40463378Y-68176068D01*
X40492872Y-68111488D01*
X40552598Y-68073104D01*
X40574473Y-68068739D01*
X40576671Y-68068500D01*
X40927941Y-68030297D01*
X41273021Y-67954339D01*
X41607867Y-67841517D01*
X41928551Y-67693152D01*
X42231314Y-67510986D01*
X42512607Y-67297153D01*
X42769131Y-67054160D01*
X42997879Y-66784857D01*
X43196170Y-66492400D01*
X43361678Y-66180218D01*
X43492463Y-65851972D01*
X43586992Y-65511510D01*
X43644156Y-65162823D01*
X43663286Y-64810000D01*
X43659740Y-64744600D01*
X45588025Y-64744600D01*
X45606695Y-64981829D01*
X45662247Y-65213217D01*
X45701659Y-65308366D01*
X45753310Y-65433063D01*
X45877647Y-65635963D01*
X45877648Y-65635965D01*
X46032189Y-65816910D01*
X46213134Y-65971451D01*
X46213138Y-65971454D01*
X46416035Y-66095789D01*
X46635883Y-66186853D01*
X46867271Y-66242405D01*
X47104500Y-66261075D01*
X47341729Y-66242405D01*
X47573117Y-66186853D01*
X47792965Y-66095789D01*
X47862365Y-66053260D01*
X47930896Y-66034723D01*
X47998573Y-66056179D01*
X48043906Y-66110818D01*
X48053660Y-66149067D01*
X48058617Y-66202555D01*
X48058617Y-66202559D01*
X48117256Y-66408656D01*
X48117259Y-66408662D01*
X48212764Y-66600463D01*
X48212768Y-66600468D01*
X48341896Y-66771463D01*
X48500247Y-66915819D01*
X48682423Y-67028618D01*
X48682425Y-67028618D01*
X48682430Y-67028622D01*
X48882230Y-67106025D01*
X48882235Y-67106027D01*
X49092862Y-67145400D01*
X49092864Y-67145400D01*
X49307136Y-67145400D01*
X49307138Y-67145400D01*
X49517765Y-67106027D01*
X49717570Y-67028622D01*
X49899751Y-66915820D01*
X50058102Y-66771464D01*
X50102750Y-66712341D01*
X50159763Y-66670034D01*
X50230600Y-66665266D01*
X50292769Y-66699552D01*
X50303850Y-66712341D01*
X50348496Y-66771463D01*
X50506847Y-66915819D01*
X50689023Y-67028618D01*
X50689025Y-67028618D01*
X50689030Y-67028622D01*
X50888830Y-67106025D01*
X50888835Y-67106027D01*
X51099462Y-67145400D01*
X51099464Y-67145400D01*
X51313736Y-67145400D01*
X51313738Y-67145400D01*
X51524365Y-67106027D01*
X51724170Y-67028622D01*
X51906351Y-66915820D01*
X52064702Y-66771464D01*
X52109350Y-66712341D01*
X52166363Y-66670034D01*
X52237200Y-66665266D01*
X52299369Y-66699552D01*
X52310450Y-66712341D01*
X52355096Y-66771463D01*
X52513447Y-66915819D01*
X52695623Y-67028618D01*
X52695625Y-67028618D01*
X52695630Y-67028622D01*
X52895430Y-67106025D01*
X52895435Y-67106027D01*
X53106062Y-67145400D01*
X53106064Y-67145400D01*
X53320336Y-67145400D01*
X53320338Y-67145400D01*
X53530965Y-67106027D01*
X53730770Y-67028622D01*
X53912951Y-66915820D01*
X54071302Y-66771464D01*
X54200432Y-66600468D01*
X54200433Y-66600464D01*
X54200435Y-66600463D01*
X54254248Y-66492392D01*
X54295943Y-66408657D01*
X54354582Y-66202561D01*
X54359539Y-66149066D01*
X54385740Y-66083084D01*
X54443457Y-66041740D01*
X54514363Y-66038163D01*
X54550836Y-66053261D01*
X54620235Y-66095789D01*
X54840083Y-66186853D01*
X55071471Y-66242405D01*
X55308700Y-66261075D01*
X55545929Y-66242405D01*
X55777317Y-66186853D01*
X55997165Y-66095789D01*
X56200062Y-65971454D01*
X56381010Y-65816910D01*
X56535554Y-65635962D01*
X56659889Y-65433065D01*
X56750953Y-65213217D01*
X56806505Y-64981829D01*
X56825175Y-64744600D01*
X56806505Y-64507371D01*
X56750953Y-64275983D01*
X56659889Y-64056135D01*
X56535554Y-63853238D01*
X56462778Y-63768028D01*
X56381010Y-63672289D01*
X56200065Y-63517748D01*
X56200063Y-63517747D01*
X56200062Y-63517746D01*
X55997165Y-63393411D01*
X55960879Y-63378381D01*
X55868538Y-63340132D01*
X55777317Y-63302347D01*
X55777315Y-63302346D01*
X55777314Y-63302346D01*
X55652791Y-63272450D01*
X55545929Y-63246795D01*
X55545930Y-63246795D01*
X55308700Y-63228125D01*
X55071470Y-63246795D01*
X54840085Y-63302346D01*
X54840083Y-63302347D01*
X54620238Y-63393410D01*
X54620233Y-63393412D01*
X54550835Y-63435939D01*
X54482302Y-63454477D01*
X54414625Y-63433020D01*
X54369292Y-63378381D01*
X54359539Y-63340136D01*
X54354582Y-63286639D01*
X54295943Y-63080543D01*
X54216500Y-62921000D01*
X54200435Y-62888736D01*
X54200431Y-62888731D01*
X54071303Y-62717736D01*
X53912952Y-62573380D01*
X53730776Y-62460581D01*
X53730771Y-62460579D01*
X53730770Y-62460578D01*
X53730765Y-62460576D01*
X53530969Y-62383174D01*
X53530970Y-62383174D01*
X53530965Y-62383173D01*
X53320338Y-62343800D01*
X53106062Y-62343800D01*
X52947122Y-62373510D01*
X52895429Y-62383174D01*
X52695634Y-62460576D01*
X52695623Y-62460581D01*
X52513447Y-62573380D01*
X52355096Y-62717736D01*
X52310450Y-62776858D01*
X52253436Y-62819166D01*
X52182599Y-62823933D01*
X52120431Y-62789646D01*
X52109350Y-62776858D01*
X52064703Y-62717736D01*
X51906352Y-62573380D01*
X51724176Y-62460581D01*
X51724171Y-62460579D01*
X51724170Y-62460578D01*
X51724165Y-62460576D01*
X51524369Y-62383174D01*
X51524370Y-62383174D01*
X51524365Y-62383173D01*
X51313738Y-62343800D01*
X51099462Y-62343800D01*
X50940522Y-62373510D01*
X50888829Y-62383174D01*
X50689034Y-62460576D01*
X50689023Y-62460581D01*
X50506847Y-62573380D01*
X50348496Y-62717736D01*
X50303850Y-62776858D01*
X50246836Y-62819166D01*
X50175999Y-62823933D01*
X50113831Y-62789646D01*
X50102750Y-62776858D01*
X50058103Y-62717736D01*
X49899752Y-62573380D01*
X49717576Y-62460581D01*
X49717571Y-62460579D01*
X49717570Y-62460578D01*
X49717565Y-62460576D01*
X49517769Y-62383174D01*
X49517770Y-62383174D01*
X49517765Y-62383173D01*
X49307138Y-62343800D01*
X49092862Y-62343800D01*
X48933922Y-62373510D01*
X48882229Y-62383174D01*
X48682434Y-62460576D01*
X48682423Y-62460581D01*
X48500247Y-62573380D01*
X48341896Y-62717736D01*
X48212768Y-62888731D01*
X48212764Y-62888736D01*
X48117259Y-63080537D01*
X48117256Y-63080543D01*
X48058617Y-63286640D01*
X48058617Y-63286644D01*
X48053660Y-63340132D01*
X48027457Y-63406117D01*
X47969740Y-63447460D01*
X47898834Y-63451036D01*
X47862364Y-63435938D01*
X47792967Y-63393412D01*
X47792965Y-63393411D01*
X47573117Y-63302347D01*
X47573115Y-63302346D01*
X47573114Y-63302346D01*
X47448591Y-63272450D01*
X47341729Y-63246795D01*
X47341730Y-63246795D01*
X47104500Y-63228125D01*
X46867270Y-63246795D01*
X46635885Y-63302346D01*
X46416036Y-63393410D01*
X46213136Y-63517747D01*
X46213134Y-63517748D01*
X46032189Y-63672289D01*
X45877648Y-63853234D01*
X45877647Y-63853236D01*
X45753310Y-64056136D01*
X45662246Y-64275985D01*
X45611647Y-64486744D01*
X45606695Y-64507371D01*
X45588025Y-64744600D01*
X43659740Y-64744600D01*
X43644156Y-64457177D01*
X43598852Y-64180834D01*
X43586993Y-64108494D01*
X43572456Y-64056136D01*
X43492463Y-63768028D01*
X43361678Y-63439782D01*
X43196170Y-63127600D01*
X42997879Y-62835143D01*
X42769131Y-62565840D01*
X42658008Y-62460578D01*
X42512621Y-62322859D01*
X42512606Y-62322846D01*
X42231318Y-62109017D01*
X42231312Y-62109013D01*
X41928551Y-61926848D01*
X41928545Y-61926845D01*
X41607884Y-61778490D01*
X41607865Y-61778482D01*
X41273030Y-61665664D01*
X41273029Y-61665663D01*
X41273021Y-61665661D01*
X41273016Y-61665659D01*
X41273013Y-61665659D01*
X40927957Y-61589706D01*
X40927944Y-61589703D01*
X40927941Y-61589703D01*
X40927938Y-61589702D01*
X40927929Y-61589701D01*
X40576678Y-61551500D01*
X40576671Y-61551500D01*
X40223329Y-61551500D01*
X40223321Y-61551500D01*
X39872070Y-61589701D01*
X39872042Y-61589706D01*
X39526986Y-61665659D01*
X39526969Y-61665664D01*
X39192134Y-61778482D01*
X39192115Y-61778490D01*
X38871454Y-61926845D01*
X38871447Y-61926849D01*
X38568687Y-62109013D01*
X38568681Y-62109017D01*
X38287393Y-62322846D01*
X38287378Y-62322859D01*
X38030873Y-62565835D01*
X38030869Y-62565840D01*
X37802121Y-62835143D01*
X37603830Y-63127600D01*
X37603827Y-63127605D01*
X37603826Y-63127607D01*
X37438321Y-63439784D01*
X37438317Y-63439793D01*
X37307537Y-63768027D01*
X37213006Y-64108494D01*
X37155844Y-64457176D01*
X37136714Y-64809997D01*
X37136714Y-64810002D01*
X37155844Y-65162823D01*
X37213006Y-65511505D01*
X37307537Y-65851972D01*
X37410670Y-66110818D01*
X37438322Y-66180218D01*
X37603830Y-66492400D01*
X37802121Y-66784857D01*
X38030869Y-67054160D01*
X38030872Y-67054162D01*
X38030873Y-67054164D01*
X38287378Y-67297140D01*
X38287393Y-67297153D01*
X38568686Y-67510986D01*
X38871449Y-67693152D01*
X39028164Y-67765656D01*
X39192115Y-67841509D01*
X39192122Y-67841512D01*
X39192133Y-67841517D01*
X39526979Y-67954339D01*
X39872059Y-68030297D01*
X40223329Y-68068500D01*
X40225527Y-68068739D01*
X40291086Y-68095989D01*
X40331505Y-68154356D01*
X40333952Y-68225311D01*
X40297649Y-68286324D01*
X40234123Y-68318025D01*
X40211904Y-68320000D01*
X25436000Y-68320000D01*
X25367879Y-68299998D01*
X25321386Y-68246342D01*
X25310000Y-68194000D01*
X25310000Y-60010000D01*
X61557028Y-60010000D01*
X61576886Y-60262323D01*
X61635971Y-60508434D01*
X61732830Y-60742272D01*
X61864177Y-60956611D01*
X61864178Y-60956611D01*
X62567301Y-60253488D01*
X62593978Y-60317890D01*
X62665112Y-60424351D01*
X62755649Y-60514888D01*
X62862110Y-60586022D01*
X62926510Y-60612698D01*
X62223387Y-61315820D01*
X62223387Y-61315822D01*
X62437727Y-61447169D01*
X62671565Y-61544028D01*
X62917676Y-61603113D01*
X63170000Y-61622971D01*
X63422323Y-61603113D01*
X63668434Y-61544028D01*
X63902277Y-61447167D01*
X64116611Y-61315822D01*
X64116611Y-61315820D01*
X63413489Y-60612698D01*
X63477890Y-60586022D01*
X63584351Y-60514888D01*
X63674888Y-60424351D01*
X63746022Y-60317890D01*
X63772698Y-60253489D01*
X64475820Y-60956611D01*
X64475822Y-60956611D01*
X64607167Y-60742277D01*
X64704028Y-60508434D01*
X64763113Y-60262323D01*
X64782971Y-60010000D01*
X64763113Y-59757676D01*
X64704028Y-59511565D01*
X64607169Y-59277727D01*
X64475822Y-59063387D01*
X64475820Y-59063387D01*
X63772697Y-59766509D01*
X63746022Y-59702110D01*
X63674888Y-59595649D01*
X63584351Y-59505112D01*
X63477890Y-59433978D01*
X63413488Y-59407301D01*
X64116611Y-58704178D01*
X64116611Y-58704177D01*
X63902272Y-58572830D01*
X63668434Y-58475971D01*
X63422323Y-58416886D01*
X63170000Y-58397028D01*
X62917676Y-58416886D01*
X62671565Y-58475971D01*
X62437727Y-58572830D01*
X62223387Y-58704176D01*
X62223387Y-58704178D01*
X62926510Y-59407301D01*
X62862110Y-59433978D01*
X62755649Y-59505112D01*
X62665112Y-59595649D01*
X62593978Y-59702110D01*
X62567301Y-59766510D01*
X61864178Y-59063387D01*
X61864176Y-59063387D01*
X61732830Y-59277727D01*
X61635971Y-59511565D01*
X61576886Y-59757676D01*
X61557028Y-60010000D01*
X25310000Y-60010000D01*
X25310000Y-58105000D01*
X66636526Y-58105000D01*
X66656391Y-58357403D01*
X66675062Y-58435177D01*
X66715494Y-58603589D01*
X66757159Y-58704176D01*
X66812384Y-58837502D01*
X66944672Y-59053376D01*
X67109102Y-59245898D01*
X67301624Y-59410328D01*
X67517498Y-59542616D01*
X67751409Y-59639505D01*
X67997597Y-59698609D01*
X68250000Y-59718474D01*
X68502403Y-59698609D01*
X68748591Y-59639505D01*
X68982502Y-59542616D01*
X69198376Y-59410328D01*
X69390898Y-59245898D01*
X69555328Y-59053376D01*
X69687616Y-58837502D01*
X69784505Y-58603591D01*
X69843609Y-58357403D01*
X69863474Y-58105000D01*
X69843609Y-57852597D01*
X69784505Y-57606409D01*
X69687616Y-57372498D01*
X69555328Y-57156624D01*
X69390898Y-56964102D01*
X69198376Y-56799672D01*
X68982502Y-56667384D01*
X68748591Y-56570495D01*
X68748589Y-56570494D01*
X68580177Y-56530062D01*
X68502403Y-56511391D01*
X68250000Y-56491526D01*
X67997597Y-56511391D01*
X67751410Y-56570494D01*
X67517499Y-56667383D01*
X67301625Y-56799671D01*
X67109102Y-56964102D01*
X66944671Y-57156625D01*
X66812383Y-57372499D01*
X66715494Y-57606410D01*
X66656391Y-57852597D01*
X66636526Y-58105000D01*
X25310000Y-58105000D01*
X25310000Y-55199995D01*
X44017308Y-55199995D01*
X44017308Y-55200004D01*
X44036052Y-55474048D01*
X44036053Y-55474054D01*
X44091942Y-55743011D01*
X44091944Y-55743019D01*
X44183938Y-56001865D01*
X44310314Y-56245756D01*
X44310316Y-56245759D01*
X44440541Y-56430248D01*
X45165160Y-55705629D01*
X45253249Y-55837463D01*
X45392537Y-55976751D01*
X45524369Y-56064838D01*
X44800715Y-56788492D01*
X44800715Y-56788494D01*
X44869313Y-56844304D01*
X44869318Y-56844307D01*
X45104030Y-56987038D01*
X45355989Y-57096480D01*
X45620509Y-57170595D01*
X45892635Y-57207999D01*
X45892649Y-57208000D01*
X46167351Y-57208000D01*
X46167364Y-57207999D01*
X46439490Y-57170595D01*
X46704010Y-57096480D01*
X46955969Y-56987038D01*
X47190679Y-56844309D01*
X47259283Y-56788493D01*
X47259283Y-56788492D01*
X46535630Y-56064839D01*
X46667463Y-55976751D01*
X46806751Y-55837463D01*
X46894839Y-55705629D01*
X47619457Y-56430247D01*
X47749682Y-56245762D01*
X47749685Y-56245756D01*
X47876061Y-56001865D01*
X47968055Y-55743019D01*
X47968057Y-55743011D01*
X48023946Y-55474054D01*
X48023947Y-55474048D01*
X48042692Y-55200004D01*
X48042692Y-55199995D01*
X48023947Y-54925951D01*
X48023946Y-54925945D01*
X47968057Y-54656988D01*
X47968055Y-54656980D01*
X47876061Y-54398134D01*
X47749685Y-54154243D01*
X47749681Y-54154237D01*
X47619457Y-53969750D01*
X46894838Y-54694368D01*
X46806751Y-54562537D01*
X46667463Y-54423249D01*
X46535628Y-54335159D01*
X47259283Y-53611504D01*
X47245143Y-53600000D01*
X49391499Y-53600000D01*
X49411475Y-53866565D01*
X49470957Y-54127171D01*
X49470958Y-54127173D01*
X49568612Y-54375995D01*
X49568614Y-54375999D01*
X49702268Y-54607494D01*
X49702270Y-54607497D01*
X49702271Y-54607498D01*
X49741738Y-54656988D01*
X49868939Y-54816494D01*
X50013457Y-54950585D01*
X50064888Y-54998306D01*
X50064894Y-54998310D01*
X50285740Y-55148881D01*
X50285744Y-55148883D01*
X50285750Y-55148887D01*
X50526587Y-55264869D01*
X50695402Y-55316941D01*
X50782010Y-55343657D01*
X50782012Y-55343657D01*
X50782021Y-55343660D01*
X51046345Y-55383500D01*
X51046349Y-55383500D01*
X51313651Y-55383500D01*
X51313655Y-55383500D01*
X51577979Y-55343660D01*
X51577989Y-55343657D01*
X51833404Y-55264872D01*
X51833406Y-55264871D01*
X51833413Y-55264869D01*
X51968125Y-55199995D01*
X54317308Y-55199995D01*
X54317308Y-55200004D01*
X54336052Y-55474048D01*
X54336053Y-55474054D01*
X54391942Y-55743011D01*
X54391944Y-55743019D01*
X54483938Y-56001865D01*
X54610314Y-56245756D01*
X54610316Y-56245759D01*
X54740541Y-56430248D01*
X55465160Y-55705629D01*
X55553249Y-55837463D01*
X55692537Y-55976751D01*
X55824369Y-56064838D01*
X55100715Y-56788492D01*
X55100715Y-56788494D01*
X55169313Y-56844304D01*
X55169318Y-56844307D01*
X55404030Y-56987038D01*
X55655989Y-57096480D01*
X55920509Y-57170595D01*
X56192635Y-57207999D01*
X56192649Y-57208000D01*
X56467351Y-57208000D01*
X56467364Y-57207999D01*
X56739490Y-57170595D01*
X57004010Y-57096480D01*
X57255969Y-56987038D01*
X57490679Y-56844309D01*
X57559283Y-56788493D01*
X57559283Y-56788492D01*
X56835630Y-56064839D01*
X56967463Y-55976751D01*
X57106751Y-55837463D01*
X57194839Y-55705629D01*
X57919457Y-56430247D01*
X58049682Y-56245762D01*
X58049685Y-56245756D01*
X58073394Y-56200000D01*
X61556526Y-56200000D01*
X61576391Y-56452402D01*
X61635494Y-56698589D01*
X61677364Y-56799671D01*
X61732384Y-56932502D01*
X61864672Y-57148376D01*
X62029102Y-57340898D01*
X62221624Y-57505328D01*
X62437498Y-57637616D01*
X62671409Y-57734505D01*
X62917597Y-57793609D01*
X63170000Y-57813474D01*
X63422403Y-57793609D01*
X63668591Y-57734505D01*
X63902502Y-57637616D01*
X64118376Y-57505328D01*
X64310898Y-57340898D01*
X64475328Y-57148376D01*
X64607616Y-56932502D01*
X64704505Y-56698591D01*
X64763609Y-56452403D01*
X64783474Y-56200000D01*
X64763609Y-55947597D01*
X64704505Y-55701409D01*
X64607616Y-55467498D01*
X64475328Y-55251624D01*
X64310898Y-55059102D01*
X64118376Y-54894672D01*
X63902502Y-54762384D01*
X63668591Y-54665495D01*
X63668589Y-54665494D01*
X63500177Y-54625062D01*
X63422403Y-54606391D01*
X63170000Y-54586526D01*
X62917597Y-54606391D01*
X62671410Y-54665494D01*
X62437499Y-54762383D01*
X62221625Y-54894671D01*
X62029102Y-55059102D01*
X61864671Y-55251625D01*
X61732383Y-55467499D01*
X61635494Y-55701410D01*
X61576391Y-55947597D01*
X61556526Y-56200000D01*
X58073394Y-56200000D01*
X58176061Y-56001865D01*
X58268055Y-55743019D01*
X58268057Y-55743011D01*
X58323946Y-55474054D01*
X58323947Y-55474048D01*
X58342692Y-55200004D01*
X58342692Y-55199995D01*
X58323947Y-54925951D01*
X58323946Y-54925945D01*
X58268057Y-54656988D01*
X58268055Y-54656980D01*
X58176061Y-54398134D01*
X58122620Y-54295000D01*
X66637028Y-54295000D01*
X66656886Y-54547323D01*
X66715971Y-54793434D01*
X66812830Y-55027272D01*
X66944177Y-55241611D01*
X66944178Y-55241611D01*
X67647301Y-54538488D01*
X67673978Y-54602890D01*
X67745112Y-54709351D01*
X67835649Y-54799888D01*
X67942110Y-54871022D01*
X68006510Y-54897698D01*
X67303387Y-55600820D01*
X67303387Y-55600822D01*
X67517727Y-55732169D01*
X67751565Y-55829028D01*
X67997676Y-55888113D01*
X68250000Y-55907971D01*
X68502323Y-55888113D01*
X68748434Y-55829028D01*
X68982277Y-55732167D01*
X69196611Y-55600822D01*
X69196611Y-55600820D01*
X68493489Y-54897698D01*
X68557890Y-54871022D01*
X68664351Y-54799888D01*
X68754888Y-54709351D01*
X68826022Y-54602890D01*
X68852698Y-54538489D01*
X69555820Y-55241611D01*
X69555822Y-55241611D01*
X69687167Y-55027277D01*
X69784028Y-54793434D01*
X69843113Y-54547323D01*
X69862971Y-54295000D01*
X69843113Y-54042676D01*
X69784028Y-53796565D01*
X69687169Y-53562727D01*
X69555822Y-53348387D01*
X69555820Y-53348387D01*
X68852697Y-54051509D01*
X68826022Y-53987110D01*
X68754888Y-53880649D01*
X68664351Y-53790112D01*
X68557890Y-53718978D01*
X68493488Y-53692301D01*
X69196611Y-52989178D01*
X69196611Y-52989177D01*
X68982272Y-52857830D01*
X68748434Y-52760971D01*
X68502323Y-52701886D01*
X68250000Y-52682028D01*
X67997676Y-52701886D01*
X67751565Y-52760971D01*
X67517727Y-52857830D01*
X67303387Y-52989176D01*
X67303387Y-52989178D01*
X68006510Y-53692301D01*
X67942110Y-53718978D01*
X67835649Y-53790112D01*
X67745112Y-53880649D01*
X67673978Y-53987110D01*
X67647301Y-54051510D01*
X66944178Y-53348387D01*
X66944176Y-53348387D01*
X66812830Y-53562727D01*
X66715971Y-53796565D01*
X66656886Y-54042676D01*
X66637028Y-54295000D01*
X58122620Y-54295000D01*
X58049685Y-54154243D01*
X58049681Y-54154237D01*
X57919457Y-53969750D01*
X57194838Y-54694368D01*
X57106751Y-54562537D01*
X56967463Y-54423249D01*
X56835628Y-54335159D01*
X57559283Y-53611504D01*
X57490680Y-53555691D01*
X57255969Y-53412961D01*
X57004010Y-53303519D01*
X56739490Y-53229404D01*
X56467364Y-53192000D01*
X56192635Y-53192000D01*
X55920509Y-53229404D01*
X55655989Y-53303519D01*
X55404030Y-53412961D01*
X55169325Y-53555687D01*
X55100715Y-53611505D01*
X55100714Y-53611505D01*
X55824369Y-54335160D01*
X55692537Y-54423249D01*
X55553249Y-54562537D01*
X55465160Y-54694369D01*
X54740541Y-53969750D01*
X54610317Y-54154236D01*
X54483938Y-54398134D01*
X54391944Y-54656980D01*
X54391942Y-54656988D01*
X54336053Y-54925945D01*
X54336052Y-54925951D01*
X54317308Y-55199995D01*
X51968125Y-55199995D01*
X52074251Y-55148887D01*
X52295112Y-54998306D01*
X52491064Y-54816490D01*
X52657729Y-54607498D01*
X52791384Y-54376002D01*
X52792367Y-54373499D01*
X52822896Y-54295710D01*
X52889043Y-54127170D01*
X52948525Y-53866562D01*
X52968501Y-53600000D01*
X52948525Y-53333438D01*
X52889043Y-53072830D01*
X52830743Y-52924284D01*
X52791387Y-52824004D01*
X52791385Y-52824000D01*
X52657731Y-52592505D01*
X52611314Y-52534300D01*
X52496240Y-52390000D01*
X61557028Y-52390000D01*
X61576886Y-52642323D01*
X61635971Y-52888434D01*
X61732830Y-53122272D01*
X61864177Y-53336611D01*
X61864178Y-53336611D01*
X62567301Y-52633488D01*
X62593978Y-52697890D01*
X62665112Y-52804351D01*
X62755649Y-52894888D01*
X62862110Y-52966022D01*
X62926510Y-52992698D01*
X62223387Y-53695820D01*
X62223387Y-53695822D01*
X62437727Y-53827169D01*
X62671565Y-53924028D01*
X62917676Y-53983113D01*
X63170000Y-54002971D01*
X63422323Y-53983113D01*
X63668434Y-53924028D01*
X63902277Y-53827167D01*
X64116611Y-53695822D01*
X64116611Y-53695820D01*
X63413489Y-52992698D01*
X63477890Y-52966022D01*
X63584351Y-52894888D01*
X63674888Y-52804351D01*
X63746022Y-52697890D01*
X63772698Y-52633489D01*
X64475820Y-53336611D01*
X64475822Y-53336611D01*
X64607167Y-53122277D01*
X64704028Y-52888434D01*
X64763113Y-52642323D01*
X64782971Y-52390000D01*
X64763113Y-52137676D01*
X64704028Y-51891565D01*
X64607169Y-51657727D01*
X64475822Y-51443387D01*
X64475820Y-51443387D01*
X63772697Y-52146509D01*
X63746022Y-52082110D01*
X63674888Y-51975649D01*
X63584351Y-51885112D01*
X63477890Y-51813978D01*
X63413488Y-51787301D01*
X64116611Y-51084178D01*
X64116611Y-51084177D01*
X63902272Y-50952830D01*
X63668434Y-50855971D01*
X63422323Y-50796886D01*
X63170000Y-50777028D01*
X62917676Y-50796886D01*
X62671565Y-50855971D01*
X62437727Y-50952830D01*
X62223387Y-51084176D01*
X62223387Y-51084178D01*
X62926510Y-51787301D01*
X62862110Y-51813978D01*
X62755649Y-51885112D01*
X62665112Y-51975649D01*
X62593978Y-52082110D01*
X62567301Y-52146510D01*
X61864178Y-51443387D01*
X61864176Y-51443387D01*
X61732830Y-51657727D01*
X61635971Y-51891565D01*
X61576886Y-52137676D01*
X61557028Y-52390000D01*
X52496240Y-52390000D01*
X52491064Y-52383510D01*
X52491063Y-52383509D01*
X52491060Y-52383505D01*
X52295117Y-52201699D01*
X52295111Y-52201693D01*
X52203518Y-52139246D01*
X52074251Y-52051113D01*
X51917549Y-51975649D01*
X51833416Y-51935132D01*
X51833404Y-51935127D01*
X51577989Y-51856342D01*
X51577981Y-51856340D01*
X51577979Y-51856340D01*
X51313655Y-51816500D01*
X51046345Y-51816500D01*
X50782021Y-51856340D01*
X50782019Y-51856340D01*
X50782010Y-51856342D01*
X50526583Y-51935132D01*
X50285748Y-52051114D01*
X50285740Y-52051118D01*
X50064894Y-52201689D01*
X50064882Y-52201699D01*
X49868939Y-52383505D01*
X49702268Y-52592505D01*
X49568614Y-52824000D01*
X49568612Y-52824004D01*
X49470958Y-53072826D01*
X49470957Y-53072828D01*
X49411475Y-53333434D01*
X49391499Y-53600000D01*
X47245143Y-53600000D01*
X47190680Y-53555691D01*
X46955969Y-53412961D01*
X46704010Y-53303519D01*
X46439490Y-53229404D01*
X46167364Y-53192000D01*
X45892635Y-53192000D01*
X45620509Y-53229404D01*
X45355989Y-53303519D01*
X45104030Y-53412961D01*
X44869325Y-53555687D01*
X44800715Y-53611505D01*
X44800714Y-53611505D01*
X45524369Y-54335160D01*
X45392537Y-54423249D01*
X45253249Y-54562537D01*
X45165160Y-54694369D01*
X44440541Y-53969750D01*
X44310317Y-54154236D01*
X44183938Y-54398134D01*
X44091944Y-54656980D01*
X44091942Y-54656988D01*
X44036053Y-54925945D01*
X44036052Y-54925951D01*
X44017308Y-55199995D01*
X25310000Y-55199995D01*
X25310000Y-41732678D01*
X27936500Y-41732678D01*
X27936500Y-43347321D01*
X27954010Y-43435352D01*
X27962766Y-43479369D01*
X27971206Y-43499744D01*
X28011697Y-43597500D01*
X28014291Y-43603761D01*
X28024950Y-43619713D01*
X28024951Y-43619714D01*
X28089091Y-43715706D01*
X28089093Y-43715708D01*
X28835904Y-44462519D01*
X28869930Y-44524831D01*
X28868518Y-44584218D01*
X28866458Y-44591907D01*
X28866457Y-44591910D01*
X28866457Y-44591913D01*
X28846502Y-44820000D01*
X28866457Y-45048087D01*
X28884573Y-45115697D01*
X28925715Y-45269240D01*
X28925717Y-45269246D01*
X29022477Y-45476749D01*
X29142194Y-45647723D01*
X29153802Y-45664300D01*
X29315700Y-45826198D01*
X29315703Y-45826200D01*
X29366526Y-45861787D01*
X29410854Y-45917244D01*
X29418163Y-45987864D01*
X29386132Y-46051224D01*
X29366526Y-46068213D01*
X29315703Y-46103799D01*
X29315697Y-46103804D01*
X29153804Y-46265697D01*
X29153799Y-46265703D01*
X29022477Y-46453250D01*
X28925717Y-46660753D01*
X28925715Y-46660759D01*
X28871097Y-46864598D01*
X28866457Y-46881913D01*
X28846502Y-47110000D01*
X28852725Y-47181135D01*
X28866457Y-47338086D01*
X28925715Y-47559240D01*
X28925717Y-47559246D01*
X29022477Y-47766749D01*
X29046215Y-47800651D01*
X29153802Y-47954300D01*
X29315700Y-48116198D01*
X29315703Y-48116200D01*
X29366526Y-48151787D01*
X29410854Y-48207244D01*
X29418163Y-48277864D01*
X29386132Y-48341224D01*
X29366526Y-48358213D01*
X29315703Y-48393799D01*
X29315697Y-48393804D01*
X29153804Y-48555697D01*
X29153799Y-48555703D01*
X29022477Y-48743250D01*
X28925717Y-48950753D01*
X28925715Y-48950759D01*
X28891463Y-49078589D01*
X28866457Y-49171913D01*
X28846502Y-49400000D01*
X28866457Y-49628087D01*
X28891326Y-49720897D01*
X28925715Y-49849240D01*
X28925717Y-49849246D01*
X29022477Y-50056749D01*
X29122731Y-50199927D01*
X29153802Y-50244300D01*
X29315700Y-50406198D01*
X29315703Y-50406200D01*
X29366526Y-50441787D01*
X29410854Y-50497244D01*
X29418163Y-50567864D01*
X29386132Y-50631224D01*
X29366526Y-50648213D01*
X29315703Y-50683799D01*
X29315697Y-50683804D01*
X29153804Y-50845697D01*
X29153799Y-50845703D01*
X29022477Y-51033250D01*
X28925717Y-51240753D01*
X28925715Y-51240759D01*
X28866457Y-51461913D01*
X28846502Y-51690000D01*
X28866457Y-51918086D01*
X28925715Y-52139240D01*
X28925717Y-52139246D01*
X29012793Y-52325981D01*
X29022477Y-52346749D01*
X29153802Y-52534300D01*
X29315700Y-52696198D01*
X29503251Y-52827523D01*
X29710757Y-52924284D01*
X29931913Y-52983543D01*
X30160000Y-53003498D01*
X30388087Y-52983543D01*
X30609243Y-52924284D01*
X30816749Y-52827523D01*
X31004300Y-52696198D01*
X31166198Y-52534300D01*
X31297523Y-52346749D01*
X31394284Y-52139243D01*
X31453543Y-51918087D01*
X31473498Y-51690000D01*
X31453543Y-51461913D01*
X31394284Y-51240757D01*
X31297523Y-51033251D01*
X31166198Y-50845700D01*
X31004300Y-50683802D01*
X30953472Y-50648212D01*
X30909145Y-50592757D01*
X30901836Y-50522137D01*
X30933866Y-50458777D01*
X30953468Y-50441790D01*
X31004300Y-50406198D01*
X31166198Y-50244300D01*
X31297523Y-50056749D01*
X31394284Y-49849243D01*
X31453543Y-49628087D01*
X31473498Y-49400000D01*
X31453543Y-49171913D01*
X31394284Y-48950757D01*
X31297523Y-48743251D01*
X31166198Y-48555700D01*
X31004300Y-48393802D01*
X30953472Y-48358212D01*
X30909145Y-48302757D01*
X30901836Y-48232137D01*
X30933866Y-48168777D01*
X30953468Y-48151790D01*
X31004300Y-48116198D01*
X31166198Y-47954300D01*
X31297523Y-47766749D01*
X31394284Y-47559243D01*
X31453543Y-47338087D01*
X31473498Y-47110000D01*
X31453543Y-46881913D01*
X31453540Y-46881902D01*
X31453079Y-46879286D01*
X31453209Y-46878111D01*
X31453063Y-46876433D01*
X31453400Y-46876403D01*
X31460942Y-46808726D01*
X31505705Y-46753619D01*
X31573155Y-46731460D01*
X31641877Y-46749285D01*
X31680374Y-46785123D01*
X31693802Y-46804300D01*
X31855700Y-46966198D01*
X32043251Y-47097523D01*
X32250757Y-47194284D01*
X32471913Y-47253543D01*
X32700000Y-47273498D01*
X32928087Y-47253543D01*
X32935767Y-47251485D01*
X33006741Y-47253169D01*
X33057479Y-47284094D01*
X33344595Y-47571210D01*
X33378621Y-47633522D01*
X33381500Y-47660305D01*
X33381500Y-52762321D01*
X33407766Y-52894369D01*
X33407768Y-52894374D01*
X33437948Y-52967235D01*
X33459291Y-53018762D01*
X33503076Y-53084289D01*
X33503077Y-53084290D01*
X33534091Y-53130706D01*
X34529090Y-54125705D01*
X34529091Y-54125706D01*
X34624294Y-54220909D01*
X34736241Y-54295710D01*
X34860630Y-54347233D01*
X34992681Y-54373500D01*
X41297318Y-54373500D01*
X41297319Y-54373500D01*
X41429369Y-54347234D01*
X41514409Y-54312009D01*
X41553759Y-54295710D01*
X41665706Y-54220909D01*
X41760909Y-54125706D01*
X41760910Y-54125705D01*
X47082176Y-48804438D01*
X47144486Y-48770414D01*
X47152665Y-48769099D01*
X47155483Y-48768500D01*
X47155487Y-48768500D01*
X47342288Y-48728794D01*
X47516752Y-48651118D01*
X47671253Y-48538866D01*
X47799040Y-48396944D01*
X47894527Y-48231556D01*
X47953542Y-48049928D01*
X47973504Y-47860000D01*
X47953542Y-47670072D01*
X47894527Y-47488444D01*
X47799040Y-47323056D01*
X47799038Y-47323054D01*
X47799034Y-47323048D01*
X47671255Y-47181135D01*
X47516752Y-47068882D01*
X47342288Y-46991206D01*
X47155487Y-46951500D01*
X46964513Y-46951500D01*
X46777711Y-46991206D01*
X46603247Y-47068882D01*
X46448744Y-47181135D01*
X46320965Y-47323048D01*
X46320958Y-47323058D01*
X46225476Y-47488438D01*
X46225473Y-47488444D01*
X46205278Y-47550594D01*
X46166459Y-47670067D01*
X46166458Y-47670069D01*
X46166458Y-47670072D01*
X46163106Y-47701963D01*
X46157397Y-47756278D01*
X46130383Y-47821935D01*
X46121182Y-47832201D01*
X40983790Y-52969595D01*
X40921478Y-53003620D01*
X40894695Y-53006500D01*
X36040764Y-53006500D01*
X35972643Y-52986498D01*
X35926150Y-52932842D01*
X35916046Y-52862568D01*
X35945540Y-52797988D01*
X35968493Y-52777287D01*
X36084300Y-52696198D01*
X36246198Y-52534300D01*
X36377523Y-52346749D01*
X36474284Y-52139243D01*
X36533543Y-51918087D01*
X36553498Y-51690000D01*
X36533543Y-51461913D01*
X36474284Y-51240757D01*
X36377523Y-51033251D01*
X36246198Y-50845700D01*
X36084300Y-50683802D01*
X36033472Y-50648212D01*
X35989145Y-50592757D01*
X35981836Y-50522137D01*
X36013866Y-50458777D01*
X36033468Y-50441790D01*
X36084300Y-50406198D01*
X36246198Y-50244300D01*
X36377523Y-50056749D01*
X36474284Y-49849243D01*
X36533543Y-49628087D01*
X36553498Y-49400000D01*
X36533543Y-49171913D01*
X36474284Y-48950757D01*
X36377523Y-48743251D01*
X36246198Y-48555700D01*
X36084300Y-48393802D01*
X36033472Y-48358212D01*
X35989145Y-48302757D01*
X35981836Y-48232137D01*
X36013866Y-48168777D01*
X36033468Y-48151790D01*
X36084300Y-48116198D01*
X36246198Y-47954300D01*
X36377523Y-47766749D01*
X36474284Y-47559243D01*
X36533543Y-47338087D01*
X36553498Y-47110000D01*
X36533543Y-46881913D01*
X36474284Y-46660757D01*
X36377523Y-46453251D01*
X36246198Y-46265700D01*
X36084300Y-46103802D01*
X36033472Y-46068212D01*
X35989145Y-46012757D01*
X35981836Y-45942137D01*
X36013866Y-45878777D01*
X36033468Y-45861790D01*
X36084300Y-45826198D01*
X36246198Y-45664300D01*
X36377523Y-45476749D01*
X36474284Y-45269243D01*
X36533543Y-45048087D01*
X36553498Y-44820000D01*
X36533543Y-44591913D01*
X36474284Y-44370757D01*
X36377523Y-44163251D01*
X36246198Y-43975700D01*
X36084300Y-43813802D01*
X35896749Y-43682477D01*
X35765642Y-43621341D01*
X35689246Y-43585717D01*
X35689240Y-43585715D01*
X35550352Y-43548500D01*
X35468087Y-43526457D01*
X35240000Y-43506502D01*
X35011913Y-43526457D01*
X34790759Y-43585715D01*
X34790753Y-43585717D01*
X34583250Y-43682477D01*
X34395703Y-43813799D01*
X34395697Y-43813804D01*
X34233804Y-43975697D01*
X34233799Y-43975703D01*
X34102477Y-44163250D01*
X34005717Y-44370753D01*
X34005715Y-44370759D01*
X33946457Y-44591913D01*
X33926502Y-44820000D01*
X33946539Y-45049025D01*
X33932550Y-45118629D01*
X33883150Y-45169622D01*
X33814024Y-45185812D01*
X33747119Y-45162059D01*
X33717804Y-45132275D01*
X33706202Y-45115705D01*
X33706195Y-45115697D01*
X33544302Y-44953804D01*
X33544296Y-44953799D01*
X33356749Y-44822477D01*
X33149246Y-44725717D01*
X33149240Y-44725715D01*
X33055771Y-44700670D01*
X32928087Y-44666457D01*
X32700000Y-44646502D01*
X32471913Y-44666457D01*
X32250759Y-44725715D01*
X32250747Y-44725719D01*
X32242745Y-44729451D01*
X32172553Y-44740109D01*
X32107741Y-44711126D01*
X32068888Y-44651705D01*
X32063500Y-44615254D01*
X32063500Y-43075305D01*
X32083502Y-43007184D01*
X32100405Y-42986210D01*
X34126210Y-40960405D01*
X34188522Y-40926379D01*
X34215305Y-40923500D01*
X40854695Y-40923500D01*
X40922816Y-40943502D01*
X40943790Y-40960405D01*
X45609091Y-45625706D01*
X45704294Y-45720909D01*
X45816241Y-45795710D01*
X45852669Y-45810798D01*
X45852672Y-45810800D01*
X45852673Y-45810800D01*
X45889851Y-45826200D01*
X45940630Y-45847234D01*
X46072681Y-45873500D01*
X57715695Y-45873500D01*
X57783816Y-45893502D01*
X57830309Y-45947158D01*
X57840413Y-46017432D01*
X57810919Y-46082012D01*
X57804790Y-46088595D01*
X56404294Y-47489091D01*
X56356692Y-47536693D01*
X56309090Y-47584294D01*
X56233595Y-47697279D01*
X56231920Y-47701963D01*
X56182768Y-47820625D01*
X56182766Y-47820630D01*
X56168301Y-47893354D01*
X56156500Y-47952678D01*
X56156500Y-49363005D01*
X56136498Y-49431126D01*
X56124137Y-49447314D01*
X56100959Y-49473055D01*
X56100958Y-49473057D01*
X56005476Y-49638438D01*
X56005473Y-49638445D01*
X55946457Y-49820072D01*
X55926496Y-50010000D01*
X55946457Y-50199927D01*
X55960874Y-50244296D01*
X56005473Y-50381556D01*
X56005476Y-50381561D01*
X56100958Y-50546941D01*
X56100965Y-50546951D01*
X56228744Y-50688864D01*
X56228747Y-50688866D01*
X56383248Y-50801118D01*
X56557712Y-50878794D01*
X56744513Y-50918500D01*
X56935487Y-50918500D01*
X57122288Y-50878794D01*
X57296752Y-50801118D01*
X57451253Y-50688866D01*
X57455814Y-50683801D01*
X57579034Y-50546951D01*
X57579035Y-50546949D01*
X57579040Y-50546944D01*
X57614803Y-50485000D01*
X66636526Y-50485000D01*
X66656391Y-50737403D01*
X66675062Y-50815177D01*
X66715494Y-50983589D01*
X66757159Y-51084176D01*
X66812384Y-51217502D01*
X66944672Y-51433376D01*
X67109102Y-51625898D01*
X67301624Y-51790328D01*
X67517498Y-51922616D01*
X67751409Y-52019505D01*
X67997597Y-52078609D01*
X68250000Y-52098474D01*
X68502403Y-52078609D01*
X68748591Y-52019505D01*
X68982502Y-51922616D01*
X69198376Y-51790328D01*
X69390898Y-51625898D01*
X69555328Y-51433376D01*
X69687616Y-51217502D01*
X69784505Y-50983591D01*
X69843609Y-50737403D01*
X69863474Y-50485000D01*
X69843609Y-50232597D01*
X69784505Y-49986409D01*
X69687616Y-49752498D01*
X69555328Y-49536624D01*
X69390898Y-49344102D01*
X69198376Y-49179672D01*
X68982502Y-49047384D01*
X68749229Y-48950759D01*
X68748589Y-48950494D01*
X68580177Y-48910062D01*
X68502403Y-48891391D01*
X68250000Y-48871526D01*
X67997597Y-48891391D01*
X67751410Y-48950494D01*
X67517499Y-49047383D01*
X67301625Y-49179671D01*
X67109102Y-49344102D01*
X66944671Y-49536625D01*
X66812383Y-49752499D01*
X66715494Y-49986410D01*
X66664234Y-50199927D01*
X66656391Y-50232597D01*
X66636526Y-50485000D01*
X57614803Y-50485000D01*
X57674527Y-50381556D01*
X57733542Y-50199928D01*
X57753504Y-50010000D01*
X57733542Y-49820072D01*
X57674527Y-49638444D01*
X57579041Y-49473057D01*
X57579040Y-49473055D01*
X57555863Y-49447314D01*
X57525146Y-49383307D01*
X57523500Y-49363005D01*
X57523500Y-48580000D01*
X61556526Y-48580000D01*
X61576391Y-48832402D01*
X61635494Y-49078589D01*
X61677364Y-49179671D01*
X61732384Y-49312502D01*
X61864672Y-49528376D01*
X62029102Y-49720898D01*
X62221624Y-49885328D01*
X62437498Y-50017616D01*
X62671409Y-50114505D01*
X62917597Y-50173609D01*
X63170000Y-50193474D01*
X63422403Y-50173609D01*
X63668591Y-50114505D01*
X63902502Y-50017616D01*
X64118376Y-49885328D01*
X64310898Y-49720898D01*
X64475328Y-49528376D01*
X64607616Y-49312502D01*
X64704505Y-49078591D01*
X64763609Y-48832403D01*
X64783474Y-48580000D01*
X64763609Y-48327597D01*
X64704505Y-48081409D01*
X64607616Y-47847498D01*
X64475328Y-47631624D01*
X64310898Y-47439102D01*
X64118376Y-47274672D01*
X63902502Y-47142384D01*
X63794196Y-47097522D01*
X63668589Y-47045494D01*
X63500177Y-47005062D01*
X63422403Y-46986391D01*
X63170000Y-46966526D01*
X62917597Y-46986391D01*
X62671410Y-47045494D01*
X62437499Y-47142383D01*
X62221625Y-47274671D01*
X62029102Y-47439102D01*
X61864671Y-47631625D01*
X61732383Y-47847499D01*
X61635494Y-48081410D01*
X61576391Y-48327597D01*
X61556526Y-48580000D01*
X57523500Y-48580000D01*
X57523500Y-48355305D01*
X57543502Y-48287184D01*
X57560405Y-48266210D01*
X58875115Y-46951500D01*
X59151615Y-46675000D01*
X66637028Y-46675000D01*
X66656886Y-46927323D01*
X66715971Y-47173434D01*
X66812830Y-47407272D01*
X66944177Y-47621611D01*
X66944178Y-47621611D01*
X67647301Y-46918488D01*
X67673978Y-46982890D01*
X67745112Y-47089351D01*
X67835649Y-47179888D01*
X67942110Y-47251022D01*
X68006510Y-47277698D01*
X67303387Y-47980820D01*
X67303387Y-47980822D01*
X67517727Y-48112169D01*
X67751565Y-48209028D01*
X67997676Y-48268113D01*
X68250000Y-48287971D01*
X68502323Y-48268113D01*
X68748434Y-48209028D01*
X68982277Y-48112167D01*
X69196611Y-47980822D01*
X69196611Y-47980820D01*
X68493489Y-47277698D01*
X68557890Y-47251022D01*
X68664351Y-47179888D01*
X68754888Y-47089351D01*
X68826022Y-46982890D01*
X68852698Y-46918489D01*
X69555820Y-47621611D01*
X69555822Y-47621611D01*
X69687167Y-47407277D01*
X69784028Y-47173434D01*
X69843113Y-46927323D01*
X69862971Y-46675000D01*
X69843113Y-46422676D01*
X69784028Y-46176565D01*
X69687169Y-45942727D01*
X69555822Y-45728387D01*
X69555820Y-45728387D01*
X68852697Y-46431509D01*
X68826022Y-46367110D01*
X68754888Y-46260649D01*
X68664351Y-46170112D01*
X68557890Y-46098978D01*
X68493488Y-46072301D01*
X69196611Y-45369178D01*
X69196611Y-45369177D01*
X68982272Y-45237830D01*
X68748434Y-45140971D01*
X68502323Y-45081886D01*
X68250000Y-45062028D01*
X67997676Y-45081886D01*
X67751565Y-45140971D01*
X67517727Y-45237830D01*
X67303387Y-45369176D01*
X67303387Y-45369178D01*
X68006510Y-46072301D01*
X67942110Y-46098978D01*
X67835649Y-46170112D01*
X67745112Y-46260649D01*
X67673978Y-46367110D01*
X67647301Y-46431510D01*
X66944178Y-45728387D01*
X66944176Y-45728387D01*
X66812830Y-45942727D01*
X66715971Y-46176565D01*
X66656886Y-46422676D01*
X66637028Y-46675000D01*
X59151615Y-46675000D01*
X60200909Y-45625706D01*
X61358277Y-44468337D01*
X61420584Y-44434316D01*
X61491399Y-44439380D01*
X61548235Y-44481927D01*
X61573046Y-44548447D01*
X61572979Y-44567321D01*
X61557028Y-44769999D01*
X61576886Y-45022323D01*
X61635971Y-45268434D01*
X61732830Y-45502272D01*
X61864177Y-45716611D01*
X61864178Y-45716611D01*
X62567301Y-45013487D01*
X62593978Y-45077890D01*
X62665112Y-45184351D01*
X62755649Y-45274888D01*
X62862110Y-45346022D01*
X62926510Y-45372698D01*
X62223387Y-46075820D01*
X62223387Y-46075822D01*
X62437727Y-46207169D01*
X62671565Y-46304028D01*
X62917676Y-46363113D01*
X63170000Y-46382971D01*
X63422323Y-46363113D01*
X63668434Y-46304028D01*
X63902277Y-46207167D01*
X64116611Y-46075822D01*
X64116611Y-46075820D01*
X63413489Y-45372698D01*
X63477890Y-45346022D01*
X63584351Y-45274888D01*
X63674888Y-45184351D01*
X63746022Y-45077890D01*
X63772698Y-45013489D01*
X64475820Y-45716611D01*
X64475822Y-45716611D01*
X64607167Y-45502277D01*
X64704028Y-45268434D01*
X64763113Y-45022323D01*
X64782971Y-44770000D01*
X64763113Y-44517676D01*
X64704028Y-44271565D01*
X64607169Y-44037727D01*
X64474920Y-43821917D01*
X64474919Y-43821915D01*
X64418904Y-43756330D01*
X64389873Y-43691541D01*
X64400478Y-43621341D01*
X64447353Y-43568018D01*
X64514715Y-43548500D01*
X66711792Y-43548500D01*
X66779913Y-43568502D01*
X66819224Y-43608664D01*
X66944672Y-43813376D01*
X67109102Y-44005898D01*
X67301624Y-44170328D01*
X67517498Y-44302616D01*
X67751409Y-44399505D01*
X67997597Y-44458609D01*
X68250000Y-44478474D01*
X68502403Y-44458609D01*
X68748591Y-44399505D01*
X68982502Y-44302616D01*
X69198376Y-44170328D01*
X69390898Y-44005898D01*
X69555328Y-43813376D01*
X69687616Y-43597502D01*
X69784505Y-43363591D01*
X69843609Y-43117403D01*
X69863474Y-42865000D01*
X69843609Y-42612597D01*
X69784505Y-42366409D01*
X69687616Y-42132498D01*
X69555328Y-41916624D01*
X69390898Y-41724102D01*
X69198376Y-41559672D01*
X68982502Y-41427384D01*
X68830190Y-41364294D01*
X68748589Y-41330494D01*
X68580177Y-41290062D01*
X68502403Y-41271391D01*
X68250000Y-41251526D01*
X67997597Y-41271391D01*
X67751410Y-41330494D01*
X67517499Y-41427383D01*
X67301625Y-41559671D01*
X67109102Y-41724102D01*
X66944671Y-41916625D01*
X66819225Y-42121335D01*
X66766577Y-42168966D01*
X66711792Y-42181500D01*
X64515373Y-42181500D01*
X64447252Y-42161498D01*
X64400759Y-42107842D01*
X64390655Y-42037568D01*
X64419562Y-41973670D01*
X64451205Y-41936619D01*
X64475328Y-41908376D01*
X64607616Y-41692502D01*
X64704505Y-41458591D01*
X64763609Y-41212403D01*
X64783474Y-40960000D01*
X64763609Y-40707597D01*
X64704505Y-40461409D01*
X64607616Y-40227498D01*
X64475328Y-40011624D01*
X64463957Y-39998310D01*
X64419562Y-39946330D01*
X64390531Y-39881541D01*
X64401136Y-39811341D01*
X64448011Y-39758018D01*
X64515373Y-39738500D01*
X66711792Y-39738500D01*
X66779913Y-39758502D01*
X66819224Y-39798664D01*
X66944672Y-40003376D01*
X67109102Y-40195898D01*
X67301624Y-40360328D01*
X67517498Y-40492616D01*
X67751409Y-40589505D01*
X67997597Y-40648609D01*
X68250000Y-40668474D01*
X68502403Y-40648609D01*
X68748591Y-40589505D01*
X68982502Y-40492616D01*
X69198376Y-40360328D01*
X69390898Y-40195898D01*
X69555328Y-40003376D01*
X69687616Y-39787502D01*
X69784505Y-39553591D01*
X69843609Y-39307403D01*
X69863474Y-39055000D01*
X69843609Y-38802597D01*
X69784505Y-38556409D01*
X69687616Y-38322498D01*
X69555328Y-38106624D01*
X69390898Y-37914102D01*
X69198376Y-37749672D01*
X68982502Y-37617384D01*
X68922432Y-37592502D01*
X68748589Y-37520494D01*
X68549575Y-37472716D01*
X68502403Y-37461391D01*
X68250000Y-37441526D01*
X67997597Y-37461391D01*
X67751410Y-37520494D01*
X67517499Y-37617383D01*
X67301625Y-37749671D01*
X67109102Y-37914102D01*
X66951968Y-38098082D01*
X66944672Y-38106624D01*
X66824015Y-38303519D01*
X66819225Y-38311335D01*
X66766577Y-38358966D01*
X66711792Y-38371500D01*
X64514715Y-38371500D01*
X64446594Y-38351498D01*
X64400101Y-38297842D01*
X64389997Y-38227568D01*
X64418904Y-38163670D01*
X64474919Y-38098084D01*
X64474920Y-38098082D01*
X64607169Y-37882272D01*
X64704028Y-37648434D01*
X64763113Y-37402323D01*
X64782971Y-37150000D01*
X64763113Y-36897676D01*
X64704028Y-36651565D01*
X64607169Y-36417727D01*
X64475822Y-36203387D01*
X64475820Y-36203387D01*
X63772697Y-36906509D01*
X63746022Y-36842110D01*
X63674888Y-36735649D01*
X63584351Y-36645112D01*
X63477890Y-36573978D01*
X63413488Y-36547301D01*
X64116611Y-35844178D01*
X64116611Y-35844177D01*
X63902272Y-35712830D01*
X63668434Y-35615971D01*
X63422323Y-35556886D01*
X63170000Y-35537028D01*
X62917676Y-35556886D01*
X62671565Y-35615971D01*
X62437727Y-35712830D01*
X62223387Y-35844176D01*
X62223387Y-35844178D01*
X62926510Y-36547301D01*
X62862110Y-36573978D01*
X62755649Y-36645112D01*
X62665112Y-36735649D01*
X62593978Y-36842110D01*
X62567301Y-36906511D01*
X61864178Y-36203387D01*
X61864176Y-36203387D01*
X61732830Y-36417727D01*
X61635971Y-36651565D01*
X61576886Y-36897676D01*
X61557028Y-37150000D01*
X61572979Y-37352676D01*
X61558383Y-37422156D01*
X61508540Y-37472716D01*
X61439276Y-37488302D01*
X61372580Y-37463967D01*
X61358272Y-37451657D01*
X59151615Y-35245000D01*
X66636526Y-35245000D01*
X66656391Y-35497403D01*
X66675062Y-35575177D01*
X66715494Y-35743589D01*
X66757159Y-35844176D01*
X66812384Y-35977502D01*
X66944672Y-36193376D01*
X67109102Y-36385898D01*
X67301624Y-36550328D01*
X67517498Y-36682616D01*
X67751409Y-36779505D01*
X67997597Y-36838609D01*
X68250000Y-36858474D01*
X68502403Y-36838609D01*
X68748591Y-36779505D01*
X68982502Y-36682616D01*
X69198376Y-36550328D01*
X69390898Y-36385898D01*
X69555328Y-36193376D01*
X69687616Y-35977502D01*
X69784505Y-35743591D01*
X69843609Y-35497403D01*
X69863474Y-35245000D01*
X69843609Y-34992597D01*
X69784505Y-34746409D01*
X69687616Y-34512498D01*
X69555328Y-34296624D01*
X69390898Y-34104102D01*
X69198376Y-33939672D01*
X68982502Y-33807384D01*
X68748591Y-33710495D01*
X68748589Y-33710494D01*
X68580177Y-33670062D01*
X68502403Y-33651391D01*
X68250000Y-33631526D01*
X67997597Y-33651391D01*
X67751410Y-33710494D01*
X67517499Y-33807383D01*
X67301625Y-33939671D01*
X67109102Y-34104102D01*
X66944671Y-34296625D01*
X66812383Y-34512499D01*
X66715494Y-34746410D01*
X66656391Y-34992597D01*
X66636526Y-35245000D01*
X59151615Y-35245000D01*
X57615708Y-33709093D01*
X57615706Y-33709091D01*
X57529352Y-33651391D01*
X57529350Y-33651389D01*
X57503761Y-33634291D01*
X57448215Y-33611283D01*
X57379374Y-33582768D01*
X57379369Y-33582766D01*
X57247321Y-33556500D01*
X57247319Y-33556500D01*
X47462681Y-33556500D01*
X47462674Y-33556500D01*
X47436416Y-33561723D01*
X47436415Y-33561724D01*
X47365892Y-33575752D01*
X47330630Y-33582766D01*
X47330627Y-33582767D01*
X47261785Y-33611283D01*
X47206241Y-33634290D01*
X47094294Y-33709090D01*
X47046693Y-33756692D01*
X46999091Y-33804294D01*
X43183790Y-37619595D01*
X43121478Y-37653621D01*
X43094695Y-37656500D01*
X32012678Y-37656500D01*
X31880630Y-37682766D01*
X31880625Y-37682768D01*
X31807765Y-37712948D01*
X31756241Y-37734290D01*
X31644294Y-37809090D01*
X31644288Y-37809095D01*
X28991976Y-40461409D01*
X28184294Y-41269091D01*
X28157670Y-41295715D01*
X28089090Y-41364294D01*
X28013595Y-41477279D01*
X28011920Y-41481963D01*
X27962768Y-41600625D01*
X27962766Y-41600630D01*
X27945845Y-41685701D01*
X27936500Y-41732678D01*
X25310000Y-41732678D01*
X25310000Y-33340000D01*
X61556526Y-33340000D01*
X61573976Y-33561724D01*
X61576391Y-33592402D01*
X61635494Y-33838589D01*
X61677364Y-33939671D01*
X61732384Y-34072502D01*
X61864672Y-34288376D01*
X62029102Y-34480898D01*
X62221624Y-34645328D01*
X62437498Y-34777616D01*
X62671409Y-34874505D01*
X62917597Y-34933609D01*
X63170000Y-34953474D01*
X63422403Y-34933609D01*
X63668591Y-34874505D01*
X63902502Y-34777616D01*
X64118376Y-34645328D01*
X64310898Y-34480898D01*
X64475328Y-34288376D01*
X64607616Y-34072502D01*
X64704505Y-33838591D01*
X64763609Y-33592403D01*
X64783474Y-33340000D01*
X64763609Y-33087597D01*
X64704505Y-32841409D01*
X64607616Y-32607498D01*
X64475328Y-32391624D01*
X64310898Y-32199102D01*
X64118376Y-32034672D01*
X63902502Y-31902384D01*
X63668591Y-31805495D01*
X63668589Y-31805494D01*
X63500177Y-31765062D01*
X63422403Y-31746391D01*
X63170000Y-31726526D01*
X62917597Y-31746391D01*
X62671410Y-31805494D01*
X62437499Y-31902383D01*
X62221625Y-32034671D01*
X62029102Y-32199102D01*
X61864671Y-32391625D01*
X61732383Y-32607499D01*
X61635494Y-32841410D01*
X61576391Y-33087597D01*
X61556526Y-33340000D01*
X25310000Y-33340000D01*
X25310000Y-31435000D01*
X66636526Y-31435000D01*
X66656391Y-31687402D01*
X66715494Y-31933589D01*
X66757364Y-32034671D01*
X66812384Y-32167502D01*
X66944672Y-32383376D01*
X67109102Y-32575898D01*
X67301624Y-32740328D01*
X67517498Y-32872616D01*
X67751409Y-32969505D01*
X67997597Y-33028609D01*
X68250000Y-33048474D01*
X68502403Y-33028609D01*
X68748591Y-32969505D01*
X68982502Y-32872616D01*
X69198376Y-32740328D01*
X69390898Y-32575898D01*
X69555328Y-32383376D01*
X69687616Y-32167502D01*
X69784505Y-31933591D01*
X69843609Y-31687403D01*
X69863474Y-31435000D01*
X69843609Y-31182597D01*
X69784505Y-30936409D01*
X69687616Y-30702498D01*
X69555328Y-30486624D01*
X69390898Y-30294102D01*
X69198376Y-30129672D01*
X68982502Y-29997384D01*
X68748591Y-29900495D01*
X68748589Y-29900494D01*
X68580177Y-29860062D01*
X68502403Y-29841391D01*
X68250000Y-29821526D01*
X67997597Y-29841391D01*
X67751410Y-29900494D01*
X67517499Y-29997383D01*
X67301625Y-30129671D01*
X67109102Y-30294102D01*
X66944671Y-30486625D01*
X66812383Y-30702499D01*
X66715494Y-30936410D01*
X66656391Y-31182597D01*
X66636526Y-31435000D01*
X25310000Y-31435000D01*
X25310000Y-29530000D01*
X61557028Y-29530000D01*
X61576886Y-29782323D01*
X61635971Y-30028434D01*
X61732830Y-30262272D01*
X61864177Y-30476611D01*
X61864178Y-30476611D01*
X62567301Y-29773488D01*
X62593978Y-29837890D01*
X62665112Y-29944351D01*
X62755649Y-30034888D01*
X62862110Y-30106022D01*
X62926510Y-30132698D01*
X62223387Y-30835820D01*
X62223387Y-30835822D01*
X62437727Y-30967169D01*
X62671565Y-31064028D01*
X62917676Y-31123113D01*
X63170000Y-31142971D01*
X63422323Y-31123113D01*
X63668434Y-31064028D01*
X63902277Y-30967167D01*
X64116611Y-30835822D01*
X64116611Y-30835820D01*
X63413489Y-30132698D01*
X63477890Y-30106022D01*
X63584351Y-30034888D01*
X63674888Y-29944351D01*
X63746022Y-29837890D01*
X63772698Y-29773489D01*
X64475820Y-30476611D01*
X64475822Y-30476611D01*
X64607167Y-30262277D01*
X64704028Y-30028434D01*
X64763113Y-29782323D01*
X64782971Y-29530000D01*
X64763113Y-29277676D01*
X64704028Y-29031565D01*
X64607169Y-28797727D01*
X64475822Y-28583387D01*
X64475820Y-28583387D01*
X63772697Y-29286509D01*
X63746022Y-29222110D01*
X63674888Y-29115649D01*
X63584351Y-29025112D01*
X63477890Y-28953978D01*
X63413488Y-28927301D01*
X64116611Y-28224178D01*
X64116611Y-28224177D01*
X63902272Y-28092830D01*
X63668434Y-27995971D01*
X63422323Y-27936886D01*
X63170000Y-27917028D01*
X62917676Y-27936886D01*
X62671565Y-27995971D01*
X62437727Y-28092830D01*
X62223387Y-28224176D01*
X62223387Y-28224178D01*
X62926510Y-28927301D01*
X62862110Y-28953978D01*
X62755649Y-29025112D01*
X62665112Y-29115649D01*
X62593978Y-29222110D01*
X62567301Y-29286510D01*
X61864178Y-28583387D01*
X61864176Y-28583387D01*
X61732830Y-28797727D01*
X61635971Y-29031565D01*
X61576886Y-29277676D01*
X61557028Y-29530000D01*
X25310000Y-29530000D01*
X25310000Y-27625000D01*
X66637028Y-27625000D01*
X66656886Y-27877323D01*
X66715971Y-28123434D01*
X66812830Y-28357272D01*
X66944177Y-28571611D01*
X66944178Y-28571611D01*
X67647301Y-27868488D01*
X67673978Y-27932890D01*
X67745112Y-28039351D01*
X67835649Y-28129888D01*
X67942110Y-28201022D01*
X68006510Y-28227698D01*
X67303387Y-28930820D01*
X67303387Y-28930822D01*
X67517727Y-29062169D01*
X67751565Y-29159028D01*
X67997676Y-29218113D01*
X68250000Y-29237971D01*
X68502323Y-29218113D01*
X68748434Y-29159028D01*
X68982277Y-29062167D01*
X69196611Y-28930822D01*
X69196611Y-28930820D01*
X68493489Y-28227698D01*
X68557890Y-28201022D01*
X68664351Y-28129888D01*
X68754888Y-28039351D01*
X68826022Y-27932890D01*
X68852698Y-27868489D01*
X69555820Y-28571611D01*
X69555822Y-28571611D01*
X69687167Y-28357277D01*
X69784028Y-28123434D01*
X69843113Y-27877323D01*
X69862971Y-27625000D01*
X69843113Y-27372676D01*
X69784028Y-27126565D01*
X69687169Y-26892727D01*
X69555822Y-26678387D01*
X69555820Y-26678387D01*
X68852697Y-27381509D01*
X68826022Y-27317110D01*
X68754888Y-27210649D01*
X68664351Y-27120112D01*
X68557890Y-27048978D01*
X68493488Y-27022301D01*
X69196611Y-26319178D01*
X69196611Y-26319177D01*
X68982272Y-26187830D01*
X68748434Y-26090971D01*
X68502323Y-26031886D01*
X68250000Y-26012028D01*
X67997676Y-26031886D01*
X67751565Y-26090971D01*
X67517727Y-26187830D01*
X67303387Y-26319176D01*
X67303387Y-26319178D01*
X68006510Y-27022301D01*
X67942110Y-27048978D01*
X67835649Y-27120112D01*
X67745112Y-27210649D01*
X67673978Y-27317110D01*
X67647301Y-27381510D01*
X66944178Y-26678387D01*
X66944176Y-26678387D01*
X66812830Y-26892727D01*
X66715971Y-27126565D01*
X66656886Y-27372676D01*
X66637028Y-27625000D01*
X25310000Y-27625000D01*
X25310000Y-25199995D01*
X44017308Y-25199995D01*
X44017308Y-25200004D01*
X44036052Y-25474048D01*
X44036053Y-25474054D01*
X44091942Y-25743011D01*
X44091944Y-25743019D01*
X44183938Y-26001865D01*
X44310314Y-26245756D01*
X44310316Y-26245759D01*
X44440541Y-26430248D01*
X45165160Y-25705629D01*
X45253249Y-25837463D01*
X45392537Y-25976751D01*
X45524369Y-26064838D01*
X44800715Y-26788492D01*
X44800715Y-26788494D01*
X44869313Y-26844304D01*
X44869318Y-26844307D01*
X45104030Y-26987038D01*
X45355989Y-27096480D01*
X45620509Y-27170595D01*
X45892635Y-27207999D01*
X45892649Y-27208000D01*
X46167351Y-27208000D01*
X46167364Y-27207999D01*
X46439490Y-27170595D01*
X46704010Y-27096480D01*
X46955969Y-26987038D01*
X47190679Y-26844309D01*
X47259283Y-26788493D01*
X47259283Y-26788492D01*
X46535630Y-26064839D01*
X46667463Y-25976751D01*
X46806751Y-25837463D01*
X46894839Y-25705629D01*
X47619457Y-26430247D01*
X47749682Y-26245762D01*
X47749685Y-26245756D01*
X47876061Y-26001865D01*
X47968055Y-25743019D01*
X47968057Y-25743011D01*
X48023946Y-25474054D01*
X48023947Y-25474048D01*
X48042692Y-25200004D01*
X48042692Y-25199995D01*
X48023947Y-24925951D01*
X48023946Y-24925945D01*
X47968057Y-24656988D01*
X47968055Y-24656980D01*
X47876061Y-24398134D01*
X47749685Y-24154243D01*
X47749681Y-24154237D01*
X47619457Y-23969750D01*
X46894838Y-24694368D01*
X46806751Y-24562537D01*
X46667463Y-24423249D01*
X46535628Y-24335159D01*
X47259283Y-23611504D01*
X47245143Y-23600000D01*
X49391499Y-23600000D01*
X49411475Y-23866565D01*
X49470957Y-24127172D01*
X49568612Y-24375995D01*
X49568614Y-24375999D01*
X49702268Y-24607494D01*
X49702270Y-24607497D01*
X49702271Y-24607498D01*
X49741738Y-24656988D01*
X49868939Y-24816494D01*
X49967896Y-24908311D01*
X50064888Y-24998306D01*
X50064894Y-24998310D01*
X50285740Y-25148881D01*
X50285744Y-25148883D01*
X50285750Y-25148887D01*
X50526587Y-25264869D01*
X50695402Y-25316941D01*
X50782010Y-25343657D01*
X50782012Y-25343657D01*
X50782021Y-25343660D01*
X51046345Y-25383500D01*
X51046349Y-25383500D01*
X51313651Y-25383500D01*
X51313655Y-25383500D01*
X51577979Y-25343660D01*
X51577989Y-25343657D01*
X51833404Y-25264872D01*
X51833406Y-25264871D01*
X51833413Y-25264869D01*
X52074251Y-25148887D01*
X52295112Y-24998306D01*
X52491064Y-24816490D01*
X52657729Y-24607498D01*
X52791384Y-24376002D01*
X52815879Y-24313591D01*
X52866152Y-24185495D01*
X52889043Y-24127170D01*
X52948525Y-23866562D01*
X52968501Y-23600000D01*
X52948525Y-23333438D01*
X52889043Y-23072830D01*
X52808114Y-22866625D01*
X52791387Y-22824004D01*
X52791385Y-22824000D01*
X52657731Y-22592505D01*
X52612916Y-22536309D01*
X52491064Y-22383510D01*
X52491063Y-22383509D01*
X52491060Y-22383505D01*
X52295117Y-22201699D01*
X52295111Y-22201693D01*
X52146663Y-22100483D01*
X52074251Y-22051113D01*
X51944620Y-21988686D01*
X51833416Y-21935132D01*
X51833404Y-21935127D01*
X51577989Y-21856342D01*
X51577981Y-21856340D01*
X51577979Y-21856340D01*
X51313655Y-21816500D01*
X51046345Y-21816500D01*
X50782021Y-21856340D01*
X50782019Y-21856340D01*
X50782010Y-21856342D01*
X50526583Y-21935132D01*
X50285748Y-22051114D01*
X50285740Y-22051118D01*
X50064894Y-22201689D01*
X50064882Y-22201699D01*
X49868939Y-22383505D01*
X49702268Y-22592505D01*
X49568614Y-22824000D01*
X49568612Y-22824004D01*
X49470958Y-23072826D01*
X49470957Y-23072828D01*
X49411475Y-23333434D01*
X49391499Y-23600000D01*
X47245143Y-23600000D01*
X47190680Y-23555691D01*
X46955969Y-23412961D01*
X46704010Y-23303519D01*
X46439490Y-23229404D01*
X46167364Y-23192000D01*
X45892635Y-23192000D01*
X45620509Y-23229404D01*
X45355989Y-23303519D01*
X45104030Y-23412961D01*
X44869325Y-23555687D01*
X44800715Y-23611505D01*
X44800714Y-23611505D01*
X45524369Y-24335160D01*
X45392537Y-24423249D01*
X45253249Y-24562537D01*
X45165160Y-24694369D01*
X44440541Y-23969750D01*
X44310317Y-24154236D01*
X44183938Y-24398134D01*
X44091944Y-24656980D01*
X44091942Y-24656988D01*
X44036053Y-24925945D01*
X44036052Y-24925951D01*
X44017308Y-25199995D01*
X25310000Y-25199995D01*
X25310000Y-22625404D01*
X25330002Y-22557283D01*
X25383658Y-22510790D01*
X25453932Y-22500686D01*
X25518512Y-22530180D01*
X25525095Y-22536309D01*
X25622746Y-22633960D01*
X25802043Y-22764227D01*
X25999514Y-22864843D01*
X25999516Y-22864844D01*
X26210289Y-22933329D01*
X26286000Y-22945320D01*
X26286000Y-21990702D01*
X26347007Y-22025925D01*
X26474174Y-22060000D01*
X26605826Y-22060000D01*
X26732993Y-22025925D01*
X26794000Y-21990702D01*
X26794000Y-22945320D01*
X26869709Y-22933329D01*
X26869711Y-22933329D01*
X27080483Y-22864844D01*
X27080485Y-22864843D01*
X27277956Y-22764227D01*
X27457253Y-22633960D01*
X27613960Y-22477253D01*
X27744227Y-22297956D01*
X27844843Y-22100485D01*
X27844844Y-22100483D01*
X27913329Y-21889710D01*
X27948000Y-21670808D01*
X27948000Y-21314000D01*
X27040000Y-21314000D01*
X27040000Y-20806000D01*
X27948001Y-20806000D01*
X27956961Y-20797039D01*
X27968002Y-20759439D01*
X28021658Y-20712946D01*
X28091932Y-20702842D01*
X28148060Y-20725623D01*
X28201785Y-20764657D01*
X28399324Y-20865308D01*
X28610176Y-20933818D01*
X28829149Y-20968500D01*
X28829152Y-20968500D01*
X29050848Y-20968500D01*
X29050851Y-20968500D01*
X29269824Y-20933818D01*
X29480676Y-20865308D01*
X29678215Y-20764657D01*
X29857576Y-20634343D01*
X30014343Y-20477576D01*
X30144657Y-20298215D01*
X30245308Y-20100676D01*
X30313818Y-19889824D01*
X30348500Y-19670851D01*
X30348500Y-18449149D01*
X33031500Y-18449149D01*
X33031500Y-19670851D01*
X33066182Y-19889824D01*
X33066183Y-19889829D01*
X33132547Y-20094075D01*
X33134692Y-20100676D01*
X33235343Y-20298215D01*
X33235345Y-20298218D01*
X33365658Y-20477578D01*
X33522421Y-20634341D01*
X33522424Y-20634343D01*
X33701785Y-20764657D01*
X33899324Y-20865308D01*
X34110176Y-20933818D01*
X34329149Y-20968500D01*
X34329152Y-20968500D01*
X34550848Y-20968500D01*
X34550851Y-20968500D01*
X34769824Y-20933818D01*
X34980676Y-20865308D01*
X35178215Y-20764657D01*
X35357576Y-20634343D01*
X35514343Y-20477576D01*
X35644657Y-20298215D01*
X35745308Y-20100676D01*
X35813818Y-19889824D01*
X35848500Y-19670851D01*
X35848500Y-18449149D01*
X35813818Y-18230176D01*
X35745308Y-18019324D01*
X35644657Y-17821785D01*
X35514343Y-17642424D01*
X35514341Y-17642421D01*
X35357578Y-17485658D01*
X35178218Y-17355345D01*
X35178217Y-17355344D01*
X35178215Y-17355343D01*
X34980676Y-17254692D01*
X34980673Y-17254691D01*
X34980671Y-17254690D01*
X34769829Y-17186183D01*
X34769825Y-17186182D01*
X34769824Y-17186182D01*
X34550851Y-17151500D01*
X34329149Y-17151500D01*
X34110176Y-17186182D01*
X34110170Y-17186183D01*
X33899328Y-17254690D01*
X33899322Y-17254693D01*
X33701781Y-17355345D01*
X33522421Y-17485658D01*
X33365658Y-17642421D01*
X33235345Y-17821781D01*
X33134693Y-18019322D01*
X33134690Y-18019328D01*
X33066183Y-18230170D01*
X33066182Y-18230175D01*
X33066182Y-18230176D01*
X33031500Y-18449149D01*
X30348500Y-18449149D01*
X30313818Y-18230176D01*
X30245308Y-18019324D01*
X30144657Y-17821785D01*
X30014343Y-17642424D01*
X30014341Y-17642421D01*
X29857578Y-17485658D01*
X29678218Y-17355345D01*
X29678217Y-17355344D01*
X29678215Y-17355343D01*
X29480676Y-17254692D01*
X29480673Y-17254691D01*
X29480671Y-17254690D01*
X29269829Y-17186183D01*
X29269825Y-17186182D01*
X29269824Y-17186182D01*
X29050851Y-17151500D01*
X28829149Y-17151500D01*
X28610176Y-17186182D01*
X28610170Y-17186183D01*
X28399328Y-17254690D01*
X28399322Y-17254693D01*
X28201781Y-17355345D01*
X28022421Y-17485658D01*
X27865658Y-17642421D01*
X27735345Y-17821781D01*
X27634693Y-18019322D01*
X27634690Y-18019328D01*
X27566183Y-18230170D01*
X27566182Y-18230175D01*
X27566182Y-18230176D01*
X27554481Y-18304057D01*
X27531500Y-18449152D01*
X27531500Y-19292693D01*
X27511498Y-19360814D01*
X27457842Y-19407307D01*
X27387568Y-19417411D01*
X27331440Y-19394630D01*
X27277955Y-19355771D01*
X27080485Y-19255156D01*
X27080483Y-19255155D01*
X26869709Y-19186669D01*
X26794000Y-19174678D01*
X26794000Y-20129297D01*
X26732993Y-20094075D01*
X26605826Y-20060000D01*
X26474174Y-20060000D01*
X26347007Y-20094075D01*
X26286000Y-20129297D01*
X26286000Y-19174678D01*
X26210290Y-19186669D01*
X25999516Y-19255155D01*
X25999514Y-19255156D01*
X25802043Y-19355772D01*
X25622746Y-19486039D01*
X25622743Y-19486042D01*
X25525095Y-19583691D01*
X25462783Y-19617717D01*
X25391968Y-19612652D01*
X25335132Y-19570105D01*
X25310321Y-19503585D01*
X25310000Y-19494596D01*
X25310000Y-13225973D01*
X25330002Y-13157852D01*
X25383658Y-13111359D01*
X25435972Y-13099973D01*
X43577899Y-13096104D01*
X43646022Y-13116092D01*
X43692526Y-13169737D01*
X43702645Y-13240009D01*
X43673166Y-13304596D01*
X43667020Y-13311199D01*
X42775922Y-14202296D01*
X42713612Y-14236320D01*
X42686829Y-14239200D01*
X42548362Y-14239200D01*
X42389422Y-14268910D01*
X42337729Y-14278574D01*
X42137934Y-14355976D01*
X42137923Y-14355981D01*
X41955747Y-14468780D01*
X41797396Y-14613136D01*
X41668268Y-14784131D01*
X41668264Y-14784136D01*
X41572759Y-14975937D01*
X41572756Y-14975943D01*
X41514117Y-15182040D01*
X41514117Y-15182044D01*
X41509160Y-15235532D01*
X41482957Y-15301517D01*
X41425240Y-15342860D01*
X41354334Y-15346436D01*
X41317864Y-15331338D01*
X41248467Y-15288812D01*
X41248465Y-15288811D01*
X41028617Y-15197747D01*
X41028615Y-15197746D01*
X41028614Y-15197746D01*
X40904091Y-15167850D01*
X40797229Y-15142195D01*
X40797230Y-15142195D01*
X40560000Y-15123525D01*
X40322770Y-15142195D01*
X40091385Y-15197746D01*
X39871536Y-15288810D01*
X39668636Y-15413147D01*
X39668634Y-15413148D01*
X39487689Y-15567689D01*
X39333148Y-15748634D01*
X39333147Y-15748636D01*
X39208810Y-15951536D01*
X39117746Y-16171385D01*
X39067147Y-16382144D01*
X39062195Y-16402771D01*
X39043525Y-16640000D01*
X39062195Y-16877229D01*
X39117747Y-17108617D01*
X39149876Y-17186183D01*
X39208810Y-17328463D01*
X39333147Y-17531363D01*
X39333148Y-17531365D01*
X39487689Y-17712310D01*
X39668634Y-17866851D01*
X39668638Y-17866854D01*
X39871535Y-17991189D01*
X40091383Y-18082253D01*
X40322771Y-18137805D01*
X40560000Y-18156475D01*
X40797229Y-18137805D01*
X41028617Y-18082253D01*
X41248465Y-17991189D01*
X41317865Y-17948660D01*
X41386396Y-17930123D01*
X41454073Y-17951579D01*
X41499406Y-18006218D01*
X41509160Y-18044467D01*
X41514117Y-18097955D01*
X41514117Y-18097959D01*
X41572756Y-18304056D01*
X41572759Y-18304062D01*
X41668264Y-18495863D01*
X41668268Y-18495868D01*
X41797396Y-18666863D01*
X41955747Y-18811219D01*
X42137923Y-18924018D01*
X42137925Y-18924018D01*
X42137930Y-18924022D01*
X42337730Y-19001425D01*
X42337735Y-19001427D01*
X42548362Y-19040800D01*
X42686829Y-19040800D01*
X42754950Y-19060802D01*
X42775924Y-19077705D01*
X43991734Y-20293515D01*
X43991735Y-20293516D01*
X44097384Y-20399165D01*
X44221616Y-20482174D01*
X44359654Y-20539351D01*
X44506194Y-20568500D01*
X44506195Y-20568500D01*
X44655605Y-20568500D01*
X53933629Y-20568500D01*
X54001750Y-20588502D01*
X54022724Y-20605405D01*
X56394224Y-22976905D01*
X56428250Y-23039217D01*
X56423185Y-23110032D01*
X56380638Y-23166868D01*
X56314118Y-23191679D01*
X56305129Y-23192000D01*
X56192635Y-23192000D01*
X55920509Y-23229404D01*
X55655989Y-23303519D01*
X55404030Y-23412961D01*
X55169325Y-23555687D01*
X55100715Y-23611505D01*
X55100714Y-23611505D01*
X55824370Y-24335160D01*
X55692537Y-24423249D01*
X55553249Y-24562537D01*
X55465160Y-24694369D01*
X54740541Y-23969750D01*
X54610317Y-24154236D01*
X54483938Y-24398134D01*
X54391944Y-24656980D01*
X54391942Y-24656988D01*
X54336053Y-24925945D01*
X54336052Y-24925951D01*
X54317308Y-25199995D01*
X54317308Y-25200004D01*
X54336052Y-25474048D01*
X54336053Y-25474054D01*
X54391942Y-25743011D01*
X54391944Y-25743019D01*
X54483938Y-26001865D01*
X54610314Y-26245756D01*
X54610316Y-26245759D01*
X54740541Y-26430248D01*
X55465160Y-25705629D01*
X55553249Y-25837463D01*
X55692537Y-25976751D01*
X55824369Y-26064838D01*
X55100715Y-26788492D01*
X55100715Y-26788494D01*
X55169313Y-26844304D01*
X55169318Y-26844307D01*
X55404030Y-26987038D01*
X55655989Y-27096480D01*
X55920509Y-27170595D01*
X56192635Y-27207999D01*
X56192649Y-27208000D01*
X56467351Y-27208000D01*
X56467364Y-27207999D01*
X56739490Y-27170595D01*
X57004010Y-27096480D01*
X57255969Y-26987038D01*
X57490679Y-26844309D01*
X57559283Y-26788493D01*
X57559283Y-26788492D01*
X56835630Y-26064839D01*
X56967463Y-25976751D01*
X57106751Y-25837463D01*
X57194839Y-25705629D01*
X57919457Y-26430247D01*
X58049682Y-26245762D01*
X58049685Y-26245756D01*
X58176061Y-26001865D01*
X58268055Y-25743019D01*
X58268057Y-25743011D01*
X58323946Y-25474054D01*
X58323947Y-25474048D01*
X58341368Y-25219347D01*
X58365971Y-25152750D01*
X58422674Y-25110027D01*
X58493474Y-25104742D01*
X58555892Y-25138573D01*
X59620834Y-26203515D01*
X59620835Y-26203516D01*
X59726484Y-26309165D01*
X59850716Y-26392174D01*
X59931576Y-26425667D01*
X59988753Y-26449351D01*
X60062022Y-26463924D01*
X60062023Y-26463925D01*
X60076598Y-26466824D01*
X60135294Y-26478500D01*
X60135295Y-26478500D01*
X60284705Y-26478500D01*
X61677752Y-26478500D01*
X61745873Y-26498502D01*
X61785185Y-26538665D01*
X61864672Y-26668376D01*
X62029102Y-26860898D01*
X62221624Y-27025328D01*
X62437498Y-27157616D01*
X62671409Y-27254505D01*
X62917597Y-27313609D01*
X63170000Y-27333474D01*
X63422403Y-27313609D01*
X63668591Y-27254505D01*
X63902502Y-27157616D01*
X64118376Y-27025328D01*
X64310898Y-26860898D01*
X64475328Y-26668376D01*
X64607616Y-26452502D01*
X64704505Y-26218591D01*
X64763609Y-25972403D01*
X64783474Y-25720000D01*
X64763609Y-25467597D01*
X64704505Y-25221409D01*
X64607616Y-24987498D01*
X64475328Y-24771624D01*
X64310898Y-24579102D01*
X64118376Y-24414672D01*
X63902502Y-24282384D01*
X63796386Y-24238429D01*
X63668589Y-24185494D01*
X63500177Y-24145062D01*
X63422403Y-24126391D01*
X63170000Y-24106526D01*
X62917597Y-24126391D01*
X62671410Y-24185494D01*
X62437499Y-24282383D01*
X62221625Y-24414671D01*
X62029102Y-24579102D01*
X61864671Y-24771625D01*
X61785185Y-24901335D01*
X61732537Y-24948966D01*
X61677752Y-24961500D01*
X60576371Y-24961500D01*
X60508250Y-24941498D01*
X60487276Y-24924595D01*
X59377681Y-23815000D01*
X66636526Y-23815000D01*
X66656391Y-24067402D01*
X66715494Y-24313589D01*
X66757364Y-24414671D01*
X66812384Y-24547502D01*
X66944672Y-24763376D01*
X67109102Y-24955898D01*
X67301624Y-25120328D01*
X67517498Y-25252616D01*
X67751409Y-25349505D01*
X67997597Y-25408609D01*
X68250000Y-25428474D01*
X68502403Y-25408609D01*
X68748591Y-25349505D01*
X68982502Y-25252616D01*
X69198376Y-25120328D01*
X69390898Y-24955898D01*
X69555328Y-24763376D01*
X69687616Y-24547502D01*
X69784505Y-24313591D01*
X69843609Y-24067403D01*
X69863474Y-23815000D01*
X69843609Y-23562597D01*
X69784505Y-23316409D01*
X69687616Y-23082498D01*
X69555328Y-22866624D01*
X69390898Y-22674102D01*
X69198376Y-22509672D01*
X68982502Y-22377384D01*
X68748591Y-22280495D01*
X68748589Y-22280494D01*
X68580177Y-22240062D01*
X68502403Y-22221391D01*
X68250000Y-22201526D01*
X67997597Y-22221391D01*
X67751410Y-22280494D01*
X67517499Y-22377383D01*
X67301625Y-22509671D01*
X67109102Y-22674102D01*
X66944671Y-22866625D01*
X66812383Y-23082499D01*
X66715494Y-23316410D01*
X66656391Y-23562597D01*
X66636526Y-23815000D01*
X59377681Y-23815000D01*
X58446276Y-22883595D01*
X58412250Y-22821283D01*
X58417315Y-22750468D01*
X58459862Y-22693632D01*
X58526382Y-22668821D01*
X58535371Y-22668500D01*
X58564705Y-22668500D01*
X61677752Y-22668500D01*
X61745873Y-22688502D01*
X61785185Y-22728665D01*
X61864672Y-22858376D01*
X62029102Y-23050898D01*
X62221624Y-23215328D01*
X62437498Y-23347616D01*
X62671409Y-23444505D01*
X62917597Y-23503609D01*
X63170000Y-23523474D01*
X63422403Y-23503609D01*
X63668591Y-23444505D01*
X63902502Y-23347616D01*
X64118376Y-23215328D01*
X64310898Y-23050898D01*
X64475328Y-22858376D01*
X64607616Y-22642502D01*
X64704505Y-22408591D01*
X64763609Y-22162403D01*
X64783474Y-21910000D01*
X64763609Y-21657597D01*
X64704505Y-21411409D01*
X64607616Y-21177498D01*
X64475328Y-20961624D01*
X64310898Y-20769102D01*
X64118376Y-20604672D01*
X63902502Y-20472384D01*
X63725741Y-20399167D01*
X63668589Y-20375494D01*
X63500177Y-20335062D01*
X63422403Y-20316391D01*
X63170000Y-20296526D01*
X62917597Y-20316391D01*
X62671410Y-20375494D01*
X62437499Y-20472383D01*
X62221625Y-20604671D01*
X62029102Y-20769102D01*
X61864671Y-20961625D01*
X61785185Y-21091335D01*
X61732537Y-21138966D01*
X61677752Y-21151500D01*
X58856371Y-21151500D01*
X58788250Y-21131498D01*
X58767276Y-21114595D01*
X57697833Y-20045152D01*
X57663807Y-19982840D01*
X57668872Y-19912025D01*
X57711419Y-19855189D01*
X57777939Y-19830378D01*
X57800542Y-19830795D01*
X57963329Y-19848500D01*
X57963337Y-19848500D01*
X58316663Y-19848500D01*
X58316671Y-19848500D01*
X58667941Y-19810297D01*
X59013021Y-19734339D01*
X59347867Y-19621517D01*
X59668551Y-19473152D01*
X59971314Y-19290986D01*
X60252607Y-19077153D01*
X60279689Y-19051500D01*
X60499811Y-18842988D01*
X60509131Y-18834160D01*
X60737879Y-18564857D01*
X60936170Y-18272400D01*
X61101678Y-17960218D01*
X61232463Y-17631972D01*
X61326992Y-17291510D01*
X61384156Y-16942823D01*
X61403286Y-16590000D01*
X61384156Y-16237177D01*
X61326992Y-15888490D01*
X61232463Y-15548028D01*
X61101678Y-15219782D01*
X60936170Y-14907600D01*
X60737879Y-14615143D01*
X60509131Y-14345840D01*
X60509126Y-14345835D01*
X60252621Y-14102859D01*
X60252606Y-14102846D01*
X59971318Y-13889017D01*
X59971312Y-13889013D01*
X59668551Y-13706848D01*
X59668545Y-13706845D01*
X59347884Y-13558490D01*
X59347865Y-13558482D01*
X59013030Y-13445664D01*
X59013029Y-13445663D01*
X59013021Y-13445661D01*
X59013016Y-13445659D01*
X59013013Y-13445659D01*
X58667957Y-13369706D01*
X58667944Y-13369703D01*
X58667941Y-13369703D01*
X58667938Y-13369702D01*
X58667929Y-13369701D01*
X58433399Y-13344195D01*
X58367840Y-13316945D01*
X58327421Y-13258578D01*
X58324974Y-13187623D01*
X58361277Y-13126610D01*
X58424803Y-13094909D01*
X58446994Y-13092934D01*
X68173975Y-13090859D01*
X68242098Y-13110847D01*
G37*
%TD.AperFunction*%
%TD*%
M02*
