%TF.GenerationSoftware,KiCad,Pcbnew,7.0.8+dfsg-1*%
%TF.CreationDate,2023-12-22T11:35:13+02:00*%
%TF.ProjectId,dexx_video_adapter,64657878-5f76-4696-9465-6f5f61646170,rev?*%
%TF.SameCoordinates,Original*%
%TF.FileFunction,Copper,L1,Top*%
%TF.FilePolarity,Positive*%
%FSLAX46Y46*%
G04 Gerber Fmt 4.6, Leading zero omitted, Abs format (unit mm)*
G04 Created by KiCad (PCBNEW 7.0.8+dfsg-1) date 2023-12-22 11:35:13*
%MOMM*%
%LPD*%
G01*
G04 APERTURE LIST*
%TA.AperFunction,ComponentPad*%
%ADD10C,2.550000*%
%TD*%
%TA.AperFunction,ComponentPad*%
%ADD11C,3.000000*%
%TD*%
%TA.AperFunction,ComponentPad*%
%ADD12C,5.500000*%
%TD*%
%TA.AperFunction,SMDPad,CuDef*%
%ADD13R,0.635000X1.143000*%
%TD*%
%TA.AperFunction,ComponentPad*%
%ADD14C,1.600000*%
%TD*%
%TA.AperFunction,ComponentPad*%
%ADD15C,4.500000*%
%TD*%
%TA.AperFunction,ComponentPad*%
%ADD16C,1.320800*%
%TD*%
%TA.AperFunction,ComponentPad*%
%ADD17C,2.006600*%
%TD*%
%TA.AperFunction,SMDPad,CuDef*%
%ADD18R,1.143000X0.635000*%
%TD*%
%TA.AperFunction,ComponentPad*%
%ADD19C,2.200000*%
%TD*%
%TA.AperFunction,ComponentPad*%
%ADD20O,1.800000X2.800000*%
%TD*%
%TA.AperFunction,ViaPad*%
%ADD21C,0.800000*%
%TD*%
%TA.AperFunction,Conductor*%
%ADD22C,0.500000*%
%TD*%
%TA.AperFunction,Conductor*%
%ADD23C,0.350000*%
%TD*%
G04 APERTURE END LIST*
D10*
%TO.P,J3,1,In*%
%TO.N,/AV_G*%
X51180000Y-38600000D03*
D11*
%TO.P,J3,2,Ext*%
%TO.N,GND*%
X46030000Y-40200000D03*
X56330000Y-40200000D03*
%TD*%
D10*
%TO.P,J4,1,In*%
%TO.N,/AV_B*%
X51180000Y-23600000D03*
D11*
%TO.P,J4,2,Ext*%
%TO.N,GND*%
X46030000Y-25200000D03*
X56330000Y-25200000D03*
%TD*%
D12*
%TO.P,MH2,1*%
%TO.N,N/C*%
X58140000Y-16590000D03*
%TD*%
D13*
%TO.P,R2,1*%
%TO.N,/AV_RGB_STATUS*%
X52320000Y-47860000D03*
%TO.P,R2,2*%
%TO.N,/DDC_5V*%
X50796000Y-47860000D03*
%TD*%
D14*
%TO.P,J6,1*%
%TO.N,/AV_R*%
X35240000Y-51690000D03*
%TO.P,J6,2*%
%TO.N,/AV_G*%
X35240000Y-49400000D03*
%TO.P,J6,3*%
%TO.N,/AV_B*%
X35240000Y-47110000D03*
%TO.P,J6,4*%
%TO.N,/AV_S_SEL*%
X35240000Y-44820000D03*
%TO.P,J6,5*%
%TO.N,GND*%
X35240000Y-42530000D03*
%TO.P,J6,6*%
X32700000Y-52830000D03*
%TO.P,J6,7*%
X32700000Y-50540000D03*
%TO.P,J6,8*%
X32700000Y-48250000D03*
%TO.P,J6,9*%
%TO.N,/DDC_5V*%
X32700000Y-45960000D03*
D15*
%TO.P,J6,10*%
%TO.N,GND*%
X32700000Y-34870000D03*
D14*
X32700000Y-43670000D03*
D15*
X32700000Y-59870000D03*
D14*
%TO.P,J6,11*%
%TO.N,unconnected-(J6-Pad11)*%
X30160000Y-51690000D03*
%TO.P,J6,12*%
%TO.N,unconnected-(J6-Pad12)*%
X30160000Y-49400000D03*
%TO.P,J6,13*%
%TO.N,/AV_HS*%
X30160000Y-47110000D03*
%TO.P,J6,14*%
%TO.N,/AV_VS*%
X30160000Y-44820000D03*
%TO.P,J6,15*%
%TO.N,unconnected-(J6-Pad15)*%
X30160000Y-42530000D03*
%TD*%
D10*
%TO.P,J2,1,In*%
%TO.N,/AV_R*%
X51180000Y-53600000D03*
D11*
%TO.P,J2,2,Ext*%
%TO.N,GND*%
X46030000Y-55200000D03*
X56330000Y-55200000D03*
%TD*%
D16*
%TO.P,SW1,1,A*%
%TO.N,/AV_S_OUT*%
X49200000Y-65600000D03*
%TO.P,SW1,2,B*%
%TO.N,/AV_S_SEL*%
X51200001Y-65600000D03*
%TO.P,SW1,3,C*%
%TO.N,/AV_S*%
X53200002Y-65600000D03*
D17*
%TO.P,SW1,4*%
%TO.N,N/C*%
X47097901Y-65600000D03*
%TO.P,SW1,5*%
X55302101Y-65600000D03*
%TD*%
D18*
%TO.P,R1,1*%
%TO.N,/DDC_5V*%
X48630000Y-47216000D03*
%TO.P,R1,2*%
%TO.N,GND*%
X48630000Y-48740000D03*
%TD*%
D19*
%TO.P,J1,1,P1*%
%TO.N,/AV_AR*%
X63170000Y-21910000D03*
%TO.P,J1,2,P2*%
X68250000Y-23815000D03*
%TO.P,J1,3,P3*%
%TO.N,/AV_AL*%
X63170000Y-25720000D03*
%TO.P,J1,4,P4*%
%TO.N,GND*%
X68250000Y-27625000D03*
%TO.P,J1,5,P5*%
X63170000Y-29530000D03*
%TO.P,J1,6,P6*%
%TO.N,/AV_AL*%
X68250000Y-31435000D03*
%TO.P,J1,7,P7*%
%TO.N,/AV_B*%
X63170000Y-33340000D03*
%TO.P,J1,8,P8*%
%TO.N,unconnected-(J1-P8-Pad8)*%
X68250000Y-35245000D03*
%TO.P,J1,9,P9*%
%TO.N,GND*%
X63170000Y-37150000D03*
%TO.P,J1,10,P10*%
%TO.N,/AV_VS*%
X68250000Y-39055000D03*
%TO.P,J1,11,P11*%
%TO.N,/AV_G*%
X63170000Y-40960000D03*
%TO.P,J1,12,P12*%
%TO.N,/AV_HS*%
X68250000Y-42865000D03*
%TO.P,J1,13,P13*%
%TO.N,GND*%
X63170000Y-44770000D03*
%TO.P,J1,14,P14*%
X68250000Y-46675000D03*
%TO.P,J1,15,P15*%
%TO.N,/AV_R*%
X63170000Y-48580000D03*
%TO.P,J1,16,P16*%
%TO.N,/AV_RGB_STATUS*%
X68250000Y-50485000D03*
%TO.P,J1,17,P17*%
%TO.N,GND*%
X63170000Y-52390000D03*
%TO.P,J1,18,P18*%
X68250000Y-54295000D03*
%TO.P,J1,19,P19*%
%TO.N,/AV_S_OUT*%
X63170000Y-56200000D03*
%TO.P,J1,20,P20*%
%TO.N,/AV_S*%
X68250000Y-58105000D03*
%TO.P,J1,21,P21*%
%TO.N,GND*%
X63170000Y-60010000D03*
%TD*%
D20*
%TO.P,J5,R*%
%TO.N,/AV_AR*%
X34440000Y-19060000D03*
%TO.P,J5,S*%
%TO.N,GND*%
X26540000Y-21060000D03*
%TO.P,J5,T*%
%TO.N,/AV_AL*%
X28940000Y-19060000D03*
%TD*%
D12*
%TO.P,MH1,1*%
%TO.N,N/C*%
X40400000Y-64810000D03*
%TD*%
D21*
%TO.N,GND*%
X36055000Y-61240000D03*
X33515000Y-56160000D03*
X28435000Y-53620000D03*
X48755000Y-56160000D03*
X46215000Y-33300000D03*
X66535000Y-66320000D03*
X28435000Y-23140000D03*
X53835000Y-56160000D03*
X28435000Y-56160000D03*
X28435000Y-48540000D03*
X30975000Y-30760000D03*
X28435000Y-30760000D03*
X56375000Y-35840000D03*
X33515000Y-63780000D03*
X58915000Y-43460000D03*
X33515000Y-30760000D03*
X43675000Y-58700000D03*
X38595000Y-15520000D03*
X63995000Y-66320000D03*
X36055000Y-33300000D03*
X66535000Y-63780000D03*
X61455000Y-15520000D03*
X48755000Y-63780000D03*
X28435000Y-63780000D03*
X33515000Y-25680000D03*
X48755000Y-15520000D03*
X56375000Y-51080000D03*
X38595000Y-35840000D03*
X30975000Y-25680000D03*
X28435000Y-61240000D03*
X36055000Y-30760000D03*
X61455000Y-63780000D03*
X66535000Y-40920000D03*
X38595000Y-25680000D03*
X43675000Y-28220000D03*
X41135000Y-20600000D03*
X66535000Y-33300000D03*
X58915000Y-40920000D03*
X53835000Y-23140000D03*
X51295000Y-43460000D03*
X61455000Y-66320000D03*
X69075000Y-18060000D03*
X63995000Y-63780000D03*
X30975000Y-63780000D03*
X28435000Y-15520000D03*
X41135000Y-30760000D03*
X36055000Y-25680000D03*
X28435000Y-51080000D03*
X36055000Y-63780000D03*
X56375000Y-58700000D03*
X36055000Y-58700000D03*
X28435000Y-38380000D03*
X66535000Y-18060000D03*
X41135000Y-56160000D03*
X43675000Y-66320000D03*
X38595000Y-61240000D03*
X48755000Y-58700000D03*
X30975000Y-66320000D03*
X28435000Y-46000000D03*
X58915000Y-66320000D03*
X43675000Y-35840000D03*
X53835000Y-40920000D03*
X53835000Y-35840000D03*
X51295000Y-28220000D03*
X51295000Y-61240000D03*
X58915000Y-51080000D03*
X30975000Y-28220000D03*
X30975000Y-53620000D03*
X38595000Y-28220000D03*
X43675000Y-46000000D03*
X69075000Y-63780000D03*
X53835000Y-53620000D03*
X48755000Y-23140000D03*
X36055000Y-28220000D03*
X43675000Y-53620000D03*
X28435000Y-58700000D03*
X46215000Y-58700000D03*
X63995000Y-15520000D03*
X38595000Y-30760000D03*
X58915000Y-53620000D03*
X48755000Y-53620000D03*
X28435000Y-28220000D03*
X51295000Y-35840000D03*
X28435000Y-25680000D03*
X38595000Y-20600000D03*
X66535000Y-25680000D03*
X66535000Y-20600000D03*
X51295000Y-58700000D03*
X28435000Y-33300000D03*
X41135000Y-15520000D03*
X38595000Y-43460000D03*
X41135000Y-28220000D03*
X30975000Y-15520000D03*
X48755000Y-38380000D03*
X58915000Y-28220000D03*
X43675000Y-23140000D03*
X36055000Y-15520000D03*
X33515000Y-66320000D03*
X53835000Y-58700000D03*
X33515000Y-28220000D03*
X58915000Y-25680000D03*
X41135000Y-25680000D03*
X43675000Y-15520000D03*
X58915000Y-56160000D03*
X30975000Y-18060000D03*
X28435000Y-35840000D03*
X51295000Y-30760000D03*
X48755000Y-35840000D03*
X58915000Y-63780000D03*
X66535000Y-15520000D03*
X48755000Y-61240000D03*
X33515000Y-15520000D03*
X36055000Y-35840000D03*
X53835000Y-30760000D03*
X61455000Y-18060000D03*
X28435000Y-66320000D03*
X46215000Y-61240000D03*
X69075000Y-61240000D03*
X69075000Y-20600000D03*
X48755000Y-30760000D03*
X36055000Y-66320000D03*
X53835000Y-48540000D03*
X56375000Y-43460000D03*
X38595000Y-33300000D03*
X53835000Y-43460000D03*
X63995000Y-18060000D03*
X51295000Y-15520000D03*
X66535000Y-56160000D03*
X48755000Y-40920000D03*
X51295000Y-51080000D03*
X46215000Y-15520000D03*
X30975000Y-56160000D03*
X53835000Y-15520000D03*
X51295000Y-56160000D03*
%TO.N,/DDC_5V*%
X47060000Y-47860000D03*
%TD*%
D22*
%TO.N,/AV_AR*%
X63170000Y-21910000D02*
X66345000Y-21910000D01*
X66345000Y-21910000D02*
X68250000Y-23815000D01*
D23*
%TO.N,/AV_RGB_STATUS*%
X53390000Y-46790000D02*
X64555000Y-46790000D01*
X64555000Y-46790000D02*
X68250000Y-50485000D01*
X52320000Y-47860000D02*
X53390000Y-46790000D01*
D22*
%TO.N,/AV_R*%
X63170000Y-48580000D02*
X56200000Y-48580000D01*
X49240000Y-51690000D02*
X35240000Y-51690000D01*
X51165000Y-53615000D02*
X49240000Y-51690000D01*
X56200000Y-48580000D02*
X51165000Y-53615000D01*
D23*
%TO.N,/AV_S*%
X68250000Y-58105000D02*
X63685000Y-62670000D01*
X55540000Y-62670000D02*
X53200002Y-65009998D01*
X63685000Y-62670000D02*
X55540000Y-62670000D01*
X53200002Y-65009998D02*
X53200002Y-65600000D01*
D22*
%TO.N,/AV_G*%
X59460000Y-37250000D02*
X52530000Y-37250000D01*
X52530000Y-37250000D02*
X51180000Y-38600000D01*
X63170000Y-40960000D02*
X59460000Y-37250000D01*
X51180000Y-40860000D02*
X42640000Y-49400000D01*
X42640000Y-49400000D02*
X35240000Y-49400000D01*
X51180000Y-38600000D02*
X51180000Y-40860000D01*
D23*
%TO.N,/AV_S_OUT*%
X53440000Y-61360000D02*
X49200000Y-65600000D01*
X58010000Y-61360000D02*
X53440000Y-61360000D01*
X63170000Y-56200000D02*
X58010000Y-61360000D01*
D22*
%TO.N,/AV_B*%
X60920000Y-33340000D02*
X51180000Y-23600000D01*
X41490000Y-33290000D02*
X41490000Y-45600000D01*
X41490000Y-45600000D02*
X39980000Y-47110000D01*
X39980000Y-47110000D02*
X35240000Y-47110000D01*
X63170000Y-33340000D02*
X60920000Y-33340000D01*
X51180000Y-23600000D02*
X41490000Y-33290000D01*
%TO.N,/AV_AL*%
X43930000Y-20440000D02*
X42340000Y-22030000D01*
X65680000Y-28865000D02*
X65680000Y-28230000D01*
X28940000Y-20200000D02*
X28940000Y-19060000D01*
X63170000Y-25720000D02*
X57890000Y-20440000D01*
X68250000Y-31435000D02*
X65680000Y-28865000D01*
X42340000Y-22030000D02*
X30770000Y-22030000D01*
X57890000Y-20440000D02*
X43930000Y-20440000D01*
X65680000Y-28230000D02*
X63170000Y-25720000D01*
X30770000Y-22030000D02*
X28940000Y-20200000D01*
D23*
%TO.N,/AV_S_SEL*%
X33990000Y-52540000D02*
X45000000Y-63550000D01*
X46210000Y-67440000D02*
X49360001Y-67440000D01*
X33990000Y-46070000D02*
X33990000Y-52540000D01*
X45000000Y-63550000D02*
X45000000Y-66230000D01*
X45000000Y-66230000D02*
X46210000Y-67440000D01*
X35240000Y-44820000D02*
X33990000Y-46070000D01*
X49360001Y-67440000D02*
X51200001Y-65600000D01*
%TO.N,/DDC_5V*%
X50152000Y-47216000D02*
X50796000Y-47860000D01*
X48630000Y-47216000D02*
X50152000Y-47216000D01*
X47730000Y-47190000D02*
X48604000Y-47190000D01*
X48604000Y-47190000D02*
X48630000Y-47216000D01*
X47060000Y-47860000D02*
X47730000Y-47190000D01*
%TD*%
%TA.AperFunction,Conductor*%
%TO.N,GND*%
G36*
X68241598Y-13110847D02*
G01*
X68288102Y-13164492D01*
X68299500Y-13216859D01*
X68299500Y-15975072D01*
X68299415Y-15975500D01*
X68299458Y-15999998D01*
X68299459Y-16000000D01*
X68299500Y-16000099D01*
X68299617Y-16000383D01*
X68300000Y-16000541D01*
X68300002Y-16000539D01*
X68325014Y-16000524D01*
X68325014Y-16000528D01*
X68325158Y-16000500D01*
X72083500Y-16000500D01*
X72151621Y-16020502D01*
X72198114Y-16074158D01*
X72209500Y-16126500D01*
X72209500Y-65273500D01*
X72189498Y-65341621D01*
X72135842Y-65388114D01*
X72083500Y-65399500D01*
X68325158Y-65399500D01*
X68324952Y-65399459D01*
X68300001Y-65399459D01*
X68300000Y-65399459D01*
X68299901Y-65399500D01*
X68299617Y-65399617D01*
X68299459Y-65400000D01*
X68299476Y-65425014D01*
X68299471Y-65425014D01*
X68299500Y-65425157D01*
X68299500Y-68193500D01*
X68279498Y-68261621D01*
X68225842Y-68308114D01*
X68173500Y-68319500D01*
X49658195Y-68319500D01*
X49590074Y-68299498D01*
X49543581Y-68245842D01*
X49533477Y-68175568D01*
X49562971Y-68110988D01*
X49606480Y-68078602D01*
X49619950Y-68072539D01*
X49623449Y-68071089D01*
X49679972Y-68049654D01*
X49687730Y-68044298D01*
X49707593Y-68033095D01*
X49716198Y-68029223D01*
X49763779Y-67991944D01*
X49766818Y-67989707D01*
X49816574Y-67955365D01*
X49856673Y-67910101D01*
X49859227Y-67907387D01*
X50965553Y-66801061D01*
X51027863Y-66767037D01*
X51077799Y-66766304D01*
X51091686Y-66768900D01*
X51091690Y-66768900D01*
X51308314Y-66768900D01*
X51308316Y-66768900D01*
X51521256Y-66729095D01*
X51723257Y-66650839D01*
X51907439Y-66536799D01*
X52067529Y-66390857D01*
X52099450Y-66348587D01*
X52156463Y-66306278D01*
X52227299Y-66301510D01*
X52289469Y-66335795D01*
X52300551Y-66348585D01*
X52332472Y-66390856D01*
X52492561Y-66536797D01*
X52492563Y-66536798D01*
X52492564Y-66536799D01*
X52676746Y-66650839D01*
X52878747Y-66729095D01*
X53091687Y-66768900D01*
X53091689Y-66768900D01*
X53308315Y-66768900D01*
X53308317Y-66768900D01*
X53521257Y-66729095D01*
X53723258Y-66650839D01*
X53907440Y-66536799D01*
X53927431Y-66518574D01*
X53991247Y-66487464D01*
X54061753Y-66495794D01*
X54108127Y-66529860D01*
X54229790Y-66672310D01*
X54410735Y-66826851D01*
X54410739Y-66826854D01*
X54613636Y-66951189D01*
X54833484Y-67042253D01*
X55064872Y-67097805D01*
X55302101Y-67116475D01*
X55539330Y-67097805D01*
X55770718Y-67042253D01*
X55990566Y-66951189D01*
X56193463Y-66826854D01*
X56374411Y-66672310D01*
X56528955Y-66491362D01*
X56653290Y-66288465D01*
X56744354Y-66068617D01*
X56799906Y-65837229D01*
X56818576Y-65600000D01*
X56799906Y-65362771D01*
X56744354Y-65131383D01*
X56653290Y-64911535D01*
X56528955Y-64708638D01*
X56528952Y-64708634D01*
X56374411Y-64527689D01*
X56193466Y-64373148D01*
X56193464Y-64373147D01*
X56193463Y-64373146D01*
X55990566Y-64248811D01*
X55770718Y-64157747D01*
X55770716Y-64157746D01*
X55770715Y-64157746D01*
X55646192Y-64127850D01*
X55539330Y-64102195D01*
X55539331Y-64102195D01*
X55380810Y-64089719D01*
X55314469Y-64064433D01*
X55272330Y-64007295D01*
X55267771Y-63936445D01*
X55301600Y-63875013D01*
X55786211Y-63390404D01*
X55848523Y-63356379D01*
X55875306Y-63353500D01*
X63662444Y-63353500D01*
X63666247Y-63353614D01*
X63726572Y-63357264D01*
X63786029Y-63346367D01*
X63789766Y-63345798D01*
X63849774Y-63338513D01*
X63858590Y-63335169D01*
X63880570Y-63329042D01*
X63880655Y-63329026D01*
X63889837Y-63327344D01*
X63931052Y-63308793D01*
X63944950Y-63302539D01*
X63948460Y-63301084D01*
X64004971Y-63279654D01*
X64012729Y-63274298D01*
X64032592Y-63263095D01*
X64041197Y-63259223D01*
X64088778Y-63221944D01*
X64091817Y-63219707D01*
X64141573Y-63185365D01*
X64181672Y-63140101D01*
X64184226Y-63137387D01*
X67645631Y-59675982D01*
X67707941Y-59641958D01*
X67764133Y-59642559D01*
X67997597Y-59698609D01*
X68250000Y-59718474D01*
X68502403Y-59698609D01*
X68748591Y-59639505D01*
X68982502Y-59542616D01*
X69198376Y-59410328D01*
X69390898Y-59245898D01*
X69555328Y-59053376D01*
X69687616Y-58837502D01*
X69784505Y-58603591D01*
X69843609Y-58357403D01*
X69863474Y-58105000D01*
X69843609Y-57852597D01*
X69784505Y-57606409D01*
X69687616Y-57372498D01*
X69555328Y-57156624D01*
X69390898Y-56964102D01*
X69198376Y-56799672D01*
X68982502Y-56667384D01*
X68748591Y-56570495D01*
X68748589Y-56570494D01*
X68580177Y-56530062D01*
X68502403Y-56511391D01*
X68250000Y-56491526D01*
X67997597Y-56511391D01*
X67751410Y-56570494D01*
X67517499Y-56667383D01*
X67301625Y-56799671D01*
X67109102Y-56964102D01*
X66944671Y-57156625D01*
X66812383Y-57372499D01*
X66715494Y-57606410D01*
X66656391Y-57852597D01*
X66636526Y-58105000D01*
X66656391Y-58357403D01*
X66712438Y-58590861D01*
X66708890Y-58661769D01*
X66679014Y-58709369D01*
X64964357Y-60424026D01*
X64902045Y-60458052D01*
X64831230Y-60452987D01*
X64774394Y-60410440D01*
X64749583Y-60343920D01*
X64752744Y-60305516D01*
X64763113Y-60262327D01*
X64782971Y-60010000D01*
X64763113Y-59757676D01*
X64704028Y-59511565D01*
X64607169Y-59277727D01*
X64475821Y-59063387D01*
X63773934Y-59765274D01*
X63762812Y-59731044D01*
X63674814Y-59592381D01*
X63555097Y-59479960D01*
X63416839Y-59403951D01*
X64116611Y-58704178D01*
X64116611Y-58704177D01*
X63902272Y-58572830D01*
X63668434Y-58475971D01*
X63422323Y-58416886D01*
X63170000Y-58397028D01*
X62917676Y-58416886D01*
X62671565Y-58475971D01*
X62437727Y-58572830D01*
X62223387Y-58704176D01*
X62223387Y-58704178D01*
X62926517Y-59407308D01*
X62854371Y-59435874D01*
X62721508Y-59532405D01*
X62616825Y-59658945D01*
X62566558Y-59765767D01*
X61864178Y-59063387D01*
X61864176Y-59063387D01*
X61732830Y-59277727D01*
X61635971Y-59511565D01*
X61576886Y-59757676D01*
X61557028Y-60010000D01*
X61576886Y-60262323D01*
X61635971Y-60508434D01*
X61732830Y-60742272D01*
X61864177Y-60956611D01*
X61864178Y-60956611D01*
X62566065Y-60254724D01*
X62577188Y-60288956D01*
X62665186Y-60427619D01*
X62784903Y-60540040D01*
X62923160Y-60616048D01*
X62223387Y-61315821D01*
X62223387Y-61315822D01*
X62437727Y-61447169D01*
X62671565Y-61544028D01*
X62917676Y-61603113D01*
X63170000Y-61622971D01*
X63422327Y-61603113D01*
X63465516Y-61592744D01*
X63536424Y-61596290D01*
X63594158Y-61637609D01*
X63620388Y-61703582D01*
X63606787Y-61773264D01*
X63584027Y-61804357D01*
X63438790Y-61949595D01*
X63376478Y-61983620D01*
X63349694Y-61986500D01*
X58654304Y-61986500D01*
X58586183Y-61966498D01*
X58539690Y-61912842D01*
X58529586Y-61842568D01*
X58559080Y-61777988D01*
X58565209Y-61771405D01*
X60529071Y-59807543D01*
X62565631Y-57770982D01*
X62627941Y-57736958D01*
X62684133Y-57737559D01*
X62917597Y-57793609D01*
X63170000Y-57813474D01*
X63422403Y-57793609D01*
X63668591Y-57734505D01*
X63902502Y-57637616D01*
X64118376Y-57505328D01*
X64310898Y-57340898D01*
X64475328Y-57148376D01*
X64607616Y-56932502D01*
X64704505Y-56698591D01*
X64763609Y-56452403D01*
X64783474Y-56200000D01*
X64763609Y-55947597D01*
X64704505Y-55701409D01*
X64607616Y-55467498D01*
X64475328Y-55251624D01*
X64310898Y-55059102D01*
X64118376Y-54894672D01*
X63902502Y-54762384D01*
X63675383Y-54668308D01*
X63668589Y-54665494D01*
X63500177Y-54625062D01*
X63422403Y-54606391D01*
X63170000Y-54586526D01*
X62917597Y-54606391D01*
X62671410Y-54665494D01*
X62437499Y-54762383D01*
X62221625Y-54894671D01*
X62029102Y-55059102D01*
X61864671Y-55251625D01*
X61732383Y-55467499D01*
X61635494Y-55701410D01*
X61576391Y-55947597D01*
X61556526Y-56200000D01*
X61576391Y-56452403D01*
X61632438Y-56685861D01*
X61628890Y-56756769D01*
X61599014Y-56804369D01*
X57763790Y-60639595D01*
X57701478Y-60673620D01*
X57674695Y-60676500D01*
X53462556Y-60676500D01*
X53458754Y-60676385D01*
X53398428Y-60672736D01*
X53398427Y-60672736D01*
X53398425Y-60672736D01*
X53338988Y-60683628D01*
X53335226Y-60684201D01*
X53275228Y-60691486D01*
X53275223Y-60691487D01*
X53266392Y-60694836D01*
X53244446Y-60700954D01*
X53235166Y-60702655D01*
X53235165Y-60702655D01*
X53180068Y-60727451D01*
X53176555Y-60728906D01*
X53120031Y-60750345D01*
X53120021Y-60750350D01*
X53112255Y-60755710D01*
X53092408Y-60766903D01*
X53083807Y-60770774D01*
X53036226Y-60808050D01*
X53033162Y-60810304D01*
X52983425Y-60844636D01*
X52943342Y-60889879D01*
X52940734Y-60892650D01*
X49434448Y-64398935D01*
X49372136Y-64432961D01*
X49322207Y-64433696D01*
X49308315Y-64431100D01*
X49091685Y-64431100D01*
X48878745Y-64470905D01*
X48878740Y-64470906D01*
X48878737Y-64470907D01*
X48676750Y-64549158D01*
X48676743Y-64549161D01*
X48492562Y-64663200D01*
X48492556Y-64663205D01*
X48472567Y-64681427D01*
X48408749Y-64712536D01*
X48338243Y-64704203D01*
X48291874Y-64670139D01*
X48170211Y-64527689D01*
X47989266Y-64373148D01*
X47989264Y-64373147D01*
X47989263Y-64373146D01*
X47786366Y-64248811D01*
X47566518Y-64157747D01*
X47566516Y-64157746D01*
X47566515Y-64157746D01*
X47441992Y-64127850D01*
X47335130Y-64102195D01*
X47335131Y-64102195D01*
X47097901Y-64083525D01*
X46860671Y-64102195D01*
X46629286Y-64157746D01*
X46409437Y-64248810D01*
X46206537Y-64373147D01*
X46206535Y-64373148D01*
X46025590Y-64527689D01*
X45905311Y-64668519D01*
X45845861Y-64707329D01*
X45774866Y-64707835D01*
X45714867Y-64669879D01*
X45684914Y-64605511D01*
X45683500Y-64586689D01*
X45683500Y-63572555D01*
X45683615Y-63568750D01*
X45687264Y-63508428D01*
X45676368Y-63448974D01*
X45675796Y-63445213D01*
X45668513Y-63385227D01*
X45668513Y-63385226D01*
X45665166Y-63376402D01*
X45659043Y-63354435D01*
X45657344Y-63345163D01*
X45632542Y-63290058D01*
X45631086Y-63286541D01*
X45609655Y-63230030D01*
X45604297Y-63222268D01*
X45593094Y-63202403D01*
X45589223Y-63193802D01*
X45589222Y-63193801D01*
X45551948Y-63146224D01*
X45549692Y-63143158D01*
X45515366Y-63093429D01*
X45515365Y-63093427D01*
X45470110Y-63053334D01*
X45467364Y-63050749D01*
X37616619Y-55200004D01*
X44017308Y-55200004D01*
X44036052Y-55474048D01*
X44036053Y-55474054D01*
X44091942Y-55743011D01*
X44091944Y-55743019D01*
X44183938Y-56001865D01*
X44310314Y-56245756D01*
X44310316Y-56245759D01*
X44440541Y-56430248D01*
X45166177Y-55704612D01*
X45235146Y-55815263D01*
X45375268Y-55962671D01*
X45523420Y-56065788D01*
X44800715Y-56788492D01*
X44800715Y-56788494D01*
X44869313Y-56844304D01*
X44869318Y-56844307D01*
X45104030Y-56987038D01*
X45355989Y-57096480D01*
X45620509Y-57170595D01*
X45892635Y-57207999D01*
X45892649Y-57208000D01*
X46167351Y-57208000D01*
X46167364Y-57207999D01*
X46439490Y-57170595D01*
X46704010Y-57096480D01*
X46955969Y-56987038D01*
X47190679Y-56844309D01*
X47259283Y-56788493D01*
X47259283Y-56788492D01*
X46534488Y-56063697D01*
X46604214Y-56024996D01*
X46758531Y-55892520D01*
X46883021Y-55731692D01*
X46895487Y-55706277D01*
X47619457Y-56430247D01*
X47749682Y-56245762D01*
X47749685Y-56245756D01*
X47876061Y-56001865D01*
X47968055Y-55743019D01*
X47968057Y-55743011D01*
X48023946Y-55474054D01*
X48023947Y-55474048D01*
X48042692Y-55200004D01*
X48042692Y-55199995D01*
X48023947Y-54925951D01*
X48023946Y-54925945D01*
X47968057Y-54656988D01*
X47968055Y-54656980D01*
X47876061Y-54398134D01*
X47749685Y-54154243D01*
X47749681Y-54154237D01*
X47619457Y-53969750D01*
X46893821Y-54695385D01*
X46824854Y-54584737D01*
X46684732Y-54437329D01*
X46536578Y-54334210D01*
X47259283Y-53611504D01*
X47190680Y-53555691D01*
X46955969Y-53412961D01*
X46704010Y-53303519D01*
X46439490Y-53229404D01*
X46167364Y-53192000D01*
X45892635Y-53192000D01*
X45620509Y-53229404D01*
X45355989Y-53303519D01*
X45104030Y-53412961D01*
X44869325Y-53555687D01*
X44800715Y-53611505D01*
X44800714Y-53611505D01*
X45525511Y-54336302D01*
X45455786Y-54375004D01*
X45301469Y-54507480D01*
X45176979Y-54668308D01*
X45164512Y-54693721D01*
X44440541Y-53969750D01*
X44310317Y-54154236D01*
X44183938Y-54398134D01*
X44091944Y-54656980D01*
X44091942Y-54656988D01*
X44036053Y-54925945D01*
X44036052Y-54925951D01*
X44017308Y-55199995D01*
X44017308Y-55200004D01*
X37616619Y-55200004D01*
X35568830Y-53152215D01*
X35534804Y-53089903D01*
X35539869Y-53019088D01*
X35582416Y-52962252D01*
X35625312Y-52941414D01*
X35689243Y-52924284D01*
X35896749Y-52827523D01*
X36084300Y-52696198D01*
X36246198Y-52534300D01*
X36258001Y-52517443D01*
X36268656Y-52502228D01*
X36324113Y-52457900D01*
X36371868Y-52448500D01*
X48873629Y-52448500D01*
X48941750Y-52468502D01*
X48962724Y-52485405D01*
X49436431Y-52959112D01*
X49470457Y-53021424D01*
X49470177Y-53076244D01*
X49443757Y-53192000D01*
X49411475Y-53333438D01*
X49394292Y-53562727D01*
X49391499Y-53600000D01*
X49411475Y-53866565D01*
X49470957Y-54127171D01*
X49470958Y-54127173D01*
X49568612Y-54375995D01*
X49568614Y-54375999D01*
X49702268Y-54607494D01*
X49702270Y-54607497D01*
X49702271Y-54607498D01*
X49741738Y-54656988D01*
X49868939Y-54816494D01*
X50010730Y-54948055D01*
X50064888Y-54998306D01*
X50064894Y-54998310D01*
X50285740Y-55148881D01*
X50285744Y-55148883D01*
X50285750Y-55148887D01*
X50526587Y-55264869D01*
X50695402Y-55316941D01*
X50782010Y-55343657D01*
X50782012Y-55343657D01*
X50782021Y-55343660D01*
X51046345Y-55383500D01*
X51046349Y-55383500D01*
X51313651Y-55383500D01*
X51313655Y-55383500D01*
X51577979Y-55343660D01*
X51577989Y-55343657D01*
X51833404Y-55264872D01*
X51833406Y-55264871D01*
X51833413Y-55264869D01*
X51968106Y-55200004D01*
X54317308Y-55200004D01*
X54336052Y-55474048D01*
X54336053Y-55474054D01*
X54391942Y-55743011D01*
X54391944Y-55743019D01*
X54483938Y-56001865D01*
X54610314Y-56245756D01*
X54610316Y-56245759D01*
X54740541Y-56430248D01*
X55466177Y-55704612D01*
X55535146Y-55815263D01*
X55675268Y-55962671D01*
X55823420Y-56065788D01*
X55100715Y-56788492D01*
X55100715Y-56788494D01*
X55169313Y-56844304D01*
X55169318Y-56844307D01*
X55404030Y-56987038D01*
X55655989Y-57096480D01*
X55920509Y-57170595D01*
X56192635Y-57207999D01*
X56192649Y-57208000D01*
X56467351Y-57208000D01*
X56467364Y-57207999D01*
X56739490Y-57170595D01*
X57004010Y-57096480D01*
X57255969Y-56987038D01*
X57490679Y-56844309D01*
X57559283Y-56788493D01*
X57559283Y-56788492D01*
X56834488Y-56063697D01*
X56904214Y-56024996D01*
X57058531Y-55892520D01*
X57183021Y-55731692D01*
X57195487Y-55706277D01*
X57919457Y-56430247D01*
X58049682Y-56245762D01*
X58049685Y-56245756D01*
X58176061Y-56001865D01*
X58268055Y-55743019D01*
X58268057Y-55743011D01*
X58323946Y-55474054D01*
X58323947Y-55474048D01*
X58342692Y-55200004D01*
X58342692Y-55199995D01*
X58323947Y-54925951D01*
X58323946Y-54925945D01*
X58268057Y-54656988D01*
X58268055Y-54656980D01*
X58176061Y-54398134D01*
X58122620Y-54295000D01*
X66637028Y-54295000D01*
X66656886Y-54547323D01*
X66715971Y-54793434D01*
X66812830Y-55027272D01*
X66944177Y-55241611D01*
X66944178Y-55241611D01*
X67646065Y-54539724D01*
X67657188Y-54573956D01*
X67745186Y-54712619D01*
X67864903Y-54825040D01*
X68003160Y-54901048D01*
X67303387Y-55600820D01*
X67303387Y-55600822D01*
X67517727Y-55732169D01*
X67751565Y-55829028D01*
X67997676Y-55888113D01*
X68250000Y-55907971D01*
X68502323Y-55888113D01*
X68748434Y-55829028D01*
X68982277Y-55732167D01*
X69196611Y-55600822D01*
X69196611Y-55600820D01*
X68493482Y-54897691D01*
X68565629Y-54869126D01*
X68698492Y-54772595D01*
X68803175Y-54646055D01*
X68853441Y-54539232D01*
X69555820Y-55241611D01*
X69555822Y-55241611D01*
X69687167Y-55027277D01*
X69784028Y-54793434D01*
X69843113Y-54547323D01*
X69862971Y-54295000D01*
X69843113Y-54042676D01*
X69784028Y-53796565D01*
X69687169Y-53562727D01*
X69555822Y-53348387D01*
X69555820Y-53348387D01*
X68853933Y-54050273D01*
X68842812Y-54016044D01*
X68754814Y-53877381D01*
X68635097Y-53764960D01*
X68496839Y-53688951D01*
X69196611Y-52989178D01*
X69196611Y-52989177D01*
X68982272Y-52857830D01*
X68748434Y-52760971D01*
X68502323Y-52701886D01*
X68250000Y-52682028D01*
X67997676Y-52701886D01*
X67751565Y-52760971D01*
X67517727Y-52857830D01*
X67303387Y-52989176D01*
X67303387Y-52989178D01*
X68006517Y-53692308D01*
X67934371Y-53720874D01*
X67801508Y-53817405D01*
X67696825Y-53943945D01*
X67646558Y-54050767D01*
X66944178Y-53348387D01*
X66944176Y-53348387D01*
X66812830Y-53562727D01*
X66715971Y-53796565D01*
X66656886Y-54042676D01*
X66637028Y-54295000D01*
X58122620Y-54295000D01*
X58049685Y-54154243D01*
X58049681Y-54154237D01*
X57919457Y-53969750D01*
X57193821Y-54695385D01*
X57124854Y-54584737D01*
X56984732Y-54437329D01*
X56836578Y-54334210D01*
X57559283Y-53611504D01*
X57490680Y-53555691D01*
X57255969Y-53412961D01*
X57004010Y-53303519D01*
X56739490Y-53229404D01*
X56467364Y-53192000D01*
X56192635Y-53192000D01*
X55920509Y-53229404D01*
X55655989Y-53303519D01*
X55404030Y-53412961D01*
X55169325Y-53555687D01*
X55100715Y-53611505D01*
X55100714Y-53611505D01*
X55825511Y-54336302D01*
X55755786Y-54375004D01*
X55601469Y-54507480D01*
X55476979Y-54668308D01*
X55464512Y-54693721D01*
X54740541Y-53969750D01*
X54610317Y-54154236D01*
X54483938Y-54398134D01*
X54391944Y-54656980D01*
X54391942Y-54656988D01*
X54336053Y-54925945D01*
X54336052Y-54925951D01*
X54317308Y-55199995D01*
X54317308Y-55200004D01*
X51968106Y-55200004D01*
X52074251Y-55148887D01*
X52295112Y-54998306D01*
X52491064Y-54816490D01*
X52657729Y-54607498D01*
X52791384Y-54376002D01*
X52889043Y-54127170D01*
X52948525Y-53866562D01*
X52968501Y-53600000D01*
X52948525Y-53333438D01*
X52889043Y-53072830D01*
X52888405Y-53071206D01*
X52888350Y-53070585D01*
X52887653Y-53068323D01*
X52888137Y-53068173D01*
X52882138Y-53000488D01*
X52915098Y-52937606D01*
X52916539Y-52936140D01*
X53462679Y-52390000D01*
X61557028Y-52390000D01*
X61576886Y-52642323D01*
X61635971Y-52888434D01*
X61732830Y-53122272D01*
X61864177Y-53336611D01*
X61864178Y-53336611D01*
X62566065Y-52634724D01*
X62577188Y-52668956D01*
X62665186Y-52807619D01*
X62784903Y-52920040D01*
X62923160Y-52996048D01*
X62223387Y-53695820D01*
X62223387Y-53695822D01*
X62437727Y-53827169D01*
X62671565Y-53924028D01*
X62917676Y-53983113D01*
X63170000Y-54002971D01*
X63422323Y-53983113D01*
X63668434Y-53924028D01*
X63902277Y-53827167D01*
X64116611Y-53695822D01*
X64116611Y-53695820D01*
X63413482Y-52992691D01*
X63485629Y-52964126D01*
X63618492Y-52867595D01*
X63723175Y-52741055D01*
X63773441Y-52634232D01*
X64475820Y-53336611D01*
X64475822Y-53336611D01*
X64607167Y-53122277D01*
X64704028Y-52888434D01*
X64763113Y-52642323D01*
X64782971Y-52390000D01*
X64763113Y-52137676D01*
X64704028Y-51891565D01*
X64607169Y-51657727D01*
X64475822Y-51443387D01*
X64475820Y-51443387D01*
X63773933Y-52145273D01*
X63762812Y-52111044D01*
X63674814Y-51972381D01*
X63555097Y-51859960D01*
X63416839Y-51783951D01*
X64116611Y-51084178D01*
X64116611Y-51084177D01*
X63902272Y-50952830D01*
X63668434Y-50855971D01*
X63422323Y-50796886D01*
X63170000Y-50777028D01*
X62917676Y-50796886D01*
X62671565Y-50855971D01*
X62437727Y-50952830D01*
X62223387Y-51084176D01*
X62223387Y-51084178D01*
X62926517Y-51787308D01*
X62854371Y-51815874D01*
X62721508Y-51912405D01*
X62616825Y-52038945D01*
X62566558Y-52145767D01*
X61864178Y-51443387D01*
X61864176Y-51443387D01*
X61732830Y-51657727D01*
X61635971Y-51891565D01*
X61576886Y-52137676D01*
X61557028Y-52390000D01*
X53462679Y-52390000D01*
X56477276Y-49375405D01*
X56539588Y-49341379D01*
X56566371Y-49338500D01*
X61677752Y-49338500D01*
X61745873Y-49358502D01*
X61785185Y-49398665D01*
X61864672Y-49528376D01*
X62029102Y-49720898D01*
X62221624Y-49885328D01*
X62437498Y-50017616D01*
X62671409Y-50114505D01*
X62917597Y-50173609D01*
X63170000Y-50193474D01*
X63422403Y-50173609D01*
X63668591Y-50114505D01*
X63902502Y-50017616D01*
X64118376Y-49885328D01*
X64310898Y-49720898D01*
X64475328Y-49528376D01*
X64607616Y-49312502D01*
X64704505Y-49078591D01*
X64763609Y-48832403D01*
X64783474Y-48580000D01*
X64763609Y-48327597D01*
X64753420Y-48285156D01*
X64756966Y-48214250D01*
X64798285Y-48156516D01*
X64864259Y-48130285D01*
X64933940Y-48143887D01*
X64965033Y-48166648D01*
X66679015Y-49880630D01*
X66713041Y-49942942D01*
X66712439Y-49999138D01*
X66656391Y-50232597D01*
X66636526Y-50485000D01*
X66656391Y-50737403D01*
X66675062Y-50815177D01*
X66715494Y-50983589D01*
X66799077Y-51185375D01*
X66812384Y-51217502D01*
X66944672Y-51433376D01*
X67109102Y-51625898D01*
X67301624Y-51790328D01*
X67517498Y-51922616D01*
X67751409Y-52019505D01*
X67997597Y-52078609D01*
X68250000Y-52098474D01*
X68502403Y-52078609D01*
X68748591Y-52019505D01*
X68982502Y-51922616D01*
X69198376Y-51790328D01*
X69390898Y-51625898D01*
X69555328Y-51433376D01*
X69687616Y-51217502D01*
X69784505Y-50983591D01*
X69843609Y-50737403D01*
X69863474Y-50485000D01*
X69843609Y-50232597D01*
X69784505Y-49986409D01*
X69687616Y-49752498D01*
X69555328Y-49536624D01*
X69390898Y-49344102D01*
X69198376Y-49179672D01*
X68982502Y-49047384D01*
X68853622Y-48994000D01*
X68748589Y-48950494D01*
X68580177Y-48910062D01*
X68502403Y-48891391D01*
X68250000Y-48871526D01*
X67997597Y-48891391D01*
X67764138Y-48947438D01*
X67693231Y-48943892D01*
X67645630Y-48914015D01*
X66353226Y-47621611D01*
X65406615Y-46675000D01*
X66637028Y-46675000D01*
X66656886Y-46927323D01*
X66715971Y-47173434D01*
X66812830Y-47407272D01*
X66944177Y-47621611D01*
X66944178Y-47621611D01*
X67646065Y-46919724D01*
X67657188Y-46953956D01*
X67745186Y-47092619D01*
X67864903Y-47205040D01*
X68003160Y-47281048D01*
X67303387Y-47980820D01*
X67303387Y-47980822D01*
X67517727Y-48112169D01*
X67751565Y-48209028D01*
X67997676Y-48268113D01*
X68250000Y-48287971D01*
X68502323Y-48268113D01*
X68748434Y-48209028D01*
X68982277Y-48112167D01*
X69196611Y-47980822D01*
X69196611Y-47980820D01*
X68493482Y-47277691D01*
X68565629Y-47249126D01*
X68698492Y-47152595D01*
X68803175Y-47026055D01*
X68853441Y-46919232D01*
X69555820Y-47621611D01*
X69555822Y-47621611D01*
X69687167Y-47407277D01*
X69784028Y-47173434D01*
X69843113Y-46927323D01*
X69862971Y-46675000D01*
X69843113Y-46422676D01*
X69784028Y-46176565D01*
X69687169Y-45942727D01*
X69555822Y-45728387D01*
X69555820Y-45728387D01*
X68853933Y-46430273D01*
X68842812Y-46396044D01*
X68754814Y-46257381D01*
X68635097Y-46144960D01*
X68496839Y-46068951D01*
X69196611Y-45369178D01*
X69196611Y-45369177D01*
X68982272Y-45237830D01*
X68748434Y-45140971D01*
X68502323Y-45081886D01*
X68250000Y-45062028D01*
X67997676Y-45081886D01*
X67751565Y-45140971D01*
X67517727Y-45237830D01*
X67303387Y-45369176D01*
X67303387Y-45369178D01*
X68006517Y-46072308D01*
X67934371Y-46100874D01*
X67801508Y-46197405D01*
X67696825Y-46323945D01*
X67646558Y-46430767D01*
X66944178Y-45728387D01*
X66944176Y-45728387D01*
X66812830Y-45942727D01*
X66715971Y-46176565D01*
X66656886Y-46422676D01*
X66637028Y-46675000D01*
X65406615Y-46675000D01*
X65054241Y-46322626D01*
X65051649Y-46319872D01*
X65051647Y-46319870D01*
X65011573Y-46274635D01*
X65011572Y-46274634D01*
X65011571Y-46274633D01*
X64984448Y-46255911D01*
X64961819Y-46240292D01*
X64958766Y-46238045D01*
X64911196Y-46200776D01*
X64911193Y-46200774D01*
X64902599Y-46196907D01*
X64882735Y-46185704D01*
X64874973Y-46180346D01*
X64874970Y-46180345D01*
X64818458Y-46158913D01*
X64814941Y-46157456D01*
X64759839Y-46132656D01*
X64759836Y-46132655D01*
X64750554Y-46130954D01*
X64728600Y-46124833D01*
X64719778Y-46121488D01*
X64719769Y-46121485D01*
X64659774Y-46114201D01*
X64656011Y-46113628D01*
X64596573Y-46102736D01*
X64596572Y-46102736D01*
X64536247Y-46106385D01*
X64532444Y-46106500D01*
X64199481Y-46106500D01*
X64131360Y-46086498D01*
X64110386Y-46069595D01*
X63413482Y-45372691D01*
X63485629Y-45344126D01*
X63618492Y-45247595D01*
X63723175Y-45121055D01*
X63773441Y-45014232D01*
X64475820Y-45716611D01*
X64475822Y-45716611D01*
X64607167Y-45502277D01*
X64704028Y-45268434D01*
X64763113Y-45022323D01*
X64782971Y-44770000D01*
X64763113Y-44517676D01*
X64704028Y-44271565D01*
X64607169Y-44037727D01*
X64475822Y-43823387D01*
X64475820Y-43823387D01*
X63773933Y-44525273D01*
X63762812Y-44491044D01*
X63674814Y-44352381D01*
X63555097Y-44239960D01*
X63416839Y-44163951D01*
X64116611Y-43464178D01*
X64116611Y-43464177D01*
X63902272Y-43332830D01*
X63668434Y-43235971D01*
X63422323Y-43176886D01*
X63170000Y-43157028D01*
X62917676Y-43176886D01*
X62671565Y-43235971D01*
X62437727Y-43332830D01*
X62223387Y-43464176D01*
X62223387Y-43464178D01*
X62926517Y-44167308D01*
X62854371Y-44195874D01*
X62721508Y-44292405D01*
X62616825Y-44418945D01*
X62566558Y-44525767D01*
X61864178Y-43823387D01*
X61864176Y-43823387D01*
X61732830Y-44037727D01*
X61635971Y-44271565D01*
X61576886Y-44517676D01*
X61557028Y-44770000D01*
X61576886Y-45022323D01*
X61635971Y-45268434D01*
X61732830Y-45502272D01*
X61864177Y-45716611D01*
X61864178Y-45716611D01*
X62566065Y-45014724D01*
X62577188Y-45048956D01*
X62665186Y-45187619D01*
X62784903Y-45300040D01*
X62923161Y-45376048D01*
X62229613Y-46069596D01*
X62167301Y-46103621D01*
X62140518Y-46106500D01*
X53412556Y-46106500D01*
X53408754Y-46106385D01*
X53348428Y-46102736D01*
X53348427Y-46102736D01*
X53348425Y-46102736D01*
X53288988Y-46113628D01*
X53285226Y-46114201D01*
X53225228Y-46121486D01*
X53225223Y-46121487D01*
X53216392Y-46124836D01*
X53194446Y-46130954D01*
X53185166Y-46132655D01*
X53185165Y-46132655D01*
X53130068Y-46157451D01*
X53126555Y-46158906D01*
X53070031Y-46180345D01*
X53070021Y-46180350D01*
X53062255Y-46185710D01*
X53042408Y-46196903D01*
X53033807Y-46200774D01*
X52986226Y-46238050D01*
X52983162Y-46240304D01*
X52933425Y-46274636D01*
X52893350Y-46319870D01*
X52890742Y-46322641D01*
X52470290Y-46743095D01*
X52407978Y-46777120D01*
X52381194Y-46780000D01*
X51953850Y-46780000D01*
X51893303Y-46786509D01*
X51893295Y-46786511D01*
X51756297Y-46837610D01*
X51756292Y-46837612D01*
X51633509Y-46929528D01*
X51566989Y-46954339D01*
X51497615Y-46939248D01*
X51482491Y-46929528D01*
X51359707Y-46837612D01*
X51359702Y-46837610D01*
X51222704Y-46786511D01*
X51222696Y-46786509D01*
X51162149Y-46780000D01*
X51162138Y-46780000D01*
X50735591Y-46780000D01*
X50667470Y-46759998D01*
X50641284Y-46737558D01*
X50608573Y-46700635D01*
X50558819Y-46666292D01*
X50555766Y-46664045D01*
X50551569Y-46660757D01*
X50522586Y-46638050D01*
X50508196Y-46626776D01*
X50508193Y-46626774D01*
X50499599Y-46622907D01*
X50479735Y-46611704D01*
X50471973Y-46606346D01*
X50471970Y-46606345D01*
X50415458Y-46584913D01*
X50411941Y-46583456D01*
X50356839Y-46558656D01*
X50356836Y-46558655D01*
X50347554Y-46556954D01*
X50325600Y-46550833D01*
X50316778Y-46547488D01*
X50316769Y-46547485D01*
X50256774Y-46540201D01*
X50253011Y-46539628D01*
X50193573Y-46528736D01*
X50193572Y-46528736D01*
X50133247Y-46532385D01*
X50129444Y-46532500D01*
X49603039Y-46532500D01*
X49534918Y-46512498D01*
X49527530Y-46507368D01*
X49447707Y-46447612D01*
X49447702Y-46447610D01*
X49310704Y-46396511D01*
X49310696Y-46396509D01*
X49250149Y-46390000D01*
X49250138Y-46390000D01*
X48009862Y-46390000D01*
X48009850Y-46390000D01*
X47949303Y-46396509D01*
X47949295Y-46396511D01*
X47812297Y-46447610D01*
X47812293Y-46447612D01*
X47771892Y-46477856D01*
X47705372Y-46502666D01*
X47688780Y-46502757D01*
X47688429Y-46502735D01*
X47688425Y-46502735D01*
X47628986Y-46513628D01*
X47625224Y-46514201D01*
X47565230Y-46521485D01*
X47560381Y-46523324D01*
X47556397Y-46524835D01*
X47534440Y-46530955D01*
X47529862Y-46531794D01*
X47525162Y-46532656D01*
X47470053Y-46557458D01*
X47466538Y-46558914D01*
X47410030Y-46580345D01*
X47410025Y-46580347D01*
X47402255Y-46585710D01*
X47382408Y-46596903D01*
X47373807Y-46600774D01*
X47326226Y-46638050D01*
X47323162Y-46640304D01*
X47273425Y-46674636D01*
X47233350Y-46719870D01*
X47230742Y-46722641D01*
X47037825Y-46915559D01*
X46975513Y-46949584D01*
X46967342Y-46950898D01*
X46777711Y-46991206D01*
X46603247Y-47068882D01*
X46448744Y-47181135D01*
X46320965Y-47323048D01*
X46320958Y-47323058D01*
X46225476Y-47488438D01*
X46225473Y-47488444D01*
X46210999Y-47532986D01*
X46166457Y-47670072D01*
X46146496Y-47860000D01*
X46166457Y-48049927D01*
X46187991Y-48116200D01*
X46225473Y-48231556D01*
X46234692Y-48247523D01*
X46320958Y-48396941D01*
X46320965Y-48396951D01*
X46448744Y-48538864D01*
X46451277Y-48540704D01*
X46603248Y-48651118D01*
X46777712Y-48728794D01*
X46964513Y-48768500D01*
X47155487Y-48768500D01*
X47342288Y-48728794D01*
X47516752Y-48651118D01*
X47671253Y-48538866D01*
X47681316Y-48527690D01*
X47741762Y-48490450D01*
X47774953Y-48486000D01*
X49709500Y-48486000D01*
X49709500Y-48373914D01*
X49709499Y-48373902D01*
X49702994Y-48313406D01*
X49651944Y-48176535D01*
X49651944Y-48176534D01*
X49595406Y-48101009D01*
X49570595Y-48034489D01*
X49585686Y-47965115D01*
X49635888Y-47914913D01*
X49696274Y-47899500D01*
X49816695Y-47899500D01*
X49884816Y-47919502D01*
X49905790Y-47936405D01*
X49933095Y-47963710D01*
X49967121Y-48026022D01*
X49970000Y-48052805D01*
X49970000Y-48480149D01*
X49976509Y-48540696D01*
X49976511Y-48540704D01*
X50027610Y-48677702D01*
X50027612Y-48677707D01*
X50115238Y-48794761D01*
X50232292Y-48882387D01*
X50232294Y-48882388D01*
X50232296Y-48882389D01*
X50291375Y-48904424D01*
X50369295Y-48933488D01*
X50369303Y-48933490D01*
X50429850Y-48939999D01*
X50429855Y-48939999D01*
X50429862Y-48940000D01*
X50429868Y-48940000D01*
X51162132Y-48940000D01*
X51162138Y-48940000D01*
X51162145Y-48939999D01*
X51162149Y-48939999D01*
X51222696Y-48933490D01*
X51222699Y-48933489D01*
X51222701Y-48933489D01*
X51359704Y-48882389D01*
X51476761Y-48794761D01*
X51476763Y-48794758D01*
X51482490Y-48790471D01*
X51549010Y-48765660D01*
X51618385Y-48780751D01*
X51633510Y-48790471D01*
X51639236Y-48794758D01*
X51639239Y-48794761D01*
X51741785Y-48871526D01*
X51756296Y-48882389D01*
X51893295Y-48933488D01*
X51893303Y-48933490D01*
X51953850Y-48939999D01*
X51953855Y-48939999D01*
X51953862Y-48940000D01*
X51953868Y-48940000D01*
X52686132Y-48940000D01*
X52686138Y-48940000D01*
X52686145Y-48939999D01*
X52686149Y-48939999D01*
X52746696Y-48933490D01*
X52746699Y-48933489D01*
X52746701Y-48933489D01*
X52883704Y-48882389D01*
X52898216Y-48871526D01*
X53000761Y-48794761D01*
X53088387Y-48677707D01*
X53088387Y-48677706D01*
X53088389Y-48677704D01*
X53133892Y-48555706D01*
X53139488Y-48540704D01*
X53139490Y-48540696D01*
X53145999Y-48480149D01*
X53146000Y-48480132D01*
X53146000Y-48052805D01*
X53166002Y-47984684D01*
X53182905Y-47963710D01*
X53636210Y-47510405D01*
X53698522Y-47476379D01*
X53725305Y-47473500D01*
X61736581Y-47473500D01*
X61804702Y-47493502D01*
X61851195Y-47547158D01*
X61861299Y-47617432D01*
X61844014Y-47665335D01*
X61785185Y-47761335D01*
X61732537Y-47808966D01*
X61677752Y-47821500D01*
X56264441Y-47821500D01*
X56246181Y-47820170D01*
X56222211Y-47816659D01*
X56169615Y-47821260D01*
X56164122Y-47821500D01*
X56155818Y-47821500D01*
X56133876Y-47824064D01*
X56122905Y-47825347D01*
X56113732Y-47826149D01*
X56045577Y-47832112D01*
X56038386Y-47833597D01*
X56038372Y-47833532D01*
X56031014Y-47835163D01*
X56031030Y-47835228D01*
X56023889Y-47836920D01*
X55950944Y-47863469D01*
X55877260Y-47887885D01*
X55870613Y-47890986D01*
X55870585Y-47890926D01*
X55863801Y-47894210D01*
X55863831Y-47894269D01*
X55857268Y-47897565D01*
X55792400Y-47940228D01*
X55726347Y-47980971D01*
X55720592Y-47985522D01*
X55720551Y-47985470D01*
X55714704Y-47990233D01*
X55714746Y-47990283D01*
X55709128Y-47994996D01*
X55655836Y-48051482D01*
X51840306Y-51867011D01*
X51777994Y-51901037D01*
X51714072Y-51898318D01*
X51577989Y-51856342D01*
X51577981Y-51856340D01*
X51577979Y-51856340D01*
X51313655Y-51816500D01*
X51046345Y-51816500D01*
X50782021Y-51856340D01*
X50782018Y-51856340D01*
X50622997Y-51905391D01*
X50552007Y-51906355D01*
X50496764Y-51874083D01*
X49821908Y-51199227D01*
X49809936Y-51185375D01*
X49795469Y-51165942D01*
X49795467Y-51165940D01*
X49755024Y-51132003D01*
X49750970Y-51128289D01*
X49745107Y-51122425D01*
X49719104Y-51101864D01*
X49719103Y-51101863D01*
X49659640Y-51051968D01*
X49659638Y-51051967D01*
X49659636Y-51051965D01*
X49653506Y-51047933D01*
X49653541Y-51047878D01*
X49647187Y-51043829D01*
X49647153Y-51043886D01*
X49640906Y-51040033D01*
X49570540Y-51007220D01*
X49501188Y-50972391D01*
X49501186Y-50972390D01*
X49501183Y-50972389D01*
X49494289Y-50969880D01*
X49494311Y-50969817D01*
X49487189Y-50967341D01*
X49487169Y-50967404D01*
X49480209Y-50965097D01*
X49404150Y-50949392D01*
X49328652Y-50931499D01*
X49321367Y-50930648D01*
X49321374Y-50930580D01*
X49313877Y-50929814D01*
X49313872Y-50929881D01*
X49306559Y-50929241D01*
X49306558Y-50929241D01*
X49228920Y-50931500D01*
X36371868Y-50931500D01*
X36303747Y-50911498D01*
X36268656Y-50877772D01*
X36246202Y-50845706D01*
X36246200Y-50845703D01*
X36246198Y-50845700D01*
X36084300Y-50683802D01*
X36033472Y-50648212D01*
X35989145Y-50592757D01*
X35981836Y-50522137D01*
X36013866Y-50458777D01*
X36033468Y-50441790D01*
X36084300Y-50406198D01*
X36246198Y-50244300D01*
X36257618Y-50227990D01*
X36268656Y-50212228D01*
X36324113Y-50167900D01*
X36371868Y-50158500D01*
X42575559Y-50158500D01*
X42593819Y-50159830D01*
X42598715Y-50160547D01*
X42617789Y-50163341D01*
X42651146Y-50160422D01*
X42670385Y-50158740D01*
X42675878Y-50158500D01*
X42684176Y-50158500D01*
X42684180Y-50158500D01*
X42710512Y-50155421D01*
X42717096Y-50154652D01*
X42723861Y-50154060D01*
X42794426Y-50147887D01*
X42794432Y-50147884D01*
X42801618Y-50146402D01*
X42801631Y-50146468D01*
X42808987Y-50144836D01*
X42808972Y-50144771D01*
X42816104Y-50143079D01*
X42816113Y-50143079D01*
X42889065Y-50116526D01*
X42962738Y-50092114D01*
X42962740Y-50092112D01*
X42969389Y-50089012D01*
X42969418Y-50089074D01*
X42976203Y-50085789D01*
X42976173Y-50085729D01*
X42982728Y-50082436D01*
X42982732Y-50082435D01*
X43047605Y-50039766D01*
X43113651Y-49999030D01*
X43113660Y-49999020D01*
X43119408Y-49994477D01*
X43119450Y-49994531D01*
X43125289Y-49989775D01*
X43125246Y-49989723D01*
X43130865Y-49985006D01*
X43130874Y-49985001D01*
X43184163Y-49928517D01*
X44118680Y-48994000D01*
X47550500Y-48994000D01*
X47550500Y-49106097D01*
X47557005Y-49166593D01*
X47608055Y-49303464D01*
X47608055Y-49303465D01*
X47695595Y-49420404D01*
X47812534Y-49507944D01*
X47949406Y-49558994D01*
X48009902Y-49565499D01*
X48009915Y-49565500D01*
X48376000Y-49565500D01*
X48376000Y-48994000D01*
X48884000Y-48994000D01*
X48884000Y-49565500D01*
X49250085Y-49565500D01*
X49250097Y-49565499D01*
X49310593Y-49558994D01*
X49447464Y-49507944D01*
X49447465Y-49507944D01*
X49564404Y-49420404D01*
X49651944Y-49303465D01*
X49651944Y-49303464D01*
X49702994Y-49166593D01*
X49709499Y-49106097D01*
X49709500Y-49106085D01*
X49709500Y-48994000D01*
X48884000Y-48994000D01*
X48376000Y-48994000D01*
X47550500Y-48994000D01*
X44118680Y-48994000D01*
X50247679Y-42865000D01*
X66636526Y-42865000D01*
X66656391Y-43117403D01*
X66673039Y-43186749D01*
X66715494Y-43363589D01*
X66807502Y-43585715D01*
X66812384Y-43597502D01*
X66944672Y-43813376D01*
X67109102Y-44005898D01*
X67301624Y-44170328D01*
X67517498Y-44302616D01*
X67751409Y-44399505D01*
X67997597Y-44458609D01*
X68250000Y-44478474D01*
X68502403Y-44458609D01*
X68748591Y-44399505D01*
X68982502Y-44302616D01*
X69198376Y-44170328D01*
X69390898Y-44005898D01*
X69555328Y-43813376D01*
X69687616Y-43597502D01*
X69784505Y-43363591D01*
X69843609Y-43117403D01*
X69863474Y-42865000D01*
X69843609Y-42612597D01*
X69784505Y-42366409D01*
X69687616Y-42132498D01*
X69555328Y-41916624D01*
X69390898Y-41724102D01*
X69198376Y-41559672D01*
X68982502Y-41427384D01*
X68846295Y-41370965D01*
X68748589Y-41330494D01*
X68580177Y-41290062D01*
X68502403Y-41271391D01*
X68250000Y-41251526D01*
X67997597Y-41271391D01*
X67751410Y-41330494D01*
X67517499Y-41427383D01*
X67301625Y-41559671D01*
X67109102Y-41724102D01*
X66944671Y-41916625D01*
X66812383Y-42132499D01*
X66715494Y-42366410D01*
X66656391Y-42612597D01*
X66636526Y-42865000D01*
X50247679Y-42865000D01*
X51670778Y-41441901D01*
X51684617Y-41429941D01*
X51704058Y-41415469D01*
X51738001Y-41375015D01*
X51741700Y-41370979D01*
X51747581Y-41365100D01*
X51757547Y-41352494D01*
X51768135Y-41339105D01*
X51790481Y-41312472D01*
X51818032Y-41279640D01*
X51818033Y-41279636D01*
X51818036Y-41279634D01*
X51822070Y-41273502D01*
X51822127Y-41273539D01*
X51826171Y-41267191D01*
X51826112Y-41267155D01*
X51829961Y-41260912D01*
X51829967Y-41260905D01*
X51862775Y-41190547D01*
X51897609Y-41121188D01*
X51897610Y-41121182D01*
X51900119Y-41114291D01*
X51900184Y-41114314D01*
X51902658Y-41107197D01*
X51902594Y-41107176D01*
X51904903Y-41100208D01*
X51920607Y-41024150D01*
X51935811Y-40960000D01*
X51938500Y-40948656D01*
X51938500Y-40948649D01*
X51939352Y-40941368D01*
X51939419Y-40941375D01*
X51940185Y-40933877D01*
X51940119Y-40933872D01*
X51940757Y-40926565D01*
X51940759Y-40926558D01*
X51938500Y-40848920D01*
X51938500Y-40293431D01*
X51958502Y-40225311D01*
X52009830Y-40179909D01*
X52074251Y-40148887D01*
X52295112Y-39998306D01*
X52491064Y-39816490D01*
X52657729Y-39607498D01*
X52791384Y-39376002D01*
X52802953Y-39346526D01*
X52830513Y-39276303D01*
X52889043Y-39127170D01*
X52948525Y-38866562D01*
X52968501Y-38600000D01*
X52948525Y-38333438D01*
X52909518Y-38162537D01*
X52913860Y-38091674D01*
X52955825Y-38034407D01*
X53022089Y-38008919D01*
X53032359Y-38008500D01*
X55792208Y-38008500D01*
X55860329Y-38028502D01*
X55906822Y-38082158D01*
X55916926Y-38152432D01*
X55887432Y-38217012D01*
X55827706Y-38255396D01*
X55826203Y-38255827D01*
X55655998Y-38303516D01*
X55655994Y-38303517D01*
X55404030Y-38412961D01*
X55169325Y-38555687D01*
X55100715Y-38611505D01*
X55100714Y-38611505D01*
X55825511Y-39336302D01*
X55755786Y-39375004D01*
X55601469Y-39507480D01*
X55476979Y-39668308D01*
X55464512Y-39693721D01*
X54740541Y-38969750D01*
X54610317Y-39154236D01*
X54483938Y-39398134D01*
X54391944Y-39656980D01*
X54391942Y-39656988D01*
X54336053Y-39925945D01*
X54336052Y-39925951D01*
X54317308Y-40199995D01*
X54317308Y-40200004D01*
X54336052Y-40474048D01*
X54336053Y-40474054D01*
X54391942Y-40743011D01*
X54391944Y-40743019D01*
X54483938Y-41001865D01*
X54610314Y-41245756D01*
X54610316Y-41245759D01*
X54740541Y-41430248D01*
X55466177Y-40704612D01*
X55535146Y-40815263D01*
X55675268Y-40962671D01*
X55823420Y-41065788D01*
X55100715Y-41788492D01*
X55100715Y-41788494D01*
X55169313Y-41844304D01*
X55169318Y-41844307D01*
X55404030Y-41987038D01*
X55655989Y-42096480D01*
X55920509Y-42170595D01*
X56192635Y-42207999D01*
X56192649Y-42208000D01*
X56467351Y-42208000D01*
X56467364Y-42207999D01*
X56739490Y-42170595D01*
X57004010Y-42096480D01*
X57255969Y-41987038D01*
X57490679Y-41844309D01*
X57559283Y-41788493D01*
X57559283Y-41788492D01*
X56834488Y-41063697D01*
X56904214Y-41024996D01*
X57058531Y-40892520D01*
X57183021Y-40731692D01*
X57195487Y-40706277D01*
X57919457Y-41430247D01*
X58049682Y-41245762D01*
X58049685Y-41245756D01*
X58176061Y-41001865D01*
X58268055Y-40743019D01*
X58268057Y-40743011D01*
X58323946Y-40474054D01*
X58323947Y-40474048D01*
X58342692Y-40200004D01*
X58342692Y-40199995D01*
X58323947Y-39925951D01*
X58323946Y-39925945D01*
X58268057Y-39656988D01*
X58268055Y-39656980D01*
X58176061Y-39398134D01*
X58049685Y-39154243D01*
X58049681Y-39154237D01*
X57919457Y-38969750D01*
X57193821Y-39695385D01*
X57124854Y-39584737D01*
X56984732Y-39437329D01*
X56836578Y-39334210D01*
X57559283Y-38611504D01*
X57490680Y-38555691D01*
X57255969Y-38412961D01*
X57004005Y-38303517D01*
X57004001Y-38303516D01*
X56833797Y-38255827D01*
X56773599Y-38218188D01*
X56743307Y-38153979D01*
X56752537Y-38083585D01*
X56798361Y-38029356D01*
X56866228Y-38008510D01*
X56867792Y-38008500D01*
X59093629Y-38008500D01*
X59161750Y-38028502D01*
X59182724Y-38045405D01*
X61578480Y-40441161D01*
X61612506Y-40503473D01*
X61611904Y-40559669D01*
X61576391Y-40707596D01*
X61556526Y-40960000D01*
X61576391Y-41212402D01*
X61635494Y-41458589D01*
X61729567Y-41685700D01*
X61732384Y-41692502D01*
X61864672Y-41908376D01*
X62029102Y-42100898D01*
X62221624Y-42265328D01*
X62437498Y-42397616D01*
X62671409Y-42494505D01*
X62917597Y-42553609D01*
X63170000Y-42573474D01*
X63422403Y-42553609D01*
X63668591Y-42494505D01*
X63902502Y-42397616D01*
X64118376Y-42265328D01*
X64310898Y-42100898D01*
X64475328Y-41908376D01*
X64607616Y-41692502D01*
X64704505Y-41458591D01*
X64763609Y-41212403D01*
X64783474Y-40960000D01*
X64763609Y-40707597D01*
X64704505Y-40461409D01*
X64607616Y-40227498D01*
X64475328Y-40011624D01*
X64310898Y-39819102D01*
X64118376Y-39654672D01*
X63902502Y-39522384D01*
X63668591Y-39425495D01*
X63668589Y-39425494D01*
X63462436Y-39376002D01*
X63422403Y-39366391D01*
X63170000Y-39346526D01*
X62917596Y-39366391D01*
X62769669Y-39401904D01*
X62698761Y-39398356D01*
X62651161Y-39368480D01*
X62337681Y-39055000D01*
X66636526Y-39055000D01*
X66656391Y-39307402D01*
X66715494Y-39553589D01*
X66757364Y-39654671D01*
X66812384Y-39787502D01*
X66944672Y-40003376D01*
X67109102Y-40195898D01*
X67301624Y-40360328D01*
X67517498Y-40492616D01*
X67751409Y-40589505D01*
X67997597Y-40648609D01*
X68250000Y-40668474D01*
X68502403Y-40648609D01*
X68748591Y-40589505D01*
X68982502Y-40492616D01*
X69198376Y-40360328D01*
X69390898Y-40195898D01*
X69555328Y-40003376D01*
X69687616Y-39787502D01*
X69784505Y-39553591D01*
X69843609Y-39307403D01*
X69863474Y-39055000D01*
X69843609Y-38802597D01*
X69784505Y-38556409D01*
X69687616Y-38322498D01*
X69555328Y-38106624D01*
X69390898Y-37914102D01*
X69198376Y-37749672D01*
X68982502Y-37617384D01*
X68922432Y-37592502D01*
X68748589Y-37520494D01*
X68580177Y-37480062D01*
X68502403Y-37461391D01*
X68250000Y-37441526D01*
X67997597Y-37461391D01*
X67751410Y-37520494D01*
X67517499Y-37617383D01*
X67301625Y-37749671D01*
X67109102Y-37914102D01*
X66944671Y-38106625D01*
X66812383Y-38322499D01*
X66715494Y-38556410D01*
X66656391Y-38802597D01*
X66636526Y-39055000D01*
X62337681Y-39055000D01*
X60432681Y-37150000D01*
X61557028Y-37150000D01*
X61576886Y-37402323D01*
X61635971Y-37648434D01*
X61732830Y-37882272D01*
X61864177Y-38096611D01*
X61864178Y-38096611D01*
X62566065Y-37394724D01*
X62577188Y-37428956D01*
X62665186Y-37567619D01*
X62784903Y-37680040D01*
X62923160Y-37756048D01*
X62223387Y-38455820D01*
X62223387Y-38455822D01*
X62437727Y-38587169D01*
X62671565Y-38684028D01*
X62917676Y-38743113D01*
X63170000Y-38762971D01*
X63422323Y-38743113D01*
X63668434Y-38684028D01*
X63902277Y-38587167D01*
X64116611Y-38455822D01*
X64116611Y-38455820D01*
X63413482Y-37752691D01*
X63485629Y-37724126D01*
X63618492Y-37627595D01*
X63723175Y-37501055D01*
X63773441Y-37394232D01*
X64475820Y-38096611D01*
X64475822Y-38096611D01*
X64607167Y-37882277D01*
X64704028Y-37648434D01*
X64763113Y-37402323D01*
X64782971Y-37150000D01*
X64763113Y-36897676D01*
X64704028Y-36651565D01*
X64607169Y-36417727D01*
X64475822Y-36203387D01*
X64475820Y-36203387D01*
X63773933Y-36905273D01*
X63762812Y-36871044D01*
X63674814Y-36732381D01*
X63555097Y-36619960D01*
X63416839Y-36543951D01*
X64116611Y-35844178D01*
X64116611Y-35844177D01*
X63902272Y-35712830D01*
X63668434Y-35615971D01*
X63422323Y-35556886D01*
X63170000Y-35537028D01*
X62917676Y-35556886D01*
X62671565Y-35615971D01*
X62437727Y-35712830D01*
X62223387Y-35844176D01*
X62223387Y-35844178D01*
X62926517Y-36547308D01*
X62854371Y-36575874D01*
X62721508Y-36672405D01*
X62616825Y-36798945D01*
X62566558Y-36905767D01*
X61864178Y-36203387D01*
X61864176Y-36203387D01*
X61732830Y-36417727D01*
X61635971Y-36651565D01*
X61576886Y-36897676D01*
X61557028Y-37150000D01*
X60432681Y-37150000D01*
X60041908Y-36759227D01*
X60029936Y-36745375D01*
X60015469Y-36725942D01*
X60010154Y-36721482D01*
X59975024Y-36692003D01*
X59970970Y-36688289D01*
X59965107Y-36682425D01*
X59939104Y-36661864D01*
X59926121Y-36650970D01*
X59879640Y-36611968D01*
X59879638Y-36611967D01*
X59879636Y-36611965D01*
X59873506Y-36607933D01*
X59873541Y-36607878D01*
X59867187Y-36603829D01*
X59867153Y-36603886D01*
X59860906Y-36600033D01*
X59790540Y-36567220D01*
X59784546Y-36564210D01*
X59721188Y-36532391D01*
X59721186Y-36532390D01*
X59721183Y-36532389D01*
X59714289Y-36529880D01*
X59714311Y-36529817D01*
X59707189Y-36527341D01*
X59707169Y-36527404D01*
X59700209Y-36525097D01*
X59624150Y-36509392D01*
X59548652Y-36491499D01*
X59541367Y-36490648D01*
X59541374Y-36490580D01*
X59533877Y-36489814D01*
X59533872Y-36489881D01*
X59526559Y-36489241D01*
X59526558Y-36489241D01*
X59448920Y-36491500D01*
X52594441Y-36491500D01*
X52576181Y-36490170D01*
X52552211Y-36486659D01*
X52499615Y-36491260D01*
X52494122Y-36491500D01*
X52485818Y-36491500D01*
X52463876Y-36494064D01*
X52452905Y-36495347D01*
X52443732Y-36496149D01*
X52375577Y-36502112D01*
X52368386Y-36503597D01*
X52368372Y-36503532D01*
X52361014Y-36505163D01*
X52361030Y-36505228D01*
X52353889Y-36506920D01*
X52280944Y-36533469D01*
X52207260Y-36557885D01*
X52200613Y-36560986D01*
X52200585Y-36560926D01*
X52193801Y-36564210D01*
X52193831Y-36564269D01*
X52187268Y-36567565D01*
X52122400Y-36610228D01*
X52056347Y-36650971D01*
X52050592Y-36655522D01*
X52050551Y-36655470D01*
X52044704Y-36660233D01*
X52044746Y-36660283D01*
X52039128Y-36664996D01*
X51985836Y-36721482D01*
X51840306Y-36867011D01*
X51777994Y-36901037D01*
X51714072Y-36898318D01*
X51577989Y-36856342D01*
X51577981Y-36856340D01*
X51577979Y-36856340D01*
X51313655Y-36816500D01*
X51046345Y-36816500D01*
X50782021Y-36856340D01*
X50782019Y-36856340D01*
X50782010Y-36856342D01*
X50526583Y-36935132D01*
X50285748Y-37051114D01*
X50285740Y-37051118D01*
X50064894Y-37201689D01*
X50064882Y-37201699D01*
X49868939Y-37383505D01*
X49702268Y-37592505D01*
X49568614Y-37824000D01*
X49568612Y-37824004D01*
X49470958Y-38072826D01*
X49470957Y-38072828D01*
X49411475Y-38333434D01*
X49391499Y-38600000D01*
X49411475Y-38866565D01*
X49470957Y-39127171D01*
X49470958Y-39127173D01*
X49568612Y-39375995D01*
X49568614Y-39375999D01*
X49702268Y-39607494D01*
X49702270Y-39607497D01*
X49702271Y-39607498D01*
X49741738Y-39656988D01*
X49868939Y-39816494D01*
X49986901Y-39925945D01*
X50064888Y-39998306D01*
X50064894Y-39998310D01*
X50285740Y-40148881D01*
X50285744Y-40148883D01*
X50285750Y-40148887D01*
X50350170Y-40179910D01*
X50402865Y-40227486D01*
X50421500Y-40293431D01*
X50421500Y-40493629D01*
X50401498Y-40561750D01*
X50384595Y-40582724D01*
X42362724Y-48604595D01*
X42300412Y-48638621D01*
X42273629Y-48641500D01*
X36371868Y-48641500D01*
X36303747Y-48621498D01*
X36268656Y-48587772D01*
X36246202Y-48555706D01*
X36246200Y-48555703D01*
X36246198Y-48555700D01*
X36084300Y-48393802D01*
X36033472Y-48358212D01*
X35989145Y-48302757D01*
X35981836Y-48232137D01*
X36013866Y-48168777D01*
X36033468Y-48151790D01*
X36084300Y-48116198D01*
X36246198Y-47954300D01*
X36258728Y-47936405D01*
X36268656Y-47922228D01*
X36324113Y-47877900D01*
X36371868Y-47868500D01*
X39915559Y-47868500D01*
X39933819Y-47869830D01*
X39938715Y-47870547D01*
X39957789Y-47873341D01*
X39991146Y-47870422D01*
X40010385Y-47868740D01*
X40015878Y-47868500D01*
X40024176Y-47868500D01*
X40024180Y-47868500D01*
X40050512Y-47865421D01*
X40057096Y-47864652D01*
X40063861Y-47864060D01*
X40134426Y-47857887D01*
X40134432Y-47857884D01*
X40141618Y-47856402D01*
X40141631Y-47856468D01*
X40148987Y-47854836D01*
X40148972Y-47854771D01*
X40156104Y-47853079D01*
X40156113Y-47853079D01*
X40229065Y-47826526D01*
X40302738Y-47802114D01*
X40302740Y-47802112D01*
X40309389Y-47799012D01*
X40309418Y-47799074D01*
X40316203Y-47795789D01*
X40316173Y-47795729D01*
X40322728Y-47792436D01*
X40322732Y-47792435D01*
X40387605Y-47749766D01*
X40453651Y-47709030D01*
X40453660Y-47709020D01*
X40459408Y-47704477D01*
X40459450Y-47704531D01*
X40465289Y-47699775D01*
X40465246Y-47699723D01*
X40470865Y-47695006D01*
X40470874Y-47695001D01*
X40524163Y-47638517D01*
X41980784Y-46181895D01*
X41994617Y-46169941D01*
X42014058Y-46155469D01*
X42048001Y-46115015D01*
X42051700Y-46110979D01*
X42057580Y-46105101D01*
X42078136Y-46079103D01*
X42087274Y-46068213D01*
X42128035Y-46019637D01*
X42132066Y-46013508D01*
X42132122Y-46013545D01*
X42136171Y-46007190D01*
X42136113Y-46007154D01*
X42139964Y-46000910D01*
X42139964Y-46000909D01*
X42139967Y-46000906D01*
X42172775Y-45930546D01*
X42207609Y-45861188D01*
X42207609Y-45861185D01*
X42210120Y-45854289D01*
X42210183Y-45854312D01*
X42212657Y-45847196D01*
X42212593Y-45847175D01*
X42214902Y-45840206D01*
X42230600Y-45764176D01*
X42248345Y-45689312D01*
X42248500Y-45688656D01*
X42248500Y-45688655D01*
X42249352Y-45681368D01*
X42249418Y-45681375D01*
X42250184Y-45673877D01*
X42250118Y-45673872D01*
X42250756Y-45666565D01*
X42250758Y-45666558D01*
X42248500Y-45588954D01*
X42248500Y-40200004D01*
X44017308Y-40200004D01*
X44036052Y-40474048D01*
X44036053Y-40474054D01*
X44091942Y-40743011D01*
X44091944Y-40743019D01*
X44183938Y-41001865D01*
X44310314Y-41245756D01*
X44310316Y-41245759D01*
X44440541Y-41430248D01*
X45166177Y-40704612D01*
X45235146Y-40815263D01*
X45375268Y-40962671D01*
X45523420Y-41065788D01*
X44800715Y-41788492D01*
X44800715Y-41788494D01*
X44869313Y-41844304D01*
X44869318Y-41844307D01*
X45104030Y-41987038D01*
X45355989Y-42096480D01*
X45620509Y-42170595D01*
X45892635Y-42207999D01*
X45892649Y-42208000D01*
X46167351Y-42208000D01*
X46167364Y-42207999D01*
X46439490Y-42170595D01*
X46704010Y-42096480D01*
X46955969Y-41987038D01*
X47190679Y-41844309D01*
X47259283Y-41788493D01*
X47259283Y-41788492D01*
X46534488Y-41063697D01*
X46604214Y-41024996D01*
X46758531Y-40892520D01*
X46883021Y-40731692D01*
X46895487Y-40706277D01*
X47619457Y-41430247D01*
X47749682Y-41245762D01*
X47749685Y-41245756D01*
X47876061Y-41001865D01*
X47968055Y-40743019D01*
X47968057Y-40743011D01*
X48023946Y-40474054D01*
X48023947Y-40474048D01*
X48042692Y-40200004D01*
X48042692Y-40199995D01*
X48023947Y-39925951D01*
X48023946Y-39925945D01*
X47968057Y-39656988D01*
X47968055Y-39656980D01*
X47876061Y-39398134D01*
X47749685Y-39154243D01*
X47749681Y-39154237D01*
X47619457Y-38969750D01*
X46893821Y-39695385D01*
X46824854Y-39584737D01*
X46684732Y-39437329D01*
X46536578Y-39334210D01*
X47259283Y-38611504D01*
X47190680Y-38555691D01*
X46955969Y-38412961D01*
X46704010Y-38303519D01*
X46439490Y-38229404D01*
X46167364Y-38192000D01*
X45892635Y-38192000D01*
X45620509Y-38229404D01*
X45355989Y-38303519D01*
X45104030Y-38412961D01*
X44869325Y-38555687D01*
X44800715Y-38611505D01*
X44800714Y-38611505D01*
X45525511Y-39336302D01*
X45455786Y-39375004D01*
X45301469Y-39507480D01*
X45176979Y-39668308D01*
X45164512Y-39693721D01*
X44440541Y-38969750D01*
X44310317Y-39154236D01*
X44183938Y-39398134D01*
X44091944Y-39656980D01*
X44091942Y-39656988D01*
X44036053Y-39925945D01*
X44036052Y-39925951D01*
X44017308Y-40199995D01*
X44017308Y-40200004D01*
X42248500Y-40200004D01*
X42248500Y-35245000D01*
X66636526Y-35245000D01*
X66656391Y-35497403D01*
X66675062Y-35575177D01*
X66715494Y-35743589D01*
X66757159Y-35844176D01*
X66812384Y-35977502D01*
X66944672Y-36193376D01*
X67109102Y-36385898D01*
X67301624Y-36550328D01*
X67517498Y-36682616D01*
X67751409Y-36779505D01*
X67997597Y-36838609D01*
X68250000Y-36858474D01*
X68502403Y-36838609D01*
X68748591Y-36779505D01*
X68982502Y-36682616D01*
X69198376Y-36550328D01*
X69390898Y-36385898D01*
X69555328Y-36193376D01*
X69687616Y-35977502D01*
X69784505Y-35743591D01*
X69843609Y-35497403D01*
X69863474Y-35245000D01*
X69843609Y-34992597D01*
X69784505Y-34746409D01*
X69687616Y-34512498D01*
X69555328Y-34296624D01*
X69390898Y-34104102D01*
X69198376Y-33939672D01*
X68982502Y-33807384D01*
X68748591Y-33710495D01*
X68748589Y-33710494D01*
X68580177Y-33670062D01*
X68502403Y-33651391D01*
X68250000Y-33631526D01*
X67997597Y-33651391D01*
X67751410Y-33710494D01*
X67517499Y-33807383D01*
X67301625Y-33939671D01*
X67109102Y-34104102D01*
X66944671Y-34296625D01*
X66812383Y-34512499D01*
X66715494Y-34746410D01*
X66656391Y-34992597D01*
X66636526Y-35245000D01*
X42248500Y-35245000D01*
X42248500Y-33656370D01*
X42268502Y-33588249D01*
X42285400Y-33567280D01*
X50519694Y-25332985D01*
X50582004Y-25298961D01*
X50645925Y-25301679D01*
X50746889Y-25332823D01*
X50782014Y-25343658D01*
X50782021Y-25343660D01*
X51046345Y-25383500D01*
X51046349Y-25383500D01*
X51313651Y-25383500D01*
X51313655Y-25383500D01*
X51577979Y-25343660D01*
X51714073Y-25301679D01*
X51785061Y-25300714D01*
X51840306Y-25332987D01*
X60338092Y-33830773D01*
X60350065Y-33844627D01*
X60364530Y-33864057D01*
X60404975Y-33897994D01*
X60409021Y-33901702D01*
X60414899Y-33907580D01*
X60440896Y-33928136D01*
X60500360Y-33978032D01*
X60500366Y-33978035D01*
X60506495Y-33982067D01*
X60506457Y-33982123D01*
X60512811Y-33986171D01*
X60512847Y-33986114D01*
X60519089Y-33989964D01*
X60519091Y-33989965D01*
X60519094Y-33989967D01*
X60589447Y-34022773D01*
X60658812Y-34057609D01*
X60658814Y-34057609D01*
X60665713Y-34060121D01*
X60665689Y-34060184D01*
X60672806Y-34062658D01*
X60672828Y-34062594D01*
X60679792Y-34064902D01*
X60755818Y-34080599D01*
X60831343Y-34098500D01*
X60838632Y-34099352D01*
X60838624Y-34099418D01*
X60846123Y-34100184D01*
X60846129Y-34100118D01*
X60853434Y-34100756D01*
X60853442Y-34100758D01*
X60931061Y-34098500D01*
X61677752Y-34098500D01*
X61745873Y-34118502D01*
X61785185Y-34158665D01*
X61864672Y-34288376D01*
X62029102Y-34480898D01*
X62221624Y-34645328D01*
X62437498Y-34777616D01*
X62671409Y-34874505D01*
X62917597Y-34933609D01*
X63170000Y-34953474D01*
X63422403Y-34933609D01*
X63668591Y-34874505D01*
X63902502Y-34777616D01*
X64118376Y-34645328D01*
X64310898Y-34480898D01*
X64475328Y-34288376D01*
X64607616Y-34072502D01*
X64704505Y-33838591D01*
X64763609Y-33592403D01*
X64783474Y-33340000D01*
X64763609Y-33087597D01*
X64704505Y-32841409D01*
X64607616Y-32607498D01*
X64475328Y-32391624D01*
X64310898Y-32199102D01*
X64118376Y-32034672D01*
X63902502Y-31902384D01*
X63668591Y-31805495D01*
X63668589Y-31805494D01*
X63500177Y-31765062D01*
X63422403Y-31746391D01*
X63170000Y-31726526D01*
X62917597Y-31746391D01*
X62671410Y-31805494D01*
X62437499Y-31902383D01*
X62221625Y-32034671D01*
X62029102Y-32199102D01*
X61864671Y-32391625D01*
X61785185Y-32521335D01*
X61732537Y-32568966D01*
X61677752Y-32581500D01*
X61286371Y-32581500D01*
X61218250Y-32561498D01*
X61197276Y-32544595D01*
X56072723Y-27420042D01*
X56038697Y-27357730D01*
X56043762Y-27286915D01*
X56086309Y-27230079D01*
X56152829Y-27205268D01*
X56178978Y-27206121D01*
X56192643Y-27207999D01*
X56192649Y-27208000D01*
X56467351Y-27208000D01*
X56467364Y-27207999D01*
X56739490Y-27170595D01*
X57004010Y-27096480D01*
X57255969Y-26987038D01*
X57490679Y-26844309D01*
X57559283Y-26788493D01*
X57559283Y-26788492D01*
X56834487Y-26063697D01*
X56904214Y-26024996D01*
X57058531Y-25892520D01*
X57183021Y-25731692D01*
X57195487Y-25706277D01*
X57919457Y-26430247D01*
X58049682Y-26245762D01*
X58049685Y-26245756D01*
X58176061Y-26001865D01*
X58268055Y-25743019D01*
X58268057Y-25743011D01*
X58323946Y-25474054D01*
X58323947Y-25474048D01*
X58342692Y-25200004D01*
X58342692Y-25199995D01*
X58323947Y-24925951D01*
X58323946Y-24925945D01*
X58268057Y-24656988D01*
X58268055Y-24656980D01*
X58176061Y-24398134D01*
X58049685Y-24154243D01*
X58049681Y-24154237D01*
X57919457Y-23969750D01*
X57193821Y-24695385D01*
X57124854Y-24584737D01*
X56984732Y-24437329D01*
X56836578Y-24334210D01*
X57559283Y-23611504D01*
X57490680Y-23555691D01*
X57255969Y-23412961D01*
X57004010Y-23303519D01*
X56739490Y-23229404D01*
X56467364Y-23192000D01*
X56192635Y-23192000D01*
X55920509Y-23229404D01*
X55655989Y-23303519D01*
X55404030Y-23412961D01*
X55169325Y-23555687D01*
X55100715Y-23611505D01*
X55100714Y-23611505D01*
X55825511Y-24336302D01*
X55755786Y-24375004D01*
X55601469Y-24507480D01*
X55476979Y-24668308D01*
X55464512Y-24693722D01*
X54740541Y-23969750D01*
X54610317Y-24154236D01*
X54483938Y-24398134D01*
X54391944Y-24656980D01*
X54391942Y-24656988D01*
X54336053Y-24925945D01*
X54336052Y-24925951D01*
X54317308Y-25199995D01*
X54317308Y-25200004D01*
X54328477Y-25363302D01*
X54313170Y-25432629D01*
X54262812Y-25482675D01*
X54193391Y-25497550D01*
X54126949Y-25472533D01*
X54113676Y-25460995D01*
X52916601Y-24263920D01*
X52882575Y-24201608D01*
X52887640Y-24130793D01*
X52888412Y-24128778D01*
X52888529Y-24128480D01*
X52889043Y-24127170D01*
X52948525Y-23866562D01*
X52968501Y-23600000D01*
X52948525Y-23333438D01*
X52889043Y-23072830D01*
X52825588Y-22911149D01*
X52791387Y-22824004D01*
X52791385Y-22824000D01*
X52770888Y-22788499D01*
X52722914Y-22705405D01*
X52657731Y-22592505D01*
X52657099Y-22591713D01*
X52491064Y-22383510D01*
X52491063Y-22383509D01*
X52491060Y-22383505D01*
X52295117Y-22201699D01*
X52295111Y-22201693D01*
X52221491Y-22151500D01*
X52074251Y-22051113D01*
X51944620Y-21988686D01*
X51833416Y-21935132D01*
X51833404Y-21935127D01*
X51577989Y-21856342D01*
X51577981Y-21856340D01*
X51577979Y-21856340D01*
X51313655Y-21816500D01*
X51046345Y-21816500D01*
X50782021Y-21856340D01*
X50782019Y-21856340D01*
X50782010Y-21856342D01*
X50526583Y-21935132D01*
X50285748Y-22051114D01*
X50285740Y-22051118D01*
X50064894Y-22201689D01*
X50064882Y-22201699D01*
X49868939Y-22383505D01*
X49702268Y-22592505D01*
X49568614Y-22824000D01*
X49568612Y-22824004D01*
X49470958Y-23072826D01*
X49470957Y-23072828D01*
X49411475Y-23333434D01*
X49391499Y-23600000D01*
X49411475Y-23866565D01*
X49470956Y-24127169D01*
X49471594Y-24128793D01*
X49471648Y-24129413D01*
X49472346Y-24131673D01*
X49471862Y-24131822D01*
X49477860Y-24199513D01*
X49444898Y-24262394D01*
X49443398Y-24263919D01*
X48246323Y-25460993D01*
X48184011Y-25495019D01*
X48113195Y-25489954D01*
X48056360Y-25447407D01*
X48031549Y-25380887D01*
X48031522Y-25363299D01*
X48042692Y-25200003D01*
X48042692Y-25199995D01*
X48023947Y-24925951D01*
X48023946Y-24925945D01*
X47968057Y-24656988D01*
X47968055Y-24656980D01*
X47876061Y-24398134D01*
X47749685Y-24154243D01*
X47749681Y-24154237D01*
X47619457Y-23969751D01*
X46893822Y-24695386D01*
X46824854Y-24584737D01*
X46684732Y-24437329D01*
X46536578Y-24334210D01*
X47259283Y-23611504D01*
X47190680Y-23555691D01*
X46955969Y-23412961D01*
X46704010Y-23303519D01*
X46439490Y-23229404D01*
X46167364Y-23192000D01*
X45892635Y-23192000D01*
X45620509Y-23229404D01*
X45355989Y-23303519D01*
X45104030Y-23412961D01*
X44869325Y-23555687D01*
X44800715Y-23611505D01*
X44800714Y-23611505D01*
X45525511Y-24336302D01*
X45455786Y-24375004D01*
X45301469Y-24507480D01*
X45176979Y-24668308D01*
X45164512Y-24693721D01*
X44440541Y-23969750D01*
X44310317Y-24154236D01*
X44183938Y-24398134D01*
X44091944Y-24656980D01*
X44091942Y-24656988D01*
X44036053Y-24925945D01*
X44036052Y-24925951D01*
X44017308Y-25199995D01*
X44017308Y-25200004D01*
X44036052Y-25474048D01*
X44036053Y-25474054D01*
X44091942Y-25743011D01*
X44091944Y-25743019D01*
X44183938Y-26001865D01*
X44310314Y-26245756D01*
X44310316Y-26245759D01*
X44440541Y-26430248D01*
X45166177Y-25704612D01*
X45235146Y-25815263D01*
X45375268Y-25962671D01*
X45523420Y-26065788D01*
X44800715Y-26788493D01*
X44800715Y-26788494D01*
X44869313Y-26844304D01*
X44869318Y-26844307D01*
X45104030Y-26987038D01*
X45355989Y-27096480D01*
X45620509Y-27170595D01*
X45892635Y-27207999D01*
X45892649Y-27208000D01*
X46167350Y-27208000D01*
X46181016Y-27206121D01*
X46251226Y-27216658D01*
X46304595Y-27263480D01*
X46324177Y-27331723D01*
X46303755Y-27399719D01*
X46287274Y-27420042D01*
X40999225Y-32708092D01*
X40985376Y-32720062D01*
X40965943Y-32734530D01*
X40932007Y-32774971D01*
X40928300Y-32779017D01*
X40922421Y-32784897D01*
X40922412Y-32784907D01*
X40901863Y-32810896D01*
X40876260Y-32841410D01*
X40851965Y-32870364D01*
X40847935Y-32876491D01*
X40847880Y-32876455D01*
X40843825Y-32882820D01*
X40843882Y-32882855D01*
X40840028Y-32889101D01*
X40807220Y-32959458D01*
X40772391Y-33028812D01*
X40769882Y-33035707D01*
X40769820Y-33035684D01*
X40767343Y-33042810D01*
X40767404Y-33042831D01*
X40765097Y-33049790D01*
X40749392Y-33125849D01*
X40731500Y-33201345D01*
X40730648Y-33208634D01*
X40730581Y-33208626D01*
X40729814Y-33216126D01*
X40729881Y-33216132D01*
X40729241Y-33223442D01*
X40731500Y-33301079D01*
X40731500Y-45233629D01*
X40711498Y-45301750D01*
X40694595Y-45322724D01*
X39702724Y-46314595D01*
X39640412Y-46348621D01*
X39613629Y-46351500D01*
X36371868Y-46351500D01*
X36303747Y-46331498D01*
X36268656Y-46297772D01*
X36246202Y-46265706D01*
X36246200Y-46265703D01*
X36246198Y-46265700D01*
X36084300Y-46103802D01*
X36033472Y-46068212D01*
X35989145Y-46012757D01*
X35981836Y-45942137D01*
X36013866Y-45878777D01*
X36033468Y-45861790D01*
X36084300Y-45826198D01*
X36246198Y-45664300D01*
X36377523Y-45476749D01*
X36474284Y-45269243D01*
X36533543Y-45048087D01*
X36553498Y-44820000D01*
X36533543Y-44591913D01*
X36474284Y-44370757D01*
X36377523Y-44163251D01*
X36246198Y-43975700D01*
X36084300Y-43813802D01*
X35896749Y-43682477D01*
X35864680Y-43667523D01*
X35689246Y-43585717D01*
X35689240Y-43585715D01*
X35595771Y-43560670D01*
X35468087Y-43526457D01*
X35240000Y-43506502D01*
X35011913Y-43526457D01*
X34790759Y-43585715D01*
X34790753Y-43585717D01*
X34583250Y-43682477D01*
X34395703Y-43813799D01*
X34395697Y-43813804D01*
X34233804Y-43975697D01*
X34233799Y-43975703D01*
X34102477Y-44163250D01*
X34005717Y-44370753D01*
X34005715Y-44370759D01*
X33946457Y-44591913D01*
X33926502Y-44820000D01*
X33946539Y-45049025D01*
X33932550Y-45118629D01*
X33883150Y-45169622D01*
X33814024Y-45185812D01*
X33747119Y-45162059D01*
X33717804Y-45132275D01*
X33706202Y-45115705D01*
X33706195Y-45115697D01*
X33544302Y-44953804D01*
X33544296Y-44953799D01*
X33356749Y-44822477D01*
X33149246Y-44725717D01*
X33149240Y-44725715D01*
X33055771Y-44700670D01*
X32928087Y-44666457D01*
X32700000Y-44646502D01*
X32471913Y-44666457D01*
X32250759Y-44725715D01*
X32250753Y-44725717D01*
X32043250Y-44822477D01*
X31855703Y-44953799D01*
X31855697Y-44953804D01*
X31693804Y-45115697D01*
X31693796Y-45115706D01*
X31682193Y-45132278D01*
X31626735Y-45176606D01*
X31556116Y-45183914D01*
X31492756Y-45151882D01*
X31456772Y-45090680D01*
X31453460Y-45049024D01*
X31453541Y-45048092D01*
X31453543Y-45048087D01*
X31473498Y-44820000D01*
X31453543Y-44591913D01*
X31394284Y-44370757D01*
X31297523Y-44163251D01*
X31166198Y-43975700D01*
X31004300Y-43813802D01*
X30953472Y-43778212D01*
X30909145Y-43722757D01*
X30901836Y-43652137D01*
X30933866Y-43588777D01*
X30953468Y-43571790D01*
X31004300Y-43536198D01*
X31166198Y-43374300D01*
X31297523Y-43186749D01*
X31394284Y-42979243D01*
X31453543Y-42758087D01*
X31473498Y-42530000D01*
X31453543Y-42301913D01*
X31394284Y-42080757D01*
X31297523Y-41873251D01*
X31166198Y-41685700D01*
X31004300Y-41523802D01*
X30911166Y-41458589D01*
X30816749Y-41392477D01*
X30609246Y-41295717D01*
X30609240Y-41295715D01*
X30502653Y-41267155D01*
X30388087Y-41236457D01*
X30160000Y-41216502D01*
X29931913Y-41236457D01*
X29710759Y-41295715D01*
X29710753Y-41295717D01*
X29503250Y-41392477D01*
X29315703Y-41523799D01*
X29315697Y-41523804D01*
X29153804Y-41685697D01*
X29153799Y-41685703D01*
X29022477Y-41873250D01*
X28925717Y-42080753D01*
X28925715Y-42080759D01*
X28901644Y-42170595D01*
X28866457Y-42301913D01*
X28846502Y-42530000D01*
X28866457Y-42758087D01*
X28925716Y-42979243D01*
X29022477Y-43186749D01*
X29153802Y-43374300D01*
X29315700Y-43536198D01*
X29315703Y-43536200D01*
X29366526Y-43571787D01*
X29410854Y-43627244D01*
X29418163Y-43697864D01*
X29386132Y-43761224D01*
X29366526Y-43778213D01*
X29315703Y-43813799D01*
X29315697Y-43813804D01*
X29153804Y-43975697D01*
X29153799Y-43975703D01*
X29022477Y-44163250D01*
X28925717Y-44370753D01*
X28925716Y-44370757D01*
X28866457Y-44591913D01*
X28846502Y-44820000D01*
X28866457Y-45048087D01*
X28877870Y-45090680D01*
X28925715Y-45269240D01*
X28925717Y-45269246D01*
X29022477Y-45476749D01*
X29106036Y-45596084D01*
X29153802Y-45664300D01*
X29315700Y-45826198D01*
X29315703Y-45826200D01*
X29366526Y-45861787D01*
X29410854Y-45917244D01*
X29418163Y-45987864D01*
X29386132Y-46051224D01*
X29366526Y-46068213D01*
X29315703Y-46103799D01*
X29315697Y-46103804D01*
X29153804Y-46265697D01*
X29153799Y-46265703D01*
X29022477Y-46453250D01*
X28925717Y-46660753D01*
X28925715Y-46660759D01*
X28867933Y-46876403D01*
X28866457Y-46881913D01*
X28846502Y-47110000D01*
X28852725Y-47181135D01*
X28866457Y-47338086D01*
X28925715Y-47559240D01*
X28925717Y-47559246D01*
X29022477Y-47766749D01*
X29143948Y-47940228D01*
X29153802Y-47954300D01*
X29315700Y-48116198D01*
X29315703Y-48116200D01*
X29366526Y-48151787D01*
X29410854Y-48207244D01*
X29418163Y-48277864D01*
X29386132Y-48341224D01*
X29366526Y-48358213D01*
X29315703Y-48393799D01*
X29315697Y-48393804D01*
X29153804Y-48555697D01*
X29153799Y-48555703D01*
X29022477Y-48743250D01*
X28925717Y-48950753D01*
X28925715Y-48950759D01*
X28866457Y-49171913D01*
X28846502Y-49400000D01*
X28866457Y-49628086D01*
X28925715Y-49849240D01*
X28925717Y-49849246D01*
X29022477Y-50056749D01*
X29083833Y-50144375D01*
X29153802Y-50244300D01*
X29315700Y-50406198D01*
X29315703Y-50406200D01*
X29366526Y-50441787D01*
X29410854Y-50497244D01*
X29418163Y-50567864D01*
X29386132Y-50631224D01*
X29366526Y-50648213D01*
X29315703Y-50683799D01*
X29315697Y-50683804D01*
X29153804Y-50845697D01*
X29153799Y-50845703D01*
X29022477Y-51033250D01*
X28925717Y-51240753D01*
X28925715Y-51240759D01*
X28871421Y-51443387D01*
X28866457Y-51461913D01*
X28846502Y-51690000D01*
X28866457Y-51918087D01*
X28881005Y-51972381D01*
X28925715Y-52139240D01*
X28925717Y-52139246D01*
X29022477Y-52346749D01*
X29141998Y-52517443D01*
X29153802Y-52534300D01*
X29315700Y-52696198D01*
X29503251Y-52827523D01*
X29710757Y-52924284D01*
X29931913Y-52983543D01*
X30160000Y-53003498D01*
X30388087Y-52983543D01*
X30609243Y-52924284D01*
X30816749Y-52827523D01*
X31004300Y-52696198D01*
X31166198Y-52534300D01*
X31297523Y-52346749D01*
X31394284Y-52139243D01*
X31453543Y-51918087D01*
X31473498Y-51690000D01*
X31453543Y-51461913D01*
X31394284Y-51240757D01*
X31297523Y-51033251D01*
X31166198Y-50845700D01*
X31004300Y-50683802D01*
X30953472Y-50648212D01*
X30909145Y-50592757D01*
X30901836Y-50522137D01*
X30933866Y-50458777D01*
X30953468Y-50441790D01*
X31004300Y-50406198D01*
X31166198Y-50244300D01*
X31297523Y-50056749D01*
X31394284Y-49849243D01*
X31453543Y-49628087D01*
X31473498Y-49400000D01*
X31453543Y-49171913D01*
X31394284Y-48950757D01*
X31297523Y-48743251D01*
X31166198Y-48555700D01*
X31004300Y-48393802D01*
X30953472Y-48358212D01*
X30909145Y-48302757D01*
X30901836Y-48232137D01*
X30933866Y-48168777D01*
X30953468Y-48151790D01*
X31004300Y-48116198D01*
X31166198Y-47954300D01*
X31297523Y-47766749D01*
X31394284Y-47559243D01*
X31453543Y-47338087D01*
X31473498Y-47110000D01*
X31453543Y-46881913D01*
X31453539Y-46881900D01*
X31453080Y-46879293D01*
X31453210Y-46878120D01*
X31453063Y-46876433D01*
X31453401Y-46876403D01*
X31460940Y-46808733D01*
X31505700Y-46753624D01*
X31573150Y-46731462D01*
X31641873Y-46749284D01*
X31680375Y-46785125D01*
X31693800Y-46804298D01*
X31693802Y-46804300D01*
X31855700Y-46966198D01*
X32043251Y-47097523D01*
X32250757Y-47194284D01*
X32471913Y-47253543D01*
X32700000Y-47273498D01*
X32928087Y-47253543D01*
X33147891Y-47194646D01*
X33218865Y-47196336D01*
X33277661Y-47236130D01*
X33305609Y-47301394D01*
X33306500Y-47316353D01*
X33306500Y-52517443D01*
X33306385Y-52521248D01*
X33302736Y-52581572D01*
X33313628Y-52641011D01*
X33314201Y-52644774D01*
X33321485Y-52704769D01*
X33321488Y-52704778D01*
X33324833Y-52713600D01*
X33330954Y-52735554D01*
X33332655Y-52744836D01*
X33332656Y-52744839D01*
X33357456Y-52799941D01*
X33358913Y-52803458D01*
X33380345Y-52859970D01*
X33380346Y-52859973D01*
X33385704Y-52867735D01*
X33396907Y-52887599D01*
X33400774Y-52896193D01*
X33400776Y-52896196D01*
X33400777Y-52896197D01*
X33436201Y-52941413D01*
X33438045Y-52943766D01*
X33440292Y-52946819D01*
X33455911Y-52969448D01*
X33474633Y-52996571D01*
X33474634Y-52996572D01*
X33474635Y-52996573D01*
X33519880Y-53036656D01*
X33522626Y-53039241D01*
X37988713Y-57505328D01*
X42423078Y-61939693D01*
X42457104Y-62002005D01*
X42452039Y-62072820D01*
X42409492Y-62129656D01*
X42342972Y-62154467D01*
X42273598Y-62139376D01*
X42257731Y-62129096D01*
X42231318Y-62109017D01*
X42231312Y-62109013D01*
X41928551Y-61926848D01*
X41898278Y-61912842D01*
X41607884Y-61778490D01*
X41607865Y-61778482D01*
X41273030Y-61665664D01*
X41273029Y-61665663D01*
X41273021Y-61665661D01*
X41273016Y-61665659D01*
X41273013Y-61665659D01*
X40927957Y-61589706D01*
X40927944Y-61589703D01*
X40927941Y-61589703D01*
X40927938Y-61589702D01*
X40927929Y-61589701D01*
X40576678Y-61551500D01*
X40576671Y-61551500D01*
X40223329Y-61551500D01*
X40223321Y-61551500D01*
X39872070Y-61589701D01*
X39872042Y-61589706D01*
X39526986Y-61665659D01*
X39526969Y-61665664D01*
X39192134Y-61778482D01*
X39192115Y-61778490D01*
X38871454Y-61926845D01*
X38871447Y-61926849D01*
X38568687Y-62109013D01*
X38568681Y-62109017D01*
X38287393Y-62322846D01*
X38287378Y-62322859D01*
X38030873Y-62565835D01*
X38030869Y-62565840D01*
X37802121Y-62835143D01*
X37603830Y-63127600D01*
X37603827Y-63127605D01*
X37603826Y-63127607D01*
X37438321Y-63439784D01*
X37438317Y-63439793D01*
X37307537Y-63768027D01*
X37213006Y-64108494D01*
X37155844Y-64457176D01*
X37136714Y-64809997D01*
X37136714Y-64810002D01*
X37155844Y-65162823D01*
X37213006Y-65511505D01*
X37237577Y-65600000D01*
X37307537Y-65851972D01*
X37438322Y-66180218D01*
X37603830Y-66492400D01*
X37802121Y-66784857D01*
X38030869Y-67054160D01*
X38030872Y-67054162D01*
X38030873Y-67054164D01*
X38287378Y-67297140D01*
X38287393Y-67297153D01*
X38568686Y-67510986D01*
X38871449Y-67693152D01*
X39028164Y-67765656D01*
X39192115Y-67841509D01*
X39192122Y-67841512D01*
X39192133Y-67841517D01*
X39526979Y-67954339D01*
X39872059Y-68030297D01*
X40194166Y-68065328D01*
X40220929Y-68068239D01*
X40286488Y-68095489D01*
X40326907Y-68153856D01*
X40329354Y-68224811D01*
X40293051Y-68285824D01*
X40229525Y-68317525D01*
X40207306Y-68319500D01*
X25436500Y-68319500D01*
X25368379Y-68299498D01*
X25321886Y-68245842D01*
X25310500Y-68193500D01*
X25310500Y-22625587D01*
X25330502Y-22557466D01*
X25384158Y-22510973D01*
X25454432Y-22500869D01*
X25519012Y-22530363D01*
X25527467Y-22538403D01*
X25606409Y-22620770D01*
X25606408Y-22620770D01*
X25799105Y-22763287D01*
X26013123Y-22871193D01*
X26013129Y-22871195D01*
X26242290Y-22941374D01*
X26286000Y-22946971D01*
X26286000Y-21991115D01*
X26330156Y-22019493D01*
X26468111Y-22060000D01*
X26611889Y-22060000D01*
X26749844Y-22019493D01*
X26794000Y-21991115D01*
X26794000Y-22945586D01*
X26953789Y-22911149D01*
X27176177Y-22821785D01*
X27380274Y-22696117D01*
X27560186Y-22537776D01*
X27710758Y-22351295D01*
X27827649Y-22142052D01*
X27907493Y-21916075D01*
X27907493Y-21916074D01*
X27948000Y-21679834D01*
X27948000Y-21314000D01*
X27040000Y-21314000D01*
X27040000Y-20806000D01*
X27948001Y-20806000D01*
X27957185Y-20796815D01*
X27968002Y-20759977D01*
X28021658Y-20713484D01*
X28091932Y-20703380D01*
X28148922Y-20726794D01*
X28198843Y-20763715D01*
X28412933Y-20871657D01*
X28412942Y-20871660D01*
X28412945Y-20871661D01*
X28564605Y-20918105D01*
X28616806Y-20949487D01*
X30188092Y-22520773D01*
X30200065Y-22534627D01*
X30214530Y-22554057D01*
X30254975Y-22587994D01*
X30259021Y-22591702D01*
X30264900Y-22597581D01*
X30290895Y-22618135D01*
X30350360Y-22668032D01*
X30350366Y-22668035D01*
X30356495Y-22672067D01*
X30356458Y-22672122D01*
X30362811Y-22676169D01*
X30362847Y-22676113D01*
X30369092Y-22679965D01*
X30369095Y-22679967D01*
X30439452Y-22712775D01*
X30508812Y-22747609D01*
X30508813Y-22747609D01*
X30508817Y-22747611D01*
X30515713Y-22750121D01*
X30515689Y-22750185D01*
X30522805Y-22752659D01*
X30522827Y-22752595D01*
X30529791Y-22754903D01*
X30605849Y-22770607D01*
X30636561Y-22777886D01*
X30681344Y-22788500D01*
X30681350Y-22788500D01*
X30688633Y-22789352D01*
X30688625Y-22789419D01*
X30696122Y-22790185D01*
X30696128Y-22790119D01*
X30703435Y-22790757D01*
X30703442Y-22790759D01*
X30781080Y-22788500D01*
X42275559Y-22788500D01*
X42293819Y-22789830D01*
X42298715Y-22790547D01*
X42317789Y-22793341D01*
X42351146Y-22790422D01*
X42370385Y-22788740D01*
X42375878Y-22788500D01*
X42384176Y-22788500D01*
X42384180Y-22788500D01*
X42410512Y-22785421D01*
X42417096Y-22784652D01*
X42423861Y-22784060D01*
X42494426Y-22777887D01*
X42494432Y-22777884D01*
X42501618Y-22776402D01*
X42501631Y-22776468D01*
X42508987Y-22774836D01*
X42508972Y-22774771D01*
X42516104Y-22773079D01*
X42516113Y-22773079D01*
X42589065Y-22746526D01*
X42662738Y-22722114D01*
X42662740Y-22722112D01*
X42669389Y-22719012D01*
X42669418Y-22719074D01*
X42676203Y-22715789D01*
X42676173Y-22715729D01*
X42682728Y-22712436D01*
X42682732Y-22712435D01*
X42747605Y-22669766D01*
X42813651Y-22629030D01*
X42813660Y-22629020D01*
X42819408Y-22624477D01*
X42819450Y-22624531D01*
X42825289Y-22619775D01*
X42825246Y-22619723D01*
X42830865Y-22615006D01*
X42830874Y-22615001D01*
X42884163Y-22558517D01*
X44207276Y-21235405D01*
X44269588Y-21201379D01*
X44296371Y-21198500D01*
X57523629Y-21198500D01*
X57591750Y-21218502D01*
X57612724Y-21235405D01*
X61578480Y-25201161D01*
X61612506Y-25263473D01*
X61611904Y-25319669D01*
X61576391Y-25467596D01*
X61575883Y-25474048D01*
X61556526Y-25720000D01*
X61576391Y-25972403D01*
X61595062Y-26050177D01*
X61635494Y-26218589D01*
X61677159Y-26319176D01*
X61732384Y-26452502D01*
X61864672Y-26668376D01*
X62029102Y-26860898D01*
X62221624Y-27025328D01*
X62437498Y-27157616D01*
X62671409Y-27254505D01*
X62917597Y-27313609D01*
X63170000Y-27333474D01*
X63422403Y-27313609D01*
X63570330Y-27278095D01*
X63641237Y-27281642D01*
X63688838Y-27311519D01*
X64884595Y-28507276D01*
X64918621Y-28569588D01*
X64921500Y-28596371D01*
X64921500Y-28800559D01*
X64920170Y-28818819D01*
X64916659Y-28842786D01*
X64916659Y-28842794D01*
X64921260Y-28895372D01*
X64921500Y-28900866D01*
X64921500Y-28909182D01*
X64921727Y-28911126D01*
X64921641Y-28911623D01*
X64921713Y-28912846D01*
X64921430Y-28912862D01*
X64909764Y-28981108D01*
X64861866Y-29033513D01*
X64793239Y-29051703D01*
X64725672Y-29029903D01*
X64680618Y-28975034D01*
X64680169Y-28973965D01*
X64607169Y-28797727D01*
X64475822Y-28583387D01*
X64475820Y-28583387D01*
X63773933Y-29285273D01*
X63762812Y-29251044D01*
X63674814Y-29112381D01*
X63555097Y-28999960D01*
X63416839Y-28923951D01*
X64116611Y-28224178D01*
X64116611Y-28224177D01*
X63902272Y-28092830D01*
X63668434Y-27995971D01*
X63422323Y-27936886D01*
X63170000Y-27917028D01*
X62917676Y-27936886D01*
X62671565Y-27995971D01*
X62437727Y-28092830D01*
X62223387Y-28224176D01*
X62223387Y-28224178D01*
X62926517Y-28927308D01*
X62854371Y-28955874D01*
X62721508Y-29052405D01*
X62616825Y-29178945D01*
X62566558Y-29285767D01*
X61864178Y-28583387D01*
X61864176Y-28583387D01*
X61732830Y-28797727D01*
X61635971Y-29031565D01*
X61576886Y-29277676D01*
X61557028Y-29530000D01*
X61576886Y-29782323D01*
X61635971Y-30028434D01*
X61732830Y-30262272D01*
X61864177Y-30476611D01*
X61864178Y-30476611D01*
X62566065Y-29774724D01*
X62577188Y-29808956D01*
X62665186Y-29947619D01*
X62784903Y-30060040D01*
X62923160Y-30136048D01*
X62223387Y-30835820D01*
X62223387Y-30835822D01*
X62437727Y-30967169D01*
X62671565Y-31064028D01*
X62917676Y-31123113D01*
X63170000Y-31142971D01*
X63422323Y-31123113D01*
X63668434Y-31064028D01*
X63902277Y-30967167D01*
X64116611Y-30835822D01*
X64116611Y-30835820D01*
X63413482Y-30132691D01*
X63485629Y-30104126D01*
X63618492Y-30007595D01*
X63723175Y-29881055D01*
X63773441Y-29774232D01*
X64475820Y-30476611D01*
X64475822Y-30476611D01*
X64607167Y-30262277D01*
X64704028Y-30028434D01*
X64763113Y-29782323D01*
X64782971Y-29530000D01*
X64763449Y-29281941D01*
X64778045Y-29212461D01*
X64827888Y-29161901D01*
X64897152Y-29146315D01*
X64963848Y-29170650D01*
X64994333Y-29202817D01*
X64997564Y-29207730D01*
X64997565Y-29207732D01*
X65004393Y-29218113D01*
X65040233Y-29272606D01*
X65080967Y-29338647D01*
X65085522Y-29344408D01*
X65085468Y-29344450D01*
X65090228Y-29350292D01*
X65090279Y-29350250D01*
X65094993Y-29355868D01*
X65151482Y-29409163D01*
X66658480Y-30916161D01*
X66692505Y-30978473D01*
X66691904Y-31034669D01*
X66656391Y-31182596D01*
X66636526Y-31435000D01*
X66656391Y-31687402D01*
X66715494Y-31933589D01*
X66757364Y-32034671D01*
X66812384Y-32167502D01*
X66944672Y-32383376D01*
X67109102Y-32575898D01*
X67301624Y-32740328D01*
X67517498Y-32872616D01*
X67751409Y-32969505D01*
X67997597Y-33028609D01*
X68250000Y-33048474D01*
X68502403Y-33028609D01*
X68748591Y-32969505D01*
X68982502Y-32872616D01*
X69198376Y-32740328D01*
X69390898Y-32575898D01*
X69555328Y-32383376D01*
X69687616Y-32167502D01*
X69784505Y-31933591D01*
X69843609Y-31687403D01*
X69863474Y-31435000D01*
X69843609Y-31182597D01*
X69784505Y-30936409D01*
X69687616Y-30702498D01*
X69555328Y-30486624D01*
X69390898Y-30294102D01*
X69198376Y-30129672D01*
X68982502Y-29997384D01*
X68748591Y-29900495D01*
X68748589Y-29900494D01*
X68580177Y-29860062D01*
X68502403Y-29841391D01*
X68250000Y-29821526D01*
X67997596Y-29841391D01*
X67849669Y-29876904D01*
X67778761Y-29873356D01*
X67731161Y-29843480D01*
X66475405Y-28587724D01*
X66441379Y-28525412D01*
X66438500Y-28498629D01*
X66438500Y-28294435D01*
X66439831Y-28276172D01*
X66443340Y-28252216D01*
X66443341Y-28252211D01*
X66440875Y-28224027D01*
X66438740Y-28199614D01*
X66438500Y-28194121D01*
X66438500Y-28185819D01*
X66434652Y-28152905D01*
X66432074Y-28123434D01*
X66427887Y-28075574D01*
X66427885Y-28075570D01*
X66426403Y-28068388D01*
X66426469Y-28068374D01*
X66424837Y-28061012D01*
X66424772Y-28061028D01*
X66423080Y-28053890D01*
X66396526Y-27980934D01*
X66381930Y-27936886D01*
X66372114Y-27907262D01*
X66372109Y-27907255D01*
X66369012Y-27900611D01*
X66369074Y-27900581D01*
X66365788Y-27893795D01*
X66365728Y-27893826D01*
X66362433Y-27887265D01*
X66319766Y-27822394D01*
X66279031Y-27756351D01*
X66279030Y-27756349D01*
X66279027Y-27756346D01*
X66274478Y-27750592D01*
X66274531Y-27750549D01*
X66269766Y-27744700D01*
X66269715Y-27744744D01*
X66264998Y-27739122D01*
X66208518Y-27685837D01*
X66147681Y-27625000D01*
X66637028Y-27625000D01*
X66656886Y-27877323D01*
X66715971Y-28123434D01*
X66812830Y-28357272D01*
X66944177Y-28571611D01*
X66944178Y-28571611D01*
X67646065Y-27869724D01*
X67657188Y-27903956D01*
X67745186Y-28042619D01*
X67864903Y-28155040D01*
X68003160Y-28231048D01*
X67303387Y-28930820D01*
X67303387Y-28930822D01*
X67517727Y-29062169D01*
X67751565Y-29159028D01*
X67997676Y-29218113D01*
X68250000Y-29237971D01*
X68502323Y-29218113D01*
X68748434Y-29159028D01*
X68982277Y-29062167D01*
X69196611Y-28930822D01*
X69196611Y-28930820D01*
X68493482Y-28227691D01*
X68565629Y-28199126D01*
X68698492Y-28102595D01*
X68803175Y-27976055D01*
X68853441Y-27869232D01*
X69555820Y-28571611D01*
X69555822Y-28571611D01*
X69687167Y-28357277D01*
X69784028Y-28123434D01*
X69843113Y-27877323D01*
X69862971Y-27625000D01*
X69843113Y-27372676D01*
X69784028Y-27126565D01*
X69687169Y-26892727D01*
X69555822Y-26678387D01*
X69555820Y-26678387D01*
X68853933Y-27380273D01*
X68842812Y-27346044D01*
X68754814Y-27207381D01*
X68635097Y-27094960D01*
X68496839Y-27018951D01*
X69196611Y-26319178D01*
X69196611Y-26319177D01*
X68982272Y-26187830D01*
X68748434Y-26090971D01*
X68502323Y-26031886D01*
X68250000Y-26012028D01*
X67997676Y-26031886D01*
X67751565Y-26090971D01*
X67517727Y-26187830D01*
X67303387Y-26319176D01*
X67303387Y-26319178D01*
X68006517Y-27022308D01*
X67934371Y-27050874D01*
X67801508Y-27147405D01*
X67696825Y-27273945D01*
X67646558Y-27380767D01*
X66944178Y-26678387D01*
X66944176Y-26678387D01*
X66812830Y-26892727D01*
X66715971Y-27126565D01*
X66656886Y-27372676D01*
X66637028Y-27625000D01*
X66147681Y-27625000D01*
X64761519Y-26238838D01*
X64727494Y-26176526D01*
X64728095Y-26120329D01*
X64763609Y-25972403D01*
X64783474Y-25720000D01*
X64763609Y-25467597D01*
X64704505Y-25221409D01*
X64607616Y-24987498D01*
X64475328Y-24771624D01*
X64310898Y-24579102D01*
X64118376Y-24414672D01*
X63902502Y-24282384D01*
X63887822Y-24276303D01*
X63668589Y-24185494D01*
X63500177Y-24145062D01*
X63422403Y-24126391D01*
X63170000Y-24106526D01*
X62917596Y-24126391D01*
X62769669Y-24161904D01*
X62698761Y-24158356D01*
X62651161Y-24128480D01*
X60432681Y-21910000D01*
X61556526Y-21910000D01*
X61567632Y-22051118D01*
X61576391Y-22162402D01*
X61635494Y-22408589D01*
X61726805Y-22629032D01*
X61732384Y-22642502D01*
X61864672Y-22858376D01*
X62029102Y-23050898D01*
X62221624Y-23215328D01*
X62437498Y-23347616D01*
X62671409Y-23444505D01*
X62917597Y-23503609D01*
X63170000Y-23523474D01*
X63422403Y-23503609D01*
X63668591Y-23444505D01*
X63902502Y-23347616D01*
X64118376Y-23215328D01*
X64310898Y-23050898D01*
X64475328Y-22858376D01*
X64554815Y-22728665D01*
X64607463Y-22681034D01*
X64662248Y-22668500D01*
X65978629Y-22668500D01*
X66046750Y-22688502D01*
X66067724Y-22705405D01*
X66658480Y-23296161D01*
X66692506Y-23358473D01*
X66691904Y-23414669D01*
X66665783Y-23523474D01*
X66656391Y-23562597D01*
X66636526Y-23815000D01*
X66656391Y-24067403D01*
X66671821Y-24131673D01*
X66715494Y-24313589D01*
X66757364Y-24414671D01*
X66812384Y-24547502D01*
X66944672Y-24763376D01*
X67109102Y-24955898D01*
X67301624Y-25120328D01*
X67517498Y-25252616D01*
X67751409Y-25349505D01*
X67997597Y-25408609D01*
X68250000Y-25428474D01*
X68502403Y-25408609D01*
X68748591Y-25349505D01*
X68982502Y-25252616D01*
X69198376Y-25120328D01*
X69390898Y-24955898D01*
X69555328Y-24763376D01*
X69687616Y-24547502D01*
X69784505Y-24313591D01*
X69843609Y-24067403D01*
X69863474Y-23815000D01*
X69843609Y-23562597D01*
X69784505Y-23316409D01*
X69687616Y-23082498D01*
X69555328Y-22866624D01*
X69390898Y-22674102D01*
X69198376Y-22509672D01*
X68982502Y-22377384D01*
X68748591Y-22280495D01*
X68748589Y-22280494D01*
X68580177Y-22240062D01*
X68502403Y-22221391D01*
X68250000Y-22201526D01*
X67997596Y-22221391D01*
X67849669Y-22256904D01*
X67778761Y-22253356D01*
X67731161Y-22223480D01*
X66926908Y-21419227D01*
X66914936Y-21405375D01*
X66900469Y-21385942D01*
X66900467Y-21385940D01*
X66860024Y-21352003D01*
X66855970Y-21348289D01*
X66850107Y-21342425D01*
X66824104Y-21321864D01*
X66764636Y-21271965D01*
X66758506Y-21267933D01*
X66758541Y-21267878D01*
X66752187Y-21263829D01*
X66752153Y-21263886D01*
X66745906Y-21260033D01*
X66675540Y-21227220D01*
X66606188Y-21192391D01*
X66606186Y-21192390D01*
X66606183Y-21192389D01*
X66599289Y-21189880D01*
X66599311Y-21189817D01*
X66592189Y-21187341D01*
X66592169Y-21187404D01*
X66585209Y-21185097D01*
X66509150Y-21169392D01*
X66433652Y-21151499D01*
X66426367Y-21150648D01*
X66426374Y-21150580D01*
X66418877Y-21149814D01*
X66418872Y-21149881D01*
X66411559Y-21149241D01*
X66411558Y-21149241D01*
X66333920Y-21151500D01*
X64662248Y-21151500D01*
X64594127Y-21131498D01*
X64554815Y-21091335D01*
X64481881Y-20972318D01*
X64475328Y-20961624D01*
X64310898Y-20769102D01*
X64118376Y-20604672D01*
X63902502Y-20472384D01*
X63843748Y-20448047D01*
X63668589Y-20375494D01*
X63500177Y-20335062D01*
X63422403Y-20316391D01*
X63170000Y-20296526D01*
X62917597Y-20316391D01*
X62671410Y-20375494D01*
X62437499Y-20472383D01*
X62221625Y-20604671D01*
X62029102Y-20769102D01*
X61864671Y-20961625D01*
X61732383Y-21177499D01*
X61635494Y-21411410D01*
X61591236Y-21595763D01*
X61576391Y-21657597D01*
X61556526Y-21910000D01*
X60432681Y-21910000D01*
X58551761Y-20029080D01*
X58517735Y-19966768D01*
X58522800Y-19895953D01*
X58565347Y-19839117D01*
X58627234Y-19814724D01*
X58667941Y-19810297D01*
X59013021Y-19734339D01*
X59347867Y-19621517D01*
X59668551Y-19473152D01*
X59971314Y-19290986D01*
X60252607Y-19077153D01*
X60509131Y-18834160D01*
X60737879Y-18564857D01*
X60936170Y-18272400D01*
X61101678Y-17960218D01*
X61232463Y-17631972D01*
X61326992Y-17291510D01*
X61334070Y-17248339D01*
X61340622Y-17208370D01*
X61384156Y-16942823D01*
X61403286Y-16590000D01*
X61384156Y-16237177D01*
X61343664Y-15990188D01*
X61326993Y-15888494D01*
X61326992Y-15888490D01*
X61232463Y-15548028D01*
X61101678Y-15219782D01*
X60936170Y-14907600D01*
X60737879Y-14615143D01*
X60509131Y-14345840D01*
X60509126Y-14345835D01*
X60252621Y-14102859D01*
X60252606Y-14102846D01*
X59971318Y-13889017D01*
X59971312Y-13889013D01*
X59668551Y-13706848D01*
X59668545Y-13706845D01*
X59347884Y-13558490D01*
X59347865Y-13558482D01*
X59013030Y-13445664D01*
X59013029Y-13445663D01*
X59013021Y-13445661D01*
X59013016Y-13445659D01*
X59013013Y-13445659D01*
X58667957Y-13369706D01*
X58667944Y-13369703D01*
X58667941Y-13369703D01*
X58667938Y-13369702D01*
X58667929Y-13369701D01*
X58433396Y-13344194D01*
X58367837Y-13316944D01*
X58327418Y-13258576D01*
X58324971Y-13187622D01*
X58361274Y-13126608D01*
X58424800Y-13094907D01*
X58446980Y-13092934D01*
X68173476Y-13090859D01*
X68241598Y-13110847D01*
G37*
%TD.AperFunction*%
%TA.AperFunction,Conductor*%
G36*
X43250830Y-62768265D02*
G01*
X43259782Y-62776397D01*
X44279595Y-63796210D01*
X44313621Y-63858522D01*
X44316500Y-63885305D01*
X44316500Y-66207443D01*
X44316385Y-66211248D01*
X44312736Y-66271572D01*
X44323628Y-66331011D01*
X44324201Y-66334774D01*
X44331485Y-66394769D01*
X44331488Y-66394778D01*
X44334833Y-66403600D01*
X44340954Y-66425554D01*
X44342655Y-66434836D01*
X44342656Y-66434839D01*
X44367456Y-66489941D01*
X44368913Y-66493458D01*
X44390345Y-66549970D01*
X44390346Y-66549973D01*
X44395704Y-66557735D01*
X44406907Y-66577599D01*
X44410774Y-66586193D01*
X44410776Y-66586196D01*
X44448045Y-66633766D01*
X44450292Y-66636819D01*
X44459969Y-66650838D01*
X44484633Y-66686571D01*
X44484634Y-66686572D01*
X44484635Y-66686573D01*
X44529880Y-66726656D01*
X44532626Y-66729241D01*
X45710749Y-67907364D01*
X45713342Y-67910119D01*
X45753421Y-67955360D01*
X45753428Y-67955366D01*
X45803154Y-67989689D01*
X45806220Y-67991945D01*
X45829060Y-68009838D01*
X45853802Y-68029223D01*
X45862402Y-68033093D01*
X45882265Y-68044295D01*
X45890029Y-68049654D01*
X45946543Y-68071087D01*
X45950052Y-68072541D01*
X45963517Y-68078601D01*
X46017426Y-68124800D01*
X46037801Y-68192810D01*
X46018172Y-68261039D01*
X45964772Y-68307825D01*
X45911803Y-68319500D01*
X40592694Y-68319500D01*
X40524573Y-68299498D01*
X40478080Y-68245842D01*
X40467976Y-68175568D01*
X40497470Y-68110988D01*
X40557196Y-68072604D01*
X40579071Y-68068239D01*
X40596777Y-68066313D01*
X40927941Y-68030297D01*
X41273021Y-67954339D01*
X41607867Y-67841517D01*
X41928551Y-67693152D01*
X42231314Y-67510986D01*
X42512607Y-67297153D01*
X42769131Y-67054160D01*
X42997879Y-66784857D01*
X43196170Y-66492400D01*
X43361678Y-66180218D01*
X43492463Y-65851972D01*
X43586992Y-65511510D01*
X43644156Y-65162823D01*
X43663286Y-64810000D01*
X43663239Y-64809140D01*
X43660478Y-64758221D01*
X43644156Y-64457177D01*
X43586992Y-64108490D01*
X43492463Y-63768028D01*
X43361678Y-63439782D01*
X43196170Y-63127600D01*
X43066397Y-62936199D01*
X43044725Y-62868594D01*
X43063044Y-62800001D01*
X43115539Y-62752202D01*
X43185543Y-62740371D01*
X43250830Y-62768265D01*
G37*
%TD.AperFunction*%
%TA.AperFunction,Conductor*%
G36*
X57899872Y-13113052D02*
G01*
X57946376Y-13166697D01*
X57956495Y-13236969D01*
X57927016Y-13301556D01*
X57867298Y-13339953D01*
X57845397Y-13344325D01*
X57612070Y-13369701D01*
X57612042Y-13369706D01*
X57266986Y-13445659D01*
X57266969Y-13445664D01*
X56932134Y-13558482D01*
X56932115Y-13558490D01*
X56611454Y-13706845D01*
X56611447Y-13706849D01*
X56308687Y-13889013D01*
X56308681Y-13889017D01*
X56027393Y-14102846D01*
X56027378Y-14102859D01*
X55770873Y-14345835D01*
X55770869Y-14345840D01*
X55542121Y-14615143D01*
X55343830Y-14907600D01*
X55343827Y-14907605D01*
X55343826Y-14907607D01*
X55178321Y-15219784D01*
X55178317Y-15219793D01*
X55047537Y-15548027D01*
X54953006Y-15888494D01*
X54895844Y-16237176D01*
X54876714Y-16589997D01*
X54876714Y-16590002D01*
X54895844Y-16942823D01*
X54953006Y-17291505D01*
X54989648Y-17423476D01*
X55047537Y-17631972D01*
X55178322Y-17960218D01*
X55343830Y-18272400D01*
X55542121Y-18564857D01*
X55770869Y-18834160D01*
X55770872Y-18834162D01*
X55770873Y-18834164D01*
X56027378Y-19077140D01*
X56027393Y-19077153D01*
X56308686Y-19290986D01*
X56568875Y-19447536D01*
X56616932Y-19499795D01*
X56629108Y-19569740D01*
X56601535Y-19635164D01*
X56542969Y-19675295D01*
X56503915Y-19681500D01*
X43994441Y-19681500D01*
X43976182Y-19680170D01*
X43952212Y-19676659D01*
X43952211Y-19676659D01*
X43945773Y-19677222D01*
X43899615Y-19681260D01*
X43894122Y-19681500D01*
X43885817Y-19681500D01*
X43852904Y-19685347D01*
X43775574Y-19692112D01*
X43768389Y-19693596D01*
X43768376Y-19693533D01*
X43761003Y-19695168D01*
X43761018Y-19695231D01*
X43753881Y-19696922D01*
X43698088Y-19717229D01*
X43680934Y-19723473D01*
X43648155Y-19734335D01*
X43607261Y-19747886D01*
X43600612Y-19750987D01*
X43600583Y-19750926D01*
X43593792Y-19754214D01*
X43593822Y-19754273D01*
X43587269Y-19757563D01*
X43522394Y-19800232D01*
X43456351Y-19840968D01*
X43450588Y-19845525D01*
X43450547Y-19845473D01*
X43444704Y-19850233D01*
X43444746Y-19850283D01*
X43439128Y-19854996D01*
X43400487Y-19895953D01*
X43385836Y-19911482D01*
X42062722Y-21234596D01*
X42000412Y-21268620D01*
X41973629Y-21271500D01*
X31136371Y-21271500D01*
X31068250Y-21251498D01*
X31047276Y-21234595D01*
X30197569Y-20384888D01*
X30163543Y-20322576D01*
X30168608Y-20251761D01*
X30176664Y-20234344D01*
X30228105Y-20142260D01*
X30307980Y-19916194D01*
X30348500Y-19679881D01*
X30348500Y-19619827D01*
X33031500Y-19619827D01*
X33046741Y-19798898D01*
X33046742Y-19798904D01*
X33107153Y-20030917D01*
X33107155Y-20030923D01*
X33107156Y-20030924D01*
X33205914Y-20249402D01*
X33340175Y-20448047D01*
X33340177Y-20448049D01*
X33340180Y-20448053D01*
X33490287Y-20604671D01*
X33506075Y-20621144D01*
X33698843Y-20763715D01*
X33912933Y-20871657D01*
X34142185Y-20941864D01*
X34380005Y-20972318D01*
X34619551Y-20962143D01*
X34853932Y-20911630D01*
X35076404Y-20822233D01*
X35280569Y-20696524D01*
X35460551Y-20538119D01*
X35611175Y-20351576D01*
X35728105Y-20142260D01*
X35807980Y-19916194D01*
X35848500Y-19679881D01*
X35848500Y-18500173D01*
X35833259Y-18321102D01*
X35815838Y-18254199D01*
X35772846Y-18089082D01*
X35772844Y-18089079D01*
X35772844Y-18089076D01*
X35674086Y-17870598D01*
X35539825Y-17671953D01*
X35539821Y-17671949D01*
X35539819Y-17671946D01*
X35373927Y-17498858D01*
X35373926Y-17498857D01*
X35373925Y-17498856D01*
X35181157Y-17356285D01*
X35181156Y-17356284D01*
X35181154Y-17356283D01*
X35110997Y-17320911D01*
X34967067Y-17248343D01*
X34967060Y-17248340D01*
X34967056Y-17248339D01*
X34737815Y-17178136D01*
X34499995Y-17147682D01*
X34499991Y-17147682D01*
X34499983Y-17147681D01*
X34260448Y-17157856D01*
X34026065Y-17208370D01*
X33803594Y-17297768D01*
X33599425Y-17423480D01*
X33599423Y-17423482D01*
X33419453Y-17581876D01*
X33419445Y-17581885D01*
X33268827Y-17768419D01*
X33268823Y-17768426D01*
X33151895Y-17977738D01*
X33151895Y-17977739D01*
X33072021Y-18203800D01*
X33031500Y-18440121D01*
X33031500Y-19619827D01*
X30348500Y-19619827D01*
X30348500Y-18500173D01*
X30333259Y-18321102D01*
X30315838Y-18254199D01*
X30272846Y-18089082D01*
X30272844Y-18089079D01*
X30272844Y-18089076D01*
X30174086Y-17870598D01*
X30039825Y-17671953D01*
X30039821Y-17671949D01*
X30039819Y-17671946D01*
X29873927Y-17498858D01*
X29873926Y-17498857D01*
X29873925Y-17498856D01*
X29681157Y-17356285D01*
X29681156Y-17356284D01*
X29681154Y-17356283D01*
X29610997Y-17320911D01*
X29467067Y-17248343D01*
X29467060Y-17248340D01*
X29467056Y-17248339D01*
X29237815Y-17178136D01*
X28999995Y-17147682D01*
X28999991Y-17147682D01*
X28999983Y-17147681D01*
X28760448Y-17157856D01*
X28526065Y-17208370D01*
X28303594Y-17297768D01*
X28099425Y-17423480D01*
X28099423Y-17423482D01*
X27919453Y-17581876D01*
X27919445Y-17581885D01*
X27768827Y-17768419D01*
X27768823Y-17768426D01*
X27651895Y-17977738D01*
X27651895Y-17977739D01*
X27572021Y-18203800D01*
X27531500Y-18440121D01*
X27531500Y-19292153D01*
X27511498Y-19360274D01*
X27457842Y-19406767D01*
X27387568Y-19416871D01*
X27330577Y-19393457D01*
X27280894Y-19356712D01*
X27066876Y-19248806D01*
X27066873Y-19248805D01*
X26837709Y-19178625D01*
X26794000Y-19173026D01*
X26794000Y-20128884D01*
X26749844Y-20100507D01*
X26611889Y-20060000D01*
X26468111Y-20060000D01*
X26330156Y-20100507D01*
X26286000Y-20128884D01*
X26286000Y-19174412D01*
X26126210Y-19208850D01*
X25903822Y-19298214D01*
X25699723Y-19423883D01*
X25699721Y-19423885D01*
X25519744Y-19582283D01*
X25455393Y-19612273D01*
X25385043Y-19602712D01*
X25331031Y-19556634D01*
X25310504Y-19488670D01*
X25310500Y-19487698D01*
X25310500Y-13225972D01*
X25330502Y-13157851D01*
X25384158Y-13111358D01*
X25436468Y-13099973D01*
X57831751Y-13093065D01*
X57899872Y-13113052D01*
G37*
%TD.AperFunction*%
%TD*%
M02*
