%TF.GenerationSoftware,KiCad,Pcbnew,8.0.2+dfsg-1*%
%TF.CreationDate,2024-05-25T23:21:13+03:00*%
%TF.ProjectId,dexx_video_adapter,64657878-5f76-4696-9465-6f5f61646170,rev?*%
%TF.SameCoordinates,Original*%
%TF.FileFunction,Soldermask,Top*%
%TF.FilePolarity,Negative*%
%FSLAX46Y46*%
G04 Gerber Fmt 4.6, Leading zero omitted, Abs format (unit mm)*
G04 Created by KiCad (PCBNEW 8.0.2+dfsg-1) date 2024-05-25 23:21:13*
%MOMM*%
%LPD*%
G01*
G04 APERTURE LIST*
G04 Aperture macros list*
%AMRoundRect*
0 Rectangle with rounded corners*
0 $1 Rounding radius*
0 $2 $3 $4 $5 $6 $7 $8 $9 X,Y pos of 4 corners*
0 Add a 4 corners polygon primitive as box body*
4,1,4,$2,$3,$4,$5,$6,$7,$8,$9,$2,$3,0*
0 Add four circle primitives for the rounded corners*
1,1,$1+$1,$2,$3*
1,1,$1+$1,$4,$5*
1,1,$1+$1,$6,$7*
1,1,$1+$1,$8,$9*
0 Add four rect primitives between the rounded corners*
20,1,$1+$1,$2,$3,$4,$5,0*
20,1,$1+$1,$4,$5,$6,$7,0*
20,1,$1+$1,$6,$7,$8,$9,0*
20,1,$1+$1,$8,$9,$2,$3,0*%
G04 Aperture macros list end*
%ADD10R,0.635000X1.143000*%
%ADD11C,2.550000*%
%ADD12C,3.000000*%
%ADD13C,5.500000*%
%ADD14RoundRect,0.225000X0.225000X0.375000X-0.225000X0.375000X-0.225000X-0.375000X0.225000X-0.375000X0*%
%ADD15C,1.600000*%
%ADD16C,4.500000*%
%ADD17C,1.295400*%
%ADD18C,2.006600*%
%ADD19C,2.200000*%
%ADD20O,1.800000X2.800000*%
G04 APERTURE END LIST*
D10*
%TO.C,R2*%
X59470000Y-50710000D03*
X57946000Y-50710000D03*
%TD*%
D11*
%TO.C,J3*%
X51180000Y-38600000D03*
D12*
X46030000Y-40200000D03*
X56330000Y-40200000D03*
%TD*%
D11*
%TO.C,J4*%
X51180000Y-23600000D03*
D12*
X46030000Y-25200000D03*
X56330000Y-25200000D03*
%TD*%
D13*
%TO.C,MH2*%
X58140000Y-16590000D03*
%TD*%
D14*
%TO.C,D1*%
X51580000Y-47310000D03*
X48280000Y-47310000D03*
%TD*%
D15*
%TO.C,J6*%
X35240000Y-51690000D03*
X35240000Y-49400000D03*
X35240000Y-47110000D03*
X35240000Y-44820000D03*
X35240000Y-42530000D03*
X32700000Y-52830000D03*
X32700000Y-50540000D03*
X32700000Y-48250000D03*
X32700000Y-45960000D03*
D16*
X32700000Y-34870000D03*
D15*
X32700000Y-43670000D03*
D16*
X32700000Y-59870000D03*
D15*
X30160000Y-51690000D03*
X30160000Y-49400000D03*
X30160000Y-47110000D03*
X30160000Y-44820000D03*
X30160000Y-42530000D03*
%TD*%
D11*
%TO.C,J2*%
X51180000Y-53600000D03*
D12*
X46030000Y-55200000D03*
X56330000Y-55200000D03*
%TD*%
D17*
%TO.C,SW1*%
X49200000Y-63500000D03*
X51206600Y-63500000D03*
X53213200Y-63500000D03*
X49200000Y-65989200D03*
X51206600Y-65989200D03*
X53213200Y-65989200D03*
D18*
X47104500Y-64744600D03*
X55308700Y-64744600D03*
%TD*%
D10*
%TO.C,R1*%
X54704000Y-47240000D03*
X53180000Y-47240000D03*
%TD*%
D19*
%TO.C,J1*%
X63170000Y-21910000D03*
X68250000Y-23815000D03*
X63170000Y-25720000D03*
X68250000Y-27625000D03*
X63170000Y-29530000D03*
X68250000Y-31435000D03*
X63170000Y-33340000D03*
X68250000Y-35245000D03*
X63170000Y-37150000D03*
X68250000Y-39055000D03*
X63170000Y-40960000D03*
X68250000Y-42865000D03*
X63170000Y-44770000D03*
X68250000Y-46675000D03*
X63170000Y-48580000D03*
X68250000Y-50485000D03*
X63170000Y-52390000D03*
X68250000Y-54295000D03*
X63170000Y-56200000D03*
X68250000Y-58105000D03*
X63170000Y-60010000D03*
%TD*%
D20*
%TO.C,J5*%
X34440000Y-19060000D03*
X26540000Y-21060000D03*
X28940000Y-19060000D03*
%TD*%
D13*
%TO.C,MH1*%
X40400000Y-64810000D03*
%TD*%
D17*
%TO.C,SW2*%
X46668700Y-17884600D03*
X44662100Y-17884600D03*
X42655500Y-17884600D03*
X46668700Y-15395400D03*
X44662100Y-15395400D03*
X42655500Y-15395400D03*
D18*
X48764200Y-16640000D03*
X40560000Y-16640000D03*
%TD*%
M02*
