%TF.GenerationSoftware,KiCad,Pcbnew,7.0.8+dfsg-1*%
%TF.CreationDate,2023-12-22T11:35:13+02:00*%
%TF.ProjectId,dexx_video_adapter,64657878-5f76-4696-9465-6f5f61646170,rev?*%
%TF.SameCoordinates,Original*%
%TF.FileFunction,Legend,Top*%
%TF.FilePolarity,Positive*%
%FSLAX46Y46*%
G04 Gerber Fmt 4.6, Leading zero omitted, Abs format (unit mm)*
G04 Created by KiCad (PCBNEW 7.0.8+dfsg-1) date 2023-12-22 11:35:13*
%MOMM*%
%LPD*%
G01*
G04 APERTURE LIST*
%ADD10C,0.150000*%
%ADD11C,0.127000*%
%ADD12C,0.114300*%
%ADD13C,0.400000*%
%ADD14C,0.119380*%
%ADD15C,0.152400*%
%ADD16C,0.120000*%
%ADD17C,1.600000*%
%ADD18C,4.500000*%
%ADD19C,2.200000*%
G04 APERTURE END LIST*
D10*
X57554874Y-65603152D02*
X57554874Y-64174580D01*
X58269160Y-64888866D02*
X59031065Y-64888866D01*
X60507255Y-65603152D02*
X60507255Y-64174580D01*
X61935827Y-65222200D02*
X62078684Y-65269819D01*
X62078684Y-65269819D02*
X62316779Y-65269819D01*
X62316779Y-65269819D02*
X62412017Y-65222200D01*
X62412017Y-65222200D02*
X62459636Y-65174580D01*
X62459636Y-65174580D02*
X62507255Y-65079342D01*
X62507255Y-65079342D02*
X62507255Y-64984104D01*
X62507255Y-64984104D02*
X62459636Y-64888866D01*
X62459636Y-64888866D02*
X62412017Y-64841247D01*
X62412017Y-64841247D02*
X62316779Y-64793628D01*
X62316779Y-64793628D02*
X62126303Y-64746009D01*
X62126303Y-64746009D02*
X62031065Y-64698390D01*
X62031065Y-64698390D02*
X61983446Y-64650771D01*
X61983446Y-64650771D02*
X61935827Y-64555533D01*
X61935827Y-64555533D02*
X61935827Y-64460295D01*
X61935827Y-64460295D02*
X61983446Y-64365057D01*
X61983446Y-64365057D02*
X62031065Y-64317438D01*
X62031065Y-64317438D02*
X62126303Y-64269819D01*
X62126303Y-64269819D02*
X62364398Y-64269819D01*
X62364398Y-64269819D02*
X62507255Y-64317438D01*
X63507255Y-65174580D02*
X63459636Y-65222200D01*
X63459636Y-65222200D02*
X63316779Y-65269819D01*
X63316779Y-65269819D02*
X63221541Y-65269819D01*
X63221541Y-65269819D02*
X63078684Y-65222200D01*
X63078684Y-65222200D02*
X62983446Y-65126961D01*
X62983446Y-65126961D02*
X62935827Y-65031723D01*
X62935827Y-65031723D02*
X62888208Y-64841247D01*
X62888208Y-64841247D02*
X62888208Y-64698390D01*
X62888208Y-64698390D02*
X62935827Y-64507914D01*
X62935827Y-64507914D02*
X62983446Y-64412676D01*
X62983446Y-64412676D02*
X63078684Y-64317438D01*
X63078684Y-64317438D02*
X63221541Y-64269819D01*
X63221541Y-64269819D02*
X63316779Y-64269819D01*
X63316779Y-64269819D02*
X63459636Y-64317438D01*
X63459636Y-64317438D02*
X63507255Y-64365057D01*
X63888208Y-64984104D02*
X64364398Y-64984104D01*
X63792970Y-65269819D02*
X64126303Y-64269819D01*
X64126303Y-64269819D02*
X64459636Y-65269819D01*
X65364398Y-65269819D02*
X65031065Y-64793628D01*
X64792970Y-65269819D02*
X64792970Y-64269819D01*
X64792970Y-64269819D02*
X65173922Y-64269819D01*
X65173922Y-64269819D02*
X65269160Y-64317438D01*
X65269160Y-64317438D02*
X65316779Y-64365057D01*
X65316779Y-64365057D02*
X65364398Y-64460295D01*
X65364398Y-64460295D02*
X65364398Y-64603152D01*
X65364398Y-64603152D02*
X65316779Y-64698390D01*
X65316779Y-64698390D02*
X65269160Y-64746009D01*
X65269160Y-64746009D02*
X65173922Y-64793628D01*
X65173922Y-64793628D02*
X64792970Y-64793628D01*
X65650113Y-64269819D02*
X66221541Y-64269819D01*
X65935827Y-65269819D02*
X65935827Y-64269819D01*
X66316780Y-65365057D02*
X67078684Y-65365057D01*
X67507256Y-64269819D02*
X67697732Y-64269819D01*
X67697732Y-64269819D02*
X67792970Y-64317438D01*
X67792970Y-64317438D02*
X67888208Y-64412676D01*
X67888208Y-64412676D02*
X67935827Y-64603152D01*
X67935827Y-64603152D02*
X67935827Y-64936485D01*
X67935827Y-64936485D02*
X67888208Y-65126961D01*
X67888208Y-65126961D02*
X67792970Y-65222200D01*
X67792970Y-65222200D02*
X67697732Y-65269819D01*
X67697732Y-65269819D02*
X67507256Y-65269819D01*
X67507256Y-65269819D02*
X67412018Y-65222200D01*
X67412018Y-65222200D02*
X67316780Y-65126961D01*
X67316780Y-65126961D02*
X67269161Y-64936485D01*
X67269161Y-64936485D02*
X67269161Y-64603152D01*
X67269161Y-64603152D02*
X67316780Y-64412676D01*
X67316780Y-64412676D02*
X67412018Y-64317438D01*
X67412018Y-64317438D02*
X67507256Y-64269819D01*
X57554874Y-67213152D02*
X57554874Y-65784580D01*
X59031065Y-66498866D02*
X59792970Y-66498866D01*
X60507255Y-67213152D02*
X60507255Y-65784580D01*
X61935827Y-66832200D02*
X62078684Y-66879819D01*
X62078684Y-66879819D02*
X62316779Y-66879819D01*
X62316779Y-66879819D02*
X62412017Y-66832200D01*
X62412017Y-66832200D02*
X62459636Y-66784580D01*
X62459636Y-66784580D02*
X62507255Y-66689342D01*
X62507255Y-66689342D02*
X62507255Y-66594104D01*
X62507255Y-66594104D02*
X62459636Y-66498866D01*
X62459636Y-66498866D02*
X62412017Y-66451247D01*
X62412017Y-66451247D02*
X62316779Y-66403628D01*
X62316779Y-66403628D02*
X62126303Y-66356009D01*
X62126303Y-66356009D02*
X62031065Y-66308390D01*
X62031065Y-66308390D02*
X61983446Y-66260771D01*
X61983446Y-66260771D02*
X61935827Y-66165533D01*
X61935827Y-66165533D02*
X61935827Y-66070295D01*
X61935827Y-66070295D02*
X61983446Y-65975057D01*
X61983446Y-65975057D02*
X62031065Y-65927438D01*
X62031065Y-65927438D02*
X62126303Y-65879819D01*
X62126303Y-65879819D02*
X62364398Y-65879819D01*
X62364398Y-65879819D02*
X62507255Y-65927438D01*
X63507255Y-66784580D02*
X63459636Y-66832200D01*
X63459636Y-66832200D02*
X63316779Y-66879819D01*
X63316779Y-66879819D02*
X63221541Y-66879819D01*
X63221541Y-66879819D02*
X63078684Y-66832200D01*
X63078684Y-66832200D02*
X62983446Y-66736961D01*
X62983446Y-66736961D02*
X62935827Y-66641723D01*
X62935827Y-66641723D02*
X62888208Y-66451247D01*
X62888208Y-66451247D02*
X62888208Y-66308390D01*
X62888208Y-66308390D02*
X62935827Y-66117914D01*
X62935827Y-66117914D02*
X62983446Y-66022676D01*
X62983446Y-66022676D02*
X63078684Y-65927438D01*
X63078684Y-65927438D02*
X63221541Y-65879819D01*
X63221541Y-65879819D02*
X63316779Y-65879819D01*
X63316779Y-65879819D02*
X63459636Y-65927438D01*
X63459636Y-65927438D02*
X63507255Y-65975057D01*
X63888208Y-66594104D02*
X64364398Y-66594104D01*
X63792970Y-66879819D02*
X64126303Y-65879819D01*
X64126303Y-65879819D02*
X64459636Y-66879819D01*
X65364398Y-66879819D02*
X65031065Y-66403628D01*
X64792970Y-66879819D02*
X64792970Y-65879819D01*
X64792970Y-65879819D02*
X65173922Y-65879819D01*
X65173922Y-65879819D02*
X65269160Y-65927438D01*
X65269160Y-65927438D02*
X65316779Y-65975057D01*
X65316779Y-65975057D02*
X65364398Y-66070295D01*
X65364398Y-66070295D02*
X65364398Y-66213152D01*
X65364398Y-66213152D02*
X65316779Y-66308390D01*
X65316779Y-66308390D02*
X65269160Y-66356009D01*
X65269160Y-66356009D02*
X65173922Y-66403628D01*
X65173922Y-66403628D02*
X64792970Y-66403628D01*
X65650113Y-65879819D02*
X66221541Y-65879819D01*
X65935827Y-66879819D02*
X65935827Y-65879819D01*
X66316780Y-66975057D02*
X67078684Y-66975057D01*
X67316780Y-66879819D02*
X67316780Y-65879819D01*
X46186537Y-34834612D02*
X46186537Y-35549173D01*
X46186537Y-35549173D02*
X46138900Y-35692086D01*
X46138900Y-35692086D02*
X46043625Y-35787361D01*
X46043625Y-35787361D02*
X45900713Y-35834998D01*
X45900713Y-35834998D02*
X45805438Y-35834998D01*
X46567637Y-34834612D02*
X47186923Y-34834612D01*
X47186923Y-34834612D02*
X46853461Y-35215711D01*
X46853461Y-35215711D02*
X46996374Y-35215711D01*
X46996374Y-35215711D02*
X47091649Y-35263349D01*
X47091649Y-35263349D02*
X47139286Y-35310986D01*
X47139286Y-35310986D02*
X47186923Y-35406261D01*
X47186923Y-35406261D02*
X47186923Y-35644448D01*
X47186923Y-35644448D02*
X47139286Y-35739723D01*
X47139286Y-35739723D02*
X47091649Y-35787361D01*
X47091649Y-35787361D02*
X46996374Y-35834998D01*
X46996374Y-35834998D02*
X46710549Y-35834998D01*
X46710549Y-35834998D02*
X46615274Y-35787361D01*
X46615274Y-35787361D02*
X46567637Y-35739723D01*
X46216537Y-18864612D02*
X46216537Y-19579173D01*
X46216537Y-19579173D02*
X46168900Y-19722086D01*
X46168900Y-19722086D02*
X46073625Y-19817361D01*
X46073625Y-19817361D02*
X45930713Y-19864998D01*
X45930713Y-19864998D02*
X45835438Y-19864998D01*
X47121649Y-19198074D02*
X47121649Y-19864998D01*
X46883461Y-18816975D02*
X46645274Y-19531536D01*
X46645274Y-19531536D02*
X47264561Y-19531536D01*
D11*
X52275333Y-46853658D02*
X52105999Y-46575467D01*
X51985047Y-46853658D02*
X51985047Y-46269458D01*
X51985047Y-46269458D02*
X52178571Y-46269458D01*
X52178571Y-46269458D02*
X52226952Y-46297277D01*
X52226952Y-46297277D02*
X52251142Y-46325096D01*
X52251142Y-46325096D02*
X52275333Y-46380734D01*
X52275333Y-46380734D02*
X52275333Y-46464191D01*
X52275333Y-46464191D02*
X52251142Y-46519829D01*
X52251142Y-46519829D02*
X52226952Y-46547648D01*
X52226952Y-46547648D02*
X52178571Y-46575467D01*
X52178571Y-46575467D02*
X51985047Y-46575467D01*
X52468856Y-46325096D02*
X52493047Y-46297277D01*
X52493047Y-46297277D02*
X52541428Y-46269458D01*
X52541428Y-46269458D02*
X52662380Y-46269458D01*
X52662380Y-46269458D02*
X52710761Y-46297277D01*
X52710761Y-46297277D02*
X52734952Y-46325096D01*
X52734952Y-46325096D02*
X52759142Y-46380734D01*
X52759142Y-46380734D02*
X52759142Y-46436372D01*
X52759142Y-46436372D02*
X52734952Y-46519829D01*
X52734952Y-46519829D02*
X52444666Y-46853658D01*
X52444666Y-46853658D02*
X52759142Y-46853658D01*
D12*
X51787066Y-48164800D02*
X51787066Y-48426057D01*
X51787066Y-48295428D02*
X51279066Y-48295428D01*
X51279066Y-48295428D02*
X51351637Y-48338971D01*
X51351637Y-48338971D02*
X51400018Y-48382514D01*
X51400018Y-48382514D02*
X51424209Y-48426057D01*
X51496780Y-47903542D02*
X51472590Y-47947085D01*
X51472590Y-47947085D02*
X51448399Y-47968856D01*
X51448399Y-47968856D02*
X51400018Y-47990628D01*
X51400018Y-47990628D02*
X51375828Y-47990628D01*
X51375828Y-47990628D02*
X51327447Y-47968856D01*
X51327447Y-47968856D02*
X51303256Y-47947085D01*
X51303256Y-47947085D02*
X51279066Y-47903542D01*
X51279066Y-47903542D02*
X51279066Y-47816456D01*
X51279066Y-47816456D02*
X51303256Y-47772914D01*
X51303256Y-47772914D02*
X51327447Y-47751142D01*
X51327447Y-47751142D02*
X51375828Y-47729371D01*
X51375828Y-47729371D02*
X51400018Y-47729371D01*
X51400018Y-47729371D02*
X51448399Y-47751142D01*
X51448399Y-47751142D02*
X51472590Y-47772914D01*
X51472590Y-47772914D02*
X51496780Y-47816456D01*
X51496780Y-47816456D02*
X51496780Y-47903542D01*
X51496780Y-47903542D02*
X51520971Y-47947085D01*
X51520971Y-47947085D02*
X51545161Y-47968856D01*
X51545161Y-47968856D02*
X51593542Y-47990628D01*
X51593542Y-47990628D02*
X51690304Y-47990628D01*
X51690304Y-47990628D02*
X51738685Y-47968856D01*
X51738685Y-47968856D02*
X51762876Y-47947085D01*
X51762876Y-47947085D02*
X51787066Y-47903542D01*
X51787066Y-47903542D02*
X51787066Y-47816456D01*
X51787066Y-47816456D02*
X51762876Y-47772914D01*
X51762876Y-47772914D02*
X51738685Y-47751142D01*
X51738685Y-47751142D02*
X51690304Y-47729371D01*
X51690304Y-47729371D02*
X51593542Y-47729371D01*
X51593542Y-47729371D02*
X51545161Y-47751142D01*
X51545161Y-47751142D02*
X51520971Y-47772914D01*
X51520971Y-47772914D02*
X51496780Y-47816456D01*
X51279066Y-47446342D02*
X51279066Y-47402799D01*
X51279066Y-47402799D02*
X51303256Y-47359256D01*
X51303256Y-47359256D02*
X51327447Y-47337485D01*
X51327447Y-47337485D02*
X51375828Y-47315713D01*
X51375828Y-47315713D02*
X51472590Y-47293942D01*
X51472590Y-47293942D02*
X51593542Y-47293942D01*
X51593542Y-47293942D02*
X51690304Y-47315713D01*
X51690304Y-47315713D02*
X51738685Y-47337485D01*
X51738685Y-47337485D02*
X51762876Y-47359256D01*
X51762876Y-47359256D02*
X51787066Y-47402799D01*
X51787066Y-47402799D02*
X51787066Y-47446342D01*
X51787066Y-47446342D02*
X51762876Y-47489885D01*
X51762876Y-47489885D02*
X51738685Y-47511656D01*
X51738685Y-47511656D02*
X51690304Y-47533427D01*
X51690304Y-47533427D02*
X51593542Y-47555199D01*
X51593542Y-47555199D02*
X51472590Y-47555199D01*
X51472590Y-47555199D02*
X51375828Y-47533427D01*
X51375828Y-47533427D02*
X51327447Y-47511656D01*
X51327447Y-47511656D02*
X51303256Y-47489885D01*
X51303256Y-47489885D02*
X51279066Y-47446342D01*
D10*
X32271666Y-30234819D02*
X32271666Y-30949104D01*
X32271666Y-30949104D02*
X32224047Y-31091961D01*
X32224047Y-31091961D02*
X32128809Y-31187200D01*
X32128809Y-31187200D02*
X31985952Y-31234819D01*
X31985952Y-31234819D02*
X31890714Y-31234819D01*
X33176428Y-30234819D02*
X32985952Y-30234819D01*
X32985952Y-30234819D02*
X32890714Y-30282438D01*
X32890714Y-30282438D02*
X32843095Y-30330057D01*
X32843095Y-30330057D02*
X32747857Y-30472914D01*
X32747857Y-30472914D02*
X32700238Y-30663390D01*
X32700238Y-30663390D02*
X32700238Y-31044342D01*
X32700238Y-31044342D02*
X32747857Y-31139580D01*
X32747857Y-31139580D02*
X32795476Y-31187200D01*
X32795476Y-31187200D02*
X32890714Y-31234819D01*
X32890714Y-31234819D02*
X33081190Y-31234819D01*
X33081190Y-31234819D02*
X33176428Y-31187200D01*
X33176428Y-31187200D02*
X33224047Y-31139580D01*
X33224047Y-31139580D02*
X33271666Y-31044342D01*
X33271666Y-31044342D02*
X33271666Y-30806247D01*
X33271666Y-30806247D02*
X33224047Y-30711009D01*
X33224047Y-30711009D02*
X33176428Y-30663390D01*
X33176428Y-30663390D02*
X33081190Y-30615771D01*
X33081190Y-30615771D02*
X32890714Y-30615771D01*
X32890714Y-30615771D02*
X32795476Y-30663390D01*
X32795476Y-30663390D02*
X32747857Y-30711009D01*
X32747857Y-30711009D02*
X32700238Y-30806247D01*
X46306537Y-49744612D02*
X46306537Y-50459173D01*
X46306537Y-50459173D02*
X46258900Y-50602086D01*
X46258900Y-50602086D02*
X46163625Y-50697361D01*
X46163625Y-50697361D02*
X46020713Y-50744998D01*
X46020713Y-50744998D02*
X45925438Y-50744998D01*
X46735274Y-49839887D02*
X46782912Y-49792249D01*
X46782912Y-49792249D02*
X46878187Y-49744612D01*
X46878187Y-49744612D02*
X47116374Y-49744612D01*
X47116374Y-49744612D02*
X47211649Y-49792249D01*
X47211649Y-49792249D02*
X47259286Y-49839887D01*
X47259286Y-49839887D02*
X47306923Y-49935162D01*
X47306923Y-49935162D02*
X47306923Y-50030437D01*
X47306923Y-50030437D02*
X47259286Y-50173349D01*
X47259286Y-50173349D02*
X46687637Y-50744998D01*
X46687637Y-50744998D02*
X47306923Y-50744998D01*
X42926667Y-67857200D02*
X43069524Y-67904819D01*
X43069524Y-67904819D02*
X43307619Y-67904819D01*
X43307619Y-67904819D02*
X43402857Y-67857200D01*
X43402857Y-67857200D02*
X43450476Y-67809580D01*
X43450476Y-67809580D02*
X43498095Y-67714342D01*
X43498095Y-67714342D02*
X43498095Y-67619104D01*
X43498095Y-67619104D02*
X43450476Y-67523866D01*
X43450476Y-67523866D02*
X43402857Y-67476247D01*
X43402857Y-67476247D02*
X43307619Y-67428628D01*
X43307619Y-67428628D02*
X43117143Y-67381009D01*
X43117143Y-67381009D02*
X43021905Y-67333390D01*
X43021905Y-67333390D02*
X42974286Y-67285771D01*
X42974286Y-67285771D02*
X42926667Y-67190533D01*
X42926667Y-67190533D02*
X42926667Y-67095295D01*
X42926667Y-67095295D02*
X42974286Y-67000057D01*
X42974286Y-67000057D02*
X43021905Y-66952438D01*
X43021905Y-66952438D02*
X43117143Y-66904819D01*
X43117143Y-66904819D02*
X43355238Y-66904819D01*
X43355238Y-66904819D02*
X43498095Y-66952438D01*
X43831429Y-66904819D02*
X44069524Y-67904819D01*
X44069524Y-67904819D02*
X44260000Y-67190533D01*
X44260000Y-67190533D02*
X44450476Y-67904819D01*
X44450476Y-67904819D02*
X44688572Y-66904819D01*
X45593333Y-67904819D02*
X45021905Y-67904819D01*
X45307619Y-67904819D02*
X45307619Y-66904819D01*
X45307619Y-66904819D02*
X45212381Y-67047676D01*
X45212381Y-67047676D02*
X45117143Y-67142914D01*
X45117143Y-67142914D02*
X45021905Y-67190533D01*
X56220000Y-63524819D02*
X56220000Y-63762914D01*
X55981905Y-63667676D02*
X56220000Y-63762914D01*
X56220000Y-63762914D02*
X56458095Y-63667676D01*
X56077143Y-63953390D02*
X56220000Y-63762914D01*
X56220000Y-63762914D02*
X56362857Y-63953390D01*
X46160000Y-63464819D02*
X46160000Y-63702914D01*
X45921905Y-63607676D02*
X46160000Y-63702914D01*
X46160000Y-63702914D02*
X46398095Y-63607676D01*
X46017143Y-63893390D02*
X46160000Y-63702914D01*
X46160000Y-63702914D02*
X46302857Y-63893390D01*
D11*
X48545333Y-46463658D02*
X48375999Y-46185467D01*
X48255047Y-46463658D02*
X48255047Y-45879458D01*
X48255047Y-45879458D02*
X48448571Y-45879458D01*
X48448571Y-45879458D02*
X48496952Y-45907277D01*
X48496952Y-45907277D02*
X48521142Y-45935096D01*
X48521142Y-45935096D02*
X48545333Y-45990734D01*
X48545333Y-45990734D02*
X48545333Y-46074191D01*
X48545333Y-46074191D02*
X48521142Y-46129829D01*
X48521142Y-46129829D02*
X48496952Y-46157648D01*
X48496952Y-46157648D02*
X48448571Y-46185467D01*
X48448571Y-46185467D02*
X48255047Y-46185467D01*
X49029142Y-46463658D02*
X48738856Y-46463658D01*
X48883999Y-46463658D02*
X48883999Y-45879458D01*
X48883999Y-45879458D02*
X48835618Y-45962915D01*
X48835618Y-45962915D02*
X48787237Y-46018553D01*
X48787237Y-46018553D02*
X48738856Y-46046372D01*
D12*
X48303428Y-47699066D02*
X48085714Y-47699066D01*
X48085714Y-47699066D02*
X48063942Y-47940971D01*
X48063942Y-47940971D02*
X48085714Y-47916780D01*
X48085714Y-47916780D02*
X48129257Y-47892590D01*
X48129257Y-47892590D02*
X48238114Y-47892590D01*
X48238114Y-47892590D02*
X48281657Y-47916780D01*
X48281657Y-47916780D02*
X48303428Y-47940971D01*
X48303428Y-47940971D02*
X48325199Y-47989352D01*
X48325199Y-47989352D02*
X48325199Y-48110304D01*
X48325199Y-48110304D02*
X48303428Y-48158685D01*
X48303428Y-48158685D02*
X48281657Y-48182876D01*
X48281657Y-48182876D02*
X48238114Y-48207066D01*
X48238114Y-48207066D02*
X48129257Y-48207066D01*
X48129257Y-48207066D02*
X48085714Y-48182876D01*
X48085714Y-48182876D02*
X48063942Y-48158685D01*
X48608228Y-47699066D02*
X48651771Y-47699066D01*
X48651771Y-47699066D02*
X48695314Y-47723256D01*
X48695314Y-47723256D02*
X48717086Y-47747447D01*
X48717086Y-47747447D02*
X48738857Y-47795828D01*
X48738857Y-47795828D02*
X48760628Y-47892590D01*
X48760628Y-47892590D02*
X48760628Y-48013542D01*
X48760628Y-48013542D02*
X48738857Y-48110304D01*
X48738857Y-48110304D02*
X48717086Y-48158685D01*
X48717086Y-48158685D02*
X48695314Y-48182876D01*
X48695314Y-48182876D02*
X48651771Y-48207066D01*
X48651771Y-48207066D02*
X48608228Y-48207066D01*
X48608228Y-48207066D02*
X48564686Y-48182876D01*
X48564686Y-48182876D02*
X48542914Y-48158685D01*
X48542914Y-48158685D02*
X48521143Y-48110304D01*
X48521143Y-48110304D02*
X48499371Y-48013542D01*
X48499371Y-48013542D02*
X48499371Y-47892590D01*
X48499371Y-47892590D02*
X48521143Y-47795828D01*
X48521143Y-47795828D02*
X48542914Y-47747447D01*
X48542914Y-47747447D02*
X48564686Y-47723256D01*
X48564686Y-47723256D02*
X48608228Y-47699066D01*
X49043657Y-47699066D02*
X49087200Y-47699066D01*
X49087200Y-47699066D02*
X49130743Y-47723256D01*
X49130743Y-47723256D02*
X49152515Y-47747447D01*
X49152515Y-47747447D02*
X49174286Y-47795828D01*
X49174286Y-47795828D02*
X49196057Y-47892590D01*
X49196057Y-47892590D02*
X49196057Y-48013542D01*
X49196057Y-48013542D02*
X49174286Y-48110304D01*
X49174286Y-48110304D02*
X49152515Y-48158685D01*
X49152515Y-48158685D02*
X49130743Y-48182876D01*
X49130743Y-48182876D02*
X49087200Y-48207066D01*
X49087200Y-48207066D02*
X49043657Y-48207066D01*
X49043657Y-48207066D02*
X49000115Y-48182876D01*
X49000115Y-48182876D02*
X48978343Y-48158685D01*
X48978343Y-48158685D02*
X48956572Y-48110304D01*
X48956572Y-48110304D02*
X48934800Y-48013542D01*
X48934800Y-48013542D02*
X48934800Y-47892590D01*
X48934800Y-47892590D02*
X48956572Y-47795828D01*
X48956572Y-47795828D02*
X48978343Y-47747447D01*
X48978343Y-47747447D02*
X49000115Y-47723256D01*
X49000115Y-47723256D02*
X49043657Y-47699066D01*
D10*
X59946666Y-60324819D02*
X59946666Y-61039104D01*
X59946666Y-61039104D02*
X59899047Y-61181961D01*
X59899047Y-61181961D02*
X59803809Y-61277200D01*
X59803809Y-61277200D02*
X59660952Y-61324819D01*
X59660952Y-61324819D02*
X59565714Y-61324819D01*
X60946666Y-61324819D02*
X60375238Y-61324819D01*
X60660952Y-61324819D02*
X60660952Y-60324819D01*
X60660952Y-60324819D02*
X60565714Y-60467676D01*
X60565714Y-60467676D02*
X60470476Y-60562914D01*
X60470476Y-60562914D02*
X60375238Y-60610533D01*
X40244819Y-17753333D02*
X40959104Y-17753333D01*
X40959104Y-17753333D02*
X41101961Y-17800952D01*
X41101961Y-17800952D02*
X41197200Y-17896190D01*
X41197200Y-17896190D02*
X41244819Y-18039047D01*
X41244819Y-18039047D02*
X41244819Y-18134285D01*
X40244819Y-16800952D02*
X40244819Y-17277142D01*
X40244819Y-17277142D02*
X40721009Y-17324761D01*
X40721009Y-17324761D02*
X40673390Y-17277142D01*
X40673390Y-17277142D02*
X40625771Y-17181904D01*
X40625771Y-17181904D02*
X40625771Y-16943809D01*
X40625771Y-16943809D02*
X40673390Y-16848571D01*
X40673390Y-16848571D02*
X40721009Y-16800952D01*
X40721009Y-16800952D02*
X40816247Y-16753333D01*
X40816247Y-16753333D02*
X41054342Y-16753333D01*
X41054342Y-16753333D02*
X41149580Y-16800952D01*
X41149580Y-16800952D02*
X41197200Y-16848571D01*
X41197200Y-16848571D02*
X41244819Y-16943809D01*
X41244819Y-16943809D02*
X41244819Y-17181904D01*
X41244819Y-17181904D02*
X41197200Y-17277142D01*
X41197200Y-17277142D02*
X41149580Y-17324761D01*
D11*
%TO.C,J3*%
X45830000Y-37065000D02*
X45830000Y-38435000D01*
X45830000Y-41965000D02*
X45830000Y-43335000D01*
X47296000Y-37065000D02*
X45830000Y-37065000D01*
X47296000Y-43335000D02*
X45830000Y-43335000D01*
X56530000Y-37065000D02*
X55064000Y-37065000D01*
X56530000Y-37065000D02*
X56530000Y-38435000D01*
X56530000Y-41965000D02*
X56530000Y-43335000D01*
X56530000Y-43335000D02*
X55064000Y-43335000D01*
X55063999Y-37065001D02*
G75*
G03*
X47296001Y-37065001I-3883999J-3148850D01*
G01*
X47296001Y-43334999D02*
G75*
G03*
X55063999Y-43334999I3883999J3148850D01*
G01*
D13*
X43980000Y-40200000D02*
G75*
G03*
X43980000Y-40200000I-200000J0D01*
G01*
D11*
%TO.C,J4*%
X45830000Y-22065000D02*
X45830000Y-23435000D01*
X45830000Y-26965000D02*
X45830000Y-28335000D01*
X47296000Y-22065000D02*
X45830000Y-22065000D01*
X47296000Y-28335000D02*
X45830000Y-28335000D01*
X56530000Y-22065000D02*
X55064000Y-22065000D01*
X56530000Y-22065000D02*
X56530000Y-23435000D01*
X56530000Y-26965000D02*
X56530000Y-28335000D01*
X56530000Y-28335000D02*
X55064000Y-28335000D01*
X55063999Y-22065001D02*
G75*
G03*
X47296001Y-22065001I-3883999J-3148850D01*
G01*
X47296001Y-28334999D02*
G75*
G03*
X55063999Y-28334999I3883999J3148850D01*
G01*
D13*
X43980000Y-25200000D02*
G75*
G03*
X43980000Y-25200000I-200000J0D01*
G01*
D14*
%TO.C,R2*%
X52797520Y-47123400D02*
X52797520Y-48596600D01*
X52756880Y-48594060D02*
X52058380Y-48594060D01*
X52058380Y-47125940D02*
X52756880Y-47125940D01*
X51057620Y-48594060D02*
X50359120Y-48594060D01*
X51057620Y-47125940D02*
X50359120Y-47125940D01*
X50318480Y-48596600D02*
X50318480Y-47123400D01*
D10*
%TO.C,J6*%
X21270000Y-31850000D02*
X36800000Y-31850000D01*
X36800000Y-62650000D02*
X36800000Y-31850000D01*
X36800000Y-62650000D02*
X21270000Y-62650000D01*
X25320000Y-62650000D02*
X25320000Y-31850000D01*
X21270000Y-62650000D02*
X21270000Y-31850000D01*
D11*
%TO.C,J2*%
X45830000Y-52065000D02*
X45830000Y-53435000D01*
X45830000Y-56965000D02*
X45830000Y-58335000D01*
X47296000Y-52065000D02*
X45830000Y-52065000D01*
X47296000Y-58335000D02*
X45830000Y-58335000D01*
X56530000Y-52065000D02*
X55064000Y-52065000D01*
X56530000Y-52065000D02*
X56530000Y-53435000D01*
X56530000Y-56965000D02*
X56530000Y-58335000D01*
X56530000Y-58335000D02*
X55064000Y-58335000D01*
X55063999Y-52065001D02*
G75*
G03*
X47296001Y-52065001I-3883999J-3148850D01*
G01*
X47296001Y-58334999D02*
G75*
G03*
X55063999Y-58334999I3883999J3148850D01*
G01*
D13*
X43980000Y-55200000D02*
G75*
G03*
X43980000Y-55200000I-200000J0D01*
G01*
D15*
%TO.C,SW1*%
X46767701Y-66894593D02*
X46767701Y-68254200D01*
X46767701Y-68254200D02*
X55632301Y-68254200D01*
X49805251Y-62945600D02*
X48177255Y-62945600D01*
X51805252Y-62945600D02*
X49805251Y-62945600D01*
X53805253Y-62945600D02*
X51805252Y-62945600D01*
X54222748Y-62945600D02*
X53805253Y-62945600D01*
X55632301Y-68254200D02*
X55632301Y-66894593D01*
D14*
%TO.C,R1*%
X47893400Y-46738480D02*
X49366600Y-46738480D01*
X49364060Y-46779120D02*
X49364060Y-47477620D01*
X47895940Y-47477620D02*
X47895940Y-46779120D01*
X49364060Y-48478380D02*
X49364060Y-49176880D01*
X47895940Y-48478380D02*
X47895940Y-49176880D01*
X49366600Y-49217520D02*
X47893400Y-49217520D01*
D10*
%TO.C,J1*%
X72200000Y-68325000D02*
X68700000Y-68325000D01*
X68709740Y-68314280D02*
X72189540Y-65342480D01*
X72192080Y-68306660D02*
X68724980Y-65339940D01*
X72200000Y-65325000D02*
X68700000Y-65325000D01*
X78950000Y-64415000D02*
X72200000Y-64415000D01*
X61250000Y-62710000D02*
X61250000Y-19210000D01*
X68700000Y-62710000D02*
X68700000Y-68325000D01*
X68700000Y-62710000D02*
X61250000Y-62710000D01*
X61250000Y-19210000D02*
X68700000Y-19210000D01*
X68700000Y-19210000D02*
X68700000Y-13055000D01*
X78950000Y-17515000D02*
X78950000Y-64415000D01*
X78950000Y-17515000D02*
X72200000Y-17515000D01*
X68702120Y-16055300D02*
X72194620Y-13068260D01*
X68700000Y-16055000D02*
X72200000Y-16055000D01*
X72207320Y-16047680D02*
X68704660Y-13058100D01*
X68700000Y-13055000D02*
X72200000Y-13055000D01*
X72200000Y-13055000D02*
X72200000Y-68325000D01*
D16*
%TO.C,J5*%
X25220000Y-25180000D02*
X25220000Y-23280000D01*
X39460000Y-25180000D02*
X25220000Y-25180000D01*
X21220000Y-23280000D02*
X21220000Y-17040000D01*
X25220000Y-23280000D02*
X21220000Y-23280000D01*
X21220000Y-17040000D02*
X25220000Y-17040000D01*
X25220000Y-17040000D02*
X25220000Y-16740000D01*
X25220000Y-16740000D02*
X39460000Y-16740000D01*
X39460000Y-16740000D02*
X39460000Y-25180000D01*
%TD*%
D17*
%TO.C,J6*%
X35240000Y-51690000D03*
X35240000Y-49400000D03*
X35240000Y-47110000D03*
X35240000Y-44820000D03*
X35240000Y-42530000D03*
X32700000Y-52830000D03*
X32700000Y-50540000D03*
X32700000Y-48250000D03*
X32700000Y-45960000D03*
D18*
X32700000Y-34870000D03*
D17*
X32700000Y-43670000D03*
D18*
X32700000Y-59870000D03*
D17*
X30160000Y-51690000D03*
X30160000Y-49400000D03*
X30160000Y-47110000D03*
X30160000Y-44820000D03*
X30160000Y-42530000D03*
%TD*%
D19*
%TO.C,J1*%
X63170000Y-21910000D03*
X68250000Y-23815000D03*
X63170000Y-25720000D03*
X68250000Y-27625000D03*
X63170000Y-29530000D03*
X68250000Y-31435000D03*
X63170000Y-33340000D03*
X68250000Y-35245000D03*
X63170000Y-37150000D03*
X68250000Y-39055000D03*
X63170000Y-40960000D03*
X68250000Y-42865000D03*
X63170000Y-44770000D03*
X68250000Y-46675000D03*
X63170000Y-48580000D03*
X68250000Y-50485000D03*
X63170000Y-52390000D03*
X68250000Y-54295000D03*
X63170000Y-56200000D03*
X68250000Y-58105000D03*
X63170000Y-60010000D03*
%TD*%
M02*
