M48
; DRILL file {KiCad 8.0.2+dfsg-1} date 2024-05-25T23:21:16+0300
; FORMAT={-:-/ absolute / inch / decimal}
; #@! TF.CreationDate,2024-05-25T23:21:16+03:00
; #@! TF.GenerationSoftware,Kicad,Pcbnew,8.0.2+dfsg-1
; #@! TF.FileFunction,MixedPlating,1,2
FMAT,2
INCH
; #@! TA.AperFunction,Plated,PTH,ViaDrill
T1C0.0157
; #@! TA.AperFunction,Plated,PTH,ComponentDrill
T2C0.0310
; #@! TA.AperFunction,Plated,PTH,ComponentDrill
T3C0.0394
; #@! TA.AperFunction,Plated,PTH,ComponentDrill
T4C0.0512
; #@! TA.AperFunction,Plated,PTH,ComponentDrill
T5C0.0590
; #@! TA.AperFunction,Plated,PTH,ComponentDrill
T6C0.0669
; #@! TA.AperFunction,Plated,PTH,ComponentDrill
T7C0.0787
; #@! TA.AperFunction,Plated,PTH,ComponentDrill
T8C0.1260
%
G90
G05
T1
X1.1195Y-0.6511
X1.1195Y-0.9511
X1.1195Y-1.0511
X1.1195Y-1.1511
X1.1195Y-1.2511
X1.1195Y-1.3511
X1.1195Y-1.4511
X1.1195Y-1.5511
X1.1195Y-1.8511
X1.1195Y-1.9511
X1.1195Y-2.0511
X1.1195Y-2.1511
X1.1195Y-2.2511
X1.1195Y-2.3511
X1.1195Y-2.4511
X1.1195Y-2.5511
X1.2195Y-0.6511
X1.2195Y-0.7511
X1.2195Y-0.9511
X1.2195Y-1.0511
X1.2195Y-1.1511
X1.2195Y-1.2511
X1.2195Y-2.1511
X1.2195Y-2.5511
X1.3195Y-0.9511
X1.3195Y-1.0511
X1.3195Y-1.1511
X1.3195Y-2.1511
X1.3195Y-2.5511
X1.4195Y-0.9511
X1.4195Y-1.0511
X1.4195Y-1.1511
X1.4195Y-1.2511
X1.4195Y-1.3511
X1.4195Y-1.4511
X1.4195Y-2.2511
X1.4195Y-2.3511
X1.4195Y-2.4511
X1.4195Y-2.5511
X1.5195Y-0.6511
X1.5195Y-0.7511
X1.5195Y-0.9511
X1.5195Y-1.0511
X1.5195Y-1.1511
X1.5195Y-1.2511
X1.5195Y-1.3511
X1.5195Y-1.4511
X1.5195Y-1.6511
X1.5195Y-1.7511
X1.5195Y-2.3511
X1.6195Y-0.7511
X1.6195Y-0.9511
X1.6195Y-1.0511
X1.6195Y-1.1511
X1.6195Y-2.2511
X1.7195Y-1.0511
X1.7195Y-1.3511
X1.7195Y-2.2511
X1.7195Y-2.3511
X1.8195Y-0.8511
X1.8195Y-1.2511
X1.8195Y-2.3511
X1.8195Y-2.4511
X1.8528Y-1.8843
X1.9195Y-0.8511
X1.9195Y-1.1511
X1.9195Y-1.2511
X1.9195Y-1.4511
X1.9195Y-1.5511
X1.9195Y-2.1511
X1.9195Y-2.2511
X1.9195Y-2.3511
X1.9195Y-2.4511
X2.0195Y-1.0511
X2.0195Y-1.1511
X2.0195Y-1.2511
X2.0195Y-1.9511
X2.0195Y-2.2511
X2.0195Y-2.3511
X2.1195Y-1.1511
X2.1195Y-1.2511
X2.1195Y-1.5511
X2.1195Y-1.6511
X2.1195Y-2.1511
X2.1195Y-2.2511
X2.1195Y-2.3511
X2.2195Y-1.2511
X2.2195Y-2.0511
X2.2195Y-2.3511
X2.2378Y-1.9689
X2.3195Y-1.5511
X2.3195Y-1.6511
X2.3195Y-2.0511
X2.3195Y-2.1511
X2.3195Y-2.2511
X2.3195Y-2.5511
X2.4195Y-0.7511
X2.4195Y-2.5511
X2.5195Y-0.6511
X2.5195Y-0.7511
X2.5195Y-2.5511
X2.6195Y-0.6511
X2.6195Y-0.7511
X2.6195Y-0.8511
X2.6195Y-2.4511
X2.6195Y-2.5511
X2.7195Y-0.7511
X2.7195Y-0.8511
X2.7195Y-2.4511
T2
X1.6794Y-0.6061
X1.6794Y-0.7041
X1.7584Y-0.6061
X1.7584Y-0.7041
X1.8374Y-0.6061
X1.8374Y-0.7041
X1.937Y-2.5
X1.937Y-2.598
X2.016Y-2.5
X2.016Y-2.598
X2.095Y-2.5
X2.095Y-2.598
T3
X1.1874Y-1.6744
X1.1874Y-1.7646
X1.1874Y-1.8547
X1.1874Y-1.9449
X1.1874Y-2.035
X1.2874Y-1.7193
X1.2874Y-1.8094
X1.2874Y-1.8996
X1.2874Y-1.9898
X1.2874Y-2.0799
X1.3874Y-1.6744
X1.3874Y-1.7646
X1.3874Y-1.8547
X1.3874Y-1.9449
X1.3874Y-2.035
T4
X2.487Y-0.8626
X2.487Y-1.0126
X2.487Y-1.1626
X2.487Y-1.3126
X2.487Y-1.4626
X2.487Y-1.6126
X2.487Y-1.7626
X2.487Y-1.9126
X2.487Y-2.0626
X2.487Y-2.2126
X2.487Y-2.3626
X2.687Y-0.9376
X2.687Y-1.0876
X2.687Y-1.2376
X2.687Y-1.3876
X2.687Y-1.5376
X2.687Y-1.6876
X2.687Y-1.8376
X2.687Y-1.9876
X2.687Y-2.1376
X2.687Y-2.2876
T5
X1.5969Y-0.6551
X1.8545Y-2.549
X1.9199Y-0.6551
X2.1775Y-2.549
T6
X2.015Y-0.9291
X2.015Y-1.5197
X2.015Y-2.1102
T7
X1.8122Y-0.9921
X1.8122Y-1.5827
X1.8122Y-2.1732
X2.2177Y-0.9921
X2.2177Y-1.5827
X2.2177Y-2.1732
T8
X1.2874Y-1.3728
X1.2874Y-2.3571
X1.5906Y-2.5516
X2.289Y-0.6531
T3
G00X1.0449Y-0.8488
M15
G01X1.0449Y-0.8094
M16
G05
G00X1.1394Y-0.7701
M15
G01X1.1394Y-0.7307
M16
G05
G00X1.3559Y-0.7701
M15
G01X1.3559Y-0.7307
M16
G05
M30
