%TF.GenerationSoftware,KiCad,Pcbnew,7.0.8+dfsg-1*%
%TF.CreationDate,2023-12-22T11:35:13+02:00*%
%TF.ProjectId,dexx_video_adapter,64657878-5f76-4696-9465-6f5f61646170,rev?*%
%TF.SameCoordinates,Original*%
%TF.FileFunction,Copper,L2,Bot*%
%TF.FilePolarity,Positive*%
%FSLAX46Y46*%
G04 Gerber Fmt 4.6, Leading zero omitted, Abs format (unit mm)*
G04 Created by KiCad (PCBNEW 7.0.8+dfsg-1) date 2023-12-22 11:35:13*
%MOMM*%
%LPD*%
G01*
G04 APERTURE LIST*
%TA.AperFunction,ComponentPad*%
%ADD10C,2.550000*%
%TD*%
%TA.AperFunction,ComponentPad*%
%ADD11C,3.000000*%
%TD*%
%TA.AperFunction,ComponentPad*%
%ADD12C,5.500000*%
%TD*%
%TA.AperFunction,ComponentPad*%
%ADD13C,1.600000*%
%TD*%
%TA.AperFunction,ComponentPad*%
%ADD14C,4.500000*%
%TD*%
%TA.AperFunction,ComponentPad*%
%ADD15C,1.320800*%
%TD*%
%TA.AperFunction,ComponentPad*%
%ADD16C,2.006600*%
%TD*%
%TA.AperFunction,ComponentPad*%
%ADD17C,2.200000*%
%TD*%
%TA.AperFunction,ComponentPad*%
%ADD18O,1.800000X2.800000*%
%TD*%
%TA.AperFunction,ViaPad*%
%ADD19C,0.800000*%
%TD*%
%TA.AperFunction,Conductor*%
%ADD20C,0.500000*%
%TD*%
%TA.AperFunction,Conductor*%
%ADD21C,0.350000*%
%TD*%
G04 APERTURE END LIST*
D10*
%TO.P,J3,1,In*%
%TO.N,/AV_G*%
X51180000Y-38600000D03*
D11*
%TO.P,J3,2,Ext*%
%TO.N,GND*%
X46030000Y-40200000D03*
X56330000Y-40200000D03*
%TD*%
D10*
%TO.P,J4,1,In*%
%TO.N,/AV_B*%
X51180000Y-23600000D03*
D11*
%TO.P,J4,2,Ext*%
%TO.N,GND*%
X46030000Y-25200000D03*
X56330000Y-25200000D03*
%TD*%
D12*
%TO.P,MH2,1*%
%TO.N,N/C*%
X58140000Y-16590000D03*
%TD*%
D13*
%TO.P,J6,1*%
%TO.N,/AV_R*%
X35240000Y-51690000D03*
%TO.P,J6,2*%
%TO.N,/AV_G*%
X35240000Y-49400000D03*
%TO.P,J6,3*%
%TO.N,/AV_B*%
X35240000Y-47110000D03*
%TO.P,J6,4*%
%TO.N,/AV_S_SEL*%
X35240000Y-44820000D03*
%TO.P,J6,5*%
%TO.N,GND*%
X35240000Y-42530000D03*
%TO.P,J6,6*%
X32700000Y-52830000D03*
%TO.P,J6,7*%
X32700000Y-50540000D03*
%TO.P,J6,8*%
X32700000Y-48250000D03*
%TO.P,J6,9*%
%TO.N,/DDC_5V*%
X32700000Y-45960000D03*
D14*
%TO.P,J6,10*%
%TO.N,GND*%
X32700000Y-34870000D03*
D13*
X32700000Y-43670000D03*
D14*
X32700000Y-59870000D03*
D13*
%TO.P,J6,11*%
%TO.N,unconnected-(J6-Pad11)*%
X30160000Y-51690000D03*
%TO.P,J6,12*%
%TO.N,unconnected-(J6-Pad12)*%
X30160000Y-49400000D03*
%TO.P,J6,13*%
%TO.N,/AV_HS*%
X30160000Y-47110000D03*
%TO.P,J6,14*%
%TO.N,/AV_VS*%
X30160000Y-44820000D03*
%TO.P,J6,15*%
%TO.N,unconnected-(J6-Pad15)*%
X30160000Y-42530000D03*
%TD*%
D10*
%TO.P,J2,1,In*%
%TO.N,/AV_R*%
X51180000Y-53600000D03*
D11*
%TO.P,J2,2,Ext*%
%TO.N,GND*%
X46030000Y-55200000D03*
X56330000Y-55200000D03*
%TD*%
D15*
%TO.P,SW1,1,A*%
%TO.N,/AV_S_OUT*%
X49200000Y-65600000D03*
%TO.P,SW1,2,B*%
%TO.N,/AV_S_SEL*%
X51200001Y-65600000D03*
%TO.P,SW1,3,C*%
%TO.N,/AV_S*%
X53200002Y-65600000D03*
D16*
%TO.P,SW1,4*%
%TO.N,N/C*%
X47097901Y-65600000D03*
%TO.P,SW1,5*%
X55302101Y-65600000D03*
%TD*%
D17*
%TO.P,J1,1,P1*%
%TO.N,/AV_AR*%
X63170000Y-21910000D03*
%TO.P,J1,2,P2*%
X68250000Y-23815000D03*
%TO.P,J1,3,P3*%
%TO.N,/AV_AL*%
X63170000Y-25720000D03*
%TO.P,J1,4,P4*%
%TO.N,GND*%
X68250000Y-27625000D03*
%TO.P,J1,5,P5*%
X63170000Y-29530000D03*
%TO.P,J1,6,P6*%
%TO.N,/AV_AL*%
X68250000Y-31435000D03*
%TO.P,J1,7,P7*%
%TO.N,/AV_B*%
X63170000Y-33340000D03*
%TO.P,J1,8,P8*%
%TO.N,unconnected-(J1-P8-Pad8)*%
X68250000Y-35245000D03*
%TO.P,J1,9,P9*%
%TO.N,GND*%
X63170000Y-37150000D03*
%TO.P,J1,10,P10*%
%TO.N,/AV_VS*%
X68250000Y-39055000D03*
%TO.P,J1,11,P11*%
%TO.N,/AV_G*%
X63170000Y-40960000D03*
%TO.P,J1,12,P12*%
%TO.N,/AV_HS*%
X68250000Y-42865000D03*
%TO.P,J1,13,P13*%
%TO.N,GND*%
X63170000Y-44770000D03*
%TO.P,J1,14,P14*%
X68250000Y-46675000D03*
%TO.P,J1,15,P15*%
%TO.N,/AV_R*%
X63170000Y-48580000D03*
%TO.P,J1,16,P16*%
%TO.N,/AV_RGB_STATUS*%
X68250000Y-50485000D03*
%TO.P,J1,17,P17*%
%TO.N,GND*%
X63170000Y-52390000D03*
%TO.P,J1,18,P18*%
X68250000Y-54295000D03*
%TO.P,J1,19,P19*%
%TO.N,/AV_S_OUT*%
X63170000Y-56200000D03*
%TO.P,J1,20,P20*%
%TO.N,/AV_S*%
X68250000Y-58105000D03*
%TO.P,J1,21,P21*%
%TO.N,GND*%
X63170000Y-60010000D03*
%TD*%
D18*
%TO.P,J5,R*%
%TO.N,/AV_AR*%
X34440000Y-19060000D03*
%TO.P,J5,S*%
%TO.N,GND*%
X26540000Y-21060000D03*
%TO.P,J5,T*%
%TO.N,/AV_AL*%
X28940000Y-19060000D03*
%TD*%
D12*
%TO.P,MH1,1*%
%TO.N,N/C*%
X40400000Y-64810000D03*
%TD*%
D19*
%TO.N,GND*%
X36055000Y-61240000D03*
X33515000Y-56160000D03*
X28435000Y-53620000D03*
X48755000Y-56160000D03*
X46215000Y-33300000D03*
X66535000Y-66320000D03*
X28435000Y-23140000D03*
X53835000Y-56160000D03*
X28435000Y-56160000D03*
X28435000Y-48540000D03*
X30975000Y-30760000D03*
X28435000Y-30760000D03*
X56375000Y-35840000D03*
X33515000Y-63780000D03*
X58915000Y-43460000D03*
X33515000Y-30760000D03*
X43675000Y-58700000D03*
X38595000Y-15520000D03*
X63995000Y-66320000D03*
X36055000Y-33300000D03*
X66535000Y-63780000D03*
X61455000Y-15520000D03*
X48755000Y-63780000D03*
X28435000Y-63780000D03*
X33515000Y-25680000D03*
X48755000Y-15520000D03*
X56375000Y-51080000D03*
X38595000Y-35840000D03*
X30975000Y-25680000D03*
X28435000Y-61240000D03*
X36055000Y-30760000D03*
X61455000Y-63780000D03*
X66535000Y-40920000D03*
X38595000Y-25680000D03*
X43675000Y-28220000D03*
X41135000Y-20600000D03*
X66535000Y-33300000D03*
X58915000Y-40920000D03*
X53835000Y-23140000D03*
X51295000Y-43460000D03*
X61455000Y-66320000D03*
X69075000Y-18060000D03*
X63995000Y-63780000D03*
X30975000Y-63780000D03*
X28435000Y-15520000D03*
X41135000Y-30760000D03*
X36055000Y-25680000D03*
X28435000Y-51080000D03*
X36055000Y-63780000D03*
X56375000Y-58700000D03*
X36055000Y-58700000D03*
X28435000Y-38380000D03*
X66535000Y-18060000D03*
X41135000Y-56160000D03*
X43675000Y-66320000D03*
X38595000Y-61240000D03*
X48755000Y-58700000D03*
X30975000Y-66320000D03*
X28435000Y-46000000D03*
X58915000Y-66320000D03*
X43675000Y-35840000D03*
X53835000Y-40920000D03*
X53835000Y-35840000D03*
X51295000Y-28220000D03*
X51295000Y-61240000D03*
X58915000Y-51080000D03*
X30975000Y-28220000D03*
X30975000Y-53620000D03*
X38595000Y-28220000D03*
X43675000Y-46000000D03*
X69075000Y-63780000D03*
X53835000Y-53620000D03*
X48755000Y-23140000D03*
X36055000Y-28220000D03*
X43675000Y-53620000D03*
X28435000Y-58700000D03*
X46215000Y-58700000D03*
X63995000Y-15520000D03*
X38595000Y-30760000D03*
X58915000Y-53620000D03*
X48755000Y-53620000D03*
X28435000Y-28220000D03*
X51295000Y-35840000D03*
X28435000Y-25680000D03*
X38595000Y-20600000D03*
X66535000Y-25680000D03*
X66535000Y-20600000D03*
X51295000Y-58700000D03*
X28435000Y-33300000D03*
X41135000Y-15520000D03*
X38595000Y-43460000D03*
X41135000Y-28220000D03*
X30975000Y-15520000D03*
X48755000Y-38380000D03*
X58915000Y-28220000D03*
X43675000Y-23140000D03*
X36055000Y-15520000D03*
X33515000Y-66320000D03*
X53835000Y-58700000D03*
X33515000Y-28220000D03*
X58915000Y-25680000D03*
X41135000Y-25680000D03*
X43675000Y-15520000D03*
X58915000Y-56160000D03*
X30975000Y-18060000D03*
X28435000Y-35840000D03*
X51295000Y-30760000D03*
X48755000Y-35840000D03*
X58915000Y-63780000D03*
X66535000Y-15520000D03*
X48755000Y-61240000D03*
X33515000Y-15520000D03*
X36055000Y-35840000D03*
X53835000Y-30760000D03*
X61455000Y-18060000D03*
X28435000Y-66320000D03*
X46215000Y-61240000D03*
X69075000Y-61240000D03*
X69075000Y-20600000D03*
X48755000Y-30760000D03*
X36055000Y-66320000D03*
X53835000Y-48540000D03*
X56375000Y-43460000D03*
X38595000Y-33300000D03*
X53835000Y-43460000D03*
X63995000Y-18060000D03*
X51295000Y-15520000D03*
X66535000Y-56160000D03*
X48755000Y-40920000D03*
X51295000Y-51080000D03*
X46215000Y-15520000D03*
X30975000Y-56160000D03*
X53835000Y-15520000D03*
X51295000Y-56160000D03*
%TO.N,/DDC_5V*%
X47060000Y-47860000D03*
%TD*%
D20*
%TO.N,/AV_AR*%
X53720000Y-19060000D02*
X34440000Y-19060000D01*
X63170000Y-21910000D02*
X56570000Y-21910000D01*
X56570000Y-21910000D02*
X53720000Y-19060000D01*
D21*
%TO.N,/AV_HS*%
X46140000Y-45190000D02*
X41190000Y-40240000D01*
X68250000Y-42865000D02*
X61995000Y-42865000D01*
X33880000Y-40240000D02*
X31380000Y-42740000D01*
X61995000Y-42865000D02*
X59670000Y-45190000D01*
X31380000Y-42740000D02*
X31380000Y-45890000D01*
X31380000Y-45890000D02*
X30160000Y-47110000D01*
X41190000Y-40240000D02*
X33880000Y-40240000D01*
X59670000Y-45190000D02*
X46140000Y-45190000D01*
%TO.N,/AV_VS*%
X61995000Y-39055000D02*
X57180000Y-34240000D01*
X68250000Y-39055000D02*
X61995000Y-39055000D01*
X28620000Y-41800000D02*
X28620000Y-43280000D01*
X57180000Y-34240000D02*
X47530000Y-34240000D01*
X47530000Y-34240000D02*
X43430000Y-38340000D01*
X43430000Y-38340000D02*
X32080000Y-38340000D01*
X28620000Y-43280000D02*
X30160000Y-44820000D01*
X32080000Y-38340000D02*
X28620000Y-41800000D01*
%TO.N,/DDC_5V*%
X35060000Y-53690000D02*
X41230000Y-53690000D01*
X41230000Y-53690000D02*
X47060000Y-47860000D01*
X34065000Y-47325000D02*
X34065000Y-52695000D01*
X32700000Y-45960000D02*
X34065000Y-47325000D01*
X34065000Y-52695000D02*
X35060000Y-53690000D01*
%TD*%
%TA.AperFunction,Conductor*%
%TO.N,GND*%
G36*
X56912816Y-34943502D02*
G01*
X56933790Y-34960405D01*
X61495749Y-39522364D01*
X61498334Y-39525110D01*
X61538427Y-39570365D01*
X61540050Y-39571485D01*
X61588158Y-39604692D01*
X61591224Y-39606948D01*
X61638801Y-39644222D01*
X61638802Y-39644223D01*
X61647403Y-39648094D01*
X61667268Y-39659297D01*
X61675030Y-39664655D01*
X61731541Y-39686086D01*
X61735058Y-39687542D01*
X61790163Y-39712344D01*
X61799435Y-39714043D01*
X61821402Y-39720166D01*
X61830226Y-39723513D01*
X61851219Y-39726061D01*
X61916431Y-39754126D01*
X61956120Y-39812993D01*
X61957682Y-39883973D01*
X61931846Y-39932973D01*
X61864671Y-40011625D01*
X61732383Y-40227499D01*
X61635494Y-40461410D01*
X61576391Y-40707597D01*
X61556526Y-40960000D01*
X61576391Y-41212402D01*
X61635494Y-41458589D01*
X61729567Y-41685700D01*
X61732384Y-41692502D01*
X61864672Y-41908376D01*
X61931846Y-41987026D01*
X61960876Y-42051814D01*
X61950271Y-42122014D01*
X61903397Y-42175336D01*
X61851226Y-42193936D01*
X61830227Y-42196486D01*
X61830223Y-42196487D01*
X61821392Y-42199836D01*
X61799446Y-42205954D01*
X61790166Y-42207655D01*
X61790165Y-42207655D01*
X61735068Y-42232451D01*
X61731555Y-42233906D01*
X61675031Y-42255345D01*
X61675021Y-42255350D01*
X61667255Y-42260710D01*
X61647408Y-42271903D01*
X61638807Y-42275774D01*
X61591226Y-42313050D01*
X61588162Y-42315304D01*
X61538425Y-42349636D01*
X61498342Y-42394879D01*
X61495733Y-42397650D01*
X60448607Y-43444778D01*
X59423790Y-44469595D01*
X59361478Y-44503620D01*
X59334695Y-44506500D01*
X46475305Y-44506500D01*
X46407184Y-44486498D01*
X46386210Y-44469595D01*
X44037950Y-42121335D01*
X42116619Y-40200004D01*
X44017308Y-40200004D01*
X44036052Y-40474048D01*
X44036053Y-40474054D01*
X44091942Y-40743011D01*
X44091944Y-40743019D01*
X44183938Y-41001865D01*
X44310314Y-41245756D01*
X44310316Y-41245759D01*
X44440541Y-41430248D01*
X45166177Y-40704612D01*
X45235146Y-40815263D01*
X45375268Y-40962671D01*
X45523420Y-41065788D01*
X44800715Y-41788492D01*
X44800715Y-41788494D01*
X44869313Y-41844304D01*
X44869318Y-41844307D01*
X45104030Y-41987038D01*
X45355989Y-42096480D01*
X45620509Y-42170595D01*
X45892635Y-42207999D01*
X45892649Y-42208000D01*
X46167351Y-42208000D01*
X46167364Y-42207999D01*
X46439490Y-42170595D01*
X46704010Y-42096480D01*
X46955969Y-41987038D01*
X47190679Y-41844309D01*
X47259283Y-41788493D01*
X47259283Y-41788492D01*
X46534488Y-41063697D01*
X46604214Y-41024996D01*
X46758531Y-40892520D01*
X46883021Y-40731692D01*
X46895487Y-40706277D01*
X47619457Y-41430247D01*
X47749682Y-41245762D01*
X47749685Y-41245756D01*
X47876061Y-41001865D01*
X47968055Y-40743019D01*
X47968057Y-40743011D01*
X48023946Y-40474054D01*
X48023947Y-40474048D01*
X48042692Y-40200004D01*
X48042692Y-40199995D01*
X48023947Y-39925951D01*
X48023946Y-39925945D01*
X47968057Y-39656988D01*
X47968055Y-39656980D01*
X47876061Y-39398134D01*
X47749685Y-39154243D01*
X47749681Y-39154237D01*
X47619457Y-38969750D01*
X46893821Y-39695385D01*
X46824854Y-39584737D01*
X46684732Y-39437329D01*
X46536578Y-39334210D01*
X47259283Y-38611504D01*
X47245143Y-38600000D01*
X49391499Y-38600000D01*
X49411475Y-38866565D01*
X49470957Y-39127171D01*
X49470958Y-39127173D01*
X49568612Y-39375995D01*
X49568614Y-39375999D01*
X49702268Y-39607494D01*
X49702270Y-39607497D01*
X49702271Y-39607498D01*
X49741738Y-39656988D01*
X49868939Y-39816494D01*
X49986901Y-39925945D01*
X50064888Y-39998306D01*
X50064894Y-39998310D01*
X50285740Y-40148881D01*
X50285744Y-40148883D01*
X50285750Y-40148887D01*
X50526587Y-40264869D01*
X50695402Y-40316941D01*
X50782010Y-40343657D01*
X50782012Y-40343657D01*
X50782021Y-40343660D01*
X51046345Y-40383500D01*
X51046349Y-40383500D01*
X51313651Y-40383500D01*
X51313655Y-40383500D01*
X51577979Y-40343660D01*
X51577989Y-40343657D01*
X51833404Y-40264872D01*
X51833406Y-40264871D01*
X51833413Y-40264869D01*
X51968106Y-40200004D01*
X54317308Y-40200004D01*
X54336052Y-40474048D01*
X54336053Y-40474054D01*
X54391942Y-40743011D01*
X54391944Y-40743019D01*
X54483938Y-41001865D01*
X54610314Y-41245756D01*
X54610316Y-41245759D01*
X54740541Y-41430248D01*
X55466177Y-40704612D01*
X55535146Y-40815263D01*
X55675268Y-40962671D01*
X55823420Y-41065788D01*
X55100715Y-41788492D01*
X55100715Y-41788494D01*
X55169313Y-41844304D01*
X55169318Y-41844307D01*
X55404030Y-41987038D01*
X55655989Y-42096480D01*
X55920509Y-42170595D01*
X56192635Y-42207999D01*
X56192649Y-42208000D01*
X56467351Y-42208000D01*
X56467364Y-42207999D01*
X56739490Y-42170595D01*
X57004010Y-42096480D01*
X57255969Y-41987038D01*
X57490679Y-41844309D01*
X57559283Y-41788493D01*
X57559283Y-41788492D01*
X56834488Y-41063697D01*
X56904214Y-41024996D01*
X57058531Y-40892520D01*
X57183021Y-40731692D01*
X57195487Y-40706277D01*
X57919457Y-41430247D01*
X58049682Y-41245762D01*
X58049685Y-41245756D01*
X58176061Y-41001865D01*
X58268055Y-40743019D01*
X58268057Y-40743011D01*
X58323946Y-40474054D01*
X58323947Y-40474048D01*
X58342692Y-40200004D01*
X58342692Y-40199995D01*
X58323947Y-39925951D01*
X58323946Y-39925945D01*
X58268057Y-39656988D01*
X58268055Y-39656980D01*
X58176061Y-39398134D01*
X58049685Y-39154243D01*
X58049681Y-39154237D01*
X57919457Y-38969750D01*
X57193821Y-39695385D01*
X57124854Y-39584737D01*
X56984732Y-39437329D01*
X56836578Y-39334210D01*
X57559283Y-38611504D01*
X57490680Y-38555691D01*
X57255969Y-38412961D01*
X57004010Y-38303519D01*
X56739490Y-38229404D01*
X56467364Y-38192000D01*
X56192635Y-38192000D01*
X55920509Y-38229404D01*
X55655989Y-38303519D01*
X55404030Y-38412961D01*
X55169325Y-38555687D01*
X55100715Y-38611505D01*
X55100714Y-38611505D01*
X55825511Y-39336302D01*
X55755786Y-39375004D01*
X55601469Y-39507480D01*
X55476979Y-39668308D01*
X55464512Y-39693721D01*
X54740541Y-38969750D01*
X54610317Y-39154236D01*
X54483938Y-39398134D01*
X54391944Y-39656980D01*
X54391942Y-39656988D01*
X54336053Y-39925945D01*
X54336052Y-39925951D01*
X54317308Y-40199995D01*
X54317308Y-40200004D01*
X51968106Y-40200004D01*
X52074251Y-40148887D01*
X52295112Y-39998306D01*
X52491064Y-39816490D01*
X52657729Y-39607498D01*
X52791384Y-39376002D01*
X52889043Y-39127170D01*
X52948525Y-38866562D01*
X52968501Y-38600000D01*
X52948525Y-38333438D01*
X52889043Y-38072830D01*
X52814255Y-37882272D01*
X52791387Y-37824004D01*
X52791385Y-37824000D01*
X52771306Y-37789223D01*
X52699125Y-37664201D01*
X52657731Y-37592505D01*
X52637885Y-37567619D01*
X52491064Y-37383510D01*
X52491063Y-37383509D01*
X52491060Y-37383505D01*
X52295117Y-37201699D01*
X52295111Y-37201693D01*
X52158953Y-37108862D01*
X52074251Y-37051113D01*
X51859187Y-36947543D01*
X51833416Y-36935132D01*
X51833404Y-36935127D01*
X51577989Y-36856342D01*
X51577981Y-36856340D01*
X51577979Y-36856340D01*
X51313655Y-36816500D01*
X51046345Y-36816500D01*
X50782021Y-36856340D01*
X50782019Y-36856340D01*
X50782010Y-36856342D01*
X50526583Y-36935132D01*
X50285748Y-37051114D01*
X50285740Y-37051118D01*
X50064894Y-37201689D01*
X50064882Y-37201699D01*
X49868939Y-37383505D01*
X49702268Y-37592505D01*
X49568614Y-37824000D01*
X49568612Y-37824004D01*
X49470958Y-38072826D01*
X49470957Y-38072828D01*
X49411475Y-38333434D01*
X49391499Y-38600000D01*
X47245143Y-38600000D01*
X47190680Y-38555691D01*
X46955969Y-38412961D01*
X46704010Y-38303519D01*
X46439490Y-38229404D01*
X46167364Y-38192000D01*
X45892635Y-38192000D01*
X45620509Y-38229404D01*
X45355989Y-38303519D01*
X45104030Y-38412961D01*
X44869325Y-38555687D01*
X44800715Y-38611505D01*
X44800714Y-38611505D01*
X45525511Y-39336302D01*
X45455786Y-39375004D01*
X45301469Y-39507480D01*
X45176979Y-39668308D01*
X45164512Y-39693721D01*
X44440541Y-38969750D01*
X44310317Y-39154236D01*
X44183938Y-39398134D01*
X44091944Y-39656980D01*
X44091942Y-39656988D01*
X44036053Y-39925945D01*
X44036052Y-39925951D01*
X44017308Y-40199995D01*
X44017308Y-40200004D01*
X42116619Y-40200004D01*
X41689241Y-39772626D01*
X41686649Y-39769872D01*
X41676576Y-39758502D01*
X41646573Y-39724635D01*
X41646572Y-39724634D01*
X41646571Y-39724633D01*
X41619448Y-39705911D01*
X41596819Y-39690292D01*
X41593766Y-39688045D01*
X41593125Y-39687543D01*
X41546197Y-39650777D01*
X41546196Y-39650776D01*
X41546193Y-39650774D01*
X41537599Y-39646907D01*
X41517735Y-39635704D01*
X41509973Y-39630346D01*
X41509970Y-39630345D01*
X41453458Y-39608913D01*
X41449941Y-39607456D01*
X41394839Y-39582656D01*
X41394836Y-39582655D01*
X41385554Y-39580954D01*
X41363600Y-39574833D01*
X41354778Y-39571488D01*
X41354769Y-39571485D01*
X41294774Y-39564201D01*
X41291011Y-39563628D01*
X41231573Y-39552736D01*
X41231572Y-39552736D01*
X41171247Y-39556385D01*
X41167444Y-39556500D01*
X33902556Y-39556500D01*
X33898752Y-39556385D01*
X33838428Y-39552736D01*
X33838427Y-39552736D01*
X33838425Y-39552736D01*
X33778986Y-39563628D01*
X33775224Y-39564201D01*
X33715230Y-39571485D01*
X33710381Y-39573324D01*
X33706397Y-39574835D01*
X33684440Y-39580955D01*
X33679862Y-39581794D01*
X33675162Y-39582656D01*
X33620053Y-39607458D01*
X33616538Y-39608914D01*
X33560030Y-39630345D01*
X33560025Y-39630347D01*
X33552255Y-39635710D01*
X33532408Y-39646903D01*
X33523807Y-39650774D01*
X33476226Y-39688050D01*
X33473162Y-39690304D01*
X33423425Y-39724636D01*
X33383342Y-39769879D01*
X33380734Y-39772650D01*
X31396540Y-41756843D01*
X31334228Y-41790869D01*
X31263413Y-41785804D01*
X31206577Y-41743257D01*
X31204258Y-41740055D01*
X31166198Y-41685700D01*
X31004300Y-41523802D01*
X30930683Y-41472255D01*
X30816749Y-41392477D01*
X30609246Y-41295717D01*
X30609240Y-41295715D01*
X30564056Y-41283608D01*
X30411236Y-41242659D01*
X30350615Y-41205709D01*
X30319594Y-41141849D01*
X30328022Y-41071354D01*
X30354751Y-41031862D01*
X32326210Y-39060405D01*
X32388522Y-39026379D01*
X32415305Y-39023500D01*
X43407444Y-39023500D01*
X43411247Y-39023614D01*
X43471572Y-39027264D01*
X43531029Y-39016367D01*
X43534766Y-39015798D01*
X43594774Y-39008513D01*
X43603590Y-39005169D01*
X43625570Y-38999042D01*
X43625655Y-38999026D01*
X43634837Y-38997344D01*
X43676052Y-38978793D01*
X43689950Y-38972539D01*
X43693460Y-38971084D01*
X43749971Y-38949654D01*
X43757729Y-38944298D01*
X43777592Y-38933095D01*
X43786197Y-38929223D01*
X43833778Y-38891944D01*
X43836817Y-38889707D01*
X43886573Y-38855365D01*
X43926672Y-38810101D01*
X43929226Y-38807387D01*
X47776210Y-34960405D01*
X47838522Y-34926379D01*
X47865305Y-34923500D01*
X56844695Y-34923500D01*
X56912816Y-34943502D01*
G37*
%TD.AperFunction*%
%TA.AperFunction,Conductor*%
G36*
X68241598Y-13110847D02*
G01*
X68288102Y-13164492D01*
X68299500Y-13216859D01*
X68299500Y-15975072D01*
X68299415Y-15975500D01*
X68299458Y-15999998D01*
X68299459Y-16000000D01*
X68299500Y-16000099D01*
X68299617Y-16000383D01*
X68300000Y-16000541D01*
X68300002Y-16000539D01*
X68325014Y-16000524D01*
X68325014Y-16000528D01*
X68325158Y-16000500D01*
X72083500Y-16000500D01*
X72151621Y-16020502D01*
X72198114Y-16074158D01*
X72209500Y-16126500D01*
X72209500Y-65273500D01*
X72189498Y-65341621D01*
X72135842Y-65388114D01*
X72083500Y-65399500D01*
X68325158Y-65399500D01*
X68324952Y-65399459D01*
X68300001Y-65399459D01*
X68300000Y-65399459D01*
X68299901Y-65399500D01*
X68299617Y-65399617D01*
X68299459Y-65400000D01*
X68299476Y-65425014D01*
X68299471Y-65425014D01*
X68299500Y-65425157D01*
X68299500Y-68193500D01*
X68279498Y-68261621D01*
X68225842Y-68308114D01*
X68173500Y-68319500D01*
X40592694Y-68319500D01*
X40524573Y-68299498D01*
X40478080Y-68245842D01*
X40467976Y-68175568D01*
X40497470Y-68110988D01*
X40557196Y-68072604D01*
X40579071Y-68068239D01*
X40596777Y-68066313D01*
X40927941Y-68030297D01*
X41273021Y-67954339D01*
X41607867Y-67841517D01*
X41928551Y-67693152D01*
X42231314Y-67510986D01*
X42512607Y-67297153D01*
X42769131Y-67054160D01*
X42997879Y-66784857D01*
X43196170Y-66492400D01*
X43361678Y-66180218D01*
X43492463Y-65851972D01*
X43562423Y-65600000D01*
X45581426Y-65600000D01*
X45600096Y-65837229D01*
X45655648Y-66068617D01*
X45746712Y-66288465D01*
X45870856Y-66491051D01*
X45871048Y-66491363D01*
X45871049Y-66491365D01*
X46025590Y-66672310D01*
X46206535Y-66826851D01*
X46206539Y-66826854D01*
X46409436Y-66951189D01*
X46629284Y-67042253D01*
X46860672Y-67097805D01*
X47097901Y-67116475D01*
X47335130Y-67097805D01*
X47566518Y-67042253D01*
X47786366Y-66951189D01*
X47989263Y-66826854D01*
X48170211Y-66672310D01*
X48291876Y-66529857D01*
X48351324Y-66491051D01*
X48422319Y-66490543D01*
X48472571Y-66518575D01*
X48492559Y-66536797D01*
X48492561Y-66536798D01*
X48492562Y-66536799D01*
X48676744Y-66650839D01*
X48878745Y-66729095D01*
X49091685Y-66768900D01*
X49091687Y-66768900D01*
X49308313Y-66768900D01*
X49308315Y-66768900D01*
X49521255Y-66729095D01*
X49723256Y-66650839D01*
X49907438Y-66536799D01*
X50067528Y-66390857D01*
X50099449Y-66348587D01*
X50156462Y-66306278D01*
X50227298Y-66301510D01*
X50289468Y-66335795D01*
X50300550Y-66348585D01*
X50332471Y-66390856D01*
X50492560Y-66536797D01*
X50492562Y-66536798D01*
X50492563Y-66536799D01*
X50676745Y-66650839D01*
X50878746Y-66729095D01*
X51091686Y-66768900D01*
X51091688Y-66768900D01*
X51308314Y-66768900D01*
X51308316Y-66768900D01*
X51521256Y-66729095D01*
X51723257Y-66650839D01*
X51907439Y-66536799D01*
X52067529Y-66390857D01*
X52099450Y-66348587D01*
X52156463Y-66306278D01*
X52227299Y-66301510D01*
X52289469Y-66335795D01*
X52300551Y-66348585D01*
X52332472Y-66390856D01*
X52492561Y-66536797D01*
X52492563Y-66536798D01*
X52492564Y-66536799D01*
X52676746Y-66650839D01*
X52878747Y-66729095D01*
X53091687Y-66768900D01*
X53091689Y-66768900D01*
X53308315Y-66768900D01*
X53308317Y-66768900D01*
X53521257Y-66729095D01*
X53723258Y-66650839D01*
X53907440Y-66536799D01*
X53927431Y-66518574D01*
X53991247Y-66487464D01*
X54061753Y-66495794D01*
X54108127Y-66529860D01*
X54229790Y-66672310D01*
X54410735Y-66826851D01*
X54410739Y-66826854D01*
X54613636Y-66951189D01*
X54833484Y-67042253D01*
X55064872Y-67097805D01*
X55302101Y-67116475D01*
X55539330Y-67097805D01*
X55770718Y-67042253D01*
X55990566Y-66951189D01*
X56193463Y-66826854D01*
X56374411Y-66672310D01*
X56528955Y-66491362D01*
X56653290Y-66288465D01*
X56744354Y-66068617D01*
X56799906Y-65837229D01*
X56818576Y-65600000D01*
X56799906Y-65362771D01*
X56744354Y-65131383D01*
X56653290Y-64911535D01*
X56528955Y-64708638D01*
X56528952Y-64708634D01*
X56374411Y-64527689D01*
X56193466Y-64373148D01*
X56193464Y-64373147D01*
X56193463Y-64373146D01*
X55990566Y-64248811D01*
X55770718Y-64157747D01*
X55770716Y-64157746D01*
X55770715Y-64157746D01*
X55646192Y-64127850D01*
X55539330Y-64102195D01*
X55539331Y-64102195D01*
X55302101Y-64083525D01*
X55064871Y-64102195D01*
X54833486Y-64157746D01*
X54613637Y-64248810D01*
X54410737Y-64373147D01*
X54410735Y-64373148D01*
X54229793Y-64527687D01*
X54108127Y-64670140D01*
X54048676Y-64708949D01*
X53977682Y-64709455D01*
X53927430Y-64681424D01*
X53907442Y-64663202D01*
X53723258Y-64549161D01*
X53723251Y-64549158D01*
X53521264Y-64470907D01*
X53521261Y-64470906D01*
X53521258Y-64470905D01*
X53521257Y-64470905D01*
X53308317Y-64431100D01*
X53091687Y-64431100D01*
X52878747Y-64470905D01*
X52878742Y-64470906D01*
X52878739Y-64470907D01*
X52676752Y-64549158D01*
X52676745Y-64549161D01*
X52492561Y-64663202D01*
X52332471Y-64809144D01*
X52300550Y-64851415D01*
X52243536Y-64893722D01*
X52172700Y-64898489D01*
X52110531Y-64864202D01*
X52099451Y-64851415D01*
X52067529Y-64809143D01*
X52067526Y-64809140D01*
X51907441Y-64663202D01*
X51723257Y-64549161D01*
X51723250Y-64549158D01*
X51521263Y-64470907D01*
X51521260Y-64470906D01*
X51521257Y-64470905D01*
X51521256Y-64470905D01*
X51308316Y-64431100D01*
X51091686Y-64431100D01*
X50878746Y-64470905D01*
X50878741Y-64470906D01*
X50878738Y-64470907D01*
X50676751Y-64549158D01*
X50676744Y-64549161D01*
X50492560Y-64663202D01*
X50332470Y-64809144D01*
X50300549Y-64851415D01*
X50243535Y-64893722D01*
X50172699Y-64898489D01*
X50110530Y-64864202D01*
X50099450Y-64851415D01*
X50067528Y-64809143D01*
X50067525Y-64809140D01*
X49907440Y-64663202D01*
X49723256Y-64549161D01*
X49723249Y-64549158D01*
X49521262Y-64470907D01*
X49521259Y-64470906D01*
X49521256Y-64470905D01*
X49521255Y-64470905D01*
X49308315Y-64431100D01*
X49091685Y-64431100D01*
X48878745Y-64470905D01*
X48878740Y-64470906D01*
X48878737Y-64470907D01*
X48676750Y-64549158D01*
X48676743Y-64549161D01*
X48492562Y-64663200D01*
X48492556Y-64663205D01*
X48472567Y-64681427D01*
X48408749Y-64712536D01*
X48338243Y-64704203D01*
X48291874Y-64670139D01*
X48170211Y-64527689D01*
X47989266Y-64373148D01*
X47989264Y-64373147D01*
X47989263Y-64373146D01*
X47786366Y-64248811D01*
X47566518Y-64157747D01*
X47566516Y-64157746D01*
X47566515Y-64157746D01*
X47441992Y-64127850D01*
X47335130Y-64102195D01*
X47335131Y-64102195D01*
X47097901Y-64083525D01*
X46860671Y-64102195D01*
X46629286Y-64157746D01*
X46409437Y-64248810D01*
X46206537Y-64373147D01*
X46206535Y-64373148D01*
X46025590Y-64527689D01*
X45871049Y-64708634D01*
X45871048Y-64708636D01*
X45746711Y-64911536D01*
X45655647Y-65131385D01*
X45600096Y-65362770D01*
X45600096Y-65362771D01*
X45581426Y-65600000D01*
X43562423Y-65600000D01*
X43586992Y-65511510D01*
X43644156Y-65162823D01*
X43663286Y-64810000D01*
X43663239Y-64809140D01*
X43660478Y-64758221D01*
X43644156Y-64457177D01*
X43586992Y-64108490D01*
X43492463Y-63768028D01*
X43361678Y-63439782D01*
X43196170Y-63127600D01*
X42997879Y-62835143D01*
X42769131Y-62565840D01*
X42769126Y-62565835D01*
X42512621Y-62322859D01*
X42512606Y-62322846D01*
X42231318Y-62109017D01*
X42231312Y-62109013D01*
X41928551Y-61926848D01*
X41928545Y-61926845D01*
X41607884Y-61778490D01*
X41607865Y-61778482D01*
X41273030Y-61665664D01*
X41273029Y-61665663D01*
X41273021Y-61665661D01*
X41273016Y-61665659D01*
X41273013Y-61665659D01*
X40927957Y-61589706D01*
X40927944Y-61589703D01*
X40927941Y-61589703D01*
X40927938Y-61589702D01*
X40927929Y-61589701D01*
X40576678Y-61551500D01*
X40576671Y-61551500D01*
X40223329Y-61551500D01*
X40223321Y-61551500D01*
X39872070Y-61589701D01*
X39872042Y-61589706D01*
X39526986Y-61665659D01*
X39526969Y-61665664D01*
X39192134Y-61778482D01*
X39192115Y-61778490D01*
X38871454Y-61926845D01*
X38871447Y-61926849D01*
X38568687Y-62109013D01*
X38568681Y-62109017D01*
X38287393Y-62322846D01*
X38287378Y-62322859D01*
X38030873Y-62565835D01*
X38030869Y-62565840D01*
X37802121Y-62835143D01*
X37603830Y-63127600D01*
X37603827Y-63127605D01*
X37603826Y-63127607D01*
X37438321Y-63439784D01*
X37438317Y-63439793D01*
X37307537Y-63768027D01*
X37213006Y-64108494D01*
X37155844Y-64457176D01*
X37136714Y-64809997D01*
X37136714Y-64810002D01*
X37155844Y-65162823D01*
X37213006Y-65511505D01*
X37237577Y-65600000D01*
X37307537Y-65851972D01*
X37438322Y-66180218D01*
X37603830Y-66492400D01*
X37802121Y-66784857D01*
X38030869Y-67054160D01*
X38030872Y-67054162D01*
X38030873Y-67054164D01*
X38287378Y-67297140D01*
X38287393Y-67297153D01*
X38568686Y-67510986D01*
X38871449Y-67693152D01*
X39028164Y-67765656D01*
X39192115Y-67841509D01*
X39192122Y-67841512D01*
X39192133Y-67841517D01*
X39526979Y-67954339D01*
X39872059Y-68030297D01*
X40194166Y-68065328D01*
X40220929Y-68068239D01*
X40286488Y-68095489D01*
X40326907Y-68153856D01*
X40329354Y-68224811D01*
X40293051Y-68285824D01*
X40229525Y-68317525D01*
X40207306Y-68319500D01*
X25436500Y-68319500D01*
X25368379Y-68299498D01*
X25321886Y-68245842D01*
X25310500Y-68193500D01*
X25310500Y-60010000D01*
X61557028Y-60010000D01*
X61576886Y-60262323D01*
X61635971Y-60508434D01*
X61732830Y-60742272D01*
X61864177Y-60956611D01*
X61864178Y-60956611D01*
X62566065Y-60254724D01*
X62577188Y-60288956D01*
X62665186Y-60427619D01*
X62784903Y-60540040D01*
X62923160Y-60616048D01*
X62223387Y-61315820D01*
X62223387Y-61315822D01*
X62437727Y-61447169D01*
X62671565Y-61544028D01*
X62917676Y-61603113D01*
X63170000Y-61622971D01*
X63422323Y-61603113D01*
X63668434Y-61544028D01*
X63902277Y-61447167D01*
X64116611Y-61315822D01*
X64116611Y-61315820D01*
X63413482Y-60612691D01*
X63485629Y-60584126D01*
X63618492Y-60487595D01*
X63723175Y-60361055D01*
X63773441Y-60254232D01*
X64475820Y-60956611D01*
X64475822Y-60956611D01*
X64607167Y-60742277D01*
X64704028Y-60508434D01*
X64763113Y-60262323D01*
X64782971Y-60010000D01*
X64763113Y-59757676D01*
X64704028Y-59511565D01*
X64607169Y-59277727D01*
X64475822Y-59063387D01*
X64475820Y-59063387D01*
X63773933Y-59765273D01*
X63762812Y-59731044D01*
X63674814Y-59592381D01*
X63555097Y-59479960D01*
X63416839Y-59403951D01*
X64116611Y-58704178D01*
X64116611Y-58704177D01*
X63902272Y-58572830D01*
X63668434Y-58475971D01*
X63422323Y-58416886D01*
X63170000Y-58397028D01*
X62917676Y-58416886D01*
X62671565Y-58475971D01*
X62437727Y-58572830D01*
X62223387Y-58704176D01*
X62223387Y-58704178D01*
X62926517Y-59407308D01*
X62854371Y-59435874D01*
X62721508Y-59532405D01*
X62616825Y-59658945D01*
X62566558Y-59765767D01*
X61864178Y-59063387D01*
X61864176Y-59063387D01*
X61732830Y-59277727D01*
X61635971Y-59511565D01*
X61576886Y-59757676D01*
X61557028Y-60010000D01*
X25310500Y-60010000D01*
X25310500Y-58105000D01*
X66636526Y-58105000D01*
X66656391Y-58357403D01*
X66675062Y-58435177D01*
X66715494Y-58603589D01*
X66757159Y-58704176D01*
X66812384Y-58837502D01*
X66944672Y-59053376D01*
X67109102Y-59245898D01*
X67301624Y-59410328D01*
X67517498Y-59542616D01*
X67751409Y-59639505D01*
X67997597Y-59698609D01*
X68250000Y-59718474D01*
X68502403Y-59698609D01*
X68748591Y-59639505D01*
X68982502Y-59542616D01*
X69198376Y-59410328D01*
X69390898Y-59245898D01*
X69555328Y-59053376D01*
X69687616Y-58837502D01*
X69784505Y-58603591D01*
X69843609Y-58357403D01*
X69863474Y-58105000D01*
X69843609Y-57852597D01*
X69784505Y-57606409D01*
X69687616Y-57372498D01*
X69555328Y-57156624D01*
X69390898Y-56964102D01*
X69198376Y-56799672D01*
X68982502Y-56667384D01*
X68748591Y-56570495D01*
X68748589Y-56570494D01*
X68580177Y-56530062D01*
X68502403Y-56511391D01*
X68250000Y-56491526D01*
X67997597Y-56511391D01*
X67751410Y-56570494D01*
X67517499Y-56667383D01*
X67301625Y-56799671D01*
X67109102Y-56964102D01*
X66944671Y-57156625D01*
X66812383Y-57372499D01*
X66715494Y-57606410D01*
X66656391Y-57852597D01*
X66636526Y-58105000D01*
X25310500Y-58105000D01*
X25310500Y-55200004D01*
X44017308Y-55200004D01*
X44036052Y-55474048D01*
X44036053Y-55474054D01*
X44091942Y-55743011D01*
X44091944Y-55743019D01*
X44183938Y-56001865D01*
X44310314Y-56245756D01*
X44310316Y-56245759D01*
X44440541Y-56430248D01*
X45166177Y-55704612D01*
X45235146Y-55815263D01*
X45375268Y-55962671D01*
X45523420Y-56065788D01*
X44800715Y-56788492D01*
X44800715Y-56788494D01*
X44869313Y-56844304D01*
X44869318Y-56844307D01*
X45104030Y-56987038D01*
X45355989Y-57096480D01*
X45620509Y-57170595D01*
X45892635Y-57207999D01*
X45892649Y-57208000D01*
X46167351Y-57208000D01*
X46167364Y-57207999D01*
X46439490Y-57170595D01*
X46704010Y-57096480D01*
X46955969Y-56987038D01*
X47190679Y-56844309D01*
X47259283Y-56788493D01*
X47259283Y-56788492D01*
X46534488Y-56063697D01*
X46604214Y-56024996D01*
X46758531Y-55892520D01*
X46883021Y-55731692D01*
X46895487Y-55706277D01*
X47619457Y-56430247D01*
X47749682Y-56245762D01*
X47749685Y-56245756D01*
X47876061Y-56001865D01*
X47968055Y-55743019D01*
X47968057Y-55743011D01*
X48023946Y-55474054D01*
X48023947Y-55474048D01*
X48042692Y-55200004D01*
X48042692Y-55199995D01*
X48023947Y-54925951D01*
X48023946Y-54925945D01*
X47968057Y-54656988D01*
X47968055Y-54656980D01*
X47876061Y-54398134D01*
X47749685Y-54154243D01*
X47749681Y-54154237D01*
X47619457Y-53969750D01*
X46893821Y-54695385D01*
X46824854Y-54584737D01*
X46684732Y-54437329D01*
X46536578Y-54334210D01*
X47259283Y-53611504D01*
X47245143Y-53600000D01*
X49391499Y-53600000D01*
X49411475Y-53866565D01*
X49470957Y-54127171D01*
X49470958Y-54127173D01*
X49568612Y-54375995D01*
X49568614Y-54375999D01*
X49702268Y-54607494D01*
X49702270Y-54607497D01*
X49702271Y-54607498D01*
X49741738Y-54656988D01*
X49868939Y-54816494D01*
X50010730Y-54948055D01*
X50064888Y-54998306D01*
X50064894Y-54998310D01*
X50285740Y-55148881D01*
X50285744Y-55148883D01*
X50285750Y-55148887D01*
X50526587Y-55264869D01*
X50695402Y-55316941D01*
X50782010Y-55343657D01*
X50782012Y-55343657D01*
X50782021Y-55343660D01*
X51046345Y-55383500D01*
X51046349Y-55383500D01*
X51313651Y-55383500D01*
X51313655Y-55383500D01*
X51577979Y-55343660D01*
X51577989Y-55343657D01*
X51833404Y-55264872D01*
X51833406Y-55264871D01*
X51833413Y-55264869D01*
X51968106Y-55200004D01*
X54317308Y-55200004D01*
X54336052Y-55474048D01*
X54336053Y-55474054D01*
X54391942Y-55743011D01*
X54391944Y-55743019D01*
X54483938Y-56001865D01*
X54610314Y-56245756D01*
X54610316Y-56245759D01*
X54740541Y-56430248D01*
X55466177Y-55704612D01*
X55535146Y-55815263D01*
X55675268Y-55962671D01*
X55823420Y-56065788D01*
X55100715Y-56788492D01*
X55100715Y-56788494D01*
X55169313Y-56844304D01*
X55169318Y-56844307D01*
X55404030Y-56987038D01*
X55655989Y-57096480D01*
X55920509Y-57170595D01*
X56192635Y-57207999D01*
X56192649Y-57208000D01*
X56467351Y-57208000D01*
X56467364Y-57207999D01*
X56739490Y-57170595D01*
X57004010Y-57096480D01*
X57255969Y-56987038D01*
X57490679Y-56844309D01*
X57559283Y-56788493D01*
X57559283Y-56788492D01*
X56834488Y-56063697D01*
X56904214Y-56024996D01*
X57058531Y-55892520D01*
X57183021Y-55731692D01*
X57195487Y-55706277D01*
X57919457Y-56430247D01*
X58049682Y-56245762D01*
X58049685Y-56245756D01*
X58073394Y-56200000D01*
X61556526Y-56200000D01*
X61576391Y-56452402D01*
X61635494Y-56698589D01*
X61677364Y-56799671D01*
X61732384Y-56932502D01*
X61864672Y-57148376D01*
X62029102Y-57340898D01*
X62221624Y-57505328D01*
X62437498Y-57637616D01*
X62671409Y-57734505D01*
X62917597Y-57793609D01*
X63170000Y-57813474D01*
X63422403Y-57793609D01*
X63668591Y-57734505D01*
X63902502Y-57637616D01*
X64118376Y-57505328D01*
X64310898Y-57340898D01*
X64475328Y-57148376D01*
X64607616Y-56932502D01*
X64704505Y-56698591D01*
X64763609Y-56452403D01*
X64783474Y-56200000D01*
X64763609Y-55947597D01*
X64704505Y-55701409D01*
X64607616Y-55467498D01*
X64475328Y-55251624D01*
X64310898Y-55059102D01*
X64118376Y-54894672D01*
X63902502Y-54762384D01*
X63675383Y-54668308D01*
X63668589Y-54665494D01*
X63500177Y-54625062D01*
X63422403Y-54606391D01*
X63170000Y-54586526D01*
X62917597Y-54606391D01*
X62671410Y-54665494D01*
X62437499Y-54762383D01*
X62221625Y-54894671D01*
X62029102Y-55059102D01*
X61864671Y-55251625D01*
X61732383Y-55467499D01*
X61635494Y-55701410D01*
X61576391Y-55947597D01*
X61556526Y-56200000D01*
X58073394Y-56200000D01*
X58176061Y-56001865D01*
X58268055Y-55743019D01*
X58268057Y-55743011D01*
X58323946Y-55474054D01*
X58323947Y-55474048D01*
X58342692Y-55200004D01*
X58342692Y-55199995D01*
X58323947Y-54925951D01*
X58323946Y-54925945D01*
X58268057Y-54656988D01*
X58268055Y-54656980D01*
X58176061Y-54398134D01*
X58122620Y-54295000D01*
X66637028Y-54295000D01*
X66656886Y-54547323D01*
X66715971Y-54793434D01*
X66812830Y-55027272D01*
X66944177Y-55241611D01*
X66944178Y-55241611D01*
X67646065Y-54539724D01*
X67657188Y-54573956D01*
X67745186Y-54712619D01*
X67864903Y-54825040D01*
X68003160Y-54901048D01*
X67303387Y-55600820D01*
X67303387Y-55600822D01*
X67517727Y-55732169D01*
X67751565Y-55829028D01*
X67997676Y-55888113D01*
X68250000Y-55907971D01*
X68502323Y-55888113D01*
X68748434Y-55829028D01*
X68982277Y-55732167D01*
X69196611Y-55600822D01*
X69196611Y-55600820D01*
X68493482Y-54897691D01*
X68565629Y-54869126D01*
X68698492Y-54772595D01*
X68803175Y-54646055D01*
X68853441Y-54539232D01*
X69555820Y-55241611D01*
X69555822Y-55241611D01*
X69687167Y-55027277D01*
X69784028Y-54793434D01*
X69843113Y-54547323D01*
X69862971Y-54295000D01*
X69843113Y-54042676D01*
X69784028Y-53796565D01*
X69687169Y-53562727D01*
X69555822Y-53348387D01*
X69555820Y-53348387D01*
X68853933Y-54050273D01*
X68842812Y-54016044D01*
X68754814Y-53877381D01*
X68635097Y-53764960D01*
X68496839Y-53688951D01*
X69196611Y-52989178D01*
X69196611Y-52989177D01*
X68982272Y-52857830D01*
X68748434Y-52760971D01*
X68502323Y-52701886D01*
X68250000Y-52682028D01*
X67997676Y-52701886D01*
X67751565Y-52760971D01*
X67517727Y-52857830D01*
X67303387Y-52989176D01*
X67303387Y-52989178D01*
X68006517Y-53692308D01*
X67934371Y-53720874D01*
X67801508Y-53817405D01*
X67696825Y-53943945D01*
X67646558Y-54050767D01*
X66944178Y-53348387D01*
X66944176Y-53348387D01*
X66812830Y-53562727D01*
X66715971Y-53796565D01*
X66656886Y-54042676D01*
X66637028Y-54295000D01*
X58122620Y-54295000D01*
X58049685Y-54154243D01*
X58049681Y-54154237D01*
X57919457Y-53969750D01*
X57193821Y-54695385D01*
X57124854Y-54584737D01*
X56984732Y-54437329D01*
X56836578Y-54334210D01*
X57559283Y-53611504D01*
X57490680Y-53555691D01*
X57255969Y-53412961D01*
X57004010Y-53303519D01*
X56739490Y-53229404D01*
X56467364Y-53192000D01*
X56192635Y-53192000D01*
X55920509Y-53229404D01*
X55655989Y-53303519D01*
X55404030Y-53412961D01*
X55169325Y-53555687D01*
X55100715Y-53611505D01*
X55100714Y-53611505D01*
X55825511Y-54336302D01*
X55755786Y-54375004D01*
X55601469Y-54507480D01*
X55476979Y-54668308D01*
X55464512Y-54693721D01*
X54740541Y-53969750D01*
X54610317Y-54154236D01*
X54483938Y-54398134D01*
X54391944Y-54656980D01*
X54391942Y-54656988D01*
X54336053Y-54925945D01*
X54336052Y-54925951D01*
X54317308Y-55199995D01*
X54317308Y-55200004D01*
X51968106Y-55200004D01*
X52074251Y-55148887D01*
X52295112Y-54998306D01*
X52491064Y-54816490D01*
X52657729Y-54607498D01*
X52791384Y-54376002D01*
X52802632Y-54347344D01*
X52843997Y-54241945D01*
X52889043Y-54127170D01*
X52948525Y-53866562D01*
X52968501Y-53600000D01*
X52948525Y-53333438D01*
X52889043Y-53072830D01*
X52846380Y-52964126D01*
X52791387Y-52824004D01*
X52791385Y-52824000D01*
X52781927Y-52807619D01*
X52701870Y-52668956D01*
X52657731Y-52592505D01*
X52611314Y-52534300D01*
X52496240Y-52390000D01*
X61557028Y-52390000D01*
X61576886Y-52642323D01*
X61635971Y-52888434D01*
X61732830Y-53122272D01*
X61864177Y-53336611D01*
X61864178Y-53336611D01*
X62566065Y-52634724D01*
X62577188Y-52668956D01*
X62665186Y-52807619D01*
X62784903Y-52920040D01*
X62923160Y-52996048D01*
X62223387Y-53695820D01*
X62223387Y-53695822D01*
X62437727Y-53827169D01*
X62671565Y-53924028D01*
X62917676Y-53983113D01*
X63170000Y-54002971D01*
X63422323Y-53983113D01*
X63668434Y-53924028D01*
X63902277Y-53827167D01*
X64116611Y-53695822D01*
X64116611Y-53695820D01*
X63413482Y-52992691D01*
X63485629Y-52964126D01*
X63618492Y-52867595D01*
X63723175Y-52741055D01*
X63773441Y-52634232D01*
X64475820Y-53336611D01*
X64475822Y-53336611D01*
X64607167Y-53122277D01*
X64704028Y-52888434D01*
X64763113Y-52642323D01*
X64782971Y-52390000D01*
X64763113Y-52137676D01*
X64704028Y-51891565D01*
X64607169Y-51657727D01*
X64475822Y-51443387D01*
X64475820Y-51443387D01*
X63773933Y-52145273D01*
X63762812Y-52111044D01*
X63674814Y-51972381D01*
X63555097Y-51859960D01*
X63416839Y-51783951D01*
X64116611Y-51084178D01*
X64116611Y-51084177D01*
X63902272Y-50952830D01*
X63668434Y-50855971D01*
X63422323Y-50796886D01*
X63170000Y-50777028D01*
X62917676Y-50796886D01*
X62671565Y-50855971D01*
X62437727Y-50952830D01*
X62223387Y-51084176D01*
X62223387Y-51084178D01*
X62926517Y-51787308D01*
X62854371Y-51815874D01*
X62721508Y-51912405D01*
X62616825Y-52038945D01*
X62566558Y-52145767D01*
X61864178Y-51443387D01*
X61864176Y-51443387D01*
X61732830Y-51657727D01*
X61635971Y-51891565D01*
X61576886Y-52137676D01*
X61557028Y-52390000D01*
X52496240Y-52390000D01*
X52491064Y-52383510D01*
X52491063Y-52383509D01*
X52491060Y-52383505D01*
X52295117Y-52201699D01*
X52295111Y-52201693D01*
X52203518Y-52139246D01*
X52074251Y-52051113D01*
X51910763Y-51972381D01*
X51833416Y-51935132D01*
X51833404Y-51935127D01*
X51577989Y-51856342D01*
X51577981Y-51856340D01*
X51577979Y-51856340D01*
X51313655Y-51816500D01*
X51046345Y-51816500D01*
X50782021Y-51856340D01*
X50782019Y-51856340D01*
X50782010Y-51856342D01*
X50526583Y-51935132D01*
X50285748Y-52051114D01*
X50285740Y-52051118D01*
X50064894Y-52201689D01*
X50064882Y-52201699D01*
X49868939Y-52383505D01*
X49702268Y-52592505D01*
X49568614Y-52824000D01*
X49568612Y-52824004D01*
X49470958Y-53072826D01*
X49470957Y-53072828D01*
X49411475Y-53333434D01*
X49391499Y-53600000D01*
X47245143Y-53600000D01*
X47190680Y-53555691D01*
X46955969Y-53412961D01*
X46704010Y-53303519D01*
X46439490Y-53229404D01*
X46167364Y-53192000D01*
X45892635Y-53192000D01*
X45620509Y-53229404D01*
X45355989Y-53303519D01*
X45104030Y-53412961D01*
X44869325Y-53555687D01*
X44800715Y-53611505D01*
X44800714Y-53611505D01*
X45525511Y-54336302D01*
X45455786Y-54375004D01*
X45301469Y-54507480D01*
X45176979Y-54668308D01*
X45164512Y-54693721D01*
X44440541Y-53969750D01*
X44310317Y-54154236D01*
X44183938Y-54398134D01*
X44091944Y-54656980D01*
X44091942Y-54656988D01*
X44036053Y-54925945D01*
X44036052Y-54925951D01*
X44017308Y-55199995D01*
X44017308Y-55200004D01*
X25310500Y-55200004D01*
X25310500Y-43321572D01*
X27932736Y-43321572D01*
X27943628Y-43381011D01*
X27944201Y-43384774D01*
X27951485Y-43444769D01*
X27951488Y-43444778D01*
X27954833Y-43453600D01*
X27960954Y-43475554D01*
X27962655Y-43484836D01*
X27962656Y-43484839D01*
X27987456Y-43539941D01*
X27988913Y-43543458D01*
X28010345Y-43599970D01*
X28010346Y-43599973D01*
X28015704Y-43607735D01*
X28026907Y-43627599D01*
X28030774Y-43636193D01*
X28030776Y-43636196D01*
X28068045Y-43683766D01*
X28070292Y-43686819D01*
X28073552Y-43691541D01*
X28104633Y-43736571D01*
X28104634Y-43736572D01*
X28104635Y-43736573D01*
X28149880Y-43776656D01*
X28152626Y-43779241D01*
X28508802Y-44135417D01*
X28835904Y-44462519D01*
X28869930Y-44524831D01*
X28868518Y-44584218D01*
X28866458Y-44591907D01*
X28866457Y-44591910D01*
X28866457Y-44591913D01*
X28846502Y-44820000D01*
X28866457Y-45048087D01*
X28884573Y-45115697D01*
X28925715Y-45269240D01*
X28925717Y-45269246D01*
X29022477Y-45476749D01*
X29148937Y-45657353D01*
X29153802Y-45664300D01*
X29315700Y-45826198D01*
X29315703Y-45826200D01*
X29366526Y-45861787D01*
X29410854Y-45917244D01*
X29418163Y-45987864D01*
X29386132Y-46051224D01*
X29366526Y-46068213D01*
X29315703Y-46103799D01*
X29315697Y-46103804D01*
X29153804Y-46265697D01*
X29153799Y-46265703D01*
X29022477Y-46453250D01*
X28925717Y-46660753D01*
X28925715Y-46660759D01*
X28867933Y-46876403D01*
X28866457Y-46881913D01*
X28846502Y-47110000D01*
X28852725Y-47181135D01*
X28866457Y-47338086D01*
X28925715Y-47559240D01*
X28925717Y-47559246D01*
X29022477Y-47766749D01*
X29046215Y-47800651D01*
X29153802Y-47954300D01*
X29315700Y-48116198D01*
X29315703Y-48116200D01*
X29366526Y-48151787D01*
X29410854Y-48207244D01*
X29418163Y-48277864D01*
X29386132Y-48341224D01*
X29366526Y-48358213D01*
X29315703Y-48393799D01*
X29315697Y-48393804D01*
X29153804Y-48555697D01*
X29153799Y-48555703D01*
X29022477Y-48743250D01*
X28925717Y-48950753D01*
X28925715Y-48950759D01*
X28866457Y-49171913D01*
X28846502Y-49400000D01*
X28866457Y-49628086D01*
X28925715Y-49849240D01*
X28925717Y-49849246D01*
X29004229Y-50017616D01*
X29022477Y-50056749D01*
X29153802Y-50244300D01*
X29315700Y-50406198D01*
X29315703Y-50406200D01*
X29366526Y-50441787D01*
X29410854Y-50497244D01*
X29418163Y-50567864D01*
X29386132Y-50631224D01*
X29366526Y-50648213D01*
X29315703Y-50683799D01*
X29315697Y-50683804D01*
X29153804Y-50845697D01*
X29153799Y-50845703D01*
X29022477Y-51033250D01*
X28925717Y-51240753D01*
X28925715Y-51240759D01*
X28866457Y-51461913D01*
X28846502Y-51690000D01*
X28866457Y-51918086D01*
X28925715Y-52139240D01*
X28925717Y-52139246D01*
X28985399Y-52267234D01*
X29022477Y-52346749D01*
X29153802Y-52534300D01*
X29315700Y-52696198D01*
X29503251Y-52827523D01*
X29710757Y-52924284D01*
X29931913Y-52983543D01*
X30160000Y-53003498D01*
X30388087Y-52983543D01*
X30609243Y-52924284D01*
X30816749Y-52827523D01*
X31004300Y-52696198D01*
X31166198Y-52534300D01*
X31297523Y-52346749D01*
X31394284Y-52139243D01*
X31453543Y-51918087D01*
X31473498Y-51690000D01*
X31453543Y-51461913D01*
X31394284Y-51240757D01*
X31297523Y-51033251D01*
X31166198Y-50845700D01*
X31004300Y-50683802D01*
X30953472Y-50648212D01*
X30909145Y-50592757D01*
X30901836Y-50522137D01*
X30933866Y-50458777D01*
X30953468Y-50441790D01*
X31004300Y-50406198D01*
X31166198Y-50244300D01*
X31297523Y-50056749D01*
X31394284Y-49849243D01*
X31453543Y-49628087D01*
X31473498Y-49400000D01*
X31453543Y-49171913D01*
X31394284Y-48950757D01*
X31297523Y-48743251D01*
X31166198Y-48555700D01*
X31004300Y-48393802D01*
X30953472Y-48358212D01*
X30909145Y-48302757D01*
X30901836Y-48232137D01*
X30933866Y-48168777D01*
X30953468Y-48151790D01*
X31004300Y-48116198D01*
X31166198Y-47954300D01*
X31297523Y-47766749D01*
X31394284Y-47559243D01*
X31453543Y-47338087D01*
X31473498Y-47110000D01*
X31453543Y-46881913D01*
X31453540Y-46881902D01*
X31453079Y-46879286D01*
X31453209Y-46878111D01*
X31453063Y-46876433D01*
X31453400Y-46876403D01*
X31460942Y-46808726D01*
X31505705Y-46753619D01*
X31573155Y-46731460D01*
X31641877Y-46749285D01*
X31680374Y-46785123D01*
X31693802Y-46804300D01*
X31855700Y-46966198D01*
X32043251Y-47097523D01*
X32250757Y-47194284D01*
X32471913Y-47253543D01*
X32700000Y-47273498D01*
X32928087Y-47253543D01*
X32935767Y-47251485D01*
X33006741Y-47253169D01*
X33057479Y-47284094D01*
X33344595Y-47571210D01*
X33378621Y-47633522D01*
X33381500Y-47660305D01*
X33381500Y-52672443D01*
X33381385Y-52676248D01*
X33377736Y-52736572D01*
X33388628Y-52796011D01*
X33389201Y-52799774D01*
X33396485Y-52859769D01*
X33396488Y-52859778D01*
X33399833Y-52868600D01*
X33405954Y-52890554D01*
X33407655Y-52899836D01*
X33407656Y-52899839D01*
X33432456Y-52954941D01*
X33433913Y-52958458D01*
X33455345Y-53014970D01*
X33455346Y-53014973D01*
X33460704Y-53022735D01*
X33471907Y-53042599D01*
X33475774Y-53051193D01*
X33475776Y-53051196D01*
X33513045Y-53098766D01*
X33515292Y-53101819D01*
X33529410Y-53122272D01*
X33549633Y-53151571D01*
X33549634Y-53151572D01*
X33549635Y-53151573D01*
X33594880Y-53191656D01*
X33597626Y-53194241D01*
X34560749Y-54157364D01*
X34563342Y-54160119D01*
X34603421Y-54205360D01*
X34603428Y-54205366D01*
X34653154Y-54239689D01*
X34656220Y-54241945D01*
X34679060Y-54259838D01*
X34703802Y-54279223D01*
X34712402Y-54283093D01*
X34732265Y-54294295D01*
X34740029Y-54299654D01*
X34791287Y-54319094D01*
X34796534Y-54321084D01*
X34800041Y-54322536D01*
X34830264Y-54336138D01*
X34855163Y-54347344D01*
X34864430Y-54349042D01*
X34886402Y-54355166D01*
X34895226Y-54358513D01*
X34955230Y-54365798D01*
X34958973Y-54366368D01*
X35018427Y-54377264D01*
X35078753Y-54373614D01*
X35082555Y-54373500D01*
X41207444Y-54373500D01*
X41211247Y-54373614D01*
X41271572Y-54377264D01*
X41331029Y-54366367D01*
X41334766Y-54365798D01*
X41394774Y-54358513D01*
X41403590Y-54355169D01*
X41425570Y-54349042D01*
X41425655Y-54349026D01*
X41434837Y-54347344D01*
X41476052Y-54328793D01*
X41489950Y-54322539D01*
X41493460Y-54321084D01*
X41549971Y-54299654D01*
X41557729Y-54294298D01*
X41577592Y-54283095D01*
X41586197Y-54279223D01*
X41633778Y-54241944D01*
X41636817Y-54239707D01*
X41686573Y-54205365D01*
X41726672Y-54160101D01*
X41729226Y-54157387D01*
X45401614Y-50485000D01*
X66636526Y-50485000D01*
X66656391Y-50737403D01*
X66675062Y-50815177D01*
X66715494Y-50983589D01*
X66757159Y-51084176D01*
X66812384Y-51217502D01*
X66944672Y-51433376D01*
X67109102Y-51625898D01*
X67301624Y-51790328D01*
X67517498Y-51922616D01*
X67751409Y-52019505D01*
X67997597Y-52078609D01*
X68250000Y-52098474D01*
X68502403Y-52078609D01*
X68748591Y-52019505D01*
X68982502Y-51922616D01*
X69198376Y-51790328D01*
X69390898Y-51625898D01*
X69555328Y-51433376D01*
X69687616Y-51217502D01*
X69784505Y-50983591D01*
X69843609Y-50737403D01*
X69863474Y-50485000D01*
X69843609Y-50232597D01*
X69784505Y-49986409D01*
X69687616Y-49752498D01*
X69555328Y-49536624D01*
X69390898Y-49344102D01*
X69198376Y-49179672D01*
X68982502Y-49047384D01*
X68749229Y-48950759D01*
X68748589Y-48950494D01*
X68580177Y-48910062D01*
X68502403Y-48891391D01*
X68250000Y-48871526D01*
X67997597Y-48891391D01*
X67751410Y-48950494D01*
X67517499Y-49047383D01*
X67301625Y-49179671D01*
X67109102Y-49344102D01*
X66944671Y-49536625D01*
X66812383Y-49752499D01*
X66715494Y-49986410D01*
X66656391Y-50232597D01*
X66636526Y-50485000D01*
X45401614Y-50485000D01*
X47082176Y-48804438D01*
X47144486Y-48770414D01*
X47152665Y-48769099D01*
X47155483Y-48768500D01*
X47155487Y-48768500D01*
X47342288Y-48728794D01*
X47516752Y-48651118D01*
X47614637Y-48580000D01*
X61556526Y-48580000D01*
X61576391Y-48832402D01*
X61635494Y-49078589D01*
X61677364Y-49179671D01*
X61732384Y-49312502D01*
X61864672Y-49528376D01*
X62029102Y-49720898D01*
X62221624Y-49885328D01*
X62437498Y-50017616D01*
X62671409Y-50114505D01*
X62917597Y-50173609D01*
X63170000Y-50193474D01*
X63422403Y-50173609D01*
X63668591Y-50114505D01*
X63902502Y-50017616D01*
X64118376Y-49885328D01*
X64310898Y-49720898D01*
X64475328Y-49528376D01*
X64607616Y-49312502D01*
X64704505Y-49078591D01*
X64763609Y-48832403D01*
X64783474Y-48580000D01*
X64763609Y-48327597D01*
X64704505Y-48081409D01*
X64607616Y-47847498D01*
X64475328Y-47631624D01*
X64310898Y-47439102D01*
X64118376Y-47274672D01*
X63902502Y-47142384D01*
X63794196Y-47097522D01*
X63668589Y-47045494D01*
X63500177Y-47005062D01*
X63422403Y-46986391D01*
X63170000Y-46966526D01*
X62917597Y-46986391D01*
X62671410Y-47045494D01*
X62437499Y-47142383D01*
X62221625Y-47274671D01*
X62029102Y-47439102D01*
X61864671Y-47631625D01*
X61732383Y-47847499D01*
X61635494Y-48081410D01*
X61576391Y-48327597D01*
X61556526Y-48580000D01*
X47614637Y-48580000D01*
X47671253Y-48538866D01*
X47799040Y-48396944D01*
X47894527Y-48231556D01*
X47953542Y-48049928D01*
X47973504Y-47860000D01*
X47953542Y-47670072D01*
X47894527Y-47488444D01*
X47799040Y-47323056D01*
X47799038Y-47323054D01*
X47799034Y-47323048D01*
X47671255Y-47181135D01*
X47516752Y-47068882D01*
X47342288Y-46991206D01*
X47155487Y-46951500D01*
X46964513Y-46951500D01*
X46777711Y-46991206D01*
X46603247Y-47068882D01*
X46448744Y-47181135D01*
X46320965Y-47323048D01*
X46320958Y-47323058D01*
X46225476Y-47488438D01*
X46225473Y-47488445D01*
X46166459Y-47670067D01*
X46157397Y-47756278D01*
X46130383Y-47821935D01*
X46121182Y-47832201D01*
X40983790Y-52969595D01*
X40921478Y-53003620D01*
X40894695Y-53006500D01*
X36040764Y-53006500D01*
X35972643Y-52986498D01*
X35926150Y-52932842D01*
X35916046Y-52862568D01*
X35945540Y-52797988D01*
X35968493Y-52777287D01*
X36084300Y-52696198D01*
X36246198Y-52534300D01*
X36377523Y-52346749D01*
X36474284Y-52139243D01*
X36533543Y-51918087D01*
X36553498Y-51690000D01*
X36533543Y-51461913D01*
X36474284Y-51240757D01*
X36377523Y-51033251D01*
X36246198Y-50845700D01*
X36084300Y-50683802D01*
X36033472Y-50648212D01*
X35989145Y-50592757D01*
X35981836Y-50522137D01*
X36013866Y-50458777D01*
X36033468Y-50441790D01*
X36084300Y-50406198D01*
X36246198Y-50244300D01*
X36377523Y-50056749D01*
X36474284Y-49849243D01*
X36533543Y-49628087D01*
X36553498Y-49400000D01*
X36533543Y-49171913D01*
X36474284Y-48950757D01*
X36377523Y-48743251D01*
X36246198Y-48555700D01*
X36084300Y-48393802D01*
X36033472Y-48358212D01*
X35989145Y-48302757D01*
X35981836Y-48232137D01*
X36013866Y-48168777D01*
X36033468Y-48151790D01*
X36084300Y-48116198D01*
X36246198Y-47954300D01*
X36377523Y-47766749D01*
X36474284Y-47559243D01*
X36533543Y-47338087D01*
X36553498Y-47110000D01*
X36533543Y-46881913D01*
X36478100Y-46675000D01*
X66637028Y-46675000D01*
X66656886Y-46927323D01*
X66715971Y-47173434D01*
X66812830Y-47407272D01*
X66944177Y-47621611D01*
X66944178Y-47621611D01*
X67646065Y-46919724D01*
X67657188Y-46953956D01*
X67745186Y-47092619D01*
X67864903Y-47205040D01*
X68003160Y-47281048D01*
X67303387Y-47980820D01*
X67303387Y-47980822D01*
X67517727Y-48112169D01*
X67751565Y-48209028D01*
X67997676Y-48268113D01*
X68250000Y-48287971D01*
X68502323Y-48268113D01*
X68748434Y-48209028D01*
X68982277Y-48112167D01*
X69196611Y-47980822D01*
X69196611Y-47980820D01*
X68493482Y-47277691D01*
X68565629Y-47249126D01*
X68698492Y-47152595D01*
X68803175Y-47026055D01*
X68853441Y-46919232D01*
X69555820Y-47621611D01*
X69555822Y-47621611D01*
X69687167Y-47407277D01*
X69784028Y-47173434D01*
X69843113Y-46927323D01*
X69862971Y-46675000D01*
X69843113Y-46422676D01*
X69784028Y-46176565D01*
X69687169Y-45942727D01*
X69555822Y-45728387D01*
X69555820Y-45728387D01*
X68853933Y-46430273D01*
X68842812Y-46396044D01*
X68754814Y-46257381D01*
X68635097Y-46144960D01*
X68496839Y-46068951D01*
X69196611Y-45369178D01*
X69196611Y-45369177D01*
X68982272Y-45237830D01*
X68748434Y-45140971D01*
X68502323Y-45081886D01*
X68250000Y-45062028D01*
X67997676Y-45081886D01*
X67751565Y-45140971D01*
X67517727Y-45237830D01*
X67303387Y-45369176D01*
X67303387Y-45369178D01*
X68006517Y-46072308D01*
X67934371Y-46100874D01*
X67801508Y-46197405D01*
X67696825Y-46323945D01*
X67646558Y-46430767D01*
X66944178Y-45728387D01*
X66944176Y-45728387D01*
X66812830Y-45942727D01*
X66715971Y-46176565D01*
X66656886Y-46422676D01*
X66637028Y-46675000D01*
X36478100Y-46675000D01*
X36474284Y-46660757D01*
X36377523Y-46453251D01*
X36246198Y-46265700D01*
X36084300Y-46103802D01*
X36033472Y-46068212D01*
X35989145Y-46012757D01*
X35981836Y-45942137D01*
X36013866Y-45878777D01*
X36033468Y-45861790D01*
X36084300Y-45826198D01*
X36246198Y-45664300D01*
X36377523Y-45476749D01*
X36474284Y-45269243D01*
X36533543Y-45048087D01*
X36553498Y-44820000D01*
X36533543Y-44591913D01*
X36474284Y-44370757D01*
X36377523Y-44163251D01*
X36246198Y-43975700D01*
X36084300Y-43813802D01*
X36033042Y-43777911D01*
X35896749Y-43682477D01*
X35689246Y-43585717D01*
X35689240Y-43585715D01*
X35524907Y-43541682D01*
X35468087Y-43526457D01*
X35240000Y-43506502D01*
X35011913Y-43526457D01*
X34790759Y-43585715D01*
X34790753Y-43585717D01*
X34583250Y-43682477D01*
X34395703Y-43813799D01*
X34395697Y-43813804D01*
X34233804Y-43975697D01*
X34233799Y-43975703D01*
X34102477Y-44163250D01*
X34005717Y-44370753D01*
X34005715Y-44370759D01*
X33946457Y-44591913D01*
X33926502Y-44820000D01*
X33946539Y-45049025D01*
X33932550Y-45118629D01*
X33883150Y-45169622D01*
X33814024Y-45185812D01*
X33747119Y-45162059D01*
X33717804Y-45132275D01*
X33706202Y-45115705D01*
X33706195Y-45115697D01*
X33544302Y-44953804D01*
X33544296Y-44953799D01*
X33356749Y-44822477D01*
X33149246Y-44725717D01*
X33149240Y-44725715D01*
X33055771Y-44700670D01*
X32928087Y-44666457D01*
X32700000Y-44646502D01*
X32471913Y-44666457D01*
X32250759Y-44725715D01*
X32250747Y-44725719D01*
X32242745Y-44729451D01*
X32172553Y-44740109D01*
X32107741Y-44711126D01*
X32068888Y-44651705D01*
X32063500Y-44615254D01*
X32063500Y-43075305D01*
X32083502Y-43007184D01*
X32100405Y-42986210D01*
X34126210Y-40960405D01*
X34188522Y-40926379D01*
X34215305Y-40923500D01*
X40854695Y-40923500D01*
X40922816Y-40943502D01*
X40943790Y-40960405D01*
X45640749Y-45657364D01*
X45643334Y-45660110D01*
X45683427Y-45705365D01*
X45699720Y-45716611D01*
X45733158Y-45739692D01*
X45736224Y-45741948D01*
X45783801Y-45779222D01*
X45783802Y-45779223D01*
X45792403Y-45783094D01*
X45812268Y-45794297D01*
X45820030Y-45799655D01*
X45876541Y-45821086D01*
X45880058Y-45822542D01*
X45935163Y-45847344D01*
X45944435Y-45849043D01*
X45966402Y-45855166D01*
X45975226Y-45858513D01*
X46035226Y-45865798D01*
X46038974Y-45866368D01*
X46098428Y-45877264D01*
X46158752Y-45873614D01*
X46162556Y-45873500D01*
X59647444Y-45873500D01*
X59651247Y-45873614D01*
X59711572Y-45877264D01*
X59771029Y-45866367D01*
X59774766Y-45865798D01*
X59834774Y-45858513D01*
X59843590Y-45855169D01*
X59865570Y-45849042D01*
X59865655Y-45849026D01*
X59874837Y-45847344D01*
X59921815Y-45826200D01*
X59929950Y-45822539D01*
X59933460Y-45821084D01*
X59989971Y-45799654D01*
X59997732Y-45794297D01*
X60017595Y-45783094D01*
X60026197Y-45779223D01*
X60073778Y-45741944D01*
X60076817Y-45739707D01*
X60126573Y-45705365D01*
X60166672Y-45660101D01*
X60169226Y-45657387D01*
X61358275Y-44468339D01*
X61420584Y-44434315D01*
X61491399Y-44439380D01*
X61548235Y-44481927D01*
X61573046Y-44548447D01*
X61572979Y-44567321D01*
X61557028Y-44769999D01*
X61576886Y-45022323D01*
X61635971Y-45268434D01*
X61732830Y-45502272D01*
X61864177Y-45716611D01*
X61864178Y-45716611D01*
X62566065Y-45014723D01*
X62577188Y-45048956D01*
X62665186Y-45187619D01*
X62784903Y-45300040D01*
X62923160Y-45376048D01*
X62223387Y-46075820D01*
X62223387Y-46075822D01*
X62437727Y-46207169D01*
X62671565Y-46304028D01*
X62917676Y-46363113D01*
X63170000Y-46382971D01*
X63422323Y-46363113D01*
X63668434Y-46304028D01*
X63902277Y-46207167D01*
X64116611Y-46075822D01*
X64116611Y-46075820D01*
X63413482Y-45372691D01*
X63485629Y-45344126D01*
X63618492Y-45247595D01*
X63723175Y-45121055D01*
X63773441Y-45014232D01*
X64475820Y-45716611D01*
X64475822Y-45716611D01*
X64607167Y-45502277D01*
X64704028Y-45268434D01*
X64763113Y-45022323D01*
X64782971Y-44770000D01*
X64763113Y-44517676D01*
X64704028Y-44271565D01*
X64607169Y-44037727D01*
X64474920Y-43821917D01*
X64474919Y-43821915D01*
X64418904Y-43756330D01*
X64389873Y-43691541D01*
X64400478Y-43621341D01*
X64447353Y-43568018D01*
X64514715Y-43548500D01*
X66711792Y-43548500D01*
X66779913Y-43568502D01*
X66819224Y-43608664D01*
X66944672Y-43813376D01*
X67109102Y-44005898D01*
X67301624Y-44170328D01*
X67517498Y-44302616D01*
X67751409Y-44399505D01*
X67997597Y-44458609D01*
X68250000Y-44478474D01*
X68502403Y-44458609D01*
X68748591Y-44399505D01*
X68982502Y-44302616D01*
X69198376Y-44170328D01*
X69390898Y-44005898D01*
X69555328Y-43813376D01*
X69687616Y-43597502D01*
X69784505Y-43363591D01*
X69843609Y-43117403D01*
X69863474Y-42865000D01*
X69843609Y-42612597D01*
X69784505Y-42366409D01*
X69687616Y-42132498D01*
X69555328Y-41916624D01*
X69390898Y-41724102D01*
X69198376Y-41559672D01*
X68982502Y-41427384D01*
X68748591Y-41330495D01*
X68748589Y-41330494D01*
X68580177Y-41290062D01*
X68502403Y-41271391D01*
X68250000Y-41251526D01*
X67997597Y-41271391D01*
X67751410Y-41330494D01*
X67517499Y-41427383D01*
X67301625Y-41559671D01*
X67109102Y-41724102D01*
X66944671Y-41916625D01*
X66819225Y-42121335D01*
X66766577Y-42168966D01*
X66711792Y-42181500D01*
X64515373Y-42181500D01*
X64447252Y-42161498D01*
X64400759Y-42107842D01*
X64390655Y-42037568D01*
X64419562Y-41973670D01*
X64451205Y-41936619D01*
X64475328Y-41908376D01*
X64607616Y-41692502D01*
X64704505Y-41458591D01*
X64763609Y-41212403D01*
X64783474Y-40960000D01*
X64763609Y-40707597D01*
X64704505Y-40461409D01*
X64607616Y-40227498D01*
X64475328Y-40011624D01*
X64463957Y-39998310D01*
X64419562Y-39946330D01*
X64390531Y-39881541D01*
X64401136Y-39811341D01*
X64448011Y-39758018D01*
X64515373Y-39738500D01*
X66711792Y-39738500D01*
X66779913Y-39758502D01*
X66819224Y-39798664D01*
X66944672Y-40003376D01*
X67109102Y-40195898D01*
X67301624Y-40360328D01*
X67517498Y-40492616D01*
X67751409Y-40589505D01*
X67997597Y-40648609D01*
X68250000Y-40668474D01*
X68502403Y-40648609D01*
X68748591Y-40589505D01*
X68982502Y-40492616D01*
X69198376Y-40360328D01*
X69390898Y-40195898D01*
X69555328Y-40003376D01*
X69687616Y-39787502D01*
X69784505Y-39553591D01*
X69843609Y-39307403D01*
X69863474Y-39055000D01*
X69843609Y-38802597D01*
X69784505Y-38556409D01*
X69687616Y-38322498D01*
X69555328Y-38106624D01*
X69390898Y-37914102D01*
X69198376Y-37749672D01*
X68982502Y-37617384D01*
X68922432Y-37592502D01*
X68748589Y-37520494D01*
X68549575Y-37472716D01*
X68502403Y-37461391D01*
X68250000Y-37441526D01*
X67997597Y-37461391D01*
X67751410Y-37520494D01*
X67517499Y-37617383D01*
X67301625Y-37749671D01*
X67109102Y-37914102D01*
X66951968Y-38098082D01*
X66944672Y-38106624D01*
X66824015Y-38303519D01*
X66819225Y-38311335D01*
X66766577Y-38358966D01*
X66711792Y-38371500D01*
X64514715Y-38371500D01*
X64446594Y-38351498D01*
X64400101Y-38297842D01*
X64389997Y-38227568D01*
X64418904Y-38163670D01*
X64474919Y-38098084D01*
X64474920Y-38098082D01*
X64607169Y-37882272D01*
X64704028Y-37648434D01*
X64763113Y-37402323D01*
X64782971Y-37150000D01*
X64763113Y-36897676D01*
X64704028Y-36651565D01*
X64607169Y-36417727D01*
X64475822Y-36203387D01*
X64475820Y-36203387D01*
X63773933Y-36905273D01*
X63762812Y-36871044D01*
X63674814Y-36732381D01*
X63555097Y-36619960D01*
X63416839Y-36543951D01*
X64116611Y-35844178D01*
X64116611Y-35844177D01*
X63902272Y-35712830D01*
X63668434Y-35615971D01*
X63422323Y-35556886D01*
X63170000Y-35537028D01*
X62917676Y-35556886D01*
X62671565Y-35615971D01*
X62437727Y-35712830D01*
X62223387Y-35844176D01*
X62223387Y-35844178D01*
X62926517Y-36547308D01*
X62854371Y-36575874D01*
X62721508Y-36672405D01*
X62616825Y-36798945D01*
X62566558Y-36905767D01*
X61864178Y-36203387D01*
X61864176Y-36203387D01*
X61732830Y-36417727D01*
X61635971Y-36651565D01*
X61576886Y-36897676D01*
X61557028Y-37150000D01*
X61572979Y-37352676D01*
X61558383Y-37422156D01*
X61508540Y-37472716D01*
X61439276Y-37488302D01*
X61372580Y-37463967D01*
X61358272Y-37451657D01*
X59522586Y-35615971D01*
X59151615Y-35245000D01*
X66636526Y-35245000D01*
X66656391Y-35497403D01*
X66675062Y-35575177D01*
X66715494Y-35743589D01*
X66757159Y-35844176D01*
X66812384Y-35977502D01*
X66944672Y-36193376D01*
X67109102Y-36385898D01*
X67301624Y-36550328D01*
X67517498Y-36682616D01*
X67751409Y-36779505D01*
X67997597Y-36838609D01*
X68250000Y-36858474D01*
X68502403Y-36838609D01*
X68748591Y-36779505D01*
X68982502Y-36682616D01*
X69198376Y-36550328D01*
X69390898Y-36385898D01*
X69555328Y-36193376D01*
X69687616Y-35977502D01*
X69784505Y-35743591D01*
X69843609Y-35497403D01*
X69863474Y-35245000D01*
X69843609Y-34992597D01*
X69784505Y-34746409D01*
X69687616Y-34512498D01*
X69555328Y-34296624D01*
X69390898Y-34104102D01*
X69198376Y-33939672D01*
X68982502Y-33807384D01*
X68898633Y-33772644D01*
X68748589Y-33710494D01*
X68580177Y-33670062D01*
X68502403Y-33651391D01*
X68250000Y-33631526D01*
X67997597Y-33651391D01*
X67751410Y-33710494D01*
X67517499Y-33807383D01*
X67301625Y-33939671D01*
X67109102Y-34104102D01*
X66944671Y-34296625D01*
X66812383Y-34512499D01*
X66715494Y-34746410D01*
X66656391Y-34992597D01*
X66636526Y-35245000D01*
X59151615Y-35245000D01*
X57679241Y-33772626D01*
X57676649Y-33769872D01*
X57636571Y-33724633D01*
X57609448Y-33705911D01*
X57586819Y-33690292D01*
X57583766Y-33688045D01*
X57536196Y-33650776D01*
X57536193Y-33650774D01*
X57527599Y-33646907D01*
X57507735Y-33635704D01*
X57499973Y-33630346D01*
X57499970Y-33630345D01*
X57443458Y-33608913D01*
X57439941Y-33607456D01*
X57384839Y-33582656D01*
X57384836Y-33582655D01*
X57375554Y-33580954D01*
X57353600Y-33574833D01*
X57344778Y-33571488D01*
X57344769Y-33571485D01*
X57284774Y-33564201D01*
X57281011Y-33563628D01*
X57221573Y-33552736D01*
X57221572Y-33552736D01*
X57161247Y-33556385D01*
X57157444Y-33556500D01*
X47552556Y-33556500D01*
X47548754Y-33556385D01*
X47488428Y-33552736D01*
X47488427Y-33552736D01*
X47488425Y-33552736D01*
X47428986Y-33563628D01*
X47425224Y-33564201D01*
X47365230Y-33571485D01*
X47360381Y-33573324D01*
X47356397Y-33574835D01*
X47334440Y-33580955D01*
X47329862Y-33581794D01*
X47325162Y-33582656D01*
X47270053Y-33607458D01*
X47266538Y-33608914D01*
X47210030Y-33630345D01*
X47210025Y-33630347D01*
X47202255Y-33635710D01*
X47182408Y-33646903D01*
X47173807Y-33650774D01*
X47126226Y-33688050D01*
X47123162Y-33690304D01*
X47073425Y-33724636D01*
X47033342Y-33769879D01*
X47030740Y-33772644D01*
X45090555Y-35712830D01*
X43183790Y-37619595D01*
X43121478Y-37653620D01*
X43094695Y-37656500D01*
X32102556Y-37656500D01*
X32098752Y-37656385D01*
X32038428Y-37652736D01*
X32038427Y-37652736D01*
X32038425Y-37652736D01*
X31978986Y-37663628D01*
X31975224Y-37664201D01*
X31915230Y-37671485D01*
X31910381Y-37673324D01*
X31906397Y-37674835D01*
X31884440Y-37680955D01*
X31879862Y-37681794D01*
X31875162Y-37682656D01*
X31820053Y-37707458D01*
X31816538Y-37708914D01*
X31760030Y-37730345D01*
X31760025Y-37730347D01*
X31752255Y-37735710D01*
X31732408Y-37746903D01*
X31723807Y-37750774D01*
X31676226Y-37788050D01*
X31673162Y-37790304D01*
X31623425Y-37824636D01*
X31583342Y-37869879D01*
X31580734Y-37872650D01*
X28152650Y-41300734D01*
X28149879Y-41303342D01*
X28104636Y-41343425D01*
X28070304Y-41393162D01*
X28068050Y-41396226D01*
X28030774Y-41443807D01*
X28026903Y-41452408D01*
X28015710Y-41472255D01*
X28010347Y-41480025D01*
X28010345Y-41480030D01*
X27988914Y-41536538D01*
X27987458Y-41540053D01*
X27962656Y-41595162D01*
X27960956Y-41604439D01*
X27954834Y-41626401D01*
X27951485Y-41635230D01*
X27944201Y-41695224D01*
X27943628Y-41698986D01*
X27932736Y-41758425D01*
X27932736Y-41758427D01*
X27932736Y-41758428D01*
X27936385Y-41818750D01*
X27936500Y-41822555D01*
X27936500Y-43257443D01*
X27936385Y-43261248D01*
X27932736Y-43321572D01*
X25310500Y-43321572D01*
X25310500Y-33340000D01*
X61556526Y-33340000D01*
X61576391Y-33592403D01*
X61585784Y-33631526D01*
X61635494Y-33838589D01*
X61677364Y-33939671D01*
X61732384Y-34072502D01*
X61864672Y-34288376D01*
X62029102Y-34480898D01*
X62221624Y-34645328D01*
X62437498Y-34777616D01*
X62671409Y-34874505D01*
X62917597Y-34933609D01*
X63170000Y-34953474D01*
X63422403Y-34933609D01*
X63668591Y-34874505D01*
X63902502Y-34777616D01*
X64118376Y-34645328D01*
X64310898Y-34480898D01*
X64475328Y-34288376D01*
X64607616Y-34072502D01*
X64704505Y-33838591D01*
X64763609Y-33592403D01*
X64783474Y-33340000D01*
X64763609Y-33087597D01*
X64704505Y-32841409D01*
X64607616Y-32607498D01*
X64475328Y-32391624D01*
X64310898Y-32199102D01*
X64118376Y-32034672D01*
X63902502Y-31902384D01*
X63668591Y-31805495D01*
X63668589Y-31805494D01*
X63500177Y-31765062D01*
X63422403Y-31746391D01*
X63170000Y-31726526D01*
X62917597Y-31746391D01*
X62671410Y-31805494D01*
X62437499Y-31902383D01*
X62221625Y-32034671D01*
X62029102Y-32199102D01*
X61864671Y-32391625D01*
X61732383Y-32607499D01*
X61635494Y-32841410D01*
X61576391Y-33087597D01*
X61556526Y-33340000D01*
X25310500Y-33340000D01*
X25310500Y-31435000D01*
X66636526Y-31435000D01*
X66656391Y-31687402D01*
X66715494Y-31933589D01*
X66757364Y-32034671D01*
X66812384Y-32167502D01*
X66944672Y-32383376D01*
X67109102Y-32575898D01*
X67301624Y-32740328D01*
X67517498Y-32872616D01*
X67751409Y-32969505D01*
X67997597Y-33028609D01*
X68250000Y-33048474D01*
X68502403Y-33028609D01*
X68748591Y-32969505D01*
X68982502Y-32872616D01*
X69198376Y-32740328D01*
X69390898Y-32575898D01*
X69555328Y-32383376D01*
X69687616Y-32167502D01*
X69784505Y-31933591D01*
X69843609Y-31687403D01*
X69863474Y-31435000D01*
X69843609Y-31182597D01*
X69784505Y-30936409D01*
X69687616Y-30702498D01*
X69555328Y-30486624D01*
X69390898Y-30294102D01*
X69198376Y-30129672D01*
X68982502Y-29997384D01*
X68748591Y-29900495D01*
X68748589Y-29900494D01*
X68580177Y-29860062D01*
X68502403Y-29841391D01*
X68250000Y-29821526D01*
X67997597Y-29841391D01*
X67751410Y-29900494D01*
X67517499Y-29997383D01*
X67301625Y-30129671D01*
X67109102Y-30294102D01*
X66944671Y-30486625D01*
X66812383Y-30702499D01*
X66715494Y-30936410D01*
X66656391Y-31182597D01*
X66636526Y-31435000D01*
X25310500Y-31435000D01*
X25310500Y-29530000D01*
X61557028Y-29530000D01*
X61576886Y-29782323D01*
X61635971Y-30028434D01*
X61732830Y-30262272D01*
X61864177Y-30476611D01*
X61864178Y-30476611D01*
X62566065Y-29774724D01*
X62577188Y-29808956D01*
X62665186Y-29947619D01*
X62784903Y-30060040D01*
X62923160Y-30136048D01*
X62223387Y-30835820D01*
X62223387Y-30835822D01*
X62437727Y-30967169D01*
X62671565Y-31064028D01*
X62917676Y-31123113D01*
X63170000Y-31142971D01*
X63422323Y-31123113D01*
X63668434Y-31064028D01*
X63902277Y-30967167D01*
X64116611Y-30835822D01*
X64116611Y-30835820D01*
X63413482Y-30132691D01*
X63485629Y-30104126D01*
X63618492Y-30007595D01*
X63723175Y-29881055D01*
X63773441Y-29774232D01*
X64475820Y-30476611D01*
X64475822Y-30476611D01*
X64607167Y-30262277D01*
X64704028Y-30028434D01*
X64763113Y-29782323D01*
X64782971Y-29530000D01*
X64763113Y-29277676D01*
X64704028Y-29031565D01*
X64607169Y-28797727D01*
X64475822Y-28583387D01*
X64475820Y-28583387D01*
X63773933Y-29285273D01*
X63762812Y-29251044D01*
X63674814Y-29112381D01*
X63555097Y-28999960D01*
X63416839Y-28923951D01*
X64116611Y-28224178D01*
X64116611Y-28224177D01*
X63902272Y-28092830D01*
X63668434Y-27995971D01*
X63422323Y-27936886D01*
X63170000Y-27917028D01*
X62917676Y-27936886D01*
X62671565Y-27995971D01*
X62437727Y-28092830D01*
X62223387Y-28224176D01*
X62223387Y-28224178D01*
X62926517Y-28927308D01*
X62854371Y-28955874D01*
X62721508Y-29052405D01*
X62616825Y-29178945D01*
X62566558Y-29285767D01*
X61864178Y-28583387D01*
X61864176Y-28583387D01*
X61732830Y-28797727D01*
X61635971Y-29031565D01*
X61576886Y-29277676D01*
X61557028Y-29530000D01*
X25310500Y-29530000D01*
X25310500Y-27625000D01*
X66637028Y-27625000D01*
X66656886Y-27877323D01*
X66715971Y-28123434D01*
X66812830Y-28357272D01*
X66944177Y-28571611D01*
X66944178Y-28571611D01*
X67646065Y-27869724D01*
X67657188Y-27903956D01*
X67745186Y-28042619D01*
X67864903Y-28155040D01*
X68003160Y-28231048D01*
X67303387Y-28930820D01*
X67303387Y-28930822D01*
X67517727Y-29062169D01*
X67751565Y-29159028D01*
X67997676Y-29218113D01*
X68250000Y-29237971D01*
X68502323Y-29218113D01*
X68748434Y-29159028D01*
X68982277Y-29062167D01*
X69196611Y-28930822D01*
X69196611Y-28930820D01*
X68493482Y-28227691D01*
X68565629Y-28199126D01*
X68698492Y-28102595D01*
X68803175Y-27976055D01*
X68853441Y-27869232D01*
X69555820Y-28571611D01*
X69555822Y-28571611D01*
X69687167Y-28357277D01*
X69784028Y-28123434D01*
X69843113Y-27877323D01*
X69862971Y-27625000D01*
X69843113Y-27372676D01*
X69784028Y-27126565D01*
X69687169Y-26892727D01*
X69555822Y-26678387D01*
X69555820Y-26678387D01*
X68853933Y-27380273D01*
X68842812Y-27346044D01*
X68754814Y-27207381D01*
X68635097Y-27094960D01*
X68496839Y-27018951D01*
X69196611Y-26319178D01*
X69196611Y-26319177D01*
X68982272Y-26187830D01*
X68748434Y-26090971D01*
X68502323Y-26031886D01*
X68250000Y-26012028D01*
X67997676Y-26031886D01*
X67751565Y-26090971D01*
X67517727Y-26187830D01*
X67303387Y-26319176D01*
X67303387Y-26319178D01*
X68006517Y-27022308D01*
X67934371Y-27050874D01*
X67801508Y-27147405D01*
X67696825Y-27273945D01*
X67646558Y-27380767D01*
X66944178Y-26678387D01*
X66944176Y-26678387D01*
X66812830Y-26892727D01*
X66715971Y-27126565D01*
X66656886Y-27372676D01*
X66637028Y-27625000D01*
X25310500Y-27625000D01*
X25310500Y-25200004D01*
X44017308Y-25200004D01*
X44036052Y-25474048D01*
X44036053Y-25474054D01*
X44091942Y-25743011D01*
X44091944Y-25743019D01*
X44183938Y-26001865D01*
X44310314Y-26245756D01*
X44310316Y-26245759D01*
X44440541Y-26430248D01*
X45166177Y-25704612D01*
X45235146Y-25815263D01*
X45375268Y-25962671D01*
X45523420Y-26065788D01*
X44800715Y-26788492D01*
X44800715Y-26788494D01*
X44869313Y-26844304D01*
X44869318Y-26844307D01*
X45104030Y-26987038D01*
X45355989Y-27096480D01*
X45620509Y-27170595D01*
X45892635Y-27207999D01*
X45892649Y-27208000D01*
X46167351Y-27208000D01*
X46167364Y-27207999D01*
X46439490Y-27170595D01*
X46704010Y-27096480D01*
X46955969Y-26987038D01*
X47190679Y-26844309D01*
X47259283Y-26788493D01*
X47259283Y-26788492D01*
X46534488Y-26063697D01*
X46604214Y-26024996D01*
X46758531Y-25892520D01*
X46883021Y-25731692D01*
X46895487Y-25706277D01*
X47619457Y-26430247D01*
X47749682Y-26245762D01*
X47749685Y-26245756D01*
X47876061Y-26001865D01*
X47968055Y-25743019D01*
X47968057Y-25743011D01*
X48023946Y-25474054D01*
X48023947Y-25474048D01*
X48042692Y-25200004D01*
X48042692Y-25199995D01*
X48023947Y-24925951D01*
X48023946Y-24925945D01*
X47968057Y-24656988D01*
X47968055Y-24656980D01*
X47876061Y-24398134D01*
X47749685Y-24154243D01*
X47749681Y-24154237D01*
X47619457Y-23969750D01*
X46893821Y-24695385D01*
X46824854Y-24584737D01*
X46684732Y-24437329D01*
X46536578Y-24334210D01*
X47259283Y-23611504D01*
X47245143Y-23600000D01*
X49391499Y-23600000D01*
X49411475Y-23866565D01*
X49470957Y-24127172D01*
X49568612Y-24375995D01*
X49568614Y-24375999D01*
X49702268Y-24607494D01*
X49702270Y-24607497D01*
X49702271Y-24607498D01*
X49741738Y-24656988D01*
X49868939Y-24816494D01*
X49986901Y-24925945D01*
X50064888Y-24998306D01*
X50064894Y-24998310D01*
X50285740Y-25148881D01*
X50285744Y-25148883D01*
X50285750Y-25148887D01*
X50526587Y-25264869D01*
X50695402Y-25316941D01*
X50782010Y-25343657D01*
X50782012Y-25343657D01*
X50782021Y-25343660D01*
X51046345Y-25383500D01*
X51046349Y-25383500D01*
X51313651Y-25383500D01*
X51313655Y-25383500D01*
X51577979Y-25343660D01*
X51577989Y-25343657D01*
X51833404Y-25264872D01*
X51833406Y-25264871D01*
X51833413Y-25264869D01*
X51968106Y-25200004D01*
X54317308Y-25200004D01*
X54336052Y-25474048D01*
X54336053Y-25474054D01*
X54391942Y-25743011D01*
X54391944Y-25743019D01*
X54483938Y-26001865D01*
X54610314Y-26245756D01*
X54610316Y-26245759D01*
X54740541Y-26430248D01*
X55466177Y-25704612D01*
X55535146Y-25815263D01*
X55675268Y-25962671D01*
X55823420Y-26065788D01*
X55100715Y-26788492D01*
X55100715Y-26788494D01*
X55169313Y-26844304D01*
X55169318Y-26844307D01*
X55404030Y-26987038D01*
X55655989Y-27096480D01*
X55920509Y-27170595D01*
X56192635Y-27207999D01*
X56192649Y-27208000D01*
X56467351Y-27208000D01*
X56467364Y-27207999D01*
X56739490Y-27170595D01*
X57004010Y-27096480D01*
X57255969Y-26987038D01*
X57490679Y-26844309D01*
X57559283Y-26788493D01*
X57559283Y-26788492D01*
X56834488Y-26063697D01*
X56904214Y-26024996D01*
X57058531Y-25892520D01*
X57183021Y-25731692D01*
X57195487Y-25706277D01*
X57919457Y-26430247D01*
X58049682Y-26245762D01*
X58049685Y-26245756D01*
X58176061Y-26001865D01*
X58268055Y-25743019D01*
X58268057Y-25743011D01*
X58272839Y-25720000D01*
X61556526Y-25720000D01*
X61576391Y-25972403D01*
X61595062Y-26050177D01*
X61635494Y-26218589D01*
X61677159Y-26319176D01*
X61732384Y-26452502D01*
X61864672Y-26668376D01*
X62029102Y-26860898D01*
X62221624Y-27025328D01*
X62437498Y-27157616D01*
X62671409Y-27254505D01*
X62917597Y-27313609D01*
X63170000Y-27333474D01*
X63422403Y-27313609D01*
X63668591Y-27254505D01*
X63902502Y-27157616D01*
X64118376Y-27025328D01*
X64310898Y-26860898D01*
X64475328Y-26668376D01*
X64607616Y-26452502D01*
X64704505Y-26218591D01*
X64763609Y-25972403D01*
X64783474Y-25720000D01*
X64763609Y-25467597D01*
X64704505Y-25221409D01*
X64607616Y-24987498D01*
X64475328Y-24771624D01*
X64310898Y-24579102D01*
X64118376Y-24414672D01*
X63902502Y-24282384D01*
X63887822Y-24276303D01*
X63668589Y-24185494D01*
X63500177Y-24145062D01*
X63422403Y-24126391D01*
X63170000Y-24106526D01*
X62917597Y-24126391D01*
X62671410Y-24185494D01*
X62437499Y-24282383D01*
X62221625Y-24414671D01*
X62029102Y-24579102D01*
X61864671Y-24771625D01*
X61732383Y-24987499D01*
X61635494Y-25221410D01*
X61580149Y-25451945D01*
X61576391Y-25467597D01*
X61556526Y-25720000D01*
X58272839Y-25720000D01*
X58323946Y-25474054D01*
X58323947Y-25474048D01*
X58342692Y-25200004D01*
X58342692Y-25199995D01*
X58323947Y-24925951D01*
X58323946Y-24925945D01*
X58268057Y-24656988D01*
X58268055Y-24656980D01*
X58176061Y-24398134D01*
X58049685Y-24154243D01*
X58049681Y-24154237D01*
X57919457Y-23969750D01*
X57193821Y-24695385D01*
X57124854Y-24584737D01*
X56984732Y-24437329D01*
X56836578Y-24334210D01*
X57355787Y-23815000D01*
X66636526Y-23815000D01*
X66656391Y-24067402D01*
X66715494Y-24313589D01*
X66757364Y-24414671D01*
X66812384Y-24547502D01*
X66944672Y-24763376D01*
X67109102Y-24955898D01*
X67301624Y-25120328D01*
X67517498Y-25252616D01*
X67751409Y-25349505D01*
X67997597Y-25408609D01*
X68250000Y-25428474D01*
X68502403Y-25408609D01*
X68748591Y-25349505D01*
X68982502Y-25252616D01*
X69198376Y-25120328D01*
X69390898Y-24955898D01*
X69555328Y-24763376D01*
X69687616Y-24547502D01*
X69784505Y-24313591D01*
X69843609Y-24067403D01*
X69863474Y-23815000D01*
X69843609Y-23562597D01*
X69784505Y-23316409D01*
X69687616Y-23082498D01*
X69555328Y-22866624D01*
X69390898Y-22674102D01*
X69198376Y-22509672D01*
X68982502Y-22377384D01*
X68748591Y-22280495D01*
X68748589Y-22280494D01*
X68580177Y-22240062D01*
X68502403Y-22221391D01*
X68250000Y-22201526D01*
X67997597Y-22221391D01*
X67751410Y-22280494D01*
X67517499Y-22377383D01*
X67301625Y-22509671D01*
X67109102Y-22674102D01*
X66944671Y-22866625D01*
X66812383Y-23082499D01*
X66715494Y-23316410D01*
X66656391Y-23562597D01*
X66636526Y-23815000D01*
X57355787Y-23815000D01*
X57559283Y-23611504D01*
X57490680Y-23555691D01*
X57255969Y-23412961D01*
X57004010Y-23303519D01*
X56739490Y-23229404D01*
X56467364Y-23192000D01*
X56192635Y-23192000D01*
X55920509Y-23229404D01*
X55655989Y-23303519D01*
X55404030Y-23412961D01*
X55169325Y-23555687D01*
X55100715Y-23611505D01*
X55100714Y-23611505D01*
X55825511Y-24336302D01*
X55755786Y-24375004D01*
X55601469Y-24507480D01*
X55476979Y-24668308D01*
X55464512Y-24693721D01*
X54740541Y-23969750D01*
X54610317Y-24154236D01*
X54483938Y-24398134D01*
X54391944Y-24656980D01*
X54391942Y-24656988D01*
X54336053Y-24925945D01*
X54336052Y-24925951D01*
X54317308Y-25199995D01*
X54317308Y-25200004D01*
X51968106Y-25200004D01*
X52074251Y-25148887D01*
X52295112Y-24998306D01*
X52491064Y-24816490D01*
X52657729Y-24607498D01*
X52791384Y-24376002D01*
X52815879Y-24313591D01*
X52866152Y-24185495D01*
X52889043Y-24127170D01*
X52948525Y-23866562D01*
X52968501Y-23600000D01*
X52948525Y-23333438D01*
X52889043Y-23072830D01*
X52825588Y-22911149D01*
X52791387Y-22824004D01*
X52791385Y-22824000D01*
X52657731Y-22592505D01*
X52629788Y-22557466D01*
X52491064Y-22383510D01*
X52491063Y-22383509D01*
X52491060Y-22383505D01*
X52295117Y-22201699D01*
X52295111Y-22201693D01*
X52221491Y-22151500D01*
X52074251Y-22051113D01*
X51944620Y-21988686D01*
X51833416Y-21935132D01*
X51833404Y-21935127D01*
X51577989Y-21856342D01*
X51577981Y-21856340D01*
X51577979Y-21856340D01*
X51313655Y-21816500D01*
X51046345Y-21816500D01*
X50782021Y-21856340D01*
X50782019Y-21856340D01*
X50782010Y-21856342D01*
X50526583Y-21935132D01*
X50285748Y-22051114D01*
X50285740Y-22051118D01*
X50064894Y-22201689D01*
X50064882Y-22201699D01*
X49868939Y-22383505D01*
X49702268Y-22592505D01*
X49568614Y-22824000D01*
X49568612Y-22824004D01*
X49470958Y-23072826D01*
X49470957Y-23072828D01*
X49411475Y-23333434D01*
X49391499Y-23600000D01*
X47245143Y-23600000D01*
X47190680Y-23555691D01*
X46955969Y-23412961D01*
X46704010Y-23303519D01*
X46439490Y-23229404D01*
X46167364Y-23192000D01*
X45892635Y-23192000D01*
X45620509Y-23229404D01*
X45355989Y-23303519D01*
X45104030Y-23412961D01*
X44869325Y-23555687D01*
X44800715Y-23611505D01*
X44800714Y-23611505D01*
X45525511Y-24336302D01*
X45455786Y-24375004D01*
X45301469Y-24507480D01*
X45176979Y-24668308D01*
X45164512Y-24693721D01*
X44440541Y-23969750D01*
X44310317Y-24154236D01*
X44183938Y-24398134D01*
X44091944Y-24656980D01*
X44091942Y-24656988D01*
X44036053Y-24925945D01*
X44036052Y-24925951D01*
X44017308Y-25199995D01*
X44017308Y-25200004D01*
X25310500Y-25200004D01*
X25310500Y-22625587D01*
X25330502Y-22557466D01*
X25384158Y-22510973D01*
X25454432Y-22500869D01*
X25519012Y-22530363D01*
X25527467Y-22538403D01*
X25606409Y-22620770D01*
X25606408Y-22620770D01*
X25799105Y-22763287D01*
X26013123Y-22871193D01*
X26013129Y-22871195D01*
X26242290Y-22941374D01*
X26286000Y-22946971D01*
X26286000Y-21991115D01*
X26330156Y-22019493D01*
X26468111Y-22060000D01*
X26611889Y-22060000D01*
X26749844Y-22019493D01*
X26794000Y-21991115D01*
X26794000Y-22945586D01*
X26953789Y-22911149D01*
X27176177Y-22821785D01*
X27380274Y-22696117D01*
X27560186Y-22537776D01*
X27710758Y-22351295D01*
X27827649Y-22142052D01*
X27907493Y-21916075D01*
X27907493Y-21916074D01*
X27948000Y-21679834D01*
X27948000Y-21314000D01*
X27040000Y-21314000D01*
X27040000Y-20806000D01*
X27948001Y-20806000D01*
X27957185Y-20796815D01*
X27968002Y-20759977D01*
X28021658Y-20713484D01*
X28091932Y-20703380D01*
X28148922Y-20726794D01*
X28198843Y-20763715D01*
X28412933Y-20871657D01*
X28642185Y-20941864D01*
X28880005Y-20972318D01*
X29119551Y-20962143D01*
X29353932Y-20911630D01*
X29576404Y-20822233D01*
X29780569Y-20696524D01*
X29960551Y-20538119D01*
X30111175Y-20351576D01*
X30228105Y-20142260D01*
X30307980Y-19916194D01*
X30348500Y-19679881D01*
X30348500Y-19619827D01*
X33031500Y-19619827D01*
X33046741Y-19798898D01*
X33046742Y-19798904D01*
X33107153Y-20030917D01*
X33107155Y-20030923D01*
X33107156Y-20030924D01*
X33205914Y-20249402D01*
X33340175Y-20448047D01*
X33340177Y-20448049D01*
X33340180Y-20448053D01*
X33490287Y-20604671D01*
X33506075Y-20621144D01*
X33698843Y-20763715D01*
X33912933Y-20871657D01*
X34142185Y-20941864D01*
X34380005Y-20972318D01*
X34619551Y-20962143D01*
X34853932Y-20911630D01*
X35076404Y-20822233D01*
X35280569Y-20696524D01*
X35460551Y-20538119D01*
X35611175Y-20351576D01*
X35728105Y-20142260D01*
X35807980Y-19916194D01*
X35807980Y-19916191D01*
X35808876Y-19912754D01*
X35809655Y-19911455D01*
X35809764Y-19911147D01*
X35809826Y-19911169D01*
X35845396Y-19851871D01*
X35909034Y-19820396D01*
X35930811Y-19818500D01*
X53353629Y-19818500D01*
X53421750Y-19838502D01*
X53442724Y-19855405D01*
X55988092Y-22400773D01*
X56000065Y-22414627D01*
X56014530Y-22434057D01*
X56054975Y-22467994D01*
X56059021Y-22471702D01*
X56064900Y-22477581D01*
X56090895Y-22498135D01*
X56150360Y-22548032D01*
X56150366Y-22548035D01*
X56156495Y-22552067D01*
X56156458Y-22552122D01*
X56162811Y-22556169D01*
X56162847Y-22556113D01*
X56169092Y-22559965D01*
X56169095Y-22559967D01*
X56239452Y-22592775D01*
X56308812Y-22627609D01*
X56308813Y-22627609D01*
X56308817Y-22627611D01*
X56315713Y-22630121D01*
X56315689Y-22630185D01*
X56322805Y-22632659D01*
X56322827Y-22632595D01*
X56329791Y-22634903D01*
X56405849Y-22650607D01*
X56439866Y-22658669D01*
X56481344Y-22668500D01*
X56481350Y-22668500D01*
X56488633Y-22669352D01*
X56488625Y-22669419D01*
X56496122Y-22670185D01*
X56496128Y-22670119D01*
X56503435Y-22670757D01*
X56503442Y-22670759D01*
X56581080Y-22668500D01*
X61677752Y-22668500D01*
X61745873Y-22688502D01*
X61785185Y-22728665D01*
X61864672Y-22858376D01*
X62029102Y-23050898D01*
X62221624Y-23215328D01*
X62437498Y-23347616D01*
X62671409Y-23444505D01*
X62917597Y-23503609D01*
X63170000Y-23523474D01*
X63422403Y-23503609D01*
X63668591Y-23444505D01*
X63902502Y-23347616D01*
X64118376Y-23215328D01*
X64310898Y-23050898D01*
X64475328Y-22858376D01*
X64607616Y-22642502D01*
X64704505Y-22408591D01*
X64763609Y-22162403D01*
X64783474Y-21910000D01*
X64763609Y-21657597D01*
X64704505Y-21411409D01*
X64607616Y-21177498D01*
X64475328Y-20961624D01*
X64310898Y-20769102D01*
X64118376Y-20604672D01*
X63902502Y-20472384D01*
X63843748Y-20448047D01*
X63668589Y-20375494D01*
X63500177Y-20335062D01*
X63422403Y-20316391D01*
X63170000Y-20296526D01*
X62917597Y-20316391D01*
X62671410Y-20375494D01*
X62437499Y-20472383D01*
X62221625Y-20604671D01*
X62029102Y-20769102D01*
X61864671Y-20961625D01*
X61785185Y-21091335D01*
X61732537Y-21138966D01*
X61677752Y-21151500D01*
X56936371Y-21151500D01*
X56868250Y-21131498D01*
X56847276Y-21114595D01*
X54301908Y-18569227D01*
X54289936Y-18555375D01*
X54275469Y-18535942D01*
X54275467Y-18535940D01*
X54235024Y-18502003D01*
X54230970Y-18498289D01*
X54225107Y-18492425D01*
X54199104Y-18471864D01*
X54161274Y-18440121D01*
X54139640Y-18421968D01*
X54139638Y-18421967D01*
X54139636Y-18421965D01*
X54133506Y-18417933D01*
X54133541Y-18417878D01*
X54127187Y-18413829D01*
X54127153Y-18413886D01*
X54120906Y-18410033D01*
X54050540Y-18377220D01*
X53981188Y-18342391D01*
X53981186Y-18342390D01*
X53981183Y-18342389D01*
X53974289Y-18339880D01*
X53974311Y-18339817D01*
X53967189Y-18337341D01*
X53967169Y-18337404D01*
X53960209Y-18335097D01*
X53884150Y-18319392D01*
X53808652Y-18301499D01*
X53801367Y-18300648D01*
X53801374Y-18300580D01*
X53793877Y-18299814D01*
X53793872Y-18299881D01*
X53786559Y-18299241D01*
X53786558Y-18299241D01*
X53708920Y-18301500D01*
X35925548Y-18301500D01*
X35857427Y-18281498D01*
X35810934Y-18227842D01*
X35803616Y-18207258D01*
X35772844Y-18089076D01*
X35674086Y-17870598D01*
X35539825Y-17671953D01*
X35539821Y-17671949D01*
X35539819Y-17671946D01*
X35373927Y-17498858D01*
X35373926Y-17498857D01*
X35373925Y-17498856D01*
X35181157Y-17356285D01*
X35181156Y-17356284D01*
X35181154Y-17356283D01*
X35110997Y-17320911D01*
X34967067Y-17248343D01*
X34967060Y-17248340D01*
X34967056Y-17248339D01*
X34737815Y-17178136D01*
X34499995Y-17147682D01*
X34499991Y-17147682D01*
X34499983Y-17147681D01*
X34260448Y-17157856D01*
X34026065Y-17208370D01*
X33803594Y-17297768D01*
X33599425Y-17423480D01*
X33599423Y-17423482D01*
X33419453Y-17581876D01*
X33419445Y-17581885D01*
X33268827Y-17768419D01*
X33268823Y-17768426D01*
X33151895Y-17977738D01*
X33151895Y-17977739D01*
X33072021Y-18203800D01*
X33072020Y-18203806D01*
X33034613Y-18421968D01*
X33031500Y-18440121D01*
X33031500Y-19619827D01*
X30348500Y-19619827D01*
X30348500Y-18500173D01*
X30333259Y-18321102D01*
X30303614Y-18207249D01*
X30272846Y-18089082D01*
X30272844Y-18089077D01*
X30272844Y-18089076D01*
X30174086Y-17870598D01*
X30039825Y-17671953D01*
X30039821Y-17671949D01*
X30039819Y-17671946D01*
X29873927Y-17498858D01*
X29873926Y-17498857D01*
X29873925Y-17498856D01*
X29681157Y-17356285D01*
X29681156Y-17356284D01*
X29681154Y-17356283D01*
X29610997Y-17320911D01*
X29467067Y-17248343D01*
X29467060Y-17248340D01*
X29467056Y-17248339D01*
X29237815Y-17178136D01*
X28999995Y-17147682D01*
X28999991Y-17147682D01*
X28999983Y-17147681D01*
X28760448Y-17157856D01*
X28526065Y-17208370D01*
X28303594Y-17297768D01*
X28099425Y-17423480D01*
X28099423Y-17423482D01*
X27919453Y-17581876D01*
X27919445Y-17581885D01*
X27768827Y-17768419D01*
X27768823Y-17768426D01*
X27651895Y-17977738D01*
X27651895Y-17977739D01*
X27572021Y-18203800D01*
X27572020Y-18203806D01*
X27534613Y-18421968D01*
X27531500Y-18440121D01*
X27531500Y-19292153D01*
X27511498Y-19360274D01*
X27457842Y-19406767D01*
X27387568Y-19416871D01*
X27330577Y-19393457D01*
X27280894Y-19356712D01*
X27066876Y-19248806D01*
X27066873Y-19248805D01*
X26837709Y-19178625D01*
X26794000Y-19173026D01*
X26794000Y-20128884D01*
X26749844Y-20100507D01*
X26611889Y-20060000D01*
X26468111Y-20060000D01*
X26330156Y-20100507D01*
X26286000Y-20128884D01*
X26286000Y-19174412D01*
X26126210Y-19208850D01*
X25903822Y-19298214D01*
X25699723Y-19423883D01*
X25699721Y-19423885D01*
X25519744Y-19582283D01*
X25455393Y-19612273D01*
X25385043Y-19602712D01*
X25331031Y-19556634D01*
X25310504Y-19488670D01*
X25310500Y-19487698D01*
X25310500Y-13225972D01*
X25330502Y-13157851D01*
X25384158Y-13111358D01*
X25436468Y-13099973D01*
X57831751Y-13093065D01*
X57899872Y-13113052D01*
X57946376Y-13166697D01*
X57956495Y-13236969D01*
X57927016Y-13301556D01*
X57867298Y-13339953D01*
X57845397Y-13344325D01*
X57612070Y-13369701D01*
X57612042Y-13369706D01*
X57266986Y-13445659D01*
X57266969Y-13445664D01*
X56932134Y-13558482D01*
X56932115Y-13558490D01*
X56611454Y-13706845D01*
X56611447Y-13706849D01*
X56308687Y-13889013D01*
X56308681Y-13889017D01*
X56027393Y-14102846D01*
X56027378Y-14102859D01*
X55770873Y-14345835D01*
X55770869Y-14345840D01*
X55542121Y-14615143D01*
X55343830Y-14907600D01*
X55343827Y-14907605D01*
X55343826Y-14907607D01*
X55178321Y-15219784D01*
X55178317Y-15219793D01*
X55047537Y-15548027D01*
X54953006Y-15888494D01*
X54895844Y-16237176D01*
X54876714Y-16589997D01*
X54876714Y-16590002D01*
X54895844Y-16942823D01*
X54953006Y-17291505D01*
X54989648Y-17423476D01*
X55047537Y-17631972D01*
X55178322Y-17960218D01*
X55343830Y-18272400D01*
X55542121Y-18564857D01*
X55770869Y-18834160D01*
X55770872Y-18834162D01*
X55770873Y-18834164D01*
X56027378Y-19077140D01*
X56027393Y-19077153D01*
X56308686Y-19290986D01*
X56611449Y-19473152D01*
X56768164Y-19545656D01*
X56932115Y-19621509D01*
X56932122Y-19621512D01*
X56932133Y-19621517D01*
X57266979Y-19734339D01*
X57612059Y-19810297D01*
X57963329Y-19848500D01*
X57963337Y-19848500D01*
X58316663Y-19848500D01*
X58316671Y-19848500D01*
X58667941Y-19810297D01*
X59013021Y-19734339D01*
X59347867Y-19621517D01*
X59668551Y-19473152D01*
X59971314Y-19290986D01*
X60252607Y-19077153D01*
X60509131Y-18834160D01*
X60737879Y-18564857D01*
X60936170Y-18272400D01*
X61101678Y-17960218D01*
X61232463Y-17631972D01*
X61326992Y-17291510D01*
X61334070Y-17248339D01*
X61340622Y-17208370D01*
X61384156Y-16942823D01*
X61403286Y-16590000D01*
X61384156Y-16237177D01*
X61343664Y-15990188D01*
X61326993Y-15888494D01*
X61326992Y-15888490D01*
X61232463Y-15548028D01*
X61101678Y-15219782D01*
X60936170Y-14907600D01*
X60737879Y-14615143D01*
X60509131Y-14345840D01*
X60509126Y-14345835D01*
X60252621Y-14102859D01*
X60252606Y-14102846D01*
X59971318Y-13889017D01*
X59971312Y-13889013D01*
X59668551Y-13706848D01*
X59668545Y-13706845D01*
X59347884Y-13558490D01*
X59347865Y-13558482D01*
X59013030Y-13445664D01*
X59013029Y-13445663D01*
X59013021Y-13445661D01*
X59013016Y-13445659D01*
X59013013Y-13445659D01*
X58667957Y-13369706D01*
X58667944Y-13369703D01*
X58667941Y-13369703D01*
X58667938Y-13369702D01*
X58667929Y-13369701D01*
X58433396Y-13344194D01*
X58367837Y-13316944D01*
X58327418Y-13258576D01*
X58324971Y-13187622D01*
X58361274Y-13126608D01*
X58424800Y-13094907D01*
X58446980Y-13092934D01*
X68173476Y-13090859D01*
X68241598Y-13110847D01*
G37*
%TD.AperFunction*%
%TD*%
M02*
