%TF.GenerationSoftware,KiCad,Pcbnew,7.0.11+dfsg-1*%
%TF.CreationDate,2024-03-22T13:59:39+02:00*%
%TF.ProjectId,dexx_video_adapter,64657878-5f76-4696-9465-6f5f61646170,rev?*%
%TF.SameCoordinates,Original*%
%TF.FileFunction,Legend,Bot*%
%TF.FilePolarity,Positive*%
%FSLAX46Y46*%
G04 Gerber Fmt 4.6, Leading zero omitted, Abs format (unit mm)*
G04 Created by KiCad (PCBNEW 7.0.11+dfsg-1) date 2024-03-22 13:59:39*
%MOMM*%
%LPD*%
G01*
G04 APERTURE LIST*
%ADD10C,0.150000*%
%ADD11C,0.508000*%
G04 APERTURE END LIST*
D10*
X55220839Y-59759104D02*
X54744649Y-59759104D01*
X55316077Y-60044819D02*
X54982744Y-59044819D01*
X54982744Y-59044819D02*
X54649411Y-60044819D01*
X54458934Y-59044819D02*
X54125601Y-60044819D01*
X54125601Y-60044819D02*
X53792268Y-59044819D01*
X52268458Y-60044819D02*
X52268458Y-59521009D01*
X52268458Y-59521009D02*
X52316077Y-59425771D01*
X52316077Y-59425771D02*
X52411315Y-59378152D01*
X52411315Y-59378152D02*
X52601791Y-59378152D01*
X52601791Y-59378152D02*
X52697029Y-59425771D01*
X52268458Y-59997200D02*
X52363696Y-60044819D01*
X52363696Y-60044819D02*
X52601791Y-60044819D01*
X52601791Y-60044819D02*
X52697029Y-59997200D01*
X52697029Y-59997200D02*
X52744648Y-59901961D01*
X52744648Y-59901961D02*
X52744648Y-59806723D01*
X52744648Y-59806723D02*
X52697029Y-59711485D01*
X52697029Y-59711485D02*
X52601791Y-59663866D01*
X52601791Y-59663866D02*
X52363696Y-59663866D01*
X52363696Y-59663866D02*
X52268458Y-59616247D01*
X51363696Y-60044819D02*
X51363696Y-59044819D01*
X51363696Y-59997200D02*
X51458934Y-60044819D01*
X51458934Y-60044819D02*
X51649410Y-60044819D01*
X51649410Y-60044819D02*
X51744648Y-59997200D01*
X51744648Y-59997200D02*
X51792267Y-59949580D01*
X51792267Y-59949580D02*
X51839886Y-59854342D01*
X51839886Y-59854342D02*
X51839886Y-59568628D01*
X51839886Y-59568628D02*
X51792267Y-59473390D01*
X51792267Y-59473390D02*
X51744648Y-59425771D01*
X51744648Y-59425771D02*
X51649410Y-59378152D01*
X51649410Y-59378152D02*
X51458934Y-59378152D01*
X51458934Y-59378152D02*
X51363696Y-59425771D01*
X50458934Y-60044819D02*
X50458934Y-59521009D01*
X50458934Y-59521009D02*
X50506553Y-59425771D01*
X50506553Y-59425771D02*
X50601791Y-59378152D01*
X50601791Y-59378152D02*
X50792267Y-59378152D01*
X50792267Y-59378152D02*
X50887505Y-59425771D01*
X50458934Y-59997200D02*
X50554172Y-60044819D01*
X50554172Y-60044819D02*
X50792267Y-60044819D01*
X50792267Y-60044819D02*
X50887505Y-59997200D01*
X50887505Y-59997200D02*
X50935124Y-59901961D01*
X50935124Y-59901961D02*
X50935124Y-59806723D01*
X50935124Y-59806723D02*
X50887505Y-59711485D01*
X50887505Y-59711485D02*
X50792267Y-59663866D01*
X50792267Y-59663866D02*
X50554172Y-59663866D01*
X50554172Y-59663866D02*
X50458934Y-59616247D01*
X49982743Y-59378152D02*
X49982743Y-60378152D01*
X49982743Y-59425771D02*
X49887505Y-59378152D01*
X49887505Y-59378152D02*
X49697029Y-59378152D01*
X49697029Y-59378152D02*
X49601791Y-59425771D01*
X49601791Y-59425771D02*
X49554172Y-59473390D01*
X49554172Y-59473390D02*
X49506553Y-59568628D01*
X49506553Y-59568628D02*
X49506553Y-59854342D01*
X49506553Y-59854342D02*
X49554172Y-59949580D01*
X49554172Y-59949580D02*
X49601791Y-59997200D01*
X49601791Y-59997200D02*
X49697029Y-60044819D01*
X49697029Y-60044819D02*
X49887505Y-60044819D01*
X49887505Y-60044819D02*
X49982743Y-59997200D01*
X49220838Y-59378152D02*
X48839886Y-59378152D01*
X49077981Y-59044819D02*
X49077981Y-59901961D01*
X49077981Y-59901961D02*
X49030362Y-59997200D01*
X49030362Y-59997200D02*
X48935124Y-60044819D01*
X48935124Y-60044819D02*
X48839886Y-60044819D01*
X48125600Y-59997200D02*
X48220838Y-60044819D01*
X48220838Y-60044819D02*
X48411314Y-60044819D01*
X48411314Y-60044819D02*
X48506552Y-59997200D01*
X48506552Y-59997200D02*
X48554171Y-59901961D01*
X48554171Y-59901961D02*
X48554171Y-59521009D01*
X48554171Y-59521009D02*
X48506552Y-59425771D01*
X48506552Y-59425771D02*
X48411314Y-59378152D01*
X48411314Y-59378152D02*
X48220838Y-59378152D01*
X48220838Y-59378152D02*
X48125600Y-59425771D01*
X48125600Y-59425771D02*
X48077981Y-59521009D01*
X48077981Y-59521009D02*
X48077981Y-59616247D01*
X48077981Y-59616247D02*
X48554171Y-59711485D01*
X47649409Y-60044819D02*
X47649409Y-59378152D01*
X47649409Y-59568628D02*
X47601790Y-59473390D01*
X47601790Y-59473390D02*
X47554171Y-59425771D01*
X47554171Y-59425771D02*
X47458933Y-59378152D01*
X47458933Y-59378152D02*
X47363695Y-59378152D01*
X46363694Y-59378152D02*
X46125599Y-60044819D01*
X46125599Y-60044819D02*
X45887504Y-59378152D01*
X44982742Y-60044819D02*
X45554170Y-60044819D01*
X45268456Y-60044819D02*
X45268456Y-59044819D01*
X45268456Y-59044819D02*
X45363694Y-59187676D01*
X45363694Y-59187676D02*
X45458932Y-59282914D01*
X45458932Y-59282914D02*
X45554170Y-59330533D01*
X44554170Y-59949580D02*
X44506551Y-59997200D01*
X44506551Y-59997200D02*
X44554170Y-60044819D01*
X44554170Y-60044819D02*
X44601789Y-59997200D01*
X44601789Y-59997200D02*
X44554170Y-59949580D01*
X44554170Y-59949580D02*
X44554170Y-60044819D01*
X44125599Y-59140057D02*
X44077980Y-59092438D01*
X44077980Y-59092438D02*
X43982742Y-59044819D01*
X43982742Y-59044819D02*
X43744647Y-59044819D01*
X43744647Y-59044819D02*
X43649409Y-59092438D01*
X43649409Y-59092438D02*
X43601790Y-59140057D01*
X43601790Y-59140057D02*
X43554171Y-59235295D01*
X43554171Y-59235295D02*
X43554171Y-59330533D01*
X43554171Y-59330533D02*
X43601790Y-59473390D01*
X43601790Y-59473390D02*
X44173218Y-60044819D01*
X44173218Y-60044819D02*
X43554171Y-60044819D01*
X42506551Y-59378152D02*
X42125599Y-59378152D01*
X42363694Y-60044819D02*
X42363694Y-59187676D01*
X42363694Y-59187676D02*
X42316075Y-59092438D01*
X42316075Y-59092438D02*
X42220837Y-59044819D01*
X42220837Y-59044819D02*
X42125599Y-59044819D01*
X41649408Y-60044819D02*
X41744646Y-59997200D01*
X41744646Y-59997200D02*
X41792265Y-59949580D01*
X41792265Y-59949580D02*
X41839884Y-59854342D01*
X41839884Y-59854342D02*
X41839884Y-59568628D01*
X41839884Y-59568628D02*
X41792265Y-59473390D01*
X41792265Y-59473390D02*
X41744646Y-59425771D01*
X41744646Y-59425771D02*
X41649408Y-59378152D01*
X41649408Y-59378152D02*
X41506551Y-59378152D01*
X41506551Y-59378152D02*
X41411313Y-59425771D01*
X41411313Y-59425771D02*
X41363694Y-59473390D01*
X41363694Y-59473390D02*
X41316075Y-59568628D01*
X41316075Y-59568628D02*
X41316075Y-59854342D01*
X41316075Y-59854342D02*
X41363694Y-59949580D01*
X41363694Y-59949580D02*
X41411313Y-59997200D01*
X41411313Y-59997200D02*
X41506551Y-60044819D01*
X41506551Y-60044819D02*
X41649408Y-60044819D01*
X40887503Y-60044819D02*
X40887503Y-59378152D01*
X40887503Y-59568628D02*
X40839884Y-59473390D01*
X40839884Y-59473390D02*
X40792265Y-59425771D01*
X40792265Y-59425771D02*
X40697027Y-59378152D01*
X40697027Y-59378152D02*
X40601789Y-59378152D01*
X55030363Y-60654819D02*
X55030363Y-60892914D01*
X55268458Y-60797676D02*
X55030363Y-60892914D01*
X55030363Y-60892914D02*
X54792268Y-60797676D01*
X55173220Y-61083390D02*
X55030363Y-60892914D01*
X55030363Y-60892914D02*
X54887506Y-61083390D01*
X53649410Y-61654819D02*
X53649410Y-60654819D01*
X53649410Y-60654819D02*
X53411315Y-60654819D01*
X53411315Y-60654819D02*
X53268458Y-60702438D01*
X53268458Y-60702438D02*
X53173220Y-60797676D01*
X53173220Y-60797676D02*
X53125601Y-60892914D01*
X53125601Y-60892914D02*
X53077982Y-61083390D01*
X53077982Y-61083390D02*
X53077982Y-61226247D01*
X53077982Y-61226247D02*
X53125601Y-61416723D01*
X53125601Y-61416723D02*
X53173220Y-61511961D01*
X53173220Y-61511961D02*
X53268458Y-61607200D01*
X53268458Y-61607200D02*
X53411315Y-61654819D01*
X53411315Y-61654819D02*
X53649410Y-61654819D01*
X52649410Y-61131009D02*
X52316077Y-61131009D01*
X52173220Y-61654819D02*
X52649410Y-61654819D01*
X52649410Y-61654819D02*
X52649410Y-60654819D01*
X52649410Y-60654819D02*
X52173220Y-60654819D01*
X51839886Y-61654819D02*
X51316077Y-60988152D01*
X51839886Y-60988152D02*
X51316077Y-61654819D01*
X51030362Y-61654819D02*
X50506553Y-60988152D01*
X51030362Y-60988152D02*
X50506553Y-61654819D01*
X50125600Y-61273866D02*
X49363696Y-61273866D01*
X48982743Y-60988152D02*
X48744648Y-61654819D01*
X48744648Y-61654819D02*
X48506553Y-60988152D01*
X47697029Y-61654819D02*
X47697029Y-60654819D01*
X47697029Y-61607200D02*
X47792267Y-61654819D01*
X47792267Y-61654819D02*
X47982743Y-61654819D01*
X47982743Y-61654819D02*
X48077981Y-61607200D01*
X48077981Y-61607200D02*
X48125600Y-61559580D01*
X48125600Y-61559580D02*
X48173219Y-61464342D01*
X48173219Y-61464342D02*
X48173219Y-61178628D01*
X48173219Y-61178628D02*
X48125600Y-61083390D01*
X48125600Y-61083390D02*
X48077981Y-61035771D01*
X48077981Y-61035771D02*
X47982743Y-60988152D01*
X47982743Y-60988152D02*
X47792267Y-60988152D01*
X47792267Y-60988152D02*
X47697029Y-61035771D01*
X47458934Y-61750057D02*
X46697029Y-61750057D01*
X46458933Y-61654819D02*
X46458933Y-60988152D01*
X46458933Y-60654819D02*
X46506552Y-60702438D01*
X46506552Y-60702438D02*
X46458933Y-60750057D01*
X46458933Y-60750057D02*
X46411314Y-60702438D01*
X46411314Y-60702438D02*
X46458933Y-60654819D01*
X46458933Y-60654819D02*
X46458933Y-60750057D01*
X46030362Y-61607200D02*
X45935124Y-61654819D01*
X45935124Y-61654819D02*
X45744648Y-61654819D01*
X45744648Y-61654819D02*
X45649410Y-61607200D01*
X45649410Y-61607200D02*
X45601791Y-61511961D01*
X45601791Y-61511961D02*
X45601791Y-61464342D01*
X45601791Y-61464342D02*
X45649410Y-61369104D01*
X45649410Y-61369104D02*
X45744648Y-61321485D01*
X45744648Y-61321485D02*
X45887505Y-61321485D01*
X45887505Y-61321485D02*
X45982743Y-61273866D01*
X45982743Y-61273866D02*
X46030362Y-61178628D01*
X46030362Y-61178628D02*
X46030362Y-61131009D01*
X46030362Y-61131009D02*
X45982743Y-61035771D01*
X45982743Y-61035771D02*
X45887505Y-60988152D01*
X45887505Y-60988152D02*
X45744648Y-60988152D01*
X45744648Y-60988152D02*
X45649410Y-61035771D01*
X45030362Y-61654819D02*
X45125600Y-61607200D01*
X45125600Y-61607200D02*
X45173219Y-61511961D01*
X45173219Y-61511961D02*
X45173219Y-60654819D01*
X55030363Y-62264819D02*
X55030363Y-62502914D01*
X55268458Y-62407676D02*
X55030363Y-62502914D01*
X55030363Y-62502914D02*
X54792268Y-62407676D01*
X55173220Y-62693390D02*
X55030363Y-62502914D01*
X55030363Y-62502914D02*
X54887506Y-62693390D01*
X53458934Y-62264819D02*
X53268458Y-62264819D01*
X53268458Y-62264819D02*
X53173220Y-62312438D01*
X53173220Y-62312438D02*
X53077982Y-62407676D01*
X53077982Y-62407676D02*
X53030363Y-62598152D01*
X53030363Y-62598152D02*
X53030363Y-62931485D01*
X53030363Y-62931485D02*
X53077982Y-63121961D01*
X53077982Y-63121961D02*
X53173220Y-63217200D01*
X53173220Y-63217200D02*
X53268458Y-63264819D01*
X53268458Y-63264819D02*
X53458934Y-63264819D01*
X53458934Y-63264819D02*
X53554172Y-63217200D01*
X53554172Y-63217200D02*
X53649410Y-63121961D01*
X53649410Y-63121961D02*
X53697029Y-62931485D01*
X53697029Y-62931485D02*
X53697029Y-62598152D01*
X53697029Y-62598152D02*
X53649410Y-62407676D01*
X53649410Y-62407676D02*
X53554172Y-62312438D01*
X53554172Y-62312438D02*
X53458934Y-62264819D01*
X52649410Y-63217200D02*
X52506553Y-63264819D01*
X52506553Y-63264819D02*
X52268458Y-63264819D01*
X52268458Y-63264819D02*
X52173220Y-63217200D01*
X52173220Y-63217200D02*
X52125601Y-63169580D01*
X52125601Y-63169580D02*
X52077982Y-63074342D01*
X52077982Y-63074342D02*
X52077982Y-62979104D01*
X52077982Y-62979104D02*
X52125601Y-62883866D01*
X52125601Y-62883866D02*
X52173220Y-62836247D01*
X52173220Y-62836247D02*
X52268458Y-62788628D01*
X52268458Y-62788628D02*
X52458934Y-62741009D01*
X52458934Y-62741009D02*
X52554172Y-62693390D01*
X52554172Y-62693390D02*
X52601791Y-62645771D01*
X52601791Y-62645771D02*
X52649410Y-62550533D01*
X52649410Y-62550533D02*
X52649410Y-62455295D01*
X52649410Y-62455295D02*
X52601791Y-62360057D01*
X52601791Y-62360057D02*
X52554172Y-62312438D01*
X52554172Y-62312438D02*
X52458934Y-62264819D01*
X52458934Y-62264819D02*
X52220839Y-62264819D01*
X52220839Y-62264819D02*
X52077982Y-62312438D01*
X51697029Y-63217200D02*
X51554172Y-63264819D01*
X51554172Y-63264819D02*
X51316077Y-63264819D01*
X51316077Y-63264819D02*
X51220839Y-63217200D01*
X51220839Y-63217200D02*
X51173220Y-63169580D01*
X51173220Y-63169580D02*
X51125601Y-63074342D01*
X51125601Y-63074342D02*
X51125601Y-62979104D01*
X51125601Y-62979104D02*
X51173220Y-62883866D01*
X51173220Y-62883866D02*
X51220839Y-62836247D01*
X51220839Y-62836247D02*
X51316077Y-62788628D01*
X51316077Y-62788628D02*
X51506553Y-62741009D01*
X51506553Y-62741009D02*
X51601791Y-62693390D01*
X51601791Y-62693390D02*
X51649410Y-62645771D01*
X51649410Y-62645771D02*
X51697029Y-62550533D01*
X51697029Y-62550533D02*
X51697029Y-62455295D01*
X51697029Y-62455295D02*
X51649410Y-62360057D01*
X51649410Y-62360057D02*
X51601791Y-62312438D01*
X51601791Y-62312438D02*
X51506553Y-62264819D01*
X51506553Y-62264819D02*
X51268458Y-62264819D01*
X51268458Y-62264819D02*
X51125601Y-62312438D01*
X50125601Y-63169580D02*
X50173220Y-63217200D01*
X50173220Y-63217200D02*
X50316077Y-63264819D01*
X50316077Y-63264819D02*
X50411315Y-63264819D01*
X50411315Y-63264819D02*
X50554172Y-63217200D01*
X50554172Y-63217200D02*
X50649410Y-63121961D01*
X50649410Y-63121961D02*
X50697029Y-63026723D01*
X50697029Y-63026723D02*
X50744648Y-62836247D01*
X50744648Y-62836247D02*
X50744648Y-62693390D01*
X50744648Y-62693390D02*
X50697029Y-62502914D01*
X50697029Y-62502914D02*
X50649410Y-62407676D01*
X50649410Y-62407676D02*
X50554172Y-62312438D01*
X50554172Y-62312438D02*
X50411315Y-62264819D01*
X50411315Y-62264819D02*
X50316077Y-62264819D01*
X50316077Y-62264819D02*
X50173220Y-62312438D01*
X50173220Y-62312438D02*
X50125601Y-62360057D01*
X48935124Y-63264819D02*
X48935124Y-62264819D01*
X48935124Y-62264819D02*
X48554172Y-62264819D01*
X48554172Y-62264819D02*
X48458934Y-62312438D01*
X48458934Y-62312438D02*
X48411315Y-62360057D01*
X48411315Y-62360057D02*
X48363696Y-62455295D01*
X48363696Y-62455295D02*
X48363696Y-62598152D01*
X48363696Y-62598152D02*
X48411315Y-62693390D01*
X48411315Y-62693390D02*
X48458934Y-62741009D01*
X48458934Y-62741009D02*
X48554172Y-62788628D01*
X48554172Y-62788628D02*
X48935124Y-62788628D01*
X47935124Y-63264819D02*
X47935124Y-62598152D01*
X47935124Y-62788628D02*
X47887505Y-62693390D01*
X47887505Y-62693390D02*
X47839886Y-62645771D01*
X47839886Y-62645771D02*
X47744648Y-62598152D01*
X47744648Y-62598152D02*
X47649410Y-62598152D01*
X47173219Y-63264819D02*
X47268457Y-63217200D01*
X47268457Y-63217200D02*
X47316076Y-63169580D01*
X47316076Y-63169580D02*
X47363695Y-63074342D01*
X47363695Y-63074342D02*
X47363695Y-62788628D01*
X47363695Y-62788628D02*
X47316076Y-62693390D01*
X47316076Y-62693390D02*
X47268457Y-62645771D01*
X47268457Y-62645771D02*
X47173219Y-62598152D01*
X47173219Y-62598152D02*
X47030362Y-62598152D01*
X47030362Y-62598152D02*
X46935124Y-62645771D01*
X46935124Y-62645771D02*
X46887505Y-62693390D01*
X46887505Y-62693390D02*
X46839886Y-62788628D01*
X46839886Y-62788628D02*
X46839886Y-63074342D01*
X46839886Y-63074342D02*
X46887505Y-63169580D01*
X46887505Y-63169580D02*
X46935124Y-63217200D01*
X46935124Y-63217200D02*
X47030362Y-63264819D01*
X47030362Y-63264819D02*
X47173219Y-63264819D01*
D11*
%TO.C,SW2*%
X51253400Y-17884600D02*
G75*
G03*
X50491400Y-17884600I-381000J0D01*
G01*
X50491400Y-17884600D02*
G75*
G03*
X51253400Y-17884600I381000J0D01*
G01*
%TD*%
M02*
