M48
; DRILL file {KiCad 6.0.1+dfsg-1} date 2022-03-06T17:26:02 EET
; FORMAT={-:-/ absolute / inch / decimal}
; #@! TF.CreationDate,2022-03-06T17:26:02+02:00
; #@! TF.GenerationSoftware,Kicad,Pcbnew,6.0.1+dfsg-1
; #@! TF.FileFunction,MixedPlating,1,4
FMAT,2
INCH
; #@! TA.AperFunction,Plated,PTH,ViaDrill
T1C0.0130
; #@! TA.AperFunction,Plated,PTH,ComponentDrill
T2C0.0197
; #@! TA.AperFunction,Plated,PTH,ComponentDrill
T3C0.0315
; #@! TA.AperFunction,Plated,PTH,ComponentDrill
T4C0.0394
; #@! TA.AperFunction,Plated,PTH,ComponentDrill
T5C0.0669
%
G90
G05
T1
X1.768Y-0.9747
X1.768Y-1.0747
X1.768Y-1.1747
X1.768Y-1.2747
X1.768Y-1.3747
X1.768Y-1.4747
X1.768Y-1.5747
X1.768Y-1.6747
X1.768Y-1.7747
X1.768Y-1.8747
X1.768Y-1.9747
X1.768Y-2.0747
X1.768Y-2.1747
X1.768Y-2.2747
X1.768Y-2.3747
X1.768Y-2.4747
X1.768Y-2.5747
X1.768Y-2.6747
X1.768Y-2.7747
X1.768Y-2.8747
X1.768Y-2.9747
X1.768Y-3.0747
X1.768Y-3.1747
X1.768Y-3.2747
X1.768Y-3.3747
X1.768Y-3.4747
X1.768Y-3.5747
X1.868Y-0.9747
X1.868Y-3.5747
X1.968Y-0.5747
X1.968Y-0.6747
X1.968Y-0.7747
X1.968Y-0.8747
X1.968Y-0.9747
X1.968Y-3.5747
X1.968Y-3.6747
X1.968Y-3.7747
X1.968Y-3.8747
X1.968Y-3.9747
X2.0031Y-2.8201
X2.0043Y-2.7661
X2.068Y-0.9747
X2.068Y-1.0747
X2.068Y-1.1747
X2.068Y-1.8747
X2.068Y-2.7747
X2.068Y-3.2747
X2.068Y-3.3747
X2.068Y-3.4747
X2.068Y-3.5747
X2.1087Y-2.4209
X2.1657Y-2.3303
X2.168Y-0.5747
X2.168Y-0.6747
X2.168Y-0.7747
X2.168Y-0.8747
X2.168Y-0.9747
X2.168Y-1.0747
X2.168Y-1.1747
X2.168Y-3.2747
X2.168Y-3.3747
X2.168Y-3.4747
X2.168Y-3.5747
X2.168Y-3.6747
X2.168Y-3.7747
X2.168Y-3.8747
X2.168Y-3.9747
X2.1768Y-2.6535
X2.268Y-1.1747
X2.268Y-1.2747
X2.268Y-3.2747
X2.268Y-3.3747
X2.3Y-2.4295
X2.3012Y-2.5996
X2.3421Y-2.4673
X2.3508Y-2.5984
X2.368Y-3.2747
X2.368Y-3.3747
X2.415Y-1.5681
X2.4539Y-2.5327
X2.468Y-1.1747
X2.468Y-1.2747
X2.468Y-1.3747
X2.468Y-3.2747
X2.468Y-3.3747
X2.4992Y-2.5126
X2.5071Y-2.6677
X2.5421Y-2.4957
X2.568Y-1.5747
X2.568Y-1.6747
X2.568Y-2.1747
X2.568Y-3.2747
X2.568Y-3.3747
X2.5713Y-1.8272
X2.5831Y-2.478
X2.5965Y-2.3669
X2.6004Y-2.3028
X2.6209Y-2.4496
X2.622Y-2.3957
X2.6236Y-2.328
X2.624Y-1.8264
X2.668Y-1.1747
X2.668Y-1.2747
X2.668Y-1.3747
X2.668Y-1.4747
X2.668Y-1.5747
X2.668Y-1.6747
X2.668Y-3.2747
X2.668Y-3.3747
X2.6795Y-1.826
X2.7201Y-2.5343
X2.768Y-1.1747
X2.768Y-1.2747
X2.768Y-1.3747
X2.768Y-1.4747
X2.768Y-1.5747
X2.768Y-1.6747
X2.768Y-3.1747
X2.768Y-3.2747
X2.768Y-3.3747
X2.8378Y-2.448
X2.8406Y-2.3717
X2.868Y-1.1747
X2.868Y-1.2747
X2.868Y-1.3747
X2.868Y-1.4747
X2.868Y-1.5747
X2.868Y-1.6747
X2.868Y-1.7747
X2.868Y-1.8747
X2.868Y-1.9747
X2.868Y-2.0747
X2.868Y-2.1747
X2.868Y-3.0747
X2.868Y-3.1747
X2.868Y-3.2747
X2.868Y-3.3747
X2.968Y-1.1747
X2.968Y-1.2747
X2.968Y-1.3747
X2.968Y-1.4747
X2.968Y-1.5747
X2.968Y-1.6747
X2.968Y-1.7747
X2.968Y-1.8747
X2.968Y-1.9747
X2.968Y-2.0747
X2.968Y-2.1747
X2.968Y-2.9747
X2.968Y-3.0747
X2.968Y-3.1747
X2.968Y-3.2747
X2.968Y-3.3747
T3
X2.3457Y-1.4984
X2.4008Y-1.4984
X2.4559Y-1.4984
X2.511Y-1.4984
T4
X1.8459Y-1.0728
X1.8459Y-1.1728
X1.8459Y-1.2728
X1.8459Y-1.3728
X1.8459Y-1.4728
X1.8459Y-1.5728
X1.8459Y-1.6728
X1.8459Y-1.7728
X1.8459Y-1.8728
X1.8459Y-1.9728
X1.8459Y-2.0728
X1.8459Y-2.1728
X1.8459Y-2.2728
X1.8459Y-2.3728
X1.8459Y-2.4728
X1.8459Y-2.5728
X1.8459Y-2.6728
X1.8459Y-2.7728
X1.8459Y-2.8728
X1.8459Y-2.9728
X1.8459Y-3.0728
X1.8459Y-3.1728
X1.8459Y-3.2728
X1.8459Y-3.3728
X1.8459Y-3.4728
X1.9459Y-1.0728
X1.9459Y-1.1728
X1.9459Y-1.2728
X1.9459Y-1.3728
X1.9459Y-1.4728
X1.9459Y-1.5728
X1.9459Y-1.6728
X1.9459Y-1.7728
X1.9459Y-1.8728
X1.9459Y-1.9728
X1.9459Y-2.0728
X1.9459Y-2.1728
X1.9459Y-2.2728
X1.9459Y-2.3728
X1.9459Y-2.4728
X1.9459Y-2.5728
X1.9459Y-2.6728
X1.9459Y-2.7728
X1.9459Y-2.8728
X1.9459Y-2.9728
X1.9459Y-3.0728
X1.9459Y-3.1728
X1.9459Y-3.2728
X1.9459Y-3.3728
X1.9459Y-3.4728
T5
X1.8941Y-0.6024
X1.8941Y-0.8165
X1.8941Y-3.7291
X1.8941Y-3.9433
X2.0941Y-0.6024
X2.0941Y-0.8165
X2.0941Y-3.7291
X2.0941Y-3.9433
T2
G00X2.3291Y-1.2421
M15
G01X2.3291Y-1.1949
M16
G05
G00X2.3291Y-1.3933
M15
G01X2.3291Y-1.3461
M16
G05
G00X2.5394Y-1.2421
M15
G01X2.5394Y-1.1949
M16
G05
G00X2.5394Y-1.3933
M15
G01X2.5394Y-1.3461
M16
G05
T0
M30
