%TF.GenerationSoftware,KiCad,Pcbnew,6.0.1+dfsg-1*%
%TF.CreationDate,2022-03-06T17:25:59+02:00*%
%TF.ProjectId,ram_board,72616d5f-626f-4617-9264-2e6b69636164,rev?*%
%TF.SameCoordinates,Original*%
%TF.FileFunction,Copper,L2,Inr*%
%TF.FilePolarity,Positive*%
%FSLAX46Y46*%
G04 Gerber Fmt 4.6, Leading zero omitted, Abs format (unit mm)*
G04 Created by KiCad (PCBNEW 6.0.1+dfsg-1) date 2022-03-06 17:25:59*
%MOMM*%
%LPD*%
G01*
G04 APERTURE LIST*
%TA.AperFunction,ComponentPad*%
%ADD10C,1.200000*%
%TD*%
%TA.AperFunction,ComponentPad*%
%ADD11O,1.000000X2.200000*%
%TD*%
%TA.AperFunction,ComponentPad*%
%ADD12C,2.540000*%
%TD*%
%TA.AperFunction,ComponentPad*%
%ADD13R,1.700000X1.700000*%
%TD*%
%TA.AperFunction,ComponentPad*%
%ADD14O,1.700000X1.700000*%
%TD*%
%TA.AperFunction,ViaPad*%
%ADD15C,0.686000*%
%TD*%
G04 APERTURE END LIST*
D10*
%TO.N,/DVDD5*%
%TO.C,J2*%
X59580000Y-38060000D03*
%TO.N,/USB_D-*%
X60980000Y-38060000D03*
%TO.N,/USB_D+*%
X62380000Y-38060000D03*
%TO.N,GND*%
X63780000Y-38060000D03*
D11*
X59160000Y-34790000D03*
X59160000Y-30950000D03*
X64500000Y-30950000D03*
X64500000Y-34790000D03*
%TD*%
D12*
%TO.N,GND*%
%TO.C,ST2*%
X53190000Y-94720000D03*
X48110000Y-100160000D03*
X53190000Y-100160000D03*
X48110000Y-94720000D03*
%TD*%
D13*
%TO.N,unconnected-(J1-Pad1)*%
%TO.C,J1*%
X49425790Y-27248710D03*
D14*
%TO.N,unconnected-(J1-Pad2)*%
X46885790Y-27248710D03*
%TO.N,/USB_D+*%
X49425790Y-29788710D03*
%TO.N,/USB_D-*%
X46885790Y-29788710D03*
%TO.N,/BE#*%
X49425790Y-32328710D03*
%TO.N,/OE#*%
X46885790Y-32328710D03*
%TO.N,/WE#*%
X49425790Y-34868710D03*
%TO.N,/CS#*%
X46885790Y-34868710D03*
%TO.N,/A0*%
X49425790Y-37408710D03*
%TO.N,/A1*%
X46885790Y-37408710D03*
%TO.N,/A2*%
X49425790Y-39948710D03*
%TO.N,/A3*%
X46885790Y-39948710D03*
%TO.N,/A4*%
X49425790Y-42488710D03*
%TO.N,/A5*%
X46885790Y-42488710D03*
%TO.N,/A6*%
X49425790Y-45028710D03*
%TO.N,/A7*%
X46885790Y-45028710D03*
%TO.N,/DVDD5*%
X49425790Y-47568710D03*
%TO.N,GND*%
X46885790Y-47568710D03*
%TO.N,/A8*%
X49425790Y-50108710D03*
%TO.N,/A9*%
X46885790Y-50108710D03*
%TO.N,/A10*%
X49425790Y-52648710D03*
%TO.N,/A11*%
X46885790Y-52648710D03*
%TO.N,/A12*%
X49425790Y-55188710D03*
%TO.N,/A13*%
X46885790Y-55188710D03*
%TO.N,/A14*%
X49425790Y-57728710D03*
%TO.N,/A15*%
X46885790Y-57728710D03*
%TO.N,/IO0*%
X49425790Y-60268710D03*
%TO.N,/IO1*%
X46885790Y-60268710D03*
%TO.N,/IO2*%
X49425790Y-62808710D03*
%TO.N,/IO3*%
X46885790Y-62808710D03*
%TO.N,/IO4*%
X49425790Y-65348710D03*
%TO.N,/IO5*%
X46885790Y-65348710D03*
%TO.N,/IO6*%
X49425790Y-67888710D03*
%TO.N,/IO7*%
X46885790Y-67888710D03*
%TO.N,/DVDD3v3*%
X49425790Y-70428710D03*
%TO.N,GND*%
X46885790Y-70428710D03*
%TO.N,/IO8*%
X49425790Y-72968710D03*
%TO.N,/IO9*%
X46885790Y-72968710D03*
%TO.N,/IO10*%
X49425790Y-75508710D03*
%TO.N,/IO11*%
X46885790Y-75508710D03*
%TO.N,/IO12*%
X49425790Y-78048710D03*
%TO.N,/IO13*%
X46885790Y-78048710D03*
%TO.N,/IO14*%
X49425790Y-80588710D03*
%TO.N,/IO15*%
X46885790Y-80588710D03*
%TO.N,unconnected-(J1-Pad45)*%
X49425790Y-83128710D03*
%TO.N,unconnected-(J1-Pad46)*%
X46885790Y-83128710D03*
%TO.N,unconnected-(J1-Pad47)*%
X49425790Y-85668710D03*
%TO.N,unconnected-(J1-Pad48)*%
X46885790Y-85668710D03*
%TO.N,unconnected-(J1-Pad49)*%
X49425790Y-88208710D03*
%TO.N,unconnected-(J1-Pad50)*%
X46885790Y-88208710D03*
%TD*%
D12*
%TO.N,GND*%
%TO.C,ST1*%
X53190000Y-15300000D03*
X53190000Y-20740000D03*
X48110000Y-20740000D03*
X48110000Y-15300000D03*
%TD*%
D15*
%TO.N,GND*%
X66640000Y-59130000D03*
X44908409Y-29836428D03*
X44908409Y-32376428D03*
X75388409Y-78096428D03*
X75388409Y-32376428D03*
X52528409Y-83176428D03*
X65228409Y-85716428D03*
X70308409Y-32376428D03*
X67768409Y-29836428D03*
X44908409Y-37456428D03*
X75388409Y-45076428D03*
X72848409Y-78096428D03*
X44908409Y-55236428D03*
X72848409Y-45076428D03*
X52528409Y-29836428D03*
X75388409Y-50156428D03*
X52528409Y-27296428D03*
X44908409Y-34916428D03*
X44908409Y-75556428D03*
X55068409Y-29836428D03*
X72848409Y-39996428D03*
X72848409Y-52696428D03*
X62688409Y-32376428D03*
X55068409Y-24756428D03*
X49988409Y-95876428D03*
X75388409Y-80636428D03*
X57608409Y-32376428D03*
X44908409Y-42536428D03*
X62688409Y-29836428D03*
X55068409Y-17136428D03*
X72848409Y-55236428D03*
X44908409Y-39996428D03*
X44908409Y-60316428D03*
X55068409Y-98416428D03*
X44908409Y-90796428D03*
X57608409Y-83176428D03*
X49988409Y-24756428D03*
X44908409Y-73016428D03*
X65228409Y-42536428D03*
X70308409Y-85716428D03*
X55068409Y-95876428D03*
X47448409Y-24756428D03*
X72848409Y-37456428D03*
X66050000Y-58490000D03*
X70308409Y-42536428D03*
X47448409Y-90796428D03*
X72848409Y-50156428D03*
X44908409Y-50156428D03*
X49988409Y-98416428D03*
X72848409Y-42536428D03*
X60148409Y-83176428D03*
X49988409Y-14596428D03*
X75388409Y-55236428D03*
X55068409Y-85716428D03*
X55068409Y-19676428D03*
X44908409Y-65396428D03*
X44908409Y-47616428D03*
X49988409Y-22216428D03*
X72848409Y-34916428D03*
X65228409Y-55236428D03*
X44908409Y-52696428D03*
X72848409Y-85716428D03*
X75388409Y-34916428D03*
X44908409Y-83176428D03*
X52528409Y-47616428D03*
X65228409Y-83176428D03*
X55068409Y-90796428D03*
X75388409Y-75556428D03*
X72848409Y-80636428D03*
X55068409Y-27296428D03*
X72848409Y-29836428D03*
X44908409Y-45076428D03*
X55068409Y-83176428D03*
X58420000Y-61710000D03*
X67768409Y-34916428D03*
X49988409Y-93336428D03*
X72848409Y-47616428D03*
X70308409Y-83176428D03*
X67768409Y-37456428D03*
X75388409Y-39996428D03*
X62688409Y-85716428D03*
X49988409Y-100956428D03*
X44908409Y-62856428D03*
X75388409Y-85716428D03*
X62688409Y-83176428D03*
X75388409Y-83176428D03*
X70308409Y-37456428D03*
X60148409Y-85716428D03*
X55068409Y-93336428D03*
X52528409Y-24756428D03*
X75388409Y-52696428D03*
X67768409Y-83176428D03*
X72150000Y-60240000D03*
X44908409Y-70476428D03*
X62688409Y-34916428D03*
X44908409Y-80636428D03*
X49988409Y-90796428D03*
X75388409Y-37456428D03*
X44908409Y-57776428D03*
X52528409Y-70476428D03*
X67768409Y-32376428D03*
X44908409Y-88256428D03*
X44908409Y-85716428D03*
X52528409Y-85716428D03*
X49988409Y-17136428D03*
X55068409Y-22216428D03*
X55068409Y-88256428D03*
X57608409Y-29836428D03*
X44908409Y-24756428D03*
X72848409Y-32376428D03*
X44908409Y-78096428D03*
X44908409Y-27296428D03*
X57608409Y-85716428D03*
X70308409Y-34916428D03*
X75388409Y-29836428D03*
X55068409Y-14596428D03*
X53560000Y-61490000D03*
X52528409Y-90796428D03*
X67768409Y-85716428D03*
X70308409Y-80636428D03*
X55068409Y-100956428D03*
X72848409Y-83176428D03*
X49988409Y-19676428D03*
X70308409Y-39996428D03*
X75388409Y-47616428D03*
X75388409Y-42536428D03*
X44908409Y-67936428D03*
X67768409Y-42536428D03*
X70308409Y-29836428D03*
X65228409Y-39996428D03*
X67768409Y-39996428D03*
X52528409Y-88256428D03*
%TO.N,/DVDD3v3*%
X50910000Y-70260000D03*
X65950000Y-60120000D03*
X59490000Y-62670000D03*
X72080000Y-62180000D03*
X66600000Y-60850000D03*
X55010000Y-59190000D03*
X50880000Y-71630000D03*
%TO.N,/DVDD5*%
X61340000Y-39830000D03*
%TO.N,/A8*%
X66570000Y-62220000D03*
%TO.N,/A10*%
X64570000Y-63390000D03*
%TO.N,/A15*%
X55290000Y-67400000D03*
%TO.N,/A14*%
X58450000Y-66030000D03*
%TO.N,/A13*%
X59710000Y-66000000D03*
%TO.N,/A12*%
X62330000Y-64330000D03*
%TO.N,/A11*%
X63480000Y-63820000D03*
%TO.N,/A9*%
X65610000Y-62940000D03*
%TO.N,/A18*%
X63680000Y-67760000D03*
X69090000Y-64370000D03*
%TO.N,/A7*%
X65310000Y-46410000D03*
%TO.N,/A6*%
X66650000Y-46390000D03*
%TO.N,/A5*%
X68060000Y-46380000D03*
%TD*%
%TA.AperFunction,Conductor*%
%TO.N,GND*%
G36*
X56932121Y-13940002D02*
G01*
X56978614Y-13993658D01*
X56990000Y-14046000D01*
X56990000Y-28442966D01*
X56987579Y-28467547D01*
X56985102Y-28480000D01*
X57004505Y-28577545D01*
X57059760Y-28660240D01*
X57142455Y-28715495D01*
X57170905Y-28721154D01*
X57240000Y-28734898D01*
X57252171Y-28732477D01*
X57252453Y-28732421D01*
X57277034Y-28730000D01*
X76464000Y-28730000D01*
X76532121Y-28750002D01*
X76578614Y-28803658D01*
X76590000Y-28856000D01*
X76590000Y-87124000D01*
X76569998Y-87192121D01*
X76516342Y-87238614D01*
X76464000Y-87250000D01*
X57277034Y-87250000D01*
X57252453Y-87247579D01*
X57252171Y-87247523D01*
X57240000Y-87245102D01*
X57215376Y-87250000D01*
X57142455Y-87264505D01*
X57059760Y-87319760D01*
X57004505Y-87402455D01*
X56985102Y-87500000D01*
X56987523Y-87512171D01*
X56987579Y-87512453D01*
X56990000Y-87537034D01*
X56990000Y-101374000D01*
X56969998Y-101442121D01*
X56916342Y-101488614D01*
X56864000Y-101500000D01*
X46876000Y-101500000D01*
X46807879Y-101479998D01*
X46761386Y-101426342D01*
X46750000Y-101374000D01*
X46750000Y-91537034D01*
X46752421Y-91512453D01*
X46752477Y-91512171D01*
X46754898Y-91500000D01*
X46735495Y-91402455D01*
X46680240Y-91319760D01*
X46669924Y-91312867D01*
X46607862Y-91271398D01*
X46607860Y-91271397D01*
X46597545Y-91264505D01*
X46524624Y-91250000D01*
X46500000Y-91245102D01*
X46487829Y-91247523D01*
X46487547Y-91247579D01*
X46462966Y-91250000D01*
X43876000Y-91250000D01*
X43807879Y-91229998D01*
X43761386Y-91176342D01*
X43750000Y-91124000D01*
X43750000Y-88179779D01*
X45780954Y-88179779D01*
X45794182Y-88381604D01*
X45843968Y-88577638D01*
X45928646Y-88761317D01*
X46045378Y-88926490D01*
X46190256Y-89067623D01*
X46358427Y-89179992D01*
X46363730Y-89182270D01*
X46363733Y-89182272D01*
X46452081Y-89220229D01*
X46544260Y-89259832D01*
X46741530Y-89304470D01*
X46747299Y-89304697D01*
X46747302Y-89304697D01*
X46823473Y-89307689D01*
X46943632Y-89312410D01*
X47029922Y-89299899D01*
X47138076Y-89284218D01*
X47138081Y-89284217D01*
X47143797Y-89283388D01*
X47149269Y-89281530D01*
X47149271Y-89281530D01*
X47329857Y-89220229D01*
X47329859Y-89220228D01*
X47335321Y-89218374D01*
X47511791Y-89119547D01*
X47574223Y-89067623D01*
X47662863Y-88993901D01*
X47667295Y-88990215D01*
X47796627Y-88834711D01*
X47895454Y-88658241D01*
X47960468Y-88466717D01*
X47961297Y-88461001D01*
X47961298Y-88460996D01*
X47988957Y-88270226D01*
X47989490Y-88266552D01*
X47991005Y-88208710D01*
X47988347Y-88179779D01*
X48320954Y-88179779D01*
X48334182Y-88381604D01*
X48383968Y-88577638D01*
X48468646Y-88761317D01*
X48585378Y-88926490D01*
X48730256Y-89067623D01*
X48898427Y-89179992D01*
X48903730Y-89182270D01*
X48903733Y-89182272D01*
X48992081Y-89220229D01*
X49084260Y-89259832D01*
X49281530Y-89304470D01*
X49287299Y-89304697D01*
X49287302Y-89304697D01*
X49363473Y-89307689D01*
X49483632Y-89312410D01*
X49569922Y-89299899D01*
X49678076Y-89284218D01*
X49678081Y-89284217D01*
X49683797Y-89283388D01*
X49689269Y-89281530D01*
X49689271Y-89281530D01*
X49869857Y-89220229D01*
X49869859Y-89220228D01*
X49875321Y-89218374D01*
X50051791Y-89119547D01*
X50114223Y-89067623D01*
X50202863Y-88993901D01*
X50207295Y-88990215D01*
X50336627Y-88834711D01*
X50435454Y-88658241D01*
X50500468Y-88466717D01*
X50501297Y-88461001D01*
X50501298Y-88460996D01*
X50528957Y-88270226D01*
X50529490Y-88266552D01*
X50531005Y-88208710D01*
X50512498Y-88007301D01*
X50457597Y-87812636D01*
X50368141Y-87631237D01*
X50349869Y-87606767D01*
X50250578Y-87473801D01*
X50250577Y-87473800D01*
X50247125Y-87469177D01*
X50224140Y-87447930D01*
X50102843Y-87335804D01*
X50102841Y-87335802D01*
X50098602Y-87331884D01*
X50068462Y-87312867D01*
X49932427Y-87227035D01*
X49927547Y-87223956D01*
X49739688Y-87149008D01*
X49541316Y-87109549D01*
X49535542Y-87109473D01*
X49535538Y-87109473D01*
X49433047Y-87108132D01*
X49339076Y-87106902D01*
X49333379Y-87107881D01*
X49333378Y-87107881D01*
X49145436Y-87140175D01*
X49145435Y-87140175D01*
X49139739Y-87141154D01*
X48949983Y-87211159D01*
X48945022Y-87214111D01*
X48945021Y-87214111D01*
X48864386Y-87262084D01*
X48776161Y-87314572D01*
X48624095Y-87447930D01*
X48498879Y-87606767D01*
X48404704Y-87785763D01*
X48344727Y-87978923D01*
X48320954Y-88179779D01*
X47988347Y-88179779D01*
X47972498Y-88007301D01*
X47917597Y-87812636D01*
X47828141Y-87631237D01*
X47809869Y-87606767D01*
X47710578Y-87473801D01*
X47710577Y-87473800D01*
X47707125Y-87469177D01*
X47684140Y-87447930D01*
X47562843Y-87335804D01*
X47562841Y-87335802D01*
X47558602Y-87331884D01*
X47528462Y-87312867D01*
X47392427Y-87227035D01*
X47387547Y-87223956D01*
X47199688Y-87149008D01*
X47001316Y-87109549D01*
X46995542Y-87109473D01*
X46995538Y-87109473D01*
X46893047Y-87108132D01*
X46799076Y-87106902D01*
X46793379Y-87107881D01*
X46793378Y-87107881D01*
X46605436Y-87140175D01*
X46605435Y-87140175D01*
X46599739Y-87141154D01*
X46409983Y-87211159D01*
X46405022Y-87214111D01*
X46405021Y-87214111D01*
X46324386Y-87262084D01*
X46236161Y-87314572D01*
X46084095Y-87447930D01*
X45958879Y-87606767D01*
X45864704Y-87785763D01*
X45804727Y-87978923D01*
X45780954Y-88179779D01*
X43750000Y-88179779D01*
X43750000Y-85639779D01*
X45780954Y-85639779D01*
X45794182Y-85841604D01*
X45843968Y-86037638D01*
X45928646Y-86221317D01*
X46045378Y-86386490D01*
X46190256Y-86527623D01*
X46358427Y-86639992D01*
X46363730Y-86642270D01*
X46363733Y-86642272D01*
X46452081Y-86680229D01*
X46544260Y-86719832D01*
X46741530Y-86764470D01*
X46747299Y-86764697D01*
X46747302Y-86764697D01*
X46823473Y-86767689D01*
X46943632Y-86772410D01*
X47029922Y-86759899D01*
X47138076Y-86744218D01*
X47138081Y-86744217D01*
X47143797Y-86743388D01*
X47149269Y-86741530D01*
X47149271Y-86741530D01*
X47329857Y-86680229D01*
X47329859Y-86680228D01*
X47335321Y-86678374D01*
X47511791Y-86579547D01*
X47574223Y-86527623D01*
X47662863Y-86453901D01*
X47667295Y-86450215D01*
X47796627Y-86294711D01*
X47895454Y-86118241D01*
X47960468Y-85926717D01*
X47961297Y-85921001D01*
X47961298Y-85920996D01*
X47988957Y-85730226D01*
X47989490Y-85726552D01*
X47991005Y-85668710D01*
X47988347Y-85639779D01*
X48320954Y-85639779D01*
X48334182Y-85841604D01*
X48383968Y-86037638D01*
X48468646Y-86221317D01*
X48585378Y-86386490D01*
X48730256Y-86527623D01*
X48898427Y-86639992D01*
X48903730Y-86642270D01*
X48903733Y-86642272D01*
X48992081Y-86680229D01*
X49084260Y-86719832D01*
X49281530Y-86764470D01*
X49287299Y-86764697D01*
X49287302Y-86764697D01*
X49363473Y-86767689D01*
X49483632Y-86772410D01*
X49569922Y-86759899D01*
X49678076Y-86744218D01*
X49678081Y-86744217D01*
X49683797Y-86743388D01*
X49689269Y-86741530D01*
X49689271Y-86741530D01*
X49869857Y-86680229D01*
X49869859Y-86680228D01*
X49875321Y-86678374D01*
X50051791Y-86579547D01*
X50114223Y-86527623D01*
X50202863Y-86453901D01*
X50207295Y-86450215D01*
X50336627Y-86294711D01*
X50435454Y-86118241D01*
X50500468Y-85926717D01*
X50501297Y-85921001D01*
X50501298Y-85920996D01*
X50528957Y-85730226D01*
X50529490Y-85726552D01*
X50531005Y-85668710D01*
X50512498Y-85467301D01*
X50457597Y-85272636D01*
X50368141Y-85091237D01*
X50349869Y-85066767D01*
X50250578Y-84933801D01*
X50250577Y-84933800D01*
X50247125Y-84929177D01*
X50224140Y-84907930D01*
X50102843Y-84795804D01*
X50102841Y-84795802D01*
X50098602Y-84791884D01*
X50071164Y-84774572D01*
X49932427Y-84687035D01*
X49927547Y-84683956D01*
X49739688Y-84609008D01*
X49541316Y-84569549D01*
X49535542Y-84569473D01*
X49535538Y-84569473D01*
X49433047Y-84568132D01*
X49339076Y-84566902D01*
X49333379Y-84567881D01*
X49333378Y-84567881D01*
X49145436Y-84600175D01*
X49145435Y-84600175D01*
X49139739Y-84601154D01*
X48949983Y-84671159D01*
X48776161Y-84774572D01*
X48624095Y-84907930D01*
X48498879Y-85066767D01*
X48404704Y-85245763D01*
X48344727Y-85438923D01*
X48320954Y-85639779D01*
X47988347Y-85639779D01*
X47972498Y-85467301D01*
X47917597Y-85272636D01*
X47828141Y-85091237D01*
X47809869Y-85066767D01*
X47710578Y-84933801D01*
X47710577Y-84933800D01*
X47707125Y-84929177D01*
X47684140Y-84907930D01*
X47562843Y-84795804D01*
X47562841Y-84795802D01*
X47558602Y-84791884D01*
X47531164Y-84774572D01*
X47392427Y-84687035D01*
X47387547Y-84683956D01*
X47199688Y-84609008D01*
X47001316Y-84569549D01*
X46995542Y-84569473D01*
X46995538Y-84569473D01*
X46893047Y-84568132D01*
X46799076Y-84566902D01*
X46793379Y-84567881D01*
X46793378Y-84567881D01*
X46605436Y-84600175D01*
X46605435Y-84600175D01*
X46599739Y-84601154D01*
X46409983Y-84671159D01*
X46236161Y-84774572D01*
X46084095Y-84907930D01*
X45958879Y-85066767D01*
X45864704Y-85245763D01*
X45804727Y-85438923D01*
X45780954Y-85639779D01*
X43750000Y-85639779D01*
X43750000Y-83099779D01*
X45780954Y-83099779D01*
X45794182Y-83301604D01*
X45843968Y-83497638D01*
X45928646Y-83681317D01*
X46045378Y-83846490D01*
X46190256Y-83987623D01*
X46358427Y-84099992D01*
X46363730Y-84102270D01*
X46363733Y-84102272D01*
X46452081Y-84140229D01*
X46544260Y-84179832D01*
X46741530Y-84224470D01*
X46747299Y-84224697D01*
X46747302Y-84224697D01*
X46823473Y-84227689D01*
X46943632Y-84232410D01*
X47029922Y-84219899D01*
X47138076Y-84204218D01*
X47138081Y-84204217D01*
X47143797Y-84203388D01*
X47149269Y-84201530D01*
X47149271Y-84201530D01*
X47329857Y-84140229D01*
X47329859Y-84140228D01*
X47335321Y-84138374D01*
X47511791Y-84039547D01*
X47574223Y-83987623D01*
X47662863Y-83913901D01*
X47667295Y-83910215D01*
X47796627Y-83754711D01*
X47895454Y-83578241D01*
X47960468Y-83386717D01*
X47961297Y-83381001D01*
X47961298Y-83380996D01*
X47988957Y-83190226D01*
X47989490Y-83186552D01*
X47991005Y-83128710D01*
X47988347Y-83099779D01*
X48320954Y-83099779D01*
X48334182Y-83301604D01*
X48383968Y-83497638D01*
X48468646Y-83681317D01*
X48585378Y-83846490D01*
X48730256Y-83987623D01*
X48898427Y-84099992D01*
X48903730Y-84102270D01*
X48903733Y-84102272D01*
X48992081Y-84140229D01*
X49084260Y-84179832D01*
X49281530Y-84224470D01*
X49287299Y-84224697D01*
X49287302Y-84224697D01*
X49363473Y-84227689D01*
X49483632Y-84232410D01*
X49569922Y-84219899D01*
X49678076Y-84204218D01*
X49678081Y-84204217D01*
X49683797Y-84203388D01*
X49689269Y-84201530D01*
X49689271Y-84201530D01*
X49869857Y-84140229D01*
X49869859Y-84140228D01*
X49875321Y-84138374D01*
X50051791Y-84039547D01*
X50114223Y-83987623D01*
X50202863Y-83913901D01*
X50207295Y-83910215D01*
X50336627Y-83754711D01*
X50435454Y-83578241D01*
X50500468Y-83386717D01*
X50501297Y-83381001D01*
X50501298Y-83380996D01*
X50528957Y-83190226D01*
X50529490Y-83186552D01*
X50531005Y-83128710D01*
X50512498Y-82927301D01*
X50457597Y-82732636D01*
X50368141Y-82551237D01*
X50349869Y-82526767D01*
X50250578Y-82393801D01*
X50250577Y-82393800D01*
X50247125Y-82389177D01*
X50224140Y-82367930D01*
X50102843Y-82255804D01*
X50102841Y-82255802D01*
X50098602Y-82251884D01*
X50071164Y-82234572D01*
X49932427Y-82147035D01*
X49927547Y-82143956D01*
X49739688Y-82069008D01*
X49541316Y-82029549D01*
X49535542Y-82029473D01*
X49535538Y-82029473D01*
X49433047Y-82028132D01*
X49339076Y-82026902D01*
X49333379Y-82027881D01*
X49333378Y-82027881D01*
X49145436Y-82060175D01*
X49145435Y-82060175D01*
X49139739Y-82061154D01*
X48949983Y-82131159D01*
X48776161Y-82234572D01*
X48624095Y-82367930D01*
X48498879Y-82526767D01*
X48404704Y-82705763D01*
X48344727Y-82898923D01*
X48320954Y-83099779D01*
X47988347Y-83099779D01*
X47972498Y-82927301D01*
X47917597Y-82732636D01*
X47828141Y-82551237D01*
X47809869Y-82526767D01*
X47710578Y-82393801D01*
X47710577Y-82393800D01*
X47707125Y-82389177D01*
X47684140Y-82367930D01*
X47562843Y-82255804D01*
X47562841Y-82255802D01*
X47558602Y-82251884D01*
X47531164Y-82234572D01*
X47392427Y-82147035D01*
X47387547Y-82143956D01*
X47199688Y-82069008D01*
X47001316Y-82029549D01*
X46995542Y-82029473D01*
X46995538Y-82029473D01*
X46893047Y-82028132D01*
X46799076Y-82026902D01*
X46793379Y-82027881D01*
X46793378Y-82027881D01*
X46605436Y-82060175D01*
X46605435Y-82060175D01*
X46599739Y-82061154D01*
X46409983Y-82131159D01*
X46236161Y-82234572D01*
X46084095Y-82367930D01*
X45958879Y-82526767D01*
X45864704Y-82705763D01*
X45804727Y-82898923D01*
X45780954Y-83099779D01*
X43750000Y-83099779D01*
X43750000Y-80559779D01*
X45780954Y-80559779D01*
X45794182Y-80761604D01*
X45843968Y-80957638D01*
X45928646Y-81141317D01*
X46045378Y-81306490D01*
X46190256Y-81447623D01*
X46358427Y-81559992D01*
X46363730Y-81562270D01*
X46363733Y-81562272D01*
X46452081Y-81600229D01*
X46544260Y-81639832D01*
X46741530Y-81684470D01*
X46747299Y-81684697D01*
X46747302Y-81684697D01*
X46823473Y-81687689D01*
X46943632Y-81692410D01*
X47029922Y-81679899D01*
X47138076Y-81664218D01*
X47138081Y-81664217D01*
X47143797Y-81663388D01*
X47149269Y-81661530D01*
X47149271Y-81661530D01*
X47329857Y-81600229D01*
X47329859Y-81600228D01*
X47335321Y-81598374D01*
X47511791Y-81499547D01*
X47574223Y-81447623D01*
X47662863Y-81373901D01*
X47667295Y-81370215D01*
X47796627Y-81214711D01*
X47895454Y-81038241D01*
X47960468Y-80846717D01*
X47961297Y-80841001D01*
X47961298Y-80840996D01*
X47988957Y-80650226D01*
X47989490Y-80646552D01*
X47991005Y-80588710D01*
X47988347Y-80559779D01*
X48320954Y-80559779D01*
X48334182Y-80761604D01*
X48383968Y-80957638D01*
X48468646Y-81141317D01*
X48585378Y-81306490D01*
X48730256Y-81447623D01*
X48898427Y-81559992D01*
X48903730Y-81562270D01*
X48903733Y-81562272D01*
X48992081Y-81600229D01*
X49084260Y-81639832D01*
X49281530Y-81684470D01*
X49287299Y-81684697D01*
X49287302Y-81684697D01*
X49363473Y-81687689D01*
X49483632Y-81692410D01*
X49569922Y-81679899D01*
X49678076Y-81664218D01*
X49678081Y-81664217D01*
X49683797Y-81663388D01*
X49689269Y-81661530D01*
X49689271Y-81661530D01*
X49869857Y-81600229D01*
X49869859Y-81600228D01*
X49875321Y-81598374D01*
X50051791Y-81499547D01*
X50114223Y-81447623D01*
X50202863Y-81373901D01*
X50207295Y-81370215D01*
X50336627Y-81214711D01*
X50435454Y-81038241D01*
X50500468Y-80846717D01*
X50501297Y-80841001D01*
X50501298Y-80840996D01*
X50528957Y-80650226D01*
X50529490Y-80646552D01*
X50531005Y-80588710D01*
X50512498Y-80387301D01*
X50457597Y-80192636D01*
X50368141Y-80011237D01*
X50349869Y-79986767D01*
X50250578Y-79853801D01*
X50250577Y-79853800D01*
X50247125Y-79849177D01*
X50224140Y-79827930D01*
X50102843Y-79715804D01*
X50102841Y-79715802D01*
X50098602Y-79711884D01*
X50071164Y-79694572D01*
X49932427Y-79607035D01*
X49927547Y-79603956D01*
X49739688Y-79529008D01*
X49541316Y-79489549D01*
X49535542Y-79489473D01*
X49535538Y-79489473D01*
X49433047Y-79488132D01*
X49339076Y-79486902D01*
X49333379Y-79487881D01*
X49333378Y-79487881D01*
X49145436Y-79520175D01*
X49145435Y-79520175D01*
X49139739Y-79521154D01*
X48949983Y-79591159D01*
X48776161Y-79694572D01*
X48624095Y-79827930D01*
X48498879Y-79986767D01*
X48404704Y-80165763D01*
X48344727Y-80358923D01*
X48320954Y-80559779D01*
X47988347Y-80559779D01*
X47972498Y-80387301D01*
X47917597Y-80192636D01*
X47828141Y-80011237D01*
X47809869Y-79986767D01*
X47710578Y-79853801D01*
X47710577Y-79853800D01*
X47707125Y-79849177D01*
X47684140Y-79827930D01*
X47562843Y-79715804D01*
X47562841Y-79715802D01*
X47558602Y-79711884D01*
X47531164Y-79694572D01*
X47392427Y-79607035D01*
X47387547Y-79603956D01*
X47199688Y-79529008D01*
X47001316Y-79489549D01*
X46995542Y-79489473D01*
X46995538Y-79489473D01*
X46893047Y-79488132D01*
X46799076Y-79486902D01*
X46793379Y-79487881D01*
X46793378Y-79487881D01*
X46605436Y-79520175D01*
X46605435Y-79520175D01*
X46599739Y-79521154D01*
X46409983Y-79591159D01*
X46236161Y-79694572D01*
X46084095Y-79827930D01*
X45958879Y-79986767D01*
X45864704Y-80165763D01*
X45804727Y-80358923D01*
X45780954Y-80559779D01*
X43750000Y-80559779D01*
X43750000Y-78019779D01*
X45780954Y-78019779D01*
X45794182Y-78221604D01*
X45843968Y-78417638D01*
X45928646Y-78601317D01*
X46045378Y-78766490D01*
X46190256Y-78907623D01*
X46358427Y-79019992D01*
X46363730Y-79022270D01*
X46363733Y-79022272D01*
X46452081Y-79060229D01*
X46544260Y-79099832D01*
X46741530Y-79144470D01*
X46747299Y-79144697D01*
X46747302Y-79144697D01*
X46823473Y-79147689D01*
X46943632Y-79152410D01*
X47029922Y-79139899D01*
X47138076Y-79124218D01*
X47138081Y-79124217D01*
X47143797Y-79123388D01*
X47149269Y-79121530D01*
X47149271Y-79121530D01*
X47329857Y-79060229D01*
X47329859Y-79060228D01*
X47335321Y-79058374D01*
X47511791Y-78959547D01*
X47574223Y-78907623D01*
X47662863Y-78833901D01*
X47667295Y-78830215D01*
X47796627Y-78674711D01*
X47895454Y-78498241D01*
X47960468Y-78306717D01*
X47961297Y-78301001D01*
X47961298Y-78300996D01*
X47988957Y-78110226D01*
X47989490Y-78106552D01*
X47991005Y-78048710D01*
X47988347Y-78019779D01*
X48320954Y-78019779D01*
X48334182Y-78221604D01*
X48383968Y-78417638D01*
X48468646Y-78601317D01*
X48585378Y-78766490D01*
X48730256Y-78907623D01*
X48898427Y-79019992D01*
X48903730Y-79022270D01*
X48903733Y-79022272D01*
X48992081Y-79060229D01*
X49084260Y-79099832D01*
X49281530Y-79144470D01*
X49287299Y-79144697D01*
X49287302Y-79144697D01*
X49363473Y-79147689D01*
X49483632Y-79152410D01*
X49569922Y-79139899D01*
X49678076Y-79124218D01*
X49678081Y-79124217D01*
X49683797Y-79123388D01*
X49689269Y-79121530D01*
X49689271Y-79121530D01*
X49869857Y-79060229D01*
X49869859Y-79060228D01*
X49875321Y-79058374D01*
X50051791Y-78959547D01*
X50114223Y-78907623D01*
X50202863Y-78833901D01*
X50207295Y-78830215D01*
X50336627Y-78674711D01*
X50435454Y-78498241D01*
X50500468Y-78306717D01*
X50501297Y-78301001D01*
X50501298Y-78300996D01*
X50528957Y-78110226D01*
X50529490Y-78106552D01*
X50531005Y-78048710D01*
X50512498Y-77847301D01*
X50457597Y-77652636D01*
X50368141Y-77471237D01*
X50349869Y-77446767D01*
X50250578Y-77313801D01*
X50250577Y-77313800D01*
X50247125Y-77309177D01*
X50224140Y-77287930D01*
X50102843Y-77175804D01*
X50102841Y-77175802D01*
X50098602Y-77171884D01*
X50071164Y-77154572D01*
X49932427Y-77067035D01*
X49927547Y-77063956D01*
X49739688Y-76989008D01*
X49541316Y-76949549D01*
X49535542Y-76949473D01*
X49535538Y-76949473D01*
X49433047Y-76948132D01*
X49339076Y-76946902D01*
X49333379Y-76947881D01*
X49333378Y-76947881D01*
X49145436Y-76980175D01*
X49145435Y-76980175D01*
X49139739Y-76981154D01*
X48949983Y-77051159D01*
X48776161Y-77154572D01*
X48624095Y-77287930D01*
X48498879Y-77446767D01*
X48404704Y-77625763D01*
X48344727Y-77818923D01*
X48320954Y-78019779D01*
X47988347Y-78019779D01*
X47972498Y-77847301D01*
X47917597Y-77652636D01*
X47828141Y-77471237D01*
X47809869Y-77446767D01*
X47710578Y-77313801D01*
X47710577Y-77313800D01*
X47707125Y-77309177D01*
X47684140Y-77287930D01*
X47562843Y-77175804D01*
X47562841Y-77175802D01*
X47558602Y-77171884D01*
X47531164Y-77154572D01*
X47392427Y-77067035D01*
X47387547Y-77063956D01*
X47199688Y-76989008D01*
X47001316Y-76949549D01*
X46995542Y-76949473D01*
X46995538Y-76949473D01*
X46893047Y-76948132D01*
X46799076Y-76946902D01*
X46793379Y-76947881D01*
X46793378Y-76947881D01*
X46605436Y-76980175D01*
X46605435Y-76980175D01*
X46599739Y-76981154D01*
X46409983Y-77051159D01*
X46236161Y-77154572D01*
X46084095Y-77287930D01*
X45958879Y-77446767D01*
X45864704Y-77625763D01*
X45804727Y-77818923D01*
X45780954Y-78019779D01*
X43750000Y-78019779D01*
X43750000Y-75479779D01*
X45780954Y-75479779D01*
X45794182Y-75681604D01*
X45843968Y-75877638D01*
X45928646Y-76061317D01*
X46045378Y-76226490D01*
X46190256Y-76367623D01*
X46358427Y-76479992D01*
X46363730Y-76482270D01*
X46363733Y-76482272D01*
X46452081Y-76520229D01*
X46544260Y-76559832D01*
X46741530Y-76604470D01*
X46747299Y-76604697D01*
X46747302Y-76604697D01*
X46823473Y-76607689D01*
X46943632Y-76612410D01*
X47029922Y-76599899D01*
X47138076Y-76584218D01*
X47138081Y-76584217D01*
X47143797Y-76583388D01*
X47149269Y-76581530D01*
X47149271Y-76581530D01*
X47329857Y-76520229D01*
X47329859Y-76520228D01*
X47335321Y-76518374D01*
X47511791Y-76419547D01*
X47574223Y-76367623D01*
X47662863Y-76293901D01*
X47667295Y-76290215D01*
X47796627Y-76134711D01*
X47895454Y-75958241D01*
X47960468Y-75766717D01*
X47961297Y-75761001D01*
X47961298Y-75760996D01*
X47988957Y-75570226D01*
X47989490Y-75566552D01*
X47991005Y-75508710D01*
X47988347Y-75479779D01*
X48320954Y-75479779D01*
X48334182Y-75681604D01*
X48383968Y-75877638D01*
X48468646Y-76061317D01*
X48585378Y-76226490D01*
X48730256Y-76367623D01*
X48898427Y-76479992D01*
X48903730Y-76482270D01*
X48903733Y-76482272D01*
X48992081Y-76520229D01*
X49084260Y-76559832D01*
X49281530Y-76604470D01*
X49287299Y-76604697D01*
X49287302Y-76604697D01*
X49363473Y-76607689D01*
X49483632Y-76612410D01*
X49569922Y-76599899D01*
X49678076Y-76584218D01*
X49678081Y-76584217D01*
X49683797Y-76583388D01*
X49689269Y-76581530D01*
X49689271Y-76581530D01*
X49869857Y-76520229D01*
X49869859Y-76520228D01*
X49875321Y-76518374D01*
X50051791Y-76419547D01*
X50114223Y-76367623D01*
X50202863Y-76293901D01*
X50207295Y-76290215D01*
X50336627Y-76134711D01*
X50435454Y-75958241D01*
X50500468Y-75766717D01*
X50501297Y-75761001D01*
X50501298Y-75760996D01*
X50528957Y-75570226D01*
X50529490Y-75566552D01*
X50531005Y-75508710D01*
X50512498Y-75307301D01*
X50457597Y-75112636D01*
X50368141Y-74931237D01*
X50349869Y-74906767D01*
X50250578Y-74773801D01*
X50250577Y-74773800D01*
X50247125Y-74769177D01*
X50224140Y-74747930D01*
X50102843Y-74635804D01*
X50102841Y-74635802D01*
X50098602Y-74631884D01*
X50071164Y-74614572D01*
X49932427Y-74527035D01*
X49927547Y-74523956D01*
X49739688Y-74449008D01*
X49541316Y-74409549D01*
X49535542Y-74409473D01*
X49535538Y-74409473D01*
X49433047Y-74408132D01*
X49339076Y-74406902D01*
X49333379Y-74407881D01*
X49333378Y-74407881D01*
X49145436Y-74440175D01*
X49145435Y-74440175D01*
X49139739Y-74441154D01*
X48949983Y-74511159D01*
X48776161Y-74614572D01*
X48624095Y-74747930D01*
X48498879Y-74906767D01*
X48404704Y-75085763D01*
X48344727Y-75278923D01*
X48320954Y-75479779D01*
X47988347Y-75479779D01*
X47972498Y-75307301D01*
X47917597Y-75112636D01*
X47828141Y-74931237D01*
X47809869Y-74906767D01*
X47710578Y-74773801D01*
X47710577Y-74773800D01*
X47707125Y-74769177D01*
X47684140Y-74747930D01*
X47562843Y-74635804D01*
X47562841Y-74635802D01*
X47558602Y-74631884D01*
X47531164Y-74614572D01*
X47392427Y-74527035D01*
X47387547Y-74523956D01*
X47199688Y-74449008D01*
X47001316Y-74409549D01*
X46995542Y-74409473D01*
X46995538Y-74409473D01*
X46893047Y-74408132D01*
X46799076Y-74406902D01*
X46793379Y-74407881D01*
X46793378Y-74407881D01*
X46605436Y-74440175D01*
X46605435Y-74440175D01*
X46599739Y-74441154D01*
X46409983Y-74511159D01*
X46236161Y-74614572D01*
X46084095Y-74747930D01*
X45958879Y-74906767D01*
X45864704Y-75085763D01*
X45804727Y-75278923D01*
X45780954Y-75479779D01*
X43750000Y-75479779D01*
X43750000Y-72939779D01*
X45780954Y-72939779D01*
X45794182Y-73141604D01*
X45843968Y-73337638D01*
X45928646Y-73521317D01*
X46045378Y-73686490D01*
X46190256Y-73827623D01*
X46358427Y-73939992D01*
X46363730Y-73942270D01*
X46363733Y-73942272D01*
X46452081Y-73980229D01*
X46544260Y-74019832D01*
X46741530Y-74064470D01*
X46747299Y-74064697D01*
X46747302Y-74064697D01*
X46823473Y-74067689D01*
X46943632Y-74072410D01*
X47029922Y-74059899D01*
X47138076Y-74044218D01*
X47138081Y-74044217D01*
X47143797Y-74043388D01*
X47149269Y-74041530D01*
X47149271Y-74041530D01*
X47329857Y-73980229D01*
X47329859Y-73980228D01*
X47335321Y-73978374D01*
X47511791Y-73879547D01*
X47574223Y-73827623D01*
X47662863Y-73753901D01*
X47667295Y-73750215D01*
X47796627Y-73594711D01*
X47895454Y-73418241D01*
X47960468Y-73226717D01*
X47961297Y-73221001D01*
X47961298Y-73220996D01*
X47988957Y-73030226D01*
X47989490Y-73026552D01*
X47991005Y-72968710D01*
X47988347Y-72939779D01*
X48320954Y-72939779D01*
X48334182Y-73141604D01*
X48383968Y-73337638D01*
X48468646Y-73521317D01*
X48585378Y-73686490D01*
X48730256Y-73827623D01*
X48898427Y-73939992D01*
X48903730Y-73942270D01*
X48903733Y-73942272D01*
X48992081Y-73980229D01*
X49084260Y-74019832D01*
X49281530Y-74064470D01*
X49287299Y-74064697D01*
X49287302Y-74064697D01*
X49363473Y-74067689D01*
X49483632Y-74072410D01*
X49569922Y-74059899D01*
X49678076Y-74044218D01*
X49678081Y-74044217D01*
X49683797Y-74043388D01*
X49689269Y-74041530D01*
X49689271Y-74041530D01*
X49869857Y-73980229D01*
X49869859Y-73980228D01*
X49875321Y-73978374D01*
X50051791Y-73879547D01*
X50114223Y-73827623D01*
X50202863Y-73753901D01*
X50207295Y-73750215D01*
X50336627Y-73594711D01*
X50435454Y-73418241D01*
X50500468Y-73226717D01*
X50501297Y-73221001D01*
X50501298Y-73220996D01*
X50528957Y-73030226D01*
X50529490Y-73026552D01*
X50531005Y-72968710D01*
X50512498Y-72767301D01*
X50457597Y-72572636D01*
X50368141Y-72391237D01*
X50349869Y-72366767D01*
X50250578Y-72233801D01*
X50250577Y-72233800D01*
X50247125Y-72229177D01*
X50229054Y-72212472D01*
X50102843Y-72095804D01*
X50102841Y-72095802D01*
X50098602Y-72091884D01*
X50071164Y-72074572D01*
X49932427Y-71987035D01*
X49927547Y-71983956D01*
X49739688Y-71909008D01*
X49541316Y-71869549D01*
X49535542Y-71869473D01*
X49535538Y-71869473D01*
X49433047Y-71868132D01*
X49339076Y-71866902D01*
X49333379Y-71867881D01*
X49333378Y-71867881D01*
X49145436Y-71900175D01*
X49145435Y-71900175D01*
X49139739Y-71901154D01*
X48949983Y-71971159D01*
X48945022Y-71974111D01*
X48945021Y-71974111D01*
X48803482Y-72058318D01*
X48776161Y-72074572D01*
X48624095Y-72207930D01*
X48498879Y-72366767D01*
X48404704Y-72545763D01*
X48344727Y-72738923D01*
X48320954Y-72939779D01*
X47988347Y-72939779D01*
X47972498Y-72767301D01*
X47917597Y-72572636D01*
X47828141Y-72391237D01*
X47809869Y-72366767D01*
X47710578Y-72233801D01*
X47710577Y-72233800D01*
X47707125Y-72229177D01*
X47689054Y-72212472D01*
X47562843Y-72095804D01*
X47562841Y-72095802D01*
X47558602Y-72091884D01*
X47531164Y-72074572D01*
X47392427Y-71987035D01*
X47387547Y-71983956D01*
X47199688Y-71909008D01*
X47001316Y-71869549D01*
X46995542Y-71869473D01*
X46995538Y-71869473D01*
X46893047Y-71868132D01*
X46799076Y-71866902D01*
X46793379Y-71867881D01*
X46793378Y-71867881D01*
X46605436Y-71900175D01*
X46605435Y-71900175D01*
X46599739Y-71901154D01*
X46409983Y-71971159D01*
X46405022Y-71974111D01*
X46405021Y-71974111D01*
X46263482Y-72058318D01*
X46236161Y-72074572D01*
X46084095Y-72207930D01*
X45958879Y-72366767D01*
X45864704Y-72545763D01*
X45804727Y-72738923D01*
X45780954Y-72939779D01*
X43750000Y-72939779D01*
X43750000Y-70399779D01*
X48320954Y-70399779D01*
X48334182Y-70601604D01*
X48354927Y-70683289D01*
X48379126Y-70778571D01*
X48383968Y-70797638D01*
X48468646Y-70981317D01*
X48484027Y-71003081D01*
X48564260Y-71116608D01*
X48585378Y-71146490D01*
X48589520Y-71150525D01*
X48647197Y-71206711D01*
X48730256Y-71287623D01*
X48898427Y-71399992D01*
X48903730Y-71402270D01*
X48903733Y-71402272D01*
X48992081Y-71440229D01*
X49084260Y-71479832D01*
X49281530Y-71524470D01*
X49287299Y-71524697D01*
X49287302Y-71524697D01*
X49363473Y-71527689D01*
X49483632Y-71532410D01*
X49569922Y-71519899D01*
X49678076Y-71504218D01*
X49678081Y-71504217D01*
X49683797Y-71503388D01*
X49689269Y-71501530D01*
X49689271Y-71501530D01*
X49869857Y-71440229D01*
X49869859Y-71440228D01*
X49875321Y-71438374D01*
X50051791Y-71339547D01*
X50056228Y-71335857D01*
X50056235Y-71335852D01*
X50126607Y-71277324D01*
X50191771Y-71249143D01*
X50261826Y-71260667D01*
X50314530Y-71308235D01*
X50333150Y-71376747D01*
X50323585Y-71422416D01*
X50301777Y-71475065D01*
X50281379Y-71630000D01*
X50301777Y-71784935D01*
X50361579Y-71929310D01*
X50456711Y-72053289D01*
X50463261Y-72058315D01*
X50463264Y-72058318D01*
X50507009Y-72091884D01*
X50580689Y-72148421D01*
X50725065Y-72208223D01*
X50880000Y-72228621D01*
X51034935Y-72208223D01*
X51179311Y-72148421D01*
X51252991Y-72091884D01*
X51296736Y-72058318D01*
X51296739Y-72058315D01*
X51303289Y-72053289D01*
X51398421Y-71929310D01*
X51458223Y-71784935D01*
X51478621Y-71630000D01*
X51458223Y-71475065D01*
X51398421Y-71330690D01*
X51303289Y-71206711D01*
X51296739Y-71201685D01*
X51296736Y-71201682D01*
X51230066Y-71150525D01*
X51179311Y-71111579D01*
X51073189Y-71067622D01*
X51017908Y-71023074D01*
X50995487Y-70955710D01*
X51013045Y-70886919D01*
X51065007Y-70838541D01*
X51073189Y-70834804D01*
X51209311Y-70778421D01*
X51271300Y-70730855D01*
X51326736Y-70688318D01*
X51326739Y-70688315D01*
X51333289Y-70683289D01*
X51428421Y-70559310D01*
X51488223Y-70414935D01*
X51508621Y-70260000D01*
X51488223Y-70105065D01*
X51428421Y-69960690D01*
X51333289Y-69836711D01*
X51326739Y-69831685D01*
X51326736Y-69831682D01*
X51271300Y-69789145D01*
X51209311Y-69741579D01*
X51064935Y-69681777D01*
X50910000Y-69661379D01*
X50755065Y-69681777D01*
X50610690Y-69741579D01*
X50604139Y-69746606D01*
X50505716Y-69822128D01*
X50439495Y-69847728D01*
X50369947Y-69833463D01*
X50328054Y-69797554D01*
X50250578Y-69693801D01*
X50250577Y-69693800D01*
X50247125Y-69689177D01*
X50242889Y-69685261D01*
X50102843Y-69555804D01*
X50102841Y-69555802D01*
X50098602Y-69551884D01*
X50071164Y-69534572D01*
X49932427Y-69447035D01*
X49927547Y-69443956D01*
X49739688Y-69369008D01*
X49541316Y-69329549D01*
X49535542Y-69329473D01*
X49535538Y-69329473D01*
X49433047Y-69328132D01*
X49339076Y-69326902D01*
X49333379Y-69327881D01*
X49333378Y-69327881D01*
X49145436Y-69360175D01*
X49145435Y-69360175D01*
X49139739Y-69361154D01*
X48949983Y-69431159D01*
X48776161Y-69534572D01*
X48624095Y-69667930D01*
X48498879Y-69826767D01*
X48404704Y-70005763D01*
X48344727Y-70198923D01*
X48320954Y-70399779D01*
X43750000Y-70399779D01*
X43750000Y-67859779D01*
X45780954Y-67859779D01*
X45794182Y-68061604D01*
X45843968Y-68257638D01*
X45928646Y-68441317D01*
X46045378Y-68606490D01*
X46190256Y-68747623D01*
X46358427Y-68859992D01*
X46363730Y-68862270D01*
X46363733Y-68862272D01*
X46452081Y-68900229D01*
X46544260Y-68939832D01*
X46741530Y-68984470D01*
X46747299Y-68984697D01*
X46747302Y-68984697D01*
X46823473Y-68987689D01*
X46943632Y-68992410D01*
X47029922Y-68979899D01*
X47138076Y-68964218D01*
X47138081Y-68964217D01*
X47143797Y-68963388D01*
X47149269Y-68961530D01*
X47149271Y-68961530D01*
X47329857Y-68900229D01*
X47329859Y-68900228D01*
X47335321Y-68898374D01*
X47511791Y-68799547D01*
X47574223Y-68747623D01*
X47662863Y-68673901D01*
X47667295Y-68670215D01*
X47796627Y-68514711D01*
X47895454Y-68338241D01*
X47917468Y-68273392D01*
X47958610Y-68152191D01*
X47958610Y-68152189D01*
X47960468Y-68146717D01*
X47961297Y-68141001D01*
X47961298Y-68140996D01*
X47988957Y-67950226D01*
X47989490Y-67946552D01*
X47991005Y-67888710D01*
X47988347Y-67859779D01*
X48320954Y-67859779D01*
X48334182Y-68061604D01*
X48383968Y-68257638D01*
X48468646Y-68441317D01*
X48585378Y-68606490D01*
X48730256Y-68747623D01*
X48898427Y-68859992D01*
X48903730Y-68862270D01*
X48903733Y-68862272D01*
X48992081Y-68900229D01*
X49084260Y-68939832D01*
X49281530Y-68984470D01*
X49287299Y-68984697D01*
X49287302Y-68984697D01*
X49363473Y-68987689D01*
X49483632Y-68992410D01*
X49569922Y-68979899D01*
X49678076Y-68964218D01*
X49678081Y-68964217D01*
X49683797Y-68963388D01*
X49689269Y-68961530D01*
X49689271Y-68961530D01*
X49869857Y-68900229D01*
X49869859Y-68900228D01*
X49875321Y-68898374D01*
X50051791Y-68799547D01*
X50114223Y-68747623D01*
X50202863Y-68673901D01*
X50207295Y-68670215D01*
X50336627Y-68514711D01*
X50435454Y-68338241D01*
X50457468Y-68273392D01*
X50498610Y-68152191D01*
X50498610Y-68152189D01*
X50500468Y-68146717D01*
X50501297Y-68141001D01*
X50501298Y-68140996D01*
X50528957Y-67950226D01*
X50529490Y-67946552D01*
X50531005Y-67888710D01*
X50512498Y-67687301D01*
X50457597Y-67492636D01*
X50411914Y-67400000D01*
X54691379Y-67400000D01*
X54711777Y-67554935D01*
X54771579Y-67699310D01*
X54866711Y-67823289D01*
X54873261Y-67828315D01*
X54873264Y-67828318D01*
X54921780Y-67865545D01*
X54990689Y-67918421D01*
X55135065Y-67978223D01*
X55290000Y-67998621D01*
X55444935Y-67978223D01*
X55589311Y-67918421D01*
X55658220Y-67865545D01*
X55706736Y-67828318D01*
X55706739Y-67828315D01*
X55713289Y-67823289D01*
X55761852Y-67760000D01*
X63081379Y-67760000D01*
X63101777Y-67914935D01*
X63161579Y-68059310D01*
X63166606Y-68065861D01*
X63224259Y-68140996D01*
X63256711Y-68183289D01*
X63263261Y-68188315D01*
X63263264Y-68188318D01*
X63318700Y-68230855D01*
X63380689Y-68278421D01*
X63525065Y-68338223D01*
X63680000Y-68358621D01*
X63834935Y-68338223D01*
X63979311Y-68278421D01*
X64041300Y-68230855D01*
X64096736Y-68188318D01*
X64096739Y-68188315D01*
X64103289Y-68183289D01*
X64135742Y-68140996D01*
X64193394Y-68065861D01*
X64198421Y-68059310D01*
X64258223Y-67914935D01*
X64278621Y-67760000D01*
X64258223Y-67605065D01*
X64198421Y-67460690D01*
X64103289Y-67336711D01*
X64096739Y-67331685D01*
X64096736Y-67331682D01*
X64038201Y-67286767D01*
X63979311Y-67241579D01*
X63834935Y-67181777D01*
X63680000Y-67161379D01*
X63525065Y-67181777D01*
X63380690Y-67241579D01*
X63374139Y-67246606D01*
X63289910Y-67311237D01*
X63256711Y-67336711D01*
X63161579Y-67460690D01*
X63101777Y-67605065D01*
X63081379Y-67760000D01*
X55761852Y-67760000D01*
X55808421Y-67699310D01*
X55868223Y-67554935D01*
X55888621Y-67400000D01*
X55868223Y-67245065D01*
X55808421Y-67100690D01*
X55726994Y-66994572D01*
X55718316Y-66983262D01*
X55718315Y-66983261D01*
X55713289Y-66976711D01*
X55706739Y-66971685D01*
X55706736Y-66971682D01*
X55651300Y-66929145D01*
X55589311Y-66881579D01*
X55444935Y-66821777D01*
X55290000Y-66801379D01*
X55135065Y-66821777D01*
X54990690Y-66881579D01*
X54866711Y-66976711D01*
X54861688Y-66983257D01*
X54853006Y-66994572D01*
X54771579Y-67100690D01*
X54711777Y-67245065D01*
X54691379Y-67400000D01*
X50411914Y-67400000D01*
X50368141Y-67311237D01*
X50349869Y-67286767D01*
X50250578Y-67153801D01*
X50250577Y-67153800D01*
X50247125Y-67149177D01*
X50224140Y-67127930D01*
X50102843Y-67015804D01*
X50102841Y-67015802D01*
X50098602Y-67011884D01*
X50071164Y-66994572D01*
X49932427Y-66907035D01*
X49927547Y-66903956D01*
X49739688Y-66829008D01*
X49541316Y-66789549D01*
X49535542Y-66789473D01*
X49535538Y-66789473D01*
X49433047Y-66788132D01*
X49339076Y-66786902D01*
X49333379Y-66787881D01*
X49333378Y-66787881D01*
X49145436Y-66820175D01*
X49145435Y-66820175D01*
X49139739Y-66821154D01*
X48949983Y-66891159D01*
X48945022Y-66894111D01*
X48945021Y-66894111D01*
X48806183Y-66976711D01*
X48776161Y-66994572D01*
X48624095Y-67127930D01*
X48498879Y-67286767D01*
X48404704Y-67465763D01*
X48344727Y-67658923D01*
X48320954Y-67859779D01*
X47988347Y-67859779D01*
X47972498Y-67687301D01*
X47917597Y-67492636D01*
X47828141Y-67311237D01*
X47809869Y-67286767D01*
X47710578Y-67153801D01*
X47710577Y-67153800D01*
X47707125Y-67149177D01*
X47684140Y-67127930D01*
X47562843Y-67015804D01*
X47562841Y-67015802D01*
X47558602Y-67011884D01*
X47531164Y-66994572D01*
X47392427Y-66907035D01*
X47387547Y-66903956D01*
X47199688Y-66829008D01*
X47001316Y-66789549D01*
X46995542Y-66789473D01*
X46995538Y-66789473D01*
X46893047Y-66788132D01*
X46799076Y-66786902D01*
X46793379Y-66787881D01*
X46793378Y-66787881D01*
X46605436Y-66820175D01*
X46605435Y-66820175D01*
X46599739Y-66821154D01*
X46409983Y-66891159D01*
X46405022Y-66894111D01*
X46405021Y-66894111D01*
X46266183Y-66976711D01*
X46236161Y-66994572D01*
X46084095Y-67127930D01*
X45958879Y-67286767D01*
X45864704Y-67465763D01*
X45804727Y-67658923D01*
X45780954Y-67859779D01*
X43750000Y-67859779D01*
X43750000Y-65319779D01*
X45780954Y-65319779D01*
X45794182Y-65521604D01*
X45795605Y-65527206D01*
X45841602Y-65708320D01*
X45843968Y-65717638D01*
X45928646Y-65901317D01*
X45931979Y-65906033D01*
X46019590Y-66030000D01*
X46045378Y-66066490D01*
X46190256Y-66207623D01*
X46358427Y-66319992D01*
X46363730Y-66322270D01*
X46363733Y-66322272D01*
X46452081Y-66360229D01*
X46544260Y-66399832D01*
X46741530Y-66444470D01*
X46747299Y-66444697D01*
X46747302Y-66444697D01*
X46823473Y-66447689D01*
X46943632Y-66452410D01*
X47029922Y-66439899D01*
X47138076Y-66424218D01*
X47138081Y-66424217D01*
X47143797Y-66423388D01*
X47149269Y-66421530D01*
X47149271Y-66421530D01*
X47329857Y-66360229D01*
X47329859Y-66360228D01*
X47335321Y-66358374D01*
X47511791Y-66259547D01*
X47574223Y-66207623D01*
X47662863Y-66133901D01*
X47667295Y-66130215D01*
X47796627Y-65974711D01*
X47895454Y-65798241D01*
X47905531Y-65768557D01*
X47958610Y-65612191D01*
X47958610Y-65612189D01*
X47960468Y-65606717D01*
X47961297Y-65601001D01*
X47961298Y-65600996D01*
X47986824Y-65424938D01*
X47989490Y-65406552D01*
X47991005Y-65348710D01*
X47988347Y-65319779D01*
X48320954Y-65319779D01*
X48334182Y-65521604D01*
X48335605Y-65527206D01*
X48381602Y-65708320D01*
X48383968Y-65717638D01*
X48468646Y-65901317D01*
X48471979Y-65906033D01*
X48559590Y-66030000D01*
X48585378Y-66066490D01*
X48730256Y-66207623D01*
X48898427Y-66319992D01*
X48903730Y-66322270D01*
X48903733Y-66322272D01*
X48992081Y-66360229D01*
X49084260Y-66399832D01*
X49281530Y-66444470D01*
X49287299Y-66444697D01*
X49287302Y-66444697D01*
X49363473Y-66447689D01*
X49483632Y-66452410D01*
X49569922Y-66439899D01*
X49678076Y-66424218D01*
X49678081Y-66424217D01*
X49683797Y-66423388D01*
X49689269Y-66421530D01*
X49689271Y-66421530D01*
X49869857Y-66360229D01*
X49869859Y-66360228D01*
X49875321Y-66358374D01*
X50051791Y-66259547D01*
X50114223Y-66207623D01*
X50202863Y-66133901D01*
X50207295Y-66130215D01*
X50290643Y-66030000D01*
X57851379Y-66030000D01*
X57871777Y-66184935D01*
X57931579Y-66329310D01*
X57955304Y-66360229D01*
X58018966Y-66443195D01*
X58026711Y-66453289D01*
X58033261Y-66458315D01*
X58033264Y-66458318D01*
X58088700Y-66500855D01*
X58150689Y-66548421D01*
X58295065Y-66608223D01*
X58450000Y-66628621D01*
X58604935Y-66608223D01*
X58749311Y-66548421D01*
X58811300Y-66500855D01*
X58866736Y-66458318D01*
X58866739Y-66458315D01*
X58873289Y-66453289D01*
X58881035Y-66443195D01*
X58944696Y-66360229D01*
X58968421Y-66329310D01*
X58971622Y-66321582D01*
X58971679Y-66321512D01*
X58975710Y-66314529D01*
X58976799Y-66315158D01*
X59016172Y-66266302D01*
X59083536Y-66243883D01*
X59152326Y-66261443D01*
X59190536Y-66300110D01*
X59191579Y-66299310D01*
X59238324Y-66360229D01*
X59286711Y-66423289D01*
X59293261Y-66428315D01*
X59293264Y-66428318D01*
X59348700Y-66470855D01*
X59410689Y-66518421D01*
X59555065Y-66578223D01*
X59710000Y-66598621D01*
X59864935Y-66578223D01*
X60009311Y-66518421D01*
X60071300Y-66470855D01*
X60126736Y-66428318D01*
X60126739Y-66428315D01*
X60133289Y-66423289D01*
X60228421Y-66299310D01*
X60288223Y-66154935D01*
X60308621Y-66000000D01*
X60288223Y-65845065D01*
X60228421Y-65700690D01*
X60180855Y-65638700D01*
X60138316Y-65583262D01*
X60138315Y-65583261D01*
X60133289Y-65576711D01*
X60126739Y-65571685D01*
X60126736Y-65571682D01*
X60061472Y-65521604D01*
X60009311Y-65481579D01*
X59864935Y-65421777D01*
X59710000Y-65401379D01*
X59555065Y-65421777D01*
X59410690Y-65481579D01*
X59286711Y-65576711D01*
X59191579Y-65700690D01*
X59188419Y-65708320D01*
X59188378Y-65708418D01*
X59188321Y-65708488D01*
X59184290Y-65715471D01*
X59183201Y-65714842D01*
X59143828Y-65763698D01*
X59076464Y-65786117D01*
X59007674Y-65768557D01*
X58969464Y-65729890D01*
X58968421Y-65730690D01*
X58878316Y-65613262D01*
X58878315Y-65613261D01*
X58873289Y-65606711D01*
X58866739Y-65601685D01*
X58866736Y-65601682D01*
X58769676Y-65527206D01*
X58749311Y-65511579D01*
X58604935Y-65451777D01*
X58450000Y-65431379D01*
X58295065Y-65451777D01*
X58150690Y-65511579D01*
X58026711Y-65606711D01*
X57931579Y-65730690D01*
X57871777Y-65875065D01*
X57851379Y-66030000D01*
X50290643Y-66030000D01*
X50336627Y-65974711D01*
X50435454Y-65798241D01*
X50445531Y-65768557D01*
X50498610Y-65612191D01*
X50498610Y-65612189D01*
X50500468Y-65606717D01*
X50501297Y-65601001D01*
X50501298Y-65600996D01*
X50526824Y-65424938D01*
X50529490Y-65406552D01*
X50531005Y-65348710D01*
X50512498Y-65147301D01*
X50457597Y-64952636D01*
X50368141Y-64771237D01*
X50349869Y-64746767D01*
X50250578Y-64613801D01*
X50250577Y-64613800D01*
X50247125Y-64609177D01*
X50224140Y-64587930D01*
X50102843Y-64475804D01*
X50102841Y-64475802D01*
X50098602Y-64471884D01*
X50071164Y-64454572D01*
X49932427Y-64367035D01*
X49927547Y-64363956D01*
X49842435Y-64330000D01*
X61731379Y-64330000D01*
X61751777Y-64484935D01*
X61811579Y-64629310D01*
X61906711Y-64753289D01*
X61913261Y-64758315D01*
X61913264Y-64758318D01*
X61930101Y-64771237D01*
X62030689Y-64848421D01*
X62175065Y-64908223D01*
X62330000Y-64928621D01*
X62484935Y-64908223D01*
X62629311Y-64848421D01*
X62729899Y-64771237D01*
X62746736Y-64758318D01*
X62746739Y-64758315D01*
X62753289Y-64753289D01*
X62848421Y-64629310D01*
X62908223Y-64484935D01*
X62922256Y-64378346D01*
X62950979Y-64313419D01*
X63010244Y-64274328D01*
X63081235Y-64273483D01*
X63123882Y-64294831D01*
X63169715Y-64330000D01*
X63180689Y-64338421D01*
X63325065Y-64398223D01*
X63480000Y-64418621D01*
X63634935Y-64398223D01*
X63703072Y-64370000D01*
X68491379Y-64370000D01*
X68511777Y-64524935D01*
X68571579Y-64669310D01*
X68576606Y-64675861D01*
X68646240Y-64766610D01*
X68666711Y-64793289D01*
X68673261Y-64798315D01*
X68673264Y-64798318D01*
X68728700Y-64840855D01*
X68790689Y-64888421D01*
X68935065Y-64948223D01*
X69090000Y-64968621D01*
X69244935Y-64948223D01*
X69389311Y-64888421D01*
X69451300Y-64840855D01*
X69506736Y-64798318D01*
X69506739Y-64798315D01*
X69513289Y-64793289D01*
X69533761Y-64766610D01*
X69603394Y-64675861D01*
X69608421Y-64669310D01*
X69668223Y-64524935D01*
X69688621Y-64370000D01*
X69668223Y-64215065D01*
X69608421Y-64070690D01*
X69513289Y-63946711D01*
X69506739Y-63941685D01*
X69506736Y-63941682D01*
X69430765Y-63883388D01*
X69389311Y-63851579D01*
X69244935Y-63791777D01*
X69090000Y-63771379D01*
X68935065Y-63791777D01*
X68790690Y-63851579D01*
X68666711Y-63946711D01*
X68571579Y-64070690D01*
X68511777Y-64215065D01*
X68491379Y-64370000D01*
X63703072Y-64370000D01*
X63779311Y-64338421D01*
X63853943Y-64281154D01*
X63896736Y-64248318D01*
X63896739Y-64248315D01*
X63903289Y-64243289D01*
X63918663Y-64223254D01*
X63993394Y-64125861D01*
X63998421Y-64119310D01*
X64058223Y-63974935D01*
X64059301Y-63966746D01*
X64059508Y-63965974D01*
X64096459Y-63905351D01*
X64160319Y-63874329D01*
X64230814Y-63882757D01*
X64257915Y-63898619D01*
X64270689Y-63908421D01*
X64415065Y-63968223D01*
X64570000Y-63988621D01*
X64724935Y-63968223D01*
X64869311Y-63908421D01*
X64947507Y-63848419D01*
X64986736Y-63818318D01*
X64986739Y-63818315D01*
X64993289Y-63813289D01*
X65088421Y-63689310D01*
X65148223Y-63544935D01*
X65148538Y-63542544D01*
X65184078Y-63484234D01*
X65247938Y-63453211D01*
X65317053Y-63461057D01*
X65455065Y-63518223D01*
X65610000Y-63538621D01*
X65764935Y-63518223D01*
X65909311Y-63458421D01*
X65998479Y-63390000D01*
X66026736Y-63368318D01*
X66026739Y-63368315D01*
X66033289Y-63363289D01*
X66128421Y-63239310D01*
X66188223Y-63094935D01*
X66208621Y-62940000D01*
X66205458Y-62915973D01*
X66216398Y-62845824D01*
X66263526Y-62792726D01*
X66331880Y-62773536D01*
X66378598Y-62783118D01*
X66415065Y-62798223D01*
X66570000Y-62818621D01*
X66724935Y-62798223D01*
X66869311Y-62738421D01*
X66958479Y-62670000D01*
X66986736Y-62648318D01*
X66986739Y-62648315D01*
X66993289Y-62643289D01*
X67020904Y-62607301D01*
X67083394Y-62525861D01*
X67088421Y-62519310D01*
X67148223Y-62374935D01*
X67168621Y-62220000D01*
X67163355Y-62180000D01*
X71481379Y-62180000D01*
X71501777Y-62334935D01*
X71561579Y-62479310D01*
X71589015Y-62515065D01*
X71642417Y-62584660D01*
X71656711Y-62603289D01*
X71663261Y-62608315D01*
X71663264Y-62608318D01*
X71696915Y-62634139D01*
X71780689Y-62698421D01*
X71925065Y-62758223D01*
X72080000Y-62778621D01*
X72234935Y-62758223D01*
X72379311Y-62698421D01*
X72463085Y-62634139D01*
X72496736Y-62608318D01*
X72496739Y-62608315D01*
X72503289Y-62603289D01*
X72517584Y-62584660D01*
X72570985Y-62515065D01*
X72598421Y-62479310D01*
X72658223Y-62334935D01*
X72678621Y-62180000D01*
X72658223Y-62025065D01*
X72598421Y-61880690D01*
X72503289Y-61756711D01*
X72496739Y-61751685D01*
X72496736Y-61751682D01*
X72431440Y-61701579D01*
X72379311Y-61661579D01*
X72234935Y-61601777D01*
X72080000Y-61581379D01*
X71925065Y-61601777D01*
X71780690Y-61661579D01*
X71722007Y-61706608D01*
X71668219Y-61747881D01*
X71656711Y-61756711D01*
X71561579Y-61880690D01*
X71501777Y-62025065D01*
X71481379Y-62180000D01*
X67163355Y-62180000D01*
X67148223Y-62065065D01*
X67088421Y-61920690D01*
X67014195Y-61823956D01*
X66998316Y-61803262D01*
X66998315Y-61803261D01*
X66993289Y-61796711D01*
X66986739Y-61791685D01*
X66986736Y-61791682D01*
X66881166Y-61710676D01*
X66869311Y-61701579D01*
X66763189Y-61657622D01*
X66707908Y-61613074D01*
X66685487Y-61545710D01*
X66703045Y-61476919D01*
X66755007Y-61428541D01*
X66763189Y-61424804D01*
X66899311Y-61368421D01*
X66965605Y-61317552D01*
X67016736Y-61278318D01*
X67016739Y-61278315D01*
X67023289Y-61273289D01*
X67118421Y-61149310D01*
X67178223Y-61004935D01*
X67198621Y-60850000D01*
X67178223Y-60695065D01*
X67118421Y-60550690D01*
X67023289Y-60426711D01*
X67016739Y-60421685D01*
X67016736Y-60421682D01*
X66961300Y-60379145D01*
X66899311Y-60331579D01*
X66754935Y-60271777D01*
X66657096Y-60258896D01*
X66592169Y-60230173D01*
X66553078Y-60170908D01*
X66547543Y-60133974D01*
X66547543Y-60128188D01*
X66548621Y-60120000D01*
X66528223Y-59965065D01*
X66468421Y-59820690D01*
X66384699Y-59711581D01*
X66378316Y-59703262D01*
X66378315Y-59703261D01*
X66373289Y-59696711D01*
X66366739Y-59691685D01*
X66366736Y-59691682D01*
X66311300Y-59649145D01*
X66249311Y-59601579D01*
X66104935Y-59541777D01*
X65950000Y-59521379D01*
X65795065Y-59541777D01*
X65650690Y-59601579D01*
X65526711Y-59696711D01*
X65521688Y-59703257D01*
X65517726Y-59708421D01*
X65431579Y-59820690D01*
X65371777Y-59965065D01*
X65351379Y-60120000D01*
X65371777Y-60274935D01*
X65431579Y-60419310D01*
X65526711Y-60543289D01*
X65533261Y-60548315D01*
X65533264Y-60548318D01*
X65588700Y-60590855D01*
X65650689Y-60638421D01*
X65795065Y-60698223D01*
X65880113Y-60709420D01*
X65892904Y-60711104D01*
X65957831Y-60739827D01*
X65996922Y-60799092D01*
X66002457Y-60836026D01*
X66002457Y-60841812D01*
X66001379Y-60850000D01*
X66021777Y-61004935D01*
X66081579Y-61149310D01*
X66176711Y-61273289D01*
X66183261Y-61278315D01*
X66183264Y-61278318D01*
X66234395Y-61317552D01*
X66300689Y-61368421D01*
X66375869Y-61399561D01*
X66406811Y-61412378D01*
X66462092Y-61456926D01*
X66484513Y-61524290D01*
X66466955Y-61593081D01*
X66414993Y-61641459D01*
X66406813Y-61645195D01*
X66270690Y-61701579D01*
X66146711Y-61796711D01*
X66051579Y-61920690D01*
X65991777Y-62065065D01*
X65971379Y-62220000D01*
X65972457Y-62228188D01*
X65972457Y-62228189D01*
X65974542Y-62244027D01*
X65963602Y-62314176D01*
X65916474Y-62367274D01*
X65848120Y-62386464D01*
X65801402Y-62376882D01*
X65772566Y-62364938D01*
X65772567Y-62364938D01*
X65764935Y-62361777D01*
X65610000Y-62341379D01*
X65455065Y-62361777D01*
X65310690Y-62421579D01*
X65304139Y-62426606D01*
X65193268Y-62511680D01*
X65186711Y-62516711D01*
X65091579Y-62640690D01*
X65031777Y-62785065D01*
X65031462Y-62787456D01*
X64995922Y-62845766D01*
X64932062Y-62876789D01*
X64862947Y-62868943D01*
X64806992Y-62845766D01*
X64724935Y-62811777D01*
X64570000Y-62791379D01*
X64415065Y-62811777D01*
X64270690Y-62871579D01*
X64212834Y-62915973D01*
X64153268Y-62961680D01*
X64146711Y-62966711D01*
X64051579Y-63090690D01*
X64048419Y-63098320D01*
X64009789Y-63191581D01*
X63991777Y-63235065D01*
X63990699Y-63243254D01*
X63990492Y-63244026D01*
X63953541Y-63304649D01*
X63889681Y-63335671D01*
X63819186Y-63327243D01*
X63792085Y-63311381D01*
X63779311Y-63301579D01*
X63634935Y-63241777D01*
X63480000Y-63221379D01*
X63325065Y-63241777D01*
X63180690Y-63301579D01*
X63056711Y-63396711D01*
X62961579Y-63520690D01*
X62901777Y-63665065D01*
X62890503Y-63750699D01*
X62887744Y-63771654D01*
X62859021Y-63836581D01*
X62799756Y-63875672D01*
X62728765Y-63876517D01*
X62686118Y-63855169D01*
X62677322Y-63848419D01*
X62640584Y-63820229D01*
X62635864Y-63816607D01*
X62635862Y-63816606D01*
X62629311Y-63811579D01*
X62484935Y-63751777D01*
X62330000Y-63731379D01*
X62175065Y-63751777D01*
X62030690Y-63811579D01*
X61906711Y-63906711D01*
X61811579Y-64030690D01*
X61751777Y-64175065D01*
X61731379Y-64330000D01*
X49842435Y-64330000D01*
X49739688Y-64289008D01*
X49541316Y-64249549D01*
X49535542Y-64249473D01*
X49535538Y-64249473D01*
X49433047Y-64248132D01*
X49339076Y-64246902D01*
X49333379Y-64247881D01*
X49333378Y-64247881D01*
X49145436Y-64280175D01*
X49145435Y-64280175D01*
X49139739Y-64281154D01*
X48949983Y-64351159D01*
X48945022Y-64354111D01*
X48945021Y-64354111D01*
X48876189Y-64395062D01*
X48776161Y-64454572D01*
X48624095Y-64587930D01*
X48498879Y-64746767D01*
X48404704Y-64925763D01*
X48344727Y-65118923D01*
X48320954Y-65319779D01*
X47988347Y-65319779D01*
X47972498Y-65147301D01*
X47917597Y-64952636D01*
X47828141Y-64771237D01*
X47809869Y-64746767D01*
X47710578Y-64613801D01*
X47710577Y-64613800D01*
X47707125Y-64609177D01*
X47684140Y-64587930D01*
X47562843Y-64475804D01*
X47562841Y-64475802D01*
X47558602Y-64471884D01*
X47531164Y-64454572D01*
X47392427Y-64367035D01*
X47387547Y-64363956D01*
X47199688Y-64289008D01*
X47001316Y-64249549D01*
X46995542Y-64249473D01*
X46995538Y-64249473D01*
X46893047Y-64248132D01*
X46799076Y-64246902D01*
X46793379Y-64247881D01*
X46793378Y-64247881D01*
X46605436Y-64280175D01*
X46605435Y-64280175D01*
X46599739Y-64281154D01*
X46409983Y-64351159D01*
X46405022Y-64354111D01*
X46405021Y-64354111D01*
X46336189Y-64395062D01*
X46236161Y-64454572D01*
X46084095Y-64587930D01*
X45958879Y-64746767D01*
X45864704Y-64925763D01*
X45804727Y-65118923D01*
X45780954Y-65319779D01*
X43750000Y-65319779D01*
X43750000Y-62779779D01*
X45780954Y-62779779D01*
X45794182Y-62981604D01*
X45795605Y-62987206D01*
X45820885Y-63086746D01*
X45843968Y-63177638D01*
X45928646Y-63361317D01*
X45931979Y-63366033D01*
X46037302Y-63515062D01*
X46045378Y-63526490D01*
X46190256Y-63667623D01*
X46195060Y-63670833D01*
X46262441Y-63715856D01*
X46358427Y-63779992D01*
X46363730Y-63782270D01*
X46363733Y-63782272D01*
X46536751Y-63856606D01*
X46544260Y-63859832D01*
X46741530Y-63904470D01*
X46747299Y-63904697D01*
X46747302Y-63904697D01*
X46823473Y-63907689D01*
X46943632Y-63912410D01*
X47038728Y-63898622D01*
X47138076Y-63884218D01*
X47138081Y-63884217D01*
X47143797Y-63883388D01*
X47149269Y-63881530D01*
X47149271Y-63881530D01*
X47329857Y-63820229D01*
X47329859Y-63820228D01*
X47335321Y-63818374D01*
X47457807Y-63749779D01*
X47506754Y-63722368D01*
X47506755Y-63722367D01*
X47511791Y-63719547D01*
X47574223Y-63667623D01*
X47662863Y-63593901D01*
X47667295Y-63590215D01*
X47774715Y-63461057D01*
X47792936Y-63439149D01*
X47796627Y-63434711D01*
X47895454Y-63258241D01*
X47899657Y-63245861D01*
X47958610Y-63072191D01*
X47958610Y-63072189D01*
X47960468Y-63066717D01*
X47961297Y-63061001D01*
X47961298Y-63060996D01*
X47982324Y-62915973D01*
X47989490Y-62866552D01*
X47991005Y-62808710D01*
X47988347Y-62779779D01*
X48320954Y-62779779D01*
X48334182Y-62981604D01*
X48335605Y-62987206D01*
X48360885Y-63086746D01*
X48383968Y-63177638D01*
X48468646Y-63361317D01*
X48471979Y-63366033D01*
X48577302Y-63515062D01*
X48585378Y-63526490D01*
X48730256Y-63667623D01*
X48735060Y-63670833D01*
X48802441Y-63715856D01*
X48898427Y-63779992D01*
X48903730Y-63782270D01*
X48903733Y-63782272D01*
X49076751Y-63856606D01*
X49084260Y-63859832D01*
X49281530Y-63904470D01*
X49287299Y-63904697D01*
X49287302Y-63904697D01*
X49363473Y-63907689D01*
X49483632Y-63912410D01*
X49578728Y-63898622D01*
X49678076Y-63884218D01*
X49678081Y-63884217D01*
X49683797Y-63883388D01*
X49689269Y-63881530D01*
X49689271Y-63881530D01*
X49869857Y-63820229D01*
X49869859Y-63820228D01*
X49875321Y-63818374D01*
X49997807Y-63749779D01*
X50046754Y-63722368D01*
X50046755Y-63722367D01*
X50051791Y-63719547D01*
X50114223Y-63667623D01*
X50202863Y-63593901D01*
X50207295Y-63590215D01*
X50314715Y-63461057D01*
X50332936Y-63439149D01*
X50336627Y-63434711D01*
X50435454Y-63258241D01*
X50439657Y-63245861D01*
X50498610Y-63072191D01*
X50498610Y-63072189D01*
X50500468Y-63066717D01*
X50501297Y-63061001D01*
X50501298Y-63060996D01*
X50522324Y-62915973D01*
X50529490Y-62866552D01*
X50531005Y-62808710D01*
X50518259Y-62670000D01*
X58891379Y-62670000D01*
X58911777Y-62824935D01*
X58971579Y-62969310D01*
X59066711Y-63093289D01*
X59073261Y-63098315D01*
X59073264Y-63098318D01*
X59128700Y-63140855D01*
X59190689Y-63188421D01*
X59335065Y-63248223D01*
X59490000Y-63268621D01*
X59644935Y-63248223D01*
X59789311Y-63188421D01*
X59851300Y-63140855D01*
X59906736Y-63098318D01*
X59906739Y-63098315D01*
X59913289Y-63093289D01*
X60008421Y-62969310D01*
X60068223Y-62824935D01*
X60088621Y-62670000D01*
X60068223Y-62515065D01*
X60008421Y-62370690D01*
X59913289Y-62246711D01*
X59906739Y-62241685D01*
X59906736Y-62241682D01*
X59851300Y-62199145D01*
X59789311Y-62151579D01*
X59644935Y-62091777D01*
X59490000Y-62071379D01*
X59335065Y-62091777D01*
X59190690Y-62151579D01*
X59066711Y-62246711D01*
X58971579Y-62370690D01*
X58911777Y-62515065D01*
X58891379Y-62670000D01*
X50518259Y-62670000D01*
X50512498Y-62607301D01*
X50457597Y-62412636D01*
X50368141Y-62231237D01*
X50349869Y-62206767D01*
X50250578Y-62073801D01*
X50250577Y-62073800D01*
X50247125Y-62069177D01*
X50242677Y-62065065D01*
X50102843Y-61935804D01*
X50102841Y-61935802D01*
X50098602Y-61931884D01*
X50070478Y-61914139D01*
X49932427Y-61827035D01*
X49927547Y-61823956D01*
X49739688Y-61749008D01*
X49541316Y-61709549D01*
X49535542Y-61709473D01*
X49535538Y-61709473D01*
X49433047Y-61708132D01*
X49339076Y-61706902D01*
X49333379Y-61707881D01*
X49333378Y-61707881D01*
X49145436Y-61740175D01*
X49145435Y-61740175D01*
X49139739Y-61741154D01*
X48949983Y-61811159D01*
X48945022Y-61814111D01*
X48945021Y-61814111D01*
X48833112Y-61880690D01*
X48776161Y-61914572D01*
X48624095Y-62047930D01*
X48498879Y-62206767D01*
X48404704Y-62385763D01*
X48344727Y-62578923D01*
X48320954Y-62779779D01*
X47988347Y-62779779D01*
X47972498Y-62607301D01*
X47917597Y-62412636D01*
X47828141Y-62231237D01*
X47809869Y-62206767D01*
X47710578Y-62073801D01*
X47710577Y-62073800D01*
X47707125Y-62069177D01*
X47702677Y-62065065D01*
X47562843Y-61935804D01*
X47562841Y-61935802D01*
X47558602Y-61931884D01*
X47530478Y-61914139D01*
X47392427Y-61827035D01*
X47387547Y-61823956D01*
X47199688Y-61749008D01*
X47001316Y-61709549D01*
X46995542Y-61709473D01*
X46995538Y-61709473D01*
X46893047Y-61708132D01*
X46799076Y-61706902D01*
X46793379Y-61707881D01*
X46793378Y-61707881D01*
X46605436Y-61740175D01*
X46605435Y-61740175D01*
X46599739Y-61741154D01*
X46409983Y-61811159D01*
X46405022Y-61814111D01*
X46405021Y-61814111D01*
X46293112Y-61880690D01*
X46236161Y-61914572D01*
X46084095Y-62047930D01*
X45958879Y-62206767D01*
X45864704Y-62385763D01*
X45804727Y-62578923D01*
X45780954Y-62779779D01*
X43750000Y-62779779D01*
X43750000Y-60239779D01*
X45780954Y-60239779D01*
X45794182Y-60441604D01*
X45843968Y-60637638D01*
X45928646Y-60821317D01*
X46045378Y-60986490D01*
X46190256Y-61127623D01*
X46358427Y-61239992D01*
X46363730Y-61242270D01*
X46363733Y-61242272D01*
X46452081Y-61280229D01*
X46544260Y-61319832D01*
X46741530Y-61364470D01*
X46747299Y-61364697D01*
X46747302Y-61364697D01*
X46823473Y-61367689D01*
X46943632Y-61372410D01*
X47029922Y-61359899D01*
X47138076Y-61344218D01*
X47138081Y-61344217D01*
X47143797Y-61343388D01*
X47149269Y-61341530D01*
X47149271Y-61341530D01*
X47329857Y-61280229D01*
X47329859Y-61280228D01*
X47335321Y-61278374D01*
X47511791Y-61179547D01*
X47574223Y-61127623D01*
X47662863Y-61053901D01*
X47667295Y-61050215D01*
X47796627Y-60894711D01*
X47895454Y-60718241D01*
X47898449Y-60709420D01*
X47958610Y-60532191D01*
X47958610Y-60532189D01*
X47960468Y-60526717D01*
X47961297Y-60521001D01*
X47961298Y-60520996D01*
X47988957Y-60330226D01*
X47989490Y-60326552D01*
X47991005Y-60268710D01*
X47988347Y-60239779D01*
X48320954Y-60239779D01*
X48334182Y-60441604D01*
X48383968Y-60637638D01*
X48468646Y-60821317D01*
X48585378Y-60986490D01*
X48730256Y-61127623D01*
X48898427Y-61239992D01*
X48903730Y-61242270D01*
X48903733Y-61242272D01*
X48992081Y-61280229D01*
X49084260Y-61319832D01*
X49281530Y-61364470D01*
X49287299Y-61364697D01*
X49287302Y-61364697D01*
X49363473Y-61367689D01*
X49483632Y-61372410D01*
X49569922Y-61359899D01*
X49678076Y-61344218D01*
X49678081Y-61344217D01*
X49683797Y-61343388D01*
X49689269Y-61341530D01*
X49689271Y-61341530D01*
X49869857Y-61280229D01*
X49869859Y-61280228D01*
X49875321Y-61278374D01*
X50051791Y-61179547D01*
X50114223Y-61127623D01*
X50202863Y-61053901D01*
X50207295Y-61050215D01*
X50336627Y-60894711D01*
X50435454Y-60718241D01*
X50438449Y-60709420D01*
X50498610Y-60532191D01*
X50498610Y-60532189D01*
X50500468Y-60526717D01*
X50501297Y-60521001D01*
X50501298Y-60520996D01*
X50528957Y-60330226D01*
X50529490Y-60326552D01*
X50531005Y-60268710D01*
X50512498Y-60067301D01*
X50457597Y-59872636D01*
X50368141Y-59691237D01*
X50349869Y-59666767D01*
X50250578Y-59533801D01*
X50250577Y-59533800D01*
X50247125Y-59529177D01*
X50242889Y-59525261D01*
X50102843Y-59395804D01*
X50102841Y-59395802D01*
X50098602Y-59391884D01*
X50071164Y-59374572D01*
X49932427Y-59287035D01*
X49927547Y-59283956D01*
X49739688Y-59209008D01*
X49644129Y-59190000D01*
X54411379Y-59190000D01*
X54431777Y-59344935D01*
X54491579Y-59489310D01*
X54519165Y-59525261D01*
X54581585Y-59606608D01*
X54586711Y-59613289D01*
X54593261Y-59618315D01*
X54593264Y-59618318D01*
X54648700Y-59660855D01*
X54710689Y-59708421D01*
X54855065Y-59768223D01*
X55010000Y-59788621D01*
X55164935Y-59768223D01*
X55309311Y-59708421D01*
X55371300Y-59660855D01*
X55426736Y-59618318D01*
X55426739Y-59618315D01*
X55433289Y-59613289D01*
X55438416Y-59606608D01*
X55500835Y-59525261D01*
X55528421Y-59489310D01*
X55588223Y-59344935D01*
X55608621Y-59190000D01*
X55588223Y-59035065D01*
X55528421Y-58890690D01*
X55461432Y-58803388D01*
X55438316Y-58773262D01*
X55438315Y-58773261D01*
X55433289Y-58766711D01*
X55426739Y-58761685D01*
X55426736Y-58761682D01*
X55371300Y-58719145D01*
X55309311Y-58671579D01*
X55164935Y-58611777D01*
X55010000Y-58591379D01*
X54855065Y-58611777D01*
X54710690Y-58671579D01*
X54586711Y-58766711D01*
X54491579Y-58890690D01*
X54431777Y-59035065D01*
X54411379Y-59190000D01*
X49644129Y-59190000D01*
X49541316Y-59169549D01*
X49535542Y-59169473D01*
X49535538Y-59169473D01*
X49433047Y-59168132D01*
X49339076Y-59166902D01*
X49333379Y-59167881D01*
X49333378Y-59167881D01*
X49145436Y-59200175D01*
X49145435Y-59200175D01*
X49139739Y-59201154D01*
X48949983Y-59271159D01*
X48776161Y-59374572D01*
X48624095Y-59507930D01*
X48498879Y-59666767D01*
X48404704Y-59845763D01*
X48344727Y-60038923D01*
X48320954Y-60239779D01*
X47988347Y-60239779D01*
X47972498Y-60067301D01*
X47917597Y-59872636D01*
X47828141Y-59691237D01*
X47809869Y-59666767D01*
X47710578Y-59533801D01*
X47710577Y-59533800D01*
X47707125Y-59529177D01*
X47702889Y-59525261D01*
X47562843Y-59395804D01*
X47562841Y-59395802D01*
X47558602Y-59391884D01*
X47531164Y-59374572D01*
X47392427Y-59287035D01*
X47387547Y-59283956D01*
X47199688Y-59209008D01*
X47001316Y-59169549D01*
X46995542Y-59169473D01*
X46995538Y-59169473D01*
X46893047Y-59168132D01*
X46799076Y-59166902D01*
X46793379Y-59167881D01*
X46793378Y-59167881D01*
X46605436Y-59200175D01*
X46605435Y-59200175D01*
X46599739Y-59201154D01*
X46409983Y-59271159D01*
X46236161Y-59374572D01*
X46084095Y-59507930D01*
X45958879Y-59666767D01*
X45864704Y-59845763D01*
X45804727Y-60038923D01*
X45780954Y-60239779D01*
X43750000Y-60239779D01*
X43750000Y-57699779D01*
X45780954Y-57699779D01*
X45794182Y-57901604D01*
X45843968Y-58097638D01*
X45928646Y-58281317D01*
X46045378Y-58446490D01*
X46190256Y-58587623D01*
X46195060Y-58590833D01*
X46262441Y-58635856D01*
X46358427Y-58699992D01*
X46363730Y-58702270D01*
X46363733Y-58702272D01*
X46513720Y-58766711D01*
X46544260Y-58779832D01*
X46741530Y-58824470D01*
X46747299Y-58824697D01*
X46747302Y-58824697D01*
X46823473Y-58827689D01*
X46943632Y-58832410D01*
X47029922Y-58819899D01*
X47138076Y-58804218D01*
X47138081Y-58804217D01*
X47143797Y-58803388D01*
X47149269Y-58801530D01*
X47149271Y-58801530D01*
X47329857Y-58740229D01*
X47329859Y-58740228D01*
X47335321Y-58738374D01*
X47511791Y-58639547D01*
X47574223Y-58587623D01*
X47662863Y-58513901D01*
X47667295Y-58510215D01*
X47796627Y-58354711D01*
X47895454Y-58178241D01*
X47960468Y-57986717D01*
X47961297Y-57981001D01*
X47961298Y-57980996D01*
X47988957Y-57790226D01*
X47989490Y-57786552D01*
X47991005Y-57728710D01*
X47988347Y-57699779D01*
X48320954Y-57699779D01*
X48334182Y-57901604D01*
X48383968Y-58097638D01*
X48468646Y-58281317D01*
X48585378Y-58446490D01*
X48730256Y-58587623D01*
X48735060Y-58590833D01*
X48802441Y-58635856D01*
X48898427Y-58699992D01*
X48903730Y-58702270D01*
X48903733Y-58702272D01*
X49053720Y-58766711D01*
X49084260Y-58779832D01*
X49281530Y-58824470D01*
X49287299Y-58824697D01*
X49287302Y-58824697D01*
X49363473Y-58827689D01*
X49483632Y-58832410D01*
X49569922Y-58819899D01*
X49678076Y-58804218D01*
X49678081Y-58804217D01*
X49683797Y-58803388D01*
X49689269Y-58801530D01*
X49689271Y-58801530D01*
X49869857Y-58740229D01*
X49869859Y-58740228D01*
X49875321Y-58738374D01*
X50051791Y-58639547D01*
X50114223Y-58587623D01*
X50202863Y-58513901D01*
X50207295Y-58510215D01*
X50336627Y-58354711D01*
X50435454Y-58178241D01*
X50500468Y-57986717D01*
X50501297Y-57981001D01*
X50501298Y-57980996D01*
X50528957Y-57790226D01*
X50529490Y-57786552D01*
X50531005Y-57728710D01*
X50512498Y-57527301D01*
X50457597Y-57332636D01*
X50368141Y-57151237D01*
X50349869Y-57126767D01*
X50250578Y-56993801D01*
X50250577Y-56993800D01*
X50247125Y-56989177D01*
X50224140Y-56967930D01*
X50102843Y-56855804D01*
X50102841Y-56855802D01*
X50098602Y-56851884D01*
X50071164Y-56834572D01*
X49932427Y-56747035D01*
X49927547Y-56743956D01*
X49739688Y-56669008D01*
X49541316Y-56629549D01*
X49535542Y-56629473D01*
X49535538Y-56629473D01*
X49433047Y-56628132D01*
X49339076Y-56626902D01*
X49333379Y-56627881D01*
X49333378Y-56627881D01*
X49145436Y-56660175D01*
X49145435Y-56660175D01*
X49139739Y-56661154D01*
X48949983Y-56731159D01*
X48776161Y-56834572D01*
X48624095Y-56967930D01*
X48498879Y-57126767D01*
X48404704Y-57305763D01*
X48344727Y-57498923D01*
X48320954Y-57699779D01*
X47988347Y-57699779D01*
X47972498Y-57527301D01*
X47917597Y-57332636D01*
X47828141Y-57151237D01*
X47809869Y-57126767D01*
X47710578Y-56993801D01*
X47710577Y-56993800D01*
X47707125Y-56989177D01*
X47684140Y-56967930D01*
X47562843Y-56855804D01*
X47562841Y-56855802D01*
X47558602Y-56851884D01*
X47531164Y-56834572D01*
X47392427Y-56747035D01*
X47387547Y-56743956D01*
X47199688Y-56669008D01*
X47001316Y-56629549D01*
X46995542Y-56629473D01*
X46995538Y-56629473D01*
X46893047Y-56628132D01*
X46799076Y-56626902D01*
X46793379Y-56627881D01*
X46793378Y-56627881D01*
X46605436Y-56660175D01*
X46605435Y-56660175D01*
X46599739Y-56661154D01*
X46409983Y-56731159D01*
X46236161Y-56834572D01*
X46084095Y-56967930D01*
X45958879Y-57126767D01*
X45864704Y-57305763D01*
X45804727Y-57498923D01*
X45780954Y-57699779D01*
X43750000Y-57699779D01*
X43750000Y-55159779D01*
X45780954Y-55159779D01*
X45794182Y-55361604D01*
X45843968Y-55557638D01*
X45928646Y-55741317D01*
X46045378Y-55906490D01*
X46190256Y-56047623D01*
X46358427Y-56159992D01*
X46363730Y-56162270D01*
X46363733Y-56162272D01*
X46452081Y-56200229D01*
X46544260Y-56239832D01*
X46741530Y-56284470D01*
X46747299Y-56284697D01*
X46747302Y-56284697D01*
X46823473Y-56287689D01*
X46943632Y-56292410D01*
X47029922Y-56279899D01*
X47138076Y-56264218D01*
X47138081Y-56264217D01*
X47143797Y-56263388D01*
X47149269Y-56261530D01*
X47149271Y-56261530D01*
X47329857Y-56200229D01*
X47329859Y-56200228D01*
X47335321Y-56198374D01*
X47511791Y-56099547D01*
X47574223Y-56047623D01*
X47662863Y-55973901D01*
X47667295Y-55970215D01*
X47796627Y-55814711D01*
X47895454Y-55638241D01*
X47960468Y-55446717D01*
X47961297Y-55441001D01*
X47961298Y-55440996D01*
X47988957Y-55250226D01*
X47989490Y-55246552D01*
X47991005Y-55188710D01*
X47988347Y-55159779D01*
X48320954Y-55159779D01*
X48334182Y-55361604D01*
X48383968Y-55557638D01*
X48468646Y-55741317D01*
X48585378Y-55906490D01*
X48730256Y-56047623D01*
X48898427Y-56159992D01*
X48903730Y-56162270D01*
X48903733Y-56162272D01*
X48992081Y-56200229D01*
X49084260Y-56239832D01*
X49281530Y-56284470D01*
X49287299Y-56284697D01*
X49287302Y-56284697D01*
X49363473Y-56287689D01*
X49483632Y-56292410D01*
X49569922Y-56279899D01*
X49678076Y-56264218D01*
X49678081Y-56264217D01*
X49683797Y-56263388D01*
X49689269Y-56261530D01*
X49689271Y-56261530D01*
X49869857Y-56200229D01*
X49869859Y-56200228D01*
X49875321Y-56198374D01*
X50051791Y-56099547D01*
X50114223Y-56047623D01*
X50202863Y-55973901D01*
X50207295Y-55970215D01*
X50336627Y-55814711D01*
X50435454Y-55638241D01*
X50500468Y-55446717D01*
X50501297Y-55441001D01*
X50501298Y-55440996D01*
X50528957Y-55250226D01*
X50529490Y-55246552D01*
X50531005Y-55188710D01*
X50512498Y-54987301D01*
X50457597Y-54792636D01*
X50368141Y-54611237D01*
X50349869Y-54586767D01*
X50250578Y-54453801D01*
X50250577Y-54453800D01*
X50247125Y-54449177D01*
X50224140Y-54427930D01*
X50102843Y-54315804D01*
X50102841Y-54315802D01*
X50098602Y-54311884D01*
X50071164Y-54294572D01*
X49932427Y-54207035D01*
X49927547Y-54203956D01*
X49739688Y-54129008D01*
X49541316Y-54089549D01*
X49535542Y-54089473D01*
X49535538Y-54089473D01*
X49433047Y-54088132D01*
X49339076Y-54086902D01*
X49333379Y-54087881D01*
X49333378Y-54087881D01*
X49145436Y-54120175D01*
X49145435Y-54120175D01*
X49139739Y-54121154D01*
X48949983Y-54191159D01*
X48776161Y-54294572D01*
X48624095Y-54427930D01*
X48498879Y-54586767D01*
X48404704Y-54765763D01*
X48344727Y-54958923D01*
X48320954Y-55159779D01*
X47988347Y-55159779D01*
X47972498Y-54987301D01*
X47917597Y-54792636D01*
X47828141Y-54611237D01*
X47809869Y-54586767D01*
X47710578Y-54453801D01*
X47710577Y-54453800D01*
X47707125Y-54449177D01*
X47684140Y-54427930D01*
X47562843Y-54315804D01*
X47562841Y-54315802D01*
X47558602Y-54311884D01*
X47531164Y-54294572D01*
X47392427Y-54207035D01*
X47387547Y-54203956D01*
X47199688Y-54129008D01*
X47001316Y-54089549D01*
X46995542Y-54089473D01*
X46995538Y-54089473D01*
X46893047Y-54088132D01*
X46799076Y-54086902D01*
X46793379Y-54087881D01*
X46793378Y-54087881D01*
X46605436Y-54120175D01*
X46605435Y-54120175D01*
X46599739Y-54121154D01*
X46409983Y-54191159D01*
X46236161Y-54294572D01*
X46084095Y-54427930D01*
X45958879Y-54586767D01*
X45864704Y-54765763D01*
X45804727Y-54958923D01*
X45780954Y-55159779D01*
X43750000Y-55159779D01*
X43750000Y-52619779D01*
X45780954Y-52619779D01*
X45794182Y-52821604D01*
X45843968Y-53017638D01*
X45928646Y-53201317D01*
X46045378Y-53366490D01*
X46190256Y-53507623D01*
X46358427Y-53619992D01*
X46363730Y-53622270D01*
X46363733Y-53622272D01*
X46452081Y-53660229D01*
X46544260Y-53699832D01*
X46741530Y-53744470D01*
X46747299Y-53744697D01*
X46747302Y-53744697D01*
X46823473Y-53747689D01*
X46943632Y-53752410D01*
X47029922Y-53739899D01*
X47138076Y-53724218D01*
X47138081Y-53724217D01*
X47143797Y-53723388D01*
X47149269Y-53721530D01*
X47149271Y-53721530D01*
X47329857Y-53660229D01*
X47329859Y-53660228D01*
X47335321Y-53658374D01*
X47511791Y-53559547D01*
X47574223Y-53507623D01*
X47662863Y-53433901D01*
X47667295Y-53430215D01*
X47796627Y-53274711D01*
X47895454Y-53098241D01*
X47960468Y-52906717D01*
X47961297Y-52901001D01*
X47961298Y-52900996D01*
X47988957Y-52710226D01*
X47989490Y-52706552D01*
X47991005Y-52648710D01*
X47988347Y-52619779D01*
X48320954Y-52619779D01*
X48334182Y-52821604D01*
X48383968Y-53017638D01*
X48468646Y-53201317D01*
X48585378Y-53366490D01*
X48730256Y-53507623D01*
X48898427Y-53619992D01*
X48903730Y-53622270D01*
X48903733Y-53622272D01*
X48992081Y-53660229D01*
X49084260Y-53699832D01*
X49281530Y-53744470D01*
X49287299Y-53744697D01*
X49287302Y-53744697D01*
X49363473Y-53747689D01*
X49483632Y-53752410D01*
X49569922Y-53739899D01*
X49678076Y-53724218D01*
X49678081Y-53724217D01*
X49683797Y-53723388D01*
X49689269Y-53721530D01*
X49689271Y-53721530D01*
X49869857Y-53660229D01*
X49869859Y-53660228D01*
X49875321Y-53658374D01*
X50051791Y-53559547D01*
X50114223Y-53507623D01*
X50202863Y-53433901D01*
X50207295Y-53430215D01*
X50336627Y-53274711D01*
X50435454Y-53098241D01*
X50500468Y-52906717D01*
X50501297Y-52901001D01*
X50501298Y-52900996D01*
X50528957Y-52710226D01*
X50529490Y-52706552D01*
X50531005Y-52648710D01*
X50512498Y-52447301D01*
X50457597Y-52252636D01*
X50368141Y-52071237D01*
X50349869Y-52046767D01*
X50250578Y-51913801D01*
X50250577Y-51913800D01*
X50247125Y-51909177D01*
X50224140Y-51887930D01*
X50102843Y-51775804D01*
X50102841Y-51775802D01*
X50098602Y-51771884D01*
X50071164Y-51754572D01*
X49932427Y-51667035D01*
X49927547Y-51663956D01*
X49739688Y-51589008D01*
X49541316Y-51549549D01*
X49535542Y-51549473D01*
X49535538Y-51549473D01*
X49433047Y-51548132D01*
X49339076Y-51546902D01*
X49333379Y-51547881D01*
X49333378Y-51547881D01*
X49145436Y-51580175D01*
X49145435Y-51580175D01*
X49139739Y-51581154D01*
X48949983Y-51651159D01*
X48776161Y-51754572D01*
X48624095Y-51887930D01*
X48498879Y-52046767D01*
X48404704Y-52225763D01*
X48344727Y-52418923D01*
X48320954Y-52619779D01*
X47988347Y-52619779D01*
X47972498Y-52447301D01*
X47917597Y-52252636D01*
X47828141Y-52071237D01*
X47809869Y-52046767D01*
X47710578Y-51913801D01*
X47710577Y-51913800D01*
X47707125Y-51909177D01*
X47684140Y-51887930D01*
X47562843Y-51775804D01*
X47562841Y-51775802D01*
X47558602Y-51771884D01*
X47531164Y-51754572D01*
X47392427Y-51667035D01*
X47387547Y-51663956D01*
X47199688Y-51589008D01*
X47001316Y-51549549D01*
X46995542Y-51549473D01*
X46995538Y-51549473D01*
X46893047Y-51548132D01*
X46799076Y-51546902D01*
X46793379Y-51547881D01*
X46793378Y-51547881D01*
X46605436Y-51580175D01*
X46605435Y-51580175D01*
X46599739Y-51581154D01*
X46409983Y-51651159D01*
X46236161Y-51754572D01*
X46084095Y-51887930D01*
X45958879Y-52046767D01*
X45864704Y-52225763D01*
X45804727Y-52418923D01*
X45780954Y-52619779D01*
X43750000Y-52619779D01*
X43750000Y-50079779D01*
X45780954Y-50079779D01*
X45794182Y-50281604D01*
X45843968Y-50477638D01*
X45928646Y-50661317D01*
X46045378Y-50826490D01*
X46190256Y-50967623D01*
X46358427Y-51079992D01*
X46363730Y-51082270D01*
X46363733Y-51082272D01*
X46452081Y-51120229D01*
X46544260Y-51159832D01*
X46741530Y-51204470D01*
X46747299Y-51204697D01*
X46747302Y-51204697D01*
X46823473Y-51207689D01*
X46943632Y-51212410D01*
X47029922Y-51199899D01*
X47138076Y-51184218D01*
X47138081Y-51184217D01*
X47143797Y-51183388D01*
X47149269Y-51181530D01*
X47149271Y-51181530D01*
X47329857Y-51120229D01*
X47329859Y-51120228D01*
X47335321Y-51118374D01*
X47511791Y-51019547D01*
X47574223Y-50967623D01*
X47662863Y-50893901D01*
X47667295Y-50890215D01*
X47796627Y-50734711D01*
X47895454Y-50558241D01*
X47960468Y-50366717D01*
X47961297Y-50361001D01*
X47961298Y-50360996D01*
X47988957Y-50170226D01*
X47989490Y-50166552D01*
X47991005Y-50108710D01*
X47988347Y-50079779D01*
X48320954Y-50079779D01*
X48334182Y-50281604D01*
X48383968Y-50477638D01*
X48468646Y-50661317D01*
X48585378Y-50826490D01*
X48730256Y-50967623D01*
X48898427Y-51079992D01*
X48903730Y-51082270D01*
X48903733Y-51082272D01*
X48992081Y-51120229D01*
X49084260Y-51159832D01*
X49281530Y-51204470D01*
X49287299Y-51204697D01*
X49287302Y-51204697D01*
X49363473Y-51207689D01*
X49483632Y-51212410D01*
X49569922Y-51199899D01*
X49678076Y-51184218D01*
X49678081Y-51184217D01*
X49683797Y-51183388D01*
X49689269Y-51181530D01*
X49689271Y-51181530D01*
X49869857Y-51120229D01*
X49869859Y-51120228D01*
X49875321Y-51118374D01*
X50051791Y-51019547D01*
X50114223Y-50967623D01*
X50202863Y-50893901D01*
X50207295Y-50890215D01*
X50336627Y-50734711D01*
X50435454Y-50558241D01*
X50500468Y-50366717D01*
X50501297Y-50361001D01*
X50501298Y-50360996D01*
X50528957Y-50170226D01*
X50529490Y-50166552D01*
X50531005Y-50108710D01*
X50512498Y-49907301D01*
X50457597Y-49712636D01*
X50368141Y-49531237D01*
X50349869Y-49506767D01*
X50250578Y-49373801D01*
X50250577Y-49373800D01*
X50247125Y-49369177D01*
X50224140Y-49347930D01*
X50102843Y-49235804D01*
X50102841Y-49235802D01*
X50098602Y-49231884D01*
X50071164Y-49214572D01*
X49932427Y-49127035D01*
X49927547Y-49123956D01*
X49739688Y-49049008D01*
X49541316Y-49009549D01*
X49535542Y-49009473D01*
X49535538Y-49009473D01*
X49433047Y-49008132D01*
X49339076Y-49006902D01*
X49333379Y-49007881D01*
X49333378Y-49007881D01*
X49145436Y-49040175D01*
X49145435Y-49040175D01*
X49139739Y-49041154D01*
X48949983Y-49111159D01*
X48776161Y-49214572D01*
X48624095Y-49347930D01*
X48498879Y-49506767D01*
X48404704Y-49685763D01*
X48344727Y-49878923D01*
X48320954Y-50079779D01*
X47988347Y-50079779D01*
X47972498Y-49907301D01*
X47917597Y-49712636D01*
X47828141Y-49531237D01*
X47809869Y-49506767D01*
X47710578Y-49373801D01*
X47710577Y-49373800D01*
X47707125Y-49369177D01*
X47684140Y-49347930D01*
X47562843Y-49235804D01*
X47562841Y-49235802D01*
X47558602Y-49231884D01*
X47531164Y-49214572D01*
X47392427Y-49127035D01*
X47387547Y-49123956D01*
X47199688Y-49049008D01*
X47001316Y-49009549D01*
X46995542Y-49009473D01*
X46995538Y-49009473D01*
X46893047Y-49008132D01*
X46799076Y-49006902D01*
X46793379Y-49007881D01*
X46793378Y-49007881D01*
X46605436Y-49040175D01*
X46605435Y-49040175D01*
X46599739Y-49041154D01*
X46409983Y-49111159D01*
X46236161Y-49214572D01*
X46084095Y-49347930D01*
X45958879Y-49506767D01*
X45864704Y-49685763D01*
X45804727Y-49878923D01*
X45780954Y-50079779D01*
X43750000Y-50079779D01*
X43750000Y-47539779D01*
X48320954Y-47539779D01*
X48334182Y-47741604D01*
X48383968Y-47937638D01*
X48468646Y-48121317D01*
X48585378Y-48286490D01*
X48730256Y-48427623D01*
X48898427Y-48539992D01*
X48903730Y-48542270D01*
X48903733Y-48542272D01*
X48992081Y-48580229D01*
X49084260Y-48619832D01*
X49281530Y-48664470D01*
X49287299Y-48664697D01*
X49287302Y-48664697D01*
X49363473Y-48667689D01*
X49483632Y-48672410D01*
X49569922Y-48659899D01*
X49678076Y-48644218D01*
X49678081Y-48644217D01*
X49683797Y-48643388D01*
X49689269Y-48641530D01*
X49689271Y-48641530D01*
X49869857Y-48580229D01*
X49869859Y-48580228D01*
X49875321Y-48578374D01*
X50051791Y-48479547D01*
X50114223Y-48427623D01*
X50202863Y-48353901D01*
X50207295Y-48350215D01*
X50336627Y-48194711D01*
X50435454Y-48018241D01*
X50500468Y-47826717D01*
X50501297Y-47821001D01*
X50501298Y-47820996D01*
X50528957Y-47630226D01*
X50529490Y-47626552D01*
X50531005Y-47568710D01*
X50512498Y-47367301D01*
X50457597Y-47172636D01*
X50368141Y-46991237D01*
X50349869Y-46966767D01*
X50250578Y-46833801D01*
X50250577Y-46833800D01*
X50247125Y-46829177D01*
X50235378Y-46818318D01*
X50102843Y-46695804D01*
X50102841Y-46695802D01*
X50098602Y-46691884D01*
X50082430Y-46681680D01*
X49932427Y-46587035D01*
X49927547Y-46583956D01*
X49739688Y-46509008D01*
X49541316Y-46469549D01*
X49535542Y-46469473D01*
X49535538Y-46469473D01*
X49433047Y-46468132D01*
X49339076Y-46466902D01*
X49333379Y-46467881D01*
X49333378Y-46467881D01*
X49145436Y-46500175D01*
X49145435Y-46500175D01*
X49139739Y-46501154D01*
X48949983Y-46571159D01*
X48945022Y-46574111D01*
X48945021Y-46574111D01*
X48891051Y-46606220D01*
X48776161Y-46674572D01*
X48624095Y-46807930D01*
X48498879Y-46966767D01*
X48404704Y-47145763D01*
X48344727Y-47338923D01*
X48320954Y-47539779D01*
X43750000Y-47539779D01*
X43750000Y-46410000D01*
X64711379Y-46410000D01*
X64731777Y-46564935D01*
X64791579Y-46709310D01*
X64796606Y-46715861D01*
X64871365Y-46813289D01*
X64886711Y-46833289D01*
X64893261Y-46838315D01*
X64893264Y-46838318D01*
X64948700Y-46880855D01*
X65010689Y-46928421D01*
X65155065Y-46988223D01*
X65310000Y-47008621D01*
X65464935Y-46988223D01*
X65609311Y-46928421D01*
X65671300Y-46880855D01*
X65726736Y-46838318D01*
X65726739Y-46838315D01*
X65733289Y-46833289D01*
X65748636Y-46813289D01*
X65823394Y-46715861D01*
X65828421Y-46709310D01*
X65867733Y-46614402D01*
X65912281Y-46559121D01*
X65979645Y-46536700D01*
X66048436Y-46554258D01*
X66096814Y-46606220D01*
X66100551Y-46614402D01*
X66131579Y-46689310D01*
X66226711Y-46813289D01*
X66233261Y-46818315D01*
X66233264Y-46818318D01*
X66259329Y-46838318D01*
X66350689Y-46908421D01*
X66495065Y-46968223D01*
X66650000Y-46988621D01*
X66804935Y-46968223D01*
X66949311Y-46908421D01*
X67040671Y-46838318D01*
X67066736Y-46818318D01*
X67066739Y-46818315D01*
X67073289Y-46813289D01*
X67168421Y-46689310D01*
X67228223Y-46544935D01*
X67230736Y-46525847D01*
X67259457Y-46460920D01*
X67318722Y-46421827D01*
X67389714Y-46420982D01*
X67449893Y-46458651D01*
X67477483Y-46519060D01*
X67478562Y-46518771D01*
X67480282Y-46525189D01*
X67480580Y-46525842D01*
X67481777Y-46534935D01*
X67541579Y-46679310D01*
X67636711Y-46803289D01*
X67643261Y-46808315D01*
X67643264Y-46808318D01*
X67698700Y-46850855D01*
X67760689Y-46898421D01*
X67905065Y-46958223D01*
X68060000Y-46978621D01*
X68214935Y-46958223D01*
X68359311Y-46898421D01*
X68421300Y-46850855D01*
X68476736Y-46808318D01*
X68476739Y-46808315D01*
X68483289Y-46803289D01*
X68578421Y-46679310D01*
X68638223Y-46534935D01*
X68658621Y-46380000D01*
X68638223Y-46225065D01*
X68578421Y-46080690D01*
X68516500Y-45999992D01*
X68488316Y-45963262D01*
X68488315Y-45963261D01*
X68483289Y-45956711D01*
X68476739Y-45951685D01*
X68476736Y-45951682D01*
X68421300Y-45909145D01*
X68359311Y-45861579D01*
X68214935Y-45801777D01*
X68060000Y-45781379D01*
X67905065Y-45801777D01*
X67760690Y-45861579D01*
X67636711Y-45956711D01*
X67541579Y-46080690D01*
X67481777Y-46225065D01*
X67479264Y-46244153D01*
X67450543Y-46309080D01*
X67391278Y-46348173D01*
X67320286Y-46349018D01*
X67260107Y-46311349D01*
X67232517Y-46250940D01*
X67231438Y-46251229D01*
X67229718Y-46244811D01*
X67229420Y-46244158D01*
X67229301Y-46243253D01*
X67228223Y-46235065D01*
X67168421Y-46090690D01*
X67093662Y-45993262D01*
X67078316Y-45973262D01*
X67078315Y-45973261D01*
X67073289Y-45966711D01*
X67066739Y-45961685D01*
X67066736Y-45961682D01*
X66981929Y-45896608D01*
X66949311Y-45871579D01*
X66804935Y-45811777D01*
X66650000Y-45791379D01*
X66495065Y-45811777D01*
X66350690Y-45871579D01*
X66226711Y-45966711D01*
X66221688Y-45973257D01*
X66206342Y-45993257D01*
X66131579Y-46090690D01*
X66114392Y-46132183D01*
X66092267Y-46185598D01*
X66047719Y-46240879D01*
X65980355Y-46263300D01*
X65911564Y-46245742D01*
X65863186Y-46193780D01*
X65859449Y-46185598D01*
X65853016Y-46170069D01*
X65828421Y-46110690D01*
X65770768Y-46035555D01*
X65738316Y-45993262D01*
X65738315Y-45993261D01*
X65733289Y-45986711D01*
X65726739Y-45981685D01*
X65726736Y-45981682D01*
X65667014Y-45935856D01*
X65609311Y-45891579D01*
X65464935Y-45831777D01*
X65310000Y-45811379D01*
X65155065Y-45831777D01*
X65010690Y-45891579D01*
X64886711Y-45986711D01*
X64791579Y-46110690D01*
X64731777Y-46255065D01*
X64711379Y-46410000D01*
X43750000Y-46410000D01*
X43750000Y-44999779D01*
X45780954Y-44999779D01*
X45794182Y-45201604D01*
X45843968Y-45397638D01*
X45928646Y-45581317D01*
X46045378Y-45746490D01*
X46049520Y-45750525D01*
X46132928Y-45831777D01*
X46190256Y-45887623D01*
X46195060Y-45890833D01*
X46203700Y-45896606D01*
X46358427Y-45999992D01*
X46363730Y-46002270D01*
X46363733Y-46002272D01*
X46452081Y-46040229D01*
X46544260Y-46079832D01*
X46741530Y-46124470D01*
X46747299Y-46124697D01*
X46747302Y-46124697D01*
X46823473Y-46127689D01*
X46943632Y-46132410D01*
X47040811Y-46118320D01*
X47138076Y-46104218D01*
X47138081Y-46104217D01*
X47143797Y-46103388D01*
X47149269Y-46101530D01*
X47149271Y-46101530D01*
X47329857Y-46040229D01*
X47329859Y-46040228D01*
X47335321Y-46038374D01*
X47481142Y-45956711D01*
X47506754Y-45942368D01*
X47506755Y-45942367D01*
X47511791Y-45939547D01*
X47574223Y-45887623D01*
X47662863Y-45813901D01*
X47667295Y-45810215D01*
X47796627Y-45654711D01*
X47895454Y-45478241D01*
X47960468Y-45286717D01*
X47961297Y-45281001D01*
X47961298Y-45280996D01*
X47988957Y-45090226D01*
X47989490Y-45086552D01*
X47991005Y-45028710D01*
X47988347Y-44999779D01*
X48320954Y-44999779D01*
X48334182Y-45201604D01*
X48383968Y-45397638D01*
X48468646Y-45581317D01*
X48585378Y-45746490D01*
X48589520Y-45750525D01*
X48672928Y-45831777D01*
X48730256Y-45887623D01*
X48735060Y-45890833D01*
X48743700Y-45896606D01*
X48898427Y-45999992D01*
X48903730Y-46002270D01*
X48903733Y-46002272D01*
X48992081Y-46040229D01*
X49084260Y-46079832D01*
X49281530Y-46124470D01*
X49287299Y-46124697D01*
X49287302Y-46124697D01*
X49363473Y-46127689D01*
X49483632Y-46132410D01*
X49580811Y-46118320D01*
X49678076Y-46104218D01*
X49678081Y-46104217D01*
X49683797Y-46103388D01*
X49689269Y-46101530D01*
X49689271Y-46101530D01*
X49869857Y-46040229D01*
X49869859Y-46040228D01*
X49875321Y-46038374D01*
X50021142Y-45956711D01*
X50046754Y-45942368D01*
X50046755Y-45942367D01*
X50051791Y-45939547D01*
X50114223Y-45887623D01*
X50202863Y-45813901D01*
X50207295Y-45810215D01*
X50336627Y-45654711D01*
X50435454Y-45478241D01*
X50500468Y-45286717D01*
X50501297Y-45281001D01*
X50501298Y-45280996D01*
X50528957Y-45090226D01*
X50529490Y-45086552D01*
X50531005Y-45028710D01*
X50512498Y-44827301D01*
X50457597Y-44632636D01*
X50368141Y-44451237D01*
X50349869Y-44426767D01*
X50250578Y-44293801D01*
X50250577Y-44293800D01*
X50247125Y-44289177D01*
X50224140Y-44267930D01*
X50102843Y-44155804D01*
X50102841Y-44155802D01*
X50098602Y-44151884D01*
X50071164Y-44134572D01*
X49932427Y-44047035D01*
X49927547Y-44043956D01*
X49739688Y-43969008D01*
X49541316Y-43929549D01*
X49535542Y-43929473D01*
X49535538Y-43929473D01*
X49433047Y-43928132D01*
X49339076Y-43926902D01*
X49333379Y-43927881D01*
X49333378Y-43927881D01*
X49145436Y-43960175D01*
X49145435Y-43960175D01*
X49139739Y-43961154D01*
X48949983Y-44031159D01*
X48776161Y-44134572D01*
X48624095Y-44267930D01*
X48498879Y-44426767D01*
X48404704Y-44605763D01*
X48344727Y-44798923D01*
X48320954Y-44999779D01*
X47988347Y-44999779D01*
X47972498Y-44827301D01*
X47917597Y-44632636D01*
X47828141Y-44451237D01*
X47809869Y-44426767D01*
X47710578Y-44293801D01*
X47710577Y-44293800D01*
X47707125Y-44289177D01*
X47684140Y-44267930D01*
X47562843Y-44155804D01*
X47562841Y-44155802D01*
X47558602Y-44151884D01*
X47531164Y-44134572D01*
X47392427Y-44047035D01*
X47387547Y-44043956D01*
X47199688Y-43969008D01*
X47001316Y-43929549D01*
X46995542Y-43929473D01*
X46995538Y-43929473D01*
X46893047Y-43928132D01*
X46799076Y-43926902D01*
X46793379Y-43927881D01*
X46793378Y-43927881D01*
X46605436Y-43960175D01*
X46605435Y-43960175D01*
X46599739Y-43961154D01*
X46409983Y-44031159D01*
X46236161Y-44134572D01*
X46084095Y-44267930D01*
X45958879Y-44426767D01*
X45864704Y-44605763D01*
X45804727Y-44798923D01*
X45780954Y-44999779D01*
X43750000Y-44999779D01*
X43750000Y-42459779D01*
X45780954Y-42459779D01*
X45794182Y-42661604D01*
X45843968Y-42857638D01*
X45928646Y-43041317D01*
X46045378Y-43206490D01*
X46190256Y-43347623D01*
X46358427Y-43459992D01*
X46363730Y-43462270D01*
X46363733Y-43462272D01*
X46452081Y-43500229D01*
X46544260Y-43539832D01*
X46741530Y-43584470D01*
X46747299Y-43584697D01*
X46747302Y-43584697D01*
X46823473Y-43587689D01*
X46943632Y-43592410D01*
X47029922Y-43579899D01*
X47138076Y-43564218D01*
X47138081Y-43564217D01*
X47143797Y-43563388D01*
X47149269Y-43561530D01*
X47149271Y-43561530D01*
X47329857Y-43500229D01*
X47329859Y-43500228D01*
X47335321Y-43498374D01*
X47511791Y-43399547D01*
X47574223Y-43347623D01*
X47662863Y-43273901D01*
X47667295Y-43270215D01*
X47796627Y-43114711D01*
X47895454Y-42938241D01*
X47960468Y-42746717D01*
X47961297Y-42741001D01*
X47961298Y-42740996D01*
X47988957Y-42550226D01*
X47989490Y-42546552D01*
X47991005Y-42488710D01*
X47988347Y-42459779D01*
X48320954Y-42459779D01*
X48334182Y-42661604D01*
X48383968Y-42857638D01*
X48468646Y-43041317D01*
X48585378Y-43206490D01*
X48730256Y-43347623D01*
X48898427Y-43459992D01*
X48903730Y-43462270D01*
X48903733Y-43462272D01*
X48992081Y-43500229D01*
X49084260Y-43539832D01*
X49281530Y-43584470D01*
X49287299Y-43584697D01*
X49287302Y-43584697D01*
X49363473Y-43587689D01*
X49483632Y-43592410D01*
X49569922Y-43579899D01*
X49678076Y-43564218D01*
X49678081Y-43564217D01*
X49683797Y-43563388D01*
X49689269Y-43561530D01*
X49689271Y-43561530D01*
X49869857Y-43500229D01*
X49869859Y-43500228D01*
X49875321Y-43498374D01*
X50051791Y-43399547D01*
X50114223Y-43347623D01*
X50202863Y-43273901D01*
X50207295Y-43270215D01*
X50336627Y-43114711D01*
X50435454Y-42938241D01*
X50500468Y-42746717D01*
X50501297Y-42741001D01*
X50501298Y-42740996D01*
X50528957Y-42550226D01*
X50529490Y-42546552D01*
X50531005Y-42488710D01*
X50512498Y-42287301D01*
X50457597Y-42092636D01*
X50368141Y-41911237D01*
X50349869Y-41886767D01*
X50250578Y-41753801D01*
X50250577Y-41753800D01*
X50247125Y-41749177D01*
X50224140Y-41727930D01*
X50102843Y-41615804D01*
X50102841Y-41615802D01*
X50098602Y-41611884D01*
X50071164Y-41594572D01*
X49932427Y-41507035D01*
X49927547Y-41503956D01*
X49739688Y-41429008D01*
X49541316Y-41389549D01*
X49535542Y-41389473D01*
X49535538Y-41389473D01*
X49433047Y-41388132D01*
X49339076Y-41386902D01*
X49333379Y-41387881D01*
X49333378Y-41387881D01*
X49145436Y-41420175D01*
X49145435Y-41420175D01*
X49139739Y-41421154D01*
X48949983Y-41491159D01*
X48776161Y-41594572D01*
X48624095Y-41727930D01*
X48498879Y-41886767D01*
X48404704Y-42065763D01*
X48344727Y-42258923D01*
X48320954Y-42459779D01*
X47988347Y-42459779D01*
X47972498Y-42287301D01*
X47917597Y-42092636D01*
X47828141Y-41911237D01*
X47809869Y-41886767D01*
X47710578Y-41753801D01*
X47710577Y-41753800D01*
X47707125Y-41749177D01*
X47684140Y-41727930D01*
X47562843Y-41615804D01*
X47562841Y-41615802D01*
X47558602Y-41611884D01*
X47531164Y-41594572D01*
X47392427Y-41507035D01*
X47387547Y-41503956D01*
X47199688Y-41429008D01*
X47001316Y-41389549D01*
X46995542Y-41389473D01*
X46995538Y-41389473D01*
X46893047Y-41388132D01*
X46799076Y-41386902D01*
X46793379Y-41387881D01*
X46793378Y-41387881D01*
X46605436Y-41420175D01*
X46605435Y-41420175D01*
X46599739Y-41421154D01*
X46409983Y-41491159D01*
X46236161Y-41594572D01*
X46084095Y-41727930D01*
X45958879Y-41886767D01*
X45864704Y-42065763D01*
X45804727Y-42258923D01*
X45780954Y-42459779D01*
X43750000Y-42459779D01*
X43750000Y-39919779D01*
X45780954Y-39919779D01*
X45794182Y-40121604D01*
X45795605Y-40127206D01*
X45827626Y-40253289D01*
X45843968Y-40317638D01*
X45928646Y-40501317D01*
X46045378Y-40666490D01*
X46190256Y-40807623D01*
X46358427Y-40919992D01*
X46363730Y-40922270D01*
X46363733Y-40922272D01*
X46452081Y-40960229D01*
X46544260Y-40999832D01*
X46741530Y-41044470D01*
X46747299Y-41044697D01*
X46747302Y-41044697D01*
X46823473Y-41047689D01*
X46943632Y-41052410D01*
X47029922Y-41039899D01*
X47138076Y-41024218D01*
X47138081Y-41024217D01*
X47143797Y-41023388D01*
X47149269Y-41021530D01*
X47149271Y-41021530D01*
X47329857Y-40960229D01*
X47329859Y-40960228D01*
X47335321Y-40958374D01*
X47511791Y-40859547D01*
X47574223Y-40807623D01*
X47662863Y-40733901D01*
X47667295Y-40730215D01*
X47796627Y-40574711D01*
X47895454Y-40398241D01*
X47960468Y-40206717D01*
X47961297Y-40201001D01*
X47961298Y-40200996D01*
X47988957Y-40010226D01*
X47989490Y-40006552D01*
X47991005Y-39948710D01*
X47988347Y-39919779D01*
X48320954Y-39919779D01*
X48334182Y-40121604D01*
X48335605Y-40127206D01*
X48367626Y-40253289D01*
X48383968Y-40317638D01*
X48468646Y-40501317D01*
X48585378Y-40666490D01*
X48730256Y-40807623D01*
X48898427Y-40919992D01*
X48903730Y-40922270D01*
X48903733Y-40922272D01*
X48992081Y-40960229D01*
X49084260Y-40999832D01*
X49281530Y-41044470D01*
X49287299Y-41044697D01*
X49287302Y-41044697D01*
X49363473Y-41047689D01*
X49483632Y-41052410D01*
X49569922Y-41039899D01*
X49678076Y-41024218D01*
X49678081Y-41024217D01*
X49683797Y-41023388D01*
X49689269Y-41021530D01*
X49689271Y-41021530D01*
X49869857Y-40960229D01*
X49869859Y-40960228D01*
X49875321Y-40958374D01*
X50051791Y-40859547D01*
X50114223Y-40807623D01*
X50202863Y-40733901D01*
X50207295Y-40730215D01*
X50336627Y-40574711D01*
X50435454Y-40398241D01*
X50500468Y-40206717D01*
X50501297Y-40201001D01*
X50501298Y-40200996D01*
X50528957Y-40010226D01*
X50529490Y-40006552D01*
X50531005Y-39948710D01*
X50520097Y-39830000D01*
X60741379Y-39830000D01*
X60761777Y-39984935D01*
X60821579Y-40129310D01*
X60826606Y-40135861D01*
X60885176Y-40212191D01*
X60916711Y-40253289D01*
X60923261Y-40258315D01*
X60923264Y-40258318D01*
X60978700Y-40300855D01*
X61040689Y-40348421D01*
X61185065Y-40408223D01*
X61340000Y-40428621D01*
X61494935Y-40408223D01*
X61639311Y-40348421D01*
X61701300Y-40300855D01*
X61756736Y-40258318D01*
X61756739Y-40258315D01*
X61763289Y-40253289D01*
X61794825Y-40212191D01*
X61853394Y-40135861D01*
X61858421Y-40129310D01*
X61918223Y-39984935D01*
X61938621Y-39830000D01*
X61918223Y-39675065D01*
X61858421Y-39530690D01*
X61763289Y-39406711D01*
X61756739Y-39401685D01*
X61756736Y-39401682D01*
X61691828Y-39351877D01*
X61639311Y-39311579D01*
X61494935Y-39251777D01*
X61340000Y-39231379D01*
X61185065Y-39251777D01*
X61040690Y-39311579D01*
X60916711Y-39406711D01*
X60821579Y-39530690D01*
X60761777Y-39675065D01*
X60741379Y-39830000D01*
X50520097Y-39830000D01*
X50512498Y-39747301D01*
X50457597Y-39552636D01*
X50368141Y-39371237D01*
X50349869Y-39346767D01*
X50250578Y-39213801D01*
X50250577Y-39213800D01*
X50247125Y-39209177D01*
X50224140Y-39187930D01*
X50102843Y-39075804D01*
X50102841Y-39075802D01*
X50098602Y-39071884D01*
X50071164Y-39054572D01*
X49932427Y-38967035D01*
X49927547Y-38963956D01*
X49739688Y-38889008D01*
X49541316Y-38849549D01*
X49535542Y-38849473D01*
X49535538Y-38849473D01*
X49433047Y-38848132D01*
X49339076Y-38846902D01*
X49333379Y-38847881D01*
X49333378Y-38847881D01*
X49145436Y-38880175D01*
X49145435Y-38880175D01*
X49139739Y-38881154D01*
X48949983Y-38951159D01*
X48776161Y-39054572D01*
X48624095Y-39187930D01*
X48498879Y-39346767D01*
X48404704Y-39525763D01*
X48344727Y-39718923D01*
X48320954Y-39919779D01*
X47988347Y-39919779D01*
X47972498Y-39747301D01*
X47917597Y-39552636D01*
X47828141Y-39371237D01*
X47809869Y-39346767D01*
X47710578Y-39213801D01*
X47710577Y-39213800D01*
X47707125Y-39209177D01*
X47684140Y-39187930D01*
X47562843Y-39075804D01*
X47562841Y-39075802D01*
X47558602Y-39071884D01*
X47531164Y-39054572D01*
X47392427Y-38967035D01*
X47387547Y-38963956D01*
X47199688Y-38889008D01*
X47001316Y-38849549D01*
X46995542Y-38849473D01*
X46995538Y-38849473D01*
X46893047Y-38848132D01*
X46799076Y-38846902D01*
X46793379Y-38847881D01*
X46793378Y-38847881D01*
X46605436Y-38880175D01*
X46605435Y-38880175D01*
X46599739Y-38881154D01*
X46409983Y-38951159D01*
X46236161Y-39054572D01*
X46084095Y-39187930D01*
X45958879Y-39346767D01*
X45864704Y-39525763D01*
X45804727Y-39718923D01*
X45780954Y-39919779D01*
X43750000Y-39919779D01*
X43750000Y-37379779D01*
X45780954Y-37379779D01*
X45794182Y-37581604D01*
X45843968Y-37777638D01*
X45928646Y-37961317D01*
X46045378Y-38126490D01*
X46190256Y-38267623D01*
X46358427Y-38379992D01*
X46363730Y-38382270D01*
X46363733Y-38382272D01*
X46452081Y-38420229D01*
X46544260Y-38459832D01*
X46741530Y-38504470D01*
X46747299Y-38504697D01*
X46747302Y-38504697D01*
X46823473Y-38507689D01*
X46943632Y-38512410D01*
X47029922Y-38499899D01*
X47138076Y-38484218D01*
X47138081Y-38484217D01*
X47143797Y-38483388D01*
X47149269Y-38481530D01*
X47149271Y-38481530D01*
X47329857Y-38420229D01*
X47329859Y-38420228D01*
X47335321Y-38418374D01*
X47511791Y-38319547D01*
X47574223Y-38267623D01*
X47662863Y-38193901D01*
X47667295Y-38190215D01*
X47796627Y-38034711D01*
X47895454Y-37858241D01*
X47945041Y-37712165D01*
X47958610Y-37672191D01*
X47958610Y-37672189D01*
X47960468Y-37666717D01*
X47961297Y-37661001D01*
X47961298Y-37660996D01*
X47988957Y-37470226D01*
X47989490Y-37466552D01*
X47991005Y-37408710D01*
X47988347Y-37379779D01*
X48320954Y-37379779D01*
X48334182Y-37581604D01*
X48383968Y-37777638D01*
X48468646Y-37961317D01*
X48585378Y-38126490D01*
X48730256Y-38267623D01*
X48898427Y-38379992D01*
X48903730Y-38382270D01*
X48903733Y-38382272D01*
X48992081Y-38420229D01*
X49084260Y-38459832D01*
X49281530Y-38504470D01*
X49287299Y-38504697D01*
X49287302Y-38504697D01*
X49363473Y-38507689D01*
X49483632Y-38512410D01*
X49569922Y-38499899D01*
X49678076Y-38484218D01*
X49678081Y-38484217D01*
X49683797Y-38483388D01*
X49689269Y-38481530D01*
X49689271Y-38481530D01*
X49869857Y-38420229D01*
X49869859Y-38420228D01*
X49875321Y-38418374D01*
X50051791Y-38319547D01*
X50114223Y-38267623D01*
X50202863Y-38193901D01*
X50207295Y-38190215D01*
X50315594Y-38060000D01*
X58724815Y-38060000D01*
X58725505Y-38066565D01*
X58732228Y-38130525D01*
X58743503Y-38237803D01*
X58798750Y-38407835D01*
X58802053Y-38413557D01*
X58802054Y-38413558D01*
X58841298Y-38481530D01*
X58888141Y-38562665D01*
X59007770Y-38695526D01*
X59152407Y-38800612D01*
X59158435Y-38803296D01*
X59158437Y-38803297D01*
X59264853Y-38850676D01*
X59315733Y-38873329D01*
X59384195Y-38887881D01*
X59484152Y-38909128D01*
X59484156Y-38909128D01*
X59490609Y-38910500D01*
X59669391Y-38910500D01*
X59675844Y-38909128D01*
X59675848Y-38909128D01*
X59775805Y-38887881D01*
X59844267Y-38873329D01*
X59895147Y-38850676D01*
X60001563Y-38803297D01*
X60001565Y-38803296D01*
X60007593Y-38800612D01*
X60152230Y-38695526D01*
X60186364Y-38657616D01*
X60246809Y-38620377D01*
X60317793Y-38621728D01*
X60373636Y-38657616D01*
X60407770Y-38695526D01*
X60552407Y-38800612D01*
X60558435Y-38803296D01*
X60558437Y-38803297D01*
X60664853Y-38850676D01*
X60715733Y-38873329D01*
X60784195Y-38887881D01*
X60884152Y-38909128D01*
X60884156Y-38909128D01*
X60890609Y-38910500D01*
X61069391Y-38910500D01*
X61075844Y-38909128D01*
X61075848Y-38909128D01*
X61175805Y-38887881D01*
X61244267Y-38873329D01*
X61295147Y-38850676D01*
X61401563Y-38803297D01*
X61401565Y-38803296D01*
X61407593Y-38800612D01*
X61552230Y-38695526D01*
X61586364Y-38657616D01*
X61646809Y-38620377D01*
X61717793Y-38621728D01*
X61773636Y-38657616D01*
X61807770Y-38695526D01*
X61952407Y-38800612D01*
X61958435Y-38803296D01*
X61958437Y-38803297D01*
X62064853Y-38850676D01*
X62115733Y-38873329D01*
X62184195Y-38887881D01*
X62284152Y-38909128D01*
X62284156Y-38909128D01*
X62290609Y-38910500D01*
X62469391Y-38910500D01*
X62475844Y-38909128D01*
X62475848Y-38909128D01*
X62575805Y-38887881D01*
X62644267Y-38873329D01*
X62695147Y-38850676D01*
X62801563Y-38803297D01*
X62801565Y-38803296D01*
X62807593Y-38800612D01*
X62952230Y-38695526D01*
X63071859Y-38562665D01*
X63118702Y-38481530D01*
X63157946Y-38413558D01*
X63157947Y-38413557D01*
X63161250Y-38407835D01*
X63216497Y-38237803D01*
X63227773Y-38130525D01*
X63234495Y-38066565D01*
X63235185Y-38060000D01*
X63216497Y-37882197D01*
X63161250Y-37712165D01*
X63071859Y-37557335D01*
X63018678Y-37498272D01*
X62956645Y-37429377D01*
X62956643Y-37429376D01*
X62952230Y-37424474D01*
X62807593Y-37319388D01*
X62801565Y-37316704D01*
X62801563Y-37316703D01*
X62650298Y-37249356D01*
X62650297Y-37249356D01*
X62644267Y-37246671D01*
X62556829Y-37228086D01*
X62475848Y-37210872D01*
X62475844Y-37210872D01*
X62469391Y-37209500D01*
X62290609Y-37209500D01*
X62284156Y-37210872D01*
X62284152Y-37210872D01*
X62203171Y-37228086D01*
X62115733Y-37246671D01*
X62109703Y-37249356D01*
X62109702Y-37249356D01*
X61958438Y-37316703D01*
X61958436Y-37316704D01*
X61952408Y-37319388D01*
X61807770Y-37424474D01*
X61773636Y-37462384D01*
X61713191Y-37499623D01*
X61642207Y-37498272D01*
X61586364Y-37462384D01*
X61552230Y-37424474D01*
X61407593Y-37319388D01*
X61401565Y-37316704D01*
X61401563Y-37316703D01*
X61250298Y-37249356D01*
X61250297Y-37249356D01*
X61244267Y-37246671D01*
X61156829Y-37228086D01*
X61075848Y-37210872D01*
X61075844Y-37210872D01*
X61069391Y-37209500D01*
X60890609Y-37209500D01*
X60884156Y-37210872D01*
X60884152Y-37210872D01*
X60803171Y-37228086D01*
X60715733Y-37246671D01*
X60709703Y-37249356D01*
X60709702Y-37249356D01*
X60558438Y-37316703D01*
X60558436Y-37316704D01*
X60552408Y-37319388D01*
X60407770Y-37424474D01*
X60373636Y-37462384D01*
X60313191Y-37499623D01*
X60242207Y-37498272D01*
X60186364Y-37462384D01*
X60152230Y-37424474D01*
X60007593Y-37319388D01*
X60001565Y-37316704D01*
X60001563Y-37316703D01*
X59850298Y-37249356D01*
X59850297Y-37249356D01*
X59844267Y-37246671D01*
X59756829Y-37228086D01*
X59675848Y-37210872D01*
X59675844Y-37210872D01*
X59669391Y-37209500D01*
X59490609Y-37209500D01*
X59484156Y-37210872D01*
X59484152Y-37210872D01*
X59403171Y-37228086D01*
X59315733Y-37246671D01*
X59309703Y-37249356D01*
X59309702Y-37249356D01*
X59158438Y-37316703D01*
X59158436Y-37316704D01*
X59152408Y-37319388D01*
X59007770Y-37424474D01*
X59003357Y-37429376D01*
X59003355Y-37429377D01*
X58941322Y-37498272D01*
X58888141Y-37557335D01*
X58798750Y-37712165D01*
X58743503Y-37882197D01*
X58724815Y-38060000D01*
X50315594Y-38060000D01*
X50336627Y-38034711D01*
X50435454Y-37858241D01*
X50485041Y-37712165D01*
X50498610Y-37672191D01*
X50498610Y-37672189D01*
X50500468Y-37666717D01*
X50501297Y-37661001D01*
X50501298Y-37660996D01*
X50528957Y-37470226D01*
X50529490Y-37466552D01*
X50531005Y-37408710D01*
X50512498Y-37207301D01*
X50457597Y-37012636D01*
X50368141Y-36831237D01*
X50349869Y-36806767D01*
X50250578Y-36673801D01*
X50250577Y-36673800D01*
X50247125Y-36669177D01*
X50224140Y-36647930D01*
X50102843Y-36535804D01*
X50102841Y-36535802D01*
X50098602Y-36531884D01*
X50071164Y-36514572D01*
X49932427Y-36427035D01*
X49927547Y-36423956D01*
X49739688Y-36349008D01*
X49541316Y-36309549D01*
X49535542Y-36309473D01*
X49535538Y-36309473D01*
X49433047Y-36308132D01*
X49339076Y-36306902D01*
X49333379Y-36307881D01*
X49333378Y-36307881D01*
X49145436Y-36340175D01*
X49145435Y-36340175D01*
X49139739Y-36341154D01*
X48949983Y-36411159D01*
X48776161Y-36514572D01*
X48624095Y-36647930D01*
X48498879Y-36806767D01*
X48404704Y-36985763D01*
X48344727Y-37178923D01*
X48320954Y-37379779D01*
X47988347Y-37379779D01*
X47972498Y-37207301D01*
X47917597Y-37012636D01*
X47828141Y-36831237D01*
X47809869Y-36806767D01*
X47710578Y-36673801D01*
X47710577Y-36673800D01*
X47707125Y-36669177D01*
X47684140Y-36647930D01*
X47562843Y-36535804D01*
X47562841Y-36535802D01*
X47558602Y-36531884D01*
X47531164Y-36514572D01*
X47392427Y-36427035D01*
X47387547Y-36423956D01*
X47199688Y-36349008D01*
X47001316Y-36309549D01*
X46995542Y-36309473D01*
X46995538Y-36309473D01*
X46893047Y-36308132D01*
X46799076Y-36306902D01*
X46793379Y-36307881D01*
X46793378Y-36307881D01*
X46605436Y-36340175D01*
X46605435Y-36340175D01*
X46599739Y-36341154D01*
X46409983Y-36411159D01*
X46236161Y-36514572D01*
X46084095Y-36647930D01*
X45958879Y-36806767D01*
X45864704Y-36985763D01*
X45804727Y-37178923D01*
X45780954Y-37379779D01*
X43750000Y-37379779D01*
X43750000Y-34839779D01*
X45780954Y-34839779D01*
X45794182Y-35041604D01*
X45843968Y-35237638D01*
X45928646Y-35421317D01*
X46045378Y-35586490D01*
X46190256Y-35727623D01*
X46358427Y-35839992D01*
X46363730Y-35842270D01*
X46363733Y-35842272D01*
X46452081Y-35880229D01*
X46544260Y-35919832D01*
X46741530Y-35964470D01*
X46747299Y-35964697D01*
X46747302Y-35964697D01*
X46823473Y-35967689D01*
X46943632Y-35972410D01*
X47029922Y-35959899D01*
X47138076Y-35944218D01*
X47138081Y-35944217D01*
X47143797Y-35943388D01*
X47149269Y-35941530D01*
X47149271Y-35941530D01*
X47329857Y-35880229D01*
X47329859Y-35880228D01*
X47335321Y-35878374D01*
X47511791Y-35779547D01*
X47574223Y-35727623D01*
X47662863Y-35653901D01*
X47667295Y-35650215D01*
X47796627Y-35494711D01*
X47895454Y-35318241D01*
X47960468Y-35126717D01*
X47961297Y-35121001D01*
X47961298Y-35120996D01*
X47988957Y-34930226D01*
X47989490Y-34926552D01*
X47991005Y-34868710D01*
X47988347Y-34839779D01*
X48320954Y-34839779D01*
X48334182Y-35041604D01*
X48383968Y-35237638D01*
X48468646Y-35421317D01*
X48585378Y-35586490D01*
X48730256Y-35727623D01*
X48898427Y-35839992D01*
X48903730Y-35842270D01*
X48903733Y-35842272D01*
X48992081Y-35880229D01*
X49084260Y-35919832D01*
X49281530Y-35964470D01*
X49287299Y-35964697D01*
X49287302Y-35964697D01*
X49363473Y-35967689D01*
X49483632Y-35972410D01*
X49569922Y-35959899D01*
X49678076Y-35944218D01*
X49678081Y-35944217D01*
X49683797Y-35943388D01*
X49689269Y-35941530D01*
X49689271Y-35941530D01*
X49869857Y-35880229D01*
X49869859Y-35880228D01*
X49875321Y-35878374D01*
X50051791Y-35779547D01*
X50114223Y-35727623D01*
X50202863Y-35653901D01*
X50207295Y-35650215D01*
X50336627Y-35494711D01*
X50435454Y-35318241D01*
X50500468Y-35126717D01*
X50501297Y-35121001D01*
X50501298Y-35120996D01*
X50528957Y-34930226D01*
X50529490Y-34926552D01*
X50531005Y-34868710D01*
X50512498Y-34667301D01*
X50457597Y-34472636D01*
X50368141Y-34291237D01*
X50349869Y-34266767D01*
X50250578Y-34133801D01*
X50250577Y-34133800D01*
X50247125Y-34129177D01*
X50224140Y-34107930D01*
X50102843Y-33995804D01*
X50102841Y-33995802D01*
X50098602Y-33991884D01*
X50071164Y-33974572D01*
X49932427Y-33887035D01*
X49927547Y-33883956D01*
X49739688Y-33809008D01*
X49541316Y-33769549D01*
X49535542Y-33769473D01*
X49535538Y-33769473D01*
X49433047Y-33768132D01*
X49339076Y-33766902D01*
X49333379Y-33767881D01*
X49333378Y-33767881D01*
X49145436Y-33800175D01*
X49145435Y-33800175D01*
X49139739Y-33801154D01*
X48949983Y-33871159D01*
X48776161Y-33974572D01*
X48624095Y-34107930D01*
X48498879Y-34266767D01*
X48404704Y-34445763D01*
X48344727Y-34638923D01*
X48320954Y-34839779D01*
X47988347Y-34839779D01*
X47972498Y-34667301D01*
X47917597Y-34472636D01*
X47828141Y-34291237D01*
X47809869Y-34266767D01*
X47710578Y-34133801D01*
X47710577Y-34133800D01*
X47707125Y-34129177D01*
X47684140Y-34107930D01*
X47562843Y-33995804D01*
X47562841Y-33995802D01*
X47558602Y-33991884D01*
X47531164Y-33974572D01*
X47392427Y-33887035D01*
X47387547Y-33883956D01*
X47199688Y-33809008D01*
X47001316Y-33769549D01*
X46995542Y-33769473D01*
X46995538Y-33769473D01*
X46893047Y-33768132D01*
X46799076Y-33766902D01*
X46793379Y-33767881D01*
X46793378Y-33767881D01*
X46605436Y-33800175D01*
X46605435Y-33800175D01*
X46599739Y-33801154D01*
X46409983Y-33871159D01*
X46236161Y-33974572D01*
X46084095Y-34107930D01*
X45958879Y-34266767D01*
X45864704Y-34445763D01*
X45804727Y-34638923D01*
X45780954Y-34839779D01*
X43750000Y-34839779D01*
X43750000Y-32299779D01*
X45780954Y-32299779D01*
X45794182Y-32501604D01*
X45843968Y-32697638D01*
X45928646Y-32881317D01*
X46045378Y-33046490D01*
X46190256Y-33187623D01*
X46358427Y-33299992D01*
X46363730Y-33302270D01*
X46363733Y-33302272D01*
X46452081Y-33340229D01*
X46544260Y-33379832D01*
X46741530Y-33424470D01*
X46747299Y-33424697D01*
X46747302Y-33424697D01*
X46823473Y-33427689D01*
X46943632Y-33432410D01*
X47029922Y-33419899D01*
X47138076Y-33404218D01*
X47138081Y-33404217D01*
X47143797Y-33403388D01*
X47149269Y-33401530D01*
X47149271Y-33401530D01*
X47329857Y-33340229D01*
X47329859Y-33340228D01*
X47335321Y-33338374D01*
X47511791Y-33239547D01*
X47574223Y-33187623D01*
X47662863Y-33113901D01*
X47667295Y-33110215D01*
X47796627Y-32954711D01*
X47895454Y-32778241D01*
X47960468Y-32586717D01*
X47961297Y-32581001D01*
X47961298Y-32580996D01*
X47988957Y-32390226D01*
X47989490Y-32386552D01*
X47991005Y-32328710D01*
X47988347Y-32299779D01*
X48320954Y-32299779D01*
X48334182Y-32501604D01*
X48383968Y-32697638D01*
X48468646Y-32881317D01*
X48585378Y-33046490D01*
X48730256Y-33187623D01*
X48898427Y-33299992D01*
X48903730Y-33302270D01*
X48903733Y-33302272D01*
X48992081Y-33340229D01*
X49084260Y-33379832D01*
X49281530Y-33424470D01*
X49287299Y-33424697D01*
X49287302Y-33424697D01*
X49363473Y-33427689D01*
X49483632Y-33432410D01*
X49569922Y-33419899D01*
X49678076Y-33404218D01*
X49678081Y-33404217D01*
X49683797Y-33403388D01*
X49689269Y-33401530D01*
X49689271Y-33401530D01*
X49869857Y-33340229D01*
X49869859Y-33340228D01*
X49875321Y-33338374D01*
X50051791Y-33239547D01*
X50114223Y-33187623D01*
X50202863Y-33113901D01*
X50207295Y-33110215D01*
X50336627Y-32954711D01*
X50435454Y-32778241D01*
X50500468Y-32586717D01*
X50501297Y-32581001D01*
X50501298Y-32580996D01*
X50528957Y-32390226D01*
X50529490Y-32386552D01*
X50531005Y-32328710D01*
X50512498Y-32127301D01*
X50457597Y-31932636D01*
X50368141Y-31751237D01*
X50349869Y-31726767D01*
X50250578Y-31593801D01*
X50250577Y-31593800D01*
X50247125Y-31589177D01*
X50224140Y-31567930D01*
X50102843Y-31455804D01*
X50102841Y-31455802D01*
X50098602Y-31451884D01*
X50071164Y-31434572D01*
X49932427Y-31347035D01*
X49927547Y-31343956D01*
X49739688Y-31269008D01*
X49541316Y-31229549D01*
X49535542Y-31229473D01*
X49535538Y-31229473D01*
X49433047Y-31228132D01*
X49339076Y-31226902D01*
X49333379Y-31227881D01*
X49333378Y-31227881D01*
X49145436Y-31260175D01*
X49145435Y-31260175D01*
X49139739Y-31261154D01*
X48949983Y-31331159D01*
X48776161Y-31434572D01*
X48624095Y-31567930D01*
X48498879Y-31726767D01*
X48404704Y-31905763D01*
X48344727Y-32098923D01*
X48320954Y-32299779D01*
X47988347Y-32299779D01*
X47972498Y-32127301D01*
X47917597Y-31932636D01*
X47828141Y-31751237D01*
X47809869Y-31726767D01*
X47710578Y-31593801D01*
X47710577Y-31593800D01*
X47707125Y-31589177D01*
X47684140Y-31567930D01*
X47562843Y-31455804D01*
X47562841Y-31455802D01*
X47558602Y-31451884D01*
X47531164Y-31434572D01*
X47392427Y-31347035D01*
X47387547Y-31343956D01*
X47199688Y-31269008D01*
X47001316Y-31229549D01*
X46995542Y-31229473D01*
X46995538Y-31229473D01*
X46893047Y-31228132D01*
X46799076Y-31226902D01*
X46793379Y-31227881D01*
X46793378Y-31227881D01*
X46605436Y-31260175D01*
X46605435Y-31260175D01*
X46599739Y-31261154D01*
X46409983Y-31331159D01*
X46236161Y-31434572D01*
X46084095Y-31567930D01*
X45958879Y-31726767D01*
X45864704Y-31905763D01*
X45804727Y-32098923D01*
X45780954Y-32299779D01*
X43750000Y-32299779D01*
X43750000Y-29759779D01*
X45780954Y-29759779D01*
X45794182Y-29961604D01*
X45843968Y-30157638D01*
X45928646Y-30341317D01*
X46045378Y-30506490D01*
X46190256Y-30647623D01*
X46358427Y-30759992D01*
X46363730Y-30762270D01*
X46363733Y-30762272D01*
X46452081Y-30800229D01*
X46544260Y-30839832D01*
X46741530Y-30884470D01*
X46747299Y-30884697D01*
X46747302Y-30884697D01*
X46823473Y-30887689D01*
X46943632Y-30892410D01*
X47029922Y-30879899D01*
X47138076Y-30864218D01*
X47138081Y-30864217D01*
X47143797Y-30863388D01*
X47149269Y-30861530D01*
X47149271Y-30861530D01*
X47329857Y-30800229D01*
X47329859Y-30800228D01*
X47335321Y-30798374D01*
X47511791Y-30699547D01*
X47574223Y-30647623D01*
X47662863Y-30573901D01*
X47667295Y-30570215D01*
X47796627Y-30414711D01*
X47895454Y-30238241D01*
X47960468Y-30046717D01*
X47961297Y-30041001D01*
X47961298Y-30040996D01*
X47988957Y-29850226D01*
X47989490Y-29846552D01*
X47991005Y-29788710D01*
X47988347Y-29759779D01*
X48320954Y-29759779D01*
X48334182Y-29961604D01*
X48383968Y-30157638D01*
X48468646Y-30341317D01*
X48585378Y-30506490D01*
X48730256Y-30647623D01*
X48898427Y-30759992D01*
X48903730Y-30762270D01*
X48903733Y-30762272D01*
X48992081Y-30800229D01*
X49084260Y-30839832D01*
X49281530Y-30884470D01*
X49287299Y-30884697D01*
X49287302Y-30884697D01*
X49363473Y-30887689D01*
X49483632Y-30892410D01*
X49569922Y-30879899D01*
X49678076Y-30864218D01*
X49678081Y-30864217D01*
X49683797Y-30863388D01*
X49689269Y-30861530D01*
X49689271Y-30861530D01*
X49869857Y-30800229D01*
X49869859Y-30800228D01*
X49875321Y-30798374D01*
X50051791Y-30699547D01*
X50114223Y-30647623D01*
X50202863Y-30573901D01*
X50207295Y-30570215D01*
X50336627Y-30414711D01*
X50435454Y-30238241D01*
X50500468Y-30046717D01*
X50501297Y-30041001D01*
X50501298Y-30040996D01*
X50528957Y-29850226D01*
X50529490Y-29846552D01*
X50531005Y-29788710D01*
X50512498Y-29587301D01*
X50457597Y-29392636D01*
X50368141Y-29211237D01*
X50349869Y-29186767D01*
X50250578Y-29053801D01*
X50250577Y-29053800D01*
X50247125Y-29049177D01*
X50224140Y-29027930D01*
X50102843Y-28915804D01*
X50102841Y-28915802D01*
X50098602Y-28911884D01*
X50071164Y-28894572D01*
X49932427Y-28807035D01*
X49927547Y-28803956D01*
X49739688Y-28729008D01*
X49541316Y-28689549D01*
X49535542Y-28689473D01*
X49535538Y-28689473D01*
X49433047Y-28688132D01*
X49339076Y-28686902D01*
X49333379Y-28687881D01*
X49333378Y-28687881D01*
X49145436Y-28720175D01*
X49145435Y-28720175D01*
X49139739Y-28721154D01*
X48949983Y-28791159D01*
X48776161Y-28894572D01*
X48624095Y-29027930D01*
X48498879Y-29186767D01*
X48404704Y-29365763D01*
X48344727Y-29558923D01*
X48320954Y-29759779D01*
X47988347Y-29759779D01*
X47972498Y-29587301D01*
X47917597Y-29392636D01*
X47828141Y-29211237D01*
X47809869Y-29186767D01*
X47710578Y-29053801D01*
X47710577Y-29053800D01*
X47707125Y-29049177D01*
X47684140Y-29027930D01*
X47562843Y-28915804D01*
X47562841Y-28915802D01*
X47558602Y-28911884D01*
X47531164Y-28894572D01*
X47392427Y-28807035D01*
X47387547Y-28803956D01*
X47199688Y-28729008D01*
X47001316Y-28689549D01*
X46995542Y-28689473D01*
X46995538Y-28689473D01*
X46893047Y-28688132D01*
X46799076Y-28686902D01*
X46793379Y-28687881D01*
X46793378Y-28687881D01*
X46605436Y-28720175D01*
X46605435Y-28720175D01*
X46599739Y-28721154D01*
X46409983Y-28791159D01*
X46236161Y-28894572D01*
X46084095Y-29027930D01*
X45958879Y-29186767D01*
X45864704Y-29365763D01*
X45804727Y-29558923D01*
X45780954Y-29759779D01*
X43750000Y-29759779D01*
X43750000Y-27219779D01*
X45780954Y-27219779D01*
X45794182Y-27421604D01*
X45843968Y-27617638D01*
X45928646Y-27801317D01*
X46045378Y-27966490D01*
X46190256Y-28107623D01*
X46358427Y-28219992D01*
X46363730Y-28222270D01*
X46363733Y-28222272D01*
X46538953Y-28297552D01*
X46544260Y-28299832D01*
X46741530Y-28344470D01*
X46747299Y-28344697D01*
X46747302Y-28344697D01*
X46823473Y-28347689D01*
X46943632Y-28352410D01*
X47029922Y-28339899D01*
X47138076Y-28324218D01*
X47138081Y-28324217D01*
X47143797Y-28323388D01*
X47149269Y-28321530D01*
X47149271Y-28321530D01*
X47329857Y-28260229D01*
X47329859Y-28260228D01*
X47335321Y-28258374D01*
X47511791Y-28159547D01*
X47555272Y-28123384D01*
X48325290Y-28123384D01*
X48339824Y-28196450D01*
X48395189Y-28279311D01*
X48478050Y-28334676D01*
X48551116Y-28349210D01*
X50300464Y-28349210D01*
X50373530Y-28334676D01*
X50456391Y-28279311D01*
X50511756Y-28196450D01*
X50526290Y-28123384D01*
X50526290Y-26374036D01*
X50511756Y-26300970D01*
X50456391Y-26218109D01*
X50373530Y-26162744D01*
X50300464Y-26148210D01*
X48551116Y-26148210D01*
X48478050Y-26162744D01*
X48395189Y-26218109D01*
X48339824Y-26300970D01*
X48325290Y-26374036D01*
X48325290Y-28123384D01*
X47555272Y-28123384D01*
X47574223Y-28107623D01*
X47662863Y-28033901D01*
X47667295Y-28030215D01*
X47796627Y-27874711D01*
X47895454Y-27698241D01*
X47960468Y-27506717D01*
X47961297Y-27501001D01*
X47961298Y-27500996D01*
X47988957Y-27310226D01*
X47989490Y-27306552D01*
X47991005Y-27248710D01*
X47972498Y-27047301D01*
X47917597Y-26852636D01*
X47828141Y-26671237D01*
X47809869Y-26646767D01*
X47710578Y-26513801D01*
X47710577Y-26513800D01*
X47707125Y-26509177D01*
X47684140Y-26487930D01*
X47562843Y-26375804D01*
X47562841Y-26375802D01*
X47558602Y-26371884D01*
X47531164Y-26354572D01*
X47392427Y-26267035D01*
X47387547Y-26263956D01*
X47199688Y-26189008D01*
X47001316Y-26149549D01*
X46995542Y-26149473D01*
X46995538Y-26149473D01*
X46893047Y-26148132D01*
X46799076Y-26146902D01*
X46793379Y-26147881D01*
X46793378Y-26147881D01*
X46605436Y-26180175D01*
X46605435Y-26180175D01*
X46599739Y-26181154D01*
X46409983Y-26251159D01*
X46236161Y-26354572D01*
X46084095Y-26487930D01*
X45958879Y-26646767D01*
X45864704Y-26825763D01*
X45804727Y-27018923D01*
X45780954Y-27219779D01*
X43750000Y-27219779D01*
X43750000Y-24376000D01*
X43770002Y-24307879D01*
X43823658Y-24261386D01*
X43876000Y-24250000D01*
X46462966Y-24250000D01*
X46487547Y-24252421D01*
X46500000Y-24254898D01*
X46597545Y-24235495D01*
X46680240Y-24180240D01*
X46687133Y-24169924D01*
X46728602Y-24107862D01*
X46728603Y-24107860D01*
X46735495Y-24097545D01*
X46750000Y-24024624D01*
X46754898Y-24000000D01*
X46752421Y-23987547D01*
X46750000Y-23962966D01*
X46750000Y-14046000D01*
X46770002Y-13977879D01*
X46823658Y-13931386D01*
X46876000Y-13920000D01*
X56864000Y-13920000D01*
X56932121Y-13940002D01*
G37*
%TD.AperFunction*%
%TD*%
M02*
