%TF.GenerationSoftware,KiCad,Pcbnew,6.0.1+dfsg-1*%
%TF.CreationDate,2022-03-06T17:25:59+02:00*%
%TF.ProjectId,ram_board,72616d5f-626f-4617-9264-2e6b69636164,rev?*%
%TF.SameCoordinates,Original*%
%TF.FileFunction,Copper,L1,Top*%
%TF.FilePolarity,Positive*%
%FSLAX46Y46*%
G04 Gerber Fmt 4.6, Leading zero omitted, Abs format (unit mm)*
G04 Created by KiCad (PCBNEW 6.0.1+dfsg-1) date 2022-03-06 17:25:59*
%MOMM*%
%LPD*%
G01*
G04 APERTURE LIST*
G04 Aperture macros list*
%AMRoundRect*
0 Rectangle with rounded corners*
0 $1 Rounding radius*
0 $2 $3 $4 $5 $6 $7 $8 $9 X,Y pos of 4 corners*
0 Add a 4 corners polygon primitive as box body*
4,1,4,$2,$3,$4,$5,$6,$7,$8,$9,$2,$3,0*
0 Add four circle primitives for the rounded corners*
1,1,$1+$1,$2,$3*
1,1,$1+$1,$4,$5*
1,1,$1+$1,$6,$7*
1,1,$1+$1,$8,$9*
0 Add four rect primitives between the rounded corners*
20,1,$1+$1,$2,$3,$4,$5,0*
20,1,$1+$1,$4,$5,$6,$7,0*
20,1,$1+$1,$6,$7,$8,$9,0*
20,1,$1+$1,$8,$9,$2,$3,0*%
G04 Aperture macros list end*
%TA.AperFunction,SMDPad,CuDef*%
%ADD10RoundRect,0.137500X-0.625000X-0.137500X0.625000X-0.137500X0.625000X0.137500X-0.625000X0.137500X0*%
%TD*%
%TA.AperFunction,SMDPad,CuDef*%
%ADD11RoundRect,0.237500X-0.300000X-0.237500X0.300000X-0.237500X0.300000X0.237500X-0.300000X0.237500X0*%
%TD*%
%TA.AperFunction,SMDPad,CuDef*%
%ADD12RoundRect,0.237500X0.237500X-0.300000X0.237500X0.300000X-0.237500X0.300000X-0.237500X-0.300000X0*%
%TD*%
%TA.AperFunction,ComponentPad*%
%ADD13C,1.200000*%
%TD*%
%TA.AperFunction,ComponentPad*%
%ADD14O,1.000000X2.200000*%
%TD*%
%TA.AperFunction,ComponentPad*%
%ADD15C,2.540000*%
%TD*%
%TA.AperFunction,SMDPad,CuDef*%
%ADD16R,1.500000X1.000000*%
%TD*%
%TA.AperFunction,SMDPad,CuDef*%
%ADD17R,1.000000X1.500000*%
%TD*%
%TA.AperFunction,ComponentPad*%
%ADD18R,1.700000X1.700000*%
%TD*%
%TA.AperFunction,ComponentPad*%
%ADD19O,1.700000X1.700000*%
%TD*%
%TA.AperFunction,SMDPad,CuDef*%
%ADD20RoundRect,0.237500X-0.237500X0.300000X-0.237500X-0.300000X0.237500X-0.300000X0.237500X0.300000X0*%
%TD*%
%TA.AperFunction,ViaPad*%
%ADD21C,0.686000*%
%TD*%
%TA.AperFunction,Conductor*%
%ADD22C,0.250000*%
%TD*%
%TA.AperFunction,Conductor*%
%ADD23C,0.500000*%
%TD*%
%TA.AperFunction,Conductor*%
%ADD24C,0.200000*%
%TD*%
G04 APERTURE END LIST*
D10*
%TO.P,U1,1,A4*%
%TO.N,/A4*%
X56892500Y-51580000D03*
%TO.P,U1,2,A3*%
%TO.N,/A3*%
X56892500Y-52380000D03*
%TO.P,U1,3,A2*%
%TO.N,/A2*%
X56892500Y-53180000D03*
%TO.P,U1,4,A1*%
%TO.N,/A1*%
X56892500Y-53980000D03*
%TO.P,U1,5,A0*%
%TO.N,/A0*%
X56892500Y-54780000D03*
%TO.P,U1,6,CS1#*%
%TO.N,/CS#*%
X56892500Y-55580000D03*
%TO.P,U1,7,I/O0*%
%TO.N,/IO0*%
X56892500Y-56380000D03*
%TO.P,U1,8,I/O1*%
%TO.N,/IO1*%
X56892500Y-57180000D03*
%TO.P,U1,9,I/O2*%
%TO.N,/IO2*%
X56892500Y-57980000D03*
%TO.P,U1,10,I/O3*%
%TO.N,/IO3*%
X56892500Y-58780000D03*
%TO.P,U1,11,VDD*%
%TO.N,/DVDD3v3*%
X56892500Y-59580000D03*
%TO.P,U1,12,GND*%
%TO.N,GND*%
X56892500Y-60380000D03*
%TO.P,U1,13,I/O4*%
%TO.N,/IO4*%
X56892500Y-61180000D03*
%TO.P,U1,14,I/O5*%
%TO.N,/IO5*%
X56892500Y-61980000D03*
%TO.P,U1,15,I/O6*%
%TO.N,/IO6*%
X56892500Y-62780000D03*
%TO.P,U1,16,I/O7*%
%TO.N,/IO7*%
X56892500Y-63580000D03*
%TO.P,U1,17,WE#*%
%TO.N,/WE#*%
X56892500Y-64380000D03*
%TO.P,U1,18,A16*%
%TO.N,/A16*%
X56892500Y-65180000D03*
%TO.P,U1,19,A15*%
%TO.N,/A15*%
X56892500Y-65980000D03*
%TO.P,U1,20,A14*%
%TO.N,/A14*%
X56892500Y-66780000D03*
%TO.P,U1,21,A13*%
%TO.N,/A13*%
X56892500Y-67580000D03*
%TO.P,U1,22,A12*%
%TO.N,/A12*%
X56892500Y-68380000D03*
%TO.P,U1,23,A17*%
%TO.N,/A17*%
X68067500Y-68380000D03*
%TO.P,U1,24,A11*%
%TO.N,/A11*%
X68067500Y-67580000D03*
%TO.P,U1,25,A10*%
%TO.N,/A10*%
X68067500Y-66780000D03*
%TO.P,U1,26,A9*%
%TO.N,/A9*%
X68067500Y-65980000D03*
%TO.P,U1,27,A8*%
%TO.N,/A8*%
X68067500Y-65180000D03*
%TO.P,U1,28,A18*%
%TO.N,/A18*%
X68067500Y-64380000D03*
%TO.P,U1,29,I/O8*%
%TO.N,/IO8*%
X68067500Y-63580000D03*
%TO.P,U1,30,I/O9*%
%TO.N,/IO9*%
X68067500Y-62780000D03*
%TO.P,U1,31,I/O10*%
%TO.N,/IO10*%
X68067500Y-61980000D03*
%TO.P,U1,32,I/O11*%
%TO.N,/IO11*%
X68067500Y-61180000D03*
%TO.P,U1,33,VDD*%
%TO.N,/DVDD3v3*%
X68067500Y-60380000D03*
%TO.P,U1,34,GND*%
%TO.N,GND*%
X68067500Y-59580000D03*
%TO.P,U1,35,I/O12*%
%TO.N,/IO12*%
X68067500Y-58780000D03*
%TO.P,U1,36,I/O13*%
%TO.N,/IO13*%
X68067500Y-57980000D03*
%TO.P,U1,37,I/O14*%
%TO.N,/IO14*%
X68067500Y-57180000D03*
%TO.P,U1,38,I/O15*%
%TO.N,/IO15*%
X68067500Y-56380000D03*
%TO.P,U1,39,LB#*%
%TO.N,/BE#*%
X68067500Y-55580000D03*
%TO.P,U1,40,UB#*%
X68067500Y-54780000D03*
%TO.P,U1,41,OE#*%
%TO.N,/OE#*%
X68067500Y-53980000D03*
%TO.P,U1,42,A7*%
%TO.N,/A7*%
X68067500Y-53180000D03*
%TO.P,U1,43,A6*%
%TO.N,/A6*%
X68067500Y-52380000D03*
%TO.P,U1,44,A5*%
%TO.N,/A5*%
X68067500Y-51580000D03*
%TD*%
D11*
%TO.P,C3,1*%
%TO.N,/DVDD5*%
X62347500Y-40380000D03*
%TO.P,C3,2*%
%TO.N,GND*%
X64072500Y-40380000D03*
%TD*%
D12*
%TO.P,C2,1*%
%TO.N,/DVDD3v3*%
X71640000Y-61502500D03*
%TO.P,C2,2*%
%TO.N,GND*%
X71640000Y-59777500D03*
%TD*%
D13*
%TO.P,J2,1,VBUS*%
%TO.N,/DVDD5*%
X59580000Y-38060000D03*
%TO.P,J2,2,D-*%
%TO.N,/USB_D-*%
X60980000Y-38060000D03*
%TO.P,J2,3,D+*%
%TO.N,/USB_D+*%
X62380000Y-38060000D03*
%TO.P,J2,4,GND*%
%TO.N,GND*%
X63780000Y-38060000D03*
D14*
%TO.P,J2,5,Shield*%
X59160000Y-34790000D03*
X59160000Y-30950000D03*
X64500000Y-30950000D03*
X64500000Y-34790000D03*
%TD*%
D15*
%TO.P,ST2,1,Pin_1*%
%TO.N,GND*%
X53190000Y-94720000D03*
X48110000Y-100160000D03*
X53190000Y-100160000D03*
X48110000Y-94720000D03*
%TD*%
D16*
%TO.P,JP1,1,A*%
%TO.N,/A16*%
X54090000Y-68580000D03*
%TO.P,JP1,2,B*%
%TO.N,GND*%
X54090000Y-69880000D03*
%TD*%
D17*
%TO.P,JP3,1,A*%
%TO.N,/A18*%
X59110000Y-71410000D03*
%TO.P,JP3,2,B*%
%TO.N,GND*%
X57810000Y-71410000D03*
%TD*%
D18*
%TO.P,J1,1,Pin_1*%
%TO.N,unconnected-(J1-Pad1)*%
X49425790Y-27248710D03*
D19*
%TO.P,J1,2,Pin_2*%
%TO.N,unconnected-(J1-Pad2)*%
X46885790Y-27248710D03*
%TO.P,J1,3,Pin_3*%
%TO.N,/USB_D+*%
X49425790Y-29788710D03*
%TO.P,J1,4,Pin_4*%
%TO.N,/USB_D-*%
X46885790Y-29788710D03*
%TO.P,J1,5,Pin_5*%
%TO.N,/BE#*%
X49425790Y-32328710D03*
%TO.P,J1,6,Pin_6*%
%TO.N,/OE#*%
X46885790Y-32328710D03*
%TO.P,J1,7,Pin_7*%
%TO.N,/WE#*%
X49425790Y-34868710D03*
%TO.P,J1,8,Pin_8*%
%TO.N,/CS#*%
X46885790Y-34868710D03*
%TO.P,J1,9,Pin_9*%
%TO.N,/A0*%
X49425790Y-37408710D03*
%TO.P,J1,10,Pin_10*%
%TO.N,/A1*%
X46885790Y-37408710D03*
%TO.P,J1,11,Pin_11*%
%TO.N,/A2*%
X49425790Y-39948710D03*
%TO.P,J1,12,Pin_12*%
%TO.N,/A3*%
X46885790Y-39948710D03*
%TO.P,J1,13,Pin_13*%
%TO.N,/A4*%
X49425790Y-42488710D03*
%TO.P,J1,14,Pin_14*%
%TO.N,/A5*%
X46885790Y-42488710D03*
%TO.P,J1,15,Pin_15*%
%TO.N,/A6*%
X49425790Y-45028710D03*
%TO.P,J1,16,Pin_16*%
%TO.N,/A7*%
X46885790Y-45028710D03*
%TO.P,J1,17,Pin_17*%
%TO.N,/DVDD5*%
X49425790Y-47568710D03*
%TO.P,J1,18,Pin_18*%
%TO.N,GND*%
X46885790Y-47568710D03*
%TO.P,J1,19,Pin_19*%
%TO.N,/A8*%
X49425790Y-50108710D03*
%TO.P,J1,20,Pin_20*%
%TO.N,/A9*%
X46885790Y-50108710D03*
%TO.P,J1,21,Pin_21*%
%TO.N,/A10*%
X49425790Y-52648710D03*
%TO.P,J1,22,Pin_22*%
%TO.N,/A11*%
X46885790Y-52648710D03*
%TO.P,J1,23,Pin_23*%
%TO.N,/A12*%
X49425790Y-55188710D03*
%TO.P,J1,24,Pin_24*%
%TO.N,/A13*%
X46885790Y-55188710D03*
%TO.P,J1,25,Pin_25*%
%TO.N,/A14*%
X49425790Y-57728710D03*
%TO.P,J1,26,Pin_26*%
%TO.N,/A15*%
X46885790Y-57728710D03*
%TO.P,J1,27,Pin_27*%
%TO.N,/IO0*%
X49425790Y-60268710D03*
%TO.P,J1,28,Pin_28*%
%TO.N,/IO1*%
X46885790Y-60268710D03*
%TO.P,J1,29,Pin_29*%
%TO.N,/IO2*%
X49425790Y-62808710D03*
%TO.P,J1,30,Pin_30*%
%TO.N,/IO3*%
X46885790Y-62808710D03*
%TO.P,J1,31,Pin_31*%
%TO.N,/IO4*%
X49425790Y-65348710D03*
%TO.P,J1,32,Pin_32*%
%TO.N,/IO5*%
X46885790Y-65348710D03*
%TO.P,J1,33,Pin_33*%
%TO.N,/IO6*%
X49425790Y-67888710D03*
%TO.P,J1,34,Pin_34*%
%TO.N,/IO7*%
X46885790Y-67888710D03*
%TO.P,J1,35,Pin_35*%
%TO.N,/DVDD3v3*%
X49425790Y-70428710D03*
%TO.P,J1,36,Pin_36*%
%TO.N,GND*%
X46885790Y-70428710D03*
%TO.P,J1,37,Pin_37*%
%TO.N,/IO8*%
X49425790Y-72968710D03*
%TO.P,J1,38,Pin_38*%
%TO.N,/IO9*%
X46885790Y-72968710D03*
%TO.P,J1,39,Pin_39*%
%TO.N,/IO10*%
X49425790Y-75508710D03*
%TO.P,J1,40,Pin_40*%
%TO.N,/IO11*%
X46885790Y-75508710D03*
%TO.P,J1,41,Pin_41*%
%TO.N,/IO12*%
X49425790Y-78048710D03*
%TO.P,J1,42,Pin_42*%
%TO.N,/IO13*%
X46885790Y-78048710D03*
%TO.P,J1,43,Pin_43*%
%TO.N,/IO14*%
X49425790Y-80588710D03*
%TO.P,J1,44,Pin_44*%
%TO.N,/IO15*%
X46885790Y-80588710D03*
%TO.P,J1,45,Pin_45*%
%TO.N,unconnected-(J1-Pad45)*%
X49425790Y-83128710D03*
%TO.P,J1,46,Pin_46*%
%TO.N,unconnected-(J1-Pad46)*%
X46885790Y-83128710D03*
%TO.P,J1,47,Pin_47*%
%TO.N,unconnected-(J1-Pad47)*%
X49425790Y-85668710D03*
%TO.P,J1,48,Pin_48*%
%TO.N,unconnected-(J1-Pad48)*%
X46885790Y-85668710D03*
%TO.P,J1,49,Pin_49*%
%TO.N,unconnected-(J1-Pad49)*%
X49425790Y-88208710D03*
%TO.P,J1,50,Pin_50*%
%TO.N,unconnected-(J1-Pad50)*%
X46885790Y-88208710D03*
%TD*%
D17*
%TO.P,JP2,1,A*%
%TO.N,/A17*%
X64210000Y-71430000D03*
%TO.P,JP2,2,B*%
%TO.N,GND*%
X62910000Y-71430000D03*
%TD*%
D15*
%TO.P,ST1,1,Pin_1*%
%TO.N,GND*%
X53190000Y-15300000D03*
X53190000Y-20740000D03*
X48110000Y-20740000D03*
X48110000Y-15300000D03*
%TD*%
D20*
%TO.P,C1,1*%
%TO.N,/DVDD3v3*%
X54090000Y-59107500D03*
%TO.P,C1,2*%
%TO.N,GND*%
X54090000Y-60832500D03*
%TD*%
D21*
%TO.N,GND*%
X66640000Y-59130000D03*
X44908409Y-29836428D03*
X44908409Y-32376428D03*
X75388409Y-78096428D03*
X75388409Y-32376428D03*
X52528409Y-83176428D03*
X65228409Y-85716428D03*
X70308409Y-32376428D03*
X67768409Y-29836428D03*
X44908409Y-37456428D03*
X75388409Y-45076428D03*
X72848409Y-78096428D03*
X44908409Y-55236428D03*
X72848409Y-45076428D03*
X52528409Y-29836428D03*
X75388409Y-50156428D03*
X52528409Y-27296428D03*
X44908409Y-34916428D03*
X44908409Y-75556428D03*
X55068409Y-29836428D03*
X72848409Y-39996428D03*
X72848409Y-52696428D03*
X62688409Y-32376428D03*
X55068409Y-24756428D03*
X49988409Y-95876428D03*
X75388409Y-80636428D03*
X57608409Y-32376428D03*
X44908409Y-42536428D03*
X62688409Y-29836428D03*
X55068409Y-17136428D03*
X72848409Y-55236428D03*
X44908409Y-39996428D03*
X44908409Y-60316428D03*
X55068409Y-98416428D03*
X44908409Y-90796428D03*
X57608409Y-83176428D03*
X49988409Y-24756428D03*
X44908409Y-73016428D03*
X65228409Y-42536428D03*
X70308409Y-85716428D03*
X55068409Y-95876428D03*
X47448409Y-24756428D03*
X72848409Y-37456428D03*
X66050000Y-58490000D03*
X70308409Y-42536428D03*
X47448409Y-90796428D03*
X72848409Y-50156428D03*
X44908409Y-50156428D03*
X49988409Y-98416428D03*
X72848409Y-42536428D03*
X60148409Y-83176428D03*
X49988409Y-14596428D03*
X75388409Y-55236428D03*
X55068409Y-85716428D03*
X55068409Y-19676428D03*
X44908409Y-65396428D03*
X44908409Y-47616428D03*
X49988409Y-22216428D03*
X72848409Y-34916428D03*
X65228409Y-55236428D03*
X44908409Y-52696428D03*
X72848409Y-85716428D03*
X75388409Y-34916428D03*
X44908409Y-83176428D03*
X52528409Y-47616428D03*
X65228409Y-83176428D03*
X55068409Y-90796428D03*
X75388409Y-75556428D03*
X72848409Y-80636428D03*
X55068409Y-27296428D03*
X72848409Y-29836428D03*
X44908409Y-45076428D03*
X55068409Y-83176428D03*
X58420000Y-61710000D03*
X67768409Y-34916428D03*
X49988409Y-93336428D03*
X72848409Y-47616428D03*
X70308409Y-83176428D03*
X67768409Y-37456428D03*
X75388409Y-39996428D03*
X62688409Y-85716428D03*
X49988409Y-100956428D03*
X44908409Y-62856428D03*
X75388409Y-85716428D03*
X62688409Y-83176428D03*
X75388409Y-83176428D03*
X70308409Y-37456428D03*
X60148409Y-85716428D03*
X55068409Y-93336428D03*
X52528409Y-24756428D03*
X75388409Y-52696428D03*
X67768409Y-83176428D03*
X72150000Y-60240000D03*
X44908409Y-70476428D03*
X62688409Y-34916428D03*
X44908409Y-80636428D03*
X49988409Y-90796428D03*
X75388409Y-37456428D03*
X44908409Y-57776428D03*
X52528409Y-70476428D03*
X67768409Y-32376428D03*
X44908409Y-88256428D03*
X44908409Y-85716428D03*
X52528409Y-85716428D03*
X49988409Y-17136428D03*
X55068409Y-22216428D03*
X55068409Y-88256428D03*
X57608409Y-29836428D03*
X44908409Y-24756428D03*
X72848409Y-32376428D03*
X44908409Y-78096428D03*
X44908409Y-27296428D03*
X57608409Y-85716428D03*
X70308409Y-34916428D03*
X75388409Y-29836428D03*
X55068409Y-14596428D03*
X53560000Y-61490000D03*
X52528409Y-90796428D03*
X67768409Y-85716428D03*
X70308409Y-80636428D03*
X55068409Y-100956428D03*
X72848409Y-83176428D03*
X49988409Y-19676428D03*
X70308409Y-39996428D03*
X75388409Y-47616428D03*
X75388409Y-42536428D03*
X44908409Y-67936428D03*
X67768409Y-42536428D03*
X70308409Y-29836428D03*
X65228409Y-39996428D03*
X67768409Y-39996428D03*
X52528409Y-88256428D03*
%TO.N,/DVDD3v3*%
X50910000Y-70260000D03*
X65950000Y-60120000D03*
X59490000Y-62670000D03*
X72080000Y-62180000D03*
X66600000Y-60850000D03*
X55010000Y-59190000D03*
X50880000Y-71630000D03*
%TO.N,/DVDD5*%
X61340000Y-39830000D03*
%TO.N,/A8*%
X66570000Y-62220000D03*
%TO.N,/A10*%
X64570000Y-63390000D03*
%TO.N,/A15*%
X55290000Y-67400000D03*
%TO.N,/A14*%
X58450000Y-66030000D03*
%TO.N,/A13*%
X59710000Y-66000000D03*
%TO.N,/A12*%
X62330000Y-64330000D03*
%TO.N,/A11*%
X63480000Y-63820000D03*
%TO.N,/A9*%
X65610000Y-62940000D03*
%TO.N,/A18*%
X63680000Y-67760000D03*
X69090000Y-64370000D03*
%TO.N,/A7*%
X65310000Y-46410000D03*
%TO.N,/A6*%
X66650000Y-46390000D03*
%TO.N,/A5*%
X68060000Y-46380000D03*
%TD*%
D22*
%TO.N,/IO1*%
X56892500Y-57180000D02*
X56030000Y-57180000D01*
X56030000Y-57180000D02*
X55690000Y-56840000D01*
X47657080Y-61540000D02*
X46385790Y-60268710D01*
X55690000Y-56840000D02*
X51890000Y-56840000D01*
X51360000Y-57370000D02*
X51360000Y-60260000D01*
X51890000Y-56840000D02*
X51360000Y-57370000D01*
X50080000Y-61540000D02*
X47657080Y-61540000D01*
X51360000Y-60260000D02*
X50080000Y-61540000D01*
%TO.N,/IO2*%
X56892500Y-57980000D02*
X55810000Y-57980000D01*
X55810000Y-57980000D02*
X55370000Y-57540000D01*
X55370000Y-57540000D02*
X52660000Y-57540000D01*
X52660000Y-57540000D02*
X52190000Y-58010000D01*
X52190000Y-58010000D02*
X52190000Y-60650000D01*
X52190000Y-60650000D02*
X50031290Y-62808710D01*
X50031290Y-62808710D02*
X48925790Y-62808710D01*
%TO.N,/IO0*%
X56892500Y-56380000D02*
X56050000Y-56380000D01*
X50680000Y-59014500D02*
X49425790Y-60268710D01*
X56050000Y-56380000D02*
X55780000Y-56110000D01*
X55780000Y-56110000D02*
X51360000Y-56110000D01*
X51360000Y-56110000D02*
X50680000Y-56790000D01*
X50680000Y-56790000D02*
X50680000Y-59014500D01*
%TO.N,/IO3*%
X46385790Y-62808710D02*
X47637080Y-64060000D01*
X47637080Y-64060000D02*
X50090000Y-64060000D01*
X50090000Y-64060000D02*
X52950000Y-61200000D01*
X55700000Y-58780000D02*
X56892500Y-58780000D01*
X52950000Y-61200000D02*
X52950000Y-58370000D01*
X52950000Y-58370000D02*
X53190000Y-58130000D01*
X53190000Y-58130000D02*
X55050000Y-58130000D01*
X55050000Y-58130000D02*
X55700000Y-58780000D01*
%TO.N,/A3*%
X56892500Y-52380000D02*
X57508394Y-52380000D01*
X58350000Y-51538394D02*
X58350000Y-50230000D01*
X57508394Y-52380000D02*
X58350000Y-51538394D01*
X58350000Y-50230000D02*
X50710000Y-42590000D01*
X50710000Y-42590000D02*
X50710000Y-41940000D01*
X50710000Y-41940000D02*
X50020000Y-41250000D01*
X50020000Y-41250000D02*
X47687080Y-41250000D01*
X47687080Y-41250000D02*
X46385790Y-39948710D01*
%TO.N,/A1*%
X56892500Y-53980000D02*
X59010000Y-53980000D01*
X59010000Y-53980000D02*
X60720000Y-52270000D01*
X60720000Y-52270000D02*
X60720000Y-49330000D01*
X60720000Y-49330000D02*
X50080000Y-38690000D01*
X50080000Y-38690000D02*
X47667080Y-38690000D01*
X47667080Y-38690000D02*
X46385790Y-37408710D01*
D23*
%TO.N,GND*%
X56892500Y-60380000D02*
X57755882Y-60380000D01*
X57755882Y-60380000D02*
X58420000Y-61044118D01*
X64500000Y-37340000D02*
X63780000Y-38060000D01*
X64500000Y-34790000D02*
X64500000Y-37340000D01*
X67090000Y-59580000D02*
X66640000Y-59130000D01*
X68067500Y-59580000D02*
X71442500Y-59580000D01*
X58420000Y-61044118D02*
X58420000Y-61710000D01*
X54542500Y-60380000D02*
X54090000Y-60832500D01*
X71640000Y-59777500D02*
X71687500Y-59777500D01*
X54090000Y-60960000D02*
X53560000Y-61490000D01*
X71442500Y-59580000D02*
X71640000Y-59777500D01*
X71687500Y-59777500D02*
X72150000Y-60240000D01*
X64072500Y-40380000D02*
X64072500Y-38352500D01*
X56892500Y-60380000D02*
X54542500Y-60380000D01*
X64072500Y-38352500D02*
X63780000Y-38060000D01*
X68067500Y-59580000D02*
X67090000Y-59580000D01*
X54090000Y-60832500D02*
X54090000Y-60960000D01*
%TO.N,/DVDD3v3*%
X56892500Y-59580000D02*
X58450000Y-59580000D01*
X59490000Y-60620000D02*
X59490000Y-62670000D01*
X68067500Y-60380000D02*
X70130000Y-60380000D01*
X70130000Y-60380000D02*
X71252500Y-61502500D01*
X71640000Y-61740000D02*
X72080000Y-62180000D01*
X71252500Y-61502500D02*
X71640000Y-61502500D01*
D22*
X50741290Y-70428710D02*
X50910000Y-70260000D01*
D23*
X71640000Y-61502500D02*
X71640000Y-61740000D01*
X54620000Y-59580000D02*
X55010000Y-59190000D01*
D22*
X48925790Y-70428710D02*
X50741290Y-70428710D01*
D23*
X68067500Y-60380000D02*
X67070000Y-60380000D01*
X56892500Y-59580000D02*
X54562500Y-59580000D01*
X54562500Y-59580000D02*
X54620000Y-59580000D01*
X67070000Y-60380000D02*
X66600000Y-60850000D01*
X58450000Y-59580000D02*
X59490000Y-60620000D01*
X54562500Y-59580000D02*
X54090000Y-59107500D01*
D24*
%TO.N,/USB_D+*%
X48925790Y-29788710D02*
X49767560Y-30630480D01*
X62380000Y-38040000D02*
X62380000Y-38060000D01*
X58615486Y-36570480D02*
X60910480Y-36570480D01*
X52675487Y-30630481D02*
X58615486Y-36570480D01*
X49767560Y-30630480D02*
X52675487Y-30630481D01*
X60910480Y-36570480D02*
X62380000Y-38040000D01*
%TO.N,/USB_D-*%
X47627080Y-31030000D02*
X46385790Y-29788710D01*
X59890000Y-36970000D02*
X58450000Y-36970000D01*
X52510000Y-31030000D02*
X47627080Y-31030000D01*
X58450000Y-36970000D02*
X52510000Y-31030000D01*
X60980000Y-38060000D02*
X59890000Y-36970000D01*
D22*
%TO.N,/CS#*%
X50700000Y-36150000D02*
X47667080Y-36150000D01*
X60510000Y-56180000D02*
X63130000Y-53560000D01*
X63130000Y-48580000D02*
X50700000Y-36150000D01*
X58120000Y-55580000D02*
X58720000Y-56180000D01*
X58720000Y-56180000D02*
X60510000Y-56180000D01*
X56892500Y-55580000D02*
X58120000Y-55580000D01*
X63130000Y-53560000D02*
X63130000Y-48580000D01*
X47667080Y-36150000D02*
X46385790Y-34868710D01*
%TO.N,/OE#*%
X68710000Y-44770000D02*
X62510000Y-44770000D01*
X51310000Y-33570000D02*
X47627080Y-33570000D01*
X69930000Y-45990000D02*
X68710000Y-44770000D01*
X47627080Y-33570000D02*
X46385790Y-32328710D01*
X69300000Y-53980000D02*
X69930000Y-53350000D01*
X69930000Y-53350000D02*
X69930000Y-45990000D01*
X68067500Y-53980000D02*
X69300000Y-53980000D01*
X62510000Y-44770000D02*
X51310000Y-33570000D01*
%TO.N,/WE#*%
X56892500Y-64380000D02*
X59900000Y-64380000D01*
X64310000Y-48110000D02*
X51068710Y-34868710D01*
X51068710Y-34868710D02*
X48925790Y-34868710D01*
X64310000Y-59970000D02*
X64310000Y-48110000D01*
X59900000Y-64380000D02*
X64310000Y-59970000D01*
%TO.N,/BE#*%
X68067500Y-54780000D02*
X69900000Y-54780000D01*
X71190000Y-45570000D02*
X69240000Y-43620000D01*
X71190000Y-53490000D02*
X71190000Y-45570000D01*
X69240000Y-43620000D02*
X62910000Y-43620000D01*
X51618710Y-32328710D02*
X48925790Y-32328710D01*
X69900000Y-54780000D02*
X71190000Y-53490000D01*
X62910000Y-43620000D02*
X51618710Y-32328710D01*
X69100000Y-55580000D02*
X69900000Y-54780000D01*
X68067500Y-55580000D02*
X69100000Y-55580000D01*
D23*
%TO.N,/DVDD5*%
X59580000Y-38060000D02*
X59580000Y-38760000D01*
X61200000Y-39970000D02*
X61340000Y-39830000D01*
X61200000Y-40380000D02*
X61200000Y-39970000D01*
X61200000Y-40380000D02*
X62347500Y-40380000D01*
X59580000Y-38760000D02*
X61200000Y-40380000D01*
D22*
%TO.N,/A8*%
X67451606Y-65180000D02*
X66570000Y-64298394D01*
X66570000Y-64298394D02*
X66570000Y-62220000D01*
X68067500Y-65180000D02*
X67451606Y-65180000D01*
%TO.N,/A10*%
X64570000Y-63390000D02*
X64570000Y-65130000D01*
X64570000Y-65130000D02*
X66220000Y-66780000D01*
X66220000Y-66780000D02*
X68067500Y-66780000D01*
%TO.N,/A4*%
X56892500Y-50392500D02*
X48988710Y-42488710D01*
X56892500Y-51580000D02*
X56892500Y-50392500D01*
%TO.N,/A2*%
X59530000Y-51890000D02*
X59530000Y-49730000D01*
X56892500Y-53180000D02*
X58240000Y-53180000D01*
X58240000Y-53180000D02*
X59530000Y-51890000D01*
X59530000Y-49730000D02*
X49748710Y-39948710D01*
%TO.N,/A0*%
X61950000Y-52860000D02*
X61950000Y-49030000D01*
X61950000Y-49030000D02*
X50328710Y-37408710D01*
X56892500Y-54780000D02*
X60030000Y-54780000D01*
X60030000Y-54780000D02*
X61950000Y-52860000D01*
X50328710Y-37408710D02*
X48925790Y-37408710D01*
%TO.N,/IO4*%
X56892500Y-61180000D02*
X55300000Y-61180000D01*
X51131290Y-65348710D02*
X48925790Y-65348710D01*
X55300000Y-61180000D02*
X51131290Y-65348710D01*
%TO.N,/IO5*%
X56892500Y-61980000D02*
X55660000Y-61980000D01*
X51010000Y-66630000D02*
X47667080Y-66630000D01*
X55660000Y-61980000D02*
X51010000Y-66630000D01*
X47667080Y-66630000D02*
X46385790Y-65348710D01*
%TO.N,/IO6*%
X50861290Y-67888710D02*
X48925790Y-67888710D01*
X56892500Y-62780000D02*
X55970000Y-62780000D01*
X55970000Y-62780000D02*
X50861290Y-67888710D01*
%TO.N,/IO7*%
X50676606Y-69180000D02*
X47677080Y-69180000D01*
X56276606Y-63580000D02*
X50676606Y-69180000D01*
X47677080Y-69180000D02*
X46385790Y-67888710D01*
X56892500Y-63580000D02*
X56276606Y-63580000D01*
%TO.N,/A16*%
X55920000Y-65180000D02*
X54090000Y-67010000D01*
X54090000Y-67010000D02*
X54090000Y-68580000D01*
X56892500Y-65180000D02*
X55920000Y-65180000D01*
%TO.N,/A15*%
X56276606Y-65980000D02*
X56892500Y-65980000D01*
X55290000Y-66966606D02*
X56276606Y-65980000D01*
X55290000Y-67400000D02*
X55290000Y-66966606D01*
%TO.N,/A14*%
X58450000Y-66030000D02*
X57700000Y-66780000D01*
X57700000Y-66780000D02*
X56892500Y-66780000D01*
%TO.N,/A13*%
X59710000Y-66320000D02*
X58450000Y-67580000D01*
X59710000Y-66000000D02*
X59710000Y-66320000D01*
X58450000Y-67580000D02*
X56892500Y-67580000D01*
%TO.N,/A12*%
X60100000Y-68380000D02*
X62330000Y-66150000D01*
X56892500Y-68380000D02*
X60100000Y-68380000D01*
X62330000Y-66150000D02*
X62330000Y-64330000D01*
%TO.N,/A17*%
X64210000Y-71430000D02*
X65017500Y-71430000D01*
X65017500Y-71430000D02*
X68067500Y-68380000D01*
%TO.N,/A11*%
X63480000Y-65260000D02*
X65800000Y-67580000D01*
X65800000Y-67580000D02*
X68067500Y-67580000D01*
X63480000Y-63820000D02*
X63480000Y-65260000D01*
%TO.N,/A9*%
X65610000Y-64870000D02*
X66720000Y-65980000D01*
X66720000Y-65980000D02*
X68067500Y-65980000D01*
X65610000Y-62940000D02*
X65610000Y-64870000D01*
%TO.N,/A18*%
X63680000Y-67760000D02*
X62760000Y-67760000D01*
X68067500Y-64380000D02*
X69080000Y-64380000D01*
X62760000Y-67760000D02*
X59110000Y-71410000D01*
X69080000Y-64380000D02*
X69090000Y-64370000D01*
%TO.N,/IO8*%
X70070000Y-64350000D02*
X70070000Y-68290000D01*
X69300000Y-63580000D02*
X70070000Y-64350000D01*
X70070000Y-68290000D02*
X65391290Y-72968710D01*
X68067500Y-63580000D02*
X69300000Y-63580000D01*
X65391290Y-72968710D02*
X48925790Y-72968710D01*
%TO.N,/IO9*%
X65620000Y-74230000D02*
X47647080Y-74230000D01*
X69400000Y-62780000D02*
X70760000Y-64140000D01*
X70760000Y-64140000D02*
X70760000Y-69090000D01*
X68067500Y-62780000D02*
X69400000Y-62780000D01*
X47647080Y-74230000D02*
X46385790Y-72968710D01*
X70760000Y-69090000D02*
X65620000Y-74230000D01*
%TO.N,/IO10*%
X71470000Y-69970000D02*
X65931290Y-75508710D01*
X65931290Y-75508710D02*
X48925790Y-75508710D01*
X68067500Y-61980000D02*
X69500000Y-61980000D01*
X69500000Y-61980000D02*
X71470000Y-63950000D01*
X71470000Y-63950000D02*
X71470000Y-69970000D01*
%TO.N,/IO11*%
X66020000Y-76770000D02*
X47400000Y-76770000D01*
X68067500Y-61180000D02*
X69650000Y-61180000D01*
X69650000Y-61180000D02*
X72260000Y-63790000D01*
X46385790Y-75755790D02*
X46385790Y-75508710D01*
X47400000Y-76770000D02*
X46385790Y-75755790D01*
X72260000Y-70530000D02*
X66020000Y-76770000D01*
X72260000Y-63790000D02*
X72260000Y-70530000D01*
%TO.N,/IO12*%
X73060000Y-71280000D02*
X66291290Y-78048710D01*
X72683394Y-58780000D02*
X73060000Y-59156606D01*
X68067500Y-58780000D02*
X72683394Y-58780000D01*
X66291290Y-78048710D02*
X48925790Y-78048710D01*
X73060000Y-59156606D02*
X73060000Y-71280000D01*
%TO.N,/IO13*%
X66460000Y-79310000D02*
X47647080Y-79310000D01*
X68067500Y-57980000D02*
X73290000Y-57980000D01*
X73880000Y-58570000D02*
X73880000Y-71890000D01*
X47647080Y-79310000D02*
X46385790Y-78048710D01*
X73290000Y-57980000D02*
X73880000Y-58570000D01*
X73880000Y-71890000D02*
X66460000Y-79310000D01*
%TO.N,/IO14*%
X66761290Y-80588710D02*
X48925790Y-80588710D01*
X74690000Y-72660000D02*
X66761290Y-80588710D01*
X68067500Y-57180000D02*
X73940000Y-57180000D01*
X74690000Y-57930000D02*
X74690000Y-72660000D01*
X73940000Y-57180000D02*
X74690000Y-57930000D01*
%TO.N,/IO15*%
X75470000Y-57050000D02*
X75470000Y-73530000D01*
X68067500Y-56380000D02*
X74800000Y-56380000D01*
X74800000Y-56380000D02*
X75470000Y-57050000D01*
X47667080Y-81870000D02*
X46385790Y-80588710D01*
X67130000Y-81870000D02*
X47667080Y-81870000D01*
X75470000Y-73530000D02*
X67130000Y-81870000D01*
%TO.N,/A7*%
X65460000Y-46560000D02*
X65460000Y-52160000D01*
X65310000Y-46410000D02*
X65460000Y-46560000D01*
X65460000Y-52160000D02*
X66480000Y-53180000D01*
X66480000Y-53180000D02*
X68067500Y-53180000D01*
%TO.N,/A6*%
X66650000Y-46390000D02*
X66650000Y-51920000D01*
X67110000Y-52380000D02*
X68067500Y-52380000D01*
X66650000Y-51920000D02*
X67110000Y-52380000D01*
%TO.N,/A5*%
X68067500Y-46387500D02*
X68060000Y-46380000D01*
X68067500Y-51580000D02*
X68067500Y-46387500D01*
%TD*%
%TA.AperFunction,Conductor*%
%TO.N,GND*%
G36*
X51824502Y-13940002D02*
G01*
X51870995Y-13993658D01*
X51881099Y-14063932D01*
X51853255Y-14126569D01*
X51741433Y-14261020D01*
X51736018Y-14268612D01*
X51603776Y-14486540D01*
X51599538Y-14494857D01*
X51500961Y-14729935D01*
X51498000Y-14738785D01*
X51435255Y-14985849D01*
X51433633Y-14995046D01*
X51408094Y-15248673D01*
X51407849Y-15257999D01*
X51420080Y-15512619D01*
X51421217Y-15521879D01*
X51470947Y-15771894D01*
X51473441Y-15780887D01*
X51559578Y-16020797D01*
X51563378Y-16029332D01*
X51684031Y-16253877D01*
X51689045Y-16261748D01*
X51755154Y-16350279D01*
X51766414Y-16358729D01*
X51778832Y-16351958D01*
X53100905Y-15029885D01*
X53163217Y-14995859D01*
X53234032Y-15000924D01*
X53279095Y-15029885D01*
X54604386Y-16355176D01*
X54616766Y-16361936D01*
X54625107Y-16355692D01*
X54754391Y-16154697D01*
X54758838Y-16146506D01*
X54863536Y-15914085D01*
X54866731Y-15905307D01*
X54935923Y-15659968D01*
X54937781Y-15650839D01*
X54970144Y-15396444D01*
X54970625Y-15390158D01*
X54972903Y-15303160D01*
X54972752Y-15296851D01*
X54953747Y-15041110D01*
X54952370Y-15031904D01*
X54896109Y-14783262D01*
X54893385Y-14774351D01*
X54800990Y-14536758D01*
X54796979Y-14528349D01*
X54670481Y-14307025D01*
X54665270Y-14299299D01*
X54527081Y-14124006D01*
X54500616Y-14058126D01*
X54513969Y-13988397D01*
X54562901Y-13936956D01*
X54626031Y-13920000D01*
X56864000Y-13920000D01*
X56932121Y-13940002D01*
X56978614Y-13993658D01*
X56990000Y-14046000D01*
X56990000Y-28442966D01*
X56987579Y-28467547D01*
X56985102Y-28480000D01*
X57004505Y-28577545D01*
X57059760Y-28660240D01*
X57142455Y-28715495D01*
X57170905Y-28721154D01*
X57240000Y-28734898D01*
X57252171Y-28732477D01*
X57252453Y-28732421D01*
X57277034Y-28730000D01*
X76464000Y-28730000D01*
X76532121Y-28750002D01*
X76578614Y-28803658D01*
X76590000Y-28856000D01*
X76590000Y-87124000D01*
X76569998Y-87192121D01*
X76516342Y-87238614D01*
X76464000Y-87250000D01*
X57277034Y-87250000D01*
X57252453Y-87247579D01*
X57252171Y-87247523D01*
X57240000Y-87245102D01*
X57215376Y-87250000D01*
X57142455Y-87264505D01*
X57059760Y-87319760D01*
X57004505Y-87402455D01*
X56985102Y-87500000D01*
X56987523Y-87512171D01*
X56987579Y-87512453D01*
X56990000Y-87537034D01*
X56990000Y-101374000D01*
X56969998Y-101442121D01*
X56916342Y-101488614D01*
X56864000Y-101500000D01*
X54657916Y-101500000D01*
X54589795Y-101479998D01*
X54543302Y-101426342D01*
X54533198Y-101356068D01*
X54563184Y-101290922D01*
X54610874Y-101236543D01*
X54616486Y-101229095D01*
X54754391Y-101014697D01*
X54758838Y-101006506D01*
X54863536Y-100774085D01*
X54866731Y-100765307D01*
X54935923Y-100519968D01*
X54937781Y-100510839D01*
X54970144Y-100256444D01*
X54970625Y-100250158D01*
X54972903Y-100163160D01*
X54972752Y-100156851D01*
X54953747Y-99901110D01*
X54952370Y-99891904D01*
X54896109Y-99643262D01*
X54893385Y-99634351D01*
X54800990Y-99396758D01*
X54796979Y-99388349D01*
X54670482Y-99167027D01*
X54665269Y-99159298D01*
X54625633Y-99109019D01*
X54613709Y-99100549D01*
X54602174Y-99107036D01*
X53279095Y-100430115D01*
X53216783Y-100464141D01*
X53145968Y-100459076D01*
X53100905Y-100430115D01*
X51777119Y-99106329D01*
X51763811Y-99099062D01*
X51753772Y-99106184D01*
X51741433Y-99121020D01*
X51736018Y-99128612D01*
X51603776Y-99346540D01*
X51599538Y-99354857D01*
X51500961Y-99589935D01*
X51498000Y-99598785D01*
X51435255Y-99845849D01*
X51433633Y-99855046D01*
X51408094Y-100108673D01*
X51407849Y-100117999D01*
X51420080Y-100372619D01*
X51421217Y-100381879D01*
X51470947Y-100631894D01*
X51473441Y-100640887D01*
X51559578Y-100880797D01*
X51563378Y-100889332D01*
X51684031Y-101113877D01*
X51689042Y-101121744D01*
X51821115Y-101298611D01*
X51845847Y-101365161D01*
X51830673Y-101434517D01*
X51780411Y-101484659D01*
X51720157Y-101500000D01*
X49577916Y-101500000D01*
X49509795Y-101479998D01*
X49463302Y-101426342D01*
X49453198Y-101356068D01*
X49483184Y-101290922D01*
X49530874Y-101236543D01*
X49536486Y-101229095D01*
X49674391Y-101014697D01*
X49678838Y-101006506D01*
X49783536Y-100774085D01*
X49786731Y-100765307D01*
X49855923Y-100519968D01*
X49857781Y-100510839D01*
X49890144Y-100256444D01*
X49890625Y-100250158D01*
X49892903Y-100163160D01*
X49892752Y-100156851D01*
X49873747Y-99901110D01*
X49872370Y-99891904D01*
X49816109Y-99643262D01*
X49813385Y-99634351D01*
X49720990Y-99396758D01*
X49716979Y-99388349D01*
X49590482Y-99167027D01*
X49585269Y-99159298D01*
X49545633Y-99109019D01*
X49533709Y-99100549D01*
X49522174Y-99107036D01*
X48199095Y-100430115D01*
X48136783Y-100464141D01*
X48065968Y-100459076D01*
X48020905Y-100430115D01*
X47839885Y-100249095D01*
X47805859Y-100186783D01*
X47810924Y-100115968D01*
X47839885Y-100070905D01*
X49162790Y-98748000D01*
X49169174Y-98736310D01*
X49167656Y-98734357D01*
X52128770Y-98734357D01*
X52133343Y-98744133D01*
X53177188Y-99787978D01*
X53191132Y-99795592D01*
X53192965Y-99795461D01*
X53199580Y-99791210D01*
X54242790Y-98748000D01*
X54249174Y-98736310D01*
X54239762Y-98724199D01*
X54098776Y-98626392D01*
X54090741Y-98621659D01*
X53862106Y-98508909D01*
X53853473Y-98505421D01*
X53610675Y-98427701D01*
X53601624Y-98425528D01*
X53350009Y-98384550D01*
X53340720Y-98383738D01*
X53085828Y-98380401D01*
X53076517Y-98380971D01*
X52823927Y-98415347D01*
X52814808Y-98417285D01*
X52570084Y-98488616D01*
X52561331Y-98491888D01*
X52329837Y-98598608D01*
X52321682Y-98603128D01*
X52137907Y-98723616D01*
X52128770Y-98734357D01*
X49167656Y-98734357D01*
X49159762Y-98724199D01*
X49018776Y-98626392D01*
X49010741Y-98621659D01*
X48782106Y-98508909D01*
X48773473Y-98505421D01*
X48530675Y-98427701D01*
X48521624Y-98425528D01*
X48270009Y-98384550D01*
X48260720Y-98383738D01*
X48005828Y-98380401D01*
X47996517Y-98380971D01*
X47743927Y-98415347D01*
X47734808Y-98417285D01*
X47490084Y-98488616D01*
X47481331Y-98491888D01*
X47249837Y-98598608D01*
X47241682Y-98603128D01*
X47028500Y-98742896D01*
X47021103Y-98748573D01*
X46959901Y-98803197D01*
X46895760Y-98833634D01*
X46825345Y-98824562D01*
X46771013Y-98778862D01*
X46750000Y-98709193D01*
X46750000Y-96176091D01*
X46770002Y-96107970D01*
X46823658Y-96061477D01*
X46893932Y-96051373D01*
X46951011Y-96077200D01*
X46952043Y-96075793D01*
X47161394Y-96229296D01*
X47169293Y-96234232D01*
X47394901Y-96352930D01*
X47403450Y-96356647D01*
X47644113Y-96440690D01*
X47653122Y-96443104D01*
X47903572Y-96490654D01*
X47912827Y-96491708D01*
X48167557Y-96501717D01*
X48176871Y-96501391D01*
X48430270Y-96473640D01*
X48439447Y-96471939D01*
X48685960Y-96407037D01*
X48694780Y-96404000D01*
X48928997Y-96303373D01*
X48937269Y-96299066D01*
X49154036Y-96164927D01*
X49161579Y-96159447D01*
X49163272Y-96158014D01*
X49171710Y-96145211D01*
X49170674Y-96143442D01*
X52131303Y-96143442D01*
X52140017Y-96154962D01*
X52241394Y-96229296D01*
X52249293Y-96234232D01*
X52474901Y-96352930D01*
X52483450Y-96356647D01*
X52724113Y-96440690D01*
X52733122Y-96443104D01*
X52983572Y-96490654D01*
X52992827Y-96491708D01*
X53247557Y-96501717D01*
X53256871Y-96501391D01*
X53510270Y-96473640D01*
X53519447Y-96471939D01*
X53765960Y-96407037D01*
X53774780Y-96404000D01*
X54008997Y-96303373D01*
X54017269Y-96299066D01*
X54234036Y-96164927D01*
X54241579Y-96159447D01*
X54243272Y-96158014D01*
X54251710Y-96145211D01*
X54245645Y-96134855D01*
X53202812Y-95092022D01*
X53188868Y-95084408D01*
X53187035Y-95084539D01*
X53180420Y-95088790D01*
X52137961Y-96131249D01*
X52131303Y-96143442D01*
X49170674Y-96143442D01*
X49165645Y-96134855D01*
X47839885Y-94809095D01*
X47805859Y-94746783D01*
X47807694Y-94721132D01*
X48474408Y-94721132D01*
X48474539Y-94722965D01*
X48478790Y-94729580D01*
X49524386Y-95775176D01*
X49536766Y-95781936D01*
X49545107Y-95775692D01*
X49674391Y-95574697D01*
X49678838Y-95566506D01*
X49783536Y-95334085D01*
X49786731Y-95325307D01*
X49855923Y-95079968D01*
X49857781Y-95070839D01*
X49890144Y-94816444D01*
X49890625Y-94810158D01*
X49892903Y-94723160D01*
X49892752Y-94716851D01*
X49889865Y-94677999D01*
X51407849Y-94677999D01*
X51420080Y-94932619D01*
X51421217Y-94941879D01*
X51470947Y-95191894D01*
X51473441Y-95200887D01*
X51559578Y-95440797D01*
X51563378Y-95449332D01*
X51684031Y-95673877D01*
X51689045Y-95681748D01*
X51755154Y-95770279D01*
X51766414Y-95778729D01*
X51778832Y-95771958D01*
X52817978Y-94732812D01*
X52824356Y-94721132D01*
X53554408Y-94721132D01*
X53554539Y-94722965D01*
X53558790Y-94729580D01*
X54604386Y-95775176D01*
X54616766Y-95781936D01*
X54625107Y-95775692D01*
X54754391Y-95574697D01*
X54758838Y-95566506D01*
X54863536Y-95334085D01*
X54866731Y-95325307D01*
X54935923Y-95079968D01*
X54937781Y-95070839D01*
X54970144Y-94816444D01*
X54970625Y-94810158D01*
X54972903Y-94723160D01*
X54972752Y-94716851D01*
X54953747Y-94461110D01*
X54952370Y-94451904D01*
X54896109Y-94203262D01*
X54893385Y-94194351D01*
X54800990Y-93956758D01*
X54796979Y-93948349D01*
X54670482Y-93727027D01*
X54665269Y-93719298D01*
X54625633Y-93669019D01*
X54613709Y-93660549D01*
X54602174Y-93667036D01*
X53562022Y-94707188D01*
X53554408Y-94721132D01*
X52824356Y-94721132D01*
X52825592Y-94718868D01*
X52825461Y-94717035D01*
X52821210Y-94710420D01*
X51777119Y-93666329D01*
X51763811Y-93659062D01*
X51753772Y-93666184D01*
X51741433Y-93681020D01*
X51736018Y-93688612D01*
X51603776Y-93906540D01*
X51599538Y-93914857D01*
X51500961Y-94149935D01*
X51498000Y-94158785D01*
X51435255Y-94405849D01*
X51433633Y-94415046D01*
X51408094Y-94668673D01*
X51407849Y-94677999D01*
X49889865Y-94677999D01*
X49873747Y-94461110D01*
X49872370Y-94451904D01*
X49816109Y-94203262D01*
X49813385Y-94194351D01*
X49720990Y-93956758D01*
X49716979Y-93948349D01*
X49590482Y-93727027D01*
X49585269Y-93719298D01*
X49545633Y-93669019D01*
X49533709Y-93660549D01*
X49522174Y-93667036D01*
X48482022Y-94707188D01*
X48474408Y-94721132D01*
X47807694Y-94721132D01*
X47810924Y-94675968D01*
X47839885Y-94630905D01*
X49162790Y-93308000D01*
X49169174Y-93296310D01*
X49167656Y-93294357D01*
X52128770Y-93294357D01*
X52133343Y-93304133D01*
X53177188Y-94347978D01*
X53191132Y-94355592D01*
X53192965Y-94355461D01*
X53199580Y-94351210D01*
X54242790Y-93308000D01*
X54249174Y-93296310D01*
X54239762Y-93284199D01*
X54098776Y-93186392D01*
X54090741Y-93181659D01*
X53862106Y-93068909D01*
X53853473Y-93065421D01*
X53610675Y-92987701D01*
X53601624Y-92985528D01*
X53350009Y-92944550D01*
X53340720Y-92943738D01*
X53085828Y-92940401D01*
X53076517Y-92940971D01*
X52823927Y-92975347D01*
X52814808Y-92977285D01*
X52570084Y-93048616D01*
X52561331Y-93051888D01*
X52329837Y-93158608D01*
X52321682Y-93163128D01*
X52137907Y-93283616D01*
X52128770Y-93294357D01*
X49167656Y-93294357D01*
X49159762Y-93284199D01*
X49018776Y-93186392D01*
X49010741Y-93181659D01*
X48782106Y-93068909D01*
X48773473Y-93065421D01*
X48530675Y-92987701D01*
X48521624Y-92985528D01*
X48270009Y-92944550D01*
X48260720Y-92943738D01*
X48005828Y-92940401D01*
X47996517Y-92940971D01*
X47743927Y-92975347D01*
X47734808Y-92977285D01*
X47490084Y-93048616D01*
X47481331Y-93051888D01*
X47249837Y-93158608D01*
X47241682Y-93163128D01*
X47028500Y-93302896D01*
X47021103Y-93308573D01*
X46959901Y-93363197D01*
X46895760Y-93393634D01*
X46825345Y-93384562D01*
X46771013Y-93338862D01*
X46750000Y-93269193D01*
X46750000Y-91537034D01*
X46752421Y-91512453D01*
X46752477Y-91512171D01*
X46754898Y-91500000D01*
X46735495Y-91402455D01*
X46680240Y-91319760D01*
X46669924Y-91312867D01*
X46607862Y-91271398D01*
X46607860Y-91271397D01*
X46597545Y-91264505D01*
X46524624Y-91250000D01*
X46500000Y-91245102D01*
X46487829Y-91247523D01*
X46487547Y-91247579D01*
X46462966Y-91250000D01*
X43876000Y-91250000D01*
X43807879Y-91229998D01*
X43761386Y-91176342D01*
X43750000Y-91124000D01*
X43750000Y-88179779D01*
X45780954Y-88179779D01*
X45794182Y-88381604D01*
X45843968Y-88577638D01*
X45928646Y-88761317D01*
X46045378Y-88926490D01*
X46190256Y-89067623D01*
X46358427Y-89179992D01*
X46363730Y-89182270D01*
X46363733Y-89182272D01*
X46452081Y-89220229D01*
X46544260Y-89259832D01*
X46741530Y-89304470D01*
X46747299Y-89304697D01*
X46747302Y-89304697D01*
X46823473Y-89307689D01*
X46943632Y-89312410D01*
X47029922Y-89299899D01*
X47138076Y-89284218D01*
X47138081Y-89284217D01*
X47143797Y-89283388D01*
X47149269Y-89281530D01*
X47149271Y-89281530D01*
X47329857Y-89220229D01*
X47329859Y-89220228D01*
X47335321Y-89218374D01*
X47511791Y-89119547D01*
X47574223Y-89067623D01*
X47662863Y-88993901D01*
X47667295Y-88990215D01*
X47796627Y-88834711D01*
X47895454Y-88658241D01*
X47960468Y-88466717D01*
X47961297Y-88461001D01*
X47961298Y-88460996D01*
X47988957Y-88270226D01*
X47989490Y-88266552D01*
X47991005Y-88208710D01*
X47988347Y-88179779D01*
X48320954Y-88179779D01*
X48334182Y-88381604D01*
X48383968Y-88577638D01*
X48468646Y-88761317D01*
X48585378Y-88926490D01*
X48730256Y-89067623D01*
X48898427Y-89179992D01*
X48903730Y-89182270D01*
X48903733Y-89182272D01*
X48992081Y-89220229D01*
X49084260Y-89259832D01*
X49281530Y-89304470D01*
X49287299Y-89304697D01*
X49287302Y-89304697D01*
X49363473Y-89307689D01*
X49483632Y-89312410D01*
X49569922Y-89299899D01*
X49678076Y-89284218D01*
X49678081Y-89284217D01*
X49683797Y-89283388D01*
X49689269Y-89281530D01*
X49689271Y-89281530D01*
X49869857Y-89220229D01*
X49869859Y-89220228D01*
X49875321Y-89218374D01*
X50051791Y-89119547D01*
X50114223Y-89067623D01*
X50202863Y-88993901D01*
X50207295Y-88990215D01*
X50336627Y-88834711D01*
X50435454Y-88658241D01*
X50500468Y-88466717D01*
X50501297Y-88461001D01*
X50501298Y-88460996D01*
X50528957Y-88270226D01*
X50529490Y-88266552D01*
X50531005Y-88208710D01*
X50512498Y-88007301D01*
X50457597Y-87812636D01*
X50368141Y-87631237D01*
X50349869Y-87606767D01*
X50250578Y-87473801D01*
X50250577Y-87473800D01*
X50247125Y-87469177D01*
X50224140Y-87447930D01*
X50102843Y-87335804D01*
X50102841Y-87335802D01*
X50098602Y-87331884D01*
X50068462Y-87312867D01*
X49932427Y-87227035D01*
X49927547Y-87223956D01*
X49739688Y-87149008D01*
X49541316Y-87109549D01*
X49535542Y-87109473D01*
X49535538Y-87109473D01*
X49433047Y-87108132D01*
X49339076Y-87106902D01*
X49333379Y-87107881D01*
X49333378Y-87107881D01*
X49145436Y-87140175D01*
X49145435Y-87140175D01*
X49139739Y-87141154D01*
X48949983Y-87211159D01*
X48945022Y-87214111D01*
X48945021Y-87214111D01*
X48864386Y-87262084D01*
X48776161Y-87314572D01*
X48624095Y-87447930D01*
X48498879Y-87606767D01*
X48404704Y-87785763D01*
X48344727Y-87978923D01*
X48320954Y-88179779D01*
X47988347Y-88179779D01*
X47972498Y-88007301D01*
X47917597Y-87812636D01*
X47828141Y-87631237D01*
X47809869Y-87606767D01*
X47710578Y-87473801D01*
X47710577Y-87473800D01*
X47707125Y-87469177D01*
X47684140Y-87447930D01*
X47562843Y-87335804D01*
X47562841Y-87335802D01*
X47558602Y-87331884D01*
X47528462Y-87312867D01*
X47392427Y-87227035D01*
X47387547Y-87223956D01*
X47199688Y-87149008D01*
X47001316Y-87109549D01*
X46995542Y-87109473D01*
X46995538Y-87109473D01*
X46893047Y-87108132D01*
X46799076Y-87106902D01*
X46793379Y-87107881D01*
X46793378Y-87107881D01*
X46605436Y-87140175D01*
X46605435Y-87140175D01*
X46599739Y-87141154D01*
X46409983Y-87211159D01*
X46405022Y-87214111D01*
X46405021Y-87214111D01*
X46324386Y-87262084D01*
X46236161Y-87314572D01*
X46084095Y-87447930D01*
X45958879Y-87606767D01*
X45864704Y-87785763D01*
X45804727Y-87978923D01*
X45780954Y-88179779D01*
X43750000Y-88179779D01*
X43750000Y-85639779D01*
X45780954Y-85639779D01*
X45794182Y-85841604D01*
X45843968Y-86037638D01*
X45928646Y-86221317D01*
X46045378Y-86386490D01*
X46190256Y-86527623D01*
X46358427Y-86639992D01*
X46363730Y-86642270D01*
X46363733Y-86642272D01*
X46452081Y-86680229D01*
X46544260Y-86719832D01*
X46741530Y-86764470D01*
X46747299Y-86764697D01*
X46747302Y-86764697D01*
X46823473Y-86767689D01*
X46943632Y-86772410D01*
X47029922Y-86759899D01*
X47138076Y-86744218D01*
X47138081Y-86744217D01*
X47143797Y-86743388D01*
X47149269Y-86741530D01*
X47149271Y-86741530D01*
X47329857Y-86680229D01*
X47329859Y-86680228D01*
X47335321Y-86678374D01*
X47511791Y-86579547D01*
X47574223Y-86527623D01*
X47662863Y-86453901D01*
X47667295Y-86450215D01*
X47796627Y-86294711D01*
X47895454Y-86118241D01*
X47960468Y-85926717D01*
X47961297Y-85921001D01*
X47961298Y-85920996D01*
X47988957Y-85730226D01*
X47989490Y-85726552D01*
X47991005Y-85668710D01*
X47988347Y-85639779D01*
X48320954Y-85639779D01*
X48334182Y-85841604D01*
X48383968Y-86037638D01*
X48468646Y-86221317D01*
X48585378Y-86386490D01*
X48730256Y-86527623D01*
X48898427Y-86639992D01*
X48903730Y-86642270D01*
X48903733Y-86642272D01*
X48992081Y-86680229D01*
X49084260Y-86719832D01*
X49281530Y-86764470D01*
X49287299Y-86764697D01*
X49287302Y-86764697D01*
X49363473Y-86767689D01*
X49483632Y-86772410D01*
X49569922Y-86759899D01*
X49678076Y-86744218D01*
X49678081Y-86744217D01*
X49683797Y-86743388D01*
X49689269Y-86741530D01*
X49689271Y-86741530D01*
X49869857Y-86680229D01*
X49869859Y-86680228D01*
X49875321Y-86678374D01*
X50051791Y-86579547D01*
X50114223Y-86527623D01*
X50202863Y-86453901D01*
X50207295Y-86450215D01*
X50336627Y-86294711D01*
X50435454Y-86118241D01*
X50500468Y-85926717D01*
X50501297Y-85921001D01*
X50501298Y-85920996D01*
X50528957Y-85730226D01*
X50529490Y-85726552D01*
X50531005Y-85668710D01*
X50512498Y-85467301D01*
X50457597Y-85272636D01*
X50368141Y-85091237D01*
X50349869Y-85066767D01*
X50250578Y-84933801D01*
X50250577Y-84933800D01*
X50247125Y-84929177D01*
X50224140Y-84907930D01*
X50102843Y-84795804D01*
X50102841Y-84795802D01*
X50098602Y-84791884D01*
X50071164Y-84774572D01*
X49932427Y-84687035D01*
X49927547Y-84683956D01*
X49739688Y-84609008D01*
X49541316Y-84569549D01*
X49535542Y-84569473D01*
X49535538Y-84569473D01*
X49433047Y-84568132D01*
X49339076Y-84566902D01*
X49333379Y-84567881D01*
X49333378Y-84567881D01*
X49145436Y-84600175D01*
X49145435Y-84600175D01*
X49139739Y-84601154D01*
X48949983Y-84671159D01*
X48776161Y-84774572D01*
X48624095Y-84907930D01*
X48498879Y-85066767D01*
X48404704Y-85245763D01*
X48344727Y-85438923D01*
X48320954Y-85639779D01*
X47988347Y-85639779D01*
X47972498Y-85467301D01*
X47917597Y-85272636D01*
X47828141Y-85091237D01*
X47809869Y-85066767D01*
X47710578Y-84933801D01*
X47710577Y-84933800D01*
X47707125Y-84929177D01*
X47684140Y-84907930D01*
X47562843Y-84795804D01*
X47562841Y-84795802D01*
X47558602Y-84791884D01*
X47531164Y-84774572D01*
X47392427Y-84687035D01*
X47387547Y-84683956D01*
X47199688Y-84609008D01*
X47001316Y-84569549D01*
X46995542Y-84569473D01*
X46995538Y-84569473D01*
X46893047Y-84568132D01*
X46799076Y-84566902D01*
X46793379Y-84567881D01*
X46793378Y-84567881D01*
X46605436Y-84600175D01*
X46605435Y-84600175D01*
X46599739Y-84601154D01*
X46409983Y-84671159D01*
X46236161Y-84774572D01*
X46084095Y-84907930D01*
X45958879Y-85066767D01*
X45864704Y-85245763D01*
X45804727Y-85438923D01*
X45780954Y-85639779D01*
X43750000Y-85639779D01*
X43750000Y-70162893D01*
X45550179Y-70162893D01*
X45551702Y-70171317D01*
X45564082Y-70174710D01*
X47013790Y-70174710D01*
X47081911Y-70194712D01*
X47128404Y-70248368D01*
X47139790Y-70300710D01*
X47139790Y-70556710D01*
X47119788Y-70624831D01*
X47066132Y-70671324D01*
X47013790Y-70682710D01*
X45569015Y-70682710D01*
X45555484Y-70686683D01*
X45554047Y-70696676D01*
X45584355Y-70831156D01*
X45587435Y-70840985D01*
X45667560Y-71038313D01*
X45672203Y-71047504D01*
X45783484Y-71229098D01*
X45789567Y-71237409D01*
X45929003Y-71398377D01*
X45936370Y-71405593D01*
X46100224Y-71541626D01*
X46108671Y-71547541D01*
X46292546Y-71654989D01*
X46301832Y-71659439D01*
X46456592Y-71718535D01*
X46513095Y-71761522D01*
X46537388Y-71828233D01*
X46521758Y-71897488D01*
X46471167Y-71947298D01*
X46455255Y-71954457D01*
X46452558Y-71955452D01*
X46409983Y-71971159D01*
X46405022Y-71974111D01*
X46405021Y-71974111D01*
X46263482Y-72058318D01*
X46236161Y-72074572D01*
X46084095Y-72207930D01*
X45958879Y-72366767D01*
X45864704Y-72545763D01*
X45804727Y-72738923D01*
X45780954Y-72939779D01*
X45794182Y-73141604D01*
X45795605Y-73147206D01*
X45842121Y-73330364D01*
X45843968Y-73337638D01*
X45928646Y-73521317D01*
X45931979Y-73526033D01*
X46041801Y-73681428D01*
X46045378Y-73686490D01*
X46190256Y-73827623D01*
X46358427Y-73939992D01*
X46363730Y-73942270D01*
X46363733Y-73942272D01*
X46538953Y-74017552D01*
X46544260Y-74019832D01*
X46741530Y-74064470D01*
X46747299Y-74064697D01*
X46747302Y-74064697D01*
X46851351Y-74068785D01*
X46909782Y-74071080D01*
X46977065Y-74093741D01*
X46993931Y-74107888D01*
X47080355Y-74194312D01*
X47114381Y-74256624D01*
X47109316Y-74327439D01*
X47066769Y-74384275D01*
X47000249Y-74409086D01*
X46989616Y-74409396D01*
X46799076Y-74406902D01*
X46793379Y-74407881D01*
X46793378Y-74407881D01*
X46605436Y-74440175D01*
X46605435Y-74440175D01*
X46599739Y-74441154D01*
X46409983Y-74511159D01*
X46405022Y-74514111D01*
X46405021Y-74514111D01*
X46243394Y-74610269D01*
X46236161Y-74614572D01*
X46084095Y-74747930D01*
X45958879Y-74906767D01*
X45864704Y-75085763D01*
X45804727Y-75278923D01*
X45780954Y-75479779D01*
X45794182Y-75681604D01*
X45795605Y-75687206D01*
X45842121Y-75870364D01*
X45843968Y-75877638D01*
X45928646Y-76061317D01*
X45931979Y-76066033D01*
X46018127Y-76187930D01*
X46045378Y-76226490D01*
X46190256Y-76367623D01*
X46358427Y-76479992D01*
X46363730Y-76482270D01*
X46363733Y-76482272D01*
X46538953Y-76557552D01*
X46544260Y-76559832D01*
X46618323Y-76576591D01*
X46656763Y-76585289D01*
X46718050Y-76619087D01*
X46837611Y-76738648D01*
X46871637Y-76800960D01*
X46866572Y-76871775D01*
X46824025Y-76928611D01*
X46769854Y-76951923D01*
X46605436Y-76980175D01*
X46605435Y-76980175D01*
X46599739Y-76981154D01*
X46409983Y-77051159D01*
X46405022Y-77054111D01*
X46405021Y-77054111D01*
X46243394Y-77150269D01*
X46236161Y-77154572D01*
X46084095Y-77287930D01*
X45958879Y-77446767D01*
X45864704Y-77625763D01*
X45804727Y-77818923D01*
X45780954Y-78019779D01*
X45794182Y-78221604D01*
X45795605Y-78227206D01*
X45842121Y-78410364D01*
X45843968Y-78417638D01*
X45928646Y-78601317D01*
X45931979Y-78606033D01*
X46041801Y-78761428D01*
X46045378Y-78766490D01*
X46190256Y-78907623D01*
X46358427Y-79019992D01*
X46363730Y-79022270D01*
X46363733Y-79022272D01*
X46538953Y-79097552D01*
X46544260Y-79099832D01*
X46741530Y-79144470D01*
X46747299Y-79144697D01*
X46747302Y-79144697D01*
X46851351Y-79148785D01*
X46909782Y-79151080D01*
X46977065Y-79173741D01*
X46993931Y-79187888D01*
X47080355Y-79274312D01*
X47114381Y-79336624D01*
X47109316Y-79407439D01*
X47066769Y-79464275D01*
X47000249Y-79489086D01*
X46989616Y-79489396D01*
X46799076Y-79486902D01*
X46793379Y-79487881D01*
X46793378Y-79487881D01*
X46605436Y-79520175D01*
X46605435Y-79520175D01*
X46599739Y-79521154D01*
X46409983Y-79591159D01*
X46405022Y-79594111D01*
X46405021Y-79594111D01*
X46243394Y-79690269D01*
X46236161Y-79694572D01*
X46084095Y-79827930D01*
X45958879Y-79986767D01*
X45864704Y-80165763D01*
X45804727Y-80358923D01*
X45780954Y-80559779D01*
X45794182Y-80761604D01*
X45795605Y-80767206D01*
X45842121Y-80950364D01*
X45843968Y-80957638D01*
X45928646Y-81141317D01*
X45931979Y-81146033D01*
X46041801Y-81301428D01*
X46045378Y-81306490D01*
X46190256Y-81447623D01*
X46358427Y-81559992D01*
X46363730Y-81562270D01*
X46363733Y-81562272D01*
X46538953Y-81637552D01*
X46544260Y-81639832D01*
X46741530Y-81684470D01*
X46747299Y-81684697D01*
X46747302Y-81684697D01*
X46863831Y-81689275D01*
X46909781Y-81691080D01*
X46977064Y-81713741D01*
X46993931Y-81727888D01*
X47080354Y-81814312D01*
X47114379Y-81876624D01*
X47109313Y-81947440D01*
X47066766Y-82004276D01*
X47000246Y-82029086D01*
X46989614Y-82029396D01*
X46799076Y-82026902D01*
X46793379Y-82027881D01*
X46793378Y-82027881D01*
X46605436Y-82060175D01*
X46605435Y-82060175D01*
X46599739Y-82061154D01*
X46409983Y-82131159D01*
X46405022Y-82134111D01*
X46405021Y-82134111D01*
X46246492Y-82228426D01*
X46236161Y-82234572D01*
X46084095Y-82367930D01*
X45958879Y-82526767D01*
X45864704Y-82705763D01*
X45804727Y-82898923D01*
X45780954Y-83099779D01*
X45794182Y-83301604D01*
X45843968Y-83497638D01*
X45928646Y-83681317D01*
X46045378Y-83846490D01*
X46190256Y-83987623D01*
X46358427Y-84099992D01*
X46363730Y-84102270D01*
X46363733Y-84102272D01*
X46452081Y-84140229D01*
X46544260Y-84179832D01*
X46741530Y-84224470D01*
X46747299Y-84224697D01*
X46747302Y-84224697D01*
X46823473Y-84227689D01*
X46943632Y-84232410D01*
X47029922Y-84219899D01*
X47138076Y-84204218D01*
X47138081Y-84204217D01*
X47143797Y-84203388D01*
X47149269Y-84201530D01*
X47149271Y-84201530D01*
X47329857Y-84140229D01*
X47329859Y-84140228D01*
X47335321Y-84138374D01*
X47511791Y-84039547D01*
X47574223Y-83987623D01*
X47662863Y-83913901D01*
X47667295Y-83910215D01*
X47796627Y-83754711D01*
X47895454Y-83578241D01*
X47960468Y-83386717D01*
X47961297Y-83381001D01*
X47961298Y-83380996D01*
X47988957Y-83190226D01*
X47989490Y-83186552D01*
X47991005Y-83128710D01*
X47972498Y-82927301D01*
X47917597Y-82732636D01*
X47828141Y-82551237D01*
X47813684Y-82531877D01*
X47750221Y-82446889D01*
X47725489Y-82380339D01*
X47740664Y-82310983D01*
X47790926Y-82260841D01*
X47851179Y-82245500D01*
X48460837Y-82245500D01*
X48528958Y-82265502D01*
X48575451Y-82319158D01*
X48585555Y-82389432D01*
X48559787Y-82449505D01*
X48498879Y-82526767D01*
X48404704Y-82705763D01*
X48344727Y-82898923D01*
X48320954Y-83099779D01*
X48334182Y-83301604D01*
X48383968Y-83497638D01*
X48468646Y-83681317D01*
X48585378Y-83846490D01*
X48730256Y-83987623D01*
X48898427Y-84099992D01*
X48903730Y-84102270D01*
X48903733Y-84102272D01*
X48992081Y-84140229D01*
X49084260Y-84179832D01*
X49281530Y-84224470D01*
X49287299Y-84224697D01*
X49287302Y-84224697D01*
X49363473Y-84227689D01*
X49483632Y-84232410D01*
X49569922Y-84219899D01*
X49678076Y-84204218D01*
X49678081Y-84204217D01*
X49683797Y-84203388D01*
X49689269Y-84201530D01*
X49689271Y-84201530D01*
X49869857Y-84140229D01*
X49869859Y-84140228D01*
X49875321Y-84138374D01*
X50051791Y-84039547D01*
X50114223Y-83987623D01*
X50202863Y-83913901D01*
X50207295Y-83910215D01*
X50336627Y-83754711D01*
X50435454Y-83578241D01*
X50500468Y-83386717D01*
X50501297Y-83381001D01*
X50501298Y-83380996D01*
X50528957Y-83190226D01*
X50529490Y-83186552D01*
X50531005Y-83128710D01*
X50512498Y-82927301D01*
X50457597Y-82732636D01*
X50368141Y-82551237D01*
X50353684Y-82531877D01*
X50290221Y-82446889D01*
X50265489Y-82380339D01*
X50280664Y-82310983D01*
X50330926Y-82260841D01*
X50391179Y-82245500D01*
X67076504Y-82245500D01*
X67099801Y-82247979D01*
X67101886Y-82248077D01*
X67112066Y-82250269D01*
X67144984Y-82246373D01*
X67150821Y-82246029D01*
X67150813Y-82245928D01*
X67155992Y-82245500D01*
X67161193Y-82245500D01*
X67166321Y-82244646D01*
X67166327Y-82244646D01*
X67179987Y-82242372D01*
X67185863Y-82241535D01*
X67190952Y-82240933D01*
X67236210Y-82235576D01*
X67244377Y-82231654D01*
X67253313Y-82230167D01*
X67262475Y-82225223D01*
X67262479Y-82225222D01*
X67297929Y-82206094D01*
X67303220Y-82203398D01*
X67341749Y-82184897D01*
X67341750Y-82184896D01*
X67348900Y-82181463D01*
X67353131Y-82177906D01*
X67355063Y-82175974D01*
X67356937Y-82174255D01*
X67357074Y-82174181D01*
X67357174Y-82174291D01*
X67357654Y-82173868D01*
X67363329Y-82170806D01*
X67399541Y-82131632D01*
X67402970Y-82128067D01*
X75697689Y-73833348D01*
X75715920Y-73818623D01*
X75717460Y-73817222D01*
X75726210Y-73811572D01*
X75746736Y-73785535D01*
X75750617Y-73781168D01*
X75750539Y-73781102D01*
X75753893Y-73777144D01*
X75757575Y-73773462D01*
X75768661Y-73757948D01*
X75772217Y-73753212D01*
X75774580Y-73750215D01*
X75803603Y-73713400D01*
X75806605Y-73704851D01*
X75811872Y-73697481D01*
X75826394Y-73648922D01*
X75828227Y-73643281D01*
X75842395Y-73602936D01*
X75842395Y-73602935D01*
X75845023Y-73595452D01*
X75845500Y-73589945D01*
X75845500Y-73587238D01*
X75845611Y-73584666D01*
X75845659Y-73584506D01*
X75845803Y-73584512D01*
X75845842Y-73583894D01*
X75847690Y-73577714D01*
X75845597Y-73524445D01*
X75845500Y-73519499D01*
X75845500Y-57103496D01*
X75847979Y-57080199D01*
X75848077Y-57078114D01*
X75850269Y-57067934D01*
X75846373Y-57035016D01*
X75846029Y-57029179D01*
X75845928Y-57029187D01*
X75845500Y-57024008D01*
X75845500Y-57018807D01*
X75843548Y-57007075D01*
X75842372Y-57000013D01*
X75841535Y-56994137D01*
X75838971Y-56972472D01*
X75835576Y-56943790D01*
X75831654Y-56935623D01*
X75830167Y-56926687D01*
X75825223Y-56917525D01*
X75825222Y-56917521D01*
X75806094Y-56882071D01*
X75803398Y-56876780D01*
X75784897Y-56838251D01*
X75784896Y-56838250D01*
X75781463Y-56831100D01*
X75777906Y-56826869D01*
X75775974Y-56824937D01*
X75774255Y-56823063D01*
X75774181Y-56822926D01*
X75774291Y-56822826D01*
X75773868Y-56822346D01*
X75770806Y-56816671D01*
X75758156Y-56804977D01*
X75731633Y-56780460D01*
X75728067Y-56777030D01*
X75103348Y-56152311D01*
X75088623Y-56134080D01*
X75087222Y-56132540D01*
X75081572Y-56123790D01*
X75055535Y-56103264D01*
X75051168Y-56099383D01*
X75051102Y-56099461D01*
X75047144Y-56096107D01*
X75043462Y-56092425D01*
X75039231Y-56089402D01*
X75039228Y-56089399D01*
X75034409Y-56085956D01*
X75027948Y-56081339D01*
X75023212Y-56077783D01*
X74983400Y-56046397D01*
X74974851Y-56043395D01*
X74967481Y-56038128D01*
X74934203Y-56028176D01*
X74918930Y-56023608D01*
X74913286Y-56021774D01*
X74872935Y-56007604D01*
X74872929Y-56007603D01*
X74865452Y-56004977D01*
X74859945Y-56004500D01*
X74857238Y-56004500D01*
X74854665Y-56004389D01*
X74854506Y-56004341D01*
X74854512Y-56004197D01*
X74853892Y-56004158D01*
X74847713Y-56002310D01*
X74794445Y-56004403D01*
X74789498Y-56004500D01*
X69510727Y-56004500D01*
X69442606Y-55984498D01*
X69396113Y-55930842D01*
X69386009Y-55860568D01*
X69415503Y-55795988D01*
X69421632Y-55789405D01*
X70123556Y-55087481D01*
X70127654Y-55083868D01*
X70133329Y-55080806D01*
X70169541Y-55041632D01*
X70172970Y-55038067D01*
X71417689Y-53793348D01*
X71435920Y-53778623D01*
X71437460Y-53777222D01*
X71446210Y-53771572D01*
X71466736Y-53745535D01*
X71470617Y-53741168D01*
X71470539Y-53741102D01*
X71473893Y-53737144D01*
X71477575Y-53733462D01*
X71488661Y-53717948D01*
X71492217Y-53713212D01*
X71523603Y-53673400D01*
X71526605Y-53664851D01*
X71531872Y-53657481D01*
X71546394Y-53608922D01*
X71548227Y-53603281D01*
X71562395Y-53562936D01*
X71562395Y-53562935D01*
X71565023Y-53555452D01*
X71565500Y-53549945D01*
X71565500Y-53547238D01*
X71565611Y-53544666D01*
X71565659Y-53544506D01*
X71565803Y-53544512D01*
X71565842Y-53543894D01*
X71567690Y-53537714D01*
X71565597Y-53484436D01*
X71565500Y-53479499D01*
X71565500Y-45623496D01*
X71567979Y-45600208D01*
X71568078Y-45598110D01*
X71570269Y-45587933D01*
X71566373Y-45555015D01*
X71566029Y-45549179D01*
X71565928Y-45549187D01*
X71565500Y-45544008D01*
X71565500Y-45538807D01*
X71562371Y-45520007D01*
X71561534Y-45514130D01*
X71556800Y-45474134D01*
X71555576Y-45463790D01*
X71551654Y-45455623D01*
X71550167Y-45446687D01*
X71545223Y-45437525D01*
X71545222Y-45437521D01*
X71526094Y-45402071D01*
X71523398Y-45396780D01*
X71504897Y-45358251D01*
X71504896Y-45358250D01*
X71501463Y-45351100D01*
X71497906Y-45346869D01*
X71495974Y-45344937D01*
X71494255Y-45343063D01*
X71494181Y-45342926D01*
X71494291Y-45342826D01*
X71493868Y-45342346D01*
X71490806Y-45336671D01*
X71451632Y-45300459D01*
X71448067Y-45297030D01*
X69543348Y-43392311D01*
X69528623Y-43374080D01*
X69527222Y-43372540D01*
X69521572Y-43363790D01*
X69495535Y-43343264D01*
X69491168Y-43339383D01*
X69491102Y-43339461D01*
X69487144Y-43336107D01*
X69483462Y-43332425D01*
X69479231Y-43329402D01*
X69479228Y-43329399D01*
X69474409Y-43325956D01*
X69467948Y-43321339D01*
X69463212Y-43317783D01*
X69423400Y-43286397D01*
X69414851Y-43283395D01*
X69407481Y-43278128D01*
X69366202Y-43265783D01*
X69358930Y-43263608D01*
X69353286Y-43261774D01*
X69312935Y-43247604D01*
X69312929Y-43247603D01*
X69305452Y-43244977D01*
X69299945Y-43244500D01*
X69297238Y-43244500D01*
X69294665Y-43244389D01*
X69294506Y-43244341D01*
X69294512Y-43244197D01*
X69293892Y-43244158D01*
X69287713Y-43242310D01*
X69234445Y-43244403D01*
X69229498Y-43244500D01*
X63117727Y-43244500D01*
X63049606Y-43224498D01*
X63028632Y-43207595D01*
X60872917Y-41051880D01*
X60838891Y-40989568D01*
X60843956Y-40918753D01*
X60886503Y-40861917D01*
X60953023Y-40837106D01*
X60998110Y-40842067D01*
X61011977Y-40846214D01*
X61029411Y-40852871D01*
X61052163Y-40863553D01*
X61061037Y-40864935D01*
X61064650Y-40866039D01*
X61079327Y-40869890D01*
X61083015Y-40870701D01*
X61091420Y-40873852D01*
X61100374Y-40874518D01*
X61108458Y-40876295D01*
X61116660Y-40877521D01*
X61125261Y-40880093D01*
X61134234Y-40880148D01*
X61134235Y-40880148D01*
X61138516Y-40880174D01*
X61159182Y-40880301D01*
X61159925Y-40880332D01*
X61161009Y-40880500D01*
X61176204Y-40880500D01*
X61185541Y-40880846D01*
X61225441Y-40883811D01*
X61225442Y-40883811D01*
X61234392Y-40884476D01*
X61243171Y-40882602D01*
X61251454Y-40882037D01*
X61254160Y-40881666D01*
X61264732Y-40880945D01*
X61268624Y-40880969D01*
X61269953Y-40880589D01*
X61271261Y-40880500D01*
X61571691Y-40880500D01*
X61639812Y-40900502D01*
X61672515Y-40930932D01*
X61698884Y-40966116D01*
X61717212Y-40979852D01*
X61803559Y-41044567D01*
X61803562Y-41044569D01*
X61810741Y-41049949D01*
X61819145Y-41053099D01*
X61819146Y-41053100D01*
X61934237Y-41096245D01*
X61934239Y-41096245D01*
X61941632Y-41099017D01*
X61949480Y-41099870D01*
X61949482Y-41099870D01*
X61997903Y-41105130D01*
X62001309Y-41105500D01*
X62347449Y-41105500D01*
X62693690Y-41105499D01*
X62697085Y-41105130D01*
X62697090Y-41105130D01*
X62745510Y-41099871D01*
X62745514Y-41099870D01*
X62753368Y-41099017D01*
X62884259Y-41049949D01*
X62891438Y-41044569D01*
X62891441Y-41044567D01*
X62964719Y-40989647D01*
X63031226Y-40964799D01*
X63100608Y-40979852D01*
X63147429Y-41024170D01*
X63180424Y-41077490D01*
X63189460Y-41088890D01*
X63302129Y-41201363D01*
X63313540Y-41210375D01*
X63449063Y-41293912D01*
X63462241Y-41300056D01*
X63613766Y-41350315D01*
X63627132Y-41353181D01*
X63719770Y-41362672D01*
X63726185Y-41363000D01*
X63800385Y-41363000D01*
X63815624Y-41358525D01*
X63816829Y-41357135D01*
X63818500Y-41349452D01*
X63818500Y-41344885D01*
X64326500Y-41344885D01*
X64330975Y-41360124D01*
X64332365Y-41361329D01*
X64340048Y-41363000D01*
X64418766Y-41363000D01*
X64425282Y-41362663D01*
X64519132Y-41352925D01*
X64532528Y-41350032D01*
X64683953Y-41299512D01*
X64697115Y-41293347D01*
X64832492Y-41209574D01*
X64843890Y-41200540D01*
X64956363Y-41087871D01*
X64965375Y-41076460D01*
X65048912Y-40940937D01*
X65055056Y-40927759D01*
X65105315Y-40776234D01*
X65108181Y-40762868D01*
X65117672Y-40670230D01*
X65118000Y-40663815D01*
X65118000Y-40652115D01*
X65113525Y-40636876D01*
X65112135Y-40635671D01*
X65104452Y-40634000D01*
X64344615Y-40634000D01*
X64329376Y-40638475D01*
X64328171Y-40639865D01*
X64326500Y-40647548D01*
X64326500Y-41344885D01*
X63818500Y-41344885D01*
X63818500Y-40107885D01*
X64326500Y-40107885D01*
X64330975Y-40123124D01*
X64332365Y-40124329D01*
X64340048Y-40126000D01*
X65099885Y-40126000D01*
X65115124Y-40121525D01*
X65116329Y-40120135D01*
X65118000Y-40112452D01*
X65118000Y-40096234D01*
X65117663Y-40089718D01*
X65107925Y-39995868D01*
X65105032Y-39982472D01*
X65054512Y-39831047D01*
X65048347Y-39817885D01*
X64964574Y-39682508D01*
X64955540Y-39671110D01*
X64842871Y-39558637D01*
X64831460Y-39549625D01*
X64695937Y-39466088D01*
X64682759Y-39459944D01*
X64531234Y-39409685D01*
X64517868Y-39406819D01*
X64425230Y-39397328D01*
X64418815Y-39397000D01*
X64344615Y-39397000D01*
X64329376Y-39401475D01*
X64328171Y-39402865D01*
X64326500Y-39410548D01*
X64326500Y-40107885D01*
X63818500Y-40107885D01*
X63818500Y-39415115D01*
X63814025Y-39399876D01*
X63799626Y-39387399D01*
X63761242Y-39327673D01*
X63761242Y-39256676D01*
X63799625Y-39196950D01*
X63864058Y-39167478D01*
X64034045Y-39142832D01*
X64045240Y-39140144D01*
X64227131Y-39078400D01*
X64237628Y-39073726D01*
X64348032Y-39011898D01*
X64357895Y-39001821D01*
X64354940Y-38994151D01*
X63792811Y-38432021D01*
X63778868Y-38424408D01*
X63777034Y-38424539D01*
X63770420Y-38428790D01*
X63209259Y-38989952D01*
X63203066Y-39001294D01*
X63212948Y-39013783D01*
X63244239Y-39034691D01*
X63254349Y-39040181D01*
X63430835Y-39116005D01*
X63441778Y-39119560D01*
X63626020Y-39161250D01*
X63688047Y-39195793D01*
X63721551Y-39258386D01*
X63715897Y-39329157D01*
X63672878Y-39385637D01*
X63624809Y-39407304D01*
X63612472Y-39409968D01*
X63461047Y-39460488D01*
X63447885Y-39466653D01*
X63312508Y-39550426D01*
X63301110Y-39559460D01*
X63188637Y-39672129D01*
X63179625Y-39683540D01*
X63147520Y-39735624D01*
X63094748Y-39783117D01*
X63024676Y-39794541D01*
X62964695Y-39770334D01*
X62891445Y-39715436D01*
X62891442Y-39715434D01*
X62884259Y-39710051D01*
X62810787Y-39682508D01*
X62760763Y-39663755D01*
X62760761Y-39663755D01*
X62753368Y-39660983D01*
X62745520Y-39660130D01*
X62745518Y-39660130D01*
X62697088Y-39654869D01*
X62697087Y-39654869D01*
X62693691Y-39654500D01*
X62690274Y-39654500D01*
X62346841Y-39654501D01*
X62001310Y-39654501D01*
X62000409Y-39654599D01*
X61931773Y-39638423D01*
X61882445Y-39587362D01*
X61877649Y-39577111D01*
X61861583Y-39538322D01*
X61861580Y-39538317D01*
X61858421Y-39530690D01*
X61763289Y-39406711D01*
X61756739Y-39401685D01*
X61756736Y-39401682D01*
X61691828Y-39351877D01*
X61639311Y-39311579D01*
X61494935Y-39251777D01*
X61340000Y-39231379D01*
X61185065Y-39251777D01*
X61040690Y-39311579D01*
X61023718Y-39324602D01*
X61014453Y-39331711D01*
X60948232Y-39357310D01*
X60878684Y-39343044D01*
X60848656Y-39320842D01*
X60617006Y-39089192D01*
X60582980Y-39026880D01*
X60588045Y-38956065D01*
X60630592Y-38899229D01*
X60697112Y-38874418D01*
X60732298Y-38876850D01*
X60884152Y-38909128D01*
X60884156Y-38909128D01*
X60890609Y-38910500D01*
X61069391Y-38910500D01*
X61075844Y-38909128D01*
X61075848Y-38909128D01*
X61156829Y-38891914D01*
X61244267Y-38873329D01*
X61250298Y-38870644D01*
X61401563Y-38803297D01*
X61401565Y-38803296D01*
X61407593Y-38800612D01*
X61414024Y-38795940D01*
X61546891Y-38699405D01*
X61552230Y-38695526D01*
X61586364Y-38657616D01*
X61646809Y-38620377D01*
X61717793Y-38621728D01*
X61773636Y-38657616D01*
X61807770Y-38695526D01*
X61813109Y-38699405D01*
X61945977Y-38795940D01*
X61952407Y-38800612D01*
X61958435Y-38803296D01*
X61958437Y-38803297D01*
X62109702Y-38870644D01*
X62115733Y-38873329D01*
X62203171Y-38891914D01*
X62284152Y-38909128D01*
X62284156Y-38909128D01*
X62290609Y-38910500D01*
X62469391Y-38910500D01*
X62475844Y-38909128D01*
X62475848Y-38909128D01*
X62556829Y-38891914D01*
X62644267Y-38873329D01*
X62650298Y-38870644D01*
X62801563Y-38803297D01*
X62801565Y-38803296D01*
X62807593Y-38800612D01*
X62814024Y-38795940D01*
X62946891Y-38699405D01*
X62952230Y-38695526D01*
X62985922Y-38658108D01*
X63067440Y-38567573D01*
X63067441Y-38567572D01*
X63071859Y-38562665D01*
X63129798Y-38462311D01*
X63157946Y-38413558D01*
X63157947Y-38413557D01*
X63161250Y-38407835D01*
X63194400Y-38305810D01*
X63225137Y-38255652D01*
X63407981Y-38072808D01*
X63414357Y-38061132D01*
X64144408Y-38061132D01*
X64144539Y-38062966D01*
X64148790Y-38069580D01*
X64710239Y-38631028D01*
X64722614Y-38637785D01*
X64729194Y-38632859D01*
X64793726Y-38517628D01*
X64798400Y-38507131D01*
X64860144Y-38325240D01*
X64862832Y-38314045D01*
X64890689Y-38121911D01*
X64891319Y-38114528D01*
X64892650Y-38063704D01*
X64892407Y-38056305D01*
X64874643Y-37862975D01*
X64872545Y-37851654D01*
X64820408Y-37666791D01*
X64816283Y-37656044D01*
X64732163Y-37485465D01*
X64724869Y-37479990D01*
X64712449Y-37486762D01*
X64152021Y-38047189D01*
X64144408Y-38061132D01*
X63414357Y-38061132D01*
X63415592Y-38058870D01*
X63415461Y-38057034D01*
X63411211Y-38050421D01*
X63225137Y-37864348D01*
X63194399Y-37814188D01*
X63182524Y-37777638D01*
X63161250Y-37712165D01*
X63071859Y-37557335D01*
X63002217Y-37479990D01*
X62956645Y-37429377D01*
X62956643Y-37429376D01*
X62952230Y-37424474D01*
X62807593Y-37319388D01*
X62801565Y-37316704D01*
X62801563Y-37316703D01*
X62650298Y-37249356D01*
X62650297Y-37249356D01*
X62644267Y-37246671D01*
X62556436Y-37228002D01*
X62475848Y-37210872D01*
X62475844Y-37210872D01*
X62469391Y-37209500D01*
X62290609Y-37209500D01*
X62284156Y-37210872D01*
X62284152Y-37210872D01*
X62188853Y-37231129D01*
X62155120Y-37238299D01*
X62084330Y-37232897D01*
X62039829Y-37204147D01*
X61954357Y-37118675D01*
X63202788Y-37118675D01*
X63206275Y-37127064D01*
X63767189Y-37687979D01*
X63781132Y-37695592D01*
X63782966Y-37695461D01*
X63789580Y-37691210D01*
X64350285Y-37130504D01*
X64357042Y-37118129D01*
X64351012Y-37110073D01*
X64290061Y-37071616D01*
X64279813Y-37066395D01*
X64101401Y-36995216D01*
X64090373Y-36991949D01*
X63901982Y-36954476D01*
X63890535Y-36953273D01*
X63698477Y-36950759D01*
X63686997Y-36951662D01*
X63497697Y-36984190D01*
X63486577Y-36987170D01*
X63306365Y-37053653D01*
X63295991Y-37058601D01*
X63212385Y-37108342D01*
X63202788Y-37118675D01*
X61954357Y-37118675D01*
X61194263Y-36358581D01*
X61182185Y-36343627D01*
X61178953Y-36340075D01*
X61173305Y-36331328D01*
X61149394Y-36312478D01*
X61145459Y-36308981D01*
X61145371Y-36309085D01*
X61141412Y-36305730D01*
X61137734Y-36302052D01*
X61133509Y-36299033D01*
X61133501Y-36299026D01*
X61123400Y-36291808D01*
X61118653Y-36288244D01*
X61108198Y-36280002D01*
X61081669Y-36259088D01*
X61073693Y-36256287D01*
X61066811Y-36251369D01*
X61021644Y-36237861D01*
X61016038Y-36236039D01*
X60979057Y-36223052D01*
X60979051Y-36223051D01*
X60971574Y-36220425D01*
X60966436Y-36219980D01*
X60963717Y-36219980D01*
X60961535Y-36219885D01*
X60961000Y-36219725D01*
X60961001Y-36219698D01*
X60960883Y-36219691D01*
X60955016Y-36217936D01*
X60905461Y-36219883D01*
X60900514Y-36219980D01*
X60049678Y-36219980D01*
X59981557Y-36199978D01*
X59935064Y-36146322D01*
X59924960Y-36076048D01*
X59953157Y-36012989D01*
X59991774Y-35966967D01*
X59998708Y-35956841D01*
X60088002Y-35794415D01*
X60092834Y-35783142D01*
X60148880Y-35606462D01*
X60151430Y-35594468D01*
X60167607Y-35450239D01*
X60168000Y-35443215D01*
X60168000Y-35436657D01*
X63492000Y-35436657D01*
X63492301Y-35442805D01*
X63505812Y-35580603D01*
X63508195Y-35592638D01*
X63561767Y-35770076D01*
X63566441Y-35781416D01*
X63653460Y-35945077D01*
X63660249Y-35955294D01*
X63777397Y-36098933D01*
X63786041Y-36107637D01*
X63928856Y-36225784D01*
X63939027Y-36232644D01*
X64102076Y-36320804D01*
X64113381Y-36325556D01*
X64228692Y-36361250D01*
X64242795Y-36361456D01*
X64246000Y-36354701D01*
X64246000Y-36347924D01*
X64754000Y-36347924D01*
X64757973Y-36361455D01*
X64765768Y-36362575D01*
X64873521Y-36330862D01*
X64884889Y-36326269D01*
X65049154Y-36240393D01*
X65059415Y-36233679D01*
X65203873Y-36117532D01*
X65212632Y-36108954D01*
X65331778Y-35966961D01*
X65338708Y-35956841D01*
X65428002Y-35794415D01*
X65432834Y-35783142D01*
X65488880Y-35606462D01*
X65491430Y-35594468D01*
X65507607Y-35450239D01*
X65508000Y-35443215D01*
X65508000Y-35062115D01*
X65503525Y-35046876D01*
X65502135Y-35045671D01*
X65494452Y-35044000D01*
X64772115Y-35044000D01*
X64756876Y-35048475D01*
X64755671Y-35049865D01*
X64754000Y-35057548D01*
X64754000Y-36347924D01*
X64246000Y-36347924D01*
X64246000Y-35062115D01*
X64241525Y-35046876D01*
X64240135Y-35045671D01*
X64232452Y-35044000D01*
X63510115Y-35044000D01*
X63494876Y-35048475D01*
X63493671Y-35049865D01*
X63492000Y-35057548D01*
X63492000Y-35436657D01*
X60168000Y-35436657D01*
X60168000Y-35062115D01*
X60163525Y-35046876D01*
X60162135Y-35045671D01*
X60154452Y-35044000D01*
X58170115Y-35044000D01*
X58154876Y-35048475D01*
X58153671Y-35049865D01*
X58152000Y-35057548D01*
X58152000Y-35307122D01*
X58131998Y-35375243D01*
X58078342Y-35421736D01*
X58008068Y-35431840D01*
X57943488Y-35402346D01*
X57936905Y-35396217D01*
X57058573Y-34517885D01*
X58152000Y-34517885D01*
X58156475Y-34533124D01*
X58157865Y-34534329D01*
X58165548Y-34536000D01*
X58887885Y-34536000D01*
X58903124Y-34531525D01*
X58904329Y-34530135D01*
X58906000Y-34522452D01*
X58906000Y-34517885D01*
X59414000Y-34517885D01*
X59418475Y-34533124D01*
X59419865Y-34534329D01*
X59427548Y-34536000D01*
X60149885Y-34536000D01*
X60165124Y-34531525D01*
X60166329Y-34530135D01*
X60168000Y-34522452D01*
X60168000Y-34517885D01*
X63492000Y-34517885D01*
X63496475Y-34533124D01*
X63497865Y-34534329D01*
X63505548Y-34536000D01*
X64227885Y-34536000D01*
X64243124Y-34531525D01*
X64244329Y-34530135D01*
X64246000Y-34522452D01*
X64246000Y-34517885D01*
X64754000Y-34517885D01*
X64758475Y-34533124D01*
X64759865Y-34534329D01*
X64767548Y-34536000D01*
X65489885Y-34536000D01*
X65505124Y-34531525D01*
X65506329Y-34530135D01*
X65508000Y-34522452D01*
X65508000Y-34143343D01*
X65507699Y-34137195D01*
X65494188Y-33999397D01*
X65491805Y-33987362D01*
X65438233Y-33809924D01*
X65433559Y-33798584D01*
X65346540Y-33634923D01*
X65339751Y-33624706D01*
X65222603Y-33481067D01*
X65213959Y-33472363D01*
X65071144Y-33354216D01*
X65060973Y-33347356D01*
X64897924Y-33259196D01*
X64886619Y-33254444D01*
X64771308Y-33218750D01*
X64757205Y-33218544D01*
X64754000Y-33225299D01*
X64754000Y-34517885D01*
X64246000Y-34517885D01*
X64246000Y-33232076D01*
X64242027Y-33218545D01*
X64234232Y-33217425D01*
X64126479Y-33249138D01*
X64115111Y-33253731D01*
X63950846Y-33339607D01*
X63940585Y-33346321D01*
X63796127Y-33462468D01*
X63787368Y-33471046D01*
X63668222Y-33613039D01*
X63661292Y-33623159D01*
X63571998Y-33785585D01*
X63567166Y-33796858D01*
X63511120Y-33973538D01*
X63508570Y-33985532D01*
X63492393Y-34129761D01*
X63492000Y-34136785D01*
X63492000Y-34517885D01*
X60168000Y-34517885D01*
X60168000Y-34143343D01*
X60167699Y-34137195D01*
X60154188Y-33999397D01*
X60151805Y-33987362D01*
X60098233Y-33809924D01*
X60093559Y-33798584D01*
X60006540Y-33634923D01*
X59999751Y-33624706D01*
X59882603Y-33481067D01*
X59873959Y-33472363D01*
X59731144Y-33354216D01*
X59720973Y-33347356D01*
X59557924Y-33259196D01*
X59546619Y-33254444D01*
X59431308Y-33218750D01*
X59417205Y-33218544D01*
X59414000Y-33225299D01*
X59414000Y-34517885D01*
X58906000Y-34517885D01*
X58906000Y-33232076D01*
X58902027Y-33218545D01*
X58894232Y-33217425D01*
X58786479Y-33249138D01*
X58775111Y-33253731D01*
X58610846Y-33339607D01*
X58600585Y-33346321D01*
X58456127Y-33462468D01*
X58447368Y-33471046D01*
X58328222Y-33613039D01*
X58321292Y-33623159D01*
X58231998Y-33785585D01*
X58227166Y-33796858D01*
X58171120Y-33973538D01*
X58168570Y-33985532D01*
X58152393Y-34129761D01*
X58152000Y-34136785D01*
X58152000Y-34517885D01*
X57058573Y-34517885D01*
X54137345Y-31596657D01*
X58152000Y-31596657D01*
X58152301Y-31602805D01*
X58165812Y-31740603D01*
X58168195Y-31752638D01*
X58221767Y-31930076D01*
X58226441Y-31941416D01*
X58313460Y-32105077D01*
X58320249Y-32115294D01*
X58437397Y-32258933D01*
X58446041Y-32267637D01*
X58588856Y-32385784D01*
X58599027Y-32392644D01*
X58762076Y-32480804D01*
X58773381Y-32485556D01*
X58888692Y-32521250D01*
X58902795Y-32521456D01*
X58906000Y-32514701D01*
X58906000Y-32507924D01*
X59414000Y-32507924D01*
X59417973Y-32521455D01*
X59425768Y-32522575D01*
X59533521Y-32490862D01*
X59544889Y-32486269D01*
X59709154Y-32400393D01*
X59719415Y-32393679D01*
X59863873Y-32277532D01*
X59872632Y-32268954D01*
X59991778Y-32126961D01*
X59998708Y-32116841D01*
X60088002Y-31954415D01*
X60092834Y-31943142D01*
X60148880Y-31766462D01*
X60151430Y-31754468D01*
X60167607Y-31610239D01*
X60168000Y-31603215D01*
X60168000Y-31596657D01*
X63492000Y-31596657D01*
X63492301Y-31602805D01*
X63505812Y-31740603D01*
X63508195Y-31752638D01*
X63561767Y-31930076D01*
X63566441Y-31941416D01*
X63653460Y-32105077D01*
X63660249Y-32115294D01*
X63777397Y-32258933D01*
X63786041Y-32267637D01*
X63928856Y-32385784D01*
X63939027Y-32392644D01*
X64102076Y-32480804D01*
X64113381Y-32485556D01*
X64228692Y-32521250D01*
X64242795Y-32521456D01*
X64246000Y-32514701D01*
X64246000Y-32507924D01*
X64754000Y-32507924D01*
X64757973Y-32521455D01*
X64765768Y-32522575D01*
X64873521Y-32490862D01*
X64884889Y-32486269D01*
X65049154Y-32400393D01*
X65059415Y-32393679D01*
X65203873Y-32277532D01*
X65212632Y-32268954D01*
X65331778Y-32126961D01*
X65338708Y-32116841D01*
X65428002Y-31954415D01*
X65432834Y-31943142D01*
X65488880Y-31766462D01*
X65491430Y-31754468D01*
X65507607Y-31610239D01*
X65508000Y-31603215D01*
X65508000Y-31222115D01*
X65503525Y-31206876D01*
X65502135Y-31205671D01*
X65494452Y-31204000D01*
X64772115Y-31204000D01*
X64756876Y-31208475D01*
X64755671Y-31209865D01*
X64754000Y-31217548D01*
X64754000Y-32507924D01*
X64246000Y-32507924D01*
X64246000Y-31222115D01*
X64241525Y-31206876D01*
X64240135Y-31205671D01*
X64232452Y-31204000D01*
X63510115Y-31204000D01*
X63494876Y-31208475D01*
X63493671Y-31209865D01*
X63492000Y-31217548D01*
X63492000Y-31596657D01*
X60168000Y-31596657D01*
X60168000Y-31222115D01*
X60163525Y-31206876D01*
X60162135Y-31205671D01*
X60154452Y-31204000D01*
X59432115Y-31204000D01*
X59416876Y-31208475D01*
X59415671Y-31209865D01*
X59414000Y-31217548D01*
X59414000Y-32507924D01*
X58906000Y-32507924D01*
X58906000Y-31222115D01*
X58901525Y-31206876D01*
X58900135Y-31205671D01*
X58892452Y-31204000D01*
X58170115Y-31204000D01*
X58154876Y-31208475D01*
X58153671Y-31209865D01*
X58152000Y-31217548D01*
X58152000Y-31596657D01*
X54137345Y-31596657D01*
X53218573Y-30677885D01*
X58152000Y-30677885D01*
X58156475Y-30693124D01*
X58157865Y-30694329D01*
X58165548Y-30696000D01*
X58887885Y-30696000D01*
X58903124Y-30691525D01*
X58904329Y-30690135D01*
X58906000Y-30682452D01*
X58906000Y-30677885D01*
X59414000Y-30677885D01*
X59418475Y-30693124D01*
X59419865Y-30694329D01*
X59427548Y-30696000D01*
X60149885Y-30696000D01*
X60165124Y-30691525D01*
X60166329Y-30690135D01*
X60168000Y-30682452D01*
X60168000Y-30677885D01*
X63492000Y-30677885D01*
X63496475Y-30693124D01*
X63497865Y-30694329D01*
X63505548Y-30696000D01*
X64227885Y-30696000D01*
X64243124Y-30691525D01*
X64244329Y-30690135D01*
X64246000Y-30682452D01*
X64246000Y-30677885D01*
X64754000Y-30677885D01*
X64758475Y-30693124D01*
X64759865Y-30694329D01*
X64767548Y-30696000D01*
X65489885Y-30696000D01*
X65505124Y-30691525D01*
X65506329Y-30690135D01*
X65508000Y-30682452D01*
X65508000Y-30303343D01*
X65507699Y-30297195D01*
X65494188Y-30159397D01*
X65491805Y-30147362D01*
X65438233Y-29969924D01*
X65433559Y-29958584D01*
X65346540Y-29794923D01*
X65339751Y-29784706D01*
X65222603Y-29641067D01*
X65213959Y-29632363D01*
X65071144Y-29514216D01*
X65060973Y-29507356D01*
X64897924Y-29419196D01*
X64886619Y-29414444D01*
X64771308Y-29378750D01*
X64757205Y-29378544D01*
X64754000Y-29385299D01*
X64754000Y-30677885D01*
X64246000Y-30677885D01*
X64246000Y-29392076D01*
X64242027Y-29378545D01*
X64234232Y-29377425D01*
X64126479Y-29409138D01*
X64115111Y-29413731D01*
X63950846Y-29499607D01*
X63940585Y-29506321D01*
X63796127Y-29622468D01*
X63787368Y-29631046D01*
X63668222Y-29773039D01*
X63661292Y-29783159D01*
X63571998Y-29945585D01*
X63567166Y-29956858D01*
X63511120Y-30133538D01*
X63508570Y-30145532D01*
X63492393Y-30289761D01*
X63492000Y-30296785D01*
X63492000Y-30677885D01*
X60168000Y-30677885D01*
X60168000Y-30303343D01*
X60167699Y-30297195D01*
X60154188Y-30159397D01*
X60151805Y-30147362D01*
X60098233Y-29969924D01*
X60093559Y-29958584D01*
X60006540Y-29794923D01*
X59999751Y-29784706D01*
X59882603Y-29641067D01*
X59873959Y-29632363D01*
X59731144Y-29514216D01*
X59720973Y-29507356D01*
X59557924Y-29419196D01*
X59546619Y-29414444D01*
X59431308Y-29378750D01*
X59417205Y-29378544D01*
X59414000Y-29385299D01*
X59414000Y-30677885D01*
X58906000Y-30677885D01*
X58906000Y-29392076D01*
X58902027Y-29378545D01*
X58894232Y-29377425D01*
X58786479Y-29409138D01*
X58775111Y-29413731D01*
X58610846Y-29499607D01*
X58600585Y-29506321D01*
X58456127Y-29622468D01*
X58447368Y-29631046D01*
X58328222Y-29773039D01*
X58321292Y-29783159D01*
X58231998Y-29945585D01*
X58227166Y-29956858D01*
X58171120Y-30133538D01*
X58168570Y-30145532D01*
X58152393Y-30289761D01*
X58152000Y-30296785D01*
X58152000Y-30677885D01*
X53218573Y-30677885D01*
X52959270Y-30418582D01*
X52947192Y-30403628D01*
X52943960Y-30400076D01*
X52938312Y-30391329D01*
X52914401Y-30372479D01*
X52910466Y-30368982D01*
X52910378Y-30369086D01*
X52906419Y-30365731D01*
X52902741Y-30362053D01*
X52898516Y-30359034D01*
X52898508Y-30359027D01*
X52888407Y-30351809D01*
X52883660Y-30348245D01*
X52868221Y-30336074D01*
X52846676Y-30319089D01*
X52838700Y-30316288D01*
X52831818Y-30311370D01*
X52786651Y-30297862D01*
X52781045Y-30296040D01*
X52744064Y-30283053D01*
X52744058Y-30283052D01*
X52736581Y-30280426D01*
X52731443Y-30279981D01*
X52728724Y-30279981D01*
X52726542Y-30279886D01*
X52726007Y-30279726D01*
X52726008Y-30279699D01*
X52725890Y-30279692D01*
X52720023Y-30277937D01*
X52670468Y-30279884D01*
X52665521Y-30279981D01*
X52638188Y-30279981D01*
X50597119Y-30279980D01*
X50528998Y-30259978D01*
X50482505Y-30206322D01*
X50472402Y-30136048D01*
X50477806Y-30113479D01*
X50498609Y-30052195D01*
X50498610Y-30052190D01*
X50500468Y-30046717D01*
X50501297Y-30041001D01*
X50501298Y-30040996D01*
X50528957Y-29850226D01*
X50529490Y-29846552D01*
X50531005Y-29788710D01*
X50512498Y-29587301D01*
X50457597Y-29392636D01*
X50368141Y-29211237D01*
X50349869Y-29186767D01*
X50250578Y-29053801D01*
X50250577Y-29053800D01*
X50247125Y-29049177D01*
X50224140Y-29027930D01*
X50102843Y-28915804D01*
X50102841Y-28915802D01*
X50098602Y-28911884D01*
X50071164Y-28894572D01*
X49932427Y-28807035D01*
X49927547Y-28803956D01*
X49739688Y-28729008D01*
X49541316Y-28689549D01*
X49535542Y-28689473D01*
X49535538Y-28689473D01*
X49433047Y-28688132D01*
X49339076Y-28686902D01*
X49333379Y-28687881D01*
X49333378Y-28687881D01*
X49145436Y-28720175D01*
X49145435Y-28720175D01*
X49139739Y-28721154D01*
X48949983Y-28791159D01*
X48776161Y-28894572D01*
X48624095Y-29027930D01*
X48498879Y-29186767D01*
X48404704Y-29365763D01*
X48344727Y-29558923D01*
X48320954Y-29759779D01*
X48334182Y-29961604D01*
X48383968Y-30157638D01*
X48468646Y-30341317D01*
X48471979Y-30346033D01*
X48567208Y-30480780D01*
X48590189Y-30547954D01*
X48573204Y-30616890D01*
X48521647Y-30665699D01*
X48464311Y-30679500D01*
X47845081Y-30679500D01*
X47776960Y-30659498D01*
X47730467Y-30605842D01*
X47720363Y-30535568D01*
X47748207Y-30472931D01*
X47792931Y-30419155D01*
X47796627Y-30414711D01*
X47809722Y-30391329D01*
X47850177Y-30319089D01*
X47895454Y-30238241D01*
X47924718Y-30152034D01*
X47958610Y-30052191D01*
X47958610Y-30052189D01*
X47960468Y-30046717D01*
X47961297Y-30041001D01*
X47961298Y-30040996D01*
X47988957Y-29850226D01*
X47989490Y-29846552D01*
X47991005Y-29788710D01*
X47972498Y-29587301D01*
X47917597Y-29392636D01*
X47828141Y-29211237D01*
X47809869Y-29186767D01*
X47710578Y-29053801D01*
X47710577Y-29053800D01*
X47707125Y-29049177D01*
X47684140Y-29027930D01*
X47562843Y-28915804D01*
X47562841Y-28915802D01*
X47558602Y-28911884D01*
X47531164Y-28894572D01*
X47392427Y-28807035D01*
X47387547Y-28803956D01*
X47199688Y-28729008D01*
X47001316Y-28689549D01*
X46995542Y-28689473D01*
X46995538Y-28689473D01*
X46893047Y-28688132D01*
X46799076Y-28686902D01*
X46793379Y-28687881D01*
X46793378Y-28687881D01*
X46605436Y-28720175D01*
X46605435Y-28720175D01*
X46599739Y-28721154D01*
X46409983Y-28791159D01*
X46236161Y-28894572D01*
X46084095Y-29027930D01*
X45958879Y-29186767D01*
X45864704Y-29365763D01*
X45804727Y-29558923D01*
X45780954Y-29759779D01*
X45794182Y-29961604D01*
X45843968Y-30157638D01*
X45928646Y-30341317D01*
X46045378Y-30506490D01*
X46190256Y-30647623D01*
X46358427Y-30759992D01*
X46363730Y-30762270D01*
X46363733Y-30762272D01*
X46538953Y-30837552D01*
X46544260Y-30839832D01*
X46741530Y-30884470D01*
X46747299Y-30884697D01*
X46747302Y-30884697D01*
X46943632Y-30892410D01*
X46943553Y-30894425D01*
X47003867Y-30908758D01*
X47030475Y-30929077D01*
X47119087Y-31017689D01*
X47153113Y-31080001D01*
X47148048Y-31150816D01*
X47105501Y-31207652D01*
X47038981Y-31232463D01*
X47012777Y-31230825D01*
X47012729Y-31231280D01*
X47006981Y-31230676D01*
X47001316Y-31229549D01*
X46995542Y-31229473D01*
X46995538Y-31229473D01*
X46893047Y-31228132D01*
X46799076Y-31226902D01*
X46793379Y-31227881D01*
X46793378Y-31227881D01*
X46605436Y-31260175D01*
X46605435Y-31260175D01*
X46599739Y-31261154D01*
X46409983Y-31331159D01*
X46405022Y-31334111D01*
X46405021Y-31334111D01*
X46293428Y-31400502D01*
X46236161Y-31434572D01*
X46084095Y-31567930D01*
X45958879Y-31726767D01*
X45864704Y-31905763D01*
X45804727Y-32098923D01*
X45780954Y-32299779D01*
X45794182Y-32501604D01*
X45843968Y-32697638D01*
X45928646Y-32881317D01*
X46045378Y-33046490D01*
X46190256Y-33187623D01*
X46195060Y-33190833D01*
X46226400Y-33211774D01*
X46358427Y-33299992D01*
X46363730Y-33302270D01*
X46363733Y-33302272D01*
X46484637Y-33354216D01*
X46544260Y-33379832D01*
X46741530Y-33424470D01*
X46747299Y-33424697D01*
X46747302Y-33424697D01*
X46851351Y-33428785D01*
X46909782Y-33431080D01*
X46977065Y-33453741D01*
X46993931Y-33467888D01*
X47080355Y-33554312D01*
X47114381Y-33616624D01*
X47109316Y-33687439D01*
X47066769Y-33744275D01*
X47000249Y-33769086D01*
X46989616Y-33769396D01*
X46799076Y-33766902D01*
X46793379Y-33767881D01*
X46793378Y-33767881D01*
X46605436Y-33800175D01*
X46605435Y-33800175D01*
X46599739Y-33801154D01*
X46409983Y-33871159D01*
X46405022Y-33874111D01*
X46405021Y-33874111D01*
X46281346Y-33947690D01*
X46236161Y-33974572D01*
X46084095Y-34107930D01*
X45958879Y-34266767D01*
X45864704Y-34445763D01*
X45804727Y-34638923D01*
X45780954Y-34839779D01*
X45794182Y-35041604D01*
X45843968Y-35237638D01*
X45928646Y-35421317D01*
X45931979Y-35426033D01*
X46041801Y-35581428D01*
X46045378Y-35586490D01*
X46190256Y-35727623D01*
X46358427Y-35839992D01*
X46363730Y-35842270D01*
X46363733Y-35842272D01*
X46483645Y-35893790D01*
X46544260Y-35919832D01*
X46741530Y-35964470D01*
X46747299Y-35964697D01*
X46747302Y-35964697D01*
X46863831Y-35969275D01*
X46909781Y-35971080D01*
X46977064Y-35993741D01*
X46993931Y-36007888D01*
X47080354Y-36094312D01*
X47114379Y-36156624D01*
X47109313Y-36227440D01*
X47066766Y-36284276D01*
X47000246Y-36309086D01*
X46989614Y-36309396D01*
X46799076Y-36306902D01*
X46793379Y-36307881D01*
X46793378Y-36307881D01*
X46605436Y-36340175D01*
X46605435Y-36340175D01*
X46599739Y-36341154D01*
X46409983Y-36411159D01*
X46405022Y-36414111D01*
X46405021Y-36414111D01*
X46248472Y-36507248D01*
X46236161Y-36514572D01*
X46084095Y-36647930D01*
X45958879Y-36806767D01*
X45864704Y-36985763D01*
X45804727Y-37178923D01*
X45780954Y-37379779D01*
X45794182Y-37581604D01*
X45843968Y-37777638D01*
X45928646Y-37961317D01*
X45931979Y-37966033D01*
X46041801Y-38121428D01*
X46045378Y-38126490D01*
X46190256Y-38267623D01*
X46195060Y-38270833D01*
X46257134Y-38312310D01*
X46358427Y-38379992D01*
X46363730Y-38382270D01*
X46363733Y-38382272D01*
X46479528Y-38432021D01*
X46544260Y-38459832D01*
X46741530Y-38504470D01*
X46747299Y-38504697D01*
X46747302Y-38504697D01*
X46863831Y-38509275D01*
X46909781Y-38511080D01*
X46977064Y-38533741D01*
X46993931Y-38547888D01*
X47080354Y-38634312D01*
X47114379Y-38696624D01*
X47109313Y-38767440D01*
X47066766Y-38824276D01*
X47000246Y-38849086D01*
X46989614Y-38849396D01*
X46799076Y-38846902D01*
X46793379Y-38847881D01*
X46793378Y-38847881D01*
X46605436Y-38880175D01*
X46605435Y-38880175D01*
X46599739Y-38881154D01*
X46409983Y-38951159D01*
X46405022Y-38954111D01*
X46405021Y-38954111D01*
X46248472Y-39047248D01*
X46236161Y-39054572D01*
X46084095Y-39187930D01*
X45958879Y-39346767D01*
X45864704Y-39525763D01*
X45804727Y-39718923D01*
X45780954Y-39919779D01*
X45794182Y-40121604D01*
X45843968Y-40317638D01*
X45928646Y-40501317D01*
X45931979Y-40506033D01*
X46041801Y-40661428D01*
X46045378Y-40666490D01*
X46190256Y-40807623D01*
X46358427Y-40919992D01*
X46363730Y-40922270D01*
X46363733Y-40922272D01*
X46497755Y-40979852D01*
X46544260Y-40999832D01*
X46741530Y-41044470D01*
X46747299Y-41044697D01*
X46747302Y-41044697D01*
X46851351Y-41048785D01*
X46909782Y-41051080D01*
X46977065Y-41073741D01*
X46993931Y-41087888D01*
X47080355Y-41174312D01*
X47114381Y-41236624D01*
X47109316Y-41307439D01*
X47066769Y-41364275D01*
X47000249Y-41389086D01*
X46989616Y-41389396D01*
X46799076Y-41386902D01*
X46793379Y-41387881D01*
X46793378Y-41387881D01*
X46605436Y-41420175D01*
X46605435Y-41420175D01*
X46599739Y-41421154D01*
X46409983Y-41491159D01*
X46405022Y-41494111D01*
X46405021Y-41494111D01*
X46331965Y-41537575D01*
X46236161Y-41594572D01*
X46084095Y-41727930D01*
X45958879Y-41886767D01*
X45864704Y-42065763D01*
X45804727Y-42258923D01*
X45780954Y-42459779D01*
X45794182Y-42661604D01*
X45843968Y-42857638D01*
X45928646Y-43041317D01*
X46045378Y-43206490D01*
X46049520Y-43210525D01*
X46141579Y-43300204D01*
X46190256Y-43347623D01*
X46358427Y-43459992D01*
X46363730Y-43462270D01*
X46363733Y-43462272D01*
X46452081Y-43500229D01*
X46544260Y-43539832D01*
X46640151Y-43561530D01*
X46733116Y-43582566D01*
X46741530Y-43584470D01*
X46747299Y-43584697D01*
X46747302Y-43584697D01*
X46823473Y-43587689D01*
X46943632Y-43592410D01*
X47029922Y-43579899D01*
X47138076Y-43564218D01*
X47138081Y-43564217D01*
X47143797Y-43563388D01*
X47149269Y-43561530D01*
X47149271Y-43561530D01*
X47329857Y-43500229D01*
X47329859Y-43500228D01*
X47335321Y-43498374D01*
X47511791Y-43399547D01*
X47574223Y-43347623D01*
X47657781Y-43278128D01*
X47667295Y-43270215D01*
X47796627Y-43114711D01*
X47895454Y-42938241D01*
X47960468Y-42746717D01*
X47961297Y-42741001D01*
X47961298Y-42740996D01*
X47988957Y-42550226D01*
X47989490Y-42546552D01*
X47991005Y-42488710D01*
X47972498Y-42287301D01*
X47917597Y-42092636D01*
X47828141Y-41911237D01*
X47765155Y-41826888D01*
X47740423Y-41760340D01*
X47755597Y-41690983D01*
X47805859Y-41640841D01*
X47866113Y-41625500D01*
X48445070Y-41625500D01*
X48513191Y-41645502D01*
X48559684Y-41699158D01*
X48569788Y-41769432D01*
X48544022Y-41829503D01*
X48498879Y-41886767D01*
X48404704Y-42065763D01*
X48344727Y-42258923D01*
X48320954Y-42459779D01*
X48334182Y-42661604D01*
X48383968Y-42857638D01*
X48468646Y-43041317D01*
X48585378Y-43206490D01*
X48589520Y-43210525D01*
X48681579Y-43300204D01*
X48730256Y-43347623D01*
X48898427Y-43459992D01*
X48903730Y-43462270D01*
X48903733Y-43462272D01*
X48992081Y-43500229D01*
X49084260Y-43539832D01*
X49180151Y-43561530D01*
X49273116Y-43582566D01*
X49281530Y-43584470D01*
X49287299Y-43584697D01*
X49287302Y-43584697D01*
X49363473Y-43587689D01*
X49483632Y-43592410D01*
X49489349Y-43591581D01*
X49495115Y-43591279D01*
X49495179Y-43592507D01*
X49559305Y-43601650D01*
X49596193Y-43627230D01*
X49693497Y-43724534D01*
X49727523Y-43786846D01*
X49722458Y-43857661D01*
X49679911Y-43914497D01*
X49613391Y-43939308D01*
X49579820Y-43937208D01*
X49546982Y-43930676D01*
X49546981Y-43930676D01*
X49541316Y-43929549D01*
X49535542Y-43929473D01*
X49535538Y-43929473D01*
X49433047Y-43928132D01*
X49339076Y-43926902D01*
X49333379Y-43927881D01*
X49333378Y-43927881D01*
X49145436Y-43960175D01*
X49145435Y-43960175D01*
X49139739Y-43961154D01*
X48949983Y-44031159D01*
X48776161Y-44134572D01*
X48624095Y-44267930D01*
X48498879Y-44426767D01*
X48404704Y-44605763D01*
X48344727Y-44798923D01*
X48320954Y-44999779D01*
X48334182Y-45201604D01*
X48335605Y-45207206D01*
X48370080Y-45342952D01*
X48383968Y-45397638D01*
X48468646Y-45581317D01*
X48471979Y-45586033D01*
X48565807Y-45718797D01*
X48585378Y-45746490D01*
X48589520Y-45750525D01*
X48672928Y-45831777D01*
X48730256Y-45887623D01*
X48735060Y-45890833D01*
X48740005Y-45894137D01*
X48898427Y-45999992D01*
X48903730Y-46002270D01*
X48903733Y-46002272D01*
X49022044Y-46053102D01*
X49084260Y-46079832D01*
X49281530Y-46124470D01*
X49287299Y-46124697D01*
X49287302Y-46124697D01*
X49363473Y-46127689D01*
X49483632Y-46132410D01*
X49580811Y-46118320D01*
X49678076Y-46104218D01*
X49678081Y-46104217D01*
X49683797Y-46103388D01*
X49689269Y-46101530D01*
X49689271Y-46101530D01*
X49869857Y-46040229D01*
X49869859Y-46040228D01*
X49875321Y-46038374D01*
X50012266Y-45961682D01*
X50046754Y-45942368D01*
X50046755Y-45942367D01*
X50051791Y-45939547D01*
X50114223Y-45887623D01*
X50202863Y-45813901D01*
X50207295Y-45810215D01*
X50336627Y-45654711D01*
X50435454Y-45478241D01*
X50440360Y-45463790D01*
X50498610Y-45292191D01*
X50498610Y-45292189D01*
X50500468Y-45286717D01*
X50501297Y-45281001D01*
X50501298Y-45280996D01*
X50526018Y-45110500D01*
X50529490Y-45086552D01*
X50531005Y-45028710D01*
X50515678Y-44861905D01*
X50529363Y-44792240D01*
X50578539Y-44741033D01*
X50647594Y-44724541D01*
X50714602Y-44748001D01*
X50730244Y-44761281D01*
X56480095Y-50511132D01*
X56514121Y-50573444D01*
X56517000Y-50600227D01*
X56517000Y-50928501D01*
X56496998Y-50996622D01*
X56443342Y-51043115D01*
X56391000Y-51054501D01*
X56236968Y-51054501D01*
X56232074Y-51055276D01*
X56232075Y-51055276D01*
X56155905Y-51067339D01*
X56155903Y-51067339D01*
X56146107Y-51068891D01*
X56036597Y-51124689D01*
X55949689Y-51211597D01*
X55893891Y-51321107D01*
X55879500Y-51411967D01*
X55879501Y-51748032D01*
X55880276Y-51752923D01*
X55880276Y-51752925D01*
X55889598Y-51811784D01*
X55893891Y-51838893D01*
X55898392Y-51847726D01*
X55898394Y-51847731D01*
X55936642Y-51922797D01*
X55949746Y-51992574D01*
X55936642Y-52037203D01*
X55893891Y-52121107D01*
X55892340Y-52130897D01*
X55892340Y-52130898D01*
X55890022Y-52145535D01*
X55879500Y-52211967D01*
X55879501Y-52548032D01*
X55880276Y-52552923D01*
X55880276Y-52552925D01*
X55889956Y-52614044D01*
X55893891Y-52638893D01*
X55898392Y-52647726D01*
X55898394Y-52647731D01*
X55936642Y-52722797D01*
X55949746Y-52792574D01*
X55936642Y-52837203D01*
X55929115Y-52851976D01*
X55893891Y-52921107D01*
X55892340Y-52930897D01*
X55892340Y-52930898D01*
X55888401Y-52955772D01*
X55879500Y-53011967D01*
X55879501Y-53348032D01*
X55881677Y-53361770D01*
X55891815Y-53425783D01*
X55893891Y-53438893D01*
X55898394Y-53447730D01*
X55898394Y-53447731D01*
X55936642Y-53522797D01*
X55949746Y-53592574D01*
X55936642Y-53637203D01*
X55893891Y-53721107D01*
X55892340Y-53730897D01*
X55892340Y-53730898D01*
X55890360Y-53743400D01*
X55879500Y-53811967D01*
X55879501Y-54148032D01*
X55880276Y-54152925D01*
X55888846Y-54207035D01*
X55893891Y-54238893D01*
X55898394Y-54247730D01*
X55898394Y-54247731D01*
X55936642Y-54322797D01*
X55949746Y-54392574D01*
X55936642Y-54437203D01*
X55893891Y-54521107D01*
X55879500Y-54611967D01*
X55879501Y-54948032D01*
X55893891Y-55038893D01*
X55898394Y-55047730D01*
X55898394Y-55047731D01*
X55936642Y-55122797D01*
X55949746Y-55192574D01*
X55936642Y-55237203D01*
X55931879Y-55246552D01*
X55893891Y-55321107D01*
X55879500Y-55411967D01*
X55879501Y-55562885D01*
X55879501Y-55608499D01*
X55859499Y-55676620D01*
X55805844Y-55723113D01*
X55753501Y-55734500D01*
X51413496Y-55734500D01*
X51390208Y-55732021D01*
X51388110Y-55731922D01*
X51377933Y-55729731D01*
X51345870Y-55733526D01*
X51345015Y-55733627D01*
X51339179Y-55733971D01*
X51339187Y-55734072D01*
X51334008Y-55734500D01*
X51328807Y-55734500D01*
X51323677Y-55735354D01*
X51323675Y-55735354D01*
X51310008Y-55737629D01*
X51304131Y-55738466D01*
X51253790Y-55744424D01*
X51245623Y-55748346D01*
X51236687Y-55749833D01*
X51227525Y-55754777D01*
X51227521Y-55754778D01*
X51192071Y-55773906D01*
X51186780Y-55776602D01*
X51148251Y-55795103D01*
X51141100Y-55798537D01*
X51136869Y-55802094D01*
X51134937Y-55804026D01*
X51133063Y-55805745D01*
X51132926Y-55805819D01*
X51132826Y-55805709D01*
X51132346Y-55806132D01*
X51126671Y-55809194D01*
X51119602Y-55816841D01*
X51119601Y-55816842D01*
X51090460Y-55848367D01*
X51087030Y-55851933D01*
X50452311Y-56486652D01*
X50434080Y-56501377D01*
X50432540Y-56502778D01*
X50423790Y-56508428D01*
X50417344Y-56516605D01*
X50417343Y-56516606D01*
X50403264Y-56534465D01*
X50399383Y-56538832D01*
X50399461Y-56538898D01*
X50396107Y-56542856D01*
X50392425Y-56546538D01*
X50389402Y-56550769D01*
X50389399Y-56550772D01*
X50387862Y-56552923D01*
X50381339Y-56562052D01*
X50377788Y-56566781D01*
X50346397Y-56606600D01*
X50343395Y-56615149D01*
X50338128Y-56622519D01*
X50335144Y-56632498D01*
X50323608Y-56671070D01*
X50321774Y-56676714D01*
X50307604Y-56717065D01*
X50307603Y-56717071D01*
X50304977Y-56724548D01*
X50304500Y-56730055D01*
X50304500Y-56732762D01*
X50304389Y-56735335D01*
X50304341Y-56735494D01*
X50304197Y-56735488D01*
X50304158Y-56736108D01*
X50302310Y-56742287D01*
X50302719Y-56752692D01*
X50301413Y-56763028D01*
X50299029Y-56762727D01*
X50285248Y-56817534D01*
X50233458Y-56866096D01*
X50163635Y-56878950D01*
X50100814Y-56853929D01*
X50098602Y-56851884D01*
X49927547Y-56743956D01*
X49739688Y-56669008D01*
X49565051Y-56634270D01*
X49546982Y-56630676D01*
X49546981Y-56630676D01*
X49541316Y-56629549D01*
X49535542Y-56629473D01*
X49535538Y-56629473D01*
X49433047Y-56628132D01*
X49339076Y-56626902D01*
X49333379Y-56627881D01*
X49333378Y-56627881D01*
X49145436Y-56660175D01*
X49145435Y-56660175D01*
X49139739Y-56661154D01*
X48949983Y-56731159D01*
X48945022Y-56734111D01*
X48945021Y-56734111D01*
X48789109Y-56826869D01*
X48776161Y-56834572D01*
X48624095Y-56967930D01*
X48498879Y-57126767D01*
X48404704Y-57305763D01*
X48344727Y-57498923D01*
X48320954Y-57699779D01*
X48334182Y-57901604D01*
X48351574Y-57970085D01*
X48380895Y-58085537D01*
X48383968Y-58097638D01*
X48468646Y-58281317D01*
X48471979Y-58286033D01*
X48578815Y-58437203D01*
X48585378Y-58446490D01*
X48730256Y-58587623D01*
X48898427Y-58699992D01*
X48903730Y-58702270D01*
X48903733Y-58702272D01*
X48992081Y-58740229D01*
X49084260Y-58779832D01*
X49281530Y-58824470D01*
X49287299Y-58824697D01*
X49287302Y-58824697D01*
X49363473Y-58827689D01*
X49483632Y-58832410D01*
X49569922Y-58819899D01*
X49678076Y-58804218D01*
X49678081Y-58804217D01*
X49683797Y-58803388D01*
X49689269Y-58801530D01*
X49689271Y-58801530D01*
X49869857Y-58740229D01*
X49869859Y-58740228D01*
X49875321Y-58738374D01*
X50051791Y-58639547D01*
X50056230Y-58635855D01*
X50056236Y-58635851D01*
X50097930Y-58601174D01*
X50163094Y-58572992D01*
X50233149Y-58584515D01*
X50285854Y-58632084D01*
X50304500Y-58698047D01*
X50304500Y-58806773D01*
X50284498Y-58874894D01*
X50267595Y-58895868D01*
X49951899Y-59211564D01*
X49889587Y-59245590D01*
X49816114Y-59239499D01*
X49745057Y-59211150D01*
X49739688Y-59209008D01*
X49541316Y-59169549D01*
X49535542Y-59169473D01*
X49535538Y-59169473D01*
X49433047Y-59168132D01*
X49339076Y-59166902D01*
X49333379Y-59167881D01*
X49333378Y-59167881D01*
X49145436Y-59200175D01*
X49145435Y-59200175D01*
X49139739Y-59201154D01*
X48949983Y-59271159D01*
X48945022Y-59274111D01*
X48945021Y-59274111D01*
X48892263Y-59305499D01*
X48776161Y-59374572D01*
X48624095Y-59507930D01*
X48498879Y-59666767D01*
X48404704Y-59845763D01*
X48344727Y-60038923D01*
X48320954Y-60239779D01*
X48334182Y-60441604D01*
X48348575Y-60498277D01*
X48376374Y-60607735D01*
X48383968Y-60637638D01*
X48468646Y-60821317D01*
X48565639Y-60958559D01*
X48570742Y-60965780D01*
X48593723Y-61032954D01*
X48576738Y-61101889D01*
X48525181Y-61150699D01*
X48467845Y-61164500D01*
X47864807Y-61164500D01*
X47796686Y-61144498D01*
X47775712Y-61127595D01*
X47762672Y-61114555D01*
X47728646Y-61052243D01*
X47733711Y-60981428D01*
X47754893Y-60944891D01*
X47792936Y-60899149D01*
X47796627Y-60894711D01*
X47895454Y-60718241D01*
X47898449Y-60709420D01*
X47958610Y-60532191D01*
X47958610Y-60532189D01*
X47960468Y-60526717D01*
X47961297Y-60521001D01*
X47961298Y-60520996D01*
X47988957Y-60330226D01*
X47989490Y-60326552D01*
X47991005Y-60268710D01*
X47972498Y-60067301D01*
X47965627Y-60042936D01*
X47934713Y-59933324D01*
X47917597Y-59872636D01*
X47828141Y-59691237D01*
X47809869Y-59666767D01*
X47710578Y-59533801D01*
X47710577Y-59533800D01*
X47707125Y-59529177D01*
X47700984Y-59523500D01*
X47562843Y-59395804D01*
X47562841Y-59395802D01*
X47558602Y-59391884D01*
X47531164Y-59374572D01*
X47392427Y-59287035D01*
X47387547Y-59283956D01*
X47199688Y-59209008D01*
X47001316Y-59169549D01*
X46995542Y-59169473D01*
X46995538Y-59169473D01*
X46893047Y-59168132D01*
X46799076Y-59166902D01*
X46793379Y-59167881D01*
X46793378Y-59167881D01*
X46605436Y-59200175D01*
X46605435Y-59200175D01*
X46599739Y-59201154D01*
X46409983Y-59271159D01*
X46405022Y-59274111D01*
X46405021Y-59274111D01*
X46352263Y-59305499D01*
X46236161Y-59374572D01*
X46084095Y-59507930D01*
X45958879Y-59666767D01*
X45864704Y-59845763D01*
X45804727Y-60038923D01*
X45780954Y-60239779D01*
X45794182Y-60441604D01*
X45808575Y-60498277D01*
X45836374Y-60607735D01*
X45843968Y-60637638D01*
X45928646Y-60821317D01*
X45931979Y-60826033D01*
X46041801Y-60981428D01*
X46045378Y-60986490D01*
X46190256Y-61127623D01*
X46358427Y-61239992D01*
X46363730Y-61242270D01*
X46363733Y-61242272D01*
X46447633Y-61278318D01*
X46544260Y-61319832D01*
X46741530Y-61364470D01*
X46747299Y-61364697D01*
X46747302Y-61364697D01*
X46863831Y-61369275D01*
X46909781Y-61371080D01*
X46977064Y-61393741D01*
X46993931Y-61407888D01*
X47080354Y-61494312D01*
X47114379Y-61556624D01*
X47109313Y-61627440D01*
X47066766Y-61684276D01*
X47000246Y-61709086D01*
X46989614Y-61709396D01*
X46799076Y-61706902D01*
X46793379Y-61707881D01*
X46793378Y-61707881D01*
X46605436Y-61740175D01*
X46605435Y-61740175D01*
X46599739Y-61741154D01*
X46409983Y-61811159D01*
X46405022Y-61814111D01*
X46405021Y-61814111D01*
X46256061Y-61902733D01*
X46236161Y-61914572D01*
X46084095Y-62047930D01*
X45958879Y-62206767D01*
X45864704Y-62385763D01*
X45804727Y-62578923D01*
X45780954Y-62779779D01*
X45794182Y-62981604D01*
X45810856Y-63047257D01*
X45838346Y-63155500D01*
X45843968Y-63177638D01*
X45928646Y-63361317D01*
X45931979Y-63366033D01*
X46022337Y-63493887D01*
X46045378Y-63526490D01*
X46190256Y-63667623D01*
X46195060Y-63670833D01*
X46274342Y-63723808D01*
X46358427Y-63779992D01*
X46363730Y-63782270D01*
X46363733Y-63782272D01*
X46538953Y-63857552D01*
X46544260Y-63859832D01*
X46741530Y-63904470D01*
X46747299Y-63904697D01*
X46747302Y-63904697D01*
X46851351Y-63908785D01*
X46909782Y-63911080D01*
X46977065Y-63933741D01*
X46993931Y-63947888D01*
X47080355Y-64034312D01*
X47114381Y-64096624D01*
X47109316Y-64167439D01*
X47066769Y-64224275D01*
X47000249Y-64249086D01*
X46989616Y-64249396D01*
X46799076Y-64246902D01*
X46793379Y-64247881D01*
X46793378Y-64247881D01*
X46605436Y-64280175D01*
X46605435Y-64280175D01*
X46599739Y-64281154D01*
X46409983Y-64351159D01*
X46405022Y-64354111D01*
X46405021Y-64354111D01*
X46274300Y-64431882D01*
X46236161Y-64454572D01*
X46084095Y-64587930D01*
X45958879Y-64746767D01*
X45864704Y-64925763D01*
X45804727Y-65118923D01*
X45780954Y-65319779D01*
X45794182Y-65521604D01*
X45796620Y-65531203D01*
X45842121Y-65710364D01*
X45843968Y-65717638D01*
X45928646Y-65901317D01*
X45931979Y-65906033D01*
X46041801Y-66061428D01*
X46045378Y-66066490D01*
X46190256Y-66207623D01*
X46358427Y-66319992D01*
X46363730Y-66322270D01*
X46363733Y-66322272D01*
X46519578Y-66389228D01*
X46544260Y-66399832D01*
X46741530Y-66444470D01*
X46747299Y-66444697D01*
X46747302Y-66444697D01*
X46863831Y-66449275D01*
X46909781Y-66451080D01*
X46977064Y-66473741D01*
X46993931Y-66487888D01*
X47080354Y-66574312D01*
X47114379Y-66636624D01*
X47109313Y-66707440D01*
X47066766Y-66764276D01*
X47000246Y-66789086D01*
X46989614Y-66789396D01*
X46799076Y-66786902D01*
X46793379Y-66787881D01*
X46793378Y-66787881D01*
X46605436Y-66820175D01*
X46605435Y-66820175D01*
X46599739Y-66821154D01*
X46409983Y-66891159D01*
X46405022Y-66894111D01*
X46405021Y-66894111D01*
X46248472Y-66987248D01*
X46236161Y-66994572D01*
X46084095Y-67127930D01*
X45958879Y-67286767D01*
X45864704Y-67465763D01*
X45804727Y-67658923D01*
X45780954Y-67859779D01*
X45794182Y-68061604D01*
X45808005Y-68116032D01*
X45842121Y-68250364D01*
X45843968Y-68257638D01*
X45928646Y-68441317D01*
X45931979Y-68446033D01*
X46041801Y-68601428D01*
X46045378Y-68606490D01*
X46049520Y-68610525D01*
X46087713Y-68647731D01*
X46190256Y-68747623D01*
X46195060Y-68750833D01*
X46245443Y-68784498D01*
X46358427Y-68859992D01*
X46363730Y-68862270D01*
X46363733Y-68862272D01*
X46464499Y-68905564D01*
X46519192Y-68950832D01*
X46540729Y-69018483D01*
X46522272Y-69087039D01*
X46469681Y-69134733D01*
X46453906Y-69141097D01*
X46362658Y-69170922D01*
X46353149Y-69174919D01*
X46164253Y-69273252D01*
X46155528Y-69278746D01*
X45985223Y-69406615D01*
X45977516Y-69413458D01*
X45830380Y-69567427D01*
X45823894Y-69575437D01*
X45703888Y-69751359D01*
X45698790Y-69760333D01*
X45609128Y-69953493D01*
X45605565Y-69963180D01*
X45550179Y-70162893D01*
X43750000Y-70162893D01*
X43750000Y-57699779D01*
X45780954Y-57699779D01*
X45794182Y-57901604D01*
X45811574Y-57970085D01*
X45840895Y-58085537D01*
X45843968Y-58097638D01*
X45928646Y-58281317D01*
X45931979Y-58286033D01*
X46038815Y-58437203D01*
X46045378Y-58446490D01*
X46190256Y-58587623D01*
X46358427Y-58699992D01*
X46363730Y-58702270D01*
X46363733Y-58702272D01*
X46452081Y-58740229D01*
X46544260Y-58779832D01*
X46741530Y-58824470D01*
X46747299Y-58824697D01*
X46747302Y-58824697D01*
X46823473Y-58827689D01*
X46943632Y-58832410D01*
X47029922Y-58819899D01*
X47138076Y-58804218D01*
X47138081Y-58804217D01*
X47143797Y-58803388D01*
X47149269Y-58801530D01*
X47149271Y-58801530D01*
X47329857Y-58740229D01*
X47329859Y-58740228D01*
X47335321Y-58738374D01*
X47511791Y-58639547D01*
X47574223Y-58587623D01*
X47622297Y-58547640D01*
X47667295Y-58510215D01*
X47796627Y-58354711D01*
X47895454Y-58178241D01*
X47899767Y-58165537D01*
X47958610Y-57992191D01*
X47958610Y-57992189D01*
X47960468Y-57986717D01*
X47961297Y-57981001D01*
X47961298Y-57980996D01*
X47986514Y-57807075D01*
X47989490Y-57786552D01*
X47991005Y-57728710D01*
X47972498Y-57527301D01*
X47917597Y-57332636D01*
X47828141Y-57151237D01*
X47823081Y-57144460D01*
X47710578Y-56993801D01*
X47710577Y-56993800D01*
X47707125Y-56989177D01*
X47684140Y-56967930D01*
X47562843Y-56855804D01*
X47562841Y-56855802D01*
X47558602Y-56851884D01*
X47531164Y-56834572D01*
X47392427Y-56747035D01*
X47387547Y-56743956D01*
X47199688Y-56669008D01*
X47025051Y-56634270D01*
X47006982Y-56630676D01*
X47006981Y-56630676D01*
X47001316Y-56629549D01*
X46995542Y-56629473D01*
X46995538Y-56629473D01*
X46893047Y-56628132D01*
X46799076Y-56626902D01*
X46793379Y-56627881D01*
X46793378Y-56627881D01*
X46605436Y-56660175D01*
X46605435Y-56660175D01*
X46599739Y-56661154D01*
X46409983Y-56731159D01*
X46405022Y-56734111D01*
X46405021Y-56734111D01*
X46249109Y-56826869D01*
X46236161Y-56834572D01*
X46084095Y-56967930D01*
X45958879Y-57126767D01*
X45864704Y-57305763D01*
X45804727Y-57498923D01*
X45780954Y-57699779D01*
X43750000Y-57699779D01*
X43750000Y-55159779D01*
X45780954Y-55159779D01*
X45794182Y-55361604D01*
X45843968Y-55557638D01*
X45928646Y-55741317D01*
X45952672Y-55775313D01*
X46003852Y-55847731D01*
X46045378Y-55906490D01*
X46049520Y-55910525D01*
X46062118Y-55922797D01*
X46190256Y-56047623D01*
X46358427Y-56159992D01*
X46363730Y-56162270D01*
X46363733Y-56162272D01*
X46538953Y-56237552D01*
X46544260Y-56239832D01*
X46741530Y-56284470D01*
X46747299Y-56284697D01*
X46747302Y-56284697D01*
X46823473Y-56287689D01*
X46943632Y-56292410D01*
X47029922Y-56279899D01*
X47138076Y-56264218D01*
X47138081Y-56264217D01*
X47143797Y-56263388D01*
X47149269Y-56261530D01*
X47149271Y-56261530D01*
X47329857Y-56200229D01*
X47329859Y-56200228D01*
X47335321Y-56198374D01*
X47468502Y-56123790D01*
X47506754Y-56102368D01*
X47506755Y-56102367D01*
X47511791Y-56099547D01*
X47574223Y-56047623D01*
X47662863Y-55973901D01*
X47667295Y-55970215D01*
X47796627Y-55814711D01*
X47802346Y-55804500D01*
X47839521Y-55738118D01*
X47895454Y-55638241D01*
X47960468Y-55446717D01*
X47961297Y-55441001D01*
X47961298Y-55440996D01*
X47988957Y-55250226D01*
X47989490Y-55246552D01*
X47991005Y-55188710D01*
X47988347Y-55159779D01*
X48320954Y-55159779D01*
X48334182Y-55361604D01*
X48383968Y-55557638D01*
X48468646Y-55741317D01*
X48492672Y-55775313D01*
X48543852Y-55847731D01*
X48585378Y-55906490D01*
X48589520Y-55910525D01*
X48602118Y-55922797D01*
X48730256Y-56047623D01*
X48898427Y-56159992D01*
X48903730Y-56162270D01*
X48903733Y-56162272D01*
X49078953Y-56237552D01*
X49084260Y-56239832D01*
X49281530Y-56284470D01*
X49287299Y-56284697D01*
X49287302Y-56284697D01*
X49363473Y-56287689D01*
X49483632Y-56292410D01*
X49569922Y-56279899D01*
X49678076Y-56264218D01*
X49678081Y-56264217D01*
X49683797Y-56263388D01*
X49689269Y-56261530D01*
X49689271Y-56261530D01*
X49869857Y-56200229D01*
X49869859Y-56200228D01*
X49875321Y-56198374D01*
X50008502Y-56123790D01*
X50046754Y-56102368D01*
X50046755Y-56102367D01*
X50051791Y-56099547D01*
X50114223Y-56047623D01*
X50202863Y-55973901D01*
X50207295Y-55970215D01*
X50336627Y-55814711D01*
X50342346Y-55804500D01*
X50379521Y-55738118D01*
X50435454Y-55638241D01*
X50500468Y-55446717D01*
X50501297Y-55441001D01*
X50501298Y-55440996D01*
X50528957Y-55250226D01*
X50529490Y-55246552D01*
X50531005Y-55188710D01*
X50512498Y-54987301D01*
X50457597Y-54792636D01*
X50368141Y-54611237D01*
X50349869Y-54586767D01*
X50250578Y-54453801D01*
X50250577Y-54453800D01*
X50247125Y-54449177D01*
X50224140Y-54427930D01*
X50102843Y-54315804D01*
X50102841Y-54315802D01*
X50098602Y-54311884D01*
X50071164Y-54294572D01*
X49932427Y-54207035D01*
X49927547Y-54203956D01*
X49739688Y-54129008D01*
X49541316Y-54089549D01*
X49535542Y-54089473D01*
X49535538Y-54089473D01*
X49433047Y-54088132D01*
X49339076Y-54086902D01*
X49333379Y-54087881D01*
X49333378Y-54087881D01*
X49145436Y-54120175D01*
X49145435Y-54120175D01*
X49139739Y-54121154D01*
X48949983Y-54191159D01*
X48945022Y-54194111D01*
X48945021Y-54194111D01*
X48787366Y-54287906D01*
X48776161Y-54294572D01*
X48624095Y-54427930D01*
X48498879Y-54586767D01*
X48404704Y-54765763D01*
X48344727Y-54958923D01*
X48320954Y-55159779D01*
X47988347Y-55159779D01*
X47972498Y-54987301D01*
X47917597Y-54792636D01*
X47828141Y-54611237D01*
X47809869Y-54586767D01*
X47710578Y-54453801D01*
X47710577Y-54453800D01*
X47707125Y-54449177D01*
X47684140Y-54427930D01*
X47562843Y-54315804D01*
X47562841Y-54315802D01*
X47558602Y-54311884D01*
X47531164Y-54294572D01*
X47392427Y-54207035D01*
X47387547Y-54203956D01*
X47199688Y-54129008D01*
X47001316Y-54089549D01*
X46995542Y-54089473D01*
X46995538Y-54089473D01*
X46893047Y-54088132D01*
X46799076Y-54086902D01*
X46793379Y-54087881D01*
X46793378Y-54087881D01*
X46605436Y-54120175D01*
X46605435Y-54120175D01*
X46599739Y-54121154D01*
X46409983Y-54191159D01*
X46405022Y-54194111D01*
X46405021Y-54194111D01*
X46247366Y-54287906D01*
X46236161Y-54294572D01*
X46084095Y-54427930D01*
X45958879Y-54586767D01*
X45864704Y-54765763D01*
X45804727Y-54958923D01*
X45780954Y-55159779D01*
X43750000Y-55159779D01*
X43750000Y-52619779D01*
X45780954Y-52619779D01*
X45794182Y-52821604D01*
X45817911Y-52915036D01*
X45842528Y-53011967D01*
X45843968Y-53017638D01*
X45928646Y-53201317D01*
X45931979Y-53206033D01*
X46034003Y-53350394D01*
X46045378Y-53366490D01*
X46049520Y-53370525D01*
X46084359Y-53404463D01*
X46190256Y-53507623D01*
X46358427Y-53619992D01*
X46363730Y-53622270D01*
X46363733Y-53622272D01*
X46538953Y-53697552D01*
X46544260Y-53699832D01*
X46681551Y-53730898D01*
X46734623Y-53742907D01*
X46741530Y-53744470D01*
X46747299Y-53744697D01*
X46747302Y-53744697D01*
X46823473Y-53747689D01*
X46943632Y-53752410D01*
X47047122Y-53737405D01*
X47138076Y-53724218D01*
X47138081Y-53724217D01*
X47143797Y-53723388D01*
X47149269Y-53721530D01*
X47149271Y-53721530D01*
X47329857Y-53660229D01*
X47329859Y-53660228D01*
X47335321Y-53658374D01*
X47497420Y-53567595D01*
X47506754Y-53562368D01*
X47506755Y-53562367D01*
X47511791Y-53559547D01*
X47516292Y-53555804D01*
X47630800Y-53460568D01*
X47667295Y-53430215D01*
X47796627Y-53274711D01*
X47895454Y-53098241D01*
X47899766Y-53085540D01*
X47958610Y-52912191D01*
X47958610Y-52912189D01*
X47960468Y-52906717D01*
X47961297Y-52901001D01*
X47961298Y-52900996D01*
X47984442Y-52741368D01*
X47989490Y-52706552D01*
X47991005Y-52648710D01*
X47988347Y-52619779D01*
X48320954Y-52619779D01*
X48334182Y-52821604D01*
X48357911Y-52915036D01*
X48382528Y-53011967D01*
X48383968Y-53017638D01*
X48468646Y-53201317D01*
X48471979Y-53206033D01*
X48574003Y-53350394D01*
X48585378Y-53366490D01*
X48589520Y-53370525D01*
X48624359Y-53404463D01*
X48730256Y-53507623D01*
X48898427Y-53619992D01*
X48903730Y-53622270D01*
X48903733Y-53622272D01*
X49078953Y-53697552D01*
X49084260Y-53699832D01*
X49221551Y-53730898D01*
X49274623Y-53742907D01*
X49281530Y-53744470D01*
X49287299Y-53744697D01*
X49287302Y-53744697D01*
X49363473Y-53747689D01*
X49483632Y-53752410D01*
X49587122Y-53737405D01*
X49678076Y-53724218D01*
X49678081Y-53724217D01*
X49683797Y-53723388D01*
X49689269Y-53721530D01*
X49689271Y-53721530D01*
X49869857Y-53660229D01*
X49869859Y-53660228D01*
X49875321Y-53658374D01*
X50037420Y-53567595D01*
X50046754Y-53562368D01*
X50046755Y-53562367D01*
X50051791Y-53559547D01*
X50056292Y-53555804D01*
X50170800Y-53460568D01*
X50207295Y-53430215D01*
X50336627Y-53274711D01*
X50435454Y-53098241D01*
X50439766Y-53085540D01*
X50498610Y-52912191D01*
X50498610Y-52912189D01*
X50500468Y-52906717D01*
X50501297Y-52901001D01*
X50501298Y-52900996D01*
X50524442Y-52741368D01*
X50529490Y-52706552D01*
X50531005Y-52648710D01*
X50512498Y-52447301D01*
X50509729Y-52437481D01*
X50464511Y-52277151D01*
X50457597Y-52252636D01*
X50368141Y-52071237D01*
X50349869Y-52046767D01*
X50250578Y-51913801D01*
X50250577Y-51913800D01*
X50247125Y-51909177D01*
X50242889Y-51905261D01*
X50102843Y-51775804D01*
X50102841Y-51775802D01*
X50098602Y-51771884D01*
X50089784Y-51766320D01*
X49932427Y-51667035D01*
X49927547Y-51663956D01*
X49739688Y-51589008D01*
X49541316Y-51549549D01*
X49535542Y-51549473D01*
X49535538Y-51549473D01*
X49433047Y-51548132D01*
X49339076Y-51546902D01*
X49333379Y-51547881D01*
X49333378Y-51547881D01*
X49145436Y-51580175D01*
X49145435Y-51580175D01*
X49139739Y-51581154D01*
X48949983Y-51651159D01*
X48945022Y-51654111D01*
X48945021Y-51654111D01*
X48783184Y-51750394D01*
X48776161Y-51754572D01*
X48624095Y-51887930D01*
X48498879Y-52046767D01*
X48404704Y-52225763D01*
X48344727Y-52418923D01*
X48320954Y-52619779D01*
X47988347Y-52619779D01*
X47972498Y-52447301D01*
X47969729Y-52437481D01*
X47924511Y-52277151D01*
X47917597Y-52252636D01*
X47828141Y-52071237D01*
X47809869Y-52046767D01*
X47710578Y-51913801D01*
X47710577Y-51913800D01*
X47707125Y-51909177D01*
X47702889Y-51905261D01*
X47562843Y-51775804D01*
X47562841Y-51775802D01*
X47558602Y-51771884D01*
X47549784Y-51766320D01*
X47392427Y-51667035D01*
X47387547Y-51663956D01*
X47199688Y-51589008D01*
X47001316Y-51549549D01*
X46995542Y-51549473D01*
X46995538Y-51549473D01*
X46893047Y-51548132D01*
X46799076Y-51546902D01*
X46793379Y-51547881D01*
X46793378Y-51547881D01*
X46605436Y-51580175D01*
X46605435Y-51580175D01*
X46599739Y-51581154D01*
X46409983Y-51651159D01*
X46405022Y-51654111D01*
X46405021Y-51654111D01*
X46243184Y-51750394D01*
X46236161Y-51754572D01*
X46084095Y-51887930D01*
X45958879Y-52046767D01*
X45864704Y-52225763D01*
X45804727Y-52418923D01*
X45780954Y-52619779D01*
X43750000Y-52619779D01*
X43750000Y-47302893D01*
X45550179Y-47302893D01*
X45551702Y-47311317D01*
X45564082Y-47314710D01*
X47013790Y-47314710D01*
X47081911Y-47334712D01*
X47128404Y-47388368D01*
X47139790Y-47440710D01*
X47139790Y-47696710D01*
X47119788Y-47764831D01*
X47066132Y-47811324D01*
X47013790Y-47822710D01*
X45569015Y-47822710D01*
X45555484Y-47826683D01*
X45554047Y-47836676D01*
X45584355Y-47971156D01*
X45587435Y-47980985D01*
X45667560Y-48178313D01*
X45672203Y-48187504D01*
X45783484Y-48369098D01*
X45789567Y-48377409D01*
X45929003Y-48538377D01*
X45936370Y-48545593D01*
X46100224Y-48681626D01*
X46108671Y-48687541D01*
X46292546Y-48794989D01*
X46301832Y-48799439D01*
X46456592Y-48858535D01*
X46513095Y-48901522D01*
X46537388Y-48968233D01*
X46521758Y-49037488D01*
X46471167Y-49087298D01*
X46455255Y-49094457D01*
X46415399Y-49109161D01*
X46409983Y-49111159D01*
X46405022Y-49114111D01*
X46405021Y-49114111D01*
X46249415Y-49206687D01*
X46236161Y-49214572D01*
X46084095Y-49347930D01*
X45958879Y-49506767D01*
X45864704Y-49685763D01*
X45804727Y-49878923D01*
X45780954Y-50079779D01*
X45794182Y-50281604D01*
X45843968Y-50477638D01*
X45928646Y-50661317D01*
X46045378Y-50826490D01*
X46190256Y-50967623D01*
X46195060Y-50970833D01*
X46233656Y-50996622D01*
X46358427Y-51079992D01*
X46363730Y-51082270D01*
X46363733Y-51082272D01*
X46488070Y-51135691D01*
X46544260Y-51159832D01*
X46741530Y-51204470D01*
X46747299Y-51204697D01*
X46747302Y-51204697D01*
X46823473Y-51207689D01*
X46943632Y-51212410D01*
X47029922Y-51199899D01*
X47138076Y-51184218D01*
X47138081Y-51184217D01*
X47143797Y-51183388D01*
X47149269Y-51181530D01*
X47149271Y-51181530D01*
X47329857Y-51120229D01*
X47329859Y-51120228D01*
X47335321Y-51118374D01*
X47511791Y-51019547D01*
X47574223Y-50967623D01*
X47621261Y-50928501D01*
X47667295Y-50890215D01*
X47796627Y-50734711D01*
X47895454Y-50558241D01*
X47911446Y-50511132D01*
X47958610Y-50372191D01*
X47958610Y-50372189D01*
X47960468Y-50366717D01*
X47961297Y-50361001D01*
X47961298Y-50360996D01*
X47988957Y-50170226D01*
X47989490Y-50166552D01*
X47991005Y-50108710D01*
X47988347Y-50079779D01*
X48320954Y-50079779D01*
X48334182Y-50281604D01*
X48383968Y-50477638D01*
X48468646Y-50661317D01*
X48585378Y-50826490D01*
X48730256Y-50967623D01*
X48735060Y-50970833D01*
X48773656Y-50996622D01*
X48898427Y-51079992D01*
X48903730Y-51082270D01*
X48903733Y-51082272D01*
X49028070Y-51135691D01*
X49084260Y-51159832D01*
X49281530Y-51204470D01*
X49287299Y-51204697D01*
X49287302Y-51204697D01*
X49363473Y-51207689D01*
X49483632Y-51212410D01*
X49569922Y-51199899D01*
X49678076Y-51184218D01*
X49678081Y-51184217D01*
X49683797Y-51183388D01*
X49689269Y-51181530D01*
X49689271Y-51181530D01*
X49869857Y-51120229D01*
X49869859Y-51120228D01*
X49875321Y-51118374D01*
X50051791Y-51019547D01*
X50114223Y-50967623D01*
X50161261Y-50928501D01*
X50207295Y-50890215D01*
X50336627Y-50734711D01*
X50435454Y-50558241D01*
X50451446Y-50511132D01*
X50498610Y-50372191D01*
X50498610Y-50372189D01*
X50500468Y-50366717D01*
X50501297Y-50361001D01*
X50501298Y-50360996D01*
X50528957Y-50170226D01*
X50529490Y-50166552D01*
X50531005Y-50108710D01*
X50512498Y-49907301D01*
X50457597Y-49712636D01*
X50383347Y-49562071D01*
X50370696Y-49536418D01*
X50368141Y-49531237D01*
X50352988Y-49510944D01*
X50250578Y-49373801D01*
X50250577Y-49373800D01*
X50247125Y-49369177D01*
X50242889Y-49365261D01*
X50102843Y-49235804D01*
X50102841Y-49235802D01*
X50098602Y-49231884D01*
X50068418Y-49212839D01*
X49932427Y-49127035D01*
X49927547Y-49123956D01*
X49739688Y-49049008D01*
X49541316Y-49009549D01*
X49535542Y-49009473D01*
X49535538Y-49009473D01*
X49433047Y-49008132D01*
X49339076Y-49006902D01*
X49333379Y-49007881D01*
X49333378Y-49007881D01*
X49145436Y-49040175D01*
X49145435Y-49040175D01*
X49139739Y-49041154D01*
X48949983Y-49111159D01*
X48945022Y-49114111D01*
X48945021Y-49114111D01*
X48789415Y-49206687D01*
X48776161Y-49214572D01*
X48624095Y-49347930D01*
X48498879Y-49506767D01*
X48404704Y-49685763D01*
X48344727Y-49878923D01*
X48320954Y-50079779D01*
X47988347Y-50079779D01*
X47972498Y-49907301D01*
X47917597Y-49712636D01*
X47843347Y-49562071D01*
X47830696Y-49536418D01*
X47828141Y-49531237D01*
X47812988Y-49510944D01*
X47710578Y-49373801D01*
X47710577Y-49373800D01*
X47707125Y-49369177D01*
X47702889Y-49365261D01*
X47562843Y-49235804D01*
X47562841Y-49235802D01*
X47558602Y-49231884D01*
X47528418Y-49212839D01*
X47392427Y-49127035D01*
X47387547Y-49123956D01*
X47311243Y-49093514D01*
X47255384Y-49049693D01*
X47232083Y-48982629D01*
X47248739Y-48913614D01*
X47300063Y-48864560D01*
X47321725Y-48855799D01*
X47378034Y-48838905D01*
X47387632Y-48835143D01*
X47578885Y-48741449D01*
X47587735Y-48736174D01*
X47761118Y-48612502D01*
X47768990Y-48605849D01*
X47919842Y-48455522D01*
X47926520Y-48447675D01*
X48050793Y-48274730D01*
X48056103Y-48265893D01*
X48150460Y-48074977D01*
X48154259Y-48065382D01*
X48172605Y-48004999D01*
X48211546Y-47945635D01*
X48276400Y-47916748D01*
X48346576Y-47927509D01*
X48399794Y-47974503D01*
X48407589Y-47988876D01*
X48440383Y-48060011D01*
X48468646Y-48121317D01*
X48471979Y-48126033D01*
X48570822Y-48265893D01*
X48585378Y-48286490D01*
X48589520Y-48290525D01*
X48661969Y-48361101D01*
X48730256Y-48427623D01*
X48735060Y-48430833D01*
X48773753Y-48456687D01*
X48898427Y-48539992D01*
X48903730Y-48542270D01*
X48903733Y-48542272D01*
X49061859Y-48610208D01*
X49084260Y-48619832D01*
X49281530Y-48664470D01*
X49287299Y-48664697D01*
X49287302Y-48664697D01*
X49363473Y-48667689D01*
X49483632Y-48672410D01*
X49569922Y-48659899D01*
X49678076Y-48644218D01*
X49678081Y-48644217D01*
X49683797Y-48643388D01*
X49689269Y-48641530D01*
X49689271Y-48641530D01*
X49869857Y-48580229D01*
X49869859Y-48580228D01*
X49875321Y-48578374D01*
X50051791Y-48479547D01*
X50114223Y-48427623D01*
X50199294Y-48356869D01*
X50207295Y-48350215D01*
X50336627Y-48194711D01*
X50435454Y-48018241D01*
X50444796Y-47990722D01*
X50498610Y-47832191D01*
X50498610Y-47832189D01*
X50500468Y-47826717D01*
X50501297Y-47821001D01*
X50501298Y-47820996D01*
X50528957Y-47630226D01*
X50529490Y-47626552D01*
X50531005Y-47568710D01*
X50512498Y-47367301D01*
X50457597Y-47172636D01*
X50368141Y-46991237D01*
X50349869Y-46966767D01*
X50250578Y-46833801D01*
X50250577Y-46833800D01*
X50247125Y-46829177D01*
X50240060Y-46822646D01*
X50102843Y-46695804D01*
X50102841Y-46695802D01*
X50098602Y-46691884D01*
X50082430Y-46681680D01*
X49932427Y-46587035D01*
X49927547Y-46583956D01*
X49739688Y-46509008D01*
X49541316Y-46469549D01*
X49535542Y-46469473D01*
X49535538Y-46469473D01*
X49433047Y-46468132D01*
X49339076Y-46466902D01*
X49333379Y-46467881D01*
X49333378Y-46467881D01*
X49145436Y-46500175D01*
X49145435Y-46500175D01*
X49139739Y-46501154D01*
X48949983Y-46571159D01*
X48945022Y-46574111D01*
X48945021Y-46574111D01*
X48891051Y-46606220D01*
X48776161Y-46674572D01*
X48624095Y-46807930D01*
X48498879Y-46966767D01*
X48496190Y-46971878D01*
X48496188Y-46971881D01*
X48405155Y-47144906D01*
X48355736Y-47195879D01*
X48286604Y-47212042D01*
X48219707Y-47188263D01*
X48176227Y-47129364D01*
X48175745Y-47129573D01*
X48174833Y-47127476D01*
X48174371Y-47126850D01*
X48173685Y-47124836D01*
X48088762Y-46929524D01*
X48083895Y-46920449D01*
X47968216Y-46741636D01*
X47961926Y-46733467D01*
X47818596Y-46575950D01*
X47811063Y-46568925D01*
X47643929Y-46436932D01*
X47635342Y-46431227D01*
X47448907Y-46328309D01*
X47439495Y-46324079D01*
X47319090Y-46281441D01*
X47261554Y-46239847D01*
X47235638Y-46173749D01*
X47249572Y-46104133D01*
X47298931Y-46053102D01*
X47320645Y-46043356D01*
X47324687Y-46041984D01*
X47329860Y-46040228D01*
X47329862Y-46040227D01*
X47335321Y-46038374D01*
X47472266Y-45961682D01*
X47506754Y-45942368D01*
X47506755Y-45942367D01*
X47511791Y-45939547D01*
X47574223Y-45887623D01*
X47662863Y-45813901D01*
X47667295Y-45810215D01*
X47796627Y-45654711D01*
X47895454Y-45478241D01*
X47900360Y-45463790D01*
X47958610Y-45292191D01*
X47958610Y-45292189D01*
X47960468Y-45286717D01*
X47961297Y-45281001D01*
X47961298Y-45280996D01*
X47986018Y-45110500D01*
X47989490Y-45086552D01*
X47991005Y-45028710D01*
X47972498Y-44827301D01*
X47917597Y-44632636D01*
X47838060Y-44471350D01*
X47830696Y-44456418D01*
X47828141Y-44451237D01*
X47817060Y-44436397D01*
X47710578Y-44293801D01*
X47710577Y-44293800D01*
X47707125Y-44289177D01*
X47684140Y-44267930D01*
X47562843Y-44155804D01*
X47562841Y-44155802D01*
X47558602Y-44151884D01*
X47531164Y-44134572D01*
X47392427Y-44047035D01*
X47387547Y-44043956D01*
X47199688Y-43969008D01*
X47001316Y-43929549D01*
X46995542Y-43929473D01*
X46995538Y-43929473D01*
X46893047Y-43928132D01*
X46799076Y-43926902D01*
X46793379Y-43927881D01*
X46793378Y-43927881D01*
X46605436Y-43960175D01*
X46605435Y-43960175D01*
X46599739Y-43961154D01*
X46409983Y-44031159D01*
X46236161Y-44134572D01*
X46084095Y-44267930D01*
X45958879Y-44426767D01*
X45864704Y-44605763D01*
X45804727Y-44798923D01*
X45780954Y-44999779D01*
X45794182Y-45201604D01*
X45795605Y-45207206D01*
X45830080Y-45342952D01*
X45843968Y-45397638D01*
X45928646Y-45581317D01*
X45931979Y-45586033D01*
X46025807Y-45718797D01*
X46045378Y-45746490D01*
X46049520Y-45750525D01*
X46132928Y-45831777D01*
X46190256Y-45887623D01*
X46195060Y-45890833D01*
X46200005Y-45894137D01*
X46358427Y-45999992D01*
X46363730Y-46002270D01*
X46363733Y-46002272D01*
X46464499Y-46045564D01*
X46519192Y-46090832D01*
X46540729Y-46158483D01*
X46522272Y-46227039D01*
X46469681Y-46274733D01*
X46453906Y-46281097D01*
X46362658Y-46310922D01*
X46353149Y-46314919D01*
X46164253Y-46413252D01*
X46155528Y-46418746D01*
X45985223Y-46546615D01*
X45977516Y-46553458D01*
X45830380Y-46707427D01*
X45823894Y-46715437D01*
X45703888Y-46891359D01*
X45698790Y-46900333D01*
X45609128Y-47093493D01*
X45605565Y-47103180D01*
X45550179Y-47302893D01*
X43750000Y-47302893D01*
X43750000Y-27219779D01*
X45780954Y-27219779D01*
X45794182Y-27421604D01*
X45843968Y-27617638D01*
X45928646Y-27801317D01*
X46045378Y-27966490D01*
X46190256Y-28107623D01*
X46358427Y-28219992D01*
X46363730Y-28222270D01*
X46363733Y-28222272D01*
X46538953Y-28297552D01*
X46544260Y-28299832D01*
X46741530Y-28344470D01*
X46747299Y-28344697D01*
X46747302Y-28344697D01*
X46823473Y-28347689D01*
X46943632Y-28352410D01*
X47029922Y-28339899D01*
X47138076Y-28324218D01*
X47138081Y-28324217D01*
X47143797Y-28323388D01*
X47149269Y-28321530D01*
X47149271Y-28321530D01*
X47329857Y-28260229D01*
X47329859Y-28260228D01*
X47335321Y-28258374D01*
X47511791Y-28159547D01*
X47555272Y-28123384D01*
X48325290Y-28123384D01*
X48339824Y-28196450D01*
X48395189Y-28279311D01*
X48478050Y-28334676D01*
X48551116Y-28349210D01*
X50300464Y-28349210D01*
X50373530Y-28334676D01*
X50456391Y-28279311D01*
X50511756Y-28196450D01*
X50526290Y-28123384D01*
X50526290Y-26374036D01*
X50511756Y-26300970D01*
X50456391Y-26218109D01*
X50373530Y-26162744D01*
X50300464Y-26148210D01*
X48551116Y-26148210D01*
X48478050Y-26162744D01*
X48395189Y-26218109D01*
X48339824Y-26300970D01*
X48325290Y-26374036D01*
X48325290Y-28123384D01*
X47555272Y-28123384D01*
X47574223Y-28107623D01*
X47662863Y-28033901D01*
X47667295Y-28030215D01*
X47796627Y-27874711D01*
X47895454Y-27698241D01*
X47960468Y-27506717D01*
X47961297Y-27501001D01*
X47961298Y-27500996D01*
X47988957Y-27310226D01*
X47989490Y-27306552D01*
X47991005Y-27248710D01*
X47972498Y-27047301D01*
X47917597Y-26852636D01*
X47828141Y-26671237D01*
X47809869Y-26646767D01*
X47710578Y-26513801D01*
X47710577Y-26513800D01*
X47707125Y-26509177D01*
X47684140Y-26487930D01*
X47562843Y-26375804D01*
X47562841Y-26375802D01*
X47558602Y-26371884D01*
X47531164Y-26354572D01*
X47392427Y-26267035D01*
X47387547Y-26263956D01*
X47199688Y-26189008D01*
X47001316Y-26149549D01*
X46995542Y-26149473D01*
X46995538Y-26149473D01*
X46893047Y-26148132D01*
X46799076Y-26146902D01*
X46793379Y-26147881D01*
X46793378Y-26147881D01*
X46605436Y-26180175D01*
X46605435Y-26180175D01*
X46599739Y-26181154D01*
X46409983Y-26251159D01*
X46236161Y-26354572D01*
X46084095Y-26487930D01*
X45958879Y-26646767D01*
X45864704Y-26825763D01*
X45804727Y-27018923D01*
X45780954Y-27219779D01*
X43750000Y-27219779D01*
X43750000Y-24376000D01*
X43770002Y-24307879D01*
X43823658Y-24261386D01*
X43876000Y-24250000D01*
X46462966Y-24250000D01*
X46487547Y-24252421D01*
X46500000Y-24254898D01*
X46597545Y-24235495D01*
X46680240Y-24180240D01*
X46687133Y-24169924D01*
X46728602Y-24107862D01*
X46728603Y-24107860D01*
X46735495Y-24097545D01*
X46750000Y-24024624D01*
X46754898Y-24000000D01*
X46752421Y-23987547D01*
X46750000Y-23962966D01*
X46750000Y-22196091D01*
X46770002Y-22127970D01*
X46823658Y-22081477D01*
X46893932Y-22071373D01*
X46951011Y-22097200D01*
X46952043Y-22095793D01*
X47161394Y-22249296D01*
X47169293Y-22254232D01*
X47394901Y-22372930D01*
X47403450Y-22376647D01*
X47644113Y-22460690D01*
X47653122Y-22463104D01*
X47903572Y-22510654D01*
X47912827Y-22511708D01*
X48167557Y-22521717D01*
X48176871Y-22521391D01*
X48430270Y-22493640D01*
X48439447Y-22491939D01*
X48685960Y-22427037D01*
X48694780Y-22424000D01*
X48928997Y-22323373D01*
X48937269Y-22319066D01*
X49154036Y-22184927D01*
X49161579Y-22179447D01*
X49163272Y-22178014D01*
X49171710Y-22165211D01*
X49170674Y-22163442D01*
X52131303Y-22163442D01*
X52140017Y-22174962D01*
X52241394Y-22249296D01*
X52249293Y-22254232D01*
X52474901Y-22372930D01*
X52483450Y-22376647D01*
X52724113Y-22460690D01*
X52733122Y-22463104D01*
X52983572Y-22510654D01*
X52992827Y-22511708D01*
X53247557Y-22521717D01*
X53256871Y-22521391D01*
X53510270Y-22493640D01*
X53519447Y-22491939D01*
X53765960Y-22427037D01*
X53774780Y-22424000D01*
X54008997Y-22323373D01*
X54017269Y-22319066D01*
X54234036Y-22184927D01*
X54241579Y-22179447D01*
X54243272Y-22178014D01*
X54251710Y-22165211D01*
X54245645Y-22154855D01*
X53202812Y-21112022D01*
X53188868Y-21104408D01*
X53187035Y-21104539D01*
X53180420Y-21108790D01*
X52137961Y-22151249D01*
X52131303Y-22163442D01*
X49170674Y-22163442D01*
X49165645Y-22154855D01*
X47839885Y-20829095D01*
X47805859Y-20766783D01*
X47807694Y-20741132D01*
X48474408Y-20741132D01*
X48474539Y-20742965D01*
X48478790Y-20749580D01*
X49524386Y-21795176D01*
X49536766Y-21801936D01*
X49545107Y-21795692D01*
X49674391Y-21594697D01*
X49678838Y-21586506D01*
X49783536Y-21354085D01*
X49786731Y-21345307D01*
X49855923Y-21099968D01*
X49857781Y-21090839D01*
X49890144Y-20836444D01*
X49890625Y-20830158D01*
X49892903Y-20743160D01*
X49892752Y-20736851D01*
X49889865Y-20697999D01*
X51407849Y-20697999D01*
X51420080Y-20952619D01*
X51421217Y-20961879D01*
X51470947Y-21211894D01*
X51473441Y-21220887D01*
X51559578Y-21460797D01*
X51563378Y-21469332D01*
X51684031Y-21693877D01*
X51689045Y-21701748D01*
X51755154Y-21790279D01*
X51766414Y-21798729D01*
X51778832Y-21791958D01*
X52817978Y-20752812D01*
X52824356Y-20741132D01*
X53554408Y-20741132D01*
X53554539Y-20742965D01*
X53558790Y-20749580D01*
X54604386Y-21795176D01*
X54616766Y-21801936D01*
X54625107Y-21795692D01*
X54754391Y-21594697D01*
X54758838Y-21586506D01*
X54863536Y-21354085D01*
X54866731Y-21345307D01*
X54935923Y-21099968D01*
X54937781Y-21090839D01*
X54970144Y-20836444D01*
X54970625Y-20830158D01*
X54972903Y-20743160D01*
X54972752Y-20736851D01*
X54953747Y-20481110D01*
X54952370Y-20471904D01*
X54896109Y-20223262D01*
X54893385Y-20214351D01*
X54800990Y-19976758D01*
X54796979Y-19968349D01*
X54670482Y-19747027D01*
X54665269Y-19739298D01*
X54625633Y-19689019D01*
X54613709Y-19680549D01*
X54602174Y-19687036D01*
X53562022Y-20727188D01*
X53554408Y-20741132D01*
X52824356Y-20741132D01*
X52825592Y-20738868D01*
X52825461Y-20737035D01*
X52821210Y-20730420D01*
X51777119Y-19686329D01*
X51763811Y-19679062D01*
X51753772Y-19686184D01*
X51741433Y-19701020D01*
X51736018Y-19708612D01*
X51603776Y-19926540D01*
X51599538Y-19934857D01*
X51500961Y-20169935D01*
X51498000Y-20178785D01*
X51435255Y-20425849D01*
X51433633Y-20435046D01*
X51408094Y-20688673D01*
X51407849Y-20697999D01*
X49889865Y-20697999D01*
X49873747Y-20481110D01*
X49872370Y-20471904D01*
X49816109Y-20223262D01*
X49813385Y-20214351D01*
X49720990Y-19976758D01*
X49716979Y-19968349D01*
X49590482Y-19747027D01*
X49585269Y-19739298D01*
X49545633Y-19689019D01*
X49533709Y-19680549D01*
X49522174Y-19687036D01*
X48482022Y-20727188D01*
X48474408Y-20741132D01*
X47807694Y-20741132D01*
X47810924Y-20695968D01*
X47839885Y-20650905D01*
X49162790Y-19328000D01*
X49169174Y-19316310D01*
X49167656Y-19314357D01*
X52128770Y-19314357D01*
X52133343Y-19324133D01*
X53177188Y-20367978D01*
X53191132Y-20375592D01*
X53192965Y-20375461D01*
X53199580Y-20371210D01*
X54242790Y-19328000D01*
X54249174Y-19316310D01*
X54239762Y-19304199D01*
X54098776Y-19206392D01*
X54090741Y-19201659D01*
X53862106Y-19088909D01*
X53853473Y-19085421D01*
X53610675Y-19007701D01*
X53601624Y-19005528D01*
X53350009Y-18964550D01*
X53340720Y-18963738D01*
X53085828Y-18960401D01*
X53076517Y-18960971D01*
X52823927Y-18995347D01*
X52814808Y-18997285D01*
X52570084Y-19068616D01*
X52561331Y-19071888D01*
X52329837Y-19178608D01*
X52321682Y-19183128D01*
X52137907Y-19303616D01*
X52128770Y-19314357D01*
X49167656Y-19314357D01*
X49159762Y-19304199D01*
X49018776Y-19206392D01*
X49010741Y-19201659D01*
X48782106Y-19088909D01*
X48773473Y-19085421D01*
X48530675Y-19007701D01*
X48521624Y-19005528D01*
X48270009Y-18964550D01*
X48260720Y-18963738D01*
X48005828Y-18960401D01*
X47996517Y-18960971D01*
X47743927Y-18995347D01*
X47734808Y-18997285D01*
X47490084Y-19068616D01*
X47481331Y-19071888D01*
X47249837Y-19178608D01*
X47241682Y-19183128D01*
X47028500Y-19322896D01*
X47021103Y-19328573D01*
X46959901Y-19383197D01*
X46895760Y-19413634D01*
X46825345Y-19404562D01*
X46771013Y-19358862D01*
X46750000Y-19289193D01*
X46750000Y-16756091D01*
X46770002Y-16687970D01*
X46823658Y-16641477D01*
X46893932Y-16631373D01*
X46951011Y-16657200D01*
X46952043Y-16655793D01*
X47161394Y-16809296D01*
X47169293Y-16814232D01*
X47394901Y-16932930D01*
X47403450Y-16936647D01*
X47644113Y-17020690D01*
X47653122Y-17023104D01*
X47903572Y-17070654D01*
X47912827Y-17071708D01*
X48167557Y-17081717D01*
X48176871Y-17081391D01*
X48430270Y-17053640D01*
X48439447Y-17051939D01*
X48685960Y-16987037D01*
X48694780Y-16984000D01*
X48928997Y-16883373D01*
X48937269Y-16879066D01*
X49154036Y-16744927D01*
X49161579Y-16739447D01*
X49163272Y-16738014D01*
X49171710Y-16725211D01*
X49170674Y-16723442D01*
X52131303Y-16723442D01*
X52140017Y-16734962D01*
X52241394Y-16809296D01*
X52249293Y-16814232D01*
X52474901Y-16932930D01*
X52483450Y-16936647D01*
X52724113Y-17020690D01*
X52733122Y-17023104D01*
X52983572Y-17070654D01*
X52992827Y-17071708D01*
X53247557Y-17081717D01*
X53256871Y-17081391D01*
X53510270Y-17053640D01*
X53519447Y-17051939D01*
X53765960Y-16987037D01*
X53774780Y-16984000D01*
X54008997Y-16883373D01*
X54017269Y-16879066D01*
X54234036Y-16744927D01*
X54241579Y-16739447D01*
X54243272Y-16738014D01*
X54251710Y-16725211D01*
X54245645Y-16714855D01*
X53202812Y-15672022D01*
X53188868Y-15664408D01*
X53187035Y-15664539D01*
X53180420Y-15668790D01*
X52137961Y-16711249D01*
X52131303Y-16723442D01*
X49170674Y-16723442D01*
X49165645Y-16714855D01*
X47839885Y-15389095D01*
X47805859Y-15326783D01*
X47810924Y-15255968D01*
X47839885Y-15210905D01*
X48020905Y-15029885D01*
X48083217Y-14995859D01*
X48154032Y-15000924D01*
X48199095Y-15029885D01*
X49524386Y-16355176D01*
X49536766Y-16361936D01*
X49545107Y-16355692D01*
X49674391Y-16154697D01*
X49678838Y-16146506D01*
X49783536Y-15914085D01*
X49786731Y-15905307D01*
X49855923Y-15659968D01*
X49857781Y-15650839D01*
X49890144Y-15396444D01*
X49890625Y-15390158D01*
X49892903Y-15303160D01*
X49892752Y-15296851D01*
X49873747Y-15041110D01*
X49872370Y-15031904D01*
X49816109Y-14783262D01*
X49813385Y-14774351D01*
X49720990Y-14536758D01*
X49716979Y-14528349D01*
X49590481Y-14307025D01*
X49585270Y-14299299D01*
X49447081Y-14124006D01*
X49420616Y-14058126D01*
X49433969Y-13988397D01*
X49482901Y-13936956D01*
X49546031Y-13920000D01*
X51756381Y-13920000D01*
X51824502Y-13940002D01*
G37*
%TD.AperFunction*%
%TA.AperFunction,Conductor*%
G36*
X63042794Y-64536164D02*
G01*
X63091173Y-64588127D01*
X63104500Y-64644526D01*
X63104500Y-65206504D01*
X63102021Y-65229801D01*
X63101923Y-65231886D01*
X63099731Y-65242066D01*
X63100955Y-65252405D01*
X63103627Y-65274984D01*
X63103971Y-65280821D01*
X63104072Y-65280813D01*
X63104500Y-65285992D01*
X63104500Y-65291193D01*
X63105354Y-65296321D01*
X63105354Y-65296327D01*
X63107628Y-65309987D01*
X63108465Y-65315863D01*
X63114424Y-65366210D01*
X63118346Y-65374377D01*
X63119833Y-65383313D01*
X63124777Y-65392475D01*
X63124778Y-65392479D01*
X63143906Y-65427929D01*
X63146602Y-65433220D01*
X63168537Y-65478900D01*
X63172094Y-65483131D01*
X63174026Y-65485063D01*
X63175745Y-65486937D01*
X63175819Y-65487074D01*
X63175709Y-65487174D01*
X63176132Y-65487654D01*
X63179194Y-65493329D01*
X63186841Y-65500398D01*
X63186842Y-65500399D01*
X63218367Y-65529540D01*
X63221933Y-65532970D01*
X65496652Y-67807689D01*
X65511377Y-67825920D01*
X65512778Y-67827460D01*
X65518428Y-67836210D01*
X65526606Y-67842657D01*
X65544465Y-67856736D01*
X65548832Y-67860617D01*
X65548898Y-67860539D01*
X65552856Y-67863893D01*
X65556538Y-67867575D01*
X65560769Y-67870598D01*
X65560772Y-67870601D01*
X65565591Y-67874044D01*
X65572052Y-67878661D01*
X65576781Y-67882212D01*
X65616600Y-67913603D01*
X65625149Y-67916605D01*
X65632519Y-67921872D01*
X65681078Y-67936394D01*
X65686719Y-67938227D01*
X65727064Y-67952395D01*
X65734548Y-67955023D01*
X65740055Y-67955500D01*
X65742762Y-67955500D01*
X65745334Y-67955611D01*
X65745494Y-67955659D01*
X65745488Y-67955803D01*
X65746106Y-67955842D01*
X65752286Y-67957690D01*
X65805555Y-67955597D01*
X65810501Y-67955500D01*
X66950907Y-67955500D01*
X67019028Y-67975502D01*
X67065521Y-68029158D01*
X67075625Y-68099432D01*
X67072005Y-68114996D01*
X67068891Y-68121107D01*
X67067341Y-68130895D01*
X67067340Y-68130897D01*
X67066611Y-68135500D01*
X67054500Y-68211967D01*
X67054501Y-68548032D01*
X67055276Y-68552925D01*
X67062958Y-68601428D01*
X67068891Y-68638893D01*
X67097427Y-68694897D01*
X67097769Y-68695569D01*
X67110873Y-68765346D01*
X67084173Y-68831130D01*
X67074597Y-68841867D01*
X65175276Y-70741187D01*
X65112964Y-70775213D01*
X65042148Y-70770148D01*
X64985313Y-70727601D01*
X64960787Y-70664439D01*
X64960500Y-70661525D01*
X64960500Y-70655326D01*
X64945966Y-70582260D01*
X64925534Y-70551680D01*
X64917963Y-70540350D01*
X64890601Y-70499399D01*
X64807740Y-70444034D01*
X64734674Y-70429500D01*
X63920173Y-70429500D01*
X63852052Y-70409498D01*
X63819347Y-70379065D01*
X63778285Y-70324276D01*
X63765724Y-70311715D01*
X63663649Y-70235214D01*
X63648054Y-70226676D01*
X63527606Y-70181522D01*
X63512351Y-70177895D01*
X63461486Y-70172369D01*
X63454672Y-70172000D01*
X63182115Y-70172000D01*
X63166876Y-70176475D01*
X63165671Y-70177865D01*
X63164000Y-70185548D01*
X63164000Y-71558000D01*
X63143998Y-71626121D01*
X63090342Y-71672614D01*
X63038000Y-71684000D01*
X61920116Y-71684000D01*
X61904877Y-71688475D01*
X61903672Y-71689865D01*
X61902001Y-71697548D01*
X61902001Y-72224669D01*
X61902371Y-72231490D01*
X61907895Y-72282352D01*
X61911521Y-72297603D01*
X61958523Y-72422980D01*
X61963706Y-72493787D01*
X61929785Y-72556156D01*
X61867530Y-72590286D01*
X61840541Y-72593210D01*
X59827911Y-72593210D01*
X59759790Y-72573208D01*
X59713297Y-72519552D01*
X59703193Y-72449278D01*
X59732687Y-72384698D01*
X59757910Y-72362444D01*
X59780286Y-72347493D01*
X59790601Y-72340601D01*
X59845966Y-72257740D01*
X59860500Y-72184674D01*
X59860500Y-71242727D01*
X59880502Y-71174606D01*
X59893977Y-71157885D01*
X61902000Y-71157885D01*
X61906475Y-71173124D01*
X61907865Y-71174329D01*
X61915548Y-71176000D01*
X62637885Y-71176000D01*
X62653124Y-71171525D01*
X62654329Y-71170135D01*
X62656000Y-71162452D01*
X62656000Y-70190116D01*
X62651525Y-70174877D01*
X62650135Y-70173672D01*
X62642452Y-70172001D01*
X62365331Y-70172001D01*
X62358510Y-70172371D01*
X62307648Y-70177895D01*
X62292396Y-70181521D01*
X62171946Y-70226676D01*
X62156351Y-70235214D01*
X62054276Y-70311715D01*
X62041715Y-70324276D01*
X61965214Y-70426351D01*
X61956676Y-70441946D01*
X61911522Y-70562394D01*
X61907895Y-70577649D01*
X61902369Y-70628514D01*
X61902000Y-70635328D01*
X61902000Y-71157885D01*
X59893977Y-71157885D01*
X59897405Y-71153632D01*
X62878632Y-68172405D01*
X62940944Y-68138379D01*
X62967727Y-68135500D01*
X63158256Y-68135500D01*
X63226377Y-68155502D01*
X63247351Y-68172405D01*
X63251684Y-68176738D01*
X63256711Y-68183289D01*
X63380689Y-68278421D01*
X63525065Y-68338223D01*
X63680000Y-68358621D01*
X63834935Y-68338223D01*
X63979311Y-68278421D01*
X64041300Y-68230855D01*
X64096736Y-68188318D01*
X64096739Y-68188315D01*
X64103289Y-68183289D01*
X64112437Y-68171368D01*
X64193394Y-68065861D01*
X64198421Y-68059310D01*
X64258223Y-67914935D01*
X64278621Y-67760000D01*
X64258223Y-67605065D01*
X64198421Y-67460690D01*
X64143000Y-67388463D01*
X64108316Y-67343262D01*
X64108315Y-67343261D01*
X64103289Y-67336711D01*
X64096738Y-67331684D01*
X64096736Y-67331682D01*
X64038201Y-67286767D01*
X63979311Y-67241579D01*
X63834935Y-67181777D01*
X63680000Y-67161379D01*
X63525065Y-67181777D01*
X63380690Y-67241579D01*
X63374139Y-67246606D01*
X63264278Y-67330905D01*
X63256711Y-67336711D01*
X63251683Y-67343264D01*
X63247354Y-67347593D01*
X63185042Y-67381620D01*
X63158256Y-67384500D01*
X62813501Y-67384500D01*
X62790187Y-67382019D01*
X62788112Y-67381921D01*
X62777934Y-67379730D01*
X62745231Y-67383601D01*
X62745008Y-67383627D01*
X62739178Y-67383971D01*
X62739186Y-67384072D01*
X62734007Y-67384500D01*
X62728807Y-67384500D01*
X62723681Y-67385353D01*
X62723672Y-67385354D01*
X62710023Y-67387626D01*
X62704147Y-67388463D01*
X62692632Y-67389826D01*
X62653791Y-67394423D01*
X62645622Y-67398346D01*
X62636687Y-67399833D01*
X62627524Y-67404777D01*
X62592079Y-67423902D01*
X62586790Y-67426597D01*
X62548241Y-67445108D01*
X62548239Y-67445109D01*
X62541101Y-67448537D01*
X62536869Y-67452094D01*
X62534927Y-67454036D01*
X62533064Y-67455745D01*
X62532917Y-67455824D01*
X62532818Y-67455716D01*
X62532346Y-67456132D01*
X62526671Y-67459194D01*
X62519602Y-67466841D01*
X62519601Y-67466842D01*
X62490460Y-67498367D01*
X62487030Y-67501933D01*
X59616368Y-70372595D01*
X59554056Y-70406621D01*
X59527273Y-70409500D01*
X58820173Y-70409500D01*
X58752052Y-70389498D01*
X58719347Y-70359065D01*
X58678285Y-70304276D01*
X58665724Y-70291715D01*
X58563649Y-70215214D01*
X58548054Y-70206676D01*
X58427606Y-70161522D01*
X58412351Y-70157895D01*
X58361486Y-70152369D01*
X58354672Y-70152000D01*
X58082115Y-70152000D01*
X58066876Y-70156475D01*
X58065671Y-70157865D01*
X58064000Y-70165548D01*
X58064000Y-71538000D01*
X58043998Y-71606121D01*
X57990342Y-71652614D01*
X57938000Y-71664000D01*
X56820116Y-71664000D01*
X56804877Y-71668475D01*
X56803672Y-71669865D01*
X56802001Y-71677548D01*
X56802001Y-72204669D01*
X56802371Y-72211490D01*
X56807895Y-72262352D01*
X56811521Y-72277604D01*
X56856675Y-72398053D01*
X56861409Y-72406698D01*
X56876579Y-72476055D01*
X56851844Y-72542604D01*
X56795057Y-72585215D01*
X56750890Y-72593210D01*
X50546095Y-72593210D01*
X50477974Y-72573208D01*
X50433089Y-72522939D01*
X50418713Y-72493787D01*
X50368141Y-72391237D01*
X50349869Y-72366767D01*
X50250578Y-72233801D01*
X50250577Y-72233800D01*
X50247125Y-72229177D01*
X50242889Y-72225261D01*
X50102843Y-72095804D01*
X50102841Y-72095802D01*
X50098602Y-72091884D01*
X50069307Y-72073400D01*
X49932427Y-71987035D01*
X49927547Y-71983956D01*
X49739688Y-71909008D01*
X49541316Y-71869549D01*
X49535542Y-71869473D01*
X49535538Y-71869473D01*
X49433047Y-71868132D01*
X49339076Y-71866902D01*
X49333379Y-71867881D01*
X49333378Y-71867881D01*
X49145436Y-71900175D01*
X49145435Y-71900175D01*
X49139739Y-71901154D01*
X48949983Y-71971159D01*
X48945022Y-71974111D01*
X48945021Y-71974111D01*
X48803482Y-72058318D01*
X48776161Y-72074572D01*
X48624095Y-72207930D01*
X48498879Y-72366767D01*
X48404704Y-72545763D01*
X48344727Y-72738923D01*
X48320954Y-72939779D01*
X48334182Y-73141604D01*
X48335605Y-73147206D01*
X48382121Y-73330364D01*
X48383968Y-73337638D01*
X48468646Y-73521317D01*
X48471976Y-73526029D01*
X48471979Y-73526034D01*
X48563674Y-73655780D01*
X48586655Y-73722955D01*
X48569670Y-73791890D01*
X48518113Y-73840699D01*
X48460777Y-73854500D01*
X47854807Y-73854500D01*
X47786686Y-73834498D01*
X47765712Y-73817595D01*
X47762672Y-73814555D01*
X47728646Y-73752243D01*
X47733711Y-73681428D01*
X47754893Y-73644891D01*
X47792936Y-73599149D01*
X47796627Y-73594711D01*
X47895454Y-73418241D01*
X47918966Y-73348979D01*
X47958610Y-73232191D01*
X47958610Y-73232189D01*
X47960468Y-73226717D01*
X47961297Y-73221001D01*
X47961298Y-73220996D01*
X47980185Y-73090727D01*
X47989490Y-73026552D01*
X47991005Y-72968710D01*
X47972498Y-72767301D01*
X47960696Y-72725452D01*
X47922575Y-72590286D01*
X47917597Y-72572636D01*
X47828141Y-72391237D01*
X47809869Y-72366767D01*
X47710578Y-72233801D01*
X47710577Y-72233800D01*
X47707125Y-72229177D01*
X47702889Y-72225261D01*
X47562843Y-72095804D01*
X47562841Y-72095802D01*
X47558602Y-72091884D01*
X47529307Y-72073400D01*
X47392427Y-71987035D01*
X47387547Y-71983956D01*
X47311243Y-71953514D01*
X47255384Y-71909693D01*
X47232083Y-71842629D01*
X47248739Y-71773614D01*
X47300063Y-71724560D01*
X47321725Y-71715799D01*
X47378034Y-71698905D01*
X47387632Y-71695143D01*
X47578885Y-71601449D01*
X47587735Y-71596174D01*
X47761118Y-71472502D01*
X47768990Y-71465849D01*
X47919842Y-71315522D01*
X47926520Y-71307675D01*
X48050793Y-71134730D01*
X48056103Y-71125893D01*
X48150460Y-70934977D01*
X48154259Y-70925382D01*
X48172605Y-70864999D01*
X48211546Y-70805635D01*
X48276400Y-70776748D01*
X48346576Y-70787509D01*
X48399794Y-70834503D01*
X48407589Y-70848876D01*
X48447283Y-70934977D01*
X48468646Y-70981317D01*
X48484028Y-71003082D01*
X48579297Y-71137885D01*
X48585378Y-71146490D01*
X48589520Y-71150525D01*
X48647197Y-71206711D01*
X48730256Y-71287623D01*
X48735060Y-71290833D01*
X48784906Y-71324139D01*
X48898427Y-71399992D01*
X48903730Y-71402270D01*
X48903733Y-71402272D01*
X49055403Y-71467434D01*
X49084260Y-71479832D01*
X49281530Y-71524470D01*
X49287299Y-71524697D01*
X49287302Y-71524697D01*
X49363473Y-71527689D01*
X49483632Y-71532410D01*
X49569922Y-71519899D01*
X49678076Y-71504218D01*
X49678081Y-71504217D01*
X49683797Y-71503388D01*
X49689269Y-71501530D01*
X49689271Y-71501530D01*
X49869857Y-71440229D01*
X49869859Y-71440228D01*
X49875321Y-71438374D01*
X50051791Y-71339547D01*
X50056228Y-71335857D01*
X50056235Y-71335852D01*
X50126607Y-71277324D01*
X50191771Y-71249143D01*
X50261826Y-71260667D01*
X50314530Y-71308235D01*
X50333150Y-71376747D01*
X50323585Y-71422416D01*
X50301777Y-71475065D01*
X50281379Y-71630000D01*
X50301777Y-71784935D01*
X50361579Y-71929310D01*
X50456711Y-72053289D01*
X50463261Y-72058315D01*
X50463264Y-72058318D01*
X50507009Y-72091884D01*
X50580689Y-72148421D01*
X50725065Y-72208223D01*
X50880000Y-72228621D01*
X51034935Y-72208223D01*
X51179311Y-72148421D01*
X51252991Y-72091884D01*
X51296736Y-72058318D01*
X51296739Y-72058315D01*
X51303289Y-72053289D01*
X51398421Y-71929310D01*
X51458223Y-71784935D01*
X51478621Y-71630000D01*
X51458223Y-71475065D01*
X51398421Y-71330690D01*
X51303289Y-71206711D01*
X51296739Y-71201685D01*
X51296736Y-71201682D01*
X51229558Y-71150135D01*
X51213594Y-71137885D01*
X56802000Y-71137885D01*
X56806475Y-71153124D01*
X56807865Y-71154329D01*
X56815548Y-71156000D01*
X57537885Y-71156000D01*
X57553124Y-71151525D01*
X57554329Y-71150135D01*
X57556000Y-71142452D01*
X57556000Y-70170116D01*
X57551525Y-70154877D01*
X57550135Y-70153672D01*
X57542452Y-70152001D01*
X57265331Y-70152001D01*
X57258510Y-70152371D01*
X57207648Y-70157895D01*
X57192396Y-70161521D01*
X57071946Y-70206676D01*
X57056351Y-70215214D01*
X56954276Y-70291715D01*
X56941715Y-70304276D01*
X56865214Y-70406351D01*
X56856676Y-70421946D01*
X56811522Y-70542394D01*
X56807895Y-70557649D01*
X56802369Y-70608514D01*
X56802000Y-70615328D01*
X56802000Y-71137885D01*
X51213594Y-71137885D01*
X51179311Y-71111579D01*
X51073189Y-71067622D01*
X51017908Y-71023074D01*
X50995487Y-70955710D01*
X51013045Y-70886919D01*
X51065007Y-70838541D01*
X51073189Y-70834804D01*
X51097375Y-70824786D01*
X51209311Y-70778421D01*
X51314794Y-70697481D01*
X51326736Y-70688318D01*
X51326739Y-70688315D01*
X51333289Y-70683289D01*
X51428421Y-70559310D01*
X51484191Y-70424669D01*
X52832001Y-70424669D01*
X52832371Y-70431490D01*
X52837895Y-70482352D01*
X52841521Y-70497604D01*
X52886676Y-70618054D01*
X52895214Y-70633649D01*
X52971715Y-70735724D01*
X52984276Y-70748285D01*
X53086351Y-70824786D01*
X53101946Y-70833324D01*
X53222394Y-70878478D01*
X53237649Y-70882105D01*
X53288514Y-70887631D01*
X53295328Y-70888000D01*
X53817885Y-70888000D01*
X53833124Y-70883525D01*
X53834329Y-70882135D01*
X53836000Y-70874452D01*
X53836000Y-70869884D01*
X54344000Y-70869884D01*
X54348475Y-70885123D01*
X54349865Y-70886328D01*
X54357548Y-70887999D01*
X54884669Y-70887999D01*
X54891490Y-70887629D01*
X54942352Y-70882105D01*
X54957604Y-70878479D01*
X55078054Y-70833324D01*
X55093649Y-70824786D01*
X55195724Y-70748285D01*
X55208285Y-70735724D01*
X55284786Y-70633649D01*
X55293324Y-70618054D01*
X55338478Y-70497606D01*
X55342105Y-70482351D01*
X55347631Y-70431486D01*
X55348000Y-70424672D01*
X55348000Y-70152115D01*
X55343525Y-70136876D01*
X55342135Y-70135671D01*
X55334452Y-70134000D01*
X54362115Y-70134000D01*
X54346876Y-70138475D01*
X54345671Y-70139865D01*
X54344000Y-70147548D01*
X54344000Y-70869884D01*
X53836000Y-70869884D01*
X53836000Y-70152115D01*
X53831525Y-70136876D01*
X53830135Y-70135671D01*
X53822452Y-70134000D01*
X52850116Y-70134000D01*
X52834877Y-70138475D01*
X52833672Y-70139865D01*
X52832001Y-70147548D01*
X52832001Y-70424669D01*
X51484191Y-70424669D01*
X51488223Y-70414935D01*
X51508621Y-70260000D01*
X51488223Y-70105065D01*
X51428421Y-69960690D01*
X51333289Y-69836711D01*
X51326739Y-69831685D01*
X51326736Y-69831682D01*
X51271300Y-69789145D01*
X51209311Y-69741579D01*
X51064935Y-69681777D01*
X51042821Y-69678866D01*
X51002388Y-69673542D01*
X50937461Y-69644819D01*
X50898370Y-69585553D01*
X50897525Y-69514562D01*
X50926311Y-69463090D01*
X50927937Y-69461332D01*
X50946147Y-69441632D01*
X50949576Y-69438067D01*
X53497773Y-66889870D01*
X53560085Y-66855844D01*
X53630900Y-66860909D01*
X53687736Y-66903456D01*
X53712771Y-66974018D01*
X53713464Y-66991654D01*
X53714403Y-67015555D01*
X53714500Y-67020502D01*
X53714500Y-67703500D01*
X53694498Y-67771621D01*
X53640842Y-67818114D01*
X53588500Y-67829500D01*
X53315326Y-67829500D01*
X53242260Y-67844034D01*
X53231943Y-67850928D01*
X53231942Y-67850928D01*
X53217558Y-67860539D01*
X53159399Y-67899399D01*
X53134111Y-67937246D01*
X53113946Y-67967426D01*
X53104034Y-67982260D01*
X53089500Y-68055326D01*
X53089500Y-68869827D01*
X53069498Y-68937948D01*
X53039065Y-68970653D01*
X52984276Y-69011715D01*
X52971715Y-69024276D01*
X52895214Y-69126351D01*
X52886676Y-69141946D01*
X52841522Y-69262394D01*
X52837895Y-69277649D01*
X52832369Y-69328514D01*
X52832000Y-69335328D01*
X52832000Y-69607885D01*
X52836475Y-69623124D01*
X52837865Y-69624329D01*
X52845548Y-69626000D01*
X55329884Y-69626000D01*
X55345123Y-69621525D01*
X55346328Y-69620135D01*
X55347999Y-69612452D01*
X55347999Y-69335331D01*
X55347629Y-69328510D01*
X55342105Y-69277648D01*
X55338479Y-69262396D01*
X55293324Y-69141946D01*
X55284786Y-69126351D01*
X55208285Y-69024276D01*
X55195724Y-69011715D01*
X55140935Y-68970653D01*
X55098420Y-68913794D01*
X55090500Y-68869827D01*
X55090500Y-68116032D01*
X55110502Y-68047911D01*
X55164158Y-68001418D01*
X55232946Y-67991110D01*
X55281811Y-67997543D01*
X55281812Y-67997543D01*
X55290000Y-67998621D01*
X55444935Y-67978223D01*
X55589311Y-67918421D01*
X55713289Y-67823289D01*
X55714617Y-67825020D01*
X55766832Y-67796508D01*
X55837647Y-67801573D01*
X55894483Y-67844120D01*
X55905882Y-67862427D01*
X55936642Y-67922798D01*
X55949746Y-67992575D01*
X55936642Y-68037203D01*
X55893891Y-68121107D01*
X55892340Y-68130897D01*
X55892340Y-68130898D01*
X55891611Y-68135500D01*
X55879500Y-68211967D01*
X55879501Y-68548032D01*
X55880276Y-68552925D01*
X55887958Y-68601428D01*
X55893891Y-68638893D01*
X55949689Y-68748403D01*
X56036597Y-68835311D01*
X56146107Y-68891109D01*
X56155897Y-68892660D01*
X56155898Y-68892660D01*
X56180772Y-68896599D01*
X56236967Y-68905500D01*
X56892367Y-68905500D01*
X57548032Y-68905499D01*
X57570677Y-68901913D01*
X57629095Y-68892661D01*
X57629097Y-68892661D01*
X57638893Y-68891109D01*
X57680662Y-68869827D01*
X57739571Y-68839811D01*
X57739570Y-68839811D01*
X57748403Y-68835311D01*
X57791309Y-68792405D01*
X57853621Y-68758379D01*
X57880404Y-68755500D01*
X60046504Y-68755500D01*
X60069801Y-68757979D01*
X60071886Y-68758077D01*
X60082066Y-68760269D01*
X60114984Y-68756373D01*
X60120821Y-68756029D01*
X60120813Y-68755928D01*
X60125992Y-68755500D01*
X60131193Y-68755500D01*
X60136321Y-68754646D01*
X60136327Y-68754646D01*
X60149987Y-68752372D01*
X60155863Y-68751535D01*
X60161794Y-68750833D01*
X60206210Y-68745576D01*
X60214377Y-68741654D01*
X60223313Y-68740167D01*
X60232475Y-68735223D01*
X60232479Y-68735222D01*
X60267929Y-68716094D01*
X60273220Y-68713398D01*
X60311749Y-68694897D01*
X60311750Y-68694896D01*
X60318900Y-68691463D01*
X60323131Y-68687906D01*
X60325063Y-68685974D01*
X60326937Y-68684255D01*
X60327074Y-68684181D01*
X60327174Y-68684291D01*
X60327654Y-68683868D01*
X60333329Y-68680806D01*
X60340587Y-68672955D01*
X60369540Y-68641633D01*
X60372970Y-68638067D01*
X62557689Y-66453348D01*
X62575920Y-66438623D01*
X62577460Y-66437222D01*
X62586210Y-66431572D01*
X62606736Y-66405535D01*
X62610617Y-66401168D01*
X62610539Y-66401102D01*
X62613893Y-66397144D01*
X62617575Y-66393462D01*
X62628661Y-66377948D01*
X62632217Y-66373212D01*
X62663603Y-66333400D01*
X62666605Y-66324851D01*
X62671872Y-66317481D01*
X62686394Y-66268922D01*
X62688227Y-66263281D01*
X62702395Y-66222936D01*
X62702395Y-66222935D01*
X62705023Y-66215452D01*
X62705500Y-66209945D01*
X62705500Y-66207238D01*
X62705611Y-66204666D01*
X62705659Y-66204506D01*
X62705803Y-66204512D01*
X62705842Y-66203894D01*
X62707690Y-66197714D01*
X62705597Y-66144445D01*
X62705500Y-66139499D01*
X62705500Y-64851744D01*
X62725502Y-64783623D01*
X62742407Y-64762646D01*
X62746736Y-64758317D01*
X62753289Y-64753289D01*
X62759208Y-64745576D01*
X62804097Y-64687074D01*
X62848421Y-64629310D01*
X62851580Y-64621683D01*
X62851582Y-64621680D01*
X62862091Y-64596308D01*
X62906640Y-64541027D01*
X62974003Y-64518606D01*
X63042794Y-64536164D01*
G37*
%TD.AperFunction*%
%TA.AperFunction,Conductor*%
G36*
X51170394Y-33965502D02*
G01*
X51191368Y-33982405D01*
X62206652Y-44997689D01*
X62221377Y-45015920D01*
X62222778Y-45017460D01*
X62228428Y-45026210D01*
X62236606Y-45032657D01*
X62254465Y-45046736D01*
X62258832Y-45050617D01*
X62258898Y-45050539D01*
X62262856Y-45053893D01*
X62266538Y-45057575D01*
X62270769Y-45060598D01*
X62270772Y-45060601D01*
X62275591Y-45064044D01*
X62282052Y-45068661D01*
X62286781Y-45072212D01*
X62326600Y-45103603D01*
X62335149Y-45106605D01*
X62342519Y-45111872D01*
X62352500Y-45114857D01*
X62391083Y-45126396D01*
X62396730Y-45128231D01*
X62437064Y-45142395D01*
X62437065Y-45142395D01*
X62444548Y-45145023D01*
X62450055Y-45145500D01*
X62452762Y-45145500D01*
X62455332Y-45145611D01*
X62455494Y-45145659D01*
X62455488Y-45145804D01*
X62456108Y-45145843D01*
X62462287Y-45147691D01*
X62515581Y-45145597D01*
X62520527Y-45145500D01*
X68502273Y-45145500D01*
X68570394Y-45165502D01*
X68591368Y-45182405D01*
X69517595Y-46108632D01*
X69551621Y-46170944D01*
X69554500Y-46197727D01*
X69554500Y-53142273D01*
X69534498Y-53210394D01*
X69517595Y-53231368D01*
X69294208Y-53454755D01*
X69231896Y-53488781D01*
X69161081Y-53483716D01*
X69104245Y-53441169D01*
X69079434Y-53374649D01*
X69079501Y-53355776D01*
X69079725Y-53352923D01*
X69080500Y-53348033D01*
X69080499Y-53011968D01*
X69066109Y-52921107D01*
X69059285Y-52907713D01*
X69023358Y-52837203D01*
X69010254Y-52767426D01*
X69023358Y-52722797D01*
X69055065Y-52660568D01*
X69066109Y-52638893D01*
X69069137Y-52619779D01*
X69076490Y-52573348D01*
X69080500Y-52548033D01*
X69080499Y-52211968D01*
X69070902Y-52151368D01*
X69067661Y-52130905D01*
X69067661Y-52130903D01*
X69066109Y-52121107D01*
X69058669Y-52106504D01*
X69023358Y-52037203D01*
X69010254Y-51967426D01*
X69023358Y-51922797D01*
X69045419Y-51879499D01*
X69066109Y-51838893D01*
X69080500Y-51748033D01*
X69080499Y-51411968D01*
X69066109Y-51321107D01*
X69010311Y-51211597D01*
X68923403Y-51124689D01*
X68813893Y-51068891D01*
X68804103Y-51067340D01*
X68804102Y-51067340D01*
X68779228Y-51063401D01*
X68723033Y-51054500D01*
X68569000Y-51054500D01*
X68500879Y-51034498D01*
X68454386Y-50980842D01*
X68443000Y-50928500D01*
X68443000Y-46894244D01*
X68463002Y-46826123D01*
X68478349Y-46807080D01*
X68483289Y-46803289D01*
X68578421Y-46679310D01*
X68638223Y-46534935D01*
X68658621Y-46380000D01*
X68638223Y-46225065D01*
X68578421Y-46080690D01*
X68514660Y-45997595D01*
X68488316Y-45963262D01*
X68488315Y-45963261D01*
X68483289Y-45956711D01*
X68476739Y-45951685D01*
X68476736Y-45951682D01*
X68421300Y-45909145D01*
X68359311Y-45861579D01*
X68214935Y-45801777D01*
X68060000Y-45781379D01*
X67905065Y-45801777D01*
X67760690Y-45861579D01*
X67636711Y-45956711D01*
X67541579Y-46080690D01*
X67481777Y-46225065D01*
X67479264Y-46244153D01*
X67450543Y-46309080D01*
X67391278Y-46348173D01*
X67320286Y-46349018D01*
X67260107Y-46311349D01*
X67232517Y-46250940D01*
X67231438Y-46251229D01*
X67229718Y-46244811D01*
X67229420Y-46244158D01*
X67229301Y-46243253D01*
X67228223Y-46235065D01*
X67168421Y-46090690D01*
X67093662Y-45993262D01*
X67078316Y-45973262D01*
X67078315Y-45973261D01*
X67073289Y-45966711D01*
X67066739Y-45961685D01*
X67066736Y-45961682D01*
X66981929Y-45896608D01*
X66949311Y-45871579D01*
X66804935Y-45811777D01*
X66650000Y-45791379D01*
X66495065Y-45811777D01*
X66350690Y-45871579D01*
X66226711Y-45966711D01*
X66221688Y-45973257D01*
X66206342Y-45993257D01*
X66131579Y-46090690D01*
X66114392Y-46132183D01*
X66092267Y-46185598D01*
X66047719Y-46240879D01*
X65980355Y-46263300D01*
X65911564Y-46245742D01*
X65863186Y-46193780D01*
X65859449Y-46185598D01*
X65842855Y-46145537D01*
X65828421Y-46110690D01*
X65749574Y-46007934D01*
X65738316Y-45993262D01*
X65738315Y-45993261D01*
X65733289Y-45986711D01*
X65726739Y-45981685D01*
X65726736Y-45981682D01*
X65667014Y-45935856D01*
X65609311Y-45891579D01*
X65464935Y-45831777D01*
X65310000Y-45811379D01*
X65155065Y-45831777D01*
X65010690Y-45891579D01*
X65004139Y-45896606D01*
X64909561Y-45969178D01*
X64886711Y-45986711D01*
X64791579Y-46110690D01*
X64731777Y-46255065D01*
X64711379Y-46410000D01*
X64731777Y-46564935D01*
X64791579Y-46709310D01*
X64839145Y-46771300D01*
X64871365Y-46813289D01*
X64886711Y-46833289D01*
X64893261Y-46838315D01*
X64893264Y-46838318D01*
X64928338Y-46865231D01*
X65010689Y-46928421D01*
X65018323Y-46931583D01*
X65021501Y-46933418D01*
X65070494Y-46984801D01*
X65084500Y-47042537D01*
X65084500Y-52106504D01*
X65082021Y-52129801D01*
X65081923Y-52131886D01*
X65079731Y-52142066D01*
X65081901Y-52160399D01*
X65083627Y-52174984D01*
X65083971Y-52180821D01*
X65084072Y-52180813D01*
X65084500Y-52185992D01*
X65084500Y-52191193D01*
X65085354Y-52196321D01*
X65085354Y-52196327D01*
X65087628Y-52209987D01*
X65088465Y-52215863D01*
X65094424Y-52266210D01*
X65098346Y-52274377D01*
X65099833Y-52283313D01*
X65104777Y-52292475D01*
X65104778Y-52292479D01*
X65123906Y-52327929D01*
X65126602Y-52333220D01*
X65145103Y-52371749D01*
X65148537Y-52378900D01*
X65152094Y-52383131D01*
X65154026Y-52385063D01*
X65155745Y-52386937D01*
X65155819Y-52387074D01*
X65155709Y-52387174D01*
X65156132Y-52387654D01*
X65159194Y-52393329D01*
X65166841Y-52400398D01*
X65166842Y-52400399D01*
X65198367Y-52429540D01*
X65201933Y-52432970D01*
X66176652Y-53407689D01*
X66191377Y-53425920D01*
X66192778Y-53427460D01*
X66198428Y-53436210D01*
X66206606Y-53442657D01*
X66224465Y-53456736D01*
X66228832Y-53460617D01*
X66228898Y-53460539D01*
X66232856Y-53463893D01*
X66236538Y-53467575D01*
X66240769Y-53470598D01*
X66240772Y-53470601D01*
X66245591Y-53474044D01*
X66252052Y-53478661D01*
X66256781Y-53482212D01*
X66296600Y-53513603D01*
X66305149Y-53516605D01*
X66312519Y-53521872D01*
X66322500Y-53524857D01*
X66361083Y-53536396D01*
X66366730Y-53538231D01*
X66407064Y-53552395D01*
X66407065Y-53552395D01*
X66414548Y-53555023D01*
X66420055Y-53555500D01*
X66422762Y-53555500D01*
X66425332Y-53555611D01*
X66425494Y-53555659D01*
X66425488Y-53555804D01*
X66426108Y-53555843D01*
X66432287Y-53557691D01*
X66485581Y-53555597D01*
X66490527Y-53555500D01*
X66950907Y-53555500D01*
X67019028Y-53575502D01*
X67065521Y-53629158D01*
X67075625Y-53699432D01*
X67072005Y-53714996D01*
X67068891Y-53721107D01*
X67067341Y-53730895D01*
X67067340Y-53730897D01*
X67065022Y-53745535D01*
X67054500Y-53811967D01*
X67054501Y-54148032D01*
X67055276Y-54152925D01*
X67063846Y-54207035D01*
X67068891Y-54238893D01*
X67073394Y-54247730D01*
X67073394Y-54247731D01*
X67111642Y-54322797D01*
X67124746Y-54392574D01*
X67111642Y-54437203D01*
X67068891Y-54521107D01*
X67054500Y-54611967D01*
X67054501Y-54948032D01*
X67068891Y-55038893D01*
X67073394Y-55047730D01*
X67073394Y-55047731D01*
X67111642Y-55122797D01*
X67124746Y-55192574D01*
X67111642Y-55237203D01*
X67106879Y-55246552D01*
X67068891Y-55321107D01*
X67054500Y-55411967D01*
X67054501Y-55748032D01*
X67055276Y-55752925D01*
X67065399Y-55816842D01*
X67068891Y-55838893D01*
X67073394Y-55847730D01*
X67073394Y-55847731D01*
X67111642Y-55922797D01*
X67124746Y-55992574D01*
X67111642Y-56037203D01*
X67106333Y-56047623D01*
X67068891Y-56121107D01*
X67054500Y-56211967D01*
X67054501Y-56548032D01*
X67055608Y-56555023D01*
X67065865Y-56619784D01*
X67068891Y-56638893D01*
X67073392Y-56647726D01*
X67073394Y-56647731D01*
X67111642Y-56722797D01*
X67124746Y-56792574D01*
X67111642Y-56837203D01*
X67105732Y-56848803D01*
X67068891Y-56921107D01*
X67067340Y-56930897D01*
X67067340Y-56930898D01*
X67065805Y-56940591D01*
X67054500Y-57011967D01*
X67054501Y-57348032D01*
X67068891Y-57438893D01*
X67073392Y-57447726D01*
X67073394Y-57447731D01*
X67111642Y-57522797D01*
X67124746Y-57592574D01*
X67111642Y-57637203D01*
X67102191Y-57655752D01*
X67068891Y-57721107D01*
X67054500Y-57811967D01*
X67054501Y-58148032D01*
X67068891Y-58238893D01*
X67073392Y-58247726D01*
X67073394Y-58247731D01*
X67111642Y-58322797D01*
X67124746Y-58392574D01*
X67111642Y-58437203D01*
X67106910Y-58446490D01*
X67068891Y-58521107D01*
X67067340Y-58530897D01*
X67067340Y-58530898D01*
X67063401Y-58555772D01*
X67054500Y-58611967D01*
X67054501Y-58779832D01*
X67054501Y-58865434D01*
X67034499Y-58933554D01*
X67017596Y-58954529D01*
X66934007Y-59038118D01*
X66924367Y-59050545D01*
X66849416Y-59177281D01*
X66843169Y-59191717D01*
X66809210Y-59308605D01*
X66809250Y-59322705D01*
X66816520Y-59326000D01*
X69312729Y-59326000D01*
X69326260Y-59322027D01*
X69328152Y-59308867D01*
X69328329Y-59245662D01*
X69366881Y-59186044D01*
X69431544Y-59156733D01*
X69449125Y-59155500D01*
X70549296Y-59155500D01*
X70617417Y-59175502D01*
X70663910Y-59229158D01*
X70674014Y-59299432D01*
X70671045Y-59312022D01*
X70671127Y-59312040D01*
X70666819Y-59332132D01*
X70657328Y-59424770D01*
X70657000Y-59431185D01*
X70657000Y-59505385D01*
X70661475Y-59520624D01*
X70662865Y-59521829D01*
X70670548Y-59523500D01*
X71768000Y-59523500D01*
X71836121Y-59543502D01*
X71882614Y-59597158D01*
X71894000Y-59649500D01*
X71894000Y-59905500D01*
X71873998Y-59973621D01*
X71820342Y-60020114D01*
X71768000Y-60031500D01*
X70675115Y-60031500D01*
X70641538Y-60041359D01*
X70612664Y-60059915D01*
X70541667Y-60059914D01*
X70493759Y-60033459D01*
X70475399Y-60017244D01*
X70469712Y-60011898D01*
X70458494Y-60000680D01*
X70454905Y-59997990D01*
X70450316Y-59994550D01*
X70442477Y-59988168D01*
X70414339Y-59963318D01*
X70407612Y-59957377D01*
X70399489Y-59953563D01*
X70396336Y-59951492D01*
X70383324Y-59943673D01*
X70380005Y-59941856D01*
X70372824Y-59936474D01*
X70329261Y-59920143D01*
X70319947Y-59916217D01*
X70285966Y-59900263D01*
X70285963Y-59900262D01*
X70277837Y-59896447D01*
X70268963Y-59895065D01*
X70265350Y-59893961D01*
X70250693Y-59890115D01*
X70246990Y-59889301D01*
X70238580Y-59886148D01*
X70192157Y-59882698D01*
X70182144Y-59881548D01*
X70168991Y-59879500D01*
X70153796Y-59879500D01*
X70144459Y-59879154D01*
X70136798Y-59878585D01*
X70095608Y-59875524D01*
X70086832Y-59877397D01*
X70077875Y-59878008D01*
X70077875Y-59878002D01*
X70063682Y-59879500D01*
X69422759Y-59879500D01*
X69354638Y-59859498D01*
X69337888Y-59842796D01*
X69318480Y-59834000D01*
X66822271Y-59834000D01*
X66808740Y-59837973D01*
X66807605Y-59845872D01*
X66808135Y-59847698D01*
X66807932Y-59918694D01*
X66769380Y-59978308D01*
X66762316Y-59984394D01*
X66754405Y-59990675D01*
X66747598Y-59995648D01*
X66747591Y-59995654D01*
X66743664Y-59998523D01*
X66734259Y-60007928D01*
X66671947Y-60041954D01*
X66601132Y-60036889D01*
X66544296Y-59994342D01*
X66529765Y-59964426D01*
X66528223Y-59965065D01*
X66509616Y-59920144D01*
X66468421Y-59820690D01*
X66373289Y-59696711D01*
X66366739Y-59691685D01*
X66366736Y-59691682D01*
X66304932Y-59644259D01*
X66249311Y-59601579D01*
X66104935Y-59541777D01*
X65950000Y-59521379D01*
X65795065Y-59541777D01*
X65650690Y-59601579D01*
X65526711Y-59696711D01*
X65431579Y-59820690D01*
X65371777Y-59965065D01*
X65351379Y-60120000D01*
X65371777Y-60274935D01*
X65431579Y-60419310D01*
X65436606Y-60425861D01*
X65500416Y-60509020D01*
X65526711Y-60543289D01*
X65533261Y-60548315D01*
X65533264Y-60548318D01*
X65585684Y-60588541D01*
X65650689Y-60638421D01*
X65795065Y-60698223D01*
X65828091Y-60702571D01*
X65892904Y-60711104D01*
X65957831Y-60739827D01*
X65996922Y-60799092D01*
X66002457Y-60836026D01*
X66002457Y-60841812D01*
X66001379Y-60850000D01*
X66021777Y-61004935D01*
X66081579Y-61149310D01*
X66176711Y-61273289D01*
X66183261Y-61278315D01*
X66183264Y-61278318D01*
X66232461Y-61316068D01*
X66300689Y-61368421D01*
X66375869Y-61399561D01*
X66406811Y-61412378D01*
X66462092Y-61456926D01*
X66484513Y-61524290D01*
X66466955Y-61593081D01*
X66414993Y-61641459D01*
X66406813Y-61645195D01*
X66270690Y-61701579D01*
X66146711Y-61796711D01*
X66051579Y-61920690D01*
X65991777Y-62065065D01*
X65971379Y-62220000D01*
X65972457Y-62228188D01*
X65972457Y-62228189D01*
X65974542Y-62244027D01*
X65963602Y-62314176D01*
X65916474Y-62367274D01*
X65848120Y-62386464D01*
X65801402Y-62376882D01*
X65772566Y-62364938D01*
X65772567Y-62364938D01*
X65764935Y-62361777D01*
X65610000Y-62341379D01*
X65455065Y-62361777D01*
X65310690Y-62421579D01*
X65186711Y-62516711D01*
X65091579Y-62640690D01*
X65031777Y-62785065D01*
X65031462Y-62787456D01*
X64995922Y-62845766D01*
X64932062Y-62876789D01*
X64862947Y-62868943D01*
X64775552Y-62832743D01*
X64724935Y-62811777D01*
X64570000Y-62791379D01*
X64415065Y-62811777D01*
X64270690Y-62871579D01*
X64194129Y-62930326D01*
X64153268Y-62961680D01*
X64146711Y-62966711D01*
X64051579Y-63090690D01*
X64048419Y-63098320D01*
X64001498Y-63211597D01*
X63991777Y-63235065D01*
X63990699Y-63243254D01*
X63990492Y-63244026D01*
X63953541Y-63304649D01*
X63889681Y-63335671D01*
X63819186Y-63327243D01*
X63792085Y-63311381D01*
X63779311Y-63301579D01*
X63634935Y-63241777D01*
X63480000Y-63221379D01*
X63325065Y-63241777D01*
X63180690Y-63301579D01*
X63056711Y-63396711D01*
X62961579Y-63520690D01*
X62901777Y-63665065D01*
X62892297Y-63737070D01*
X62887744Y-63771654D01*
X62859021Y-63836581D01*
X62799756Y-63875672D01*
X62728765Y-63876517D01*
X62686118Y-63855169D01*
X62679329Y-63849959D01*
X62643734Y-63822646D01*
X62635864Y-63816607D01*
X62635862Y-63816606D01*
X62629311Y-63811579D01*
X62484935Y-63751777D01*
X62330000Y-63731379D01*
X62175065Y-63751777D01*
X62030690Y-63811579D01*
X61906711Y-63906711D01*
X61811579Y-64030690D01*
X61751777Y-64175065D01*
X61731379Y-64330000D01*
X61751777Y-64484935D01*
X61811579Y-64629310D01*
X61855903Y-64687074D01*
X61900793Y-64745576D01*
X61906711Y-64753289D01*
X61913264Y-64758317D01*
X61917593Y-64762646D01*
X61951620Y-64824958D01*
X61954500Y-64851744D01*
X61954500Y-65942273D01*
X61934498Y-66010394D01*
X61917595Y-66031368D01*
X59981368Y-67967595D01*
X59919056Y-68001621D01*
X59892273Y-68004500D01*
X58860727Y-68004500D01*
X58792606Y-67984498D01*
X58746113Y-67930842D01*
X58736009Y-67860568D01*
X58765503Y-67795988D01*
X58771632Y-67789405D01*
X59937689Y-66623348D01*
X59955920Y-66608623D01*
X59957460Y-66607222D01*
X59966210Y-66601572D01*
X59986736Y-66575535D01*
X59990617Y-66571168D01*
X59990539Y-66571102D01*
X59993893Y-66567144D01*
X59997575Y-66563462D01*
X60008661Y-66547948D01*
X60012217Y-66543212D01*
X60021919Y-66530905D01*
X60043603Y-66503400D01*
X60043622Y-66503345D01*
X60071937Y-66470366D01*
X60133289Y-66423289D01*
X60228421Y-66299310D01*
X60288223Y-66154935D01*
X60308621Y-66000000D01*
X60288223Y-65845065D01*
X60228421Y-65700690D01*
X60179706Y-65637203D01*
X60138316Y-65583262D01*
X60138315Y-65583261D01*
X60133289Y-65576711D01*
X60126739Y-65571685D01*
X60126736Y-65571682D01*
X60061472Y-65521604D01*
X60009311Y-65481579D01*
X59864935Y-65421777D01*
X59710000Y-65401379D01*
X59555065Y-65421777D01*
X59410690Y-65481579D01*
X59343716Y-65532970D01*
X59298782Y-65567449D01*
X59286711Y-65576711D01*
X59191579Y-65700690D01*
X59188419Y-65708320D01*
X59188378Y-65708418D01*
X59188321Y-65708488D01*
X59184290Y-65715471D01*
X59183201Y-65714842D01*
X59143828Y-65763698D01*
X59076464Y-65786117D01*
X59007674Y-65768557D01*
X58969464Y-65729890D01*
X58968421Y-65730690D01*
X58878316Y-65613262D01*
X58878315Y-65613261D01*
X58873289Y-65606711D01*
X58866739Y-65601685D01*
X58866736Y-65601682D01*
X58769676Y-65527206D01*
X58749311Y-65511579D01*
X58604935Y-65451777D01*
X58450000Y-65431379D01*
X58295065Y-65451777D01*
X58150690Y-65511579D01*
X58144137Y-65516607D01*
X58144134Y-65516609D01*
X58092651Y-65556113D01*
X58026431Y-65581714D01*
X57956882Y-65567449D01*
X57906086Y-65517848D01*
X57890170Y-65448659D01*
X57891498Y-65436441D01*
X57904259Y-65355867D01*
X57905500Y-65348033D01*
X57905499Y-65011968D01*
X57896193Y-64953208D01*
X57892661Y-64930905D01*
X57892661Y-64930903D01*
X57891109Y-64921107D01*
X57889170Y-64917301D01*
X57887233Y-64849467D01*
X57923896Y-64788670D01*
X57987609Y-64757345D01*
X58009093Y-64755500D01*
X59846504Y-64755500D01*
X59869801Y-64757979D01*
X59871886Y-64758077D01*
X59882066Y-64760269D01*
X59914984Y-64756373D01*
X59920821Y-64756029D01*
X59920813Y-64755928D01*
X59925992Y-64755500D01*
X59931193Y-64755500D01*
X59936321Y-64754646D01*
X59936327Y-64754646D01*
X59949987Y-64752372D01*
X59955863Y-64751535D01*
X59960952Y-64750933D01*
X60006210Y-64745576D01*
X60014377Y-64741654D01*
X60023313Y-64740167D01*
X60032475Y-64735223D01*
X60032479Y-64735222D01*
X60067929Y-64716094D01*
X60073220Y-64713398D01*
X60111749Y-64694897D01*
X60111750Y-64694896D01*
X60118900Y-64691463D01*
X60123131Y-64687906D01*
X60125063Y-64685974D01*
X60126937Y-64684255D01*
X60127074Y-64684181D01*
X60127174Y-64684291D01*
X60127654Y-64683868D01*
X60133329Y-64680806D01*
X60169541Y-64641632D01*
X60172970Y-64638067D01*
X64537692Y-60273346D01*
X64555909Y-60258633D01*
X64557460Y-60257222D01*
X64566210Y-60251572D01*
X64572658Y-60243392D01*
X64572661Y-60243390D01*
X64586734Y-60225539D01*
X64590621Y-60221165D01*
X64590543Y-60221099D01*
X64593898Y-60217140D01*
X64597576Y-60213462D01*
X64600595Y-60209238D01*
X64600602Y-60209229D01*
X64608679Y-60197926D01*
X64612243Y-60193180D01*
X64637154Y-60161580D01*
X64643603Y-60153400D01*
X64646605Y-60144852D01*
X64651872Y-60137481D01*
X64656983Y-60120394D01*
X64666396Y-60088917D01*
X64668231Y-60083270D01*
X64682395Y-60042936D01*
X64682395Y-60042935D01*
X64685023Y-60035452D01*
X64685500Y-60029945D01*
X64685500Y-60027238D01*
X64685611Y-60024668D01*
X64685659Y-60024506D01*
X64685804Y-60024512D01*
X64685843Y-60023892D01*
X64687691Y-60017713D01*
X64685597Y-59964419D01*
X64685500Y-59959473D01*
X64685500Y-48163496D01*
X64687979Y-48140199D01*
X64688077Y-48138114D01*
X64690269Y-48127934D01*
X64686373Y-48095016D01*
X64686029Y-48089179D01*
X64685928Y-48089187D01*
X64685500Y-48084011D01*
X64685500Y-48078807D01*
X64682372Y-48060011D01*
X64681535Y-48054136D01*
X64676800Y-48014133D01*
X64675576Y-48003791D01*
X64671655Y-47995625D01*
X64670167Y-47986687D01*
X64646091Y-47942064D01*
X64643398Y-47936778D01*
X64624896Y-47898247D01*
X64624892Y-47898241D01*
X64621463Y-47891100D01*
X64617906Y-47886869D01*
X64615977Y-47884940D01*
X64614255Y-47883063D01*
X64614181Y-47882926D01*
X64614291Y-47882826D01*
X64613868Y-47882346D01*
X64610806Y-47876671D01*
X64571632Y-47840459D01*
X64568067Y-47837030D01*
X51372058Y-34641021D01*
X51357333Y-34622790D01*
X51355932Y-34621250D01*
X51350282Y-34612500D01*
X51324245Y-34591974D01*
X51319878Y-34588093D01*
X51319812Y-34588171D01*
X51315854Y-34584817D01*
X51312172Y-34581135D01*
X51307941Y-34578112D01*
X51307938Y-34578109D01*
X51303119Y-34574666D01*
X51296658Y-34570049D01*
X51291922Y-34566493D01*
X51252110Y-34535107D01*
X51243561Y-34532105D01*
X51236191Y-34526838D01*
X51202913Y-34516886D01*
X51187640Y-34512318D01*
X51181996Y-34510484D01*
X51141645Y-34496314D01*
X51141639Y-34496313D01*
X51134162Y-34493687D01*
X51128655Y-34493210D01*
X51125948Y-34493210D01*
X51123375Y-34493099D01*
X51123216Y-34493051D01*
X51123222Y-34492907D01*
X51122602Y-34492868D01*
X51116423Y-34491020D01*
X51063155Y-34493113D01*
X51058208Y-34493210D01*
X50546095Y-34493210D01*
X50477974Y-34473208D01*
X50433089Y-34422939D01*
X50368141Y-34291237D01*
X50260351Y-34146889D01*
X50235619Y-34080339D01*
X50250793Y-34010983D01*
X50301055Y-33960841D01*
X50361309Y-33945500D01*
X51102273Y-33945500D01*
X51170394Y-33965502D01*
G37*
%TD.AperFunction*%
%TA.AperFunction,Conductor*%
G36*
X53217559Y-61567646D02*
G01*
X53262598Y-61600402D01*
X53264279Y-61598718D01*
X53382129Y-61716363D01*
X53393540Y-61725375D01*
X53529063Y-61808912D01*
X53542241Y-61815056D01*
X53693766Y-61865315D01*
X53707133Y-61868181D01*
X53782381Y-61875891D01*
X53848108Y-61902733D01*
X53888890Y-61960848D01*
X53891778Y-62031786D01*
X53858633Y-62090330D01*
X51012658Y-64936305D01*
X50950346Y-64970331D01*
X50923563Y-64973210D01*
X50546095Y-64973210D01*
X50477974Y-64953208D01*
X50433089Y-64902939D01*
X50427109Y-64890813D01*
X50368141Y-64771237D01*
X50349869Y-64746767D01*
X50250578Y-64613801D01*
X50250577Y-64613800D01*
X50247125Y-64609177D01*
X50242887Y-64605259D01*
X50235147Y-64598104D01*
X50198703Y-64537175D01*
X50200986Y-64466215D01*
X50241269Y-64407753D01*
X50266137Y-64391997D01*
X50301749Y-64374897D01*
X50301750Y-64374896D01*
X50308900Y-64371463D01*
X50313131Y-64367906D01*
X50315063Y-64365974D01*
X50316937Y-64364255D01*
X50317074Y-64364181D01*
X50317174Y-64364291D01*
X50317654Y-64363868D01*
X50323329Y-64360806D01*
X50334094Y-64349161D01*
X50359540Y-64321633D01*
X50362970Y-64318067D01*
X53084431Y-61596607D01*
X53146743Y-61562581D01*
X53217559Y-61567646D01*
G37*
%TD.AperFunction*%
%TA.AperFunction,Conductor*%
G36*
X50929104Y-35264212D02*
G01*
X50950078Y-35281115D01*
X63897595Y-48228632D01*
X63931621Y-48290944D01*
X63934500Y-48317727D01*
X63934500Y-59762273D01*
X63914498Y-59830394D01*
X63897595Y-59851368D01*
X59781368Y-63967595D01*
X59719056Y-64001621D01*
X59692273Y-64004500D01*
X58009093Y-64004500D01*
X57940972Y-63984498D01*
X57894479Y-63930842D01*
X57884375Y-63860568D01*
X57887995Y-63845004D01*
X57891109Y-63838893D01*
X57893683Y-63822646D01*
X57900438Y-63779992D01*
X57905500Y-63748033D01*
X57905499Y-63411968D01*
X57891109Y-63321107D01*
X57883721Y-63306606D01*
X57848358Y-63237203D01*
X57835254Y-63167426D01*
X57848358Y-63122797D01*
X57857809Y-63104248D01*
X57891109Y-63038893D01*
X57905500Y-62948033D01*
X57905499Y-62611968D01*
X57891109Y-62521107D01*
X57869813Y-62479310D01*
X57848358Y-62437203D01*
X57835254Y-62367426D01*
X57848358Y-62322797D01*
X57886608Y-62247726D01*
X57891109Y-62238893D01*
X57892805Y-62228189D01*
X57904725Y-62152923D01*
X57905500Y-62148033D01*
X57905499Y-61811968D01*
X57894129Y-61740175D01*
X57892661Y-61730905D01*
X57892661Y-61730903D01*
X57891109Y-61721107D01*
X57883721Y-61706606D01*
X57848358Y-61637203D01*
X57835254Y-61567426D01*
X57848358Y-61522797D01*
X57871734Y-61476919D01*
X57891109Y-61438893D01*
X57905500Y-61348033D01*
X57905499Y-61094565D01*
X57925501Y-61026446D01*
X57942404Y-61005471D01*
X58025993Y-60921882D01*
X58035633Y-60909455D01*
X58110584Y-60782719D01*
X58116831Y-60768283D01*
X58150790Y-60651395D01*
X58150750Y-60637295D01*
X58143480Y-60634000D01*
X55647271Y-60634000D01*
X55633740Y-60637973D01*
X55631848Y-60651133D01*
X55631671Y-60714338D01*
X55593119Y-60773956D01*
X55528456Y-60803267D01*
X55510875Y-60804500D01*
X55353496Y-60804500D01*
X55330208Y-60802021D01*
X55328110Y-60801922D01*
X55317933Y-60799731D01*
X55288057Y-60803267D01*
X55285015Y-60803627D01*
X55279179Y-60803971D01*
X55279187Y-60804072D01*
X55274008Y-60804500D01*
X55268807Y-60804500D01*
X55263677Y-60805354D01*
X55263675Y-60805354D01*
X55250008Y-60807629D01*
X55244132Y-60808465D01*
X55213811Y-60812054D01*
X55143811Y-60800198D01*
X55091334Y-60752380D01*
X55073000Y-60686928D01*
X55073000Y-60486234D01*
X55072663Y-60479718D01*
X55062925Y-60385868D01*
X55060032Y-60372472D01*
X55017963Y-60246376D01*
X55015379Y-60175427D01*
X55051563Y-60114343D01*
X55115027Y-60082518D01*
X55137487Y-60080500D01*
X55537241Y-60080500D01*
X55605362Y-60100502D01*
X55622112Y-60117204D01*
X55641520Y-60126000D01*
X58137727Y-60126000D01*
X58182304Y-60112911D01*
X58253301Y-60112911D01*
X58306898Y-60144712D01*
X58952595Y-60790409D01*
X58986621Y-60852721D01*
X58989500Y-60879504D01*
X58989500Y-62308045D01*
X58973321Y-62368419D01*
X58971579Y-62370690D01*
X58968420Y-62378316D01*
X58968419Y-62378318D01*
X58929576Y-62472094D01*
X58911777Y-62515065D01*
X58891379Y-62670000D01*
X58911777Y-62824935D01*
X58971579Y-62969310D01*
X58985311Y-62987206D01*
X59031390Y-63047257D01*
X59066711Y-63093289D01*
X59073261Y-63098315D01*
X59073264Y-63098318D01*
X59105166Y-63122797D01*
X59190689Y-63188421D01*
X59335065Y-63248223D01*
X59490000Y-63268621D01*
X59644935Y-63248223D01*
X59789311Y-63188421D01*
X59874834Y-63122797D01*
X59906736Y-63098318D01*
X59906739Y-63098315D01*
X59913289Y-63093289D01*
X59948611Y-63047257D01*
X59994689Y-62987206D01*
X60008421Y-62969310D01*
X60068223Y-62824935D01*
X60088621Y-62670000D01*
X60068223Y-62515065D01*
X60050424Y-62472094D01*
X60011581Y-62378318D01*
X60011580Y-62378316D01*
X60008421Y-62370690D01*
X60006679Y-62368419D01*
X59990500Y-62308045D01*
X59990500Y-60690180D01*
X59991828Y-60678295D01*
X59991318Y-60678254D01*
X59992038Y-60669308D01*
X59994019Y-60660552D01*
X59990742Y-60607735D01*
X59990500Y-60599932D01*
X59990500Y-60584060D01*
X59989052Y-60573948D01*
X59988022Y-60563894D01*
X59985697Y-60526425D01*
X59985141Y-60517462D01*
X59982093Y-60509018D01*
X59981324Y-60505306D01*
X59977657Y-60490601D01*
X59976596Y-60486973D01*
X59975323Y-60478082D01*
X59956061Y-60435718D01*
X59952254Y-60426363D01*
X59939509Y-60391057D01*
X59939507Y-60391053D01*
X59936460Y-60382613D01*
X59931165Y-60375365D01*
X59929389Y-60372025D01*
X59921726Y-60358911D01*
X59919697Y-60355739D01*
X59915984Y-60347572D01*
X59910129Y-60340777D01*
X59910127Y-60340774D01*
X59885613Y-60312325D01*
X59879324Y-60304404D01*
X59874352Y-60297598D01*
X59871478Y-60293664D01*
X59860735Y-60282921D01*
X59854377Y-60276074D01*
X59839349Y-60258633D01*
X59822400Y-60238963D01*
X59814866Y-60234080D01*
X59808104Y-60228181D01*
X59808108Y-60228176D01*
X59797014Y-60219200D01*
X58853534Y-59275720D01*
X58846068Y-59266376D01*
X58845678Y-59266708D01*
X58839860Y-59259872D01*
X58835070Y-59252280D01*
X58827577Y-59245662D01*
X58795400Y-59217245D01*
X58789712Y-59211898D01*
X58778494Y-59200680D01*
X58774905Y-59197990D01*
X58770316Y-59194550D01*
X58762477Y-59188168D01*
X58734339Y-59163318D01*
X58727612Y-59157377D01*
X58719489Y-59153563D01*
X58716336Y-59151492D01*
X58703324Y-59143673D01*
X58700005Y-59141856D01*
X58692824Y-59136474D01*
X58649261Y-59120143D01*
X58639947Y-59116217D01*
X58605966Y-59100263D01*
X58605963Y-59100262D01*
X58597837Y-59096447D01*
X58588963Y-59095065D01*
X58585350Y-59093961D01*
X58570693Y-59090115D01*
X58566990Y-59089301D01*
X58558580Y-59086148D01*
X58512157Y-59082698D01*
X58502144Y-59081548D01*
X58488991Y-59079500D01*
X58473796Y-59079500D01*
X58464459Y-59079154D01*
X58449036Y-59078008D01*
X58415608Y-59075524D01*
X58406832Y-59077397D01*
X58397875Y-59078008D01*
X58397875Y-59078002D01*
X58383682Y-59079500D01*
X58031070Y-59079500D01*
X57962949Y-59059498D01*
X57916456Y-59005842D01*
X57906238Y-58948033D01*
X57905500Y-58948033D01*
X57905500Y-58943858D01*
X57905499Y-58611968D01*
X57891109Y-58521107D01*
X57869970Y-58479618D01*
X57848358Y-58437203D01*
X57835254Y-58367426D01*
X57848358Y-58322797D01*
X57883451Y-58253923D01*
X57891109Y-58238893D01*
X57905500Y-58148033D01*
X57905499Y-57811968D01*
X57891109Y-57721107D01*
X57883855Y-57706869D01*
X57848358Y-57637203D01*
X57835254Y-57567426D01*
X57848358Y-57522797D01*
X57865766Y-57488632D01*
X57891109Y-57438893D01*
X57905500Y-57348033D01*
X57905499Y-57011968D01*
X57897921Y-56964118D01*
X57892661Y-56930905D01*
X57892661Y-56930903D01*
X57891109Y-56921107D01*
X57869970Y-56879618D01*
X57848358Y-56837203D01*
X57835254Y-56767426D01*
X57848358Y-56722797D01*
X57874714Y-56671070D01*
X57891109Y-56638893D01*
X57893703Y-56622519D01*
X57896599Y-56604228D01*
X57905500Y-56548033D01*
X57905499Y-56211968D01*
X57905044Y-56209093D01*
X57919525Y-56140169D01*
X57969368Y-56089611D01*
X58038633Y-56074026D01*
X58105328Y-56098363D01*
X58119634Y-56110671D01*
X58416652Y-56407689D01*
X58431377Y-56425920D01*
X58432778Y-56427460D01*
X58438428Y-56436210D01*
X58446606Y-56442657D01*
X58464465Y-56456736D01*
X58468832Y-56460617D01*
X58468898Y-56460539D01*
X58472856Y-56463893D01*
X58476538Y-56467575D01*
X58480769Y-56470598D01*
X58480772Y-56470601D01*
X58484351Y-56473158D01*
X58492052Y-56478661D01*
X58496781Y-56482212D01*
X58536600Y-56513603D01*
X58545149Y-56516605D01*
X58552519Y-56521872D01*
X58601078Y-56536394D01*
X58606719Y-56538227D01*
X58646999Y-56552372D01*
X58654548Y-56555023D01*
X58660055Y-56555500D01*
X58662762Y-56555500D01*
X58665334Y-56555611D01*
X58665494Y-56555659D01*
X58665488Y-56555803D01*
X58666106Y-56555842D01*
X58672286Y-56557690D01*
X58725555Y-56555597D01*
X58730501Y-56555500D01*
X60456504Y-56555500D01*
X60479801Y-56557979D01*
X60481886Y-56558077D01*
X60492066Y-56560269D01*
X60524984Y-56556373D01*
X60530821Y-56556029D01*
X60530813Y-56555928D01*
X60535992Y-56555500D01*
X60541193Y-56555500D01*
X60546321Y-56554646D01*
X60546327Y-56554646D01*
X60559987Y-56552372D01*
X60565863Y-56551535D01*
X60572309Y-56550772D01*
X60616210Y-56545576D01*
X60624377Y-56541654D01*
X60633313Y-56540167D01*
X60642475Y-56535223D01*
X60642479Y-56535222D01*
X60677929Y-56516094D01*
X60683220Y-56513398D01*
X60721749Y-56494897D01*
X60721750Y-56494896D01*
X60728900Y-56491463D01*
X60733131Y-56487906D01*
X60735063Y-56485974D01*
X60736937Y-56484255D01*
X60737074Y-56484181D01*
X60737174Y-56484291D01*
X60737654Y-56483868D01*
X60743329Y-56480806D01*
X60752763Y-56470601D01*
X60779540Y-56441633D01*
X60782970Y-56438067D01*
X63357689Y-53863348D01*
X63375920Y-53848623D01*
X63377460Y-53847222D01*
X63386210Y-53841572D01*
X63406736Y-53815535D01*
X63410619Y-53811166D01*
X63410541Y-53811100D01*
X63413892Y-53807145D01*
X63417576Y-53803461D01*
X63421167Y-53798435D01*
X63428660Y-53787951D01*
X63432226Y-53783202D01*
X63457152Y-53751585D01*
X63457156Y-53751578D01*
X63463603Y-53743400D01*
X63466605Y-53734851D01*
X63471872Y-53727481D01*
X63486396Y-53678917D01*
X63488231Y-53673270D01*
X63502395Y-53632936D01*
X63502395Y-53632935D01*
X63505023Y-53625452D01*
X63505500Y-53619945D01*
X63505500Y-53617238D01*
X63505611Y-53614668D01*
X63505659Y-53614506D01*
X63505804Y-53614512D01*
X63505843Y-53613892D01*
X63507691Y-53607713D01*
X63505597Y-53554419D01*
X63505500Y-53549473D01*
X63505500Y-48633497D01*
X63507979Y-48610208D01*
X63508078Y-48608117D01*
X63510270Y-48597934D01*
X63508175Y-48580229D01*
X63506373Y-48565008D01*
X63506029Y-48559178D01*
X63505928Y-48559186D01*
X63505500Y-48554007D01*
X63505500Y-48548807D01*
X63504647Y-48543681D01*
X63504646Y-48543672D01*
X63502374Y-48530023D01*
X63501537Y-48524147D01*
X63496801Y-48484137D01*
X63495577Y-48473791D01*
X63491654Y-48465622D01*
X63490167Y-48456687D01*
X63466098Y-48412079D01*
X63463403Y-48406790D01*
X63444892Y-48368241D01*
X63444891Y-48368239D01*
X63441463Y-48361101D01*
X63437906Y-48356869D01*
X63435964Y-48354927D01*
X63434255Y-48353064D01*
X63434176Y-48352917D01*
X63434284Y-48352818D01*
X63433868Y-48352346D01*
X63430806Y-48346671D01*
X63399495Y-48317727D01*
X63391633Y-48310460D01*
X63388067Y-48307030D01*
X51003348Y-35922311D01*
X50988623Y-35904080D01*
X50987222Y-35902540D01*
X50981572Y-35893790D01*
X50955535Y-35873264D01*
X50951168Y-35869383D01*
X50951102Y-35869461D01*
X50947144Y-35866107D01*
X50943462Y-35862425D01*
X50939231Y-35859402D01*
X50939228Y-35859399D01*
X50934409Y-35855956D01*
X50927948Y-35851339D01*
X50923212Y-35847783D01*
X50883400Y-35816397D01*
X50874851Y-35813395D01*
X50867481Y-35808128D01*
X50821628Y-35794415D01*
X50818930Y-35793608D01*
X50813286Y-35791774D01*
X50772935Y-35777604D01*
X50772929Y-35777603D01*
X50765452Y-35774977D01*
X50759945Y-35774500D01*
X50757238Y-35774500D01*
X50754665Y-35774389D01*
X50754506Y-35774341D01*
X50754512Y-35774197D01*
X50753892Y-35774158D01*
X50747713Y-35772310D01*
X50694445Y-35774403D01*
X50689498Y-35774500D01*
X50372605Y-35774500D01*
X50304484Y-35754498D01*
X50257991Y-35700842D01*
X50247887Y-35630568D01*
X50275731Y-35567930D01*
X50294893Y-35544891D01*
X50336627Y-35494711D01*
X50365696Y-35442805D01*
X50432634Y-35323276D01*
X50432635Y-35323274D01*
X50435454Y-35318241D01*
X50435645Y-35317679D01*
X50480537Y-35264865D01*
X50549662Y-35244210D01*
X50860983Y-35244210D01*
X50929104Y-35264212D01*
G37*
%TD.AperFunction*%
%TD*%
M02*
