%TF.GenerationSoftware,KiCad,Pcbnew,6.0.1+dfsg-1*%
%TF.CreationDate,2022-03-06T17:26:00+02:00*%
%TF.ProjectId,ram_board,72616d5f-626f-4617-9264-2e6b69636164,rev?*%
%TF.SameCoordinates,Original*%
%TF.FileFunction,Soldermask,Top*%
%TF.FilePolarity,Negative*%
%FSLAX46Y46*%
G04 Gerber Fmt 4.6, Leading zero omitted, Abs format (unit mm)*
G04 Created by KiCad (PCBNEW 6.0.1+dfsg-1) date 2022-03-06 17:26:00*
%MOMM*%
%LPD*%
G01*
G04 APERTURE LIST*
G04 Aperture macros list*
%AMRoundRect*
0 Rectangle with rounded corners*
0 $1 Rounding radius*
0 $2 $3 $4 $5 $6 $7 $8 $9 X,Y pos of 4 corners*
0 Add a 4 corners polygon primitive as box body*
4,1,4,$2,$3,$4,$5,$6,$7,$8,$9,$2,$3,0*
0 Add four circle primitives for the rounded corners*
1,1,$1+$1,$2,$3*
1,1,$1+$1,$4,$5*
1,1,$1+$1,$6,$7*
1,1,$1+$1,$8,$9*
0 Add four rect primitives between the rounded corners*
20,1,$1+$1,$2,$3,$4,$5,0*
20,1,$1+$1,$4,$5,$6,$7,0*
20,1,$1+$1,$6,$7,$8,$9,0*
20,1,$1+$1,$8,$9,$2,$3,0*%
G04 Aperture macros list end*
%ADD10RoundRect,0.137500X-0.625000X-0.137500X0.625000X-0.137500X0.625000X0.137500X-0.625000X0.137500X0*%
%ADD11RoundRect,0.237500X-0.300000X-0.237500X0.300000X-0.237500X0.300000X0.237500X-0.300000X0.237500X0*%
%ADD12RoundRect,0.237500X0.237500X-0.300000X0.237500X0.300000X-0.237500X0.300000X-0.237500X-0.300000X0*%
%ADD13C,1.200000*%
%ADD14O,1.000000X2.200000*%
%ADD15C,2.540000*%
%ADD16R,1.500000X1.000000*%
%ADD17R,1.000000X1.500000*%
%ADD18R,1.700000X1.700000*%
%ADD19O,1.700000X1.700000*%
%ADD20RoundRect,0.237500X-0.237500X0.300000X-0.237500X-0.300000X0.237500X-0.300000X0.237500X0.300000X0*%
G04 APERTURE END LIST*
D10*
%TO.C,U1*%
X56892500Y-51580000D03*
X56892500Y-52380000D03*
X56892500Y-53180000D03*
X56892500Y-53980000D03*
X56892500Y-54780000D03*
X56892500Y-55580000D03*
X56892500Y-56380000D03*
X56892500Y-57180000D03*
X56892500Y-57980000D03*
X56892500Y-58780000D03*
X56892500Y-59580000D03*
X56892500Y-60380000D03*
X56892500Y-61180000D03*
X56892500Y-61980000D03*
X56892500Y-62780000D03*
X56892500Y-63580000D03*
X56892500Y-64380000D03*
X56892500Y-65180000D03*
X56892500Y-65980000D03*
X56892500Y-66780000D03*
X56892500Y-67580000D03*
X56892500Y-68380000D03*
X68067500Y-68380000D03*
X68067500Y-67580000D03*
X68067500Y-66780000D03*
X68067500Y-65980000D03*
X68067500Y-65180000D03*
X68067500Y-64380000D03*
X68067500Y-63580000D03*
X68067500Y-62780000D03*
X68067500Y-61980000D03*
X68067500Y-61180000D03*
X68067500Y-60380000D03*
X68067500Y-59580000D03*
X68067500Y-58780000D03*
X68067500Y-57980000D03*
X68067500Y-57180000D03*
X68067500Y-56380000D03*
X68067500Y-55580000D03*
X68067500Y-54780000D03*
X68067500Y-53980000D03*
X68067500Y-53180000D03*
X68067500Y-52380000D03*
X68067500Y-51580000D03*
%TD*%
D11*
%TO.C,C3*%
X62347500Y-40380000D03*
X64072500Y-40380000D03*
%TD*%
D12*
%TO.C,C2*%
X71640000Y-61502500D03*
X71640000Y-59777500D03*
%TD*%
D13*
%TO.C,J2*%
X59580000Y-38060000D03*
X60980000Y-38060000D03*
X62380000Y-38060000D03*
X63780000Y-38060000D03*
D14*
X59160000Y-34790000D03*
X59160000Y-30950000D03*
X64500000Y-30950000D03*
X64500000Y-34790000D03*
%TD*%
D15*
%TO.C,ST2*%
X53190000Y-94720000D03*
X48110000Y-100160000D03*
X53190000Y-100160000D03*
X48110000Y-94720000D03*
%TD*%
D16*
%TO.C,JP1*%
X54090000Y-68580000D03*
X54090000Y-69880000D03*
%TD*%
D17*
%TO.C,JP3*%
X59110000Y-71410000D03*
X57810000Y-71410000D03*
%TD*%
D18*
%TO.C,J1*%
X49425790Y-27248710D03*
D19*
X46885790Y-27248710D03*
X49425790Y-29788710D03*
X46885790Y-29788710D03*
X49425790Y-32328710D03*
X46885790Y-32328710D03*
X49425790Y-34868710D03*
X46885790Y-34868710D03*
X49425790Y-37408710D03*
X46885790Y-37408710D03*
X49425790Y-39948710D03*
X46885790Y-39948710D03*
X49425790Y-42488710D03*
X46885790Y-42488710D03*
X49425790Y-45028710D03*
X46885790Y-45028710D03*
X49425790Y-47568710D03*
X46885790Y-47568710D03*
X49425790Y-50108710D03*
X46885790Y-50108710D03*
X49425790Y-52648710D03*
X46885790Y-52648710D03*
X49425790Y-55188710D03*
X46885790Y-55188710D03*
X49425790Y-57728710D03*
X46885790Y-57728710D03*
X49425790Y-60268710D03*
X46885790Y-60268710D03*
X49425790Y-62808710D03*
X46885790Y-62808710D03*
X49425790Y-65348710D03*
X46885790Y-65348710D03*
X49425790Y-67888710D03*
X46885790Y-67888710D03*
X49425790Y-70428710D03*
X46885790Y-70428710D03*
X49425790Y-72968710D03*
X46885790Y-72968710D03*
X49425790Y-75508710D03*
X46885790Y-75508710D03*
X49425790Y-78048710D03*
X46885790Y-78048710D03*
X49425790Y-80588710D03*
X46885790Y-80588710D03*
X49425790Y-83128710D03*
X46885790Y-83128710D03*
X49425790Y-85668710D03*
X46885790Y-85668710D03*
X49425790Y-88208710D03*
X46885790Y-88208710D03*
%TD*%
D17*
%TO.C,JP2*%
X64210000Y-71430000D03*
X62910000Y-71430000D03*
%TD*%
D15*
%TO.C,ST1*%
X53190000Y-15300000D03*
X53190000Y-20740000D03*
X48110000Y-20740000D03*
X48110000Y-15300000D03*
%TD*%
D20*
%TO.C,C1*%
X54090000Y-59107500D03*
X54090000Y-60832500D03*
%TD*%
M02*
