%TF.GenerationSoftware,KiCad,Pcbnew,6.0.1+dfsg-1*%
%TF.CreationDate,2022-03-06T17:25:59+02:00*%
%TF.ProjectId,ram_board,72616d5f-626f-4617-9264-2e6b69636164,rev?*%
%TF.SameCoordinates,Original*%
%TF.FileFunction,Copper,L4,Bot*%
%TF.FilePolarity,Positive*%
%FSLAX46Y46*%
G04 Gerber Fmt 4.6, Leading zero omitted, Abs format (unit mm)*
G04 Created by KiCad (PCBNEW 6.0.1+dfsg-1) date 2022-03-06 17:25:59*
%MOMM*%
%LPD*%
G01*
G04 APERTURE LIST*
%TA.AperFunction,ComponentPad*%
%ADD10C,1.200000*%
%TD*%
%TA.AperFunction,ComponentPad*%
%ADD11O,1.000000X2.200000*%
%TD*%
%TA.AperFunction,ComponentPad*%
%ADD12C,2.540000*%
%TD*%
%TA.AperFunction,ComponentPad*%
%ADD13R,1.700000X1.700000*%
%TD*%
%TA.AperFunction,ComponentPad*%
%ADD14O,1.700000X1.700000*%
%TD*%
%TA.AperFunction,ViaPad*%
%ADD15C,0.686000*%
%TD*%
%TA.AperFunction,Conductor*%
%ADD16C,0.250000*%
%TD*%
%TA.AperFunction,Conductor*%
%ADD17C,0.500000*%
%TD*%
G04 APERTURE END LIST*
D10*
%TO.P,J2,1,VBUS*%
%TO.N,/DVDD5*%
X59580000Y-38060000D03*
%TO.P,J2,2,D-*%
%TO.N,/USB_D-*%
X60980000Y-38060000D03*
%TO.P,J2,3,D+*%
%TO.N,/USB_D+*%
X62380000Y-38060000D03*
%TO.P,J2,4,GND*%
%TO.N,GND*%
X63780000Y-38060000D03*
D11*
%TO.P,J2,5,Shield*%
X59160000Y-34790000D03*
X59160000Y-30950000D03*
X64500000Y-30950000D03*
X64500000Y-34790000D03*
%TD*%
D12*
%TO.P,ST2,1,Pin_1*%
%TO.N,GND*%
X53190000Y-94720000D03*
X48110000Y-100160000D03*
X53190000Y-100160000D03*
X48110000Y-94720000D03*
%TD*%
D13*
%TO.P,J1,1,Pin_1*%
%TO.N,unconnected-(J1-Pad1)*%
X49425790Y-27248710D03*
D14*
%TO.P,J1,2,Pin_2*%
%TO.N,unconnected-(J1-Pad2)*%
X46885790Y-27248710D03*
%TO.P,J1,3,Pin_3*%
%TO.N,/USB_D+*%
X49425790Y-29788710D03*
%TO.P,J1,4,Pin_4*%
%TO.N,/USB_D-*%
X46885790Y-29788710D03*
%TO.P,J1,5,Pin_5*%
%TO.N,/BE#*%
X49425790Y-32328710D03*
%TO.P,J1,6,Pin_6*%
%TO.N,/OE#*%
X46885790Y-32328710D03*
%TO.P,J1,7,Pin_7*%
%TO.N,/WE#*%
X49425790Y-34868710D03*
%TO.P,J1,8,Pin_8*%
%TO.N,/CS#*%
X46885790Y-34868710D03*
%TO.P,J1,9,Pin_9*%
%TO.N,/A0*%
X49425790Y-37408710D03*
%TO.P,J1,10,Pin_10*%
%TO.N,/A1*%
X46885790Y-37408710D03*
%TO.P,J1,11,Pin_11*%
%TO.N,/A2*%
X49425790Y-39948710D03*
%TO.P,J1,12,Pin_12*%
%TO.N,/A3*%
X46885790Y-39948710D03*
%TO.P,J1,13,Pin_13*%
%TO.N,/A4*%
X49425790Y-42488710D03*
%TO.P,J1,14,Pin_14*%
%TO.N,/A5*%
X46885790Y-42488710D03*
%TO.P,J1,15,Pin_15*%
%TO.N,/A6*%
X49425790Y-45028710D03*
%TO.P,J1,16,Pin_16*%
%TO.N,/A7*%
X46885790Y-45028710D03*
%TO.P,J1,17,Pin_17*%
%TO.N,/DVDD5*%
X49425790Y-47568710D03*
%TO.P,J1,18,Pin_18*%
%TO.N,GND*%
X46885790Y-47568710D03*
%TO.P,J1,19,Pin_19*%
%TO.N,/A8*%
X49425790Y-50108710D03*
%TO.P,J1,20,Pin_20*%
%TO.N,/A9*%
X46885790Y-50108710D03*
%TO.P,J1,21,Pin_21*%
%TO.N,/A10*%
X49425790Y-52648710D03*
%TO.P,J1,22,Pin_22*%
%TO.N,/A11*%
X46885790Y-52648710D03*
%TO.P,J1,23,Pin_23*%
%TO.N,/A12*%
X49425790Y-55188710D03*
%TO.P,J1,24,Pin_24*%
%TO.N,/A13*%
X46885790Y-55188710D03*
%TO.P,J1,25,Pin_25*%
%TO.N,/A14*%
X49425790Y-57728710D03*
%TO.P,J1,26,Pin_26*%
%TO.N,/A15*%
X46885790Y-57728710D03*
%TO.P,J1,27,Pin_27*%
%TO.N,/IO0*%
X49425790Y-60268710D03*
%TO.P,J1,28,Pin_28*%
%TO.N,/IO1*%
X46885790Y-60268710D03*
%TO.P,J1,29,Pin_29*%
%TO.N,/IO2*%
X49425790Y-62808710D03*
%TO.P,J1,30,Pin_30*%
%TO.N,/IO3*%
X46885790Y-62808710D03*
%TO.P,J1,31,Pin_31*%
%TO.N,/IO4*%
X49425790Y-65348710D03*
%TO.P,J1,32,Pin_32*%
%TO.N,/IO5*%
X46885790Y-65348710D03*
%TO.P,J1,33,Pin_33*%
%TO.N,/IO6*%
X49425790Y-67888710D03*
%TO.P,J1,34,Pin_34*%
%TO.N,/IO7*%
X46885790Y-67888710D03*
%TO.P,J1,35,Pin_35*%
%TO.N,/DVDD3v3*%
X49425790Y-70428710D03*
%TO.P,J1,36,Pin_36*%
%TO.N,GND*%
X46885790Y-70428710D03*
%TO.P,J1,37,Pin_37*%
%TO.N,/IO8*%
X49425790Y-72968710D03*
%TO.P,J1,38,Pin_38*%
%TO.N,/IO9*%
X46885790Y-72968710D03*
%TO.P,J1,39,Pin_39*%
%TO.N,/IO10*%
X49425790Y-75508710D03*
%TO.P,J1,40,Pin_40*%
%TO.N,/IO11*%
X46885790Y-75508710D03*
%TO.P,J1,41,Pin_41*%
%TO.N,/IO12*%
X49425790Y-78048710D03*
%TO.P,J1,42,Pin_42*%
%TO.N,/IO13*%
X46885790Y-78048710D03*
%TO.P,J1,43,Pin_43*%
%TO.N,/IO14*%
X49425790Y-80588710D03*
%TO.P,J1,44,Pin_44*%
%TO.N,/IO15*%
X46885790Y-80588710D03*
%TO.P,J1,45,Pin_45*%
%TO.N,unconnected-(J1-Pad45)*%
X49425790Y-83128710D03*
%TO.P,J1,46,Pin_46*%
%TO.N,unconnected-(J1-Pad46)*%
X46885790Y-83128710D03*
%TO.P,J1,47,Pin_47*%
%TO.N,unconnected-(J1-Pad47)*%
X49425790Y-85668710D03*
%TO.P,J1,48,Pin_48*%
%TO.N,unconnected-(J1-Pad48)*%
X46885790Y-85668710D03*
%TO.P,J1,49,Pin_49*%
%TO.N,unconnected-(J1-Pad49)*%
X49425790Y-88208710D03*
%TO.P,J1,50,Pin_50*%
%TO.N,unconnected-(J1-Pad50)*%
X46885790Y-88208710D03*
%TD*%
D12*
%TO.P,ST1,1,Pin_1*%
%TO.N,GND*%
X53190000Y-15300000D03*
X53190000Y-20740000D03*
X48110000Y-20740000D03*
X48110000Y-15300000D03*
%TD*%
D15*
%TO.N,GND*%
X66640000Y-59130000D03*
X44908409Y-29836428D03*
X44908409Y-32376428D03*
X75388409Y-78096428D03*
X75388409Y-32376428D03*
X52528409Y-83176428D03*
X65228409Y-85716428D03*
X70308409Y-32376428D03*
X67768409Y-29836428D03*
X44908409Y-37456428D03*
X75388409Y-45076428D03*
X72848409Y-78096428D03*
X44908409Y-55236428D03*
X72848409Y-45076428D03*
X52528409Y-29836428D03*
X75388409Y-50156428D03*
X52528409Y-27296428D03*
X44908409Y-34916428D03*
X44908409Y-75556428D03*
X55068409Y-29836428D03*
X72848409Y-39996428D03*
X72848409Y-52696428D03*
X62688409Y-32376428D03*
X55068409Y-24756428D03*
X49988409Y-95876428D03*
X75388409Y-80636428D03*
X57608409Y-32376428D03*
X44908409Y-42536428D03*
X62688409Y-29836428D03*
X55068409Y-17136428D03*
X72848409Y-55236428D03*
X44908409Y-39996428D03*
X44908409Y-60316428D03*
X55068409Y-98416428D03*
X44908409Y-90796428D03*
X57608409Y-83176428D03*
X49988409Y-24756428D03*
X44908409Y-73016428D03*
X65228409Y-42536428D03*
X70308409Y-85716428D03*
X55068409Y-95876428D03*
X47448409Y-24756428D03*
X72848409Y-37456428D03*
X66050000Y-58490000D03*
X70308409Y-42536428D03*
X47448409Y-90796428D03*
X72848409Y-50156428D03*
X44908409Y-50156428D03*
X49988409Y-98416428D03*
X72848409Y-42536428D03*
X60148409Y-83176428D03*
X49988409Y-14596428D03*
X75388409Y-55236428D03*
X55068409Y-85716428D03*
X55068409Y-19676428D03*
X44908409Y-65396428D03*
X44908409Y-47616428D03*
X49988409Y-22216428D03*
X72848409Y-34916428D03*
X65228409Y-55236428D03*
X44908409Y-52696428D03*
X72848409Y-85716428D03*
X75388409Y-34916428D03*
X44908409Y-83176428D03*
X52528409Y-47616428D03*
X65228409Y-83176428D03*
X55068409Y-90796428D03*
X75388409Y-75556428D03*
X72848409Y-80636428D03*
X55068409Y-27296428D03*
X72848409Y-29836428D03*
X44908409Y-45076428D03*
X55068409Y-83176428D03*
X58420000Y-61710000D03*
X67768409Y-34916428D03*
X49988409Y-93336428D03*
X72848409Y-47616428D03*
X70308409Y-83176428D03*
X67768409Y-37456428D03*
X75388409Y-39996428D03*
X62688409Y-85716428D03*
X49988409Y-100956428D03*
X44908409Y-62856428D03*
X75388409Y-85716428D03*
X62688409Y-83176428D03*
X75388409Y-83176428D03*
X70308409Y-37456428D03*
X60148409Y-85716428D03*
X55068409Y-93336428D03*
X52528409Y-24756428D03*
X75388409Y-52696428D03*
X67768409Y-83176428D03*
X72150000Y-60240000D03*
X44908409Y-70476428D03*
X62688409Y-34916428D03*
X44908409Y-80636428D03*
X49988409Y-90796428D03*
X75388409Y-37456428D03*
X44908409Y-57776428D03*
X52528409Y-70476428D03*
X67768409Y-32376428D03*
X44908409Y-88256428D03*
X44908409Y-85716428D03*
X52528409Y-85716428D03*
X49988409Y-17136428D03*
X55068409Y-22216428D03*
X55068409Y-88256428D03*
X57608409Y-29836428D03*
X44908409Y-24756428D03*
X72848409Y-32376428D03*
X44908409Y-78096428D03*
X44908409Y-27296428D03*
X57608409Y-85716428D03*
X70308409Y-34916428D03*
X75388409Y-29836428D03*
X55068409Y-14596428D03*
X53560000Y-61490000D03*
X52528409Y-90796428D03*
X67768409Y-85716428D03*
X70308409Y-80636428D03*
X55068409Y-100956428D03*
X72848409Y-83176428D03*
X49988409Y-19676428D03*
X70308409Y-39996428D03*
X75388409Y-47616428D03*
X75388409Y-42536428D03*
X44908409Y-67936428D03*
X67768409Y-42536428D03*
X70308409Y-29836428D03*
X65228409Y-39996428D03*
X67768409Y-39996428D03*
X52528409Y-88256428D03*
%TO.N,/DVDD3v3*%
X50910000Y-70260000D03*
X65950000Y-60120000D03*
X59490000Y-62670000D03*
X72080000Y-62180000D03*
X66600000Y-60850000D03*
X55010000Y-59190000D03*
X50880000Y-71630000D03*
%TO.N,/DVDD5*%
X61340000Y-39830000D03*
%TO.N,/A8*%
X66570000Y-62220000D03*
%TO.N,/A10*%
X64570000Y-63390000D03*
%TO.N,/A15*%
X55290000Y-67400000D03*
%TO.N,/A14*%
X58450000Y-66030000D03*
%TO.N,/A13*%
X59710000Y-66000000D03*
%TO.N,/A12*%
X62330000Y-64330000D03*
%TO.N,/A11*%
X63480000Y-63820000D03*
%TO.N,/A9*%
X65610000Y-62940000D03*
%TO.N,/A18*%
X63680000Y-67760000D03*
X69090000Y-64370000D03*
%TO.N,/A7*%
X65310000Y-46410000D03*
%TO.N,/A6*%
X66650000Y-46390000D03*
%TO.N,/A5*%
X68060000Y-46380000D03*
%TD*%
D16*
%TO.N,/A15*%
X55290000Y-67400000D02*
X55200000Y-67400000D01*
X55200000Y-67400000D02*
X50960000Y-63160000D01*
X50960000Y-63160000D02*
X50960000Y-59900000D01*
X50960000Y-59900000D02*
X50080000Y-59020000D01*
X50080000Y-59020000D02*
X47677080Y-59020000D01*
X47677080Y-59020000D02*
X46385790Y-57728710D01*
%TO.N,/A14*%
X58450000Y-66030000D02*
X55190000Y-66030000D01*
X55190000Y-66030000D02*
X51930000Y-62770000D01*
X50038710Y-57728710D02*
X48925790Y-57728710D01*
X51930000Y-62770000D02*
X51930000Y-59620000D01*
X51930000Y-59620000D02*
X50038710Y-57728710D01*
%TO.N,/A13*%
X59710000Y-66000000D02*
X59072489Y-65362489D01*
X58864978Y-65180000D02*
X55670000Y-65180000D01*
X59072489Y-65362489D02*
X59072489Y-65387511D01*
X59072489Y-65387511D02*
X58864978Y-65180000D01*
X55670000Y-65180000D02*
X52790000Y-62300000D01*
X52790000Y-62300000D02*
X52790000Y-59070000D01*
X52790000Y-59070000D02*
X50160000Y-56440000D01*
X50160000Y-56440000D02*
X47637080Y-56440000D01*
X47637080Y-56440000D02*
X46385790Y-55188710D01*
D17*
%TO.N,GND*%
X66640000Y-59130000D02*
X66640000Y-59080000D01*
X66640000Y-59080000D02*
X66050000Y-58490000D01*
D16*
%TO.N,/DVDD3v3*%
X50910000Y-70260000D02*
X50910000Y-71600000D01*
X50910000Y-71600000D02*
X50880000Y-71630000D01*
D17*
X66600000Y-60850000D02*
X66600000Y-60770000D01*
X66600000Y-60770000D02*
X65950000Y-60120000D01*
D16*
%TO.N,/A8*%
X54458710Y-50108710D02*
X48925790Y-50108710D01*
X66570000Y-62220000D02*
X54458710Y-50108710D01*
%TO.N,/A10*%
X53868710Y-52648710D02*
X48925790Y-52648710D01*
X64570000Y-63390000D02*
X64570000Y-63350000D01*
X64570000Y-63350000D02*
X53868710Y-52648710D01*
%TO.N,/A12*%
X53358710Y-55188710D02*
X48925790Y-55188710D01*
X62330000Y-64160000D02*
X53358710Y-55188710D01*
X62330000Y-64330000D02*
X62330000Y-64160000D01*
%TO.N,/A11*%
X53710000Y-53930000D02*
X47667080Y-53930000D01*
X63480000Y-63820000D02*
X63480000Y-63700000D01*
X63480000Y-63700000D02*
X53710000Y-53930000D01*
X47667080Y-53930000D02*
X46385790Y-52648710D01*
%TO.N,/A9*%
X65610000Y-62940000D02*
X65610000Y-62810000D01*
X54160000Y-51360000D02*
X47637080Y-51360000D01*
X47637080Y-51360000D02*
X46385790Y-50108710D01*
X65610000Y-62810000D02*
X54160000Y-51360000D01*
%TO.N,/A18*%
X63710000Y-67790000D02*
X63680000Y-67760000D01*
X65670000Y-67790000D02*
X63710000Y-67790000D01*
X69090000Y-64370000D02*
X65670000Y-67790000D01*
%TO.N,/A7*%
X65310000Y-46410000D02*
X65190000Y-46290000D01*
X47647080Y-46290000D02*
X46385790Y-45028710D01*
X65190000Y-46290000D02*
X47647080Y-46290000D01*
%TO.N,/A6*%
X66380000Y-46230000D02*
X65178710Y-45028710D01*
X66490000Y-46230000D02*
X66380000Y-46230000D01*
X66650000Y-46390000D02*
X66490000Y-46230000D01*
X65178710Y-45028710D02*
X48925790Y-45028710D01*
%TO.N,/A5*%
X68060000Y-46380000D02*
X65440000Y-43760000D01*
X47657080Y-43760000D02*
X46385790Y-42488710D01*
X65440000Y-43760000D02*
X47657080Y-43760000D01*
%TD*%
%TA.AperFunction,Conductor*%
%TO.N,GND*%
G36*
X51824502Y-13940002D02*
G01*
X51870995Y-13993658D01*
X51881099Y-14063932D01*
X51853255Y-14126569D01*
X51741433Y-14261020D01*
X51736018Y-14268612D01*
X51603776Y-14486540D01*
X51599538Y-14494857D01*
X51500961Y-14729935D01*
X51498000Y-14738785D01*
X51435255Y-14985849D01*
X51433633Y-14995046D01*
X51408094Y-15248673D01*
X51407849Y-15257999D01*
X51420080Y-15512619D01*
X51421217Y-15521879D01*
X51470947Y-15771894D01*
X51473441Y-15780887D01*
X51559578Y-16020797D01*
X51563378Y-16029332D01*
X51684031Y-16253877D01*
X51689045Y-16261748D01*
X51755154Y-16350279D01*
X51766414Y-16358729D01*
X51778832Y-16351958D01*
X53100905Y-15029885D01*
X53163217Y-14995859D01*
X53234032Y-15000924D01*
X53279095Y-15029885D01*
X54604386Y-16355176D01*
X54616766Y-16361936D01*
X54625107Y-16355692D01*
X54754391Y-16154697D01*
X54758838Y-16146506D01*
X54863536Y-15914085D01*
X54866731Y-15905307D01*
X54935923Y-15659968D01*
X54937781Y-15650839D01*
X54970144Y-15396444D01*
X54970625Y-15390158D01*
X54972903Y-15303160D01*
X54972752Y-15296851D01*
X54953747Y-15041110D01*
X54952370Y-15031904D01*
X54896109Y-14783262D01*
X54893385Y-14774351D01*
X54800990Y-14536758D01*
X54796979Y-14528349D01*
X54670481Y-14307025D01*
X54665270Y-14299299D01*
X54527081Y-14124006D01*
X54500616Y-14058126D01*
X54513969Y-13988397D01*
X54562901Y-13936956D01*
X54626031Y-13920000D01*
X56864000Y-13920000D01*
X56932121Y-13940002D01*
X56978614Y-13993658D01*
X56990000Y-14046000D01*
X56990000Y-28442966D01*
X56987579Y-28467547D01*
X56985102Y-28480000D01*
X57004505Y-28577545D01*
X57059760Y-28660240D01*
X57142455Y-28715495D01*
X57170905Y-28721154D01*
X57240000Y-28734898D01*
X57252171Y-28732477D01*
X57252453Y-28732421D01*
X57277034Y-28730000D01*
X76464000Y-28730000D01*
X76532121Y-28750002D01*
X76578614Y-28803658D01*
X76590000Y-28856000D01*
X76590000Y-87124000D01*
X76569998Y-87192121D01*
X76516342Y-87238614D01*
X76464000Y-87250000D01*
X57277034Y-87250000D01*
X57252453Y-87247579D01*
X57252171Y-87247523D01*
X57240000Y-87245102D01*
X57215376Y-87250000D01*
X57142455Y-87264505D01*
X57059760Y-87319760D01*
X57004505Y-87402455D01*
X56985102Y-87500000D01*
X56987523Y-87512171D01*
X56987579Y-87512453D01*
X56990000Y-87537034D01*
X56990000Y-101374000D01*
X56969998Y-101442121D01*
X56916342Y-101488614D01*
X56864000Y-101500000D01*
X54657916Y-101500000D01*
X54589795Y-101479998D01*
X54543302Y-101426342D01*
X54533198Y-101356068D01*
X54563184Y-101290922D01*
X54610874Y-101236543D01*
X54616486Y-101229095D01*
X54754391Y-101014697D01*
X54758838Y-101006506D01*
X54863536Y-100774085D01*
X54866731Y-100765307D01*
X54935923Y-100519968D01*
X54937781Y-100510839D01*
X54970144Y-100256444D01*
X54970625Y-100250158D01*
X54972903Y-100163160D01*
X54972752Y-100156851D01*
X54953747Y-99901110D01*
X54952370Y-99891904D01*
X54896109Y-99643262D01*
X54893385Y-99634351D01*
X54800990Y-99396758D01*
X54796979Y-99388349D01*
X54670482Y-99167027D01*
X54665269Y-99159298D01*
X54625633Y-99109019D01*
X54613709Y-99100549D01*
X54602174Y-99107036D01*
X53279095Y-100430115D01*
X53216783Y-100464141D01*
X53145968Y-100459076D01*
X53100905Y-100430115D01*
X51777119Y-99106329D01*
X51763811Y-99099062D01*
X51753772Y-99106184D01*
X51741433Y-99121020D01*
X51736018Y-99128612D01*
X51603776Y-99346540D01*
X51599538Y-99354857D01*
X51500961Y-99589935D01*
X51498000Y-99598785D01*
X51435255Y-99845849D01*
X51433633Y-99855046D01*
X51408094Y-100108673D01*
X51407849Y-100117999D01*
X51420080Y-100372619D01*
X51421217Y-100381879D01*
X51470947Y-100631894D01*
X51473441Y-100640887D01*
X51559578Y-100880797D01*
X51563378Y-100889332D01*
X51684031Y-101113877D01*
X51689042Y-101121744D01*
X51821115Y-101298611D01*
X51845847Y-101365161D01*
X51830673Y-101434517D01*
X51780411Y-101484659D01*
X51720157Y-101500000D01*
X49577916Y-101500000D01*
X49509795Y-101479998D01*
X49463302Y-101426342D01*
X49453198Y-101356068D01*
X49483184Y-101290922D01*
X49530874Y-101236543D01*
X49536486Y-101229095D01*
X49674391Y-101014697D01*
X49678838Y-101006506D01*
X49783536Y-100774085D01*
X49786731Y-100765307D01*
X49855923Y-100519968D01*
X49857781Y-100510839D01*
X49890144Y-100256444D01*
X49890625Y-100250158D01*
X49892903Y-100163160D01*
X49892752Y-100156851D01*
X49873747Y-99901110D01*
X49872370Y-99891904D01*
X49816109Y-99643262D01*
X49813385Y-99634351D01*
X49720990Y-99396758D01*
X49716979Y-99388349D01*
X49590482Y-99167027D01*
X49585269Y-99159298D01*
X49545633Y-99109019D01*
X49533709Y-99100549D01*
X49522174Y-99107036D01*
X48199095Y-100430115D01*
X48136783Y-100464141D01*
X48065968Y-100459076D01*
X48020905Y-100430115D01*
X47839885Y-100249095D01*
X47805859Y-100186783D01*
X47810924Y-100115968D01*
X47839885Y-100070905D01*
X49162790Y-98748000D01*
X49169174Y-98736310D01*
X49167656Y-98734357D01*
X52128770Y-98734357D01*
X52133343Y-98744133D01*
X53177188Y-99787978D01*
X53191132Y-99795592D01*
X53192965Y-99795461D01*
X53199580Y-99791210D01*
X54242790Y-98748000D01*
X54249174Y-98736310D01*
X54239762Y-98724199D01*
X54098776Y-98626392D01*
X54090741Y-98621659D01*
X53862106Y-98508909D01*
X53853473Y-98505421D01*
X53610675Y-98427701D01*
X53601624Y-98425528D01*
X53350009Y-98384550D01*
X53340720Y-98383738D01*
X53085828Y-98380401D01*
X53076517Y-98380971D01*
X52823927Y-98415347D01*
X52814808Y-98417285D01*
X52570084Y-98488616D01*
X52561331Y-98491888D01*
X52329837Y-98598608D01*
X52321682Y-98603128D01*
X52137907Y-98723616D01*
X52128770Y-98734357D01*
X49167656Y-98734357D01*
X49159762Y-98724199D01*
X49018776Y-98626392D01*
X49010741Y-98621659D01*
X48782106Y-98508909D01*
X48773473Y-98505421D01*
X48530675Y-98427701D01*
X48521624Y-98425528D01*
X48270009Y-98384550D01*
X48260720Y-98383738D01*
X48005828Y-98380401D01*
X47996517Y-98380971D01*
X47743927Y-98415347D01*
X47734808Y-98417285D01*
X47490084Y-98488616D01*
X47481331Y-98491888D01*
X47249837Y-98598608D01*
X47241682Y-98603128D01*
X47028500Y-98742896D01*
X47021103Y-98748573D01*
X46959901Y-98803197D01*
X46895760Y-98833634D01*
X46825345Y-98824562D01*
X46771013Y-98778862D01*
X46750000Y-98709193D01*
X46750000Y-96176091D01*
X46770002Y-96107970D01*
X46823658Y-96061477D01*
X46893932Y-96051373D01*
X46951011Y-96077200D01*
X46952043Y-96075793D01*
X47161394Y-96229296D01*
X47169293Y-96234232D01*
X47394901Y-96352930D01*
X47403450Y-96356647D01*
X47644113Y-96440690D01*
X47653122Y-96443104D01*
X47903572Y-96490654D01*
X47912827Y-96491708D01*
X48167557Y-96501717D01*
X48176871Y-96501391D01*
X48430270Y-96473640D01*
X48439447Y-96471939D01*
X48685960Y-96407037D01*
X48694780Y-96404000D01*
X48928997Y-96303373D01*
X48937269Y-96299066D01*
X49154036Y-96164927D01*
X49161579Y-96159447D01*
X49163272Y-96158014D01*
X49171710Y-96145211D01*
X49170674Y-96143442D01*
X52131303Y-96143442D01*
X52140017Y-96154962D01*
X52241394Y-96229296D01*
X52249293Y-96234232D01*
X52474901Y-96352930D01*
X52483450Y-96356647D01*
X52724113Y-96440690D01*
X52733122Y-96443104D01*
X52983572Y-96490654D01*
X52992827Y-96491708D01*
X53247557Y-96501717D01*
X53256871Y-96501391D01*
X53510270Y-96473640D01*
X53519447Y-96471939D01*
X53765960Y-96407037D01*
X53774780Y-96404000D01*
X54008997Y-96303373D01*
X54017269Y-96299066D01*
X54234036Y-96164927D01*
X54241579Y-96159447D01*
X54243272Y-96158014D01*
X54251710Y-96145211D01*
X54245645Y-96134855D01*
X53202812Y-95092022D01*
X53188868Y-95084408D01*
X53187035Y-95084539D01*
X53180420Y-95088790D01*
X52137961Y-96131249D01*
X52131303Y-96143442D01*
X49170674Y-96143442D01*
X49165645Y-96134855D01*
X47839885Y-94809095D01*
X47805859Y-94746783D01*
X47807694Y-94721132D01*
X48474408Y-94721132D01*
X48474539Y-94722965D01*
X48478790Y-94729580D01*
X49524386Y-95775176D01*
X49536766Y-95781936D01*
X49545107Y-95775692D01*
X49674391Y-95574697D01*
X49678838Y-95566506D01*
X49783536Y-95334085D01*
X49786731Y-95325307D01*
X49855923Y-95079968D01*
X49857781Y-95070839D01*
X49890144Y-94816444D01*
X49890625Y-94810158D01*
X49892903Y-94723160D01*
X49892752Y-94716851D01*
X49889865Y-94677999D01*
X51407849Y-94677999D01*
X51420080Y-94932619D01*
X51421217Y-94941879D01*
X51470947Y-95191894D01*
X51473441Y-95200887D01*
X51559578Y-95440797D01*
X51563378Y-95449332D01*
X51684031Y-95673877D01*
X51689045Y-95681748D01*
X51755154Y-95770279D01*
X51766414Y-95778729D01*
X51778832Y-95771958D01*
X52817978Y-94732812D01*
X52824356Y-94721132D01*
X53554408Y-94721132D01*
X53554539Y-94722965D01*
X53558790Y-94729580D01*
X54604386Y-95775176D01*
X54616766Y-95781936D01*
X54625107Y-95775692D01*
X54754391Y-95574697D01*
X54758838Y-95566506D01*
X54863536Y-95334085D01*
X54866731Y-95325307D01*
X54935923Y-95079968D01*
X54937781Y-95070839D01*
X54970144Y-94816444D01*
X54970625Y-94810158D01*
X54972903Y-94723160D01*
X54972752Y-94716851D01*
X54953747Y-94461110D01*
X54952370Y-94451904D01*
X54896109Y-94203262D01*
X54893385Y-94194351D01*
X54800990Y-93956758D01*
X54796979Y-93948349D01*
X54670482Y-93727027D01*
X54665269Y-93719298D01*
X54625633Y-93669019D01*
X54613709Y-93660549D01*
X54602174Y-93667036D01*
X53562022Y-94707188D01*
X53554408Y-94721132D01*
X52824356Y-94721132D01*
X52825592Y-94718868D01*
X52825461Y-94717035D01*
X52821210Y-94710420D01*
X51777119Y-93666329D01*
X51763811Y-93659062D01*
X51753772Y-93666184D01*
X51741433Y-93681020D01*
X51736018Y-93688612D01*
X51603776Y-93906540D01*
X51599538Y-93914857D01*
X51500961Y-94149935D01*
X51498000Y-94158785D01*
X51435255Y-94405849D01*
X51433633Y-94415046D01*
X51408094Y-94668673D01*
X51407849Y-94677999D01*
X49889865Y-94677999D01*
X49873747Y-94461110D01*
X49872370Y-94451904D01*
X49816109Y-94203262D01*
X49813385Y-94194351D01*
X49720990Y-93956758D01*
X49716979Y-93948349D01*
X49590482Y-93727027D01*
X49585269Y-93719298D01*
X49545633Y-93669019D01*
X49533709Y-93660549D01*
X49522174Y-93667036D01*
X48482022Y-94707188D01*
X48474408Y-94721132D01*
X47807694Y-94721132D01*
X47810924Y-94675968D01*
X47839885Y-94630905D01*
X49162790Y-93308000D01*
X49169174Y-93296310D01*
X49167656Y-93294357D01*
X52128770Y-93294357D01*
X52133343Y-93304133D01*
X53177188Y-94347978D01*
X53191132Y-94355592D01*
X53192965Y-94355461D01*
X53199580Y-94351210D01*
X54242790Y-93308000D01*
X54249174Y-93296310D01*
X54239762Y-93284199D01*
X54098776Y-93186392D01*
X54090741Y-93181659D01*
X53862106Y-93068909D01*
X53853473Y-93065421D01*
X53610675Y-92987701D01*
X53601624Y-92985528D01*
X53350009Y-92944550D01*
X53340720Y-92943738D01*
X53085828Y-92940401D01*
X53076517Y-92940971D01*
X52823927Y-92975347D01*
X52814808Y-92977285D01*
X52570084Y-93048616D01*
X52561331Y-93051888D01*
X52329837Y-93158608D01*
X52321682Y-93163128D01*
X52137907Y-93283616D01*
X52128770Y-93294357D01*
X49167656Y-93294357D01*
X49159762Y-93284199D01*
X49018776Y-93186392D01*
X49010741Y-93181659D01*
X48782106Y-93068909D01*
X48773473Y-93065421D01*
X48530675Y-92987701D01*
X48521624Y-92985528D01*
X48270009Y-92944550D01*
X48260720Y-92943738D01*
X48005828Y-92940401D01*
X47996517Y-92940971D01*
X47743927Y-92975347D01*
X47734808Y-92977285D01*
X47490084Y-93048616D01*
X47481331Y-93051888D01*
X47249837Y-93158608D01*
X47241682Y-93163128D01*
X47028500Y-93302896D01*
X47021103Y-93308573D01*
X46959901Y-93363197D01*
X46895760Y-93393634D01*
X46825345Y-93384562D01*
X46771013Y-93338862D01*
X46750000Y-93269193D01*
X46750000Y-91537034D01*
X46752421Y-91512453D01*
X46752477Y-91512171D01*
X46754898Y-91500000D01*
X46735495Y-91402455D01*
X46680240Y-91319760D01*
X46669924Y-91312867D01*
X46607862Y-91271398D01*
X46607860Y-91271397D01*
X46597545Y-91264505D01*
X46524624Y-91250000D01*
X46500000Y-91245102D01*
X46487829Y-91247523D01*
X46487547Y-91247579D01*
X46462966Y-91250000D01*
X43876000Y-91250000D01*
X43807879Y-91229998D01*
X43761386Y-91176342D01*
X43750000Y-91124000D01*
X43750000Y-88179779D01*
X45780954Y-88179779D01*
X45794182Y-88381604D01*
X45843968Y-88577638D01*
X45928646Y-88761317D01*
X46045378Y-88926490D01*
X46190256Y-89067623D01*
X46358427Y-89179992D01*
X46363730Y-89182270D01*
X46363733Y-89182272D01*
X46452081Y-89220229D01*
X46544260Y-89259832D01*
X46741530Y-89304470D01*
X46747299Y-89304697D01*
X46747302Y-89304697D01*
X46823473Y-89307689D01*
X46943632Y-89312410D01*
X47029922Y-89299899D01*
X47138076Y-89284218D01*
X47138081Y-89284217D01*
X47143797Y-89283388D01*
X47149269Y-89281530D01*
X47149271Y-89281530D01*
X47329857Y-89220229D01*
X47329859Y-89220228D01*
X47335321Y-89218374D01*
X47511791Y-89119547D01*
X47574223Y-89067623D01*
X47662863Y-88993901D01*
X47667295Y-88990215D01*
X47796627Y-88834711D01*
X47895454Y-88658241D01*
X47960468Y-88466717D01*
X47961297Y-88461001D01*
X47961298Y-88460996D01*
X47988957Y-88270226D01*
X47989490Y-88266552D01*
X47991005Y-88208710D01*
X47988347Y-88179779D01*
X48320954Y-88179779D01*
X48334182Y-88381604D01*
X48383968Y-88577638D01*
X48468646Y-88761317D01*
X48585378Y-88926490D01*
X48730256Y-89067623D01*
X48898427Y-89179992D01*
X48903730Y-89182270D01*
X48903733Y-89182272D01*
X48992081Y-89220229D01*
X49084260Y-89259832D01*
X49281530Y-89304470D01*
X49287299Y-89304697D01*
X49287302Y-89304697D01*
X49363473Y-89307689D01*
X49483632Y-89312410D01*
X49569922Y-89299899D01*
X49678076Y-89284218D01*
X49678081Y-89284217D01*
X49683797Y-89283388D01*
X49689269Y-89281530D01*
X49689271Y-89281530D01*
X49869857Y-89220229D01*
X49869859Y-89220228D01*
X49875321Y-89218374D01*
X50051791Y-89119547D01*
X50114223Y-89067623D01*
X50202863Y-88993901D01*
X50207295Y-88990215D01*
X50336627Y-88834711D01*
X50435454Y-88658241D01*
X50500468Y-88466717D01*
X50501297Y-88461001D01*
X50501298Y-88460996D01*
X50528957Y-88270226D01*
X50529490Y-88266552D01*
X50531005Y-88208710D01*
X50512498Y-88007301D01*
X50457597Y-87812636D01*
X50368141Y-87631237D01*
X50349869Y-87606767D01*
X50250578Y-87473801D01*
X50250577Y-87473800D01*
X50247125Y-87469177D01*
X50224140Y-87447930D01*
X50102843Y-87335804D01*
X50102841Y-87335802D01*
X50098602Y-87331884D01*
X50068462Y-87312867D01*
X49932427Y-87227035D01*
X49927547Y-87223956D01*
X49739688Y-87149008D01*
X49541316Y-87109549D01*
X49535542Y-87109473D01*
X49535538Y-87109473D01*
X49433047Y-87108132D01*
X49339076Y-87106902D01*
X49333379Y-87107881D01*
X49333378Y-87107881D01*
X49145436Y-87140175D01*
X49145435Y-87140175D01*
X49139739Y-87141154D01*
X48949983Y-87211159D01*
X48945022Y-87214111D01*
X48945021Y-87214111D01*
X48864386Y-87262084D01*
X48776161Y-87314572D01*
X48624095Y-87447930D01*
X48498879Y-87606767D01*
X48404704Y-87785763D01*
X48344727Y-87978923D01*
X48320954Y-88179779D01*
X47988347Y-88179779D01*
X47972498Y-88007301D01*
X47917597Y-87812636D01*
X47828141Y-87631237D01*
X47809869Y-87606767D01*
X47710578Y-87473801D01*
X47710577Y-87473800D01*
X47707125Y-87469177D01*
X47684140Y-87447930D01*
X47562843Y-87335804D01*
X47562841Y-87335802D01*
X47558602Y-87331884D01*
X47528462Y-87312867D01*
X47392427Y-87227035D01*
X47387547Y-87223956D01*
X47199688Y-87149008D01*
X47001316Y-87109549D01*
X46995542Y-87109473D01*
X46995538Y-87109473D01*
X46893047Y-87108132D01*
X46799076Y-87106902D01*
X46793379Y-87107881D01*
X46793378Y-87107881D01*
X46605436Y-87140175D01*
X46605435Y-87140175D01*
X46599739Y-87141154D01*
X46409983Y-87211159D01*
X46405022Y-87214111D01*
X46405021Y-87214111D01*
X46324386Y-87262084D01*
X46236161Y-87314572D01*
X46084095Y-87447930D01*
X45958879Y-87606767D01*
X45864704Y-87785763D01*
X45804727Y-87978923D01*
X45780954Y-88179779D01*
X43750000Y-88179779D01*
X43750000Y-85639779D01*
X45780954Y-85639779D01*
X45794182Y-85841604D01*
X45843968Y-86037638D01*
X45928646Y-86221317D01*
X46045378Y-86386490D01*
X46190256Y-86527623D01*
X46358427Y-86639992D01*
X46363730Y-86642270D01*
X46363733Y-86642272D01*
X46452081Y-86680229D01*
X46544260Y-86719832D01*
X46741530Y-86764470D01*
X46747299Y-86764697D01*
X46747302Y-86764697D01*
X46823473Y-86767689D01*
X46943632Y-86772410D01*
X47029922Y-86759899D01*
X47138076Y-86744218D01*
X47138081Y-86744217D01*
X47143797Y-86743388D01*
X47149269Y-86741530D01*
X47149271Y-86741530D01*
X47329857Y-86680229D01*
X47329859Y-86680228D01*
X47335321Y-86678374D01*
X47511791Y-86579547D01*
X47574223Y-86527623D01*
X47662863Y-86453901D01*
X47667295Y-86450215D01*
X47796627Y-86294711D01*
X47895454Y-86118241D01*
X47960468Y-85926717D01*
X47961297Y-85921001D01*
X47961298Y-85920996D01*
X47988957Y-85730226D01*
X47989490Y-85726552D01*
X47991005Y-85668710D01*
X47988347Y-85639779D01*
X48320954Y-85639779D01*
X48334182Y-85841604D01*
X48383968Y-86037638D01*
X48468646Y-86221317D01*
X48585378Y-86386490D01*
X48730256Y-86527623D01*
X48898427Y-86639992D01*
X48903730Y-86642270D01*
X48903733Y-86642272D01*
X48992081Y-86680229D01*
X49084260Y-86719832D01*
X49281530Y-86764470D01*
X49287299Y-86764697D01*
X49287302Y-86764697D01*
X49363473Y-86767689D01*
X49483632Y-86772410D01*
X49569922Y-86759899D01*
X49678076Y-86744218D01*
X49678081Y-86744217D01*
X49683797Y-86743388D01*
X49689269Y-86741530D01*
X49689271Y-86741530D01*
X49869857Y-86680229D01*
X49869859Y-86680228D01*
X49875321Y-86678374D01*
X50051791Y-86579547D01*
X50114223Y-86527623D01*
X50202863Y-86453901D01*
X50207295Y-86450215D01*
X50336627Y-86294711D01*
X50435454Y-86118241D01*
X50500468Y-85926717D01*
X50501297Y-85921001D01*
X50501298Y-85920996D01*
X50528957Y-85730226D01*
X50529490Y-85726552D01*
X50531005Y-85668710D01*
X50512498Y-85467301D01*
X50457597Y-85272636D01*
X50368141Y-85091237D01*
X50349869Y-85066767D01*
X50250578Y-84933801D01*
X50250577Y-84933800D01*
X50247125Y-84929177D01*
X50224140Y-84907930D01*
X50102843Y-84795804D01*
X50102841Y-84795802D01*
X50098602Y-84791884D01*
X50071164Y-84774572D01*
X49932427Y-84687035D01*
X49927547Y-84683956D01*
X49739688Y-84609008D01*
X49541316Y-84569549D01*
X49535542Y-84569473D01*
X49535538Y-84569473D01*
X49433047Y-84568132D01*
X49339076Y-84566902D01*
X49333379Y-84567881D01*
X49333378Y-84567881D01*
X49145436Y-84600175D01*
X49145435Y-84600175D01*
X49139739Y-84601154D01*
X48949983Y-84671159D01*
X48776161Y-84774572D01*
X48624095Y-84907930D01*
X48498879Y-85066767D01*
X48404704Y-85245763D01*
X48344727Y-85438923D01*
X48320954Y-85639779D01*
X47988347Y-85639779D01*
X47972498Y-85467301D01*
X47917597Y-85272636D01*
X47828141Y-85091237D01*
X47809869Y-85066767D01*
X47710578Y-84933801D01*
X47710577Y-84933800D01*
X47707125Y-84929177D01*
X47684140Y-84907930D01*
X47562843Y-84795804D01*
X47562841Y-84795802D01*
X47558602Y-84791884D01*
X47531164Y-84774572D01*
X47392427Y-84687035D01*
X47387547Y-84683956D01*
X47199688Y-84609008D01*
X47001316Y-84569549D01*
X46995542Y-84569473D01*
X46995538Y-84569473D01*
X46893047Y-84568132D01*
X46799076Y-84566902D01*
X46793379Y-84567881D01*
X46793378Y-84567881D01*
X46605436Y-84600175D01*
X46605435Y-84600175D01*
X46599739Y-84601154D01*
X46409983Y-84671159D01*
X46236161Y-84774572D01*
X46084095Y-84907930D01*
X45958879Y-85066767D01*
X45864704Y-85245763D01*
X45804727Y-85438923D01*
X45780954Y-85639779D01*
X43750000Y-85639779D01*
X43750000Y-83099779D01*
X45780954Y-83099779D01*
X45794182Y-83301604D01*
X45843968Y-83497638D01*
X45928646Y-83681317D01*
X46045378Y-83846490D01*
X46190256Y-83987623D01*
X46358427Y-84099992D01*
X46363730Y-84102270D01*
X46363733Y-84102272D01*
X46452081Y-84140229D01*
X46544260Y-84179832D01*
X46741530Y-84224470D01*
X46747299Y-84224697D01*
X46747302Y-84224697D01*
X46823473Y-84227689D01*
X46943632Y-84232410D01*
X47029922Y-84219899D01*
X47138076Y-84204218D01*
X47138081Y-84204217D01*
X47143797Y-84203388D01*
X47149269Y-84201530D01*
X47149271Y-84201530D01*
X47329857Y-84140229D01*
X47329859Y-84140228D01*
X47335321Y-84138374D01*
X47511791Y-84039547D01*
X47574223Y-83987623D01*
X47662863Y-83913901D01*
X47667295Y-83910215D01*
X47796627Y-83754711D01*
X47895454Y-83578241D01*
X47960468Y-83386717D01*
X47961297Y-83381001D01*
X47961298Y-83380996D01*
X47988957Y-83190226D01*
X47989490Y-83186552D01*
X47991005Y-83128710D01*
X47988347Y-83099779D01*
X48320954Y-83099779D01*
X48334182Y-83301604D01*
X48383968Y-83497638D01*
X48468646Y-83681317D01*
X48585378Y-83846490D01*
X48730256Y-83987623D01*
X48898427Y-84099992D01*
X48903730Y-84102270D01*
X48903733Y-84102272D01*
X48992081Y-84140229D01*
X49084260Y-84179832D01*
X49281530Y-84224470D01*
X49287299Y-84224697D01*
X49287302Y-84224697D01*
X49363473Y-84227689D01*
X49483632Y-84232410D01*
X49569922Y-84219899D01*
X49678076Y-84204218D01*
X49678081Y-84204217D01*
X49683797Y-84203388D01*
X49689269Y-84201530D01*
X49689271Y-84201530D01*
X49869857Y-84140229D01*
X49869859Y-84140228D01*
X49875321Y-84138374D01*
X50051791Y-84039547D01*
X50114223Y-83987623D01*
X50202863Y-83913901D01*
X50207295Y-83910215D01*
X50336627Y-83754711D01*
X50435454Y-83578241D01*
X50500468Y-83386717D01*
X50501297Y-83381001D01*
X50501298Y-83380996D01*
X50528957Y-83190226D01*
X50529490Y-83186552D01*
X50531005Y-83128710D01*
X50512498Y-82927301D01*
X50457597Y-82732636D01*
X50368141Y-82551237D01*
X50349869Y-82526767D01*
X50250578Y-82393801D01*
X50250577Y-82393800D01*
X50247125Y-82389177D01*
X50224140Y-82367930D01*
X50102843Y-82255804D01*
X50102841Y-82255802D01*
X50098602Y-82251884D01*
X50071164Y-82234572D01*
X49932427Y-82147035D01*
X49927547Y-82143956D01*
X49739688Y-82069008D01*
X49541316Y-82029549D01*
X49535542Y-82029473D01*
X49535538Y-82029473D01*
X49433047Y-82028132D01*
X49339076Y-82026902D01*
X49333379Y-82027881D01*
X49333378Y-82027881D01*
X49145436Y-82060175D01*
X49145435Y-82060175D01*
X49139739Y-82061154D01*
X48949983Y-82131159D01*
X48776161Y-82234572D01*
X48624095Y-82367930D01*
X48498879Y-82526767D01*
X48404704Y-82705763D01*
X48344727Y-82898923D01*
X48320954Y-83099779D01*
X47988347Y-83099779D01*
X47972498Y-82927301D01*
X47917597Y-82732636D01*
X47828141Y-82551237D01*
X47809869Y-82526767D01*
X47710578Y-82393801D01*
X47710577Y-82393800D01*
X47707125Y-82389177D01*
X47684140Y-82367930D01*
X47562843Y-82255804D01*
X47562841Y-82255802D01*
X47558602Y-82251884D01*
X47531164Y-82234572D01*
X47392427Y-82147035D01*
X47387547Y-82143956D01*
X47199688Y-82069008D01*
X47001316Y-82029549D01*
X46995542Y-82029473D01*
X46995538Y-82029473D01*
X46893047Y-82028132D01*
X46799076Y-82026902D01*
X46793379Y-82027881D01*
X46793378Y-82027881D01*
X46605436Y-82060175D01*
X46605435Y-82060175D01*
X46599739Y-82061154D01*
X46409983Y-82131159D01*
X46236161Y-82234572D01*
X46084095Y-82367930D01*
X45958879Y-82526767D01*
X45864704Y-82705763D01*
X45804727Y-82898923D01*
X45780954Y-83099779D01*
X43750000Y-83099779D01*
X43750000Y-80559779D01*
X45780954Y-80559779D01*
X45794182Y-80761604D01*
X45843968Y-80957638D01*
X45928646Y-81141317D01*
X46045378Y-81306490D01*
X46190256Y-81447623D01*
X46358427Y-81559992D01*
X46363730Y-81562270D01*
X46363733Y-81562272D01*
X46452081Y-81600229D01*
X46544260Y-81639832D01*
X46741530Y-81684470D01*
X46747299Y-81684697D01*
X46747302Y-81684697D01*
X46823473Y-81687689D01*
X46943632Y-81692410D01*
X47029922Y-81679899D01*
X47138076Y-81664218D01*
X47138081Y-81664217D01*
X47143797Y-81663388D01*
X47149269Y-81661530D01*
X47149271Y-81661530D01*
X47329857Y-81600229D01*
X47329859Y-81600228D01*
X47335321Y-81598374D01*
X47511791Y-81499547D01*
X47574223Y-81447623D01*
X47662863Y-81373901D01*
X47667295Y-81370215D01*
X47796627Y-81214711D01*
X47895454Y-81038241D01*
X47960468Y-80846717D01*
X47961297Y-80841001D01*
X47961298Y-80840996D01*
X47988957Y-80650226D01*
X47989490Y-80646552D01*
X47991005Y-80588710D01*
X47988347Y-80559779D01*
X48320954Y-80559779D01*
X48334182Y-80761604D01*
X48383968Y-80957638D01*
X48468646Y-81141317D01*
X48585378Y-81306490D01*
X48730256Y-81447623D01*
X48898427Y-81559992D01*
X48903730Y-81562270D01*
X48903733Y-81562272D01*
X48992081Y-81600229D01*
X49084260Y-81639832D01*
X49281530Y-81684470D01*
X49287299Y-81684697D01*
X49287302Y-81684697D01*
X49363473Y-81687689D01*
X49483632Y-81692410D01*
X49569922Y-81679899D01*
X49678076Y-81664218D01*
X49678081Y-81664217D01*
X49683797Y-81663388D01*
X49689269Y-81661530D01*
X49689271Y-81661530D01*
X49869857Y-81600229D01*
X49869859Y-81600228D01*
X49875321Y-81598374D01*
X50051791Y-81499547D01*
X50114223Y-81447623D01*
X50202863Y-81373901D01*
X50207295Y-81370215D01*
X50336627Y-81214711D01*
X50435454Y-81038241D01*
X50500468Y-80846717D01*
X50501297Y-80841001D01*
X50501298Y-80840996D01*
X50528957Y-80650226D01*
X50529490Y-80646552D01*
X50531005Y-80588710D01*
X50512498Y-80387301D01*
X50457597Y-80192636D01*
X50368141Y-80011237D01*
X50349869Y-79986767D01*
X50250578Y-79853801D01*
X50250577Y-79853800D01*
X50247125Y-79849177D01*
X50224140Y-79827930D01*
X50102843Y-79715804D01*
X50102841Y-79715802D01*
X50098602Y-79711884D01*
X50071164Y-79694572D01*
X49932427Y-79607035D01*
X49927547Y-79603956D01*
X49739688Y-79529008D01*
X49541316Y-79489549D01*
X49535542Y-79489473D01*
X49535538Y-79489473D01*
X49433047Y-79488132D01*
X49339076Y-79486902D01*
X49333379Y-79487881D01*
X49333378Y-79487881D01*
X49145436Y-79520175D01*
X49145435Y-79520175D01*
X49139739Y-79521154D01*
X48949983Y-79591159D01*
X48776161Y-79694572D01*
X48624095Y-79827930D01*
X48498879Y-79986767D01*
X48404704Y-80165763D01*
X48344727Y-80358923D01*
X48320954Y-80559779D01*
X47988347Y-80559779D01*
X47972498Y-80387301D01*
X47917597Y-80192636D01*
X47828141Y-80011237D01*
X47809869Y-79986767D01*
X47710578Y-79853801D01*
X47710577Y-79853800D01*
X47707125Y-79849177D01*
X47684140Y-79827930D01*
X47562843Y-79715804D01*
X47562841Y-79715802D01*
X47558602Y-79711884D01*
X47531164Y-79694572D01*
X47392427Y-79607035D01*
X47387547Y-79603956D01*
X47199688Y-79529008D01*
X47001316Y-79489549D01*
X46995542Y-79489473D01*
X46995538Y-79489473D01*
X46893047Y-79488132D01*
X46799076Y-79486902D01*
X46793379Y-79487881D01*
X46793378Y-79487881D01*
X46605436Y-79520175D01*
X46605435Y-79520175D01*
X46599739Y-79521154D01*
X46409983Y-79591159D01*
X46236161Y-79694572D01*
X46084095Y-79827930D01*
X45958879Y-79986767D01*
X45864704Y-80165763D01*
X45804727Y-80358923D01*
X45780954Y-80559779D01*
X43750000Y-80559779D01*
X43750000Y-78019779D01*
X45780954Y-78019779D01*
X45794182Y-78221604D01*
X45843968Y-78417638D01*
X45928646Y-78601317D01*
X46045378Y-78766490D01*
X46190256Y-78907623D01*
X46358427Y-79019992D01*
X46363730Y-79022270D01*
X46363733Y-79022272D01*
X46452081Y-79060229D01*
X46544260Y-79099832D01*
X46741530Y-79144470D01*
X46747299Y-79144697D01*
X46747302Y-79144697D01*
X46823473Y-79147689D01*
X46943632Y-79152410D01*
X47029922Y-79139899D01*
X47138076Y-79124218D01*
X47138081Y-79124217D01*
X47143797Y-79123388D01*
X47149269Y-79121530D01*
X47149271Y-79121530D01*
X47329857Y-79060229D01*
X47329859Y-79060228D01*
X47335321Y-79058374D01*
X47511791Y-78959547D01*
X47574223Y-78907623D01*
X47662863Y-78833901D01*
X47667295Y-78830215D01*
X47796627Y-78674711D01*
X47895454Y-78498241D01*
X47960468Y-78306717D01*
X47961297Y-78301001D01*
X47961298Y-78300996D01*
X47988957Y-78110226D01*
X47989490Y-78106552D01*
X47991005Y-78048710D01*
X47988347Y-78019779D01*
X48320954Y-78019779D01*
X48334182Y-78221604D01*
X48383968Y-78417638D01*
X48468646Y-78601317D01*
X48585378Y-78766490D01*
X48730256Y-78907623D01*
X48898427Y-79019992D01*
X48903730Y-79022270D01*
X48903733Y-79022272D01*
X48992081Y-79060229D01*
X49084260Y-79099832D01*
X49281530Y-79144470D01*
X49287299Y-79144697D01*
X49287302Y-79144697D01*
X49363473Y-79147689D01*
X49483632Y-79152410D01*
X49569922Y-79139899D01*
X49678076Y-79124218D01*
X49678081Y-79124217D01*
X49683797Y-79123388D01*
X49689269Y-79121530D01*
X49689271Y-79121530D01*
X49869857Y-79060229D01*
X49869859Y-79060228D01*
X49875321Y-79058374D01*
X50051791Y-78959547D01*
X50114223Y-78907623D01*
X50202863Y-78833901D01*
X50207295Y-78830215D01*
X50336627Y-78674711D01*
X50435454Y-78498241D01*
X50500468Y-78306717D01*
X50501297Y-78301001D01*
X50501298Y-78300996D01*
X50528957Y-78110226D01*
X50529490Y-78106552D01*
X50531005Y-78048710D01*
X50512498Y-77847301D01*
X50457597Y-77652636D01*
X50368141Y-77471237D01*
X50349869Y-77446767D01*
X50250578Y-77313801D01*
X50250577Y-77313800D01*
X50247125Y-77309177D01*
X50224140Y-77287930D01*
X50102843Y-77175804D01*
X50102841Y-77175802D01*
X50098602Y-77171884D01*
X50071164Y-77154572D01*
X49932427Y-77067035D01*
X49927547Y-77063956D01*
X49739688Y-76989008D01*
X49541316Y-76949549D01*
X49535542Y-76949473D01*
X49535538Y-76949473D01*
X49433047Y-76948132D01*
X49339076Y-76946902D01*
X49333379Y-76947881D01*
X49333378Y-76947881D01*
X49145436Y-76980175D01*
X49145435Y-76980175D01*
X49139739Y-76981154D01*
X48949983Y-77051159D01*
X48776161Y-77154572D01*
X48624095Y-77287930D01*
X48498879Y-77446767D01*
X48404704Y-77625763D01*
X48344727Y-77818923D01*
X48320954Y-78019779D01*
X47988347Y-78019779D01*
X47972498Y-77847301D01*
X47917597Y-77652636D01*
X47828141Y-77471237D01*
X47809869Y-77446767D01*
X47710578Y-77313801D01*
X47710577Y-77313800D01*
X47707125Y-77309177D01*
X47684140Y-77287930D01*
X47562843Y-77175804D01*
X47562841Y-77175802D01*
X47558602Y-77171884D01*
X47531164Y-77154572D01*
X47392427Y-77067035D01*
X47387547Y-77063956D01*
X47199688Y-76989008D01*
X47001316Y-76949549D01*
X46995542Y-76949473D01*
X46995538Y-76949473D01*
X46893047Y-76948132D01*
X46799076Y-76946902D01*
X46793379Y-76947881D01*
X46793378Y-76947881D01*
X46605436Y-76980175D01*
X46605435Y-76980175D01*
X46599739Y-76981154D01*
X46409983Y-77051159D01*
X46236161Y-77154572D01*
X46084095Y-77287930D01*
X45958879Y-77446767D01*
X45864704Y-77625763D01*
X45804727Y-77818923D01*
X45780954Y-78019779D01*
X43750000Y-78019779D01*
X43750000Y-75479779D01*
X45780954Y-75479779D01*
X45794182Y-75681604D01*
X45843968Y-75877638D01*
X45928646Y-76061317D01*
X46045378Y-76226490D01*
X46190256Y-76367623D01*
X46358427Y-76479992D01*
X46363730Y-76482270D01*
X46363733Y-76482272D01*
X46452081Y-76520229D01*
X46544260Y-76559832D01*
X46741530Y-76604470D01*
X46747299Y-76604697D01*
X46747302Y-76604697D01*
X46823473Y-76607689D01*
X46943632Y-76612410D01*
X47029922Y-76599899D01*
X47138076Y-76584218D01*
X47138081Y-76584217D01*
X47143797Y-76583388D01*
X47149269Y-76581530D01*
X47149271Y-76581530D01*
X47329857Y-76520229D01*
X47329859Y-76520228D01*
X47335321Y-76518374D01*
X47511791Y-76419547D01*
X47574223Y-76367623D01*
X47662863Y-76293901D01*
X47667295Y-76290215D01*
X47796627Y-76134711D01*
X47895454Y-75958241D01*
X47960468Y-75766717D01*
X47961297Y-75761001D01*
X47961298Y-75760996D01*
X47988957Y-75570226D01*
X47989490Y-75566552D01*
X47991005Y-75508710D01*
X47988347Y-75479779D01*
X48320954Y-75479779D01*
X48334182Y-75681604D01*
X48383968Y-75877638D01*
X48468646Y-76061317D01*
X48585378Y-76226490D01*
X48730256Y-76367623D01*
X48898427Y-76479992D01*
X48903730Y-76482270D01*
X48903733Y-76482272D01*
X48992081Y-76520229D01*
X49084260Y-76559832D01*
X49281530Y-76604470D01*
X49287299Y-76604697D01*
X49287302Y-76604697D01*
X49363473Y-76607689D01*
X49483632Y-76612410D01*
X49569922Y-76599899D01*
X49678076Y-76584218D01*
X49678081Y-76584217D01*
X49683797Y-76583388D01*
X49689269Y-76581530D01*
X49689271Y-76581530D01*
X49869857Y-76520229D01*
X49869859Y-76520228D01*
X49875321Y-76518374D01*
X50051791Y-76419547D01*
X50114223Y-76367623D01*
X50202863Y-76293901D01*
X50207295Y-76290215D01*
X50336627Y-76134711D01*
X50435454Y-75958241D01*
X50500468Y-75766717D01*
X50501297Y-75761001D01*
X50501298Y-75760996D01*
X50528957Y-75570226D01*
X50529490Y-75566552D01*
X50531005Y-75508710D01*
X50512498Y-75307301D01*
X50457597Y-75112636D01*
X50368141Y-74931237D01*
X50349869Y-74906767D01*
X50250578Y-74773801D01*
X50250577Y-74773800D01*
X50247125Y-74769177D01*
X50224140Y-74747930D01*
X50102843Y-74635804D01*
X50102841Y-74635802D01*
X50098602Y-74631884D01*
X50071164Y-74614572D01*
X49932427Y-74527035D01*
X49927547Y-74523956D01*
X49739688Y-74449008D01*
X49541316Y-74409549D01*
X49535542Y-74409473D01*
X49535538Y-74409473D01*
X49433047Y-74408132D01*
X49339076Y-74406902D01*
X49333379Y-74407881D01*
X49333378Y-74407881D01*
X49145436Y-74440175D01*
X49145435Y-74440175D01*
X49139739Y-74441154D01*
X48949983Y-74511159D01*
X48776161Y-74614572D01*
X48624095Y-74747930D01*
X48498879Y-74906767D01*
X48404704Y-75085763D01*
X48344727Y-75278923D01*
X48320954Y-75479779D01*
X47988347Y-75479779D01*
X47972498Y-75307301D01*
X47917597Y-75112636D01*
X47828141Y-74931237D01*
X47809869Y-74906767D01*
X47710578Y-74773801D01*
X47710577Y-74773800D01*
X47707125Y-74769177D01*
X47684140Y-74747930D01*
X47562843Y-74635804D01*
X47562841Y-74635802D01*
X47558602Y-74631884D01*
X47531164Y-74614572D01*
X47392427Y-74527035D01*
X47387547Y-74523956D01*
X47199688Y-74449008D01*
X47001316Y-74409549D01*
X46995542Y-74409473D01*
X46995538Y-74409473D01*
X46893047Y-74408132D01*
X46799076Y-74406902D01*
X46793379Y-74407881D01*
X46793378Y-74407881D01*
X46605436Y-74440175D01*
X46605435Y-74440175D01*
X46599739Y-74441154D01*
X46409983Y-74511159D01*
X46236161Y-74614572D01*
X46084095Y-74747930D01*
X45958879Y-74906767D01*
X45864704Y-75085763D01*
X45804727Y-75278923D01*
X45780954Y-75479779D01*
X43750000Y-75479779D01*
X43750000Y-70162893D01*
X45550179Y-70162893D01*
X45551702Y-70171317D01*
X45564082Y-70174710D01*
X47013790Y-70174710D01*
X47081911Y-70194712D01*
X47128404Y-70248368D01*
X47139790Y-70300710D01*
X47139790Y-70556710D01*
X47119788Y-70624831D01*
X47066132Y-70671324D01*
X47013790Y-70682710D01*
X45569015Y-70682710D01*
X45555484Y-70686683D01*
X45554047Y-70696676D01*
X45584355Y-70831156D01*
X45587435Y-70840985D01*
X45667560Y-71038313D01*
X45672203Y-71047504D01*
X45783484Y-71229098D01*
X45789567Y-71237409D01*
X45929003Y-71398377D01*
X45936370Y-71405593D01*
X46100224Y-71541626D01*
X46108671Y-71547541D01*
X46292546Y-71654989D01*
X46301832Y-71659439D01*
X46456592Y-71718535D01*
X46513095Y-71761522D01*
X46537388Y-71828233D01*
X46521758Y-71897488D01*
X46471167Y-71947298D01*
X46455255Y-71954457D01*
X46415399Y-71969161D01*
X46409983Y-71971159D01*
X46405022Y-71974111D01*
X46405021Y-71974111D01*
X46263482Y-72058318D01*
X46236161Y-72074572D01*
X46084095Y-72207930D01*
X45958879Y-72366767D01*
X45864704Y-72545763D01*
X45804727Y-72738923D01*
X45780954Y-72939779D01*
X45794182Y-73141604D01*
X45843968Y-73337638D01*
X45928646Y-73521317D01*
X46045378Y-73686490D01*
X46190256Y-73827623D01*
X46358427Y-73939992D01*
X46363730Y-73942270D01*
X46363733Y-73942272D01*
X46452081Y-73980229D01*
X46544260Y-74019832D01*
X46741530Y-74064470D01*
X46747299Y-74064697D01*
X46747302Y-74064697D01*
X46823473Y-74067689D01*
X46943632Y-74072410D01*
X47029922Y-74059899D01*
X47138076Y-74044218D01*
X47138081Y-74044217D01*
X47143797Y-74043388D01*
X47149269Y-74041530D01*
X47149271Y-74041530D01*
X47329857Y-73980229D01*
X47329859Y-73980228D01*
X47335321Y-73978374D01*
X47511791Y-73879547D01*
X47574223Y-73827623D01*
X47662863Y-73753901D01*
X47667295Y-73750215D01*
X47796627Y-73594711D01*
X47895454Y-73418241D01*
X47960468Y-73226717D01*
X47961297Y-73221001D01*
X47961298Y-73220996D01*
X47988957Y-73030226D01*
X47989490Y-73026552D01*
X47991005Y-72968710D01*
X47988347Y-72939779D01*
X48320954Y-72939779D01*
X48334182Y-73141604D01*
X48383968Y-73337638D01*
X48468646Y-73521317D01*
X48585378Y-73686490D01*
X48730256Y-73827623D01*
X48898427Y-73939992D01*
X48903730Y-73942270D01*
X48903733Y-73942272D01*
X48992081Y-73980229D01*
X49084260Y-74019832D01*
X49281530Y-74064470D01*
X49287299Y-74064697D01*
X49287302Y-74064697D01*
X49363473Y-74067689D01*
X49483632Y-74072410D01*
X49569922Y-74059899D01*
X49678076Y-74044218D01*
X49678081Y-74044217D01*
X49683797Y-74043388D01*
X49689269Y-74041530D01*
X49689271Y-74041530D01*
X49869857Y-73980229D01*
X49869859Y-73980228D01*
X49875321Y-73978374D01*
X50051791Y-73879547D01*
X50114223Y-73827623D01*
X50202863Y-73753901D01*
X50207295Y-73750215D01*
X50336627Y-73594711D01*
X50435454Y-73418241D01*
X50500468Y-73226717D01*
X50501297Y-73221001D01*
X50501298Y-73220996D01*
X50528957Y-73030226D01*
X50529490Y-73026552D01*
X50531005Y-72968710D01*
X50512498Y-72767301D01*
X50457597Y-72572636D01*
X50368141Y-72391237D01*
X50349869Y-72366767D01*
X50250578Y-72233801D01*
X50250577Y-72233800D01*
X50247125Y-72229177D01*
X50229054Y-72212472D01*
X50102843Y-72095804D01*
X50102841Y-72095802D01*
X50098602Y-72091884D01*
X50071164Y-72074572D01*
X49932427Y-71987035D01*
X49927547Y-71983956D01*
X49739688Y-71909008D01*
X49541316Y-71869549D01*
X49535542Y-71869473D01*
X49535538Y-71869473D01*
X49433047Y-71868132D01*
X49339076Y-71866902D01*
X49333379Y-71867881D01*
X49333378Y-71867881D01*
X49145436Y-71900175D01*
X49145435Y-71900175D01*
X49139739Y-71901154D01*
X48949983Y-71971159D01*
X48945022Y-71974111D01*
X48945021Y-71974111D01*
X48803482Y-72058318D01*
X48776161Y-72074572D01*
X48624095Y-72207930D01*
X48498879Y-72366767D01*
X48404704Y-72545763D01*
X48344727Y-72738923D01*
X48320954Y-72939779D01*
X47988347Y-72939779D01*
X47972498Y-72767301D01*
X47917597Y-72572636D01*
X47828141Y-72391237D01*
X47809869Y-72366767D01*
X47710578Y-72233801D01*
X47710577Y-72233800D01*
X47707125Y-72229177D01*
X47689054Y-72212472D01*
X47562843Y-72095804D01*
X47562841Y-72095802D01*
X47558602Y-72091884D01*
X47531164Y-72074572D01*
X47392427Y-71987035D01*
X47387547Y-71983956D01*
X47311243Y-71953514D01*
X47255384Y-71909693D01*
X47232083Y-71842629D01*
X47248739Y-71773614D01*
X47300063Y-71724560D01*
X47321725Y-71715799D01*
X47378034Y-71698905D01*
X47387632Y-71695143D01*
X47578885Y-71601449D01*
X47587735Y-71596174D01*
X47761118Y-71472502D01*
X47768990Y-71465849D01*
X47919842Y-71315522D01*
X47926520Y-71307675D01*
X48050793Y-71134730D01*
X48056103Y-71125893D01*
X48150460Y-70934977D01*
X48154259Y-70925382D01*
X48172605Y-70864999D01*
X48211546Y-70805635D01*
X48276400Y-70776748D01*
X48346576Y-70787509D01*
X48399794Y-70834503D01*
X48407589Y-70848876D01*
X48468646Y-70981317D01*
X48471979Y-70986033D01*
X48581326Y-71140756D01*
X48585378Y-71146490D01*
X48730256Y-71287623D01*
X48735060Y-71290833D01*
X48784906Y-71324139D01*
X48898427Y-71399992D01*
X48903730Y-71402270D01*
X48903733Y-71402272D01*
X49055403Y-71467434D01*
X49084260Y-71479832D01*
X49281530Y-71524470D01*
X49287299Y-71524697D01*
X49287302Y-71524697D01*
X49363473Y-71527689D01*
X49483632Y-71532410D01*
X49569922Y-71519899D01*
X49678076Y-71504218D01*
X49678081Y-71504217D01*
X49683797Y-71503388D01*
X49689269Y-71501530D01*
X49689271Y-71501530D01*
X49869857Y-71440229D01*
X49869859Y-71440228D01*
X49875321Y-71438374D01*
X50051791Y-71339547D01*
X50056228Y-71335857D01*
X50056235Y-71335852D01*
X50126607Y-71277324D01*
X50191771Y-71249143D01*
X50261826Y-71260667D01*
X50314530Y-71308235D01*
X50333150Y-71376747D01*
X50323585Y-71422416D01*
X50301777Y-71475065D01*
X50281379Y-71630000D01*
X50301777Y-71784935D01*
X50361579Y-71929310D01*
X50456711Y-72053289D01*
X50463261Y-72058315D01*
X50463264Y-72058318D01*
X50507009Y-72091884D01*
X50580689Y-72148421D01*
X50725065Y-72208223D01*
X50880000Y-72228621D01*
X51034935Y-72208223D01*
X51179311Y-72148421D01*
X51252991Y-72091884D01*
X51296736Y-72058318D01*
X51296739Y-72058315D01*
X51303289Y-72053289D01*
X51398421Y-71929310D01*
X51458223Y-71784935D01*
X51478621Y-71630000D01*
X51458223Y-71475065D01*
X51398421Y-71330690D01*
X51311537Y-71217460D01*
X51285937Y-71151239D01*
X51285500Y-71140756D01*
X51285500Y-70781744D01*
X51305502Y-70713623D01*
X51322407Y-70692646D01*
X51326736Y-70688317D01*
X51333289Y-70683289D01*
X51428421Y-70559310D01*
X51488223Y-70414935D01*
X51508621Y-70260000D01*
X51488223Y-70105065D01*
X51428421Y-69960690D01*
X51333289Y-69836711D01*
X51326739Y-69831685D01*
X51326736Y-69831682D01*
X51259967Y-69780449D01*
X51209311Y-69741579D01*
X51064935Y-69681777D01*
X50910000Y-69661379D01*
X50755065Y-69681777D01*
X50610690Y-69741579D01*
X50548207Y-69789524D01*
X50505716Y-69822128D01*
X50439495Y-69847728D01*
X50369947Y-69833463D01*
X50328054Y-69797554D01*
X50250578Y-69693801D01*
X50250577Y-69693800D01*
X50247125Y-69689177D01*
X50242889Y-69685261D01*
X50102843Y-69555804D01*
X50102841Y-69555802D01*
X50098602Y-69551884D01*
X50071164Y-69534572D01*
X49932427Y-69447035D01*
X49927547Y-69443956D01*
X49739688Y-69369008D01*
X49541316Y-69329549D01*
X49535542Y-69329473D01*
X49535538Y-69329473D01*
X49433047Y-69328132D01*
X49339076Y-69326902D01*
X49333379Y-69327881D01*
X49333378Y-69327881D01*
X49145436Y-69360175D01*
X49145435Y-69360175D01*
X49139739Y-69361154D01*
X48949983Y-69431159D01*
X48776161Y-69534572D01*
X48624095Y-69667930D01*
X48498879Y-69826767D01*
X48496190Y-69831878D01*
X48496188Y-69831881D01*
X48405155Y-70004906D01*
X48355736Y-70055879D01*
X48286604Y-70072042D01*
X48219707Y-70048263D01*
X48176227Y-69989364D01*
X48175745Y-69989573D01*
X48174833Y-69987476D01*
X48174371Y-69986850D01*
X48173685Y-69984836D01*
X48088762Y-69789524D01*
X48083895Y-69780449D01*
X47968216Y-69601636D01*
X47961926Y-69593467D01*
X47818596Y-69435950D01*
X47811063Y-69428925D01*
X47643929Y-69296932D01*
X47635342Y-69291227D01*
X47448907Y-69188309D01*
X47439495Y-69184079D01*
X47319090Y-69141441D01*
X47261554Y-69099847D01*
X47235638Y-69033749D01*
X47249572Y-68964133D01*
X47298931Y-68913102D01*
X47320645Y-68903356D01*
X47324687Y-68901984D01*
X47329860Y-68900228D01*
X47329862Y-68900227D01*
X47335321Y-68898374D01*
X47511791Y-68799547D01*
X47574223Y-68747623D01*
X47662863Y-68673901D01*
X47667295Y-68670215D01*
X47796627Y-68514711D01*
X47895454Y-68338241D01*
X47917468Y-68273392D01*
X47958610Y-68152191D01*
X47958610Y-68152189D01*
X47960468Y-68146717D01*
X47961297Y-68141001D01*
X47961298Y-68140996D01*
X47988957Y-67950226D01*
X47989490Y-67946552D01*
X47991005Y-67888710D01*
X47988347Y-67859779D01*
X48320954Y-67859779D01*
X48334182Y-68061604D01*
X48383968Y-68257638D01*
X48468646Y-68441317D01*
X48585378Y-68606490D01*
X48730256Y-68747623D01*
X48898427Y-68859992D01*
X48903730Y-68862270D01*
X48903733Y-68862272D01*
X49022044Y-68913102D01*
X49084260Y-68939832D01*
X49281530Y-68984470D01*
X49287299Y-68984697D01*
X49287302Y-68984697D01*
X49363473Y-68987689D01*
X49483632Y-68992410D01*
X49569922Y-68979899D01*
X49678076Y-68964218D01*
X49678081Y-68964217D01*
X49683797Y-68963388D01*
X49689269Y-68961530D01*
X49689271Y-68961530D01*
X49869857Y-68900229D01*
X49869859Y-68900228D01*
X49875321Y-68898374D01*
X50051791Y-68799547D01*
X50114223Y-68747623D01*
X50202863Y-68673901D01*
X50207295Y-68670215D01*
X50336627Y-68514711D01*
X50435454Y-68338241D01*
X50457468Y-68273392D01*
X50498610Y-68152191D01*
X50498610Y-68152189D01*
X50500468Y-68146717D01*
X50501297Y-68141001D01*
X50501298Y-68140996D01*
X50528957Y-67950226D01*
X50529490Y-67946552D01*
X50531005Y-67888710D01*
X50512498Y-67687301D01*
X50457597Y-67492636D01*
X50368141Y-67311237D01*
X50349869Y-67286767D01*
X50250578Y-67153801D01*
X50250577Y-67153800D01*
X50247125Y-67149177D01*
X50224140Y-67127930D01*
X50102843Y-67015804D01*
X50102841Y-67015802D01*
X50098602Y-67011884D01*
X50071164Y-66994572D01*
X49932427Y-66907035D01*
X49927547Y-66903956D01*
X49739688Y-66829008D01*
X49541316Y-66789549D01*
X49535542Y-66789473D01*
X49535538Y-66789473D01*
X49433047Y-66788132D01*
X49339076Y-66786902D01*
X49333379Y-66787881D01*
X49333378Y-66787881D01*
X49145436Y-66820175D01*
X49145435Y-66820175D01*
X49139739Y-66821154D01*
X48949983Y-66891159D01*
X48945022Y-66894111D01*
X48945021Y-66894111D01*
X48806183Y-66976711D01*
X48776161Y-66994572D01*
X48624095Y-67127930D01*
X48498879Y-67286767D01*
X48404704Y-67465763D01*
X48344727Y-67658923D01*
X48320954Y-67859779D01*
X47988347Y-67859779D01*
X47972498Y-67687301D01*
X47917597Y-67492636D01*
X47828141Y-67311237D01*
X47809869Y-67286767D01*
X47710578Y-67153801D01*
X47710577Y-67153800D01*
X47707125Y-67149177D01*
X47684140Y-67127930D01*
X47562843Y-67015804D01*
X47562841Y-67015802D01*
X47558602Y-67011884D01*
X47531164Y-66994572D01*
X47392427Y-66907035D01*
X47387547Y-66903956D01*
X47199688Y-66829008D01*
X47001316Y-66789549D01*
X46995542Y-66789473D01*
X46995538Y-66789473D01*
X46893047Y-66788132D01*
X46799076Y-66786902D01*
X46793379Y-66787881D01*
X46793378Y-66787881D01*
X46605436Y-66820175D01*
X46605435Y-66820175D01*
X46599739Y-66821154D01*
X46409983Y-66891159D01*
X46405022Y-66894111D01*
X46405021Y-66894111D01*
X46266183Y-66976711D01*
X46236161Y-66994572D01*
X46084095Y-67127930D01*
X45958879Y-67286767D01*
X45864704Y-67465763D01*
X45804727Y-67658923D01*
X45780954Y-67859779D01*
X45794182Y-68061604D01*
X45843968Y-68257638D01*
X45928646Y-68441317D01*
X46045378Y-68606490D01*
X46190256Y-68747623D01*
X46358427Y-68859992D01*
X46363730Y-68862270D01*
X46363733Y-68862272D01*
X46464499Y-68905564D01*
X46519192Y-68950832D01*
X46540729Y-69018483D01*
X46522272Y-69087039D01*
X46469681Y-69134733D01*
X46453906Y-69141097D01*
X46362658Y-69170922D01*
X46353149Y-69174919D01*
X46164253Y-69273252D01*
X46155528Y-69278746D01*
X45985223Y-69406615D01*
X45977516Y-69413458D01*
X45830380Y-69567427D01*
X45823894Y-69575437D01*
X45703888Y-69751359D01*
X45698790Y-69760333D01*
X45609128Y-69953493D01*
X45605565Y-69963180D01*
X45550179Y-70162893D01*
X43750000Y-70162893D01*
X43750000Y-65319779D01*
X45780954Y-65319779D01*
X45794182Y-65521604D01*
X45803347Y-65557690D01*
X45841602Y-65708320D01*
X45843968Y-65717638D01*
X45928646Y-65901317D01*
X45931979Y-65906033D01*
X46019590Y-66030000D01*
X46045378Y-66066490D01*
X46190256Y-66207623D01*
X46358427Y-66319992D01*
X46363730Y-66322270D01*
X46363733Y-66322272D01*
X46538953Y-66397552D01*
X46544260Y-66399832D01*
X46741530Y-66444470D01*
X46747299Y-66444697D01*
X46747302Y-66444697D01*
X46823473Y-66447689D01*
X46943632Y-66452410D01*
X47029922Y-66439899D01*
X47138076Y-66424218D01*
X47138081Y-66424217D01*
X47143797Y-66423388D01*
X47149269Y-66421530D01*
X47149271Y-66421530D01*
X47329857Y-66360229D01*
X47329859Y-66360228D01*
X47335321Y-66358374D01*
X47511791Y-66259547D01*
X47574223Y-66207623D01*
X47662863Y-66133901D01*
X47667295Y-66130215D01*
X47796627Y-65974711D01*
X47895454Y-65798241D01*
X47960468Y-65606717D01*
X47961297Y-65601001D01*
X47961298Y-65600996D01*
X47986824Y-65424938D01*
X47989490Y-65406552D01*
X47991005Y-65348710D01*
X47988347Y-65319779D01*
X48320954Y-65319779D01*
X48334182Y-65521604D01*
X48343347Y-65557690D01*
X48381602Y-65708320D01*
X48383968Y-65717638D01*
X48468646Y-65901317D01*
X48471979Y-65906033D01*
X48559590Y-66030000D01*
X48585378Y-66066490D01*
X48730256Y-66207623D01*
X48898427Y-66319992D01*
X48903730Y-66322270D01*
X48903733Y-66322272D01*
X49078953Y-66397552D01*
X49084260Y-66399832D01*
X49281530Y-66444470D01*
X49287299Y-66444697D01*
X49287302Y-66444697D01*
X49363473Y-66447689D01*
X49483632Y-66452410D01*
X49569922Y-66439899D01*
X49678076Y-66424218D01*
X49678081Y-66424217D01*
X49683797Y-66423388D01*
X49689269Y-66421530D01*
X49689271Y-66421530D01*
X49869857Y-66360229D01*
X49869859Y-66360228D01*
X49875321Y-66358374D01*
X50051791Y-66259547D01*
X50114223Y-66207623D01*
X50202863Y-66133901D01*
X50207295Y-66130215D01*
X50336627Y-65974711D01*
X50435454Y-65798241D01*
X50500468Y-65606717D01*
X50501297Y-65601001D01*
X50501298Y-65600996D01*
X50526824Y-65424938D01*
X50529490Y-65406552D01*
X50531005Y-65348710D01*
X50512498Y-65147301D01*
X50457597Y-64952636D01*
X50383666Y-64802719D01*
X50370696Y-64776418D01*
X50368141Y-64771237D01*
X50349869Y-64746767D01*
X50250578Y-64613801D01*
X50250577Y-64613800D01*
X50247125Y-64609177D01*
X50224140Y-64587930D01*
X50102843Y-64475804D01*
X50102841Y-64475802D01*
X50098602Y-64471884D01*
X50071164Y-64454572D01*
X49932427Y-64367035D01*
X49927547Y-64363956D01*
X49739688Y-64289008D01*
X49541316Y-64249549D01*
X49535542Y-64249473D01*
X49535538Y-64249473D01*
X49433047Y-64248132D01*
X49339076Y-64246902D01*
X49333379Y-64247881D01*
X49333378Y-64247881D01*
X49145436Y-64280175D01*
X49145435Y-64280175D01*
X49139739Y-64281154D01*
X48949983Y-64351159D01*
X48945022Y-64354111D01*
X48945021Y-64354111D01*
X48876189Y-64395062D01*
X48776161Y-64454572D01*
X48624095Y-64587930D01*
X48498879Y-64746767D01*
X48404704Y-64925763D01*
X48344727Y-65118923D01*
X48320954Y-65319779D01*
X47988347Y-65319779D01*
X47972498Y-65147301D01*
X47917597Y-64952636D01*
X47843666Y-64802719D01*
X47830696Y-64776418D01*
X47828141Y-64771237D01*
X47809869Y-64746767D01*
X47710578Y-64613801D01*
X47710577Y-64613800D01*
X47707125Y-64609177D01*
X47684140Y-64587930D01*
X47562843Y-64475804D01*
X47562841Y-64475802D01*
X47558602Y-64471884D01*
X47531164Y-64454572D01*
X47392427Y-64367035D01*
X47387547Y-64363956D01*
X47199688Y-64289008D01*
X47001316Y-64249549D01*
X46995542Y-64249473D01*
X46995538Y-64249473D01*
X46893047Y-64248132D01*
X46799076Y-64246902D01*
X46793379Y-64247881D01*
X46793378Y-64247881D01*
X46605436Y-64280175D01*
X46605435Y-64280175D01*
X46599739Y-64281154D01*
X46409983Y-64351159D01*
X46405022Y-64354111D01*
X46405021Y-64354111D01*
X46336189Y-64395062D01*
X46236161Y-64454572D01*
X46084095Y-64587930D01*
X45958879Y-64746767D01*
X45864704Y-64925763D01*
X45804727Y-65118923D01*
X45780954Y-65319779D01*
X43750000Y-65319779D01*
X43750000Y-62779779D01*
X45780954Y-62779779D01*
X45794182Y-62981604D01*
X45804989Y-63024158D01*
X45820885Y-63086746D01*
X45843968Y-63177638D01*
X45928646Y-63361317D01*
X45931979Y-63366033D01*
X46037302Y-63515062D01*
X46045378Y-63526490D01*
X46190256Y-63667623D01*
X46195060Y-63670833D01*
X46262423Y-63715844D01*
X46358427Y-63779992D01*
X46363730Y-63782270D01*
X46363733Y-63782272D01*
X46536751Y-63856606D01*
X46544260Y-63859832D01*
X46741530Y-63904470D01*
X46747299Y-63904697D01*
X46747302Y-63904697D01*
X46823473Y-63907689D01*
X46943632Y-63912410D01*
X47038728Y-63898622D01*
X47138076Y-63884218D01*
X47138081Y-63884217D01*
X47143797Y-63883388D01*
X47149269Y-63881530D01*
X47149271Y-63881530D01*
X47329857Y-63820229D01*
X47329859Y-63820228D01*
X47335321Y-63818374D01*
X47511791Y-63719547D01*
X47568222Y-63672614D01*
X47662863Y-63593901D01*
X47667295Y-63590215D01*
X47774715Y-63461057D01*
X47792936Y-63439149D01*
X47796627Y-63434711D01*
X47815843Y-63400399D01*
X47831887Y-63371749D01*
X47895454Y-63258241D01*
X47899657Y-63245861D01*
X47958610Y-63072191D01*
X47958610Y-63072189D01*
X47960468Y-63066717D01*
X47961297Y-63061001D01*
X47961298Y-63060996D01*
X47985610Y-62893313D01*
X47989490Y-62866552D01*
X47991005Y-62808710D01*
X47972498Y-62607301D01*
X47917597Y-62412636D01*
X47828141Y-62231237D01*
X47809869Y-62206767D01*
X47710578Y-62073801D01*
X47710577Y-62073800D01*
X47707125Y-62069177D01*
X47702677Y-62065065D01*
X47562843Y-61935804D01*
X47562841Y-61935802D01*
X47558602Y-61931884D01*
X47552953Y-61928320D01*
X47392427Y-61827035D01*
X47387547Y-61823956D01*
X47199688Y-61749008D01*
X47001316Y-61709549D01*
X46995542Y-61709473D01*
X46995538Y-61709473D01*
X46893047Y-61708132D01*
X46799076Y-61706902D01*
X46793379Y-61707881D01*
X46793378Y-61707881D01*
X46605436Y-61740175D01*
X46605435Y-61740175D01*
X46599739Y-61741154D01*
X46409983Y-61811159D01*
X46405022Y-61814111D01*
X46405021Y-61814111D01*
X46293112Y-61880690D01*
X46236161Y-61914572D01*
X46084095Y-62047930D01*
X45958879Y-62206767D01*
X45864704Y-62385763D01*
X45804727Y-62578923D01*
X45780954Y-62779779D01*
X43750000Y-62779779D01*
X43750000Y-47302893D01*
X45550179Y-47302893D01*
X45551702Y-47311317D01*
X45564082Y-47314710D01*
X47013790Y-47314710D01*
X47081911Y-47334712D01*
X47128404Y-47388368D01*
X47139790Y-47440710D01*
X47139790Y-47696710D01*
X47119788Y-47764831D01*
X47066132Y-47811324D01*
X47013790Y-47822710D01*
X45569015Y-47822710D01*
X45555484Y-47826683D01*
X45554047Y-47836676D01*
X45584355Y-47971156D01*
X45587435Y-47980985D01*
X45667560Y-48178313D01*
X45672203Y-48187504D01*
X45783484Y-48369098D01*
X45789567Y-48377409D01*
X45929003Y-48538377D01*
X45936370Y-48545593D01*
X46100224Y-48681626D01*
X46108671Y-48687541D01*
X46292546Y-48794989D01*
X46301832Y-48799439D01*
X46456592Y-48858535D01*
X46513095Y-48901522D01*
X46537388Y-48968233D01*
X46521758Y-49037488D01*
X46471167Y-49087298D01*
X46455255Y-49094457D01*
X46415399Y-49109161D01*
X46409983Y-49111159D01*
X46236161Y-49214572D01*
X46084095Y-49347930D01*
X45958879Y-49506767D01*
X45864704Y-49685763D01*
X45804727Y-49878923D01*
X45780954Y-50079779D01*
X45794182Y-50281604D01*
X45843968Y-50477638D01*
X45928646Y-50661317D01*
X46045378Y-50826490D01*
X46190256Y-50967623D01*
X46195060Y-50970833D01*
X46212849Y-50982719D01*
X46358427Y-51079992D01*
X46363730Y-51082270D01*
X46363733Y-51082272D01*
X46413818Y-51103790D01*
X46544260Y-51159832D01*
X46741530Y-51204470D01*
X46747299Y-51204697D01*
X46747302Y-51204697D01*
X46851351Y-51208785D01*
X46909782Y-51211080D01*
X46977065Y-51233741D01*
X46993931Y-51247888D01*
X47080355Y-51334312D01*
X47114381Y-51396624D01*
X47109316Y-51467439D01*
X47066769Y-51524275D01*
X47000249Y-51549086D01*
X46989616Y-51549396D01*
X46799076Y-51546902D01*
X46793379Y-51547881D01*
X46793378Y-51547881D01*
X46605436Y-51580175D01*
X46605435Y-51580175D01*
X46599739Y-51581154D01*
X46409983Y-51651159D01*
X46405022Y-51654111D01*
X46405021Y-51654111D01*
X46298901Y-51717246D01*
X46236161Y-51754572D01*
X46084095Y-51887930D01*
X45958879Y-52046767D01*
X45864704Y-52225763D01*
X45804727Y-52418923D01*
X45780954Y-52619779D01*
X45794182Y-52821604D01*
X45843968Y-53017638D01*
X45928646Y-53201317D01*
X45931979Y-53206033D01*
X46041801Y-53361428D01*
X46045378Y-53366490D01*
X46190256Y-53507623D01*
X46358427Y-53619992D01*
X46363730Y-53622270D01*
X46363733Y-53622272D01*
X46483645Y-53673790D01*
X46544260Y-53699832D01*
X46741530Y-53744470D01*
X46747299Y-53744697D01*
X46747302Y-53744697D01*
X46863831Y-53749275D01*
X46909781Y-53751080D01*
X46977064Y-53773741D01*
X46993931Y-53787888D01*
X47080354Y-53874312D01*
X47114379Y-53936624D01*
X47109313Y-54007440D01*
X47066766Y-54064276D01*
X47000246Y-54089086D01*
X46989614Y-54089396D01*
X46799076Y-54086902D01*
X46793379Y-54087881D01*
X46793378Y-54087881D01*
X46605436Y-54120175D01*
X46605435Y-54120175D01*
X46599739Y-54121154D01*
X46409983Y-54191159D01*
X46405022Y-54194111D01*
X46405021Y-54194111D01*
X46248472Y-54287248D01*
X46236161Y-54294572D01*
X46084095Y-54427930D01*
X45958879Y-54586767D01*
X45864704Y-54765763D01*
X45804727Y-54958923D01*
X45780954Y-55159779D01*
X45794182Y-55361604D01*
X45843968Y-55557638D01*
X45928646Y-55741317D01*
X46045378Y-55906490D01*
X46190256Y-56047623D01*
X46195060Y-56050833D01*
X46215514Y-56064500D01*
X46358427Y-56159992D01*
X46363730Y-56162270D01*
X46363733Y-56162272D01*
X46413818Y-56183790D01*
X46544260Y-56239832D01*
X46741530Y-56284470D01*
X46747299Y-56284697D01*
X46747302Y-56284697D01*
X46851351Y-56288785D01*
X46909782Y-56291080D01*
X46977065Y-56313741D01*
X46993931Y-56327888D01*
X47080355Y-56414312D01*
X47114381Y-56476624D01*
X47109316Y-56547439D01*
X47066769Y-56604275D01*
X47000249Y-56629086D01*
X46989616Y-56629396D01*
X46799076Y-56626902D01*
X46793379Y-56627881D01*
X46793378Y-56627881D01*
X46605436Y-56660175D01*
X46605435Y-56660175D01*
X46599739Y-56661154D01*
X46409983Y-56731159D01*
X46405022Y-56734111D01*
X46405021Y-56734111D01*
X46298901Y-56797246D01*
X46236161Y-56834572D01*
X46084095Y-56967930D01*
X45958879Y-57126767D01*
X45864704Y-57305763D01*
X45804727Y-57498923D01*
X45780954Y-57699779D01*
X45794182Y-57901604D01*
X45843968Y-58097638D01*
X45928646Y-58281317D01*
X45931979Y-58286033D01*
X46041801Y-58441428D01*
X46045378Y-58446490D01*
X46190256Y-58587623D01*
X46195060Y-58590833D01*
X46245443Y-58624498D01*
X46358427Y-58699992D01*
X46363730Y-58702270D01*
X46363733Y-58702272D01*
X46506921Y-58763790D01*
X46544260Y-58779832D01*
X46741530Y-58824470D01*
X46747299Y-58824697D01*
X46747302Y-58824697D01*
X46851351Y-58828785D01*
X46909782Y-58831080D01*
X46977065Y-58853741D01*
X46993931Y-58867888D01*
X47080355Y-58954312D01*
X47114381Y-59016624D01*
X47109316Y-59087439D01*
X47066769Y-59144275D01*
X47000249Y-59169086D01*
X46989616Y-59169396D01*
X46799076Y-59166902D01*
X46793379Y-59167881D01*
X46793378Y-59167881D01*
X46605436Y-59200175D01*
X46605435Y-59200175D01*
X46599739Y-59201154D01*
X46409983Y-59271159D01*
X46405022Y-59274111D01*
X46405021Y-59274111D01*
X46256135Y-59362689D01*
X46236161Y-59374572D01*
X46084095Y-59507930D01*
X45958879Y-59666767D01*
X45864704Y-59845763D01*
X45804727Y-60038923D01*
X45780954Y-60239779D01*
X45794182Y-60441604D01*
X45843968Y-60637638D01*
X45928646Y-60821317D01*
X46045378Y-60986490D01*
X46190256Y-61127623D01*
X46358427Y-61239992D01*
X46363730Y-61242270D01*
X46363733Y-61242272D01*
X46452081Y-61280229D01*
X46544260Y-61319832D01*
X46741530Y-61364470D01*
X46747299Y-61364697D01*
X46747302Y-61364697D01*
X46823473Y-61367689D01*
X46943632Y-61372410D01*
X47029922Y-61359899D01*
X47138076Y-61344218D01*
X47138081Y-61344217D01*
X47143797Y-61343388D01*
X47149269Y-61341530D01*
X47149271Y-61341530D01*
X47329857Y-61280229D01*
X47329859Y-61280228D01*
X47335321Y-61278374D01*
X47511791Y-61179547D01*
X47574223Y-61127623D01*
X47662863Y-61053901D01*
X47667295Y-61050215D01*
X47796627Y-60894711D01*
X47895454Y-60718241D01*
X47900542Y-60703254D01*
X47958610Y-60532191D01*
X47958610Y-60532189D01*
X47960468Y-60526717D01*
X47961297Y-60521001D01*
X47961298Y-60520996D01*
X47988957Y-60330226D01*
X47989490Y-60326552D01*
X47991005Y-60268710D01*
X47972498Y-60067301D01*
X47917597Y-59872636D01*
X47828141Y-59691237D01*
X47804880Y-59660086D01*
X47757688Y-59596889D01*
X47732956Y-59530339D01*
X47748130Y-59460983D01*
X47798392Y-59410841D01*
X47858646Y-59395500D01*
X48452954Y-59395500D01*
X48521075Y-59415502D01*
X48567568Y-59469158D01*
X48577672Y-59539432D01*
X48551905Y-59599503D01*
X48498879Y-59666767D01*
X48404704Y-59845763D01*
X48344727Y-60038923D01*
X48320954Y-60239779D01*
X48334182Y-60441604D01*
X48383968Y-60637638D01*
X48468646Y-60821317D01*
X48585378Y-60986490D01*
X48730256Y-61127623D01*
X48898427Y-61239992D01*
X48903730Y-61242270D01*
X48903733Y-61242272D01*
X48992081Y-61280229D01*
X49084260Y-61319832D01*
X49281530Y-61364470D01*
X49287299Y-61364697D01*
X49287302Y-61364697D01*
X49363473Y-61367689D01*
X49483632Y-61372410D01*
X49569922Y-61359899D01*
X49678076Y-61344218D01*
X49678081Y-61344217D01*
X49683797Y-61343388D01*
X49689269Y-61341530D01*
X49689271Y-61341530D01*
X49869857Y-61280229D01*
X49869859Y-61280228D01*
X49875321Y-61278374D01*
X50051791Y-61179547D01*
X50114223Y-61127623D01*
X50202863Y-61053901D01*
X50207295Y-61050215D01*
X50336627Y-60894711D01*
X50348565Y-60873394D01*
X50399302Y-60823732D01*
X50468834Y-60809384D01*
X50535085Y-60834906D01*
X50577020Y-60892194D01*
X50584500Y-60934960D01*
X50584500Y-62141654D01*
X50564498Y-62209775D01*
X50510842Y-62256268D01*
X50440568Y-62266372D01*
X50375988Y-62236878D01*
X50357542Y-62217043D01*
X50250578Y-62073801D01*
X50250577Y-62073800D01*
X50247125Y-62069177D01*
X50242677Y-62065065D01*
X50102843Y-61935804D01*
X50102841Y-61935802D01*
X50098602Y-61931884D01*
X50092953Y-61928320D01*
X49932427Y-61827035D01*
X49927547Y-61823956D01*
X49739688Y-61749008D01*
X49541316Y-61709549D01*
X49535542Y-61709473D01*
X49535538Y-61709473D01*
X49433047Y-61708132D01*
X49339076Y-61706902D01*
X49333379Y-61707881D01*
X49333378Y-61707881D01*
X49145436Y-61740175D01*
X49145435Y-61740175D01*
X49139739Y-61741154D01*
X48949983Y-61811159D01*
X48945022Y-61814111D01*
X48945021Y-61814111D01*
X48833112Y-61880690D01*
X48776161Y-61914572D01*
X48624095Y-62047930D01*
X48498879Y-62206767D01*
X48404704Y-62385763D01*
X48344727Y-62578923D01*
X48320954Y-62779779D01*
X48334182Y-62981604D01*
X48344989Y-63024158D01*
X48360885Y-63086746D01*
X48383968Y-63177638D01*
X48468646Y-63361317D01*
X48471979Y-63366033D01*
X48577302Y-63515062D01*
X48585378Y-63526490D01*
X48730256Y-63667623D01*
X48735060Y-63670833D01*
X48802423Y-63715844D01*
X48898427Y-63779992D01*
X48903730Y-63782270D01*
X48903733Y-63782272D01*
X49076751Y-63856606D01*
X49084260Y-63859832D01*
X49281530Y-63904470D01*
X49287299Y-63904697D01*
X49287302Y-63904697D01*
X49363473Y-63907689D01*
X49483632Y-63912410D01*
X49578728Y-63898622D01*
X49678076Y-63884218D01*
X49678081Y-63884217D01*
X49683797Y-63883388D01*
X49689269Y-63881530D01*
X49689271Y-63881530D01*
X49869857Y-63820229D01*
X49869859Y-63820228D01*
X49875321Y-63818374D01*
X50051791Y-63719547D01*
X50108222Y-63672614D01*
X50202863Y-63593901D01*
X50207295Y-63590215D01*
X50314715Y-63461057D01*
X50332936Y-63439149D01*
X50336627Y-63434711D01*
X50339523Y-63429540D01*
X50400294Y-63321025D01*
X50451031Y-63271363D01*
X50520563Y-63257015D01*
X50586814Y-63282537D01*
X50621122Y-63322769D01*
X50623911Y-63327939D01*
X50626602Y-63333220D01*
X50645103Y-63371749D01*
X50648537Y-63378900D01*
X50652094Y-63383131D01*
X50654026Y-63385063D01*
X50655745Y-63386937D01*
X50655819Y-63387074D01*
X50655709Y-63387174D01*
X50656132Y-63387654D01*
X50659194Y-63393329D01*
X50666841Y-63400398D01*
X50666842Y-63400399D01*
X50698367Y-63429540D01*
X50701933Y-63432970D01*
X54664534Y-67395571D01*
X54698560Y-67457883D01*
X54700360Y-67468214D01*
X54711777Y-67554935D01*
X54714936Y-67562562D01*
X54714937Y-67562565D01*
X54732541Y-67605065D01*
X54771579Y-67699310D01*
X54866711Y-67823289D01*
X54873261Y-67828315D01*
X54873264Y-67828318D01*
X54921780Y-67865545D01*
X54990689Y-67918421D01*
X55135065Y-67978223D01*
X55290000Y-67998621D01*
X55444935Y-67978223D01*
X55589311Y-67918421D01*
X55658220Y-67865545D01*
X55706736Y-67828318D01*
X55706739Y-67828315D01*
X55713289Y-67823289D01*
X55761852Y-67760000D01*
X63081379Y-67760000D01*
X63101777Y-67914935D01*
X63161579Y-68059310D01*
X63166606Y-68065861D01*
X63240019Y-68161535D01*
X63256711Y-68183289D01*
X63263261Y-68188315D01*
X63263264Y-68188318D01*
X63318700Y-68230855D01*
X63380689Y-68278421D01*
X63525065Y-68338223D01*
X63680000Y-68358621D01*
X63834935Y-68338223D01*
X63979311Y-68278421D01*
X64092538Y-68191538D01*
X64158759Y-68165937D01*
X64169243Y-68165500D01*
X65616504Y-68165500D01*
X65639801Y-68167979D01*
X65641886Y-68168077D01*
X65652066Y-68170269D01*
X65684984Y-68166373D01*
X65690821Y-68166029D01*
X65690813Y-68165928D01*
X65695992Y-68165500D01*
X65701193Y-68165500D01*
X65706321Y-68164646D01*
X65706327Y-68164646D01*
X65719987Y-68162372D01*
X65725863Y-68161535D01*
X65730952Y-68160933D01*
X65776210Y-68155576D01*
X65784377Y-68151654D01*
X65793313Y-68150167D01*
X65802475Y-68145223D01*
X65802479Y-68145222D01*
X65837929Y-68126094D01*
X65843220Y-68123398D01*
X65881749Y-68104897D01*
X65881750Y-68104896D01*
X65888900Y-68101463D01*
X65893131Y-68097906D01*
X65895063Y-68095974D01*
X65896937Y-68094255D01*
X65897074Y-68094181D01*
X65897174Y-68094291D01*
X65897654Y-68093868D01*
X65903329Y-68090806D01*
X65939541Y-68051632D01*
X65942970Y-68048067D01*
X68986589Y-65004448D01*
X69048901Y-64970422D01*
X69075684Y-64967543D01*
X69081812Y-64967543D01*
X69090000Y-64968621D01*
X69244935Y-64948223D01*
X69389311Y-64888421D01*
X69473777Y-64823608D01*
X69506736Y-64798318D01*
X69506739Y-64798315D01*
X69513289Y-64793289D01*
X69533761Y-64766610D01*
X69603394Y-64675861D01*
X69608421Y-64669310D01*
X69668223Y-64524935D01*
X69688621Y-64370000D01*
X69668223Y-64215065D01*
X69608421Y-64070690D01*
X69513289Y-63946711D01*
X69506739Y-63941685D01*
X69506736Y-63941682D01*
X69430765Y-63883388D01*
X69389311Y-63851579D01*
X69244935Y-63791777D01*
X69090000Y-63771379D01*
X68935065Y-63791777D01*
X68790690Y-63851579D01*
X68666711Y-63946711D01*
X68571579Y-64070690D01*
X68511777Y-64215065D01*
X68491379Y-64370000D01*
X68492457Y-64378188D01*
X68492457Y-64384316D01*
X68472455Y-64452437D01*
X68455552Y-64473411D01*
X65551368Y-67377595D01*
X65489056Y-67411621D01*
X65462273Y-67414500D01*
X64225114Y-67414500D01*
X64156993Y-67394498D01*
X64125152Y-67365204D01*
X64103289Y-67336711D01*
X63979311Y-67241579D01*
X63834935Y-67181777D01*
X63680000Y-67161379D01*
X63525065Y-67181777D01*
X63380690Y-67241579D01*
X63374139Y-67246606D01*
X63289910Y-67311237D01*
X63256711Y-67336711D01*
X63251688Y-67343257D01*
X63234849Y-67365202D01*
X63161579Y-67460690D01*
X63101777Y-67605065D01*
X63081379Y-67760000D01*
X55761852Y-67760000D01*
X55808421Y-67699310D01*
X55868223Y-67554935D01*
X55888621Y-67400000D01*
X55868223Y-67245065D01*
X55808421Y-67100690D01*
X55726994Y-66994572D01*
X55718316Y-66983262D01*
X55718315Y-66983261D01*
X55713289Y-66976711D01*
X55706739Y-66971685D01*
X55706736Y-66971682D01*
X55651300Y-66929145D01*
X55589311Y-66881579D01*
X55444935Y-66821777D01*
X55290000Y-66801379D01*
X55281812Y-66802457D01*
X55281810Y-66802457D01*
X55212352Y-66811601D01*
X55142203Y-66800661D01*
X55106811Y-66775774D01*
X54919291Y-66588254D01*
X54885265Y-66525942D01*
X54890330Y-66455127D01*
X54932877Y-66398291D01*
X54999397Y-66373480D01*
X55044483Y-66378441D01*
X55071116Y-66386406D01*
X55076719Y-66388227D01*
X55117064Y-66402395D01*
X55124548Y-66405023D01*
X55130055Y-66405500D01*
X55132762Y-66405500D01*
X55135334Y-66405611D01*
X55135494Y-66405659D01*
X55135488Y-66405803D01*
X55136106Y-66405842D01*
X55142286Y-66407690D01*
X55195555Y-66405597D01*
X55200501Y-66405500D01*
X57928256Y-66405500D01*
X57996377Y-66425502D01*
X58017351Y-66442405D01*
X58021684Y-66446738D01*
X58026711Y-66453289D01*
X58150689Y-66548421D01*
X58295065Y-66608223D01*
X58450000Y-66628621D01*
X58604935Y-66608223D01*
X58749311Y-66548421D01*
X58811300Y-66500855D01*
X58866736Y-66458318D01*
X58866739Y-66458315D01*
X58873289Y-66453289D01*
X58881035Y-66443195D01*
X58944696Y-66360229D01*
X58968421Y-66329310D01*
X58971622Y-66321582D01*
X58971679Y-66321512D01*
X58975710Y-66314529D01*
X58976799Y-66315158D01*
X59016172Y-66266302D01*
X59083536Y-66243883D01*
X59152326Y-66261443D01*
X59190536Y-66300110D01*
X59191579Y-66299310D01*
X59274742Y-66407690D01*
X59286711Y-66423289D01*
X59293261Y-66428315D01*
X59293264Y-66428318D01*
X59348700Y-66470855D01*
X59410689Y-66518421D01*
X59555065Y-66578223D01*
X59710000Y-66598621D01*
X59864935Y-66578223D01*
X60009311Y-66518421D01*
X60071300Y-66470855D01*
X60126736Y-66428318D01*
X60126739Y-66428315D01*
X60133289Y-66423289D01*
X60145259Y-66407690D01*
X60185263Y-66355555D01*
X60228421Y-66299310D01*
X60288223Y-66154935D01*
X60308621Y-66000000D01*
X60288223Y-65845065D01*
X60228421Y-65700690D01*
X60156309Y-65606711D01*
X60138316Y-65583262D01*
X60138315Y-65583261D01*
X60133289Y-65576711D01*
X60126739Y-65571685D01*
X60126736Y-65571682D01*
X60061472Y-65521604D01*
X60009311Y-65481579D01*
X59864935Y-65421777D01*
X59710000Y-65401379D01*
X59701812Y-65402457D01*
X59695684Y-65402457D01*
X59627563Y-65382455D01*
X59606589Y-65365552D01*
X59379970Y-65138933D01*
X59376357Y-65134835D01*
X59373295Y-65129160D01*
X59356253Y-65113406D01*
X59334122Y-65092949D01*
X59330556Y-65089519D01*
X59315951Y-65074914D01*
X59311713Y-65071885D01*
X59309253Y-65069801D01*
X59305193Y-65066207D01*
X59281498Y-65044304D01*
X59271971Y-65040092D01*
X59271969Y-65040091D01*
X59271325Y-65039806D01*
X59249020Y-65027084D01*
X59239974Y-65020620D01*
X59240777Y-65019496D01*
X59222329Y-65006314D01*
X59168326Y-64952311D01*
X59153601Y-64934080D01*
X59152200Y-64932540D01*
X59146550Y-64923790D01*
X59120513Y-64903264D01*
X59116146Y-64899383D01*
X59116080Y-64899461D01*
X59112122Y-64896107D01*
X59108440Y-64892425D01*
X59104209Y-64889402D01*
X59104206Y-64889399D01*
X59095799Y-64883392D01*
X59092926Y-64881339D01*
X59088190Y-64877783D01*
X59048378Y-64846397D01*
X59039829Y-64843395D01*
X59032459Y-64838128D01*
X58999181Y-64828176D01*
X58983908Y-64823608D01*
X58978264Y-64821774D01*
X58937913Y-64807604D01*
X58937907Y-64807603D01*
X58930430Y-64804977D01*
X58924923Y-64804500D01*
X58922216Y-64804500D01*
X58919643Y-64804389D01*
X58919484Y-64804341D01*
X58919490Y-64804197D01*
X58918870Y-64804158D01*
X58912691Y-64802310D01*
X58859423Y-64804403D01*
X58854476Y-64804500D01*
X55877727Y-64804500D01*
X55809606Y-64784498D01*
X55788632Y-64767595D01*
X53202405Y-62181368D01*
X53168379Y-62119056D01*
X53165500Y-62092273D01*
X53165500Y-59190000D01*
X54411379Y-59190000D01*
X54431777Y-59344935D01*
X54491579Y-59489310D01*
X54522170Y-59529177D01*
X54581585Y-59606608D01*
X54586711Y-59613289D01*
X54593261Y-59618315D01*
X54593264Y-59618318D01*
X54647698Y-59660086D01*
X54710689Y-59708421D01*
X54855065Y-59768223D01*
X55010000Y-59788621D01*
X55164935Y-59768223D01*
X55309311Y-59708421D01*
X55372302Y-59660086D01*
X55426736Y-59618318D01*
X55426739Y-59618315D01*
X55433289Y-59613289D01*
X55438416Y-59606608D01*
X55497830Y-59529177D01*
X55528421Y-59489310D01*
X55588223Y-59344935D01*
X55608621Y-59190000D01*
X55588223Y-59035065D01*
X55528421Y-58890690D01*
X55476631Y-58823195D01*
X55438316Y-58773262D01*
X55438315Y-58773261D01*
X55433289Y-58766711D01*
X55426739Y-58761685D01*
X55426736Y-58761682D01*
X55371300Y-58719145D01*
X55309311Y-58671579D01*
X55164935Y-58611777D01*
X55010000Y-58591379D01*
X54855065Y-58611777D01*
X54710690Y-58671579D01*
X54586711Y-58766711D01*
X54581688Y-58773257D01*
X54562091Y-58798797D01*
X54491579Y-58890690D01*
X54431777Y-59035065D01*
X54411379Y-59190000D01*
X53165500Y-59190000D01*
X53165500Y-59123497D01*
X53167979Y-59100208D01*
X53168078Y-59098117D01*
X53170270Y-59087934D01*
X53166373Y-59055008D01*
X53166029Y-59049178D01*
X53165928Y-59049186D01*
X53165500Y-59044007D01*
X53165500Y-59038807D01*
X53164647Y-59033681D01*
X53164646Y-59033672D01*
X53162374Y-59020023D01*
X53161537Y-59014147D01*
X53156801Y-58974137D01*
X53155577Y-58963791D01*
X53151654Y-58955622D01*
X53150167Y-58946687D01*
X53126089Y-58902064D01*
X53123408Y-58896801D01*
X53104897Y-58858251D01*
X53104896Y-58858250D01*
X53101463Y-58851100D01*
X53097906Y-58846869D01*
X53095974Y-58844937D01*
X53094255Y-58843063D01*
X53094181Y-58842926D01*
X53094291Y-58842826D01*
X53093868Y-58842346D01*
X53090806Y-58836671D01*
X53051632Y-58800459D01*
X53048067Y-58797030D01*
X50463348Y-56212311D01*
X50448623Y-56194080D01*
X50447222Y-56192540D01*
X50441572Y-56183790D01*
X50415535Y-56163264D01*
X50411168Y-56159383D01*
X50411102Y-56159461D01*
X50407144Y-56156107D01*
X50403462Y-56152425D01*
X50399231Y-56149402D01*
X50399228Y-56149399D01*
X50394409Y-56145956D01*
X50387948Y-56141339D01*
X50383212Y-56137783D01*
X50343400Y-56106397D01*
X50334851Y-56103395D01*
X50327481Y-56098128D01*
X50317503Y-56095144D01*
X50309297Y-56091124D01*
X50256922Y-56043193D01*
X50238774Y-55974555D01*
X50260616Y-55907002D01*
X50267854Y-55897403D01*
X50332931Y-55819155D01*
X50336627Y-55814711D01*
X50435454Y-55638241D01*
X50435645Y-55637679D01*
X50480537Y-55584865D01*
X50549662Y-55564210D01*
X53150983Y-55564210D01*
X53219104Y-55584212D01*
X53240078Y-55601115D01*
X59504041Y-61865078D01*
X59538067Y-61927390D01*
X59533002Y-61998205D01*
X59490455Y-62055041D01*
X59431393Y-62079095D01*
X59335065Y-62091777D01*
X59190690Y-62151579D01*
X59066711Y-62246711D01*
X58971579Y-62370690D01*
X58911777Y-62515065D01*
X58891379Y-62670000D01*
X58911777Y-62824935D01*
X58971579Y-62969310D01*
X58992520Y-62996601D01*
X59061479Y-63086470D01*
X59066711Y-63093289D01*
X59073261Y-63098315D01*
X59073264Y-63098318D01*
X59101409Y-63119914D01*
X59190689Y-63188421D01*
X59335065Y-63248223D01*
X59490000Y-63268621D01*
X59644935Y-63248223D01*
X59789311Y-63188421D01*
X59878591Y-63119914D01*
X59906736Y-63098318D01*
X59906739Y-63098315D01*
X59913289Y-63093289D01*
X59918522Y-63086470D01*
X59987480Y-62996601D01*
X60008421Y-62969310D01*
X60068223Y-62824935D01*
X60080905Y-62728607D01*
X60109628Y-62663680D01*
X60168893Y-62624589D01*
X60239884Y-62623744D01*
X60294922Y-62655959D01*
X61715082Y-64076119D01*
X61749108Y-64138431D01*
X61750909Y-64181659D01*
X61731379Y-64330000D01*
X61751777Y-64484935D01*
X61811579Y-64629310D01*
X61906711Y-64753289D01*
X61913261Y-64758315D01*
X61913264Y-64758318D01*
X61930101Y-64771237D01*
X62030689Y-64848421D01*
X62175065Y-64908223D01*
X62330000Y-64928621D01*
X62484935Y-64908223D01*
X62629311Y-64848421D01*
X62729899Y-64771237D01*
X62746736Y-64758318D01*
X62746739Y-64758315D01*
X62753289Y-64753289D01*
X62848421Y-64629310D01*
X62908223Y-64484935D01*
X62922256Y-64378346D01*
X62950979Y-64313419D01*
X63010244Y-64274328D01*
X63081235Y-64273483D01*
X63123882Y-64294831D01*
X63169715Y-64330000D01*
X63180689Y-64338421D01*
X63325065Y-64398223D01*
X63480000Y-64418621D01*
X63634935Y-64398223D01*
X63779311Y-64338421D01*
X63853943Y-64281154D01*
X63896736Y-64248318D01*
X63896739Y-64248315D01*
X63903289Y-64243289D01*
X63918663Y-64223254D01*
X63993394Y-64125861D01*
X63998421Y-64119310D01*
X64058223Y-63974935D01*
X64059301Y-63966746D01*
X64059508Y-63965974D01*
X64096459Y-63905351D01*
X64160319Y-63874329D01*
X64230814Y-63882757D01*
X64257915Y-63898619D01*
X64270689Y-63908421D01*
X64415065Y-63968223D01*
X64570000Y-63988621D01*
X64724935Y-63968223D01*
X64869311Y-63908421D01*
X64947507Y-63848419D01*
X64986736Y-63818318D01*
X64986739Y-63818315D01*
X64993289Y-63813289D01*
X65088421Y-63689310D01*
X65148223Y-63544935D01*
X65148538Y-63542544D01*
X65184078Y-63484234D01*
X65247938Y-63453211D01*
X65317053Y-63461057D01*
X65455065Y-63518223D01*
X65610000Y-63538621D01*
X65764935Y-63518223D01*
X65909311Y-63458421D01*
X65971300Y-63410855D01*
X66026736Y-63368318D01*
X66026739Y-63368315D01*
X66033289Y-63363289D01*
X66128421Y-63239310D01*
X66188223Y-63094935D01*
X66208621Y-62940000D01*
X66205458Y-62915973D01*
X66216398Y-62845824D01*
X66263526Y-62792726D01*
X66331880Y-62773536D01*
X66378598Y-62783118D01*
X66415065Y-62798223D01*
X66570000Y-62818621D01*
X66724935Y-62798223D01*
X66869311Y-62738421D01*
X66958479Y-62670000D01*
X66986736Y-62648318D01*
X66986739Y-62648315D01*
X66993289Y-62643289D01*
X67008287Y-62623744D01*
X67083394Y-62525861D01*
X67088421Y-62519310D01*
X67148223Y-62374935D01*
X67168621Y-62220000D01*
X67163355Y-62180000D01*
X71481379Y-62180000D01*
X71501777Y-62334935D01*
X71561579Y-62479310D01*
X71603029Y-62533329D01*
X71642417Y-62584660D01*
X71656711Y-62603289D01*
X71663261Y-62608315D01*
X71663264Y-62608318D01*
X71700302Y-62636738D01*
X71780689Y-62698421D01*
X71925065Y-62758223D01*
X72080000Y-62778621D01*
X72234935Y-62758223D01*
X72379311Y-62698421D01*
X72459698Y-62636738D01*
X72496736Y-62608318D01*
X72496739Y-62608315D01*
X72503289Y-62603289D01*
X72517584Y-62584660D01*
X72556971Y-62533329D01*
X72598421Y-62479310D01*
X72658223Y-62334935D01*
X72678621Y-62180000D01*
X72658223Y-62025065D01*
X72598421Y-61880690D01*
X72503289Y-61756711D01*
X72496739Y-61751685D01*
X72496736Y-61751682D01*
X72431440Y-61701579D01*
X72379311Y-61661579D01*
X72234935Y-61601777D01*
X72080000Y-61581379D01*
X71925065Y-61601777D01*
X71780690Y-61661579D01*
X71774139Y-61666606D01*
X71668219Y-61747881D01*
X71656711Y-61756711D01*
X71561579Y-61880690D01*
X71501777Y-62025065D01*
X71481379Y-62180000D01*
X67163355Y-62180000D01*
X67148223Y-62065065D01*
X67088421Y-61920690D01*
X67014195Y-61823956D01*
X66998316Y-61803262D01*
X66998315Y-61803261D01*
X66993289Y-61796711D01*
X66986739Y-61791685D01*
X66986736Y-61791682D01*
X66881166Y-61710676D01*
X66869311Y-61701579D01*
X66763189Y-61657622D01*
X66707908Y-61613074D01*
X66685487Y-61545710D01*
X66703045Y-61476919D01*
X66755007Y-61428541D01*
X66763189Y-61424804D01*
X66899311Y-61368421D01*
X66965605Y-61317552D01*
X67016736Y-61278318D01*
X67016739Y-61278315D01*
X67023289Y-61273289D01*
X67118421Y-61149310D01*
X67178223Y-61004935D01*
X67198621Y-60850000D01*
X67178223Y-60695065D01*
X67118421Y-60550690D01*
X67023289Y-60426711D01*
X67016739Y-60421685D01*
X67016736Y-60421682D01*
X66961300Y-60379145D01*
X66899311Y-60331579D01*
X66871389Y-60320014D01*
X66830514Y-60292700D01*
X66559849Y-60022035D01*
X66528597Y-59967906D01*
X66528223Y-59965065D01*
X66468421Y-59820690D01*
X66384699Y-59711581D01*
X66378316Y-59703262D01*
X66378315Y-59703261D01*
X66373289Y-59696711D01*
X66366739Y-59691685D01*
X66366736Y-59691682D01*
X66311300Y-59649145D01*
X66249311Y-59601579D01*
X66104935Y-59541777D01*
X65950000Y-59521379D01*
X65795065Y-59541777D01*
X65650690Y-59601579D01*
X65526711Y-59696711D01*
X65521688Y-59703257D01*
X65517726Y-59708421D01*
X65431579Y-59820690D01*
X65371777Y-59965065D01*
X65351379Y-60120000D01*
X65352457Y-60128188D01*
X65352457Y-60128189D01*
X65356046Y-60155451D01*
X65345107Y-60225600D01*
X65297978Y-60278698D01*
X65229624Y-60297888D01*
X65161747Y-60277077D01*
X65142029Y-60260992D01*
X54762058Y-49881021D01*
X54747333Y-49862790D01*
X54745932Y-49861250D01*
X54740282Y-49852500D01*
X54714245Y-49831974D01*
X54709878Y-49828093D01*
X54709812Y-49828171D01*
X54705854Y-49824817D01*
X54702172Y-49821135D01*
X54697941Y-49818112D01*
X54697938Y-49818109D01*
X54693119Y-49814666D01*
X54686658Y-49810049D01*
X54681922Y-49806493D01*
X54642110Y-49775107D01*
X54633561Y-49772105D01*
X54626191Y-49766838D01*
X54592913Y-49756886D01*
X54577640Y-49752318D01*
X54571996Y-49750484D01*
X54531645Y-49736314D01*
X54531639Y-49736313D01*
X54524162Y-49733687D01*
X54518655Y-49733210D01*
X54515948Y-49733210D01*
X54513375Y-49733099D01*
X54513216Y-49733051D01*
X54513222Y-49732907D01*
X54512602Y-49732868D01*
X54506423Y-49731020D01*
X54453155Y-49733113D01*
X54448208Y-49733210D01*
X50546095Y-49733210D01*
X50477974Y-49713208D01*
X50433089Y-49662939D01*
X50368141Y-49531237D01*
X50349869Y-49506767D01*
X50250578Y-49373801D01*
X50250577Y-49373800D01*
X50247125Y-49369177D01*
X50224140Y-49347930D01*
X50102843Y-49235804D01*
X50102841Y-49235802D01*
X50098602Y-49231884D01*
X50071164Y-49214572D01*
X49932427Y-49127035D01*
X49927547Y-49123956D01*
X49739688Y-49049008D01*
X49541316Y-49009549D01*
X49535542Y-49009473D01*
X49535538Y-49009473D01*
X49433047Y-49008132D01*
X49339076Y-49006902D01*
X49333379Y-49007881D01*
X49333378Y-49007881D01*
X49145436Y-49040175D01*
X49145435Y-49040175D01*
X49139739Y-49041154D01*
X48949983Y-49111159D01*
X48776161Y-49214572D01*
X48624095Y-49347930D01*
X48498879Y-49506767D01*
X48404704Y-49685763D01*
X48344727Y-49878923D01*
X48320954Y-50079779D01*
X48334182Y-50281604D01*
X48383968Y-50477638D01*
X48468646Y-50661317D01*
X48471976Y-50666029D01*
X48471979Y-50666034D01*
X48556607Y-50785780D01*
X48579588Y-50852955D01*
X48562603Y-50921890D01*
X48511046Y-50970699D01*
X48453710Y-50984500D01*
X47857555Y-50984500D01*
X47789434Y-50964498D01*
X47742941Y-50910842D01*
X47732837Y-50840568D01*
X47760681Y-50777931D01*
X47796627Y-50734711D01*
X47895454Y-50558241D01*
X47913795Y-50504212D01*
X47958610Y-50372191D01*
X47958610Y-50372189D01*
X47960468Y-50366717D01*
X47961297Y-50361001D01*
X47961298Y-50360996D01*
X47988957Y-50170226D01*
X47989490Y-50166552D01*
X47991005Y-50108710D01*
X47972498Y-49907301D01*
X47949958Y-49827378D01*
X47935690Y-49776788D01*
X47917597Y-49712636D01*
X47828141Y-49531237D01*
X47809869Y-49506767D01*
X47710578Y-49373801D01*
X47710577Y-49373800D01*
X47707125Y-49369177D01*
X47684140Y-49347930D01*
X47562843Y-49235804D01*
X47562841Y-49235802D01*
X47558602Y-49231884D01*
X47531164Y-49214572D01*
X47392427Y-49127035D01*
X47387547Y-49123956D01*
X47311243Y-49093514D01*
X47255384Y-49049693D01*
X47232083Y-48982629D01*
X47248739Y-48913614D01*
X47300063Y-48864560D01*
X47321725Y-48855799D01*
X47378034Y-48838905D01*
X47387632Y-48835143D01*
X47578885Y-48741449D01*
X47587735Y-48736174D01*
X47761118Y-48612502D01*
X47768990Y-48605849D01*
X47919842Y-48455522D01*
X47926520Y-48447675D01*
X48050793Y-48274730D01*
X48056103Y-48265893D01*
X48150460Y-48074977D01*
X48154259Y-48065382D01*
X48172605Y-48004999D01*
X48211546Y-47945635D01*
X48276400Y-47916748D01*
X48346576Y-47927509D01*
X48399794Y-47974503D01*
X48407589Y-47988876D01*
X48468646Y-48121317D01*
X48471979Y-48126033D01*
X48570822Y-48265893D01*
X48585378Y-48286490D01*
X48730256Y-48427623D01*
X48735060Y-48430833D01*
X48802441Y-48475856D01*
X48898427Y-48539992D01*
X48903730Y-48542270D01*
X48903733Y-48542272D01*
X49067199Y-48612502D01*
X49084260Y-48619832D01*
X49281530Y-48664470D01*
X49287299Y-48664697D01*
X49287302Y-48664697D01*
X49363473Y-48667689D01*
X49483632Y-48672410D01*
X49569922Y-48659899D01*
X49678076Y-48644218D01*
X49678081Y-48644217D01*
X49683797Y-48643388D01*
X49689269Y-48641530D01*
X49689271Y-48641530D01*
X49869857Y-48580229D01*
X49869859Y-48580228D01*
X49875321Y-48578374D01*
X50051791Y-48479547D01*
X50114223Y-48427623D01*
X50202863Y-48353901D01*
X50207295Y-48350215D01*
X50336627Y-48194711D01*
X50435454Y-48018241D01*
X50469907Y-47916748D01*
X50498610Y-47832191D01*
X50498610Y-47832189D01*
X50500468Y-47826717D01*
X50501297Y-47821001D01*
X50501298Y-47820996D01*
X50528957Y-47630226D01*
X50529490Y-47626552D01*
X50531005Y-47568710D01*
X50512498Y-47367301D01*
X50457597Y-47172636D01*
X50368141Y-46991237D01*
X50349869Y-46966767D01*
X50275286Y-46866889D01*
X50250554Y-46800339D01*
X50265728Y-46730983D01*
X50315990Y-46680841D01*
X50376244Y-46665500D01*
X64695826Y-46665500D01*
X64763947Y-46685502D01*
X64795789Y-46714797D01*
X64881681Y-46826735D01*
X64881684Y-46826738D01*
X64886711Y-46833289D01*
X64893261Y-46838315D01*
X64893264Y-46838318D01*
X64921443Y-46859940D01*
X65010689Y-46928421D01*
X65155065Y-46988223D01*
X65310000Y-47008621D01*
X65464935Y-46988223D01*
X65609311Y-46928421D01*
X65698557Y-46859940D01*
X65726736Y-46838318D01*
X65726739Y-46838315D01*
X65733289Y-46833289D01*
X65748636Y-46813289D01*
X65823394Y-46715861D01*
X65828421Y-46709310D01*
X65867733Y-46614402D01*
X65912281Y-46559121D01*
X65979645Y-46536700D01*
X66048436Y-46554258D01*
X66096814Y-46606220D01*
X66100551Y-46614402D01*
X66131579Y-46689310D01*
X66163556Y-46730983D01*
X66210283Y-46791879D01*
X66226711Y-46813289D01*
X66233261Y-46818315D01*
X66233264Y-46818318D01*
X66252775Y-46833289D01*
X66350689Y-46908421D01*
X66495065Y-46968223D01*
X66650000Y-46988621D01*
X66804935Y-46968223D01*
X66949311Y-46908421D01*
X67047225Y-46833289D01*
X67066736Y-46818318D01*
X67066739Y-46818315D01*
X67073289Y-46813289D01*
X67089718Y-46791879D01*
X67136444Y-46730983D01*
X67168421Y-46689310D01*
X67228223Y-46544935D01*
X67230736Y-46525847D01*
X67259457Y-46460920D01*
X67318722Y-46421827D01*
X67389714Y-46420982D01*
X67449893Y-46458651D01*
X67477483Y-46519060D01*
X67478562Y-46518771D01*
X67480282Y-46525189D01*
X67480580Y-46525842D01*
X67481777Y-46534935D01*
X67541579Y-46679310D01*
X67636711Y-46803289D01*
X67643261Y-46808315D01*
X67643264Y-46808318D01*
X67698700Y-46850855D01*
X67760689Y-46898421D01*
X67905065Y-46958223D01*
X68060000Y-46978621D01*
X68214935Y-46958223D01*
X68359311Y-46898421D01*
X68421300Y-46850855D01*
X68476736Y-46808318D01*
X68476739Y-46808315D01*
X68483289Y-46803289D01*
X68578421Y-46679310D01*
X68638223Y-46534935D01*
X68658621Y-46380000D01*
X68638223Y-46225065D01*
X68578421Y-46080690D01*
X68516500Y-45999992D01*
X68488316Y-45963262D01*
X68488315Y-45963261D01*
X68483289Y-45956711D01*
X68476739Y-45951685D01*
X68476736Y-45951682D01*
X68406278Y-45897618D01*
X68359311Y-45861579D01*
X68214935Y-45801777D01*
X68060000Y-45781379D01*
X68051812Y-45782457D01*
X68045684Y-45782457D01*
X67977563Y-45762455D01*
X67956589Y-45745552D01*
X65743348Y-43532311D01*
X65728623Y-43514080D01*
X65727222Y-43512540D01*
X65721572Y-43503790D01*
X65695535Y-43483264D01*
X65691168Y-43479383D01*
X65691102Y-43479461D01*
X65687144Y-43476107D01*
X65683462Y-43472425D01*
X65679231Y-43469402D01*
X65679228Y-43469399D01*
X65674409Y-43465956D01*
X65667948Y-43461339D01*
X65663212Y-43457783D01*
X65623400Y-43426397D01*
X65614851Y-43423395D01*
X65607481Y-43418128D01*
X65574203Y-43408176D01*
X65558930Y-43403608D01*
X65553286Y-43401774D01*
X65512935Y-43387604D01*
X65512929Y-43387603D01*
X65505452Y-43384977D01*
X65499945Y-43384500D01*
X65497238Y-43384500D01*
X65494665Y-43384389D01*
X65494506Y-43384341D01*
X65494512Y-43384197D01*
X65493892Y-43384158D01*
X65487713Y-43382310D01*
X65434445Y-43384403D01*
X65429498Y-43384500D01*
X50380922Y-43384500D01*
X50312801Y-43364498D01*
X50266308Y-43310842D01*
X50256204Y-43240568D01*
X50284048Y-43177930D01*
X50332936Y-43119149D01*
X50336627Y-43114711D01*
X50435454Y-42938241D01*
X50500468Y-42746717D01*
X50501297Y-42741001D01*
X50501298Y-42740996D01*
X50528957Y-42550226D01*
X50529490Y-42546552D01*
X50531005Y-42488710D01*
X50512498Y-42287301D01*
X50457597Y-42092636D01*
X50368141Y-41911237D01*
X50349869Y-41886767D01*
X50250578Y-41753801D01*
X50250577Y-41753800D01*
X50247125Y-41749177D01*
X50224140Y-41727930D01*
X50102843Y-41615804D01*
X50102841Y-41615802D01*
X50098602Y-41611884D01*
X50071164Y-41594572D01*
X49932427Y-41507035D01*
X49927547Y-41503956D01*
X49739688Y-41429008D01*
X49541316Y-41389549D01*
X49535542Y-41389473D01*
X49535538Y-41389473D01*
X49433047Y-41388132D01*
X49339076Y-41386902D01*
X49333379Y-41387881D01*
X49333378Y-41387881D01*
X49145436Y-41420175D01*
X49145435Y-41420175D01*
X49139739Y-41421154D01*
X48949983Y-41491159D01*
X48776161Y-41594572D01*
X48624095Y-41727930D01*
X48498879Y-41886767D01*
X48404704Y-42065763D01*
X48344727Y-42258923D01*
X48320954Y-42459779D01*
X48334182Y-42661604D01*
X48383968Y-42857638D01*
X48468646Y-43041317D01*
X48520516Y-43114711D01*
X48570742Y-43185780D01*
X48593723Y-43252954D01*
X48576738Y-43321889D01*
X48525181Y-43370699D01*
X48467845Y-43384500D01*
X47864807Y-43384500D01*
X47796686Y-43364498D01*
X47775712Y-43347595D01*
X47762672Y-43334555D01*
X47728646Y-43272243D01*
X47733711Y-43201428D01*
X47754893Y-43164891D01*
X47792936Y-43119149D01*
X47796627Y-43114711D01*
X47895454Y-42938241D01*
X47960468Y-42746717D01*
X47961297Y-42741001D01*
X47961298Y-42740996D01*
X47988957Y-42550226D01*
X47989490Y-42546552D01*
X47991005Y-42488710D01*
X47972498Y-42287301D01*
X47917597Y-42092636D01*
X47828141Y-41911237D01*
X47809869Y-41886767D01*
X47710578Y-41753801D01*
X47710577Y-41753800D01*
X47707125Y-41749177D01*
X47684140Y-41727930D01*
X47562843Y-41615804D01*
X47562841Y-41615802D01*
X47558602Y-41611884D01*
X47531164Y-41594572D01*
X47392427Y-41507035D01*
X47387547Y-41503956D01*
X47199688Y-41429008D01*
X47001316Y-41389549D01*
X46995542Y-41389473D01*
X46995538Y-41389473D01*
X46893047Y-41388132D01*
X46799076Y-41386902D01*
X46793379Y-41387881D01*
X46793378Y-41387881D01*
X46605436Y-41420175D01*
X46605435Y-41420175D01*
X46599739Y-41421154D01*
X46409983Y-41491159D01*
X46236161Y-41594572D01*
X46084095Y-41727930D01*
X45958879Y-41886767D01*
X45864704Y-42065763D01*
X45804727Y-42258923D01*
X45780954Y-42459779D01*
X45794182Y-42661604D01*
X45843968Y-42857638D01*
X45928646Y-43041317D01*
X45931979Y-43046033D01*
X46041801Y-43201428D01*
X46045378Y-43206490D01*
X46190256Y-43347623D01*
X46195060Y-43350833D01*
X46245269Y-43384382D01*
X46358427Y-43459992D01*
X46363730Y-43462270D01*
X46363733Y-43462272D01*
X46526754Y-43532311D01*
X46544260Y-43539832D01*
X46741530Y-43584470D01*
X46747299Y-43584697D01*
X46747302Y-43584697D01*
X46863831Y-43589275D01*
X46909781Y-43591080D01*
X46977064Y-43613741D01*
X46993931Y-43627888D01*
X47080354Y-43714312D01*
X47114379Y-43776624D01*
X47109313Y-43847440D01*
X47066766Y-43904276D01*
X47000246Y-43929086D01*
X46989614Y-43929396D01*
X46799076Y-43926902D01*
X46793379Y-43927881D01*
X46793378Y-43927881D01*
X46605436Y-43960175D01*
X46605435Y-43960175D01*
X46599739Y-43961154D01*
X46409983Y-44031159D01*
X46236161Y-44134572D01*
X46084095Y-44267930D01*
X45958879Y-44426767D01*
X45864704Y-44605763D01*
X45804727Y-44798923D01*
X45780954Y-44999779D01*
X45794182Y-45201604D01*
X45843968Y-45397638D01*
X45928646Y-45581317D01*
X45931979Y-45586033D01*
X46041801Y-45741428D01*
X46045378Y-45746490D01*
X46190256Y-45887623D01*
X46195060Y-45890833D01*
X46200545Y-45894498D01*
X46358427Y-45999992D01*
X46363730Y-46002270D01*
X46363733Y-46002272D01*
X46464499Y-46045564D01*
X46519192Y-46090832D01*
X46540729Y-46158483D01*
X46522272Y-46227039D01*
X46469681Y-46274733D01*
X46453906Y-46281097D01*
X46362658Y-46310922D01*
X46353149Y-46314919D01*
X46164253Y-46413252D01*
X46155528Y-46418746D01*
X45985223Y-46546615D01*
X45977516Y-46553458D01*
X45830380Y-46707427D01*
X45823894Y-46715437D01*
X45703888Y-46891359D01*
X45698790Y-46900333D01*
X45609128Y-47093493D01*
X45605565Y-47103180D01*
X45550179Y-47302893D01*
X43750000Y-47302893D01*
X43750000Y-39919779D01*
X45780954Y-39919779D01*
X45794182Y-40121604D01*
X45795605Y-40127206D01*
X45827626Y-40253289D01*
X45843968Y-40317638D01*
X45928646Y-40501317D01*
X46045378Y-40666490D01*
X46190256Y-40807623D01*
X46358427Y-40919992D01*
X46363730Y-40922270D01*
X46363733Y-40922272D01*
X46452081Y-40960229D01*
X46544260Y-40999832D01*
X46741530Y-41044470D01*
X46747299Y-41044697D01*
X46747302Y-41044697D01*
X46823473Y-41047689D01*
X46943632Y-41052410D01*
X47029922Y-41039899D01*
X47138076Y-41024218D01*
X47138081Y-41024217D01*
X47143797Y-41023388D01*
X47149269Y-41021530D01*
X47149271Y-41021530D01*
X47329857Y-40960229D01*
X47329859Y-40960228D01*
X47335321Y-40958374D01*
X47511791Y-40859547D01*
X47574223Y-40807623D01*
X47662863Y-40733901D01*
X47667295Y-40730215D01*
X47796627Y-40574711D01*
X47895454Y-40398241D01*
X47960468Y-40206717D01*
X47961297Y-40201001D01*
X47961298Y-40200996D01*
X47988957Y-40010226D01*
X47989490Y-40006552D01*
X47991005Y-39948710D01*
X47988347Y-39919779D01*
X48320954Y-39919779D01*
X48334182Y-40121604D01*
X48335605Y-40127206D01*
X48367626Y-40253289D01*
X48383968Y-40317638D01*
X48468646Y-40501317D01*
X48585378Y-40666490D01*
X48730256Y-40807623D01*
X48898427Y-40919992D01*
X48903730Y-40922270D01*
X48903733Y-40922272D01*
X48992081Y-40960229D01*
X49084260Y-40999832D01*
X49281530Y-41044470D01*
X49287299Y-41044697D01*
X49287302Y-41044697D01*
X49363473Y-41047689D01*
X49483632Y-41052410D01*
X49569922Y-41039899D01*
X49678076Y-41024218D01*
X49678081Y-41024217D01*
X49683797Y-41023388D01*
X49689269Y-41021530D01*
X49689271Y-41021530D01*
X49869857Y-40960229D01*
X49869859Y-40960228D01*
X49875321Y-40958374D01*
X50051791Y-40859547D01*
X50114223Y-40807623D01*
X50202863Y-40733901D01*
X50207295Y-40730215D01*
X50336627Y-40574711D01*
X50435454Y-40398241D01*
X50500468Y-40206717D01*
X50501297Y-40201001D01*
X50501298Y-40200996D01*
X50528957Y-40010226D01*
X50529490Y-40006552D01*
X50531005Y-39948710D01*
X50520097Y-39830000D01*
X60741379Y-39830000D01*
X60761777Y-39984935D01*
X60821579Y-40129310D01*
X60826606Y-40135861D01*
X60885176Y-40212191D01*
X60916711Y-40253289D01*
X60923261Y-40258315D01*
X60923264Y-40258318D01*
X60978700Y-40300855D01*
X61040689Y-40348421D01*
X61185065Y-40408223D01*
X61340000Y-40428621D01*
X61494935Y-40408223D01*
X61639311Y-40348421D01*
X61701300Y-40300855D01*
X61756736Y-40258318D01*
X61756739Y-40258315D01*
X61763289Y-40253289D01*
X61794825Y-40212191D01*
X61853394Y-40135861D01*
X61858421Y-40129310D01*
X61918223Y-39984935D01*
X61938621Y-39830000D01*
X61918223Y-39675065D01*
X61858421Y-39530690D01*
X61763289Y-39406711D01*
X61756739Y-39401685D01*
X61756736Y-39401682D01*
X61691828Y-39351877D01*
X61639311Y-39311579D01*
X61494935Y-39251777D01*
X61340000Y-39231379D01*
X61185065Y-39251777D01*
X61040690Y-39311579D01*
X60916711Y-39406711D01*
X60821579Y-39530690D01*
X60761777Y-39675065D01*
X60741379Y-39830000D01*
X50520097Y-39830000D01*
X50512498Y-39747301D01*
X50457597Y-39552636D01*
X50368141Y-39371237D01*
X50349869Y-39346767D01*
X50250578Y-39213801D01*
X50250577Y-39213800D01*
X50247125Y-39209177D01*
X50224140Y-39187930D01*
X50102843Y-39075804D01*
X50102841Y-39075802D01*
X50098602Y-39071884D01*
X50071164Y-39054572D01*
X49986724Y-39001294D01*
X63203066Y-39001294D01*
X63212948Y-39013783D01*
X63244239Y-39034691D01*
X63254349Y-39040181D01*
X63430835Y-39116005D01*
X63441778Y-39119560D01*
X63629120Y-39161952D01*
X63640530Y-39163454D01*
X63832469Y-39170995D01*
X63843951Y-39170393D01*
X64034045Y-39142832D01*
X64045240Y-39140144D01*
X64227131Y-39078400D01*
X64237628Y-39073726D01*
X64348032Y-39011898D01*
X64357895Y-39001821D01*
X64354940Y-38994151D01*
X63792811Y-38432021D01*
X63778868Y-38424408D01*
X63777034Y-38424539D01*
X63770420Y-38428790D01*
X63209259Y-38989952D01*
X63203066Y-39001294D01*
X49986724Y-39001294D01*
X49932427Y-38967035D01*
X49927547Y-38963956D01*
X49739688Y-38889008D01*
X49541316Y-38849549D01*
X49535542Y-38849473D01*
X49535538Y-38849473D01*
X49433047Y-38848132D01*
X49339076Y-38846902D01*
X49333379Y-38847881D01*
X49333378Y-38847881D01*
X49145436Y-38880175D01*
X49145435Y-38880175D01*
X49139739Y-38881154D01*
X48949983Y-38951159D01*
X48945022Y-38954111D01*
X48945021Y-38954111D01*
X48864828Y-39001821D01*
X48776161Y-39054572D01*
X48624095Y-39187930D01*
X48498879Y-39346767D01*
X48404704Y-39525763D01*
X48344727Y-39718923D01*
X48320954Y-39919779D01*
X47988347Y-39919779D01*
X47972498Y-39747301D01*
X47917597Y-39552636D01*
X47828141Y-39371237D01*
X47809869Y-39346767D01*
X47710578Y-39213801D01*
X47710577Y-39213800D01*
X47707125Y-39209177D01*
X47684140Y-39187930D01*
X47562843Y-39075804D01*
X47562841Y-39075802D01*
X47558602Y-39071884D01*
X47531164Y-39054572D01*
X47392427Y-38967035D01*
X47387547Y-38963956D01*
X47199688Y-38889008D01*
X47001316Y-38849549D01*
X46995542Y-38849473D01*
X46995538Y-38849473D01*
X46893047Y-38848132D01*
X46799076Y-38846902D01*
X46793379Y-38847881D01*
X46793378Y-38847881D01*
X46605436Y-38880175D01*
X46605435Y-38880175D01*
X46599739Y-38881154D01*
X46409983Y-38951159D01*
X46405022Y-38954111D01*
X46405021Y-38954111D01*
X46324828Y-39001821D01*
X46236161Y-39054572D01*
X46084095Y-39187930D01*
X45958879Y-39346767D01*
X45864704Y-39525763D01*
X45804727Y-39718923D01*
X45780954Y-39919779D01*
X43750000Y-39919779D01*
X43750000Y-37379779D01*
X45780954Y-37379779D01*
X45794182Y-37581604D01*
X45843968Y-37777638D01*
X45928646Y-37961317D01*
X45931979Y-37966033D01*
X46007440Y-38072808D01*
X46045378Y-38126490D01*
X46190256Y-38267623D01*
X46195060Y-38270833D01*
X46259731Y-38314045D01*
X46358427Y-38379992D01*
X46363730Y-38382270D01*
X46363733Y-38382272D01*
X46479528Y-38432021D01*
X46544260Y-38459832D01*
X46741530Y-38504470D01*
X46747299Y-38504697D01*
X46747302Y-38504697D01*
X46823473Y-38507689D01*
X46943632Y-38512410D01*
X47029922Y-38499899D01*
X47138076Y-38484218D01*
X47138081Y-38484217D01*
X47143797Y-38483388D01*
X47149269Y-38481530D01*
X47149271Y-38481530D01*
X47329857Y-38420229D01*
X47329859Y-38420228D01*
X47335321Y-38418374D01*
X47457807Y-38349779D01*
X47506754Y-38322368D01*
X47506755Y-38322367D01*
X47511791Y-38319547D01*
X47528306Y-38305812D01*
X47662863Y-38193901D01*
X47667295Y-38190215D01*
X47796627Y-38034711D01*
X47895454Y-37858241D01*
X47945041Y-37712165D01*
X47958610Y-37672191D01*
X47958610Y-37672189D01*
X47960468Y-37666717D01*
X47961297Y-37661001D01*
X47961298Y-37660996D01*
X47986748Y-37485465D01*
X47989490Y-37466552D01*
X47991005Y-37408710D01*
X47988347Y-37379779D01*
X48320954Y-37379779D01*
X48334182Y-37581604D01*
X48383968Y-37777638D01*
X48468646Y-37961317D01*
X48471979Y-37966033D01*
X48547440Y-38072808D01*
X48585378Y-38126490D01*
X48730256Y-38267623D01*
X48735060Y-38270833D01*
X48799731Y-38314045D01*
X48898427Y-38379992D01*
X48903730Y-38382270D01*
X48903733Y-38382272D01*
X49019528Y-38432021D01*
X49084260Y-38459832D01*
X49281530Y-38504470D01*
X49287299Y-38504697D01*
X49287302Y-38504697D01*
X49363473Y-38507689D01*
X49483632Y-38512410D01*
X49569922Y-38499899D01*
X49678076Y-38484218D01*
X49678081Y-38484217D01*
X49683797Y-38483388D01*
X49689269Y-38481530D01*
X49689271Y-38481530D01*
X49869857Y-38420229D01*
X49869859Y-38420228D01*
X49875321Y-38418374D01*
X49997807Y-38349779D01*
X50046754Y-38322368D01*
X50046755Y-38322367D01*
X50051791Y-38319547D01*
X50068306Y-38305812D01*
X50202863Y-38193901D01*
X50207295Y-38190215D01*
X50315594Y-38060000D01*
X58724815Y-38060000D01*
X58725505Y-38066565D01*
X58732228Y-38130525D01*
X58743503Y-38237803D01*
X58745543Y-38244080D01*
X58745543Y-38244082D01*
X58751882Y-38263590D01*
X58798750Y-38407835D01*
X58802053Y-38413557D01*
X58802054Y-38413558D01*
X58841298Y-38481530D01*
X58888141Y-38562665D01*
X58892559Y-38567572D01*
X58892560Y-38567573D01*
X58955780Y-38637785D01*
X59007770Y-38695526D01*
X59152407Y-38800612D01*
X59158435Y-38803296D01*
X59158437Y-38803297D01*
X59264853Y-38850676D01*
X59315733Y-38873329D01*
X59384195Y-38887881D01*
X59484152Y-38909128D01*
X59484156Y-38909128D01*
X59490609Y-38910500D01*
X59669391Y-38910500D01*
X59675844Y-38909128D01*
X59675848Y-38909128D01*
X59775805Y-38887881D01*
X59844267Y-38873329D01*
X59895147Y-38850676D01*
X60001563Y-38803297D01*
X60001565Y-38803296D01*
X60007593Y-38800612D01*
X60152230Y-38695526D01*
X60186364Y-38657616D01*
X60246809Y-38620377D01*
X60317793Y-38621728D01*
X60373636Y-38657616D01*
X60407770Y-38695526D01*
X60552407Y-38800612D01*
X60558435Y-38803296D01*
X60558437Y-38803297D01*
X60664853Y-38850676D01*
X60715733Y-38873329D01*
X60784195Y-38887881D01*
X60884152Y-38909128D01*
X60884156Y-38909128D01*
X60890609Y-38910500D01*
X61069391Y-38910500D01*
X61075844Y-38909128D01*
X61075848Y-38909128D01*
X61175805Y-38887881D01*
X61244267Y-38873329D01*
X61295147Y-38850676D01*
X61401563Y-38803297D01*
X61401565Y-38803296D01*
X61407593Y-38800612D01*
X61552230Y-38695526D01*
X61586364Y-38657616D01*
X61646809Y-38620377D01*
X61717793Y-38621728D01*
X61773636Y-38657616D01*
X61807770Y-38695526D01*
X61952407Y-38800612D01*
X61958435Y-38803296D01*
X61958437Y-38803297D01*
X62064853Y-38850676D01*
X62115733Y-38873329D01*
X62184195Y-38887881D01*
X62284152Y-38909128D01*
X62284156Y-38909128D01*
X62290609Y-38910500D01*
X62469391Y-38910500D01*
X62475844Y-38909128D01*
X62475848Y-38909128D01*
X62575805Y-38887881D01*
X62644267Y-38873329D01*
X62695147Y-38850676D01*
X62801563Y-38803297D01*
X62801565Y-38803296D01*
X62807593Y-38800612D01*
X62952230Y-38695526D01*
X63004221Y-38637785D01*
X63067440Y-38567573D01*
X63067441Y-38567572D01*
X63071859Y-38562665D01*
X63118702Y-38481530D01*
X63157946Y-38413558D01*
X63157947Y-38413557D01*
X63161250Y-38407835D01*
X63194400Y-38305810D01*
X63225137Y-38255652D01*
X63407981Y-38072808D01*
X63414357Y-38061132D01*
X64144408Y-38061132D01*
X64144539Y-38062966D01*
X64148790Y-38069580D01*
X64710239Y-38631028D01*
X64722614Y-38637785D01*
X64729194Y-38632859D01*
X64793726Y-38517628D01*
X64798400Y-38507131D01*
X64860144Y-38325240D01*
X64862832Y-38314045D01*
X64890689Y-38121911D01*
X64891319Y-38114528D01*
X64892650Y-38063704D01*
X64892407Y-38056305D01*
X64874643Y-37862975D01*
X64872545Y-37851654D01*
X64820408Y-37666791D01*
X64816283Y-37656044D01*
X64732163Y-37485465D01*
X64724869Y-37479990D01*
X64712449Y-37486762D01*
X64152021Y-38047189D01*
X64144408Y-38061132D01*
X63414357Y-38061132D01*
X63415592Y-38058870D01*
X63415461Y-38057034D01*
X63411211Y-38050421D01*
X63225137Y-37864348D01*
X63194399Y-37814188D01*
X63182524Y-37777638D01*
X63161250Y-37712165D01*
X63071859Y-37557335D01*
X63002217Y-37479990D01*
X62956645Y-37429377D01*
X62956643Y-37429376D01*
X62952230Y-37424474D01*
X62807593Y-37319388D01*
X62801565Y-37316704D01*
X62801563Y-37316703D01*
X62650298Y-37249356D01*
X62650297Y-37249356D01*
X62644267Y-37246671D01*
X62556829Y-37228086D01*
X62475848Y-37210872D01*
X62475844Y-37210872D01*
X62469391Y-37209500D01*
X62290609Y-37209500D01*
X62284156Y-37210872D01*
X62284152Y-37210872D01*
X62203171Y-37228086D01*
X62115733Y-37246671D01*
X62109703Y-37249356D01*
X62109702Y-37249356D01*
X61958438Y-37316703D01*
X61958436Y-37316704D01*
X61952408Y-37319388D01*
X61807770Y-37424474D01*
X61773636Y-37462384D01*
X61713191Y-37499623D01*
X61642207Y-37498272D01*
X61586364Y-37462384D01*
X61552230Y-37424474D01*
X61407593Y-37319388D01*
X61401565Y-37316704D01*
X61401563Y-37316703D01*
X61250298Y-37249356D01*
X61250297Y-37249356D01*
X61244267Y-37246671D01*
X61156829Y-37228086D01*
X61075848Y-37210872D01*
X61075844Y-37210872D01*
X61069391Y-37209500D01*
X60890609Y-37209500D01*
X60884156Y-37210872D01*
X60884152Y-37210872D01*
X60803171Y-37228086D01*
X60715733Y-37246671D01*
X60709703Y-37249356D01*
X60709702Y-37249356D01*
X60558438Y-37316703D01*
X60558436Y-37316704D01*
X60552408Y-37319388D01*
X60407770Y-37424474D01*
X60373636Y-37462384D01*
X60313191Y-37499623D01*
X60242207Y-37498272D01*
X60186364Y-37462384D01*
X60152230Y-37424474D01*
X60007593Y-37319388D01*
X60001565Y-37316704D01*
X60001563Y-37316703D01*
X59850298Y-37249356D01*
X59850297Y-37249356D01*
X59844267Y-37246671D01*
X59756829Y-37228086D01*
X59675848Y-37210872D01*
X59675844Y-37210872D01*
X59669391Y-37209500D01*
X59490609Y-37209500D01*
X59484156Y-37210872D01*
X59484152Y-37210872D01*
X59403171Y-37228086D01*
X59315733Y-37246671D01*
X59309703Y-37249356D01*
X59309702Y-37249356D01*
X59158438Y-37316703D01*
X59158436Y-37316704D01*
X59152408Y-37319388D01*
X59007770Y-37424474D01*
X59003357Y-37429376D01*
X59003355Y-37429377D01*
X58957783Y-37479990D01*
X58888141Y-37557335D01*
X58798750Y-37712165D01*
X58796708Y-37718450D01*
X58749303Y-37864348D01*
X58743503Y-37882197D01*
X58742813Y-37888760D01*
X58742813Y-37888761D01*
X58725822Y-38050421D01*
X58724815Y-38060000D01*
X50315594Y-38060000D01*
X50336627Y-38034711D01*
X50435454Y-37858241D01*
X50485041Y-37712165D01*
X50498610Y-37672191D01*
X50498610Y-37672189D01*
X50500468Y-37666717D01*
X50501297Y-37661001D01*
X50501298Y-37660996D01*
X50526748Y-37485465D01*
X50529490Y-37466552D01*
X50531005Y-37408710D01*
X50512498Y-37207301D01*
X50487503Y-37118675D01*
X63202788Y-37118675D01*
X63206275Y-37127064D01*
X63767189Y-37687979D01*
X63781132Y-37695592D01*
X63782966Y-37695461D01*
X63789580Y-37691210D01*
X64350285Y-37130504D01*
X64357042Y-37118129D01*
X64351012Y-37110073D01*
X64290061Y-37071616D01*
X64279813Y-37066395D01*
X64101401Y-36995216D01*
X64090373Y-36991949D01*
X63901982Y-36954476D01*
X63890535Y-36953273D01*
X63698477Y-36950759D01*
X63686997Y-36951662D01*
X63497697Y-36984190D01*
X63486577Y-36987170D01*
X63306365Y-37053653D01*
X63295991Y-37058601D01*
X63212385Y-37108342D01*
X63202788Y-37118675D01*
X50487503Y-37118675D01*
X50457597Y-37012636D01*
X50368141Y-36831237D01*
X50349869Y-36806767D01*
X50250578Y-36673801D01*
X50250577Y-36673800D01*
X50247125Y-36669177D01*
X50224140Y-36647930D01*
X50102843Y-36535804D01*
X50102841Y-36535802D01*
X50098602Y-36531884D01*
X50071164Y-36514572D01*
X49932427Y-36427035D01*
X49927547Y-36423956D01*
X49739688Y-36349008D01*
X49541316Y-36309549D01*
X49535542Y-36309473D01*
X49535538Y-36309473D01*
X49433047Y-36308132D01*
X49339076Y-36306902D01*
X49333379Y-36307881D01*
X49333378Y-36307881D01*
X49145436Y-36340175D01*
X49145435Y-36340175D01*
X49139739Y-36341154D01*
X48949983Y-36411159D01*
X48776161Y-36514572D01*
X48624095Y-36647930D01*
X48498879Y-36806767D01*
X48404704Y-36985763D01*
X48344727Y-37178923D01*
X48320954Y-37379779D01*
X47988347Y-37379779D01*
X47972498Y-37207301D01*
X47917597Y-37012636D01*
X47828141Y-36831237D01*
X47809869Y-36806767D01*
X47710578Y-36673801D01*
X47710577Y-36673800D01*
X47707125Y-36669177D01*
X47684140Y-36647930D01*
X47562843Y-36535804D01*
X47562841Y-36535802D01*
X47558602Y-36531884D01*
X47531164Y-36514572D01*
X47392427Y-36427035D01*
X47387547Y-36423956D01*
X47199688Y-36349008D01*
X47001316Y-36309549D01*
X46995542Y-36309473D01*
X46995538Y-36309473D01*
X46893047Y-36308132D01*
X46799076Y-36306902D01*
X46793379Y-36307881D01*
X46793378Y-36307881D01*
X46605436Y-36340175D01*
X46605435Y-36340175D01*
X46599739Y-36341154D01*
X46409983Y-36411159D01*
X46236161Y-36514572D01*
X46084095Y-36647930D01*
X45958879Y-36806767D01*
X45864704Y-36985763D01*
X45804727Y-37178923D01*
X45780954Y-37379779D01*
X43750000Y-37379779D01*
X43750000Y-34839779D01*
X45780954Y-34839779D01*
X45794182Y-35041604D01*
X45843968Y-35237638D01*
X45928646Y-35421317D01*
X45931979Y-35426033D01*
X46041218Y-35580603D01*
X46045378Y-35586490D01*
X46190256Y-35727623D01*
X46358427Y-35839992D01*
X46363730Y-35842270D01*
X46363733Y-35842272D01*
X46452081Y-35880229D01*
X46544260Y-35919832D01*
X46741530Y-35964470D01*
X46747299Y-35964697D01*
X46747302Y-35964697D01*
X46823473Y-35967689D01*
X46943632Y-35972410D01*
X47051012Y-35956841D01*
X47138076Y-35944218D01*
X47138081Y-35944217D01*
X47143797Y-35943388D01*
X47149269Y-35941530D01*
X47149271Y-35941530D01*
X47329857Y-35880229D01*
X47329859Y-35880228D01*
X47335321Y-35878374D01*
X47511791Y-35779547D01*
X47574223Y-35727623D01*
X47662863Y-35653901D01*
X47667295Y-35650215D01*
X47796627Y-35494711D01*
X47895454Y-35318241D01*
X47960468Y-35126717D01*
X47961297Y-35121001D01*
X47961298Y-35120996D01*
X47988957Y-34930226D01*
X47989490Y-34926552D01*
X47991005Y-34868710D01*
X47988347Y-34839779D01*
X48320954Y-34839779D01*
X48334182Y-35041604D01*
X48383968Y-35237638D01*
X48468646Y-35421317D01*
X48471979Y-35426033D01*
X48581218Y-35580603D01*
X48585378Y-35586490D01*
X48730256Y-35727623D01*
X48898427Y-35839992D01*
X48903730Y-35842270D01*
X48903733Y-35842272D01*
X48992081Y-35880229D01*
X49084260Y-35919832D01*
X49281530Y-35964470D01*
X49287299Y-35964697D01*
X49287302Y-35964697D01*
X49363473Y-35967689D01*
X49483632Y-35972410D01*
X49591012Y-35956841D01*
X49678076Y-35944218D01*
X49678081Y-35944217D01*
X49683797Y-35943388D01*
X49689269Y-35941530D01*
X49689271Y-35941530D01*
X49869857Y-35880229D01*
X49869859Y-35880228D01*
X49875321Y-35878374D01*
X50051791Y-35779547D01*
X50114223Y-35727623D01*
X50202863Y-35653901D01*
X50207295Y-35650215D01*
X50336627Y-35494711D01*
X50369138Y-35436657D01*
X58152000Y-35436657D01*
X58152301Y-35442805D01*
X58165812Y-35580603D01*
X58168195Y-35592638D01*
X58221767Y-35770076D01*
X58226441Y-35781416D01*
X58313460Y-35945077D01*
X58320249Y-35955294D01*
X58437397Y-36098933D01*
X58446041Y-36107637D01*
X58588856Y-36225784D01*
X58599027Y-36232644D01*
X58762076Y-36320804D01*
X58773381Y-36325556D01*
X58888692Y-36361250D01*
X58902795Y-36361456D01*
X58906000Y-36354701D01*
X58906000Y-36347924D01*
X59414000Y-36347924D01*
X59417973Y-36361455D01*
X59425768Y-36362575D01*
X59533521Y-36330862D01*
X59544889Y-36326269D01*
X59709154Y-36240393D01*
X59719415Y-36233679D01*
X59863873Y-36117532D01*
X59872632Y-36108954D01*
X59991778Y-35966961D01*
X59998708Y-35956841D01*
X60088002Y-35794415D01*
X60092834Y-35783142D01*
X60148880Y-35606462D01*
X60151430Y-35594468D01*
X60167607Y-35450239D01*
X60168000Y-35443215D01*
X60168000Y-35436657D01*
X63492000Y-35436657D01*
X63492301Y-35442805D01*
X63505812Y-35580603D01*
X63508195Y-35592638D01*
X63561767Y-35770076D01*
X63566441Y-35781416D01*
X63653460Y-35945077D01*
X63660249Y-35955294D01*
X63777397Y-36098933D01*
X63786041Y-36107637D01*
X63928856Y-36225784D01*
X63939027Y-36232644D01*
X64102076Y-36320804D01*
X64113381Y-36325556D01*
X64228692Y-36361250D01*
X64242795Y-36361456D01*
X64246000Y-36354701D01*
X64246000Y-36347924D01*
X64754000Y-36347924D01*
X64757973Y-36361455D01*
X64765768Y-36362575D01*
X64873521Y-36330862D01*
X64884889Y-36326269D01*
X65049154Y-36240393D01*
X65059415Y-36233679D01*
X65203873Y-36117532D01*
X65212632Y-36108954D01*
X65331778Y-35966961D01*
X65338708Y-35956841D01*
X65428002Y-35794415D01*
X65432834Y-35783142D01*
X65488880Y-35606462D01*
X65491430Y-35594468D01*
X65507607Y-35450239D01*
X65508000Y-35443215D01*
X65508000Y-35062115D01*
X65503525Y-35046876D01*
X65502135Y-35045671D01*
X65494452Y-35044000D01*
X64772115Y-35044000D01*
X64756876Y-35048475D01*
X64755671Y-35049865D01*
X64754000Y-35057548D01*
X64754000Y-36347924D01*
X64246000Y-36347924D01*
X64246000Y-35062115D01*
X64241525Y-35046876D01*
X64240135Y-35045671D01*
X64232452Y-35044000D01*
X63510115Y-35044000D01*
X63494876Y-35048475D01*
X63493671Y-35049865D01*
X63492000Y-35057548D01*
X63492000Y-35436657D01*
X60168000Y-35436657D01*
X60168000Y-35062115D01*
X60163525Y-35046876D01*
X60162135Y-35045671D01*
X60154452Y-35044000D01*
X59432115Y-35044000D01*
X59416876Y-35048475D01*
X59415671Y-35049865D01*
X59414000Y-35057548D01*
X59414000Y-36347924D01*
X58906000Y-36347924D01*
X58906000Y-35062115D01*
X58901525Y-35046876D01*
X58900135Y-35045671D01*
X58892452Y-35044000D01*
X58170115Y-35044000D01*
X58154876Y-35048475D01*
X58153671Y-35049865D01*
X58152000Y-35057548D01*
X58152000Y-35436657D01*
X50369138Y-35436657D01*
X50435454Y-35318241D01*
X50500468Y-35126717D01*
X50501297Y-35121001D01*
X50501298Y-35120996D01*
X50528957Y-34930226D01*
X50529490Y-34926552D01*
X50531005Y-34868710D01*
X50512498Y-34667301D01*
X50470358Y-34517885D01*
X58152000Y-34517885D01*
X58156475Y-34533124D01*
X58157865Y-34534329D01*
X58165548Y-34536000D01*
X58887885Y-34536000D01*
X58903124Y-34531525D01*
X58904329Y-34530135D01*
X58906000Y-34522452D01*
X58906000Y-34517885D01*
X59414000Y-34517885D01*
X59418475Y-34533124D01*
X59419865Y-34534329D01*
X59427548Y-34536000D01*
X60149885Y-34536000D01*
X60165124Y-34531525D01*
X60166329Y-34530135D01*
X60168000Y-34522452D01*
X60168000Y-34517885D01*
X63492000Y-34517885D01*
X63496475Y-34533124D01*
X63497865Y-34534329D01*
X63505548Y-34536000D01*
X64227885Y-34536000D01*
X64243124Y-34531525D01*
X64244329Y-34530135D01*
X64246000Y-34522452D01*
X64246000Y-34517885D01*
X64754000Y-34517885D01*
X64758475Y-34533124D01*
X64759865Y-34534329D01*
X64767548Y-34536000D01*
X65489885Y-34536000D01*
X65505124Y-34531525D01*
X65506329Y-34530135D01*
X65508000Y-34522452D01*
X65508000Y-34143343D01*
X65507699Y-34137195D01*
X65494188Y-33999397D01*
X65491805Y-33987362D01*
X65438233Y-33809924D01*
X65433559Y-33798584D01*
X65346540Y-33634923D01*
X65339751Y-33624706D01*
X65222603Y-33481067D01*
X65213959Y-33472363D01*
X65071144Y-33354216D01*
X65060973Y-33347356D01*
X64897924Y-33259196D01*
X64886619Y-33254444D01*
X64771308Y-33218750D01*
X64757205Y-33218544D01*
X64754000Y-33225299D01*
X64754000Y-34517885D01*
X64246000Y-34517885D01*
X64246000Y-33232076D01*
X64242027Y-33218545D01*
X64234232Y-33217425D01*
X64126479Y-33249138D01*
X64115111Y-33253731D01*
X63950846Y-33339607D01*
X63940585Y-33346321D01*
X63796127Y-33462468D01*
X63787368Y-33471046D01*
X63668222Y-33613039D01*
X63661292Y-33623159D01*
X63571998Y-33785585D01*
X63567166Y-33796858D01*
X63511120Y-33973538D01*
X63508570Y-33985532D01*
X63492393Y-34129761D01*
X63492000Y-34136785D01*
X63492000Y-34517885D01*
X60168000Y-34517885D01*
X60168000Y-34143343D01*
X60167699Y-34137195D01*
X60154188Y-33999397D01*
X60151805Y-33987362D01*
X60098233Y-33809924D01*
X60093559Y-33798584D01*
X60006540Y-33634923D01*
X59999751Y-33624706D01*
X59882603Y-33481067D01*
X59873959Y-33472363D01*
X59731144Y-33354216D01*
X59720973Y-33347356D01*
X59557924Y-33259196D01*
X59546619Y-33254444D01*
X59431308Y-33218750D01*
X59417205Y-33218544D01*
X59414000Y-33225299D01*
X59414000Y-34517885D01*
X58906000Y-34517885D01*
X58906000Y-33232076D01*
X58902027Y-33218545D01*
X58894232Y-33217425D01*
X58786479Y-33249138D01*
X58775111Y-33253731D01*
X58610846Y-33339607D01*
X58600585Y-33346321D01*
X58456127Y-33462468D01*
X58447368Y-33471046D01*
X58328222Y-33613039D01*
X58321292Y-33623159D01*
X58231998Y-33785585D01*
X58227166Y-33796858D01*
X58171120Y-33973538D01*
X58168570Y-33985532D01*
X58152393Y-34129761D01*
X58152000Y-34136785D01*
X58152000Y-34517885D01*
X50470358Y-34517885D01*
X50457597Y-34472636D01*
X50368141Y-34291237D01*
X50349869Y-34266767D01*
X50250578Y-34133801D01*
X50250577Y-34133800D01*
X50247125Y-34129177D01*
X50224140Y-34107930D01*
X50102843Y-33995804D01*
X50102841Y-33995802D01*
X50098602Y-33991884D01*
X50071164Y-33974572D01*
X49932427Y-33887035D01*
X49927547Y-33883956D01*
X49739688Y-33809008D01*
X49541316Y-33769549D01*
X49535542Y-33769473D01*
X49535538Y-33769473D01*
X49433047Y-33768132D01*
X49339076Y-33766902D01*
X49333379Y-33767881D01*
X49333378Y-33767881D01*
X49145436Y-33800175D01*
X49145435Y-33800175D01*
X49139739Y-33801154D01*
X48949983Y-33871159D01*
X48776161Y-33974572D01*
X48624095Y-34107930D01*
X48498879Y-34266767D01*
X48404704Y-34445763D01*
X48344727Y-34638923D01*
X48320954Y-34839779D01*
X47988347Y-34839779D01*
X47972498Y-34667301D01*
X47917597Y-34472636D01*
X47828141Y-34291237D01*
X47809869Y-34266767D01*
X47710578Y-34133801D01*
X47710577Y-34133800D01*
X47707125Y-34129177D01*
X47684140Y-34107930D01*
X47562843Y-33995804D01*
X47562841Y-33995802D01*
X47558602Y-33991884D01*
X47531164Y-33974572D01*
X47392427Y-33887035D01*
X47387547Y-33883956D01*
X47199688Y-33809008D01*
X47001316Y-33769549D01*
X46995542Y-33769473D01*
X46995538Y-33769473D01*
X46893047Y-33768132D01*
X46799076Y-33766902D01*
X46793379Y-33767881D01*
X46793378Y-33767881D01*
X46605436Y-33800175D01*
X46605435Y-33800175D01*
X46599739Y-33801154D01*
X46409983Y-33871159D01*
X46236161Y-33974572D01*
X46084095Y-34107930D01*
X45958879Y-34266767D01*
X45864704Y-34445763D01*
X45804727Y-34638923D01*
X45780954Y-34839779D01*
X43750000Y-34839779D01*
X43750000Y-32299779D01*
X45780954Y-32299779D01*
X45794182Y-32501604D01*
X45843968Y-32697638D01*
X45928646Y-32881317D01*
X46045378Y-33046490D01*
X46190256Y-33187623D01*
X46358427Y-33299992D01*
X46363730Y-33302270D01*
X46363733Y-33302272D01*
X46484637Y-33354216D01*
X46544260Y-33379832D01*
X46741530Y-33424470D01*
X46747299Y-33424697D01*
X46747302Y-33424697D01*
X46823473Y-33427689D01*
X46943632Y-33432410D01*
X47029922Y-33419899D01*
X47138076Y-33404218D01*
X47138081Y-33404217D01*
X47143797Y-33403388D01*
X47149269Y-33401530D01*
X47149271Y-33401530D01*
X47329857Y-33340229D01*
X47329859Y-33340228D01*
X47335321Y-33338374D01*
X47485190Y-33254444D01*
X47506754Y-33242368D01*
X47506755Y-33242367D01*
X47511791Y-33239547D01*
X47574223Y-33187623D01*
X47662863Y-33113901D01*
X47667295Y-33110215D01*
X47796627Y-32954711D01*
X47895454Y-32778241D01*
X47960468Y-32586717D01*
X47961297Y-32581001D01*
X47961298Y-32580996D01*
X47987483Y-32400393D01*
X47989490Y-32386552D01*
X47991005Y-32328710D01*
X47988347Y-32299779D01*
X48320954Y-32299779D01*
X48334182Y-32501604D01*
X48383968Y-32697638D01*
X48468646Y-32881317D01*
X48585378Y-33046490D01*
X48730256Y-33187623D01*
X48898427Y-33299992D01*
X48903730Y-33302270D01*
X48903733Y-33302272D01*
X49024637Y-33354216D01*
X49084260Y-33379832D01*
X49281530Y-33424470D01*
X49287299Y-33424697D01*
X49287302Y-33424697D01*
X49363473Y-33427689D01*
X49483632Y-33432410D01*
X49569922Y-33419899D01*
X49678076Y-33404218D01*
X49678081Y-33404217D01*
X49683797Y-33403388D01*
X49689269Y-33401530D01*
X49689271Y-33401530D01*
X49869857Y-33340229D01*
X49869859Y-33340228D01*
X49875321Y-33338374D01*
X50025190Y-33254444D01*
X50046754Y-33242368D01*
X50046755Y-33242367D01*
X50051791Y-33239547D01*
X50114223Y-33187623D01*
X50202863Y-33113901D01*
X50207295Y-33110215D01*
X50336627Y-32954711D01*
X50435454Y-32778241D01*
X50500468Y-32586717D01*
X50501297Y-32581001D01*
X50501298Y-32580996D01*
X50527483Y-32400393D01*
X50529490Y-32386552D01*
X50531005Y-32328710D01*
X50512498Y-32127301D01*
X50457597Y-31932636D01*
X50368141Y-31751237D01*
X50349869Y-31726767D01*
X50252711Y-31596657D01*
X58152000Y-31596657D01*
X58152301Y-31602805D01*
X58165812Y-31740603D01*
X58168195Y-31752638D01*
X58221767Y-31930076D01*
X58226441Y-31941416D01*
X58313460Y-32105077D01*
X58320249Y-32115294D01*
X58437397Y-32258933D01*
X58446041Y-32267637D01*
X58588856Y-32385784D01*
X58599027Y-32392644D01*
X58762076Y-32480804D01*
X58773381Y-32485556D01*
X58888692Y-32521250D01*
X58902795Y-32521456D01*
X58906000Y-32514701D01*
X58906000Y-32507924D01*
X59414000Y-32507924D01*
X59417973Y-32521455D01*
X59425768Y-32522575D01*
X59533521Y-32490862D01*
X59544889Y-32486269D01*
X59709154Y-32400393D01*
X59719415Y-32393679D01*
X59863873Y-32277532D01*
X59872632Y-32268954D01*
X59991778Y-32126961D01*
X59998708Y-32116841D01*
X60088002Y-31954415D01*
X60092834Y-31943142D01*
X60148880Y-31766462D01*
X60151430Y-31754468D01*
X60167607Y-31610239D01*
X60168000Y-31603215D01*
X60168000Y-31596657D01*
X63492000Y-31596657D01*
X63492301Y-31602805D01*
X63505812Y-31740603D01*
X63508195Y-31752638D01*
X63561767Y-31930076D01*
X63566441Y-31941416D01*
X63653460Y-32105077D01*
X63660249Y-32115294D01*
X63777397Y-32258933D01*
X63786041Y-32267637D01*
X63928856Y-32385784D01*
X63939027Y-32392644D01*
X64102076Y-32480804D01*
X64113381Y-32485556D01*
X64228692Y-32521250D01*
X64242795Y-32521456D01*
X64246000Y-32514701D01*
X64246000Y-32507924D01*
X64754000Y-32507924D01*
X64757973Y-32521455D01*
X64765768Y-32522575D01*
X64873521Y-32490862D01*
X64884889Y-32486269D01*
X65049154Y-32400393D01*
X65059415Y-32393679D01*
X65203873Y-32277532D01*
X65212632Y-32268954D01*
X65331778Y-32126961D01*
X65338708Y-32116841D01*
X65428002Y-31954415D01*
X65432834Y-31943142D01*
X65488880Y-31766462D01*
X65491430Y-31754468D01*
X65507607Y-31610239D01*
X65508000Y-31603215D01*
X65508000Y-31222115D01*
X65503525Y-31206876D01*
X65502135Y-31205671D01*
X65494452Y-31204000D01*
X64772115Y-31204000D01*
X64756876Y-31208475D01*
X64755671Y-31209865D01*
X64754000Y-31217548D01*
X64754000Y-32507924D01*
X64246000Y-32507924D01*
X64246000Y-31222115D01*
X64241525Y-31206876D01*
X64240135Y-31205671D01*
X64232452Y-31204000D01*
X63510115Y-31204000D01*
X63494876Y-31208475D01*
X63493671Y-31209865D01*
X63492000Y-31217548D01*
X63492000Y-31596657D01*
X60168000Y-31596657D01*
X60168000Y-31222115D01*
X60163525Y-31206876D01*
X60162135Y-31205671D01*
X60154452Y-31204000D01*
X59432115Y-31204000D01*
X59416876Y-31208475D01*
X59415671Y-31209865D01*
X59414000Y-31217548D01*
X59414000Y-32507924D01*
X58906000Y-32507924D01*
X58906000Y-31222115D01*
X58901525Y-31206876D01*
X58900135Y-31205671D01*
X58892452Y-31204000D01*
X58170115Y-31204000D01*
X58154876Y-31208475D01*
X58153671Y-31209865D01*
X58152000Y-31217548D01*
X58152000Y-31596657D01*
X50252711Y-31596657D01*
X50250578Y-31593801D01*
X50250577Y-31593800D01*
X50247125Y-31589177D01*
X50224140Y-31567930D01*
X50102843Y-31455804D01*
X50102841Y-31455802D01*
X50098602Y-31451884D01*
X50071164Y-31434572D01*
X49932427Y-31347035D01*
X49927547Y-31343956D01*
X49739688Y-31269008D01*
X49541316Y-31229549D01*
X49535542Y-31229473D01*
X49535538Y-31229473D01*
X49433047Y-31228132D01*
X49339076Y-31226902D01*
X49333379Y-31227881D01*
X49333378Y-31227881D01*
X49145436Y-31260175D01*
X49145435Y-31260175D01*
X49139739Y-31261154D01*
X48949983Y-31331159D01*
X48776161Y-31434572D01*
X48624095Y-31567930D01*
X48498879Y-31726767D01*
X48404704Y-31905763D01*
X48344727Y-32098923D01*
X48320954Y-32299779D01*
X47988347Y-32299779D01*
X47972498Y-32127301D01*
X47917597Y-31932636D01*
X47828141Y-31751237D01*
X47809869Y-31726767D01*
X47710578Y-31593801D01*
X47710577Y-31593800D01*
X47707125Y-31589177D01*
X47684140Y-31567930D01*
X47562843Y-31455804D01*
X47562841Y-31455802D01*
X47558602Y-31451884D01*
X47531164Y-31434572D01*
X47392427Y-31347035D01*
X47387547Y-31343956D01*
X47199688Y-31269008D01*
X47001316Y-31229549D01*
X46995542Y-31229473D01*
X46995538Y-31229473D01*
X46893047Y-31228132D01*
X46799076Y-31226902D01*
X46793379Y-31227881D01*
X46793378Y-31227881D01*
X46605436Y-31260175D01*
X46605435Y-31260175D01*
X46599739Y-31261154D01*
X46409983Y-31331159D01*
X46236161Y-31434572D01*
X46084095Y-31567930D01*
X45958879Y-31726767D01*
X45864704Y-31905763D01*
X45804727Y-32098923D01*
X45780954Y-32299779D01*
X43750000Y-32299779D01*
X43750000Y-29759779D01*
X45780954Y-29759779D01*
X45794182Y-29961604D01*
X45843968Y-30157638D01*
X45928646Y-30341317D01*
X46045378Y-30506490D01*
X46190256Y-30647623D01*
X46358427Y-30759992D01*
X46363730Y-30762270D01*
X46363733Y-30762272D01*
X46452081Y-30800229D01*
X46544260Y-30839832D01*
X46741530Y-30884470D01*
X46747299Y-30884697D01*
X46747302Y-30884697D01*
X46823473Y-30887689D01*
X46943632Y-30892410D01*
X47029922Y-30879899D01*
X47138076Y-30864218D01*
X47138081Y-30864217D01*
X47143797Y-30863388D01*
X47149269Y-30861530D01*
X47149271Y-30861530D01*
X47329857Y-30800229D01*
X47329859Y-30800228D01*
X47335321Y-30798374D01*
X47511791Y-30699547D01*
X47574223Y-30647623D01*
X47662863Y-30573901D01*
X47667295Y-30570215D01*
X47796627Y-30414711D01*
X47895454Y-30238241D01*
X47926304Y-30147362D01*
X47958610Y-30052191D01*
X47958610Y-30052189D01*
X47960468Y-30046717D01*
X47961297Y-30041001D01*
X47961298Y-30040996D01*
X47988957Y-29850226D01*
X47989490Y-29846552D01*
X47991005Y-29788710D01*
X47988347Y-29759779D01*
X48320954Y-29759779D01*
X48334182Y-29961604D01*
X48383968Y-30157638D01*
X48468646Y-30341317D01*
X48585378Y-30506490D01*
X48730256Y-30647623D01*
X48898427Y-30759992D01*
X48903730Y-30762270D01*
X48903733Y-30762272D01*
X48992081Y-30800229D01*
X49084260Y-30839832D01*
X49281530Y-30884470D01*
X49287299Y-30884697D01*
X49287302Y-30884697D01*
X49363473Y-30887689D01*
X49483632Y-30892410D01*
X49569922Y-30879899D01*
X49678076Y-30864218D01*
X49678081Y-30864217D01*
X49683797Y-30863388D01*
X49689269Y-30861530D01*
X49689271Y-30861530D01*
X49869857Y-30800229D01*
X49869859Y-30800228D01*
X49875321Y-30798374D01*
X50051791Y-30699547D01*
X50077837Y-30677885D01*
X58152000Y-30677885D01*
X58156475Y-30693124D01*
X58157865Y-30694329D01*
X58165548Y-30696000D01*
X58887885Y-30696000D01*
X58903124Y-30691525D01*
X58904329Y-30690135D01*
X58906000Y-30682452D01*
X58906000Y-30677885D01*
X59414000Y-30677885D01*
X59418475Y-30693124D01*
X59419865Y-30694329D01*
X59427548Y-30696000D01*
X60149885Y-30696000D01*
X60165124Y-30691525D01*
X60166329Y-30690135D01*
X60168000Y-30682452D01*
X60168000Y-30677885D01*
X63492000Y-30677885D01*
X63496475Y-30693124D01*
X63497865Y-30694329D01*
X63505548Y-30696000D01*
X64227885Y-30696000D01*
X64243124Y-30691525D01*
X64244329Y-30690135D01*
X64246000Y-30682452D01*
X64246000Y-30677885D01*
X64754000Y-30677885D01*
X64758475Y-30693124D01*
X64759865Y-30694329D01*
X64767548Y-30696000D01*
X65489885Y-30696000D01*
X65505124Y-30691525D01*
X65506329Y-30690135D01*
X65508000Y-30682452D01*
X65508000Y-30303343D01*
X65507699Y-30297195D01*
X65494188Y-30159397D01*
X65491805Y-30147362D01*
X65438233Y-29969924D01*
X65433559Y-29958584D01*
X65346540Y-29794923D01*
X65339751Y-29784706D01*
X65222603Y-29641067D01*
X65213959Y-29632363D01*
X65071144Y-29514216D01*
X65060973Y-29507356D01*
X64897924Y-29419196D01*
X64886619Y-29414444D01*
X64771308Y-29378750D01*
X64757205Y-29378544D01*
X64754000Y-29385299D01*
X64754000Y-30677885D01*
X64246000Y-30677885D01*
X64246000Y-29392076D01*
X64242027Y-29378545D01*
X64234232Y-29377425D01*
X64126479Y-29409138D01*
X64115111Y-29413731D01*
X63950846Y-29499607D01*
X63940585Y-29506321D01*
X63796127Y-29622468D01*
X63787368Y-29631046D01*
X63668222Y-29773039D01*
X63661292Y-29783159D01*
X63571998Y-29945585D01*
X63567166Y-29956858D01*
X63511120Y-30133538D01*
X63508570Y-30145532D01*
X63492393Y-30289761D01*
X63492000Y-30296785D01*
X63492000Y-30677885D01*
X60168000Y-30677885D01*
X60168000Y-30303343D01*
X60167699Y-30297195D01*
X60154188Y-30159397D01*
X60151805Y-30147362D01*
X60098233Y-29969924D01*
X60093559Y-29958584D01*
X60006540Y-29794923D01*
X59999751Y-29784706D01*
X59882603Y-29641067D01*
X59873959Y-29632363D01*
X59731144Y-29514216D01*
X59720973Y-29507356D01*
X59557924Y-29419196D01*
X59546619Y-29414444D01*
X59431308Y-29378750D01*
X59417205Y-29378544D01*
X59414000Y-29385299D01*
X59414000Y-30677885D01*
X58906000Y-30677885D01*
X58906000Y-29392076D01*
X58902027Y-29378545D01*
X58894232Y-29377425D01*
X58786479Y-29409138D01*
X58775111Y-29413731D01*
X58610846Y-29499607D01*
X58600585Y-29506321D01*
X58456127Y-29622468D01*
X58447368Y-29631046D01*
X58328222Y-29773039D01*
X58321292Y-29783159D01*
X58231998Y-29945585D01*
X58227166Y-29956858D01*
X58171120Y-30133538D01*
X58168570Y-30145532D01*
X58152393Y-30289761D01*
X58152000Y-30296785D01*
X58152000Y-30677885D01*
X50077837Y-30677885D01*
X50114223Y-30647623D01*
X50202863Y-30573901D01*
X50207295Y-30570215D01*
X50336627Y-30414711D01*
X50435454Y-30238241D01*
X50466304Y-30147362D01*
X50498610Y-30052191D01*
X50498610Y-30052189D01*
X50500468Y-30046717D01*
X50501297Y-30041001D01*
X50501298Y-30040996D01*
X50528957Y-29850226D01*
X50529490Y-29846552D01*
X50531005Y-29788710D01*
X50512498Y-29587301D01*
X50457597Y-29392636D01*
X50368141Y-29211237D01*
X50349869Y-29186767D01*
X50250578Y-29053801D01*
X50250577Y-29053800D01*
X50247125Y-29049177D01*
X50224140Y-29027930D01*
X50102843Y-28915804D01*
X50102841Y-28915802D01*
X50098602Y-28911884D01*
X50071164Y-28894572D01*
X49932427Y-28807035D01*
X49927547Y-28803956D01*
X49739688Y-28729008D01*
X49541316Y-28689549D01*
X49535542Y-28689473D01*
X49535538Y-28689473D01*
X49433047Y-28688132D01*
X49339076Y-28686902D01*
X49333379Y-28687881D01*
X49333378Y-28687881D01*
X49145436Y-28720175D01*
X49145435Y-28720175D01*
X49139739Y-28721154D01*
X48949983Y-28791159D01*
X48776161Y-28894572D01*
X48624095Y-29027930D01*
X48498879Y-29186767D01*
X48404704Y-29365763D01*
X48344727Y-29558923D01*
X48320954Y-29759779D01*
X47988347Y-29759779D01*
X47972498Y-29587301D01*
X47917597Y-29392636D01*
X47828141Y-29211237D01*
X47809869Y-29186767D01*
X47710578Y-29053801D01*
X47710577Y-29053800D01*
X47707125Y-29049177D01*
X47684140Y-29027930D01*
X47562843Y-28915804D01*
X47562841Y-28915802D01*
X47558602Y-28911884D01*
X47531164Y-28894572D01*
X47392427Y-28807035D01*
X47387547Y-28803956D01*
X47199688Y-28729008D01*
X47001316Y-28689549D01*
X46995542Y-28689473D01*
X46995538Y-28689473D01*
X46893047Y-28688132D01*
X46799076Y-28686902D01*
X46793379Y-28687881D01*
X46793378Y-28687881D01*
X46605436Y-28720175D01*
X46605435Y-28720175D01*
X46599739Y-28721154D01*
X46409983Y-28791159D01*
X46236161Y-28894572D01*
X46084095Y-29027930D01*
X45958879Y-29186767D01*
X45864704Y-29365763D01*
X45804727Y-29558923D01*
X45780954Y-29759779D01*
X43750000Y-29759779D01*
X43750000Y-27219779D01*
X45780954Y-27219779D01*
X45794182Y-27421604D01*
X45843968Y-27617638D01*
X45928646Y-27801317D01*
X46045378Y-27966490D01*
X46190256Y-28107623D01*
X46358427Y-28219992D01*
X46363730Y-28222270D01*
X46363733Y-28222272D01*
X46538953Y-28297552D01*
X46544260Y-28299832D01*
X46741530Y-28344470D01*
X46747299Y-28344697D01*
X46747302Y-28344697D01*
X46823473Y-28347689D01*
X46943632Y-28352410D01*
X47029922Y-28339899D01*
X47138076Y-28324218D01*
X47138081Y-28324217D01*
X47143797Y-28323388D01*
X47149269Y-28321530D01*
X47149271Y-28321530D01*
X47329857Y-28260229D01*
X47329859Y-28260228D01*
X47335321Y-28258374D01*
X47511791Y-28159547D01*
X47555272Y-28123384D01*
X48325290Y-28123384D01*
X48339824Y-28196450D01*
X48395189Y-28279311D01*
X48478050Y-28334676D01*
X48551116Y-28349210D01*
X50300464Y-28349210D01*
X50373530Y-28334676D01*
X50456391Y-28279311D01*
X50511756Y-28196450D01*
X50526290Y-28123384D01*
X50526290Y-26374036D01*
X50511756Y-26300970D01*
X50456391Y-26218109D01*
X50373530Y-26162744D01*
X50300464Y-26148210D01*
X48551116Y-26148210D01*
X48478050Y-26162744D01*
X48395189Y-26218109D01*
X48339824Y-26300970D01*
X48325290Y-26374036D01*
X48325290Y-28123384D01*
X47555272Y-28123384D01*
X47574223Y-28107623D01*
X47662863Y-28033901D01*
X47667295Y-28030215D01*
X47796627Y-27874711D01*
X47895454Y-27698241D01*
X47960468Y-27506717D01*
X47961297Y-27501001D01*
X47961298Y-27500996D01*
X47988957Y-27310226D01*
X47989490Y-27306552D01*
X47991005Y-27248710D01*
X47972498Y-27047301D01*
X47917597Y-26852636D01*
X47828141Y-26671237D01*
X47809869Y-26646767D01*
X47710578Y-26513801D01*
X47710577Y-26513800D01*
X47707125Y-26509177D01*
X47684140Y-26487930D01*
X47562843Y-26375804D01*
X47562841Y-26375802D01*
X47558602Y-26371884D01*
X47531164Y-26354572D01*
X47392427Y-26267035D01*
X47387547Y-26263956D01*
X47199688Y-26189008D01*
X47001316Y-26149549D01*
X46995542Y-26149473D01*
X46995538Y-26149473D01*
X46893047Y-26148132D01*
X46799076Y-26146902D01*
X46793379Y-26147881D01*
X46793378Y-26147881D01*
X46605436Y-26180175D01*
X46605435Y-26180175D01*
X46599739Y-26181154D01*
X46409983Y-26251159D01*
X46236161Y-26354572D01*
X46084095Y-26487930D01*
X45958879Y-26646767D01*
X45864704Y-26825763D01*
X45804727Y-27018923D01*
X45780954Y-27219779D01*
X43750000Y-27219779D01*
X43750000Y-24376000D01*
X43770002Y-24307879D01*
X43823658Y-24261386D01*
X43876000Y-24250000D01*
X46462966Y-24250000D01*
X46487547Y-24252421D01*
X46500000Y-24254898D01*
X46597545Y-24235495D01*
X46680240Y-24180240D01*
X46687133Y-24169924D01*
X46728602Y-24107862D01*
X46728603Y-24107860D01*
X46735495Y-24097545D01*
X46750000Y-24024624D01*
X46754898Y-24000000D01*
X46752421Y-23987547D01*
X46750000Y-23962966D01*
X46750000Y-22196091D01*
X46770002Y-22127970D01*
X46823658Y-22081477D01*
X46893932Y-22071373D01*
X46951011Y-22097200D01*
X46952043Y-22095793D01*
X47161394Y-22249296D01*
X47169293Y-22254232D01*
X47394901Y-22372930D01*
X47403450Y-22376647D01*
X47644113Y-22460690D01*
X47653122Y-22463104D01*
X47903572Y-22510654D01*
X47912827Y-22511708D01*
X48167557Y-22521717D01*
X48176871Y-22521391D01*
X48430270Y-22493640D01*
X48439447Y-22491939D01*
X48685960Y-22427037D01*
X48694780Y-22424000D01*
X48928997Y-22323373D01*
X48937269Y-22319066D01*
X49154036Y-22184927D01*
X49161579Y-22179447D01*
X49163272Y-22178014D01*
X49171710Y-22165211D01*
X49170674Y-22163442D01*
X52131303Y-22163442D01*
X52140017Y-22174962D01*
X52241394Y-22249296D01*
X52249293Y-22254232D01*
X52474901Y-22372930D01*
X52483450Y-22376647D01*
X52724113Y-22460690D01*
X52733122Y-22463104D01*
X52983572Y-22510654D01*
X52992827Y-22511708D01*
X53247557Y-22521717D01*
X53256871Y-22521391D01*
X53510270Y-22493640D01*
X53519447Y-22491939D01*
X53765960Y-22427037D01*
X53774780Y-22424000D01*
X54008997Y-22323373D01*
X54017269Y-22319066D01*
X54234036Y-22184927D01*
X54241579Y-22179447D01*
X54243272Y-22178014D01*
X54251710Y-22165211D01*
X54245645Y-22154855D01*
X53202812Y-21112022D01*
X53188868Y-21104408D01*
X53187035Y-21104539D01*
X53180420Y-21108790D01*
X52137961Y-22151249D01*
X52131303Y-22163442D01*
X49170674Y-22163442D01*
X49165645Y-22154855D01*
X47839885Y-20829095D01*
X47805859Y-20766783D01*
X47807694Y-20741132D01*
X48474408Y-20741132D01*
X48474539Y-20742965D01*
X48478790Y-20749580D01*
X49524386Y-21795176D01*
X49536766Y-21801936D01*
X49545107Y-21795692D01*
X49674391Y-21594697D01*
X49678838Y-21586506D01*
X49783536Y-21354085D01*
X49786731Y-21345307D01*
X49855923Y-21099968D01*
X49857781Y-21090839D01*
X49890144Y-20836444D01*
X49890625Y-20830158D01*
X49892903Y-20743160D01*
X49892752Y-20736851D01*
X49889865Y-20697999D01*
X51407849Y-20697999D01*
X51420080Y-20952619D01*
X51421217Y-20961879D01*
X51470947Y-21211894D01*
X51473441Y-21220887D01*
X51559578Y-21460797D01*
X51563378Y-21469332D01*
X51684031Y-21693877D01*
X51689045Y-21701748D01*
X51755154Y-21790279D01*
X51766414Y-21798729D01*
X51778832Y-21791958D01*
X52817978Y-20752812D01*
X52824356Y-20741132D01*
X53554408Y-20741132D01*
X53554539Y-20742965D01*
X53558790Y-20749580D01*
X54604386Y-21795176D01*
X54616766Y-21801936D01*
X54625107Y-21795692D01*
X54754391Y-21594697D01*
X54758838Y-21586506D01*
X54863536Y-21354085D01*
X54866731Y-21345307D01*
X54935923Y-21099968D01*
X54937781Y-21090839D01*
X54970144Y-20836444D01*
X54970625Y-20830158D01*
X54972903Y-20743160D01*
X54972752Y-20736851D01*
X54953747Y-20481110D01*
X54952370Y-20471904D01*
X54896109Y-20223262D01*
X54893385Y-20214351D01*
X54800990Y-19976758D01*
X54796979Y-19968349D01*
X54670482Y-19747027D01*
X54665269Y-19739298D01*
X54625633Y-19689019D01*
X54613709Y-19680549D01*
X54602174Y-19687036D01*
X53562022Y-20727188D01*
X53554408Y-20741132D01*
X52824356Y-20741132D01*
X52825592Y-20738868D01*
X52825461Y-20737035D01*
X52821210Y-20730420D01*
X51777119Y-19686329D01*
X51763811Y-19679062D01*
X51753772Y-19686184D01*
X51741433Y-19701020D01*
X51736018Y-19708612D01*
X51603776Y-19926540D01*
X51599538Y-19934857D01*
X51500961Y-20169935D01*
X51498000Y-20178785D01*
X51435255Y-20425849D01*
X51433633Y-20435046D01*
X51408094Y-20688673D01*
X51407849Y-20697999D01*
X49889865Y-20697999D01*
X49873747Y-20481110D01*
X49872370Y-20471904D01*
X49816109Y-20223262D01*
X49813385Y-20214351D01*
X49720990Y-19976758D01*
X49716979Y-19968349D01*
X49590482Y-19747027D01*
X49585269Y-19739298D01*
X49545633Y-19689019D01*
X49533709Y-19680549D01*
X49522174Y-19687036D01*
X48482022Y-20727188D01*
X48474408Y-20741132D01*
X47807694Y-20741132D01*
X47810924Y-20695968D01*
X47839885Y-20650905D01*
X49162790Y-19328000D01*
X49169174Y-19316310D01*
X49167656Y-19314357D01*
X52128770Y-19314357D01*
X52133343Y-19324133D01*
X53177188Y-20367978D01*
X53191132Y-20375592D01*
X53192965Y-20375461D01*
X53199580Y-20371210D01*
X54242790Y-19328000D01*
X54249174Y-19316310D01*
X54239762Y-19304199D01*
X54098776Y-19206392D01*
X54090741Y-19201659D01*
X53862106Y-19088909D01*
X53853473Y-19085421D01*
X53610675Y-19007701D01*
X53601624Y-19005528D01*
X53350009Y-18964550D01*
X53340720Y-18963738D01*
X53085828Y-18960401D01*
X53076517Y-18960971D01*
X52823927Y-18995347D01*
X52814808Y-18997285D01*
X52570084Y-19068616D01*
X52561331Y-19071888D01*
X52329837Y-19178608D01*
X52321682Y-19183128D01*
X52137907Y-19303616D01*
X52128770Y-19314357D01*
X49167656Y-19314357D01*
X49159762Y-19304199D01*
X49018776Y-19206392D01*
X49010741Y-19201659D01*
X48782106Y-19088909D01*
X48773473Y-19085421D01*
X48530675Y-19007701D01*
X48521624Y-19005528D01*
X48270009Y-18964550D01*
X48260720Y-18963738D01*
X48005828Y-18960401D01*
X47996517Y-18960971D01*
X47743927Y-18995347D01*
X47734808Y-18997285D01*
X47490084Y-19068616D01*
X47481331Y-19071888D01*
X47249837Y-19178608D01*
X47241682Y-19183128D01*
X47028500Y-19322896D01*
X47021103Y-19328573D01*
X46959901Y-19383197D01*
X46895760Y-19413634D01*
X46825345Y-19404562D01*
X46771013Y-19358862D01*
X46750000Y-19289193D01*
X46750000Y-16756091D01*
X46770002Y-16687970D01*
X46823658Y-16641477D01*
X46893932Y-16631373D01*
X46951011Y-16657200D01*
X46952043Y-16655793D01*
X47161394Y-16809296D01*
X47169293Y-16814232D01*
X47394901Y-16932930D01*
X47403450Y-16936647D01*
X47644113Y-17020690D01*
X47653122Y-17023104D01*
X47903572Y-17070654D01*
X47912827Y-17071708D01*
X48167557Y-17081717D01*
X48176871Y-17081391D01*
X48430270Y-17053640D01*
X48439447Y-17051939D01*
X48685960Y-16987037D01*
X48694780Y-16984000D01*
X48928997Y-16883373D01*
X48937269Y-16879066D01*
X49154036Y-16744927D01*
X49161579Y-16739447D01*
X49163272Y-16738014D01*
X49171710Y-16725211D01*
X49170674Y-16723442D01*
X52131303Y-16723442D01*
X52140017Y-16734962D01*
X52241394Y-16809296D01*
X52249293Y-16814232D01*
X52474901Y-16932930D01*
X52483450Y-16936647D01*
X52724113Y-17020690D01*
X52733122Y-17023104D01*
X52983572Y-17070654D01*
X52992827Y-17071708D01*
X53247557Y-17081717D01*
X53256871Y-17081391D01*
X53510270Y-17053640D01*
X53519447Y-17051939D01*
X53765960Y-16987037D01*
X53774780Y-16984000D01*
X54008997Y-16883373D01*
X54017269Y-16879066D01*
X54234036Y-16744927D01*
X54241579Y-16739447D01*
X54243272Y-16738014D01*
X54251710Y-16725211D01*
X54245645Y-16714855D01*
X53202812Y-15672022D01*
X53188868Y-15664408D01*
X53187035Y-15664539D01*
X53180420Y-15668790D01*
X52137961Y-16711249D01*
X52131303Y-16723442D01*
X49170674Y-16723442D01*
X49165645Y-16714855D01*
X47839885Y-15389095D01*
X47805859Y-15326783D01*
X47810924Y-15255968D01*
X47839885Y-15210905D01*
X48020905Y-15029885D01*
X48083217Y-14995859D01*
X48154032Y-15000924D01*
X48199095Y-15029885D01*
X49524386Y-16355176D01*
X49536766Y-16361936D01*
X49545107Y-16355692D01*
X49674391Y-16154697D01*
X49678838Y-16146506D01*
X49783536Y-15914085D01*
X49786731Y-15905307D01*
X49855923Y-15659968D01*
X49857781Y-15650839D01*
X49890144Y-15396444D01*
X49890625Y-15390158D01*
X49892903Y-15303160D01*
X49892752Y-15296851D01*
X49873747Y-15041110D01*
X49872370Y-15031904D01*
X49816109Y-14783262D01*
X49813385Y-14774351D01*
X49720990Y-14536758D01*
X49716979Y-14528349D01*
X49590481Y-14307025D01*
X49585270Y-14299299D01*
X49447081Y-14124006D01*
X49420616Y-14058126D01*
X49433969Y-13988397D01*
X49482901Y-13936956D01*
X49546031Y-13920000D01*
X51756381Y-13920000D01*
X51824502Y-13940002D01*
G37*
%TD.AperFunction*%
%TD*%
M02*
