solid legacy av
facet normal -1.8497985272444233e-19 -7.461815792156392e-13 -1.0
  outer loop
    vertex 223.27934647373257 315.5856715259222 -6.044139910788004e-11
    vertex 157.42645509251568 258.5856715259225 -1.7910312122282335e-11
    vertex 156.42645509251565 315.5856715259222 -6.044139910788004e-11
  endloop
endfacet
facet normal -1.8497985272444233e-19 -7.461815792156392e-13 -1.0
  outer loop
    vertex 157.42645509251568 258.5856715259225 -1.7910312122282335e-11
    vertex 223.27934647373257 315.5856715259222 -6.044139910788004e-11
    vertex 223.27934647373257 258.5856715259225 -1.7910312122282335e-11
  endloop
endfacet
facet normal -1.8497985272444233e-19 -7.461815792156392e-13 -1.0
  outer loop
    vertex 156.42645509251565 339.5856715259225 -7.834994875111078e-11
    vertex 143.27934647373255 234.58567152592255 -7.049916206369744e-16
    vertex 143.27934647373255 339.5856715259225 -7.834994875111078e-11
  endloop
endfacet
facet normal -1.8497985272444233e-19 -7.461815792156392e-13 -1.0
  outer loop
    vertex 143.27934647373255 234.58567152592255 -7.049916206369744e-16
    vertex 156.42645509251565 339.5856715259225 -7.834994875111078e-11
    vertex 156.42645509251565 315.5856715259222 -6.044139910788004e-11
  endloop
endfacet
facet normal -1.8497985272444233e-19 -7.461815792156392e-13 -1.0
  outer loop
    vertex 143.27934647373255 234.58567152592255 -7.049916206369744e-16
    vertex 156.42645509251565 315.5856715259222 -6.044139910788004e-11
    vertex 157.42645509251568 234.58567152592255 -7.049916206369744e-16
  endloop
endfacet
facet normal -1.8497985272444233e-19 -7.461815792156392e-13 -1.0
  outer loop
    vertex 157.42645509251568 234.58567152592255 -7.049916206369744e-16
    vertex 156.42645509251565 315.5856715259222 -6.044139910788004e-11
    vertex 157.42645509251568 258.5856715259225 -1.7910312122282335e-11
  endloop
endfacet
facet normal -9.77950443663495e-36 -1.0 7.461815792156392e-13
  outer loop
    vertex 143.27934647373255 234.58567152592255 -7.049916206369744e-16
    vertex 157.42645509251568 234.58567152592406 2.0000000000000013
    vertex 143.27934647373255 234.58567152592406 2.0000000000000013
  endloop
endfacet
facet normal -9.77950443663495e-36 -1.0 7.461815792156392e-13
  outer loop
    vertex 157.42645509251568 234.58567152592406 2.0000000000000013
    vertex 143.27934647373255 234.58567152592255 -7.049916206369744e-16
    vertex 157.42645509251568 234.58567152592255 -7.049916206369744e-16
  endloop
endfacet
facet normal 1.0 -1.3802870383514773e-31 -1.8497985272444236e-19
  outer loop
    vertex 157.42645509251568 234.58567152592406 2.0000000000000013
    vertex 157.42645509251568 258.5856715259225 -1.7910312122282335e-11
    vertex 157.42645509251568 258.585671525924 1.9999999999820917
  endloop
endfacet
facet normal 1.0 -1.3802870383514773e-31 -1.8497985272444236e-19
  outer loop
    vertex 157.42645509251568 258.5856715259225 -1.7910312122282335e-11
    vertex 157.42645509251568 234.58567152592406 2.0000000000000013
    vertex 157.42645509251568 234.58567152592255 -7.049916206369744e-16
  endloop
endfacet
facet normal 0.0 -1.0 7.461815792156392e-13
  outer loop
    vertex 157.42645509251568 258.5856715259225 -1.7910312122282335e-11
    vertex 223.27934647373257 258.585671525924 1.9999999999820917
    vertex 157.42645509251568 258.585671525924 1.9999999999820917
  endloop
endfacet
facet normal 0.0 -1.0 7.461815792156392e-13
  outer loop
    vertex 223.27934647373257 258.585671525924 1.9999999999820917
    vertex 157.42645509251568 258.5856715259225 -1.7910312122282335e-11
    vertex 223.27934647373257 258.5856715259225 -1.7910312122282335e-11
  endloop
endfacet
facet normal 1.0 -1.3802813186476983e-31 -1.8497985272444233e-19
  outer loop
    vertex 223.27934647373257 258.585671525924 1.9999999999820917
    vertex 223.27934647373257 315.5856715259222 -6.044139910788004e-11
    vertex 223.27934647373257 315.58567152592366 1.9999999999395606
  endloop
endfacet
facet normal 1.0 -1.3802813186476983e-31 -1.8497985272444233e-19
  outer loop
    vertex 223.27934647373257 315.5856715259222 -6.044139910788004e-11
    vertex 223.27934647373257 258.585671525924 1.9999999999820917
    vertex 223.27934647373257 258.5856715259225 -1.7910312122282335e-11
  endloop
endfacet
facet normal 0.0 1.0 -7.461815792156392e-13
  outer loop
    vertex 223.27934647373257 315.5856715259222 -6.044139910788004e-11
    vertex 156.42645509251565 315.58567152592366 1.9999999999395606
    vertex 223.27934647373257 315.58567152592366 1.9999999999395606
  endloop
endfacet
facet normal 0.0 1.0 -7.461815792156392e-13
  outer loop
    vertex 156.42645509251565 315.58567152592366 1.9999999999395606
    vertex 223.27934647373257 315.5856715259222 -6.044139910788004e-11
    vertex 156.42645509251565 315.5856715259222 -6.044139910788004e-11
  endloop
endfacet
facet normal 1.0 -1.3802870383514773e-31 -1.8497985272444236e-19
  outer loop
    vertex 156.42645509251565 315.58567152592366 1.9999999999395606
    vertex 156.42645509251565 339.5856715259225 -7.834994875111078e-11
    vertex 156.42645509251565 339.585671525924 1.999999999921652
  endloop
endfacet
facet normal 1.0 -1.3802870383514773e-31 -1.8497985272444236e-19
  outer loop
    vertex 156.42645509251565 339.5856715259225 -7.834994875111078e-11
    vertex 156.42645509251565 315.58567152592366 1.9999999999395606
    vertex 156.42645509251565 315.5856715259222 -6.044139910788004e-11
  endloop
endfacet
facet normal 0.0 1.0 -7.461815792156392e-13
  outer loop
    vertex 156.42645509251565 339.5856715259225 -7.834994875111078e-11
    vertex 143.27934647373255 339.585671525924 1.999999999921652
    vertex 156.42645509251565 339.585671525924 1.999999999921652
  endloop
endfacet
facet normal 0.0 1.0 -7.461815792156392e-13
  outer loop
    vertex 143.27934647373255 339.585671525924 1.999999999921652
    vertex 156.42645509251565 339.5856715259225 -7.834994875111078e-11
    vertex 143.27934647373255 339.5856715259225 -7.834994875111078e-11
  endloop
endfacet
facet normal -1.0 1.3802870383514769e-31 1.849798527244423e-19
  outer loop
    vertex 143.27934647373255 234.58567152592255 -7.049916206369744e-16
    vertex 143.27934647373255 339.585671525924 1.999999999921652
    vertex 143.27934647373255 339.5856715259225 -7.834994875111078e-11
  endloop
endfacet
facet normal -1.0 1.3802870383514769e-31 1.849798527244423e-19
  outer loop
    vertex 143.27934647373255 339.585671525924 1.999999999921652
    vertex 143.27934647373255 234.58567152592255 -7.049916206369744e-16
    vertex 143.27934647373255 234.58567152592406 2.0000000000000013
  endloop
endfacet
facet normal 0.0 7.461823641992189e-13 1.0
  outer loop
    vertex 157.42645509251568 234.58567152592406 2.0000000000000013
    vertex 143.27934647373255 339.585671525924 1.999999999921652
    vertex 143.27934647373255 234.58567152592406 2.0000000000000013
  endloop
endfacet
facet normal 0.0 7.461823641992189e-13 1.0
  outer loop
    vertex 143.27934647373255 339.585671525924 1.999999999921652
    vertex 157.42645509251568 234.58567152592406 2.0000000000000013
    vertex 156.42645509251565 315.58567152592366 1.9999999999395606
  endloop
endfacet
facet normal 0.0 7.461823641992189e-13 1.0
  outer loop
    vertex 156.42645509251565 315.58567152592366 1.9999999999395606
    vertex 157.42645509251568 234.58567152592406 2.0000000000000013
    vertex 157.42645509251568 258.585671525924 1.9999999999820917
  endloop
endfacet
facet normal 0.0 7.461823641992189e-13 1.0
  outer loop
    vertex 156.42645509251565 315.58567152592366 1.9999999999395606
    vertex 157.42645509251568 258.585671525924 1.9999999999820917
    vertex 223.27934647373257 315.58567152592366 1.9999999999395606
  endloop
endfacet
facet normal 0.0 7.461823641992189e-13 1.0
  outer loop
    vertex 223.27934647373257 315.58567152592366 1.9999999999395606
    vertex 157.42645509251568 258.585671525924 1.9999999999820917
    vertex 223.27934647373257 258.585671525924 1.9999999999820917
  endloop
endfacet
facet normal 0.0 7.461823641992189e-13 1.0
  outer loop
    vertex 156.42645509251565 339.585671525924 1.999999999921652
    vertex 143.27934647373255 339.585671525924 1.999999999921652
    vertex 156.42645509251565 315.58567152592366 1.9999999999395606
  endloop
endfacet
facet normal 0.0 -1.0 7.461823641992189e-13
  outer loop
    vertex 209.3489527707431 309.93567152592345 1.9999999999437705
    vertex 217.3489527707431 309.9356715259246 3.4999999999437734
    vertex 209.3489527707431 309.9356715259246 3.4999999999437734
  endloop
endfacet
facet normal 0.0 -1.0 7.461823641992189e-13
  outer loop
    vertex 217.3489527707431 309.9356715259246 3.4999999999437734
    vertex 209.3489527707431 309.93567152592345 1.9999999999437705
    vertex 217.3489527707431 309.93567152592345 1.9999999999437705
  endloop
endfacet
facet normal -1.0 -0.0 0.0
  outer loop
    vertex 209.3489527707431 313.18567152592345 1.9999999999413454
    vertex 209.3489527707431 309.9356715259246 3.4999999999437734
    vertex 209.3489527707431 313.93567152592476 3.4999999999407883
  endloop
endfacet
facet normal -1.0 -0.0 0.0
  outer loop
    vertex 209.3489527707431 309.9356715259246 3.4999999999437734
    vertex 209.3489527707431 313.18567152592345 1.9999999999413454
    vertex 209.3489527707431 309.93567152592345 1.9999999999437705
  endloop
endfacet
facet normal 1.0 0.0 0.0
  outer loop
    vertex 217.3489527707431 309.9356715259246 3.4999999999437734
    vertex 217.3489527707431 313.18567152592345 1.9999999999413454
    vertex 217.3489527707431 313.93567152592476 3.4999999999407883
  endloop
endfacet
facet normal 1.0 0.0 0.0
  outer loop
    vertex 217.3489527707431 313.18567152592345 1.9999999999413454
    vertex 217.3489527707431 309.9356715259246 3.4999999999437734
    vertex 217.3489527707431 309.93567152592345 1.9999999999437705
  endloop
endfacet
facet normal 0.0 7.461823641992189e-13 1.0
  outer loop
    vertex 217.3489527707431 309.9356715259246 3.4999999999437734
    vertex 209.3489527707431 313.93567152592476 3.4999999999407883
    vertex 209.3489527707431 309.9356715259246 3.4999999999437734
  endloop
endfacet
facet normal 0.0 7.461823641992189e-13 1.0
  outer loop
    vertex 209.3489527707431 313.93567152592476 3.4999999999407883
    vertex 217.3489527707431 309.9356715259246 3.4999999999437734
    vertex 217.3489527707431 313.93567152592476 3.4999999999407883
  endloop
endfacet
facet normal 0.0 0.8944271909995372 -0.4472135955007155
  outer loop
    vertex 217.3489527707431 313.18567152592345 1.9999999999413454
    vertex 209.3489527707431 313.93567152592476 3.4999999999407883
    vertex 217.3489527707431 313.93567152592476 3.4999999999407883
  endloop
endfacet
facet normal 0.0 0.8944271909995372 -0.4472135955007155
  outer loop
    vertex 209.3489527707431 313.93567152592476 3.4999999999407883
    vertex 217.3489527707431 313.18567152592345 1.9999999999413454
    vertex 209.3489527707431 313.18567152592345 1.9999999999413454
  endloop
endfacet
facet normal 0.0 -7.461823641992189e-13 -1.0
  outer loop
    vertex 217.3489527707431 313.18567152592345 1.9999999999413454
    vertex 209.3489527707431 309.93567152592345 1.9999999999437705
    vertex 209.3489527707431 313.18567152592345 1.9999999999413454
  endloop
endfacet
facet normal 0.0 -7.461823641992189e-13 -1.0
  outer loop
    vertex 209.3489527707431 309.93567152592345 1.9999999999437705
    vertex 217.3489527707431 313.18567152592345 1.9999999999413454
    vertex 217.3489527707431 309.93567152592345 1.9999999999437705
  endloop
endfacet
facet normal 0.0 -1.0 7.461823641992189e-13
  outer loop
    vertex 168.27934647373255 309.93567152592345 1.9999999999437705
    vertex 176.27934647373255 309.9356715259246 3.4999999999437734
    vertex 168.27934647373255 309.9356715259246 3.4999999999437734
  endloop
endfacet
facet normal 0.0 -1.0 7.461823641992189e-13
  outer loop
    vertex 176.27934647373255 309.9356715259246 3.4999999999437734
    vertex 168.27934647373255 309.93567152592345 1.9999999999437705
    vertex 176.27934647373255 309.93567152592345 1.9999999999437705
  endloop
endfacet
facet normal -1.0 -0.0 0.0
  outer loop
    vertex 168.27934647373255 313.18567152592345 1.9999999999413454
    vertex 168.27934647373255 309.9356715259246 3.4999999999437734
    vertex 168.27934647373255 313.93567152592476 3.4999999999407883
  endloop
endfacet
facet normal -1.0 -0.0 0.0
  outer loop
    vertex 168.27934647373255 309.9356715259246 3.4999999999437734
    vertex 168.27934647373255 313.18567152592345 1.9999999999413454
    vertex 168.27934647373255 309.93567152592345 1.9999999999437705
  endloop
endfacet
facet normal 1.0 0.0 0.0
  outer loop
    vertex 176.27934647373255 309.9356715259246 3.4999999999437734
    vertex 176.27934647373255 313.18567152592345 1.9999999999413454
    vertex 176.27934647373255 313.93567152592476 3.4999999999407883
  endloop
endfacet
facet normal 1.0 0.0 0.0
  outer loop
    vertex 176.27934647373255 313.18567152592345 1.9999999999413454
    vertex 176.27934647373255 309.9356715259246 3.4999999999437734
    vertex 176.27934647373255 309.93567152592345 1.9999999999437705
  endloop
endfacet
facet normal 0.0 7.461823641992189e-13 1.0
  outer loop
    vertex 176.27934647373255 309.9356715259246 3.4999999999437734
    vertex 168.27934647373255 313.93567152592476 3.4999999999407883
    vertex 168.27934647373255 309.9356715259246 3.4999999999437734
  endloop
endfacet
facet normal 0.0 7.461823641992189e-13 1.0
  outer loop
    vertex 168.27934647373255 313.93567152592476 3.4999999999407883
    vertex 176.27934647373255 309.9356715259246 3.4999999999437734
    vertex 176.27934647373255 313.93567152592476 3.4999999999407883
  endloop
endfacet
facet normal 0.0 0.8944271909995372 -0.4472135955007155
  outer loop
    vertex 176.27934647373255 313.18567152592345 1.9999999999413454
    vertex 168.27934647373255 313.93567152592476 3.4999999999407883
    vertex 176.27934647373255 313.93567152592476 3.4999999999407883
  endloop
endfacet
facet normal 0.0 0.8944271909995372 -0.4472135955007155
  outer loop
    vertex 168.27934647373255 313.93567152592476 3.4999999999407883
    vertex 176.27934647373255 313.18567152592345 1.9999999999413454
    vertex 168.27934647373255 313.18567152592345 1.9999999999413454
  endloop
endfacet
facet normal 0.0 -7.461823641992189e-13 -1.0
  outer loop
    vertex 176.27934647373255 313.18567152592345 1.9999999999413454
    vertex 168.27934647373255 309.93567152592345 1.9999999999437705
    vertex 168.27934647373255 313.18567152592345 1.9999999999413454
  endloop
endfacet
facet normal 0.0 -7.461823641992189e-13 -1.0
  outer loop
    vertex 168.27934647373255 309.93567152592345 1.9999999999437705
    vertex 176.27934647373255 313.18567152592345 1.9999999999413454
    vertex 176.27934647373255 309.93567152592345 1.9999999999437705
  endloop
endfacet
facet normal 1.7802599672211983e-12 1.0 -7.461823641992189e-13
  outer loop
    vertex 176.27934647373831 264.2356715259099 1.9999999999778724
    vertex 168.27934647373831 264.2356715259252 3.4999999999778746
    vertex 176.27934647373831 264.235671525911 3.4999999999778746
  endloop
endfacet
facet normal 1.7802599672211983e-12 1.0 -7.461823641992189e-13
  outer loop
    vertex 168.27934647373831 264.2356715259252 3.4999999999778746
    vertex 176.27934647373831 264.2356715259099 1.9999999999778724
    vertex 168.27934647373831 264.23567152592415 1.9999999999778724
  endloop
endfacet
facet normal 1.0 -1.7802599672211983e-12 1.3283985912303376e-24
  outer loop
    vertex 176.27934647373252 260.9856715259099 1.9999999999802975
    vertex 176.27934647373831 264.235671525911 3.4999999999778746
    vertex 176.27934647373118 260.2356715259108 3.49999999998086
  endloop
endfacet
facet normal 1.0 -1.7802599672211983e-12 1.3283985912303376e-24
  outer loop
    vertex 176.27934647373831 264.235671525911 3.4999999999778746
    vertex 176.27934647373252 260.9856715259099 1.9999999999802975
    vertex 176.27934647373831 264.2356715259099 1.9999999999778724
  endloop
endfacet
facet normal -1.0 1.7802599672211983e-12 -1.3283985912303376e-24
  outer loop
    vertex 168.27934647373831 264.2356715259252 3.4999999999778746
    vertex 168.27934647373252 260.98567152592415 1.9999999999802975
    vertex 168.27934647373118 260.23567152592506 3.49999999998086
  endloop
endfacet
facet normal -1.0 1.7802599672211983e-12 -1.3283985912303376e-24
  outer loop
    vertex 168.27934647373252 260.98567152592415 1.9999999999802975
    vertex 168.27934647373831 264.2356715259252 3.4999999999778746
    vertex 168.27934647373831 264.23567152592415 1.9999999999778724
  endloop
endfacet
facet normal 0.0 7.461823641992189e-13 1.0
  outer loop
    vertex 168.27934647373831 264.2356715259252 3.4999999999778746
    vertex 176.27934647373118 260.2356715259108 3.49999999998086
    vertex 176.27934647373831 264.235671525911 3.4999999999778746
  endloop
endfacet
facet normal 0.0 7.461823641992189e-13 1.0
  outer loop
    vertex 176.27934647373118 260.2356715259108 3.49999999998086
    vertex 168.27934647373831 264.2356715259252 3.4999999999778746
    vertex 168.27934647373118 260.23567152592506 3.49999999998086
  endloop
endfacet
facet normal -1.5923129217311787e-12 -0.8944271910002046 -0.44721359549938067
  outer loop
    vertex 168.27934647373252 260.98567152592415 1.9999999999802975
    vertex 176.27934647373118 260.2356715259108 3.49999999998086
    vertex 168.27934647373118 260.23567152592506 3.49999999998086
  endloop
endfacet
facet normal -1.5923129217311787e-12 -0.8944271910002046 -0.44721359549938067
  outer loop
    vertex 176.27934647373118 260.2356715259108 3.49999999998086
    vertex 168.27934647373252 260.98567152592415 1.9999999999802975
    vertex 176.27934647373252 260.9856715259099 1.9999999999802975
  endloop
endfacet
facet normal 0.0 -7.461823641992189e-13 -1.0
  outer loop
    vertex 168.27934647373252 260.98567152592415 1.9999999999802975
    vertex 176.27934647373831 264.2356715259099 1.9999999999778724
    vertex 176.27934647373252 260.9856715259099 1.9999999999802975
  endloop
endfacet
facet normal 0.0 -7.461823641992189e-13 -1.0
  outer loop
    vertex 176.27934647373831 264.2356715259099 1.9999999999778724
    vertex 168.27934647373252 260.98567152592415 1.9999999999802975
    vertex 168.27934647373831 264.23567152592415 1.9999999999778724
  endloop
endfacet
facet normal 1.7802599672211983e-12 1.0 -7.461823641992189e-13
  outer loop
    vertex 217.34895277074887 264.2356715258368 1.9999999999778724
    vertex 209.34895277074887 264.2356715258518 3.4999999999778746
    vertex 217.34895277074887 264.2356715258379 3.4999999999778746
  endloop
endfacet
facet normal 1.7802599672211983e-12 1.0 -7.461823641992189e-13
  outer loop
    vertex 209.34895277074887 264.2356715258518 3.4999999999778746
    vertex 217.34895277074887 264.2356715258368 1.9999999999778724
    vertex 209.34895277074887 264.23567152585065 1.9999999999778724
  endloop
endfacet
facet normal 1.0 -1.7802599672211983e-12 1.3283985912303376e-24
  outer loop
    vertex 217.3489527707431 260.9856715258368 1.9999999999802975
    vertex 217.34895277074887 264.2356715258379 3.4999999999778746
    vertex 217.34895277074173 260.23567152583774 3.49999999998086
  endloop
endfacet
facet normal 1.0 -1.7802599672211983e-12 1.3283985912303376e-24
  outer loop
    vertex 217.34895277074887 264.2356715258379 3.4999999999778746
    vertex 217.3489527707431 260.9856715258368 1.9999999999802975
    vertex 217.34895277074887 264.2356715258368 1.9999999999778724
  endloop
endfacet
facet normal -1.0 1.7802599672211983e-12 -1.3283985912303376e-24
  outer loop
    vertex 209.34895277074887 264.2356715258518 3.4999999999778746
    vertex 209.3489527707431 260.9856715258507 1.9999999999802975
    vertex 209.34895277074176 260.2356715258516 3.49999999998086
  endloop
endfacet
facet normal -1.0 1.7802599672211983e-12 -1.3283985912303376e-24
  outer loop
    vertex 209.3489527707431 260.9856715258507 1.9999999999802975
    vertex 209.34895277074887 264.2356715258518 3.4999999999778746
    vertex 209.34895277074887 264.23567152585065 1.9999999999778724
  endloop
endfacet
facet normal 0.0 7.461823641992189e-13 1.0
  outer loop
    vertex 209.34895277074887 264.2356715258518 3.4999999999778746
    vertex 217.34895277074173 260.23567152583774 3.49999999998086
    vertex 217.34895277074887 264.2356715258379 3.4999999999778746
  endloop
endfacet
facet normal 0.0 7.461823641992189e-13 1.0
  outer loop
    vertex 217.34895277074173 260.23567152583774 3.49999999998086
    vertex 209.34895277074887 264.2356715258518 3.4999999999778746
    vertex 209.34895277074176 260.2356715258516 3.49999999998086
  endloop
endfacet
facet normal -1.5923129217311787e-12 -0.8944271910002046 -0.44721359549938067
  outer loop
    vertex 209.3489527707431 260.9856715258507 1.9999999999802975
    vertex 217.34895277074173 260.23567152583774 3.49999999998086
    vertex 209.34895277074176 260.2356715258516 3.49999999998086
  endloop
endfacet
facet normal -1.5923129217311787e-12 -0.8944271910002046 -0.44721359549938067
  outer loop
    vertex 217.34895277074173 260.23567152583774 3.49999999998086
    vertex 209.3489527707431 260.9856715258507 1.9999999999802975
    vertex 217.3489527707431 260.9856715258368 1.9999999999802975
  endloop
endfacet
facet normal 0.0 -7.461823641992189e-13 -1.0
  outer loop
    vertex 209.3489527707431 260.9856715258507 1.9999999999802975
    vertex 217.34895277074887 264.2356715258368 1.9999999999778724
    vertex 217.3489527707431 260.9856715258368 1.9999999999802975
  endloop
endfacet
facet normal 0.0 -7.461823641992189e-13 -1.0
  outer loop
    vertex 217.34895277074887 264.2356715258368 1.9999999999778724
    vertex 209.3489527707431 260.9856715258507 1.9999999999802975
    vertex 209.34895277074887 264.23567152585065 1.9999999999778724
  endloop
endfacet
facet normal 8.507083926190261e-14 1.0 -7.461823641992189e-13
  outer loop
    vertex 155.02934647373291 240.23567152592412 1.9999999999957876
    vertex 145.52934647373291 240.23567152592656 3.4999999999957905
    vertex 155.02934647373291 240.2356715259258 3.4999999999957905
  endloop
endfacet
facet normal 8.507083926190261e-14 1.0 -7.461823641992189e-13
  outer loop
    vertex 145.52934647373291 240.23567152592656 3.4999999999957905
    vertex 155.02934647373291 240.23567152592412 1.9999999999957876
    vertex 145.52934647373291 240.23567152592548 1.9999999999957876
  endloop
endfacet
facet normal 1.0 -8.507083926190261e-14 6.347835996485822e-26
  outer loop
    vertex 155.02934647373266 236.98567152592415 1.9999999999982154
    vertex 155.02934647373291 240.2356715259258 3.4999999999957905
    vertex 155.02934647373257 236.23567152592562 3.4999999999987783
  endloop
endfacet
facet normal 1.0 -8.507083926190261e-14 6.347835996485822e-26
  outer loop
    vertex 155.02934647373291 240.2356715259258 3.4999999999957905
    vertex 155.02934647373266 236.98567152592415 1.9999999999982154
    vertex 155.02934647373291 240.23567152592412 1.9999999999957876
  endloop
endfacet
facet normal -1.0 8.507083926190261e-14 -6.347835996485822e-26
  outer loop
    vertex 145.52934647373291 240.23567152592656 3.4999999999957905
    vertex 145.52934647373266 236.98567152592548 1.9999999999982154
    vertex 145.52934647373257 236.2356715259264 3.4999999999987783
  endloop
endfacet
facet normal -1.0 8.507083926190261e-14 -6.347835996485822e-26
  outer loop
    vertex 145.52934647373266 236.98567152592548 1.9999999999982154
    vertex 145.52934647373291 240.23567152592656 3.4999999999957905
    vertex 145.52934647373291 240.23567152592548 1.9999999999957876
  endloop
endfacet
facet normal 0.0 7.461823641992189e-13 1.0
  outer loop
    vertex 145.52934647373291 240.23567152592656 3.4999999999957905
    vertex 155.02934647373257 236.23567152592562 3.4999999999987783
    vertex 155.02934647373291 240.2356715259258 3.4999999999957905
  endloop
endfacet
facet normal 0.0 7.461823641992189e-13 1.0
  outer loop
    vertex 155.02934647373257 236.23567152592562 3.4999999999987783
    vertex 145.52934647373291 240.23567152592656 3.4999999999957905
    vertex 145.52934647373257 236.2356715259264 3.4999999999987783
  endloop
endfacet
facet normal -7.608967179702508e-14 -0.8944271910002046 -0.44721359549938067
  outer loop
    vertex 145.52934647373266 236.98567152592548 1.9999999999982154
    vertex 155.02934647373257 236.23567152592562 3.4999999999987783
    vertex 145.52934647373257 236.2356715259264 3.4999999999987783
  endloop
endfacet
facet normal -7.608967179702508e-14 -0.8944271910002046 -0.44721359549938067
  outer loop
    vertex 155.02934647373257 236.23567152592562 3.4999999999987783
    vertex 145.52934647373266 236.98567152592548 1.9999999999982154
    vertex 155.02934647373266 236.98567152592415 1.9999999999982154
  endloop
endfacet
facet normal 0.0 -7.461823641992189e-13 -1.0
  outer loop
    vertex 145.52934647373266 236.98567152592548 1.9999999999982154
    vertex 155.02934647373291 240.23567152592412 1.9999999999957876
    vertex 155.02934647373266 236.98567152592415 1.9999999999982154
  endloop
endfacet
facet normal 0.0 -7.461823641992189e-13 -1.0
  outer loop
    vertex 155.02934647373291 240.23567152592412 1.9999999999957876
    vertex 145.52934647373266 236.98567152592548 1.9999999999982154
    vertex 145.52934647373291 240.23567152592548 1.9999999999957876
  endloop
endfacet
facet normal 0.0 -1.0 7.461823641992189e-13
  outer loop
    vertex 145.52934647373277 333.9356715259238 1.9999999999258748
    vertex 155.02934647373277 333.93567152592493 3.499999999925878
    vertex 145.52934647373277 333.93567152592493 3.499999999925878
  endloop
endfacet
facet normal 0.0 -1.0 7.461823641992189e-13
  outer loop
    vertex 155.02934647373277 333.93567152592493 3.499999999925878
    vertex 145.52934647373277 333.9356715259238 1.9999999999258748
    vertex 155.02934647373277 333.9356715259238 1.9999999999258748
  endloop
endfacet
facet normal -1.0 0.0 0.0
  outer loop
    vertex 145.52934647373277 337.1856715259238 1.9999999999234497
    vertex 145.52934647373277 333.93567152592493 3.499999999925878
    vertex 145.52934647373277 337.9356715259251 3.499999999922893
  endloop
endfacet
facet normal -1.0 0.0 0.0
  outer loop
    vertex 145.52934647373277 333.93567152592493 3.499999999925878
    vertex 145.52934647373277 337.1856715259238 1.9999999999234497
    vertex 145.52934647373277 333.9356715259238 1.9999999999258748
  endloop
endfacet
facet normal 1.0 0.0 0.0
  outer loop
    vertex 155.02934647373277 333.93567152592493 3.499999999925878
    vertex 155.02934647373277 337.1856715259238 1.9999999999234497
    vertex 155.02934647373277 337.9356715259251 3.499999999922893
  endloop
endfacet
facet normal 1.0 0.0 0.0
  outer loop
    vertex 155.02934647373277 337.1856715259238 1.9999999999234497
    vertex 155.02934647373277 333.93567152592493 3.499999999925878
    vertex 155.02934647373277 333.9356715259238 1.9999999999258748
  endloop
endfacet
facet normal 0.0 7.461823641992189e-13 1.0
  outer loop
    vertex 155.02934647373277 333.93567152592493 3.499999999925878
    vertex 145.52934647373277 337.9356715259251 3.499999999922893
    vertex 145.52934647373277 333.93567152592493 3.499999999925878
  endloop
endfacet
facet normal 0.0 7.461823641992189e-13 1.0
  outer loop
    vertex 145.52934647373277 337.9356715259251 3.499999999922893
    vertex 155.02934647373277 333.93567152592493 3.499999999925878
    vertex 155.02934647373277 337.9356715259251 3.499999999922893
  endloop
endfacet
facet normal 0.0 0.8944271909995372 -0.4472135955007155
  outer loop
    vertex 155.02934647373277 337.1856715259238 1.9999999999234497
    vertex 145.52934647373277 337.9356715259251 3.499999999922893
    vertex 155.02934647373277 337.9356715259251 3.499999999922893
  endloop
endfacet
facet normal 0.0 0.8944271909995372 -0.4472135955007155
  outer loop
    vertex 145.52934647373277 337.9356715259251 3.499999999922893
    vertex 155.02934647373277 337.1856715259238 1.9999999999234497
    vertex 145.52934647373277 337.1856715259238 1.9999999999234497
  endloop
endfacet
facet normal 0.0 -7.461823641992189e-13 -1.0
  outer loop
    vertex 155.02934647373277 337.1856715259238 1.9999999999234497
    vertex 145.52934647373277 333.9356715259238 1.9999999999258748
    vertex 145.52934647373277 337.1856715259238 1.9999999999234497
  endloop
endfacet
facet normal 0.0 -7.461823641992189e-13 -1.0
  outer loop
    vertex 145.52934647373277 333.9356715259238 1.9999999999258748
    vertex 155.02934647373277 337.1856715259238 1.9999999999234497
    vertex 155.02934647373277 333.9356715259238 1.9999999999258748
  endloop
endfacet
facet normal 9.39988827515614e-16 -7.461522852572403e-13 -1.0
  outer loop
    vertex 145.27934647373272 332.33567152592417 1.9999999999270537
    vertex 143.27934647373255 241.83567152592417 1.9999999999945792
    vertex 143.27934647373255 332.33567152592417 1.999999999927055
  endloop
endfacet
facet normal 9.39988827515614e-16 -7.461522852572403e-13 -1.0
  outer loop
    vertex 143.27934647373255 241.83567152592417 1.9999999999945792
    vertex 145.27934647373272 332.33567152592417 1.9999999999270537
    vertex 145.27934647373272 241.83567152592417 1.9999999999945834
  endloop
endfacet
facet normal -9.39988827515614e-16 7.461522852572403e-13 1.0
  outer loop
    vertex 145.27934647373272 241.83567152593088 10.999999999994584
    vertex 143.27934647373255 332.3356715259309 10.999999999927054
    vertex 143.27934647373255 241.83567152593088 10.99999999999458
  endloop
endfacet
facet normal -9.39988827515614e-16 7.461522852572403e-13 1.0
  outer loop
    vertex 143.27934647373255 332.3356715259309 10.999999999927054
    vertex 145.27934647373272 241.83567152593088 10.999999999994584
    vertex 145.27934647373272 332.3356715259309 10.999999999927052
  endloop
endfacet
facet normal 0.0 1.0 -7.461522852572403e-13
  outer loop
    vertex 145.27934647373272 332.3356715259309 10.999999999927052
    vertex 143.27934647373255 332.33567152592417 1.999999999927055
    vertex 143.27934647373255 332.3356715259309 10.999999999927054
  endloop
endfacet
facet normal 0.0 1.0 -7.461522852572403e-13
  outer loop
    vertex 143.27934647373255 332.33567152592417 1.999999999927055
    vertex 145.27934647373272 332.3356715259309 10.999999999927052
    vertex 145.27934647373272 332.33567152592417 1.9999999999270537
  endloop
endfacet
facet normal -1.0 -7.0134568278916415e-28 -9.399888275156142e-16
  outer loop
    vertex 143.27934647373255 241.83567152592417 1.9999999999945792
    vertex 143.27934647373255 332.3356715259309 10.999999999927054
    vertex 143.27934647373255 332.33567152592417 1.999999999927055
  endloop
endfacet
facet normal -1.0 -7.0134568278916415e-28 -9.399888275156142e-16
  outer loop
    vertex 143.27934647373255 332.3356715259309 10.999999999927054
    vertex 143.27934647373255 241.83567152592417 1.9999999999945792
    vertex 143.27934647373255 241.83567152593088 10.99999999999458
  endloop
endfacet
facet normal -1.4027496235345208e-27 -1.0 7.461522852572403e-13
  outer loop
    vertex 143.27934647373255 241.83567152593088 10.99999999999458
    vertex 145.27934647373272 241.83567152592417 1.9999999999945834
    vertex 145.27934647373272 241.83567152593088 10.999999999994584
  endloop
endfacet
facet normal -1.4027496235345208e-27 -1.0 7.461522852572403e-13
  outer loop
    vertex 145.27934647373272 241.83567152592417 1.9999999999945834
    vertex 143.27934647373255 241.83567152593088 10.99999999999458
    vertex 143.27934647373255 241.83567152592417 1.9999999999945792
  endloop
endfacet
facet normal 1.0 7.014039407449348e-28 9.399888275156142e-16
  outer loop
    vertex 145.27934647373272 241.83567152593088 10.999999999994584
    vertex 145.27934647373272 332.33567152592417 1.9999999999270537
    vertex 145.27934647373272 332.3356715259309 10.999999999927052
  endloop
endfacet
facet normal 1.0 7.014039407449348e-28 9.399888275156142e-16
  outer loop
    vertex 145.27934647373272 332.33567152592417 1.9999999999270537
    vertex 145.27934647373272 241.83567152593088 10.999999999994584
    vertex 145.27934647373272 241.83567152592417 1.9999999999945834
  endloop
endfacet
facet normal -1.0 1.490120998814959e-08 -1.1119020098386475e-20
  outer loop
    vertex 217.62934659294228 291.08567157435306 1.9999999999578406
    vertex 217.6293464737326 283.08567157435425 3.4999999999638125
    vertex 217.62934659294228 291.0856715743542 3.4999999999578435
  endloop
endfacet
facet normal -1.0 1.490120998814959e-08 -1.1119020098386475e-20
  outer loop
    vertex 217.6293464737326 283.08567157435425 3.4999999999638125
    vertex 217.62934659294228 291.08567157435306 1.9999999999578406
    vertex 217.6293464737326 283.0856715743531 1.9999999999638103
  endloop
endfacet
facet normal 1.490120998814959e-08 1.0 -7.461823641992189e-13
  outer loop
    vertex 220.87934659294228 291.08567152592417 1.9999999999578406
    vertex 217.62934659294228 291.0856715743542 3.4999999999578435
    vertex 221.62934659294245 291.0856715147494 3.4999999999578435
  endloop
endfacet
facet normal 1.490120998814959e-08 1.0 -7.461823641992189e-13
  outer loop
    vertex 217.62934659294228 291.0856715743542 3.4999999999578435
    vertex 220.87934659294228 291.08567152592417 1.9999999999578406
    vertex 217.62934659294228 291.08567157435306 1.9999999999578406
  endloop
endfacet
facet normal -1.490120998814959e-08 -1.0 7.461823641992189e-13
  outer loop
    vertex 217.6293464737326 283.08567157435425 3.4999999999638125
    vertex 220.8793464737326 283.08567152592417 1.9999999999638103
    vertex 221.62934647373277 283.0856715147494 3.4999999999638125
  endloop
endfacet
facet normal -1.490120998814959e-08 -1.0 7.461823641992189e-13
  outer loop
    vertex 220.8793464737326 283.08567152592417 1.9999999999638103
    vertex 217.6293464737326 283.08567157435425 3.4999999999638125
    vertex 217.6293464737326 283.0856715743531 1.9999999999638103
  endloop
endfacet
facet normal -0.0 7.461823641992189e-13 1.0
  outer loop
    vertex 217.6293464737326 283.08567157435425 3.4999999999638125
    vertex 221.62934659294245 291.0856715147494 3.4999999999578435
    vertex 217.62934659294228 291.0856715743542 3.4999999999578435
  endloop
endfacet
facet normal -0.0 7.461823641992189e-13 1.0
  outer loop
    vertex 221.62934659294245 291.0856715147494 3.4999999999578435
    vertex 217.6293464737326 283.08567157435425 3.4999999999638125
    vertex 221.62934647373277 283.0856715147494 3.4999999999638125
  endloop
endfacet
facet normal 0.8944271909998707 -1.3328381095097846e-08 -0.44721359550004797
  outer loop
    vertex 220.8793464737326 283.08567152592417 1.9999999999638103
    vertex 221.62934659294245 291.0856715147494 3.4999999999578435
    vertex 221.62934647373277 283.0856715147494 3.4999999999638125
  endloop
endfacet
facet normal 0.8944271909998707 -1.3328381095097846e-08 -0.44721359550004797
  outer loop
    vertex 221.62934659294245 291.0856715147494 3.4999999999578435
    vertex 220.8793464737326 283.08567152592417 1.9999999999638103
    vertex 220.87934659294228 291.08567152592417 1.9999999999578406
  endloop
endfacet
facet normal 0.0 -7.461823641992189e-13 -1.0
  outer loop
    vertex 220.8793464737326 283.08567152592417 1.9999999999638103
    vertex 217.62934659294228 291.08567157435306 1.9999999999578406
    vertex 220.87934659294228 291.08567152592417 1.9999999999578406
  endloop
endfacet
facet normal 0.0 -7.461823641992189e-13 -1.0
  outer loop
    vertex 217.62934659294228 291.08567157435306 1.9999999999578406
    vertex 220.8793464737326 283.08567152592417 1.9999999999638103
    vertex 217.6293464737326 283.0856715743531 1.9999999999638103
  endloop
endfacet
facet normal 3.180884385077149e-29 -7.461983808632136e-13 -1.0
  outer loop
    vertex 155.17645509251565 325.58567152592354 1.9999999999320959
    vertex 154.17645509251562 315.58567152592366 1.9999999999395575
    vertex 154.17645509251562 325.58567152592354 1.9999999999320959
  endloop
endfacet
facet normal 3.180884385077149e-29 -7.461983808632136e-13 -1.0
  outer loop
    vertex 154.17645509251562 315.58567152592366 1.9999999999395575
    vertex 155.17645509251565 325.58567152592354 1.9999999999320959
    vertex 155.17645509251565 315.58567152592366 1.9999999999395575
  endloop
endfacet
facet normal -3.180884385077149e-29 7.461983808632136e-13 1.0
  outer loop
    vertex 155.17645509251565 315.58567152592474 3.4999999999395577
    vertex 154.17645509251562 325.5856715259246 3.4999999999320957
    vertex 154.17645509251562 315.58567152592474 3.4999999999395577
  endloop
endfacet
facet normal -3.180884385077149e-29 7.461983808632136e-13 1.0
  outer loop
    vertex 154.17645509251562 325.5856715259246 3.4999999999320957
    vertex 155.17645509251565 315.58567152592474 3.4999999999395577
    vertex 155.17645509251565 325.5856715259246 3.4999999999320957
  endloop
endfacet
facet normal -1.0 -2.3735707778576476e-41 -3.180884385077149e-29
  outer loop
    vertex 154.17645509251562 315.58567152592366 1.9999999999395575
    vertex 154.17645509251562 325.5856715259246 3.4999999999320957
    vertex 154.17645509251562 325.58567152592354 1.9999999999320959
  endloop
endfacet
facet normal -1.0 -2.3735707778576476e-41 -3.180884385077149e-29
  outer loop
    vertex 154.17645509251562 325.5856715259246 3.4999999999320957
    vertex 154.17645509251562 315.58567152592366 1.9999999999395575
    vertex 154.17645509251562 315.58567152592474 3.4999999999395577
  endloop
endfacet
facet normal 0.0 -1.0 7.461983808632137e-13
  outer loop
    vertex 154.17645509251562 315.58567152592366 1.9999999999395575
    vertex 155.17645509251565 315.58567152592474 3.4999999999395577
    vertex 154.17645509251562 315.58567152592474 3.4999999999395577
  endloop
endfacet
facet normal 0.0 -1.0 7.461983808632137e-13
  outer loop
    vertex 155.17645509251565 315.58567152592474 3.4999999999395577
    vertex 154.17645509251562 315.58567152592366 1.9999999999395575
    vertex 155.17645509251565 315.58567152592366 1.9999999999395575
  endloop
endfacet
facet normal 1.0 2.3735707778576476e-41 3.180884385077149e-29
  outer loop
    vertex 155.17645509251565 315.58567152592474 3.4999999999395577
    vertex 155.17645509251565 325.58567152592354 1.9999999999320959
    vertex 155.17645509251565 325.5856715259246 3.4999999999320957
  endloop
endfacet
facet normal 1.0 2.3735707778576476e-41 3.180884385077149e-29
  outer loop
    vertex 155.17645509251565 325.58567152592354 1.9999999999320959
    vertex 155.17645509251565 315.58567152592474 3.4999999999395577
    vertex 155.17645509251565 315.58567152592366 1.9999999999395575
  endloop
endfacet
facet normal 0.0 1.0 -7.461983808632137e-13
  outer loop
    vertex 155.17645509251565 325.58567152592354 1.9999999999320959
    vertex 154.17645509251562 325.5856715259246 3.4999999999320957
    vertex 155.17645509251565 325.5856715259246 3.4999999999320957
  endloop
endfacet
facet normal 0.0 1.0 -7.461983808632137e-13
  outer loop
    vertex 154.17645509251562 325.5856715259246 3.4999999999320957
    vertex 155.17645509251565 325.58567152592354 1.9999999999320959
    vertex 154.17645509251562 325.58567152592354 1.9999999999320959
  endloop
endfacet
facet normal 3.180884385077149e-29 -7.461983808632136e-13 -1.0
  outer loop
    vertex 155.17645509251565 258.58567152592394 1.999999999982091
    vertex 154.17645509251562 248.58567152592406 1.9999999999895526
    vertex 154.17645509251562 258.58567152592394 1.999999999982091
  endloop
endfacet
facet normal 3.180884385077149e-29 -7.461983808632136e-13 -1.0
  outer loop
    vertex 154.17645509251562 248.58567152592406 1.9999999999895526
    vertex 155.17645509251565 258.58567152592394 1.999999999982091
    vertex 155.17645509251565 248.58567152592406 1.9999999999895526
  endloop
endfacet
facet normal -3.180884385077149e-29 7.461983808632136e-13 1.0
  outer loop
    vertex 155.17645509251565 248.5856715259252 3.499999999989553
    vertex 154.17645509251562 258.5856715259251 3.499999999982091
    vertex 154.17645509251562 248.5856715259252 3.499999999989553
  endloop
endfacet
facet normal -3.180884385077149e-29 7.461983808632136e-13 1.0
  outer loop
    vertex 154.17645509251562 258.5856715259251 3.499999999982091
    vertex 155.17645509251565 248.5856715259252 3.499999999989553
    vertex 155.17645509251565 258.5856715259251 3.499999999982091
  endloop
endfacet
facet normal -1.0 -2.3735707778576476e-41 -3.180884385077149e-29
  outer loop
    vertex 154.17645509251562 248.58567152592406 1.9999999999895526
    vertex 154.17645509251562 258.5856715259251 3.499999999982091
    vertex 154.17645509251562 258.58567152592394 1.999999999982091
  endloop
endfacet
facet normal -1.0 -2.3735707778576476e-41 -3.180884385077149e-29
  outer loop
    vertex 154.17645509251562 258.5856715259251 3.499999999982091
    vertex 154.17645509251562 248.58567152592406 1.9999999999895526
    vertex 154.17645509251562 248.5856715259252 3.499999999989553
  endloop
endfacet
facet normal 0.0 -1.0 7.461983808632137e-13
  outer loop
    vertex 154.17645509251562 248.58567152592406 1.9999999999895526
    vertex 155.17645509251565 248.5856715259252 3.499999999989553
    vertex 154.17645509251562 248.5856715259252 3.499999999989553
  endloop
endfacet
facet normal 0.0 -1.0 7.461983808632137e-13
  outer loop
    vertex 155.17645509251565 248.5856715259252 3.499999999989553
    vertex 154.17645509251562 248.58567152592406 1.9999999999895526
    vertex 155.17645509251565 248.58567152592406 1.9999999999895526
  endloop
endfacet
facet normal 1.0 2.3735707778576476e-41 3.180884385077149e-29
  outer loop
    vertex 155.17645509251565 248.5856715259252 3.499999999989553
    vertex 155.17645509251565 258.58567152592394 1.999999999982091
    vertex 155.17645509251565 258.5856715259251 3.499999999982091
  endloop
endfacet
facet normal 1.0 2.3735707778576476e-41 3.180884385077149e-29
  outer loop
    vertex 155.17645509251565 258.58567152592394 1.999999999982091
    vertex 155.17645509251565 248.5856715259252 3.499999999989553
    vertex 155.17645509251565 248.58567152592406 1.9999999999895526
  endloop
endfacet
facet normal 0.0 1.0 -7.461983808632137e-13
  outer loop
    vertex 155.17645509251565 258.58567152592394 1.999999999982091
    vertex 154.17645509251562 258.5856715259251 3.499999999982091
    vertex 155.17645509251565 258.5856715259251 3.499999999982091
  endloop
endfacet
facet normal 0.0 1.0 -7.461983808632137e-13
  outer loop
    vertex 154.17645509251562 258.5856715259251 3.499999999982091
    vertex 155.17645509251565 258.58567152592394 1.999999999982091
    vertex 154.17645509251562 258.58567152592394 1.999999999982091
  endloop
endfacet
facet normal -1.6016663994643734e-17 -7.461823641994576e-13 -1.0
  outer loop
    vertex 197.8489527856442 312.33567167493567 1.9999999999395874
    vertex 187.84895277074313 313.3356715259237 1.9999999999388411
    vertex 197.848952770743 313.33567167493567 1.9999999999388411
  endloop
endfacet
facet normal -1.6016663994643734e-17 -7.461823641994576e-13 -1.0
  outer loop
    vertex 187.84895277074313 313.3356715259237 1.9999999999388411
    vertex 197.8489527856442 312.33567167493567 1.9999999999395874
    vertex 187.84895278564431 312.3356715259237 1.9999999999395874
  endloop
endfacet
facet normal 1.6016663994643734e-17 7.461823641994576e-13 1.0
  outer loop
    vertex 187.84895278564431 312.3356715259248 3.499999999939587
    vertex 197.848952770743 313.3356716749368 3.4999999999388414
    vertex 187.84895277074313 313.3356715259248 3.4999999999388414
  endloop
endfacet
facet normal 1.6016663994643734e-17 7.461823641994576e-13 1.0
  outer loop
    vertex 197.848952770743 313.3356716749368 3.4999999999388414
    vertex 187.84895278564431 312.3356715259248 3.499999999939587
    vertex 197.8489527856442 312.33567167493675 3.499999999939587
  endloop
endfacet
facet normal -1.490119749814056e-08 1.0 -7.461823641992189e-13
  outer loop
    vertex 187.84895277074313 313.3356715259237 1.9999999999388411
    vertex 197.848952770743 313.3356716749368 3.4999999999388414
    vertex 197.848952770743 313.33567167493567 1.9999999999388411
  endloop
endfacet
facet normal -1.490119749814056e-08 1.0 -7.461823641992189e-13
  outer loop
    vertex 197.848952770743 313.3356716749368 3.4999999999388414
    vertex 187.84895277074313 313.3356715259237 1.9999999999388411
    vertex 187.84895277074313 313.3356715259248 3.4999999999388414
  endloop
endfacet
facet normal -1.0 -1.490119749814056e-08 1.602778300552327e-17
  outer loop
    vertex 187.84895277074313 313.3356715259237 1.9999999999388411
    vertex 187.84895278564431 312.3356715259248 3.499999999939587
    vertex 187.84895277074313 313.3356715259248 3.4999999999388414
  endloop
endfacet
facet normal -1.0 -1.490119749814056e-08 1.602778300552327e-17
  outer loop
    vertex 187.84895278564431 312.3356715259248 3.499999999939587
    vertex 187.84895277074313 313.3356715259237 1.9999999999388411
    vertex 187.84895278564431 312.3356715259237 1.9999999999395874
  endloop
endfacet
facet normal 1.490119749814056e-08 -1.0 7.461823641992189e-13
  outer loop
    vertex 187.84895278564431 312.3356715259248 3.499999999939587
    vertex 197.8489527856442 312.33567167493567 1.9999999999395874
    vertex 197.8489527856442 312.33567167493675 3.499999999939587
  endloop
endfacet
facet normal 1.490119749814056e-08 -1.0 7.461823641992189e-13
  outer loop
    vertex 197.8489527856442 312.33567167493567 1.9999999999395874
    vertex 187.84895278564431 312.3356715259248 3.499999999939587
    vertex 187.84895278564431 312.3356715259237 1.9999999999395874
  endloop
endfacet
facet normal 1.0 1.490119749814056e-08 -1.602778300552327e-17
  outer loop
    vertex 197.8489527856442 312.33567167493567 1.9999999999395874
    vertex 197.848952770743 313.3356716749368 3.4999999999388414
    vertex 197.8489527856442 312.33567167493675 3.499999999939587
  endloop
endfacet
facet normal 1.0 1.490119749814056e-08 -1.602778300552327e-17
  outer loop
    vertex 197.848952770743 313.3356716749368 3.4999999999388414
    vertex 197.8489527856442 312.33567167493567 1.9999999999395874
    vertex 197.848952770743 313.33567167493567 1.9999999999388411
  endloop
endfacet
facet normal -1.6016663994643734e-17 -7.461823641994576e-13 -1.0
  outer loop
    vertex 197.8489527856442 260.8356716749358 1.9999999999795153
    vertex 187.84895277074313 261.8356715259239 1.999999999978769
    vertex 197.848952770743 261.83567167493584 1.999999999978769
  endloop
endfacet
facet normal -1.6016663994643734e-17 -7.461823641994576e-13 -1.0
  outer loop
    vertex 187.84895277074313 261.8356715259239 1.999999999978769
    vertex 197.8489527856442 260.8356716749358 1.9999999999795153
    vertex 187.84895278564431 260.83567152592383 1.9999999999795153
  endloop
endfacet
facet normal 1.6016663994643734e-17 7.461823641994576e-13 1.0
  outer loop
    vertex 187.84895278564431 260.83567152592497 3.499999999979515
    vertex 197.848952770743 261.835671674937 3.499999999978769
    vertex 187.84895277074313 261.83567152592497 3.499999999978769
  endloop
endfacet
facet normal 1.6016663994643734e-17 7.461823641994576e-13 1.0
  outer loop
    vertex 197.848952770743 261.835671674937 3.499999999978769
    vertex 187.84895278564431 260.83567152592497 3.499999999979515
    vertex 197.8489527856442 260.8356716749369 3.499999999979515
  endloop
endfacet
facet normal -1.490119749814056e-08 1.0 -7.461823641992189e-13
  outer loop
    vertex 187.84895277074313 261.8356715259239 1.999999999978769
    vertex 197.848952770743 261.835671674937 3.499999999978769
    vertex 197.848952770743 261.83567167493584 1.999999999978769
  endloop
endfacet
facet normal -1.490119749814056e-08 1.0 -7.461823641992189e-13
  outer loop
    vertex 197.848952770743 261.835671674937 3.499999999978769
    vertex 187.84895277074313 261.8356715259239 1.999999999978769
    vertex 187.84895277074313 261.83567152592497 3.499999999978769
  endloop
endfacet
facet normal -1.0 -1.490119749814056e-08 1.602778300552327e-17
  outer loop
    vertex 187.84895277074313 261.8356715259239 1.999999999978769
    vertex 187.84895278564431 260.83567152592497 3.499999999979515
    vertex 187.84895277074313 261.83567152592497 3.499999999978769
  endloop
endfacet
facet normal -1.0 -1.490119749814056e-08 1.602778300552327e-17
  outer loop
    vertex 187.84895278564431 260.83567152592497 3.499999999979515
    vertex 187.84895277074313 261.8356715259239 1.999999999978769
    vertex 187.84895278564431 260.83567152592383 1.9999999999795153
  endloop
endfacet
facet normal 1.490119749814056e-08 -1.0 7.461823641992189e-13
  outer loop
    vertex 187.84895278564431 260.83567152592497 3.499999999979515
    vertex 197.8489527856442 260.8356716749358 1.9999999999795153
    vertex 197.8489527856442 260.8356716749369 3.499999999979515
  endloop
endfacet
facet normal 1.490119749814056e-08 -1.0 7.461823641992189e-13
  outer loop
    vertex 197.8489527856442 260.8356716749358 1.9999999999795153
    vertex 187.84895278564431 260.83567152592497 3.499999999979515
    vertex 187.84895278564431 260.83567152592383 1.9999999999795153
  endloop
endfacet
facet normal 1.0 1.490119749814056e-08 -1.602778300552327e-17
  outer loop
    vertex 197.8489527856442 260.8356716749358 1.9999999999795153
    vertex 197.848952770743 261.835671674937 3.499999999978769
    vertex 197.8489527856442 260.8356716749369 3.499999999979515
  endloop
endfacet
facet normal 1.0 1.490119749814056e-08 -1.602778300552327e-17
  outer loop
    vertex 197.848952770743 261.835671674937 3.499999999978769
    vertex 197.8489527856442 260.8356716749358 1.9999999999795153
    vertex 197.848952770743 261.83567167493584 1.999999999978769
  endloop
endfacet
endsolid legacy av
