%TF.GenerationSoftware,KiCad,Pcbnew,9.0.1+dfsg-1*%
%TF.CreationDate,2025-05-30T18:40:16+03:00*%
%TF.ProjectId,legacy_av_in,6c656761-6379-45f6-9176-5f696e2e6b69,rev?*%
%TF.SameCoordinates,Original*%
%TF.FileFunction,Soldermask,Top*%
%TF.FilePolarity,Negative*%
%FSLAX46Y46*%
G04 Gerber Fmt 4.6, Leading zero omitted, Abs format (unit mm)*
G04 Created by KiCad (PCBNEW 9.0.1+dfsg-1) date 2025-05-30 18:40:16*
%MOMM*%
%LPD*%
G01*
G04 APERTURE LIST*
G04 Aperture macros list*
%AMRoundRect*
0 Rectangle with rounded corners*
0 $1 Rounding radius*
0 $2 $3 $4 $5 $6 $7 $8 $9 X,Y pos of 4 corners*
0 Add a 4 corners polygon primitive as box body*
4,1,4,$2,$3,$4,$5,$6,$7,$8,$9,$2,$3,0*
0 Add four circle primitives for the rounded corners*
1,1,$1+$1,$2,$3*
1,1,$1+$1,$4,$5*
1,1,$1+$1,$6,$7*
1,1,$1+$1,$8,$9*
0 Add four rect primitives between the rounded corners*
20,1,$1+$1,$2,$3,$4,$5,0*
20,1,$1+$1,$4,$5,$6,$7,0*
20,1,$1+$1,$6,$7,$8,$9,0*
20,1,$1+$1,$8,$9,$2,$3,0*%
%AMFreePoly0*
4,1,14,0.318306,0.106694,0.381694,0.043306,0.400000,-0.000888,0.400000,-0.062500,0.381694,-0.106694,0.337500,-0.125000,-0.337500,-0.125000,-0.381694,-0.106694,-0.400000,-0.062500,-0.400000,0.062500,-0.381694,0.106694,-0.337500,0.125000,0.274112,0.125000,0.318306,0.106694,0.318306,0.106694,$1*%
%AMFreePoly1*
4,1,14,0.381694,0.106694,0.400000,0.062500,0.400000,0.000888,0.381694,-0.043306,0.318306,-0.106694,0.274112,-0.125000,-0.337500,-0.125000,-0.381694,-0.106694,-0.400000,-0.062500,-0.400000,0.062500,-0.381694,0.106694,-0.337500,0.125000,0.337500,0.125000,0.381694,0.106694,0.381694,0.106694,$1*%
%AMFreePoly2*
4,1,14,0.106694,0.381694,0.125000,0.337500,0.125000,-0.337500,0.106694,-0.381694,0.062500,-0.400000,-0.062500,-0.400000,-0.106694,-0.381694,-0.125000,-0.337500,-0.125000,0.274112,-0.106694,0.318306,-0.043306,0.381694,0.000888,0.400000,0.062500,0.400000,0.106694,0.381694,0.106694,0.381694,$1*%
%AMFreePoly3*
4,1,14,0.043306,0.381694,0.106694,0.318306,0.125000,0.274112,0.125000,-0.337500,0.106694,-0.381694,0.062500,-0.400000,-0.062500,-0.400000,-0.106694,-0.381694,-0.125000,-0.337500,-0.125000,0.337500,-0.106694,0.381694,-0.062500,0.400000,-0.000888,0.400000,0.043306,0.381694,0.043306,0.381694,$1*%
%AMFreePoly4*
4,1,14,0.381694,0.106694,0.400000,0.062500,0.400000,-0.062500,0.381694,-0.106694,0.337500,-0.125000,-0.274112,-0.125000,-0.318306,-0.106694,-0.381694,-0.043306,-0.400000,0.000888,-0.400000,0.062500,-0.381694,0.106694,-0.337500,0.125000,0.337500,0.125000,0.381694,0.106694,0.381694,0.106694,$1*%
%AMFreePoly5*
4,1,14,0.381694,0.106694,0.400000,0.062500,0.400000,-0.062500,0.381694,-0.106694,0.337500,-0.125000,-0.337500,-0.125000,-0.381694,-0.106694,-0.400000,-0.062500,-0.400000,-0.000888,-0.381694,0.043306,-0.318306,0.106694,-0.274112,0.125000,0.337500,0.125000,0.381694,0.106694,0.381694,0.106694,$1*%
%AMFreePoly6*
4,1,14,0.106694,0.381694,0.125000,0.337500,0.125000,-0.274112,0.106694,-0.318306,0.043306,-0.381694,-0.000888,-0.400000,-0.062500,-0.400000,-0.106694,-0.381694,-0.125000,-0.337500,-0.125000,0.337500,-0.106694,0.381694,-0.062500,0.400000,0.062500,0.400000,0.106694,0.381694,0.106694,0.381694,$1*%
%AMFreePoly7*
4,1,14,0.106694,0.381694,0.125000,0.337500,0.125000,-0.337500,0.106694,-0.381694,0.062500,-0.400000,0.000888,-0.400000,-0.043306,-0.381694,-0.106694,-0.318306,-0.125000,-0.274112,-0.125000,0.337500,-0.106694,0.381694,-0.062500,0.400000,0.062500,0.400000,0.106694,0.381694,0.106694,0.381694,$1*%
G04 Aperture macros list end*
%ADD10RoundRect,0.160000X0.197500X0.160000X-0.197500X0.160000X-0.197500X-0.160000X0.197500X-0.160000X0*%
%ADD11R,1.700000X1.700000*%
%ADD12O,1.700000X1.700000*%
%ADD13C,2.540000*%
%ADD14R,1.143000X0.635000*%
%ADD15FreePoly0,270.000000*%
%ADD16RoundRect,0.062500X-0.062500X0.337500X-0.062500X-0.337500X0.062500X-0.337500X0.062500X0.337500X0*%
%ADD17FreePoly1,270.000000*%
%ADD18FreePoly2,270.000000*%
%ADD19RoundRect,0.062500X-0.337500X0.062500X-0.337500X-0.062500X0.337500X-0.062500X0.337500X0.062500X0*%
%ADD20FreePoly3,270.000000*%
%ADD21FreePoly4,270.000000*%
%ADD22FreePoly5,270.000000*%
%ADD23FreePoly6,270.000000*%
%ADD24FreePoly7,270.000000*%
%ADD25R,2.400000X2.400000*%
%ADD26R,0.635000X1.143000*%
%ADD27RoundRect,0.155000X0.212500X0.155000X-0.212500X0.155000X-0.212500X-0.155000X0.212500X-0.155000X0*%
%ADD28R,1.000000X1.000000*%
%ADD29C,3.200000*%
%ADD30R,0.500000X0.380000*%
%ADD31R,0.650000X0.300000*%
%ADD32RoundRect,0.250001X-0.849999X0.462499X-0.849999X-0.462499X0.849999X-0.462499X0.849999X0.462499X0*%
%ADD33RoundRect,0.155000X-0.155000X0.212500X-0.155000X-0.212500X0.155000X-0.212500X0.155000X0.212500X0*%
%ADD34RoundRect,0.160000X-0.160000X0.197500X-0.160000X-0.197500X0.160000X-0.197500X0.160000X0.197500X0*%
%ADD35RoundRect,0.160000X0.160000X-0.197500X0.160000X0.197500X-0.160000X0.197500X-0.160000X-0.197500X0*%
%ADD36RoundRect,0.155000X0.155000X-0.212500X0.155000X0.212500X-0.155000X0.212500X-0.155000X-0.212500X0*%
%ADD37C,2.000000*%
%ADD38RoundRect,0.150000X-0.150000X0.587500X-0.150000X-0.587500X0.150000X-0.587500X0.150000X0.587500X0*%
%ADD39C,5.500000*%
%ADD40RoundRect,0.102000X-0.704000X-0.704000X0.704000X-0.704000X0.704000X0.704000X-0.704000X0.704000X0*%
%ADD41C,1.612000*%
%ADD42O,2.934000X1.434000*%
%ADD43O,1.434000X2.934000*%
%ADD44O,2.004000X3.804000*%
%ADD45O,4.404000X2.304000*%
%ADD46RoundRect,0.155000X-0.212500X-0.155000X0.212500X-0.155000X0.212500X0.155000X-0.212500X0.155000X0*%
%ADD47RoundRect,0.150000X-0.150000X0.512500X-0.150000X-0.512500X0.150000X-0.512500X0.150000X0.512500X0*%
%ADD48R,1.600000X1.600000*%
%ADD49C,1.600000*%
%ADD50RoundRect,0.062500X-0.062500X0.375000X-0.062500X-0.375000X0.062500X-0.375000X0.062500X0.375000X0*%
%ADD51RoundRect,0.062500X-0.375000X0.062500X-0.375000X-0.062500X0.375000X-0.062500X0.375000X0.062500X0*%
%ADD52R,3.600000X3.600000*%
%ADD53RoundRect,0.160000X-0.197500X-0.160000X0.197500X-0.160000X0.197500X0.160000X-0.197500X0.160000X0*%
%ADD54C,3.250000*%
%ADD55RoundRect,0.102000X0.323000X-0.373000X0.323000X0.373000X-0.323000X0.373000X-0.323000X-0.373000X0*%
%ADD56R,0.700000X0.340000*%
%ADD57RoundRect,0.150000X0.150000X-0.587500X0.150000X0.587500X-0.150000X0.587500X-0.150000X-0.587500X0*%
%ADD58C,1.700000*%
%ADD59RoundRect,0.100000X-0.100000X0.637500X-0.100000X-0.637500X0.100000X-0.637500X0.100000X0.637500X0*%
G04 APERTURE END LIST*
D10*
%TO.C,R9*%
X108467500Y-60710000D03*
X107272500Y-60710000D03*
%TD*%
D11*
%TO.C,J1*%
X48925790Y-27248710D03*
D12*
X46385790Y-27248710D03*
X48925790Y-29788710D03*
X46385790Y-29788710D03*
X48925790Y-32328710D03*
X46385790Y-32328710D03*
X48925790Y-34868710D03*
X46385790Y-34868710D03*
X48925790Y-37408710D03*
X46385790Y-37408710D03*
X48925790Y-39948710D03*
X46385790Y-39948710D03*
X48925790Y-42488710D03*
X46385790Y-42488710D03*
X48925790Y-45028710D03*
X46385790Y-45028710D03*
X48925790Y-47568710D03*
X46385790Y-47568710D03*
X48925790Y-50108710D03*
X46385790Y-50108710D03*
X48925790Y-52648710D03*
X46385790Y-52648710D03*
X48925790Y-55188710D03*
X46385790Y-55188710D03*
X48925790Y-57728710D03*
X46385790Y-57728710D03*
X48925790Y-60268710D03*
X46385790Y-60268710D03*
X48925790Y-62808710D03*
X46385790Y-62808710D03*
X48925790Y-65348710D03*
X46385790Y-65348710D03*
X48925790Y-67888710D03*
X46385790Y-67888710D03*
X48925790Y-70428710D03*
X46385790Y-70428710D03*
X48925790Y-72968710D03*
X46385790Y-72968710D03*
X48925790Y-75508710D03*
X46385790Y-75508710D03*
X48925790Y-78048710D03*
X46385790Y-78048710D03*
X48925790Y-80588710D03*
X46385790Y-80588710D03*
X48925790Y-83128710D03*
X46385790Y-83128710D03*
X48925790Y-85668710D03*
X46385790Y-85668710D03*
X48925790Y-88208710D03*
X46385790Y-88208710D03*
%TD*%
D13*
%TO.C,ST1*%
X53190000Y-15300000D03*
X48110000Y-15300000D03*
X53190000Y-20740000D03*
X48110000Y-20740000D03*
%TD*%
%TO.C,ST2*%
X53190000Y-94720000D03*
X48110000Y-94720000D03*
X53190000Y-100160000D03*
X48110000Y-100160000D03*
%TD*%
D14*
%TO.C,R7*%
X70100000Y-62486000D03*
X70100000Y-64010000D03*
%TD*%
D15*
%TO.C,U2*%
X107444000Y-51640000D03*
D16*
X106944000Y-51640000D03*
X106444000Y-51640000D03*
X105944000Y-51640000D03*
X105444000Y-51640000D03*
X104944000Y-51640000D03*
X104444000Y-51640000D03*
D17*
X103944000Y-51640000D03*
D18*
X103744000Y-52340000D03*
D19*
X103744000Y-52840000D03*
X103744000Y-53340000D03*
X103744000Y-53840000D03*
X103744000Y-54340000D03*
D20*
X103744000Y-54840000D03*
D21*
X103944000Y-55540000D03*
D16*
X104444000Y-55540000D03*
X104944000Y-55540000D03*
X105444000Y-55540000D03*
X105944000Y-55540000D03*
X106444000Y-55540000D03*
X106944000Y-55540000D03*
D22*
X107444000Y-55540000D03*
D23*
X107644000Y-54840000D03*
D19*
X107644000Y-54340000D03*
X107644000Y-53840000D03*
X107644000Y-53340000D03*
X107644000Y-52840000D03*
D24*
X107644000Y-52340000D03*
D25*
X105694000Y-53590000D03*
%TD*%
D26*
%TO.C,FB1*%
X52806000Y-80040000D03*
X54330000Y-80040000D03*
%TD*%
D14*
%TO.C,R11*%
X58550000Y-60564000D03*
X58550000Y-59040000D03*
%TD*%
D26*
%TO.C,FB2*%
X52806000Y-81700000D03*
X54330000Y-81700000D03*
%TD*%
D27*
%TO.C,C15*%
X65735000Y-49850000D03*
X64600000Y-49850000D03*
%TD*%
%TO.C,C34*%
X102944000Y-50470000D03*
X101809000Y-50470000D03*
%TD*%
D28*
%TO.C,TP3*%
X105940000Y-47010000D03*
%TD*%
D29*
%TO.C,MH3*%
X115500000Y-68270000D03*
%TD*%
D30*
%TO.C,D4*%
X68710000Y-70550000D03*
D31*
X68790000Y-70010000D03*
D30*
X68710000Y-69470000D03*
X67010000Y-69470000D03*
X67010000Y-70550000D03*
%TD*%
D32*
%TO.C,L4*%
X78210000Y-42530000D03*
X78210000Y-44855000D03*
%TD*%
D14*
%TO.C,R6*%
X77630000Y-65734000D03*
X77630000Y-64210000D03*
%TD*%
D33*
%TO.C,C41*%
X101124000Y-54352500D03*
X101124000Y-55487500D03*
%TD*%
D26*
%TO.C,L5*%
X115954000Y-55240000D03*
X114430000Y-55240000D03*
%TD*%
%TO.C,C18*%
X112268000Y-52830000D03*
X110744000Y-52830000D03*
%TD*%
D34*
%TO.C,R18*%
X68180000Y-64772500D03*
X68180000Y-65967500D03*
%TD*%
%TO.C,R15*%
X69130000Y-64772500D03*
X69130000Y-65967500D03*
%TD*%
D35*
%TO.C,R14*%
X76260000Y-60247500D03*
X76260000Y-59052500D03*
%TD*%
D28*
%TO.C,TP4*%
X110710000Y-47020000D03*
%TD*%
D36*
%TO.C,C16*%
X111730000Y-57747500D03*
X111730000Y-56612500D03*
%TD*%
D37*
%TO.C,J6*%
X87020000Y-63260000D03*
X99720000Y-63260000D03*
X112420000Y-63260000D03*
X80670000Y-56910000D03*
X118770000Y-56910000D03*
X80670000Y-44210000D03*
X118770000Y-44210000D03*
X87020000Y-37860000D03*
X99720000Y-37860000D03*
X112420000Y-37860000D03*
%TD*%
D26*
%TO.C,L3*%
X116134000Y-49420000D03*
X114610000Y-49420000D03*
%TD*%
D38*
%TO.C,D3*%
X116320000Y-57830000D03*
X114420000Y-57830000D03*
X115370000Y-59705000D03*
%TD*%
D39*
%TO.C,MH4*%
X94900000Y-79930000D03*
%TD*%
D26*
%TO.C,C30*%
X79030000Y-61560000D03*
X77506000Y-61560000D03*
%TD*%
D28*
%TO.C,TP1*%
X109120000Y-47010000D03*
%TD*%
%TO.C,TP2*%
X107530000Y-47010000D03*
%TD*%
D33*
%TO.C,C8*%
X60130000Y-56322500D03*
X60130000Y-57457500D03*
%TD*%
%TO.C,C12*%
X66120000Y-60105000D03*
X66120000Y-61240000D03*
%TD*%
D27*
%TO.C,C27*%
X75322500Y-48391750D03*
X74187500Y-48391750D03*
%TD*%
D40*
%TO.C,J4*%
X85190000Y-74890000D03*
D41*
X78390000Y-74890000D03*
X85190000Y-72390000D03*
X78390000Y-72390000D03*
D42*
X81790000Y-78690000D03*
D43*
X75040000Y-77890000D03*
X88540000Y-77890000D03*
%TD*%
D26*
%TO.C,C17*%
X112284000Y-54650000D03*
X110760000Y-54650000D03*
%TD*%
D14*
%TO.C,R10*%
X56900000Y-60564000D03*
X56900000Y-59040000D03*
%TD*%
D33*
%TO.C,C13*%
X67070000Y-60105000D03*
X67070000Y-61240000D03*
%TD*%
D29*
%TO.C,MH2*%
X53300000Y-86500000D03*
%TD*%
D44*
%TO.C,J3*%
X61887500Y-75700000D03*
X69387500Y-75700000D03*
D45*
X65637500Y-79400000D03*
%TD*%
D33*
%TO.C,C37*%
X102034000Y-54352500D03*
X102034000Y-55487500D03*
%TD*%
D14*
%TO.C,C5*%
X74310000Y-63984000D03*
X74310000Y-62460000D03*
%TD*%
D26*
%TO.C,R20*%
X99774000Y-58900000D03*
X98250000Y-58900000D03*
%TD*%
D46*
%TO.C,C36*%
X107139000Y-57660000D03*
X108274000Y-57660000D03*
%TD*%
D14*
%TO.C,L2*%
X110844000Y-51054000D03*
X110844000Y-49530000D03*
%TD*%
D29*
%TO.C,MH1*%
X53300000Y-29000000D03*
%TD*%
D33*
%TO.C,C31*%
X75080000Y-59082500D03*
X75080000Y-60217500D03*
%TD*%
D14*
%TO.C,C20*%
X116250000Y-52790000D03*
X116250000Y-51266000D03*
%TD*%
D26*
%TO.C,C39*%
X86074000Y-41860000D03*
X84550000Y-41860000D03*
%TD*%
D47*
%TO.C,U5*%
X86130000Y-43975000D03*
X85180000Y-43975000D03*
X84230000Y-43975000D03*
X84230000Y-46250000D03*
X86130000Y-46250000D03*
%TD*%
D33*
%TO.C,C10*%
X61970000Y-59035000D03*
X61970000Y-60170000D03*
%TD*%
D48*
%TO.C,C42*%
X56220000Y-68940000D03*
D49*
X56220000Y-71440000D03*
%TD*%
D26*
%TO.C,R4*%
X65260000Y-67960000D03*
X66784000Y-67960000D03*
%TD*%
D14*
%TO.C,C19*%
X112514000Y-49526000D03*
X112514000Y-51050000D03*
%TD*%
D26*
%TO.C,C40*%
X85580000Y-48150000D03*
X84056000Y-48150000D03*
%TD*%
D14*
%TO.C,C2*%
X63290000Y-66614000D03*
X63290000Y-65090000D03*
%TD*%
D27*
%TO.C,C14*%
X65745000Y-50830000D03*
X64610000Y-50830000D03*
%TD*%
D14*
%TO.C,C21*%
X114550000Y-52780000D03*
X114550000Y-51256000D03*
%TD*%
%TO.C,R1*%
X63280000Y-69274000D03*
X63280000Y-67750000D03*
%TD*%
D33*
%TO.C,C1*%
X64870000Y-59882500D03*
X64870000Y-61017500D03*
%TD*%
D50*
%TO.C,U1*%
X67350000Y-53340000D03*
X66850000Y-53340000D03*
X66350000Y-53340000D03*
X65850000Y-53340000D03*
X65350000Y-53340000D03*
X64850000Y-53340000D03*
X64350000Y-53340000D03*
X63850000Y-53340000D03*
D51*
X63162500Y-54027500D03*
X63162500Y-54527500D03*
X63162500Y-55027500D03*
X63162500Y-55527500D03*
X63162500Y-56027500D03*
X63162500Y-56527500D03*
X63162500Y-57027500D03*
X63162500Y-57527500D03*
D50*
X63850000Y-58215000D03*
X64350000Y-58215000D03*
X64850000Y-58215000D03*
X65350000Y-58215000D03*
X65850000Y-58215000D03*
X66350000Y-58215000D03*
X66850000Y-58215000D03*
X67350000Y-58215000D03*
D51*
X68037500Y-57527500D03*
X68037500Y-57027500D03*
X68037500Y-56527500D03*
X68037500Y-56027500D03*
X68037500Y-55527500D03*
X68037500Y-55027500D03*
X68037500Y-54527500D03*
X68037500Y-54027500D03*
D52*
X65600000Y-55777500D03*
%TD*%
D27*
%TO.C,C38*%
X100070000Y-52540000D03*
X98935000Y-52540000D03*
%TD*%
D33*
%TO.C,C11*%
X61000000Y-59035000D03*
X61000000Y-60170000D03*
%TD*%
D53*
%TO.C,R16*%
X73152500Y-45662500D03*
X74347500Y-45662500D03*
%TD*%
D14*
%TO.C,L1*%
X110284000Y-57954000D03*
X110284000Y-56430000D03*
%TD*%
%TO.C,C4*%
X71800000Y-64004000D03*
X71800000Y-62480000D03*
%TD*%
D26*
%TO.C,C28*%
X79310000Y-48280000D03*
X77786000Y-48280000D03*
%TD*%
D36*
%TO.C,C7*%
X66810000Y-52030000D03*
X66810000Y-50895000D03*
%TD*%
D14*
%TO.C,C24*%
X79000000Y-58436000D03*
X79000000Y-59960000D03*
%TD*%
D33*
%TO.C,C29*%
X79290000Y-50432500D03*
X79290000Y-51567500D03*
%TD*%
D54*
%TO.C,J2*%
X105780000Y-70000000D03*
X110080000Y-74300000D03*
X110080000Y-65700000D03*
X101480000Y-74300000D03*
X101480000Y-65700000D03*
%TD*%
D34*
%TO.C,R13*%
X73920000Y-59082500D03*
X73920000Y-60277500D03*
%TD*%
D14*
%TO.C,R8*%
X75990000Y-62466000D03*
X75990000Y-63990000D03*
%TD*%
D26*
%TO.C,R3*%
X69464000Y-67960000D03*
X67940000Y-67960000D03*
%TD*%
D39*
%TO.C,MH5*%
X65950000Y-38360000D03*
%TD*%
D55*
%TO.C,Y1*%
X104350000Y-60530000D03*
X104350000Y-59080000D03*
X103200000Y-59080000D03*
X103200000Y-60530000D03*
%TD*%
D26*
%TO.C,C33*%
X77940000Y-46600000D03*
X76416000Y-46600000D03*
%TD*%
D27*
%TO.C,C35*%
X102937500Y-49450000D03*
X101802500Y-49450000D03*
%TD*%
D53*
%TO.C,R17*%
X71942500Y-44612500D03*
X73137500Y-44612500D03*
%TD*%
D26*
%TO.C,R2*%
X60336000Y-67180000D03*
X61860000Y-67180000D03*
%TD*%
%TO.C,C32*%
X75770000Y-41452500D03*
X74246000Y-41452500D03*
%TD*%
D36*
%TO.C,C25*%
X79290000Y-53907500D03*
X79290000Y-52772500D03*
%TD*%
D56*
%TO.C,U4*%
X75730000Y-44342500D03*
X75730000Y-43842500D03*
X75730000Y-43342500D03*
X74230000Y-43342500D03*
X74230000Y-43842500D03*
X74230000Y-44342500D03*
%TD*%
D14*
%TO.C,R5*%
X71810000Y-66674000D03*
X71810000Y-65150000D03*
%TD*%
D33*
%TO.C,C9*%
X61050000Y-56322500D03*
X61050000Y-57457500D03*
%TD*%
D14*
%TO.C,C3*%
X66120000Y-66604000D03*
X66120000Y-65080000D03*
%TD*%
D57*
%TO.C,Q1*%
X97914000Y-56920000D03*
X99814000Y-56920000D03*
X98864000Y-55045000D03*
%TD*%
D36*
%TO.C,C6*%
X67780000Y-52025000D03*
X67780000Y-50890000D03*
%TD*%
D11*
%TO.C,J5*%
X57205000Y-76180000D03*
D58*
X54665000Y-76180000D03*
%TD*%
D26*
%TO.C,C26*%
X75321500Y-47111750D03*
X73797500Y-47111750D03*
%TD*%
D59*
%TO.C,U3*%
X77764000Y-50347500D03*
X77114000Y-50347500D03*
X76464000Y-50347500D03*
X75814000Y-50347500D03*
X75164000Y-50347500D03*
X74514000Y-50347500D03*
X73864000Y-50347500D03*
X73864000Y-56072500D03*
X74514000Y-56072500D03*
X75164000Y-56072500D03*
X75814000Y-56072500D03*
X76464000Y-56072500D03*
X77114000Y-56072500D03*
X77764000Y-56072500D03*
%TD*%
D10*
%TO.C,R19*%
X108317500Y-58800000D03*
X107122500Y-58800000D03*
%TD*%
M02*
