%TF.GenerationSoftware,KiCad,Pcbnew,7.0.11+dfsg-1*%
%TF.CreationDate,2024-04-09T00:47:46+03:00*%
%TF.ProjectId,legacy_av_in,6c656761-6379-45f6-9176-5f696e2e6b69,rev?*%
%TF.SameCoordinates,Original*%
%TF.FileFunction,Copper,L4,Bot*%
%TF.FilePolarity,Positive*%
%FSLAX46Y46*%
G04 Gerber Fmt 4.6, Leading zero omitted, Abs format (unit mm)*
G04 Created by KiCad (PCBNEW 7.0.11+dfsg-1) date 2024-04-09 00:47:46*
%MOMM*%
%LPD*%
G01*
G04 APERTURE LIST*
%TA.AperFunction,ComponentPad*%
%ADD10R,1.700000X1.700000*%
%TD*%
%TA.AperFunction,ComponentPad*%
%ADD11O,1.700000X1.700000*%
%TD*%
%TA.AperFunction,ComponentPad*%
%ADD12C,2.540000*%
%TD*%
%TA.AperFunction,ComponentPad*%
%ADD13C,0.500000*%
%TD*%
%TA.AperFunction,SMDPad,CuDef*%
%ADD14R,2.400000X2.400000*%
%TD*%
%TA.AperFunction,ComponentPad*%
%ADD15C,5.500000*%
%TD*%
%TA.AperFunction,ComponentPad*%
%ADD16R,1.408000X1.408000*%
%TD*%
%TA.AperFunction,ComponentPad*%
%ADD17C,1.408000*%
%TD*%
%TA.AperFunction,ComponentPad*%
%ADD18O,2.730000X1.230000*%
%TD*%
%TA.AperFunction,ComponentPad*%
%ADD19O,1.230000X2.730000*%
%TD*%
%TA.AperFunction,ComponentPad*%
%ADD20O,1.800000X3.600000*%
%TD*%
%TA.AperFunction,ComponentPad*%
%ADD21O,4.200000X2.100000*%
%TD*%
%TA.AperFunction,ComponentPad*%
%ADD22C,0.600000*%
%TD*%
%TA.AperFunction,SMDPad,CuDef*%
%ADD23R,3.600000X3.600000*%
%TD*%
%TA.AperFunction,ComponentPad*%
%ADD24C,3.250000*%
%TD*%
%TA.AperFunction,ViaPad*%
%ADD25C,0.686000*%
%TD*%
%TA.AperFunction,Conductor*%
%ADD26C,0.250000*%
%TD*%
%TA.AperFunction,Conductor*%
%ADD27C,0.200000*%
%TD*%
G04 APERTURE END LIST*
D10*
%TO.P,J1,1,Pin_1*%
%TO.N,/ADV_CLKIN*%
X48925790Y-27248710D03*
D11*
%TO.P,J1,2,Pin_2*%
%TO.N,/PCM_CLKIN*%
X46385790Y-27248710D03*
%TO.P,J1,3,Pin_3*%
%TO.N,/ADV_LLC*%
X48925790Y-29788710D03*
%TO.P,J1,4,Pin_4*%
%TO.N,unconnected-(J1-Pin_4-Pad4)*%
X46385790Y-29788710D03*
%TO.P,J1,5,Pin_5*%
%TO.N,unconnected-(J1-Pin_5-Pad5)*%
X48925790Y-32328710D03*
%TO.P,J1,6,Pin_6*%
%TO.N,unconnected-(J1-Pin_6-Pad6)*%
X46385790Y-32328710D03*
%TO.P,J1,7,Pin_7*%
%TO.N,unconnected-(J1-Pin_7-Pad7)*%
X48925790Y-34868710D03*
%TO.P,J1,8,Pin_8*%
%TO.N,unconnected-(J1-Pin_8-Pad8)*%
X46385790Y-34868710D03*
%TO.P,J1,9,Pin_9*%
%TO.N,/ADV_VS*%
X48925790Y-37408710D03*
%TO.P,J1,10,Pin_10*%
%TO.N,/ADV_IRQ*%
X46385790Y-37408710D03*
%TO.P,J1,11,Pin_11*%
%TO.N,unconnected-(J1-Pin_11-Pad11)*%
X48925790Y-39948710D03*
%TO.P,J1,12,Pin_12*%
%TO.N,/ADV_HS*%
X46385790Y-39948710D03*
%TO.P,J1,13,Pin_13*%
%TO.N,/ADV_P6*%
X48925790Y-42488710D03*
%TO.P,J1,14,Pin_14*%
%TO.N,/ADV_P7*%
X46385790Y-42488710D03*
%TO.P,J1,15,Pin_15*%
%TO.N,/ADV_P4*%
X48925790Y-45028710D03*
%TO.P,J1,16,Pin_16*%
%TO.N,/ADV_P5*%
X46385790Y-45028710D03*
%TO.P,J1,17,Pin_17*%
%TO.N,/DVDD5*%
X48925790Y-47568710D03*
%TO.P,J1,18,Pin_18*%
%TO.N,GND*%
X46385790Y-47568710D03*
%TO.P,J1,19,Pin_19*%
%TO.N,/ADV_P2*%
X48925790Y-50108710D03*
%TO.P,J1,20,Pin_20*%
%TO.N,/ADV_P3*%
X46385790Y-50108710D03*
%TO.P,J1,21,Pin_21*%
%TO.N,/ADV_P0*%
X48925790Y-52648710D03*
%TO.P,J1,22,Pin_22*%
%TO.N,/ADV_P1*%
X46385790Y-52648710D03*
%TO.P,J1,23,Pin_23*%
%TO.N,/I2S_BCK_o*%
X48925790Y-55188710D03*
%TO.P,J1,24,Pin_24*%
%TO.N,/I2S_WS_o*%
X46385790Y-55188710D03*
%TO.P,J1,25,Pin_25*%
%TO.N,/I2S_DATA_o*%
X48925790Y-57728710D03*
%TO.P,J1,26,Pin_26*%
%TO.N,unconnected-(J1-Pin_26-Pad26)*%
X46385790Y-57728710D03*
%TO.P,J1,27,Pin_27*%
%TO.N,unconnected-(J1-Pin_27-Pad27)*%
X48925790Y-60268710D03*
%TO.P,J1,28,Pin_28*%
%TO.N,unconnected-(J1-Pin_28-Pad28)*%
X46385790Y-60268710D03*
%TO.P,J1,29,Pin_29*%
%TO.N,unconnected-(J1-Pin_29-Pad29)*%
X48925790Y-62808710D03*
%TO.P,J1,30,Pin_30*%
%TO.N,unconnected-(J1-Pin_30-Pad30)*%
X46385790Y-62808710D03*
%TO.P,J1,31,Pin_31*%
%TO.N,unconnected-(J1-Pin_31-Pad31)*%
X48925790Y-65348710D03*
%TO.P,J1,32,Pin_32*%
%TO.N,unconnected-(J1-Pin_32-Pad32)*%
X46385790Y-65348710D03*
%TO.P,J1,33,Pin_33*%
%TO.N,unconnected-(J1-Pin_33-Pad33)*%
X48925790Y-67888710D03*
%TO.P,J1,34,Pin_34*%
%TO.N,unconnected-(J1-Pin_34-Pad34)*%
X46385790Y-67888710D03*
%TO.P,J1,35,Pin_35*%
%TO.N,/DVDD3v3*%
X48925790Y-70428710D03*
%TO.P,J1,36,Pin_36*%
%TO.N,GND*%
X46385790Y-70428710D03*
%TO.P,J1,37,Pin_37*%
%TO.N,unconnected-(J1-Pin_37-Pad37)*%
X48925790Y-72968710D03*
%TO.P,J1,38,Pin_38*%
%TO.N,unconnected-(J1-Pin_38-Pad38)*%
X46385790Y-72968710D03*
%TO.P,J1,39,Pin_39*%
%TO.N,unconnected-(J1-Pin_39-Pad39)*%
X48925790Y-75508710D03*
%TO.P,J1,40,Pin_40*%
%TO.N,unconnected-(J1-Pin_40-Pad40)*%
X46385790Y-75508710D03*
%TO.P,J1,41,Pin_41*%
%TO.N,unconnected-(J1-Pin_41-Pad41)*%
X48925790Y-78048710D03*
%TO.P,J1,42,Pin_42*%
%TO.N,unconnected-(J1-Pin_42-Pad42)*%
X46385790Y-78048710D03*
%TO.P,J1,43,Pin_43*%
%TO.N,unconnected-(J1-Pin_43-Pad43)*%
X48925790Y-80588710D03*
%TO.P,J1,44,Pin_44*%
%TO.N,unconnected-(J1-Pin_44-Pad44)*%
X46385790Y-80588710D03*
%TO.P,J1,45,Pin_45*%
%TO.N,/I2S_BCK*%
X48925790Y-83128710D03*
%TO.P,J1,46,Pin_46*%
%TO.N,/I2S_WS*%
X46385790Y-83128710D03*
%TO.P,J1,47,Pin_47*%
%TO.N,/I2S_DATA*%
X48925790Y-85668710D03*
%TO.P,J1,48,Pin_48*%
%TO.N,/SPDIF*%
X46385790Y-85668710D03*
%TO.P,J1,49,Pin_49*%
%TO.N,/SDA*%
X48925790Y-88208710D03*
%TO.P,J1,50,Pin_50*%
%TO.N,/SCL*%
X46385790Y-88208710D03*
%TD*%
D12*
%TO.P,ST1,1,Pin_1*%
%TO.N,GND*%
X53190000Y-15300000D03*
X48110000Y-15300000D03*
X53190000Y-20740000D03*
X48110000Y-20740000D03*
%TD*%
%TO.P,ST2,1,Pin_1*%
%TO.N,GND*%
X53190000Y-94720000D03*
X48110000Y-94720000D03*
X53190000Y-100160000D03*
X48110000Y-100160000D03*
%TD*%
D13*
%TO.P,U2,29,EP*%
%TO.N,GND*%
X91670000Y-64190000D03*
X90720000Y-64190000D03*
X89770000Y-64190000D03*
X91670000Y-65140000D03*
X90720000Y-65140000D03*
D14*
X90720000Y-65140000D03*
D13*
X89770000Y-65140000D03*
X91670000Y-66090000D03*
X90720000Y-66090000D03*
X89770000Y-66090000D03*
%TD*%
D15*
%TO.P,MH4,1*%
%TO.N,N/C*%
X94900000Y-79930000D03*
%TD*%
D16*
%TO.P,J4,1*%
%TO.N,GND*%
X85190000Y-74890000D03*
D17*
%TO.P,J4,2*%
X78390000Y-74890000D03*
%TO.P,J4,3*%
%TO.N,/SV_Y*%
X85190000Y-72390000D03*
%TO.P,J4,4*%
%TO.N,/SV_C*%
X78390000Y-72390000D03*
D18*
%TO.P,J4,S1*%
%TO.N,N/C*%
X81790000Y-78690000D03*
D19*
%TO.P,J4,S2*%
X75040000Y-77890000D03*
%TO.P,J4,S3*%
X88540000Y-77890000D03*
%TD*%
D20*
%TO.P,J3,1,In*%
%TO.N,/CVBS1*%
X61887500Y-75700000D03*
X69387500Y-75700000D03*
D21*
%TO.P,J3,2,Ext*%
%TO.N,GND*%
X65637500Y-79400000D03*
%TD*%
D22*
%TO.P,U1,33,DGND*%
%TO.N,GND*%
X67100000Y-54277500D03*
X65600000Y-54277500D03*
X64100000Y-54277500D03*
X67100000Y-55777500D03*
X65600000Y-55777500D03*
D23*
X65600000Y-55777500D03*
D22*
X64100000Y-55777500D03*
X67100000Y-57277500D03*
X65600000Y-57277500D03*
X64100000Y-57277500D03*
%TD*%
D24*
%TO.P,J2,1,In*%
%TO.N,Net-(J2-In)*%
X105780000Y-70000000D03*
%TO.P,J2,2,Ext*%
%TO.N,GND*%
X110080000Y-74300000D03*
X110080000Y-65700000D03*
X101480000Y-74300000D03*
X101480000Y-65700000D03*
%TD*%
D15*
%TO.P,MH5,1*%
%TO.N,N/C*%
X65950000Y-38360000D03*
%TD*%
D25*
%TO.N,GND*%
X52478408Y-65346427D03*
X52478408Y-72966427D03*
X93120000Y-73120000D03*
X77878408Y-39946427D03*
X49938408Y-93286427D03*
X118518408Y-80586427D03*
X67360000Y-50180000D03*
X113438408Y-65346427D03*
X118518408Y-65346427D03*
X80418408Y-37406427D03*
X44858408Y-57726427D03*
X60098408Y-70426427D03*
X80418408Y-72966427D03*
X60098408Y-34866427D03*
X75338408Y-34866427D03*
X103278408Y-78046427D03*
X88038408Y-55186427D03*
X108358408Y-70426427D03*
X75240000Y-60690000D03*
X118518408Y-70426427D03*
X57558408Y-67886427D03*
X55018408Y-78046427D03*
X103278408Y-70426427D03*
X44858408Y-37406427D03*
X80418408Y-34866427D03*
X44858408Y-39946427D03*
X67718408Y-34866427D03*
X105818408Y-75506427D03*
X49938408Y-17086427D03*
X75900000Y-51070000D03*
X63700000Y-50247000D03*
X55018408Y-32326427D03*
X83390000Y-63260000D03*
X80418408Y-75506427D03*
X44858408Y-45026427D03*
X72798408Y-47566427D03*
X60098408Y-78046427D03*
X72798408Y-42486427D03*
X115978408Y-75506427D03*
X59990000Y-60390000D03*
X85498408Y-78046427D03*
X59240000Y-57500000D03*
X75338408Y-80586427D03*
X52478408Y-78046427D03*
X85498408Y-55186427D03*
X79710000Y-46710000D03*
X115978408Y-72966427D03*
X115978408Y-78046427D03*
X44858408Y-78046427D03*
X93690000Y-69810000D03*
X65178408Y-34866427D03*
X44858408Y-85666427D03*
X52478408Y-24706427D03*
X105818408Y-78046427D03*
X70258408Y-39946427D03*
X44858408Y-32326427D03*
X82958408Y-39946427D03*
X70258408Y-65346427D03*
X113438408Y-72966427D03*
X44858408Y-80586427D03*
X91160000Y-68900000D03*
X52478408Y-42486427D03*
X83930000Y-45280000D03*
X67718408Y-65346427D03*
X70258408Y-34866427D03*
X52478408Y-62806427D03*
X88038408Y-75506427D03*
X47398408Y-90746427D03*
X75338408Y-39946427D03*
X44858408Y-29786427D03*
X118518408Y-62806427D03*
X100738408Y-80586427D03*
X118518408Y-67886427D03*
X44858408Y-42486427D03*
X82958408Y-72966427D03*
X113438408Y-80586427D03*
X105818408Y-72966427D03*
X55018408Y-75506427D03*
X70258408Y-45026427D03*
X78070000Y-59290000D03*
X75338408Y-75506427D03*
X110898408Y-80586427D03*
X49938408Y-95826427D03*
X62638408Y-72966427D03*
X108358408Y-80586427D03*
X113438408Y-70426427D03*
X60098408Y-37406427D03*
X52478408Y-32326427D03*
X44858408Y-34866427D03*
X82958408Y-75506427D03*
X77878408Y-42486427D03*
X75338408Y-42486427D03*
X88038408Y-52646427D03*
X75338408Y-37406427D03*
X52478408Y-57726427D03*
X55018408Y-95826427D03*
X113438408Y-62806427D03*
X44858408Y-55186427D03*
X108358408Y-62806427D03*
X95658408Y-70426427D03*
X57558408Y-62806427D03*
X118518408Y-72966427D03*
X80418408Y-67886427D03*
X70258408Y-37406427D03*
X90578408Y-78046427D03*
X105818408Y-65346427D03*
X90578408Y-75506427D03*
X62638408Y-39946427D03*
X44858408Y-50106427D03*
X118518408Y-78046427D03*
X44858408Y-65346427D03*
X118518408Y-75506427D03*
X52478408Y-90746427D03*
X55018408Y-93286427D03*
X77878408Y-78046427D03*
X110898408Y-78046427D03*
X52478408Y-70426427D03*
X80418408Y-80586427D03*
X75930000Y-52480000D03*
X100738408Y-70426427D03*
X85498408Y-39946427D03*
X60098408Y-62806427D03*
X57558408Y-78046427D03*
X88038408Y-34866427D03*
X85498408Y-52646427D03*
X57558408Y-75506427D03*
X110898408Y-62806427D03*
X52478408Y-67886427D03*
X85498408Y-70426427D03*
X108358408Y-67886427D03*
X65178408Y-75506427D03*
X67718408Y-72966427D03*
X55018408Y-24706427D03*
X44858408Y-52646427D03*
X57558408Y-65346427D03*
X44858408Y-70426427D03*
X52478408Y-60266427D03*
X88038408Y-39946427D03*
X60098408Y-75506427D03*
X55018408Y-72966427D03*
X57558408Y-70426427D03*
X80418408Y-39946427D03*
X80418408Y-65346427D03*
X44858408Y-62806427D03*
X77878408Y-34866427D03*
X44858408Y-88206427D03*
X49938408Y-24706427D03*
X82958408Y-52646427D03*
X57558408Y-57726427D03*
X108358408Y-78046427D03*
X88038408Y-67886427D03*
X44858408Y-83126427D03*
X88038408Y-37406427D03*
X115978408Y-80586427D03*
X81560000Y-43830000D03*
X82958408Y-80586427D03*
X57558408Y-34866427D03*
X75338408Y-65346427D03*
X72798408Y-39946427D03*
X88038408Y-50106427D03*
X44858408Y-60266427D03*
X57558408Y-72966427D03*
X77878408Y-37406427D03*
X113438408Y-75506427D03*
X47398408Y-24706427D03*
X44858408Y-47566427D03*
X55018408Y-90746427D03*
X72798408Y-37406427D03*
X82958408Y-55186427D03*
X55018408Y-65346427D03*
X85498408Y-80586427D03*
X55018408Y-17086427D03*
X80418408Y-52646427D03*
X103278408Y-80586427D03*
X85150000Y-45400000D03*
X100738408Y-78046427D03*
X49938408Y-90746427D03*
X85498408Y-37406427D03*
X67718408Y-62806427D03*
X44858408Y-67886427D03*
X85498408Y-67886427D03*
X82958408Y-67886427D03*
X115978408Y-65346427D03*
X55018408Y-19626427D03*
X55018408Y-45026427D03*
X82958408Y-37406427D03*
X44858408Y-27246427D03*
X60098408Y-50106427D03*
X77878408Y-80586427D03*
X52478408Y-75506427D03*
X57558408Y-47566427D03*
X82958408Y-34866427D03*
X88038408Y-72966427D03*
X115978408Y-62806427D03*
X110898408Y-70426427D03*
X67880000Y-71320000D03*
X55018408Y-34866427D03*
X55018408Y-62806427D03*
X62638408Y-34866427D03*
X44858408Y-75506427D03*
X85498408Y-34866427D03*
X88038408Y-70426427D03*
X88038408Y-80586427D03*
X55018408Y-27246427D03*
X72798408Y-34866427D03*
X62638408Y-70426427D03*
X44858408Y-72966427D03*
X49938408Y-22166427D03*
X55018408Y-22166427D03*
X98198408Y-78046427D03*
X55018408Y-70426427D03*
X49938408Y-19626427D03*
X55018408Y-98366427D03*
X105818408Y-80586427D03*
X55018408Y-67886427D03*
X96590000Y-60240000D03*
X103278408Y-67886427D03*
X78030000Y-61420000D03*
X60098408Y-72966427D03*
X90578408Y-80586427D03*
X49938408Y-98366427D03*
X113438408Y-78046427D03*
X60098408Y-65346427D03*
%TO.N,/DVDD3v3*%
X50910000Y-70260000D03*
X50880000Y-71630000D03*
X68070000Y-52940000D03*
X85530000Y-64178000D03*
X76260000Y-61340000D03*
X92590000Y-68270000D03*
X83620000Y-62140000D03*
X84070000Y-70250000D03*
X85030000Y-62190000D03*
X84060000Y-71020000D03*
X82250000Y-62180000D03*
%TO.N,/DVDD5*%
X82940000Y-43250000D03*
X84880000Y-43230000D03*
%TO.N,/DVDD1v8*%
X87850000Y-47230000D03*
X87730000Y-65680000D03*
X66500000Y-49780000D03*
X87770000Y-48640000D03*
X87610000Y-62650000D03*
X86960000Y-47890000D03*
X68280000Y-59890000D03*
X62620000Y-59010000D03*
X61930000Y-56570000D03*
X86310000Y-48840000D03*
%TO.N,/SV_C*%
X77610000Y-67510000D03*
%TO.N,/SDA_F*%
X70500000Y-56510000D03*
X73450000Y-58340000D03*
X56210000Y-80150000D03*
X89911998Y-61420000D03*
X71140000Y-58470000D03*
%TO.N,/SCL_F*%
X70520000Y-55350000D03*
X90960000Y-62030000D03*
X55320000Y-82270000D03*
%TO.N,/ADV_CLKIN*%
X51560000Y-49480000D03*
X55540000Y-60150000D03*
X55110000Y-53100000D03*
%TO.N,/ADV_LLC*%
X67690000Y-44740000D03*
X68200000Y-49080000D03*
%TO.N,/I2S_BCK_o*%
X73770000Y-51810000D03*
%TO.N,/I2S_WS_o*%
X73790000Y-50860000D03*
%TO.N,/I2S_DATA_o*%
X73760000Y-52800000D03*
%TO.N,Net-(U2-ADDR)*%
X93680000Y-65180000D03*
X98510000Y-70220000D03*
%TO.N,/CVBS2*%
X73910000Y-67940000D03*
X87550000Y-63510000D03*
%TO.N,Net-(U1-~PWRDWN)*%
X80730000Y-55730000D03*
X69530000Y-53190000D03*
%TO.N,Net-(U1-~RESET)*%
X81130000Y-59110000D03*
X69210000Y-57370000D03*
%TO.N,Net-(U2-RSTB)*%
X86990000Y-58050000D03*
X93880000Y-64260000D03*
%TD*%
D26*
%TO.N,GND*%
X75930000Y-52480000D02*
X75930000Y-51100000D01*
X75930000Y-51100000D02*
X75900000Y-51070000D01*
D27*
X101940000Y-65160000D02*
X102480000Y-65700000D01*
D26*
%TO.N,/DVDD3v3*%
X50910000Y-71600000D02*
X50880000Y-71630000D01*
X50910000Y-70260000D02*
X50910000Y-71600000D01*
X84060000Y-71020000D02*
X84330000Y-71020000D01*
%TO.N,/SV_C*%
X77610000Y-67510000D02*
X77610000Y-71610000D01*
X77610000Y-71610000D02*
X78390000Y-72390000D01*
D27*
%TO.N,/SDA_F*%
X87820000Y-60380000D02*
X80580000Y-60380000D01*
X70500000Y-56510000D02*
X70500000Y-58930000D01*
X78760000Y-62200000D02*
X75460000Y-62200000D01*
X71370000Y-77960000D02*
X68250000Y-81080000D01*
X73450000Y-60190000D02*
X73450000Y-58340000D01*
X58850000Y-81080000D02*
X57930000Y-80160000D01*
X70500000Y-63700000D02*
X71370000Y-64570000D01*
X71370000Y-64570000D02*
X71370000Y-77960000D01*
X88860000Y-61420000D02*
X87820000Y-60380000D01*
X89911998Y-61420000D02*
X88860000Y-61420000D01*
X80580000Y-60380000D02*
X78760000Y-62200000D01*
X56220000Y-80160000D02*
X56210000Y-80150000D01*
X57930000Y-80160000D02*
X56220000Y-80160000D01*
X75460000Y-62200000D02*
X73450000Y-60190000D01*
X70680000Y-58930000D02*
X71140000Y-58470000D01*
X68250000Y-81080000D02*
X58850000Y-81080000D01*
X70500000Y-58930000D02*
X70680000Y-58930000D01*
X70500000Y-58930000D02*
X70500000Y-63700000D01*
%TO.N,/SCL_F*%
X55320000Y-82270000D02*
X69850000Y-82270000D01*
X73860000Y-63230000D02*
X79820000Y-63230000D01*
X72050000Y-56360000D02*
X71040000Y-55350000D01*
X72990000Y-79130000D02*
X72990000Y-64980000D01*
X71040000Y-55350000D02*
X70520000Y-55350000D01*
X72050000Y-61060000D02*
X72050000Y-56360000D01*
X90620000Y-62370000D02*
X90960000Y-62030000D01*
X69850000Y-82270000D02*
X72990000Y-79130000D01*
X72990000Y-64980000D02*
X72990000Y-64100000D01*
X87680000Y-61440000D02*
X88610000Y-62370000D01*
X72990000Y-64100000D02*
X73860000Y-63230000D01*
X81610000Y-61440000D02*
X87680000Y-61440000D01*
X72990000Y-64100000D02*
X72050000Y-63160000D01*
X79820000Y-63230000D02*
X81610000Y-61440000D01*
X88610000Y-62370000D02*
X90620000Y-62370000D01*
X72050000Y-62670000D02*
X72050000Y-61060000D01*
X72050000Y-63160000D02*
X72050000Y-62670000D01*
%TO.N,/ADV_CLKIN*%
X48925790Y-27248710D02*
X50750000Y-29072920D01*
X50750000Y-29072920D02*
X50750000Y-48670000D01*
X50750000Y-48670000D02*
X51560000Y-49480000D01*
X55110000Y-53100000D02*
X55110000Y-59720000D01*
X55110000Y-59720000D02*
X55540000Y-60150000D01*
%TO.N,/ADV_LLC*%
X68200000Y-45250000D02*
X67690000Y-44740000D01*
X68200000Y-49080000D02*
X68200000Y-45250000D01*
%TO.N,/I2S_BCK_o*%
X73570000Y-51610000D02*
X73770000Y-51810000D01*
X53680000Y-51610000D02*
X73570000Y-51610000D01*
X50101290Y-55188710D02*
X53680000Y-51610000D01*
X48925790Y-55188710D02*
X50101290Y-55188710D01*
%TO.N,/I2S_WS_o*%
X52900000Y-50890000D02*
X49880000Y-53910000D01*
X47664500Y-53910000D02*
X46385790Y-55188710D01*
X73760000Y-50890000D02*
X52900000Y-50890000D01*
X73790000Y-50860000D02*
X73760000Y-50890000D01*
X49880000Y-53910000D02*
X47664500Y-53910000D01*
%TO.N,/I2S_DATA_o*%
X73760000Y-52800000D02*
X73250000Y-52290000D01*
X73250000Y-52290000D02*
X54510000Y-52290000D01*
X49071290Y-57728710D02*
X48925790Y-57728710D01*
X54510000Y-52290000D02*
X49071290Y-57728710D01*
%TO.N,Net-(U2-ADDR)*%
X93680000Y-65180000D02*
X98510000Y-70010000D01*
X93700000Y-65160000D02*
X93680000Y-65180000D01*
X98510000Y-70010000D02*
X98510000Y-70220000D01*
D26*
%TO.N,/CVBS2*%
X74570000Y-67940000D02*
X76130000Y-66380000D01*
X76130000Y-66380000D02*
X81910000Y-66380000D01*
X84780000Y-63510000D02*
X87550000Y-63510000D01*
X81910000Y-66380000D02*
X84780000Y-63510000D01*
X73910000Y-67940000D02*
X74570000Y-67940000D01*
D27*
%TO.N,Net-(U1-~PWRDWN)*%
X72220000Y-53270000D02*
X74460000Y-55510000D01*
X80510000Y-55510000D02*
X80730000Y-55730000D01*
X72140000Y-53190000D02*
X72220000Y-53270000D01*
X74460000Y-55510000D02*
X80510000Y-55510000D01*
X69530000Y-53190000D02*
X72140000Y-53190000D01*
%TO.N,Net-(U1-~RESET)*%
X69210000Y-55290000D02*
X69900000Y-54600000D01*
X72030000Y-54600000D02*
X76117000Y-58687000D01*
X69210000Y-57370000D02*
X69210000Y-55290000D01*
X80707000Y-58687000D02*
X81130000Y-59110000D01*
X69900000Y-54600000D02*
X72030000Y-54600000D01*
X76117000Y-58687000D02*
X80707000Y-58687000D01*
%TO.N,Net-(U2-RSTB)*%
X89560000Y-60760000D02*
X91090000Y-60760000D01*
X93880000Y-63550000D02*
X93880000Y-64260000D01*
X89560000Y-60760000D02*
X86990000Y-58190000D01*
X91090000Y-60760000D02*
X93880000Y-63550000D01*
X86990000Y-58190000D02*
X86990000Y-58050000D01*
%TD*%
%TA.AperFunction,Conductor*%
%TO.N,GND*%
G36*
X47402316Y-100639822D02*
G01*
X47522009Y-100780735D01*
X47669195Y-100892623D01*
X47715269Y-100913939D01*
X47044045Y-101585163D01*
X47044193Y-101586735D01*
X47030638Y-101656426D01*
X46981558Y-101707726D01*
X46918743Y-101724500D01*
X46651500Y-101724500D01*
X46583379Y-101704498D01*
X46536886Y-101650842D01*
X46525500Y-101598500D01*
X46525500Y-101349641D01*
X46545502Y-101281520D01*
X46599158Y-101235027D01*
X46658566Y-101223839D01*
X46685440Y-101225348D01*
X47356806Y-100553982D01*
X47402316Y-100639822D01*
G37*
%TD.AperFunction*%
%TA.AperFunction,Conductor*%
G36*
X87550749Y-61810502D02*
G01*
X87571723Y-61827405D01*
X87593426Y-61849108D01*
X87627452Y-61911420D01*
X87622387Y-61982235D01*
X87579840Y-62039071D01*
X87520779Y-62063125D01*
X87455065Y-62071777D01*
X87310691Y-62131578D01*
X87310688Y-62131580D01*
X87186711Y-62226711D01*
X87091580Y-62350688D01*
X87091578Y-62350691D01*
X87031776Y-62495066D01*
X87011379Y-62649999D01*
X87011379Y-62650000D01*
X87031777Y-62804935D01*
X87094739Y-62956942D01*
X87092389Y-62957915D01*
X87106116Y-63014493D01*
X87082897Y-63081585D01*
X87027090Y-63125474D01*
X86980259Y-63134500D01*
X84832011Y-63134500D01*
X84806152Y-63131818D01*
X84795729Y-63129632D01*
X84764452Y-63133532D01*
X84748922Y-63134496D01*
X84748877Y-63134500D01*
X84728414Y-63137914D01*
X84723269Y-63138664D01*
X84671378Y-63145133D01*
X84671375Y-63145133D01*
X84671374Y-63145134D01*
X84671373Y-63145134D01*
X84663829Y-63147380D01*
X84656390Y-63149934D01*
X84610413Y-63174814D01*
X84605792Y-63177193D01*
X84558790Y-63200173D01*
X84552388Y-63204743D01*
X84546174Y-63209580D01*
X84510740Y-63248070D01*
X84507137Y-63251824D01*
X81791367Y-65967595D01*
X81729055Y-66001621D01*
X81702272Y-66004500D01*
X76182011Y-66004500D01*
X76156152Y-66001818D01*
X76145729Y-65999632D01*
X76114452Y-66003532D01*
X76098922Y-66004496D01*
X76098877Y-66004500D01*
X76078414Y-66007914D01*
X76073269Y-66008664D01*
X76021378Y-66015133D01*
X76021375Y-66015133D01*
X76021374Y-66015134D01*
X76021373Y-66015134D01*
X76013829Y-66017380D01*
X76006390Y-66019934D01*
X75960413Y-66044814D01*
X75955792Y-66047193D01*
X75908790Y-66070173D01*
X75902388Y-66074743D01*
X75896174Y-66079580D01*
X75860741Y-66118069D01*
X75857138Y-66121823D01*
X74484393Y-67494568D01*
X74422081Y-67528594D01*
X74351266Y-67523529D01*
X74318594Y-67505435D01*
X74209309Y-67421577D01*
X74064935Y-67361777D01*
X73910000Y-67341379D01*
X73755066Y-67361776D01*
X73610691Y-67421578D01*
X73610688Y-67421580D01*
X73593073Y-67435097D01*
X73543202Y-67473363D01*
X73476983Y-67498963D01*
X73407435Y-67484698D01*
X73356639Y-67435097D01*
X73340500Y-67373400D01*
X73340500Y-64297371D01*
X73360502Y-64229250D01*
X73377405Y-64208276D01*
X73968276Y-63617405D01*
X74030588Y-63583379D01*
X74057371Y-63580500D01*
X79770581Y-63580500D01*
X79796439Y-63583182D01*
X79797379Y-63583379D01*
X79805315Y-63585043D01*
X79833994Y-63581467D01*
X79847442Y-63580632D01*
X79849029Y-63580501D01*
X79849035Y-63580500D01*
X79849040Y-63580500D01*
X79868018Y-63577332D01*
X79873075Y-63576595D01*
X79921393Y-63570573D01*
X79921394Y-63570572D01*
X79928432Y-63568476D01*
X79935373Y-63566093D01*
X79935381Y-63566092D01*
X79978185Y-63542926D01*
X79982746Y-63540578D01*
X80026484Y-63519198D01*
X80026490Y-63519191D01*
X80032469Y-63514922D01*
X80038251Y-63510421D01*
X80038258Y-63510418D01*
X80071242Y-63474586D01*
X80074779Y-63470901D01*
X81437475Y-62108206D01*
X81499786Y-62074181D01*
X81570602Y-62079246D01*
X81627437Y-62121793D01*
X81651491Y-62180855D01*
X81671777Y-62334935D01*
X81731577Y-62479310D01*
X81826710Y-62603289D01*
X81950689Y-62698422D01*
X82036059Y-62733782D01*
X82095065Y-62758223D01*
X82250000Y-62778621D01*
X82404935Y-62758223D01*
X82503636Y-62717340D01*
X82549310Y-62698422D01*
X82673289Y-62603289D01*
X82768422Y-62479310D01*
X82826875Y-62338189D01*
X82871422Y-62282908D01*
X82938786Y-62260486D01*
X83007577Y-62278044D01*
X83055956Y-62330005D01*
X83059693Y-62338189D01*
X83101577Y-62439310D01*
X83196710Y-62563289D01*
X83320689Y-62658422D01*
X83378862Y-62682517D01*
X83465065Y-62718223D01*
X83620000Y-62738621D01*
X83774935Y-62718223D01*
X83865977Y-62680512D01*
X83919310Y-62658422D01*
X84043289Y-62563289D01*
X84138422Y-62439310D01*
X84198220Y-62294942D01*
X84198219Y-62294942D01*
X84198223Y-62294935D01*
X84198224Y-62294926D01*
X84199878Y-62288754D01*
X84236828Y-62228131D01*
X84300688Y-62197107D01*
X84371183Y-62205534D01*
X84425931Y-62250735D01*
X84446508Y-62304915D01*
X84451777Y-62344935D01*
X84511577Y-62489310D01*
X84606710Y-62613289D01*
X84730689Y-62708422D01*
X84821731Y-62746131D01*
X84875065Y-62768223D01*
X85030000Y-62788621D01*
X85184935Y-62768223D01*
X85289184Y-62725042D01*
X85329310Y-62708422D01*
X85453289Y-62613289D01*
X85548422Y-62489310D01*
X85582213Y-62407729D01*
X85608223Y-62344935D01*
X85628621Y-62190000D01*
X85627304Y-62180000D01*
X85608223Y-62035066D01*
X85604992Y-62027266D01*
X85579083Y-61964716D01*
X85571495Y-61894128D01*
X85603274Y-61830641D01*
X85664333Y-61794414D01*
X85695493Y-61790500D01*
X87482628Y-61790500D01*
X87550749Y-61810502D01*
G37*
%TD.AperFunction*%
%TA.AperFunction,Conductor*%
G36*
X52070615Y-13715502D02*
G01*
X52117108Y-13769158D01*
X52127944Y-13833265D01*
X52124045Y-13874835D01*
X52794922Y-14545712D01*
X52672569Y-14619331D01*
X52538342Y-14746477D01*
X52434587Y-14899505D01*
X52433364Y-14902574D01*
X51765439Y-14234650D01*
X51765438Y-14234650D01*
X51716829Y-14295606D01*
X51716826Y-14295609D01*
X51583583Y-14526393D01*
X51583581Y-14526397D01*
X51486228Y-14774452D01*
X51486227Y-14774454D01*
X51426928Y-15034256D01*
X51407014Y-15300000D01*
X51426928Y-15565743D01*
X51486227Y-15825545D01*
X51486228Y-15825547D01*
X51583581Y-16073602D01*
X51583583Y-16073606D01*
X51716826Y-16304390D01*
X51716829Y-16304395D01*
X51765438Y-16365348D01*
X51765440Y-16365348D01*
X52436806Y-15693982D01*
X52482316Y-15779822D01*
X52602009Y-15920735D01*
X52749195Y-16032623D01*
X52795269Y-16053939D01*
X52124045Y-16725163D01*
X52124045Y-16725165D01*
X52298497Y-16844105D01*
X52298504Y-16844109D01*
X52538598Y-16959733D01*
X52538610Y-16959738D01*
X52793237Y-17038280D01*
X52793249Y-17038282D01*
X53056761Y-17078000D01*
X53323239Y-17078000D01*
X53586750Y-17038282D01*
X53586762Y-17038280D01*
X53841389Y-16959738D01*
X53841401Y-16959733D01*
X54081495Y-16844109D01*
X54255953Y-16725164D01*
X54255953Y-16725163D01*
X53585077Y-16054286D01*
X53707431Y-15980669D01*
X53841658Y-15853523D01*
X53945413Y-15700495D01*
X53946635Y-15697425D01*
X54614559Y-16365349D01*
X54663174Y-16304388D01*
X54796416Y-16073606D01*
X54796418Y-16073602D01*
X54893771Y-15825547D01*
X54893772Y-15825545D01*
X54953071Y-15565743D01*
X54972985Y-15300000D01*
X54953071Y-15034256D01*
X54893772Y-14774454D01*
X54893771Y-14774452D01*
X54796418Y-14526397D01*
X54796416Y-14526393D01*
X54663176Y-14295615D01*
X54663171Y-14295607D01*
X54614560Y-14234650D01*
X54614558Y-14234650D01*
X53943192Y-14906016D01*
X53897684Y-14820178D01*
X53777991Y-14679265D01*
X53630805Y-14567377D01*
X53584729Y-14546059D01*
X54255953Y-13874835D01*
X54252055Y-13833265D01*
X54265610Y-13763574D01*
X54314690Y-13712274D01*
X54377505Y-13695500D01*
X57088500Y-13695500D01*
X57156621Y-13715502D01*
X57203114Y-13769158D01*
X57214500Y-13821500D01*
X57214500Y-32449867D01*
X57212398Y-32460435D01*
X57212399Y-32479999D01*
X57214498Y-32485067D01*
X57214499Y-32485072D01*
X57214500Y-32485072D01*
X57220483Y-32499517D01*
X57240000Y-32507601D01*
X57259575Y-32507601D01*
X57270137Y-32505500D01*
X89398500Y-32505500D01*
X89466621Y-32525502D01*
X89513114Y-32579158D01*
X89524500Y-32631500D01*
X89524500Y-59469867D01*
X89522398Y-59480435D01*
X89522399Y-59499999D01*
X89524498Y-59505067D01*
X89524499Y-59505072D01*
X89524500Y-59505072D01*
X89530483Y-59519517D01*
X89550000Y-59527601D01*
X89569575Y-59527601D01*
X89580137Y-59525500D01*
X119688500Y-59525500D01*
X119756621Y-59545502D01*
X119803114Y-59599158D01*
X119814500Y-59651500D01*
X119814500Y-83348500D01*
X119794498Y-83416621D01*
X119740842Y-83463114D01*
X119688500Y-83474500D01*
X57270136Y-83474500D01*
X57259574Y-83472399D01*
X57239998Y-83472399D01*
X57234931Y-83474498D01*
X57234928Y-83474500D01*
X57220482Y-83480483D01*
X57212399Y-83499999D01*
X57212399Y-83519575D01*
X57214500Y-83530136D01*
X57214500Y-101598500D01*
X57194498Y-101666621D01*
X57140842Y-101713114D01*
X57088500Y-101724500D01*
X54381256Y-101724500D01*
X54313135Y-101704498D01*
X54266642Y-101650842D01*
X54255806Y-101586735D01*
X54255953Y-101585163D01*
X53585077Y-100914286D01*
X53707431Y-100840669D01*
X53841658Y-100713523D01*
X53945413Y-100560495D01*
X53946635Y-100557425D01*
X54614559Y-101225349D01*
X54663174Y-101164388D01*
X54796416Y-100933606D01*
X54796418Y-100933602D01*
X54893771Y-100685547D01*
X54893772Y-100685545D01*
X54953071Y-100425743D01*
X54972985Y-100160000D01*
X54953071Y-99894256D01*
X54893772Y-99634454D01*
X54893771Y-99634452D01*
X54796418Y-99386397D01*
X54796416Y-99386393D01*
X54663176Y-99155615D01*
X54663171Y-99155607D01*
X54614560Y-99094650D01*
X54614558Y-99094650D01*
X53943192Y-99766016D01*
X53897684Y-99680178D01*
X53777991Y-99539265D01*
X53630805Y-99427377D01*
X53584729Y-99406059D01*
X54255953Y-98734835D01*
X54255953Y-98734833D01*
X54081502Y-98615894D01*
X54081495Y-98615890D01*
X53841401Y-98500266D01*
X53841389Y-98500261D01*
X53586762Y-98421719D01*
X53586750Y-98421717D01*
X53323239Y-98382000D01*
X53056761Y-98382000D01*
X52793249Y-98421717D01*
X52793237Y-98421719D01*
X52538610Y-98500261D01*
X52538592Y-98500268D01*
X52298512Y-98615885D01*
X52298504Y-98615890D01*
X52124045Y-98734833D01*
X52124045Y-98734835D01*
X52794922Y-99405712D01*
X52672569Y-99479331D01*
X52538342Y-99606477D01*
X52434587Y-99759505D01*
X52433364Y-99762574D01*
X51765439Y-99094650D01*
X51765438Y-99094650D01*
X51716829Y-99155606D01*
X51716826Y-99155609D01*
X51583583Y-99386393D01*
X51583581Y-99386397D01*
X51486228Y-99634452D01*
X51486227Y-99634454D01*
X51426928Y-99894256D01*
X51407014Y-100160000D01*
X51426928Y-100425743D01*
X51486227Y-100685545D01*
X51486228Y-100685547D01*
X51583581Y-100933602D01*
X51583583Y-100933606D01*
X51716826Y-101164390D01*
X51716829Y-101164395D01*
X51765438Y-101225348D01*
X51765440Y-101225348D01*
X52436806Y-100553982D01*
X52482316Y-100639822D01*
X52602009Y-100780735D01*
X52749195Y-100892623D01*
X52795269Y-100913939D01*
X52124045Y-101585163D01*
X52124193Y-101586735D01*
X52110638Y-101656426D01*
X52061558Y-101707726D01*
X51998743Y-101724500D01*
X49301256Y-101724500D01*
X49233135Y-101704498D01*
X49186642Y-101650842D01*
X49175806Y-101586735D01*
X49175953Y-101585163D01*
X48505077Y-100914286D01*
X48627431Y-100840669D01*
X48761658Y-100713523D01*
X48865413Y-100560495D01*
X48866635Y-100557425D01*
X49534559Y-101225349D01*
X49583174Y-101164388D01*
X49716416Y-100933606D01*
X49716418Y-100933602D01*
X49813771Y-100685547D01*
X49813772Y-100685545D01*
X49873071Y-100425743D01*
X49892985Y-100160000D01*
X49873071Y-99894256D01*
X49813772Y-99634454D01*
X49813771Y-99634452D01*
X49716418Y-99386397D01*
X49716416Y-99386393D01*
X49583176Y-99155615D01*
X49583171Y-99155607D01*
X49534560Y-99094650D01*
X49534558Y-99094650D01*
X48863192Y-99766016D01*
X48817684Y-99680178D01*
X48697991Y-99539265D01*
X48550805Y-99427377D01*
X48504729Y-99406059D01*
X49175953Y-98734835D01*
X49175953Y-98734833D01*
X49001502Y-98615894D01*
X49001495Y-98615890D01*
X48761401Y-98500266D01*
X48761389Y-98500261D01*
X48506762Y-98421719D01*
X48506750Y-98421717D01*
X48243239Y-98382000D01*
X47976761Y-98382000D01*
X47713249Y-98421717D01*
X47713237Y-98421719D01*
X47458610Y-98500261D01*
X47458592Y-98500268D01*
X47218512Y-98615885D01*
X47218504Y-98615890D01*
X47044045Y-98734833D01*
X47044045Y-98734835D01*
X47714922Y-99405712D01*
X47592569Y-99479331D01*
X47458342Y-99606477D01*
X47354587Y-99759505D01*
X47353364Y-99762574D01*
X46685438Y-99094649D01*
X46658564Y-99096159D01*
X46589429Y-99080007D01*
X46540001Y-99029043D01*
X46525500Y-98970357D01*
X46525500Y-95909641D01*
X46545502Y-95841520D01*
X46599158Y-95795027D01*
X46658566Y-95783839D01*
X46685440Y-95785348D01*
X47356806Y-95113982D01*
X47402316Y-95199822D01*
X47522009Y-95340735D01*
X47669195Y-95452623D01*
X47715269Y-95473939D01*
X47044045Y-96145163D01*
X47044045Y-96145165D01*
X47218497Y-96264105D01*
X47218504Y-96264109D01*
X47458598Y-96379733D01*
X47458610Y-96379738D01*
X47713237Y-96458280D01*
X47713249Y-96458282D01*
X47976761Y-96498000D01*
X48243239Y-96498000D01*
X48506750Y-96458282D01*
X48506762Y-96458280D01*
X48761389Y-96379738D01*
X48761401Y-96379733D01*
X49001495Y-96264109D01*
X49175953Y-96145164D01*
X49175953Y-96145163D01*
X48505077Y-95474286D01*
X48627431Y-95400669D01*
X48761658Y-95273523D01*
X48865413Y-95120495D01*
X48866635Y-95117425D01*
X49534559Y-95785349D01*
X49583174Y-95724388D01*
X49716416Y-95493606D01*
X49716418Y-95493602D01*
X49813771Y-95245547D01*
X49813772Y-95245545D01*
X49873071Y-94985743D01*
X49892985Y-94720000D01*
X51407014Y-94720000D01*
X51426928Y-94985743D01*
X51486227Y-95245545D01*
X51486228Y-95245547D01*
X51583581Y-95493602D01*
X51583583Y-95493606D01*
X51716826Y-95724390D01*
X51716829Y-95724395D01*
X51765438Y-95785348D01*
X51765440Y-95785348D01*
X52436806Y-95113982D01*
X52482316Y-95199822D01*
X52602009Y-95340735D01*
X52749195Y-95452623D01*
X52795269Y-95473939D01*
X52124045Y-96145163D01*
X52124045Y-96145165D01*
X52298497Y-96264105D01*
X52298504Y-96264109D01*
X52538598Y-96379733D01*
X52538610Y-96379738D01*
X52793237Y-96458280D01*
X52793249Y-96458282D01*
X53056761Y-96498000D01*
X53323239Y-96498000D01*
X53586750Y-96458282D01*
X53586762Y-96458280D01*
X53841389Y-96379738D01*
X53841401Y-96379733D01*
X54081495Y-96264109D01*
X54255953Y-96145164D01*
X54255953Y-96145163D01*
X53585077Y-95474286D01*
X53707431Y-95400669D01*
X53841658Y-95273523D01*
X53945413Y-95120495D01*
X53946635Y-95117425D01*
X54614559Y-95785349D01*
X54663174Y-95724388D01*
X54796416Y-95493606D01*
X54796418Y-95493602D01*
X54893771Y-95245547D01*
X54893772Y-95245545D01*
X54953071Y-94985743D01*
X54972985Y-94720000D01*
X54953071Y-94454256D01*
X54893772Y-94194454D01*
X54893771Y-94194452D01*
X54796418Y-93946397D01*
X54796416Y-93946393D01*
X54663176Y-93715615D01*
X54663171Y-93715607D01*
X54614560Y-93654650D01*
X54614558Y-93654650D01*
X53943192Y-94326016D01*
X53897684Y-94240178D01*
X53777991Y-94099265D01*
X53630805Y-93987377D01*
X53584729Y-93966059D01*
X54255953Y-93294835D01*
X54255953Y-93294833D01*
X54081502Y-93175894D01*
X54081495Y-93175890D01*
X53841401Y-93060266D01*
X53841389Y-93060261D01*
X53586762Y-92981719D01*
X53586750Y-92981717D01*
X53323239Y-92942000D01*
X53056761Y-92942000D01*
X52793249Y-92981717D01*
X52793237Y-92981719D01*
X52538610Y-93060261D01*
X52538592Y-93060268D01*
X52298512Y-93175885D01*
X52298504Y-93175890D01*
X52124045Y-93294833D01*
X52124045Y-93294835D01*
X52794922Y-93965712D01*
X52672569Y-94039331D01*
X52538342Y-94166477D01*
X52434587Y-94319505D01*
X52433364Y-94322574D01*
X51765439Y-93654650D01*
X51765438Y-93654650D01*
X51716829Y-93715606D01*
X51716826Y-93715609D01*
X51583583Y-93946393D01*
X51583581Y-93946397D01*
X51486228Y-94194452D01*
X51486227Y-94194454D01*
X51426928Y-94454256D01*
X51407014Y-94720000D01*
X49892985Y-94720000D01*
X49873071Y-94454256D01*
X49813772Y-94194454D01*
X49813771Y-94194452D01*
X49716418Y-93946397D01*
X49716416Y-93946393D01*
X49583176Y-93715615D01*
X49583171Y-93715607D01*
X49534560Y-93654650D01*
X49534558Y-93654650D01*
X48863192Y-94326016D01*
X48817684Y-94240178D01*
X48697991Y-94099265D01*
X48550805Y-93987377D01*
X48504729Y-93966059D01*
X49175953Y-93294835D01*
X49175953Y-93294833D01*
X49001502Y-93175894D01*
X49001495Y-93175890D01*
X48761401Y-93060266D01*
X48761389Y-93060261D01*
X48506762Y-92981719D01*
X48506750Y-92981717D01*
X48243239Y-92942000D01*
X47976761Y-92942000D01*
X47713249Y-92981717D01*
X47713237Y-92981719D01*
X47458610Y-93060261D01*
X47458592Y-93060268D01*
X47218512Y-93175885D01*
X47218504Y-93175890D01*
X47044045Y-93294833D01*
X47044045Y-93294835D01*
X47714922Y-93965712D01*
X47592569Y-94039331D01*
X47458342Y-94166477D01*
X47354587Y-94319505D01*
X47353364Y-94322574D01*
X46685438Y-93654649D01*
X46658564Y-93656159D01*
X46589429Y-93640007D01*
X46540001Y-93589043D01*
X46525500Y-93530357D01*
X46525500Y-91530136D01*
X46527601Y-91519575D01*
X46527601Y-91499999D01*
X46519517Y-91480483D01*
X46505072Y-91474500D01*
X46505072Y-91474499D01*
X46505067Y-91474498D01*
X46500000Y-91472399D01*
X46480426Y-91472399D01*
X46469864Y-91474500D01*
X43651500Y-91474500D01*
X43583379Y-91454498D01*
X43536886Y-91400842D01*
X43525500Y-91348500D01*
X43525500Y-88208710D01*
X45280575Y-88208710D01*
X45299393Y-88411794D01*
X45355206Y-88607955D01*
X45355207Y-88607957D01*
X45355208Y-88607960D01*
X45446117Y-88790531D01*
X45446118Y-88790532D01*
X45446119Y-88790534D01*
X45569024Y-88953288D01*
X45719749Y-89090691D01*
X45719750Y-89090692D01*
X45893141Y-89198051D01*
X45893144Y-89198052D01*
X45893153Y-89198058D01*
X46083334Y-89271734D01*
X46283814Y-89309210D01*
X46283816Y-89309210D01*
X46487764Y-89309210D01*
X46487766Y-89309210D01*
X46688246Y-89271734D01*
X46878427Y-89198058D01*
X47051831Y-89090691D01*
X47202554Y-88953289D01*
X47325463Y-88790531D01*
X47416372Y-88607960D01*
X47472187Y-88411793D01*
X47491005Y-88208710D01*
X47820575Y-88208710D01*
X47839393Y-88411794D01*
X47895206Y-88607955D01*
X47895207Y-88607957D01*
X47895208Y-88607960D01*
X47986117Y-88790531D01*
X47986118Y-88790532D01*
X47986119Y-88790534D01*
X48109024Y-88953288D01*
X48259749Y-89090691D01*
X48259750Y-89090692D01*
X48433141Y-89198051D01*
X48433144Y-89198052D01*
X48433153Y-89198058D01*
X48623334Y-89271734D01*
X48823814Y-89309210D01*
X48823816Y-89309210D01*
X49027764Y-89309210D01*
X49027766Y-89309210D01*
X49228246Y-89271734D01*
X49418427Y-89198058D01*
X49591831Y-89090691D01*
X49742554Y-88953289D01*
X49865463Y-88790531D01*
X49956372Y-88607960D01*
X50012187Y-88411793D01*
X50031005Y-88208710D01*
X50012187Y-88005627D01*
X49956372Y-87809460D01*
X49865463Y-87626889D01*
X49829760Y-87579610D01*
X49742555Y-87464131D01*
X49591830Y-87326728D01*
X49591829Y-87326727D01*
X49418438Y-87219368D01*
X49418431Y-87219364D01*
X49418427Y-87219362D01*
X49301923Y-87174228D01*
X49228247Y-87145686D01*
X49161419Y-87133194D01*
X49027766Y-87108210D01*
X48823814Y-87108210D01*
X48723574Y-87126948D01*
X48623332Y-87145686D01*
X48475980Y-87202770D01*
X48433153Y-87219362D01*
X48433152Y-87219362D01*
X48433151Y-87219363D01*
X48433141Y-87219368D01*
X48259750Y-87326727D01*
X48259749Y-87326728D01*
X48109024Y-87464131D01*
X47986119Y-87626885D01*
X47895206Y-87809464D01*
X47839393Y-88005625D01*
X47820575Y-88208710D01*
X47491005Y-88208710D01*
X47472187Y-88005627D01*
X47416372Y-87809460D01*
X47325463Y-87626889D01*
X47289760Y-87579610D01*
X47202555Y-87464131D01*
X47051830Y-87326728D01*
X47051829Y-87326727D01*
X46878438Y-87219368D01*
X46878431Y-87219364D01*
X46878427Y-87219362D01*
X46761923Y-87174228D01*
X46688247Y-87145686D01*
X46621419Y-87133194D01*
X46487766Y-87108210D01*
X46283814Y-87108210D01*
X46183574Y-87126948D01*
X46083332Y-87145686D01*
X45935980Y-87202770D01*
X45893153Y-87219362D01*
X45893152Y-87219362D01*
X45893151Y-87219363D01*
X45893141Y-87219368D01*
X45719750Y-87326727D01*
X45719749Y-87326728D01*
X45569024Y-87464131D01*
X45446119Y-87626885D01*
X45355206Y-87809464D01*
X45299393Y-88005625D01*
X45280575Y-88208710D01*
X43525500Y-88208710D01*
X43525500Y-85668710D01*
X45280575Y-85668710D01*
X45299393Y-85871794D01*
X45355206Y-86067955D01*
X45355207Y-86067957D01*
X45355208Y-86067960D01*
X45446117Y-86250531D01*
X45446118Y-86250532D01*
X45446119Y-86250534D01*
X45569024Y-86413288D01*
X45719749Y-86550691D01*
X45719750Y-86550692D01*
X45893141Y-86658051D01*
X45893144Y-86658052D01*
X45893153Y-86658058D01*
X46083334Y-86731734D01*
X46283814Y-86769210D01*
X46283816Y-86769210D01*
X46487764Y-86769210D01*
X46487766Y-86769210D01*
X46688246Y-86731734D01*
X46878427Y-86658058D01*
X47051831Y-86550691D01*
X47202554Y-86413289D01*
X47325463Y-86250531D01*
X47416372Y-86067960D01*
X47472187Y-85871793D01*
X47491005Y-85668710D01*
X47820575Y-85668710D01*
X47839393Y-85871794D01*
X47895206Y-86067955D01*
X47895207Y-86067957D01*
X47895208Y-86067960D01*
X47986117Y-86250531D01*
X47986118Y-86250532D01*
X47986119Y-86250534D01*
X48109024Y-86413288D01*
X48259749Y-86550691D01*
X48259750Y-86550692D01*
X48433141Y-86658051D01*
X48433144Y-86658052D01*
X48433153Y-86658058D01*
X48623334Y-86731734D01*
X48823814Y-86769210D01*
X48823816Y-86769210D01*
X49027764Y-86769210D01*
X49027766Y-86769210D01*
X49228246Y-86731734D01*
X49418427Y-86658058D01*
X49564255Y-86567765D01*
X51445788Y-86567765D01*
X51475412Y-86837014D01*
X51543928Y-87099090D01*
X51649869Y-87348389D01*
X51649870Y-87348390D01*
X51790982Y-87579610D01*
X51964255Y-87787820D01*
X51964257Y-87787822D01*
X51964259Y-87787824D01*
X51988411Y-87809464D01*
X52165998Y-87968582D01*
X52391910Y-88118044D01*
X52637176Y-88233020D01*
X52896569Y-88311060D01*
X52896572Y-88311060D01*
X52896574Y-88311061D01*
X53164557Y-88350500D01*
X53164561Y-88350500D01*
X53367631Y-88350500D01*
X53570156Y-88335677D01*
X53570160Y-88335676D01*
X53570161Y-88335676D01*
X53680665Y-88311060D01*
X53834553Y-88276780D01*
X54087558Y-88180014D01*
X54323777Y-88047441D01*
X54538177Y-87881888D01*
X54726186Y-87686881D01*
X54883799Y-87466579D01*
X55007656Y-87225675D01*
X55095118Y-86969305D01*
X55132077Y-86769210D01*
X55144318Y-86702941D01*
X55144319Y-86702930D01*
X55145959Y-86658051D01*
X55154212Y-86432235D01*
X55139338Y-86297058D01*
X55124587Y-86162985D01*
X55056071Y-85900909D01*
X54950130Y-85651610D01*
X54809018Y-85420390D01*
X54635745Y-85212180D01*
X54635741Y-85212177D01*
X54635740Y-85212175D01*
X54434012Y-85031427D01*
X54434002Y-85031418D01*
X54208090Y-84881956D01*
X53962824Y-84766980D01*
X53805392Y-84719615D01*
X53703425Y-84688938D01*
X53435442Y-84649500D01*
X53435439Y-84649500D01*
X53232369Y-84649500D01*
X53029839Y-84664323D01*
X53029838Y-84664323D01*
X52765456Y-84723217D01*
X52765441Y-84723222D01*
X52512441Y-84819986D01*
X52276229Y-84952555D01*
X52276225Y-84952557D01*
X52061818Y-85118116D01*
X51873815Y-85313117D01*
X51873810Y-85313123D01*
X51716203Y-85533417D01*
X51716196Y-85533427D01*
X51592343Y-85774324D01*
X51592342Y-85774327D01*
X51504883Y-86030689D01*
X51504880Y-86030702D01*
X51455681Y-86297058D01*
X51455680Y-86297069D01*
X51445788Y-86567765D01*
X49564255Y-86567765D01*
X49591831Y-86550691D01*
X49742554Y-86413289D01*
X49865463Y-86250531D01*
X49956372Y-86067960D01*
X50012187Y-85871793D01*
X50031005Y-85668710D01*
X50012187Y-85465627D01*
X49956372Y-85269460D01*
X49865463Y-85086889D01*
X49823580Y-85031427D01*
X49742555Y-84924131D01*
X49591830Y-84786728D01*
X49591829Y-84786727D01*
X49418438Y-84679368D01*
X49418431Y-84679364D01*
X49418427Y-84679362D01*
X49301923Y-84634228D01*
X49228247Y-84605686D01*
X49161419Y-84593194D01*
X49027766Y-84568210D01*
X48823814Y-84568210D01*
X48723574Y-84586948D01*
X48623332Y-84605686D01*
X48510236Y-84649500D01*
X48433153Y-84679362D01*
X48433152Y-84679362D01*
X48433151Y-84679363D01*
X48433141Y-84679368D01*
X48259750Y-84786727D01*
X48259749Y-84786728D01*
X48109024Y-84924131D01*
X47986119Y-85086885D01*
X47895206Y-85269464D01*
X47839393Y-85465625D01*
X47820575Y-85668710D01*
X47491005Y-85668710D01*
X47472187Y-85465627D01*
X47416372Y-85269460D01*
X47325463Y-85086889D01*
X47283580Y-85031427D01*
X47202555Y-84924131D01*
X47051830Y-84786728D01*
X47051829Y-84786727D01*
X46878438Y-84679368D01*
X46878431Y-84679364D01*
X46878427Y-84679362D01*
X46761923Y-84634228D01*
X46688247Y-84605686D01*
X46621419Y-84593194D01*
X46487766Y-84568210D01*
X46283814Y-84568210D01*
X46183574Y-84586948D01*
X46083332Y-84605686D01*
X45970236Y-84649500D01*
X45893153Y-84679362D01*
X45893152Y-84679362D01*
X45893151Y-84679363D01*
X45893141Y-84679368D01*
X45719750Y-84786727D01*
X45719749Y-84786728D01*
X45569024Y-84924131D01*
X45446119Y-85086885D01*
X45355206Y-85269464D01*
X45299393Y-85465625D01*
X45280575Y-85668710D01*
X43525500Y-85668710D01*
X43525500Y-83128710D01*
X45280575Y-83128710D01*
X45299393Y-83331794D01*
X45355206Y-83527955D01*
X45355207Y-83527957D01*
X45355208Y-83527960D01*
X45446117Y-83710531D01*
X45446118Y-83710532D01*
X45446119Y-83710534D01*
X45569024Y-83873288D01*
X45719749Y-84010691D01*
X45719750Y-84010692D01*
X45893141Y-84118051D01*
X45893144Y-84118052D01*
X45893153Y-84118058D01*
X46083334Y-84191734D01*
X46283814Y-84229210D01*
X46283816Y-84229210D01*
X46487764Y-84229210D01*
X46487766Y-84229210D01*
X46688246Y-84191734D01*
X46878427Y-84118058D01*
X47051831Y-84010691D01*
X47202554Y-83873289D01*
X47325463Y-83710531D01*
X47416372Y-83527960D01*
X47472187Y-83331793D01*
X47491005Y-83128710D01*
X47820575Y-83128710D01*
X47839393Y-83331794D01*
X47895206Y-83527955D01*
X47895207Y-83527957D01*
X47895208Y-83527960D01*
X47986117Y-83710531D01*
X47986118Y-83710532D01*
X47986119Y-83710534D01*
X48109024Y-83873288D01*
X48259749Y-84010691D01*
X48259750Y-84010692D01*
X48433141Y-84118051D01*
X48433144Y-84118052D01*
X48433153Y-84118058D01*
X48623334Y-84191734D01*
X48823814Y-84229210D01*
X48823816Y-84229210D01*
X49027764Y-84229210D01*
X49027766Y-84229210D01*
X49228246Y-84191734D01*
X49418427Y-84118058D01*
X49591831Y-84010691D01*
X49742554Y-83873289D01*
X49865463Y-83710531D01*
X49956372Y-83527960D01*
X50012187Y-83331793D01*
X50031005Y-83128710D01*
X50012187Y-82925627D01*
X49956372Y-82729460D01*
X49865463Y-82546889D01*
X49854905Y-82532908D01*
X49742555Y-82384131D01*
X49617358Y-82270000D01*
X54721379Y-82270000D01*
X54741777Y-82424935D01*
X54801577Y-82569310D01*
X54896710Y-82693289D01*
X55020689Y-82788422D01*
X55111731Y-82826131D01*
X55165065Y-82848223D01*
X55320000Y-82868621D01*
X55474935Y-82848223D01*
X55568866Y-82809316D01*
X55619310Y-82788422D01*
X55648156Y-82766287D01*
X55743289Y-82693289D01*
X55761315Y-82669796D01*
X55818653Y-82627929D01*
X55861278Y-82620500D01*
X69800581Y-82620500D01*
X69826439Y-82623182D01*
X69827851Y-82623478D01*
X69835315Y-82625043D01*
X69863994Y-82621467D01*
X69877442Y-82620632D01*
X69879029Y-82620501D01*
X69879035Y-82620500D01*
X69879040Y-82620500D01*
X69898018Y-82617332D01*
X69903075Y-82616595D01*
X69951393Y-82610573D01*
X69951394Y-82610572D01*
X69958432Y-82608476D01*
X69965373Y-82606093D01*
X69965381Y-82606092D01*
X70008185Y-82582926D01*
X70012746Y-82580578D01*
X70056484Y-82559198D01*
X70056490Y-82559191D01*
X70062469Y-82554922D01*
X70068251Y-82550421D01*
X70068258Y-82550418D01*
X70101242Y-82514586D01*
X70104779Y-82510901D01*
X72685680Y-79930000D01*
X91894415Y-79930000D01*
X91907228Y-80149999D01*
X91914738Y-80278927D01*
X91975431Y-80623136D01*
X92075674Y-80957971D01*
X92075676Y-80957977D01*
X92075677Y-80957978D01*
X92214109Y-81278901D01*
X92214112Y-81278906D01*
X92292515Y-81414704D01*
X92388870Y-81581596D01*
X92597588Y-81861953D01*
X92789800Y-82065686D01*
X92837445Y-82116186D01*
X93105193Y-82340852D01*
X93397199Y-82532908D01*
X93397207Y-82532913D01*
X93709549Y-82689777D01*
X93873769Y-82749548D01*
X94037980Y-82809316D01*
X94037981Y-82809316D01*
X94037989Y-82809319D01*
X94378086Y-82889923D01*
X94576460Y-82913109D01*
X94725238Y-82930500D01*
X94725241Y-82930500D01*
X95074762Y-82930500D01*
X95204942Y-82915283D01*
X95421914Y-82889923D01*
X95762011Y-82809319D01*
X96090451Y-82689777D01*
X96402793Y-82532913D01*
X96694811Y-82340849D01*
X96962558Y-82116183D01*
X97202412Y-81861953D01*
X97411130Y-81581596D01*
X97585889Y-81278904D01*
X97724326Y-80957971D01*
X97824569Y-80623136D01*
X97885262Y-80278927D01*
X97905585Y-79930000D01*
X97885262Y-79581073D01*
X97824569Y-79236864D01*
X97724326Y-78902029D01*
X97612534Y-78642866D01*
X97585890Y-78581098D01*
X97585887Y-78581093D01*
X97546037Y-78512071D01*
X97411130Y-78278404D01*
X97202412Y-77998047D01*
X96962558Y-77743817D01*
X96962556Y-77743816D01*
X96962554Y-77743813D01*
X96757185Y-77571489D01*
X96694811Y-77519151D01*
X96694809Y-77519150D01*
X96694806Y-77519147D01*
X96402800Y-77327091D01*
X96402796Y-77327089D01*
X96402793Y-77327087D01*
X96090451Y-77170223D01*
X96090446Y-77170221D01*
X96090441Y-77170219D01*
X95762019Y-77050683D01*
X95762012Y-77050681D01*
X95762011Y-77050681D01*
X95487774Y-76985686D01*
X95421919Y-76970078D01*
X95421909Y-76970076D01*
X95074762Y-76929500D01*
X95074759Y-76929500D01*
X94725241Y-76929500D01*
X94725238Y-76929500D01*
X94378090Y-76970076D01*
X94378080Y-76970078D01*
X94037989Y-77050681D01*
X94037980Y-77050683D01*
X93709558Y-77170219D01*
X93709553Y-77170221D01*
X93397199Y-77327091D01*
X93105193Y-77519147D01*
X92837445Y-77743813D01*
X92597589Y-77998045D01*
X92388873Y-78278399D01*
X92388863Y-78278415D01*
X92214112Y-78581093D01*
X92214109Y-78581098D01*
X92099957Y-78845734D01*
X92075674Y-78902029D01*
X91975431Y-79236864D01*
X91919248Y-79555499D01*
X91914738Y-79581074D01*
X91914737Y-79581083D01*
X91894415Y-79930000D01*
X72685680Y-79930000D01*
X73202899Y-79412781D01*
X73223068Y-79396402D01*
X73230669Y-79391437D01*
X73248417Y-79368632D01*
X73257300Y-79358576D01*
X73258369Y-79357314D01*
X73258371Y-79357310D01*
X73258376Y-79357306D01*
X73269555Y-79341647D01*
X73272629Y-79337525D01*
X73302517Y-79299126D01*
X73302518Y-79299121D01*
X73306025Y-79292641D01*
X73309237Y-79286070D01*
X73309236Y-79286070D01*
X73309240Y-79286066D01*
X73323133Y-79239394D01*
X73324697Y-79234515D01*
X73340500Y-79188488D01*
X73340500Y-79188481D01*
X73341706Y-79181251D01*
X73342615Y-79173957D01*
X73342617Y-79173953D01*
X73340607Y-79125368D01*
X73340500Y-79120162D01*
X73340500Y-78686940D01*
X74174500Y-78686940D01*
X74189748Y-78827147D01*
X74189751Y-78827160D01*
X74249859Y-79005554D01*
X74249860Y-79005555D01*
X74249861Y-79005557D01*
X74259588Y-79021723D01*
X74318816Y-79120162D01*
X74346918Y-79166867D01*
X74375976Y-79197543D01*
X74459833Y-79286070D01*
X74476383Y-79303541D01*
X74623875Y-79403543D01*
X74632205Y-79409191D01*
X74807086Y-79478869D01*
X74807088Y-79478870D01*
X74830024Y-79482630D01*
X74992866Y-79509327D01*
X75180848Y-79499135D01*
X75180854Y-79499133D01*
X75180856Y-79499133D01*
X75271546Y-79473953D01*
X75362244Y-79448771D01*
X75528572Y-79360589D01*
X75672055Y-79238714D01*
X75785983Y-79088843D01*
X75865031Y-78917985D01*
X75905500Y-78734129D01*
X75905500Y-78642866D01*
X80170673Y-78642866D01*
X80177317Y-78765417D01*
X80180865Y-78830845D01*
X80180866Y-78830856D01*
X80231226Y-79012236D01*
X80231229Y-79012244D01*
X80319411Y-79178572D01*
X80441286Y-79322055D01*
X80555912Y-79409191D01*
X80591156Y-79435982D01*
X80591159Y-79435984D01*
X80618802Y-79448773D01*
X80762015Y-79515031D01*
X80945871Y-79555500D01*
X80945874Y-79555500D01*
X82586923Y-79555500D01*
X82586931Y-79555500D01*
X82598377Y-79554255D01*
X82727147Y-79540251D01*
X82727148Y-79540250D01*
X82727154Y-79540250D01*
X82905557Y-79480139D01*
X83066867Y-79383082D01*
X83203541Y-79253617D01*
X83309189Y-79097798D01*
X83312759Y-79088840D01*
X83378869Y-78922913D01*
X83378870Y-78922911D01*
X83387551Y-78869960D01*
X83409327Y-78737134D01*
X83406606Y-78686940D01*
X87674500Y-78686940D01*
X87689748Y-78827147D01*
X87689751Y-78827160D01*
X87749859Y-79005554D01*
X87749860Y-79005555D01*
X87749861Y-79005557D01*
X87759588Y-79021723D01*
X87818816Y-79120162D01*
X87846918Y-79166867D01*
X87875976Y-79197543D01*
X87959833Y-79286070D01*
X87976383Y-79303541D01*
X88123875Y-79403543D01*
X88132205Y-79409191D01*
X88307086Y-79478869D01*
X88307088Y-79478870D01*
X88330024Y-79482630D01*
X88492866Y-79509327D01*
X88680848Y-79499135D01*
X88680854Y-79499133D01*
X88680856Y-79499133D01*
X88771546Y-79473953D01*
X88862244Y-79448771D01*
X89028572Y-79360589D01*
X89172055Y-79238714D01*
X89285983Y-79088843D01*
X89365031Y-78917985D01*
X89405500Y-78734129D01*
X89405500Y-77093069D01*
X89400366Y-77045864D01*
X89390251Y-76952852D01*
X89390248Y-76952839D01*
X89330140Y-76774445D01*
X89330139Y-76774444D01*
X89330139Y-76774443D01*
X89233082Y-76613133D01*
X89103617Y-76476459D01*
X88947798Y-76370811D01*
X88947799Y-76370811D01*
X88947794Y-76370808D01*
X88772913Y-76301130D01*
X88772911Y-76301129D01*
X88633005Y-76278193D01*
X88587134Y-76270673D01*
X88587132Y-76270673D01*
X88587131Y-76270673D01*
X88474344Y-76276788D01*
X88399152Y-76280865D01*
X88399151Y-76280865D01*
X88399143Y-76280866D01*
X88217763Y-76331226D01*
X88217755Y-76331229D01*
X88051429Y-76419410D01*
X88051428Y-76419411D01*
X87907945Y-76541286D01*
X87907943Y-76541287D01*
X87907941Y-76541290D01*
X87794017Y-76691156D01*
X87794015Y-76691159D01*
X87714968Y-76862014D01*
X87714968Y-76862015D01*
X87674501Y-77045864D01*
X87674500Y-77045874D01*
X87674500Y-78686940D01*
X83406606Y-78686940D01*
X83399135Y-78549152D01*
X83371039Y-78447960D01*
X83348773Y-78367763D01*
X83348772Y-78367762D01*
X83348771Y-78367756D01*
X83260589Y-78201428D01*
X83138714Y-78057945D01*
X83126565Y-78048710D01*
X82988843Y-77944017D01*
X82988840Y-77944015D01*
X82817984Y-77864968D01*
X82634135Y-77824501D01*
X82634132Y-77824500D01*
X82634129Y-77824500D01*
X80993069Y-77824500D01*
X80993059Y-77824500D01*
X80852852Y-77839748D01*
X80852839Y-77839751D01*
X80674445Y-77899859D01*
X80674444Y-77899860D01*
X80513135Y-77996916D01*
X80513126Y-77996924D01*
X80376461Y-78126380D01*
X80270808Y-78282205D01*
X80201130Y-78457086D01*
X80201129Y-78457088D01*
X80174673Y-78618466D01*
X80170673Y-78642866D01*
X75905500Y-78642866D01*
X75905500Y-77093069D01*
X75900366Y-77045864D01*
X75890251Y-76952852D01*
X75890248Y-76952839D01*
X75830140Y-76774445D01*
X75830139Y-76774444D01*
X75830139Y-76774443D01*
X75733082Y-76613133D01*
X75603617Y-76476459D01*
X75447798Y-76370811D01*
X75447799Y-76370811D01*
X75447794Y-76370808D01*
X75272913Y-76301130D01*
X75272911Y-76301129D01*
X75133005Y-76278193D01*
X75087134Y-76270673D01*
X75087132Y-76270673D01*
X75087131Y-76270673D01*
X74974344Y-76276788D01*
X74899152Y-76280865D01*
X74899151Y-76280865D01*
X74899143Y-76280866D01*
X74717763Y-76331226D01*
X74717755Y-76331229D01*
X74551429Y-76419410D01*
X74551428Y-76419411D01*
X74407945Y-76541286D01*
X74407943Y-76541287D01*
X74407941Y-76541290D01*
X74294017Y-76691156D01*
X74294015Y-76691159D01*
X74214968Y-76862014D01*
X74214968Y-76862015D01*
X74174501Y-77045864D01*
X74174500Y-77045874D01*
X74174500Y-78686940D01*
X73340500Y-78686940D01*
X73340500Y-74890000D01*
X77173370Y-74890000D01*
X77191853Y-75101265D01*
X77246741Y-75306109D01*
X77246743Y-75306114D01*
X77336369Y-75498316D01*
X77371828Y-75548959D01*
X77945155Y-74975633D01*
X77946327Y-74991265D01*
X77995887Y-75117541D01*
X78080465Y-75223599D01*
X78192547Y-75300016D01*
X78304623Y-75334586D01*
X77731039Y-75908169D01*
X77781685Y-75943632D01*
X77973885Y-76033256D01*
X77973890Y-76033258D01*
X78178734Y-76088146D01*
X78390000Y-76106629D01*
X78601265Y-76088146D01*
X78806109Y-76033258D01*
X78806114Y-76033256D01*
X78998315Y-75943631D01*
X79048959Y-75908170D01*
X79048959Y-75908168D01*
X78783388Y-75642597D01*
X83978000Y-75642597D01*
X83984505Y-75703093D01*
X84035555Y-75839964D01*
X84035555Y-75839965D01*
X84123095Y-75956904D01*
X84240034Y-76044444D01*
X84376906Y-76095494D01*
X84437402Y-76101999D01*
X84437415Y-76102000D01*
X84936000Y-76102000D01*
X84936000Y-75261462D01*
X84992547Y-75300016D01*
X85122173Y-75340000D01*
X85223724Y-75340000D01*
X85324138Y-75324865D01*
X85444000Y-75267142D01*
X85444000Y-76102000D01*
X85942585Y-76102000D01*
X85942597Y-76101999D01*
X86003093Y-76095494D01*
X86139964Y-76044444D01*
X86139965Y-76044444D01*
X86256904Y-75956904D01*
X86344444Y-75839965D01*
X86344444Y-75839964D01*
X86395494Y-75703093D01*
X86401999Y-75642597D01*
X86402000Y-75642585D01*
X86402000Y-75144000D01*
X85562968Y-75144000D01*
X85613625Y-75056260D01*
X85643810Y-74924008D01*
X85633673Y-74788735D01*
X85584113Y-74662459D01*
X85563013Y-74636000D01*
X86402000Y-74636000D01*
X86402000Y-74300004D01*
X99342016Y-74300004D01*
X99361927Y-74591108D01*
X99361928Y-74591114D01*
X99421296Y-74876814D01*
X99421298Y-74876822D01*
X99519017Y-75151775D01*
X99653265Y-75410861D01*
X99653265Y-75410862D01*
X99800848Y-75619939D01*
X100431453Y-74989334D01*
X100432567Y-74991404D01*
X100572855Y-75167320D01*
X100742299Y-75315358D01*
X100793348Y-75345859D01*
X100161861Y-75977346D01*
X100161861Y-75977348D01*
X100247059Y-76046663D01*
X100496393Y-76198286D01*
X100764029Y-76314537D01*
X101045017Y-76393266D01*
X101334085Y-76432999D01*
X101334099Y-76433000D01*
X101625901Y-76433000D01*
X101625914Y-76432999D01*
X101914982Y-76393266D01*
X102195970Y-76314537D01*
X102463606Y-76198286D01*
X102712935Y-76046666D01*
X102798137Y-75977347D01*
X102798137Y-75977346D01*
X102166849Y-75346058D01*
X102305747Y-75245144D01*
X102461239Y-75082512D01*
X102525050Y-74985841D01*
X103159149Y-75619940D01*
X103159150Y-75619939D01*
X103306729Y-75410870D01*
X103306734Y-75410861D01*
X103440982Y-75151775D01*
X103538701Y-74876822D01*
X103538703Y-74876814D01*
X103598071Y-74591114D01*
X103598072Y-74591108D01*
X103617984Y-74300004D01*
X107942016Y-74300004D01*
X107961927Y-74591108D01*
X107961928Y-74591114D01*
X108021296Y-74876814D01*
X108021298Y-74876822D01*
X108119017Y-75151775D01*
X108253265Y-75410861D01*
X108253265Y-75410862D01*
X108400848Y-75619939D01*
X109031453Y-74989334D01*
X109032567Y-74991404D01*
X109172855Y-75167320D01*
X109342299Y-75315358D01*
X109393348Y-75345859D01*
X108761861Y-75977346D01*
X108761861Y-75977348D01*
X108847059Y-76046663D01*
X109096393Y-76198286D01*
X109364029Y-76314537D01*
X109645017Y-76393266D01*
X109934085Y-76432999D01*
X109934099Y-76433000D01*
X110225901Y-76433000D01*
X110225914Y-76432999D01*
X110514982Y-76393266D01*
X110795970Y-76314537D01*
X111063606Y-76198286D01*
X111312935Y-76046666D01*
X111398137Y-75977347D01*
X111398137Y-75977346D01*
X110766849Y-75346058D01*
X110905747Y-75245144D01*
X111061239Y-75082512D01*
X111125050Y-74985841D01*
X111759149Y-75619940D01*
X111759150Y-75619939D01*
X111906729Y-75410870D01*
X111906734Y-75410861D01*
X112040982Y-75151775D01*
X112138701Y-74876822D01*
X112138703Y-74876814D01*
X112198071Y-74591114D01*
X112198072Y-74591108D01*
X112217984Y-74300004D01*
X112217984Y-74299995D01*
X112198072Y-74008891D01*
X112198071Y-74008885D01*
X112138703Y-73723185D01*
X112138701Y-73723177D01*
X112040982Y-73448224D01*
X111906734Y-73189138D01*
X111906734Y-73189137D01*
X111759149Y-72980058D01*
X111128545Y-73610662D01*
X111127433Y-73608596D01*
X110987145Y-73432680D01*
X110817701Y-73284642D01*
X110766648Y-73254139D01*
X111398137Y-72622650D01*
X111312940Y-72553336D01*
X111063606Y-72401713D01*
X110795970Y-72285462D01*
X110514982Y-72206733D01*
X110225914Y-72167000D01*
X109934085Y-72167000D01*
X109645017Y-72206733D01*
X109364029Y-72285462D01*
X109096389Y-72401714D01*
X108847072Y-72553327D01*
X108761861Y-72622651D01*
X108761860Y-72622651D01*
X109393150Y-73253941D01*
X109254253Y-73354856D01*
X109098761Y-73517488D01*
X109034949Y-73614158D01*
X108400849Y-72980058D01*
X108253266Y-73189137D01*
X108253265Y-73189138D01*
X108119017Y-73448224D01*
X108021298Y-73723177D01*
X108021296Y-73723185D01*
X107961928Y-74008885D01*
X107961927Y-74008891D01*
X107942016Y-74299995D01*
X107942016Y-74300004D01*
X103617984Y-74300004D01*
X103617984Y-74299995D01*
X103598072Y-74008891D01*
X103598071Y-74008885D01*
X103538703Y-73723185D01*
X103538701Y-73723177D01*
X103440982Y-73448224D01*
X103306734Y-73189138D01*
X103306734Y-73189137D01*
X103159149Y-72980058D01*
X102528545Y-73610662D01*
X102527433Y-73608596D01*
X102387145Y-73432680D01*
X102217701Y-73284642D01*
X102166648Y-73254139D01*
X102798137Y-72622650D01*
X102712940Y-72553336D01*
X102463606Y-72401713D01*
X102195970Y-72285462D01*
X101914982Y-72206733D01*
X101625914Y-72167000D01*
X101334085Y-72167000D01*
X101045017Y-72206733D01*
X100764029Y-72285462D01*
X100496389Y-72401714D01*
X100247072Y-72553327D01*
X100161861Y-72622651D01*
X100161860Y-72622651D01*
X100793150Y-73253941D01*
X100654253Y-73354856D01*
X100498761Y-73517488D01*
X100434949Y-73614158D01*
X99800849Y-72980058D01*
X99653266Y-73189137D01*
X99653265Y-73189138D01*
X99519017Y-73448224D01*
X99421298Y-73723177D01*
X99421296Y-73723185D01*
X99361928Y-74008885D01*
X99361927Y-74008891D01*
X99342016Y-74299995D01*
X99342016Y-74300004D01*
X86402000Y-74300004D01*
X86402000Y-74137414D01*
X86401999Y-74137402D01*
X86395494Y-74076906D01*
X86344444Y-73940035D01*
X86344444Y-73940034D01*
X86256904Y-73823095D01*
X86139965Y-73735555D01*
X86003093Y-73684505D01*
X85942597Y-73678000D01*
X85444000Y-73678000D01*
X85444000Y-74518537D01*
X85387453Y-74479984D01*
X85257827Y-74440000D01*
X85156276Y-74440000D01*
X85055862Y-74455135D01*
X84936000Y-74512857D01*
X84936000Y-73678000D01*
X84437402Y-73678000D01*
X84376906Y-73684505D01*
X84240035Y-73735555D01*
X84240034Y-73735555D01*
X84123095Y-73823095D01*
X84035555Y-73940034D01*
X84035555Y-73940035D01*
X83984505Y-74076906D01*
X83978000Y-74137402D01*
X83978000Y-74636000D01*
X84817032Y-74636000D01*
X84766375Y-74723740D01*
X84736190Y-74855992D01*
X84746327Y-74991265D01*
X84795887Y-75117541D01*
X84816987Y-75144000D01*
X83978000Y-75144000D01*
X83978000Y-75642597D01*
X78783388Y-75642597D01*
X78473316Y-75332525D01*
X78524138Y-75324865D01*
X78646357Y-75266007D01*
X78745798Y-75173740D01*
X78813625Y-75056260D01*
X78832550Y-74973341D01*
X79408168Y-75548959D01*
X79408170Y-75548959D01*
X79443631Y-75498315D01*
X79533256Y-75306114D01*
X79533258Y-75306109D01*
X79588146Y-75101265D01*
X79606629Y-74890000D01*
X79588146Y-74678734D01*
X79533258Y-74473890D01*
X79533256Y-74473885D01*
X79443632Y-74281685D01*
X79408169Y-74231039D01*
X78834844Y-74804364D01*
X78833673Y-74788735D01*
X78784113Y-74662459D01*
X78699535Y-74556401D01*
X78587453Y-74479984D01*
X78475376Y-74445413D01*
X79048960Y-73871829D01*
X78998316Y-73836369D01*
X78806114Y-73746743D01*
X78806109Y-73746741D01*
X78601265Y-73691853D01*
X78390000Y-73673370D01*
X78178734Y-73691853D01*
X77973890Y-73746741D01*
X77973885Y-73746743D01*
X77781683Y-73836369D01*
X77731038Y-73871829D01*
X78306683Y-74447474D01*
X78255862Y-74455135D01*
X78133643Y-74513993D01*
X78034202Y-74606260D01*
X77966375Y-74723740D01*
X77947449Y-74806658D01*
X77371829Y-74231038D01*
X77336369Y-74281683D01*
X77246743Y-74473885D01*
X77246741Y-74473890D01*
X77191853Y-74678734D01*
X77173370Y-74890000D01*
X73340500Y-74890000D01*
X73340500Y-68506600D01*
X73360502Y-68438479D01*
X73414158Y-68391986D01*
X73484432Y-68381882D01*
X73543204Y-68406638D01*
X73610690Y-68458422D01*
X73682877Y-68488322D01*
X73755065Y-68518223D01*
X73910000Y-68538621D01*
X74064935Y-68518223D01*
X74155977Y-68480512D01*
X74209310Y-68458422D01*
X74333290Y-68363288D01*
X74339129Y-68357450D01*
X74340422Y-68358743D01*
X74389468Y-68322930D01*
X74432095Y-68315500D01*
X74517989Y-68315500D01*
X74543847Y-68318181D01*
X74554268Y-68320367D01*
X74585548Y-68316467D01*
X74601028Y-68315506D01*
X74601096Y-68315500D01*
X74601114Y-68315500D01*
X74621589Y-68312082D01*
X74626678Y-68311340D01*
X74678626Y-68304866D01*
X74678627Y-68304865D01*
X74678630Y-68304865D01*
X74686136Y-68302630D01*
X74693606Y-68300065D01*
X74693610Y-68300065D01*
X74739639Y-68275154D01*
X74744155Y-68272829D01*
X74791211Y-68249826D01*
X74791215Y-68249822D01*
X74797603Y-68245261D01*
X74803824Y-68240420D01*
X74803826Y-68240419D01*
X74839258Y-68201928D01*
X74842817Y-68198218D01*
X76248634Y-66792402D01*
X76310944Y-66758379D01*
X76337727Y-66755500D01*
X77249353Y-66755500D01*
X77317474Y-66775502D01*
X77363967Y-66829158D01*
X77374071Y-66899432D01*
X77344577Y-66964012D01*
X77312350Y-66990621D01*
X77310690Y-66991578D01*
X77186711Y-67086711D01*
X77091580Y-67210688D01*
X77091578Y-67210691D01*
X77031776Y-67355066D01*
X77011379Y-67509999D01*
X77011379Y-67510000D01*
X77031777Y-67664935D01*
X77091577Y-67809310D01*
X77186711Y-67933290D01*
X77192551Y-67939130D01*
X77191256Y-67940424D01*
X77227069Y-67989465D01*
X77234500Y-68032095D01*
X77234500Y-71557989D01*
X77231818Y-71583846D01*
X77229632Y-71594267D01*
X77233532Y-71625546D01*
X77234495Y-71641057D01*
X77234499Y-71641113D01*
X77237915Y-71661584D01*
X77238665Y-71666732D01*
X77245133Y-71718621D01*
X77247383Y-71726180D01*
X77249934Y-71733611D01*
X77274813Y-71779583D01*
X77277195Y-71784210D01*
X77300173Y-71831210D01*
X77304755Y-71837627D01*
X77309576Y-71843822D01*
X77348069Y-71879257D01*
X77351826Y-71882863D01*
X77447702Y-71978739D01*
X77481728Y-72041051D01*
X77479182Y-72104408D01*
X77449309Y-72202889D01*
X77430882Y-72389996D01*
X77430882Y-72390003D01*
X77449309Y-72577107D01*
X77449311Y-72577118D01*
X77503890Y-72757038D01*
X77503891Y-72757040D01*
X77508480Y-72765625D01*
X77592523Y-72922857D01*
X77711801Y-73068199D01*
X77857143Y-73187477D01*
X77922857Y-73222602D01*
X78022959Y-73276108D01*
X78022961Y-73276109D01*
X78202881Y-73330688D01*
X78202882Y-73330688D01*
X78202885Y-73330689D01*
X78202888Y-73330689D01*
X78202892Y-73330690D01*
X78389997Y-73349118D01*
X78390000Y-73349118D01*
X78390003Y-73349118D01*
X78577107Y-73330690D01*
X78577109Y-73330689D01*
X78577115Y-73330689D01*
X78757039Y-73276109D01*
X78922857Y-73187477D01*
X79068199Y-73068199D01*
X79187477Y-72922857D01*
X79276109Y-72757039D01*
X79330689Y-72577115D01*
X79333032Y-72553327D01*
X79349118Y-72390003D01*
X79349118Y-72389996D01*
X79330690Y-72202892D01*
X79330688Y-72202881D01*
X79276109Y-72022961D01*
X79276108Y-72022959D01*
X79187478Y-71857145D01*
X79187477Y-71857143D01*
X79068199Y-71711801D01*
X78922857Y-71592523D01*
X78922855Y-71592522D01*
X78922854Y-71592521D01*
X78757040Y-71503891D01*
X78757038Y-71503890D01*
X78577118Y-71449311D01*
X78577107Y-71449309D01*
X78390003Y-71430882D01*
X78389997Y-71430882D01*
X78202893Y-71449309D01*
X78202887Y-71449310D01*
X78202885Y-71449311D01*
X78148073Y-71465938D01*
X78077082Y-71466571D01*
X78017016Y-71428722D01*
X77986947Y-71364407D01*
X77985500Y-71345363D01*
X77985500Y-71020000D01*
X83461379Y-71020000D01*
X83481777Y-71174935D01*
X83541577Y-71319310D01*
X83636710Y-71443289D01*
X83760689Y-71538422D01*
X83851731Y-71576131D01*
X83905065Y-71598223D01*
X84060000Y-71618621D01*
X84214935Y-71598223D01*
X84300748Y-71562678D01*
X84341174Y-71545934D01*
X84411763Y-71538345D01*
X84475250Y-71570125D01*
X84511477Y-71631183D01*
X84508943Y-71702134D01*
X84486791Y-71742276D01*
X84392521Y-71857145D01*
X84303891Y-72022959D01*
X84303890Y-72022961D01*
X84249311Y-72202881D01*
X84249309Y-72202892D01*
X84230882Y-72389996D01*
X84230882Y-72390003D01*
X84249309Y-72577107D01*
X84249311Y-72577118D01*
X84303890Y-72757038D01*
X84303891Y-72757040D01*
X84308480Y-72765625D01*
X84392523Y-72922857D01*
X84511801Y-73068199D01*
X84657143Y-73187477D01*
X84722857Y-73222602D01*
X84822959Y-73276108D01*
X84822961Y-73276109D01*
X85002881Y-73330688D01*
X85002882Y-73330688D01*
X85002885Y-73330689D01*
X85002888Y-73330689D01*
X85002892Y-73330690D01*
X85189997Y-73349118D01*
X85190000Y-73349118D01*
X85190003Y-73349118D01*
X85377107Y-73330690D01*
X85377109Y-73330689D01*
X85377115Y-73330689D01*
X85557039Y-73276109D01*
X85722857Y-73187477D01*
X85868199Y-73068199D01*
X85987477Y-72922857D01*
X86076109Y-72757039D01*
X86130689Y-72577115D01*
X86133032Y-72553327D01*
X86149118Y-72390003D01*
X86149118Y-72389996D01*
X86130690Y-72202892D01*
X86130688Y-72202881D01*
X86076109Y-72022961D01*
X86076108Y-72022959D01*
X85987478Y-71857145D01*
X85987477Y-71857143D01*
X85868199Y-71711801D01*
X85722857Y-71592523D01*
X85722855Y-71592522D01*
X85722854Y-71592521D01*
X85557040Y-71503891D01*
X85557038Y-71503890D01*
X85377118Y-71449311D01*
X85377107Y-71449309D01*
X85190003Y-71430882D01*
X85189997Y-71430882D01*
X85002892Y-71449309D01*
X85002881Y-71449311D01*
X84822961Y-71503890D01*
X84822959Y-71503891D01*
X84682771Y-71578824D01*
X84613265Y-71593296D01*
X84546969Y-71567892D01*
X84504931Y-71510679D01*
X84500498Y-71439821D01*
X84523411Y-71391001D01*
X84578421Y-71319311D01*
X84580965Y-71313167D01*
X84604672Y-71276047D01*
X84648703Y-71228219D01*
X84699043Y-71113454D01*
X84709392Y-70988563D01*
X84678628Y-70867078D01*
X84610084Y-70762164D01*
X84603013Y-70754483D01*
X84604903Y-70752742D01*
X84584903Y-70726483D01*
X84582550Y-70727842D01*
X84578420Y-70720689D01*
X84576528Y-70718223D01*
X84575577Y-70715764D01*
X84574291Y-70713536D01*
X84574638Y-70713335D01*
X84550925Y-70652003D01*
X84565188Y-70582454D01*
X84576523Y-70564815D01*
X84588421Y-70549311D01*
X84648223Y-70404935D01*
X84668621Y-70250000D01*
X84648223Y-70095065D01*
X84588421Y-69950690D01*
X84493289Y-69826711D01*
X84493287Y-69826709D01*
X84493286Y-69826708D01*
X84369310Y-69731577D01*
X84224935Y-69671777D01*
X84070000Y-69651379D01*
X83915066Y-69671776D01*
X83770691Y-69731578D01*
X83770688Y-69731580D01*
X83646711Y-69826711D01*
X83551580Y-69950688D01*
X83551578Y-69950691D01*
X83491776Y-70095066D01*
X83471379Y-70249999D01*
X83471379Y-70250000D01*
X83491777Y-70404935D01*
X83551576Y-70549307D01*
X83553474Y-70551780D01*
X83554426Y-70554244D01*
X83555706Y-70556460D01*
X83555360Y-70556659D01*
X83579074Y-70618001D01*
X83564809Y-70687550D01*
X83553477Y-70705183D01*
X83547069Y-70713536D01*
X83541577Y-70720693D01*
X83481777Y-70865065D01*
X83461379Y-71019999D01*
X83461379Y-71020000D01*
X77985500Y-71020000D01*
X77985500Y-68270000D01*
X91991379Y-68270000D01*
X92011777Y-68424935D01*
X92071577Y-68569310D01*
X92166710Y-68693289D01*
X92290689Y-68788422D01*
X92381731Y-68826131D01*
X92435065Y-68848223D01*
X92590000Y-68868621D01*
X92744935Y-68848223D01*
X92835977Y-68810512D01*
X92889310Y-68788422D01*
X93013289Y-68693289D01*
X93108422Y-68569310D01*
X93130512Y-68515977D01*
X93168223Y-68424935D01*
X93188621Y-68270000D01*
X93185964Y-68249822D01*
X93168223Y-68115066D01*
X93158584Y-68091794D01*
X93108421Y-67970690D01*
X93013289Y-67846711D01*
X93013287Y-67846709D01*
X93013286Y-67846708D01*
X92889310Y-67751577D01*
X92744935Y-67691777D01*
X92590000Y-67671379D01*
X92435066Y-67691776D01*
X92290691Y-67751578D01*
X92290688Y-67751580D01*
X92166711Y-67846711D01*
X92071580Y-67970688D01*
X92071578Y-67970691D01*
X92011776Y-68115066D01*
X91991379Y-68269999D01*
X91991379Y-68270000D01*
X77985500Y-68270000D01*
X77985500Y-68032095D01*
X78005502Y-67963974D01*
X78027923Y-67939604D01*
X78027449Y-67939130D01*
X78033288Y-67933290D01*
X78033525Y-67932982D01*
X78110244Y-67833000D01*
X78128422Y-67809310D01*
X78167677Y-67714537D01*
X78188223Y-67664935D01*
X78208621Y-67510000D01*
X78188223Y-67355065D01*
X78128421Y-67210690D01*
X78033289Y-67086711D01*
X78033287Y-67086709D01*
X78033286Y-67086708D01*
X77909312Y-66991579D01*
X77907647Y-66990618D01*
X77906523Y-66989439D01*
X77902759Y-66986551D01*
X77903209Y-66985963D01*
X77858655Y-66939234D01*
X77845220Y-66869520D01*
X77871608Y-66803610D01*
X77929441Y-66762429D01*
X77970649Y-66755500D01*
X81857989Y-66755500D01*
X81883847Y-66758181D01*
X81894268Y-66760367D01*
X81925548Y-66756467D01*
X81941028Y-66755506D01*
X81941096Y-66755500D01*
X81941114Y-66755500D01*
X81961589Y-66752082D01*
X81966678Y-66751340D01*
X82018626Y-66744866D01*
X82018627Y-66744865D01*
X82018630Y-66744865D01*
X82026136Y-66742630D01*
X82033606Y-66740065D01*
X82033610Y-66740065D01*
X82079639Y-66715154D01*
X82084155Y-66712829D01*
X82131211Y-66689826D01*
X82131215Y-66689822D01*
X82137603Y-66685261D01*
X82143824Y-66680420D01*
X82143826Y-66680419D01*
X82179258Y-66641928D01*
X82182841Y-66638194D01*
X83141036Y-65680000D01*
X87131379Y-65680000D01*
X87151777Y-65834935D01*
X87211577Y-65979310D01*
X87306710Y-66103289D01*
X87430689Y-66198422D01*
X87521731Y-66236131D01*
X87575065Y-66258223D01*
X87730000Y-66278621D01*
X87884935Y-66258223D01*
X87975977Y-66220512D01*
X88029310Y-66198422D01*
X88153289Y-66103289D01*
X88248422Y-65979310D01*
X88294332Y-65868470D01*
X88308223Y-65834935D01*
X88328621Y-65680000D01*
X88308223Y-65525065D01*
X88248421Y-65380690D01*
X88153289Y-65256711D01*
X88153287Y-65256709D01*
X88153286Y-65256708D01*
X88029310Y-65161577D01*
X87884935Y-65101777D01*
X87730000Y-65081379D01*
X87575066Y-65101776D01*
X87430691Y-65161578D01*
X87430688Y-65161580D01*
X87306711Y-65256711D01*
X87211580Y-65380688D01*
X87211578Y-65380691D01*
X87151776Y-65525066D01*
X87131379Y-65679999D01*
X87131379Y-65680000D01*
X83141036Y-65680000D01*
X84717170Y-64103867D01*
X84779478Y-64069844D01*
X84850294Y-64074909D01*
X84907129Y-64117456D01*
X84931183Y-64176518D01*
X84951777Y-64332935D01*
X85011577Y-64477310D01*
X85106710Y-64601289D01*
X85230689Y-64696422D01*
X85319243Y-64733101D01*
X85375065Y-64756223D01*
X85530000Y-64776621D01*
X85684935Y-64756223D01*
X85804015Y-64706899D01*
X85829310Y-64696422D01*
X85953289Y-64601289D01*
X86048422Y-64477310D01*
X86088704Y-64380058D01*
X86108223Y-64332935D01*
X86128621Y-64178000D01*
X86119019Y-64105065D01*
X86108866Y-64027946D01*
X86119805Y-63957798D01*
X86166933Y-63904699D01*
X86233788Y-63885500D01*
X87027905Y-63885500D01*
X87096026Y-63905502D01*
X87120397Y-63927923D01*
X87120871Y-63927450D01*
X87126709Y-63933288D01*
X87250689Y-64028422D01*
X87341731Y-64066131D01*
X87395065Y-64088223D01*
X87550000Y-64108621D01*
X87704935Y-64088223D01*
X87795977Y-64050512D01*
X87849310Y-64028422D01*
X87973289Y-63933289D01*
X88068422Y-63809310D01*
X88091696Y-63753119D01*
X88128223Y-63664935D01*
X88148621Y-63510000D01*
X88147650Y-63502628D01*
X88139607Y-63441537D01*
X88128223Y-63355065D01*
X88083904Y-63248070D01*
X88068422Y-63210691D01*
X88066162Y-63207746D01*
X88056996Y-63195800D01*
X88031395Y-63129583D01*
X88045658Y-63060034D01*
X88056989Y-63042401D01*
X88128421Y-62949311D01*
X88151370Y-62893908D01*
X88188223Y-62804934D01*
X88193056Y-62768222D01*
X88197590Y-62733779D01*
X88226312Y-62668854D01*
X88285577Y-62629762D01*
X88356568Y-62628917D01*
X88395718Y-62647675D01*
X88398311Y-62649526D01*
X88402494Y-62652645D01*
X88405384Y-62654895D01*
X88440874Y-62682517D01*
X88440881Y-62682519D01*
X88447353Y-62686022D01*
X88453931Y-62689238D01*
X88453934Y-62689240D01*
X88500582Y-62703127D01*
X88505495Y-62704702D01*
X88551509Y-62720499D01*
X88551512Y-62720500D01*
X88551515Y-62720500D01*
X88558757Y-62721708D01*
X88566047Y-62722617D01*
X88614630Y-62720607D01*
X88619837Y-62720500D01*
X90570581Y-62720500D01*
X90596439Y-62723182D01*
X90597851Y-62723478D01*
X90605315Y-62725043D01*
X90633994Y-62721467D01*
X90647442Y-62720632D01*
X90649029Y-62720501D01*
X90649035Y-62720500D01*
X90649040Y-62720500D01*
X90668018Y-62717332D01*
X90673075Y-62716595D01*
X90721393Y-62710573D01*
X90721394Y-62710572D01*
X90728432Y-62708476D01*
X90735373Y-62706093D01*
X90735381Y-62706092D01*
X90778185Y-62682926D01*
X90782746Y-62680578D01*
X90826484Y-62659198D01*
X90826490Y-62659191D01*
X90832478Y-62654915D01*
X90838237Y-62650434D01*
X90841622Y-62649098D01*
X90847923Y-62645190D01*
X90848071Y-62645111D01*
X90848707Y-62646303D01*
X90904279Y-62624378D01*
X90932072Y-62624943D01*
X90960000Y-62628621D01*
X91114935Y-62608223D01*
X91205977Y-62570512D01*
X91259310Y-62548422D01*
X91383289Y-62453289D01*
X91478422Y-62329310D01*
X91510968Y-62250735D01*
X91538223Y-62184935D01*
X91558621Y-62030000D01*
X91558621Y-62028492D01*
X91558980Y-62027266D01*
X91559699Y-62021812D01*
X91560549Y-62021923D01*
X91578623Y-61960371D01*
X91632279Y-61913878D01*
X91702553Y-61903774D01*
X91767133Y-61933268D01*
X91773706Y-61939387D01*
X92242048Y-62407729D01*
X93476384Y-63642065D01*
X93510410Y-63704377D01*
X93505345Y-63775192D01*
X93463997Y-63831120D01*
X93456711Y-63836710D01*
X93361580Y-63960688D01*
X93361578Y-63960691D01*
X93301776Y-64105066D01*
X93281379Y-64259999D01*
X93281379Y-64260000D01*
X93301777Y-64414935D01*
X93361333Y-64558719D01*
X93368922Y-64629309D01*
X93337142Y-64692795D01*
X93321630Y-64706896D01*
X93257348Y-64756222D01*
X93256711Y-64756711D01*
X93161580Y-64880688D01*
X93161578Y-64880691D01*
X93101776Y-65025066D01*
X93081379Y-65179999D01*
X93081379Y-65180000D01*
X93101777Y-65334935D01*
X93161577Y-65479310D01*
X93256710Y-65603289D01*
X93380689Y-65698422D01*
X93471731Y-65736131D01*
X93525065Y-65758223D01*
X93680000Y-65778621D01*
X93709359Y-65774755D01*
X93779505Y-65785693D01*
X93814900Y-65810582D01*
X97912549Y-69908231D01*
X97946575Y-69970543D01*
X97941510Y-70041358D01*
X97939864Y-70045541D01*
X97931777Y-70065064D01*
X97931776Y-70065067D01*
X97911379Y-70219999D01*
X97911379Y-70220000D01*
X97931777Y-70374935D01*
X97991577Y-70519310D01*
X98086710Y-70643289D01*
X98210689Y-70738422D01*
X98301731Y-70776131D01*
X98355065Y-70798223D01*
X98510000Y-70818621D01*
X98664935Y-70798223D01*
X98774737Y-70752742D01*
X98809310Y-70738422D01*
X98933289Y-70643289D01*
X99028422Y-70519310D01*
X99050512Y-70465977D01*
X99088223Y-70374935D01*
X99108621Y-70220000D01*
X99088223Y-70065065D01*
X99061272Y-70000000D01*
X103899709Y-70000000D01*
X103918847Y-70267589D01*
X103975874Y-70529739D01*
X104069626Y-70781100D01*
X104069628Y-70781104D01*
X104194907Y-71010534D01*
X104198199Y-71016562D01*
X104340542Y-71206711D01*
X104358972Y-71231330D01*
X104358980Y-71231339D01*
X104548660Y-71421019D01*
X104548669Y-71421027D01*
X104548671Y-71421029D01*
X104763438Y-71581801D01*
X104998899Y-71710373D01*
X105250261Y-71804126D01*
X105512407Y-71861152D01*
X105780000Y-71880291D01*
X106047593Y-71861152D01*
X106309739Y-71804126D01*
X106561101Y-71710373D01*
X106796562Y-71581801D01*
X107011329Y-71421029D01*
X107201029Y-71231329D01*
X107361801Y-71016562D01*
X107490373Y-70781101D01*
X107584126Y-70529739D01*
X107641152Y-70267593D01*
X107660291Y-70000000D01*
X107641152Y-69732407D01*
X107584126Y-69470261D01*
X107490373Y-69218899D01*
X107361801Y-68983438D01*
X107201029Y-68768671D01*
X107201027Y-68768669D01*
X107201019Y-68768660D01*
X107011339Y-68578980D01*
X107011330Y-68578972D01*
X106998424Y-68569311D01*
X106796562Y-68418199D01*
X106796560Y-68418198D01*
X106796559Y-68418197D01*
X106649260Y-68337765D01*
X113645788Y-68337765D01*
X113675412Y-68607014D01*
X113743928Y-68869090D01*
X113849869Y-69118389D01*
X113849870Y-69118390D01*
X113990982Y-69349610D01*
X114164255Y-69557820D01*
X114164257Y-69557822D01*
X114164259Y-69557824D01*
X114257957Y-69641777D01*
X114365998Y-69738582D01*
X114591910Y-69888044D01*
X114837176Y-70003020D01*
X115096569Y-70081060D01*
X115096572Y-70081060D01*
X115096574Y-70081061D01*
X115364557Y-70120500D01*
X115364561Y-70120500D01*
X115567631Y-70120500D01*
X115770156Y-70105677D01*
X115770160Y-70105676D01*
X115770161Y-70105676D01*
X115952460Y-70065067D01*
X116034553Y-70046780D01*
X116287558Y-69950014D01*
X116523777Y-69817441D01*
X116738177Y-69651888D01*
X116926186Y-69456881D01*
X117083799Y-69236579D01*
X117207656Y-68995675D01*
X117295118Y-68739305D01*
X117326517Y-68569311D01*
X117344318Y-68472941D01*
X117344319Y-68472930D01*
X117346319Y-68418197D01*
X117354212Y-68202235D01*
X117339338Y-68067058D01*
X117324587Y-67932985D01*
X117277161Y-67751578D01*
X117256072Y-67670912D01*
X117150130Y-67421610D01*
X117009018Y-67190390D01*
X116835745Y-66982180D01*
X116835741Y-66982177D01*
X116835740Y-66982175D01*
X116634012Y-66801427D01*
X116634002Y-66801418D01*
X116408090Y-66651956D01*
X116162824Y-66536980D01*
X115981781Y-66482512D01*
X115903425Y-66458938D01*
X115635442Y-66419500D01*
X115635439Y-66419500D01*
X115432369Y-66419500D01*
X115229839Y-66434323D01*
X115229838Y-66434323D01*
X114965456Y-66493217D01*
X114965441Y-66493222D01*
X114712441Y-66589986D01*
X114476229Y-66722555D01*
X114476225Y-66722557D01*
X114261818Y-66888116D01*
X114073815Y-67083117D01*
X114073810Y-67083123D01*
X113916203Y-67303417D01*
X113916196Y-67303427D01*
X113792343Y-67544324D01*
X113792342Y-67544327D01*
X113704883Y-67800689D01*
X113704880Y-67800702D01*
X113655681Y-68067058D01*
X113655680Y-68067069D01*
X113645788Y-68337765D01*
X106649260Y-68337765D01*
X106561104Y-68289628D01*
X106561100Y-68289626D01*
X106309739Y-68195874D01*
X106047589Y-68138847D01*
X105780000Y-68119709D01*
X105512410Y-68138847D01*
X105250260Y-68195874D01*
X104998899Y-68289626D01*
X104998895Y-68289628D01*
X104763440Y-68418197D01*
X104548669Y-68578972D01*
X104548660Y-68578980D01*
X104358980Y-68768660D01*
X104358972Y-68768669D01*
X104198197Y-68983440D01*
X104069628Y-69218895D01*
X104069626Y-69218899D01*
X103975874Y-69470260D01*
X103918847Y-69732410D01*
X103899709Y-70000000D01*
X99061272Y-70000000D01*
X99028421Y-69920690D01*
X98933289Y-69796711D01*
X98933287Y-69796709D01*
X98933286Y-69796708D01*
X98809310Y-69701577D01*
X98664937Y-69641778D01*
X98664938Y-69641778D01*
X98664935Y-69641777D01*
X98664931Y-69641776D01*
X98660008Y-69640457D01*
X98603528Y-69607846D01*
X94695686Y-65700004D01*
X99342016Y-65700004D01*
X99361927Y-65991108D01*
X99361928Y-65991114D01*
X99421296Y-66276814D01*
X99421298Y-66276822D01*
X99519017Y-66551775D01*
X99653265Y-66810861D01*
X99653265Y-66810862D01*
X99800848Y-67019939D01*
X100431453Y-66389334D01*
X100432567Y-66391404D01*
X100572855Y-66567320D01*
X100742299Y-66715358D01*
X100793348Y-66745859D01*
X100161861Y-67377346D01*
X100161861Y-67377348D01*
X100247059Y-67446663D01*
X100496393Y-67598286D01*
X100764029Y-67714537D01*
X101045017Y-67793266D01*
X101334085Y-67832999D01*
X101334099Y-67833000D01*
X101625901Y-67833000D01*
X101625914Y-67832999D01*
X101914982Y-67793266D01*
X102195970Y-67714537D01*
X102463606Y-67598286D01*
X102712935Y-67446666D01*
X102798137Y-67377347D01*
X102798137Y-67377346D01*
X102166849Y-66746058D01*
X102305747Y-66645144D01*
X102461239Y-66482512D01*
X102525050Y-66385841D01*
X103159149Y-67019940D01*
X103159150Y-67019939D01*
X103306729Y-66810870D01*
X103306734Y-66810861D01*
X103440982Y-66551775D01*
X103538701Y-66276822D01*
X103538703Y-66276814D01*
X103598071Y-65991114D01*
X103598072Y-65991108D01*
X103617984Y-65700004D01*
X107942016Y-65700004D01*
X107961927Y-65991108D01*
X107961928Y-65991114D01*
X108021296Y-66276814D01*
X108021298Y-66276822D01*
X108119017Y-66551775D01*
X108253265Y-66810861D01*
X108253265Y-66810862D01*
X108400848Y-67019939D01*
X109031453Y-66389334D01*
X109032567Y-66391404D01*
X109172855Y-66567320D01*
X109342299Y-66715358D01*
X109393348Y-66745859D01*
X108761861Y-67377346D01*
X108761861Y-67377348D01*
X108847059Y-67446663D01*
X109096393Y-67598286D01*
X109364029Y-67714537D01*
X109645017Y-67793266D01*
X109934085Y-67832999D01*
X109934099Y-67833000D01*
X110225901Y-67833000D01*
X110225914Y-67832999D01*
X110514982Y-67793266D01*
X110795970Y-67714537D01*
X111063606Y-67598286D01*
X111312935Y-67446666D01*
X111398137Y-67377347D01*
X111398137Y-67377346D01*
X110766849Y-66746058D01*
X110905747Y-66645144D01*
X111061239Y-66482512D01*
X111125050Y-66385841D01*
X111759149Y-67019940D01*
X111759150Y-67019939D01*
X111906729Y-66810870D01*
X111906734Y-66810861D01*
X112040982Y-66551775D01*
X112138701Y-66276822D01*
X112138703Y-66276814D01*
X112198071Y-65991114D01*
X112198072Y-65991108D01*
X112217984Y-65700004D01*
X112217984Y-65699995D01*
X112198072Y-65408891D01*
X112198071Y-65408885D01*
X112138703Y-65123185D01*
X112138701Y-65123177D01*
X112040982Y-64848224D01*
X111906734Y-64589138D01*
X111906734Y-64589137D01*
X111759149Y-64380058D01*
X111128545Y-65010662D01*
X111127433Y-65008596D01*
X110987145Y-64832680D01*
X110817701Y-64684642D01*
X110766648Y-64654139D01*
X111398137Y-64022650D01*
X111312940Y-63953336D01*
X111063606Y-63801713D01*
X110795970Y-63685462D01*
X110514982Y-63606733D01*
X110225914Y-63567000D01*
X109934085Y-63567000D01*
X109645017Y-63606733D01*
X109364029Y-63685462D01*
X109096389Y-63801714D01*
X108847072Y-63953327D01*
X108761861Y-64022651D01*
X108761860Y-64022651D01*
X109393150Y-64653941D01*
X109254253Y-64754856D01*
X109098761Y-64917488D01*
X109034949Y-65014158D01*
X108400849Y-64380058D01*
X108253266Y-64589137D01*
X108253265Y-64589138D01*
X108119017Y-64848224D01*
X108021298Y-65123177D01*
X108021296Y-65123185D01*
X107961928Y-65408885D01*
X107961927Y-65408891D01*
X107942016Y-65699995D01*
X107942016Y-65700004D01*
X103617984Y-65700004D01*
X103617984Y-65699995D01*
X103598072Y-65408891D01*
X103598071Y-65408885D01*
X103538703Y-65123185D01*
X103538701Y-65123177D01*
X103440982Y-64848224D01*
X103306734Y-64589138D01*
X103306734Y-64589137D01*
X103159149Y-64380058D01*
X102528545Y-65010662D01*
X102527433Y-65008596D01*
X102387145Y-64832680D01*
X102217701Y-64684642D01*
X102166648Y-64654139D01*
X102798137Y-64022650D01*
X102712940Y-63953336D01*
X102463606Y-63801713D01*
X102195970Y-63685462D01*
X101914982Y-63606733D01*
X101625914Y-63567000D01*
X101334085Y-63567000D01*
X101045017Y-63606733D01*
X100764029Y-63685462D01*
X100496389Y-63801714D01*
X100247072Y-63953327D01*
X100161861Y-64022651D01*
X100161860Y-64022651D01*
X100793150Y-64653941D01*
X100654253Y-64754856D01*
X100498761Y-64917488D01*
X100434949Y-65014158D01*
X99800849Y-64380058D01*
X99653266Y-64589137D01*
X99653265Y-64589138D01*
X99519017Y-64848224D01*
X99421298Y-65123177D01*
X99421296Y-65123185D01*
X99361928Y-65408885D01*
X99361927Y-65408891D01*
X99342016Y-65699995D01*
X99342016Y-65700004D01*
X94695686Y-65700004D01*
X94310582Y-65314900D01*
X94276556Y-65252588D01*
X94274755Y-65209362D01*
X94278621Y-65180000D01*
X94258223Y-65025065D01*
X94198665Y-64881281D01*
X94191077Y-64810692D01*
X94222856Y-64747205D01*
X94238366Y-64733105D01*
X94303289Y-64683289D01*
X94378952Y-64584683D01*
X94398422Y-64559310D01*
X94432386Y-64477311D01*
X94458223Y-64414935D01*
X94478621Y-64260000D01*
X94458223Y-64105065D01*
X94398421Y-63960690D01*
X94393901Y-63954800D01*
X94323298Y-63862788D01*
X94303289Y-63836711D01*
X94303287Y-63836709D01*
X94279794Y-63818682D01*
X94237928Y-63761343D01*
X94230500Y-63718721D01*
X94230500Y-63599419D01*
X94233182Y-63573559D01*
X94234492Y-63567313D01*
X94235043Y-63564685D01*
X94233622Y-63553289D01*
X94231468Y-63536006D01*
X94230633Y-63522566D01*
X94230500Y-63520959D01*
X94227341Y-63502028D01*
X94226590Y-63496874D01*
X94220574Y-63448612D01*
X94218467Y-63441537D01*
X94216093Y-63434620D01*
X94192947Y-63391852D01*
X94190571Y-63387238D01*
X94169198Y-63343516D01*
X94169194Y-63343512D01*
X94164927Y-63337535D01*
X94160420Y-63331744D01*
X94124625Y-63298792D01*
X94120868Y-63295186D01*
X91372785Y-60547103D01*
X91356396Y-60526922D01*
X91351437Y-60519331D01*
X91351433Y-60519327D01*
X91328627Y-60501577D01*
X91318568Y-60492693D01*
X91317301Y-60491620D01*
X91301674Y-60480463D01*
X91297498Y-60477349D01*
X91275632Y-60460330D01*
X91259126Y-60447483D01*
X91259123Y-60447482D01*
X91252670Y-60443989D01*
X91246068Y-60440761D01*
X91246066Y-60440760D01*
X91220012Y-60433003D01*
X91199447Y-60426880D01*
X91194493Y-60425293D01*
X91148485Y-60409499D01*
X91141257Y-60408293D01*
X91133953Y-60407382D01*
X91086817Y-60409332D01*
X91085379Y-60409392D01*
X91080173Y-60409500D01*
X89757372Y-60409500D01*
X89689251Y-60389498D01*
X89668277Y-60372595D01*
X87604295Y-58308613D01*
X87570269Y-58246301D01*
X87568468Y-58203071D01*
X87570839Y-58185066D01*
X87588621Y-58050000D01*
X87587395Y-58040691D01*
X87577907Y-57968621D01*
X87568223Y-57895065D01*
X87508421Y-57750690D01*
X87413289Y-57626711D01*
X87413287Y-57626709D01*
X87413286Y-57626708D01*
X87289310Y-57531577D01*
X87144935Y-57471777D01*
X86990000Y-57451379D01*
X86835066Y-57471776D01*
X86690691Y-57531578D01*
X86690688Y-57531580D01*
X86566711Y-57626711D01*
X86471580Y-57750688D01*
X86471578Y-57750691D01*
X86411776Y-57895066D01*
X86391379Y-58049999D01*
X86391379Y-58050000D01*
X86411777Y-58204935D01*
X86471577Y-58349310D01*
X86566710Y-58473289D01*
X86690689Y-58568422D01*
X86781731Y-58606131D01*
X86835065Y-58628223D01*
X86904915Y-58637418D01*
X86969841Y-58666140D01*
X86977564Y-58673245D01*
X89158724Y-60854405D01*
X89192750Y-60916717D01*
X89187685Y-60987532D01*
X89145138Y-61044368D01*
X89078618Y-61069179D01*
X89069629Y-61069500D01*
X89057372Y-61069500D01*
X88989251Y-61049498D01*
X88968277Y-61032595D01*
X88102785Y-60167103D01*
X88086396Y-60146922D01*
X88081437Y-60139331D01*
X88081433Y-60139327D01*
X88058627Y-60121577D01*
X88048568Y-60112693D01*
X88047301Y-60111620D01*
X88031674Y-60100463D01*
X88027498Y-60097349D01*
X87989127Y-60067484D01*
X87989126Y-60067483D01*
X87989123Y-60067482D01*
X87982670Y-60063989D01*
X87976068Y-60060761D01*
X87976066Y-60060760D01*
X87950012Y-60053003D01*
X87929447Y-60046880D01*
X87924493Y-60045293D01*
X87878485Y-60029499D01*
X87871257Y-60028293D01*
X87863953Y-60027382D01*
X87816817Y-60029332D01*
X87815379Y-60029392D01*
X87810173Y-60029500D01*
X80629419Y-60029500D01*
X80603561Y-60026818D01*
X80594684Y-60024956D01*
X80568051Y-60028277D01*
X80566005Y-60028532D01*
X80552565Y-60029366D01*
X80550960Y-60029499D01*
X80533519Y-60032409D01*
X80532026Y-60032658D01*
X80526883Y-60033408D01*
X80478607Y-60039426D01*
X80471572Y-60041521D01*
X80464613Y-60043910D01*
X80421824Y-60067065D01*
X80417199Y-60069446D01*
X80373513Y-60090803D01*
X80367526Y-60095078D01*
X80361744Y-60099578D01*
X80328780Y-60135386D01*
X80325176Y-60139141D01*
X78651723Y-61812595D01*
X78589411Y-61846620D01*
X78562628Y-61849500D01*
X76872640Y-61849500D01*
X76804519Y-61829498D01*
X76758026Y-61775842D01*
X76747922Y-61705568D01*
X76772678Y-61646796D01*
X76778422Y-61639310D01*
X76805086Y-61574935D01*
X76838223Y-61494935D01*
X76858621Y-61340000D01*
X76838223Y-61185065D01*
X76778421Y-61040690D01*
X76683289Y-60916711D01*
X76683287Y-60916709D01*
X76683286Y-60916708D01*
X76559310Y-60821577D01*
X76414935Y-60761777D01*
X76260000Y-60741379D01*
X76105066Y-60761776D01*
X75960691Y-60821578D01*
X75960688Y-60821580D01*
X75836711Y-60916711D01*
X75741580Y-61040688D01*
X75741578Y-61040691D01*
X75681776Y-61185066D01*
X75661379Y-61339999D01*
X75661379Y-61340000D01*
X75681777Y-61494935D01*
X75744243Y-61645745D01*
X75751832Y-61716335D01*
X75720052Y-61779821D01*
X75658994Y-61816048D01*
X75588042Y-61813514D01*
X75538739Y-61783057D01*
X73837405Y-60081723D01*
X73803379Y-60019411D01*
X73800500Y-59992628D01*
X73800500Y-58881278D01*
X73820502Y-58813157D01*
X73849797Y-58781315D01*
X73873289Y-58763289D01*
X73968421Y-58639311D01*
X73968420Y-58639311D01*
X73968422Y-58639310D01*
X73997784Y-58568421D01*
X74028223Y-58494935D01*
X74048621Y-58340000D01*
X74047881Y-58334383D01*
X74030839Y-58204935D01*
X74028223Y-58185065D01*
X73968421Y-58040690D01*
X73873289Y-57916711D01*
X73873287Y-57916709D01*
X73873286Y-57916708D01*
X73749310Y-57821577D01*
X73604935Y-57761777D01*
X73450000Y-57741379D01*
X73295066Y-57761776D01*
X73150691Y-57821578D01*
X73150688Y-57821580D01*
X73026711Y-57916711D01*
X72931580Y-58040688D01*
X72931578Y-58040691D01*
X72871776Y-58185066D01*
X72851379Y-58339999D01*
X72851379Y-58340000D01*
X72871777Y-58494935D01*
X72931577Y-58639310D01*
X73026710Y-58763288D01*
X73050203Y-58781315D01*
X73092071Y-58838653D01*
X73099500Y-58881278D01*
X73099500Y-60140581D01*
X73096818Y-60166439D01*
X73094956Y-60175314D01*
X73098532Y-60203992D01*
X73099367Y-60217440D01*
X73099499Y-60219042D01*
X73102658Y-60237972D01*
X73103408Y-60243119D01*
X73109426Y-60291392D01*
X73111526Y-60298445D01*
X73113907Y-60305381D01*
X73137057Y-60348159D01*
X73139440Y-60352788D01*
X73160801Y-60396483D01*
X73165064Y-60402453D01*
X73169581Y-60408257D01*
X73169582Y-60408258D01*
X73205373Y-60441206D01*
X73209130Y-60444812D01*
X75177213Y-62412895D01*
X75193599Y-62433071D01*
X75198562Y-62440667D01*
X75198565Y-62440671D01*
X75221368Y-62458419D01*
X75231443Y-62467316D01*
X75232692Y-62468375D01*
X75241226Y-62474467D01*
X75248328Y-62479537D01*
X75252474Y-62482629D01*
X75290874Y-62512517D01*
X75290879Y-62512518D01*
X75297336Y-62516013D01*
X75303932Y-62519238D01*
X75303933Y-62519238D01*
X75303934Y-62519239D01*
X75350568Y-62533122D01*
X75355467Y-62534691D01*
X75401512Y-62550500D01*
X75401520Y-62550500D01*
X75408774Y-62551710D01*
X75416046Y-62552617D01*
X75464620Y-62550607D01*
X75469827Y-62550500D01*
X78710581Y-62550500D01*
X78736439Y-62553182D01*
X78737851Y-62553478D01*
X78745315Y-62555043D01*
X78773994Y-62551467D01*
X78787442Y-62550632D01*
X78789029Y-62550501D01*
X78789035Y-62550500D01*
X78789040Y-62550500D01*
X78808018Y-62547332D01*
X78813075Y-62546595D01*
X78861393Y-62540573D01*
X78861394Y-62540572D01*
X78868432Y-62538476D01*
X78875373Y-62536093D01*
X78875381Y-62536092D01*
X78918185Y-62512926D01*
X78922746Y-62510578D01*
X78966484Y-62489198D01*
X78966490Y-62489191D01*
X78972469Y-62484922D01*
X78978251Y-62480421D01*
X78978258Y-62480418D01*
X79011243Y-62444585D01*
X79014755Y-62440925D01*
X80688279Y-60767402D01*
X80750589Y-60733379D01*
X80777372Y-60730500D01*
X87622628Y-60730500D01*
X87690749Y-60750502D01*
X87711723Y-60767405D01*
X87816361Y-60872043D01*
X87850387Y-60934355D01*
X87845322Y-61005170D01*
X87802775Y-61062006D01*
X87736255Y-61086817D01*
X87732474Y-61087030D01*
X87678183Y-61089276D01*
X87675379Y-61089392D01*
X87670173Y-61089500D01*
X81659413Y-61089500D01*
X81633557Y-61086818D01*
X81629040Y-61085871D01*
X81624682Y-61084957D01*
X81598958Y-61088164D01*
X81596011Y-61088532D01*
X81582540Y-61089368D01*
X81580957Y-61089499D01*
X81562010Y-61092661D01*
X81556862Y-61093411D01*
X81508607Y-61099426D01*
X81501574Y-61101520D01*
X81494615Y-61103909D01*
X81451838Y-61127058D01*
X81447212Y-61129440D01*
X81403512Y-61150804D01*
X81397547Y-61155062D01*
X81391743Y-61159579D01*
X81358791Y-61195374D01*
X81355187Y-61199129D01*
X79711721Y-62842596D01*
X79649411Y-62876620D01*
X79622628Y-62879500D01*
X73909419Y-62879500D01*
X73883561Y-62876818D01*
X73874684Y-62874956D01*
X73848051Y-62878277D01*
X73846005Y-62878532D01*
X73832565Y-62879366D01*
X73830960Y-62879499D01*
X73813519Y-62882409D01*
X73812026Y-62882658D01*
X73806883Y-62883408D01*
X73758607Y-62889426D01*
X73751560Y-62891524D01*
X73744617Y-62893908D01*
X73701838Y-62917058D01*
X73697212Y-62919440D01*
X73653512Y-62940804D01*
X73647547Y-62945062D01*
X73641743Y-62949579D01*
X73608791Y-62985374D01*
X73605187Y-62989129D01*
X73079094Y-63515222D01*
X73016782Y-63549248D01*
X72945967Y-63544183D01*
X72900903Y-63515222D01*
X72684473Y-63298792D01*
X72437404Y-63051722D01*
X72403379Y-62989410D01*
X72400500Y-62962627D01*
X72400500Y-56409419D01*
X72403182Y-56383559D01*
X72405043Y-56374683D01*
X72401468Y-56346006D01*
X72400633Y-56332566D01*
X72400500Y-56330959D01*
X72397341Y-56312028D01*
X72396590Y-56306874D01*
X72390573Y-56258607D01*
X72388476Y-56251563D01*
X72386092Y-56244618D01*
X72362934Y-56201825D01*
X72360564Y-56197222D01*
X72339198Y-56153517D01*
X72339195Y-56153514D01*
X72339195Y-56153513D01*
X72334941Y-56147555D01*
X72330416Y-56141740D01*
X72294613Y-56108781D01*
X72290879Y-56105198D01*
X71351274Y-55165592D01*
X71317251Y-55103283D01*
X71322316Y-55032467D01*
X71364863Y-54975632D01*
X71431383Y-54950821D01*
X71440372Y-54950500D01*
X71832628Y-54950500D01*
X71900749Y-54970502D01*
X71921723Y-54987405D01*
X75834210Y-58899891D01*
X75850596Y-58920068D01*
X75855560Y-58927666D01*
X75855561Y-58927667D01*
X75855562Y-58927668D01*
X75855563Y-58927669D01*
X75878378Y-58945426D01*
X75888418Y-58954294D01*
X75889689Y-58955370D01*
X75889694Y-58955375D01*
X75899052Y-58962056D01*
X75905312Y-58966526D01*
X75909478Y-58969632D01*
X75947874Y-58999517D01*
X75947876Y-58999517D01*
X75954357Y-59003024D01*
X75960936Y-59006241D01*
X75990738Y-59015113D01*
X76007550Y-59020118D01*
X76012480Y-59021697D01*
X76058512Y-59037500D01*
X76058517Y-59037500D01*
X76065758Y-59038708D01*
X76073046Y-59039617D01*
X76121630Y-59037607D01*
X76126837Y-59037500D01*
X80411335Y-59037500D01*
X80479456Y-59057502D01*
X80525949Y-59111158D01*
X80536257Y-59147053D01*
X80551777Y-59264935D01*
X80611577Y-59409310D01*
X80706710Y-59533289D01*
X80830689Y-59628422D01*
X80921731Y-59666131D01*
X80975065Y-59688223D01*
X81130000Y-59708621D01*
X81284935Y-59688223D01*
X81375977Y-59650512D01*
X81429310Y-59628422D01*
X81553289Y-59533289D01*
X81648422Y-59409310D01*
X81670512Y-59355977D01*
X81708223Y-59264935D01*
X81728621Y-59110000D01*
X81708223Y-58955065D01*
X81648421Y-58810690D01*
X81553289Y-58686711D01*
X81553287Y-58686709D01*
X81553286Y-58686708D01*
X81429310Y-58591577D01*
X81284935Y-58531777D01*
X81130000Y-58511379D01*
X81129998Y-58511379D01*
X81100639Y-58515244D01*
X81030491Y-58504304D01*
X80995099Y-58479417D01*
X80989785Y-58474103D01*
X80973396Y-58453922D01*
X80968437Y-58446331D01*
X80968433Y-58446327D01*
X80945627Y-58428577D01*
X80935568Y-58419693D01*
X80934301Y-58418620D01*
X80918674Y-58407463D01*
X80914498Y-58404349D01*
X80876127Y-58374484D01*
X80876126Y-58374483D01*
X80876123Y-58374482D01*
X80869670Y-58370989D01*
X80863068Y-58367761D01*
X80863066Y-58367760D01*
X80837012Y-58360003D01*
X80816447Y-58353880D01*
X80811493Y-58352293D01*
X80765485Y-58336499D01*
X80758257Y-58335293D01*
X80750953Y-58334382D01*
X80703817Y-58336332D01*
X80702379Y-58336392D01*
X80697173Y-58336500D01*
X76314372Y-58336500D01*
X76246251Y-58316498D01*
X76225277Y-58299595D01*
X72312785Y-54387103D01*
X72296396Y-54366922D01*
X72291437Y-54359331D01*
X72291433Y-54359327D01*
X72268627Y-54341577D01*
X72258568Y-54332693D01*
X72257301Y-54331620D01*
X72241674Y-54320463D01*
X72237498Y-54317349D01*
X72199127Y-54287484D01*
X72199126Y-54287483D01*
X72199123Y-54287482D01*
X72192670Y-54283989D01*
X72186068Y-54280761D01*
X72186066Y-54280760D01*
X72160012Y-54273003D01*
X72139447Y-54266880D01*
X72134493Y-54265293D01*
X72088485Y-54249499D01*
X72081257Y-54248293D01*
X72073953Y-54247382D01*
X72026817Y-54249332D01*
X72025379Y-54249392D01*
X72020173Y-54249500D01*
X69949413Y-54249500D01*
X69923557Y-54246818D01*
X69919040Y-54245871D01*
X69914682Y-54244957D01*
X69888958Y-54248164D01*
X69886011Y-54248532D01*
X69872540Y-54249368D01*
X69870957Y-54249499D01*
X69852010Y-54252661D01*
X69846862Y-54253411D01*
X69798607Y-54259426D01*
X69791574Y-54261520D01*
X69784615Y-54263909D01*
X69741838Y-54287058D01*
X69737212Y-54289440D01*
X69693512Y-54310804D01*
X69687547Y-54315062D01*
X69681743Y-54319579D01*
X69648791Y-54355374D01*
X69645187Y-54359129D01*
X68997101Y-55007215D01*
X68976927Y-55023600D01*
X68969331Y-55028562D01*
X68962388Y-55037483D01*
X68951573Y-55051377D01*
X68942622Y-55061514D01*
X68941630Y-55062686D01*
X68930460Y-55078329D01*
X68927353Y-55082495D01*
X68897484Y-55120872D01*
X68893980Y-55127345D01*
X68890759Y-55133935D01*
X68876884Y-55180537D01*
X68875298Y-55185488D01*
X68859500Y-55231512D01*
X68858293Y-55238743D01*
X68857382Y-55246046D01*
X68859392Y-55294619D01*
X68859500Y-55299827D01*
X68859500Y-56828721D01*
X68839498Y-56896842D01*
X68810205Y-56928682D01*
X68786713Y-56946707D01*
X68691580Y-57070688D01*
X68691578Y-57070691D01*
X68631776Y-57215066D01*
X68611379Y-57369999D01*
X68611379Y-57370000D01*
X68631777Y-57524935D01*
X68691577Y-57669310D01*
X68786710Y-57793289D01*
X68910689Y-57888422D01*
X69001731Y-57926131D01*
X69055065Y-57948223D01*
X69210000Y-57968621D01*
X69364935Y-57948223D01*
X69455977Y-57910512D01*
X69509310Y-57888422D01*
X69633289Y-57793289D01*
X69728422Y-57669310D01*
X69750512Y-57615977D01*
X69788223Y-57524935D01*
X69808621Y-57370000D01*
X69788223Y-57215065D01*
X69728421Y-57070690D01*
X69633289Y-56946711D01*
X69633287Y-56946709D01*
X69609794Y-56928682D01*
X69567928Y-56871343D01*
X69560500Y-56828721D01*
X69560500Y-55487372D01*
X69580502Y-55419251D01*
X69597399Y-55398282D01*
X69708641Y-55287040D01*
X69770949Y-55253018D01*
X69841765Y-55258082D01*
X69898601Y-55300629D01*
X69922655Y-55359691D01*
X69941777Y-55504935D01*
X70001577Y-55649310D01*
X70094597Y-55770534D01*
X70096711Y-55773289D01*
X70160666Y-55822364D01*
X70202534Y-55879701D01*
X70206756Y-55950572D01*
X70171992Y-56012475D01*
X70160667Y-56022288D01*
X70076713Y-56086708D01*
X69981580Y-56210688D01*
X69981578Y-56210691D01*
X69921776Y-56355066D01*
X69901379Y-56509999D01*
X69901379Y-56510000D01*
X69921777Y-56664935D01*
X69981577Y-56809310D01*
X70076710Y-56933288D01*
X70100203Y-56951315D01*
X70142071Y-57008653D01*
X70149500Y-57051278D01*
X70149500Y-58910293D01*
X70149070Y-58920697D01*
X70145867Y-58959345D01*
X70146092Y-58962056D01*
X70149500Y-58989391D01*
X70149500Y-63650581D01*
X70146818Y-63676439D01*
X70144956Y-63685314D01*
X70148532Y-63713992D01*
X70149367Y-63727440D01*
X70149499Y-63729042D01*
X70152658Y-63747972D01*
X70153408Y-63753119D01*
X70159426Y-63801392D01*
X70161526Y-63808445D01*
X70163907Y-63815381D01*
X70187057Y-63858159D01*
X70189440Y-63862788D01*
X70210801Y-63906483D01*
X70215064Y-63912453D01*
X70219581Y-63918257D01*
X70255361Y-63951195D01*
X70259118Y-63954800D01*
X70637253Y-64332935D01*
X70982595Y-64678276D01*
X71016620Y-64740589D01*
X71019500Y-64767372D01*
X71019500Y-77762628D01*
X70999498Y-77830749D01*
X70982595Y-77851723D01*
X68141723Y-80692595D01*
X68079411Y-80726621D01*
X68052628Y-80729500D01*
X67868530Y-80729500D01*
X67800409Y-80709498D01*
X67753916Y-80655842D01*
X67743812Y-80585568D01*
X67773306Y-80520988D01*
X67784976Y-80509188D01*
X67814789Y-80482775D01*
X67814792Y-80482771D01*
X67973877Y-80287928D01*
X68099653Y-80070078D01*
X68188854Y-79834876D01*
X68225781Y-79654000D01*
X66711346Y-79654000D01*
X66735600Y-79602457D01*
X66766373Y-79441138D01*
X66756061Y-79277234D01*
X66713421Y-79146000D01*
X68226102Y-79146000D01*
X68226102Y-79145999D01*
X68218979Y-79087344D01*
X68218979Y-79087342D01*
X68148997Y-78845734D01*
X68041157Y-78618466D01*
X68041155Y-78618464D01*
X67898271Y-78411458D01*
X67898253Y-78411435D01*
X67724011Y-78230031D01*
X67724003Y-78230024D01*
X67522907Y-78078910D01*
X67300166Y-77962007D01*
X67061564Y-77882350D01*
X66813284Y-77842001D01*
X66813271Y-77842000D01*
X65891500Y-77842000D01*
X65891500Y-78750000D01*
X65383500Y-78750000D01*
X65383500Y-77842000D01*
X64524697Y-77842000D01*
X64336770Y-77857171D01*
X64092516Y-77917375D01*
X63861107Y-78015970D01*
X63648497Y-78150416D01*
X63460210Y-78317224D01*
X63460207Y-78317228D01*
X63301122Y-78512071D01*
X63175346Y-78729921D01*
X63086145Y-78965123D01*
X63049218Y-79146000D01*
X64563654Y-79146000D01*
X64539400Y-79197543D01*
X64508627Y-79358862D01*
X64518939Y-79522766D01*
X64561579Y-79654000D01*
X63048898Y-79654000D01*
X63056020Y-79712655D01*
X63056020Y-79712657D01*
X63126002Y-79954265D01*
X63233842Y-80181533D01*
X63233844Y-80181535D01*
X63376728Y-80388541D01*
X63376746Y-80388564D01*
X63499359Y-80516217D01*
X63532123Y-80579201D01*
X63525633Y-80649901D01*
X63481951Y-80705868D01*
X63414944Y-80729334D01*
X63408488Y-80729500D01*
X59047372Y-80729500D01*
X58979251Y-80709498D01*
X58958277Y-80692595D01*
X58212785Y-79947103D01*
X58196396Y-79926922D01*
X58191437Y-79919331D01*
X58191433Y-79919327D01*
X58168627Y-79901577D01*
X58158568Y-79892693D01*
X58157301Y-79891620D01*
X58141674Y-79880463D01*
X58137498Y-79877349D01*
X58115632Y-79860330D01*
X58099126Y-79847483D01*
X58099123Y-79847482D01*
X58092670Y-79843989D01*
X58086068Y-79840761D01*
X58086066Y-79840760D01*
X58060012Y-79833003D01*
X58039447Y-79826880D01*
X58034493Y-79825293D01*
X57988485Y-79809499D01*
X57981257Y-79808293D01*
X57973953Y-79807382D01*
X57926817Y-79809332D01*
X57925379Y-79809392D01*
X57920173Y-79809500D01*
X56758952Y-79809500D01*
X56690831Y-79789498D01*
X56658990Y-79760205D01*
X56633287Y-79726709D01*
X56509310Y-79631577D01*
X56364935Y-79571777D01*
X56210000Y-79551379D01*
X56055066Y-79571776D01*
X55910691Y-79631578D01*
X55910688Y-79631580D01*
X55786711Y-79726711D01*
X55691580Y-79850688D01*
X55691578Y-79850691D01*
X55631776Y-79995066D01*
X55611379Y-80149999D01*
X55611379Y-80150000D01*
X55631777Y-80304935D01*
X55691577Y-80449310D01*
X55786710Y-80573289D01*
X55910689Y-80668422D01*
X56001095Y-80705868D01*
X56055065Y-80728223D01*
X56210000Y-80748621D01*
X56364935Y-80728223D01*
X56455977Y-80690512D01*
X56509310Y-80668422D01*
X56613192Y-80588710D01*
X56633289Y-80573289D01*
X56643643Y-80559794D01*
X56700980Y-80517929D01*
X56743605Y-80510500D01*
X57732628Y-80510500D01*
X57800749Y-80530502D01*
X57821723Y-80547405D01*
X58567213Y-81292895D01*
X58583598Y-81313070D01*
X58588563Y-81320669D01*
X58611380Y-81338428D01*
X58621437Y-81347310D01*
X58622686Y-81348368D01*
X58622693Y-81348375D01*
X58622699Y-81348379D01*
X58622700Y-81348380D01*
X58638325Y-81359536D01*
X58642464Y-81362621D01*
X58680874Y-81392517D01*
X58680875Y-81392517D01*
X58680876Y-81392518D01*
X58687331Y-81396011D01*
X58693928Y-81399235D01*
X58693933Y-81399239D01*
X58740552Y-81413118D01*
X58745501Y-81414704D01*
X58791509Y-81430499D01*
X58791512Y-81430500D01*
X58791515Y-81430500D01*
X58798754Y-81431708D01*
X58806046Y-81432617D01*
X58854620Y-81430607D01*
X58859827Y-81430500D01*
X68200581Y-81430500D01*
X68226439Y-81433182D01*
X68227851Y-81433478D01*
X68235315Y-81435043D01*
X68263994Y-81431467D01*
X68277442Y-81430632D01*
X68279029Y-81430501D01*
X68279035Y-81430500D01*
X68279040Y-81430500D01*
X68298018Y-81427332D01*
X68303075Y-81426595D01*
X68351393Y-81420573D01*
X68351394Y-81420572D01*
X68358432Y-81418476D01*
X68365373Y-81416093D01*
X68365381Y-81416092D01*
X68408185Y-81392926D01*
X68412746Y-81390578D01*
X68456484Y-81369198D01*
X68456490Y-81369191D01*
X68462469Y-81364922D01*
X68468251Y-81360421D01*
X68468258Y-81360418D01*
X68501242Y-81324586D01*
X68504779Y-81320901D01*
X71582899Y-78242781D01*
X71603068Y-78226402D01*
X71610669Y-78221437D01*
X71628417Y-78198632D01*
X71637295Y-78188582D01*
X71638369Y-78187314D01*
X71638371Y-78187310D01*
X71638375Y-78187307D01*
X71649556Y-78171645D01*
X71652594Y-78167569D01*
X71682517Y-78129126D01*
X71682519Y-78129118D01*
X71686000Y-78122686D01*
X71689232Y-78116074D01*
X71689239Y-78116066D01*
X71703126Y-78069415D01*
X71704686Y-78064545D01*
X71720500Y-78018488D01*
X71720500Y-78018477D01*
X71721706Y-78011249D01*
X71722615Y-78003957D01*
X71722617Y-78003954D01*
X71720608Y-77955380D01*
X71720500Y-77950172D01*
X71720500Y-64619419D01*
X71723182Y-64593559D01*
X71725043Y-64584683D01*
X71721468Y-64556006D01*
X71720633Y-64542566D01*
X71720500Y-64540959D01*
X71717341Y-64522028D01*
X71716590Y-64516874D01*
X71710574Y-64468612D01*
X71708467Y-64461537D01*
X71706093Y-64454620D01*
X71682947Y-64411852D01*
X71680571Y-64407238D01*
X71659198Y-64363516D01*
X71659194Y-64363512D01*
X71654927Y-64357535D01*
X71650420Y-64351744D01*
X71614625Y-64318792D01*
X71610868Y-64315186D01*
X70887405Y-63591723D01*
X70853379Y-63529411D01*
X70850500Y-63502628D01*
X70850500Y-59309187D01*
X70870502Y-59241066D01*
X70891346Y-59218253D01*
X70891183Y-59218103D01*
X70898256Y-59210418D01*
X70898258Y-59210418D01*
X70931242Y-59174586D01*
X70934779Y-59170901D01*
X71005100Y-59100580D01*
X71067410Y-59066556D01*
X71110637Y-59064755D01*
X71140000Y-59068621D01*
X71294935Y-59048223D01*
X71412525Y-58999516D01*
X71439307Y-58988423D01*
X71439307Y-58988422D01*
X71439311Y-58988421D01*
X71496797Y-58944310D01*
X71563016Y-58918710D01*
X71632564Y-58932974D01*
X71683361Y-58982575D01*
X71699500Y-59044273D01*
X71699500Y-63110581D01*
X71696818Y-63136439D01*
X71694956Y-63145314D01*
X71698532Y-63173992D01*
X71699367Y-63187440D01*
X71699499Y-63189042D01*
X71702658Y-63207972D01*
X71703408Y-63213119D01*
X71709426Y-63261392D01*
X71711526Y-63268445D01*
X71713907Y-63275381D01*
X71737057Y-63318159D01*
X71739440Y-63322788D01*
X71760801Y-63366483D01*
X71765064Y-63372453D01*
X71769581Y-63378257D01*
X71805361Y-63411195D01*
X71809118Y-63414800D01*
X72213000Y-63818682D01*
X72602595Y-64208276D01*
X72636620Y-64270589D01*
X72639500Y-64297372D01*
X72639500Y-78932628D01*
X72619498Y-79000749D01*
X72602595Y-79021723D01*
X69741723Y-81882595D01*
X69679411Y-81916621D01*
X69652628Y-81919500D01*
X55861278Y-81919500D01*
X55793157Y-81899498D01*
X55761315Y-81870203D01*
X55754985Y-81861954D01*
X55743289Y-81846711D01*
X55743288Y-81846710D01*
X55619310Y-81751577D01*
X55474935Y-81691777D01*
X55320000Y-81671379D01*
X55165066Y-81691776D01*
X55020691Y-81751578D01*
X55020688Y-81751580D01*
X54896711Y-81846711D01*
X54801580Y-81970688D01*
X54801578Y-81970691D01*
X54741776Y-82115066D01*
X54721379Y-82269999D01*
X54721379Y-82270000D01*
X49617358Y-82270000D01*
X49591830Y-82246728D01*
X49591829Y-82246727D01*
X49418438Y-82139368D01*
X49418431Y-82139364D01*
X49418427Y-82139362D01*
X49301923Y-82094228D01*
X49228247Y-82065686D01*
X49161419Y-82053194D01*
X49027766Y-82028210D01*
X48823814Y-82028210D01*
X48723574Y-82046948D01*
X48623332Y-82065686D01*
X48475980Y-82122770D01*
X48433153Y-82139362D01*
X48433152Y-82139362D01*
X48433151Y-82139363D01*
X48433141Y-82139368D01*
X48259750Y-82246727D01*
X48259749Y-82246728D01*
X48109024Y-82384131D01*
X47986119Y-82546885D01*
X47895206Y-82729464D01*
X47839393Y-82925625D01*
X47820575Y-83128710D01*
X47491005Y-83128710D01*
X47472187Y-82925627D01*
X47416372Y-82729460D01*
X47325463Y-82546889D01*
X47314905Y-82532908D01*
X47202555Y-82384131D01*
X47051830Y-82246728D01*
X47051829Y-82246727D01*
X46878438Y-82139368D01*
X46878431Y-82139364D01*
X46878427Y-82139362D01*
X46761923Y-82094228D01*
X46688247Y-82065686D01*
X46621419Y-82053194D01*
X46487766Y-82028210D01*
X46283814Y-82028210D01*
X46183574Y-82046948D01*
X46083332Y-82065686D01*
X45935980Y-82122770D01*
X45893153Y-82139362D01*
X45893152Y-82139362D01*
X45893151Y-82139363D01*
X45893141Y-82139368D01*
X45719750Y-82246727D01*
X45719749Y-82246728D01*
X45569024Y-82384131D01*
X45446119Y-82546885D01*
X45355206Y-82729464D01*
X45299393Y-82925625D01*
X45280575Y-83128710D01*
X43525500Y-83128710D01*
X43525500Y-80588710D01*
X45280575Y-80588710D01*
X45299393Y-80791794D01*
X45355206Y-80987955D01*
X45355207Y-80987957D01*
X45355208Y-80987960D01*
X45446117Y-81170531D01*
X45446118Y-81170532D01*
X45446119Y-81170534D01*
X45569024Y-81333288D01*
X45719749Y-81470691D01*
X45719750Y-81470692D01*
X45893141Y-81578051D01*
X45893144Y-81578052D01*
X45893153Y-81578058D01*
X46083334Y-81651734D01*
X46283814Y-81689210D01*
X46283816Y-81689210D01*
X46487764Y-81689210D01*
X46487766Y-81689210D01*
X46688246Y-81651734D01*
X46878427Y-81578058D01*
X47051831Y-81470691D01*
X47202554Y-81333289D01*
X47325463Y-81170531D01*
X47416372Y-80987960D01*
X47472187Y-80791793D01*
X47491005Y-80588710D01*
X47820575Y-80588710D01*
X47839393Y-80791794D01*
X47895206Y-80987955D01*
X47895207Y-80987957D01*
X47895208Y-80987960D01*
X47986117Y-81170531D01*
X47986118Y-81170532D01*
X47986119Y-81170534D01*
X48109024Y-81333288D01*
X48259749Y-81470691D01*
X48259750Y-81470692D01*
X48433141Y-81578051D01*
X48433144Y-81578052D01*
X48433153Y-81578058D01*
X48623334Y-81651734D01*
X48823814Y-81689210D01*
X48823816Y-81689210D01*
X49027764Y-81689210D01*
X49027766Y-81689210D01*
X49228246Y-81651734D01*
X49418427Y-81578058D01*
X49591831Y-81470691D01*
X49742554Y-81333289D01*
X49865463Y-81170531D01*
X49956372Y-80987960D01*
X50012187Y-80791793D01*
X50031005Y-80588710D01*
X50012187Y-80385627D01*
X49956372Y-80189460D01*
X49865463Y-80006889D01*
X49840722Y-79974126D01*
X49742555Y-79844131D01*
X49591830Y-79706728D01*
X49591829Y-79706727D01*
X49418438Y-79599368D01*
X49418431Y-79599364D01*
X49418427Y-79599362D01*
X49265843Y-79540251D01*
X49228247Y-79525686D01*
X49161419Y-79513194D01*
X49027766Y-79488210D01*
X48823814Y-79488210D01*
X48723574Y-79506948D01*
X48623332Y-79525686D01*
X48480363Y-79581073D01*
X48433153Y-79599362D01*
X48433152Y-79599362D01*
X48433151Y-79599363D01*
X48433141Y-79599368D01*
X48259750Y-79706727D01*
X48259749Y-79706728D01*
X48109024Y-79844131D01*
X47986119Y-80006885D01*
X47895206Y-80189464D01*
X47839393Y-80385625D01*
X47820575Y-80588710D01*
X47491005Y-80588710D01*
X47472187Y-80385627D01*
X47416372Y-80189460D01*
X47325463Y-80006889D01*
X47300722Y-79974126D01*
X47202555Y-79844131D01*
X47051830Y-79706728D01*
X47051829Y-79706727D01*
X46878438Y-79599368D01*
X46878431Y-79599364D01*
X46878427Y-79599362D01*
X46725843Y-79540251D01*
X46688247Y-79525686D01*
X46621419Y-79513194D01*
X46487766Y-79488210D01*
X46283814Y-79488210D01*
X46183574Y-79506948D01*
X46083332Y-79525686D01*
X45940363Y-79581073D01*
X45893153Y-79599362D01*
X45893152Y-79599362D01*
X45893151Y-79599363D01*
X45893141Y-79599368D01*
X45719750Y-79706727D01*
X45719749Y-79706728D01*
X45569024Y-79844131D01*
X45446119Y-80006885D01*
X45355206Y-80189464D01*
X45299393Y-80385625D01*
X45280575Y-80588710D01*
X43525500Y-80588710D01*
X43525500Y-78048710D01*
X45280575Y-78048710D01*
X45299393Y-78251794D01*
X45355206Y-78447955D01*
X45355207Y-78447957D01*
X45355208Y-78447960D01*
X45446117Y-78630531D01*
X45446118Y-78630532D01*
X45446119Y-78630534D01*
X45569024Y-78793288D01*
X45719749Y-78930691D01*
X45719750Y-78930692D01*
X45893141Y-79038051D01*
X45893144Y-79038052D01*
X45893153Y-79038058D01*
X46083334Y-79111734D01*
X46283814Y-79149210D01*
X46283816Y-79149210D01*
X46487764Y-79149210D01*
X46487766Y-79149210D01*
X46688246Y-79111734D01*
X46878427Y-79038058D01*
X47051831Y-78930691D01*
X47202554Y-78793289D01*
X47325463Y-78630531D01*
X47416372Y-78447960D01*
X47472187Y-78251793D01*
X47491005Y-78048710D01*
X47820575Y-78048710D01*
X47839393Y-78251794D01*
X47895206Y-78447955D01*
X47895207Y-78447957D01*
X47895208Y-78447960D01*
X47986117Y-78630531D01*
X47986118Y-78630532D01*
X47986119Y-78630534D01*
X48109024Y-78793288D01*
X48259749Y-78930691D01*
X48259750Y-78930692D01*
X48433141Y-79038051D01*
X48433144Y-79038052D01*
X48433153Y-79038058D01*
X48623334Y-79111734D01*
X48823814Y-79149210D01*
X48823816Y-79149210D01*
X49027764Y-79149210D01*
X49027766Y-79149210D01*
X49228246Y-79111734D01*
X49418427Y-79038058D01*
X49591831Y-78930691D01*
X49742554Y-78793289D01*
X49865463Y-78630531D01*
X49956372Y-78447960D01*
X50012187Y-78251793D01*
X50031005Y-78048710D01*
X50012187Y-77845627D01*
X49956372Y-77649460D01*
X49865463Y-77466889D01*
X49865460Y-77466885D01*
X49742555Y-77304131D01*
X49591830Y-77166728D01*
X49591829Y-77166727D01*
X49418438Y-77059368D01*
X49418431Y-77059364D01*
X49418427Y-77059362D01*
X49301923Y-77014228D01*
X49228247Y-76985686D01*
X49144739Y-76970076D01*
X49027766Y-76948210D01*
X48823814Y-76948210D01*
X48723574Y-76966948D01*
X48623332Y-76985686D01*
X48475980Y-77042770D01*
X48433153Y-77059362D01*
X48433152Y-77059362D01*
X48433151Y-77059363D01*
X48433141Y-77059368D01*
X48259750Y-77166727D01*
X48259749Y-77166728D01*
X48109024Y-77304131D01*
X47986119Y-77466885D01*
X47895206Y-77649464D01*
X47839393Y-77845625D01*
X47820575Y-78048710D01*
X47491005Y-78048710D01*
X47472187Y-77845627D01*
X47416372Y-77649460D01*
X47325463Y-77466889D01*
X47325460Y-77466885D01*
X47202555Y-77304131D01*
X47051830Y-77166728D01*
X47051829Y-77166727D01*
X46878438Y-77059368D01*
X46878431Y-77059364D01*
X46878427Y-77059362D01*
X46761923Y-77014228D01*
X46688247Y-76985686D01*
X46604739Y-76970076D01*
X46487766Y-76948210D01*
X46283814Y-76948210D01*
X46183574Y-76966948D01*
X46083332Y-76985686D01*
X45935980Y-77042770D01*
X45893153Y-77059362D01*
X45893152Y-77059362D01*
X45893151Y-77059363D01*
X45893141Y-77059368D01*
X45719750Y-77166727D01*
X45719749Y-77166728D01*
X45569024Y-77304131D01*
X45446119Y-77466885D01*
X45355206Y-77649464D01*
X45299393Y-77845625D01*
X45280575Y-78048710D01*
X43525500Y-78048710D01*
X43525500Y-76653194D01*
X60737000Y-76653194D01*
X60740518Y-76691156D01*
X60751744Y-76812311D01*
X60810093Y-77017384D01*
X60810094Y-77017386D01*
X60810095Y-77017389D01*
X60905134Y-77208255D01*
X60977537Y-77304131D01*
X61033629Y-77378408D01*
X61191199Y-77522053D01*
X61191201Y-77522054D01*
X61372474Y-77634294D01*
X61372475Y-77634294D01*
X61372481Y-77634298D01*
X61571302Y-77711321D01*
X61780890Y-77750500D01*
X61780893Y-77750500D01*
X61994107Y-77750500D01*
X61994110Y-77750500D01*
X62203698Y-77711321D01*
X62402519Y-77634298D01*
X62583802Y-77522052D01*
X62741372Y-77378407D01*
X62869866Y-77208255D01*
X62964905Y-77017389D01*
X63023256Y-76812310D01*
X63038000Y-76653194D01*
X68237000Y-76653194D01*
X68240518Y-76691156D01*
X68251744Y-76812311D01*
X68310093Y-77017384D01*
X68310094Y-77017386D01*
X68310095Y-77017389D01*
X68405134Y-77208255D01*
X68477537Y-77304131D01*
X68533629Y-77378408D01*
X68691199Y-77522053D01*
X68691201Y-77522054D01*
X68872474Y-77634294D01*
X68872475Y-77634294D01*
X68872481Y-77634298D01*
X69071302Y-77711321D01*
X69280890Y-77750500D01*
X69280893Y-77750500D01*
X69494107Y-77750500D01*
X69494110Y-77750500D01*
X69703698Y-77711321D01*
X69902519Y-77634298D01*
X70083802Y-77522052D01*
X70241372Y-77378407D01*
X70369866Y-77208255D01*
X70464905Y-77017389D01*
X70523256Y-76812310D01*
X70538000Y-76653194D01*
X70538000Y-74746806D01*
X70523256Y-74587690D01*
X70464905Y-74382611D01*
X70369866Y-74191745D01*
X70241372Y-74021593D01*
X70083802Y-73877948D01*
X70083800Y-73877946D01*
X70083798Y-73877945D01*
X69902525Y-73765705D01*
X69902521Y-73765703D01*
X69902519Y-73765702D01*
X69746525Y-73705270D01*
X69703699Y-73688679D01*
X69646571Y-73678000D01*
X69494110Y-73649500D01*
X69280890Y-73649500D01*
X69155137Y-73673007D01*
X69071300Y-73688679D01*
X68950300Y-73735555D01*
X68872481Y-73765702D01*
X68872480Y-73765702D01*
X68872479Y-73765703D01*
X68872474Y-73765705D01*
X68691201Y-73877945D01*
X68691199Y-73877946D01*
X68533629Y-74021591D01*
X68497669Y-74069210D01*
X68405134Y-74191745D01*
X68351228Y-74300004D01*
X68310093Y-74382615D01*
X68251744Y-74587688D01*
X68251744Y-74587690D01*
X68237000Y-74746806D01*
X68237000Y-76653194D01*
X63038000Y-76653194D01*
X63038000Y-74746806D01*
X63023256Y-74587690D01*
X62964905Y-74382611D01*
X62869866Y-74191745D01*
X62741372Y-74021593D01*
X62583802Y-73877948D01*
X62583800Y-73877946D01*
X62583798Y-73877945D01*
X62402525Y-73765705D01*
X62402521Y-73765703D01*
X62402519Y-73765702D01*
X62246525Y-73705270D01*
X62203699Y-73688679D01*
X62146571Y-73678000D01*
X61994110Y-73649500D01*
X61780890Y-73649500D01*
X61655137Y-73673007D01*
X61571300Y-73688679D01*
X61450300Y-73735555D01*
X61372481Y-73765702D01*
X61372480Y-73765702D01*
X61372479Y-73765703D01*
X61372474Y-73765705D01*
X61191201Y-73877945D01*
X61191199Y-73877946D01*
X61033629Y-74021591D01*
X60997669Y-74069210D01*
X60905134Y-74191745D01*
X60851228Y-74300004D01*
X60810093Y-74382615D01*
X60751744Y-74587688D01*
X60751744Y-74587690D01*
X60737000Y-74746806D01*
X60737000Y-76653194D01*
X43525500Y-76653194D01*
X43525500Y-75508710D01*
X45280575Y-75508710D01*
X45299393Y-75711794D01*
X45355206Y-75907955D01*
X45355207Y-75907957D01*
X45355208Y-75907960D01*
X45446117Y-76090531D01*
X45446118Y-76090532D01*
X45446119Y-76090534D01*
X45569024Y-76253288D01*
X45719749Y-76390691D01*
X45719750Y-76390692D01*
X45893141Y-76498051D01*
X45893144Y-76498052D01*
X45893153Y-76498058D01*
X46083334Y-76571734D01*
X46283814Y-76609210D01*
X46283816Y-76609210D01*
X46487764Y-76609210D01*
X46487766Y-76609210D01*
X46688246Y-76571734D01*
X46878427Y-76498058D01*
X47051831Y-76390691D01*
X47202554Y-76253289D01*
X47325463Y-76090531D01*
X47416372Y-75907960D01*
X47472187Y-75711793D01*
X47491005Y-75508710D01*
X47820575Y-75508710D01*
X47839393Y-75711794D01*
X47895206Y-75907955D01*
X47895207Y-75907957D01*
X47895208Y-75907960D01*
X47986117Y-76090531D01*
X47986118Y-76090532D01*
X47986119Y-76090534D01*
X48109024Y-76253288D01*
X48259749Y-76390691D01*
X48259750Y-76390692D01*
X48433141Y-76498051D01*
X48433144Y-76498052D01*
X48433153Y-76498058D01*
X48623334Y-76571734D01*
X48823814Y-76609210D01*
X48823816Y-76609210D01*
X49027764Y-76609210D01*
X49027766Y-76609210D01*
X49228246Y-76571734D01*
X49418427Y-76498058D01*
X49591831Y-76390691D01*
X49742554Y-76253289D01*
X49865463Y-76090531D01*
X49956372Y-75907960D01*
X50012187Y-75711793D01*
X50031005Y-75508710D01*
X50012187Y-75305627D01*
X49956372Y-75109460D01*
X49865463Y-74926889D01*
X49837605Y-74889999D01*
X49742555Y-74764131D01*
X49591830Y-74626728D01*
X49591829Y-74626727D01*
X49418438Y-74519368D01*
X49418431Y-74519364D01*
X49418427Y-74519362D01*
X49287059Y-74468470D01*
X49228247Y-74445686D01*
X49161419Y-74433194D01*
X49027766Y-74408210D01*
X48823814Y-74408210D01*
X48723574Y-74426948D01*
X48623332Y-74445686D01*
X48475980Y-74502770D01*
X48433153Y-74519362D01*
X48433152Y-74519362D01*
X48433151Y-74519363D01*
X48433141Y-74519368D01*
X48259750Y-74626727D01*
X48259749Y-74626728D01*
X48109024Y-74764131D01*
X47986119Y-74926885D01*
X47895206Y-75109464D01*
X47839393Y-75305625D01*
X47820575Y-75508710D01*
X47491005Y-75508710D01*
X47472187Y-75305627D01*
X47416372Y-75109460D01*
X47325463Y-74926889D01*
X47297605Y-74889999D01*
X47202555Y-74764131D01*
X47051830Y-74626728D01*
X47051829Y-74626727D01*
X46878438Y-74519368D01*
X46878431Y-74519364D01*
X46878427Y-74519362D01*
X46747059Y-74468470D01*
X46688247Y-74445686D01*
X46621419Y-74433194D01*
X46487766Y-74408210D01*
X46283814Y-74408210D01*
X46183574Y-74426948D01*
X46083332Y-74445686D01*
X45935980Y-74502770D01*
X45893153Y-74519362D01*
X45893152Y-74519362D01*
X45893151Y-74519363D01*
X45893141Y-74519368D01*
X45719750Y-74626727D01*
X45719749Y-74626728D01*
X45569024Y-74764131D01*
X45446119Y-74926885D01*
X45355206Y-75109464D01*
X45299393Y-75305625D01*
X45280575Y-75508710D01*
X43525500Y-75508710D01*
X43525500Y-72968710D01*
X45280575Y-72968710D01*
X45299393Y-73171794D01*
X45355206Y-73367955D01*
X45355207Y-73367957D01*
X45355208Y-73367960D01*
X45446117Y-73550531D01*
X45446118Y-73550532D01*
X45446119Y-73550534D01*
X45569024Y-73713288D01*
X45719749Y-73850691D01*
X45719750Y-73850692D01*
X45893141Y-73958051D01*
X45893144Y-73958052D01*
X45893153Y-73958058D01*
X46083334Y-74031734D01*
X46283814Y-74069210D01*
X46283816Y-74069210D01*
X46487764Y-74069210D01*
X46487766Y-74069210D01*
X46688246Y-74031734D01*
X46878427Y-73958058D01*
X47051831Y-73850691D01*
X47202554Y-73713289D01*
X47325463Y-73550531D01*
X47416372Y-73367960D01*
X47472187Y-73171793D01*
X47491005Y-72968710D01*
X47820575Y-72968710D01*
X47839393Y-73171794D01*
X47895206Y-73367955D01*
X47895207Y-73367957D01*
X47895208Y-73367960D01*
X47986117Y-73550531D01*
X47986118Y-73550532D01*
X47986119Y-73550534D01*
X48109024Y-73713288D01*
X48259749Y-73850691D01*
X48259750Y-73850692D01*
X48433141Y-73958051D01*
X48433144Y-73958052D01*
X48433153Y-73958058D01*
X48623334Y-74031734D01*
X48823814Y-74069210D01*
X48823816Y-74069210D01*
X49027764Y-74069210D01*
X49027766Y-74069210D01*
X49228246Y-74031734D01*
X49418427Y-73958058D01*
X49591831Y-73850691D01*
X49742554Y-73713289D01*
X49865463Y-73550531D01*
X49956372Y-73367960D01*
X50012187Y-73171793D01*
X50031005Y-72968710D01*
X50012187Y-72765627D01*
X49956372Y-72569460D01*
X49865463Y-72386889D01*
X49865460Y-72386885D01*
X49742555Y-72224131D01*
X49591830Y-72086728D01*
X49591829Y-72086727D01*
X49418438Y-71979368D01*
X49418431Y-71979364D01*
X49418427Y-71979362D01*
X49289227Y-71929310D01*
X49228247Y-71905686D01*
X49161419Y-71893194D01*
X49027766Y-71868210D01*
X48823814Y-71868210D01*
X48745427Y-71882863D01*
X48623332Y-71905686D01*
X48475980Y-71962770D01*
X48433153Y-71979362D01*
X48433152Y-71979362D01*
X48433151Y-71979363D01*
X48433141Y-71979368D01*
X48259750Y-72086727D01*
X48259749Y-72086728D01*
X48109024Y-72224131D01*
X47986119Y-72386885D01*
X47895206Y-72569464D01*
X47839393Y-72765625D01*
X47820575Y-72968710D01*
X47491005Y-72968710D01*
X47472187Y-72765627D01*
X47416372Y-72569460D01*
X47325463Y-72386889D01*
X47325460Y-72386885D01*
X47202555Y-72224131D01*
X47051830Y-72086728D01*
X47051829Y-72086727D01*
X46878438Y-71979368D01*
X46878431Y-71979364D01*
X46878427Y-71979362D01*
X46749227Y-71929310D01*
X46688247Y-71905686D01*
X46621419Y-71893194D01*
X46487766Y-71868210D01*
X46283814Y-71868210D01*
X46205427Y-71882863D01*
X46083332Y-71905686D01*
X45935980Y-71962770D01*
X45893153Y-71979362D01*
X45893152Y-71979362D01*
X45893151Y-71979363D01*
X45893141Y-71979368D01*
X45719750Y-72086727D01*
X45719749Y-72086728D01*
X45569024Y-72224131D01*
X45446119Y-72386885D01*
X45355206Y-72569464D01*
X45299393Y-72765625D01*
X45280575Y-72968710D01*
X43525500Y-72968710D01*
X43525500Y-71630000D01*
X50281379Y-71630000D01*
X50301777Y-71784935D01*
X50361577Y-71929310D01*
X50456710Y-72053289D01*
X50580689Y-72148422D01*
X50671731Y-72186131D01*
X50725065Y-72208223D01*
X50880000Y-72228621D01*
X51034935Y-72208223D01*
X51134457Y-72167000D01*
X51179310Y-72148422D01*
X51303289Y-72053289D01*
X51398422Y-71929310D01*
X51428314Y-71857143D01*
X51458223Y-71784935D01*
X51478621Y-71630000D01*
X51472275Y-71581802D01*
X51461651Y-71501105D01*
X51458223Y-71475065D01*
X51398421Y-71330690D01*
X51322180Y-71231330D01*
X51311537Y-71217459D01*
X51285937Y-71151239D01*
X51285500Y-71140756D01*
X51285500Y-70782095D01*
X51305502Y-70713974D01*
X51327923Y-70689604D01*
X51327449Y-70689130D01*
X51333288Y-70683290D01*
X51375343Y-70628484D01*
X51428421Y-70559311D01*
X51428420Y-70559311D01*
X51428422Y-70559310D01*
X51450512Y-70505977D01*
X51488223Y-70414935D01*
X51508621Y-70260000D01*
X51507304Y-70250000D01*
X51490255Y-70120500D01*
X51488223Y-70105065D01*
X51428421Y-69960690D01*
X51333289Y-69836711D01*
X51333287Y-69836709D01*
X51333286Y-69836708D01*
X51209310Y-69741577D01*
X51064935Y-69681777D01*
X50910000Y-69661379D01*
X50755066Y-69681776D01*
X50610691Y-69741578D01*
X50610688Y-69741580D01*
X50486711Y-69836711D01*
X50391580Y-69960688D01*
X50391578Y-69960691D01*
X50331776Y-70105066D01*
X50311379Y-70259999D01*
X50311379Y-70260000D01*
X50331777Y-70414935D01*
X50391577Y-70559310D01*
X50486711Y-70683290D01*
X50492551Y-70689130D01*
X50491256Y-70690424D01*
X50527069Y-70739465D01*
X50534500Y-70782095D01*
X50534500Y-71084885D01*
X50514498Y-71153006D01*
X50485204Y-71184847D01*
X50456713Y-71206708D01*
X50361580Y-71330688D01*
X50361578Y-71330691D01*
X50301776Y-71475066D01*
X50281379Y-71629999D01*
X50281379Y-71630000D01*
X43525500Y-71630000D01*
X43525500Y-70428710D01*
X47820575Y-70428710D01*
X47839393Y-70631794D01*
X47895206Y-70827955D01*
X47895207Y-70827957D01*
X47895208Y-70827960D01*
X47986117Y-71010531D01*
X47986118Y-71010532D01*
X47986119Y-71010534D01*
X48109024Y-71173288D01*
X48259749Y-71310691D01*
X48259750Y-71310692D01*
X48433141Y-71418051D01*
X48433144Y-71418052D01*
X48433153Y-71418058D01*
X48623334Y-71491734D01*
X48823814Y-71529210D01*
X48823816Y-71529210D01*
X49027764Y-71529210D01*
X49027766Y-71529210D01*
X49228246Y-71491734D01*
X49418427Y-71418058D01*
X49591831Y-71310691D01*
X49742554Y-71173289D01*
X49865463Y-71010531D01*
X49956372Y-70827960D01*
X50012187Y-70631793D01*
X50031005Y-70428710D01*
X50012187Y-70225627D01*
X49956372Y-70029460D01*
X49865463Y-69846889D01*
X49843225Y-69817441D01*
X49742555Y-69684131D01*
X49591830Y-69546728D01*
X49591829Y-69546727D01*
X49418438Y-69439368D01*
X49418431Y-69439364D01*
X49418427Y-69439362D01*
X49301923Y-69394228D01*
X49228247Y-69365686D01*
X49161419Y-69353194D01*
X49027766Y-69328210D01*
X48823814Y-69328210D01*
X48723574Y-69346948D01*
X48623332Y-69365686D01*
X48475980Y-69422770D01*
X48433153Y-69439362D01*
X48433152Y-69439362D01*
X48433151Y-69439363D01*
X48433141Y-69439368D01*
X48259750Y-69546727D01*
X48259749Y-69546728D01*
X48109024Y-69684131D01*
X47986119Y-69846885D01*
X47895206Y-70029464D01*
X47839393Y-70225625D01*
X47820575Y-70428710D01*
X43525500Y-70428710D01*
X43525500Y-67888710D01*
X45280575Y-67888710D01*
X45299393Y-68091794D01*
X45355206Y-68287955D01*
X45355207Y-68287957D01*
X45355208Y-68287960D01*
X45446117Y-68470531D01*
X45446118Y-68470532D01*
X45446119Y-68470534D01*
X45569024Y-68633288D01*
X45719749Y-68770691D01*
X45719750Y-68770692D01*
X45893141Y-68878051D01*
X45893144Y-68878052D01*
X45893153Y-68878058D01*
X46083334Y-68951734D01*
X46283814Y-68989210D01*
X46283816Y-68989210D01*
X46487764Y-68989210D01*
X46487766Y-68989210D01*
X46688246Y-68951734D01*
X46878427Y-68878058D01*
X47051831Y-68770691D01*
X47202554Y-68633289D01*
X47325463Y-68470531D01*
X47416372Y-68287960D01*
X47472187Y-68091793D01*
X47491005Y-67888710D01*
X47820575Y-67888710D01*
X47839393Y-68091794D01*
X47895206Y-68287955D01*
X47895207Y-68287957D01*
X47895208Y-68287960D01*
X47986117Y-68470531D01*
X47986118Y-68470532D01*
X47986119Y-68470534D01*
X48109024Y-68633288D01*
X48259749Y-68770691D01*
X48259750Y-68770692D01*
X48433141Y-68878051D01*
X48433144Y-68878052D01*
X48433153Y-68878058D01*
X48623334Y-68951734D01*
X48823814Y-68989210D01*
X48823816Y-68989210D01*
X49027764Y-68989210D01*
X49027766Y-68989210D01*
X49228246Y-68951734D01*
X49418427Y-68878058D01*
X49591831Y-68770691D01*
X49742554Y-68633289D01*
X49865463Y-68470531D01*
X49956372Y-68287960D01*
X50012187Y-68091793D01*
X50031005Y-67888710D01*
X50012187Y-67685627D01*
X49956372Y-67489460D01*
X49865463Y-67306889D01*
X49792818Y-67210691D01*
X49742555Y-67144131D01*
X49591830Y-67006728D01*
X49591829Y-67006727D01*
X49418438Y-66899368D01*
X49418431Y-66899364D01*
X49418427Y-66899362D01*
X49301923Y-66854228D01*
X49228247Y-66825686D01*
X49148939Y-66810861D01*
X49027766Y-66788210D01*
X48823814Y-66788210D01*
X48753109Y-66801427D01*
X48623332Y-66825686D01*
X48475980Y-66882770D01*
X48433153Y-66899362D01*
X48433152Y-66899362D01*
X48433151Y-66899363D01*
X48433141Y-66899368D01*
X48259750Y-67006727D01*
X48259749Y-67006728D01*
X48109024Y-67144131D01*
X47986119Y-67306885D01*
X47895206Y-67489464D01*
X47839393Y-67685625D01*
X47820575Y-67888710D01*
X47491005Y-67888710D01*
X47472187Y-67685627D01*
X47416372Y-67489460D01*
X47325463Y-67306889D01*
X47252818Y-67210691D01*
X47202555Y-67144131D01*
X47051830Y-67006728D01*
X47051829Y-67006727D01*
X46878438Y-66899368D01*
X46878431Y-66899364D01*
X46878427Y-66899362D01*
X46761923Y-66854228D01*
X46688247Y-66825686D01*
X46608939Y-66810861D01*
X46487766Y-66788210D01*
X46283814Y-66788210D01*
X46213109Y-66801427D01*
X46083332Y-66825686D01*
X45935980Y-66882770D01*
X45893153Y-66899362D01*
X45893152Y-66899362D01*
X45893151Y-66899363D01*
X45893141Y-66899368D01*
X45719750Y-67006727D01*
X45719749Y-67006728D01*
X45569024Y-67144131D01*
X45446119Y-67306885D01*
X45355206Y-67489464D01*
X45299393Y-67685625D01*
X45280575Y-67888710D01*
X43525500Y-67888710D01*
X43525500Y-65348710D01*
X45280575Y-65348710D01*
X45299393Y-65551794D01*
X45355206Y-65747955D01*
X45355207Y-65747957D01*
X45355208Y-65747960D01*
X45446117Y-65930531D01*
X45446118Y-65930532D01*
X45446119Y-65930534D01*
X45569024Y-66093288D01*
X45719749Y-66230691D01*
X45719750Y-66230692D01*
X45893141Y-66338051D01*
X45893144Y-66338052D01*
X45893153Y-66338058D01*
X46083334Y-66411734D01*
X46283814Y-66449210D01*
X46283816Y-66449210D01*
X46487764Y-66449210D01*
X46487766Y-66449210D01*
X46688246Y-66411734D01*
X46878427Y-66338058D01*
X47051831Y-66230691D01*
X47202554Y-66093289D01*
X47325463Y-65930531D01*
X47416372Y-65747960D01*
X47472187Y-65551793D01*
X47491005Y-65348710D01*
X47820575Y-65348710D01*
X47839393Y-65551794D01*
X47895206Y-65747955D01*
X47895207Y-65747957D01*
X47895208Y-65747960D01*
X47986117Y-65930531D01*
X47986118Y-65930532D01*
X47986119Y-65930534D01*
X48109024Y-66093288D01*
X48259749Y-66230691D01*
X48259750Y-66230692D01*
X48433141Y-66338051D01*
X48433144Y-66338052D01*
X48433153Y-66338058D01*
X48623334Y-66411734D01*
X48823814Y-66449210D01*
X48823816Y-66449210D01*
X49027764Y-66449210D01*
X49027766Y-66449210D01*
X49228246Y-66411734D01*
X49418427Y-66338058D01*
X49591831Y-66230691D01*
X49742554Y-66093289D01*
X49865463Y-65930531D01*
X49956372Y-65747960D01*
X50012187Y-65551793D01*
X50031005Y-65348710D01*
X50012187Y-65145627D01*
X49956372Y-64949460D01*
X49865463Y-64766889D01*
X49857777Y-64756711D01*
X49742555Y-64604131D01*
X49591830Y-64466728D01*
X49591829Y-64466727D01*
X49418438Y-64359368D01*
X49418431Y-64359364D01*
X49418427Y-64359362D01*
X49301923Y-64314228D01*
X49228247Y-64285686D01*
X49147484Y-64270589D01*
X49027766Y-64248210D01*
X48823814Y-64248210D01*
X48760743Y-64260000D01*
X48623332Y-64285686D01*
X48501369Y-64332935D01*
X48433153Y-64359362D01*
X48433152Y-64359362D01*
X48433151Y-64359363D01*
X48433141Y-64359368D01*
X48259750Y-64466727D01*
X48259749Y-64466728D01*
X48109024Y-64604131D01*
X47986119Y-64766885D01*
X47986117Y-64766888D01*
X47986117Y-64766889D01*
X47981271Y-64776621D01*
X47895206Y-64949464D01*
X47839393Y-65145625D01*
X47820575Y-65348710D01*
X47491005Y-65348710D01*
X47472187Y-65145627D01*
X47416372Y-64949460D01*
X47325463Y-64766889D01*
X47317777Y-64756711D01*
X47202555Y-64604131D01*
X47051830Y-64466728D01*
X47051829Y-64466727D01*
X46878438Y-64359368D01*
X46878431Y-64359364D01*
X46878427Y-64359362D01*
X46761923Y-64314228D01*
X46688247Y-64285686D01*
X46607484Y-64270589D01*
X46487766Y-64248210D01*
X46283814Y-64248210D01*
X46220743Y-64260000D01*
X46083332Y-64285686D01*
X45961369Y-64332935D01*
X45893153Y-64359362D01*
X45893152Y-64359362D01*
X45893151Y-64359363D01*
X45893141Y-64359368D01*
X45719750Y-64466727D01*
X45719749Y-64466728D01*
X45569024Y-64604131D01*
X45446119Y-64766885D01*
X45446117Y-64766888D01*
X45446117Y-64766889D01*
X45441271Y-64776621D01*
X45355206Y-64949464D01*
X45299393Y-65145625D01*
X45280575Y-65348710D01*
X43525500Y-65348710D01*
X43525500Y-62808710D01*
X45280575Y-62808710D01*
X45299393Y-63011794D01*
X45355206Y-63207955D01*
X45355207Y-63207957D01*
X45355208Y-63207960D01*
X45446117Y-63390531D01*
X45446118Y-63390532D01*
X45446119Y-63390534D01*
X45569024Y-63553288D01*
X45719749Y-63690691D01*
X45719750Y-63690692D01*
X45893141Y-63798051D01*
X45893144Y-63798052D01*
X45893153Y-63798058D01*
X46083334Y-63871734D01*
X46283814Y-63909210D01*
X46283816Y-63909210D01*
X46487764Y-63909210D01*
X46487766Y-63909210D01*
X46688246Y-63871734D01*
X46878427Y-63798058D01*
X47051831Y-63690691D01*
X47202554Y-63553289D01*
X47226969Y-63520959D01*
X47243204Y-63499459D01*
X47325463Y-63390531D01*
X47416372Y-63207960D01*
X47472187Y-63011793D01*
X47491005Y-62808710D01*
X47820575Y-62808710D01*
X47839393Y-63011794D01*
X47895206Y-63207955D01*
X47895207Y-63207957D01*
X47895208Y-63207960D01*
X47986117Y-63390531D01*
X47986118Y-63390532D01*
X47986119Y-63390534D01*
X48109024Y-63553288D01*
X48259749Y-63690691D01*
X48259750Y-63690692D01*
X48433141Y-63798051D01*
X48433144Y-63798052D01*
X48433153Y-63798058D01*
X48623334Y-63871734D01*
X48823814Y-63909210D01*
X48823816Y-63909210D01*
X49027764Y-63909210D01*
X49027766Y-63909210D01*
X49228246Y-63871734D01*
X49418427Y-63798058D01*
X49591831Y-63690691D01*
X49742554Y-63553289D01*
X49766969Y-63520959D01*
X49783204Y-63499459D01*
X49865463Y-63390531D01*
X49956372Y-63207960D01*
X50012187Y-63011793D01*
X50031005Y-62808710D01*
X50012187Y-62605627D01*
X49956372Y-62409460D01*
X49865463Y-62226889D01*
X49865329Y-62226711D01*
X49742555Y-62064131D01*
X49591830Y-61926728D01*
X49591829Y-61926727D01*
X49418438Y-61819368D01*
X49418431Y-61819364D01*
X49418427Y-61819362D01*
X49273685Y-61763289D01*
X49228247Y-61745686D01*
X49148024Y-61730690D01*
X49027766Y-61708210D01*
X48823814Y-61708210D01*
X48764429Y-61719311D01*
X48623332Y-61745686D01*
X48475980Y-61802770D01*
X48433153Y-61819362D01*
X48433152Y-61819362D01*
X48433151Y-61819363D01*
X48433141Y-61819368D01*
X48259750Y-61926727D01*
X48259749Y-61926728D01*
X48109024Y-62064131D01*
X47986119Y-62226885D01*
X47895206Y-62409464D01*
X47839393Y-62605625D01*
X47820575Y-62808710D01*
X47491005Y-62808710D01*
X47472187Y-62605627D01*
X47416372Y-62409460D01*
X47325463Y-62226889D01*
X47325329Y-62226711D01*
X47202555Y-62064131D01*
X47051830Y-61926728D01*
X47051829Y-61926727D01*
X46878438Y-61819368D01*
X46878431Y-61819364D01*
X46878427Y-61819362D01*
X46733685Y-61763289D01*
X46688247Y-61745686D01*
X46608024Y-61730690D01*
X46487766Y-61708210D01*
X46283814Y-61708210D01*
X46224429Y-61719311D01*
X46083332Y-61745686D01*
X45935980Y-61802770D01*
X45893153Y-61819362D01*
X45893152Y-61819362D01*
X45893151Y-61819363D01*
X45893141Y-61819368D01*
X45719750Y-61926727D01*
X45719749Y-61926728D01*
X45569024Y-62064131D01*
X45446119Y-62226885D01*
X45355206Y-62409464D01*
X45299393Y-62605625D01*
X45280575Y-62808710D01*
X43525500Y-62808710D01*
X43525500Y-60268710D01*
X45280575Y-60268710D01*
X45299393Y-60471794D01*
X45355206Y-60667955D01*
X45355207Y-60667957D01*
X45355208Y-60667960D01*
X45446117Y-60850531D01*
X45446118Y-60850532D01*
X45446119Y-60850534D01*
X45569024Y-61013288D01*
X45719749Y-61150691D01*
X45719750Y-61150692D01*
X45893141Y-61258051D01*
X45893144Y-61258052D01*
X45893153Y-61258058D01*
X46083334Y-61331734D01*
X46283814Y-61369210D01*
X46283816Y-61369210D01*
X46487764Y-61369210D01*
X46487766Y-61369210D01*
X46688246Y-61331734D01*
X46878427Y-61258058D01*
X47051831Y-61150691D01*
X47202554Y-61013289D01*
X47325463Y-60850531D01*
X47416372Y-60667960D01*
X47472187Y-60471793D01*
X47491005Y-60268710D01*
X47820575Y-60268710D01*
X47839393Y-60471794D01*
X47895206Y-60667955D01*
X47895207Y-60667957D01*
X47895208Y-60667960D01*
X47986117Y-60850531D01*
X47986118Y-60850532D01*
X47986119Y-60850534D01*
X48109024Y-61013288D01*
X48259749Y-61150691D01*
X48259750Y-61150692D01*
X48433141Y-61258051D01*
X48433144Y-61258052D01*
X48433153Y-61258058D01*
X48623334Y-61331734D01*
X48823814Y-61369210D01*
X48823816Y-61369210D01*
X49027764Y-61369210D01*
X49027766Y-61369210D01*
X49228246Y-61331734D01*
X49418427Y-61258058D01*
X49591831Y-61150691D01*
X49742554Y-61013289D01*
X49865463Y-60850531D01*
X49956372Y-60667960D01*
X50012187Y-60471793D01*
X50031005Y-60268710D01*
X50012187Y-60065627D01*
X49956372Y-59869460D01*
X49865463Y-59686889D01*
X49853148Y-59670581D01*
X49742555Y-59524131D01*
X49591830Y-59386728D01*
X49591829Y-59386727D01*
X49418438Y-59279368D01*
X49418431Y-59279364D01*
X49418427Y-59279362D01*
X49263125Y-59219198D01*
X49228247Y-59205686D01*
X49161419Y-59193194D01*
X49027766Y-59168210D01*
X48823814Y-59168210D01*
X48723574Y-59186948D01*
X48623332Y-59205686D01*
X48475980Y-59262770D01*
X48433153Y-59279362D01*
X48433152Y-59279362D01*
X48433151Y-59279363D01*
X48433141Y-59279368D01*
X48259750Y-59386727D01*
X48259749Y-59386728D01*
X48109024Y-59524131D01*
X47986119Y-59686885D01*
X47986117Y-59686888D01*
X47986117Y-59686889D01*
X47976942Y-59705315D01*
X47895206Y-59869464D01*
X47839393Y-60065625D01*
X47820575Y-60268710D01*
X47491005Y-60268710D01*
X47472187Y-60065627D01*
X47416372Y-59869460D01*
X47325463Y-59686889D01*
X47313148Y-59670581D01*
X47202555Y-59524131D01*
X47051830Y-59386728D01*
X47051829Y-59386727D01*
X46878438Y-59279368D01*
X46878431Y-59279364D01*
X46878427Y-59279362D01*
X46723125Y-59219198D01*
X46688247Y-59205686D01*
X46621419Y-59193194D01*
X46487766Y-59168210D01*
X46283814Y-59168210D01*
X46183574Y-59186948D01*
X46083332Y-59205686D01*
X45935980Y-59262770D01*
X45893153Y-59279362D01*
X45893152Y-59279362D01*
X45893151Y-59279363D01*
X45893141Y-59279368D01*
X45719750Y-59386727D01*
X45719749Y-59386728D01*
X45569024Y-59524131D01*
X45446119Y-59686885D01*
X45446117Y-59686888D01*
X45446117Y-59686889D01*
X45436942Y-59705315D01*
X45355206Y-59869464D01*
X45299393Y-60065625D01*
X45280575Y-60268710D01*
X43525500Y-60268710D01*
X43525500Y-57728710D01*
X45280575Y-57728710D01*
X45299393Y-57931794D01*
X45355206Y-58127955D01*
X45355207Y-58127957D01*
X45355208Y-58127960D01*
X45446117Y-58310531D01*
X45446118Y-58310532D01*
X45446119Y-58310534D01*
X45569024Y-58473288D01*
X45719749Y-58610691D01*
X45719750Y-58610692D01*
X45893141Y-58718051D01*
X45893144Y-58718052D01*
X45893153Y-58718058D01*
X46083334Y-58791734D01*
X46283814Y-58829210D01*
X46283816Y-58829210D01*
X46487764Y-58829210D01*
X46487766Y-58829210D01*
X46688246Y-58791734D01*
X46878427Y-58718058D01*
X47051831Y-58610691D01*
X47202554Y-58473289D01*
X47325463Y-58310531D01*
X47416372Y-58127960D01*
X47472187Y-57931793D01*
X47491005Y-57728710D01*
X47472187Y-57525627D01*
X47416372Y-57329460D01*
X47325463Y-57146889D01*
X47267921Y-57070691D01*
X47202555Y-56984131D01*
X47051830Y-56846728D01*
X47051829Y-56846727D01*
X46878438Y-56739368D01*
X46878431Y-56739364D01*
X46878427Y-56739362D01*
X46761923Y-56694228D01*
X46688247Y-56665686D01*
X46621419Y-56653194D01*
X46487766Y-56628210D01*
X46283814Y-56628210D01*
X46183574Y-56646948D01*
X46083332Y-56665686D01*
X45935980Y-56722770D01*
X45893153Y-56739362D01*
X45893152Y-56739362D01*
X45893151Y-56739363D01*
X45893141Y-56739368D01*
X45719750Y-56846727D01*
X45719749Y-56846728D01*
X45569024Y-56984131D01*
X45446119Y-57146885D01*
X45355206Y-57329464D01*
X45299393Y-57525625D01*
X45280575Y-57728710D01*
X43525500Y-57728710D01*
X43525500Y-55188710D01*
X45280575Y-55188710D01*
X45299393Y-55391794D01*
X45355206Y-55587955D01*
X45355207Y-55587957D01*
X45355208Y-55587960D01*
X45446117Y-55770531D01*
X45446118Y-55770532D01*
X45446119Y-55770534D01*
X45569024Y-55933288D01*
X45719749Y-56070691D01*
X45719750Y-56070692D01*
X45893141Y-56178051D01*
X45893144Y-56178052D01*
X45893153Y-56178058D01*
X46083334Y-56251734D01*
X46283814Y-56289210D01*
X46283816Y-56289210D01*
X46487764Y-56289210D01*
X46487766Y-56289210D01*
X46688246Y-56251734D01*
X46878427Y-56178058D01*
X47051831Y-56070691D01*
X47202554Y-55933289D01*
X47206033Y-55928683D01*
X47257440Y-55860608D01*
X47325463Y-55770531D01*
X47416372Y-55587960D01*
X47472187Y-55391793D01*
X47491005Y-55188710D01*
X47472187Y-54985627D01*
X47416372Y-54789460D01*
X47411689Y-54780056D01*
X47399229Y-54710164D01*
X47426534Y-54644628D01*
X47435373Y-54634807D01*
X47772778Y-54297404D01*
X47835090Y-54263379D01*
X47861873Y-54260500D01*
X47994655Y-54260500D01*
X48062776Y-54280502D01*
X48109269Y-54334158D01*
X48119373Y-54404432D01*
X48095205Y-54462432D01*
X47986119Y-54606885D01*
X47895206Y-54789464D01*
X47839393Y-54985625D01*
X47820575Y-55188710D01*
X47839393Y-55391794D01*
X47895206Y-55587955D01*
X47895207Y-55587957D01*
X47895208Y-55587960D01*
X47986117Y-55770531D01*
X47986118Y-55770532D01*
X47986119Y-55770534D01*
X48109024Y-55933288D01*
X48259749Y-56070691D01*
X48259750Y-56070692D01*
X48433141Y-56178051D01*
X48433144Y-56178052D01*
X48433153Y-56178058D01*
X48623334Y-56251734D01*
X48823814Y-56289210D01*
X48823816Y-56289210D01*
X49027764Y-56289210D01*
X49027766Y-56289210D01*
X49228246Y-56251734D01*
X49418427Y-56178058D01*
X49591831Y-56070691D01*
X49742554Y-55933289D01*
X49746033Y-55928683D01*
X49797440Y-55860608D01*
X49865463Y-55770531D01*
X49945231Y-55610333D01*
X49993498Y-55558273D01*
X50062252Y-55540570D01*
X50083881Y-55543181D01*
X50086605Y-55543753D01*
X50115284Y-55540177D01*
X50128732Y-55539342D01*
X50130319Y-55539211D01*
X50130325Y-55539210D01*
X50130330Y-55539210D01*
X50149308Y-55536042D01*
X50154365Y-55535305D01*
X50202683Y-55529283D01*
X50202684Y-55529282D01*
X50209722Y-55527186D01*
X50216663Y-55524803D01*
X50216671Y-55524802D01*
X50259475Y-55501636D01*
X50264036Y-55499288D01*
X50307774Y-55477908D01*
X50307780Y-55477901D01*
X50313759Y-55473632D01*
X50319541Y-55469131D01*
X50319548Y-55469128D01*
X50352532Y-55433296D01*
X50356069Y-55429611D01*
X53788277Y-51997405D01*
X53850589Y-51963379D01*
X53877372Y-51960500D01*
X54039627Y-51960500D01*
X54107748Y-51980502D01*
X54154241Y-52034158D01*
X54164345Y-52104432D01*
X54134851Y-52169012D01*
X54128722Y-52175595D01*
X49579494Y-56724822D01*
X49517182Y-56758848D01*
X49446367Y-56753783D01*
X49424077Y-56742860D01*
X49420312Y-56740529D01*
X49418427Y-56739362D01*
X49323336Y-56702524D01*
X49228247Y-56665686D01*
X49161419Y-56653194D01*
X49027766Y-56628210D01*
X48823814Y-56628210D01*
X48723574Y-56646948D01*
X48623332Y-56665686D01*
X48475980Y-56722770D01*
X48433153Y-56739362D01*
X48433152Y-56739362D01*
X48433151Y-56739363D01*
X48433141Y-56739368D01*
X48259750Y-56846727D01*
X48259749Y-56846728D01*
X48109024Y-56984131D01*
X47986119Y-57146885D01*
X47895206Y-57329464D01*
X47839393Y-57525625D01*
X47820575Y-57728710D01*
X47839393Y-57931794D01*
X47895206Y-58127955D01*
X47895207Y-58127957D01*
X47895208Y-58127960D01*
X47986117Y-58310531D01*
X47986118Y-58310532D01*
X47986119Y-58310534D01*
X48109024Y-58473288D01*
X48259749Y-58610691D01*
X48259750Y-58610692D01*
X48433141Y-58718051D01*
X48433144Y-58718052D01*
X48433153Y-58718058D01*
X48623334Y-58791734D01*
X48823814Y-58829210D01*
X48823816Y-58829210D01*
X49027764Y-58829210D01*
X49027766Y-58829210D01*
X49228246Y-58791734D01*
X49418427Y-58718058D01*
X49591831Y-58610691D01*
X49742554Y-58473289D01*
X49865463Y-58310531D01*
X49956372Y-58127960D01*
X50012187Y-57931793D01*
X50031005Y-57728710D01*
X50012187Y-57525627D01*
X49978816Y-57408343D01*
X49979412Y-57337353D01*
X50010909Y-57284771D01*
X54296778Y-52998903D01*
X54359088Y-52964879D01*
X54429904Y-52969944D01*
X54486739Y-53012491D01*
X54511550Y-53079011D01*
X54511172Y-53091741D01*
X54511379Y-53091741D01*
X54511379Y-53100000D01*
X54531777Y-53254935D01*
X54591577Y-53399310D01*
X54686710Y-53523288D01*
X54686711Y-53523289D01*
X54696359Y-53530692D01*
X54710203Y-53541315D01*
X54752071Y-53598653D01*
X54759500Y-53641278D01*
X54759500Y-59670581D01*
X54756818Y-59696439D01*
X54754956Y-59705314D01*
X54758532Y-59733992D01*
X54759367Y-59747440D01*
X54759499Y-59749042D01*
X54762658Y-59767972D01*
X54763408Y-59773119D01*
X54769426Y-59821392D01*
X54771526Y-59828445D01*
X54773907Y-59835381D01*
X54797057Y-59878159D01*
X54799440Y-59882788D01*
X54820801Y-59926483D01*
X54825059Y-59932447D01*
X54829581Y-59938257D01*
X54865375Y-59971208D01*
X54869131Y-59974813D01*
X54909417Y-60015099D01*
X54943443Y-60077411D01*
X54945244Y-60120639D01*
X54941379Y-60149998D01*
X54941379Y-60150000D01*
X54961777Y-60304935D01*
X55021577Y-60449310D01*
X55116710Y-60573289D01*
X55240689Y-60668422D01*
X55331731Y-60706131D01*
X55385065Y-60728223D01*
X55540000Y-60748621D01*
X55694935Y-60728223D01*
X55785977Y-60690512D01*
X55839310Y-60668422D01*
X55963289Y-60573289D01*
X56058422Y-60449310D01*
X56083196Y-60389498D01*
X56118223Y-60304935D01*
X56138621Y-60150000D01*
X56134755Y-60120639D01*
X56123172Y-60032658D01*
X56118223Y-59995065D01*
X56074704Y-59890000D01*
X67681379Y-59890000D01*
X67701777Y-60044935D01*
X67761577Y-60189310D01*
X67856710Y-60313289D01*
X67980689Y-60408422D01*
X68064067Y-60442957D01*
X68125065Y-60468223D01*
X68280000Y-60488621D01*
X68434935Y-60468223D01*
X68538578Y-60425293D01*
X68579310Y-60408422D01*
X68703289Y-60313289D01*
X68798422Y-60189310D01*
X68826477Y-60121577D01*
X68858223Y-60044935D01*
X68878621Y-59890000D01*
X68858223Y-59735065D01*
X68798421Y-59590690D01*
X68703289Y-59466711D01*
X68703287Y-59466709D01*
X68703286Y-59466708D01*
X68579310Y-59371577D01*
X68434935Y-59311777D01*
X68280000Y-59291379D01*
X68125066Y-59311776D01*
X67980691Y-59371578D01*
X67980688Y-59371580D01*
X67856711Y-59466711D01*
X67761580Y-59590688D01*
X67761578Y-59590691D01*
X67701776Y-59735066D01*
X67681379Y-59889999D01*
X67681379Y-59890000D01*
X56074704Y-59890000D01*
X56058421Y-59850690D01*
X55963289Y-59726711D01*
X55963287Y-59726709D01*
X55963286Y-59726708D01*
X55839310Y-59631577D01*
X55694935Y-59571777D01*
X55570053Y-59555335D01*
X55505126Y-59526612D01*
X55466035Y-59467346D01*
X55460500Y-59430413D01*
X55460500Y-59010000D01*
X62021379Y-59010000D01*
X62041777Y-59164935D01*
X62101577Y-59309310D01*
X62196710Y-59433289D01*
X62320689Y-59528422D01*
X62401382Y-59561845D01*
X62465065Y-59588223D01*
X62620000Y-59608621D01*
X62774935Y-59588223D01*
X62865977Y-59550512D01*
X62919310Y-59528422D01*
X63043289Y-59433289D01*
X63138422Y-59309310D01*
X63168460Y-59236789D01*
X63198223Y-59164935D01*
X63218621Y-59010000D01*
X63213096Y-58968038D01*
X63198223Y-58855066D01*
X63187514Y-58829210D01*
X63138421Y-58710690D01*
X63043289Y-58586711D01*
X63043287Y-58586709D01*
X63043286Y-58586708D01*
X62919310Y-58491577D01*
X62774935Y-58431777D01*
X62620000Y-58411379D01*
X62465066Y-58431776D01*
X62320691Y-58491578D01*
X62320688Y-58491580D01*
X62196711Y-58586711D01*
X62101580Y-58710688D01*
X62101578Y-58710691D01*
X62041776Y-58855066D01*
X62021379Y-59009999D01*
X62021379Y-59010000D01*
X55460500Y-59010000D01*
X55460500Y-56570000D01*
X61331379Y-56570000D01*
X61351777Y-56724935D01*
X61411577Y-56869310D01*
X61506710Y-56993289D01*
X61630689Y-57088422D01*
X61721731Y-57126131D01*
X61775065Y-57148223D01*
X61930000Y-57168621D01*
X62084935Y-57148223D01*
X62175977Y-57110512D01*
X62229310Y-57088422D01*
X62353289Y-56993289D01*
X62448422Y-56869310D01*
X62479038Y-56795394D01*
X62508223Y-56724935D01*
X62528621Y-56570000D01*
X62526958Y-56557372D01*
X62508223Y-56415066D01*
X62495173Y-56383559D01*
X62448421Y-56270690D01*
X62353289Y-56146711D01*
X62353287Y-56146709D01*
X62353286Y-56146708D01*
X62229310Y-56051577D01*
X62084935Y-55991777D01*
X61930000Y-55971379D01*
X61775066Y-55991776D01*
X61630691Y-56051578D01*
X61630688Y-56051580D01*
X61506711Y-56146711D01*
X61411580Y-56270688D01*
X61411578Y-56270691D01*
X61351776Y-56415066D01*
X61331379Y-56569999D01*
X61331379Y-56570000D01*
X55460500Y-56570000D01*
X55460500Y-53641278D01*
X55480502Y-53573157D01*
X55509797Y-53541315D01*
X55513308Y-53538621D01*
X55533289Y-53523289D01*
X55628421Y-53399311D01*
X55628420Y-53399311D01*
X55628422Y-53399310D01*
X55661926Y-53318421D01*
X55688223Y-53254935D01*
X55708621Y-53100000D01*
X55688223Y-52945065D01*
X55634230Y-52814716D01*
X55626642Y-52744128D01*
X55658421Y-52680641D01*
X55719479Y-52644414D01*
X55750640Y-52640500D01*
X67367134Y-52640500D01*
X67435255Y-52660502D01*
X67481748Y-52714158D01*
X67492056Y-52782947D01*
X67471379Y-52940000D01*
X67491777Y-53094935D01*
X67551577Y-53239310D01*
X67646710Y-53363289D01*
X67770689Y-53458422D01*
X67855187Y-53493421D01*
X67915065Y-53518223D01*
X68070000Y-53538621D01*
X68224935Y-53518223D01*
X68315977Y-53480512D01*
X68369310Y-53458422D01*
X68493289Y-53363289D01*
X68588422Y-53239310D01*
X68610512Y-53185977D01*
X68648223Y-53094935D01*
X68668621Y-52940000D01*
X68648223Y-52785065D01*
X68648222Y-52785064D01*
X68647944Y-52782947D01*
X68658883Y-52712798D01*
X68706011Y-52659699D01*
X68772866Y-52640500D01*
X68948054Y-52640500D01*
X69016175Y-52660502D01*
X69062668Y-52714158D01*
X69072772Y-52784432D01*
X69048016Y-52843204D01*
X69011583Y-52890683D01*
X69011578Y-52890691D01*
X68951776Y-53035066D01*
X68931379Y-53189999D01*
X68931379Y-53190000D01*
X68951777Y-53344935D01*
X69011577Y-53489310D01*
X69106710Y-53613289D01*
X69230689Y-53708422D01*
X69321731Y-53746131D01*
X69375065Y-53768223D01*
X69530000Y-53788621D01*
X69684935Y-53768223D01*
X69775977Y-53730512D01*
X69829310Y-53708422D01*
X69882933Y-53667275D01*
X69953289Y-53613289D01*
X69971315Y-53589796D01*
X70028653Y-53547929D01*
X70071278Y-53540500D01*
X71942628Y-53540500D01*
X72010749Y-53560502D01*
X72031723Y-53577405D01*
X74177213Y-55722895D01*
X74193598Y-55743070D01*
X74198563Y-55750669D01*
X74221380Y-55768428D01*
X74231437Y-55777310D01*
X74232686Y-55778368D01*
X74232693Y-55778375D01*
X74232699Y-55778379D01*
X74232700Y-55778380D01*
X74248325Y-55789536D01*
X74252464Y-55792621D01*
X74290874Y-55822517D01*
X74290875Y-55822517D01*
X74290876Y-55822518D01*
X74297331Y-55826011D01*
X74303928Y-55829235D01*
X74303933Y-55829239D01*
X74350552Y-55843118D01*
X74355501Y-55844704D01*
X74401512Y-55860500D01*
X74401515Y-55860500D01*
X74408754Y-55861708D01*
X74416046Y-55862617D01*
X74464620Y-55860607D01*
X74469827Y-55860500D01*
X80057465Y-55860500D01*
X80125586Y-55880502D01*
X80172079Y-55934158D01*
X80173874Y-55938283D01*
X80211577Y-56029310D01*
X80306710Y-56153289D01*
X80430689Y-56248422D01*
X80521731Y-56286131D01*
X80575065Y-56308223D01*
X80730000Y-56328621D01*
X80884935Y-56308223D01*
X81004720Y-56258607D01*
X81029310Y-56248422D01*
X81153289Y-56153289D01*
X81248422Y-56029310D01*
X81281035Y-55950572D01*
X81308223Y-55884935D01*
X81328621Y-55730000D01*
X81308223Y-55575065D01*
X81248421Y-55430690D01*
X81153289Y-55306711D01*
X81153287Y-55306709D01*
X81153286Y-55306708D01*
X81029310Y-55211577D01*
X80884935Y-55151777D01*
X80730000Y-55131379D01*
X80575065Y-55151777D01*
X80575064Y-55151777D01*
X80575058Y-55151778D01*
X80567637Y-55153766D01*
X80540247Y-55157949D01*
X80510440Y-55159182D01*
X80505376Y-55159392D01*
X80500173Y-55159500D01*
X74657372Y-55159500D01*
X74589251Y-55139498D01*
X74568277Y-55122595D01*
X72422785Y-52977103D01*
X72406396Y-52956922D01*
X72401437Y-52949331D01*
X72401433Y-52949327D01*
X72378627Y-52931577D01*
X72368568Y-52922693D01*
X72367301Y-52921620D01*
X72351674Y-52910463D01*
X72347498Y-52907349D01*
X72309126Y-52877483D01*
X72308808Y-52877311D01*
X72308455Y-52876961D01*
X72300889Y-52871072D01*
X72301600Y-52870157D01*
X72258420Y-52827296D01*
X72243070Y-52757979D01*
X72267634Y-52691367D01*
X72324311Y-52648609D01*
X72368782Y-52640500D01*
X73038702Y-52640500D01*
X73106823Y-52660502D01*
X73153316Y-52714158D01*
X73163624Y-52782945D01*
X73161379Y-52799998D01*
X73161379Y-52800000D01*
X73181777Y-52954935D01*
X73241577Y-53099310D01*
X73336710Y-53223289D01*
X73460689Y-53318422D01*
X73551731Y-53356131D01*
X73605065Y-53378223D01*
X73760000Y-53398621D01*
X73914935Y-53378223D01*
X74005977Y-53340512D01*
X74059310Y-53318422D01*
X74183289Y-53223289D01*
X74278422Y-53099310D01*
X74307086Y-53030106D01*
X74338223Y-52954935D01*
X74358621Y-52800000D01*
X74338223Y-52645065D01*
X74278421Y-52500690D01*
X74192119Y-52388219D01*
X74166519Y-52322000D01*
X74180784Y-52252451D01*
X74192120Y-52234812D01*
X74237559Y-52175595D01*
X74288421Y-52109311D01*
X74348223Y-51964935D01*
X74368621Y-51810000D01*
X74348223Y-51655065D01*
X74288421Y-51510690D01*
X74222465Y-51424734D01*
X74196866Y-51358515D01*
X74211131Y-51288967D01*
X74222467Y-51271328D01*
X74298889Y-51171733D01*
X74308421Y-51159311D01*
X74368223Y-51014935D01*
X74388621Y-50860000D01*
X74387737Y-50853289D01*
X74368223Y-50705066D01*
X74362203Y-50690531D01*
X74308421Y-50560690D01*
X74213289Y-50436711D01*
X74213287Y-50436709D01*
X74213286Y-50436708D01*
X74089310Y-50341577D01*
X73944935Y-50281777D01*
X73790000Y-50261379D01*
X73635066Y-50281776D01*
X73490691Y-50341578D01*
X73490688Y-50341580D01*
X73366711Y-50436711D01*
X73325665Y-50490204D01*
X73268327Y-50532071D01*
X73225702Y-50539500D01*
X66850741Y-50539500D01*
X66782620Y-50519498D01*
X66736127Y-50465842D01*
X66726023Y-50395568D01*
X66755517Y-50330988D01*
X66792976Y-50303974D01*
X66792156Y-50302553D01*
X66799309Y-50298422D01*
X66799309Y-50298421D01*
X66799311Y-50298421D01*
X66923289Y-50203289D01*
X67018421Y-50079311D01*
X67018420Y-50079311D01*
X67018422Y-50079310D01*
X67051926Y-49998421D01*
X67078223Y-49934935D01*
X67098621Y-49780000D01*
X67078223Y-49625065D01*
X67018421Y-49480690D01*
X66923289Y-49356711D01*
X66923287Y-49356709D01*
X66923286Y-49356708D01*
X66799310Y-49261577D01*
X66654935Y-49201777D01*
X66500000Y-49181379D01*
X66345066Y-49201776D01*
X66200691Y-49261578D01*
X66200688Y-49261580D01*
X66076711Y-49356711D01*
X65981580Y-49480688D01*
X65981578Y-49480691D01*
X65921776Y-49625066D01*
X65901379Y-49779999D01*
X65901379Y-49780000D01*
X65921777Y-49934935D01*
X65981577Y-50079310D01*
X66076710Y-50203289D01*
X66200690Y-50298422D01*
X66207844Y-50302553D01*
X66206704Y-50304526D01*
X66252758Y-50341639D01*
X66275179Y-50409003D01*
X66257621Y-50477794D01*
X66205659Y-50526172D01*
X66149259Y-50539500D01*
X52949419Y-50539500D01*
X52923561Y-50536818D01*
X52914684Y-50534956D01*
X52888051Y-50538277D01*
X52886005Y-50538532D01*
X52872565Y-50539366D01*
X52870960Y-50539499D01*
X52853519Y-50542409D01*
X52852026Y-50542658D01*
X52846883Y-50543408D01*
X52798607Y-50549426D01*
X52791560Y-50551524D01*
X52784617Y-50553908D01*
X52741838Y-50577058D01*
X52737212Y-50579440D01*
X52693512Y-50600804D01*
X52687547Y-50605062D01*
X52681743Y-50609579D01*
X52648791Y-50645374D01*
X52645187Y-50649129D01*
X50184105Y-53110212D01*
X50121793Y-53144237D01*
X50050978Y-53139173D01*
X49994142Y-53096626D01*
X49969331Y-53030106D01*
X49973819Y-52986638D01*
X50012187Y-52851793D01*
X50031005Y-52648710D01*
X50012187Y-52445627D01*
X49956372Y-52249460D01*
X49865463Y-52066889D01*
X49819520Y-52006050D01*
X49742555Y-51904131D01*
X49591830Y-51766728D01*
X49591829Y-51766727D01*
X49418438Y-51659368D01*
X49418431Y-51659364D01*
X49418427Y-51659362D01*
X49301923Y-51614228D01*
X49228247Y-51585686D01*
X49161419Y-51573194D01*
X49027766Y-51548210D01*
X48823814Y-51548210D01*
X48723574Y-51566948D01*
X48623332Y-51585686D01*
X48475980Y-51642770D01*
X48433153Y-51659362D01*
X48433152Y-51659362D01*
X48433151Y-51659363D01*
X48433141Y-51659368D01*
X48259750Y-51766727D01*
X48259749Y-51766728D01*
X48109024Y-51904131D01*
X47986119Y-52066885D01*
X47895206Y-52249464D01*
X47839393Y-52445625D01*
X47820575Y-52648710D01*
X47839393Y-52851794D01*
X47895206Y-53047955D01*
X47895207Y-53047957D01*
X47895208Y-53047960D01*
X47986117Y-53230531D01*
X47986118Y-53230532D01*
X47986119Y-53230534D01*
X48082050Y-53357568D01*
X48107140Y-53423984D01*
X48092340Y-53493421D01*
X48042349Y-53543833D01*
X47981500Y-53559500D01*
X47713919Y-53559500D01*
X47688061Y-53556818D01*
X47679184Y-53554956D01*
X47652551Y-53558277D01*
X47650505Y-53558532D01*
X47637065Y-53559366D01*
X47635460Y-53559499D01*
X47618019Y-53562409D01*
X47616526Y-53562658D01*
X47611383Y-53563408D01*
X47563107Y-53569426D01*
X47556060Y-53571524D01*
X47549117Y-53573908D01*
X47506338Y-53597058D01*
X47501712Y-53599440D01*
X47458012Y-53620804D01*
X47452047Y-53625062D01*
X47446243Y-53629579D01*
X47413291Y-53665374D01*
X47409687Y-53669129D01*
X46937222Y-54141594D01*
X46874910Y-54175620D01*
X46804095Y-54170555D01*
X46802611Y-54169991D01*
X46688247Y-54125686D01*
X46621419Y-54113194D01*
X46487766Y-54088210D01*
X46283814Y-54088210D01*
X46183574Y-54106948D01*
X46083332Y-54125686D01*
X45935980Y-54182770D01*
X45893153Y-54199362D01*
X45893152Y-54199362D01*
X45893151Y-54199363D01*
X45893141Y-54199368D01*
X45719750Y-54306727D01*
X45719749Y-54306728D01*
X45569024Y-54444131D01*
X45446119Y-54606885D01*
X45355206Y-54789464D01*
X45299393Y-54985625D01*
X45280575Y-55188710D01*
X43525500Y-55188710D01*
X43525500Y-52648710D01*
X45280575Y-52648710D01*
X45299393Y-52851794D01*
X45355206Y-53047955D01*
X45355207Y-53047957D01*
X45355208Y-53047960D01*
X45446117Y-53230531D01*
X45446118Y-53230532D01*
X45446119Y-53230534D01*
X45569024Y-53393288D01*
X45719749Y-53530691D01*
X45719750Y-53530692D01*
X45893141Y-53638051D01*
X45893144Y-53638052D01*
X45893153Y-53638058D01*
X46083334Y-53711734D01*
X46283814Y-53749210D01*
X46283816Y-53749210D01*
X46487764Y-53749210D01*
X46487766Y-53749210D01*
X46688246Y-53711734D01*
X46878427Y-53638058D01*
X47051831Y-53530691D01*
X47202554Y-53393289D01*
X47325463Y-53230531D01*
X47416372Y-53047960D01*
X47472187Y-52851793D01*
X47491005Y-52648710D01*
X47472187Y-52445627D01*
X47416372Y-52249460D01*
X47325463Y-52066889D01*
X47279520Y-52006050D01*
X47202555Y-51904131D01*
X47051830Y-51766728D01*
X47051829Y-51766727D01*
X46878438Y-51659368D01*
X46878431Y-51659364D01*
X46878427Y-51659362D01*
X46761923Y-51614228D01*
X46688247Y-51585686D01*
X46621419Y-51573194D01*
X46487766Y-51548210D01*
X46283814Y-51548210D01*
X46183574Y-51566948D01*
X46083332Y-51585686D01*
X45935980Y-51642770D01*
X45893153Y-51659362D01*
X45893152Y-51659362D01*
X45893151Y-51659363D01*
X45893141Y-51659368D01*
X45719750Y-51766727D01*
X45719749Y-51766728D01*
X45569024Y-51904131D01*
X45446119Y-52066885D01*
X45355206Y-52249464D01*
X45299393Y-52445625D01*
X45280575Y-52648710D01*
X43525500Y-52648710D01*
X43525500Y-50108710D01*
X45280575Y-50108710D01*
X45299393Y-50311794D01*
X45355206Y-50507955D01*
X45355207Y-50507957D01*
X45355208Y-50507960D01*
X45446117Y-50690531D01*
X45446118Y-50690532D01*
X45446119Y-50690534D01*
X45569024Y-50853288D01*
X45719749Y-50990691D01*
X45719750Y-50990692D01*
X45893141Y-51098051D01*
X45893144Y-51098052D01*
X45893153Y-51098058D01*
X46083334Y-51171734D01*
X46283814Y-51209210D01*
X46283816Y-51209210D01*
X46487764Y-51209210D01*
X46487766Y-51209210D01*
X46688246Y-51171734D01*
X46878427Y-51098058D01*
X47051831Y-50990691D01*
X47202554Y-50853289D01*
X47325463Y-50690531D01*
X47416372Y-50507960D01*
X47472187Y-50311793D01*
X47491005Y-50108710D01*
X47820575Y-50108710D01*
X47839393Y-50311794D01*
X47895206Y-50507955D01*
X47895207Y-50507957D01*
X47895208Y-50507960D01*
X47986117Y-50690531D01*
X47986118Y-50690532D01*
X47986119Y-50690534D01*
X48109024Y-50853288D01*
X48259749Y-50990691D01*
X48259750Y-50990692D01*
X48433141Y-51098051D01*
X48433144Y-51098052D01*
X48433153Y-51098058D01*
X48623334Y-51171734D01*
X48823814Y-51209210D01*
X48823816Y-51209210D01*
X49027764Y-51209210D01*
X49027766Y-51209210D01*
X49228246Y-51171734D01*
X49418427Y-51098058D01*
X49591831Y-50990691D01*
X49742554Y-50853289D01*
X49865463Y-50690531D01*
X49956372Y-50507960D01*
X50012187Y-50311793D01*
X50031005Y-50108710D01*
X50012187Y-49905627D01*
X49956372Y-49709460D01*
X49865463Y-49526889D01*
X49830054Y-49480000D01*
X49742555Y-49364131D01*
X49591830Y-49226728D01*
X49591829Y-49226727D01*
X49418438Y-49119368D01*
X49418431Y-49119364D01*
X49418427Y-49119362D01*
X49273685Y-49063289D01*
X49228247Y-49045686D01*
X49161419Y-49033194D01*
X49027766Y-49008210D01*
X48823814Y-49008210D01*
X48723574Y-49026948D01*
X48623332Y-49045686D01*
X48475980Y-49102770D01*
X48433153Y-49119362D01*
X48433152Y-49119362D01*
X48433151Y-49119363D01*
X48433141Y-49119368D01*
X48259750Y-49226727D01*
X48259749Y-49226728D01*
X48109024Y-49364131D01*
X47986119Y-49526885D01*
X47895206Y-49709464D01*
X47839393Y-49905625D01*
X47820575Y-50108710D01*
X47491005Y-50108710D01*
X47472187Y-49905627D01*
X47416372Y-49709460D01*
X47325463Y-49526889D01*
X47290054Y-49480000D01*
X47202555Y-49364131D01*
X47051830Y-49226728D01*
X47051829Y-49226727D01*
X46878438Y-49119368D01*
X46878431Y-49119364D01*
X46878427Y-49119362D01*
X46733685Y-49063289D01*
X46688247Y-49045686D01*
X46621419Y-49033194D01*
X46487766Y-49008210D01*
X46283814Y-49008210D01*
X46183574Y-49026948D01*
X46083332Y-49045686D01*
X45935980Y-49102770D01*
X45893153Y-49119362D01*
X45893152Y-49119362D01*
X45893151Y-49119363D01*
X45893141Y-49119368D01*
X45719750Y-49226727D01*
X45719749Y-49226728D01*
X45569024Y-49364131D01*
X45446119Y-49526885D01*
X45355206Y-49709464D01*
X45299393Y-49905625D01*
X45280575Y-50108710D01*
X43525500Y-50108710D01*
X43525500Y-47568710D01*
X47820575Y-47568710D01*
X47839393Y-47771794D01*
X47895206Y-47967955D01*
X47895207Y-47967957D01*
X47895208Y-47967960D01*
X47986117Y-48150531D01*
X47986118Y-48150532D01*
X47986119Y-48150534D01*
X48109024Y-48313288D01*
X48259749Y-48450691D01*
X48259750Y-48450692D01*
X48433141Y-48558051D01*
X48433144Y-48558052D01*
X48433153Y-48558058D01*
X48623334Y-48631734D01*
X48823814Y-48669210D01*
X48823816Y-48669210D01*
X49027764Y-48669210D01*
X49027766Y-48669210D01*
X49228246Y-48631734D01*
X49418427Y-48558058D01*
X49591831Y-48450691D01*
X49742554Y-48313289D01*
X49865463Y-48150531D01*
X49956372Y-47967960D01*
X50012187Y-47771793D01*
X50031005Y-47568710D01*
X50012187Y-47365627D01*
X49956372Y-47169460D01*
X49865463Y-46986889D01*
X49865460Y-46986885D01*
X49742555Y-46824131D01*
X49591830Y-46686728D01*
X49591829Y-46686727D01*
X49418438Y-46579368D01*
X49418431Y-46579364D01*
X49418427Y-46579362D01*
X49301923Y-46534228D01*
X49228247Y-46505686D01*
X49161419Y-46493194D01*
X49027766Y-46468210D01*
X48823814Y-46468210D01*
X48723574Y-46486948D01*
X48623332Y-46505686D01*
X48475980Y-46562770D01*
X48433153Y-46579362D01*
X48433152Y-46579362D01*
X48433151Y-46579363D01*
X48433141Y-46579368D01*
X48259750Y-46686727D01*
X48259749Y-46686728D01*
X48109024Y-46824131D01*
X47986119Y-46986885D01*
X47895206Y-47169464D01*
X47839393Y-47365625D01*
X47820575Y-47568710D01*
X43525500Y-47568710D01*
X43525500Y-45028710D01*
X45280575Y-45028710D01*
X45299393Y-45231794D01*
X45355206Y-45427955D01*
X45355207Y-45427957D01*
X45355208Y-45427960D01*
X45446117Y-45610531D01*
X45446118Y-45610532D01*
X45446119Y-45610534D01*
X45569024Y-45773288D01*
X45719749Y-45910691D01*
X45719750Y-45910692D01*
X45893141Y-46018051D01*
X45893144Y-46018052D01*
X45893153Y-46018058D01*
X46083334Y-46091734D01*
X46283814Y-46129210D01*
X46283816Y-46129210D01*
X46487764Y-46129210D01*
X46487766Y-46129210D01*
X46688246Y-46091734D01*
X46878427Y-46018058D01*
X47051831Y-45910691D01*
X47202554Y-45773289D01*
X47325463Y-45610531D01*
X47416372Y-45427960D01*
X47472187Y-45231793D01*
X47491005Y-45028710D01*
X47820575Y-45028710D01*
X47839393Y-45231794D01*
X47895206Y-45427955D01*
X47895207Y-45427957D01*
X47895208Y-45427960D01*
X47986117Y-45610531D01*
X47986118Y-45610532D01*
X47986119Y-45610534D01*
X48109024Y-45773288D01*
X48259749Y-45910691D01*
X48259750Y-45910692D01*
X48433141Y-46018051D01*
X48433144Y-46018052D01*
X48433153Y-46018058D01*
X48623334Y-46091734D01*
X48823814Y-46129210D01*
X48823816Y-46129210D01*
X49027764Y-46129210D01*
X49027766Y-46129210D01*
X49228246Y-46091734D01*
X49418427Y-46018058D01*
X49591831Y-45910691D01*
X49742554Y-45773289D01*
X49865463Y-45610531D01*
X49956372Y-45427960D01*
X50012187Y-45231793D01*
X50031005Y-45028710D01*
X50012187Y-44825627D01*
X49956372Y-44629460D01*
X49865463Y-44446889D01*
X49865460Y-44446885D01*
X49742555Y-44284131D01*
X49591830Y-44146728D01*
X49591829Y-44146727D01*
X49418438Y-44039368D01*
X49418431Y-44039364D01*
X49418427Y-44039362D01*
X49301923Y-43994228D01*
X49228247Y-43965686D01*
X49161419Y-43953194D01*
X49027766Y-43928210D01*
X48823814Y-43928210D01*
X48723574Y-43946948D01*
X48623332Y-43965686D01*
X48475980Y-44022770D01*
X48433153Y-44039362D01*
X48433152Y-44039362D01*
X48433151Y-44039363D01*
X48433141Y-44039368D01*
X48259750Y-44146727D01*
X48259749Y-44146728D01*
X48109024Y-44284131D01*
X47986119Y-44446885D01*
X47895206Y-44629464D01*
X47839393Y-44825625D01*
X47820575Y-45028710D01*
X47491005Y-45028710D01*
X47472187Y-44825627D01*
X47416372Y-44629460D01*
X47325463Y-44446889D01*
X47325460Y-44446885D01*
X47202555Y-44284131D01*
X47051830Y-44146728D01*
X47051829Y-44146727D01*
X46878438Y-44039368D01*
X46878431Y-44039364D01*
X46878427Y-44039362D01*
X46761923Y-43994228D01*
X46688247Y-43965686D01*
X46621419Y-43953194D01*
X46487766Y-43928210D01*
X46283814Y-43928210D01*
X46183574Y-43946948D01*
X46083332Y-43965686D01*
X45935980Y-44022770D01*
X45893153Y-44039362D01*
X45893152Y-44039362D01*
X45893151Y-44039363D01*
X45893141Y-44039368D01*
X45719750Y-44146727D01*
X45719749Y-44146728D01*
X45569024Y-44284131D01*
X45446119Y-44446885D01*
X45355206Y-44629464D01*
X45299393Y-44825625D01*
X45280575Y-45028710D01*
X43525500Y-45028710D01*
X43525500Y-42488710D01*
X45280575Y-42488710D01*
X45299393Y-42691794D01*
X45355206Y-42887955D01*
X45355207Y-42887957D01*
X45355208Y-42887960D01*
X45446117Y-43070531D01*
X45446118Y-43070532D01*
X45446119Y-43070534D01*
X45569024Y-43233288D01*
X45719749Y-43370691D01*
X45719750Y-43370692D01*
X45893141Y-43478051D01*
X45893144Y-43478052D01*
X45893153Y-43478058D01*
X46083334Y-43551734D01*
X46283814Y-43589210D01*
X46283816Y-43589210D01*
X46487764Y-43589210D01*
X46487766Y-43589210D01*
X46688246Y-43551734D01*
X46878427Y-43478058D01*
X47051831Y-43370691D01*
X47202554Y-43233289D01*
X47205039Y-43229999D01*
X47233281Y-43192599D01*
X47325463Y-43070531D01*
X47416372Y-42887960D01*
X47472187Y-42691793D01*
X47491005Y-42488710D01*
X47820575Y-42488710D01*
X47839393Y-42691794D01*
X47895206Y-42887955D01*
X47895207Y-42887957D01*
X47895208Y-42887960D01*
X47986117Y-43070531D01*
X47986118Y-43070532D01*
X47986119Y-43070534D01*
X48109024Y-43233288D01*
X48259749Y-43370691D01*
X48259750Y-43370692D01*
X48433141Y-43478051D01*
X48433144Y-43478052D01*
X48433153Y-43478058D01*
X48623334Y-43551734D01*
X48823814Y-43589210D01*
X48823816Y-43589210D01*
X49027764Y-43589210D01*
X49027766Y-43589210D01*
X49228246Y-43551734D01*
X49418427Y-43478058D01*
X49591831Y-43370691D01*
X49742554Y-43233289D01*
X49745039Y-43229999D01*
X49773281Y-43192599D01*
X49865463Y-43070531D01*
X49956372Y-42887960D01*
X50012187Y-42691793D01*
X50031005Y-42488710D01*
X50012187Y-42285627D01*
X49956372Y-42089460D01*
X49865463Y-41906889D01*
X49865460Y-41906885D01*
X49742555Y-41744131D01*
X49591830Y-41606728D01*
X49591829Y-41606727D01*
X49418438Y-41499368D01*
X49418431Y-41499364D01*
X49418427Y-41499362D01*
X49301923Y-41454228D01*
X49228247Y-41425686D01*
X49161419Y-41413194D01*
X49027766Y-41388210D01*
X48823814Y-41388210D01*
X48723574Y-41406948D01*
X48623332Y-41425686D01*
X48475980Y-41482770D01*
X48433153Y-41499362D01*
X48433152Y-41499362D01*
X48433151Y-41499363D01*
X48433141Y-41499368D01*
X48259750Y-41606727D01*
X48259749Y-41606728D01*
X48109024Y-41744131D01*
X47986119Y-41906885D01*
X47895206Y-42089464D01*
X47839393Y-42285625D01*
X47820575Y-42488710D01*
X47491005Y-42488710D01*
X47472187Y-42285627D01*
X47416372Y-42089460D01*
X47325463Y-41906889D01*
X47325460Y-41906885D01*
X47202555Y-41744131D01*
X47051830Y-41606728D01*
X47051829Y-41606727D01*
X46878438Y-41499368D01*
X46878431Y-41499364D01*
X46878427Y-41499362D01*
X46761923Y-41454228D01*
X46688247Y-41425686D01*
X46621419Y-41413194D01*
X46487766Y-41388210D01*
X46283814Y-41388210D01*
X46183574Y-41406948D01*
X46083332Y-41425686D01*
X45935980Y-41482770D01*
X45893153Y-41499362D01*
X45893152Y-41499362D01*
X45893151Y-41499363D01*
X45893141Y-41499368D01*
X45719750Y-41606727D01*
X45719749Y-41606728D01*
X45569024Y-41744131D01*
X45446119Y-41906885D01*
X45355206Y-42089464D01*
X45299393Y-42285625D01*
X45280575Y-42488710D01*
X43525500Y-42488710D01*
X43525500Y-39948710D01*
X45280575Y-39948710D01*
X45299393Y-40151794D01*
X45355206Y-40347955D01*
X45355207Y-40347957D01*
X45355208Y-40347960D01*
X45446117Y-40530531D01*
X45446118Y-40530532D01*
X45446119Y-40530534D01*
X45569024Y-40693288D01*
X45719749Y-40830691D01*
X45719750Y-40830692D01*
X45893141Y-40938051D01*
X45893144Y-40938052D01*
X45893153Y-40938058D01*
X46083334Y-41011734D01*
X46283814Y-41049210D01*
X46283816Y-41049210D01*
X46487764Y-41049210D01*
X46487766Y-41049210D01*
X46688246Y-41011734D01*
X46878427Y-40938058D01*
X47051831Y-40830691D01*
X47202554Y-40693289D01*
X47325463Y-40530531D01*
X47416372Y-40347960D01*
X47472187Y-40151793D01*
X47491005Y-39948710D01*
X47820575Y-39948710D01*
X47839393Y-40151794D01*
X47895206Y-40347955D01*
X47895207Y-40347957D01*
X47895208Y-40347960D01*
X47986117Y-40530531D01*
X47986118Y-40530532D01*
X47986119Y-40530534D01*
X48109024Y-40693288D01*
X48259749Y-40830691D01*
X48259750Y-40830692D01*
X48433141Y-40938051D01*
X48433144Y-40938052D01*
X48433153Y-40938058D01*
X48623334Y-41011734D01*
X48823814Y-41049210D01*
X48823816Y-41049210D01*
X49027764Y-41049210D01*
X49027766Y-41049210D01*
X49228246Y-41011734D01*
X49418427Y-40938058D01*
X49591831Y-40830691D01*
X49742554Y-40693289D01*
X49865463Y-40530531D01*
X49956372Y-40347960D01*
X50012187Y-40151793D01*
X50031005Y-39948710D01*
X50012187Y-39745627D01*
X49956372Y-39549460D01*
X49865463Y-39366889D01*
X49865460Y-39366885D01*
X49742555Y-39204131D01*
X49591830Y-39066728D01*
X49591829Y-39066727D01*
X49418438Y-38959368D01*
X49418431Y-38959364D01*
X49418427Y-38959362D01*
X49301923Y-38914228D01*
X49228247Y-38885686D01*
X49161419Y-38873194D01*
X49027766Y-38848210D01*
X48823814Y-38848210D01*
X48723574Y-38866948D01*
X48623332Y-38885686D01*
X48475980Y-38942770D01*
X48433153Y-38959362D01*
X48433152Y-38959362D01*
X48433151Y-38959363D01*
X48433141Y-38959368D01*
X48259750Y-39066727D01*
X48259749Y-39066728D01*
X48109024Y-39204131D01*
X47986119Y-39366885D01*
X47895206Y-39549464D01*
X47839393Y-39745625D01*
X47820575Y-39948710D01*
X47491005Y-39948710D01*
X47472187Y-39745627D01*
X47416372Y-39549460D01*
X47325463Y-39366889D01*
X47325460Y-39366885D01*
X47202555Y-39204131D01*
X47051830Y-39066728D01*
X47051829Y-39066727D01*
X46878438Y-38959368D01*
X46878431Y-38959364D01*
X46878427Y-38959362D01*
X46761923Y-38914228D01*
X46688247Y-38885686D01*
X46621419Y-38873194D01*
X46487766Y-38848210D01*
X46283814Y-38848210D01*
X46183574Y-38866948D01*
X46083332Y-38885686D01*
X45935980Y-38942770D01*
X45893153Y-38959362D01*
X45893152Y-38959362D01*
X45893151Y-38959363D01*
X45893141Y-38959368D01*
X45719750Y-39066727D01*
X45719749Y-39066728D01*
X45569024Y-39204131D01*
X45446119Y-39366885D01*
X45355206Y-39549464D01*
X45299393Y-39745625D01*
X45280575Y-39948710D01*
X43525500Y-39948710D01*
X43525500Y-37408710D01*
X45280575Y-37408710D01*
X45299393Y-37611794D01*
X45355206Y-37807955D01*
X45355207Y-37807957D01*
X45355208Y-37807960D01*
X45446117Y-37990531D01*
X45446118Y-37990532D01*
X45446119Y-37990534D01*
X45569024Y-38153288D01*
X45719749Y-38290691D01*
X45719750Y-38290692D01*
X45893141Y-38398051D01*
X45893144Y-38398052D01*
X45893153Y-38398058D01*
X46083334Y-38471734D01*
X46283814Y-38509210D01*
X46283816Y-38509210D01*
X46487764Y-38509210D01*
X46487766Y-38509210D01*
X46688246Y-38471734D01*
X46878427Y-38398058D01*
X47051831Y-38290691D01*
X47202554Y-38153289D01*
X47325463Y-37990531D01*
X47416372Y-37807960D01*
X47472187Y-37611793D01*
X47491005Y-37408710D01*
X47820575Y-37408710D01*
X47839393Y-37611794D01*
X47895206Y-37807955D01*
X47895207Y-37807957D01*
X47895208Y-37807960D01*
X47986117Y-37990531D01*
X47986118Y-37990532D01*
X47986119Y-37990534D01*
X48109024Y-38153288D01*
X48259749Y-38290691D01*
X48259750Y-38290692D01*
X48433141Y-38398051D01*
X48433144Y-38398052D01*
X48433153Y-38398058D01*
X48623334Y-38471734D01*
X48823814Y-38509210D01*
X48823816Y-38509210D01*
X49027764Y-38509210D01*
X49027766Y-38509210D01*
X49228246Y-38471734D01*
X49418427Y-38398058D01*
X49591831Y-38290691D01*
X49742554Y-38153289D01*
X49865463Y-37990531D01*
X49956372Y-37807960D01*
X50012187Y-37611793D01*
X50031005Y-37408710D01*
X50012187Y-37205627D01*
X49956372Y-37009460D01*
X49865463Y-36826889D01*
X49775996Y-36708415D01*
X49742555Y-36664131D01*
X49591830Y-36526728D01*
X49591829Y-36526727D01*
X49418438Y-36419368D01*
X49418431Y-36419364D01*
X49418427Y-36419362D01*
X49301923Y-36374228D01*
X49228247Y-36345686D01*
X49161419Y-36333194D01*
X49027766Y-36308210D01*
X48823814Y-36308210D01*
X48723574Y-36326948D01*
X48623332Y-36345686D01*
X48475980Y-36402770D01*
X48433153Y-36419362D01*
X48433152Y-36419362D01*
X48433151Y-36419363D01*
X48433141Y-36419368D01*
X48259750Y-36526727D01*
X48259749Y-36526728D01*
X48109024Y-36664131D01*
X47986119Y-36826885D01*
X47895206Y-37009464D01*
X47839393Y-37205625D01*
X47820575Y-37408710D01*
X47491005Y-37408710D01*
X47472187Y-37205627D01*
X47416372Y-37009460D01*
X47325463Y-36826889D01*
X47235996Y-36708415D01*
X47202555Y-36664131D01*
X47051830Y-36526728D01*
X47051829Y-36526727D01*
X46878438Y-36419368D01*
X46878431Y-36419364D01*
X46878427Y-36419362D01*
X46761923Y-36374228D01*
X46688247Y-36345686D01*
X46621419Y-36333194D01*
X46487766Y-36308210D01*
X46283814Y-36308210D01*
X46183574Y-36326948D01*
X46083332Y-36345686D01*
X45935980Y-36402770D01*
X45893153Y-36419362D01*
X45893152Y-36419362D01*
X45893151Y-36419363D01*
X45893141Y-36419368D01*
X45719750Y-36526727D01*
X45719749Y-36526728D01*
X45569024Y-36664131D01*
X45446119Y-36826885D01*
X45355206Y-37009464D01*
X45299393Y-37205625D01*
X45280575Y-37408710D01*
X43525500Y-37408710D01*
X43525500Y-34868710D01*
X45280575Y-34868710D01*
X45299393Y-35071794D01*
X45355206Y-35267955D01*
X45355207Y-35267957D01*
X45355208Y-35267960D01*
X45446117Y-35450531D01*
X45446118Y-35450532D01*
X45446119Y-35450534D01*
X45569024Y-35613288D01*
X45719749Y-35750691D01*
X45719750Y-35750692D01*
X45893141Y-35858051D01*
X45893144Y-35858052D01*
X45893153Y-35858058D01*
X46083334Y-35931734D01*
X46283814Y-35969210D01*
X46283816Y-35969210D01*
X46487764Y-35969210D01*
X46487766Y-35969210D01*
X46688246Y-35931734D01*
X46878427Y-35858058D01*
X47051831Y-35750691D01*
X47202554Y-35613289D01*
X47212423Y-35600221D01*
X47302693Y-35480683D01*
X47325463Y-35450531D01*
X47416372Y-35267960D01*
X47472187Y-35071793D01*
X47491005Y-34868710D01*
X47820575Y-34868710D01*
X47839393Y-35071794D01*
X47895206Y-35267955D01*
X47895207Y-35267957D01*
X47895208Y-35267960D01*
X47986117Y-35450531D01*
X47986118Y-35450532D01*
X47986119Y-35450534D01*
X48109024Y-35613288D01*
X48259749Y-35750691D01*
X48259750Y-35750692D01*
X48433141Y-35858051D01*
X48433144Y-35858052D01*
X48433153Y-35858058D01*
X48623334Y-35931734D01*
X48823814Y-35969210D01*
X48823816Y-35969210D01*
X49027764Y-35969210D01*
X49027766Y-35969210D01*
X49228246Y-35931734D01*
X49418427Y-35858058D01*
X49591831Y-35750691D01*
X49742554Y-35613289D01*
X49752423Y-35600221D01*
X49842693Y-35480683D01*
X49865463Y-35450531D01*
X49956372Y-35267960D01*
X50012187Y-35071793D01*
X50031005Y-34868710D01*
X50012187Y-34665627D01*
X49956372Y-34469460D01*
X49865463Y-34286889D01*
X49865460Y-34286885D01*
X49742555Y-34124131D01*
X49591830Y-33986728D01*
X49591829Y-33986727D01*
X49418438Y-33879368D01*
X49418431Y-33879364D01*
X49418427Y-33879362D01*
X49301923Y-33834228D01*
X49228247Y-33805686D01*
X49161419Y-33793194D01*
X49027766Y-33768210D01*
X48823814Y-33768210D01*
X48723574Y-33786948D01*
X48623332Y-33805686D01*
X48475980Y-33862770D01*
X48433153Y-33879362D01*
X48433152Y-33879362D01*
X48433151Y-33879363D01*
X48433141Y-33879368D01*
X48259750Y-33986727D01*
X48259749Y-33986728D01*
X48109024Y-34124131D01*
X47986119Y-34286885D01*
X47895206Y-34469464D01*
X47839393Y-34665625D01*
X47820575Y-34868710D01*
X47491005Y-34868710D01*
X47472187Y-34665627D01*
X47416372Y-34469460D01*
X47325463Y-34286889D01*
X47325460Y-34286885D01*
X47202555Y-34124131D01*
X47051830Y-33986728D01*
X47051829Y-33986727D01*
X46878438Y-33879368D01*
X46878431Y-33879364D01*
X46878427Y-33879362D01*
X46761923Y-33834228D01*
X46688247Y-33805686D01*
X46621419Y-33793194D01*
X46487766Y-33768210D01*
X46283814Y-33768210D01*
X46183574Y-33786948D01*
X46083332Y-33805686D01*
X45935980Y-33862770D01*
X45893153Y-33879362D01*
X45893152Y-33879362D01*
X45893151Y-33879363D01*
X45893141Y-33879368D01*
X45719750Y-33986727D01*
X45719749Y-33986728D01*
X45569024Y-34124131D01*
X45446119Y-34286885D01*
X45355206Y-34469464D01*
X45299393Y-34665625D01*
X45280575Y-34868710D01*
X43525500Y-34868710D01*
X43525500Y-32328710D01*
X45280575Y-32328710D01*
X45299393Y-32531794D01*
X45355206Y-32727955D01*
X45355207Y-32727957D01*
X45355208Y-32727960D01*
X45446117Y-32910531D01*
X45446118Y-32910532D01*
X45446119Y-32910534D01*
X45569024Y-33073288D01*
X45719749Y-33210691D01*
X45719750Y-33210692D01*
X45893141Y-33318051D01*
X45893144Y-33318052D01*
X45893153Y-33318058D01*
X46083334Y-33391734D01*
X46283814Y-33429210D01*
X46283816Y-33429210D01*
X46487764Y-33429210D01*
X46487766Y-33429210D01*
X46688246Y-33391734D01*
X46878427Y-33318058D01*
X47051831Y-33210691D01*
X47202554Y-33073289D01*
X47325463Y-32910531D01*
X47416372Y-32727960D01*
X47472187Y-32531793D01*
X47491005Y-32328710D01*
X47820575Y-32328710D01*
X47839393Y-32531794D01*
X47895206Y-32727955D01*
X47895207Y-32727957D01*
X47895208Y-32727960D01*
X47986117Y-32910531D01*
X47986118Y-32910532D01*
X47986119Y-32910534D01*
X48109024Y-33073288D01*
X48259749Y-33210691D01*
X48259750Y-33210692D01*
X48433141Y-33318051D01*
X48433144Y-33318052D01*
X48433153Y-33318058D01*
X48623334Y-33391734D01*
X48823814Y-33429210D01*
X48823816Y-33429210D01*
X49027764Y-33429210D01*
X49027766Y-33429210D01*
X49228246Y-33391734D01*
X49418427Y-33318058D01*
X49591831Y-33210691D01*
X49742554Y-33073289D01*
X49865463Y-32910531D01*
X49956372Y-32727960D01*
X50012187Y-32531793D01*
X50031005Y-32328710D01*
X50012187Y-32125627D01*
X49956372Y-31929460D01*
X49865463Y-31746889D01*
X49865460Y-31746885D01*
X49742555Y-31584131D01*
X49591830Y-31446728D01*
X49591829Y-31446727D01*
X49418438Y-31339368D01*
X49418431Y-31339364D01*
X49418427Y-31339362D01*
X49301923Y-31294228D01*
X49228247Y-31265686D01*
X49161419Y-31253194D01*
X49027766Y-31228210D01*
X48823814Y-31228210D01*
X48723574Y-31246948D01*
X48623332Y-31265686D01*
X48475980Y-31322770D01*
X48433153Y-31339362D01*
X48433152Y-31339362D01*
X48433151Y-31339363D01*
X48433141Y-31339368D01*
X48259750Y-31446727D01*
X48259749Y-31446728D01*
X48109024Y-31584131D01*
X47986119Y-31746885D01*
X47895206Y-31929464D01*
X47839393Y-32125625D01*
X47820575Y-32328710D01*
X47491005Y-32328710D01*
X47472187Y-32125627D01*
X47416372Y-31929460D01*
X47325463Y-31746889D01*
X47325460Y-31746885D01*
X47202555Y-31584131D01*
X47051830Y-31446728D01*
X47051829Y-31446727D01*
X46878438Y-31339368D01*
X46878431Y-31339364D01*
X46878427Y-31339362D01*
X46761923Y-31294228D01*
X46688247Y-31265686D01*
X46621419Y-31253194D01*
X46487766Y-31228210D01*
X46283814Y-31228210D01*
X46183574Y-31246948D01*
X46083332Y-31265686D01*
X45935980Y-31322770D01*
X45893153Y-31339362D01*
X45893152Y-31339362D01*
X45893151Y-31339363D01*
X45893141Y-31339368D01*
X45719750Y-31446727D01*
X45719749Y-31446728D01*
X45569024Y-31584131D01*
X45446119Y-31746885D01*
X45355206Y-31929464D01*
X45299393Y-32125625D01*
X45280575Y-32328710D01*
X43525500Y-32328710D01*
X43525500Y-29788710D01*
X45280575Y-29788710D01*
X45299393Y-29991794D01*
X45355206Y-30187955D01*
X45355207Y-30187957D01*
X45355208Y-30187960D01*
X45446117Y-30370531D01*
X45446118Y-30370532D01*
X45446119Y-30370534D01*
X45569024Y-30533288D01*
X45719749Y-30670691D01*
X45719750Y-30670692D01*
X45893141Y-30778051D01*
X45893144Y-30778052D01*
X45893153Y-30778058D01*
X46083334Y-30851734D01*
X46283814Y-30889210D01*
X46283816Y-30889210D01*
X46487764Y-30889210D01*
X46487766Y-30889210D01*
X46688246Y-30851734D01*
X46878427Y-30778058D01*
X47051831Y-30670691D01*
X47202554Y-30533289D01*
X47325463Y-30370531D01*
X47416372Y-30187960D01*
X47472187Y-29991793D01*
X47491005Y-29788710D01*
X47820575Y-29788710D01*
X47839393Y-29991794D01*
X47895206Y-30187955D01*
X47895207Y-30187957D01*
X47895208Y-30187960D01*
X47986117Y-30370531D01*
X47986118Y-30370532D01*
X47986119Y-30370534D01*
X48109024Y-30533288D01*
X48259749Y-30670691D01*
X48259750Y-30670692D01*
X48433141Y-30778051D01*
X48433144Y-30778052D01*
X48433153Y-30778058D01*
X48623334Y-30851734D01*
X48823814Y-30889210D01*
X48823816Y-30889210D01*
X49027764Y-30889210D01*
X49027766Y-30889210D01*
X49228246Y-30851734D01*
X49418427Y-30778058D01*
X49591831Y-30670691D01*
X49742554Y-30533289D01*
X49865463Y-30370531D01*
X49956372Y-30187960D01*
X50012187Y-29991793D01*
X50031005Y-29788710D01*
X50012187Y-29585627D01*
X49956372Y-29389460D01*
X49865463Y-29206889D01*
X49801615Y-29122340D01*
X49742555Y-29044131D01*
X49591830Y-28906728D01*
X49591829Y-28906727D01*
X49418438Y-28799368D01*
X49418431Y-28799364D01*
X49418427Y-28799362D01*
X49301923Y-28754228D01*
X49228247Y-28725686D01*
X49161419Y-28713194D01*
X49027766Y-28688210D01*
X48823814Y-28688210D01*
X48723574Y-28706948D01*
X48623332Y-28725686D01*
X48475980Y-28782770D01*
X48433153Y-28799362D01*
X48433152Y-28799362D01*
X48433151Y-28799363D01*
X48433141Y-28799368D01*
X48259750Y-28906727D01*
X48259749Y-28906728D01*
X48109024Y-29044131D01*
X47986119Y-29206885D01*
X47895206Y-29389464D01*
X47839393Y-29585625D01*
X47820575Y-29788710D01*
X47491005Y-29788710D01*
X47472187Y-29585627D01*
X47416372Y-29389460D01*
X47325463Y-29206889D01*
X47261615Y-29122340D01*
X47202555Y-29044131D01*
X47051830Y-28906728D01*
X47051829Y-28906727D01*
X46878438Y-28799368D01*
X46878431Y-28799364D01*
X46878427Y-28799362D01*
X46761923Y-28754228D01*
X46688247Y-28725686D01*
X46621419Y-28713194D01*
X46487766Y-28688210D01*
X46283814Y-28688210D01*
X46183574Y-28706948D01*
X46083332Y-28725686D01*
X45935980Y-28782770D01*
X45893153Y-28799362D01*
X45893152Y-28799362D01*
X45893151Y-28799363D01*
X45893141Y-28799368D01*
X45719750Y-28906727D01*
X45719749Y-28906728D01*
X45569024Y-29044131D01*
X45446119Y-29206885D01*
X45355206Y-29389464D01*
X45299393Y-29585625D01*
X45280575Y-29788710D01*
X43525500Y-29788710D01*
X43525500Y-27248710D01*
X45280575Y-27248710D01*
X45299393Y-27451794D01*
X45355206Y-27647955D01*
X45355207Y-27647957D01*
X45355208Y-27647960D01*
X45446117Y-27830531D01*
X45446118Y-27830532D01*
X45446119Y-27830534D01*
X45569024Y-27993288D01*
X45719749Y-28130691D01*
X45719750Y-28130692D01*
X45893141Y-28238051D01*
X45893144Y-28238052D01*
X45893153Y-28238058D01*
X46083334Y-28311734D01*
X46283814Y-28349210D01*
X46283816Y-28349210D01*
X46487764Y-28349210D01*
X46487766Y-28349210D01*
X46688246Y-28311734D01*
X46878427Y-28238058D01*
X47051831Y-28130691D01*
X47059843Y-28123387D01*
X47825290Y-28123387D01*
X47839823Y-28196449D01*
X47839824Y-28196450D01*
X47895189Y-28279311D01*
X47978050Y-28334676D01*
X48051116Y-28349210D01*
X49478418Y-28349210D01*
X49546539Y-28369212D01*
X49567513Y-28386115D01*
X50362595Y-29181197D01*
X50396621Y-29243509D01*
X50399500Y-29270292D01*
X50399500Y-48620581D01*
X50396818Y-48646439D01*
X50394956Y-48655314D01*
X50398532Y-48683992D01*
X50399367Y-48697440D01*
X50399499Y-48699042D01*
X50402658Y-48717972D01*
X50403408Y-48723119D01*
X50409426Y-48771392D01*
X50411526Y-48778445D01*
X50413907Y-48785381D01*
X50437057Y-48828159D01*
X50439440Y-48832788D01*
X50460801Y-48876483D01*
X50465064Y-48882453D01*
X50469581Y-48888257D01*
X50469582Y-48888258D01*
X50505373Y-48921206D01*
X50509130Y-48924812D01*
X50929417Y-49345099D01*
X50963443Y-49407411D01*
X50965244Y-49450639D01*
X50961379Y-49479998D01*
X50961379Y-49480000D01*
X50981777Y-49634935D01*
X51041577Y-49779310D01*
X51136710Y-49903289D01*
X51260689Y-49998422D01*
X51351731Y-50036131D01*
X51405065Y-50058223D01*
X51560000Y-50078621D01*
X51714935Y-50058223D01*
X51805977Y-50020512D01*
X51859310Y-49998422D01*
X51983289Y-49903289D01*
X52078422Y-49779310D01*
X52107354Y-49709460D01*
X52138223Y-49634935D01*
X52158621Y-49480000D01*
X52154755Y-49450639D01*
X52142389Y-49356708D01*
X52138223Y-49325065D01*
X52078421Y-49180690D01*
X51983289Y-49056711D01*
X51983287Y-49056709D01*
X51983286Y-49056708D01*
X51859310Y-48961577D01*
X51714935Y-48901777D01*
X51560000Y-48881379D01*
X51559998Y-48881379D01*
X51530639Y-48885244D01*
X51460491Y-48874304D01*
X51425099Y-48849417D01*
X51137405Y-48561723D01*
X51103379Y-48499411D01*
X51100500Y-48472628D01*
X51100500Y-44740000D01*
X67091379Y-44740000D01*
X67111777Y-44894935D01*
X67171577Y-45039310D01*
X67266710Y-45163289D01*
X67390689Y-45258422D01*
X67458116Y-45286350D01*
X67535065Y-45318223D01*
X67690000Y-45338621D01*
X67690001Y-45338621D01*
X67694529Y-45338024D01*
X67707050Y-45336376D01*
X67777198Y-45347312D01*
X67830299Y-45394438D01*
X67849500Y-45461297D01*
X67849500Y-48538721D01*
X67829498Y-48606842D01*
X67800205Y-48638682D01*
X67776713Y-48656707D01*
X67681580Y-48780688D01*
X67681578Y-48780691D01*
X67621776Y-48925066D01*
X67601379Y-49079999D01*
X67601379Y-49080000D01*
X67621777Y-49234935D01*
X67681577Y-49379310D01*
X67776710Y-49503289D01*
X67900689Y-49598422D01*
X67965016Y-49625066D01*
X68045065Y-49658223D01*
X68200000Y-49678621D01*
X68354935Y-49658223D01*
X68445977Y-49620512D01*
X68499310Y-49598422D01*
X68623289Y-49503289D01*
X68718422Y-49379310D01*
X68767186Y-49261580D01*
X68778223Y-49234935D01*
X68798621Y-49080000D01*
X68795554Y-49056708D01*
X68783030Y-48961577D01*
X68778223Y-48925065D01*
X68742988Y-48840000D01*
X85711379Y-48840000D01*
X85731777Y-48994935D01*
X85791577Y-49139310D01*
X85886710Y-49263289D01*
X86010689Y-49358422D01*
X86101731Y-49396131D01*
X86155065Y-49418223D01*
X86310000Y-49438621D01*
X86464935Y-49418223D01*
X86558880Y-49379310D01*
X86609310Y-49358422D01*
X86733289Y-49263289D01*
X86828422Y-49139310D01*
X86859910Y-49063289D01*
X86888223Y-48994935D01*
X86908621Y-48840000D01*
X86888223Y-48685065D01*
X86877610Y-48659444D01*
X86870022Y-48588858D01*
X86901801Y-48525371D01*
X86962859Y-48489143D01*
X86977566Y-48486308D01*
X87032588Y-48479064D01*
X87102735Y-48490003D01*
X87155834Y-48537131D01*
X87175024Y-48605484D01*
X87173955Y-48620432D01*
X87171379Y-48639998D01*
X87171379Y-48640000D01*
X87191777Y-48794935D01*
X87251577Y-48939310D01*
X87346710Y-49063289D01*
X87470689Y-49158422D01*
X87561731Y-49196131D01*
X87615065Y-49218223D01*
X87770000Y-49238621D01*
X87924935Y-49218223D01*
X88015977Y-49180512D01*
X88069310Y-49158422D01*
X88193289Y-49063289D01*
X88288422Y-48939310D01*
X88312417Y-48881379D01*
X88348223Y-48794935D01*
X88368621Y-48640000D01*
X88368447Y-48638682D01*
X88348691Y-48488621D01*
X88348223Y-48485065D01*
X88288421Y-48340690D01*
X88193289Y-48216711D01*
X88193287Y-48216709D01*
X88193286Y-48216708D01*
X88069310Y-48121577D01*
X87917306Y-48058617D01*
X87918216Y-48056418D01*
X87868012Y-48025818D01*
X87836991Y-47961957D01*
X87845419Y-47891463D01*
X87890622Y-47836715D01*
X87944799Y-47816140D01*
X88004935Y-47808223D01*
X88095977Y-47770512D01*
X88149310Y-47748422D01*
X88273289Y-47653289D01*
X88368422Y-47529310D01*
X88390512Y-47475977D01*
X88428223Y-47384935D01*
X88448621Y-47230000D01*
X88428223Y-47075065D01*
X88368421Y-46930690D01*
X88273289Y-46806711D01*
X88273287Y-46806709D01*
X88273286Y-46806708D01*
X88149310Y-46711577D01*
X88004935Y-46651777D01*
X87850000Y-46631379D01*
X87695066Y-46651776D01*
X87550691Y-46711578D01*
X87550688Y-46711580D01*
X87426711Y-46806711D01*
X87331580Y-46930688D01*
X87331578Y-46930691D01*
X87271777Y-47075065D01*
X87254917Y-47203120D01*
X87226194Y-47268047D01*
X87166928Y-47307138D01*
X87113549Y-47311594D01*
X86960001Y-47291379D01*
X86960000Y-47291379D01*
X86805066Y-47311776D01*
X86660691Y-47371578D01*
X86660688Y-47371580D01*
X86536711Y-47466711D01*
X86441580Y-47590688D01*
X86441578Y-47590691D01*
X86381776Y-47735066D01*
X86361379Y-47889999D01*
X86361379Y-47890000D01*
X86381777Y-48044935D01*
X86392388Y-48070553D01*
X86399977Y-48141143D01*
X86368197Y-48204630D01*
X86307138Y-48240856D01*
X86292426Y-48243692D01*
X86155066Y-48261776D01*
X86010691Y-48321578D01*
X86010688Y-48321580D01*
X85886711Y-48416711D01*
X85791580Y-48540688D01*
X85791578Y-48540691D01*
X85731776Y-48685066D01*
X85711379Y-48839999D01*
X85711379Y-48840000D01*
X68742988Y-48840000D01*
X68718421Y-48780690D01*
X68716698Y-48778445D01*
X68670296Y-48717972D01*
X68623289Y-48656711D01*
X68623287Y-48656709D01*
X68599794Y-48638682D01*
X68557928Y-48581343D01*
X68550500Y-48538721D01*
X68550500Y-45299419D01*
X68553182Y-45273559D01*
X68555043Y-45264683D01*
X68551468Y-45236006D01*
X68550633Y-45222566D01*
X68550500Y-45220959D01*
X68547341Y-45202028D01*
X68546590Y-45196874D01*
X68540574Y-45148612D01*
X68538467Y-45141537D01*
X68536093Y-45134620D01*
X68512947Y-45091852D01*
X68510571Y-45087238D01*
X68489198Y-45043516D01*
X68489194Y-45043512D01*
X68484927Y-45037535D01*
X68480420Y-45031744D01*
X68444625Y-44998792D01*
X68440868Y-44995186D01*
X68320582Y-44874900D01*
X68286556Y-44812588D01*
X68284755Y-44769362D01*
X68288621Y-44740000D01*
X68268223Y-44585065D01*
X68208421Y-44440690D01*
X68113289Y-44316711D01*
X68113287Y-44316709D01*
X68113286Y-44316708D01*
X67989310Y-44221577D01*
X67844935Y-44161777D01*
X67690000Y-44141379D01*
X67535066Y-44161776D01*
X67390691Y-44221578D01*
X67390688Y-44221580D01*
X67266711Y-44316711D01*
X67171580Y-44440688D01*
X67171578Y-44440691D01*
X67111776Y-44585066D01*
X67091379Y-44739999D01*
X67091379Y-44740000D01*
X51100500Y-44740000D01*
X51100500Y-43250000D01*
X82341379Y-43250000D01*
X82361777Y-43404935D01*
X82421577Y-43549310D01*
X82516710Y-43673289D01*
X82640689Y-43768422D01*
X82731731Y-43806131D01*
X82785065Y-43828223D01*
X82940000Y-43848621D01*
X83094935Y-43828223D01*
X83185977Y-43790512D01*
X83239310Y-43768422D01*
X83363289Y-43673289D01*
X83458422Y-43549310D01*
X83487935Y-43478058D01*
X83518223Y-43404935D01*
X83538621Y-43250000D01*
X83535988Y-43230000D01*
X84281379Y-43230000D01*
X84301777Y-43384935D01*
X84361577Y-43529310D01*
X84456710Y-43653289D01*
X84580689Y-43748422D01*
X84671731Y-43786131D01*
X84725065Y-43808223D01*
X84880000Y-43828621D01*
X85034935Y-43808223D01*
X85131026Y-43768421D01*
X85179310Y-43748422D01*
X85303289Y-43653289D01*
X85398422Y-43529310D01*
X85420512Y-43475977D01*
X85458223Y-43384935D01*
X85478621Y-43230000D01*
X85458223Y-43075065D01*
X85398421Y-42930690D01*
X85303289Y-42806711D01*
X85303287Y-42806709D01*
X85303286Y-42806708D01*
X85179310Y-42711577D01*
X85034935Y-42651777D01*
X84880000Y-42631379D01*
X84725066Y-42651776D01*
X84580691Y-42711578D01*
X84580688Y-42711580D01*
X84456711Y-42806711D01*
X84361580Y-42930688D01*
X84361578Y-42930691D01*
X84301776Y-43075066D01*
X84281379Y-43229999D01*
X84281379Y-43230000D01*
X83535988Y-43230000D01*
X83518223Y-43095065D01*
X83458421Y-42950690D01*
X83363289Y-42826711D01*
X83363287Y-42826709D01*
X83363286Y-42826708D01*
X83239310Y-42731577D01*
X83094935Y-42671777D01*
X82940000Y-42651379D01*
X82785066Y-42671776D01*
X82640691Y-42731578D01*
X82640688Y-42731580D01*
X82516711Y-42826711D01*
X82421580Y-42950688D01*
X82421578Y-42950691D01*
X82361776Y-43095066D01*
X82341379Y-43249999D01*
X82341379Y-43250000D01*
X51100500Y-43250000D01*
X51100500Y-38360000D01*
X62944415Y-38360000D01*
X62953105Y-38509210D01*
X62964738Y-38708927D01*
X63025431Y-39053136D01*
X63125674Y-39387971D01*
X63125676Y-39387977D01*
X63125677Y-39387978D01*
X63264109Y-39708901D01*
X63264111Y-39708904D01*
X63438870Y-40011596D01*
X63438873Y-40011600D01*
X63647589Y-40291954D01*
X63887445Y-40546186D01*
X64041471Y-40675429D01*
X64062756Y-40693289D01*
X64155193Y-40770852D01*
X64409417Y-40938058D01*
X64447207Y-40962913D01*
X64759549Y-41119777D01*
X64923769Y-41179548D01*
X65087980Y-41239316D01*
X65087981Y-41239316D01*
X65087989Y-41239319D01*
X65428086Y-41319923D01*
X65626460Y-41343109D01*
X65775238Y-41360500D01*
X65775241Y-41360500D01*
X66124762Y-41360500D01*
X66254942Y-41345283D01*
X66471914Y-41319923D01*
X66812011Y-41239319D01*
X67140451Y-41119777D01*
X67452793Y-40962913D01*
X67744811Y-40770849D01*
X68012558Y-40546183D01*
X68252412Y-40291953D01*
X68461130Y-40011596D01*
X68635889Y-39708904D01*
X68774326Y-39387971D01*
X68874569Y-39053136D01*
X68935262Y-38708927D01*
X68955585Y-38360000D01*
X68935262Y-38011073D01*
X68874569Y-37666864D01*
X68774326Y-37332029D01*
X68635889Y-37011096D01*
X68461130Y-36708404D01*
X68252412Y-36428047D01*
X68012558Y-36173817D01*
X68012556Y-36173816D01*
X68012554Y-36173813D01*
X67744806Y-35949147D01*
X67452800Y-35757091D01*
X67452796Y-35757089D01*
X67452793Y-35757087D01*
X67140451Y-35600223D01*
X67140446Y-35600221D01*
X67140441Y-35600219D01*
X66812019Y-35480683D01*
X66812012Y-35480681D01*
X66812011Y-35480681D01*
X66621016Y-35435414D01*
X66471919Y-35400078D01*
X66471909Y-35400076D01*
X66124762Y-35359500D01*
X66124759Y-35359500D01*
X65775241Y-35359500D01*
X65775238Y-35359500D01*
X65428090Y-35400076D01*
X65428080Y-35400078D01*
X65087989Y-35480681D01*
X65087980Y-35480683D01*
X64759558Y-35600219D01*
X64759553Y-35600221D01*
X64447199Y-35757091D01*
X64155193Y-35949147D01*
X63887445Y-36173813D01*
X63647589Y-36428045D01*
X63438873Y-36708399D01*
X63438863Y-36708415D01*
X63264112Y-37011093D01*
X63264109Y-37011098D01*
X63125677Y-37332021D01*
X63125674Y-37332029D01*
X63041918Y-37611793D01*
X63025431Y-37666864D01*
X63025431Y-37666865D01*
X62964738Y-38011074D01*
X62964737Y-38011083D01*
X62944415Y-38360000D01*
X51100500Y-38360000D01*
X51100500Y-29122340D01*
X51103182Y-29096480D01*
X51105043Y-29087604D01*
X51102570Y-29067765D01*
X51445788Y-29067765D01*
X51475412Y-29337014D01*
X51543928Y-29599090D01*
X51649869Y-29848389D01*
X51649870Y-29848390D01*
X51790982Y-30079610D01*
X51964255Y-30287820D01*
X51964257Y-30287822D01*
X51964259Y-30287824D01*
X52069236Y-30381883D01*
X52165998Y-30468582D01*
X52391910Y-30618044D01*
X52637176Y-30733020D01*
X52896569Y-30811060D01*
X52896572Y-30811060D01*
X52896574Y-30811061D01*
X53164557Y-30850500D01*
X53164561Y-30850500D01*
X53367631Y-30850500D01*
X53570156Y-30835677D01*
X53570160Y-30835676D01*
X53570161Y-30835676D01*
X53680665Y-30811060D01*
X53834553Y-30776780D01*
X54087558Y-30680014D01*
X54323777Y-30547441D01*
X54538177Y-30381888D01*
X54726186Y-30186881D01*
X54883799Y-29966579D01*
X55007656Y-29725675D01*
X55095118Y-29469305D01*
X55131877Y-29270292D01*
X55144318Y-29202941D01*
X55144319Y-29202930D01*
X55148209Y-29096480D01*
X55154212Y-28932235D01*
X55139338Y-28797058D01*
X55124587Y-28662985D01*
X55056071Y-28400909D01*
X54950130Y-28151610D01*
X54932904Y-28123384D01*
X54809018Y-27920390D01*
X54635745Y-27712180D01*
X54635741Y-27712177D01*
X54635740Y-27712175D01*
X54434012Y-27531427D01*
X54434002Y-27531418D01*
X54208090Y-27381956D01*
X53962824Y-27266980D01*
X53805392Y-27219615D01*
X53703425Y-27188938D01*
X53435442Y-27149500D01*
X53435439Y-27149500D01*
X53232369Y-27149500D01*
X53029839Y-27164323D01*
X53029838Y-27164323D01*
X52765456Y-27223217D01*
X52765441Y-27223222D01*
X52512441Y-27319986D01*
X52276229Y-27452555D01*
X52276225Y-27452557D01*
X52061818Y-27618116D01*
X51873815Y-27813117D01*
X51873810Y-27813123D01*
X51716203Y-28033417D01*
X51716196Y-28033427D01*
X51592343Y-28274324D01*
X51592342Y-28274327D01*
X51504883Y-28530689D01*
X51504880Y-28530702D01*
X51455681Y-28797058D01*
X51455680Y-28797069D01*
X51445788Y-29067765D01*
X51102570Y-29067765D01*
X51101468Y-29058927D01*
X51100635Y-29045520D01*
X51100500Y-29043890D01*
X51100500Y-29043880D01*
X51097332Y-29024903D01*
X51096593Y-29019826D01*
X51090573Y-28971528D01*
X51090572Y-28971526D01*
X51088468Y-28964463D01*
X51086092Y-28957541D01*
X51086092Y-28957539D01*
X51072396Y-28932231D01*
X51062937Y-28914751D01*
X51060554Y-28910120D01*
X51039200Y-28866438D01*
X51034941Y-28860472D01*
X51030420Y-28854664D01*
X50994625Y-28821712D01*
X50990868Y-28818106D01*
X50063195Y-27890433D01*
X50029169Y-27828121D01*
X50026290Y-27801338D01*
X50026290Y-26374035D01*
X50026289Y-26374032D01*
X50024836Y-26366729D01*
X50011756Y-26300970D01*
X49956391Y-26218109D01*
X49873530Y-26162744D01*
X49873529Y-26162743D01*
X49800467Y-26148210D01*
X49800464Y-26148210D01*
X48051116Y-26148210D01*
X48051112Y-26148210D01*
X47978050Y-26162743D01*
X47895189Y-26218109D01*
X47839823Y-26300970D01*
X47825290Y-26374032D01*
X47825290Y-28123387D01*
X47059843Y-28123387D01*
X47202554Y-27993289D01*
X47325463Y-27830531D01*
X47416372Y-27647960D01*
X47472187Y-27451793D01*
X47491005Y-27248710D01*
X47472187Y-27045627D01*
X47416372Y-26849460D01*
X47325463Y-26666889D01*
X47325460Y-26666885D01*
X47202555Y-26504131D01*
X47051830Y-26366728D01*
X47051829Y-26366727D01*
X46878438Y-26259368D01*
X46878431Y-26259364D01*
X46878427Y-26259362D01*
X46761923Y-26214228D01*
X46688247Y-26185686D01*
X46565516Y-26162744D01*
X46487766Y-26148210D01*
X46283814Y-26148210D01*
X46206069Y-26162743D01*
X46083332Y-26185686D01*
X45935980Y-26242770D01*
X45893153Y-26259362D01*
X45893152Y-26259362D01*
X45893151Y-26259363D01*
X45893141Y-26259368D01*
X45719750Y-26366727D01*
X45719749Y-26366728D01*
X45569024Y-26504131D01*
X45446119Y-26666885D01*
X45355206Y-26849464D01*
X45299393Y-27045625D01*
X45280575Y-27248710D01*
X43525500Y-27248710D01*
X43525500Y-24151500D01*
X43545502Y-24083379D01*
X43599158Y-24036886D01*
X43651500Y-24025500D01*
X46469863Y-24025500D01*
X46480425Y-24027601D01*
X46500000Y-24027601D01*
X46519517Y-24019517D01*
X46525500Y-24005072D01*
X46527601Y-24000000D01*
X46527600Y-23999998D01*
X46527601Y-23999997D01*
X46527601Y-23980435D01*
X46525500Y-23969867D01*
X46525500Y-21929641D01*
X46545502Y-21861520D01*
X46599158Y-21815027D01*
X46658566Y-21803839D01*
X46685440Y-21805348D01*
X47356806Y-21133982D01*
X47402316Y-21219822D01*
X47522009Y-21360735D01*
X47669195Y-21472623D01*
X47715269Y-21493939D01*
X47044045Y-22165163D01*
X47044045Y-22165165D01*
X47218497Y-22284105D01*
X47218504Y-22284109D01*
X47458598Y-22399733D01*
X47458610Y-22399738D01*
X47713237Y-22478280D01*
X47713249Y-22478282D01*
X47976761Y-22518000D01*
X48243239Y-22518000D01*
X48506750Y-22478282D01*
X48506762Y-22478280D01*
X48761389Y-22399738D01*
X48761401Y-22399733D01*
X49001495Y-22284109D01*
X49175953Y-22165164D01*
X49175953Y-22165163D01*
X48505077Y-21494286D01*
X48627431Y-21420669D01*
X48761658Y-21293523D01*
X48865413Y-21140495D01*
X48866635Y-21137425D01*
X49534559Y-21805349D01*
X49583174Y-21744388D01*
X49716416Y-21513606D01*
X49716418Y-21513602D01*
X49813771Y-21265547D01*
X49813772Y-21265545D01*
X49873071Y-21005743D01*
X49892985Y-20740000D01*
X51407014Y-20740000D01*
X51426928Y-21005743D01*
X51486227Y-21265545D01*
X51486228Y-21265547D01*
X51583581Y-21513602D01*
X51583583Y-21513606D01*
X51716826Y-21744390D01*
X51716829Y-21744395D01*
X51765438Y-21805348D01*
X51765440Y-21805348D01*
X52436806Y-21133982D01*
X52482316Y-21219822D01*
X52602009Y-21360735D01*
X52749195Y-21472623D01*
X52795269Y-21493939D01*
X52124045Y-22165163D01*
X52124045Y-22165165D01*
X52298497Y-22284105D01*
X52298504Y-22284109D01*
X52538598Y-22399733D01*
X52538610Y-22399738D01*
X52793237Y-22478280D01*
X52793249Y-22478282D01*
X53056761Y-22518000D01*
X53323239Y-22518000D01*
X53586750Y-22478282D01*
X53586762Y-22478280D01*
X53841389Y-22399738D01*
X53841401Y-22399733D01*
X54081495Y-22284109D01*
X54255953Y-22165164D01*
X54255953Y-22165163D01*
X53585077Y-21494286D01*
X53707431Y-21420669D01*
X53841658Y-21293523D01*
X53945413Y-21140495D01*
X53946635Y-21137425D01*
X54614559Y-21805349D01*
X54663174Y-21744388D01*
X54796416Y-21513606D01*
X54796418Y-21513602D01*
X54893771Y-21265547D01*
X54893772Y-21265545D01*
X54953071Y-21005743D01*
X54972985Y-20740000D01*
X54953071Y-20474256D01*
X54893772Y-20214454D01*
X54893771Y-20214452D01*
X54796418Y-19966397D01*
X54796416Y-19966393D01*
X54663176Y-19735615D01*
X54663171Y-19735607D01*
X54614560Y-19674650D01*
X54614558Y-19674650D01*
X53943192Y-20346016D01*
X53897684Y-20260178D01*
X53777991Y-20119265D01*
X53630805Y-20007377D01*
X53584729Y-19986059D01*
X54255953Y-19314835D01*
X54255953Y-19314833D01*
X54081502Y-19195894D01*
X54081495Y-19195890D01*
X53841401Y-19080266D01*
X53841389Y-19080261D01*
X53586762Y-19001719D01*
X53586750Y-19001717D01*
X53323239Y-18962000D01*
X53056761Y-18962000D01*
X52793249Y-19001717D01*
X52793237Y-19001719D01*
X52538610Y-19080261D01*
X52538592Y-19080268D01*
X52298512Y-19195885D01*
X52298504Y-19195890D01*
X52124045Y-19314833D01*
X52124045Y-19314835D01*
X52794922Y-19985712D01*
X52672569Y-20059331D01*
X52538342Y-20186477D01*
X52434587Y-20339505D01*
X52433364Y-20342574D01*
X51765439Y-19674650D01*
X51765438Y-19674650D01*
X51716829Y-19735606D01*
X51716826Y-19735609D01*
X51583583Y-19966393D01*
X51583581Y-19966397D01*
X51486228Y-20214452D01*
X51486227Y-20214454D01*
X51426928Y-20474256D01*
X51407014Y-20740000D01*
X49892985Y-20740000D01*
X49873071Y-20474256D01*
X49813772Y-20214454D01*
X49813771Y-20214452D01*
X49716418Y-19966397D01*
X49716416Y-19966393D01*
X49583176Y-19735615D01*
X49583171Y-19735607D01*
X49534560Y-19674650D01*
X49534558Y-19674650D01*
X48863192Y-20346016D01*
X48817684Y-20260178D01*
X48697991Y-20119265D01*
X48550805Y-20007377D01*
X48504729Y-19986059D01*
X49175953Y-19314835D01*
X49175953Y-19314833D01*
X49001502Y-19195894D01*
X49001495Y-19195890D01*
X48761401Y-19080266D01*
X48761389Y-19080261D01*
X48506762Y-19001719D01*
X48506750Y-19001717D01*
X48243239Y-18962000D01*
X47976761Y-18962000D01*
X47713249Y-19001717D01*
X47713237Y-19001719D01*
X47458610Y-19080261D01*
X47458592Y-19080268D01*
X47218512Y-19195885D01*
X47218504Y-19195890D01*
X47044045Y-19314833D01*
X47044045Y-19314835D01*
X47714922Y-19985712D01*
X47592569Y-20059331D01*
X47458342Y-20186477D01*
X47354587Y-20339505D01*
X47353364Y-20342574D01*
X46685438Y-19674649D01*
X46658564Y-19676159D01*
X46589429Y-19660007D01*
X46540001Y-19609043D01*
X46525500Y-19550357D01*
X46525500Y-16489641D01*
X46545502Y-16421520D01*
X46599158Y-16375027D01*
X46658566Y-16363839D01*
X46685440Y-16365348D01*
X47356806Y-15693982D01*
X47402316Y-15779822D01*
X47522009Y-15920735D01*
X47669195Y-16032623D01*
X47715269Y-16053939D01*
X47044045Y-16725163D01*
X47044045Y-16725165D01*
X47218497Y-16844105D01*
X47218504Y-16844109D01*
X47458598Y-16959733D01*
X47458610Y-16959738D01*
X47713237Y-17038280D01*
X47713249Y-17038282D01*
X47976761Y-17078000D01*
X48243239Y-17078000D01*
X48506750Y-17038282D01*
X48506762Y-17038280D01*
X48761389Y-16959738D01*
X48761401Y-16959733D01*
X49001495Y-16844109D01*
X49175953Y-16725164D01*
X49175953Y-16725163D01*
X48505077Y-16054286D01*
X48627431Y-15980669D01*
X48761658Y-15853523D01*
X48865413Y-15700495D01*
X48866635Y-15697425D01*
X49534559Y-16365349D01*
X49583174Y-16304388D01*
X49716416Y-16073606D01*
X49716418Y-16073602D01*
X49813771Y-15825547D01*
X49813772Y-15825545D01*
X49873071Y-15565743D01*
X49892985Y-15300000D01*
X49873071Y-15034256D01*
X49813772Y-14774454D01*
X49813771Y-14774452D01*
X49716418Y-14526397D01*
X49716416Y-14526393D01*
X49583176Y-14295615D01*
X49583171Y-14295607D01*
X49534560Y-14234650D01*
X49534558Y-14234650D01*
X48863192Y-14906016D01*
X48817684Y-14820178D01*
X48697991Y-14679265D01*
X48550805Y-14567377D01*
X48504729Y-14546059D01*
X49175953Y-13874835D01*
X49172055Y-13833265D01*
X49185610Y-13763574D01*
X49234690Y-13712274D01*
X49297505Y-13695500D01*
X52002494Y-13695500D01*
X52070615Y-13715502D01*
G37*
%TD.AperFunction*%
%TA.AperFunction,Conductor*%
G36*
X46990615Y-13715502D02*
G01*
X47037108Y-13769158D01*
X47047944Y-13833265D01*
X47044045Y-13874835D01*
X47714922Y-14545712D01*
X47592569Y-14619331D01*
X47458342Y-14746477D01*
X47354587Y-14899505D01*
X47353364Y-14902574D01*
X46685438Y-14234649D01*
X46658564Y-14236159D01*
X46589429Y-14220007D01*
X46540001Y-14169043D01*
X46525500Y-14110357D01*
X46525500Y-13821500D01*
X46545502Y-13753379D01*
X46599158Y-13706886D01*
X46651500Y-13695500D01*
X46922494Y-13695500D01*
X46990615Y-13715502D01*
G37*
%TD.AperFunction*%
%TD*%
M02*
