%TF.GenerationSoftware,KiCad,Pcbnew,7.0.11+dfsg-1*%
%TF.CreationDate,2024-04-09T00:47:45+03:00*%
%TF.ProjectId,legacy_av_in,6c656761-6379-45f6-9176-5f696e2e6b69,rev?*%
%TF.SameCoordinates,Original*%
%TF.FileFunction,Copper,L2,Inr*%
%TF.FilePolarity,Positive*%
%FSLAX46Y46*%
G04 Gerber Fmt 4.6, Leading zero omitted, Abs format (unit mm)*
G04 Created by KiCad (PCBNEW 7.0.11+dfsg-1) date 2024-04-09 00:47:45*
%MOMM*%
%LPD*%
G01*
G04 APERTURE LIST*
%TA.AperFunction,ComponentPad*%
%ADD10R,1.700000X1.700000*%
%TD*%
%TA.AperFunction,ComponentPad*%
%ADD11O,1.700000X1.700000*%
%TD*%
%TA.AperFunction,ComponentPad*%
%ADD12C,2.540000*%
%TD*%
%TA.AperFunction,ComponentPad*%
%ADD13C,0.500000*%
%TD*%
%TA.AperFunction,ComponentPad*%
%ADD14C,5.500000*%
%TD*%
%TA.AperFunction,ComponentPad*%
%ADD15R,1.408000X1.408000*%
%TD*%
%TA.AperFunction,ComponentPad*%
%ADD16C,1.408000*%
%TD*%
%TA.AperFunction,ComponentPad*%
%ADD17O,2.730000X1.230000*%
%TD*%
%TA.AperFunction,ComponentPad*%
%ADD18O,1.230000X2.730000*%
%TD*%
%TA.AperFunction,ComponentPad*%
%ADD19O,1.800000X3.600000*%
%TD*%
%TA.AperFunction,ComponentPad*%
%ADD20O,4.200000X2.100000*%
%TD*%
%TA.AperFunction,ComponentPad*%
%ADD21C,0.600000*%
%TD*%
%TA.AperFunction,ComponentPad*%
%ADD22C,3.250000*%
%TD*%
%TA.AperFunction,ViaPad*%
%ADD23C,0.686000*%
%TD*%
G04 APERTURE END LIST*
D10*
%TO.N,/ADV_CLKIN*%
%TO.C,J1*%
X48925790Y-27248710D03*
D11*
%TO.N,/PCM_CLKIN*%
X46385790Y-27248710D03*
%TO.N,/ADV_LLC*%
X48925790Y-29788710D03*
%TO.N,unconnected-(J1-Pin_4-Pad4)*%
X46385790Y-29788710D03*
%TO.N,unconnected-(J1-Pin_5-Pad5)*%
X48925790Y-32328710D03*
%TO.N,unconnected-(J1-Pin_6-Pad6)*%
X46385790Y-32328710D03*
%TO.N,unconnected-(J1-Pin_7-Pad7)*%
X48925790Y-34868710D03*
%TO.N,unconnected-(J1-Pin_8-Pad8)*%
X46385790Y-34868710D03*
%TO.N,/ADV_VS*%
X48925790Y-37408710D03*
%TO.N,/ADV_IRQ*%
X46385790Y-37408710D03*
%TO.N,unconnected-(J1-Pin_11-Pad11)*%
X48925790Y-39948710D03*
%TO.N,/ADV_HS*%
X46385790Y-39948710D03*
%TO.N,/ADV_P6*%
X48925790Y-42488710D03*
%TO.N,/ADV_P7*%
X46385790Y-42488710D03*
%TO.N,/ADV_P4*%
X48925790Y-45028710D03*
%TO.N,/ADV_P5*%
X46385790Y-45028710D03*
%TO.N,/DVDD5*%
X48925790Y-47568710D03*
%TO.N,GND*%
X46385790Y-47568710D03*
%TO.N,/ADV_P2*%
X48925790Y-50108710D03*
%TO.N,/ADV_P3*%
X46385790Y-50108710D03*
%TO.N,/ADV_P0*%
X48925790Y-52648710D03*
%TO.N,/ADV_P1*%
X46385790Y-52648710D03*
%TO.N,/I2S_BCK_o*%
X48925790Y-55188710D03*
%TO.N,/I2S_WS_o*%
X46385790Y-55188710D03*
%TO.N,/I2S_DATA_o*%
X48925790Y-57728710D03*
%TO.N,unconnected-(J1-Pin_26-Pad26)*%
X46385790Y-57728710D03*
%TO.N,unconnected-(J1-Pin_27-Pad27)*%
X48925790Y-60268710D03*
%TO.N,unconnected-(J1-Pin_28-Pad28)*%
X46385790Y-60268710D03*
%TO.N,unconnected-(J1-Pin_29-Pad29)*%
X48925790Y-62808710D03*
%TO.N,unconnected-(J1-Pin_30-Pad30)*%
X46385790Y-62808710D03*
%TO.N,unconnected-(J1-Pin_31-Pad31)*%
X48925790Y-65348710D03*
%TO.N,unconnected-(J1-Pin_32-Pad32)*%
X46385790Y-65348710D03*
%TO.N,unconnected-(J1-Pin_33-Pad33)*%
X48925790Y-67888710D03*
%TO.N,unconnected-(J1-Pin_34-Pad34)*%
X46385790Y-67888710D03*
%TO.N,/DVDD3v3*%
X48925790Y-70428710D03*
%TO.N,GND*%
X46385790Y-70428710D03*
%TO.N,unconnected-(J1-Pin_37-Pad37)*%
X48925790Y-72968710D03*
%TO.N,unconnected-(J1-Pin_38-Pad38)*%
X46385790Y-72968710D03*
%TO.N,unconnected-(J1-Pin_39-Pad39)*%
X48925790Y-75508710D03*
%TO.N,unconnected-(J1-Pin_40-Pad40)*%
X46385790Y-75508710D03*
%TO.N,unconnected-(J1-Pin_41-Pad41)*%
X48925790Y-78048710D03*
%TO.N,unconnected-(J1-Pin_42-Pad42)*%
X46385790Y-78048710D03*
%TO.N,unconnected-(J1-Pin_43-Pad43)*%
X48925790Y-80588710D03*
%TO.N,unconnected-(J1-Pin_44-Pad44)*%
X46385790Y-80588710D03*
%TO.N,/I2S_BCK*%
X48925790Y-83128710D03*
%TO.N,/I2S_WS*%
X46385790Y-83128710D03*
%TO.N,/I2S_DATA*%
X48925790Y-85668710D03*
%TO.N,/SPDIF*%
X46385790Y-85668710D03*
%TO.N,/SDA*%
X48925790Y-88208710D03*
%TO.N,/SCL*%
X46385790Y-88208710D03*
%TD*%
D12*
%TO.N,GND*%
%TO.C,ST1*%
X53190000Y-15300000D03*
X48110000Y-15300000D03*
X53190000Y-20740000D03*
X48110000Y-20740000D03*
%TD*%
%TO.N,GND*%
%TO.C,ST2*%
X53190000Y-94720000D03*
X48110000Y-94720000D03*
X53190000Y-100160000D03*
X48110000Y-100160000D03*
%TD*%
D13*
%TO.N,GND*%
%TO.C,U2*%
X91670000Y-64190000D03*
X90720000Y-64190000D03*
X89770000Y-64190000D03*
X91670000Y-65140000D03*
X90720000Y-65140000D03*
X89770000Y-65140000D03*
X91670000Y-66090000D03*
X90720000Y-66090000D03*
X89770000Y-66090000D03*
%TD*%
D14*
%TO.N,N/C*%
%TO.C,MH4*%
X94900000Y-79930000D03*
%TD*%
D15*
%TO.N,GND*%
%TO.C,J4*%
X85190000Y-74890000D03*
D16*
X78390000Y-74890000D03*
%TO.N,/SV_Y*%
X85190000Y-72390000D03*
%TO.N,/SV_C*%
X78390000Y-72390000D03*
D17*
%TO.N,N/C*%
X81790000Y-78690000D03*
D18*
X75040000Y-77890000D03*
X88540000Y-77890000D03*
%TD*%
D19*
%TO.N,/CVBS1*%
%TO.C,J3*%
X61887500Y-75700000D03*
X69387500Y-75700000D03*
D20*
%TO.N,GND*%
X65637500Y-79400000D03*
%TD*%
D21*
%TO.N,GND*%
%TO.C,U1*%
X67100000Y-54277500D03*
X65600000Y-54277500D03*
X64100000Y-54277500D03*
X67100000Y-55777500D03*
X65600000Y-55777500D03*
X64100000Y-55777500D03*
X67100000Y-57277500D03*
X65600000Y-57277500D03*
X64100000Y-57277500D03*
%TD*%
D22*
%TO.N,Net-(J2-In)*%
%TO.C,J2*%
X105780000Y-70000000D03*
%TO.N,GND*%
X110080000Y-74300000D03*
X110080000Y-65700000D03*
X101480000Y-74300000D03*
X101480000Y-65700000D03*
%TD*%
D14*
%TO.N,N/C*%
%TO.C,MH5*%
X65950000Y-38360000D03*
%TD*%
D23*
%TO.N,GND*%
X52478408Y-65346427D03*
X52478408Y-72966427D03*
X93120000Y-73120000D03*
X77878408Y-39946427D03*
X49938408Y-93286427D03*
X118518408Y-80586427D03*
X67360000Y-50180000D03*
X113438408Y-65346427D03*
X118518408Y-65346427D03*
X80418408Y-37406427D03*
X44858408Y-57726427D03*
X60098408Y-70426427D03*
X80418408Y-72966427D03*
X60098408Y-34866427D03*
X75338408Y-34866427D03*
X103278408Y-78046427D03*
X88038408Y-55186427D03*
X108358408Y-70426427D03*
X75240000Y-60690000D03*
X118518408Y-70426427D03*
X57558408Y-67886427D03*
X55018408Y-78046427D03*
X103278408Y-70426427D03*
X44858408Y-37406427D03*
X80418408Y-34866427D03*
X44858408Y-39946427D03*
X67718408Y-34866427D03*
X105818408Y-75506427D03*
X49938408Y-17086427D03*
X75900000Y-51070000D03*
X63700000Y-50247000D03*
X55018408Y-32326427D03*
X83390000Y-63260000D03*
X80418408Y-75506427D03*
X44858408Y-45026427D03*
X72798408Y-47566427D03*
X60098408Y-78046427D03*
X72798408Y-42486427D03*
X115978408Y-75506427D03*
X59990000Y-60390000D03*
X85498408Y-78046427D03*
X59240000Y-57500000D03*
X75338408Y-80586427D03*
X52478408Y-78046427D03*
X85498408Y-55186427D03*
X79710000Y-46710000D03*
X115978408Y-72966427D03*
X115978408Y-78046427D03*
X44858408Y-78046427D03*
X93690000Y-69810000D03*
X65178408Y-34866427D03*
X44858408Y-85666427D03*
X52478408Y-24706427D03*
X105818408Y-78046427D03*
X70258408Y-39946427D03*
X44858408Y-32326427D03*
X82958408Y-39946427D03*
X70258408Y-65346427D03*
X113438408Y-72966427D03*
X44858408Y-80586427D03*
X91160000Y-68900000D03*
X52478408Y-42486427D03*
X83930000Y-45280000D03*
X67718408Y-65346427D03*
X70258408Y-34866427D03*
X52478408Y-62806427D03*
X88038408Y-75506427D03*
X47398408Y-90746427D03*
X75338408Y-39946427D03*
X44858408Y-29786427D03*
X118518408Y-62806427D03*
X100738408Y-80586427D03*
X118518408Y-67886427D03*
X44858408Y-42486427D03*
X82958408Y-72966427D03*
X113438408Y-80586427D03*
X105818408Y-72966427D03*
X55018408Y-75506427D03*
X70258408Y-45026427D03*
X78070000Y-59290000D03*
X75338408Y-75506427D03*
X110898408Y-80586427D03*
X49938408Y-95826427D03*
X62638408Y-72966427D03*
X108358408Y-80586427D03*
X113438408Y-70426427D03*
X60098408Y-37406427D03*
X52478408Y-32326427D03*
X44858408Y-34866427D03*
X82958408Y-75506427D03*
X77878408Y-42486427D03*
X75338408Y-42486427D03*
X88038408Y-52646427D03*
X75338408Y-37406427D03*
X52478408Y-57726427D03*
X55018408Y-95826427D03*
X113438408Y-62806427D03*
X44858408Y-55186427D03*
X108358408Y-62806427D03*
X95658408Y-70426427D03*
X57558408Y-62806427D03*
X118518408Y-72966427D03*
X80418408Y-67886427D03*
X70258408Y-37406427D03*
X90578408Y-78046427D03*
X105818408Y-65346427D03*
X90578408Y-75506427D03*
X62638408Y-39946427D03*
X44858408Y-50106427D03*
X118518408Y-78046427D03*
X44858408Y-65346427D03*
X118518408Y-75506427D03*
X52478408Y-90746427D03*
X55018408Y-93286427D03*
X77878408Y-78046427D03*
X110898408Y-78046427D03*
X52478408Y-70426427D03*
X80418408Y-80586427D03*
X75930000Y-52480000D03*
X100738408Y-70426427D03*
X85498408Y-39946427D03*
X60098408Y-62806427D03*
X57558408Y-78046427D03*
X88038408Y-34866427D03*
X85498408Y-52646427D03*
X57558408Y-75506427D03*
X110898408Y-62806427D03*
X52478408Y-67886427D03*
X85498408Y-70426427D03*
X108358408Y-67886427D03*
X65178408Y-75506427D03*
X67718408Y-72966427D03*
X55018408Y-24706427D03*
X44858408Y-52646427D03*
X57558408Y-65346427D03*
X44858408Y-70426427D03*
X52478408Y-60266427D03*
X88038408Y-39946427D03*
X60098408Y-75506427D03*
X55018408Y-72966427D03*
X57558408Y-70426427D03*
X80418408Y-39946427D03*
X80418408Y-65346427D03*
X44858408Y-62806427D03*
X77878408Y-34866427D03*
X44858408Y-88206427D03*
X49938408Y-24706427D03*
X82958408Y-52646427D03*
X57558408Y-57726427D03*
X108358408Y-78046427D03*
X88038408Y-67886427D03*
X44858408Y-83126427D03*
X88038408Y-37406427D03*
X115978408Y-80586427D03*
X81560000Y-43830000D03*
X82958408Y-80586427D03*
X57558408Y-34866427D03*
X75338408Y-65346427D03*
X72798408Y-39946427D03*
X88038408Y-50106427D03*
X44858408Y-60266427D03*
X57558408Y-72966427D03*
X77878408Y-37406427D03*
X113438408Y-75506427D03*
X47398408Y-24706427D03*
X44858408Y-47566427D03*
X55018408Y-90746427D03*
X72798408Y-37406427D03*
X82958408Y-55186427D03*
X55018408Y-65346427D03*
X85498408Y-80586427D03*
X55018408Y-17086427D03*
X80418408Y-52646427D03*
X103278408Y-80586427D03*
X85150000Y-45400000D03*
X100738408Y-78046427D03*
X49938408Y-90746427D03*
X85498408Y-37406427D03*
X67718408Y-62806427D03*
X44858408Y-67886427D03*
X85498408Y-67886427D03*
X82958408Y-67886427D03*
X115978408Y-65346427D03*
X55018408Y-19626427D03*
X55018408Y-45026427D03*
X82958408Y-37406427D03*
X44858408Y-27246427D03*
X60098408Y-50106427D03*
X77878408Y-80586427D03*
X52478408Y-75506427D03*
X57558408Y-47566427D03*
X82958408Y-34866427D03*
X88038408Y-72966427D03*
X115978408Y-62806427D03*
X110898408Y-70426427D03*
X67880000Y-71320000D03*
X55018408Y-34866427D03*
X55018408Y-62806427D03*
X62638408Y-34866427D03*
X44858408Y-75506427D03*
X85498408Y-34866427D03*
X88038408Y-70426427D03*
X88038408Y-80586427D03*
X55018408Y-27246427D03*
X72798408Y-34866427D03*
X62638408Y-70426427D03*
X44858408Y-72966427D03*
X49938408Y-22166427D03*
X55018408Y-22166427D03*
X98198408Y-78046427D03*
X55018408Y-70426427D03*
X49938408Y-19626427D03*
X55018408Y-98366427D03*
X105818408Y-80586427D03*
X55018408Y-67886427D03*
X96590000Y-60240000D03*
X103278408Y-67886427D03*
X78030000Y-61420000D03*
X60098408Y-72966427D03*
X90578408Y-80586427D03*
X49938408Y-98366427D03*
X113438408Y-78046427D03*
X60098408Y-65346427D03*
%TO.N,/DVDD3v3*%
X50910000Y-70260000D03*
X50880000Y-71630000D03*
X68070000Y-52940000D03*
X85530000Y-64178000D03*
X76260000Y-61340000D03*
X92590000Y-68270000D03*
X83620000Y-62140000D03*
X84070000Y-70250000D03*
X85030000Y-62190000D03*
X84060000Y-71020000D03*
X82250000Y-62180000D03*
%TO.N,/DVDD5*%
X82940000Y-43250000D03*
X84880000Y-43230000D03*
%TO.N,/DVDD1v8*%
X87850000Y-47230000D03*
X87730000Y-65680000D03*
X66500000Y-49780000D03*
X87770000Y-48640000D03*
X87610000Y-62650000D03*
X86960000Y-47890000D03*
X68280000Y-59890000D03*
X62620000Y-59010000D03*
X61930000Y-56570000D03*
X86310000Y-48840000D03*
%TO.N,/SV_C*%
X77610000Y-67510000D03*
%TO.N,/SDA_F*%
X70500000Y-56510000D03*
X73450000Y-58340000D03*
X56210000Y-80150000D03*
X89911998Y-61420000D03*
X71140000Y-58470000D03*
%TO.N,/SCL_F*%
X70520000Y-55350000D03*
X90960000Y-62030000D03*
X55320000Y-82270000D03*
%TO.N,/ADV_CLKIN*%
X51560000Y-49480000D03*
X55540000Y-60150000D03*
X55110000Y-53100000D03*
%TO.N,/ADV_LLC*%
X67690000Y-44740000D03*
X68200000Y-49080000D03*
%TO.N,/I2S_BCK_o*%
X73770000Y-51810000D03*
%TO.N,/I2S_WS_o*%
X73790000Y-50860000D03*
%TO.N,/I2S_DATA_o*%
X73760000Y-52800000D03*
%TO.N,Net-(U2-ADDR)*%
X93680000Y-65180000D03*
X98510000Y-70220000D03*
%TO.N,/CVBS2*%
X73910000Y-67940000D03*
X87550000Y-63510000D03*
%TO.N,Net-(U1-~PWRDWN)*%
X80730000Y-55730000D03*
X69530000Y-53190000D03*
%TO.N,Net-(U1-~RESET)*%
X81130000Y-59110000D03*
X69210000Y-57370000D03*
%TO.N,Net-(U2-RSTB)*%
X86990000Y-58050000D03*
X93880000Y-64260000D03*
%TD*%
%TA.AperFunction,Conductor*%
%TO.N,GND*%
G36*
X57156621Y-13715502D02*
G01*
X57203114Y-13769158D01*
X57214500Y-13821500D01*
X57214500Y-32449867D01*
X57212398Y-32460435D01*
X57212399Y-32479999D01*
X57214498Y-32485067D01*
X57214499Y-32485072D01*
X57214500Y-32485072D01*
X57220483Y-32499517D01*
X57240000Y-32507601D01*
X57259575Y-32507601D01*
X57270137Y-32505500D01*
X89398500Y-32505500D01*
X89466621Y-32525502D01*
X89513114Y-32579158D01*
X89524500Y-32631500D01*
X89524500Y-59469867D01*
X89522398Y-59480435D01*
X89522399Y-59499999D01*
X89524498Y-59505067D01*
X89524499Y-59505072D01*
X89524500Y-59505072D01*
X89530483Y-59519517D01*
X89550000Y-59527601D01*
X89569575Y-59527601D01*
X89580137Y-59525500D01*
X119688500Y-59525500D01*
X119756621Y-59545502D01*
X119803114Y-59599158D01*
X119814500Y-59651500D01*
X119814500Y-83348500D01*
X119794498Y-83416621D01*
X119740842Y-83463114D01*
X119688500Y-83474500D01*
X57270136Y-83474500D01*
X57259574Y-83472399D01*
X57239998Y-83472399D01*
X57234931Y-83474498D01*
X57234928Y-83474500D01*
X57220482Y-83480483D01*
X57212399Y-83499999D01*
X57212399Y-83519575D01*
X57214500Y-83530136D01*
X57214500Y-101598500D01*
X57194498Y-101666621D01*
X57140842Y-101713114D01*
X57088500Y-101724500D01*
X46651500Y-101724500D01*
X46583379Y-101704498D01*
X46536886Y-101650842D01*
X46525500Y-101598500D01*
X46525500Y-91530136D01*
X46527601Y-91519575D01*
X46527601Y-91499999D01*
X46519517Y-91480483D01*
X46505072Y-91474500D01*
X46505072Y-91474499D01*
X46505067Y-91474498D01*
X46500000Y-91472399D01*
X46480426Y-91472399D01*
X46469864Y-91474500D01*
X43651500Y-91474500D01*
X43583379Y-91454498D01*
X43536886Y-91400842D01*
X43525500Y-91348500D01*
X43525500Y-88208710D01*
X45280575Y-88208710D01*
X45299393Y-88411794D01*
X45355206Y-88607955D01*
X45355207Y-88607957D01*
X45355208Y-88607960D01*
X45446117Y-88790531D01*
X45446118Y-88790532D01*
X45446119Y-88790534D01*
X45569024Y-88953288D01*
X45719749Y-89090691D01*
X45719750Y-89090692D01*
X45893141Y-89198051D01*
X45893144Y-89198052D01*
X45893153Y-89198058D01*
X46083334Y-89271734D01*
X46283814Y-89309210D01*
X46283816Y-89309210D01*
X46487764Y-89309210D01*
X46487766Y-89309210D01*
X46688246Y-89271734D01*
X46878427Y-89198058D01*
X47051831Y-89090691D01*
X47202554Y-88953289D01*
X47325463Y-88790531D01*
X47416372Y-88607960D01*
X47472187Y-88411793D01*
X47491005Y-88208710D01*
X47820575Y-88208710D01*
X47839393Y-88411794D01*
X47895206Y-88607955D01*
X47895207Y-88607957D01*
X47895208Y-88607960D01*
X47986117Y-88790531D01*
X47986118Y-88790532D01*
X47986119Y-88790534D01*
X48109024Y-88953288D01*
X48259749Y-89090691D01*
X48259750Y-89090692D01*
X48433141Y-89198051D01*
X48433144Y-89198052D01*
X48433153Y-89198058D01*
X48623334Y-89271734D01*
X48823814Y-89309210D01*
X48823816Y-89309210D01*
X49027764Y-89309210D01*
X49027766Y-89309210D01*
X49228246Y-89271734D01*
X49418427Y-89198058D01*
X49591831Y-89090691D01*
X49742554Y-88953289D01*
X49865463Y-88790531D01*
X49956372Y-88607960D01*
X50012187Y-88411793D01*
X50031005Y-88208710D01*
X50012187Y-88005627D01*
X49956372Y-87809460D01*
X49865463Y-87626889D01*
X49829760Y-87579610D01*
X49742555Y-87464131D01*
X49591830Y-87326728D01*
X49591829Y-87326727D01*
X49418438Y-87219368D01*
X49418431Y-87219364D01*
X49418427Y-87219362D01*
X49301923Y-87174228D01*
X49228247Y-87145686D01*
X49161419Y-87133194D01*
X49027766Y-87108210D01*
X48823814Y-87108210D01*
X48723574Y-87126948D01*
X48623332Y-87145686D01*
X48475980Y-87202770D01*
X48433153Y-87219362D01*
X48433152Y-87219362D01*
X48433151Y-87219363D01*
X48433141Y-87219368D01*
X48259750Y-87326727D01*
X48259749Y-87326728D01*
X48109024Y-87464131D01*
X47986119Y-87626885D01*
X47895206Y-87809464D01*
X47839393Y-88005625D01*
X47820575Y-88208710D01*
X47491005Y-88208710D01*
X47472187Y-88005627D01*
X47416372Y-87809460D01*
X47325463Y-87626889D01*
X47289760Y-87579610D01*
X47202555Y-87464131D01*
X47051830Y-87326728D01*
X47051829Y-87326727D01*
X46878438Y-87219368D01*
X46878431Y-87219364D01*
X46878427Y-87219362D01*
X46761923Y-87174228D01*
X46688247Y-87145686D01*
X46621419Y-87133194D01*
X46487766Y-87108210D01*
X46283814Y-87108210D01*
X46183574Y-87126948D01*
X46083332Y-87145686D01*
X45935980Y-87202770D01*
X45893153Y-87219362D01*
X45893152Y-87219362D01*
X45893151Y-87219363D01*
X45893141Y-87219368D01*
X45719750Y-87326727D01*
X45719749Y-87326728D01*
X45569024Y-87464131D01*
X45446119Y-87626885D01*
X45355206Y-87809464D01*
X45299393Y-88005625D01*
X45280575Y-88208710D01*
X43525500Y-88208710D01*
X43525500Y-85668710D01*
X45280575Y-85668710D01*
X45299393Y-85871794D01*
X45355206Y-86067955D01*
X45355207Y-86067957D01*
X45355208Y-86067960D01*
X45446117Y-86250531D01*
X45446118Y-86250532D01*
X45446119Y-86250534D01*
X45569024Y-86413288D01*
X45719749Y-86550691D01*
X45719750Y-86550692D01*
X45893141Y-86658051D01*
X45893144Y-86658052D01*
X45893153Y-86658058D01*
X46083334Y-86731734D01*
X46283814Y-86769210D01*
X46283816Y-86769210D01*
X46487764Y-86769210D01*
X46487766Y-86769210D01*
X46688246Y-86731734D01*
X46878427Y-86658058D01*
X47051831Y-86550691D01*
X47202554Y-86413289D01*
X47325463Y-86250531D01*
X47416372Y-86067960D01*
X47472187Y-85871793D01*
X47491005Y-85668710D01*
X47820575Y-85668710D01*
X47839393Y-85871794D01*
X47895206Y-86067955D01*
X47895207Y-86067957D01*
X47895208Y-86067960D01*
X47986117Y-86250531D01*
X47986118Y-86250532D01*
X47986119Y-86250534D01*
X48109024Y-86413288D01*
X48259749Y-86550691D01*
X48259750Y-86550692D01*
X48433141Y-86658051D01*
X48433144Y-86658052D01*
X48433153Y-86658058D01*
X48623334Y-86731734D01*
X48823814Y-86769210D01*
X48823816Y-86769210D01*
X49027764Y-86769210D01*
X49027766Y-86769210D01*
X49228246Y-86731734D01*
X49418427Y-86658058D01*
X49564255Y-86567765D01*
X51445788Y-86567765D01*
X51475412Y-86837014D01*
X51543928Y-87099090D01*
X51649869Y-87348389D01*
X51649870Y-87348390D01*
X51790982Y-87579610D01*
X51964255Y-87787820D01*
X51964257Y-87787822D01*
X51964259Y-87787824D01*
X51988411Y-87809464D01*
X52165998Y-87968582D01*
X52391910Y-88118044D01*
X52637176Y-88233020D01*
X52896569Y-88311060D01*
X52896572Y-88311060D01*
X52896574Y-88311061D01*
X53164557Y-88350500D01*
X53164561Y-88350500D01*
X53367631Y-88350500D01*
X53570156Y-88335677D01*
X53570160Y-88335676D01*
X53570161Y-88335676D01*
X53680665Y-88311060D01*
X53834553Y-88276780D01*
X54087558Y-88180014D01*
X54323777Y-88047441D01*
X54538177Y-87881888D01*
X54726186Y-87686881D01*
X54883799Y-87466579D01*
X55007656Y-87225675D01*
X55095118Y-86969305D01*
X55132077Y-86769210D01*
X55144318Y-86702941D01*
X55144319Y-86702930D01*
X55145959Y-86658051D01*
X55154212Y-86432235D01*
X55139338Y-86297058D01*
X55124587Y-86162985D01*
X55056071Y-85900909D01*
X54950130Y-85651610D01*
X54809018Y-85420390D01*
X54635745Y-85212180D01*
X54635741Y-85212177D01*
X54635740Y-85212175D01*
X54434012Y-85031427D01*
X54434002Y-85031418D01*
X54208090Y-84881956D01*
X53962824Y-84766980D01*
X53805392Y-84719615D01*
X53703425Y-84688938D01*
X53435442Y-84649500D01*
X53435439Y-84649500D01*
X53232369Y-84649500D01*
X53029839Y-84664323D01*
X53029838Y-84664323D01*
X52765456Y-84723217D01*
X52765441Y-84723222D01*
X52512441Y-84819986D01*
X52276229Y-84952555D01*
X52276225Y-84952557D01*
X52061818Y-85118116D01*
X51873815Y-85313117D01*
X51873810Y-85313123D01*
X51716203Y-85533417D01*
X51716196Y-85533427D01*
X51592343Y-85774324D01*
X51592342Y-85774327D01*
X51504883Y-86030689D01*
X51504880Y-86030702D01*
X51455681Y-86297058D01*
X51455680Y-86297069D01*
X51445788Y-86567765D01*
X49564255Y-86567765D01*
X49591831Y-86550691D01*
X49742554Y-86413289D01*
X49865463Y-86250531D01*
X49956372Y-86067960D01*
X50012187Y-85871793D01*
X50031005Y-85668710D01*
X50012187Y-85465627D01*
X49956372Y-85269460D01*
X49865463Y-85086889D01*
X49823580Y-85031427D01*
X49742555Y-84924131D01*
X49591830Y-84786728D01*
X49591829Y-84786727D01*
X49418438Y-84679368D01*
X49418431Y-84679364D01*
X49418427Y-84679362D01*
X49301923Y-84634228D01*
X49228247Y-84605686D01*
X49161419Y-84593194D01*
X49027766Y-84568210D01*
X48823814Y-84568210D01*
X48723574Y-84586948D01*
X48623332Y-84605686D01*
X48510236Y-84649500D01*
X48433153Y-84679362D01*
X48433152Y-84679362D01*
X48433151Y-84679363D01*
X48433141Y-84679368D01*
X48259750Y-84786727D01*
X48259749Y-84786728D01*
X48109024Y-84924131D01*
X47986119Y-85086885D01*
X47895206Y-85269464D01*
X47839393Y-85465625D01*
X47820575Y-85668710D01*
X47491005Y-85668710D01*
X47472187Y-85465627D01*
X47416372Y-85269460D01*
X47325463Y-85086889D01*
X47283580Y-85031427D01*
X47202555Y-84924131D01*
X47051830Y-84786728D01*
X47051829Y-84786727D01*
X46878438Y-84679368D01*
X46878431Y-84679364D01*
X46878427Y-84679362D01*
X46761923Y-84634228D01*
X46688247Y-84605686D01*
X46621419Y-84593194D01*
X46487766Y-84568210D01*
X46283814Y-84568210D01*
X46183574Y-84586948D01*
X46083332Y-84605686D01*
X45970236Y-84649500D01*
X45893153Y-84679362D01*
X45893152Y-84679362D01*
X45893151Y-84679363D01*
X45893141Y-84679368D01*
X45719750Y-84786727D01*
X45719749Y-84786728D01*
X45569024Y-84924131D01*
X45446119Y-85086885D01*
X45355206Y-85269464D01*
X45299393Y-85465625D01*
X45280575Y-85668710D01*
X43525500Y-85668710D01*
X43525500Y-83128710D01*
X45280575Y-83128710D01*
X45299393Y-83331794D01*
X45355206Y-83527955D01*
X45355207Y-83527957D01*
X45355208Y-83527960D01*
X45446117Y-83710531D01*
X45446118Y-83710532D01*
X45446119Y-83710534D01*
X45569024Y-83873288D01*
X45719749Y-84010691D01*
X45719750Y-84010692D01*
X45893141Y-84118051D01*
X45893144Y-84118052D01*
X45893153Y-84118058D01*
X46083334Y-84191734D01*
X46283814Y-84229210D01*
X46283816Y-84229210D01*
X46487764Y-84229210D01*
X46487766Y-84229210D01*
X46688246Y-84191734D01*
X46878427Y-84118058D01*
X47051831Y-84010691D01*
X47202554Y-83873289D01*
X47325463Y-83710531D01*
X47416372Y-83527960D01*
X47472187Y-83331793D01*
X47491005Y-83128710D01*
X47820575Y-83128710D01*
X47839393Y-83331794D01*
X47895206Y-83527955D01*
X47895207Y-83527957D01*
X47895208Y-83527960D01*
X47986117Y-83710531D01*
X47986118Y-83710532D01*
X47986119Y-83710534D01*
X48109024Y-83873288D01*
X48259749Y-84010691D01*
X48259750Y-84010692D01*
X48433141Y-84118051D01*
X48433144Y-84118052D01*
X48433153Y-84118058D01*
X48623334Y-84191734D01*
X48823814Y-84229210D01*
X48823816Y-84229210D01*
X49027764Y-84229210D01*
X49027766Y-84229210D01*
X49228246Y-84191734D01*
X49418427Y-84118058D01*
X49591831Y-84010691D01*
X49742554Y-83873289D01*
X49865463Y-83710531D01*
X49956372Y-83527960D01*
X50012187Y-83331793D01*
X50031005Y-83128710D01*
X50012187Y-82925627D01*
X49956372Y-82729460D01*
X49865463Y-82546889D01*
X49773368Y-82424935D01*
X49742555Y-82384131D01*
X49617358Y-82270000D01*
X54721379Y-82270000D01*
X54741777Y-82424935D01*
X54801577Y-82569310D01*
X54896710Y-82693289D01*
X55020689Y-82788422D01*
X55111731Y-82826131D01*
X55165065Y-82848223D01*
X55320000Y-82868621D01*
X55474935Y-82848223D01*
X55568866Y-82809316D01*
X55619310Y-82788422D01*
X55743289Y-82693289D01*
X55838422Y-82569310D01*
X55860512Y-82515977D01*
X55898223Y-82424935D01*
X55918621Y-82270000D01*
X55898223Y-82115065D01*
X55838421Y-81970690D01*
X55743289Y-81846711D01*
X55743287Y-81846709D01*
X55743286Y-81846708D01*
X55619310Y-81751577D01*
X55474935Y-81691777D01*
X55320000Y-81671379D01*
X55165066Y-81691776D01*
X55020691Y-81751578D01*
X55020688Y-81751580D01*
X54896711Y-81846711D01*
X54801580Y-81970688D01*
X54801578Y-81970691D01*
X54741776Y-82115066D01*
X54721379Y-82269999D01*
X54721379Y-82270000D01*
X49617358Y-82270000D01*
X49591830Y-82246728D01*
X49591829Y-82246727D01*
X49418438Y-82139368D01*
X49418431Y-82139364D01*
X49418427Y-82139362D01*
X49301923Y-82094228D01*
X49228247Y-82065686D01*
X49161419Y-82053194D01*
X49027766Y-82028210D01*
X48823814Y-82028210D01*
X48723574Y-82046948D01*
X48623332Y-82065686D01*
X48475980Y-82122770D01*
X48433153Y-82139362D01*
X48433152Y-82139362D01*
X48433151Y-82139363D01*
X48433141Y-82139368D01*
X48259750Y-82246727D01*
X48259749Y-82246728D01*
X48109024Y-82384131D01*
X47986119Y-82546885D01*
X47895206Y-82729464D01*
X47839393Y-82925625D01*
X47820575Y-83128710D01*
X47491005Y-83128710D01*
X47472187Y-82925627D01*
X47416372Y-82729460D01*
X47325463Y-82546889D01*
X47233368Y-82424935D01*
X47202555Y-82384131D01*
X47051830Y-82246728D01*
X47051829Y-82246727D01*
X46878438Y-82139368D01*
X46878431Y-82139364D01*
X46878427Y-82139362D01*
X46761923Y-82094228D01*
X46688247Y-82065686D01*
X46621419Y-82053194D01*
X46487766Y-82028210D01*
X46283814Y-82028210D01*
X46183574Y-82046948D01*
X46083332Y-82065686D01*
X45935980Y-82122770D01*
X45893153Y-82139362D01*
X45893152Y-82139362D01*
X45893151Y-82139363D01*
X45893141Y-82139368D01*
X45719750Y-82246727D01*
X45719749Y-82246728D01*
X45569024Y-82384131D01*
X45446119Y-82546885D01*
X45355206Y-82729464D01*
X45299393Y-82925625D01*
X45280575Y-83128710D01*
X43525500Y-83128710D01*
X43525500Y-80588710D01*
X45280575Y-80588710D01*
X45299393Y-80791794D01*
X45355206Y-80987955D01*
X45355207Y-80987957D01*
X45355208Y-80987960D01*
X45446117Y-81170531D01*
X45446118Y-81170532D01*
X45446119Y-81170534D01*
X45569024Y-81333288D01*
X45719749Y-81470691D01*
X45719750Y-81470692D01*
X45893141Y-81578051D01*
X45893144Y-81578052D01*
X45893153Y-81578058D01*
X46083334Y-81651734D01*
X46283814Y-81689210D01*
X46283816Y-81689210D01*
X46487764Y-81689210D01*
X46487766Y-81689210D01*
X46688246Y-81651734D01*
X46878427Y-81578058D01*
X47051831Y-81470691D01*
X47202554Y-81333289D01*
X47325463Y-81170531D01*
X47416372Y-80987960D01*
X47472187Y-80791793D01*
X47491005Y-80588710D01*
X47820575Y-80588710D01*
X47839393Y-80791794D01*
X47895206Y-80987955D01*
X47895207Y-80987957D01*
X47895208Y-80987960D01*
X47986117Y-81170531D01*
X47986118Y-81170532D01*
X47986119Y-81170534D01*
X48109024Y-81333288D01*
X48259749Y-81470691D01*
X48259750Y-81470692D01*
X48433141Y-81578051D01*
X48433144Y-81578052D01*
X48433153Y-81578058D01*
X48623334Y-81651734D01*
X48823814Y-81689210D01*
X48823816Y-81689210D01*
X49027764Y-81689210D01*
X49027766Y-81689210D01*
X49228246Y-81651734D01*
X49418427Y-81578058D01*
X49591831Y-81470691D01*
X49742554Y-81333289D01*
X49865463Y-81170531D01*
X49956372Y-80987960D01*
X50012187Y-80791793D01*
X50031005Y-80588710D01*
X50012187Y-80385627D01*
X49956372Y-80189460D01*
X49936723Y-80150000D01*
X55611379Y-80150000D01*
X55631777Y-80304935D01*
X55691577Y-80449310D01*
X55786710Y-80573289D01*
X55910689Y-80668422D01*
X56001731Y-80706131D01*
X56055065Y-80728223D01*
X56210000Y-80748621D01*
X56364935Y-80728223D01*
X56455977Y-80690512D01*
X56509310Y-80668422D01*
X56633289Y-80573289D01*
X56728422Y-80449310D01*
X56750512Y-80395977D01*
X56788223Y-80304935D01*
X56808621Y-80150000D01*
X56788223Y-79995065D01*
X56761272Y-79930000D01*
X91894415Y-79930000D01*
X91907228Y-80149999D01*
X91914738Y-80278927D01*
X91975431Y-80623136D01*
X92075674Y-80957971D01*
X92075676Y-80957977D01*
X92075677Y-80957978D01*
X92214109Y-81278901D01*
X92214112Y-81278906D01*
X92245510Y-81333289D01*
X92388870Y-81581596D01*
X92597588Y-81861953D01*
X92789800Y-82065686D01*
X92837445Y-82116186D01*
X93105193Y-82340852D01*
X93233035Y-82424935D01*
X93397207Y-82532913D01*
X93709549Y-82689777D01*
X93873769Y-82749548D01*
X94037980Y-82809316D01*
X94037981Y-82809316D01*
X94037989Y-82809319D01*
X94378086Y-82889923D01*
X94576460Y-82913109D01*
X94725238Y-82930500D01*
X94725241Y-82930500D01*
X95074762Y-82930500D01*
X95204942Y-82915283D01*
X95421914Y-82889923D01*
X95762011Y-82809319D01*
X96090451Y-82689777D01*
X96402793Y-82532913D01*
X96694811Y-82340849D01*
X96962558Y-82116183D01*
X97202412Y-81861953D01*
X97411130Y-81581596D01*
X97585889Y-81278904D01*
X97724326Y-80957971D01*
X97824569Y-80623136D01*
X97885262Y-80278927D01*
X97905585Y-79930000D01*
X97885262Y-79581073D01*
X97824569Y-79236864D01*
X97724326Y-78902029D01*
X97612534Y-78642866D01*
X97585890Y-78581098D01*
X97585887Y-78581093D01*
X97567441Y-78549143D01*
X97411130Y-78278404D01*
X97202412Y-77998047D01*
X96962558Y-77743817D01*
X96962556Y-77743816D01*
X96962554Y-77743813D01*
X96757185Y-77571489D01*
X96694811Y-77519151D01*
X96694809Y-77519150D01*
X96694806Y-77519147D01*
X96402800Y-77327091D01*
X96402796Y-77327089D01*
X96402793Y-77327087D01*
X96090451Y-77170223D01*
X96090446Y-77170221D01*
X96090441Y-77170219D01*
X95762019Y-77050683D01*
X95762012Y-77050681D01*
X95762011Y-77050681D01*
X95487774Y-76985686D01*
X95421919Y-76970078D01*
X95421909Y-76970076D01*
X95074762Y-76929500D01*
X95074759Y-76929500D01*
X94725241Y-76929500D01*
X94725238Y-76929500D01*
X94378090Y-76970076D01*
X94378080Y-76970078D01*
X94037989Y-77050681D01*
X94037980Y-77050683D01*
X93709558Y-77170219D01*
X93709553Y-77170221D01*
X93397199Y-77327091D01*
X93105193Y-77519147D01*
X92837445Y-77743813D01*
X92597589Y-77998045D01*
X92388873Y-78278399D01*
X92388863Y-78278415D01*
X92214112Y-78581093D01*
X92214109Y-78581098D01*
X92075677Y-78902021D01*
X92075674Y-78902029D01*
X91975431Y-79236864D01*
X91919248Y-79555499D01*
X91914738Y-79581074D01*
X91914737Y-79581083D01*
X91894415Y-79930000D01*
X56761272Y-79930000D01*
X56728421Y-79850690D01*
X56633289Y-79726711D01*
X56633287Y-79726709D01*
X56633286Y-79726708D01*
X56509310Y-79631577D01*
X56364935Y-79571777D01*
X56210000Y-79551379D01*
X56055066Y-79571776D01*
X55910691Y-79631578D01*
X55910688Y-79631580D01*
X55786711Y-79726711D01*
X55691580Y-79850688D01*
X55691578Y-79850691D01*
X55631776Y-79995066D01*
X55611379Y-80149999D01*
X55611379Y-80150000D01*
X49936723Y-80150000D01*
X49865463Y-80006889D01*
X49856534Y-79995065D01*
X49742555Y-79844131D01*
X49591830Y-79706728D01*
X49591829Y-79706727D01*
X49418438Y-79599368D01*
X49418431Y-79599364D01*
X49418427Y-79599362D01*
X49265843Y-79540251D01*
X49228247Y-79525686D01*
X49161419Y-79513194D01*
X49027766Y-79488210D01*
X48823814Y-79488210D01*
X48723574Y-79506948D01*
X48623332Y-79525686D01*
X48480363Y-79581073D01*
X48433153Y-79599362D01*
X48433152Y-79599362D01*
X48433151Y-79599363D01*
X48433141Y-79599368D01*
X48259750Y-79706727D01*
X48259749Y-79706728D01*
X48109024Y-79844131D01*
X47986119Y-80006885D01*
X47895206Y-80189464D01*
X47839393Y-80385625D01*
X47820575Y-80588710D01*
X47491005Y-80588710D01*
X47472187Y-80385627D01*
X47416372Y-80189460D01*
X47325463Y-80006889D01*
X47316534Y-79995065D01*
X47202555Y-79844131D01*
X47051830Y-79706728D01*
X47051829Y-79706727D01*
X46878438Y-79599368D01*
X46878431Y-79599364D01*
X46878427Y-79599362D01*
X46725843Y-79540251D01*
X46688247Y-79525686D01*
X46621419Y-79513194D01*
X46487766Y-79488210D01*
X46283814Y-79488210D01*
X46183574Y-79506948D01*
X46083332Y-79525686D01*
X45940363Y-79581073D01*
X45893153Y-79599362D01*
X45893152Y-79599362D01*
X45893151Y-79599363D01*
X45893141Y-79599368D01*
X45719750Y-79706727D01*
X45719749Y-79706728D01*
X45569024Y-79844131D01*
X45446119Y-80006885D01*
X45355206Y-80189464D01*
X45299393Y-80385625D01*
X45280575Y-80588710D01*
X43525500Y-80588710D01*
X43525500Y-78048710D01*
X45280575Y-78048710D01*
X45299393Y-78251794D01*
X45355206Y-78447955D01*
X45355207Y-78447957D01*
X45355208Y-78447960D01*
X45446117Y-78630531D01*
X45446118Y-78630532D01*
X45446119Y-78630534D01*
X45569024Y-78793288D01*
X45719749Y-78930691D01*
X45719750Y-78930692D01*
X45893141Y-79038051D01*
X45893144Y-79038052D01*
X45893153Y-79038058D01*
X46083334Y-79111734D01*
X46283814Y-79149210D01*
X46283816Y-79149210D01*
X46487764Y-79149210D01*
X46487766Y-79149210D01*
X46688246Y-79111734D01*
X46878427Y-79038058D01*
X47051831Y-78930691D01*
X47202554Y-78793289D01*
X47325463Y-78630531D01*
X47416372Y-78447960D01*
X47472187Y-78251793D01*
X47491005Y-78048710D01*
X47820575Y-78048710D01*
X47839393Y-78251794D01*
X47895206Y-78447955D01*
X47895207Y-78447957D01*
X47895208Y-78447960D01*
X47986117Y-78630531D01*
X47986118Y-78630532D01*
X47986119Y-78630534D01*
X48109024Y-78793288D01*
X48259749Y-78930691D01*
X48259750Y-78930692D01*
X48433141Y-79038051D01*
X48433144Y-79038052D01*
X48433153Y-79038058D01*
X48623334Y-79111734D01*
X48823814Y-79149210D01*
X48823816Y-79149210D01*
X49027764Y-79149210D01*
X49027766Y-79149210D01*
X49228246Y-79111734D01*
X49418427Y-79038058D01*
X49591831Y-78930691D01*
X49742554Y-78793289D01*
X49822865Y-78686940D01*
X74174500Y-78686940D01*
X74189748Y-78827147D01*
X74189751Y-78827160D01*
X74249859Y-79005554D01*
X74249860Y-79005555D01*
X74249861Y-79005557D01*
X74346918Y-79166867D01*
X74476383Y-79303541D01*
X74593687Y-79383075D01*
X74632205Y-79409191D01*
X74807086Y-79478869D01*
X74807088Y-79478870D01*
X74830024Y-79482630D01*
X74992866Y-79509327D01*
X75180848Y-79499135D01*
X75180854Y-79499133D01*
X75180856Y-79499133D01*
X75271546Y-79473953D01*
X75362244Y-79448771D01*
X75528572Y-79360589D01*
X75672055Y-79238714D01*
X75785983Y-79088843D01*
X75865031Y-78917985D01*
X75905500Y-78734129D01*
X75905500Y-78642866D01*
X80170673Y-78642866D01*
X80180865Y-78830845D01*
X80180866Y-78830856D01*
X80231226Y-79012236D01*
X80231229Y-79012244D01*
X80319411Y-79178572D01*
X80441286Y-79322055D01*
X80555912Y-79409191D01*
X80591156Y-79435982D01*
X80591159Y-79435984D01*
X80618802Y-79448773D01*
X80762015Y-79515031D01*
X80945871Y-79555500D01*
X80945874Y-79555500D01*
X82586923Y-79555500D01*
X82586931Y-79555500D01*
X82598377Y-79554255D01*
X82727147Y-79540251D01*
X82727148Y-79540250D01*
X82727154Y-79540250D01*
X82905557Y-79480139D01*
X83066867Y-79383082D01*
X83203541Y-79253617D01*
X83309189Y-79097798D01*
X83312759Y-79088840D01*
X83378869Y-78922913D01*
X83378870Y-78922911D01*
X83382295Y-78902021D01*
X83409327Y-78737134D01*
X83406606Y-78686940D01*
X87674500Y-78686940D01*
X87689748Y-78827147D01*
X87689751Y-78827160D01*
X87749859Y-79005554D01*
X87749860Y-79005555D01*
X87749861Y-79005557D01*
X87846918Y-79166867D01*
X87976383Y-79303541D01*
X88093687Y-79383075D01*
X88132205Y-79409191D01*
X88307086Y-79478869D01*
X88307088Y-79478870D01*
X88330024Y-79482630D01*
X88492866Y-79509327D01*
X88680848Y-79499135D01*
X88680854Y-79499133D01*
X88680856Y-79499133D01*
X88771546Y-79473953D01*
X88862244Y-79448771D01*
X89028572Y-79360589D01*
X89172055Y-79238714D01*
X89285983Y-79088843D01*
X89365031Y-78917985D01*
X89405500Y-78734129D01*
X89405500Y-77093069D01*
X89400366Y-77045864D01*
X89390251Y-76952852D01*
X89390248Y-76952839D01*
X89330140Y-76774445D01*
X89330139Y-76774444D01*
X89330139Y-76774443D01*
X89233082Y-76613133D01*
X89103617Y-76476459D01*
X88947798Y-76370811D01*
X88947799Y-76370811D01*
X88947794Y-76370808D01*
X88772913Y-76301130D01*
X88772911Y-76301129D01*
X88633005Y-76278193D01*
X88587134Y-76270673D01*
X88587132Y-76270673D01*
X88587131Y-76270673D01*
X88474344Y-76276788D01*
X88399152Y-76280865D01*
X88399151Y-76280865D01*
X88399143Y-76280866D01*
X88217763Y-76331226D01*
X88217755Y-76331229D01*
X88051429Y-76419410D01*
X88051428Y-76419411D01*
X87907945Y-76541286D01*
X87907943Y-76541287D01*
X87907941Y-76541290D01*
X87794017Y-76691156D01*
X87794015Y-76691159D01*
X87714968Y-76862014D01*
X87714968Y-76862015D01*
X87674501Y-77045864D01*
X87674500Y-77045874D01*
X87674500Y-78686940D01*
X83406606Y-78686940D01*
X83399135Y-78549152D01*
X83371039Y-78447960D01*
X83348773Y-78367763D01*
X83348772Y-78367762D01*
X83348771Y-78367756D01*
X83260589Y-78201428D01*
X83138714Y-78057945D01*
X83126565Y-78048710D01*
X82988843Y-77944017D01*
X82988840Y-77944015D01*
X82817984Y-77864968D01*
X82634135Y-77824501D01*
X82634132Y-77824500D01*
X82634129Y-77824500D01*
X80993069Y-77824500D01*
X80993059Y-77824500D01*
X80852852Y-77839748D01*
X80852839Y-77839751D01*
X80674445Y-77899859D01*
X80674444Y-77899860D01*
X80513135Y-77996916D01*
X80513126Y-77996924D01*
X80376461Y-78126380D01*
X80270808Y-78282205D01*
X80201130Y-78457086D01*
X80201129Y-78457088D01*
X80170673Y-78642866D01*
X75905500Y-78642866D01*
X75905500Y-77093069D01*
X75900366Y-77045864D01*
X75890251Y-76952852D01*
X75890248Y-76952839D01*
X75830140Y-76774445D01*
X75830139Y-76774444D01*
X75830139Y-76774443D01*
X75733082Y-76613133D01*
X75603617Y-76476459D01*
X75447798Y-76370811D01*
X75447799Y-76370811D01*
X75447794Y-76370808D01*
X75272913Y-76301130D01*
X75272911Y-76301129D01*
X75133005Y-76278193D01*
X75087134Y-76270673D01*
X75087132Y-76270673D01*
X75087131Y-76270673D01*
X74974344Y-76276788D01*
X74899152Y-76280865D01*
X74899151Y-76280865D01*
X74899143Y-76280866D01*
X74717763Y-76331226D01*
X74717755Y-76331229D01*
X74551429Y-76419410D01*
X74551428Y-76419411D01*
X74407945Y-76541286D01*
X74407943Y-76541287D01*
X74407941Y-76541290D01*
X74294017Y-76691156D01*
X74294015Y-76691159D01*
X74214968Y-76862014D01*
X74214968Y-76862015D01*
X74174501Y-77045864D01*
X74174500Y-77045874D01*
X74174500Y-78686940D01*
X49822865Y-78686940D01*
X49865463Y-78630531D01*
X49956372Y-78447960D01*
X50012187Y-78251793D01*
X50031005Y-78048710D01*
X50012187Y-77845627D01*
X49956372Y-77649460D01*
X49865463Y-77466889D01*
X49865460Y-77466885D01*
X49742555Y-77304131D01*
X49591830Y-77166728D01*
X49591829Y-77166727D01*
X49418438Y-77059368D01*
X49418431Y-77059364D01*
X49418427Y-77059362D01*
X49301923Y-77014228D01*
X49228247Y-76985686D01*
X49144739Y-76970076D01*
X49027766Y-76948210D01*
X48823814Y-76948210D01*
X48723574Y-76966948D01*
X48623332Y-76985686D01*
X48475980Y-77042770D01*
X48433153Y-77059362D01*
X48433152Y-77059362D01*
X48433151Y-77059363D01*
X48433141Y-77059368D01*
X48259750Y-77166727D01*
X48259749Y-77166728D01*
X48109024Y-77304131D01*
X47986119Y-77466885D01*
X47895206Y-77649464D01*
X47839393Y-77845625D01*
X47820575Y-78048710D01*
X47491005Y-78048710D01*
X47472187Y-77845627D01*
X47416372Y-77649460D01*
X47325463Y-77466889D01*
X47325460Y-77466885D01*
X47202555Y-77304131D01*
X47051830Y-77166728D01*
X47051829Y-77166727D01*
X46878438Y-77059368D01*
X46878431Y-77059364D01*
X46878427Y-77059362D01*
X46761923Y-77014228D01*
X46688247Y-76985686D01*
X46604739Y-76970076D01*
X46487766Y-76948210D01*
X46283814Y-76948210D01*
X46183574Y-76966948D01*
X46083332Y-76985686D01*
X45935980Y-77042770D01*
X45893153Y-77059362D01*
X45893152Y-77059362D01*
X45893151Y-77059363D01*
X45893141Y-77059368D01*
X45719750Y-77166727D01*
X45719749Y-77166728D01*
X45569024Y-77304131D01*
X45446119Y-77466885D01*
X45355206Y-77649464D01*
X45299393Y-77845625D01*
X45280575Y-78048710D01*
X43525500Y-78048710D01*
X43525500Y-76653194D01*
X60737000Y-76653194D01*
X60740518Y-76691156D01*
X60751744Y-76812311D01*
X60810093Y-77017384D01*
X60810094Y-77017386D01*
X60810095Y-77017389D01*
X60905134Y-77208255D01*
X60977537Y-77304131D01*
X61033629Y-77378408D01*
X61191199Y-77522053D01*
X61191201Y-77522054D01*
X61372474Y-77634294D01*
X61372475Y-77634294D01*
X61372481Y-77634298D01*
X61571302Y-77711321D01*
X61780890Y-77750500D01*
X61780893Y-77750500D01*
X61994107Y-77750500D01*
X61994110Y-77750500D01*
X62203698Y-77711321D01*
X62402519Y-77634298D01*
X62583802Y-77522052D01*
X62741372Y-77378407D01*
X62869866Y-77208255D01*
X62964905Y-77017389D01*
X63023256Y-76812310D01*
X63038000Y-76653194D01*
X68237000Y-76653194D01*
X68240518Y-76691156D01*
X68251744Y-76812311D01*
X68310093Y-77017384D01*
X68310094Y-77017386D01*
X68310095Y-77017389D01*
X68405134Y-77208255D01*
X68477537Y-77304131D01*
X68533629Y-77378408D01*
X68691199Y-77522053D01*
X68691201Y-77522054D01*
X68872474Y-77634294D01*
X68872475Y-77634294D01*
X68872481Y-77634298D01*
X69071302Y-77711321D01*
X69280890Y-77750500D01*
X69280893Y-77750500D01*
X69494107Y-77750500D01*
X69494110Y-77750500D01*
X69703698Y-77711321D01*
X69902519Y-77634298D01*
X70083802Y-77522052D01*
X70241372Y-77378407D01*
X70369866Y-77208255D01*
X70464905Y-77017389D01*
X70523256Y-76812310D01*
X70538000Y-76653194D01*
X70538000Y-74746806D01*
X70523256Y-74587690D01*
X70464905Y-74382611D01*
X70369866Y-74191745D01*
X70241372Y-74021593D01*
X70083802Y-73877948D01*
X70083800Y-73877946D01*
X70083798Y-73877945D01*
X69902525Y-73765705D01*
X69902521Y-73765703D01*
X69902519Y-73765702D01*
X69767222Y-73713288D01*
X69703699Y-73688679D01*
X69651301Y-73678884D01*
X69494110Y-73649500D01*
X69280890Y-73649500D01*
X69155137Y-73673007D01*
X69071300Y-73688679D01*
X68917254Y-73748356D01*
X68872481Y-73765702D01*
X68872480Y-73765702D01*
X68872479Y-73765703D01*
X68872474Y-73765705D01*
X68691201Y-73877945D01*
X68691199Y-73877946D01*
X68533629Y-74021591D01*
X68497669Y-74069210D01*
X68405134Y-74191745D01*
X68311630Y-74379526D01*
X68310093Y-74382615D01*
X68251744Y-74587688D01*
X68251744Y-74587690D01*
X68237000Y-74746806D01*
X68237000Y-76653194D01*
X63038000Y-76653194D01*
X63038000Y-74746806D01*
X63023256Y-74587690D01*
X62964905Y-74382611D01*
X62869866Y-74191745D01*
X62741372Y-74021593D01*
X62583802Y-73877948D01*
X62583800Y-73877946D01*
X62583798Y-73877945D01*
X62402525Y-73765705D01*
X62402521Y-73765703D01*
X62402519Y-73765702D01*
X62267222Y-73713288D01*
X62203699Y-73688679D01*
X62151301Y-73678884D01*
X61994110Y-73649500D01*
X61780890Y-73649500D01*
X61655137Y-73673007D01*
X61571300Y-73688679D01*
X61417254Y-73748356D01*
X61372481Y-73765702D01*
X61372480Y-73765702D01*
X61372479Y-73765703D01*
X61372474Y-73765705D01*
X61191201Y-73877945D01*
X61191199Y-73877946D01*
X61033629Y-74021591D01*
X60997669Y-74069210D01*
X60905134Y-74191745D01*
X60811630Y-74379526D01*
X60810093Y-74382615D01*
X60751744Y-74587688D01*
X60751744Y-74587690D01*
X60737000Y-74746806D01*
X60737000Y-76653194D01*
X43525500Y-76653194D01*
X43525500Y-75508710D01*
X45280575Y-75508710D01*
X45299393Y-75711794D01*
X45355206Y-75907955D01*
X45355207Y-75907957D01*
X45355208Y-75907960D01*
X45446117Y-76090531D01*
X45446118Y-76090532D01*
X45446119Y-76090534D01*
X45569024Y-76253288D01*
X45719749Y-76390691D01*
X45719750Y-76390692D01*
X45893141Y-76498051D01*
X45893144Y-76498052D01*
X45893153Y-76498058D01*
X46083334Y-76571734D01*
X46283814Y-76609210D01*
X46283816Y-76609210D01*
X46487764Y-76609210D01*
X46487766Y-76609210D01*
X46688246Y-76571734D01*
X46878427Y-76498058D01*
X47051831Y-76390691D01*
X47202554Y-76253289D01*
X47325463Y-76090531D01*
X47416372Y-75907960D01*
X47472187Y-75711793D01*
X47491005Y-75508710D01*
X47820575Y-75508710D01*
X47839393Y-75711794D01*
X47895206Y-75907955D01*
X47895207Y-75907957D01*
X47895208Y-75907960D01*
X47986117Y-76090531D01*
X47986118Y-76090532D01*
X47986119Y-76090534D01*
X48109024Y-76253288D01*
X48259749Y-76390691D01*
X48259750Y-76390692D01*
X48433141Y-76498051D01*
X48433144Y-76498052D01*
X48433153Y-76498058D01*
X48623334Y-76571734D01*
X48823814Y-76609210D01*
X48823816Y-76609210D01*
X49027764Y-76609210D01*
X49027766Y-76609210D01*
X49228246Y-76571734D01*
X49418427Y-76498058D01*
X49591831Y-76390691D01*
X49742554Y-76253289D01*
X49865463Y-76090531D01*
X49956372Y-75907960D01*
X50012187Y-75711793D01*
X50031005Y-75508710D01*
X50012187Y-75305627D01*
X49956372Y-75109460D01*
X49865463Y-74926889D01*
X49865460Y-74926885D01*
X49742555Y-74764131D01*
X49591830Y-74626728D01*
X49591829Y-74626727D01*
X49418438Y-74519368D01*
X49418431Y-74519364D01*
X49418427Y-74519362D01*
X49301923Y-74474228D01*
X49228247Y-74445686D01*
X49161419Y-74433194D01*
X49027766Y-74408210D01*
X48823814Y-74408210D01*
X48723574Y-74426948D01*
X48623332Y-74445686D01*
X48475980Y-74502770D01*
X48433153Y-74519362D01*
X48433152Y-74519362D01*
X48433151Y-74519363D01*
X48433141Y-74519368D01*
X48259750Y-74626727D01*
X48259749Y-74626728D01*
X48109024Y-74764131D01*
X47986119Y-74926885D01*
X47895206Y-75109464D01*
X47839393Y-75305625D01*
X47820575Y-75508710D01*
X47491005Y-75508710D01*
X47472187Y-75305627D01*
X47416372Y-75109460D01*
X47325463Y-74926889D01*
X47325460Y-74926885D01*
X47202555Y-74764131D01*
X47051830Y-74626728D01*
X47051829Y-74626727D01*
X46878438Y-74519368D01*
X46878431Y-74519364D01*
X46878427Y-74519362D01*
X46761923Y-74474228D01*
X46688247Y-74445686D01*
X46621419Y-74433194D01*
X46487766Y-74408210D01*
X46283814Y-74408210D01*
X46183574Y-74426948D01*
X46083332Y-74445686D01*
X45935980Y-74502770D01*
X45893153Y-74519362D01*
X45893152Y-74519362D01*
X45893151Y-74519363D01*
X45893141Y-74519368D01*
X45719750Y-74626727D01*
X45719749Y-74626728D01*
X45569024Y-74764131D01*
X45446119Y-74926885D01*
X45355206Y-75109464D01*
X45299393Y-75305625D01*
X45280575Y-75508710D01*
X43525500Y-75508710D01*
X43525500Y-72968710D01*
X45280575Y-72968710D01*
X45299393Y-73171794D01*
X45355206Y-73367955D01*
X45355207Y-73367957D01*
X45355208Y-73367960D01*
X45446117Y-73550531D01*
X45446118Y-73550532D01*
X45446119Y-73550534D01*
X45569024Y-73713288D01*
X45719749Y-73850691D01*
X45719750Y-73850692D01*
X45893141Y-73958051D01*
X45893144Y-73958052D01*
X45893153Y-73958058D01*
X46083334Y-74031734D01*
X46283814Y-74069210D01*
X46283816Y-74069210D01*
X46487764Y-74069210D01*
X46487766Y-74069210D01*
X46688246Y-74031734D01*
X46878427Y-73958058D01*
X47051831Y-73850691D01*
X47202554Y-73713289D01*
X47325463Y-73550531D01*
X47416372Y-73367960D01*
X47472187Y-73171793D01*
X47491005Y-72968710D01*
X47820575Y-72968710D01*
X47839393Y-73171794D01*
X47895206Y-73367955D01*
X47895207Y-73367957D01*
X47895208Y-73367960D01*
X47986117Y-73550531D01*
X47986118Y-73550532D01*
X47986119Y-73550534D01*
X48109024Y-73713288D01*
X48259749Y-73850691D01*
X48259750Y-73850692D01*
X48433141Y-73958051D01*
X48433144Y-73958052D01*
X48433153Y-73958058D01*
X48623334Y-74031734D01*
X48823814Y-74069210D01*
X48823816Y-74069210D01*
X49027764Y-74069210D01*
X49027766Y-74069210D01*
X49228246Y-74031734D01*
X49418427Y-73958058D01*
X49591831Y-73850691D01*
X49742554Y-73713289D01*
X49865463Y-73550531D01*
X49956372Y-73367960D01*
X50012187Y-73171793D01*
X50031005Y-72968710D01*
X50012187Y-72765627D01*
X49956372Y-72569460D01*
X49867014Y-72390003D01*
X77430882Y-72390003D01*
X77449309Y-72577107D01*
X77449311Y-72577118D01*
X77503890Y-72757038D01*
X77503891Y-72757040D01*
X77508480Y-72765625D01*
X77592523Y-72922857D01*
X77711801Y-73068199D01*
X77857143Y-73187477D01*
X77857145Y-73187478D01*
X78022959Y-73276108D01*
X78022961Y-73276109D01*
X78202881Y-73330688D01*
X78202882Y-73330688D01*
X78202885Y-73330689D01*
X78202888Y-73330689D01*
X78202892Y-73330690D01*
X78389997Y-73349118D01*
X78390000Y-73349118D01*
X78390003Y-73349118D01*
X78577107Y-73330690D01*
X78577109Y-73330689D01*
X78577115Y-73330689D01*
X78757039Y-73276109D01*
X78922857Y-73187477D01*
X79068199Y-73068199D01*
X79187477Y-72922857D01*
X79276109Y-72757039D01*
X79330689Y-72577115D01*
X79349118Y-72390000D01*
X79348811Y-72386885D01*
X79330690Y-72202892D01*
X79330688Y-72202881D01*
X79276109Y-72022961D01*
X79276108Y-72022959D01*
X79187478Y-71857145D01*
X79187477Y-71857143D01*
X79068199Y-71711801D01*
X78922857Y-71592523D01*
X78922855Y-71592522D01*
X78922854Y-71592521D01*
X78757040Y-71503891D01*
X78757038Y-71503890D01*
X78577118Y-71449311D01*
X78577107Y-71449309D01*
X78390003Y-71430882D01*
X78389997Y-71430882D01*
X78202892Y-71449309D01*
X78202881Y-71449311D01*
X78022961Y-71503890D01*
X78022959Y-71503891D01*
X77857145Y-71592521D01*
X77711801Y-71711801D01*
X77592521Y-71857145D01*
X77503891Y-72022959D01*
X77503890Y-72022961D01*
X77449311Y-72202881D01*
X77449309Y-72202892D01*
X77430882Y-72389996D01*
X77430882Y-72390003D01*
X49867014Y-72390003D01*
X49865463Y-72386889D01*
X49865460Y-72386885D01*
X49742555Y-72224131D01*
X49591830Y-72086728D01*
X49591829Y-72086727D01*
X49418438Y-71979368D01*
X49418431Y-71979364D01*
X49418427Y-71979362D01*
X49289227Y-71929310D01*
X49228247Y-71905686D01*
X49161419Y-71893194D01*
X49027766Y-71868210D01*
X48823814Y-71868210D01*
X48723574Y-71886948D01*
X48623332Y-71905686D01*
X48475980Y-71962770D01*
X48433153Y-71979362D01*
X48433152Y-71979362D01*
X48433151Y-71979363D01*
X48433141Y-71979368D01*
X48259750Y-72086727D01*
X48259749Y-72086728D01*
X48109024Y-72224131D01*
X47986119Y-72386885D01*
X47895206Y-72569464D01*
X47839393Y-72765625D01*
X47820575Y-72968710D01*
X47491005Y-72968710D01*
X47472187Y-72765627D01*
X47416372Y-72569460D01*
X47325463Y-72386889D01*
X47325460Y-72386885D01*
X47202555Y-72224131D01*
X47051830Y-72086728D01*
X47051829Y-72086727D01*
X46878438Y-71979368D01*
X46878431Y-71979364D01*
X46878427Y-71979362D01*
X46749227Y-71929310D01*
X46688247Y-71905686D01*
X46621419Y-71893194D01*
X46487766Y-71868210D01*
X46283814Y-71868210D01*
X46183574Y-71886948D01*
X46083332Y-71905686D01*
X45935980Y-71962770D01*
X45893153Y-71979362D01*
X45893152Y-71979362D01*
X45893151Y-71979363D01*
X45893141Y-71979368D01*
X45719750Y-72086727D01*
X45719749Y-72086728D01*
X45569024Y-72224131D01*
X45446119Y-72386885D01*
X45355206Y-72569464D01*
X45299393Y-72765625D01*
X45280575Y-72968710D01*
X43525500Y-72968710D01*
X43525500Y-71630000D01*
X50281379Y-71630000D01*
X50301777Y-71784935D01*
X50361577Y-71929310D01*
X50456710Y-72053289D01*
X50580689Y-72148422D01*
X50671731Y-72186131D01*
X50725065Y-72208223D01*
X50880000Y-72228621D01*
X51034935Y-72208223D01*
X51125977Y-72170512D01*
X51179310Y-72148422D01*
X51303289Y-72053289D01*
X51398422Y-71929310D01*
X51428314Y-71857143D01*
X51458223Y-71784935D01*
X51478621Y-71630000D01*
X51472275Y-71581802D01*
X51462018Y-71503890D01*
X51458223Y-71475065D01*
X51398421Y-71330690D01*
X51303289Y-71206711D01*
X51303287Y-71206709D01*
X51303286Y-71206708D01*
X51179310Y-71111577D01*
X51073189Y-71067622D01*
X51017908Y-71023074D01*
X51016885Y-71020000D01*
X83461379Y-71020000D01*
X83481777Y-71174935D01*
X83541577Y-71319310D01*
X83636710Y-71443289D01*
X83760689Y-71538422D01*
X83851731Y-71576131D01*
X83905065Y-71598223D01*
X84060000Y-71618621D01*
X84214935Y-71598223D01*
X84300748Y-71562678D01*
X84341174Y-71545934D01*
X84411763Y-71538345D01*
X84475250Y-71570125D01*
X84511477Y-71631183D01*
X84508943Y-71702134D01*
X84486791Y-71742276D01*
X84392521Y-71857145D01*
X84303891Y-72022959D01*
X84303890Y-72022961D01*
X84249311Y-72202881D01*
X84249309Y-72202892D01*
X84230882Y-72389996D01*
X84230882Y-72390003D01*
X84249309Y-72577107D01*
X84249311Y-72577118D01*
X84303890Y-72757038D01*
X84303891Y-72757040D01*
X84308480Y-72765625D01*
X84392523Y-72922857D01*
X84511801Y-73068199D01*
X84657143Y-73187477D01*
X84657145Y-73187478D01*
X84822959Y-73276108D01*
X84822961Y-73276109D01*
X85002881Y-73330688D01*
X85002882Y-73330688D01*
X85002885Y-73330689D01*
X85002888Y-73330689D01*
X85002892Y-73330690D01*
X85189997Y-73349118D01*
X85190000Y-73349118D01*
X85190003Y-73349118D01*
X85377107Y-73330690D01*
X85377109Y-73330689D01*
X85377115Y-73330689D01*
X85557039Y-73276109D01*
X85722857Y-73187477D01*
X85868199Y-73068199D01*
X85987477Y-72922857D01*
X86076109Y-72757039D01*
X86130689Y-72577115D01*
X86149118Y-72390000D01*
X86148811Y-72386885D01*
X86130690Y-72202892D01*
X86130688Y-72202881D01*
X86076109Y-72022961D01*
X86076108Y-72022959D01*
X85987478Y-71857145D01*
X85987477Y-71857143D01*
X85868199Y-71711801D01*
X85722857Y-71592523D01*
X85722855Y-71592522D01*
X85722854Y-71592521D01*
X85557040Y-71503891D01*
X85557038Y-71503890D01*
X85377118Y-71449311D01*
X85377107Y-71449309D01*
X85190003Y-71430882D01*
X85189997Y-71430882D01*
X85002892Y-71449309D01*
X85002881Y-71449311D01*
X84822961Y-71503890D01*
X84822959Y-71503891D01*
X84682771Y-71578824D01*
X84613265Y-71593296D01*
X84546969Y-71567892D01*
X84504931Y-71510679D01*
X84500498Y-71439821D01*
X84523411Y-71391001D01*
X84578421Y-71319311D01*
X84581992Y-71310691D01*
X84593700Y-71282421D01*
X84638223Y-71174935D01*
X84658621Y-71020000D01*
X84638223Y-70865065D01*
X84578421Y-70720690D01*
X84576525Y-70718219D01*
X84575575Y-70715763D01*
X84574290Y-70713536D01*
X84574637Y-70713335D01*
X84550925Y-70652001D01*
X84565189Y-70582452D01*
X84576523Y-70564815D01*
X84588421Y-70549311D01*
X84648223Y-70404935D01*
X84668621Y-70250000D01*
X84664671Y-70220000D01*
X97911379Y-70220000D01*
X97931777Y-70374935D01*
X97991577Y-70519310D01*
X98086710Y-70643289D01*
X98210689Y-70738422D01*
X98301731Y-70776131D01*
X98355065Y-70798223D01*
X98510000Y-70818621D01*
X98664935Y-70798223D01*
X98755977Y-70760512D01*
X98809310Y-70738422D01*
X98933289Y-70643289D01*
X99028422Y-70519310D01*
X99050512Y-70465977D01*
X99088223Y-70374935D01*
X99108621Y-70220000D01*
X99088223Y-70065065D01*
X99061272Y-70000000D01*
X103899709Y-70000000D01*
X103918847Y-70267589D01*
X103975874Y-70529739D01*
X104069626Y-70781100D01*
X104069628Y-70781104D01*
X104194907Y-71010534D01*
X104198199Y-71016562D01*
X104340542Y-71206711D01*
X104358972Y-71231330D01*
X104358980Y-71231339D01*
X104548660Y-71421019D01*
X104548669Y-71421027D01*
X104548671Y-71421029D01*
X104763438Y-71581801D01*
X104998899Y-71710373D01*
X105250261Y-71804126D01*
X105512407Y-71861152D01*
X105780000Y-71880291D01*
X106047593Y-71861152D01*
X106309739Y-71804126D01*
X106561101Y-71710373D01*
X106796562Y-71581801D01*
X107011329Y-71421029D01*
X107201029Y-71231329D01*
X107361801Y-71016562D01*
X107490373Y-70781101D01*
X107584126Y-70529739D01*
X107641152Y-70267593D01*
X107660291Y-70000000D01*
X107641152Y-69732407D01*
X107584126Y-69470261D01*
X107490373Y-69218899D01*
X107361801Y-68983438D01*
X107201029Y-68768671D01*
X107201027Y-68768669D01*
X107201019Y-68768660D01*
X107011339Y-68578980D01*
X107011330Y-68578972D01*
X106998424Y-68569311D01*
X106796562Y-68418199D01*
X106796560Y-68418198D01*
X106796559Y-68418197D01*
X106649260Y-68337765D01*
X113645788Y-68337765D01*
X113675412Y-68607014D01*
X113743928Y-68869090D01*
X113849869Y-69118389D01*
X113849870Y-69118390D01*
X113990982Y-69349610D01*
X114164255Y-69557820D01*
X114365998Y-69738582D01*
X114591910Y-69888044D01*
X114837176Y-70003020D01*
X115096569Y-70081060D01*
X115096572Y-70081060D01*
X115096574Y-70081061D01*
X115364557Y-70120500D01*
X115364561Y-70120500D01*
X115567631Y-70120500D01*
X115770156Y-70105677D01*
X115770160Y-70105676D01*
X115770161Y-70105676D01*
X115880665Y-70081060D01*
X116034553Y-70046780D01*
X116287558Y-69950014D01*
X116523777Y-69817441D01*
X116738177Y-69651888D01*
X116926186Y-69456881D01*
X117083799Y-69236579D01*
X117207656Y-68995675D01*
X117295118Y-68739305D01*
X117326517Y-68569311D01*
X117344318Y-68472941D01*
X117344319Y-68472930D01*
X117348326Y-68363289D01*
X117354212Y-68202235D01*
X117339338Y-68067058D01*
X117324587Y-67932985D01*
X117277161Y-67751578D01*
X117256072Y-67670912D01*
X117243229Y-67640691D01*
X117150130Y-67421610D01*
X117113614Y-67361777D01*
X117009018Y-67190390D01*
X116835745Y-66982180D01*
X116835741Y-66982177D01*
X116835740Y-66982175D01*
X116634012Y-66801427D01*
X116634002Y-66801418D01*
X116408090Y-66651956D01*
X116162824Y-66536980D01*
X116005392Y-66489615D01*
X115903425Y-66458938D01*
X115635442Y-66419500D01*
X115635439Y-66419500D01*
X115432369Y-66419500D01*
X115229839Y-66434323D01*
X115229838Y-66434323D01*
X114965456Y-66493217D01*
X114965441Y-66493222D01*
X114712441Y-66589986D01*
X114476229Y-66722555D01*
X114476225Y-66722557D01*
X114261818Y-66888116D01*
X114073815Y-67083117D01*
X114073810Y-67083123D01*
X113916203Y-67303417D01*
X113916196Y-67303427D01*
X113792343Y-67544324D01*
X113792342Y-67544327D01*
X113704883Y-67800689D01*
X113704880Y-67800702D01*
X113655681Y-68067058D01*
X113655680Y-68067069D01*
X113645788Y-68337765D01*
X106649260Y-68337765D01*
X106561104Y-68289628D01*
X106561100Y-68289626D01*
X106309739Y-68195874D01*
X106047589Y-68138847D01*
X105780000Y-68119709D01*
X105512410Y-68138847D01*
X105250260Y-68195874D01*
X104998899Y-68289626D01*
X104998895Y-68289628D01*
X104763440Y-68418197D01*
X104548669Y-68578972D01*
X104548660Y-68578980D01*
X104358980Y-68768660D01*
X104358972Y-68768669D01*
X104198197Y-68983440D01*
X104069628Y-69218895D01*
X104069626Y-69218899D01*
X103975874Y-69470260D01*
X103918847Y-69732410D01*
X103899709Y-70000000D01*
X99061272Y-70000000D01*
X99028421Y-69920690D01*
X98933289Y-69796711D01*
X98933287Y-69796709D01*
X98933286Y-69796708D01*
X98809310Y-69701577D01*
X98664935Y-69641777D01*
X98510000Y-69621379D01*
X98355066Y-69641776D01*
X98210691Y-69701578D01*
X98210688Y-69701580D01*
X98086711Y-69796711D01*
X97991580Y-69920688D01*
X97991578Y-69920691D01*
X97931776Y-70065066D01*
X97911379Y-70219999D01*
X97911379Y-70220000D01*
X84664671Y-70220000D01*
X84648223Y-70095065D01*
X84588421Y-69950690D01*
X84493289Y-69826711D01*
X84493287Y-69826709D01*
X84493286Y-69826708D01*
X84369310Y-69731577D01*
X84224935Y-69671777D01*
X84070000Y-69651379D01*
X83915066Y-69671776D01*
X83770691Y-69731578D01*
X83770688Y-69731580D01*
X83646711Y-69826711D01*
X83551580Y-69950688D01*
X83551578Y-69950691D01*
X83491776Y-70095066D01*
X83471379Y-70249999D01*
X83471379Y-70250000D01*
X83491777Y-70404935D01*
X83551576Y-70549307D01*
X83553474Y-70551780D01*
X83554426Y-70554244D01*
X83555706Y-70556460D01*
X83555360Y-70556659D01*
X83579074Y-70618001D01*
X83564809Y-70687550D01*
X83553477Y-70705183D01*
X83541582Y-70720687D01*
X83541577Y-70720693D01*
X83481777Y-70865065D01*
X83461379Y-71019999D01*
X83461379Y-71020000D01*
X51016885Y-71020000D01*
X50995486Y-70955711D01*
X51013044Y-70886920D01*
X51065005Y-70838541D01*
X51073189Y-70834804D01*
X51209310Y-70778422D01*
X51333289Y-70683289D01*
X51428422Y-70559310D01*
X51450512Y-70505977D01*
X51488223Y-70414935D01*
X51508621Y-70260000D01*
X51507304Y-70250000D01*
X51490255Y-70120500D01*
X51488223Y-70105065D01*
X51428421Y-69960690D01*
X51333289Y-69836711D01*
X51333287Y-69836709D01*
X51333286Y-69836708D01*
X51209310Y-69741577D01*
X51064935Y-69681777D01*
X50910000Y-69661379D01*
X50755066Y-69681776D01*
X50610691Y-69741578D01*
X50610688Y-69741580D01*
X50486711Y-69836711D01*
X50391580Y-69960688D01*
X50391578Y-69960691D01*
X50331776Y-70105066D01*
X50311379Y-70259999D01*
X50311379Y-70260000D01*
X50331777Y-70414935D01*
X50391577Y-70559310D01*
X50486710Y-70683289D01*
X50610689Y-70778422D01*
X50686928Y-70810000D01*
X50716811Y-70822377D01*
X50772091Y-70866924D01*
X50794513Y-70934287D01*
X50776956Y-71003079D01*
X50724994Y-71051458D01*
X50716812Y-71055194D01*
X50580695Y-71111576D01*
X50580688Y-71111580D01*
X50456711Y-71206711D01*
X50361580Y-71330688D01*
X50361578Y-71330691D01*
X50301776Y-71475066D01*
X50281379Y-71629999D01*
X50281379Y-71630000D01*
X43525500Y-71630000D01*
X43525500Y-70428710D01*
X47820575Y-70428710D01*
X47839393Y-70631794D01*
X47895206Y-70827955D01*
X47895207Y-70827957D01*
X47895208Y-70827960D01*
X47986117Y-71010531D01*
X47986118Y-71010532D01*
X47986119Y-71010534D01*
X48109024Y-71173288D01*
X48259749Y-71310691D01*
X48259750Y-71310692D01*
X48433141Y-71418051D01*
X48433144Y-71418052D01*
X48433153Y-71418058D01*
X48623334Y-71491734D01*
X48823814Y-71529210D01*
X48823816Y-71529210D01*
X49027764Y-71529210D01*
X49027766Y-71529210D01*
X49228246Y-71491734D01*
X49418427Y-71418058D01*
X49591831Y-71310691D01*
X49742554Y-71173289D01*
X49865463Y-71010531D01*
X49956372Y-70827960D01*
X50012187Y-70631793D01*
X50031005Y-70428710D01*
X50012187Y-70225627D01*
X49956372Y-70029460D01*
X49865463Y-69846889D01*
X49843225Y-69817441D01*
X49742555Y-69684131D01*
X49591830Y-69546728D01*
X49591829Y-69546727D01*
X49418438Y-69439368D01*
X49418431Y-69439364D01*
X49418427Y-69439362D01*
X49301923Y-69394228D01*
X49228247Y-69365686D01*
X49161419Y-69353194D01*
X49027766Y-69328210D01*
X48823814Y-69328210D01*
X48723574Y-69346948D01*
X48623332Y-69365686D01*
X48475980Y-69422770D01*
X48433153Y-69439362D01*
X48433152Y-69439362D01*
X48433151Y-69439363D01*
X48433141Y-69439368D01*
X48259750Y-69546727D01*
X48259749Y-69546728D01*
X48109024Y-69684131D01*
X47986119Y-69846885D01*
X47895206Y-70029464D01*
X47839393Y-70225625D01*
X47820575Y-70428710D01*
X43525500Y-70428710D01*
X43525500Y-67888710D01*
X45280575Y-67888710D01*
X45299393Y-68091794D01*
X45355206Y-68287955D01*
X45355207Y-68287957D01*
X45355208Y-68287960D01*
X45446117Y-68470531D01*
X45446118Y-68470532D01*
X45446119Y-68470534D01*
X45569024Y-68633288D01*
X45719749Y-68770691D01*
X45719750Y-68770692D01*
X45893141Y-68878051D01*
X45893144Y-68878052D01*
X45893153Y-68878058D01*
X46083334Y-68951734D01*
X46283814Y-68989210D01*
X46283816Y-68989210D01*
X46487764Y-68989210D01*
X46487766Y-68989210D01*
X46688246Y-68951734D01*
X46878427Y-68878058D01*
X47051831Y-68770691D01*
X47202554Y-68633289D01*
X47325463Y-68470531D01*
X47416372Y-68287960D01*
X47472187Y-68091793D01*
X47491005Y-67888710D01*
X47820575Y-67888710D01*
X47839393Y-68091794D01*
X47895206Y-68287955D01*
X47895207Y-68287957D01*
X47895208Y-68287960D01*
X47986117Y-68470531D01*
X47986118Y-68470532D01*
X47986119Y-68470534D01*
X48109024Y-68633288D01*
X48259749Y-68770691D01*
X48259750Y-68770692D01*
X48433141Y-68878051D01*
X48433144Y-68878052D01*
X48433153Y-68878058D01*
X48623334Y-68951734D01*
X48823814Y-68989210D01*
X48823816Y-68989210D01*
X49027764Y-68989210D01*
X49027766Y-68989210D01*
X49228246Y-68951734D01*
X49418427Y-68878058D01*
X49591831Y-68770691D01*
X49742554Y-68633289D01*
X49865463Y-68470531D01*
X49956372Y-68287960D01*
X50012187Y-68091793D01*
X50026252Y-67940000D01*
X73311379Y-67940000D01*
X73331777Y-68094935D01*
X73391577Y-68239310D01*
X73486710Y-68363289D01*
X73610689Y-68458422D01*
X73701731Y-68496131D01*
X73755065Y-68518223D01*
X73910000Y-68538621D01*
X74064935Y-68518223D01*
X74155977Y-68480512D01*
X74209310Y-68458422D01*
X74333289Y-68363289D01*
X74404873Y-68270000D01*
X91991379Y-68270000D01*
X92011777Y-68424935D01*
X92071577Y-68569310D01*
X92166710Y-68693289D01*
X92290689Y-68788422D01*
X92381731Y-68826131D01*
X92435065Y-68848223D01*
X92590000Y-68868621D01*
X92744935Y-68848223D01*
X92835977Y-68810512D01*
X92889310Y-68788422D01*
X93013289Y-68693289D01*
X93108422Y-68569310D01*
X93148338Y-68472941D01*
X93168223Y-68424935D01*
X93188621Y-68270000D01*
X93168223Y-68115065D01*
X93108421Y-67970690D01*
X93013289Y-67846711D01*
X93013287Y-67846709D01*
X93013286Y-67846708D01*
X92889310Y-67751577D01*
X92744935Y-67691777D01*
X92590000Y-67671379D01*
X92435066Y-67691776D01*
X92290691Y-67751578D01*
X92290688Y-67751580D01*
X92166711Y-67846711D01*
X92071580Y-67970688D01*
X92071578Y-67970691D01*
X92011776Y-68115066D01*
X91991379Y-68269999D01*
X91991379Y-68270000D01*
X74404873Y-68270000D01*
X74428422Y-68239310D01*
X74450512Y-68185977D01*
X74488223Y-68094935D01*
X74508621Y-67940000D01*
X74507737Y-67933289D01*
X74488223Y-67785066D01*
X74474353Y-67751579D01*
X74428421Y-67640690D01*
X74333289Y-67516711D01*
X74333287Y-67516709D01*
X74333286Y-67516708D01*
X74324544Y-67510000D01*
X77011379Y-67510000D01*
X77031777Y-67664935D01*
X77091577Y-67809310D01*
X77186710Y-67933289D01*
X77310689Y-68028422D01*
X77401731Y-68066131D01*
X77455065Y-68088223D01*
X77610000Y-68108621D01*
X77764935Y-68088223D01*
X77855977Y-68050512D01*
X77909310Y-68028422D01*
X78033289Y-67933289D01*
X78128422Y-67809310D01*
X78152335Y-67751577D01*
X78188223Y-67664935D01*
X78208621Y-67510000D01*
X78188223Y-67355065D01*
X78128421Y-67210690D01*
X78033289Y-67086711D01*
X78033287Y-67086709D01*
X78033286Y-67086708D01*
X77909310Y-66991577D01*
X77764935Y-66931777D01*
X77610000Y-66911379D01*
X77455066Y-66931776D01*
X77310691Y-66991578D01*
X77310688Y-66991580D01*
X77186711Y-67086711D01*
X77091580Y-67210688D01*
X77091578Y-67210691D01*
X77031776Y-67355066D01*
X77011379Y-67509999D01*
X77011379Y-67510000D01*
X74324544Y-67510000D01*
X74209310Y-67421577D01*
X74064935Y-67361777D01*
X73910000Y-67341379D01*
X73755066Y-67361776D01*
X73610691Y-67421578D01*
X73610688Y-67421580D01*
X73486711Y-67516711D01*
X73391580Y-67640688D01*
X73391578Y-67640691D01*
X73331776Y-67785066D01*
X73311379Y-67939999D01*
X73311379Y-67940000D01*
X50026252Y-67940000D01*
X50031005Y-67888710D01*
X50012187Y-67685627D01*
X49956372Y-67489460D01*
X49865463Y-67306889D01*
X49792818Y-67210691D01*
X49742555Y-67144131D01*
X49591830Y-67006728D01*
X49591829Y-67006727D01*
X49418438Y-66899368D01*
X49418431Y-66899364D01*
X49418427Y-66899362D01*
X49301923Y-66854228D01*
X49228247Y-66825686D01*
X49161419Y-66813194D01*
X49027766Y-66788210D01*
X48823814Y-66788210D01*
X48753109Y-66801427D01*
X48623332Y-66825686D01*
X48475980Y-66882770D01*
X48433153Y-66899362D01*
X48433152Y-66899362D01*
X48433151Y-66899363D01*
X48433141Y-66899368D01*
X48259750Y-67006727D01*
X48259749Y-67006728D01*
X48109024Y-67144131D01*
X47986119Y-67306885D01*
X47895206Y-67489464D01*
X47839393Y-67685625D01*
X47820575Y-67888710D01*
X47491005Y-67888710D01*
X47472187Y-67685627D01*
X47416372Y-67489460D01*
X47325463Y-67306889D01*
X47252818Y-67210691D01*
X47202555Y-67144131D01*
X47051830Y-67006728D01*
X47051829Y-67006727D01*
X46878438Y-66899368D01*
X46878431Y-66899364D01*
X46878427Y-66899362D01*
X46761923Y-66854228D01*
X46688247Y-66825686D01*
X46621419Y-66813194D01*
X46487766Y-66788210D01*
X46283814Y-66788210D01*
X46213109Y-66801427D01*
X46083332Y-66825686D01*
X45935980Y-66882770D01*
X45893153Y-66899362D01*
X45893152Y-66899362D01*
X45893151Y-66899363D01*
X45893141Y-66899368D01*
X45719750Y-67006727D01*
X45719749Y-67006728D01*
X45569024Y-67144131D01*
X45446119Y-67306885D01*
X45355206Y-67489464D01*
X45299393Y-67685625D01*
X45280575Y-67888710D01*
X43525500Y-67888710D01*
X43525500Y-65348710D01*
X45280575Y-65348710D01*
X45299393Y-65551794D01*
X45355206Y-65747955D01*
X45355207Y-65747957D01*
X45355208Y-65747960D01*
X45446117Y-65930531D01*
X45446118Y-65930532D01*
X45446119Y-65930534D01*
X45569024Y-66093288D01*
X45719749Y-66230691D01*
X45719750Y-66230692D01*
X45893141Y-66338051D01*
X45893144Y-66338052D01*
X45893153Y-66338058D01*
X46083334Y-66411734D01*
X46283814Y-66449210D01*
X46283816Y-66449210D01*
X46487764Y-66449210D01*
X46487766Y-66449210D01*
X46688246Y-66411734D01*
X46878427Y-66338058D01*
X47051831Y-66230691D01*
X47202554Y-66093289D01*
X47325463Y-65930531D01*
X47416372Y-65747960D01*
X47472187Y-65551793D01*
X47491005Y-65348710D01*
X47820575Y-65348710D01*
X47839393Y-65551794D01*
X47895206Y-65747955D01*
X47895207Y-65747957D01*
X47895208Y-65747960D01*
X47986117Y-65930531D01*
X47986118Y-65930532D01*
X47986119Y-65930534D01*
X48109024Y-66093288D01*
X48259749Y-66230691D01*
X48259750Y-66230692D01*
X48433141Y-66338051D01*
X48433144Y-66338052D01*
X48433153Y-66338058D01*
X48623334Y-66411734D01*
X48823814Y-66449210D01*
X48823816Y-66449210D01*
X49027764Y-66449210D01*
X49027766Y-66449210D01*
X49228246Y-66411734D01*
X49418427Y-66338058D01*
X49591831Y-66230691D01*
X49742554Y-66093289D01*
X49865463Y-65930531D01*
X49956372Y-65747960D01*
X49975709Y-65680000D01*
X87131379Y-65680000D01*
X87151777Y-65834935D01*
X87211577Y-65979310D01*
X87306710Y-66103289D01*
X87430689Y-66198422D01*
X87521731Y-66236131D01*
X87575065Y-66258223D01*
X87730000Y-66278621D01*
X87884935Y-66258223D01*
X87975977Y-66220512D01*
X88029310Y-66198422D01*
X88153289Y-66103289D01*
X88248422Y-65979310D01*
X88270512Y-65925977D01*
X88308223Y-65834935D01*
X88328621Y-65680000D01*
X88308223Y-65525065D01*
X88248421Y-65380690D01*
X88153289Y-65256711D01*
X88153287Y-65256709D01*
X88153286Y-65256708D01*
X88053319Y-65180000D01*
X93081379Y-65180000D01*
X93101777Y-65334935D01*
X93161577Y-65479310D01*
X93256710Y-65603289D01*
X93380689Y-65698422D01*
X93471731Y-65736131D01*
X93525065Y-65758223D01*
X93680000Y-65778621D01*
X93834935Y-65758223D01*
X93925977Y-65720512D01*
X93979310Y-65698422D01*
X94103289Y-65603289D01*
X94198422Y-65479310D01*
X94239270Y-65380691D01*
X94258223Y-65334935D01*
X94278621Y-65180000D01*
X94258223Y-65025065D01*
X94198665Y-64881281D01*
X94191077Y-64810692D01*
X94222856Y-64747205D01*
X94238366Y-64733105D01*
X94303289Y-64683289D01*
X94398421Y-64559311D01*
X94398420Y-64559311D01*
X94398422Y-64559310D01*
X94432386Y-64477311D01*
X94458223Y-64414935D01*
X94478621Y-64260000D01*
X94458223Y-64105065D01*
X94398421Y-63960690D01*
X94303289Y-63836711D01*
X94303287Y-63836709D01*
X94303286Y-63836708D01*
X94179310Y-63741577D01*
X94034935Y-63681777D01*
X93880000Y-63661379D01*
X93725066Y-63681776D01*
X93580691Y-63741578D01*
X93580688Y-63741580D01*
X93456711Y-63836711D01*
X93361580Y-63960688D01*
X93361578Y-63960691D01*
X93301776Y-64105066D01*
X93281379Y-64259999D01*
X93281379Y-64260000D01*
X93301777Y-64414935D01*
X93361333Y-64558719D01*
X93368922Y-64629309D01*
X93337142Y-64692795D01*
X93321630Y-64706896D01*
X93269100Y-64747205D01*
X93256711Y-64756711D01*
X93161580Y-64880688D01*
X93161578Y-64880691D01*
X93101776Y-65025066D01*
X93081379Y-65179999D01*
X93081379Y-65180000D01*
X88053319Y-65180000D01*
X88029310Y-65161577D01*
X87884935Y-65101777D01*
X87730000Y-65081379D01*
X87575066Y-65101776D01*
X87430691Y-65161578D01*
X87430688Y-65161580D01*
X87306711Y-65256711D01*
X87211580Y-65380688D01*
X87211578Y-65380691D01*
X87151776Y-65525066D01*
X87131379Y-65679999D01*
X87131379Y-65680000D01*
X49975709Y-65680000D01*
X50012187Y-65551793D01*
X50031005Y-65348710D01*
X50012187Y-65145627D01*
X49956372Y-64949460D01*
X49865463Y-64766889D01*
X49857777Y-64756711D01*
X49742555Y-64604131D01*
X49591830Y-64466728D01*
X49591829Y-64466727D01*
X49418438Y-64359368D01*
X49418431Y-64359364D01*
X49418427Y-64359362D01*
X49301923Y-64314228D01*
X49228247Y-64285686D01*
X49161419Y-64273194D01*
X49027766Y-64248210D01*
X48823814Y-64248210D01*
X48760743Y-64260000D01*
X48623332Y-64285686D01*
X48501369Y-64332935D01*
X48433153Y-64359362D01*
X48433152Y-64359362D01*
X48433151Y-64359363D01*
X48433141Y-64359368D01*
X48259750Y-64466727D01*
X48259749Y-64466728D01*
X48109024Y-64604131D01*
X47986119Y-64766885D01*
X47895206Y-64949464D01*
X47839393Y-65145625D01*
X47820575Y-65348710D01*
X47491005Y-65348710D01*
X47472187Y-65145627D01*
X47416372Y-64949460D01*
X47325463Y-64766889D01*
X47317777Y-64756711D01*
X47202555Y-64604131D01*
X47051830Y-64466728D01*
X47051829Y-64466727D01*
X46878438Y-64359368D01*
X46878431Y-64359364D01*
X46878427Y-64359362D01*
X46761923Y-64314228D01*
X46688247Y-64285686D01*
X46621419Y-64273194D01*
X46487766Y-64248210D01*
X46283814Y-64248210D01*
X46220743Y-64260000D01*
X46083332Y-64285686D01*
X45961369Y-64332935D01*
X45893153Y-64359362D01*
X45893152Y-64359362D01*
X45893151Y-64359363D01*
X45893141Y-64359368D01*
X45719750Y-64466727D01*
X45719749Y-64466728D01*
X45569024Y-64604131D01*
X45446119Y-64766885D01*
X45355206Y-64949464D01*
X45299393Y-65145625D01*
X45280575Y-65348710D01*
X43525500Y-65348710D01*
X43525500Y-64178000D01*
X84931379Y-64178000D01*
X84951777Y-64332935D01*
X85011577Y-64477310D01*
X85106710Y-64601289D01*
X85230689Y-64696422D01*
X85319243Y-64733101D01*
X85375065Y-64756223D01*
X85530000Y-64776621D01*
X85684935Y-64756223D01*
X85804015Y-64706899D01*
X85829310Y-64696422D01*
X85953289Y-64601289D01*
X86048422Y-64477310D01*
X86074258Y-64414935D01*
X86108223Y-64332935D01*
X86128621Y-64178000D01*
X86108223Y-64023065D01*
X86048421Y-63878690D01*
X85953289Y-63754711D01*
X85953287Y-63754709D01*
X85953286Y-63754708D01*
X85829310Y-63659577D01*
X85684935Y-63599777D01*
X85530000Y-63579379D01*
X85375066Y-63599776D01*
X85230691Y-63659578D01*
X85230688Y-63659580D01*
X85106711Y-63754711D01*
X85011580Y-63878688D01*
X85011578Y-63878691D01*
X84951776Y-64023066D01*
X84931379Y-64177999D01*
X84931379Y-64178000D01*
X43525500Y-64178000D01*
X43525500Y-62808710D01*
X45280575Y-62808710D01*
X45299393Y-63011794D01*
X45355206Y-63207955D01*
X45355207Y-63207957D01*
X45355208Y-63207960D01*
X45446117Y-63390531D01*
X45446118Y-63390532D01*
X45446119Y-63390534D01*
X45569024Y-63553288D01*
X45719749Y-63690691D01*
X45719750Y-63690692D01*
X45893141Y-63798051D01*
X45893144Y-63798052D01*
X45893153Y-63798058D01*
X46083334Y-63871734D01*
X46283814Y-63909210D01*
X46283816Y-63909210D01*
X46487764Y-63909210D01*
X46487766Y-63909210D01*
X46688246Y-63871734D01*
X46878427Y-63798058D01*
X47051831Y-63690691D01*
X47202554Y-63553289D01*
X47325463Y-63390531D01*
X47416372Y-63207960D01*
X47472187Y-63011793D01*
X47491005Y-62808710D01*
X47820575Y-62808710D01*
X47839393Y-63011794D01*
X47895206Y-63207955D01*
X47895207Y-63207957D01*
X47895208Y-63207960D01*
X47986117Y-63390531D01*
X47986118Y-63390532D01*
X47986119Y-63390534D01*
X48109024Y-63553288D01*
X48259749Y-63690691D01*
X48259750Y-63690692D01*
X48433141Y-63798051D01*
X48433144Y-63798052D01*
X48433153Y-63798058D01*
X48623334Y-63871734D01*
X48823814Y-63909210D01*
X48823816Y-63909210D01*
X49027764Y-63909210D01*
X49027766Y-63909210D01*
X49228246Y-63871734D01*
X49418427Y-63798058D01*
X49591831Y-63690691D01*
X49742554Y-63553289D01*
X49775244Y-63510000D01*
X86951379Y-63510000D01*
X86971777Y-63664935D01*
X87031577Y-63809310D01*
X87126710Y-63933289D01*
X87250689Y-64028422D01*
X87341731Y-64066131D01*
X87395065Y-64088223D01*
X87550000Y-64108621D01*
X87704935Y-64088223D01*
X87795977Y-64050512D01*
X87849310Y-64028422D01*
X87973289Y-63933289D01*
X88068422Y-63809310D01*
X88096477Y-63741577D01*
X88128223Y-63664935D01*
X88148621Y-63510000D01*
X88128223Y-63355065D01*
X88090512Y-63264022D01*
X88068422Y-63210691D01*
X88066162Y-63207746D01*
X88056996Y-63195800D01*
X88031395Y-63129583D01*
X88045658Y-63060034D01*
X88056989Y-63042401D01*
X88128421Y-62949311D01*
X88188223Y-62804935D01*
X88208621Y-62650000D01*
X88188223Y-62495065D01*
X88128421Y-62350690D01*
X88033289Y-62226711D01*
X88033287Y-62226709D01*
X88033286Y-62226708D01*
X87909310Y-62131577D01*
X87764935Y-62071777D01*
X87610000Y-62051379D01*
X87455066Y-62071776D01*
X87310691Y-62131578D01*
X87310688Y-62131580D01*
X87186711Y-62226711D01*
X87091580Y-62350688D01*
X87091578Y-62350691D01*
X87031776Y-62495066D01*
X87011379Y-62649999D01*
X87011379Y-62650000D01*
X87031777Y-62804935D01*
X87091577Y-62949310D01*
X87103002Y-62964198D01*
X87128604Y-63030417D01*
X87114340Y-63099966D01*
X87103004Y-63117607D01*
X87031580Y-63210688D01*
X87031578Y-63210691D01*
X86971776Y-63355066D01*
X86951379Y-63509999D01*
X86951379Y-63510000D01*
X49775244Y-63510000D01*
X49865463Y-63390531D01*
X49956372Y-63207960D01*
X50012187Y-63011793D01*
X50031005Y-62808710D01*
X50012187Y-62605627D01*
X49956372Y-62409460D01*
X49865463Y-62226889D01*
X49865326Y-62226708D01*
X49830054Y-62180000D01*
X81651379Y-62180000D01*
X81671777Y-62334935D01*
X81731577Y-62479310D01*
X81826710Y-62603289D01*
X81950689Y-62698422D01*
X82041731Y-62736131D01*
X82095065Y-62758223D01*
X82250000Y-62778621D01*
X82404935Y-62758223D01*
X82501507Y-62718222D01*
X82549310Y-62698422D01*
X82673289Y-62603289D01*
X82768422Y-62479310D01*
X82826875Y-62338189D01*
X82871422Y-62282908D01*
X82938786Y-62260486D01*
X83007577Y-62278044D01*
X83055956Y-62330005D01*
X83059693Y-62338189D01*
X83101577Y-62439310D01*
X83196710Y-62563289D01*
X83320689Y-62658422D01*
X83411731Y-62696131D01*
X83465065Y-62718223D01*
X83620000Y-62738621D01*
X83774935Y-62718223D01*
X83865977Y-62680512D01*
X83919310Y-62658422D01*
X84043289Y-62563289D01*
X84138422Y-62439310D01*
X84198220Y-62294942D01*
X84198219Y-62294942D01*
X84198223Y-62294935D01*
X84198224Y-62294926D01*
X84199878Y-62288754D01*
X84236828Y-62228131D01*
X84300688Y-62197107D01*
X84371183Y-62205534D01*
X84425931Y-62250735D01*
X84446508Y-62304915D01*
X84451777Y-62344935D01*
X84511577Y-62489310D01*
X84606710Y-62613289D01*
X84730689Y-62708422D01*
X84821731Y-62746131D01*
X84875065Y-62768223D01*
X85030000Y-62788621D01*
X85184935Y-62768223D01*
X85305647Y-62718223D01*
X85329310Y-62708422D01*
X85453289Y-62613289D01*
X85548422Y-62489310D01*
X85581496Y-62409460D01*
X85608223Y-62344935D01*
X85628621Y-62190000D01*
X85627304Y-62180000D01*
X85608223Y-62035066D01*
X85607077Y-62032298D01*
X85548421Y-61890690D01*
X85453289Y-61766711D01*
X85453287Y-61766709D01*
X85453286Y-61766708D01*
X85329310Y-61671577D01*
X85184935Y-61611777D01*
X85030000Y-61591379D01*
X84875066Y-61611776D01*
X84730691Y-61671578D01*
X84730688Y-61671580D01*
X84606711Y-61766711D01*
X84511580Y-61890688D01*
X84511578Y-61890691D01*
X84491725Y-61938621D01*
X84453876Y-62029999D01*
X84451776Y-62035068D01*
X84450118Y-62041255D01*
X84413163Y-62101876D01*
X84349301Y-62132894D01*
X84278807Y-62124461D01*
X84224062Y-62079255D01*
X84203491Y-62025082D01*
X84202640Y-62018621D01*
X84198223Y-61985065D01*
X84138421Y-61840690D01*
X84043289Y-61716711D01*
X84043287Y-61716709D01*
X84043286Y-61716708D01*
X83919310Y-61621577D01*
X83774935Y-61561777D01*
X83620000Y-61541379D01*
X83465066Y-61561776D01*
X83320691Y-61621578D01*
X83320688Y-61621580D01*
X83196711Y-61716711D01*
X83101580Y-61840688D01*
X83101579Y-61840690D01*
X83045112Y-61977011D01*
X83043124Y-61981813D01*
X82998575Y-62037093D01*
X82931212Y-62059514D01*
X82862420Y-62041955D01*
X82814042Y-61989993D01*
X82810317Y-61981836D01*
X82768421Y-61880690D01*
X82673289Y-61756711D01*
X82673287Y-61756709D01*
X82673286Y-61756708D01*
X82549310Y-61661577D01*
X82404935Y-61601777D01*
X82250000Y-61581379D01*
X82095066Y-61601776D01*
X81950691Y-61661578D01*
X81950688Y-61661580D01*
X81826711Y-61756711D01*
X81731580Y-61880688D01*
X81731578Y-61880691D01*
X81671776Y-62025066D01*
X81651379Y-62179999D01*
X81651379Y-62180000D01*
X49830054Y-62180000D01*
X49742555Y-62064131D01*
X49591830Y-61926728D01*
X49591829Y-61926727D01*
X49418438Y-61819368D01*
X49418431Y-61819364D01*
X49418427Y-61819362D01*
X49282518Y-61766711D01*
X49228247Y-61745686D01*
X49148013Y-61730688D01*
X49027766Y-61708210D01*
X48823814Y-61708210D01*
X48764429Y-61719311D01*
X48623332Y-61745686D01*
X48475980Y-61802770D01*
X48433153Y-61819362D01*
X48433152Y-61819362D01*
X48433151Y-61819363D01*
X48433141Y-61819368D01*
X48259750Y-61926727D01*
X48259749Y-61926728D01*
X48109024Y-62064131D01*
X47986119Y-62226885D01*
X47895206Y-62409464D01*
X47839393Y-62605625D01*
X47820575Y-62808710D01*
X47491005Y-62808710D01*
X47472187Y-62605627D01*
X47416372Y-62409460D01*
X47325463Y-62226889D01*
X47325326Y-62226708D01*
X47202555Y-62064131D01*
X47051830Y-61926728D01*
X47051829Y-61926727D01*
X46878438Y-61819368D01*
X46878431Y-61819364D01*
X46878427Y-61819362D01*
X46742518Y-61766711D01*
X46688247Y-61745686D01*
X46608013Y-61730688D01*
X46487766Y-61708210D01*
X46283814Y-61708210D01*
X46224429Y-61719311D01*
X46083332Y-61745686D01*
X45935980Y-61802770D01*
X45893153Y-61819362D01*
X45893152Y-61819362D01*
X45893151Y-61819363D01*
X45893141Y-61819368D01*
X45719750Y-61926727D01*
X45719749Y-61926728D01*
X45569024Y-62064131D01*
X45446119Y-62226885D01*
X45355206Y-62409464D01*
X45299393Y-62605625D01*
X45280575Y-62808710D01*
X43525500Y-62808710D01*
X43525500Y-60268710D01*
X45280575Y-60268710D01*
X45299393Y-60471794D01*
X45355206Y-60667955D01*
X45355207Y-60667957D01*
X45355208Y-60667960D01*
X45446117Y-60850531D01*
X45446118Y-60850532D01*
X45446119Y-60850534D01*
X45569024Y-61013288D01*
X45719749Y-61150691D01*
X45719750Y-61150692D01*
X45893141Y-61258051D01*
X45893144Y-61258052D01*
X45893153Y-61258058D01*
X46083334Y-61331734D01*
X46283814Y-61369210D01*
X46283816Y-61369210D01*
X46487764Y-61369210D01*
X46487766Y-61369210D01*
X46688246Y-61331734D01*
X46878427Y-61258058D01*
X47051831Y-61150691D01*
X47202554Y-61013289D01*
X47215076Y-60996708D01*
X47275486Y-60916711D01*
X47325463Y-60850531D01*
X47416372Y-60667960D01*
X47472187Y-60471793D01*
X47491005Y-60268710D01*
X47820575Y-60268710D01*
X47839393Y-60471794D01*
X47895206Y-60667955D01*
X47895207Y-60667957D01*
X47895208Y-60667960D01*
X47986117Y-60850531D01*
X47986118Y-60850532D01*
X47986119Y-60850534D01*
X48109024Y-61013288D01*
X48259749Y-61150691D01*
X48259750Y-61150692D01*
X48433141Y-61258051D01*
X48433144Y-61258052D01*
X48433153Y-61258058D01*
X48623334Y-61331734D01*
X48823814Y-61369210D01*
X48823816Y-61369210D01*
X49027764Y-61369210D01*
X49027766Y-61369210D01*
X49184027Y-61340000D01*
X75661379Y-61340000D01*
X75681777Y-61494935D01*
X75741577Y-61639310D01*
X75836710Y-61763289D01*
X75960689Y-61858422D01*
X76038589Y-61890688D01*
X76105065Y-61918223D01*
X76260000Y-61938621D01*
X76414935Y-61918223D01*
X76519126Y-61875066D01*
X76559310Y-61858422D01*
X76683289Y-61763289D01*
X76778422Y-61639310D01*
X76818985Y-61541379D01*
X76838223Y-61494935D01*
X76848089Y-61420000D01*
X89313377Y-61420000D01*
X89333775Y-61574935D01*
X89393575Y-61719310D01*
X89488708Y-61843289D01*
X89612687Y-61938422D01*
X89703729Y-61976131D01*
X89757063Y-61998223D01*
X89911998Y-62018621D01*
X90066933Y-61998223D01*
X90190479Y-61947048D01*
X90261068Y-61939460D01*
X90324555Y-61971240D01*
X90360782Y-62032298D01*
X90363618Y-62047011D01*
X90381777Y-62184935D01*
X90441577Y-62329310D01*
X90536710Y-62453289D01*
X90660689Y-62548422D01*
X90751731Y-62586131D01*
X90805065Y-62608223D01*
X90960000Y-62628621D01*
X91114935Y-62608223D01*
X91205977Y-62570512D01*
X91259310Y-62548422D01*
X91383289Y-62453289D01*
X91478422Y-62329310D01*
X91510968Y-62250735D01*
X91538223Y-62184935D01*
X91558621Y-62030000D01*
X91557971Y-62025066D01*
X91538964Y-61880691D01*
X91538223Y-61875065D01*
X91478421Y-61730690D01*
X91383289Y-61606711D01*
X91383287Y-61606709D01*
X91383286Y-61606708D01*
X91259310Y-61511577D01*
X91114935Y-61451777D01*
X90960000Y-61431379D01*
X90805064Y-61451777D01*
X90681518Y-61502951D01*
X90610929Y-61510540D01*
X90547442Y-61478760D01*
X90511215Y-61417702D01*
X90508379Y-61402988D01*
X90500086Y-61340000D01*
X90490221Y-61265065D01*
X90430419Y-61120690D01*
X90335287Y-60996711D01*
X90335285Y-60996709D01*
X90335284Y-60996708D01*
X90211308Y-60901577D01*
X90066933Y-60841777D01*
X89911998Y-60821379D01*
X89757064Y-60841776D01*
X89612689Y-60901578D01*
X89612686Y-60901580D01*
X89488709Y-60996711D01*
X89393578Y-61120688D01*
X89393576Y-61120691D01*
X89333774Y-61265066D01*
X89313377Y-61419999D01*
X89313377Y-61420000D01*
X76848089Y-61420000D01*
X76858621Y-61340000D01*
X76838223Y-61185065D01*
X76778421Y-61040690D01*
X76683289Y-60916711D01*
X76683287Y-60916709D01*
X76683286Y-60916708D01*
X76559310Y-60821577D01*
X76414935Y-60761777D01*
X76260000Y-60741379D01*
X76105066Y-60761776D01*
X75960691Y-60821578D01*
X75960688Y-60821580D01*
X75836711Y-60916711D01*
X75741580Y-61040688D01*
X75741578Y-61040691D01*
X75681776Y-61185066D01*
X75661379Y-61339999D01*
X75661379Y-61340000D01*
X49184027Y-61340000D01*
X49228246Y-61331734D01*
X49418427Y-61258058D01*
X49591831Y-61150691D01*
X49742554Y-61013289D01*
X49755076Y-60996708D01*
X49815486Y-60916711D01*
X49865463Y-60850531D01*
X49956372Y-60667960D01*
X50012187Y-60471793D01*
X50031005Y-60268710D01*
X50020005Y-60150000D01*
X54941379Y-60150000D01*
X54961777Y-60304935D01*
X55021577Y-60449310D01*
X55116710Y-60573289D01*
X55240689Y-60668422D01*
X55331731Y-60706131D01*
X55385065Y-60728223D01*
X55540000Y-60748621D01*
X55694935Y-60728223D01*
X55785977Y-60690512D01*
X55839310Y-60668422D01*
X55963289Y-60573289D01*
X56058422Y-60449310D01*
X56080512Y-60395977D01*
X56118223Y-60304935D01*
X56138621Y-60150000D01*
X56118223Y-59995065D01*
X56074704Y-59890000D01*
X67681379Y-59890000D01*
X67701777Y-60044935D01*
X67761577Y-60189310D01*
X67856710Y-60313289D01*
X67980689Y-60408422D01*
X68071731Y-60446131D01*
X68125065Y-60468223D01*
X68280000Y-60488621D01*
X68434935Y-60468223D01*
X68525977Y-60430512D01*
X68579310Y-60408422D01*
X68703289Y-60313289D01*
X68798422Y-60189310D01*
X68820512Y-60135977D01*
X68858223Y-60044935D01*
X68878621Y-59890000D01*
X68858223Y-59735065D01*
X68798421Y-59590690D01*
X68703289Y-59466711D01*
X68703287Y-59466709D01*
X68703286Y-59466708D01*
X68579310Y-59371577D01*
X68434935Y-59311777D01*
X68280000Y-59291379D01*
X68125066Y-59311776D01*
X67980691Y-59371578D01*
X67980688Y-59371580D01*
X67856711Y-59466711D01*
X67761580Y-59590688D01*
X67761578Y-59590691D01*
X67701776Y-59735066D01*
X67681379Y-59889999D01*
X67681379Y-59890000D01*
X56074704Y-59890000D01*
X56058421Y-59850690D01*
X55963289Y-59726711D01*
X55963287Y-59726709D01*
X55963286Y-59726708D01*
X55839310Y-59631577D01*
X55694935Y-59571777D01*
X55540000Y-59551379D01*
X55385066Y-59571776D01*
X55240691Y-59631578D01*
X55240688Y-59631580D01*
X55116711Y-59726711D01*
X55021580Y-59850688D01*
X55021578Y-59850691D01*
X54961776Y-59995066D01*
X54941379Y-60149999D01*
X54941379Y-60150000D01*
X50020005Y-60150000D01*
X50012187Y-60065627D01*
X49956372Y-59869460D01*
X49865463Y-59686889D01*
X49865460Y-59686885D01*
X49742555Y-59524131D01*
X49591830Y-59386728D01*
X49591829Y-59386727D01*
X49418438Y-59279368D01*
X49418431Y-59279364D01*
X49418427Y-59279362D01*
X49301923Y-59234228D01*
X49228247Y-59205686D01*
X49161419Y-59193194D01*
X49027766Y-59168210D01*
X48823814Y-59168210D01*
X48723574Y-59186948D01*
X48623332Y-59205686D01*
X48475980Y-59262770D01*
X48433153Y-59279362D01*
X48433152Y-59279362D01*
X48433151Y-59279363D01*
X48433141Y-59279368D01*
X48259750Y-59386727D01*
X48259749Y-59386728D01*
X48109024Y-59524131D01*
X47986119Y-59686885D01*
X47895206Y-59869464D01*
X47839393Y-60065625D01*
X47820575Y-60268710D01*
X47491005Y-60268710D01*
X47472187Y-60065627D01*
X47416372Y-59869460D01*
X47325463Y-59686889D01*
X47325460Y-59686885D01*
X47202555Y-59524131D01*
X47051830Y-59386728D01*
X47051829Y-59386727D01*
X46878438Y-59279368D01*
X46878431Y-59279364D01*
X46878427Y-59279362D01*
X46761923Y-59234228D01*
X46688247Y-59205686D01*
X46621419Y-59193194D01*
X46487766Y-59168210D01*
X46283814Y-59168210D01*
X46183574Y-59186948D01*
X46083332Y-59205686D01*
X45935980Y-59262770D01*
X45893153Y-59279362D01*
X45893152Y-59279362D01*
X45893151Y-59279363D01*
X45893141Y-59279368D01*
X45719750Y-59386727D01*
X45719749Y-59386728D01*
X45569024Y-59524131D01*
X45446119Y-59686885D01*
X45355206Y-59869464D01*
X45299393Y-60065625D01*
X45280575Y-60268710D01*
X43525500Y-60268710D01*
X43525500Y-59010000D01*
X62021379Y-59010000D01*
X62041777Y-59164935D01*
X62101577Y-59309310D01*
X62196710Y-59433289D01*
X62320689Y-59528422D01*
X62411731Y-59566131D01*
X62465065Y-59588223D01*
X62620000Y-59608621D01*
X62774935Y-59588223D01*
X62865977Y-59550512D01*
X62919310Y-59528422D01*
X63043289Y-59433289D01*
X63138422Y-59309310D01*
X63160512Y-59255977D01*
X63198223Y-59164935D01*
X63205455Y-59110000D01*
X80531379Y-59110000D01*
X80551777Y-59264935D01*
X80611577Y-59409310D01*
X80706710Y-59533289D01*
X80830689Y-59628422D01*
X80921731Y-59666131D01*
X80975065Y-59688223D01*
X81130000Y-59708621D01*
X81284935Y-59688223D01*
X81375977Y-59650512D01*
X81429310Y-59628422D01*
X81553289Y-59533289D01*
X81648422Y-59409310D01*
X81670512Y-59355977D01*
X81708223Y-59264935D01*
X81728621Y-59110000D01*
X81708223Y-58955065D01*
X81648421Y-58810690D01*
X81553289Y-58686711D01*
X81553287Y-58686709D01*
X81553286Y-58686708D01*
X81429310Y-58591577D01*
X81284935Y-58531777D01*
X81130000Y-58511379D01*
X80975066Y-58531776D01*
X80830691Y-58591578D01*
X80830688Y-58591580D01*
X80706711Y-58686711D01*
X80611580Y-58810688D01*
X80611578Y-58810691D01*
X80551776Y-58955066D01*
X80531379Y-59109999D01*
X80531379Y-59110000D01*
X63205455Y-59110000D01*
X63218621Y-59010000D01*
X63198223Y-58855065D01*
X63138421Y-58710690D01*
X63043289Y-58586711D01*
X63043287Y-58586709D01*
X63043286Y-58586708D01*
X62919310Y-58491577D01*
X62867217Y-58470000D01*
X70541379Y-58470000D01*
X70561777Y-58624935D01*
X70621577Y-58769310D01*
X70716710Y-58893289D01*
X70840689Y-58988422D01*
X70931731Y-59026131D01*
X70985065Y-59048223D01*
X71140000Y-59068621D01*
X71294935Y-59048223D01*
X71387217Y-59009999D01*
X71439310Y-58988422D01*
X71563289Y-58893289D01*
X71658422Y-58769310D01*
X71682703Y-58710688D01*
X71718223Y-58624935D01*
X71738621Y-58470000D01*
X71721506Y-58340000D01*
X72851379Y-58340000D01*
X72871777Y-58494935D01*
X72931577Y-58639310D01*
X73026710Y-58763289D01*
X73150689Y-58858422D01*
X73234868Y-58893289D01*
X73295065Y-58918223D01*
X73450000Y-58938621D01*
X73604935Y-58918223D01*
X73695977Y-58880512D01*
X73749310Y-58858422D01*
X73873289Y-58763289D01*
X73968422Y-58639310D01*
X73997784Y-58568421D01*
X74028223Y-58494935D01*
X74048621Y-58340000D01*
X74028223Y-58185065D01*
X73972277Y-58050000D01*
X86391379Y-58050000D01*
X86411777Y-58204935D01*
X86471577Y-58349310D01*
X86566710Y-58473289D01*
X86690689Y-58568422D01*
X86781731Y-58606131D01*
X86835065Y-58628223D01*
X86990000Y-58648621D01*
X87144935Y-58628223D01*
X87245162Y-58586708D01*
X87289310Y-58568422D01*
X87413289Y-58473289D01*
X87508422Y-58349310D01*
X87530512Y-58295977D01*
X87568223Y-58204935D01*
X87588621Y-58050000D01*
X87587395Y-58040691D01*
X87575663Y-57951577D01*
X87568223Y-57895065D01*
X87508421Y-57750690D01*
X87413289Y-57626711D01*
X87413287Y-57626709D01*
X87413286Y-57626708D01*
X87289310Y-57531577D01*
X87144935Y-57471777D01*
X86990000Y-57451379D01*
X86835066Y-57471776D01*
X86690691Y-57531578D01*
X86690688Y-57531580D01*
X86566711Y-57626711D01*
X86471580Y-57750688D01*
X86471578Y-57750691D01*
X86411776Y-57895066D01*
X86391379Y-58049999D01*
X86391379Y-58050000D01*
X73972277Y-58050000D01*
X73968421Y-58040690D01*
X73873289Y-57916711D01*
X73873287Y-57916709D01*
X73873286Y-57916708D01*
X73749310Y-57821577D01*
X73604935Y-57761777D01*
X73450000Y-57741379D01*
X73295066Y-57761776D01*
X73150691Y-57821578D01*
X73150688Y-57821580D01*
X73026711Y-57916711D01*
X72931580Y-58040688D01*
X72931578Y-58040691D01*
X72871776Y-58185066D01*
X72851379Y-58339999D01*
X72851379Y-58340000D01*
X71721506Y-58340000D01*
X71718223Y-58315065D01*
X71658421Y-58170690D01*
X71563289Y-58046711D01*
X71563287Y-58046709D01*
X71563286Y-58046708D01*
X71439310Y-57951577D01*
X71294935Y-57891777D01*
X71140000Y-57871379D01*
X70985066Y-57891776D01*
X70840691Y-57951578D01*
X70840688Y-57951580D01*
X70716711Y-58046711D01*
X70621580Y-58170688D01*
X70621578Y-58170691D01*
X70561776Y-58315066D01*
X70541379Y-58469999D01*
X70541379Y-58470000D01*
X62867217Y-58470000D01*
X62774935Y-58431777D01*
X62620000Y-58411379D01*
X62465066Y-58431776D01*
X62320691Y-58491578D01*
X62320688Y-58491580D01*
X62196711Y-58586711D01*
X62101580Y-58710688D01*
X62101578Y-58710691D01*
X62041776Y-58855066D01*
X62021379Y-59009999D01*
X62021379Y-59010000D01*
X43525500Y-59010000D01*
X43525500Y-57728710D01*
X45280575Y-57728710D01*
X45299393Y-57931794D01*
X45355206Y-58127955D01*
X45355207Y-58127957D01*
X45355208Y-58127960D01*
X45446117Y-58310531D01*
X45446118Y-58310532D01*
X45446119Y-58310534D01*
X45569024Y-58473288D01*
X45719749Y-58610691D01*
X45719750Y-58610692D01*
X45893141Y-58718051D01*
X45893144Y-58718052D01*
X45893153Y-58718058D01*
X46083334Y-58791734D01*
X46283814Y-58829210D01*
X46283816Y-58829210D01*
X46487764Y-58829210D01*
X46487766Y-58829210D01*
X46688246Y-58791734D01*
X46878427Y-58718058D01*
X47051831Y-58610691D01*
X47202554Y-58473289D01*
X47205039Y-58469999D01*
X47249306Y-58411379D01*
X47325463Y-58310531D01*
X47416372Y-58127960D01*
X47472187Y-57931793D01*
X47491005Y-57728710D01*
X47820575Y-57728710D01*
X47839393Y-57931794D01*
X47895206Y-58127955D01*
X47895207Y-58127957D01*
X47895208Y-58127960D01*
X47986117Y-58310531D01*
X47986118Y-58310532D01*
X47986119Y-58310534D01*
X48109024Y-58473288D01*
X48259749Y-58610691D01*
X48259750Y-58610692D01*
X48433141Y-58718051D01*
X48433144Y-58718052D01*
X48433153Y-58718058D01*
X48623334Y-58791734D01*
X48823814Y-58829210D01*
X48823816Y-58829210D01*
X49027764Y-58829210D01*
X49027766Y-58829210D01*
X49228246Y-58791734D01*
X49418427Y-58718058D01*
X49591831Y-58610691D01*
X49742554Y-58473289D01*
X49745039Y-58469999D01*
X49789306Y-58411379D01*
X49865463Y-58310531D01*
X49956372Y-58127960D01*
X50012187Y-57931793D01*
X50031005Y-57728710D01*
X50012187Y-57525627D01*
X49967907Y-57370000D01*
X68611379Y-57370000D01*
X68631777Y-57524935D01*
X68691577Y-57669310D01*
X68786710Y-57793289D01*
X68910689Y-57888422D01*
X69001731Y-57926131D01*
X69055065Y-57948223D01*
X69210000Y-57968621D01*
X69364935Y-57948223D01*
X69455977Y-57910512D01*
X69509310Y-57888422D01*
X69633289Y-57793289D01*
X69728422Y-57669310D01*
X69750512Y-57615977D01*
X69788223Y-57524935D01*
X69808621Y-57370000D01*
X69788223Y-57215065D01*
X69728421Y-57070690D01*
X69633289Y-56946711D01*
X69633287Y-56946709D01*
X69633286Y-56946708D01*
X69509310Y-56851577D01*
X69364935Y-56791777D01*
X69210000Y-56771379D01*
X69055066Y-56791776D01*
X68910691Y-56851578D01*
X68910688Y-56851580D01*
X68786711Y-56946711D01*
X68691580Y-57070688D01*
X68691578Y-57070691D01*
X68631776Y-57215066D01*
X68611379Y-57369999D01*
X68611379Y-57370000D01*
X49967907Y-57370000D01*
X49956372Y-57329460D01*
X49865463Y-57146889D01*
X49865460Y-57146885D01*
X49742555Y-56984131D01*
X49591830Y-56846728D01*
X49591829Y-56846727D01*
X49418438Y-56739368D01*
X49418431Y-56739364D01*
X49418427Y-56739362D01*
X49301923Y-56694228D01*
X49228247Y-56665686D01*
X49161419Y-56653194D01*
X49027766Y-56628210D01*
X48823814Y-56628210D01*
X48723574Y-56646948D01*
X48623332Y-56665686D01*
X48475980Y-56722770D01*
X48433153Y-56739362D01*
X48433152Y-56739362D01*
X48433151Y-56739363D01*
X48433141Y-56739368D01*
X48259750Y-56846727D01*
X48259749Y-56846728D01*
X48109024Y-56984131D01*
X47986119Y-57146885D01*
X47895206Y-57329464D01*
X47839393Y-57525625D01*
X47820575Y-57728710D01*
X47491005Y-57728710D01*
X47472187Y-57525627D01*
X47416372Y-57329460D01*
X47325463Y-57146889D01*
X47325460Y-57146885D01*
X47202555Y-56984131D01*
X47051830Y-56846728D01*
X47051829Y-56846727D01*
X46878438Y-56739368D01*
X46878431Y-56739364D01*
X46878427Y-56739362D01*
X46761923Y-56694228D01*
X46688247Y-56665686D01*
X46621419Y-56653194D01*
X46487766Y-56628210D01*
X46283814Y-56628210D01*
X46183574Y-56646948D01*
X46083332Y-56665686D01*
X45935980Y-56722770D01*
X45893153Y-56739362D01*
X45893152Y-56739362D01*
X45893151Y-56739363D01*
X45893141Y-56739368D01*
X45719750Y-56846727D01*
X45719749Y-56846728D01*
X45569024Y-56984131D01*
X45446119Y-57146885D01*
X45355206Y-57329464D01*
X45299393Y-57525625D01*
X45280575Y-57728710D01*
X43525500Y-57728710D01*
X43525500Y-56570000D01*
X61331379Y-56570000D01*
X61351777Y-56724935D01*
X61411577Y-56869310D01*
X61506710Y-56993289D01*
X61630689Y-57088422D01*
X61721731Y-57126131D01*
X61775065Y-57148223D01*
X61930000Y-57168621D01*
X62084935Y-57148223D01*
X62175977Y-57110512D01*
X62229310Y-57088422D01*
X62353289Y-56993289D01*
X62448422Y-56869310D01*
X62488985Y-56771379D01*
X62508223Y-56724935D01*
X62528621Y-56570000D01*
X62520722Y-56510000D01*
X69901379Y-56510000D01*
X69921777Y-56664935D01*
X69981577Y-56809310D01*
X70076710Y-56933289D01*
X70200689Y-57028422D01*
X70291731Y-57066131D01*
X70345065Y-57088223D01*
X70500000Y-57108621D01*
X70654935Y-57088223D01*
X70745977Y-57050512D01*
X70799310Y-57028422D01*
X70923289Y-56933289D01*
X71018422Y-56809310D01*
X71047394Y-56739363D01*
X71078223Y-56664935D01*
X71098621Y-56510000D01*
X71078223Y-56355065D01*
X71018421Y-56210690D01*
X70923289Y-56086711D01*
X70923287Y-56086709D01*
X70923286Y-56086708D01*
X70859333Y-56037635D01*
X70817466Y-55980297D01*
X70813244Y-55909426D01*
X70848008Y-55847523D01*
X70859323Y-55837718D01*
X70943289Y-55773289D01*
X70976506Y-55730000D01*
X80131379Y-55730000D01*
X80151777Y-55884935D01*
X80211577Y-56029310D01*
X80306710Y-56153289D01*
X80430689Y-56248422D01*
X80521731Y-56286131D01*
X80575065Y-56308223D01*
X80730000Y-56328621D01*
X80884935Y-56308223D01*
X80975977Y-56270512D01*
X81029310Y-56248422D01*
X81153289Y-56153289D01*
X81248422Y-56029310D01*
X81288194Y-55933289D01*
X81308223Y-55884935D01*
X81328621Y-55730000D01*
X81308223Y-55575065D01*
X81248421Y-55430690D01*
X81153289Y-55306711D01*
X81153287Y-55306709D01*
X81153286Y-55306708D01*
X81029310Y-55211577D01*
X80884935Y-55151777D01*
X80730000Y-55131379D01*
X80575066Y-55151776D01*
X80430691Y-55211578D01*
X80430688Y-55211580D01*
X80306711Y-55306711D01*
X80211580Y-55430688D01*
X80211578Y-55430691D01*
X80151776Y-55575066D01*
X80131379Y-55729999D01*
X80131379Y-55730000D01*
X70976506Y-55730000D01*
X71038421Y-55649311D01*
X71038420Y-55649311D01*
X71038422Y-55649310D01*
X71069174Y-55575065D01*
X71098223Y-55504935D01*
X71118621Y-55350000D01*
X71098223Y-55195065D01*
X71038421Y-55050690D01*
X70943289Y-54926711D01*
X70943287Y-54926709D01*
X70943286Y-54926708D01*
X70819310Y-54831577D01*
X70674935Y-54771777D01*
X70520000Y-54751379D01*
X70365066Y-54771776D01*
X70220691Y-54831578D01*
X70220688Y-54831580D01*
X70096711Y-54926711D01*
X70001580Y-55050688D01*
X70001578Y-55050691D01*
X69941776Y-55195066D01*
X69921379Y-55349999D01*
X69921379Y-55350000D01*
X69941777Y-55504935D01*
X70001577Y-55649310D01*
X70096710Y-55773288D01*
X70096711Y-55773289D01*
X70160666Y-55822364D01*
X70202534Y-55879701D01*
X70206756Y-55950572D01*
X70171992Y-56012475D01*
X70160667Y-56022288D01*
X70076713Y-56086708D01*
X69981580Y-56210688D01*
X69981578Y-56210691D01*
X69921776Y-56355066D01*
X69901379Y-56509999D01*
X69901379Y-56510000D01*
X62520722Y-56510000D01*
X62508223Y-56415065D01*
X62448421Y-56270690D01*
X62353289Y-56146711D01*
X62353287Y-56146709D01*
X62353286Y-56146708D01*
X62229310Y-56051577D01*
X62084935Y-55991777D01*
X61930000Y-55971379D01*
X61775066Y-55991776D01*
X61630691Y-56051578D01*
X61630688Y-56051580D01*
X61506711Y-56146711D01*
X61411580Y-56270688D01*
X61411578Y-56270691D01*
X61351776Y-56415066D01*
X61331379Y-56569999D01*
X61331379Y-56570000D01*
X43525500Y-56570000D01*
X43525500Y-55188710D01*
X45280575Y-55188710D01*
X45299393Y-55391794D01*
X45355206Y-55587955D01*
X45355207Y-55587957D01*
X45355208Y-55587960D01*
X45446117Y-55770531D01*
X45446118Y-55770532D01*
X45446119Y-55770534D01*
X45569024Y-55933288D01*
X45719749Y-56070691D01*
X45719750Y-56070692D01*
X45893141Y-56178051D01*
X45893144Y-56178052D01*
X45893153Y-56178058D01*
X46083334Y-56251734D01*
X46283814Y-56289210D01*
X46283816Y-56289210D01*
X46487764Y-56289210D01*
X46487766Y-56289210D01*
X46688246Y-56251734D01*
X46878427Y-56178058D01*
X47051831Y-56070691D01*
X47202554Y-55933289D01*
X47206033Y-55928683D01*
X47323380Y-55773289D01*
X47325463Y-55770531D01*
X47416372Y-55587960D01*
X47472187Y-55391793D01*
X47491005Y-55188710D01*
X47820575Y-55188710D01*
X47839393Y-55391794D01*
X47895206Y-55587955D01*
X47895207Y-55587957D01*
X47895208Y-55587960D01*
X47986117Y-55770531D01*
X47986118Y-55770532D01*
X47986119Y-55770534D01*
X48109024Y-55933288D01*
X48259749Y-56070691D01*
X48259750Y-56070692D01*
X48433141Y-56178051D01*
X48433144Y-56178052D01*
X48433153Y-56178058D01*
X48623334Y-56251734D01*
X48823814Y-56289210D01*
X48823816Y-56289210D01*
X49027764Y-56289210D01*
X49027766Y-56289210D01*
X49228246Y-56251734D01*
X49418427Y-56178058D01*
X49591831Y-56070691D01*
X49742554Y-55933289D01*
X49746033Y-55928683D01*
X49863380Y-55773289D01*
X49865463Y-55770531D01*
X49956372Y-55587960D01*
X50012187Y-55391793D01*
X50031005Y-55188710D01*
X50012187Y-54985627D01*
X49956372Y-54789460D01*
X49865463Y-54606889D01*
X49865460Y-54606885D01*
X49742555Y-54444131D01*
X49591830Y-54306728D01*
X49591829Y-54306727D01*
X49418438Y-54199368D01*
X49418431Y-54199364D01*
X49418427Y-54199362D01*
X49301923Y-54154228D01*
X49228247Y-54125686D01*
X49161419Y-54113194D01*
X49027766Y-54088210D01*
X48823814Y-54088210D01*
X48723574Y-54106948D01*
X48623332Y-54125686D01*
X48475980Y-54182770D01*
X48433153Y-54199362D01*
X48433152Y-54199362D01*
X48433151Y-54199363D01*
X48433141Y-54199368D01*
X48259750Y-54306727D01*
X48259749Y-54306728D01*
X48109024Y-54444131D01*
X47986119Y-54606885D01*
X47895206Y-54789464D01*
X47839393Y-54985625D01*
X47820575Y-55188710D01*
X47491005Y-55188710D01*
X47472187Y-54985627D01*
X47416372Y-54789460D01*
X47325463Y-54606889D01*
X47325460Y-54606885D01*
X47202555Y-54444131D01*
X47051830Y-54306728D01*
X47051829Y-54306727D01*
X46878438Y-54199368D01*
X46878431Y-54199364D01*
X46878427Y-54199362D01*
X46761923Y-54154228D01*
X46688247Y-54125686D01*
X46621419Y-54113194D01*
X46487766Y-54088210D01*
X46283814Y-54088210D01*
X46183574Y-54106948D01*
X46083332Y-54125686D01*
X45935980Y-54182770D01*
X45893153Y-54199362D01*
X45893152Y-54199362D01*
X45893151Y-54199363D01*
X45893141Y-54199368D01*
X45719750Y-54306727D01*
X45719749Y-54306728D01*
X45569024Y-54444131D01*
X45446119Y-54606885D01*
X45355206Y-54789464D01*
X45299393Y-54985625D01*
X45280575Y-55188710D01*
X43525500Y-55188710D01*
X43525500Y-52648710D01*
X45280575Y-52648710D01*
X45299393Y-52851794D01*
X45355206Y-53047955D01*
X45355207Y-53047957D01*
X45355208Y-53047960D01*
X45446117Y-53230531D01*
X45446118Y-53230532D01*
X45446119Y-53230534D01*
X45569024Y-53393288D01*
X45719749Y-53530691D01*
X45719750Y-53530692D01*
X45893141Y-53638051D01*
X45893144Y-53638052D01*
X45893153Y-53638058D01*
X46083334Y-53711734D01*
X46283814Y-53749210D01*
X46283816Y-53749210D01*
X46487764Y-53749210D01*
X46487766Y-53749210D01*
X46688246Y-53711734D01*
X46878427Y-53638058D01*
X47051831Y-53530691D01*
X47202554Y-53393289D01*
X47325463Y-53230531D01*
X47416372Y-53047960D01*
X47472187Y-52851793D01*
X47491005Y-52648710D01*
X47820575Y-52648710D01*
X47839393Y-52851794D01*
X47895206Y-53047955D01*
X47895207Y-53047957D01*
X47895208Y-53047960D01*
X47986117Y-53230531D01*
X47986118Y-53230532D01*
X47986119Y-53230534D01*
X48109024Y-53393288D01*
X48259749Y-53530691D01*
X48259750Y-53530692D01*
X48433141Y-53638051D01*
X48433144Y-53638052D01*
X48433153Y-53638058D01*
X48623334Y-53711734D01*
X48823814Y-53749210D01*
X48823816Y-53749210D01*
X49027764Y-53749210D01*
X49027766Y-53749210D01*
X49228246Y-53711734D01*
X49418427Y-53638058D01*
X49591831Y-53530691D01*
X49742554Y-53393289D01*
X49865463Y-53230531D01*
X49930459Y-53100000D01*
X54511379Y-53100000D01*
X54531777Y-53254935D01*
X54591577Y-53399310D01*
X54686710Y-53523289D01*
X54810689Y-53618422D01*
X54901731Y-53656131D01*
X54955065Y-53678223D01*
X55110000Y-53698621D01*
X55264935Y-53678223D01*
X55361920Y-53638051D01*
X55409310Y-53618422D01*
X55533289Y-53523289D01*
X55628422Y-53399310D01*
X55661926Y-53318421D01*
X55688223Y-53254935D01*
X55708621Y-53100000D01*
X55688223Y-52945065D01*
X55686125Y-52940000D01*
X67471379Y-52940000D01*
X67491777Y-53094935D01*
X67551577Y-53239310D01*
X67646710Y-53363289D01*
X67770689Y-53458422D01*
X67861731Y-53496131D01*
X67915065Y-53518223D01*
X68070000Y-53538621D01*
X68224935Y-53518223D01*
X68315977Y-53480512D01*
X68369310Y-53458422D01*
X68493289Y-53363289D01*
X68588422Y-53239310D01*
X68608846Y-53190000D01*
X68931379Y-53190000D01*
X68951777Y-53344935D01*
X69011577Y-53489310D01*
X69106710Y-53613289D01*
X69230689Y-53708422D01*
X69321731Y-53746131D01*
X69375065Y-53768223D01*
X69530000Y-53788621D01*
X69684935Y-53768223D01*
X69775977Y-53730512D01*
X69829310Y-53708422D01*
X69953289Y-53613289D01*
X70048422Y-53489310D01*
X70085700Y-53399310D01*
X70108223Y-53344935D01*
X70128621Y-53190000D01*
X70108223Y-53035065D01*
X70048421Y-52890690D01*
X69978832Y-52800000D01*
X73161379Y-52800000D01*
X73181777Y-52954935D01*
X73241577Y-53099310D01*
X73336710Y-53223289D01*
X73460689Y-53318422D01*
X73551731Y-53356131D01*
X73605065Y-53378223D01*
X73760000Y-53398621D01*
X73914935Y-53378223D01*
X74005977Y-53340512D01*
X74059310Y-53318422D01*
X74183289Y-53223289D01*
X74278422Y-53099310D01*
X74305032Y-53035065D01*
X74338223Y-52954935D01*
X74358621Y-52800000D01*
X74338223Y-52645065D01*
X74278421Y-52500690D01*
X74192119Y-52388219D01*
X74166519Y-52322000D01*
X74180784Y-52252451D01*
X74192120Y-52234812D01*
X74202121Y-52221779D01*
X74288421Y-52109311D01*
X74348223Y-51964935D01*
X74368621Y-51810000D01*
X74348223Y-51655065D01*
X74288421Y-51510690D01*
X74222465Y-51424734D01*
X74196866Y-51358515D01*
X74211131Y-51288967D01*
X74222467Y-51271328D01*
X74298889Y-51171733D01*
X74308421Y-51159311D01*
X74368223Y-51014935D01*
X74388621Y-50860000D01*
X74387737Y-50853289D01*
X74368223Y-50705066D01*
X74362203Y-50690531D01*
X74308421Y-50560690D01*
X74213289Y-50436711D01*
X74213287Y-50436709D01*
X74213286Y-50436708D01*
X74089310Y-50341577D01*
X73944935Y-50281777D01*
X73790000Y-50261379D01*
X73635066Y-50281776D01*
X73490691Y-50341578D01*
X73490688Y-50341580D01*
X73366711Y-50436711D01*
X73271580Y-50560688D01*
X73271578Y-50560691D01*
X73211776Y-50705066D01*
X73191379Y-50859999D01*
X73191379Y-50860000D01*
X73211777Y-51014935D01*
X73271577Y-51159310D01*
X73337532Y-51245263D01*
X73363133Y-51311483D01*
X73348868Y-51381032D01*
X73337533Y-51398670D01*
X73251583Y-51510683D01*
X73251578Y-51510691D01*
X73191776Y-51655066D01*
X73171379Y-51809999D01*
X73171379Y-51810000D01*
X73191777Y-51964935D01*
X73251577Y-52109309D01*
X73337879Y-52221779D01*
X73363480Y-52287999D01*
X73349216Y-52357548D01*
X73337880Y-52375186D01*
X73241583Y-52500683D01*
X73241578Y-52500691D01*
X73181776Y-52645066D01*
X73161379Y-52799999D01*
X73161379Y-52800000D01*
X69978832Y-52800000D01*
X69953289Y-52766711D01*
X69953287Y-52766709D01*
X69953286Y-52766708D01*
X69829310Y-52671577D01*
X69684935Y-52611777D01*
X69530000Y-52591379D01*
X69375066Y-52611776D01*
X69230691Y-52671578D01*
X69230688Y-52671580D01*
X69106711Y-52766711D01*
X69011580Y-52890688D01*
X69011578Y-52890691D01*
X68951776Y-53035066D01*
X68931379Y-53189999D01*
X68931379Y-53190000D01*
X68608846Y-53190000D01*
X68610512Y-53185977D01*
X68648223Y-53094935D01*
X68668621Y-52940000D01*
X68648223Y-52785065D01*
X68588421Y-52640690D01*
X68493289Y-52516711D01*
X68493287Y-52516709D01*
X68493286Y-52516708D01*
X68369310Y-52421577D01*
X68224935Y-52361777D01*
X68070000Y-52341379D01*
X67915066Y-52361776D01*
X67770691Y-52421578D01*
X67770688Y-52421580D01*
X67646711Y-52516711D01*
X67551580Y-52640688D01*
X67551578Y-52640691D01*
X67491776Y-52785066D01*
X67471379Y-52939999D01*
X67471379Y-52940000D01*
X55686125Y-52940000D01*
X55628421Y-52800690D01*
X55533289Y-52676711D01*
X55533287Y-52676709D01*
X55533286Y-52676708D01*
X55409310Y-52581577D01*
X55264935Y-52521777D01*
X55110000Y-52501379D01*
X54955066Y-52521776D01*
X54810691Y-52581578D01*
X54810688Y-52581580D01*
X54686711Y-52676711D01*
X54591580Y-52800688D01*
X54591578Y-52800691D01*
X54531776Y-52945066D01*
X54511379Y-53099999D01*
X54511379Y-53100000D01*
X49930459Y-53100000D01*
X49956372Y-53047960D01*
X50012187Y-52851793D01*
X50031005Y-52648710D01*
X50012187Y-52445627D01*
X49956372Y-52249460D01*
X49865463Y-52066889D01*
X49865460Y-52066885D01*
X49742555Y-51904131D01*
X49591830Y-51766728D01*
X49591829Y-51766727D01*
X49418438Y-51659368D01*
X49418431Y-51659364D01*
X49418427Y-51659362D01*
X49301923Y-51614228D01*
X49228247Y-51585686D01*
X49161419Y-51573194D01*
X49027766Y-51548210D01*
X48823814Y-51548210D01*
X48723574Y-51566948D01*
X48623332Y-51585686D01*
X48475980Y-51642770D01*
X48433153Y-51659362D01*
X48433152Y-51659362D01*
X48433151Y-51659363D01*
X48433141Y-51659368D01*
X48259750Y-51766727D01*
X48259749Y-51766728D01*
X48109024Y-51904131D01*
X47986119Y-52066885D01*
X47895206Y-52249464D01*
X47839393Y-52445625D01*
X47820575Y-52648710D01*
X47491005Y-52648710D01*
X47472187Y-52445627D01*
X47416372Y-52249460D01*
X47325463Y-52066889D01*
X47325460Y-52066885D01*
X47202555Y-51904131D01*
X47051830Y-51766728D01*
X47051829Y-51766727D01*
X46878438Y-51659368D01*
X46878431Y-51659364D01*
X46878427Y-51659362D01*
X46761923Y-51614228D01*
X46688247Y-51585686D01*
X46621419Y-51573194D01*
X46487766Y-51548210D01*
X46283814Y-51548210D01*
X46183574Y-51566948D01*
X46083332Y-51585686D01*
X45935980Y-51642770D01*
X45893153Y-51659362D01*
X45893152Y-51659362D01*
X45893151Y-51659363D01*
X45893141Y-51659368D01*
X45719750Y-51766727D01*
X45719749Y-51766728D01*
X45569024Y-51904131D01*
X45446119Y-52066885D01*
X45355206Y-52249464D01*
X45299393Y-52445625D01*
X45280575Y-52648710D01*
X43525500Y-52648710D01*
X43525500Y-50108710D01*
X45280575Y-50108710D01*
X45299393Y-50311794D01*
X45355206Y-50507955D01*
X45355207Y-50507957D01*
X45355208Y-50507960D01*
X45446117Y-50690531D01*
X45446118Y-50690532D01*
X45446119Y-50690534D01*
X45569024Y-50853288D01*
X45719749Y-50990691D01*
X45719750Y-50990692D01*
X45893141Y-51098051D01*
X45893144Y-51098052D01*
X45893153Y-51098058D01*
X46083334Y-51171734D01*
X46283814Y-51209210D01*
X46283816Y-51209210D01*
X46487764Y-51209210D01*
X46487766Y-51209210D01*
X46688246Y-51171734D01*
X46878427Y-51098058D01*
X47051831Y-50990691D01*
X47202554Y-50853289D01*
X47325463Y-50690531D01*
X47416372Y-50507960D01*
X47472187Y-50311793D01*
X47491005Y-50108710D01*
X47820575Y-50108710D01*
X47839393Y-50311794D01*
X47895206Y-50507955D01*
X47895207Y-50507957D01*
X47895208Y-50507960D01*
X47986117Y-50690531D01*
X47986118Y-50690532D01*
X47986119Y-50690534D01*
X48109024Y-50853288D01*
X48259749Y-50990691D01*
X48259750Y-50990692D01*
X48433141Y-51098051D01*
X48433144Y-51098052D01*
X48433153Y-51098058D01*
X48623334Y-51171734D01*
X48823814Y-51209210D01*
X48823816Y-51209210D01*
X49027764Y-51209210D01*
X49027766Y-51209210D01*
X49228246Y-51171734D01*
X49418427Y-51098058D01*
X49591831Y-50990691D01*
X49742554Y-50853289D01*
X49865463Y-50690531D01*
X49956372Y-50507960D01*
X50012187Y-50311793D01*
X50031005Y-50108710D01*
X50012187Y-49905627D01*
X49956372Y-49709460D01*
X49865463Y-49526889D01*
X49830054Y-49480000D01*
X50961379Y-49480000D01*
X50981777Y-49634935D01*
X51041577Y-49779310D01*
X51136710Y-49903289D01*
X51260689Y-49998422D01*
X51351731Y-50036131D01*
X51405065Y-50058223D01*
X51560000Y-50078621D01*
X51714935Y-50058223D01*
X51805977Y-50020512D01*
X51859310Y-49998422D01*
X51983289Y-49903289D01*
X52077893Y-49780000D01*
X65901379Y-49780000D01*
X65921777Y-49934935D01*
X65981577Y-50079310D01*
X66076710Y-50203289D01*
X66200689Y-50298422D01*
X66291731Y-50336131D01*
X66345065Y-50358223D01*
X66500000Y-50378621D01*
X66654935Y-50358223D01*
X66745977Y-50320512D01*
X66799310Y-50298422D01*
X66923289Y-50203289D01*
X67018422Y-50079310D01*
X67051926Y-49998421D01*
X67078223Y-49934935D01*
X67098621Y-49780000D01*
X67078223Y-49625065D01*
X67018421Y-49480690D01*
X66923289Y-49356711D01*
X66923287Y-49356709D01*
X66923286Y-49356708D01*
X66799310Y-49261577D01*
X66654935Y-49201777D01*
X66500000Y-49181379D01*
X66345066Y-49201776D01*
X66200691Y-49261578D01*
X66200688Y-49261580D01*
X66076711Y-49356711D01*
X65981580Y-49480688D01*
X65981578Y-49480691D01*
X65921776Y-49625066D01*
X65901379Y-49779999D01*
X65901379Y-49780000D01*
X52077893Y-49780000D01*
X52078422Y-49779310D01*
X52107354Y-49709460D01*
X52138223Y-49634935D01*
X52158621Y-49480000D01*
X52138223Y-49325065D01*
X52078421Y-49180690D01*
X52001159Y-49080000D01*
X67601379Y-49080000D01*
X67621777Y-49234935D01*
X67681577Y-49379310D01*
X67776710Y-49503289D01*
X67900689Y-49598422D01*
X67965016Y-49625066D01*
X68045065Y-49658223D01*
X68200000Y-49678621D01*
X68354935Y-49658223D01*
X68445977Y-49620512D01*
X68499310Y-49598422D01*
X68623289Y-49503289D01*
X68718422Y-49379310D01*
X68767186Y-49261580D01*
X68778223Y-49234935D01*
X68798621Y-49080000D01*
X68795554Y-49056708D01*
X68783030Y-48961577D01*
X68778223Y-48925065D01*
X68742988Y-48840000D01*
X85711379Y-48840000D01*
X85731777Y-48994935D01*
X85791577Y-49139310D01*
X85886710Y-49263289D01*
X86010689Y-49358422D01*
X86101731Y-49396131D01*
X86155065Y-49418223D01*
X86310000Y-49438621D01*
X86464935Y-49418223D01*
X86558880Y-49379310D01*
X86609310Y-49358422D01*
X86733289Y-49263289D01*
X86828422Y-49139310D01*
X86859910Y-49063289D01*
X86888223Y-48994935D01*
X86908621Y-48840000D01*
X86888223Y-48685065D01*
X86877610Y-48659444D01*
X86870022Y-48588858D01*
X86901801Y-48525371D01*
X86962859Y-48489143D01*
X86977566Y-48486308D01*
X87032588Y-48479064D01*
X87102735Y-48490003D01*
X87155834Y-48537131D01*
X87175024Y-48605484D01*
X87173955Y-48620432D01*
X87171379Y-48639998D01*
X87171379Y-48640000D01*
X87191777Y-48794935D01*
X87251577Y-48939310D01*
X87346710Y-49063289D01*
X87470689Y-49158422D01*
X87561731Y-49196131D01*
X87615065Y-49218223D01*
X87770000Y-49238621D01*
X87924935Y-49218223D01*
X88015977Y-49180512D01*
X88069310Y-49158422D01*
X88193289Y-49063289D01*
X88288422Y-48939310D01*
X88312417Y-48881379D01*
X88348223Y-48794935D01*
X88368621Y-48640000D01*
X88348223Y-48485065D01*
X88288421Y-48340690D01*
X88193289Y-48216711D01*
X88193287Y-48216709D01*
X88193286Y-48216708D01*
X88069310Y-48121577D01*
X87917306Y-48058617D01*
X87918216Y-48056418D01*
X87868012Y-48025818D01*
X87836991Y-47961957D01*
X87845419Y-47891463D01*
X87890622Y-47836715D01*
X87944799Y-47816140D01*
X88004935Y-47808223D01*
X88095977Y-47770512D01*
X88149310Y-47748422D01*
X88273289Y-47653289D01*
X88368422Y-47529310D01*
X88390512Y-47475977D01*
X88428223Y-47384935D01*
X88448621Y-47230000D01*
X88428223Y-47075065D01*
X88368421Y-46930690D01*
X88273289Y-46806711D01*
X88273287Y-46806709D01*
X88273286Y-46806708D01*
X88149310Y-46711577D01*
X88004935Y-46651777D01*
X87850000Y-46631379D01*
X87695066Y-46651776D01*
X87550691Y-46711578D01*
X87550688Y-46711580D01*
X87426711Y-46806711D01*
X87331580Y-46930688D01*
X87331578Y-46930691D01*
X87271777Y-47075065D01*
X87254917Y-47203120D01*
X87226194Y-47268047D01*
X87166928Y-47307138D01*
X87113549Y-47311594D01*
X86960001Y-47291379D01*
X86960000Y-47291379D01*
X86805066Y-47311776D01*
X86660691Y-47371578D01*
X86660688Y-47371580D01*
X86536711Y-47466711D01*
X86441580Y-47590688D01*
X86441578Y-47590691D01*
X86381776Y-47735066D01*
X86361379Y-47889999D01*
X86361379Y-47890000D01*
X86381777Y-48044935D01*
X86392388Y-48070553D01*
X86399977Y-48141143D01*
X86368197Y-48204630D01*
X86307138Y-48240856D01*
X86292426Y-48243692D01*
X86155066Y-48261776D01*
X86010691Y-48321578D01*
X86010688Y-48321580D01*
X85886711Y-48416711D01*
X85791580Y-48540688D01*
X85791578Y-48540691D01*
X85731776Y-48685066D01*
X85711379Y-48839999D01*
X85711379Y-48840000D01*
X68742988Y-48840000D01*
X68718421Y-48780690D01*
X68623289Y-48656711D01*
X68623287Y-48656709D01*
X68623286Y-48656708D01*
X68499310Y-48561577D01*
X68354935Y-48501777D01*
X68200000Y-48481379D01*
X68045066Y-48501776D01*
X67900691Y-48561578D01*
X67900688Y-48561580D01*
X67776711Y-48656711D01*
X67681580Y-48780688D01*
X67681578Y-48780691D01*
X67621776Y-48925066D01*
X67601379Y-49079999D01*
X67601379Y-49080000D01*
X52001159Y-49080000D01*
X51983289Y-49056711D01*
X51983287Y-49056709D01*
X51983286Y-49056708D01*
X51859310Y-48961577D01*
X51714935Y-48901777D01*
X51560000Y-48881379D01*
X51405066Y-48901776D01*
X51260691Y-48961578D01*
X51260688Y-48961580D01*
X51136711Y-49056711D01*
X51041580Y-49180688D01*
X51041578Y-49180691D01*
X50981776Y-49325066D01*
X50961379Y-49479999D01*
X50961379Y-49480000D01*
X49830054Y-49480000D01*
X49742555Y-49364131D01*
X49591830Y-49226728D01*
X49591829Y-49226727D01*
X49418438Y-49119368D01*
X49418431Y-49119364D01*
X49418427Y-49119362D01*
X49273685Y-49063289D01*
X49228247Y-49045686D01*
X49161419Y-49033194D01*
X49027766Y-49008210D01*
X48823814Y-49008210D01*
X48723574Y-49026948D01*
X48623332Y-49045686D01*
X48475980Y-49102770D01*
X48433153Y-49119362D01*
X48433152Y-49119362D01*
X48433151Y-49119363D01*
X48433141Y-49119368D01*
X48259750Y-49226727D01*
X48259749Y-49226728D01*
X48109024Y-49364131D01*
X47986119Y-49526885D01*
X47895206Y-49709464D01*
X47839393Y-49905625D01*
X47820575Y-50108710D01*
X47491005Y-50108710D01*
X47472187Y-49905627D01*
X47416372Y-49709460D01*
X47325463Y-49526889D01*
X47290054Y-49480000D01*
X47202555Y-49364131D01*
X47051830Y-49226728D01*
X47051829Y-49226727D01*
X46878438Y-49119368D01*
X46878431Y-49119364D01*
X46878427Y-49119362D01*
X46733685Y-49063289D01*
X46688247Y-49045686D01*
X46621419Y-49033194D01*
X46487766Y-49008210D01*
X46283814Y-49008210D01*
X46183574Y-49026948D01*
X46083332Y-49045686D01*
X45935980Y-49102770D01*
X45893153Y-49119362D01*
X45893152Y-49119362D01*
X45893151Y-49119363D01*
X45893141Y-49119368D01*
X45719750Y-49226727D01*
X45719749Y-49226728D01*
X45569024Y-49364131D01*
X45446119Y-49526885D01*
X45355206Y-49709464D01*
X45299393Y-49905625D01*
X45280575Y-50108710D01*
X43525500Y-50108710D01*
X43525500Y-47568710D01*
X47820575Y-47568710D01*
X47839393Y-47771794D01*
X47895206Y-47967955D01*
X47895207Y-47967957D01*
X47895208Y-47967960D01*
X47986117Y-48150531D01*
X47986118Y-48150532D01*
X47986119Y-48150534D01*
X48109024Y-48313288D01*
X48259749Y-48450691D01*
X48259750Y-48450692D01*
X48433141Y-48558051D01*
X48433144Y-48558052D01*
X48433153Y-48558058D01*
X48623334Y-48631734D01*
X48823814Y-48669210D01*
X48823816Y-48669210D01*
X49027764Y-48669210D01*
X49027766Y-48669210D01*
X49228246Y-48631734D01*
X49418427Y-48558058D01*
X49591831Y-48450691D01*
X49742554Y-48313289D01*
X49865463Y-48150531D01*
X49956372Y-47967960D01*
X50012187Y-47771793D01*
X50031005Y-47568710D01*
X50012187Y-47365627D01*
X49956372Y-47169460D01*
X49865463Y-46986889D01*
X49865460Y-46986885D01*
X49742555Y-46824131D01*
X49591830Y-46686728D01*
X49591829Y-46686727D01*
X49418438Y-46579368D01*
X49418431Y-46579364D01*
X49418427Y-46579362D01*
X49301923Y-46534228D01*
X49228247Y-46505686D01*
X49161419Y-46493194D01*
X49027766Y-46468210D01*
X48823814Y-46468210D01*
X48723574Y-46486948D01*
X48623332Y-46505686D01*
X48475980Y-46562770D01*
X48433153Y-46579362D01*
X48433152Y-46579362D01*
X48433151Y-46579363D01*
X48433141Y-46579368D01*
X48259750Y-46686727D01*
X48259749Y-46686728D01*
X48109024Y-46824131D01*
X47986119Y-46986885D01*
X47895206Y-47169464D01*
X47839393Y-47365625D01*
X47820575Y-47568710D01*
X43525500Y-47568710D01*
X43525500Y-45028710D01*
X45280575Y-45028710D01*
X45299393Y-45231794D01*
X45355206Y-45427955D01*
X45355207Y-45427957D01*
X45355208Y-45427960D01*
X45446117Y-45610531D01*
X45446118Y-45610532D01*
X45446119Y-45610534D01*
X45569024Y-45773288D01*
X45719749Y-45910691D01*
X45719750Y-45910692D01*
X45893141Y-46018051D01*
X45893144Y-46018052D01*
X45893153Y-46018058D01*
X46083334Y-46091734D01*
X46283814Y-46129210D01*
X46283816Y-46129210D01*
X46487764Y-46129210D01*
X46487766Y-46129210D01*
X46688246Y-46091734D01*
X46878427Y-46018058D01*
X47051831Y-45910691D01*
X47202554Y-45773289D01*
X47325463Y-45610531D01*
X47416372Y-45427960D01*
X47472187Y-45231793D01*
X47491005Y-45028710D01*
X47820575Y-45028710D01*
X47839393Y-45231794D01*
X47895206Y-45427955D01*
X47895207Y-45427957D01*
X47895208Y-45427960D01*
X47986117Y-45610531D01*
X47986118Y-45610532D01*
X47986119Y-45610534D01*
X48109024Y-45773288D01*
X48259749Y-45910691D01*
X48259750Y-45910692D01*
X48433141Y-46018051D01*
X48433144Y-46018052D01*
X48433153Y-46018058D01*
X48623334Y-46091734D01*
X48823814Y-46129210D01*
X48823816Y-46129210D01*
X49027764Y-46129210D01*
X49027766Y-46129210D01*
X49228246Y-46091734D01*
X49418427Y-46018058D01*
X49591831Y-45910691D01*
X49742554Y-45773289D01*
X49865463Y-45610531D01*
X49956372Y-45427960D01*
X50012187Y-45231793D01*
X50031005Y-45028710D01*
X50012187Y-44825627D01*
X49987824Y-44740000D01*
X67091379Y-44740000D01*
X67111777Y-44894935D01*
X67171577Y-45039310D01*
X67266710Y-45163289D01*
X67390689Y-45258422D01*
X67481731Y-45296131D01*
X67535065Y-45318223D01*
X67690000Y-45338621D01*
X67844935Y-45318223D01*
X67935977Y-45280512D01*
X67989310Y-45258422D01*
X68113289Y-45163289D01*
X68208422Y-45039310D01*
X68230512Y-44985977D01*
X68268223Y-44894935D01*
X68288621Y-44740000D01*
X68268223Y-44585065D01*
X68208421Y-44440690D01*
X68113289Y-44316711D01*
X68113287Y-44316709D01*
X68113286Y-44316708D01*
X67989310Y-44221577D01*
X67844935Y-44161777D01*
X67690000Y-44141379D01*
X67535066Y-44161776D01*
X67390691Y-44221578D01*
X67390688Y-44221580D01*
X67266711Y-44316711D01*
X67171580Y-44440688D01*
X67171578Y-44440691D01*
X67111776Y-44585066D01*
X67091379Y-44739999D01*
X67091379Y-44740000D01*
X49987824Y-44740000D01*
X49956372Y-44629460D01*
X49865463Y-44446889D01*
X49865460Y-44446885D01*
X49742555Y-44284131D01*
X49591830Y-44146728D01*
X49591829Y-44146727D01*
X49418438Y-44039368D01*
X49418431Y-44039364D01*
X49418427Y-44039362D01*
X49301923Y-43994228D01*
X49228247Y-43965686D01*
X49161419Y-43953194D01*
X49027766Y-43928210D01*
X48823814Y-43928210D01*
X48723574Y-43946948D01*
X48623332Y-43965686D01*
X48475980Y-44022770D01*
X48433153Y-44039362D01*
X48433152Y-44039362D01*
X48433151Y-44039363D01*
X48433141Y-44039368D01*
X48259750Y-44146727D01*
X48259749Y-44146728D01*
X48109024Y-44284131D01*
X47986119Y-44446885D01*
X47895206Y-44629464D01*
X47839393Y-44825625D01*
X47820575Y-45028710D01*
X47491005Y-45028710D01*
X47472187Y-44825627D01*
X47416372Y-44629460D01*
X47325463Y-44446889D01*
X47325460Y-44446885D01*
X47202555Y-44284131D01*
X47051830Y-44146728D01*
X47051829Y-44146727D01*
X46878438Y-44039368D01*
X46878431Y-44039364D01*
X46878427Y-44039362D01*
X46761923Y-43994228D01*
X46688247Y-43965686D01*
X46621419Y-43953194D01*
X46487766Y-43928210D01*
X46283814Y-43928210D01*
X46183574Y-43946948D01*
X46083332Y-43965686D01*
X45935980Y-44022770D01*
X45893153Y-44039362D01*
X45893152Y-44039362D01*
X45893151Y-44039363D01*
X45893141Y-44039368D01*
X45719750Y-44146727D01*
X45719749Y-44146728D01*
X45569024Y-44284131D01*
X45446119Y-44446885D01*
X45355206Y-44629464D01*
X45299393Y-44825625D01*
X45280575Y-45028710D01*
X43525500Y-45028710D01*
X43525500Y-42488710D01*
X45280575Y-42488710D01*
X45299393Y-42691794D01*
X45355206Y-42887955D01*
X45355207Y-42887957D01*
X45355208Y-42887960D01*
X45446117Y-43070531D01*
X45446118Y-43070532D01*
X45446119Y-43070534D01*
X45569024Y-43233288D01*
X45719749Y-43370691D01*
X45719750Y-43370692D01*
X45893141Y-43478051D01*
X45893144Y-43478052D01*
X45893153Y-43478058D01*
X46083334Y-43551734D01*
X46283814Y-43589210D01*
X46283816Y-43589210D01*
X46487764Y-43589210D01*
X46487766Y-43589210D01*
X46688246Y-43551734D01*
X46878427Y-43478058D01*
X47051831Y-43370691D01*
X47202554Y-43233289D01*
X47205039Y-43229999D01*
X47233281Y-43192599D01*
X47325463Y-43070531D01*
X47416372Y-42887960D01*
X47472187Y-42691793D01*
X47491005Y-42488710D01*
X47820575Y-42488710D01*
X47839393Y-42691794D01*
X47895206Y-42887955D01*
X47895207Y-42887957D01*
X47895208Y-42887960D01*
X47986117Y-43070531D01*
X47986118Y-43070532D01*
X47986119Y-43070534D01*
X48109024Y-43233288D01*
X48259749Y-43370691D01*
X48259750Y-43370692D01*
X48433141Y-43478051D01*
X48433144Y-43478052D01*
X48433153Y-43478058D01*
X48623334Y-43551734D01*
X48823814Y-43589210D01*
X48823816Y-43589210D01*
X49027764Y-43589210D01*
X49027766Y-43589210D01*
X49228246Y-43551734D01*
X49418427Y-43478058D01*
X49591831Y-43370691D01*
X49724223Y-43250000D01*
X82341379Y-43250000D01*
X82361777Y-43404935D01*
X82421577Y-43549310D01*
X82516710Y-43673289D01*
X82640689Y-43768422D01*
X82731731Y-43806131D01*
X82785065Y-43828223D01*
X82940000Y-43848621D01*
X83094935Y-43828223D01*
X83185977Y-43790512D01*
X83239310Y-43768422D01*
X83363289Y-43673289D01*
X83458422Y-43549310D01*
X83487935Y-43478058D01*
X83518223Y-43404935D01*
X83538621Y-43250000D01*
X83535988Y-43230000D01*
X84281379Y-43230000D01*
X84301777Y-43384935D01*
X84361577Y-43529310D01*
X84456710Y-43653289D01*
X84580689Y-43748422D01*
X84671731Y-43786131D01*
X84725065Y-43808223D01*
X84880000Y-43828621D01*
X85034935Y-43808223D01*
X85131026Y-43768421D01*
X85179310Y-43748422D01*
X85303289Y-43653289D01*
X85398422Y-43529310D01*
X85420512Y-43475977D01*
X85458223Y-43384935D01*
X85478621Y-43230000D01*
X85458223Y-43075065D01*
X85398421Y-42930690D01*
X85303289Y-42806711D01*
X85303287Y-42806709D01*
X85303286Y-42806708D01*
X85179310Y-42711577D01*
X85034935Y-42651777D01*
X84880000Y-42631379D01*
X84725066Y-42651776D01*
X84580691Y-42711578D01*
X84580688Y-42711580D01*
X84456711Y-42806711D01*
X84361580Y-42930688D01*
X84361578Y-42930691D01*
X84301776Y-43075066D01*
X84281379Y-43229999D01*
X84281379Y-43230000D01*
X83535988Y-43230000D01*
X83518223Y-43095065D01*
X83458421Y-42950690D01*
X83363289Y-42826711D01*
X83363287Y-42826709D01*
X83363286Y-42826708D01*
X83239310Y-42731577D01*
X83094935Y-42671777D01*
X82940000Y-42651379D01*
X82785066Y-42671776D01*
X82640691Y-42731578D01*
X82640688Y-42731580D01*
X82516711Y-42826711D01*
X82421580Y-42950688D01*
X82421578Y-42950691D01*
X82361776Y-43095066D01*
X82341379Y-43249999D01*
X82341379Y-43250000D01*
X49724223Y-43250000D01*
X49742554Y-43233289D01*
X49745039Y-43229999D01*
X49773281Y-43192599D01*
X49865463Y-43070531D01*
X49956372Y-42887960D01*
X50012187Y-42691793D01*
X50031005Y-42488710D01*
X50012187Y-42285627D01*
X49956372Y-42089460D01*
X49865463Y-41906889D01*
X49865460Y-41906885D01*
X49742555Y-41744131D01*
X49591830Y-41606728D01*
X49591829Y-41606727D01*
X49418438Y-41499368D01*
X49418431Y-41499364D01*
X49418427Y-41499362D01*
X49301923Y-41454228D01*
X49228247Y-41425686D01*
X49161419Y-41413194D01*
X49027766Y-41388210D01*
X48823814Y-41388210D01*
X48723574Y-41406948D01*
X48623332Y-41425686D01*
X48475980Y-41482770D01*
X48433153Y-41499362D01*
X48433152Y-41499362D01*
X48433151Y-41499363D01*
X48433141Y-41499368D01*
X48259750Y-41606727D01*
X48259749Y-41606728D01*
X48109024Y-41744131D01*
X47986119Y-41906885D01*
X47895206Y-42089464D01*
X47839393Y-42285625D01*
X47820575Y-42488710D01*
X47491005Y-42488710D01*
X47472187Y-42285627D01*
X47416372Y-42089460D01*
X47325463Y-41906889D01*
X47325460Y-41906885D01*
X47202555Y-41744131D01*
X47051830Y-41606728D01*
X47051829Y-41606727D01*
X46878438Y-41499368D01*
X46878431Y-41499364D01*
X46878427Y-41499362D01*
X46761923Y-41454228D01*
X46688247Y-41425686D01*
X46621419Y-41413194D01*
X46487766Y-41388210D01*
X46283814Y-41388210D01*
X46183574Y-41406948D01*
X46083332Y-41425686D01*
X45935980Y-41482770D01*
X45893153Y-41499362D01*
X45893152Y-41499362D01*
X45893151Y-41499363D01*
X45893141Y-41499368D01*
X45719750Y-41606727D01*
X45719749Y-41606728D01*
X45569024Y-41744131D01*
X45446119Y-41906885D01*
X45355206Y-42089464D01*
X45299393Y-42285625D01*
X45280575Y-42488710D01*
X43525500Y-42488710D01*
X43525500Y-39948710D01*
X45280575Y-39948710D01*
X45299393Y-40151794D01*
X45355206Y-40347955D01*
X45355207Y-40347957D01*
X45355208Y-40347960D01*
X45446117Y-40530531D01*
X45446118Y-40530532D01*
X45446119Y-40530534D01*
X45569024Y-40693288D01*
X45719749Y-40830691D01*
X45719750Y-40830692D01*
X45893141Y-40938051D01*
X45893144Y-40938052D01*
X45893153Y-40938058D01*
X46083334Y-41011734D01*
X46283814Y-41049210D01*
X46283816Y-41049210D01*
X46487764Y-41049210D01*
X46487766Y-41049210D01*
X46688246Y-41011734D01*
X46878427Y-40938058D01*
X47051831Y-40830691D01*
X47202554Y-40693289D01*
X47325463Y-40530531D01*
X47416372Y-40347960D01*
X47472187Y-40151793D01*
X47491005Y-39948710D01*
X47820575Y-39948710D01*
X47839393Y-40151794D01*
X47895206Y-40347955D01*
X47895207Y-40347957D01*
X47895208Y-40347960D01*
X47986117Y-40530531D01*
X47986118Y-40530532D01*
X47986119Y-40530534D01*
X48109024Y-40693288D01*
X48259749Y-40830691D01*
X48259750Y-40830692D01*
X48433141Y-40938051D01*
X48433144Y-40938052D01*
X48433153Y-40938058D01*
X48623334Y-41011734D01*
X48823814Y-41049210D01*
X48823816Y-41049210D01*
X49027764Y-41049210D01*
X49027766Y-41049210D01*
X49228246Y-41011734D01*
X49418427Y-40938058D01*
X49591831Y-40830691D01*
X49742554Y-40693289D01*
X49865463Y-40530531D01*
X49956372Y-40347960D01*
X50012187Y-40151793D01*
X50031005Y-39948710D01*
X50012187Y-39745627D01*
X49956372Y-39549460D01*
X49865463Y-39366889D01*
X49865460Y-39366885D01*
X49742555Y-39204131D01*
X49591830Y-39066728D01*
X49591829Y-39066727D01*
X49418438Y-38959368D01*
X49418431Y-38959364D01*
X49418427Y-38959362D01*
X49301923Y-38914228D01*
X49228247Y-38885686D01*
X49161419Y-38873194D01*
X49027766Y-38848210D01*
X48823814Y-38848210D01*
X48723574Y-38866948D01*
X48623332Y-38885686D01*
X48475980Y-38942770D01*
X48433153Y-38959362D01*
X48433152Y-38959362D01*
X48433151Y-38959363D01*
X48433141Y-38959368D01*
X48259750Y-39066727D01*
X48259749Y-39066728D01*
X48109024Y-39204131D01*
X47986119Y-39366885D01*
X47895206Y-39549464D01*
X47839393Y-39745625D01*
X47820575Y-39948710D01*
X47491005Y-39948710D01*
X47472187Y-39745627D01*
X47416372Y-39549460D01*
X47325463Y-39366889D01*
X47325460Y-39366885D01*
X47202555Y-39204131D01*
X47051830Y-39066728D01*
X47051829Y-39066727D01*
X46878438Y-38959368D01*
X46878431Y-38959364D01*
X46878427Y-38959362D01*
X46761923Y-38914228D01*
X46688247Y-38885686D01*
X46621419Y-38873194D01*
X46487766Y-38848210D01*
X46283814Y-38848210D01*
X46183574Y-38866948D01*
X46083332Y-38885686D01*
X45935980Y-38942770D01*
X45893153Y-38959362D01*
X45893152Y-38959362D01*
X45893151Y-38959363D01*
X45893141Y-38959368D01*
X45719750Y-39066727D01*
X45719749Y-39066728D01*
X45569024Y-39204131D01*
X45446119Y-39366885D01*
X45355206Y-39549464D01*
X45299393Y-39745625D01*
X45280575Y-39948710D01*
X43525500Y-39948710D01*
X43525500Y-37408710D01*
X45280575Y-37408710D01*
X45299393Y-37611794D01*
X45355206Y-37807955D01*
X45355207Y-37807957D01*
X45355208Y-37807960D01*
X45446117Y-37990531D01*
X45446118Y-37990532D01*
X45446119Y-37990534D01*
X45569024Y-38153288D01*
X45719749Y-38290691D01*
X45719750Y-38290692D01*
X45893141Y-38398051D01*
X45893144Y-38398052D01*
X45893153Y-38398058D01*
X46083334Y-38471734D01*
X46283814Y-38509210D01*
X46283816Y-38509210D01*
X46487764Y-38509210D01*
X46487766Y-38509210D01*
X46688246Y-38471734D01*
X46878427Y-38398058D01*
X47051831Y-38290691D01*
X47202554Y-38153289D01*
X47325463Y-37990531D01*
X47416372Y-37807960D01*
X47472187Y-37611793D01*
X47491005Y-37408710D01*
X47820575Y-37408710D01*
X47839393Y-37611794D01*
X47895206Y-37807955D01*
X47895207Y-37807957D01*
X47895208Y-37807960D01*
X47986117Y-37990531D01*
X47986118Y-37990532D01*
X47986119Y-37990534D01*
X48109024Y-38153288D01*
X48259749Y-38290691D01*
X48259750Y-38290692D01*
X48433141Y-38398051D01*
X48433144Y-38398052D01*
X48433153Y-38398058D01*
X48623334Y-38471734D01*
X48823814Y-38509210D01*
X48823816Y-38509210D01*
X49027764Y-38509210D01*
X49027766Y-38509210D01*
X49228246Y-38471734D01*
X49418427Y-38398058D01*
X49479893Y-38360000D01*
X62944415Y-38360000D01*
X62953105Y-38509210D01*
X62964738Y-38708927D01*
X63025431Y-39053136D01*
X63125674Y-39387971D01*
X63125676Y-39387977D01*
X63125677Y-39387978D01*
X63264109Y-39708901D01*
X63264111Y-39708904D01*
X63438870Y-40011596D01*
X63438873Y-40011600D01*
X63647589Y-40291954D01*
X63887445Y-40546186D01*
X64041471Y-40675429D01*
X64062756Y-40693289D01*
X64155193Y-40770852D01*
X64409417Y-40938058D01*
X64447207Y-40962913D01*
X64759549Y-41119777D01*
X64923769Y-41179548D01*
X65087980Y-41239316D01*
X65087981Y-41239316D01*
X65087989Y-41239319D01*
X65428086Y-41319923D01*
X65626460Y-41343109D01*
X65775238Y-41360500D01*
X65775241Y-41360500D01*
X66124762Y-41360500D01*
X66254942Y-41345283D01*
X66471914Y-41319923D01*
X66812011Y-41239319D01*
X67140451Y-41119777D01*
X67452793Y-40962913D01*
X67744811Y-40770849D01*
X68012558Y-40546183D01*
X68252412Y-40291953D01*
X68461130Y-40011596D01*
X68635889Y-39708904D01*
X68774326Y-39387971D01*
X68874569Y-39053136D01*
X68935262Y-38708927D01*
X68955585Y-38360000D01*
X68935262Y-38011073D01*
X68874569Y-37666864D01*
X68774326Y-37332029D01*
X68635889Y-37011096D01*
X68461130Y-36708404D01*
X68252412Y-36428047D01*
X68012558Y-36173817D01*
X68012556Y-36173816D01*
X68012554Y-36173813D01*
X67744806Y-35949147D01*
X67452800Y-35757091D01*
X67452796Y-35757089D01*
X67452793Y-35757087D01*
X67140451Y-35600223D01*
X67140446Y-35600221D01*
X67140441Y-35600219D01*
X66812019Y-35480683D01*
X66812012Y-35480681D01*
X66812011Y-35480681D01*
X66621016Y-35435414D01*
X66471919Y-35400078D01*
X66471909Y-35400076D01*
X66124762Y-35359500D01*
X66124759Y-35359500D01*
X65775241Y-35359500D01*
X65775238Y-35359500D01*
X65428090Y-35400076D01*
X65428080Y-35400078D01*
X65087989Y-35480681D01*
X65087980Y-35480683D01*
X64759558Y-35600219D01*
X64759553Y-35600221D01*
X64447199Y-35757091D01*
X64155193Y-35949147D01*
X63887445Y-36173813D01*
X63647589Y-36428045D01*
X63438873Y-36708399D01*
X63438863Y-36708415D01*
X63264112Y-37011093D01*
X63264109Y-37011098D01*
X63125677Y-37332021D01*
X63125674Y-37332029D01*
X63041918Y-37611793D01*
X63025431Y-37666864D01*
X63025431Y-37666865D01*
X62964738Y-38011074D01*
X62964737Y-38011083D01*
X62944415Y-38360000D01*
X49479893Y-38360000D01*
X49591831Y-38290691D01*
X49742554Y-38153289D01*
X49865463Y-37990531D01*
X49956372Y-37807960D01*
X50012187Y-37611793D01*
X50031005Y-37408710D01*
X50012187Y-37205627D01*
X49956372Y-37009460D01*
X49865463Y-36826889D01*
X49775996Y-36708415D01*
X49742555Y-36664131D01*
X49591830Y-36526728D01*
X49591829Y-36526727D01*
X49418438Y-36419368D01*
X49418431Y-36419364D01*
X49418427Y-36419362D01*
X49301923Y-36374228D01*
X49228247Y-36345686D01*
X49161419Y-36333194D01*
X49027766Y-36308210D01*
X48823814Y-36308210D01*
X48723574Y-36326948D01*
X48623332Y-36345686D01*
X48475980Y-36402770D01*
X48433153Y-36419362D01*
X48433152Y-36419362D01*
X48433151Y-36419363D01*
X48433141Y-36419368D01*
X48259750Y-36526727D01*
X48259749Y-36526728D01*
X48109024Y-36664131D01*
X47986119Y-36826885D01*
X47895206Y-37009464D01*
X47839393Y-37205625D01*
X47820575Y-37408710D01*
X47491005Y-37408710D01*
X47472187Y-37205627D01*
X47416372Y-37009460D01*
X47325463Y-36826889D01*
X47235996Y-36708415D01*
X47202555Y-36664131D01*
X47051830Y-36526728D01*
X47051829Y-36526727D01*
X46878438Y-36419368D01*
X46878431Y-36419364D01*
X46878427Y-36419362D01*
X46761923Y-36374228D01*
X46688247Y-36345686D01*
X46621419Y-36333194D01*
X46487766Y-36308210D01*
X46283814Y-36308210D01*
X46183574Y-36326948D01*
X46083332Y-36345686D01*
X45935980Y-36402770D01*
X45893153Y-36419362D01*
X45893152Y-36419362D01*
X45893151Y-36419363D01*
X45893141Y-36419368D01*
X45719750Y-36526727D01*
X45719749Y-36526728D01*
X45569024Y-36664131D01*
X45446119Y-36826885D01*
X45355206Y-37009464D01*
X45299393Y-37205625D01*
X45280575Y-37408710D01*
X43525500Y-37408710D01*
X43525500Y-34868710D01*
X45280575Y-34868710D01*
X45299393Y-35071794D01*
X45355206Y-35267955D01*
X45355207Y-35267957D01*
X45355208Y-35267960D01*
X45446117Y-35450531D01*
X45446118Y-35450532D01*
X45446119Y-35450534D01*
X45569024Y-35613288D01*
X45719749Y-35750691D01*
X45719750Y-35750692D01*
X45893141Y-35858051D01*
X45893144Y-35858052D01*
X45893153Y-35858058D01*
X46083334Y-35931734D01*
X46283814Y-35969210D01*
X46283816Y-35969210D01*
X46487764Y-35969210D01*
X46487766Y-35969210D01*
X46688246Y-35931734D01*
X46878427Y-35858058D01*
X47051831Y-35750691D01*
X47202554Y-35613289D01*
X47212423Y-35600221D01*
X47302693Y-35480683D01*
X47325463Y-35450531D01*
X47416372Y-35267960D01*
X47472187Y-35071793D01*
X47491005Y-34868710D01*
X47820575Y-34868710D01*
X47839393Y-35071794D01*
X47895206Y-35267955D01*
X47895207Y-35267957D01*
X47895208Y-35267960D01*
X47986117Y-35450531D01*
X47986118Y-35450532D01*
X47986119Y-35450534D01*
X48109024Y-35613288D01*
X48259749Y-35750691D01*
X48259750Y-35750692D01*
X48433141Y-35858051D01*
X48433144Y-35858052D01*
X48433153Y-35858058D01*
X48623334Y-35931734D01*
X48823814Y-35969210D01*
X48823816Y-35969210D01*
X49027764Y-35969210D01*
X49027766Y-35969210D01*
X49228246Y-35931734D01*
X49418427Y-35858058D01*
X49591831Y-35750691D01*
X49742554Y-35613289D01*
X49752423Y-35600221D01*
X49842693Y-35480683D01*
X49865463Y-35450531D01*
X49956372Y-35267960D01*
X50012187Y-35071793D01*
X50031005Y-34868710D01*
X50012187Y-34665627D01*
X49956372Y-34469460D01*
X49865463Y-34286889D01*
X49865460Y-34286885D01*
X49742555Y-34124131D01*
X49591830Y-33986728D01*
X49591829Y-33986727D01*
X49418438Y-33879368D01*
X49418431Y-33879364D01*
X49418427Y-33879362D01*
X49301923Y-33834228D01*
X49228247Y-33805686D01*
X49161419Y-33793194D01*
X49027766Y-33768210D01*
X48823814Y-33768210D01*
X48723574Y-33786948D01*
X48623332Y-33805686D01*
X48475980Y-33862770D01*
X48433153Y-33879362D01*
X48433152Y-33879362D01*
X48433151Y-33879363D01*
X48433141Y-33879368D01*
X48259750Y-33986727D01*
X48259749Y-33986728D01*
X48109024Y-34124131D01*
X47986119Y-34286885D01*
X47895206Y-34469464D01*
X47839393Y-34665625D01*
X47820575Y-34868710D01*
X47491005Y-34868710D01*
X47472187Y-34665627D01*
X47416372Y-34469460D01*
X47325463Y-34286889D01*
X47325460Y-34286885D01*
X47202555Y-34124131D01*
X47051830Y-33986728D01*
X47051829Y-33986727D01*
X46878438Y-33879368D01*
X46878431Y-33879364D01*
X46878427Y-33879362D01*
X46761923Y-33834228D01*
X46688247Y-33805686D01*
X46621419Y-33793194D01*
X46487766Y-33768210D01*
X46283814Y-33768210D01*
X46183574Y-33786948D01*
X46083332Y-33805686D01*
X45935980Y-33862770D01*
X45893153Y-33879362D01*
X45893152Y-33879362D01*
X45893151Y-33879363D01*
X45893141Y-33879368D01*
X45719750Y-33986727D01*
X45719749Y-33986728D01*
X45569024Y-34124131D01*
X45446119Y-34286885D01*
X45355206Y-34469464D01*
X45299393Y-34665625D01*
X45280575Y-34868710D01*
X43525500Y-34868710D01*
X43525500Y-32328710D01*
X45280575Y-32328710D01*
X45299393Y-32531794D01*
X45355206Y-32727955D01*
X45355207Y-32727957D01*
X45355208Y-32727960D01*
X45446117Y-32910531D01*
X45446118Y-32910532D01*
X45446119Y-32910534D01*
X45569024Y-33073288D01*
X45719749Y-33210691D01*
X45719750Y-33210692D01*
X45893141Y-33318051D01*
X45893144Y-33318052D01*
X45893153Y-33318058D01*
X46083334Y-33391734D01*
X46283814Y-33429210D01*
X46283816Y-33429210D01*
X46487764Y-33429210D01*
X46487766Y-33429210D01*
X46688246Y-33391734D01*
X46878427Y-33318058D01*
X47051831Y-33210691D01*
X47202554Y-33073289D01*
X47325463Y-32910531D01*
X47416372Y-32727960D01*
X47472187Y-32531793D01*
X47491005Y-32328710D01*
X47820575Y-32328710D01*
X47839393Y-32531794D01*
X47895206Y-32727955D01*
X47895207Y-32727957D01*
X47895208Y-32727960D01*
X47986117Y-32910531D01*
X47986118Y-32910532D01*
X47986119Y-32910534D01*
X48109024Y-33073288D01*
X48259749Y-33210691D01*
X48259750Y-33210692D01*
X48433141Y-33318051D01*
X48433144Y-33318052D01*
X48433153Y-33318058D01*
X48623334Y-33391734D01*
X48823814Y-33429210D01*
X48823816Y-33429210D01*
X49027764Y-33429210D01*
X49027766Y-33429210D01*
X49228246Y-33391734D01*
X49418427Y-33318058D01*
X49591831Y-33210691D01*
X49742554Y-33073289D01*
X49865463Y-32910531D01*
X49956372Y-32727960D01*
X50012187Y-32531793D01*
X50031005Y-32328710D01*
X50012187Y-32125627D01*
X49956372Y-31929460D01*
X49865463Y-31746889D01*
X49865460Y-31746885D01*
X49742555Y-31584131D01*
X49591830Y-31446728D01*
X49591829Y-31446727D01*
X49418438Y-31339368D01*
X49418431Y-31339364D01*
X49418427Y-31339362D01*
X49301923Y-31294228D01*
X49228247Y-31265686D01*
X49161419Y-31253194D01*
X49027766Y-31228210D01*
X48823814Y-31228210D01*
X48723574Y-31246948D01*
X48623332Y-31265686D01*
X48475980Y-31322770D01*
X48433153Y-31339362D01*
X48433152Y-31339362D01*
X48433151Y-31339363D01*
X48433141Y-31339368D01*
X48259750Y-31446727D01*
X48259749Y-31446728D01*
X48109024Y-31584131D01*
X47986119Y-31746885D01*
X47895206Y-31929464D01*
X47839393Y-32125625D01*
X47820575Y-32328710D01*
X47491005Y-32328710D01*
X47472187Y-32125627D01*
X47416372Y-31929460D01*
X47325463Y-31746889D01*
X47325460Y-31746885D01*
X47202555Y-31584131D01*
X47051830Y-31446728D01*
X47051829Y-31446727D01*
X46878438Y-31339368D01*
X46878431Y-31339364D01*
X46878427Y-31339362D01*
X46761923Y-31294228D01*
X46688247Y-31265686D01*
X46621419Y-31253194D01*
X46487766Y-31228210D01*
X46283814Y-31228210D01*
X46183574Y-31246948D01*
X46083332Y-31265686D01*
X45935980Y-31322770D01*
X45893153Y-31339362D01*
X45893152Y-31339362D01*
X45893151Y-31339363D01*
X45893141Y-31339368D01*
X45719750Y-31446727D01*
X45719749Y-31446728D01*
X45569024Y-31584131D01*
X45446119Y-31746885D01*
X45355206Y-31929464D01*
X45299393Y-32125625D01*
X45280575Y-32328710D01*
X43525500Y-32328710D01*
X43525500Y-29788710D01*
X45280575Y-29788710D01*
X45299393Y-29991794D01*
X45355206Y-30187955D01*
X45355207Y-30187957D01*
X45355208Y-30187960D01*
X45446117Y-30370531D01*
X45446118Y-30370532D01*
X45446119Y-30370534D01*
X45569024Y-30533288D01*
X45719749Y-30670691D01*
X45719750Y-30670692D01*
X45893141Y-30778051D01*
X45893144Y-30778052D01*
X45893153Y-30778058D01*
X46083334Y-30851734D01*
X46283814Y-30889210D01*
X46283816Y-30889210D01*
X46487764Y-30889210D01*
X46487766Y-30889210D01*
X46688246Y-30851734D01*
X46878427Y-30778058D01*
X47051831Y-30670691D01*
X47202554Y-30533289D01*
X47325463Y-30370531D01*
X47416372Y-30187960D01*
X47472187Y-29991793D01*
X47491005Y-29788710D01*
X47820575Y-29788710D01*
X47839393Y-29991794D01*
X47895206Y-30187955D01*
X47895207Y-30187957D01*
X47895208Y-30187960D01*
X47986117Y-30370531D01*
X47986118Y-30370532D01*
X47986119Y-30370534D01*
X48109024Y-30533288D01*
X48259749Y-30670691D01*
X48259750Y-30670692D01*
X48433141Y-30778051D01*
X48433144Y-30778052D01*
X48433153Y-30778058D01*
X48623334Y-30851734D01*
X48823814Y-30889210D01*
X48823816Y-30889210D01*
X49027764Y-30889210D01*
X49027766Y-30889210D01*
X49228246Y-30851734D01*
X49418427Y-30778058D01*
X49591831Y-30670691D01*
X49742554Y-30533289D01*
X49865463Y-30370531D01*
X49956372Y-30187960D01*
X50012187Y-29991793D01*
X50031005Y-29788710D01*
X50012187Y-29585627D01*
X49956372Y-29389460D01*
X49865463Y-29206889D01*
X49760402Y-29067765D01*
X51445788Y-29067765D01*
X51475412Y-29337014D01*
X51543928Y-29599090D01*
X51649869Y-29848389D01*
X51649870Y-29848390D01*
X51790982Y-30079610D01*
X51964255Y-30287820D01*
X51964257Y-30287822D01*
X51964259Y-30287824D01*
X52069236Y-30381883D01*
X52165998Y-30468582D01*
X52391910Y-30618044D01*
X52637176Y-30733020D01*
X52896569Y-30811060D01*
X52896572Y-30811060D01*
X52896574Y-30811061D01*
X53164557Y-30850500D01*
X53164561Y-30850500D01*
X53367631Y-30850500D01*
X53570156Y-30835677D01*
X53570160Y-30835676D01*
X53570161Y-30835676D01*
X53680665Y-30811060D01*
X53834553Y-30776780D01*
X54087558Y-30680014D01*
X54323777Y-30547441D01*
X54538177Y-30381888D01*
X54726186Y-30186881D01*
X54883799Y-29966579D01*
X55007656Y-29725675D01*
X55095118Y-29469305D01*
X55119718Y-29336119D01*
X55144318Y-29202941D01*
X55144319Y-29202930D01*
X55154212Y-28932235D01*
X55139338Y-28797058D01*
X55124587Y-28662985D01*
X55056071Y-28400909D01*
X54950130Y-28151610D01*
X54932904Y-28123384D01*
X54809018Y-27920390D01*
X54635745Y-27712180D01*
X54635741Y-27712177D01*
X54635740Y-27712175D01*
X54434012Y-27531427D01*
X54434002Y-27531418D01*
X54208090Y-27381956D01*
X53962824Y-27266980D01*
X53805392Y-27219615D01*
X53703425Y-27188938D01*
X53435442Y-27149500D01*
X53435439Y-27149500D01*
X53232369Y-27149500D01*
X53029839Y-27164323D01*
X53029838Y-27164323D01*
X52765456Y-27223217D01*
X52765441Y-27223222D01*
X52512441Y-27319986D01*
X52276229Y-27452555D01*
X52276225Y-27452557D01*
X52061818Y-27618116D01*
X51873815Y-27813117D01*
X51873810Y-27813123D01*
X51716203Y-28033417D01*
X51716196Y-28033427D01*
X51592343Y-28274324D01*
X51592342Y-28274327D01*
X51504883Y-28530689D01*
X51504880Y-28530702D01*
X51455681Y-28797058D01*
X51455680Y-28797069D01*
X51445788Y-29067765D01*
X49760402Y-29067765D01*
X49742555Y-29044131D01*
X49591830Y-28906728D01*
X49591829Y-28906727D01*
X49418438Y-28799368D01*
X49418431Y-28799364D01*
X49418427Y-28799362D01*
X49301923Y-28754228D01*
X49228247Y-28725686D01*
X49161419Y-28713194D01*
X49027766Y-28688210D01*
X48823814Y-28688210D01*
X48723574Y-28706948D01*
X48623332Y-28725686D01*
X48475980Y-28782770D01*
X48433153Y-28799362D01*
X48433152Y-28799362D01*
X48433151Y-28799363D01*
X48433141Y-28799368D01*
X48259750Y-28906727D01*
X48259749Y-28906728D01*
X48109024Y-29044131D01*
X47986119Y-29206885D01*
X47895206Y-29389464D01*
X47839393Y-29585625D01*
X47820575Y-29788710D01*
X47491005Y-29788710D01*
X47472187Y-29585627D01*
X47416372Y-29389460D01*
X47325463Y-29206889D01*
X47220402Y-29067765D01*
X47202555Y-29044131D01*
X47051830Y-28906728D01*
X47051829Y-28906727D01*
X46878438Y-28799368D01*
X46878431Y-28799364D01*
X46878427Y-28799362D01*
X46761923Y-28754228D01*
X46688247Y-28725686D01*
X46621419Y-28713194D01*
X46487766Y-28688210D01*
X46283814Y-28688210D01*
X46183574Y-28706948D01*
X46083332Y-28725686D01*
X45935980Y-28782770D01*
X45893153Y-28799362D01*
X45893152Y-28799362D01*
X45893151Y-28799363D01*
X45893141Y-28799368D01*
X45719750Y-28906727D01*
X45719749Y-28906728D01*
X45569024Y-29044131D01*
X45446119Y-29206885D01*
X45355206Y-29389464D01*
X45299393Y-29585625D01*
X45280575Y-29788710D01*
X43525500Y-29788710D01*
X43525500Y-27248710D01*
X45280575Y-27248710D01*
X45299393Y-27451794D01*
X45355206Y-27647955D01*
X45355207Y-27647957D01*
X45355208Y-27647960D01*
X45446117Y-27830531D01*
X45446118Y-27830532D01*
X45446119Y-27830534D01*
X45569024Y-27993288D01*
X45719749Y-28130691D01*
X45719750Y-28130692D01*
X45893141Y-28238051D01*
X45893144Y-28238052D01*
X45893153Y-28238058D01*
X46083334Y-28311734D01*
X46283814Y-28349210D01*
X46283816Y-28349210D01*
X46487764Y-28349210D01*
X46487766Y-28349210D01*
X46688246Y-28311734D01*
X46878427Y-28238058D01*
X47051831Y-28130691D01*
X47059843Y-28123387D01*
X47825290Y-28123387D01*
X47839823Y-28196449D01*
X47839824Y-28196450D01*
X47895189Y-28279311D01*
X47978050Y-28334676D01*
X48051116Y-28349210D01*
X49800464Y-28349210D01*
X49873530Y-28334676D01*
X49956391Y-28279311D01*
X50011756Y-28196450D01*
X50026290Y-28123384D01*
X50026290Y-26374036D01*
X50011756Y-26300970D01*
X49956391Y-26218109D01*
X49873530Y-26162744D01*
X49873529Y-26162743D01*
X49800467Y-26148210D01*
X49800464Y-26148210D01*
X48051116Y-26148210D01*
X48051112Y-26148210D01*
X47978050Y-26162743D01*
X47895189Y-26218109D01*
X47839823Y-26300970D01*
X47825290Y-26374032D01*
X47825290Y-28123387D01*
X47059843Y-28123387D01*
X47202554Y-27993289D01*
X47325463Y-27830531D01*
X47416372Y-27647960D01*
X47472187Y-27451793D01*
X47491005Y-27248710D01*
X47472187Y-27045627D01*
X47416372Y-26849460D01*
X47325463Y-26666889D01*
X47325460Y-26666885D01*
X47202555Y-26504131D01*
X47051830Y-26366728D01*
X47051829Y-26366727D01*
X46878438Y-26259368D01*
X46878431Y-26259364D01*
X46878427Y-26259362D01*
X46761923Y-26214228D01*
X46688247Y-26185686D01*
X46565516Y-26162744D01*
X46487766Y-26148210D01*
X46283814Y-26148210D01*
X46206069Y-26162743D01*
X46083332Y-26185686D01*
X45935980Y-26242770D01*
X45893153Y-26259362D01*
X45893152Y-26259362D01*
X45893151Y-26259363D01*
X45893141Y-26259368D01*
X45719750Y-26366727D01*
X45719749Y-26366728D01*
X45569024Y-26504131D01*
X45446119Y-26666885D01*
X45355206Y-26849464D01*
X45299393Y-27045625D01*
X45280575Y-27248710D01*
X43525500Y-27248710D01*
X43525500Y-24151500D01*
X43545502Y-24083379D01*
X43599158Y-24036886D01*
X43651500Y-24025500D01*
X46469863Y-24025500D01*
X46480425Y-24027601D01*
X46500000Y-24027601D01*
X46519517Y-24019517D01*
X46525500Y-24005072D01*
X46527601Y-24000000D01*
X46527600Y-23999998D01*
X46527601Y-23999997D01*
X46527601Y-23980435D01*
X46525500Y-23969867D01*
X46525500Y-13821500D01*
X46545502Y-13753379D01*
X46599158Y-13706886D01*
X46651500Y-13695500D01*
X57088500Y-13695500D01*
X57156621Y-13715502D01*
G37*
%TD.AperFunction*%
%TD*%
M02*
