%TF.GenerationSoftware,KiCad,Pcbnew,9.0.2+dfsg-1*%
%TF.CreationDate,2025-08-01T16:41:46+03:00*%
%TF.ProjectId,legacy_av_in,6c656761-6379-45f6-9176-5f696e2e6b69,rev?*%
%TF.SameCoordinates,Original*%
%TF.FileFunction,Soldermask,Top*%
%TF.FilePolarity,Negative*%
%FSLAX46Y46*%
G04 Gerber Fmt 4.6, Leading zero omitted, Abs format (unit mm)*
G04 Created by KiCad (PCBNEW 9.0.2+dfsg-1) date 2025-08-01 16:41:46*
%MOMM*%
%LPD*%
G01*
G04 APERTURE LIST*
G04 Aperture macros list*
%AMRoundRect*
0 Rectangle with rounded corners*
0 $1 Rounding radius*
0 $2 $3 $4 $5 $6 $7 $8 $9 X,Y pos of 4 corners*
0 Add a 4 corners polygon primitive as box body*
4,1,4,$2,$3,$4,$5,$6,$7,$8,$9,$2,$3,0*
0 Add four circle primitives for the rounded corners*
1,1,$1+$1,$2,$3*
1,1,$1+$1,$4,$5*
1,1,$1+$1,$6,$7*
1,1,$1+$1,$8,$9*
0 Add four rect primitives between the rounded corners*
20,1,$1+$1,$2,$3,$4,$5,0*
20,1,$1+$1,$4,$5,$6,$7,0*
20,1,$1+$1,$6,$7,$8,$9,0*
20,1,$1+$1,$8,$9,$2,$3,0*%
%AMFreePoly0*
4,1,14,0.318306,0.106694,0.381694,0.043306,0.400000,-0.000888,0.400000,-0.062500,0.381694,-0.106694,0.337500,-0.125000,-0.337500,-0.125000,-0.381694,-0.106694,-0.400000,-0.062500,-0.400000,0.062500,-0.381694,0.106694,-0.337500,0.125000,0.274112,0.125000,0.318306,0.106694,0.318306,0.106694,$1*%
%AMFreePoly1*
4,1,14,0.381694,0.106694,0.400000,0.062500,0.400000,0.000888,0.381694,-0.043306,0.318306,-0.106694,0.274112,-0.125000,-0.337500,-0.125000,-0.381694,-0.106694,-0.400000,-0.062500,-0.400000,0.062500,-0.381694,0.106694,-0.337500,0.125000,0.337500,0.125000,0.381694,0.106694,0.381694,0.106694,$1*%
%AMFreePoly2*
4,1,14,0.106694,0.381694,0.125000,0.337500,0.125000,-0.337500,0.106694,-0.381694,0.062500,-0.400000,-0.062500,-0.400000,-0.106694,-0.381694,-0.125000,-0.337500,-0.125000,0.274112,-0.106694,0.318306,-0.043306,0.381694,0.000888,0.400000,0.062500,0.400000,0.106694,0.381694,0.106694,0.381694,$1*%
%AMFreePoly3*
4,1,14,0.043306,0.381694,0.106694,0.318306,0.125000,0.274112,0.125000,-0.337500,0.106694,-0.381694,0.062500,-0.400000,-0.062500,-0.400000,-0.106694,-0.381694,-0.125000,-0.337500,-0.125000,0.337500,-0.106694,0.381694,-0.062500,0.400000,-0.000888,0.400000,0.043306,0.381694,0.043306,0.381694,$1*%
%AMFreePoly4*
4,1,14,0.381694,0.106694,0.400000,0.062500,0.400000,-0.062500,0.381694,-0.106694,0.337500,-0.125000,-0.274112,-0.125000,-0.318306,-0.106694,-0.381694,-0.043306,-0.400000,0.000888,-0.400000,0.062500,-0.381694,0.106694,-0.337500,0.125000,0.337500,0.125000,0.381694,0.106694,0.381694,0.106694,$1*%
%AMFreePoly5*
4,1,14,0.381694,0.106694,0.400000,0.062500,0.400000,-0.062500,0.381694,-0.106694,0.337500,-0.125000,-0.337500,-0.125000,-0.381694,-0.106694,-0.400000,-0.062500,-0.400000,-0.000888,-0.381694,0.043306,-0.318306,0.106694,-0.274112,0.125000,0.337500,0.125000,0.381694,0.106694,0.381694,0.106694,$1*%
%AMFreePoly6*
4,1,14,0.106694,0.381694,0.125000,0.337500,0.125000,-0.274112,0.106694,-0.318306,0.043306,-0.381694,-0.000888,-0.400000,-0.062500,-0.400000,-0.106694,-0.381694,-0.125000,-0.337500,-0.125000,0.337500,-0.106694,0.381694,-0.062500,0.400000,0.062500,0.400000,0.106694,0.381694,0.106694,0.381694,$1*%
%AMFreePoly7*
4,1,14,0.106694,0.381694,0.125000,0.337500,0.125000,-0.337500,0.106694,-0.381694,0.062500,-0.400000,0.000888,-0.400000,-0.043306,-0.381694,-0.106694,-0.318306,-0.125000,-0.274112,-0.125000,0.337500,-0.106694,0.381694,-0.062500,0.400000,0.062500,0.400000,0.106694,0.381694,0.106694,0.381694,$1*%
%AMFreePoly8*
4,1,23,0.500000,-0.750000,0.000000,-0.750000,0.000000,-0.745722,-0.065263,-0.745722,-0.191342,-0.711940,-0.304381,-0.646677,-0.396677,-0.554381,-0.461940,-0.441342,-0.495722,-0.315263,-0.495722,-0.250000,-0.500000,-0.250000,-0.500000,0.250000,-0.495722,0.250000,-0.495722,0.315263,-0.461940,0.441342,-0.396677,0.554381,-0.304381,0.646677,-0.191342,0.711940,-0.065263,0.745722,0.000000,0.745722,
0.000000,0.750000,0.500000,0.750000,0.500000,-0.750000,0.500000,-0.750000,$1*%
%AMFreePoly9*
4,1,23,0.000000,0.745722,0.065263,0.745722,0.191342,0.711940,0.304381,0.646677,0.396677,0.554381,0.461940,0.441342,0.495722,0.315263,0.495722,0.250000,0.500000,0.250000,0.500000,-0.250000,0.495722,-0.250000,0.495722,-0.315263,0.461940,-0.441342,0.396677,-0.554381,0.304381,-0.646677,0.191342,-0.711940,0.065263,-0.745722,0.000000,-0.745722,0.000000,-0.750000,-0.500000,-0.750000,
-0.500000,0.750000,0.000000,0.750000,0.000000,0.745722,0.000000,0.745722,$1*%
G04 Aperture macros list end*
%ADD10R,1.700000X1.700000*%
%ADD11O,1.700000X1.700000*%
%ADD12C,2.540000*%
%ADD13R,1.143000X0.635000*%
%ADD14FreePoly0,180.000000*%
%ADD15RoundRect,0.062500X0.337500X0.062500X-0.337500X0.062500X-0.337500X-0.062500X0.337500X-0.062500X0*%
%ADD16FreePoly1,180.000000*%
%ADD17FreePoly2,180.000000*%
%ADD18RoundRect,0.062500X0.062500X0.337500X-0.062500X0.337500X-0.062500X-0.337500X0.062500X-0.337500X0*%
%ADD19FreePoly3,180.000000*%
%ADD20FreePoly4,180.000000*%
%ADD21FreePoly5,180.000000*%
%ADD22FreePoly6,180.000000*%
%ADD23FreePoly7,180.000000*%
%ADD24R,2.400000X2.400000*%
%ADD25R,0.635000X1.143000*%
%ADD26RoundRect,0.150000X-0.825000X-0.150000X0.825000X-0.150000X0.825000X0.150000X-0.825000X0.150000X0*%
%ADD27RoundRect,0.155000X0.212500X0.155000X-0.212500X0.155000X-0.212500X-0.155000X0.212500X-0.155000X0*%
%ADD28RoundRect,0.155000X0.155000X-0.212500X0.155000X0.212500X-0.155000X0.212500X-0.155000X-0.212500X0*%
%ADD29C,3.200000*%
%ADD30R,0.500000X0.380000*%
%ADD31R,0.650000X0.300000*%
%ADD32RoundRect,0.250001X-0.849999X0.462499X-0.849999X-0.462499X0.849999X-0.462499X0.849999X0.462499X0*%
%ADD33RoundRect,0.160000X0.160000X-0.197500X0.160000X0.197500X-0.160000X0.197500X-0.160000X-0.197500X0*%
%ADD34RoundRect,0.160000X-0.160000X0.197500X-0.160000X-0.197500X0.160000X-0.197500X0.160000X0.197500X0*%
%ADD35RoundRect,0.155000X-0.155000X0.212500X-0.155000X-0.212500X0.155000X-0.212500X0.155000X0.212500X0*%
%ADD36RoundRect,0.150000X0.150000X-0.587500X0.150000X0.587500X-0.150000X0.587500X-0.150000X-0.587500X0*%
%ADD37C,5.500000*%
%ADD38RoundRect,0.102000X-0.704000X-0.704000X0.704000X-0.704000X0.704000X0.704000X-0.704000X0.704000X0*%
%ADD39C,1.612000*%
%ADD40O,2.934000X1.434000*%
%ADD41O,1.434000X2.934000*%
%ADD42FreePoly8,0.000000*%
%ADD43FreePoly9,0.000000*%
%ADD44O,2.004000X3.804000*%
%ADD45O,4.404000X2.304000*%
%ADD46RoundRect,0.155000X-0.212500X-0.155000X0.212500X-0.155000X0.212500X0.155000X-0.212500X0.155000X0*%
%ADD47RoundRect,0.150000X-0.512500X-0.150000X0.512500X-0.150000X0.512500X0.150000X-0.512500X0.150000X0*%
%ADD48R,1.600000X1.600000*%
%ADD49C,1.600000*%
%ADD50RoundRect,0.062500X-0.062500X0.375000X-0.062500X-0.375000X0.062500X-0.375000X0.062500X0.375000X0*%
%ADD51RoundRect,0.062500X-0.375000X0.062500X-0.375000X-0.062500X0.375000X-0.062500X0.375000X0.062500X0*%
%ADD52R,3.600000X3.600000*%
%ADD53RoundRect,0.160000X-0.197500X-0.160000X0.197500X-0.160000X0.197500X0.160000X-0.197500X0.160000X0*%
%ADD54O,2.330000X1.230000*%
%ADD55O,1.230000X3.030000*%
%ADD56O,3.030000X1.230000*%
%ADD57RoundRect,0.102000X-0.373000X-0.323000X0.373000X-0.323000X0.373000X0.323000X-0.373000X0.323000X0*%
%ADD58R,0.700000X0.340000*%
%ADD59RoundRect,0.150000X-0.587500X-0.150000X0.587500X-0.150000X0.587500X0.150000X-0.587500X0.150000X0*%
%ADD60C,1.700000*%
%ADD61RoundRect,0.100000X-0.100000X0.637500X-0.100000X-0.637500X0.100000X-0.637500X0.100000X0.637500X0*%
G04 APERTURE END LIST*
%TO.C,JP2*%
G36*
X87520000Y-60060000D02*
G01*
X87820000Y-60060000D01*
X87820000Y-61560000D01*
X87520000Y-61560000D01*
X87520000Y-60060000D01*
G37*
%TO.C,JP1*%
G36*
X87520000Y-58060000D02*
G01*
X87820000Y-58060000D01*
X87820000Y-59560000D01*
X87520000Y-59560000D01*
X87520000Y-58060000D01*
G37*
%TD*%
D10*
%TO.C,J1*%
X48925790Y-27248710D03*
D11*
X46385790Y-27248710D03*
X48925790Y-29788710D03*
X46385790Y-29788710D03*
X48925790Y-32328710D03*
X46385790Y-32328710D03*
X48925790Y-34868710D03*
X46385790Y-34868710D03*
X48925790Y-37408710D03*
X46385790Y-37408710D03*
X48925790Y-39948710D03*
X46385790Y-39948710D03*
X48925790Y-42488710D03*
X46385790Y-42488710D03*
X48925790Y-45028710D03*
X46385790Y-45028710D03*
X48925790Y-47568710D03*
X46385790Y-47568710D03*
X48925790Y-50108710D03*
X46385790Y-50108710D03*
X48925790Y-52648710D03*
X46385790Y-52648710D03*
X48925790Y-55188710D03*
X46385790Y-55188710D03*
X48925790Y-57728710D03*
X46385790Y-57728710D03*
X48925790Y-60268710D03*
X46385790Y-60268710D03*
X48925790Y-62808710D03*
X46385790Y-62808710D03*
X48925790Y-65348710D03*
X46385790Y-65348710D03*
X48925790Y-67888710D03*
X46385790Y-67888710D03*
X48925790Y-70428710D03*
X46385790Y-70428710D03*
X48925790Y-72968710D03*
X46385790Y-72968710D03*
X48925790Y-75508710D03*
X46385790Y-75508710D03*
X48925790Y-78048710D03*
X46385790Y-78048710D03*
X48925790Y-80588710D03*
X46385790Y-80588710D03*
X48925790Y-83128710D03*
X46385790Y-83128710D03*
X48925790Y-85668710D03*
X46385790Y-85668710D03*
X48925790Y-88208710D03*
X46385790Y-88208710D03*
%TD*%
D12*
%TO.C,ST1*%
X53190000Y-15300000D03*
X48110000Y-15300000D03*
X53190000Y-20740000D03*
X48110000Y-20740000D03*
%TD*%
%TO.C,ST2*%
X53190000Y-94720000D03*
X48110000Y-94720000D03*
X53190000Y-100160000D03*
X48110000Y-100160000D03*
%TD*%
D13*
%TO.C,R7*%
X70100000Y-62486000D03*
X70100000Y-64010000D03*
%TD*%
D14*
%TO.C,U2*%
X108920000Y-65250000D03*
D15*
X108920000Y-64750000D03*
X108920000Y-64250000D03*
X108920000Y-63750000D03*
X108920000Y-63250000D03*
X108920000Y-62750000D03*
X108920000Y-62250000D03*
D16*
X108920000Y-61750000D03*
D17*
X108220000Y-61550000D03*
D18*
X107720000Y-61550000D03*
X107220000Y-61550000D03*
X106720000Y-61550000D03*
X106220000Y-61550000D03*
D19*
X105720000Y-61550000D03*
D20*
X105020000Y-61750000D03*
D15*
X105020000Y-62250000D03*
X105020000Y-62750000D03*
X105020000Y-63250000D03*
X105020000Y-63750000D03*
X105020000Y-64250000D03*
X105020000Y-64750000D03*
D21*
X105020000Y-65250000D03*
D22*
X105720000Y-65450000D03*
D18*
X106220000Y-65450000D03*
X106720000Y-65450000D03*
X107220000Y-65450000D03*
X107720000Y-65450000D03*
D23*
X108220000Y-65450000D03*
D24*
X106970000Y-63500000D03*
%TD*%
D25*
%TO.C,FB1*%
X52806000Y-80040000D03*
X54330000Y-80040000D03*
%TD*%
D13*
%TO.C,R11*%
X58550000Y-60564000D03*
X58550000Y-59040000D03*
%TD*%
D25*
%TO.C,FB2*%
X52806000Y-81700000D03*
X54330000Y-81700000D03*
%TD*%
D26*
%TO.C,U6*%
X85200000Y-57880000D03*
X85200000Y-59150000D03*
X85200000Y-60420000D03*
X85200000Y-61690000D03*
X90150000Y-61690000D03*
X90150000Y-60420000D03*
X90150000Y-59150000D03*
X90150000Y-57880000D03*
%TD*%
D27*
%TO.C,C15*%
X65735000Y-49850000D03*
X64600000Y-49850000D03*
%TD*%
D28*
%TO.C,C34*%
X110090000Y-60750000D03*
X110090000Y-59615000D03*
%TD*%
D29*
%TO.C,MH3*%
X116200000Y-58000000D03*
%TD*%
D30*
%TO.C,D4*%
X68710000Y-70550000D03*
D31*
X68790000Y-70010000D03*
D30*
X68710000Y-69470000D03*
X67010000Y-69470000D03*
X67010000Y-70550000D03*
%TD*%
D32*
%TO.C,L4*%
X78210000Y-42530000D03*
X78210000Y-44855000D03*
%TD*%
D13*
%TO.C,R6*%
X77630000Y-65734000D03*
X77630000Y-64210000D03*
%TD*%
D33*
%TO.C,R9*%
X100680000Y-67527500D03*
X100680000Y-66332500D03*
%TD*%
D27*
%TO.C,C41*%
X106207500Y-58930000D03*
X105072500Y-58930000D03*
%TD*%
D25*
%TO.C,L5*%
X107770000Y-71970000D03*
X109294000Y-71970000D03*
%TD*%
D28*
%TO.C,C18*%
X106590000Y-69533500D03*
X106590000Y-68398500D03*
%TD*%
D34*
%TO.C,R18*%
X68180000Y-64772500D03*
X68180000Y-65967500D03*
%TD*%
%TO.C,R15*%
X69130000Y-64772500D03*
X69130000Y-65967500D03*
%TD*%
D33*
%TO.C,R14*%
X76260000Y-60247500D03*
X76260000Y-59052500D03*
%TD*%
D35*
%TO.C,C16*%
X102880000Y-67502500D03*
X102880000Y-68637500D03*
%TD*%
D13*
%TO.C,L3*%
X110900000Y-69000000D03*
X110900000Y-67476000D03*
%TD*%
D36*
%TO.C,D3*%
X103680000Y-71910000D03*
X105580000Y-71910000D03*
X104630000Y-70035000D03*
%TD*%
D37*
%TO.C,MH4*%
X94900000Y-79930000D03*
%TD*%
D25*
%TO.C,C30*%
X79030000Y-61560000D03*
X77506000Y-61560000D03*
%TD*%
D35*
%TO.C,C8*%
X60130000Y-56322500D03*
X60130000Y-57457500D03*
%TD*%
%TO.C,C12*%
X66120000Y-60105000D03*
X66120000Y-61240000D03*
%TD*%
D27*
%TO.C,C27*%
X75322500Y-48391750D03*
X74187500Y-48391750D03*
%TD*%
D38*
%TO.C,J4*%
X85190000Y-74890000D03*
D39*
X78390000Y-74890000D03*
X85190000Y-72390000D03*
X78390000Y-72390000D03*
D40*
X81790000Y-78690000D03*
D41*
X75040000Y-77890000D03*
X88540000Y-77890000D03*
%TD*%
D42*
%TO.C,JP2*%
X87020000Y-60810000D03*
D43*
X88320000Y-60810000D03*
%TD*%
D28*
%TO.C,C17*%
X105660000Y-69523500D03*
X105660000Y-68388500D03*
%TD*%
D13*
%TO.C,R10*%
X56900000Y-60564000D03*
X56900000Y-59040000D03*
%TD*%
D35*
%TO.C,C13*%
X67070000Y-60105000D03*
X67070000Y-61240000D03*
%TD*%
D29*
%TO.C,MH2*%
X53300000Y-86500000D03*
%TD*%
D44*
%TO.C,J3*%
X61887500Y-75700000D03*
X69387500Y-75700000D03*
D45*
X65637500Y-79400000D03*
%TD*%
D27*
%TO.C,C37*%
X106207500Y-59840000D03*
X105072500Y-59840000D03*
%TD*%
D13*
%TO.C,C5*%
X74310000Y-63984000D03*
X74310000Y-62460000D03*
%TD*%
%TO.C,R20*%
X101660000Y-57580000D03*
X101660000Y-56056000D03*
%TD*%
D33*
%TO.C,R21*%
X91770000Y-59097500D03*
X91770000Y-57902500D03*
%TD*%
D28*
%TO.C,C36*%
X102920000Y-65157500D03*
X102920000Y-64022500D03*
%TD*%
D25*
%TO.C,L2*%
X107850000Y-68300000D03*
X109374000Y-68300000D03*
%TD*%
D29*
%TO.C,MH1*%
X53300000Y-29000000D03*
%TD*%
D35*
%TO.C,C31*%
X75080000Y-59082500D03*
X75080000Y-60217500D03*
%TD*%
D46*
%TO.C,C20*%
X107792500Y-70620000D03*
X108927500Y-70620000D03*
%TD*%
D25*
%TO.C,C39*%
X92456000Y-50510000D03*
X93980000Y-50510000D03*
%TD*%
D47*
%TO.C,U5*%
X92565000Y-52520000D03*
X92565000Y-53470000D03*
X92565000Y-54420000D03*
X94840000Y-54420000D03*
X94840000Y-52520000D03*
%TD*%
D35*
%TO.C,C10*%
X61970000Y-59035000D03*
X61970000Y-60170000D03*
%TD*%
D48*
%TO.C,C42*%
X56220000Y-68940000D03*
D49*
X56220000Y-71440000D03*
%TD*%
D25*
%TO.C,R4*%
X65260000Y-67960000D03*
X66784000Y-67960000D03*
%TD*%
D27*
%TO.C,C19*%
X108927500Y-69620000D03*
X107792500Y-69620000D03*
%TD*%
D13*
%TO.C,C40*%
X96740000Y-53070000D03*
X96740000Y-54594000D03*
%TD*%
%TO.C,C2*%
X63290000Y-66614000D03*
X63290000Y-65090000D03*
%TD*%
D27*
%TO.C,C14*%
X65745000Y-50830000D03*
X64610000Y-50830000D03*
%TD*%
D46*
%TO.C,C21*%
X110002500Y-66420000D03*
X111137500Y-66420000D03*
%TD*%
D13*
%TO.C,R1*%
X63280000Y-69274000D03*
X63280000Y-67750000D03*
%TD*%
D35*
%TO.C,C1*%
X64870000Y-59882500D03*
X64870000Y-61017500D03*
%TD*%
D50*
%TO.C,U1*%
X67350000Y-53340000D03*
X66850000Y-53340000D03*
X66350000Y-53340000D03*
X65850000Y-53340000D03*
X65350000Y-53340000D03*
X64850000Y-53340000D03*
X64350000Y-53340000D03*
X63850000Y-53340000D03*
D51*
X63162500Y-54027500D03*
X63162500Y-54527500D03*
X63162500Y-55027500D03*
X63162500Y-55527500D03*
X63162500Y-56027500D03*
X63162500Y-56527500D03*
X63162500Y-57027500D03*
X63162500Y-57527500D03*
D50*
X63850000Y-58215000D03*
X64350000Y-58215000D03*
X64850000Y-58215000D03*
X65350000Y-58215000D03*
X65850000Y-58215000D03*
X66350000Y-58215000D03*
X66850000Y-58215000D03*
X67350000Y-58215000D03*
D51*
X68037500Y-57527500D03*
X68037500Y-57027500D03*
X68037500Y-56527500D03*
X68037500Y-56027500D03*
X68037500Y-55527500D03*
X68037500Y-55027500D03*
X68037500Y-54527500D03*
X68037500Y-54027500D03*
D52*
X65600000Y-55777500D03*
%TD*%
D46*
%TO.C,C38*%
X108185000Y-57990000D03*
X109320000Y-57990000D03*
%TD*%
D35*
%TO.C,C11*%
X61000000Y-59035000D03*
X61000000Y-60170000D03*
%TD*%
D53*
%TO.C,R16*%
X73152500Y-45662500D03*
X74347500Y-45662500D03*
%TD*%
D13*
%TO.C,L1*%
X104260000Y-67036000D03*
X104260000Y-68560000D03*
%TD*%
%TO.C,C4*%
X71800000Y-64004000D03*
X71800000Y-62480000D03*
%TD*%
D25*
%TO.C,C28*%
X79310000Y-48280000D03*
X77786000Y-48280000D03*
%TD*%
D28*
%TO.C,C7*%
X66810000Y-52030000D03*
X66810000Y-50895000D03*
%TD*%
D13*
%TO.C,C24*%
X79000000Y-58436000D03*
X79000000Y-59960000D03*
%TD*%
D35*
%TO.C,C29*%
X79290000Y-50432500D03*
X79290000Y-51567500D03*
%TD*%
D54*
%TO.C,J2*%
X105470000Y-74250000D03*
D55*
X98470000Y-64950000D03*
D56*
X105470000Y-53350000D03*
X105470000Y-77750000D03*
D55*
X112470000Y-64950000D03*
%TD*%
D34*
%TO.C,R13*%
X73920000Y-59082500D03*
X73920000Y-60277500D03*
%TD*%
D13*
%TO.C,R8*%
X75990000Y-62466000D03*
X75990000Y-63990000D03*
%TD*%
D25*
%TO.C,R3*%
X69464000Y-67960000D03*
X67940000Y-67960000D03*
%TD*%
D37*
%TO.C,MH5*%
X65950000Y-38360000D03*
%TD*%
D57*
%TO.C,Y1*%
X100493001Y-62158000D03*
X101943001Y-62158000D03*
X101943001Y-61008000D03*
X100493001Y-61008000D03*
%TD*%
D25*
%TO.C,C33*%
X77940000Y-46600000D03*
X76416000Y-46600000D03*
%TD*%
D46*
%TO.C,C35*%
X110542500Y-62460000D03*
X111677500Y-62460000D03*
%TD*%
D53*
%TO.C,R17*%
X71942500Y-44612500D03*
X73137500Y-44612500D03*
%TD*%
D25*
%TO.C,R2*%
X60336000Y-67180000D03*
X61860000Y-67180000D03*
%TD*%
%TO.C,C32*%
X75770000Y-41452500D03*
X74246000Y-41452500D03*
%TD*%
D33*
%TO.C,R22*%
X93270000Y-59097500D03*
X93270000Y-57902500D03*
%TD*%
D28*
%TO.C,C25*%
X79290000Y-53907500D03*
X79290000Y-52772500D03*
%TD*%
D58*
%TO.C,U4*%
X75730000Y-44342500D03*
X75730000Y-43842500D03*
X75730000Y-43342500D03*
X74230000Y-43342500D03*
X74230000Y-43842500D03*
X74230000Y-44342500D03*
%TD*%
D13*
%TO.C,R5*%
X71810000Y-66674000D03*
X71810000Y-65150000D03*
%TD*%
D35*
%TO.C,C9*%
X61050000Y-56322500D03*
X61050000Y-57457500D03*
%TD*%
D13*
%TO.C,C3*%
X66120000Y-66604000D03*
X66120000Y-65080000D03*
%TD*%
D59*
%TO.C,Q1*%
X103640000Y-55720000D03*
X103640000Y-57620000D03*
X105515000Y-56670000D03*
%TD*%
D42*
%TO.C,JP1*%
X87020000Y-58810000D03*
D43*
X88320000Y-58810000D03*
%TD*%
D28*
%TO.C,C6*%
X67780000Y-52025000D03*
X67780000Y-50890000D03*
%TD*%
D10*
%TO.C,J5*%
X57205000Y-76180000D03*
D60*
X54665000Y-76180000D03*
%TD*%
D25*
%TO.C,C26*%
X75321500Y-47111750D03*
X73797500Y-47111750D03*
%TD*%
D61*
%TO.C,U3*%
X77764000Y-50347500D03*
X77114000Y-50347500D03*
X76464000Y-50347500D03*
X75814000Y-50347500D03*
X75164000Y-50347500D03*
X74514000Y-50347500D03*
X73864000Y-50347500D03*
X73864000Y-56072500D03*
X74514000Y-56072500D03*
X75164000Y-56072500D03*
X75814000Y-56072500D03*
X76464000Y-56072500D03*
X77114000Y-56072500D03*
X77764000Y-56072500D03*
%TD*%
D33*
%TO.C,R19*%
X101770000Y-66357500D03*
X101770000Y-65162500D03*
%TD*%
M02*
