%TF.GenerationSoftware,KiCad,Pcbnew,7.0.11+dfsg-1*%
%TF.CreationDate,2024-04-09T00:47:46+03:00*%
%TF.ProjectId,legacy_av_in,6c656761-6379-45f6-9176-5f696e2e6b69,rev?*%
%TF.SameCoordinates,Original*%
%TF.FileFunction,Soldermask,Bot*%
%TF.FilePolarity,Negative*%
%FSLAX46Y46*%
G04 Gerber Fmt 4.6, Leading zero omitted, Abs format (unit mm)*
G04 Created by KiCad (PCBNEW 7.0.11+dfsg-1) date 2024-04-09 00:47:46*
%MOMM*%
%LPD*%
G01*
G04 APERTURE LIST*
G04 Aperture macros list*
%AMRoundRect*
0 Rectangle with rounded corners*
0 $1 Rounding radius*
0 $2 $3 $4 $5 $6 $7 $8 $9 X,Y pos of 4 corners*
0 Add a 4 corners polygon primitive as box body*
4,1,4,$2,$3,$4,$5,$6,$7,$8,$9,$2,$3,0*
0 Add four circle primitives for the rounded corners*
1,1,$1+$1,$2,$3*
1,1,$1+$1,$4,$5*
1,1,$1+$1,$6,$7*
1,1,$1+$1,$8,$9*
0 Add four rect primitives between the rounded corners*
20,1,$1+$1,$2,$3,$4,$5,0*
20,1,$1+$1,$4,$5,$6,$7,0*
20,1,$1+$1,$6,$7,$8,$9,0*
20,1,$1+$1,$8,$9,$2,$3,0*%
G04 Aperture macros list end*
%ADD10R,1.700000X1.700000*%
%ADD11O,1.700000X1.700000*%
%ADD12C,2.540000*%
%ADD13C,3.200000*%
%ADD14C,5.500000*%
%ADD15RoundRect,0.102000X-0.704000X-0.704000X0.704000X-0.704000X0.704000X0.704000X-0.704000X0.704000X0*%
%ADD16C,1.612000*%
%ADD17O,2.934000X1.434000*%
%ADD18O,1.434000X2.934000*%
%ADD19O,2.004000X3.804000*%
%ADD20O,4.404000X2.304000*%
%ADD21C,3.250000*%
G04 APERTURE END LIST*
D10*
%TO.C,J1*%
X48925790Y-27248710D03*
D11*
X46385790Y-27248710D03*
X48925790Y-29788710D03*
X46385790Y-29788710D03*
X48925790Y-32328710D03*
X46385790Y-32328710D03*
X48925790Y-34868710D03*
X46385790Y-34868710D03*
X48925790Y-37408710D03*
X46385790Y-37408710D03*
X48925790Y-39948710D03*
X46385790Y-39948710D03*
X48925790Y-42488710D03*
X46385790Y-42488710D03*
X48925790Y-45028710D03*
X46385790Y-45028710D03*
X48925790Y-47568710D03*
X46385790Y-47568710D03*
X48925790Y-50108710D03*
X46385790Y-50108710D03*
X48925790Y-52648710D03*
X46385790Y-52648710D03*
X48925790Y-55188710D03*
X46385790Y-55188710D03*
X48925790Y-57728710D03*
X46385790Y-57728710D03*
X48925790Y-60268710D03*
X46385790Y-60268710D03*
X48925790Y-62808710D03*
X46385790Y-62808710D03*
X48925790Y-65348710D03*
X46385790Y-65348710D03*
X48925790Y-67888710D03*
X46385790Y-67888710D03*
X48925790Y-70428710D03*
X46385790Y-70428710D03*
X48925790Y-72968710D03*
X46385790Y-72968710D03*
X48925790Y-75508710D03*
X46385790Y-75508710D03*
X48925790Y-78048710D03*
X46385790Y-78048710D03*
X48925790Y-80588710D03*
X46385790Y-80588710D03*
X48925790Y-83128710D03*
X46385790Y-83128710D03*
X48925790Y-85668710D03*
X46385790Y-85668710D03*
X48925790Y-88208710D03*
X46385790Y-88208710D03*
%TD*%
D12*
%TO.C,ST1*%
X53190000Y-15300000D03*
X48110000Y-15300000D03*
X53190000Y-20740000D03*
X48110000Y-20740000D03*
%TD*%
%TO.C,ST2*%
X53190000Y-94720000D03*
X48110000Y-94720000D03*
X53190000Y-100160000D03*
X48110000Y-100160000D03*
%TD*%
D13*
%TO.C,MH3*%
X115500000Y-68270000D03*
%TD*%
D14*
%TO.C,MH4*%
X94900000Y-79930000D03*
%TD*%
D15*
%TO.C,J4*%
X85190000Y-74890000D03*
D16*
X78390000Y-74890000D03*
X85190000Y-72390000D03*
X78390000Y-72390000D03*
D17*
X81790000Y-78690000D03*
D18*
X75040000Y-77890000D03*
X88540000Y-77890000D03*
%TD*%
D13*
%TO.C,MH2*%
X53300000Y-86500000D03*
%TD*%
D19*
%TO.C,J3*%
X61887500Y-75700000D03*
X69387500Y-75700000D03*
D20*
X65637500Y-79400000D03*
%TD*%
D13*
%TO.C,MH1*%
X53300000Y-29000000D03*
%TD*%
D21*
%TO.C,J2*%
X105780000Y-70000000D03*
X110080000Y-74300000D03*
X110080000Y-65700000D03*
X101480000Y-74300000D03*
X101480000Y-65700000D03*
%TD*%
D14*
%TO.C,MH5*%
X65950000Y-38360000D03*
%TD*%
M02*
