M48
; DRILL file {KiCad 9.0.1+dfsg-1} date 2025-04-21T22:05:26+0300
; FORMAT={-:-/ absolute / inch / decimal}
; #@! TF.CreationDate,2025-04-21T22:05:26+03:00
; #@! TF.GenerationSoftware,Kicad,Pcbnew,9.0.1+dfsg-1
; #@! TF.FileFunction,MixedPlating,1,4
FMAT,2
INCH
; #@! TA.AperFunction,Plated,PTH,ComponentDrill
T1C0.0079
; #@! TA.AperFunction,Plated,PTH,ComponentDrill
T2C0.0118
; #@! TA.AperFunction,Plated,PTH,ViaDrill
T3C0.0130
; #@! TA.AperFunction,Plated,PTH,ComponentDrill
T4C0.0276
; #@! TA.AperFunction,Plated,PTH,ComponentDrill
T5C0.0315
; #@! TA.AperFunction,Plated,PTH,ComponentDrill
T6C0.0354
; #@! TA.AperFunction,Plated,PTH,ComponentDrill
T7C0.0394
; #@! TA.AperFunction,Plated,PTH,ComponentDrill
T8C0.0512
; #@! TA.AperFunction,Plated,PTH,ComponentDrill
T9C0.0669
; #@! TA.AperFunction,Plated,PTH,ComponentDrill
T10C0.0984
; #@! TA.AperFunction,Plated,PTH,ComponentDrill
T11C0.1260
; #@! TA.AperFunction,NonPlated,NPTH,ComponentDrill
T12C0.1260
%
G90
G05
T1
X3.5343Y-2.5272
X3.5343Y-2.5646
X3.5343Y-2.602
X3.5717Y-2.5272
X3.5717Y-2.5646
X3.5717Y-2.602
X3.6091Y-2.5272
X3.6091Y-2.5646
X3.6091Y-2.602
T2
X2.5236Y-2.1369
X2.5236Y-2.196
X2.5236Y-2.255
X2.5827Y-2.1369
X2.5827Y-2.196
X2.5827Y-2.255
X2.6417Y-2.1369
X2.6417Y-2.196
X2.6417Y-2.255
T3
X1.7661Y-1.0727
X1.7661Y-1.1727
X1.7661Y-1.2727
X1.7661Y-1.3727
X1.7661Y-1.4727
X1.7661Y-1.5727
X1.7661Y-1.6727
X1.7661Y-1.7727
X1.7661Y-1.8727
X1.7661Y-1.9727
X1.7661Y-2.0727
X1.7661Y-2.1727
X1.7661Y-2.2727
X1.7661Y-2.3727
X1.7661Y-2.4727
X1.7661Y-2.5727
X1.7661Y-2.6727
X1.7661Y-2.7727
X1.7661Y-2.8727
X1.7661Y-2.9727
X1.7661Y-3.0727
X1.7661Y-3.1727
X1.7661Y-3.2727
X1.7661Y-3.3727
X1.7661Y-3.4727
X1.8661Y-0.9727
X1.8661Y-3.5727
X1.9661Y-0.6727
X1.9661Y-0.7727
X1.9661Y-0.8727
X1.9661Y-0.9727
X1.9661Y-3.5727
X1.9661Y-3.6727
X1.9661Y-3.7727
X1.9661Y-3.8727
X2.0031Y-2.8201
X2.0043Y-2.7661
X2.0299Y-1.948
X2.0661Y-0.9727
X2.0661Y-1.2727
X2.0661Y-1.6727
X2.0661Y-2.2727
X2.0661Y-2.3727
X2.0661Y-2.4727
X2.0661Y-2.5727
X2.0661Y-2.6727
X2.0661Y-2.7727
X2.0661Y-2.8727
X2.0661Y-2.9727
X2.0661Y-3.0727
X2.0661Y-3.5727
X2.1661Y-0.6727
X2.1661Y-0.7727
X2.1661Y-0.8727
X2.1661Y-0.9727
X2.1661Y-1.0727
X2.1661Y-1.2727
X2.1661Y-1.3727
X2.1661Y-1.7727
X2.1661Y-2.4727
X2.1661Y-2.5727
X2.1661Y-2.8727
X2.1661Y-3.0727
X2.1661Y-3.5727
X2.1661Y-3.6727
X2.1661Y-3.7727
X2.1661Y-3.8727
X2.1697Y-2.0906
X2.178Y-3.239
X2.1866Y-2.3681
X2.213Y-3.1555
X2.2661Y-1.3727
X2.2661Y-1.8727
X2.2661Y-2.2727
X2.2661Y-2.4727
X2.2661Y-2.5727
X2.2661Y-2.7727
X2.2661Y-3.0727
X2.3323Y-2.2638
X2.3618Y-2.3776
X2.3661Y-1.3727
X2.3661Y-1.4727
X2.3661Y-1.9727
X2.3661Y-2.4727
X2.3661Y-2.5727
X2.3661Y-2.7727
X2.3661Y-2.8727
X2.3661Y-2.9727
X2.3661Y-3.0727
X2.4382Y-2.2272
X2.4654Y-2.3232
X2.4661Y-1.3727
X2.4661Y-1.5727
X2.4661Y-2.7727
X2.4661Y-2.8727
X2.5079Y-1.9782
X2.5583Y-2.6106
X2.5661Y-1.3727
X2.5661Y-2.9727
X2.5913Y-2.4602
X2.6181Y-1.9598
X2.652Y-1.9756
X2.665Y-1.7614
X2.6661Y-1.3727
X2.6661Y-2.5727
X2.6661Y-2.8727
X2.6724Y-2.8079
X2.6799Y-2.0843
X2.685Y-1.9323
X2.6882Y-2.3579
X2.6953Y-2.4406
X2.7248Y-2.2587
X2.7374Y-2.0941
X2.7661Y-1.3727
X2.7661Y-1.4727
X2.7661Y-1.5727
X2.7661Y-1.7727
X2.7661Y-2.5727
X2.7756Y-2.2248
X2.7764Y-2.1791
X2.8008Y-2.302
X2.8661Y-1.3727
X2.8661Y-1.4727
X2.8661Y-1.5727
X2.8661Y-1.6727
X2.8661Y-1.8727
X2.8917Y-2.2969
X2.9039Y-2.0787
X2.9043Y-2.0398
X2.9051Y-2.0024
X2.9098Y-2.6748
X2.9622Y-2.3894
X2.9661Y-1.3727
X2.9661Y-1.4727
X2.9661Y-1.5727
X2.9661Y-1.6727
X2.9661Y-2.5727
X2.9661Y-2.9727
X2.9661Y-3.1727
X2.9882Y-2.0106
X2.9894Y-2.0661
X3.0024Y-2.415
X3.0555Y-2.6579
X3.0661Y-1.3727
X3.0661Y-1.4727
X3.0661Y-1.5727
X3.0661Y-1.6727
X3.0661Y-3.0727
X3.0661Y-3.1727
X3.072Y-2.4181
X3.0736Y-2.3343
X3.1382Y-1.839
X3.1661Y-1.3727
X3.1661Y-1.4727
X3.1661Y-1.5727
X3.1661Y-2.0727
X3.1661Y-2.8727
X3.1661Y-2.9727
X3.1661Y-3.1727
X3.1783Y-2.1941
X3.1941Y-2.3272
X3.2024Y-2.5827
X3.2028Y-2.613
X3.211Y-1.7256
X3.2362Y-2.3232
X3.2366Y-2.3519
X3.2654Y-1.7028
X3.2661Y-1.3727
X3.2661Y-1.4727
X3.2661Y-1.5727
X3.2661Y-2.0727
X3.2661Y-2.1727
X3.2661Y-2.8727
X3.2661Y-2.9727
X3.2661Y-3.1727
X3.278Y-2.6169
X3.3043Y-1.7827
X3.324Y-1.948
X3.3248Y-2.1925
X3.3248Y-2.2906
X3.3315Y-2.2256
X3.335Y-2.5264
X3.3409Y-2.3315
X3.3417Y-1.702
X3.3433Y-2.6169
X3.3453Y-2.0311
X3.3484Y-1.9862
X3.3524Y-1.7874
X3.3594Y-2.2902
X3.3661Y-1.3727
X3.3661Y-1.4727
X3.3661Y-1.5727
X3.3661Y-2.7727
X3.3661Y-3.0727
X3.3661Y-3.1727
X3.376Y-2.4547
X3.3783Y-2.3315
X3.3957Y-2.2906
X3.398Y-1.9228
X3.3992Y-2.4858
X3.4063Y-2.6618
X3.4126Y-2.1823
X3.4236Y-1.8854
X3.4433Y-2.661
X3.4492Y-2.4665
X3.4539Y-2.5858
X3.4555Y-1.915
X3.4587Y-1.8594
X3.4661Y-1.3727
X3.4661Y-1.4727
X3.4661Y-1.5727
X3.4661Y-2.7727
X3.4661Y-2.8727
X3.4661Y-2.9727
X3.4661Y-3.1727
X3.4701Y-2.339
X3.489Y-2.0358
X3.5331Y-2.3646
X3.5398Y-2.4181
X3.5661Y-2.9727
X3.5661Y-3.0727
X3.5661Y-3.1727
X3.5811Y-2.4421
X3.589Y-2.7126
X3.6453Y-2.6878
X3.6661Y-2.8787
X3.6882Y-2.5661
X3.6886Y-2.7484
X3.6961Y-2.5299
X3.7661Y-2.7727
X3.8028Y-2.3717
X3.8661Y-3.0727
X3.8783Y-2.7646
X3.9661Y-2.7727
X3.9661Y-3.0727
X3.9661Y-3.1727
X4.0661Y-2.6727
X4.0661Y-2.7727
X4.0661Y-3.0727
X4.0661Y-3.1727
X4.1661Y-2.4727
X4.1661Y-2.5727
X4.1661Y-2.8727
X4.1661Y-2.9727
X4.1661Y-3.0727
X4.1661Y-3.1727
X4.2661Y-2.6727
X4.2661Y-2.7727
X4.2661Y-3.0727
X4.2661Y-3.1727
X4.3661Y-2.4727
X4.3661Y-2.7727
X4.3661Y-3.0727
X4.3661Y-3.1727
X4.4661Y-2.4727
X4.4661Y-2.5727
X4.4661Y-2.7727
X4.4661Y-2.8727
X4.4661Y-2.9727
X4.4661Y-3.0727
X4.4661Y-3.1727
X4.5661Y-2.4727
X4.5661Y-2.5727
X4.5661Y-2.8727
X4.5661Y-2.9727
X4.5661Y-3.0727
X4.5661Y-3.1727
X4.6661Y-2.4727
X4.6661Y-2.5727
X4.6661Y-2.6727
X4.6661Y-2.7727
X4.6661Y-2.8727
X4.6661Y-2.9727
X4.6661Y-3.0727
X4.6661Y-3.1727
T5
X2.2134Y-2.7142
X2.2134Y-2.8126
T6
X3.0862Y-2.85
X3.0862Y-2.9484
X3.3539Y-2.85
X3.3539Y-2.9484
T7
X1.8262Y-1.0728
X1.8262Y-1.1728
X1.8262Y-1.2728
X1.8262Y-1.3728
X1.8262Y-1.4728
X1.8262Y-1.5728
X1.8262Y-1.6728
X1.8262Y-1.7728
X1.8262Y-1.8728
X1.8262Y-1.9728
X1.8262Y-2.0728
X1.8262Y-2.1728
X1.8262Y-2.2728
X1.8262Y-2.3728
X1.8262Y-2.4728
X1.8262Y-2.5728
X1.8262Y-2.6728
X1.8262Y-2.7728
X1.8262Y-2.8728
X1.8262Y-2.9728
X1.8262Y-3.0728
X1.8262Y-3.1728
X1.8262Y-3.2728
X1.8262Y-3.3728
X1.8262Y-3.4728
X1.9262Y-1.0728
X1.9262Y-1.1728
X1.9262Y-1.2728
X1.9262Y-1.3728
X1.9262Y-1.4728
X1.9262Y-1.5728
X1.9262Y-1.6728
X1.9262Y-1.7728
X1.9262Y-1.8728
X1.9262Y-1.9728
X1.9262Y-2.0728
X1.9262Y-2.1728
X1.9262Y-2.2728
X1.9262Y-2.3728
X1.9262Y-2.4728
X1.9262Y-2.5728
X1.9262Y-2.6728
X1.9262Y-2.7728
X1.9262Y-2.8728
X1.9262Y-2.9728
X1.9262Y-3.0728
X1.9262Y-3.1728
X1.9262Y-3.2728
X1.9262Y-3.3728
X1.9262Y-3.4728
X2.1522Y-2.9992
X2.2522Y-2.9992
T9
X1.8941Y-0.6024
X1.8941Y-0.8165
X1.8941Y-3.7291
X1.8941Y-3.9433
X2.0941Y-0.6024
X2.0941Y-0.8165
X2.0941Y-3.7291
X2.0941Y-3.9433
T10
X3.9953Y-2.5866
X3.9953Y-2.9252
X4.1646Y-2.7559
X4.3339Y-2.5866
X4.3339Y-2.9252
T11
X2.5965Y-1.5102
X3.7362Y-3.1469
T12
X2.0984Y-1.1417
X2.0984Y-3.4055
X4.5472Y-2.6878
T4
G00X2.9543Y-3.037
M15
G01X2.9543Y-3.0961
M16
G05
G00X3.1906Y-3.098
M15
G01X3.2496Y-3.098
M16
G05
G00X3.4858Y-3.037
M15
G01X3.4858Y-3.0961
M16
G05
T7
G00X2.4365Y-2.9508
M15
G01X2.4365Y-3.0098
M16
G05
G00X2.7318Y-2.9508
M15
G01X2.7318Y-3.0098
M16
G05
T8
G00X2.5655Y-3.126
M15
G01X2.6029Y-3.126
M16
G05
M30
