%TF.GenerationSoftware,KiCad,Pcbnew,9.0.2+dfsg-1*%
%TF.CreationDate,2025-08-01T16:41:46+03:00*%
%TF.ProjectId,legacy_av_in,6c656761-6379-45f6-9176-5f696e2e6b69,rev?*%
%TF.SameCoordinates,Original*%
%TF.FileFunction,Copper,L4,Bot*%
%TF.FilePolarity,Positive*%
%FSLAX46Y46*%
G04 Gerber Fmt 4.6, Leading zero omitted, Abs format (unit mm)*
G04 Created by KiCad (PCBNEW 9.0.2+dfsg-1) date 2025-08-01 16:41:46*
%MOMM*%
%LPD*%
G01*
G04 APERTURE LIST*
%TA.AperFunction,ComponentPad*%
%ADD10R,1.700000X1.700000*%
%TD*%
%TA.AperFunction,ComponentPad*%
%ADD11O,1.700000X1.700000*%
%TD*%
%TA.AperFunction,ComponentPad*%
%ADD12C,2.540000*%
%TD*%
%TA.AperFunction,ComponentPad*%
%ADD13C,0.500000*%
%TD*%
%TA.AperFunction,SMDPad,CuDef*%
%ADD14R,2.400000X2.400000*%
%TD*%
%TA.AperFunction,ComponentPad*%
%ADD15C,5.500000*%
%TD*%
%TA.AperFunction,ComponentPad*%
%ADD16R,1.408000X1.408000*%
%TD*%
%TA.AperFunction,ComponentPad*%
%ADD17C,1.408000*%
%TD*%
%TA.AperFunction,ComponentPad*%
%ADD18O,2.730000X1.230000*%
%TD*%
%TA.AperFunction,ComponentPad*%
%ADD19O,1.230000X2.730000*%
%TD*%
%TA.AperFunction,ComponentPad*%
%ADD20O,1.800000X3.600000*%
%TD*%
%TA.AperFunction,ComponentPad*%
%ADD21O,4.200000X2.100000*%
%TD*%
%TA.AperFunction,ComponentPad*%
%ADD22R,1.600000X1.600000*%
%TD*%
%TA.AperFunction,ComponentPad*%
%ADD23C,1.600000*%
%TD*%
%TA.AperFunction,ComponentPad*%
%ADD24C,0.600000*%
%TD*%
%TA.AperFunction,SMDPad,CuDef*%
%ADD25R,3.600000X3.600000*%
%TD*%
%TA.AperFunction,ComponentPad*%
%ADD26O,2.330000X1.230000*%
%TD*%
%TA.AperFunction,ComponentPad*%
%ADD27O,1.230000X3.030000*%
%TD*%
%TA.AperFunction,ComponentPad*%
%ADD28O,3.030000X1.230000*%
%TD*%
%TA.AperFunction,ComponentPad*%
%ADD29C,1.700000*%
%TD*%
%TA.AperFunction,ViaPad*%
%ADD30C,0.686000*%
%TD*%
%TA.AperFunction,Conductor*%
%ADD31C,0.250000*%
%TD*%
%TA.AperFunction,Conductor*%
%ADD32C,0.500000*%
%TD*%
%TA.AperFunction,Conductor*%
%ADD33C,0.200000*%
%TD*%
G04 APERTURE END LIST*
D10*
%TO.P,J1,1,Pin_1*%
%TO.N,/ADV_CLKIN*%
X48925790Y-27248710D03*
D11*
%TO.P,J1,2,Pin_2*%
%TO.N,/PCM_CLKIN*%
X46385790Y-27248710D03*
%TO.P,J1,3,Pin_3*%
%TO.N,/ADV_LLC*%
X48925790Y-29788710D03*
%TO.P,J1,4,Pin_4*%
%TO.N,unconnected-(J1-Pin_4-Pad4)*%
X46385790Y-29788710D03*
%TO.P,J1,5,Pin_5*%
%TO.N,unconnected-(J1-Pin_5-Pad5)*%
X48925790Y-32328710D03*
%TO.P,J1,6,Pin_6*%
%TO.N,unconnected-(J1-Pin_6-Pad6)*%
X46385790Y-32328710D03*
%TO.P,J1,7,Pin_7*%
%TO.N,unconnected-(J1-Pin_7-Pad7)*%
X48925790Y-34868710D03*
%TO.P,J1,8,Pin_8*%
%TO.N,unconnected-(J1-Pin_8-Pad8)*%
X46385790Y-34868710D03*
%TO.P,J1,9,Pin_9*%
%TO.N,/ADV_VS*%
X48925790Y-37408710D03*
%TO.P,J1,10,Pin_10*%
%TO.N,/ADV_IRQ*%
X46385790Y-37408710D03*
%TO.P,J1,11,Pin_11*%
%TO.N,unconnected-(J1-Pin_11-Pad11)*%
X48925790Y-39948710D03*
%TO.P,J1,12,Pin_12*%
%TO.N,/ADV_HS*%
X46385790Y-39948710D03*
%TO.P,J1,13,Pin_13*%
%TO.N,/ADV_P6*%
X48925790Y-42488710D03*
%TO.P,J1,14,Pin_14*%
%TO.N,/ADV_P7*%
X46385790Y-42488710D03*
%TO.P,J1,15,Pin_15*%
%TO.N,/ADV_P4*%
X48925790Y-45028710D03*
%TO.P,J1,16,Pin_16*%
%TO.N,/ADV_P5*%
X46385790Y-45028710D03*
%TO.P,J1,17,Pin_17*%
%TO.N,/DVDD5*%
X48925790Y-47568710D03*
%TO.P,J1,18,Pin_18*%
%TO.N,GND*%
X46385790Y-47568710D03*
%TO.P,J1,19,Pin_19*%
%TO.N,/ADV_P2*%
X48925790Y-50108710D03*
%TO.P,J1,20,Pin_20*%
%TO.N,/ADV_P3*%
X46385790Y-50108710D03*
%TO.P,J1,21,Pin_21*%
%TO.N,/ADV_P0*%
X48925790Y-52648710D03*
%TO.P,J1,22,Pin_22*%
%TO.N,/ADV_P1*%
X46385790Y-52648710D03*
%TO.P,J1,23,Pin_23*%
%TO.N,/I2S_BCK_o*%
X48925790Y-55188710D03*
%TO.P,J1,24,Pin_24*%
%TO.N,/I2S_WS_o*%
X46385790Y-55188710D03*
%TO.P,J1,25,Pin_25*%
%TO.N,/I2S_DATA_o*%
X48925790Y-57728710D03*
%TO.P,J1,26,Pin_26*%
%TO.N,unconnected-(J1-Pin_26-Pad26)*%
X46385790Y-57728710D03*
%TO.P,J1,27,Pin_27*%
%TO.N,unconnected-(J1-Pin_27-Pad27)*%
X48925790Y-60268710D03*
%TO.P,J1,28,Pin_28*%
%TO.N,unconnected-(J1-Pin_28-Pad28)*%
X46385790Y-60268710D03*
%TO.P,J1,29,Pin_29*%
%TO.N,unconnected-(J1-Pin_29-Pad29)*%
X48925790Y-62808710D03*
%TO.P,J1,30,Pin_30*%
%TO.N,unconnected-(J1-Pin_30-Pad30)*%
X46385790Y-62808710D03*
%TO.P,J1,31,Pin_31*%
%TO.N,unconnected-(J1-Pin_31-Pad31)*%
X48925790Y-65348710D03*
%TO.P,J1,32,Pin_32*%
%TO.N,unconnected-(J1-Pin_32-Pad32)*%
X46385790Y-65348710D03*
%TO.P,J1,33,Pin_33*%
%TO.N,unconnected-(J1-Pin_33-Pad33)*%
X48925790Y-67888710D03*
%TO.P,J1,34,Pin_34*%
%TO.N,unconnected-(J1-Pin_34-Pad34)*%
X46385790Y-67888710D03*
%TO.P,J1,35,Pin_35*%
%TO.N,/DVDD3v3*%
X48925790Y-70428710D03*
%TO.P,J1,36,Pin_36*%
%TO.N,GND*%
X46385790Y-70428710D03*
%TO.P,J1,37,Pin_37*%
%TO.N,unconnected-(J1-Pin_37-Pad37)*%
X48925790Y-72968710D03*
%TO.P,J1,38,Pin_38*%
%TO.N,unconnected-(J1-Pin_38-Pad38)*%
X46385790Y-72968710D03*
%TO.P,J1,39,Pin_39*%
%TO.N,unconnected-(J1-Pin_39-Pad39)*%
X48925790Y-75508710D03*
%TO.P,J1,40,Pin_40*%
%TO.N,unconnected-(J1-Pin_40-Pad40)*%
X46385790Y-75508710D03*
%TO.P,J1,41,Pin_41*%
%TO.N,unconnected-(J1-Pin_41-Pad41)*%
X48925790Y-78048710D03*
%TO.P,J1,42,Pin_42*%
%TO.N,unconnected-(J1-Pin_42-Pad42)*%
X46385790Y-78048710D03*
%TO.P,J1,43,Pin_43*%
%TO.N,unconnected-(J1-Pin_43-Pad43)*%
X48925790Y-80588710D03*
%TO.P,J1,44,Pin_44*%
%TO.N,unconnected-(J1-Pin_44-Pad44)*%
X46385790Y-80588710D03*
%TO.P,J1,45,Pin_45*%
%TO.N,/I2S_BCK*%
X48925790Y-83128710D03*
%TO.P,J1,46,Pin_46*%
%TO.N,/I2S_WS*%
X46385790Y-83128710D03*
%TO.P,J1,47,Pin_47*%
%TO.N,/I2S_DATA*%
X48925790Y-85668710D03*
%TO.P,J1,48,Pin_48*%
%TO.N,/SPDIF*%
X46385790Y-85668710D03*
%TO.P,J1,49,Pin_49*%
%TO.N,/SDA*%
X48925790Y-88208710D03*
%TO.P,J1,50,Pin_50*%
%TO.N,/SCL*%
X46385790Y-88208710D03*
%TD*%
D12*
%TO.P,ST1,1,Pin_1*%
%TO.N,GND*%
X53190000Y-15300000D03*
X48110000Y-15300000D03*
X53190000Y-20740000D03*
X48110000Y-20740000D03*
%TD*%
%TO.P,ST2,1,Pin_1*%
%TO.N,GND*%
X53190000Y-94720000D03*
X48110000Y-94720000D03*
X53190000Y-100160000D03*
X48110000Y-100160000D03*
%TD*%
D13*
%TO.P,U2,29,EP*%
%TO.N,GND*%
X107920000Y-64450000D03*
X107920000Y-63500000D03*
X107920000Y-62550000D03*
X106970000Y-64450000D03*
X106970000Y-63500000D03*
D14*
X106970000Y-63500000D03*
D13*
X106970000Y-62550000D03*
X106020000Y-64450000D03*
X106020000Y-63500000D03*
X106020000Y-62550000D03*
%TD*%
D15*
%TO.P,MH4,1,1*%
%TO.N,unconnected-(MH4-Pad1)*%
X94900000Y-79930000D03*
%TD*%
D16*
%TO.P,J4,1*%
%TO.N,GND*%
X85190000Y-74890000D03*
D17*
%TO.P,J4,2*%
X78390000Y-74890000D03*
%TO.P,J4,3*%
%TO.N,/SV_Y*%
X85190000Y-72390000D03*
%TO.P,J4,4*%
%TO.N,/SV_C*%
X78390000Y-72390000D03*
D18*
%TO.P,J4,S1*%
%TO.N,GND*%
X81790000Y-78690000D03*
D19*
%TO.P,J4,S2*%
X75040000Y-77890000D03*
%TO.P,J4,S3*%
X88540000Y-77890000D03*
%TD*%
D20*
%TO.P,J3,1,In*%
%TO.N,/CVBS1*%
X61887500Y-75700000D03*
X69387500Y-75700000D03*
D21*
%TO.P,J3,2,Ext*%
%TO.N,GND*%
X65637500Y-79400000D03*
%TD*%
D22*
%TO.P,C42,1*%
%TO.N,Net-(C3-Pad1)*%
X56220000Y-68940000D03*
D23*
%TO.P,C42,2*%
%TO.N,Net-(J5-Pin_1)*%
X56220000Y-71440000D03*
%TD*%
D24*
%TO.P,U1,33,DGND*%
%TO.N,GND*%
X67100000Y-54277500D03*
X65600000Y-54277500D03*
X64100000Y-54277500D03*
X67100000Y-55777500D03*
X65600000Y-55777500D03*
D25*
X65600000Y-55777500D03*
D24*
X64100000Y-55777500D03*
X67100000Y-57277500D03*
X65600000Y-57277500D03*
X64100000Y-57277500D03*
%TD*%
D26*
%TO.P,J2,1,In*%
%TO.N,Net-(D3-TVS2)*%
X105470000Y-74250000D03*
D27*
%TO.P,J2,2,Ext*%
%TO.N,GND*%
X98470000Y-64950000D03*
D28*
X105470000Y-53350000D03*
X105470000Y-77750000D03*
D27*
X112470000Y-64950000D03*
%TD*%
D15*
%TO.P,MH5,1,1*%
%TO.N,unconnected-(MH5-Pad1)*%
X65950000Y-38360000D03*
%TD*%
D10*
%TO.P,J5,1,Pin_1*%
%TO.N,Net-(J5-Pin_1)*%
X57205000Y-76180000D03*
D29*
%TO.P,J5,2,Pin_2*%
%TO.N,GND*%
X54665000Y-76180000D03*
%TD*%
D30*
%TO.N,GND*%
X85498408Y-65346427D03*
X55018408Y-19626427D03*
X113438408Y-42486427D03*
X95658408Y-47566427D03*
X52478408Y-24706427D03*
X98470000Y-71120000D03*
X85498408Y-45026427D03*
X115978408Y-52646427D03*
X60098408Y-72966427D03*
X70258408Y-42486427D03*
X60098408Y-65346427D03*
X110898408Y-45026427D03*
X55018408Y-90746427D03*
X108358408Y-45026427D03*
X98460000Y-77730000D03*
X67360000Y-50180000D03*
X44858408Y-67886427D03*
X47398408Y-24706427D03*
X95658408Y-42486427D03*
X49938408Y-90746427D03*
X115978408Y-78046427D03*
X67718408Y-34866427D03*
X44858408Y-83126427D03*
X55018408Y-45026427D03*
X93118408Y-39946427D03*
X118518408Y-52646427D03*
X55018408Y-34866427D03*
X44858408Y-80586427D03*
X85498408Y-67886427D03*
X82958408Y-80586427D03*
X82958408Y-72966427D03*
X44858408Y-78046427D03*
X103278408Y-42486427D03*
X103960000Y-60080000D03*
X80418408Y-75506427D03*
X98460000Y-75270000D03*
X57558408Y-70426427D03*
X102320000Y-64020000D03*
X100738408Y-47566427D03*
X115978408Y-80586427D03*
X90578408Y-70426427D03*
X105818408Y-50106427D03*
X69510000Y-62060000D03*
X52478408Y-60266427D03*
X90578408Y-65346427D03*
X103278408Y-80586427D03*
X113438408Y-45026427D03*
X96130330Y-55040330D03*
X112470000Y-55560000D03*
X115978408Y-45026427D03*
X74564000Y-52870000D03*
X113438408Y-39946427D03*
X90578408Y-72966427D03*
X63700000Y-50247000D03*
X55018408Y-95826427D03*
X44858408Y-52646427D03*
X110898408Y-80586427D03*
X100738408Y-39946427D03*
X82958408Y-50106427D03*
X72798408Y-39946427D03*
X55018408Y-24706427D03*
X55018408Y-62806427D03*
X95658408Y-37406427D03*
X52478408Y-42486427D03*
X112520000Y-69680000D03*
X52478408Y-65346427D03*
X52478408Y-90746427D03*
X62638408Y-72966427D03*
X75338408Y-39946427D03*
X108358408Y-34866427D03*
X52478408Y-32326427D03*
X55018408Y-98366427D03*
X110898408Y-37406427D03*
X80418408Y-65346427D03*
X65178408Y-75506427D03*
X85498408Y-50106427D03*
X118518408Y-78046427D03*
X59990000Y-60390000D03*
X59240000Y-57500000D03*
X82958408Y-75506427D03*
X75338408Y-65346427D03*
X85100000Y-62320000D03*
X93118408Y-70426427D03*
X82958408Y-42486427D03*
X108358408Y-47566427D03*
X44858408Y-55186427D03*
X90578408Y-37406427D03*
X93118408Y-47566427D03*
X80418408Y-37406427D03*
X115978408Y-72966427D03*
X75160000Y-44722500D03*
X60098408Y-75506427D03*
X93118408Y-34866427D03*
X55018408Y-78046427D03*
X93118408Y-72966427D03*
X52478408Y-72966427D03*
X110898408Y-39946427D03*
X65820000Y-62490000D03*
X57558408Y-34866427D03*
X112480000Y-53360000D03*
X74800000Y-60880000D03*
X103278408Y-37406427D03*
X47398408Y-90746427D03*
X118518408Y-45026427D03*
X77878408Y-37406427D03*
X104490000Y-60490000D03*
X108358408Y-37406427D03*
X57558408Y-65346427D03*
X57558408Y-57726427D03*
X44858408Y-72966427D03*
X72798408Y-42486427D03*
X49938408Y-17086427D03*
X62638408Y-34866427D03*
X44858408Y-32326427D03*
X95658408Y-67886427D03*
X73227500Y-48011750D03*
X115978408Y-75506427D03*
X118518408Y-65346427D03*
X82958408Y-67886427D03*
X95000000Y-53470000D03*
X77878408Y-34866427D03*
X118518408Y-34866427D03*
X112470000Y-57580000D03*
X115978408Y-37406427D03*
X70258408Y-39946427D03*
X112500000Y-75150000D03*
X67718408Y-72966427D03*
X80160000Y-49430000D03*
X82958408Y-52646427D03*
X49938408Y-19626427D03*
X85498408Y-39946427D03*
X118518408Y-47566427D03*
X103278408Y-34866427D03*
X98480000Y-67760000D03*
X95658408Y-45026427D03*
X109890000Y-71850000D03*
X90578408Y-42486427D03*
X85498408Y-70426427D03*
X44858408Y-57726427D03*
X90578408Y-75506427D03*
X98198408Y-47566427D03*
X57558408Y-78046427D03*
X118518408Y-57726427D03*
X44858408Y-85666427D03*
X82958408Y-65346427D03*
X112520000Y-73110000D03*
X118518408Y-39946427D03*
X80000000Y-60470000D03*
X115978408Y-65346427D03*
X85498408Y-34866427D03*
X85498408Y-80586427D03*
X93118408Y-42486427D03*
X90910000Y-62370000D03*
X118518408Y-55186427D03*
X77878408Y-39946427D03*
X49938408Y-93286427D03*
X118518408Y-37406427D03*
X110898408Y-47566427D03*
X44858408Y-37406427D03*
X55018408Y-17086427D03*
X49938408Y-22166427D03*
X112500000Y-77700000D03*
X80140000Y-51860000D03*
X115978408Y-34866427D03*
X118518408Y-62806427D03*
X95658408Y-72966427D03*
X85498408Y-55186427D03*
X76900000Y-48300000D03*
X55018408Y-65346427D03*
X108358408Y-42486427D03*
X115978408Y-42486427D03*
X75338408Y-80586427D03*
X80418408Y-72966427D03*
X80418408Y-34866427D03*
X105818408Y-42486427D03*
X44858408Y-50106427D03*
X60098408Y-50106427D03*
X60098408Y-62806427D03*
X44858408Y-47566427D03*
X118518408Y-60266427D03*
X82958408Y-55186427D03*
X90578408Y-67886427D03*
X74594000Y-54280000D03*
X80418408Y-80586427D03*
X93118408Y-65346427D03*
X109770000Y-59180000D03*
X98198408Y-37406427D03*
X62638408Y-70426427D03*
X90578408Y-78046427D03*
X52478408Y-75506427D03*
X55018408Y-22166427D03*
X118518408Y-42486427D03*
X109760000Y-58530000D03*
X82958408Y-47566427D03*
X70258408Y-37406427D03*
X90578408Y-34866427D03*
X90578408Y-80586427D03*
X115978408Y-67886427D03*
X110898408Y-50106427D03*
X118518408Y-50106427D03*
X109990000Y-65930000D03*
X98198408Y-45026427D03*
X49938408Y-95826427D03*
X44858408Y-75506427D03*
X105818408Y-47566427D03*
X80418408Y-67886427D03*
X93118408Y-67886427D03*
X44858408Y-60266427D03*
X52478408Y-62806427D03*
X90578408Y-47566427D03*
X52478408Y-70426427D03*
X44858408Y-27246427D03*
X44858408Y-29786427D03*
X85498408Y-78046427D03*
X115978408Y-70426427D03*
X115978408Y-39946427D03*
X55018408Y-72966427D03*
X44858408Y-62806427D03*
X60098408Y-37406427D03*
X85498408Y-52646427D03*
X100738408Y-37406427D03*
X101110000Y-77750000D03*
X77878408Y-78046427D03*
X60098408Y-78046427D03*
X109873503Y-61618372D03*
X98198408Y-39946427D03*
X100738408Y-45026427D03*
X98470000Y-69390000D03*
X98460000Y-73060000D03*
X52478408Y-57726427D03*
X103278408Y-45026427D03*
X57558408Y-47566427D03*
X113438408Y-37406427D03*
X90578408Y-45026427D03*
X85498408Y-37406427D03*
X80120000Y-47390000D03*
X52478408Y-67886427D03*
X82958408Y-37406427D03*
X105818408Y-80586427D03*
X98487000Y-59580000D03*
X105818408Y-37406427D03*
X80020000Y-62930000D03*
X103278408Y-39946427D03*
X110898408Y-42486427D03*
X52478408Y-78046427D03*
X82958408Y-34866427D03*
X102863001Y-62548000D03*
X105818408Y-34866427D03*
X95658408Y-65346427D03*
X103278408Y-50106427D03*
X109650000Y-53360000D03*
X93118408Y-37406427D03*
X91960000Y-62400000D03*
X55018408Y-27246427D03*
X44858408Y-70426427D03*
X76380000Y-44842500D03*
X60098408Y-70426427D03*
X44858408Y-34866427D03*
X72798408Y-50106427D03*
X103278408Y-47566427D03*
X44858408Y-65346427D03*
X115978408Y-60266427D03*
X118518408Y-72966427D03*
X95658408Y-70426427D03*
X115978408Y-47566427D03*
X113438408Y-80586427D03*
X73110000Y-46710000D03*
X70258408Y-34866427D03*
X100738408Y-80586427D03*
X105818408Y-45026427D03*
X55018408Y-93286427D03*
X109620000Y-77720000D03*
X85498408Y-47566427D03*
X113438408Y-47566427D03*
X100738408Y-34866427D03*
X72798408Y-37406427D03*
X82958408Y-45026427D03*
X115978408Y-62806427D03*
X113438408Y-50106427D03*
X84130000Y-62320000D03*
X72798408Y-34866427D03*
X44858408Y-42486427D03*
X112460000Y-59800000D03*
X112450000Y-61830000D03*
X113438408Y-34866427D03*
X100738408Y-42486427D03*
X80418408Y-42486427D03*
X95658408Y-34866427D03*
X103278408Y-52646427D03*
X49938408Y-98366427D03*
X112520000Y-67900000D03*
X60098408Y-34866427D03*
X80418408Y-55186427D03*
X76930000Y-47560000D03*
X93118408Y-75506427D03*
X98198408Y-34866427D03*
X80418408Y-39946427D03*
X67880000Y-71320000D03*
X44858408Y-39946427D03*
X115978408Y-50106427D03*
X95658408Y-39946427D03*
X55018408Y-32326427D03*
X110898408Y-34866427D03*
X44858408Y-88206427D03*
X85498408Y-42486427D03*
X98198408Y-42486427D03*
X49938408Y-24706427D03*
X75338408Y-75506427D03*
X118518408Y-80586427D03*
X108358408Y-39946427D03*
X95658408Y-75506427D03*
X100423001Y-59978000D03*
X57558408Y-62806427D03*
X105818408Y-39946427D03*
X62638408Y-39946427D03*
X82958408Y-39946427D03*
X118518408Y-70426427D03*
X77878408Y-80586427D03*
X108358408Y-50106427D03*
X115978408Y-55186427D03*
X93118408Y-45026427D03*
X109020000Y-67310000D03*
X79990000Y-59750000D03*
X77370000Y-62940000D03*
X44858408Y-45026427D03*
X90578408Y-39946427D03*
X112540000Y-71230000D03*
X75338408Y-34866427D03*
X108358408Y-80586427D03*
X75338408Y-37406427D03*
X65178408Y-34866427D03*
X118518408Y-67886427D03*
X98480000Y-62290000D03*
X118518408Y-75506427D03*
%TO.N,/DVDD3v3*%
X50910000Y-70260000D03*
X77960000Y-58980000D03*
X77210000Y-58970000D03*
X50880000Y-71630000D03*
X68070000Y-52940000D03*
X69930000Y-65820000D03*
X77570000Y-59650000D03*
X73890000Y-61210000D03*
%TO.N,/DVDD5*%
X91630000Y-50835000D03*
X74170000Y-42692500D03*
X76110000Y-42672500D03*
X75450000Y-46210000D03*
X91640000Y-51715000D03*
X91670000Y-54440000D03*
%TO.N,Net-(C3-Pad1)*%
X64980000Y-66310000D03*
%TO.N,/DVDD1v8*%
X79480000Y-46760000D03*
X66500000Y-49780000D03*
X78720000Y-46730000D03*
X68280000Y-59890000D03*
X62620000Y-59010000D03*
X61930000Y-56570000D03*
X79480000Y-46030000D03*
%TO.N,/SI_AOUT*%
X80040000Y-61560000D03*
X107160000Y-58150000D03*
%TO.N,/DVDD1v8RF*%
X106430000Y-60510000D03*
X109460000Y-60390000D03*
%TO.N,/SV_C*%
X78260000Y-69460000D03*
%TO.N,/SDA_F*%
X70500000Y-56510000D03*
X56210000Y-80150000D03*
X82760000Y-59230000D03*
%TO.N,/SCL_F*%
X70520000Y-55350000D03*
X55320000Y-82270000D03*
X82770000Y-60420000D03*
%TO.N,/ADV_CLKIN*%
X51560000Y-49480000D03*
X55540000Y-60150000D03*
X55110000Y-53100000D03*
%TO.N,/ADV_LLC*%
X67690000Y-44740000D03*
X68200000Y-49080000D03*
%TO.N,/I2S_BCK_o*%
X72434000Y-53610000D03*
%TO.N,/I2S_WS_o*%
X72454000Y-52660000D03*
%TO.N,/I2S_DATA_o*%
X72424000Y-54600000D03*
%TO.N,Net-(U2-ADDR)*%
X100670000Y-65780000D03*
X107440000Y-66520000D03*
%TO.N,/CVBS2*%
X73910000Y-67940000D03*
X80030000Y-63910000D03*
X108870000Y-59190000D03*
%TO.N,/DVDD3v3RF*%
X97680000Y-53400000D03*
X92430000Y-57910000D03*
%TO.N,Net-(U1-~PWRDWN)*%
X69530000Y-53190000D03*
X68859315Y-63839526D03*
%TO.N,Net-(U1-~RESET)*%
X69210000Y-57370000D03*
X68170000Y-64330000D03*
%TO.N,Net-(U2-RSTB)*%
X102270000Y-66330000D03*
X108380000Y-66490000D03*
%TO.N,Net-(Q1-B)*%
X100300000Y-56840000D03*
X102985000Y-56545000D03*
%TO.N,/SDA_RF*%
X110135330Y-63415330D03*
X92360000Y-59150000D03*
%TO.N,/SCL_RF*%
X93870000Y-59120000D03*
X110130000Y-64330000D03*
%TD*%
D31*
%TO.N,GND*%
X98480000Y-62290000D02*
X98480000Y-59587000D01*
X74594000Y-54280000D02*
X74594000Y-52900000D01*
D32*
X90910000Y-62370000D02*
X91930000Y-62370000D01*
D31*
X109620000Y-77720000D02*
X109270000Y-77720000D01*
X112460000Y-61820000D02*
X112450000Y-61830000D01*
X98480000Y-59587000D02*
X98487000Y-59580000D01*
D33*
X80670000Y-46840000D02*
X80670000Y-44210000D01*
D31*
X98480000Y-69380000D02*
X98470000Y-69390000D01*
X98480000Y-67760000D02*
X98480000Y-69380000D01*
X112540000Y-73090000D02*
X112520000Y-73110000D01*
X109650000Y-53360000D02*
X112480000Y-53360000D01*
X109240000Y-77750000D02*
X105470000Y-77750000D01*
D32*
X91930000Y-62370000D02*
X91960000Y-62400000D01*
D31*
X98470000Y-73050000D02*
X98460000Y-73060000D01*
X112520000Y-67900000D02*
X112520000Y-69680000D01*
X112540000Y-71230000D02*
X112540000Y-73090000D01*
X109270000Y-77720000D02*
X109240000Y-77750000D01*
X112500000Y-75150000D02*
X112500000Y-77700000D01*
X112470000Y-55560000D02*
X112470000Y-57580000D01*
D32*
X85100000Y-62320000D02*
X84130000Y-62320000D01*
D33*
X80140000Y-49450000D02*
X80160000Y-49430000D01*
X80140000Y-51860000D02*
X80140000Y-49450000D01*
D31*
X98470000Y-71120000D02*
X98470000Y-73050000D01*
X112460000Y-59800000D02*
X112460000Y-61820000D01*
X101110000Y-77750000D02*
X105470000Y-77750000D01*
D33*
X80120000Y-47390000D02*
X80670000Y-46840000D01*
D31*
X80020000Y-62930000D02*
X77380000Y-62930000D01*
X98460000Y-75270000D02*
X98460000Y-77730000D01*
X74594000Y-52900000D02*
X74564000Y-52870000D01*
X77380000Y-62930000D02*
X77370000Y-62940000D01*
%TO.N,/DVDD3v3*%
X50910000Y-71600000D02*
X50880000Y-71630000D01*
X50910000Y-70260000D02*
X50910000Y-71600000D01*
%TO.N,Net-(C3-Pad1)*%
X58080000Y-66310000D02*
X56220000Y-68170000D01*
X64980000Y-66310000D02*
X58080000Y-66310000D01*
X56220000Y-68170000D02*
X56220000Y-68940000D01*
%TO.N,/SV_C*%
X78390000Y-69810000D02*
X78390000Y-72390000D01*
X78260000Y-69680000D02*
X78390000Y-69810000D01*
X78260000Y-69460000D02*
X78260000Y-69680000D01*
D33*
%TO.N,/SDA_F*%
X70720000Y-78610000D02*
X68250000Y-81080000D01*
X57930000Y-80160000D02*
X56220000Y-80160000D01*
X70720000Y-78610000D02*
X71320000Y-78010000D01*
X82400000Y-59230000D02*
X82760000Y-59230000D01*
X70500000Y-56510000D02*
X69480000Y-55490000D01*
X69480000Y-54690000D02*
X69870000Y-54300000D01*
X69870000Y-54300000D02*
X70830000Y-54300000D01*
X80420000Y-57250000D02*
X82400000Y-59230000D01*
X68250000Y-81080000D02*
X58850000Y-81080000D01*
X58850000Y-81080000D02*
X57930000Y-80160000D01*
X71370000Y-77960000D02*
X70720000Y-78610000D01*
X71370000Y-64570000D02*
X71370000Y-77960000D01*
X73780000Y-57250000D02*
X80420000Y-57250000D01*
X71070000Y-64270000D02*
X71370000Y-64570000D01*
X69480000Y-55490000D02*
X69480000Y-54690000D01*
X71070000Y-57080000D02*
X71070000Y-64270000D01*
X56220000Y-80160000D02*
X56210000Y-80150000D01*
X70830000Y-54300000D02*
X73780000Y-57250000D01*
X70500000Y-56510000D02*
X71070000Y-57080000D01*
%TO.N,/SCL_F*%
X72600000Y-58330000D02*
X72600000Y-57400000D01*
X79876000Y-58326000D02*
X81970000Y-60420000D01*
X72604000Y-58326000D02*
X79876000Y-58326000D01*
X72990000Y-79130000D02*
X72990000Y-64100000D01*
X70550000Y-55350000D02*
X70520000Y-55350000D01*
X81970000Y-60420000D02*
X82770000Y-60420000D01*
X72600000Y-63710000D02*
X72600000Y-58330000D01*
X55320000Y-82270000D02*
X69850000Y-82270000D01*
X69850000Y-82270000D02*
X72990000Y-79130000D01*
X72600000Y-58330000D02*
X72604000Y-58326000D01*
X72990000Y-64100000D02*
X72600000Y-63710000D01*
X72600000Y-57400000D02*
X70550000Y-55350000D01*
%TO.N,/ADV_CLKIN*%
X48925790Y-27248710D02*
X50750000Y-29072920D01*
X50750000Y-29072920D02*
X50750000Y-48670000D01*
X50750000Y-48670000D02*
X51560000Y-49480000D01*
X55110000Y-53100000D02*
X55110000Y-59720000D01*
X55110000Y-59720000D02*
X55540000Y-60150000D01*
%TO.N,/ADV_LLC*%
X68200000Y-45250000D02*
X67690000Y-44740000D01*
X68200000Y-49080000D02*
X68200000Y-45250000D01*
%TO.N,/I2S_BCK_o*%
X72434000Y-53610000D02*
X70434000Y-51610000D01*
X70434000Y-51610000D02*
X70240000Y-51610000D01*
X53680000Y-51610000D02*
X70240000Y-51610000D01*
X50101290Y-55188710D02*
X53680000Y-51610000D01*
X48925790Y-55188710D02*
X50101290Y-55188710D01*
%TO.N,/I2S_WS_o*%
X52900000Y-50890000D02*
X49880000Y-53910000D01*
X70684000Y-50890000D02*
X70580000Y-50890000D01*
X47664500Y-53910000D02*
X46385790Y-55188710D01*
X70580000Y-50890000D02*
X52900000Y-50890000D01*
X72454000Y-52660000D02*
X70684000Y-50890000D01*
X72454000Y-52660000D02*
X72424000Y-52690000D01*
X49880000Y-53910000D02*
X47664500Y-53910000D01*
%TO.N,/I2S_DATA_o*%
X70020000Y-52290000D02*
X54510000Y-52290000D01*
X49071290Y-57728710D02*
X48925790Y-57728710D01*
X70114000Y-52290000D02*
X70020000Y-52290000D01*
X54510000Y-52290000D02*
X49071290Y-57728710D01*
X72424000Y-54600000D02*
X70114000Y-52290000D01*
D31*
%TO.N,/CVBS2*%
X76130000Y-66380000D02*
X74570000Y-67940000D01*
X80030000Y-63910000D02*
X79990000Y-63910000D01*
X79990000Y-63910000D02*
X77520000Y-66380000D01*
X77520000Y-66380000D02*
X76130000Y-66380000D01*
X74570000Y-67940000D02*
X73910000Y-67940000D01*
D33*
%TO.N,Net-(U1-~PWRDWN)*%
X68750000Y-61520000D02*
X68750000Y-63730211D01*
X68750000Y-63730211D02*
X68859315Y-63839526D01*
X69870000Y-56980000D02*
X69870000Y-60400000D01*
X69530000Y-53190000D02*
X68950000Y-53770000D01*
X68950000Y-53770000D02*
X68950000Y-56060000D01*
X69870000Y-60400000D02*
X68750000Y-61520000D01*
X68950000Y-56060000D02*
X69870000Y-56980000D01*
%TO.N,Net-(U1-~RESET)*%
X68170000Y-61000000D02*
X68170000Y-64330000D01*
X68210000Y-60960000D02*
X68170000Y-61000000D01*
X69210000Y-57370000D02*
X69210000Y-59960000D01*
X69210000Y-59960000D02*
X68210000Y-60960000D01*
%TD*%
%TA.AperFunction,Conductor*%
%TO.N,GND*%
G36*
X47356740Y-100562626D02*
G01*
X47449762Y-100701844D01*
X47568156Y-100820238D01*
X47707374Y-100913260D01*
X47713436Y-100915771D01*
X47045165Y-101584042D01*
X47045573Y-101590260D01*
X47030069Y-101659543D01*
X46979569Y-101709445D01*
X46919843Y-101724500D01*
X46651500Y-101724500D01*
X46642674Y-101721908D01*
X46633568Y-101723218D01*
X46609142Y-101712062D01*
X46583379Y-101704498D01*
X46577354Y-101697544D01*
X46568988Y-101693724D01*
X46554473Y-101671138D01*
X46536886Y-101650842D01*
X46534561Y-101640155D01*
X46530604Y-101633998D01*
X46525500Y-101598500D01*
X46525500Y-101348845D01*
X46545502Y-101280724D01*
X46599158Y-101234231D01*
X46659741Y-101223115D01*
X46685956Y-101224833D01*
X47354228Y-100556561D01*
X47356740Y-100562626D01*
G37*
%TD.AperFunction*%
%TA.AperFunction,Conductor*%
G36*
X52070586Y-13715502D02*
G01*
X52117079Y-13769158D01*
X52128195Y-13829741D01*
X52125165Y-13875956D01*
X52793437Y-14544228D01*
X52787374Y-14546740D01*
X52648156Y-14639762D01*
X52529762Y-14758156D01*
X52436740Y-14897374D01*
X52434228Y-14903437D01*
X51765956Y-14235165D01*
X51708472Y-14310080D01*
X51591945Y-14511911D01*
X51591940Y-14511921D01*
X51502746Y-14727254D01*
X51502745Y-14727258D01*
X51442420Y-14952391D01*
X51412000Y-15183461D01*
X51412000Y-15416538D01*
X51442420Y-15647608D01*
X51502745Y-15872741D01*
X51502746Y-15872745D01*
X51591940Y-16088078D01*
X51591945Y-16088088D01*
X51708472Y-16289919D01*
X51708477Y-16289926D01*
X51765956Y-16364833D01*
X52434228Y-15696561D01*
X52436740Y-15702626D01*
X52529762Y-15841844D01*
X52648156Y-15960238D01*
X52787374Y-16053260D01*
X52793436Y-16055771D01*
X52125165Y-16724042D01*
X52125165Y-16724043D01*
X52200074Y-16781522D01*
X52200080Y-16781527D01*
X52401911Y-16898054D01*
X52401921Y-16898059D01*
X52617254Y-16987253D01*
X52617258Y-16987254D01*
X52842391Y-17047579D01*
X53073461Y-17077999D01*
X53073471Y-17078000D01*
X53306529Y-17078000D01*
X53306538Y-17077999D01*
X53537608Y-17047579D01*
X53762741Y-16987254D01*
X53762745Y-16987253D01*
X53978078Y-16898059D01*
X53978089Y-16898054D01*
X54179920Y-16781527D01*
X54254833Y-16724042D01*
X53586562Y-16055771D01*
X53592626Y-16053260D01*
X53731844Y-15960238D01*
X53850238Y-15841844D01*
X53943260Y-15702626D01*
X53945771Y-15696562D01*
X54614042Y-16364833D01*
X54671527Y-16289920D01*
X54788054Y-16088089D01*
X54788059Y-16088078D01*
X54877253Y-15872745D01*
X54877254Y-15872741D01*
X54937579Y-15647608D01*
X54967999Y-15416538D01*
X54968000Y-15416529D01*
X54968000Y-15183471D01*
X54967999Y-15183461D01*
X54937579Y-14952391D01*
X54877254Y-14727258D01*
X54877253Y-14727254D01*
X54788059Y-14511921D01*
X54788054Y-14511911D01*
X54671527Y-14310080D01*
X54671522Y-14310074D01*
X54614042Y-14235165D01*
X53945771Y-14903436D01*
X53943260Y-14897374D01*
X53850238Y-14758156D01*
X53731844Y-14639762D01*
X53592626Y-14546740D01*
X53586562Y-14544228D01*
X54254833Y-13875956D01*
X54251805Y-13829740D01*
X54267309Y-13760457D01*
X54317810Y-13710555D01*
X54377535Y-13695500D01*
X57088500Y-13695500D01*
X57156621Y-13715502D01*
X57203114Y-13769158D01*
X57214500Y-13821500D01*
X57214500Y-32490563D01*
X57229436Y-32505499D01*
X57229438Y-32505500D01*
X86084000Y-32505500D01*
X86152121Y-32525502D01*
X86198614Y-32579158D01*
X86210000Y-32631500D01*
X86210000Y-50570000D01*
X86150000Y-50570000D01*
X86130000Y-55540000D01*
X86210000Y-55539799D01*
X86210000Y-71783117D01*
X86189998Y-71851238D01*
X86136342Y-71897731D01*
X86066068Y-71907835D01*
X86001488Y-71878341D01*
X85979235Y-71853119D01*
X85932460Y-71783117D01*
X85931408Y-71781542D01*
X85931405Y-71781539D01*
X85931403Y-71781536D01*
X85798463Y-71648596D01*
X85798457Y-71648591D01*
X85746583Y-71613930D01*
X85642125Y-71544133D01*
X85468417Y-71472181D01*
X85284012Y-71435500D01*
X85284010Y-71435500D01*
X85095990Y-71435500D01*
X85095987Y-71435500D01*
X84911582Y-71472181D01*
X84911577Y-71472183D01*
X84737875Y-71544133D01*
X84581542Y-71648591D01*
X84581536Y-71648596D01*
X84448596Y-71781536D01*
X84448591Y-71781542D01*
X84344133Y-71937875D01*
X84272183Y-72111577D01*
X84272181Y-72111582D01*
X84235500Y-72295987D01*
X84235500Y-72484012D01*
X84272181Y-72668417D01*
X84344133Y-72842125D01*
X84364432Y-72872504D01*
X84448591Y-72998457D01*
X84448596Y-72998463D01*
X84581536Y-73131403D01*
X84581542Y-73131408D01*
X84737875Y-73235867D01*
X84911583Y-73307819D01*
X85095990Y-73344500D01*
X85095991Y-73344500D01*
X85284009Y-73344500D01*
X85284010Y-73344500D01*
X85468417Y-73307819D01*
X85642125Y-73235867D01*
X85798458Y-73131408D01*
X85931408Y-72998458D01*
X85979235Y-72926879D01*
X86033712Y-72881352D01*
X86104155Y-72872504D01*
X86168199Y-72903145D01*
X86205510Y-72963547D01*
X86210000Y-72996882D01*
X86210000Y-73580202D01*
X86189998Y-73648323D01*
X86136342Y-73694816D01*
X86066068Y-73704920D01*
X86039969Y-73698258D01*
X86003095Y-73684505D01*
X86003096Y-73684505D01*
X85942597Y-73678000D01*
X85444000Y-73678000D01*
X85444000Y-74517031D01*
X85363694Y-74470667D01*
X85249244Y-74440000D01*
X85130756Y-74440000D01*
X85016306Y-74470667D01*
X84936000Y-74517031D01*
X84936000Y-73678000D01*
X84437402Y-73678000D01*
X84376906Y-73684505D01*
X84240035Y-73735555D01*
X84240034Y-73735555D01*
X84123095Y-73823095D01*
X84035555Y-73940034D01*
X84035555Y-73940035D01*
X83984505Y-74076906D01*
X83978000Y-74137402D01*
X83978000Y-74636000D01*
X84817032Y-74636000D01*
X84770667Y-74716306D01*
X84740000Y-74830756D01*
X84740000Y-74949244D01*
X84770667Y-75063694D01*
X84817032Y-75144000D01*
X83978000Y-75144000D01*
X83978000Y-75642597D01*
X83984505Y-75703093D01*
X84035555Y-75839964D01*
X84035555Y-75839965D01*
X84123095Y-75956904D01*
X84240034Y-76044444D01*
X84376906Y-76095494D01*
X84437402Y-76101999D01*
X84437415Y-76102000D01*
X84936000Y-76102000D01*
X84936000Y-75262968D01*
X85016306Y-75309333D01*
X85130756Y-75340000D01*
X85249244Y-75340000D01*
X85363694Y-75309333D01*
X85444000Y-75262968D01*
X85444000Y-76102000D01*
X85942585Y-76102000D01*
X85942597Y-76101999D01*
X86003096Y-76095494D01*
X86039967Y-76081742D01*
X86110783Y-76076676D01*
X86173095Y-76110701D01*
X86207120Y-76173013D01*
X86210000Y-76199797D01*
X86210000Y-83348500D01*
X86189998Y-83416621D01*
X86136342Y-83463114D01*
X86084000Y-83474500D01*
X57229436Y-83474500D01*
X57214500Y-83489436D01*
X57214500Y-101598500D01*
X57194498Y-101666621D01*
X57140842Y-101713114D01*
X57088500Y-101724500D01*
X54380156Y-101724500D01*
X54312035Y-101704498D01*
X54265542Y-101650842D01*
X54254426Y-101590260D01*
X54254833Y-101584042D01*
X53586562Y-100915771D01*
X53592626Y-100913260D01*
X53731844Y-100820238D01*
X53850238Y-100701844D01*
X53943260Y-100562626D01*
X53945771Y-100556562D01*
X54614042Y-101224833D01*
X54671527Y-101149920D01*
X54788054Y-100948089D01*
X54788059Y-100948078D01*
X54877253Y-100732745D01*
X54877254Y-100732741D01*
X54937579Y-100507608D01*
X54967999Y-100276538D01*
X54968000Y-100276529D01*
X54968000Y-100043471D01*
X54967999Y-100043461D01*
X54937579Y-99812391D01*
X54877254Y-99587258D01*
X54877253Y-99587254D01*
X54788059Y-99371921D01*
X54788054Y-99371911D01*
X54671527Y-99170080D01*
X54671522Y-99170074D01*
X54614042Y-99095165D01*
X53945771Y-99763436D01*
X53943260Y-99757374D01*
X53850238Y-99618156D01*
X53731844Y-99499762D01*
X53592626Y-99406740D01*
X53586562Y-99404228D01*
X54254833Y-98735956D01*
X54254833Y-98735955D01*
X54179926Y-98678477D01*
X54179919Y-98678472D01*
X53978088Y-98561945D01*
X53978078Y-98561940D01*
X53762745Y-98472746D01*
X53762741Y-98472745D01*
X53537608Y-98412420D01*
X53306538Y-98382000D01*
X53073461Y-98382000D01*
X52842391Y-98412420D01*
X52617258Y-98472745D01*
X52617254Y-98472746D01*
X52401921Y-98561940D01*
X52401911Y-98561945D01*
X52200080Y-98678472D01*
X52125165Y-98735956D01*
X52793437Y-99404228D01*
X52787374Y-99406740D01*
X52648156Y-99499762D01*
X52529762Y-99618156D01*
X52436740Y-99757374D01*
X52434228Y-99763437D01*
X51765956Y-99095165D01*
X51708472Y-99170080D01*
X51591945Y-99371911D01*
X51591940Y-99371921D01*
X51502746Y-99587254D01*
X51502745Y-99587258D01*
X51442420Y-99812391D01*
X51412000Y-100043461D01*
X51412000Y-100276538D01*
X51442420Y-100507608D01*
X51502745Y-100732741D01*
X51502746Y-100732745D01*
X51591940Y-100948078D01*
X51591945Y-100948088D01*
X51708472Y-101149919D01*
X51708477Y-101149926D01*
X51765956Y-101224833D01*
X52434228Y-100556561D01*
X52436740Y-100562626D01*
X52529762Y-100701844D01*
X52648156Y-100820238D01*
X52787374Y-100913260D01*
X52793436Y-100915771D01*
X52125165Y-101584042D01*
X52125573Y-101590260D01*
X52110069Y-101659543D01*
X52059569Y-101709445D01*
X51999843Y-101724500D01*
X49300156Y-101724500D01*
X49232035Y-101704498D01*
X49185542Y-101650842D01*
X49174426Y-101590260D01*
X49174833Y-101584042D01*
X48506562Y-100915771D01*
X48512626Y-100913260D01*
X48651844Y-100820238D01*
X48770238Y-100701844D01*
X48863260Y-100562626D01*
X48865771Y-100556562D01*
X49534042Y-101224833D01*
X49591527Y-101149920D01*
X49708054Y-100948089D01*
X49708059Y-100948078D01*
X49797253Y-100732745D01*
X49797254Y-100732741D01*
X49857579Y-100507608D01*
X49887999Y-100276538D01*
X49888000Y-100276529D01*
X49888000Y-100043471D01*
X49887999Y-100043461D01*
X49857579Y-99812391D01*
X49797254Y-99587258D01*
X49797253Y-99587254D01*
X49708059Y-99371921D01*
X49708054Y-99371911D01*
X49591527Y-99170080D01*
X49591522Y-99170074D01*
X49534042Y-99095165D01*
X48865771Y-99763436D01*
X48863260Y-99757374D01*
X48770238Y-99618156D01*
X48651844Y-99499762D01*
X48512626Y-99406740D01*
X48506562Y-99404228D01*
X49174833Y-98735956D01*
X49174833Y-98735955D01*
X49099926Y-98678477D01*
X49099919Y-98678472D01*
X48898088Y-98561945D01*
X48898078Y-98561940D01*
X48682745Y-98472746D01*
X48682741Y-98472745D01*
X48457608Y-98412420D01*
X48226538Y-98382000D01*
X47993461Y-98382000D01*
X47762391Y-98412420D01*
X47537258Y-98472745D01*
X47537254Y-98472746D01*
X47321921Y-98561940D01*
X47321911Y-98561945D01*
X47120080Y-98678472D01*
X47045165Y-98735956D01*
X47713437Y-99404228D01*
X47707374Y-99406740D01*
X47568156Y-99499762D01*
X47449762Y-99618156D01*
X47356740Y-99757374D01*
X47354228Y-99763437D01*
X46685956Y-99095165D01*
X46659741Y-99096884D01*
X46646749Y-99093976D01*
X46633568Y-99095872D01*
X46612767Y-99086372D01*
X46590458Y-99081380D01*
X46581099Y-99071909D01*
X46568988Y-99066378D01*
X46556627Y-99047144D01*
X46540555Y-99030880D01*
X46536928Y-99016493D01*
X46530604Y-99006652D01*
X46525500Y-98971154D01*
X46525500Y-95908845D01*
X46545502Y-95840724D01*
X46599158Y-95794231D01*
X46659741Y-95783115D01*
X46685956Y-95784833D01*
X47354228Y-95116561D01*
X47356740Y-95122626D01*
X47449762Y-95261844D01*
X47568156Y-95380238D01*
X47707374Y-95473260D01*
X47713436Y-95475771D01*
X47045165Y-96144042D01*
X47045165Y-96144043D01*
X47120074Y-96201522D01*
X47120080Y-96201527D01*
X47321911Y-96318054D01*
X47321921Y-96318059D01*
X47537254Y-96407253D01*
X47537258Y-96407254D01*
X47762391Y-96467579D01*
X47993461Y-96497999D01*
X47993471Y-96498000D01*
X48226529Y-96498000D01*
X48226538Y-96497999D01*
X48457608Y-96467579D01*
X48682741Y-96407254D01*
X48682745Y-96407253D01*
X48898078Y-96318059D01*
X48898089Y-96318054D01*
X49099920Y-96201527D01*
X49174833Y-96144042D01*
X48506562Y-95475771D01*
X48512626Y-95473260D01*
X48651844Y-95380238D01*
X48770238Y-95261844D01*
X48863260Y-95122626D01*
X48865771Y-95116562D01*
X49534042Y-95784833D01*
X49591527Y-95709920D01*
X49708054Y-95508089D01*
X49708059Y-95508078D01*
X49797253Y-95292745D01*
X49797254Y-95292741D01*
X49857579Y-95067608D01*
X49887999Y-94836538D01*
X49888000Y-94836529D01*
X49888000Y-94603471D01*
X49887999Y-94603461D01*
X51412000Y-94603461D01*
X51412000Y-94836538D01*
X51442420Y-95067608D01*
X51502745Y-95292741D01*
X51502746Y-95292745D01*
X51591940Y-95508078D01*
X51591945Y-95508088D01*
X51708472Y-95709919D01*
X51708477Y-95709926D01*
X51765956Y-95784833D01*
X52434228Y-95116561D01*
X52436740Y-95122626D01*
X52529762Y-95261844D01*
X52648156Y-95380238D01*
X52787374Y-95473260D01*
X52793436Y-95475771D01*
X52125165Y-96144042D01*
X52125165Y-96144043D01*
X52200074Y-96201522D01*
X52200080Y-96201527D01*
X52401911Y-96318054D01*
X52401921Y-96318059D01*
X52617254Y-96407253D01*
X52617258Y-96407254D01*
X52842391Y-96467579D01*
X53073461Y-96497999D01*
X53073471Y-96498000D01*
X53306529Y-96498000D01*
X53306538Y-96497999D01*
X53537608Y-96467579D01*
X53762741Y-96407254D01*
X53762745Y-96407253D01*
X53978078Y-96318059D01*
X53978089Y-96318054D01*
X54179920Y-96201527D01*
X54254833Y-96144042D01*
X53586562Y-95475771D01*
X53592626Y-95473260D01*
X53731844Y-95380238D01*
X53850238Y-95261844D01*
X53943260Y-95122626D01*
X53945771Y-95116562D01*
X54614042Y-95784833D01*
X54671527Y-95709920D01*
X54788054Y-95508089D01*
X54788059Y-95508078D01*
X54877253Y-95292745D01*
X54877254Y-95292741D01*
X54937579Y-95067608D01*
X54967999Y-94836538D01*
X54968000Y-94836529D01*
X54968000Y-94603471D01*
X54967999Y-94603461D01*
X54937579Y-94372391D01*
X54877254Y-94147258D01*
X54877253Y-94147254D01*
X54788059Y-93931921D01*
X54788054Y-93931911D01*
X54671527Y-93730080D01*
X54671522Y-93730074D01*
X54614042Y-93655165D01*
X53945771Y-94323436D01*
X53943260Y-94317374D01*
X53850238Y-94178156D01*
X53731844Y-94059762D01*
X53592626Y-93966740D01*
X53586562Y-93964228D01*
X54254833Y-93295956D01*
X54254833Y-93295955D01*
X54179926Y-93238477D01*
X54179919Y-93238472D01*
X53978088Y-93121945D01*
X53978078Y-93121940D01*
X53762745Y-93032746D01*
X53762741Y-93032745D01*
X53537608Y-92972420D01*
X53306538Y-92942000D01*
X53073461Y-92942000D01*
X52842391Y-92972420D01*
X52617258Y-93032745D01*
X52617254Y-93032746D01*
X52401921Y-93121940D01*
X52401911Y-93121945D01*
X52200080Y-93238472D01*
X52125165Y-93295956D01*
X52793437Y-93964228D01*
X52787374Y-93966740D01*
X52648156Y-94059762D01*
X52529762Y-94178156D01*
X52436740Y-94317374D01*
X52434228Y-94323437D01*
X51765956Y-93655165D01*
X51708472Y-93730080D01*
X51591945Y-93931911D01*
X51591940Y-93931921D01*
X51502746Y-94147254D01*
X51502745Y-94147258D01*
X51442420Y-94372391D01*
X51412000Y-94603461D01*
X49887999Y-94603461D01*
X49857579Y-94372391D01*
X49797254Y-94147258D01*
X49797253Y-94147254D01*
X49708059Y-93931921D01*
X49708054Y-93931911D01*
X49591527Y-93730080D01*
X49591522Y-93730074D01*
X49534042Y-93655165D01*
X48865771Y-94323436D01*
X48863260Y-94317374D01*
X48770238Y-94178156D01*
X48651844Y-94059762D01*
X48512626Y-93966740D01*
X48506562Y-93964228D01*
X49174833Y-93295956D01*
X49174833Y-93295955D01*
X49099926Y-93238477D01*
X49099919Y-93238472D01*
X48898088Y-93121945D01*
X48898078Y-93121940D01*
X48682745Y-93032746D01*
X48682741Y-93032745D01*
X48457608Y-92972420D01*
X48226538Y-92942000D01*
X47993461Y-92942000D01*
X47762391Y-92972420D01*
X47537258Y-93032745D01*
X47537254Y-93032746D01*
X47321921Y-93121940D01*
X47321911Y-93121945D01*
X47120080Y-93238472D01*
X47045165Y-93295956D01*
X47713437Y-93964228D01*
X47707374Y-93966740D01*
X47568156Y-94059762D01*
X47449762Y-94178156D01*
X47356740Y-94317374D01*
X47354228Y-94323437D01*
X46685956Y-93655165D01*
X46659741Y-93656884D01*
X46646749Y-93653976D01*
X46633568Y-93655872D01*
X46612767Y-93646372D01*
X46590458Y-93641380D01*
X46581099Y-93631909D01*
X46568988Y-93626378D01*
X46556627Y-93607144D01*
X46540555Y-93590880D01*
X46536928Y-93576493D01*
X46530604Y-93566652D01*
X46525500Y-93531154D01*
X46525500Y-91489438D01*
X46525499Y-91489436D01*
X46510563Y-91474500D01*
X46510562Y-91474500D01*
X43651500Y-91474500D01*
X43583379Y-91454498D01*
X43536886Y-91400842D01*
X43525500Y-91348500D01*
X43525500Y-88122099D01*
X45285290Y-88122099D01*
X45285290Y-88295321D01*
X45312388Y-88466411D01*
X45365917Y-88631155D01*
X45365918Y-88631158D01*
X45365920Y-88631162D01*
X45444558Y-88785498D01*
X45546377Y-88925640D01*
X45668859Y-89048122D01*
X45668862Y-89048124D01*
X45809002Y-89149942D01*
X45963345Y-89228583D01*
X46128089Y-89282112D01*
X46299179Y-89309210D01*
X46299182Y-89309210D01*
X46472398Y-89309210D01*
X46472401Y-89309210D01*
X46643491Y-89282112D01*
X46808235Y-89228583D01*
X46962578Y-89149942D01*
X47102718Y-89048124D01*
X47225204Y-88925638D01*
X47327022Y-88785498D01*
X47405663Y-88631155D01*
X47459192Y-88466411D01*
X47486290Y-88295321D01*
X47486290Y-88122099D01*
X47825290Y-88122099D01*
X47825290Y-88295321D01*
X47852388Y-88466411D01*
X47905917Y-88631155D01*
X47905918Y-88631158D01*
X47905920Y-88631162D01*
X47984558Y-88785498D01*
X48086377Y-88925640D01*
X48208859Y-89048122D01*
X48208862Y-89048124D01*
X48349002Y-89149942D01*
X48503345Y-89228583D01*
X48668089Y-89282112D01*
X48839179Y-89309210D01*
X48839182Y-89309210D01*
X49012398Y-89309210D01*
X49012401Y-89309210D01*
X49183491Y-89282112D01*
X49348235Y-89228583D01*
X49502578Y-89149942D01*
X49642718Y-89048124D01*
X49765204Y-88925638D01*
X49867022Y-88785498D01*
X49945663Y-88631155D01*
X49999192Y-88466411D01*
X50026290Y-88295321D01*
X50026290Y-88122099D01*
X49999192Y-87951009D01*
X49945663Y-87786265D01*
X49867022Y-87631922D01*
X49765204Y-87491782D01*
X49765202Y-87491779D01*
X49642720Y-87369297D01*
X49502578Y-87267478D01*
X49348242Y-87188840D01*
X49348238Y-87188838D01*
X49348235Y-87188837D01*
X49183491Y-87135308D01*
X49012401Y-87108210D01*
X48839179Y-87108210D01*
X48668089Y-87135308D01*
X48668086Y-87135308D01*
X48668085Y-87135309D01*
X48589043Y-87160991D01*
X48503345Y-87188837D01*
X48503343Y-87188837D01*
X48503337Y-87188840D01*
X48349001Y-87267478D01*
X48208859Y-87369297D01*
X48086377Y-87491779D01*
X47984558Y-87631921D01*
X47905920Y-87786257D01*
X47905917Y-87786263D01*
X47905917Y-87786265D01*
X47852388Y-87951009D01*
X47825290Y-88122099D01*
X47486290Y-88122099D01*
X47459192Y-87951009D01*
X47405663Y-87786265D01*
X47327022Y-87631922D01*
X47225204Y-87491782D01*
X47225202Y-87491779D01*
X47102720Y-87369297D01*
X46962578Y-87267478D01*
X46808242Y-87188840D01*
X46808238Y-87188838D01*
X46808235Y-87188837D01*
X46643491Y-87135308D01*
X46472401Y-87108210D01*
X46299179Y-87108210D01*
X46128089Y-87135308D01*
X46128086Y-87135308D01*
X46128085Y-87135309D01*
X46049043Y-87160991D01*
X45963345Y-87188837D01*
X45963343Y-87188837D01*
X45963337Y-87188840D01*
X45809001Y-87267478D01*
X45668859Y-87369297D01*
X45546377Y-87491779D01*
X45444558Y-87631921D01*
X45365920Y-87786257D01*
X45365917Y-87786263D01*
X45365917Y-87786265D01*
X45312388Y-87951009D01*
X45285290Y-88122099D01*
X43525500Y-88122099D01*
X43525500Y-85582099D01*
X45285290Y-85582099D01*
X45285290Y-85755321D01*
X45312388Y-85926411D01*
X45365917Y-86091155D01*
X45365918Y-86091158D01*
X45365920Y-86091162D01*
X45444558Y-86245498D01*
X45546377Y-86385640D01*
X45668859Y-86508122D01*
X45668862Y-86508124D01*
X45809002Y-86609942D01*
X45963345Y-86688583D01*
X46128089Y-86742112D01*
X46299179Y-86769210D01*
X46299182Y-86769210D01*
X46472398Y-86769210D01*
X46472401Y-86769210D01*
X46643491Y-86742112D01*
X46808235Y-86688583D01*
X46962578Y-86609942D01*
X47102718Y-86508124D01*
X47225204Y-86385638D01*
X47327022Y-86245498D01*
X47405663Y-86091155D01*
X47459192Y-85926411D01*
X47486290Y-85755321D01*
X47486290Y-85582099D01*
X47825290Y-85582099D01*
X47825290Y-85755321D01*
X47852388Y-85926411D01*
X47905917Y-86091155D01*
X47905918Y-86091158D01*
X47905920Y-86091162D01*
X47984558Y-86245498D01*
X48086377Y-86385640D01*
X48208859Y-86508122D01*
X48208862Y-86508124D01*
X48349002Y-86609942D01*
X48503345Y-86688583D01*
X48668089Y-86742112D01*
X48839179Y-86769210D01*
X48839182Y-86769210D01*
X49012398Y-86769210D01*
X49012401Y-86769210D01*
X49183491Y-86742112D01*
X49348235Y-86688583D01*
X49502578Y-86609942D01*
X49642718Y-86508124D01*
X49765204Y-86385638D01*
X49770238Y-86378709D01*
X51449500Y-86378709D01*
X51449500Y-86621290D01*
X51481160Y-86861782D01*
X51543944Y-87096095D01*
X51543945Y-87096097D01*
X51543946Y-87096100D01*
X51636776Y-87320212D01*
X51636777Y-87320213D01*
X51636782Y-87320224D01*
X51758061Y-87530285D01*
X51758063Y-87530288D01*
X51758064Y-87530289D01*
X51905735Y-87722738D01*
X51905739Y-87722742D01*
X51905744Y-87722748D01*
X52077251Y-87894255D01*
X52077256Y-87894259D01*
X52077262Y-87894265D01*
X52269711Y-88041936D01*
X52269714Y-88041938D01*
X52479775Y-88163217D01*
X52479779Y-88163218D01*
X52479788Y-88163224D01*
X52703900Y-88256054D01*
X52938211Y-88318838D01*
X52938215Y-88318838D01*
X52938217Y-88318839D01*
X53000202Y-88326999D01*
X53178712Y-88350500D01*
X53178719Y-88350500D01*
X53421281Y-88350500D01*
X53421288Y-88350500D01*
X53638637Y-88321885D01*
X53661782Y-88318839D01*
X53661782Y-88318838D01*
X53661789Y-88318838D01*
X53896100Y-88256054D01*
X54120212Y-88163224D01*
X54330289Y-88041936D01*
X54522738Y-87894265D01*
X54694265Y-87722738D01*
X54841936Y-87530289D01*
X54963224Y-87320212D01*
X55056054Y-87096100D01*
X55118838Y-86861789D01*
X55150500Y-86621288D01*
X55150500Y-86378712D01*
X55118838Y-86138211D01*
X55056054Y-85903900D01*
X54963224Y-85679788D01*
X54963218Y-85679779D01*
X54963217Y-85679775D01*
X54841938Y-85469714D01*
X54796889Y-85411005D01*
X54694265Y-85277262D01*
X54694259Y-85277256D01*
X54694255Y-85277251D01*
X54522748Y-85105744D01*
X54522742Y-85105739D01*
X54522738Y-85105735D01*
X54330289Y-84958064D01*
X54330288Y-84958063D01*
X54330285Y-84958061D01*
X54120224Y-84836782D01*
X54120216Y-84836778D01*
X54120212Y-84836776D01*
X53896100Y-84743946D01*
X53896097Y-84743945D01*
X53896095Y-84743944D01*
X53661782Y-84681160D01*
X53421290Y-84649500D01*
X53421288Y-84649500D01*
X53178712Y-84649500D01*
X53178709Y-84649500D01*
X52938217Y-84681160D01*
X52703904Y-84743944D01*
X52703900Y-84743946D01*
X52497847Y-84829296D01*
X52479786Y-84836777D01*
X52479775Y-84836782D01*
X52269714Y-84958061D01*
X52077262Y-85105735D01*
X52077251Y-85105744D01*
X51905744Y-85277251D01*
X51905735Y-85277262D01*
X51758061Y-85469714D01*
X51636782Y-85679775D01*
X51636777Y-85679786D01*
X51543946Y-85903900D01*
X51543944Y-85903904D01*
X51481160Y-86138217D01*
X51449500Y-86378709D01*
X49770238Y-86378709D01*
X49867022Y-86245498D01*
X49945663Y-86091155D01*
X49999192Y-85926411D01*
X50026290Y-85755321D01*
X50026290Y-85582099D01*
X49999192Y-85411009D01*
X49945663Y-85246265D01*
X49867022Y-85091922D01*
X49765204Y-84951782D01*
X49765202Y-84951779D01*
X49642720Y-84829297D01*
X49502578Y-84727478D01*
X49348242Y-84648840D01*
X49348238Y-84648838D01*
X49348235Y-84648837D01*
X49183491Y-84595308D01*
X49012401Y-84568210D01*
X48839179Y-84568210D01*
X48668089Y-84595308D01*
X48668086Y-84595308D01*
X48668085Y-84595309D01*
X48589043Y-84620991D01*
X48503345Y-84648837D01*
X48503343Y-84648837D01*
X48503337Y-84648840D01*
X48349001Y-84727478D01*
X48208859Y-84829297D01*
X48086377Y-84951779D01*
X47984558Y-85091921D01*
X47905920Y-85246257D01*
X47905917Y-85246263D01*
X47905917Y-85246265D01*
X47852388Y-85411009D01*
X47825290Y-85582099D01*
X47486290Y-85582099D01*
X47459192Y-85411009D01*
X47405663Y-85246265D01*
X47327022Y-85091922D01*
X47225204Y-84951782D01*
X47225202Y-84951779D01*
X47102720Y-84829297D01*
X46962578Y-84727478D01*
X46808242Y-84648840D01*
X46808238Y-84648838D01*
X46808235Y-84648837D01*
X46643491Y-84595308D01*
X46472401Y-84568210D01*
X46299179Y-84568210D01*
X46128089Y-84595308D01*
X46128086Y-84595308D01*
X46128085Y-84595309D01*
X46049043Y-84620991D01*
X45963345Y-84648837D01*
X45963343Y-84648837D01*
X45963337Y-84648840D01*
X45809001Y-84727478D01*
X45668859Y-84829297D01*
X45546377Y-84951779D01*
X45444558Y-85091921D01*
X45365920Y-85246257D01*
X45365917Y-85246263D01*
X45365917Y-85246265D01*
X45312388Y-85411009D01*
X45285290Y-85582099D01*
X43525500Y-85582099D01*
X43525500Y-83042099D01*
X45285290Y-83042099D01*
X45285290Y-83215321D01*
X45312388Y-83386411D01*
X45365917Y-83551155D01*
X45365918Y-83551158D01*
X45365920Y-83551162D01*
X45444558Y-83705498D01*
X45546377Y-83845640D01*
X45668859Y-83968122D01*
X45668862Y-83968124D01*
X45809002Y-84069942D01*
X45963345Y-84148583D01*
X46128089Y-84202112D01*
X46299179Y-84229210D01*
X46299182Y-84229210D01*
X46472398Y-84229210D01*
X46472401Y-84229210D01*
X46643491Y-84202112D01*
X46808235Y-84148583D01*
X46962578Y-84069942D01*
X47102718Y-83968124D01*
X47225204Y-83845638D01*
X47327022Y-83705498D01*
X47405663Y-83551155D01*
X47459192Y-83386411D01*
X47486290Y-83215321D01*
X47486290Y-83042099D01*
X47825290Y-83042099D01*
X47825290Y-83215321D01*
X47852388Y-83386411D01*
X47905917Y-83551155D01*
X47905918Y-83551158D01*
X47905920Y-83551162D01*
X47984558Y-83705498D01*
X48086377Y-83845640D01*
X48208859Y-83968122D01*
X48208862Y-83968124D01*
X48349002Y-84069942D01*
X48503345Y-84148583D01*
X48668089Y-84202112D01*
X48839179Y-84229210D01*
X48839182Y-84229210D01*
X49012398Y-84229210D01*
X49012401Y-84229210D01*
X49183491Y-84202112D01*
X49348235Y-84148583D01*
X49502578Y-84069942D01*
X49642718Y-83968124D01*
X49765204Y-83845638D01*
X49867022Y-83705498D01*
X49945663Y-83551155D01*
X49999192Y-83386411D01*
X50026290Y-83215321D01*
X50026290Y-83042099D01*
X49999192Y-82871009D01*
X49945663Y-82706265D01*
X49867022Y-82551922D01*
X49765204Y-82411782D01*
X49765202Y-82411779D01*
X49642720Y-82289297D01*
X49502578Y-82187478D01*
X49348242Y-82108840D01*
X49348238Y-82108838D01*
X49348235Y-82108837D01*
X49183491Y-82055308D01*
X49012401Y-82028210D01*
X48839179Y-82028210D01*
X48668089Y-82055308D01*
X48668086Y-82055308D01*
X48668085Y-82055309D01*
X48589043Y-82080991D01*
X48503345Y-82108837D01*
X48503343Y-82108837D01*
X48503337Y-82108840D01*
X48349001Y-82187478D01*
X48208859Y-82289297D01*
X48086377Y-82411779D01*
X47984558Y-82551921D01*
X47905920Y-82706257D01*
X47905917Y-82706263D01*
X47905917Y-82706265D01*
X47852388Y-82871009D01*
X47825290Y-83042099D01*
X47486290Y-83042099D01*
X47459192Y-82871009D01*
X47405663Y-82706265D01*
X47327022Y-82551922D01*
X47225204Y-82411782D01*
X47225202Y-82411779D01*
X47102720Y-82289297D01*
X46962578Y-82187478D01*
X46808242Y-82108840D01*
X46808238Y-82108838D01*
X46808235Y-82108837D01*
X46643491Y-82055308D01*
X46472401Y-82028210D01*
X46299179Y-82028210D01*
X46128089Y-82055308D01*
X46128086Y-82055308D01*
X46128085Y-82055309D01*
X46049043Y-82080991D01*
X45963345Y-82108837D01*
X45963343Y-82108837D01*
X45963337Y-82108840D01*
X45809001Y-82187478D01*
X45668859Y-82289297D01*
X45546377Y-82411779D01*
X45444558Y-82551921D01*
X45365920Y-82706257D01*
X45365917Y-82706263D01*
X45365917Y-82706265D01*
X45312388Y-82871009D01*
X45285290Y-83042099D01*
X43525500Y-83042099D01*
X43525500Y-80502099D01*
X45285290Y-80502099D01*
X45285290Y-80675321D01*
X45312388Y-80846411D01*
X45365917Y-81011155D01*
X45365918Y-81011158D01*
X45365920Y-81011162D01*
X45444558Y-81165498D01*
X45546377Y-81305640D01*
X45668859Y-81428122D01*
X45668862Y-81428124D01*
X45809002Y-81529942D01*
X45963345Y-81608583D01*
X46128089Y-81662112D01*
X46299179Y-81689210D01*
X46299182Y-81689210D01*
X46472398Y-81689210D01*
X46472401Y-81689210D01*
X46643491Y-81662112D01*
X46808235Y-81608583D01*
X46962578Y-81529942D01*
X47102718Y-81428124D01*
X47225204Y-81305638D01*
X47327022Y-81165498D01*
X47405663Y-81011155D01*
X47459192Y-80846411D01*
X47486290Y-80675321D01*
X47486290Y-80502099D01*
X47825290Y-80502099D01*
X47825290Y-80675321D01*
X47852388Y-80846411D01*
X47905917Y-81011155D01*
X47905918Y-81011158D01*
X47905920Y-81011162D01*
X47984558Y-81165498D01*
X48086377Y-81305640D01*
X48208859Y-81428122D01*
X48208862Y-81428124D01*
X48349002Y-81529942D01*
X48503345Y-81608583D01*
X48668089Y-81662112D01*
X48839179Y-81689210D01*
X48839182Y-81689210D01*
X49012398Y-81689210D01*
X49012401Y-81689210D01*
X49183491Y-81662112D01*
X49348235Y-81608583D01*
X49502578Y-81529942D01*
X49642718Y-81428124D01*
X49765204Y-81305638D01*
X49867022Y-81165498D01*
X49945663Y-81011155D01*
X49999192Y-80846411D01*
X50026290Y-80675321D01*
X50026290Y-80502099D01*
X49999192Y-80331009D01*
X49945663Y-80166265D01*
X49867022Y-80011922D01*
X49765204Y-79871782D01*
X49765202Y-79871779D01*
X49642720Y-79749297D01*
X49502578Y-79647478D01*
X49348242Y-79568840D01*
X49348238Y-79568838D01*
X49348235Y-79568837D01*
X49183491Y-79515308D01*
X49012401Y-79488210D01*
X48839179Y-79488210D01*
X48668089Y-79515308D01*
X48668086Y-79515308D01*
X48668085Y-79515309D01*
X48589043Y-79540991D01*
X48503345Y-79568837D01*
X48503343Y-79568837D01*
X48503337Y-79568840D01*
X48349001Y-79647478D01*
X48208859Y-79749297D01*
X48086377Y-79871779D01*
X47984558Y-80011921D01*
X47905920Y-80166257D01*
X47905917Y-80166263D01*
X47905917Y-80166265D01*
X47852388Y-80331009D01*
X47825290Y-80502099D01*
X47486290Y-80502099D01*
X47459192Y-80331009D01*
X47405663Y-80166265D01*
X47327022Y-80011922D01*
X47225204Y-79871782D01*
X47225202Y-79871779D01*
X47102720Y-79749297D01*
X46962578Y-79647478D01*
X46808242Y-79568840D01*
X46808238Y-79568838D01*
X46808235Y-79568837D01*
X46643491Y-79515308D01*
X46472401Y-79488210D01*
X46299179Y-79488210D01*
X46128089Y-79515308D01*
X46128086Y-79515308D01*
X46128085Y-79515309D01*
X46049043Y-79540991D01*
X45963345Y-79568837D01*
X45963343Y-79568837D01*
X45963337Y-79568840D01*
X45809001Y-79647478D01*
X45668859Y-79749297D01*
X45546377Y-79871779D01*
X45444558Y-80011921D01*
X45365920Y-80166257D01*
X45365917Y-80166263D01*
X45365917Y-80166265D01*
X45312388Y-80331009D01*
X45285290Y-80502099D01*
X43525500Y-80502099D01*
X43525500Y-77962099D01*
X45285290Y-77962099D01*
X45285290Y-78135321D01*
X45312388Y-78306411D01*
X45365917Y-78471155D01*
X45365918Y-78471158D01*
X45365920Y-78471162D01*
X45444558Y-78625498D01*
X45546377Y-78765640D01*
X45668859Y-78888122D01*
X45691959Y-78904905D01*
X45809002Y-78989942D01*
X45963345Y-79068583D01*
X46128089Y-79122112D01*
X46299179Y-79149210D01*
X46299182Y-79149210D01*
X46472398Y-79149210D01*
X46472401Y-79149210D01*
X46643491Y-79122112D01*
X46808235Y-79068583D01*
X46962578Y-78989942D01*
X47102718Y-78888124D01*
X47225204Y-78765638D01*
X47327022Y-78625498D01*
X47405663Y-78471155D01*
X47459192Y-78306411D01*
X47486290Y-78135321D01*
X47486290Y-77962099D01*
X47825290Y-77962099D01*
X47825290Y-78135321D01*
X47852388Y-78306411D01*
X47905917Y-78471155D01*
X47905918Y-78471158D01*
X47905920Y-78471162D01*
X47984558Y-78625498D01*
X48086377Y-78765640D01*
X48208859Y-78888122D01*
X48231959Y-78904905D01*
X48349002Y-78989942D01*
X48503345Y-79068583D01*
X48668089Y-79122112D01*
X48839179Y-79149210D01*
X48839182Y-79149210D01*
X49012398Y-79149210D01*
X49012401Y-79149210D01*
X49183491Y-79122112D01*
X49348235Y-79068583D01*
X49502578Y-78989942D01*
X49642718Y-78888124D01*
X49765204Y-78765638D01*
X49867022Y-78625498D01*
X49945663Y-78471155D01*
X49999192Y-78306411D01*
X50026290Y-78135321D01*
X50026290Y-77962099D01*
X49999192Y-77791009D01*
X49945663Y-77626265D01*
X49867022Y-77471922D01*
X49778078Y-77349501D01*
X49765205Y-77331783D01*
X49765199Y-77331776D01*
X49642720Y-77209297D01*
X49502578Y-77107478D01*
X49348242Y-77028840D01*
X49348238Y-77028838D01*
X49348235Y-77028837D01*
X49183491Y-76975308D01*
X49012401Y-76948210D01*
X48839179Y-76948210D01*
X48668089Y-76975308D01*
X48668086Y-76975308D01*
X48668085Y-76975309D01*
X48589043Y-77000991D01*
X48503345Y-77028837D01*
X48503343Y-77028837D01*
X48503337Y-77028840D01*
X48349001Y-77107478D01*
X48208859Y-77209297D01*
X48086377Y-77331779D01*
X47984558Y-77471921D01*
X47905920Y-77626257D01*
X47905917Y-77626263D01*
X47905917Y-77626265D01*
X47878071Y-77711963D01*
X47861610Y-77762628D01*
X47852388Y-77791009D01*
X47825290Y-77962099D01*
X47486290Y-77962099D01*
X47459192Y-77791009D01*
X47405663Y-77626265D01*
X47327022Y-77471922D01*
X47238078Y-77349501D01*
X47225202Y-77331779D01*
X47102720Y-77209297D01*
X46962578Y-77107478D01*
X46808242Y-77028840D01*
X46808238Y-77028838D01*
X46808235Y-77028837D01*
X46643491Y-76975308D01*
X46472401Y-76948210D01*
X46299179Y-76948210D01*
X46128089Y-76975308D01*
X46128086Y-76975308D01*
X46128085Y-76975309D01*
X46049043Y-77000991D01*
X45963345Y-77028837D01*
X45963343Y-77028837D01*
X45963337Y-77028840D01*
X45809001Y-77107478D01*
X45668859Y-77209297D01*
X45546377Y-77331779D01*
X45444558Y-77471921D01*
X45365920Y-77626257D01*
X45365917Y-77626263D01*
X45365917Y-77626265D01*
X45338071Y-77711963D01*
X45321610Y-77762628D01*
X45312388Y-77791009D01*
X45285290Y-77962099D01*
X43525500Y-77962099D01*
X43525500Y-75422099D01*
X45285290Y-75422099D01*
X45285290Y-75595321D01*
X45312388Y-75766411D01*
X45365917Y-75931155D01*
X45365918Y-75931158D01*
X45365920Y-75931162D01*
X45444558Y-76085498D01*
X45546377Y-76225640D01*
X45668859Y-76348122D01*
X45668862Y-76348124D01*
X45809002Y-76449942D01*
X45963345Y-76528583D01*
X46128089Y-76582112D01*
X46299179Y-76609210D01*
X46299182Y-76609210D01*
X46472398Y-76609210D01*
X46472401Y-76609210D01*
X46643491Y-76582112D01*
X46808235Y-76528583D01*
X46962578Y-76449942D01*
X47102718Y-76348124D01*
X47225204Y-76225638D01*
X47327022Y-76085498D01*
X47405663Y-75931155D01*
X47459192Y-75766411D01*
X47486290Y-75595321D01*
X47486290Y-75422099D01*
X47825290Y-75422099D01*
X47825290Y-75595321D01*
X47852388Y-75766411D01*
X47905917Y-75931155D01*
X47905918Y-75931158D01*
X47905920Y-75931162D01*
X47984558Y-76085498D01*
X48086377Y-76225640D01*
X48208859Y-76348122D01*
X48208862Y-76348124D01*
X48349002Y-76449942D01*
X48503345Y-76528583D01*
X48668089Y-76582112D01*
X48839179Y-76609210D01*
X48839182Y-76609210D01*
X49012398Y-76609210D01*
X49012401Y-76609210D01*
X49183491Y-76582112D01*
X49348235Y-76528583D01*
X49502578Y-76449942D01*
X49642718Y-76348124D01*
X49765204Y-76225638D01*
X49867022Y-76085498D01*
X49873326Y-76073126D01*
X53307000Y-76073126D01*
X53307000Y-76286873D01*
X53340440Y-76498003D01*
X53406490Y-76701286D01*
X53406493Y-76701292D01*
X53503535Y-76891748D01*
X53503536Y-76891750D01*
X53541620Y-76944167D01*
X53541621Y-76944168D01*
X54180841Y-76304947D01*
X54199075Y-76372993D01*
X54264901Y-76487007D01*
X54357993Y-76580099D01*
X54472007Y-76645925D01*
X54540051Y-76664157D01*
X53900831Y-77303378D01*
X53953249Y-77341463D01*
X53953251Y-77341464D01*
X54143707Y-77438506D01*
X54143713Y-77438509D01*
X54346996Y-77504559D01*
X54558126Y-77538000D01*
X54771874Y-77538000D01*
X54983003Y-77504559D01*
X55186286Y-77438509D01*
X55186292Y-77438506D01*
X55376750Y-77341463D01*
X55429167Y-77303378D01*
X55429167Y-77303376D01*
X54789948Y-76664157D01*
X54857993Y-76645925D01*
X54972007Y-76580099D01*
X55065099Y-76487007D01*
X55130925Y-76372993D01*
X55149157Y-76304948D01*
X55788376Y-76944167D01*
X55788378Y-76944167D01*
X55826465Y-76891748D01*
X55866233Y-76813699D01*
X55914981Y-76762083D01*
X55983896Y-76745017D01*
X56051097Y-76767917D01*
X56095250Y-76823515D01*
X56104500Y-76870901D01*
X56104500Y-77054677D01*
X56119033Y-77127739D01*
X56119034Y-77127740D01*
X56174399Y-77210601D01*
X56257260Y-77265966D01*
X56330326Y-77280500D01*
X58079674Y-77280500D01*
X58152740Y-77265966D01*
X58235601Y-77210601D01*
X58290966Y-77127740D01*
X58305500Y-77054674D01*
X58305500Y-75305326D01*
X58290966Y-75232260D01*
X58235601Y-75149399D01*
X58152740Y-75094034D01*
X58152739Y-75094033D01*
X58079677Y-75079500D01*
X58079674Y-75079500D01*
X56330326Y-75079500D01*
X56330322Y-75079500D01*
X56257260Y-75094033D01*
X56174399Y-75149399D01*
X56119033Y-75232260D01*
X56104500Y-75305322D01*
X56104500Y-75489098D01*
X56084498Y-75557219D01*
X56030842Y-75603712D01*
X55960568Y-75613816D01*
X55895988Y-75584322D01*
X55866233Y-75546301D01*
X55826464Y-75468251D01*
X55826463Y-75468249D01*
X55788378Y-75415831D01*
X55149157Y-76055051D01*
X55130925Y-75987007D01*
X55065099Y-75872993D01*
X54972007Y-75779901D01*
X54857993Y-75714075D01*
X54789947Y-75695841D01*
X55429168Y-75056621D01*
X55429167Y-75056620D01*
X55376750Y-75018536D01*
X55376748Y-75018535D01*
X55186292Y-74921493D01*
X55186286Y-74921490D01*
X54983003Y-74855440D01*
X54815766Y-74828952D01*
X54771874Y-74822000D01*
X54558126Y-74822000D01*
X54346996Y-74855440D01*
X54143713Y-74921490D01*
X54143707Y-74921493D01*
X53953253Y-75018534D01*
X53900831Y-75056621D01*
X53900831Y-75056622D01*
X54540051Y-75695842D01*
X54472007Y-75714075D01*
X54357993Y-75779901D01*
X54264901Y-75872993D01*
X54199075Y-75987007D01*
X54180842Y-76055051D01*
X53541622Y-75415831D01*
X53541621Y-75415831D01*
X53503534Y-75468253D01*
X53406493Y-75658707D01*
X53406490Y-75658713D01*
X53340440Y-75861996D01*
X53307000Y-76073126D01*
X49873326Y-76073126D01*
X49945663Y-75931155D01*
X49999192Y-75766411D01*
X50026290Y-75595321D01*
X50026290Y-75422099D01*
X49999192Y-75251009D01*
X49945663Y-75086265D01*
X49867022Y-74931922D01*
X49765204Y-74791782D01*
X49765202Y-74791779D01*
X49682877Y-74709454D01*
X60737000Y-74709454D01*
X60737000Y-76690546D01*
X60765329Y-76869409D01*
X60765330Y-76869412D01*
X60809353Y-77004905D01*
X60821289Y-77041639D01*
X60865160Y-77127740D01*
X60903506Y-77202997D01*
X60908083Y-77209297D01*
X61009947Y-77349501D01*
X61009949Y-77349503D01*
X61009951Y-77349506D01*
X61137993Y-77477548D01*
X61137996Y-77477550D01*
X61137999Y-77477553D01*
X61284506Y-77583996D01*
X61445861Y-77666211D01*
X61618091Y-77722171D01*
X61796954Y-77750500D01*
X61796957Y-77750500D01*
X61978043Y-77750500D01*
X61978046Y-77750500D01*
X62156909Y-77722171D01*
X62329139Y-77666211D01*
X62490494Y-77583996D01*
X62637001Y-77477553D01*
X62765053Y-77349501D01*
X62871496Y-77202994D01*
X62953711Y-77041639D01*
X63009671Y-76869409D01*
X63038000Y-76690546D01*
X63038000Y-74709454D01*
X68237000Y-74709454D01*
X68237000Y-76690546D01*
X68265329Y-76869409D01*
X68265330Y-76869412D01*
X68309353Y-77004905D01*
X68321289Y-77041639D01*
X68365160Y-77127740D01*
X68403506Y-77202997D01*
X68408083Y-77209297D01*
X68509947Y-77349501D01*
X68509949Y-77349503D01*
X68509951Y-77349506D01*
X68637993Y-77477548D01*
X68637996Y-77477550D01*
X68637999Y-77477553D01*
X68784506Y-77583996D01*
X68945861Y-77666211D01*
X69118091Y-77722171D01*
X69296954Y-77750500D01*
X69296957Y-77750500D01*
X69478043Y-77750500D01*
X69478046Y-77750500D01*
X69656909Y-77722171D01*
X69829139Y-77666211D01*
X69990494Y-77583996D01*
X70137001Y-77477553D01*
X70265053Y-77349501D01*
X70371496Y-77202994D01*
X70453711Y-77041639D01*
X70509671Y-76869409D01*
X70538000Y-76690546D01*
X70538000Y-74709454D01*
X70509671Y-74530591D01*
X70453711Y-74358361D01*
X70371496Y-74197006D01*
X70265053Y-74050499D01*
X70265050Y-74050496D01*
X70265048Y-74050493D01*
X70137006Y-73922451D01*
X70137003Y-73922449D01*
X70137001Y-73922447D01*
X69990494Y-73816004D01*
X69829139Y-73733789D01*
X69829136Y-73733788D01*
X69829134Y-73733787D01*
X69656912Y-73677830D01*
X69656909Y-73677829D01*
X69478046Y-73649500D01*
X69296954Y-73649500D01*
X69118091Y-73677829D01*
X69118088Y-73677829D01*
X69118087Y-73677830D01*
X68945865Y-73733787D01*
X68945859Y-73733790D01*
X68784502Y-73816006D01*
X68637996Y-73922449D01*
X68637993Y-73922451D01*
X68509951Y-74050493D01*
X68509949Y-74050496D01*
X68403506Y-74197002D01*
X68321290Y-74358359D01*
X68321287Y-74358365D01*
X68296287Y-74435309D01*
X68265329Y-74530591D01*
X68237000Y-74709454D01*
X63038000Y-74709454D01*
X63009671Y-74530591D01*
X62953711Y-74358361D01*
X62871496Y-74197006D01*
X62765053Y-74050499D01*
X62765050Y-74050496D01*
X62765048Y-74050493D01*
X62637006Y-73922451D01*
X62637003Y-73922449D01*
X62637001Y-73922447D01*
X62490494Y-73816004D01*
X62329139Y-73733789D01*
X62329136Y-73733788D01*
X62329134Y-73733787D01*
X62156912Y-73677830D01*
X62156909Y-73677829D01*
X61978046Y-73649500D01*
X61796954Y-73649500D01*
X61618091Y-73677829D01*
X61618088Y-73677829D01*
X61618087Y-73677830D01*
X61445865Y-73733787D01*
X61445859Y-73733790D01*
X61284502Y-73816006D01*
X61137996Y-73922449D01*
X61137993Y-73922451D01*
X61009951Y-74050493D01*
X61009949Y-74050496D01*
X60903506Y-74197002D01*
X60821290Y-74358359D01*
X60821287Y-74358365D01*
X60796287Y-74435309D01*
X60765329Y-74530591D01*
X60737000Y-74709454D01*
X49682877Y-74709454D01*
X49642720Y-74669297D01*
X49502578Y-74567478D01*
X49348242Y-74488840D01*
X49348238Y-74488838D01*
X49348235Y-74488837D01*
X49183491Y-74435308D01*
X49012401Y-74408210D01*
X48839179Y-74408210D01*
X48668089Y-74435308D01*
X48668086Y-74435308D01*
X48668085Y-74435309D01*
X48589043Y-74460991D01*
X48503345Y-74488837D01*
X48503343Y-74488837D01*
X48503337Y-74488840D01*
X48349001Y-74567478D01*
X48208859Y-74669297D01*
X48086377Y-74791779D01*
X47984558Y-74931921D01*
X47905920Y-75086257D01*
X47905917Y-75086266D01*
X47852687Y-75250090D01*
X47852388Y-75251009D01*
X47825290Y-75422099D01*
X47486290Y-75422099D01*
X47459192Y-75251009D01*
X47405663Y-75086265D01*
X47327022Y-74931922D01*
X47225204Y-74791782D01*
X47225202Y-74791779D01*
X47102720Y-74669297D01*
X46962578Y-74567478D01*
X46808242Y-74488840D01*
X46808238Y-74488838D01*
X46808235Y-74488837D01*
X46643491Y-74435308D01*
X46472401Y-74408210D01*
X46299179Y-74408210D01*
X46128089Y-74435308D01*
X46128086Y-74435308D01*
X46128085Y-74435309D01*
X46049043Y-74460991D01*
X45963345Y-74488837D01*
X45963343Y-74488837D01*
X45963337Y-74488840D01*
X45809001Y-74567478D01*
X45668859Y-74669297D01*
X45546377Y-74791779D01*
X45444558Y-74931921D01*
X45365920Y-75086257D01*
X45365917Y-75086266D01*
X45312687Y-75250090D01*
X45312388Y-75251009D01*
X45285290Y-75422099D01*
X43525500Y-75422099D01*
X43525500Y-72882099D01*
X45285290Y-72882099D01*
X45285290Y-73055321D01*
X45312388Y-73226411D01*
X45365917Y-73391155D01*
X45365918Y-73391158D01*
X45365920Y-73391162D01*
X45444558Y-73545498D01*
X45546377Y-73685640D01*
X45668859Y-73808122D01*
X45689468Y-73823095D01*
X45809002Y-73909942D01*
X45963345Y-73988583D01*
X46128089Y-74042112D01*
X46299179Y-74069210D01*
X46299182Y-74069210D01*
X46472398Y-74069210D01*
X46472401Y-74069210D01*
X46643491Y-74042112D01*
X46808235Y-73988583D01*
X46962578Y-73909942D01*
X47102718Y-73808124D01*
X47225204Y-73685638D01*
X47327022Y-73545498D01*
X47405663Y-73391155D01*
X47459192Y-73226411D01*
X47486290Y-73055321D01*
X47486290Y-72882099D01*
X47825290Y-72882099D01*
X47825290Y-73055321D01*
X47852388Y-73226411D01*
X47905917Y-73391155D01*
X47905918Y-73391158D01*
X47905920Y-73391162D01*
X47984558Y-73545498D01*
X48086377Y-73685640D01*
X48208859Y-73808122D01*
X48229468Y-73823095D01*
X48349002Y-73909942D01*
X48503345Y-73988583D01*
X48668089Y-74042112D01*
X48839179Y-74069210D01*
X48839182Y-74069210D01*
X49012398Y-74069210D01*
X49012401Y-74069210D01*
X49183491Y-74042112D01*
X49348235Y-73988583D01*
X49502578Y-73909942D01*
X49642718Y-73808124D01*
X49765204Y-73685638D01*
X49867022Y-73545498D01*
X49945663Y-73391155D01*
X49999192Y-73226411D01*
X50026290Y-73055321D01*
X50026290Y-72882099D01*
X49999192Y-72711009D01*
X49945663Y-72546265D01*
X49867022Y-72391922D01*
X49768252Y-72255977D01*
X49765202Y-72251779D01*
X49642720Y-72129297D01*
X49502578Y-72027478D01*
X49348242Y-71948840D01*
X49348238Y-71948838D01*
X49348235Y-71948837D01*
X49183491Y-71895308D01*
X49012401Y-71868210D01*
X48839179Y-71868210D01*
X48668089Y-71895308D01*
X48668086Y-71895308D01*
X48668085Y-71895309D01*
X48629535Y-71907835D01*
X48503345Y-71948837D01*
X48503343Y-71948837D01*
X48503337Y-71948840D01*
X48349001Y-72027478D01*
X48208859Y-72129297D01*
X48086377Y-72251779D01*
X47984558Y-72391921D01*
X47905920Y-72546257D01*
X47905917Y-72546263D01*
X47905917Y-72546265D01*
X47852388Y-72711009D01*
X47825290Y-72882099D01*
X47486290Y-72882099D01*
X47459192Y-72711009D01*
X47405663Y-72546265D01*
X47327022Y-72391922D01*
X47228252Y-72255977D01*
X47225202Y-72251779D01*
X47102720Y-72129297D01*
X46962578Y-72027478D01*
X46808242Y-71948840D01*
X46808238Y-71948838D01*
X46808235Y-71948837D01*
X46643491Y-71895308D01*
X46472401Y-71868210D01*
X46299179Y-71868210D01*
X46128089Y-71895308D01*
X46128086Y-71895308D01*
X46128085Y-71895309D01*
X46089535Y-71907835D01*
X45963345Y-71948837D01*
X45963343Y-71948837D01*
X45963337Y-71948840D01*
X45809001Y-72027478D01*
X45668859Y-72129297D01*
X45546377Y-72251779D01*
X45444558Y-72391921D01*
X45365920Y-72546257D01*
X45365917Y-72546263D01*
X45365917Y-72546265D01*
X45312388Y-72711009D01*
X45285290Y-72882099D01*
X43525500Y-72882099D01*
X43525500Y-71708134D01*
X50286499Y-71708134D01*
X50326945Y-71859079D01*
X50326948Y-71859086D01*
X50405079Y-71994413D01*
X50405087Y-71994423D01*
X50515576Y-72104912D01*
X50515581Y-72104916D01*
X50515583Y-72104918D01*
X50515584Y-72104919D01*
X50515586Y-72104920D01*
X50610711Y-72159840D01*
X50650918Y-72183054D01*
X50801864Y-72223500D01*
X50801866Y-72223500D01*
X50958134Y-72223500D01*
X50958136Y-72223500D01*
X51109082Y-72183054D01*
X51244417Y-72104918D01*
X51354918Y-71994417D01*
X51433054Y-71859082D01*
X51473500Y-71708136D01*
X51473500Y-71551864D01*
X51433054Y-71400918D01*
X51395881Y-71336532D01*
X55169500Y-71336532D01*
X55169500Y-71543467D01*
X55190411Y-71648591D01*
X55209870Y-71746420D01*
X55289059Y-71937598D01*
X55404023Y-72109655D01*
X55404024Y-72109656D01*
X55404029Y-72109662D01*
X55550337Y-72255970D01*
X55550343Y-72255975D01*
X55550345Y-72255977D01*
X55722402Y-72370941D01*
X55913580Y-72450130D01*
X56116535Y-72490500D01*
X56116536Y-72490500D01*
X56323464Y-72490500D01*
X56323465Y-72490500D01*
X56526420Y-72450130D01*
X56717598Y-72370941D01*
X56889655Y-72255977D01*
X57035977Y-72109655D01*
X57150941Y-71937598D01*
X57230130Y-71746420D01*
X57270500Y-71543465D01*
X57270500Y-71336535D01*
X57230130Y-71133580D01*
X57150941Y-70942402D01*
X57035977Y-70770345D01*
X57035975Y-70770343D01*
X57035970Y-70770337D01*
X56889662Y-70624029D01*
X56889656Y-70624024D01*
X56889655Y-70624023D01*
X56717598Y-70509059D01*
X56526420Y-70429870D01*
X56323467Y-70389500D01*
X56323465Y-70389500D01*
X56116535Y-70389500D01*
X56116532Y-70389500D01*
X55913579Y-70429870D01*
X55913574Y-70429872D01*
X55722402Y-70509059D01*
X55550343Y-70624024D01*
X55550337Y-70624029D01*
X55404029Y-70770337D01*
X55404024Y-70770343D01*
X55289059Y-70942402D01*
X55209872Y-71133574D01*
X55209870Y-71133579D01*
X55169500Y-71336532D01*
X51395881Y-71336532D01*
X51354918Y-71265583D01*
X51313923Y-71224588D01*
X51307195Y-71214660D01*
X51299876Y-71191811D01*
X51288379Y-71170757D01*
X51285978Y-71148425D01*
X51285537Y-71147047D01*
X51285746Y-71146264D01*
X51285500Y-71143974D01*
X51285500Y-70776025D01*
X51305502Y-70707904D01*
X51322400Y-70686934D01*
X51384918Y-70624417D01*
X51463054Y-70489082D01*
X51503500Y-70338136D01*
X51503500Y-70181864D01*
X51463054Y-70030918D01*
X51384918Y-69895583D01*
X51384916Y-69895581D01*
X51384912Y-69895576D01*
X51274423Y-69785087D01*
X51274413Y-69785079D01*
X51139086Y-69706948D01*
X51139083Y-69706947D01*
X51139082Y-69706946D01*
X51139080Y-69706945D01*
X51139079Y-69706945D01*
X51098633Y-69696107D01*
X50988136Y-69666500D01*
X50831864Y-69666500D01*
X50750974Y-69688174D01*
X50680920Y-69706945D01*
X50680913Y-69706948D01*
X50545586Y-69785079D01*
X50545576Y-69785087D01*
X50435087Y-69895576D01*
X50435079Y-69895586D01*
X50356948Y-70030913D01*
X50356945Y-70030920D01*
X50316500Y-70181865D01*
X50316500Y-70338134D01*
X50316499Y-70338134D01*
X50356945Y-70489079D01*
X50356948Y-70489086D01*
X50435079Y-70624413D01*
X50435081Y-70624416D01*
X50435082Y-70624417D01*
X50497596Y-70686931D01*
X50531620Y-70749241D01*
X50534500Y-70776025D01*
X50534500Y-71083974D01*
X50514498Y-71152095D01*
X50497595Y-71173069D01*
X50405087Y-71265576D01*
X50405079Y-71265586D01*
X50326948Y-71400913D01*
X50326945Y-71400920D01*
X50301382Y-71496323D01*
X50288925Y-71542816D01*
X50286500Y-71551865D01*
X50286500Y-71708134D01*
X50286499Y-71708134D01*
X43525500Y-71708134D01*
X43525500Y-70342099D01*
X47825290Y-70342099D01*
X47825290Y-70515321D01*
X47852388Y-70686411D01*
X47905917Y-70851155D01*
X47905918Y-70851158D01*
X47905920Y-70851162D01*
X47984558Y-71005498D01*
X48086377Y-71145640D01*
X48208859Y-71268122D01*
X48208862Y-71268124D01*
X48349002Y-71369942D01*
X48503345Y-71448583D01*
X48668089Y-71502112D01*
X48839179Y-71529210D01*
X48839182Y-71529210D01*
X49012398Y-71529210D01*
X49012401Y-71529210D01*
X49183491Y-71502112D01*
X49348235Y-71448583D01*
X49502578Y-71369942D01*
X49642718Y-71268124D01*
X49765204Y-71145638D01*
X49867022Y-71005498D01*
X49945663Y-70851155D01*
X49999192Y-70686411D01*
X50026290Y-70515321D01*
X50026290Y-70342099D01*
X49999192Y-70171009D01*
X49945663Y-70006265D01*
X49867022Y-69851922D01*
X49765204Y-69711782D01*
X49765202Y-69711779D01*
X49642720Y-69589297D01*
X49502578Y-69487478D01*
X49348242Y-69408840D01*
X49348238Y-69408838D01*
X49348235Y-69408837D01*
X49183491Y-69355308D01*
X49012401Y-69328210D01*
X48839179Y-69328210D01*
X48668089Y-69355308D01*
X48668086Y-69355308D01*
X48668085Y-69355309D01*
X48589043Y-69380991D01*
X48503345Y-69408837D01*
X48503343Y-69408837D01*
X48503337Y-69408840D01*
X48349001Y-69487478D01*
X48208859Y-69589297D01*
X48086377Y-69711779D01*
X47984558Y-69851921D01*
X47905920Y-70006257D01*
X47905917Y-70006263D01*
X47905917Y-70006265D01*
X47852388Y-70171009D01*
X47825290Y-70342099D01*
X43525500Y-70342099D01*
X43525500Y-67802099D01*
X45285290Y-67802099D01*
X45285290Y-67975321D01*
X45312388Y-68146411D01*
X45365917Y-68311155D01*
X45365918Y-68311158D01*
X45365920Y-68311162D01*
X45444558Y-68465498D01*
X45546377Y-68605640D01*
X45668859Y-68728122D01*
X45668862Y-68728124D01*
X45809002Y-68829942D01*
X45963345Y-68908583D01*
X46128089Y-68962112D01*
X46299179Y-68989210D01*
X46299182Y-68989210D01*
X46472398Y-68989210D01*
X46472401Y-68989210D01*
X46643491Y-68962112D01*
X46808235Y-68908583D01*
X46962578Y-68829942D01*
X47102718Y-68728124D01*
X47225204Y-68605638D01*
X47327022Y-68465498D01*
X47405663Y-68311155D01*
X47459192Y-68146411D01*
X47486290Y-67975321D01*
X47486290Y-67802099D01*
X47825290Y-67802099D01*
X47825290Y-67975321D01*
X47852388Y-68146411D01*
X47905917Y-68311155D01*
X47905918Y-68311158D01*
X47905920Y-68311162D01*
X47984558Y-68465498D01*
X48086377Y-68605640D01*
X48208859Y-68728122D01*
X48208862Y-68728124D01*
X48349002Y-68829942D01*
X48503345Y-68908583D01*
X48668089Y-68962112D01*
X48839179Y-68989210D01*
X48839182Y-68989210D01*
X49012398Y-68989210D01*
X49012401Y-68989210D01*
X49183491Y-68962112D01*
X49348235Y-68908583D01*
X49502578Y-68829942D01*
X49642718Y-68728124D01*
X49765204Y-68605638D01*
X49867022Y-68465498D01*
X49945663Y-68311155D01*
X49999192Y-68146411D01*
X50004116Y-68115322D01*
X55169500Y-68115322D01*
X55169500Y-69764677D01*
X55184033Y-69837739D01*
X55184034Y-69837740D01*
X55239399Y-69920601D01*
X55322260Y-69975966D01*
X55395326Y-69990500D01*
X57044674Y-69990500D01*
X57117740Y-69975966D01*
X57200601Y-69920601D01*
X57255966Y-69837740D01*
X57270500Y-69764674D01*
X57270500Y-68115326D01*
X57255966Y-68042260D01*
X57200601Y-67959399D01*
X57200599Y-67959398D01*
X57200599Y-67959397D01*
X57185008Y-67948979D01*
X57139481Y-67894502D01*
X57130634Y-67824058D01*
X57161276Y-67760015D01*
X57165897Y-67755139D01*
X58198632Y-66722405D01*
X58260944Y-66688379D01*
X58287727Y-66685500D01*
X64463975Y-66685500D01*
X64532096Y-66705502D01*
X64553065Y-66722400D01*
X64615583Y-66784918D01*
X64615584Y-66784919D01*
X64615586Y-66784920D01*
X64710711Y-66839840D01*
X64750918Y-66863054D01*
X64901864Y-66903500D01*
X64901866Y-66903500D01*
X65058134Y-66903500D01*
X65058136Y-66903500D01*
X65209082Y-66863054D01*
X65344417Y-66784918D01*
X65454918Y-66674417D01*
X65533054Y-66539082D01*
X65573500Y-66388136D01*
X65573500Y-66231864D01*
X65533054Y-66080918D01*
X65509840Y-66040711D01*
X65454920Y-65945586D01*
X65454912Y-65945576D01*
X65407470Y-65898134D01*
X69336499Y-65898134D01*
X69376945Y-66049079D01*
X69376948Y-66049086D01*
X69455079Y-66184413D01*
X69455087Y-66184423D01*
X69565576Y-66294912D01*
X69565581Y-66294916D01*
X69565583Y-66294918D01*
X69700918Y-66373054D01*
X69851864Y-66413500D01*
X69851866Y-66413500D01*
X70008134Y-66413500D01*
X70008136Y-66413500D01*
X70159082Y-66373054D01*
X70294417Y-66294918D01*
X70404918Y-66184417D01*
X70483054Y-66049082D01*
X70523500Y-65898136D01*
X70523500Y-65741864D01*
X70483054Y-65590918D01*
X70404918Y-65455583D01*
X70404916Y-65455581D01*
X70404912Y-65455576D01*
X70294423Y-65345087D01*
X70294413Y-65345079D01*
X70159086Y-65266948D01*
X70159083Y-65266947D01*
X70159082Y-65266946D01*
X70159080Y-65266945D01*
X70159079Y-65266945D01*
X70118633Y-65256107D01*
X70008136Y-65226500D01*
X69851864Y-65226500D01*
X69770974Y-65248174D01*
X69700920Y-65266945D01*
X69700913Y-65266948D01*
X69565586Y-65345079D01*
X69565576Y-65345087D01*
X69455087Y-65455576D01*
X69455079Y-65455586D01*
X69376948Y-65590913D01*
X69376945Y-65590920D01*
X69336500Y-65741865D01*
X69336500Y-65898134D01*
X69336499Y-65898134D01*
X65407470Y-65898134D01*
X65344421Y-65835085D01*
X65344415Y-65835080D01*
X65209086Y-65756948D01*
X65209083Y-65756947D01*
X65209082Y-65756946D01*
X65209080Y-65756945D01*
X65209079Y-65756945D01*
X65152795Y-65741864D01*
X65058136Y-65716500D01*
X64901864Y-65716500D01*
X64820974Y-65738174D01*
X64750920Y-65756945D01*
X64750913Y-65756948D01*
X64615586Y-65835079D01*
X64615581Y-65835083D01*
X64584326Y-65866339D01*
X64553068Y-65897596D01*
X64490759Y-65931620D01*
X64463975Y-65934500D01*
X58129436Y-65934500D01*
X58030564Y-65934500D01*
X57989204Y-65945582D01*
X57935069Y-65960087D01*
X57935057Y-65960092D01*
X57849441Y-66009522D01*
X56006368Y-67852595D01*
X55944056Y-67886621D01*
X55917273Y-67889500D01*
X55395322Y-67889500D01*
X55322260Y-67904033D01*
X55239399Y-67959399D01*
X55184033Y-68042260D01*
X55169500Y-68115322D01*
X50004116Y-68115322D01*
X50026290Y-67975321D01*
X50026290Y-67802099D01*
X49999192Y-67631009D01*
X49945663Y-67466265D01*
X49867022Y-67311922D01*
X49765204Y-67171782D01*
X49765202Y-67171779D01*
X49642720Y-67049297D01*
X49502578Y-66947478D01*
X49348242Y-66868840D01*
X49348238Y-66868838D01*
X49348235Y-66868837D01*
X49183491Y-66815308D01*
X49012401Y-66788210D01*
X48839179Y-66788210D01*
X48668089Y-66815308D01*
X48668086Y-66815308D01*
X48668085Y-66815309D01*
X48589043Y-66840991D01*
X48503345Y-66868837D01*
X48503343Y-66868837D01*
X48503337Y-66868840D01*
X48349001Y-66947478D01*
X48208859Y-67049297D01*
X48086377Y-67171779D01*
X47984558Y-67311921D01*
X47905920Y-67466257D01*
X47905917Y-67466263D01*
X47905917Y-67466265D01*
X47852388Y-67631009D01*
X47825290Y-67802099D01*
X47486290Y-67802099D01*
X47459192Y-67631009D01*
X47405663Y-67466265D01*
X47327022Y-67311922D01*
X47225204Y-67171782D01*
X47225202Y-67171779D01*
X47102720Y-67049297D01*
X46962578Y-66947478D01*
X46808242Y-66868840D01*
X46808238Y-66868838D01*
X46808235Y-66868837D01*
X46643491Y-66815308D01*
X46472401Y-66788210D01*
X46299179Y-66788210D01*
X46128089Y-66815308D01*
X46128086Y-66815308D01*
X46128085Y-66815309D01*
X46049043Y-66840991D01*
X45963345Y-66868837D01*
X45963343Y-66868837D01*
X45963337Y-66868840D01*
X45809001Y-66947478D01*
X45668859Y-67049297D01*
X45546377Y-67171779D01*
X45444558Y-67311921D01*
X45365920Y-67466257D01*
X45365917Y-67466263D01*
X45365917Y-67466265D01*
X45312388Y-67631009D01*
X45285290Y-67802099D01*
X43525500Y-67802099D01*
X43525500Y-65262099D01*
X45285290Y-65262099D01*
X45285290Y-65435321D01*
X45312388Y-65606411D01*
X45365917Y-65771155D01*
X45365918Y-65771158D01*
X45365920Y-65771162D01*
X45444558Y-65925498D01*
X45546377Y-66065640D01*
X45668859Y-66188122D01*
X45668862Y-66188124D01*
X45809002Y-66289942D01*
X45963345Y-66368583D01*
X46128089Y-66422112D01*
X46299179Y-66449210D01*
X46299182Y-66449210D01*
X46472398Y-66449210D01*
X46472401Y-66449210D01*
X46643491Y-66422112D01*
X46808235Y-66368583D01*
X46962578Y-66289942D01*
X47102718Y-66188124D01*
X47225204Y-66065638D01*
X47327022Y-65925498D01*
X47405663Y-65771155D01*
X47459192Y-65606411D01*
X47486290Y-65435321D01*
X47486290Y-65262099D01*
X47825290Y-65262099D01*
X47825290Y-65435321D01*
X47852388Y-65606411D01*
X47905917Y-65771155D01*
X47905918Y-65771158D01*
X47905920Y-65771162D01*
X47984558Y-65925498D01*
X48086377Y-66065640D01*
X48208859Y-66188122D01*
X48208862Y-66188124D01*
X48349002Y-66289942D01*
X48503345Y-66368583D01*
X48668089Y-66422112D01*
X48839179Y-66449210D01*
X48839182Y-66449210D01*
X49012398Y-66449210D01*
X49012401Y-66449210D01*
X49183491Y-66422112D01*
X49348235Y-66368583D01*
X49502578Y-66289942D01*
X49642718Y-66188124D01*
X49765204Y-66065638D01*
X49867022Y-65925498D01*
X49945663Y-65771155D01*
X49999192Y-65606411D01*
X50026290Y-65435321D01*
X50026290Y-65262099D01*
X49999192Y-65091009D01*
X49945663Y-64926265D01*
X49867022Y-64771922D01*
X49765204Y-64631782D01*
X49765202Y-64631779D01*
X49642720Y-64509297D01*
X49502578Y-64407478D01*
X49348242Y-64328840D01*
X49348238Y-64328838D01*
X49348235Y-64328837D01*
X49183491Y-64275308D01*
X49012401Y-64248210D01*
X48839179Y-64248210D01*
X48668089Y-64275308D01*
X48668086Y-64275308D01*
X48668085Y-64275309D01*
X48589043Y-64300991D01*
X48503345Y-64328837D01*
X48503343Y-64328837D01*
X48503337Y-64328840D01*
X48349001Y-64407478D01*
X48208859Y-64509297D01*
X48086377Y-64631779D01*
X47984558Y-64771921D01*
X47905920Y-64926257D01*
X47905917Y-64926263D01*
X47905917Y-64926265D01*
X47852388Y-65091009D01*
X47825290Y-65262099D01*
X47486290Y-65262099D01*
X47459192Y-65091009D01*
X47405663Y-64926265D01*
X47327022Y-64771922D01*
X47225204Y-64631782D01*
X47225202Y-64631779D01*
X47102720Y-64509297D01*
X46962578Y-64407478D01*
X46808242Y-64328840D01*
X46808238Y-64328838D01*
X46808235Y-64328837D01*
X46643491Y-64275308D01*
X46472401Y-64248210D01*
X46299179Y-64248210D01*
X46128089Y-64275308D01*
X46128086Y-64275308D01*
X46128085Y-64275309D01*
X46049043Y-64300991D01*
X45963345Y-64328837D01*
X45963343Y-64328837D01*
X45963337Y-64328840D01*
X45809001Y-64407478D01*
X45668859Y-64509297D01*
X45546377Y-64631779D01*
X45444558Y-64771921D01*
X45365920Y-64926257D01*
X45365917Y-64926263D01*
X45365917Y-64926265D01*
X45312388Y-65091009D01*
X45285290Y-65262099D01*
X43525500Y-65262099D01*
X43525500Y-62722099D01*
X45285290Y-62722099D01*
X45285290Y-62895321D01*
X45312388Y-63066411D01*
X45365917Y-63231155D01*
X45365918Y-63231158D01*
X45365920Y-63231162D01*
X45444558Y-63385498D01*
X45546377Y-63525640D01*
X45668859Y-63648122D01*
X45668862Y-63648124D01*
X45809002Y-63749942D01*
X45963345Y-63828583D01*
X46128089Y-63882112D01*
X46299179Y-63909210D01*
X46299182Y-63909210D01*
X46472398Y-63909210D01*
X46472401Y-63909210D01*
X46643491Y-63882112D01*
X46808235Y-63828583D01*
X46962578Y-63749942D01*
X47102718Y-63648124D01*
X47225204Y-63525638D01*
X47327022Y-63385498D01*
X47405663Y-63231155D01*
X47459192Y-63066411D01*
X47486290Y-62895321D01*
X47486290Y-62722099D01*
X47825290Y-62722099D01*
X47825290Y-62895321D01*
X47852388Y-63066411D01*
X47905917Y-63231155D01*
X47905918Y-63231158D01*
X47905920Y-63231162D01*
X47984558Y-63385498D01*
X48086377Y-63525640D01*
X48208859Y-63648122D01*
X48208862Y-63648124D01*
X48349002Y-63749942D01*
X48503345Y-63828583D01*
X48668089Y-63882112D01*
X48839179Y-63909210D01*
X48839182Y-63909210D01*
X49012398Y-63909210D01*
X49012401Y-63909210D01*
X49183491Y-63882112D01*
X49348235Y-63828583D01*
X49502578Y-63749942D01*
X49642718Y-63648124D01*
X49765204Y-63525638D01*
X49867022Y-63385498D01*
X49945663Y-63231155D01*
X49999192Y-63066411D01*
X50026290Y-62895321D01*
X50026290Y-62722099D01*
X49999192Y-62551009D01*
X49945663Y-62386265D01*
X49867022Y-62231922D01*
X49765204Y-62091782D01*
X49765202Y-62091779D01*
X49642720Y-61969297D01*
X49502578Y-61867478D01*
X49348242Y-61788840D01*
X49348238Y-61788838D01*
X49348235Y-61788837D01*
X49183491Y-61735308D01*
X49012401Y-61708210D01*
X48839179Y-61708210D01*
X48668089Y-61735308D01*
X48668086Y-61735308D01*
X48668085Y-61735309D01*
X48589043Y-61760991D01*
X48503345Y-61788837D01*
X48503343Y-61788837D01*
X48503337Y-61788840D01*
X48349001Y-61867478D01*
X48208859Y-61969297D01*
X48086377Y-62091779D01*
X47984558Y-62231921D01*
X47905920Y-62386257D01*
X47905917Y-62386263D01*
X47905917Y-62386265D01*
X47852388Y-62551009D01*
X47825290Y-62722099D01*
X47486290Y-62722099D01*
X47459192Y-62551009D01*
X47405663Y-62386265D01*
X47327022Y-62231922D01*
X47225204Y-62091782D01*
X47225202Y-62091779D01*
X47102720Y-61969297D01*
X46962578Y-61867478D01*
X46808242Y-61788840D01*
X46808238Y-61788838D01*
X46808235Y-61788837D01*
X46643491Y-61735308D01*
X46472401Y-61708210D01*
X46299179Y-61708210D01*
X46128089Y-61735308D01*
X46128086Y-61735308D01*
X46128085Y-61735309D01*
X46049043Y-61760991D01*
X45963345Y-61788837D01*
X45963343Y-61788837D01*
X45963337Y-61788840D01*
X45809001Y-61867478D01*
X45668859Y-61969297D01*
X45546377Y-62091779D01*
X45444558Y-62231921D01*
X45365920Y-62386257D01*
X45365917Y-62386263D01*
X45365917Y-62386265D01*
X45312388Y-62551009D01*
X45285290Y-62722099D01*
X43525500Y-62722099D01*
X43525500Y-60182099D01*
X45285290Y-60182099D01*
X45285290Y-60355321D01*
X45312388Y-60526411D01*
X45365917Y-60691155D01*
X45365918Y-60691158D01*
X45365920Y-60691162D01*
X45444558Y-60845498D01*
X45546377Y-60985640D01*
X45668859Y-61108122D01*
X45719868Y-61145182D01*
X45809002Y-61209942D01*
X45963345Y-61288583D01*
X46128089Y-61342112D01*
X46299179Y-61369210D01*
X46299182Y-61369210D01*
X46472398Y-61369210D01*
X46472401Y-61369210D01*
X46643491Y-61342112D01*
X46808235Y-61288583D01*
X46962578Y-61209942D01*
X47102718Y-61108124D01*
X47225204Y-60985638D01*
X47327022Y-60845498D01*
X47405663Y-60691155D01*
X47459192Y-60526411D01*
X47486290Y-60355321D01*
X47486290Y-60182099D01*
X47825290Y-60182099D01*
X47825290Y-60355321D01*
X47852388Y-60526411D01*
X47905917Y-60691155D01*
X47905918Y-60691158D01*
X47905920Y-60691162D01*
X47984558Y-60845498D01*
X48086377Y-60985640D01*
X48208859Y-61108122D01*
X48259868Y-61145182D01*
X48349002Y-61209942D01*
X48503345Y-61288583D01*
X48668089Y-61342112D01*
X48839179Y-61369210D01*
X48839182Y-61369210D01*
X49012398Y-61369210D01*
X49012401Y-61369210D01*
X49183491Y-61342112D01*
X49348235Y-61288583D01*
X49502578Y-61209942D01*
X49642718Y-61108124D01*
X49765204Y-60985638D01*
X49867022Y-60845498D01*
X49945663Y-60691155D01*
X49999192Y-60526411D01*
X50026290Y-60355321D01*
X50026290Y-60182099D01*
X49999192Y-60011009D01*
X49945663Y-59846265D01*
X49867022Y-59691922D01*
X49795332Y-59593249D01*
X49765202Y-59551779D01*
X49642720Y-59429297D01*
X49502578Y-59327478D01*
X49348242Y-59248840D01*
X49348238Y-59248838D01*
X49348235Y-59248837D01*
X49183491Y-59195308D01*
X49012401Y-59168210D01*
X48839179Y-59168210D01*
X48668089Y-59195308D01*
X48668086Y-59195308D01*
X48668085Y-59195309D01*
X48625697Y-59209082D01*
X48503345Y-59248837D01*
X48503343Y-59248837D01*
X48503337Y-59248840D01*
X48349001Y-59327478D01*
X48208859Y-59429297D01*
X48086377Y-59551779D01*
X47984558Y-59691921D01*
X47905920Y-59846257D01*
X47905917Y-59846263D01*
X47905917Y-59846265D01*
X47886582Y-59905772D01*
X47873808Y-59945087D01*
X47852388Y-60011009D01*
X47825290Y-60182099D01*
X47486290Y-60182099D01*
X47459192Y-60011009D01*
X47405663Y-59846265D01*
X47327022Y-59691922D01*
X47255332Y-59593249D01*
X47225202Y-59551779D01*
X47102720Y-59429297D01*
X46962578Y-59327478D01*
X46808242Y-59248840D01*
X46808238Y-59248838D01*
X46808235Y-59248837D01*
X46643491Y-59195308D01*
X46472401Y-59168210D01*
X46299179Y-59168210D01*
X46128089Y-59195308D01*
X46128086Y-59195308D01*
X46128085Y-59195309D01*
X46085697Y-59209082D01*
X45963345Y-59248837D01*
X45963343Y-59248837D01*
X45963337Y-59248840D01*
X45809001Y-59327478D01*
X45668859Y-59429297D01*
X45546377Y-59551779D01*
X45444558Y-59691921D01*
X45365920Y-59846257D01*
X45365917Y-59846263D01*
X45365917Y-59846265D01*
X45346582Y-59905772D01*
X45333808Y-59945087D01*
X45312388Y-60011009D01*
X45285290Y-60182099D01*
X43525500Y-60182099D01*
X43525500Y-57642099D01*
X45285290Y-57642099D01*
X45285290Y-57815321D01*
X45312388Y-57986411D01*
X45365917Y-58151155D01*
X45365918Y-58151158D01*
X45365920Y-58151162D01*
X45444558Y-58305498D01*
X45546377Y-58445640D01*
X45668859Y-58568122D01*
X45668862Y-58568124D01*
X45809002Y-58669942D01*
X45894304Y-58713405D01*
X45958010Y-58745865D01*
X45963345Y-58748583D01*
X46128089Y-58802112D01*
X46299179Y-58829210D01*
X46299182Y-58829210D01*
X46472398Y-58829210D01*
X46472401Y-58829210D01*
X46643491Y-58802112D01*
X46808235Y-58748583D01*
X46962578Y-58669942D01*
X47102718Y-58568124D01*
X47225204Y-58445638D01*
X47327022Y-58305498D01*
X47405663Y-58151155D01*
X47459192Y-57986411D01*
X47486290Y-57815321D01*
X47486290Y-57642099D01*
X47459192Y-57471009D01*
X47405663Y-57306265D01*
X47327022Y-57151922D01*
X47249279Y-57044918D01*
X47225202Y-57011779D01*
X47102720Y-56889297D01*
X46962578Y-56787478D01*
X46808242Y-56708840D01*
X46808238Y-56708838D01*
X46808235Y-56708837D01*
X46643491Y-56655308D01*
X46472401Y-56628210D01*
X46299179Y-56628210D01*
X46128089Y-56655308D01*
X46128086Y-56655308D01*
X46128085Y-56655309D01*
X46055684Y-56678834D01*
X45963345Y-56708837D01*
X45963343Y-56708837D01*
X45963337Y-56708840D01*
X45809001Y-56787478D01*
X45668859Y-56889297D01*
X45546377Y-57011779D01*
X45444558Y-57151921D01*
X45365920Y-57306257D01*
X45365917Y-57306266D01*
X45319821Y-57448134D01*
X45312388Y-57471009D01*
X45285290Y-57642099D01*
X43525500Y-57642099D01*
X43525500Y-55102099D01*
X45285290Y-55102099D01*
X45285290Y-55275321D01*
X45312388Y-55446411D01*
X45365917Y-55611155D01*
X45365918Y-55611158D01*
X45365920Y-55611162D01*
X45444558Y-55765498D01*
X45546377Y-55905640D01*
X45668859Y-56028122D01*
X45668862Y-56028124D01*
X45809002Y-56129942D01*
X45963345Y-56208583D01*
X46128089Y-56262112D01*
X46299179Y-56289210D01*
X46299182Y-56289210D01*
X46472398Y-56289210D01*
X46472401Y-56289210D01*
X46643491Y-56262112D01*
X46808235Y-56208583D01*
X46962578Y-56129942D01*
X47102718Y-56028124D01*
X47225204Y-55905638D01*
X47327022Y-55765498D01*
X47405663Y-55611155D01*
X47459192Y-55446411D01*
X47486290Y-55275321D01*
X47486290Y-55102099D01*
X47459192Y-54931009D01*
X47405663Y-54766265D01*
X47405662Y-54766263D01*
X47404571Y-54762905D01*
X47402543Y-54691937D01*
X47435309Y-54634872D01*
X47598400Y-54471782D01*
X47772778Y-54297404D01*
X47800152Y-54282456D01*
X47826375Y-54265604D01*
X47832673Y-54264698D01*
X47835090Y-54263379D01*
X47861873Y-54260500D01*
X47993513Y-54260500D01*
X48061634Y-54280502D01*
X48108127Y-54334158D01*
X48118231Y-54404432D01*
X48089324Y-54468330D01*
X48086378Y-54471778D01*
X47984558Y-54611921D01*
X47905920Y-54766257D01*
X47905917Y-54766263D01*
X47905917Y-54766265D01*
X47852388Y-54931009D01*
X47825290Y-55102099D01*
X47825290Y-55275321D01*
X47852388Y-55446411D01*
X47905917Y-55611155D01*
X47905918Y-55611158D01*
X47905920Y-55611162D01*
X47984558Y-55765498D01*
X48086377Y-55905640D01*
X48208859Y-56028122D01*
X48208862Y-56028124D01*
X48349002Y-56129942D01*
X48503345Y-56208583D01*
X48668089Y-56262112D01*
X48839179Y-56289210D01*
X48839182Y-56289210D01*
X49012398Y-56289210D01*
X49012401Y-56289210D01*
X49183491Y-56262112D01*
X49348235Y-56208583D01*
X49502578Y-56129942D01*
X49642718Y-56028124D01*
X49765204Y-55905638D01*
X49867022Y-55765498D01*
X49945663Y-55611155D01*
X49945663Y-55611152D01*
X49947266Y-55608008D01*
X49996014Y-55556392D01*
X50036746Y-55541288D01*
X50048046Y-55539210D01*
X50147434Y-55539210D01*
X50236578Y-55515324D01*
X50245146Y-55510377D01*
X50316502Y-55469180D01*
X53788277Y-51997405D01*
X53815645Y-51982460D01*
X53841874Y-51965604D01*
X53848172Y-51964698D01*
X53850589Y-51963379D01*
X53877372Y-51960500D01*
X54039627Y-51960500D01*
X54107748Y-51980502D01*
X54154241Y-52034158D01*
X54164345Y-52104432D01*
X54134851Y-52169012D01*
X54128722Y-52175595D01*
X49576756Y-56727560D01*
X49514444Y-56761586D01*
X49443629Y-56756521D01*
X49430467Y-56750736D01*
X49348235Y-56708837D01*
X49183491Y-56655308D01*
X49012401Y-56628210D01*
X48839179Y-56628210D01*
X48668089Y-56655308D01*
X48668086Y-56655308D01*
X48668085Y-56655309D01*
X48595684Y-56678834D01*
X48503345Y-56708837D01*
X48503343Y-56708837D01*
X48503337Y-56708840D01*
X48349001Y-56787478D01*
X48208859Y-56889297D01*
X48086377Y-57011779D01*
X47984558Y-57151921D01*
X47905920Y-57306257D01*
X47905917Y-57306266D01*
X47859821Y-57448134D01*
X47852388Y-57471009D01*
X47825290Y-57642099D01*
X47825290Y-57815321D01*
X47852388Y-57986411D01*
X47905917Y-58151155D01*
X47905918Y-58151158D01*
X47905920Y-58151162D01*
X47984558Y-58305498D01*
X48086377Y-58445640D01*
X48208859Y-58568122D01*
X48208862Y-58568124D01*
X48349002Y-58669942D01*
X48434304Y-58713405D01*
X48498010Y-58745865D01*
X48503345Y-58748583D01*
X48668089Y-58802112D01*
X48839179Y-58829210D01*
X48839182Y-58829210D01*
X49012398Y-58829210D01*
X49012401Y-58829210D01*
X49183491Y-58802112D01*
X49348235Y-58748583D01*
X49502578Y-58669942D01*
X49642718Y-58568124D01*
X49765204Y-58445638D01*
X49867022Y-58305498D01*
X49945663Y-58151155D01*
X49999192Y-57986411D01*
X50026290Y-57815321D01*
X50026290Y-57642099D01*
X49999192Y-57471009D01*
X49991760Y-57448136D01*
X49980253Y-57412720D01*
X49978225Y-57341753D01*
X50010989Y-57284691D01*
X54301407Y-52994274D01*
X54363717Y-52960250D01*
X54434533Y-52965315D01*
X54491368Y-53007862D01*
X54516179Y-53074382D01*
X54516500Y-53083371D01*
X54516500Y-53178134D01*
X54516499Y-53178134D01*
X54556945Y-53329079D01*
X54556948Y-53329086D01*
X54635079Y-53464413D01*
X54635087Y-53464423D01*
X54722595Y-53551931D01*
X54756621Y-53614243D01*
X54759500Y-53641026D01*
X54759500Y-59766144D01*
X54760573Y-59770148D01*
X54778030Y-59835299D01*
X54778030Y-59835300D01*
X54783383Y-59855281D01*
X54783387Y-59855291D01*
X54829527Y-59935208D01*
X54829529Y-59935211D01*
X54829530Y-59935212D01*
X54909596Y-60015278D01*
X54943620Y-60077588D01*
X54946500Y-60104372D01*
X54946500Y-60228134D01*
X54946499Y-60228134D01*
X54986945Y-60379079D01*
X54986948Y-60379086D01*
X55065079Y-60514413D01*
X55065087Y-60514423D01*
X55175576Y-60624912D01*
X55175581Y-60624916D01*
X55175583Y-60624918D01*
X55310918Y-60703054D01*
X55461864Y-60743500D01*
X55461866Y-60743500D01*
X55618134Y-60743500D01*
X55618136Y-60743500D01*
X55769082Y-60703054D01*
X55904417Y-60624918D01*
X56014918Y-60514417D01*
X56093054Y-60379082D01*
X56133500Y-60228136D01*
X56133500Y-60071864D01*
X56093054Y-59920918D01*
X56055158Y-59855281D01*
X56014920Y-59785586D01*
X56014912Y-59785576D01*
X55904423Y-59675087D01*
X55904413Y-59675079D01*
X55769086Y-59596948D01*
X55769083Y-59596947D01*
X55769082Y-59596946D01*
X55769080Y-59596945D01*
X55769079Y-59596945D01*
X55722969Y-59584590D01*
X55618136Y-59556500D01*
X55586500Y-59556500D01*
X55518379Y-59536498D01*
X55471886Y-59482842D01*
X55460500Y-59430500D01*
X55460500Y-59088134D01*
X62026499Y-59088134D01*
X62066945Y-59239079D01*
X62066948Y-59239086D01*
X62145079Y-59374413D01*
X62145087Y-59374423D01*
X62255576Y-59484912D01*
X62255581Y-59484916D01*
X62255583Y-59484918D01*
X62255584Y-59484919D01*
X62255586Y-59484920D01*
X62326022Y-59525586D01*
X62390918Y-59563054D01*
X62541864Y-59603500D01*
X62541866Y-59603500D01*
X62698134Y-59603500D01*
X62698136Y-59603500D01*
X62849082Y-59563054D01*
X62984417Y-59484918D01*
X63094918Y-59374417D01*
X63173054Y-59239082D01*
X63213500Y-59088136D01*
X63213500Y-58931864D01*
X63173054Y-58780918D01*
X63113345Y-58677499D01*
X63094920Y-58645586D01*
X63094912Y-58645576D01*
X62984423Y-58535087D01*
X62984413Y-58535079D01*
X62849086Y-58456948D01*
X62849083Y-58456947D01*
X62849082Y-58456946D01*
X62849080Y-58456945D01*
X62849079Y-58456945D01*
X62806880Y-58445638D01*
X62698136Y-58416500D01*
X62541864Y-58416500D01*
X62460974Y-58438174D01*
X62390920Y-58456945D01*
X62390913Y-58456948D01*
X62255586Y-58535079D01*
X62255576Y-58535087D01*
X62145087Y-58645576D01*
X62145079Y-58645586D01*
X62066948Y-58780913D01*
X62066945Y-58780920D01*
X62026500Y-58931865D01*
X62026500Y-59088134D01*
X62026499Y-59088134D01*
X55460500Y-59088134D01*
X55460500Y-56648134D01*
X61336499Y-56648134D01*
X61376945Y-56799079D01*
X61376948Y-56799086D01*
X61455079Y-56934413D01*
X61455087Y-56934423D01*
X61565576Y-57044912D01*
X61565581Y-57044916D01*
X61565583Y-57044918D01*
X61565584Y-57044919D01*
X61565586Y-57044920D01*
X61596995Y-57063054D01*
X61700918Y-57123054D01*
X61851864Y-57163500D01*
X61851866Y-57163500D01*
X62008134Y-57163500D01*
X62008136Y-57163500D01*
X62159082Y-57123054D01*
X62294417Y-57044918D01*
X62404918Y-56934417D01*
X62483054Y-56799082D01*
X62523500Y-56648136D01*
X62523500Y-56491864D01*
X62483054Y-56340918D01*
X62445120Y-56275214D01*
X62404920Y-56205586D01*
X62404912Y-56205576D01*
X62294423Y-56095087D01*
X62294413Y-56095079D01*
X62159086Y-56016948D01*
X62159083Y-56016947D01*
X62159082Y-56016946D01*
X62159080Y-56016945D01*
X62159079Y-56016945D01*
X62118633Y-56006107D01*
X62008136Y-55976500D01*
X61851864Y-55976500D01*
X61770974Y-55998174D01*
X61700920Y-56016945D01*
X61700913Y-56016948D01*
X61565586Y-56095079D01*
X61565576Y-56095087D01*
X61455087Y-56205576D01*
X61455079Y-56205586D01*
X61376948Y-56340913D01*
X61376945Y-56340920D01*
X61336500Y-56491865D01*
X61336500Y-56648134D01*
X61336499Y-56648134D01*
X55460500Y-56648134D01*
X55460500Y-53641026D01*
X55480502Y-53572905D01*
X55497405Y-53551931D01*
X55584912Y-53464423D01*
X55584918Y-53464417D01*
X55663054Y-53329082D01*
X55703500Y-53178136D01*
X55703500Y-53021864D01*
X55663054Y-52870918D01*
X55639140Y-52829499D01*
X55622403Y-52760505D01*
X55645623Y-52693413D01*
X55701430Y-52649526D01*
X55748260Y-52640500D01*
X67371608Y-52640500D01*
X67439729Y-52660502D01*
X67486222Y-52714158D01*
X67496326Y-52784432D01*
X67493316Y-52799105D01*
X67485172Y-52829500D01*
X67476500Y-52861865D01*
X67476500Y-53018134D01*
X67476499Y-53018134D01*
X67516945Y-53169079D01*
X67516948Y-53169086D01*
X67595079Y-53304413D01*
X67595087Y-53304423D01*
X67705576Y-53414912D01*
X67705581Y-53414916D01*
X67705583Y-53414918D01*
X67705584Y-53414919D01*
X67705586Y-53414920D01*
X67791317Y-53464417D01*
X67840918Y-53493054D01*
X67991864Y-53533500D01*
X67991866Y-53533500D01*
X68148134Y-53533500D01*
X68148136Y-53533500D01*
X68299082Y-53493054D01*
X68434417Y-53414918D01*
X68544918Y-53304417D01*
X68623054Y-53169082D01*
X68663500Y-53018136D01*
X68663500Y-52861864D01*
X68646685Y-52799109D01*
X68647289Y-52773715D01*
X68643674Y-52748568D01*
X68648120Y-52738832D01*
X68648375Y-52728135D01*
X68662614Y-52707096D01*
X68673168Y-52683988D01*
X68682169Y-52678202D01*
X68688169Y-52669339D01*
X68711524Y-52659337D01*
X68732894Y-52645604D01*
X68749003Y-52643287D01*
X68753433Y-52641391D01*
X68768392Y-52640500D01*
X68943701Y-52640500D01*
X69011822Y-52660502D01*
X69058315Y-52714158D01*
X69068419Y-52784432D01*
X69052820Y-52829500D01*
X68976948Y-52960913D01*
X68976945Y-52960920D01*
X68936500Y-53111865D01*
X68936500Y-53235626D01*
X68916498Y-53303747D01*
X68899596Y-53324721D01*
X68669532Y-53554785D01*
X68669529Y-53554789D01*
X68659382Y-53572365D01*
X68653019Y-53583387D01*
X68649235Y-53589941D01*
X68649234Y-53589942D01*
X68623388Y-53634707D01*
X68623385Y-53634714D01*
X68614310Y-53668583D01*
X68599968Y-53722112D01*
X68599500Y-53723857D01*
X68599500Y-56106143D01*
X68605876Y-56129937D01*
X68605877Y-56129941D01*
X68623387Y-56195292D01*
X68669527Y-56275208D01*
X68669529Y-56275210D01*
X68669530Y-56275212D01*
X69010841Y-56616523D01*
X69044865Y-56678834D01*
X69039801Y-56749649D01*
X68997254Y-56806485D01*
X68984745Y-56814736D01*
X68845586Y-56895079D01*
X68845576Y-56895087D01*
X68735087Y-57005576D01*
X68735079Y-57005586D01*
X68656948Y-57140913D01*
X68656945Y-57140920D01*
X68653997Y-57151922D01*
X68623776Y-57264712D01*
X68616500Y-57291865D01*
X68616500Y-57448134D01*
X68616499Y-57448134D01*
X68656945Y-57599079D01*
X68656948Y-57599086D01*
X68735079Y-57734413D01*
X68735087Y-57734423D01*
X68822595Y-57821931D01*
X68856621Y-57884243D01*
X68859500Y-57911026D01*
X68859500Y-59325974D01*
X68839498Y-59394095D01*
X68785842Y-59440588D01*
X68715568Y-59450692D01*
X68650988Y-59421198D01*
X68644431Y-59415093D01*
X68644413Y-59415079D01*
X68509086Y-59336948D01*
X68509083Y-59336947D01*
X68509082Y-59336946D01*
X68509080Y-59336945D01*
X68509079Y-59336945D01*
X68468134Y-59325974D01*
X68358136Y-59296500D01*
X68201864Y-59296500D01*
X68120974Y-59318174D01*
X68050920Y-59336945D01*
X68050913Y-59336948D01*
X67915586Y-59415079D01*
X67915576Y-59415087D01*
X67805087Y-59525576D01*
X67805079Y-59525586D01*
X67726948Y-59660913D01*
X67726945Y-59660920D01*
X67686500Y-59811865D01*
X67686500Y-59968134D01*
X67686499Y-59968134D01*
X67726945Y-60119079D01*
X67726948Y-60119086D01*
X67805079Y-60254413D01*
X67805087Y-60254423D01*
X67915576Y-60364912D01*
X67915581Y-60364916D01*
X67915583Y-60364918D01*
X67915584Y-60364919D01*
X67915586Y-60364920D01*
X67955474Y-60387949D01*
X68023045Y-60426962D01*
X68040575Y-60445346D01*
X68060912Y-60460569D01*
X68064652Y-60470597D01*
X68072038Y-60478343D01*
X68076845Y-60503284D01*
X68085724Y-60527089D01*
X68083448Y-60537548D01*
X68085474Y-60548057D01*
X68076033Y-60571638D01*
X68070634Y-60596463D01*
X68060878Y-60609495D01*
X68059088Y-60613968D01*
X68049142Y-60625174D01*
X67994789Y-60679529D01*
X67994787Y-60679530D01*
X67889533Y-60784783D01*
X67889529Y-60784789D01*
X67876602Y-60807181D01*
X67876600Y-60807184D01*
X67843388Y-60864707D01*
X67843385Y-60864714D01*
X67819500Y-60953857D01*
X67819500Y-63788974D01*
X67799498Y-63857095D01*
X67782595Y-63878069D01*
X67695087Y-63965576D01*
X67695079Y-63965586D01*
X67616948Y-64100913D01*
X67616945Y-64100920D01*
X67576500Y-64251865D01*
X67576500Y-64408134D01*
X67576499Y-64408134D01*
X67616945Y-64559079D01*
X67616948Y-64559086D01*
X67695079Y-64694413D01*
X67695087Y-64694423D01*
X67805576Y-64804912D01*
X67805581Y-64804916D01*
X67805583Y-64804918D01*
X67940918Y-64883054D01*
X68091864Y-64923500D01*
X68091866Y-64923500D01*
X68248134Y-64923500D01*
X68248136Y-64923500D01*
X68399082Y-64883054D01*
X68534417Y-64804918D01*
X68644918Y-64694417D01*
X68723054Y-64559082D01*
X68731807Y-64526414D01*
X68768757Y-64465793D01*
X68832617Y-64434771D01*
X68853513Y-64433026D01*
X68937449Y-64433026D01*
X68937451Y-64433026D01*
X69088397Y-64392580D01*
X69223732Y-64314444D01*
X69334233Y-64203943D01*
X69412369Y-64068608D01*
X69452815Y-63917662D01*
X69452815Y-63761390D01*
X69412369Y-63610444D01*
X69334233Y-63475109D01*
X69334231Y-63475107D01*
X69334227Y-63475102D01*
X69223731Y-63364606D01*
X69163498Y-63329830D01*
X69114506Y-63278447D01*
X69100500Y-63220712D01*
X69100500Y-61717372D01*
X69120502Y-61649251D01*
X69137405Y-61628277D01*
X70150464Y-60615218D01*
X70150470Y-60615212D01*
X70196614Y-60535288D01*
X70220500Y-60446144D01*
X70220500Y-57213750D01*
X70240502Y-57145629D01*
X70294158Y-57099136D01*
X70356435Y-57088142D01*
X70367944Y-57089052D01*
X70421864Y-57103500D01*
X70550607Y-57103500D01*
X70555563Y-57103892D01*
X70584270Y-57114846D01*
X70613749Y-57123502D01*
X70619859Y-57128426D01*
X70621894Y-57129203D01*
X70623460Y-57131328D01*
X70634723Y-57140405D01*
X70682595Y-57188277D01*
X70716621Y-57250589D01*
X70719500Y-57277372D01*
X70719500Y-64316145D01*
X70729854Y-64354784D01*
X70729854Y-64354787D01*
X70729855Y-64354787D01*
X70729855Y-64354788D01*
X70737928Y-64384918D01*
X70743387Y-64405292D01*
X70789527Y-64485208D01*
X70789529Y-64485210D01*
X70789530Y-64485212D01*
X70982596Y-64678278D01*
X71016620Y-64740588D01*
X71019500Y-64767372D01*
X71019500Y-77762628D01*
X70999498Y-77830749D01*
X70982595Y-77851723D01*
X68141723Y-80692595D01*
X68114354Y-80707539D01*
X68088126Y-80724396D01*
X68081827Y-80725301D01*
X68079411Y-80726621D01*
X68052628Y-80729500D01*
X67865536Y-80729500D01*
X67797415Y-80709498D01*
X67750922Y-80655842D01*
X67740818Y-80585568D01*
X67770312Y-80520988D01*
X67776441Y-80514405D01*
X67875871Y-80414974D01*
X67875873Y-80414971D01*
X68020018Y-80216573D01*
X68131354Y-79998066D01*
X68131357Y-79998060D01*
X68207135Y-79764837D01*
X68224690Y-79654000D01*
X66710844Y-79654000D01*
X66737521Y-79589598D01*
X66762500Y-79464019D01*
X66762500Y-79335981D01*
X66737521Y-79210402D01*
X66710844Y-79146000D01*
X68224690Y-79146000D01*
X68207135Y-79035162D01*
X68131357Y-78801939D01*
X68131354Y-78801933D01*
X68020018Y-78583426D01*
X67875873Y-78385028D01*
X67875871Y-78385025D01*
X67702474Y-78211628D01*
X67702471Y-78211626D01*
X67504073Y-78067481D01*
X67285566Y-77956145D01*
X67285560Y-77956142D01*
X67052337Y-77880364D01*
X67052340Y-77880364D01*
X66810114Y-77842000D01*
X65891500Y-77842000D01*
X65891500Y-78750000D01*
X65383500Y-78750000D01*
X65383500Y-77842000D01*
X64464886Y-77842000D01*
X64222661Y-77880364D01*
X63989439Y-77956142D01*
X63989433Y-77956145D01*
X63770926Y-78067481D01*
X63572528Y-78211626D01*
X63572525Y-78211628D01*
X63399128Y-78385025D01*
X63399126Y-78385028D01*
X63254981Y-78583426D01*
X63143645Y-78801933D01*
X63143642Y-78801939D01*
X63067864Y-79035162D01*
X63050310Y-79146000D01*
X64564156Y-79146000D01*
X64537479Y-79210402D01*
X64512500Y-79335981D01*
X64512500Y-79464019D01*
X64537479Y-79589598D01*
X64564156Y-79654000D01*
X63050310Y-79654000D01*
X63067864Y-79764837D01*
X63143642Y-79998060D01*
X63143645Y-79998066D01*
X63254981Y-80216573D01*
X63399126Y-80414971D01*
X63399128Y-80414974D01*
X63498559Y-80514405D01*
X63532585Y-80576717D01*
X63527520Y-80647532D01*
X63484973Y-80704368D01*
X63418453Y-80729179D01*
X63409464Y-80729500D01*
X59047372Y-80729500D01*
X58979251Y-80709498D01*
X58958281Y-80692599D01*
X58145212Y-79879530D01*
X58145210Y-79879529D01*
X58145208Y-79879527D01*
X58065292Y-79833387D01*
X58054759Y-79830564D01*
X57976144Y-79809500D01*
X57976142Y-79809500D01*
X56761026Y-79809500D01*
X56692905Y-79789498D01*
X56671931Y-79772595D01*
X56574423Y-79675087D01*
X56574413Y-79675079D01*
X56439086Y-79596948D01*
X56439083Y-79596947D01*
X56439082Y-79596946D01*
X56439080Y-79596945D01*
X56439079Y-79596945D01*
X56398633Y-79586107D01*
X56288136Y-79556500D01*
X56131864Y-79556500D01*
X56050974Y-79578174D01*
X55980920Y-79596945D01*
X55980913Y-79596948D01*
X55845586Y-79675079D01*
X55845576Y-79675087D01*
X55735087Y-79785576D01*
X55735079Y-79785586D01*
X55656948Y-79920913D01*
X55656946Y-79920918D01*
X55622359Y-80050000D01*
X55616500Y-80071865D01*
X55616500Y-80228134D01*
X55616499Y-80228134D01*
X55656945Y-80379079D01*
X55656948Y-80379086D01*
X55735079Y-80514413D01*
X55735087Y-80514423D01*
X55845576Y-80624912D01*
X55845581Y-80624916D01*
X55845583Y-80624918D01*
X55980918Y-80703054D01*
X56131864Y-80743500D01*
X56131866Y-80743500D01*
X56288134Y-80743500D01*
X56288136Y-80743500D01*
X56439082Y-80703054D01*
X56574417Y-80624918D01*
X56574423Y-80624912D01*
X56651931Y-80547405D01*
X56714243Y-80513379D01*
X56741026Y-80510500D01*
X57732628Y-80510500D01*
X57800749Y-80530502D01*
X57821718Y-80547400D01*
X58634787Y-81360469D01*
X58714712Y-81406614D01*
X58803856Y-81430500D01*
X58803858Y-81430500D01*
X68296142Y-81430500D01*
X68296144Y-81430500D01*
X68385288Y-81406614D01*
X68385291Y-81406612D01*
X68385292Y-81406612D01*
X68425250Y-81383542D01*
X68465212Y-81360470D01*
X71000469Y-78825213D01*
X71000470Y-78825212D01*
X71650470Y-78175212D01*
X71696614Y-78095288D01*
X71720500Y-78006144D01*
X71720500Y-77913856D01*
X71720500Y-64523856D01*
X71696614Y-64434712D01*
X71672289Y-64392580D01*
X71650470Y-64354788D01*
X71650469Y-64354787D01*
X71650464Y-64354781D01*
X71457405Y-64161722D01*
X71423379Y-64099410D01*
X71420500Y-64072627D01*
X71420500Y-57025598D01*
X71422414Y-57025598D01*
X71431719Y-56965887D01*
X71478842Y-56912784D01*
X71547194Y-56893588D01*
X71615074Y-56914393D01*
X71634802Y-56930484D01*
X72212595Y-57508277D01*
X72246621Y-57570589D01*
X72249500Y-57597372D01*
X72249500Y-58283856D01*
X72249500Y-63756144D01*
X72250906Y-63761390D01*
X72268909Y-63828581D01*
X72273386Y-63845290D01*
X72319527Y-63925208D01*
X72319529Y-63925210D01*
X72319530Y-63925212D01*
X72466945Y-64072627D01*
X72602595Y-64208276D01*
X72636620Y-64270589D01*
X72639500Y-64297372D01*
X72639500Y-78932628D01*
X72619498Y-79000749D01*
X72602595Y-79021723D01*
X69741723Y-81882595D01*
X69679411Y-81916621D01*
X69652628Y-81919500D01*
X55861026Y-81919500D01*
X55792905Y-81899498D01*
X55771931Y-81882595D01*
X55684423Y-81795087D01*
X55684413Y-81795079D01*
X55549086Y-81716948D01*
X55549083Y-81716947D01*
X55549082Y-81716946D01*
X55549080Y-81716945D01*
X55549079Y-81716945D01*
X55508633Y-81706107D01*
X55398136Y-81676500D01*
X55241864Y-81676500D01*
X55160974Y-81698174D01*
X55090920Y-81716945D01*
X55090913Y-81716948D01*
X54955586Y-81795079D01*
X54955576Y-81795087D01*
X54845087Y-81905576D01*
X54845079Y-81905586D01*
X54766948Y-82040913D01*
X54766945Y-82040920D01*
X54726500Y-82191865D01*
X54726500Y-82348134D01*
X54726499Y-82348134D01*
X54766945Y-82499079D01*
X54766948Y-82499086D01*
X54845079Y-82634413D01*
X54845087Y-82634423D01*
X54955576Y-82744912D01*
X54955581Y-82744916D01*
X54955583Y-82744918D01*
X55090918Y-82823054D01*
X55241864Y-82863500D01*
X55241866Y-82863500D01*
X55398134Y-82863500D01*
X55398136Y-82863500D01*
X55549082Y-82823054D01*
X55684417Y-82744918D01*
X55723078Y-82706257D01*
X55771931Y-82657405D01*
X55834243Y-82623379D01*
X55861026Y-82620500D01*
X69896142Y-82620500D01*
X69896144Y-82620500D01*
X69985288Y-82596614D01*
X69985291Y-82596612D01*
X69985292Y-82596612D01*
X70062697Y-82551922D01*
X70065212Y-82550470D01*
X73270470Y-79345212D01*
X73316614Y-79265288D01*
X73340500Y-79176143D01*
X73340500Y-79083856D01*
X73340500Y-77051621D01*
X73917000Y-77051621D01*
X73917000Y-77636000D01*
X74690000Y-77636000D01*
X74690000Y-78144000D01*
X73917000Y-78144000D01*
X73917000Y-78728378D01*
X73944653Y-78902975D01*
X73999273Y-79071078D01*
X73999276Y-79071084D01*
X74079526Y-79228584D01*
X74183425Y-79371588D01*
X74183427Y-79371591D01*
X74308408Y-79496572D01*
X74308411Y-79496574D01*
X74451415Y-79600473D01*
X74608915Y-79680723D01*
X74608921Y-79680726D01*
X74777026Y-79735347D01*
X74777035Y-79735349D01*
X74785999Y-79736768D01*
X74786000Y-79736768D01*
X74786000Y-78880975D01*
X74825095Y-78920070D01*
X74904905Y-78966148D01*
X74993922Y-78990000D01*
X75086078Y-78990000D01*
X75175095Y-78966148D01*
X75254905Y-78920070D01*
X75294000Y-78880975D01*
X75294000Y-79736768D01*
X75302964Y-79735349D01*
X75302973Y-79735347D01*
X75471078Y-79680726D01*
X75471084Y-79680723D01*
X75628584Y-79600473D01*
X75771588Y-79496574D01*
X75771591Y-79496572D01*
X75896572Y-79371591D01*
X75896574Y-79371588D01*
X76000473Y-79228584D01*
X76080723Y-79071084D01*
X76080726Y-79071078D01*
X76135346Y-78902974D01*
X76137935Y-78886632D01*
X76137935Y-78886631D01*
X76163000Y-78728378D01*
X76163000Y-78436000D01*
X79943230Y-78436000D01*
X80799025Y-78436000D01*
X80759930Y-78475095D01*
X80713852Y-78554905D01*
X80690000Y-78643922D01*
X80690000Y-78736078D01*
X80713852Y-78825095D01*
X80759930Y-78904905D01*
X80799025Y-78944000D01*
X79943231Y-78944000D01*
X79944650Y-78952963D01*
X79944652Y-78952973D01*
X79999275Y-79121082D01*
X79999276Y-79121084D01*
X80079526Y-79278584D01*
X80183425Y-79421588D01*
X80183427Y-79421591D01*
X80308408Y-79546572D01*
X80308411Y-79546574D01*
X80451415Y-79650473D01*
X80608915Y-79730723D01*
X80608921Y-79730726D01*
X80777024Y-79785346D01*
X80951621Y-79813000D01*
X81536000Y-79813000D01*
X81536000Y-79040000D01*
X82044000Y-79040000D01*
X82044000Y-79813000D01*
X82628379Y-79813000D01*
X82802975Y-79785346D01*
X82971078Y-79730726D01*
X82971084Y-79730723D01*
X83128584Y-79650473D01*
X83271588Y-79546574D01*
X83271591Y-79546572D01*
X83396572Y-79421591D01*
X83396574Y-79421588D01*
X83500473Y-79278584D01*
X83580723Y-79121084D01*
X83580724Y-79121082D01*
X83635347Y-78952973D01*
X83635349Y-78952963D01*
X83636769Y-78944000D01*
X82780975Y-78944000D01*
X82820070Y-78904905D01*
X82866148Y-78825095D01*
X82890000Y-78736078D01*
X82890000Y-78643922D01*
X82866148Y-78554905D01*
X82820070Y-78475095D01*
X82780975Y-78436000D01*
X83636769Y-78436000D01*
X83635349Y-78427036D01*
X83635347Y-78427026D01*
X83580724Y-78258917D01*
X83580723Y-78258915D01*
X83500473Y-78101415D01*
X83396574Y-77958411D01*
X83396572Y-77958408D01*
X83271591Y-77833427D01*
X83271588Y-77833425D01*
X83128584Y-77729526D01*
X82971084Y-77649276D01*
X82971078Y-77649273D01*
X82802975Y-77594653D01*
X82628379Y-77567000D01*
X82044000Y-77567000D01*
X82044000Y-78340000D01*
X81536000Y-78340000D01*
X81536000Y-77567000D01*
X80951621Y-77567000D01*
X80777024Y-77594653D01*
X80608921Y-77649273D01*
X80608915Y-77649276D01*
X80451415Y-77729526D01*
X80308411Y-77833425D01*
X80308408Y-77833427D01*
X80183427Y-77958408D01*
X80183425Y-77958411D01*
X80079526Y-78101415D01*
X79999276Y-78258915D01*
X79999275Y-78258917D01*
X79944652Y-78427026D01*
X79944650Y-78427036D01*
X79943230Y-78436000D01*
X76163000Y-78436000D01*
X76163000Y-78144000D01*
X75390000Y-78144000D01*
X75390000Y-77636000D01*
X76163000Y-77636000D01*
X76163000Y-77051621D01*
X76135346Y-76877024D01*
X76080726Y-76708921D01*
X76080723Y-76708915D01*
X76000473Y-76551415D01*
X75896574Y-76408411D01*
X75896572Y-76408408D01*
X75771591Y-76283427D01*
X75771588Y-76283425D01*
X75628584Y-76179526D01*
X75471084Y-76099276D01*
X75471082Y-76099275D01*
X75302973Y-76044652D01*
X75302963Y-76044650D01*
X75294000Y-76043230D01*
X75294000Y-76899025D01*
X75254905Y-76859930D01*
X75175095Y-76813852D01*
X75086078Y-76790000D01*
X74993922Y-76790000D01*
X74904905Y-76813852D01*
X74825095Y-76859930D01*
X74786000Y-76899025D01*
X74786000Y-76043230D01*
X74777036Y-76044650D01*
X74777026Y-76044652D01*
X74608917Y-76099275D01*
X74608915Y-76099276D01*
X74451415Y-76179526D01*
X74308411Y-76283425D01*
X74308408Y-76283427D01*
X74183427Y-76408408D01*
X74183425Y-76408411D01*
X74079526Y-76551415D01*
X73999276Y-76708915D01*
X73999273Y-76708921D01*
X73944653Y-76877024D01*
X73917000Y-77051621D01*
X73340500Y-77051621D01*
X73340500Y-74794616D01*
X77178000Y-74794616D01*
X77178000Y-74985383D01*
X77207844Y-75173815D01*
X77266793Y-75355242D01*
X77266796Y-75355248D01*
X77353406Y-75525230D01*
X77371143Y-75549643D01*
X77371144Y-75549643D01*
X77946666Y-74974121D01*
X77970667Y-75063694D01*
X78029910Y-75166306D01*
X78113694Y-75250090D01*
X78216306Y-75309333D01*
X78305875Y-75333333D01*
X77730355Y-75908853D01*
X77730355Y-75908855D01*
X77754768Y-75926593D01*
X77924751Y-76013203D01*
X77924757Y-76013206D01*
X78106184Y-76072155D01*
X78294616Y-76102000D01*
X78485384Y-76102000D01*
X78673815Y-76072155D01*
X78855242Y-76013206D01*
X78855248Y-76013203D01*
X79025230Y-75926593D01*
X79049643Y-75908855D01*
X79049643Y-75908854D01*
X78474123Y-75333333D01*
X78563694Y-75309333D01*
X78666306Y-75250090D01*
X78750090Y-75166306D01*
X78809333Y-75063694D01*
X78833333Y-74974122D01*
X79408854Y-75549643D01*
X79408855Y-75549643D01*
X79426593Y-75525230D01*
X79513203Y-75355248D01*
X79513206Y-75355242D01*
X79572155Y-75173816D01*
X79588266Y-75072098D01*
X79588266Y-75072097D01*
X79602000Y-74985383D01*
X79602000Y-74794616D01*
X79572155Y-74606184D01*
X79513206Y-74424757D01*
X79513203Y-74424751D01*
X79426593Y-74254769D01*
X79408855Y-74230355D01*
X79408853Y-74230355D01*
X78833333Y-74805875D01*
X78809333Y-74716306D01*
X78750090Y-74613694D01*
X78666306Y-74529910D01*
X78563694Y-74470667D01*
X78474122Y-74446666D01*
X79049643Y-73871144D01*
X79049643Y-73871143D01*
X79025230Y-73853406D01*
X78855248Y-73766796D01*
X78855242Y-73766793D01*
X78673815Y-73707844D01*
X78485384Y-73678000D01*
X78294616Y-73678000D01*
X78106184Y-73707844D01*
X77924757Y-73766793D01*
X77924745Y-73766798D01*
X77754780Y-73853399D01*
X77754768Y-73853407D01*
X77730354Y-73871144D01*
X78305876Y-74446666D01*
X78216306Y-74470667D01*
X78113694Y-74529910D01*
X78029910Y-74613694D01*
X77970667Y-74716306D01*
X77946666Y-74805876D01*
X77371144Y-74230354D01*
X77353407Y-74254768D01*
X77353399Y-74254780D01*
X77266798Y-74424745D01*
X77266793Y-74424757D01*
X77207844Y-74606184D01*
X77178000Y-74794616D01*
X73340500Y-74794616D01*
X73340500Y-72295987D01*
X77435500Y-72295987D01*
X77435500Y-72484012D01*
X77472181Y-72668417D01*
X77544133Y-72842125D01*
X77564432Y-72872504D01*
X77648591Y-72998457D01*
X77648596Y-72998463D01*
X77781536Y-73131403D01*
X77781542Y-73131408D01*
X77937875Y-73235867D01*
X78111583Y-73307819D01*
X78295990Y-73344500D01*
X78295991Y-73344500D01*
X78484009Y-73344500D01*
X78484010Y-73344500D01*
X78668417Y-73307819D01*
X78842125Y-73235867D01*
X78998458Y-73131408D01*
X79131408Y-72998458D01*
X79235867Y-72842125D01*
X79307819Y-72668417D01*
X79344500Y-72484010D01*
X79344500Y-72295990D01*
X79307819Y-72111583D01*
X79235867Y-71937875D01*
X79131408Y-71781542D01*
X79131403Y-71781536D01*
X78998463Y-71648596D01*
X78998457Y-71648591D01*
X78842125Y-71544132D01*
X78836665Y-71541214D01*
X78837385Y-71539865D01*
X78787988Y-71500044D01*
X78765579Y-71432677D01*
X78765500Y-71428202D01*
X78765500Y-69805209D01*
X78782381Y-69742209D01*
X78799948Y-69711782D01*
X78813054Y-69689082D01*
X78853500Y-69538136D01*
X78853500Y-69381864D01*
X78813054Y-69230918D01*
X78734918Y-69095583D01*
X78734916Y-69095581D01*
X78734912Y-69095576D01*
X78624423Y-68985087D01*
X78624413Y-68985079D01*
X78489086Y-68906948D01*
X78489083Y-68906947D01*
X78489082Y-68906946D01*
X78489080Y-68906945D01*
X78489079Y-68906945D01*
X78448633Y-68896107D01*
X78338136Y-68866500D01*
X78181864Y-68866500D01*
X78100974Y-68888174D01*
X78030920Y-68906945D01*
X78030913Y-68906948D01*
X77895586Y-68985079D01*
X77895576Y-68985087D01*
X77785087Y-69095576D01*
X77785079Y-69095586D01*
X77706948Y-69230913D01*
X77706946Y-69230918D01*
X77673616Y-69355309D01*
X77666500Y-69381865D01*
X77666500Y-69538134D01*
X77666499Y-69538134D01*
X77706945Y-69689079D01*
X77706948Y-69689086D01*
X77785079Y-69824413D01*
X77785087Y-69824423D01*
X77895576Y-69934912D01*
X77895583Y-69934918D01*
X77951501Y-69967202D01*
X78000493Y-70018582D01*
X78014500Y-70076320D01*
X78014500Y-71428202D01*
X77994498Y-71496323D01*
X77943131Y-71540832D01*
X77943335Y-71541214D01*
X77941653Y-71542112D01*
X77940842Y-71542816D01*
X77938127Y-71543997D01*
X77937874Y-71544132D01*
X77781542Y-71648591D01*
X77781536Y-71648596D01*
X77648596Y-71781536D01*
X77648591Y-71781542D01*
X77544133Y-71937875D01*
X77472183Y-72111577D01*
X77472181Y-72111582D01*
X77435500Y-72295987D01*
X73340500Y-72295987D01*
X73340500Y-68513055D01*
X73360502Y-68444934D01*
X73414158Y-68398441D01*
X73484432Y-68388337D01*
X73538295Y-68411024D01*
X73538431Y-68410789D01*
X73540304Y-68411870D01*
X73543204Y-68413092D01*
X73545581Y-68414916D01*
X73545583Y-68414918D01*
X73680918Y-68493054D01*
X73831864Y-68533500D01*
X73831866Y-68533500D01*
X73988134Y-68533500D01*
X73988136Y-68533500D01*
X74139082Y-68493054D01*
X74274417Y-68414918D01*
X74336931Y-68352403D01*
X74399241Y-68318380D01*
X74426025Y-68315500D01*
X74619435Y-68315500D01*
X74619436Y-68315500D01*
X74667186Y-68302705D01*
X74667188Y-68302705D01*
X74704841Y-68292615D01*
X74714938Y-68289910D01*
X74800562Y-68240475D01*
X74870475Y-68170562D01*
X76248632Y-66792405D01*
X76310944Y-66758379D01*
X76337727Y-66755500D01*
X77569435Y-66755500D01*
X77569436Y-66755500D01*
X77617186Y-66742705D01*
X77617188Y-66742705D01*
X77654841Y-66732615D01*
X77664938Y-66729910D01*
X77750562Y-66680475D01*
X77820475Y-66610562D01*
X79890631Y-64540404D01*
X79952943Y-64506380D01*
X79979726Y-64503500D01*
X80108134Y-64503500D01*
X80108136Y-64503500D01*
X80259082Y-64463054D01*
X80394417Y-64384918D01*
X80504918Y-64274417D01*
X80583054Y-64139082D01*
X80623500Y-63988136D01*
X80623500Y-63831864D01*
X80583054Y-63680918D01*
X80537330Y-63601722D01*
X80504920Y-63545586D01*
X80504912Y-63545576D01*
X80394423Y-63435087D01*
X80394413Y-63435079D01*
X80259086Y-63356948D01*
X80259083Y-63356947D01*
X80259082Y-63356946D01*
X80259080Y-63356945D01*
X80259079Y-63356945D01*
X80218633Y-63346107D01*
X80108136Y-63316500D01*
X79951864Y-63316500D01*
X79870974Y-63338174D01*
X79800920Y-63356945D01*
X79800913Y-63356948D01*
X79665586Y-63435079D01*
X79665576Y-63435087D01*
X79555087Y-63545576D01*
X79555079Y-63545586D01*
X79476948Y-63680913D01*
X79476945Y-63680920D01*
X79455383Y-63761391D01*
X79437380Y-63828582D01*
X79436500Y-63831865D01*
X79436500Y-63880273D01*
X79416498Y-63948394D01*
X79399595Y-63969368D01*
X77401368Y-65967595D01*
X77339056Y-66001621D01*
X77312273Y-66004500D01*
X76179436Y-66004500D01*
X76080564Y-66004500D01*
X76045879Y-66013794D01*
X76045878Y-66013793D01*
X75985069Y-66030087D01*
X75985057Y-66030092D01*
X75899441Y-66079522D01*
X75899437Y-66079526D01*
X74483244Y-67495718D01*
X74420932Y-67529744D01*
X74350116Y-67524679D01*
X74305054Y-67495718D01*
X74274423Y-67465087D01*
X74274413Y-67465079D01*
X74139086Y-67386948D01*
X74139083Y-67386947D01*
X74139082Y-67386946D01*
X74139080Y-67386945D01*
X74139079Y-67386945D01*
X74098633Y-67376107D01*
X73988136Y-67346500D01*
X73831864Y-67346500D01*
X73755566Y-67366944D01*
X73680920Y-67386945D01*
X73680913Y-67386948D01*
X73545581Y-67465082D01*
X73543197Y-67466912D01*
X73540825Y-67467828D01*
X73538431Y-67469211D01*
X73538215Y-67468837D01*
X73476975Y-67492508D01*
X73407427Y-67478238D01*
X73356635Y-67428633D01*
X73340500Y-67366944D01*
X73340500Y-64053857D01*
X73322890Y-63988136D01*
X73316614Y-63964712D01*
X73297995Y-63932463D01*
X73270471Y-63884790D01*
X73240763Y-63855082D01*
X73205212Y-63819531D01*
X72987404Y-63601722D01*
X72953379Y-63539410D01*
X72950500Y-63512627D01*
X72950500Y-61288134D01*
X73296499Y-61288134D01*
X73336945Y-61439079D01*
X73336948Y-61439086D01*
X73415079Y-61574413D01*
X73415087Y-61574423D01*
X73525576Y-61684912D01*
X73525581Y-61684916D01*
X73525583Y-61684918D01*
X73660918Y-61763054D01*
X73811864Y-61803500D01*
X73811866Y-61803500D01*
X73968134Y-61803500D01*
X73968136Y-61803500D01*
X74119082Y-61763054D01*
X74254417Y-61684918D01*
X74301201Y-61638134D01*
X79446499Y-61638134D01*
X79486945Y-61789079D01*
X79486948Y-61789086D01*
X79565079Y-61924413D01*
X79565087Y-61924423D01*
X79675576Y-62034912D01*
X79675581Y-62034916D01*
X79675583Y-62034918D01*
X79810918Y-62113054D01*
X79961864Y-62153500D01*
X79961866Y-62153500D01*
X80118134Y-62153500D01*
X80118136Y-62153500D01*
X80269082Y-62113054D01*
X80404417Y-62034918D01*
X80514918Y-61924417D01*
X80593054Y-61789082D01*
X80633500Y-61638136D01*
X80633500Y-61481864D01*
X80593054Y-61330918D01*
X80514918Y-61195583D01*
X80514916Y-61195581D01*
X80514912Y-61195576D01*
X80404423Y-61085087D01*
X80404413Y-61085079D01*
X80269086Y-61006948D01*
X80269083Y-61006947D01*
X80269082Y-61006946D01*
X80269080Y-61006945D01*
X80269079Y-61006945D01*
X80228633Y-60996107D01*
X80118136Y-60966500D01*
X79961864Y-60966500D01*
X79890440Y-60985638D01*
X79810920Y-61006945D01*
X79810913Y-61006948D01*
X79675586Y-61085079D01*
X79675576Y-61085087D01*
X79565087Y-61195576D01*
X79565079Y-61195586D01*
X79486948Y-61330913D01*
X79486945Y-61330920D01*
X79461303Y-61426615D01*
X79457964Y-61439082D01*
X79446500Y-61481865D01*
X79446500Y-61638134D01*
X79446499Y-61638134D01*
X74301201Y-61638134D01*
X74364918Y-61574417D01*
X74443054Y-61439082D01*
X74483500Y-61288136D01*
X74483500Y-61131864D01*
X74443054Y-60980918D01*
X74393398Y-60894912D01*
X74364920Y-60845586D01*
X74364912Y-60845576D01*
X74254423Y-60735087D01*
X74254413Y-60735079D01*
X74119086Y-60656948D01*
X74119083Y-60656947D01*
X74119082Y-60656946D01*
X74119080Y-60656945D01*
X74119079Y-60656945D01*
X74078633Y-60646107D01*
X73968136Y-60616500D01*
X73811864Y-60616500D01*
X73730974Y-60638174D01*
X73660920Y-60656945D01*
X73660913Y-60656948D01*
X73525586Y-60735079D01*
X73525576Y-60735087D01*
X73415087Y-60845576D01*
X73415079Y-60845586D01*
X73336948Y-60980913D01*
X73336945Y-60980920D01*
X73296500Y-61131865D01*
X73296500Y-61288134D01*
X73296499Y-61288134D01*
X72950500Y-61288134D01*
X72950500Y-58802500D01*
X72970502Y-58734379D01*
X73024158Y-58687886D01*
X73076500Y-58676500D01*
X76510000Y-58676500D01*
X76578121Y-58696502D01*
X76624614Y-58750158D01*
X76634718Y-58820432D01*
X76631707Y-58835111D01*
X76616500Y-58891865D01*
X76616500Y-59048134D01*
X76616499Y-59048134D01*
X76656945Y-59199079D01*
X76656948Y-59199086D01*
X76735079Y-59334413D01*
X76735087Y-59334423D01*
X76845576Y-59444912D01*
X76845581Y-59444916D01*
X76845583Y-59444918D01*
X76845584Y-59444919D01*
X76845586Y-59444920D01*
X76913500Y-59484130D01*
X76962493Y-59535512D01*
X76976500Y-59593249D01*
X76976500Y-59728134D01*
X76976499Y-59728134D01*
X77016945Y-59879079D01*
X77016948Y-59879086D01*
X77095079Y-60014413D01*
X77095087Y-60014423D01*
X77205576Y-60124912D01*
X77205581Y-60124916D01*
X77205583Y-60124918D01*
X77205584Y-60124919D01*
X77205586Y-60124920D01*
X77292694Y-60175212D01*
X77340918Y-60203054D01*
X77491864Y-60243500D01*
X77491866Y-60243500D01*
X77648134Y-60243500D01*
X77648136Y-60243500D01*
X77799082Y-60203054D01*
X77934417Y-60124918D01*
X78044918Y-60014417D01*
X78123054Y-59879082D01*
X78163500Y-59728136D01*
X78163500Y-59620570D01*
X78183502Y-59552449D01*
X78226500Y-59511451D01*
X78280192Y-59480451D01*
X78324417Y-59454918D01*
X78434918Y-59344417D01*
X78513054Y-59209082D01*
X78553500Y-59058136D01*
X78553500Y-58901864D01*
X78535613Y-58835109D01*
X78537303Y-58764135D01*
X78577097Y-58705339D01*
X78642361Y-58677391D01*
X78657320Y-58676500D01*
X79678628Y-58676500D01*
X79746749Y-58696502D01*
X79767723Y-58713405D01*
X81754781Y-60700464D01*
X81754786Y-60700468D01*
X81754788Y-60700470D01*
X81754789Y-60700471D01*
X81754791Y-60700472D01*
X81814733Y-60735079D01*
X81814738Y-60735082D01*
X81834712Y-60746614D01*
X81923856Y-60770500D01*
X82228974Y-60770500D01*
X82297095Y-60790502D01*
X82318069Y-60807405D01*
X82405576Y-60894912D01*
X82405581Y-60894916D01*
X82405583Y-60894918D01*
X82540918Y-60973054D01*
X82691864Y-61013500D01*
X82691866Y-61013500D01*
X82848134Y-61013500D01*
X82848136Y-61013500D01*
X82999082Y-60973054D01*
X83134417Y-60894918D01*
X83244918Y-60784417D01*
X83323054Y-60649082D01*
X83363500Y-60498136D01*
X83363500Y-60341864D01*
X83323054Y-60190918D01*
X83281578Y-60119079D01*
X83244920Y-60055586D01*
X83244912Y-60055576D01*
X83134423Y-59945087D01*
X83134419Y-59945084D01*
X83134417Y-59945082D01*
X83110427Y-59931231D01*
X83061435Y-59879850D01*
X83047998Y-59810137D01*
X83074385Y-59744226D01*
X83110428Y-59712994D01*
X83124417Y-59704918D01*
X83234918Y-59594417D01*
X83313054Y-59459082D01*
X83353500Y-59308136D01*
X83353500Y-59151864D01*
X83313054Y-59000918D01*
X83250092Y-58891865D01*
X83234920Y-58865586D01*
X83234912Y-58865576D01*
X83124423Y-58755087D01*
X83124413Y-58755079D01*
X82989086Y-58676948D01*
X82989083Y-58676947D01*
X82989082Y-58676946D01*
X82989080Y-58676945D01*
X82989079Y-58676945D01*
X82948633Y-58666107D01*
X82838136Y-58636500D01*
X82681864Y-58636500D01*
X82600974Y-58658174D01*
X82530920Y-58676945D01*
X82530911Y-58676949D01*
X82495274Y-58697524D01*
X82426278Y-58714261D01*
X82359187Y-58691039D01*
X82343181Y-58677499D01*
X80635218Y-56969535D01*
X80635208Y-56969527D01*
X80555292Y-56923387D01*
X80544759Y-56920564D01*
X80466144Y-56899500D01*
X80466142Y-56899500D01*
X73977372Y-56899500D01*
X73909251Y-56879498D01*
X73888277Y-56862595D01*
X72432767Y-55407085D01*
X72398741Y-55344773D01*
X72403806Y-55273958D01*
X72446353Y-55217122D01*
X72494645Y-55197454D01*
X72494159Y-55195637D01*
X72502134Y-55193500D01*
X72502136Y-55193500D01*
X72653082Y-55153054D01*
X72788417Y-55074918D01*
X72898918Y-54964417D01*
X72977054Y-54829082D01*
X73017500Y-54678136D01*
X73017500Y-54521864D01*
X72977054Y-54370918D01*
X72905786Y-54247478D01*
X72898920Y-54235586D01*
X72898912Y-54235576D01*
X72862431Y-54199095D01*
X72828405Y-54136783D01*
X72833470Y-54065968D01*
X72862431Y-54020905D01*
X72908912Y-53974423D01*
X72908918Y-53974417D01*
X72987054Y-53839082D01*
X73027500Y-53688136D01*
X73027500Y-53531864D01*
X72987054Y-53380918D01*
X72954609Y-53324721D01*
X72908920Y-53245586D01*
X72908919Y-53245585D01*
X72908918Y-53245583D01*
X72897430Y-53234095D01*
X72863405Y-53171787D01*
X72868468Y-53100971D01*
X72897429Y-53055905D01*
X72928918Y-53024417D01*
X73007054Y-52889082D01*
X73047500Y-52738136D01*
X73047500Y-52581864D01*
X73007054Y-52430918D01*
X72928918Y-52295583D01*
X72928916Y-52295581D01*
X72928912Y-52295576D01*
X72818423Y-52185087D01*
X72818413Y-52185079D01*
X72683086Y-52106948D01*
X72683083Y-52106947D01*
X72683082Y-52106946D01*
X72683080Y-52106945D01*
X72683079Y-52106945D01*
X72642633Y-52096107D01*
X72532136Y-52066500D01*
X72408372Y-52066500D01*
X72340251Y-52046498D01*
X72319277Y-52029595D01*
X70899218Y-50609535D01*
X70899208Y-50609527D01*
X70819292Y-50563387D01*
X70808759Y-50560564D01*
X70730144Y-50539500D01*
X70626144Y-50539500D01*
X66841745Y-50539500D01*
X66773624Y-50519498D01*
X66727131Y-50465842D01*
X66717027Y-50395568D01*
X66746521Y-50330988D01*
X66778745Y-50304381D01*
X66792070Y-50296687D01*
X66864417Y-50254918D01*
X66974918Y-50144417D01*
X67053054Y-50009082D01*
X67093500Y-49858136D01*
X67093500Y-49701864D01*
X67053054Y-49550918D01*
X66991569Y-49444423D01*
X66974920Y-49415586D01*
X66974912Y-49415576D01*
X66864423Y-49305087D01*
X66864413Y-49305079D01*
X66729086Y-49226948D01*
X66729083Y-49226947D01*
X66729082Y-49226946D01*
X66729080Y-49226945D01*
X66729079Y-49226945D01*
X66688633Y-49216107D01*
X66578136Y-49186500D01*
X66421864Y-49186500D01*
X66340974Y-49208174D01*
X66270920Y-49226945D01*
X66270913Y-49226948D01*
X66135586Y-49305079D01*
X66135576Y-49305087D01*
X66025087Y-49415576D01*
X66025079Y-49415586D01*
X65946948Y-49550913D01*
X65946945Y-49550920D01*
X65945012Y-49558134D01*
X65910680Y-49686266D01*
X65906500Y-49701865D01*
X65906500Y-49858134D01*
X65906499Y-49858134D01*
X65946945Y-50009079D01*
X65946948Y-50009086D01*
X66025079Y-50144413D01*
X66025087Y-50144423D01*
X66135576Y-50254912D01*
X66135581Y-50254916D01*
X66135583Y-50254918D01*
X66135584Y-50254919D01*
X66135586Y-50254920D01*
X66221255Y-50304381D01*
X66270248Y-50355763D01*
X66283684Y-50425477D01*
X66257298Y-50491388D01*
X66199466Y-50532570D01*
X66158255Y-50539500D01*
X52853856Y-50539500D01*
X52799297Y-50554118D01*
X52764707Y-50563387D01*
X52684791Y-50609527D01*
X52684781Y-50609535D01*
X50183209Y-53111108D01*
X50120897Y-53145134D01*
X50050082Y-53140069D01*
X49993246Y-53097522D01*
X49968435Y-53031002D01*
X49974280Y-52983080D01*
X49999192Y-52906411D01*
X50026290Y-52735321D01*
X50026290Y-52562099D01*
X49999192Y-52391009D01*
X49945663Y-52226265D01*
X49867022Y-52071922D01*
X49765204Y-51931782D01*
X49765202Y-51931779D01*
X49642720Y-51809297D01*
X49502578Y-51707478D01*
X49348242Y-51628840D01*
X49348238Y-51628838D01*
X49348235Y-51628837D01*
X49183491Y-51575308D01*
X49012401Y-51548210D01*
X48839179Y-51548210D01*
X48668089Y-51575308D01*
X48668086Y-51575308D01*
X48668085Y-51575309D01*
X48589043Y-51600991D01*
X48503345Y-51628837D01*
X48503343Y-51628837D01*
X48503337Y-51628840D01*
X48349001Y-51707478D01*
X48208859Y-51809297D01*
X48086377Y-51931779D01*
X47984558Y-52071921D01*
X47905920Y-52226257D01*
X47905917Y-52226263D01*
X47905917Y-52226265D01*
X47852388Y-52391009D01*
X47825290Y-52562099D01*
X47825290Y-52735321D01*
X47852388Y-52906411D01*
X47905917Y-53071155D01*
X47905918Y-53071158D01*
X47905920Y-53071162D01*
X47984558Y-53225498D01*
X48081872Y-53359439D01*
X48105730Y-53426307D01*
X48089650Y-53495458D01*
X48038736Y-53544938D01*
X47979936Y-53559500D01*
X47618356Y-53559500D01*
X47568328Y-53572905D01*
X47529207Y-53583387D01*
X47449291Y-53629527D01*
X47449285Y-53629532D01*
X46939625Y-54139191D01*
X46877313Y-54173216D01*
X46811594Y-54169928D01*
X46643496Y-54115309D01*
X46643492Y-54115308D01*
X46643491Y-54115308D01*
X46472401Y-54088210D01*
X46299179Y-54088210D01*
X46128089Y-54115308D01*
X46128086Y-54115308D01*
X46128085Y-54115309D01*
X46061996Y-54136783D01*
X45963345Y-54168837D01*
X45963343Y-54168837D01*
X45963337Y-54168840D01*
X45809001Y-54247478D01*
X45668859Y-54349297D01*
X45546377Y-54471779D01*
X45444558Y-54611921D01*
X45365920Y-54766257D01*
X45365917Y-54766263D01*
X45365917Y-54766265D01*
X45312388Y-54931009D01*
X45285290Y-55102099D01*
X43525500Y-55102099D01*
X43525500Y-52562099D01*
X45285290Y-52562099D01*
X45285290Y-52735321D01*
X45312388Y-52906411D01*
X45365917Y-53071155D01*
X45365918Y-53071158D01*
X45365920Y-53071162D01*
X45444558Y-53225498D01*
X45546377Y-53365640D01*
X45668859Y-53488122D01*
X45678956Y-53495458D01*
X45809002Y-53589942D01*
X45963345Y-53668583D01*
X46128089Y-53722112D01*
X46299179Y-53749210D01*
X46299182Y-53749210D01*
X46472398Y-53749210D01*
X46472401Y-53749210D01*
X46643491Y-53722112D01*
X46808235Y-53668583D01*
X46962578Y-53589942D01*
X47102718Y-53488124D01*
X47225204Y-53365638D01*
X47327022Y-53225498D01*
X47405663Y-53071155D01*
X47459192Y-52906411D01*
X47486290Y-52735321D01*
X47486290Y-52562099D01*
X47459192Y-52391009D01*
X47405663Y-52226265D01*
X47327022Y-52071922D01*
X47225204Y-51931782D01*
X47225202Y-51931779D01*
X47102720Y-51809297D01*
X46962578Y-51707478D01*
X46808242Y-51628840D01*
X46808238Y-51628838D01*
X46808235Y-51628837D01*
X46643491Y-51575308D01*
X46472401Y-51548210D01*
X46299179Y-51548210D01*
X46128089Y-51575308D01*
X46128086Y-51575308D01*
X46128085Y-51575309D01*
X46049043Y-51600991D01*
X45963345Y-51628837D01*
X45963343Y-51628837D01*
X45963337Y-51628840D01*
X45809001Y-51707478D01*
X45668859Y-51809297D01*
X45546377Y-51931779D01*
X45444558Y-52071921D01*
X45365920Y-52226257D01*
X45365917Y-52226263D01*
X45365917Y-52226265D01*
X45312388Y-52391009D01*
X45285290Y-52562099D01*
X43525500Y-52562099D01*
X43525500Y-50022099D01*
X45285290Y-50022099D01*
X45285290Y-50195321D01*
X45312388Y-50366411D01*
X45365917Y-50531155D01*
X45365918Y-50531158D01*
X45365920Y-50531162D01*
X45444558Y-50685498D01*
X45546377Y-50825640D01*
X45668859Y-50948122D01*
X45668862Y-50948124D01*
X45809002Y-51049942D01*
X45963345Y-51128583D01*
X46128089Y-51182112D01*
X46299179Y-51209210D01*
X46299182Y-51209210D01*
X46472398Y-51209210D01*
X46472401Y-51209210D01*
X46643491Y-51182112D01*
X46808235Y-51128583D01*
X46962578Y-51049942D01*
X47102718Y-50948124D01*
X47225204Y-50825638D01*
X47327022Y-50685498D01*
X47405663Y-50531155D01*
X47459192Y-50366411D01*
X47486290Y-50195321D01*
X47486290Y-50022099D01*
X47825290Y-50022099D01*
X47825290Y-50195321D01*
X47852388Y-50366411D01*
X47905917Y-50531155D01*
X47905918Y-50531158D01*
X47905920Y-50531162D01*
X47984558Y-50685498D01*
X48086377Y-50825640D01*
X48208859Y-50948122D01*
X48208862Y-50948124D01*
X48349002Y-51049942D01*
X48503345Y-51128583D01*
X48668089Y-51182112D01*
X48839179Y-51209210D01*
X48839182Y-51209210D01*
X49012398Y-51209210D01*
X49012401Y-51209210D01*
X49183491Y-51182112D01*
X49348235Y-51128583D01*
X49502578Y-51049942D01*
X49642718Y-50948124D01*
X49765204Y-50825638D01*
X49867022Y-50685498D01*
X49945663Y-50531155D01*
X49999192Y-50366411D01*
X50026290Y-50195321D01*
X50026290Y-50022099D01*
X49999192Y-49851009D01*
X49945663Y-49686265D01*
X49867022Y-49531922D01*
X49782499Y-49415586D01*
X49765202Y-49391779D01*
X49642720Y-49269297D01*
X49502578Y-49167478D01*
X49348242Y-49088840D01*
X49348238Y-49088838D01*
X49348235Y-49088837D01*
X49183491Y-49035308D01*
X49012401Y-49008210D01*
X48839179Y-49008210D01*
X48668089Y-49035308D01*
X48668086Y-49035308D01*
X48668085Y-49035309D01*
X48589043Y-49060991D01*
X48503345Y-49088837D01*
X48503343Y-49088837D01*
X48503337Y-49088840D01*
X48349001Y-49167478D01*
X48208859Y-49269297D01*
X48086377Y-49391779D01*
X47984558Y-49531921D01*
X47905920Y-49686257D01*
X47905917Y-49686263D01*
X47905917Y-49686265D01*
X47852388Y-49851009D01*
X47825290Y-50022099D01*
X47486290Y-50022099D01*
X47459192Y-49851009D01*
X47405663Y-49686265D01*
X47327022Y-49531922D01*
X47242499Y-49415586D01*
X47225202Y-49391779D01*
X47102720Y-49269297D01*
X46962578Y-49167478D01*
X46808242Y-49088840D01*
X46808238Y-49088838D01*
X46808235Y-49088837D01*
X46643491Y-49035308D01*
X46472401Y-49008210D01*
X46299179Y-49008210D01*
X46128089Y-49035308D01*
X46128086Y-49035308D01*
X46128085Y-49035309D01*
X46049043Y-49060991D01*
X45963345Y-49088837D01*
X45963343Y-49088837D01*
X45963337Y-49088840D01*
X45809001Y-49167478D01*
X45668859Y-49269297D01*
X45546377Y-49391779D01*
X45444558Y-49531921D01*
X45365920Y-49686257D01*
X45365917Y-49686263D01*
X45365917Y-49686265D01*
X45312388Y-49851009D01*
X45285290Y-50022099D01*
X43525500Y-50022099D01*
X43525500Y-47482099D01*
X47825290Y-47482099D01*
X47825290Y-47655321D01*
X47852388Y-47826411D01*
X47905917Y-47991155D01*
X47905918Y-47991158D01*
X47905920Y-47991162D01*
X47984558Y-48145498D01*
X48086377Y-48285640D01*
X48208859Y-48408122D01*
X48208862Y-48408124D01*
X48349002Y-48509942D01*
X48503345Y-48588583D01*
X48668089Y-48642112D01*
X48839179Y-48669210D01*
X48839182Y-48669210D01*
X49012398Y-48669210D01*
X49012401Y-48669210D01*
X49183491Y-48642112D01*
X49348235Y-48588583D01*
X49502578Y-48509942D01*
X49642718Y-48408124D01*
X49765204Y-48285638D01*
X49867022Y-48145498D01*
X49945663Y-47991155D01*
X49999192Y-47826411D01*
X50026290Y-47655321D01*
X50026290Y-47482099D01*
X49999192Y-47311009D01*
X49945663Y-47146265D01*
X49867022Y-46991922D01*
X49765204Y-46851782D01*
X49765202Y-46851779D01*
X49642720Y-46729297D01*
X49502578Y-46627478D01*
X49348242Y-46548840D01*
X49348238Y-46548838D01*
X49348235Y-46548837D01*
X49183491Y-46495308D01*
X49012401Y-46468210D01*
X48839179Y-46468210D01*
X48668089Y-46495308D01*
X48668086Y-46495308D01*
X48668085Y-46495309D01*
X48589043Y-46520991D01*
X48503345Y-46548837D01*
X48503343Y-46548837D01*
X48503337Y-46548840D01*
X48349001Y-46627478D01*
X48208859Y-46729297D01*
X48086377Y-46851779D01*
X47984558Y-46991921D01*
X47905920Y-47146257D01*
X47905917Y-47146263D01*
X47905917Y-47146265D01*
X47852388Y-47311009D01*
X47825290Y-47482099D01*
X43525500Y-47482099D01*
X43525500Y-44942099D01*
X45285290Y-44942099D01*
X45285290Y-45115321D01*
X45312388Y-45286411D01*
X45365917Y-45451155D01*
X45365918Y-45451158D01*
X45365920Y-45451162D01*
X45444558Y-45605498D01*
X45546377Y-45745640D01*
X45668859Y-45868122D01*
X45668862Y-45868124D01*
X45809002Y-45969942D01*
X45963345Y-46048583D01*
X46128089Y-46102112D01*
X46299179Y-46129210D01*
X46299182Y-46129210D01*
X46472398Y-46129210D01*
X46472401Y-46129210D01*
X46643491Y-46102112D01*
X46808235Y-46048583D01*
X46962578Y-45969942D01*
X47102718Y-45868124D01*
X47225204Y-45745638D01*
X47327022Y-45605498D01*
X47405663Y-45451155D01*
X47459192Y-45286411D01*
X47486290Y-45115321D01*
X47486290Y-44942099D01*
X47825290Y-44942099D01*
X47825290Y-45115321D01*
X47852388Y-45286411D01*
X47905917Y-45451155D01*
X47905918Y-45451158D01*
X47905920Y-45451162D01*
X47984558Y-45605498D01*
X48086377Y-45745640D01*
X48208859Y-45868122D01*
X48208862Y-45868124D01*
X48349002Y-45969942D01*
X48503345Y-46048583D01*
X48668089Y-46102112D01*
X48839179Y-46129210D01*
X48839182Y-46129210D01*
X49012398Y-46129210D01*
X49012401Y-46129210D01*
X49183491Y-46102112D01*
X49348235Y-46048583D01*
X49502578Y-45969942D01*
X49642718Y-45868124D01*
X49765204Y-45745638D01*
X49867022Y-45605498D01*
X49945663Y-45451155D01*
X49999192Y-45286411D01*
X50026290Y-45115321D01*
X50026290Y-44942099D01*
X49999192Y-44771009D01*
X49945663Y-44606265D01*
X49867022Y-44451922D01*
X49765204Y-44311782D01*
X49765202Y-44311779D01*
X49642720Y-44189297D01*
X49502578Y-44087478D01*
X49348242Y-44008840D01*
X49348238Y-44008838D01*
X49348235Y-44008837D01*
X49183491Y-43955308D01*
X49012401Y-43928210D01*
X48839179Y-43928210D01*
X48668089Y-43955308D01*
X48668086Y-43955308D01*
X48668085Y-43955309D01*
X48589043Y-43980991D01*
X48503345Y-44008837D01*
X48503343Y-44008837D01*
X48503337Y-44008840D01*
X48349001Y-44087478D01*
X48208859Y-44189297D01*
X48086377Y-44311779D01*
X47984558Y-44451921D01*
X47905920Y-44606257D01*
X47905917Y-44606263D01*
X47905917Y-44606265D01*
X47852388Y-44771009D01*
X47825290Y-44942099D01*
X47486290Y-44942099D01*
X47459192Y-44771009D01*
X47405663Y-44606265D01*
X47327022Y-44451922D01*
X47225204Y-44311782D01*
X47225202Y-44311779D01*
X47102720Y-44189297D01*
X46962578Y-44087478D01*
X46808242Y-44008840D01*
X46808238Y-44008838D01*
X46808235Y-44008837D01*
X46643491Y-43955308D01*
X46472401Y-43928210D01*
X46299179Y-43928210D01*
X46128089Y-43955308D01*
X46128086Y-43955308D01*
X46128085Y-43955309D01*
X46049043Y-43980991D01*
X45963345Y-44008837D01*
X45963343Y-44008837D01*
X45963337Y-44008840D01*
X45809001Y-44087478D01*
X45668859Y-44189297D01*
X45546377Y-44311779D01*
X45444558Y-44451921D01*
X45365920Y-44606257D01*
X45365917Y-44606263D01*
X45365917Y-44606265D01*
X45312388Y-44771009D01*
X45285290Y-44942099D01*
X43525500Y-44942099D01*
X43525500Y-42402099D01*
X45285290Y-42402099D01*
X45285290Y-42575321D01*
X45312388Y-42746411D01*
X45365917Y-42911155D01*
X45365918Y-42911158D01*
X45365920Y-42911162D01*
X45444558Y-43065498D01*
X45546377Y-43205640D01*
X45668859Y-43328122D01*
X45668862Y-43328124D01*
X45809002Y-43429942D01*
X45963345Y-43508583D01*
X46128089Y-43562112D01*
X46299179Y-43589210D01*
X46299182Y-43589210D01*
X46472398Y-43589210D01*
X46472401Y-43589210D01*
X46643491Y-43562112D01*
X46808235Y-43508583D01*
X46962578Y-43429942D01*
X47102718Y-43328124D01*
X47225204Y-43205638D01*
X47327022Y-43065498D01*
X47405663Y-42911155D01*
X47459192Y-42746411D01*
X47486290Y-42575321D01*
X47486290Y-42402099D01*
X47825290Y-42402099D01*
X47825290Y-42575321D01*
X47852388Y-42746411D01*
X47905917Y-42911155D01*
X47905918Y-42911158D01*
X47905920Y-42911162D01*
X47984558Y-43065498D01*
X48086377Y-43205640D01*
X48208859Y-43328122D01*
X48208862Y-43328124D01*
X48349002Y-43429942D01*
X48503345Y-43508583D01*
X48668089Y-43562112D01*
X48839179Y-43589210D01*
X48839182Y-43589210D01*
X49012398Y-43589210D01*
X49012401Y-43589210D01*
X49183491Y-43562112D01*
X49348235Y-43508583D01*
X49502578Y-43429942D01*
X49642718Y-43328124D01*
X49765204Y-43205638D01*
X49867022Y-43065498D01*
X49945663Y-42911155D01*
X49999192Y-42746411D01*
X50026290Y-42575321D01*
X50026290Y-42402099D01*
X49999192Y-42231009D01*
X49945663Y-42066265D01*
X49867022Y-41911922D01*
X49765204Y-41771782D01*
X49765202Y-41771779D01*
X49642720Y-41649297D01*
X49502578Y-41547478D01*
X49348242Y-41468840D01*
X49348238Y-41468838D01*
X49348235Y-41468837D01*
X49183491Y-41415308D01*
X49012401Y-41388210D01*
X48839179Y-41388210D01*
X48668089Y-41415308D01*
X48668086Y-41415308D01*
X48668085Y-41415309D01*
X48589043Y-41440991D01*
X48503345Y-41468837D01*
X48503343Y-41468837D01*
X48503337Y-41468840D01*
X48349001Y-41547478D01*
X48208859Y-41649297D01*
X48086377Y-41771779D01*
X47984558Y-41911921D01*
X47905920Y-42066257D01*
X47905917Y-42066266D01*
X47856751Y-42217582D01*
X47852388Y-42231009D01*
X47825290Y-42402099D01*
X47486290Y-42402099D01*
X47459192Y-42231009D01*
X47405663Y-42066265D01*
X47327022Y-41911922D01*
X47225204Y-41771782D01*
X47225202Y-41771779D01*
X47102720Y-41649297D01*
X46962578Y-41547478D01*
X46808242Y-41468840D01*
X46808238Y-41468838D01*
X46808235Y-41468837D01*
X46643491Y-41415308D01*
X46472401Y-41388210D01*
X46299179Y-41388210D01*
X46128089Y-41415308D01*
X46128086Y-41415308D01*
X46128085Y-41415309D01*
X46049043Y-41440991D01*
X45963345Y-41468837D01*
X45963343Y-41468837D01*
X45963337Y-41468840D01*
X45809001Y-41547478D01*
X45668859Y-41649297D01*
X45546377Y-41771779D01*
X45444558Y-41911921D01*
X45365920Y-42066257D01*
X45365917Y-42066266D01*
X45316751Y-42217582D01*
X45312388Y-42231009D01*
X45285290Y-42402099D01*
X43525500Y-42402099D01*
X43525500Y-39862099D01*
X45285290Y-39862099D01*
X45285290Y-40035321D01*
X45312388Y-40206411D01*
X45365917Y-40371155D01*
X45365918Y-40371158D01*
X45365920Y-40371162D01*
X45444558Y-40525498D01*
X45546377Y-40665640D01*
X45668859Y-40788122D01*
X45668862Y-40788124D01*
X45809002Y-40889942D01*
X45963345Y-40968583D01*
X46128089Y-41022112D01*
X46299179Y-41049210D01*
X46299182Y-41049210D01*
X46472398Y-41049210D01*
X46472401Y-41049210D01*
X46643491Y-41022112D01*
X46808235Y-40968583D01*
X46962578Y-40889942D01*
X47102718Y-40788124D01*
X47225204Y-40665638D01*
X47327022Y-40525498D01*
X47405663Y-40371155D01*
X47459192Y-40206411D01*
X47486290Y-40035321D01*
X47486290Y-39862099D01*
X47825290Y-39862099D01*
X47825290Y-40035321D01*
X47852388Y-40206411D01*
X47905917Y-40371155D01*
X47905918Y-40371158D01*
X47905920Y-40371162D01*
X47984558Y-40525498D01*
X48086377Y-40665640D01*
X48208859Y-40788122D01*
X48208862Y-40788124D01*
X48349002Y-40889942D01*
X48503345Y-40968583D01*
X48668089Y-41022112D01*
X48839179Y-41049210D01*
X48839182Y-41049210D01*
X49012398Y-41049210D01*
X49012401Y-41049210D01*
X49183491Y-41022112D01*
X49348235Y-40968583D01*
X49502578Y-40889942D01*
X49642718Y-40788124D01*
X49765204Y-40665638D01*
X49867022Y-40525498D01*
X49945663Y-40371155D01*
X49999192Y-40206411D01*
X50026290Y-40035321D01*
X50026290Y-39862099D01*
X49999192Y-39691009D01*
X49945663Y-39526265D01*
X49867022Y-39371922D01*
X49765204Y-39231782D01*
X49765202Y-39231779D01*
X49642720Y-39109297D01*
X49502578Y-39007478D01*
X49348242Y-38928840D01*
X49348238Y-38928838D01*
X49348235Y-38928837D01*
X49183491Y-38875308D01*
X49012401Y-38848210D01*
X48839179Y-38848210D01*
X48668089Y-38875308D01*
X48668086Y-38875308D01*
X48668085Y-38875309D01*
X48589043Y-38900991D01*
X48503345Y-38928837D01*
X48503343Y-38928837D01*
X48503337Y-38928840D01*
X48349001Y-39007478D01*
X48208859Y-39109297D01*
X48086377Y-39231779D01*
X47984558Y-39371921D01*
X47905920Y-39526257D01*
X47905917Y-39526263D01*
X47905917Y-39526265D01*
X47852388Y-39691009D01*
X47825290Y-39862099D01*
X47486290Y-39862099D01*
X47459192Y-39691009D01*
X47405663Y-39526265D01*
X47327022Y-39371922D01*
X47225204Y-39231782D01*
X47225202Y-39231779D01*
X47102720Y-39109297D01*
X46962578Y-39007478D01*
X46808242Y-38928840D01*
X46808238Y-38928838D01*
X46808235Y-38928837D01*
X46643491Y-38875308D01*
X46472401Y-38848210D01*
X46299179Y-38848210D01*
X46128089Y-38875308D01*
X46128086Y-38875308D01*
X46128085Y-38875309D01*
X46049043Y-38900991D01*
X45963345Y-38928837D01*
X45963343Y-38928837D01*
X45963337Y-38928840D01*
X45809001Y-39007478D01*
X45668859Y-39109297D01*
X45546377Y-39231779D01*
X45444558Y-39371921D01*
X45365920Y-39526257D01*
X45365917Y-39526263D01*
X45365917Y-39526265D01*
X45312388Y-39691009D01*
X45285290Y-39862099D01*
X43525500Y-39862099D01*
X43525500Y-37322099D01*
X45285290Y-37322099D01*
X45285290Y-37495321D01*
X45312388Y-37666411D01*
X45365917Y-37831155D01*
X45365918Y-37831158D01*
X45365920Y-37831162D01*
X45444558Y-37985498D01*
X45546377Y-38125640D01*
X45668859Y-38248122D01*
X45668862Y-38248124D01*
X45809002Y-38349942D01*
X45963345Y-38428583D01*
X46128089Y-38482112D01*
X46299179Y-38509210D01*
X46299182Y-38509210D01*
X46472398Y-38509210D01*
X46472401Y-38509210D01*
X46643491Y-38482112D01*
X46808235Y-38428583D01*
X46962578Y-38349942D01*
X47102718Y-38248124D01*
X47225204Y-38125638D01*
X47327022Y-37985498D01*
X47405663Y-37831155D01*
X47459192Y-37666411D01*
X47486290Y-37495321D01*
X47486290Y-37322099D01*
X47825290Y-37322099D01*
X47825290Y-37495321D01*
X47852388Y-37666411D01*
X47905917Y-37831155D01*
X47905918Y-37831158D01*
X47905920Y-37831162D01*
X47984558Y-37985498D01*
X48086377Y-38125640D01*
X48208859Y-38248122D01*
X48208862Y-38248124D01*
X48349002Y-38349942D01*
X48503345Y-38428583D01*
X48668089Y-38482112D01*
X48839179Y-38509210D01*
X48839182Y-38509210D01*
X49012398Y-38509210D01*
X49012401Y-38509210D01*
X49183491Y-38482112D01*
X49348235Y-38428583D01*
X49502578Y-38349942D01*
X49642718Y-38248124D01*
X49765204Y-38125638D01*
X49867022Y-37985498D01*
X49945663Y-37831155D01*
X49999192Y-37666411D01*
X50026290Y-37495321D01*
X50026290Y-37322099D01*
X49999192Y-37151009D01*
X49945663Y-36986265D01*
X49867022Y-36831922D01*
X49765204Y-36691782D01*
X49765202Y-36691779D01*
X49642720Y-36569297D01*
X49502578Y-36467478D01*
X49348242Y-36388840D01*
X49348238Y-36388838D01*
X49348235Y-36388837D01*
X49183491Y-36335308D01*
X49012401Y-36308210D01*
X48839179Y-36308210D01*
X48668089Y-36335308D01*
X48668086Y-36335308D01*
X48668085Y-36335309D01*
X48599873Y-36357473D01*
X48503345Y-36388837D01*
X48503343Y-36388837D01*
X48503337Y-36388840D01*
X48349001Y-36467478D01*
X48208859Y-36569297D01*
X48086377Y-36691779D01*
X47984558Y-36831921D01*
X47905920Y-36986257D01*
X47905917Y-36986263D01*
X47905917Y-36986265D01*
X47852388Y-37151009D01*
X47825290Y-37322099D01*
X47486290Y-37322099D01*
X47459192Y-37151009D01*
X47405663Y-36986265D01*
X47327022Y-36831922D01*
X47225204Y-36691782D01*
X47225202Y-36691779D01*
X47102720Y-36569297D01*
X46962578Y-36467478D01*
X46808242Y-36388840D01*
X46808238Y-36388838D01*
X46808235Y-36388837D01*
X46643491Y-36335308D01*
X46472401Y-36308210D01*
X46299179Y-36308210D01*
X46128089Y-36335308D01*
X46128086Y-36335308D01*
X46128085Y-36335309D01*
X46059873Y-36357473D01*
X45963345Y-36388837D01*
X45963343Y-36388837D01*
X45963337Y-36388840D01*
X45809001Y-36467478D01*
X45668859Y-36569297D01*
X45546377Y-36691779D01*
X45444558Y-36831921D01*
X45365920Y-36986257D01*
X45365917Y-36986263D01*
X45365917Y-36986265D01*
X45312388Y-37151009D01*
X45285290Y-37322099D01*
X43525500Y-37322099D01*
X43525500Y-34782099D01*
X45285290Y-34782099D01*
X45285290Y-34955321D01*
X45312388Y-35126411D01*
X45365917Y-35291155D01*
X45365918Y-35291158D01*
X45365920Y-35291162D01*
X45444558Y-35445498D01*
X45546377Y-35585640D01*
X45668859Y-35708122D01*
X45668862Y-35708124D01*
X45809002Y-35809942D01*
X45963345Y-35888583D01*
X46128089Y-35942112D01*
X46299179Y-35969210D01*
X46299182Y-35969210D01*
X46472398Y-35969210D01*
X46472401Y-35969210D01*
X46643491Y-35942112D01*
X46808235Y-35888583D01*
X46962578Y-35809942D01*
X47102718Y-35708124D01*
X47225204Y-35585638D01*
X47327022Y-35445498D01*
X47405663Y-35291155D01*
X47459192Y-35126411D01*
X47486290Y-34955321D01*
X47486290Y-34782099D01*
X47825290Y-34782099D01*
X47825290Y-34955321D01*
X47852388Y-35126411D01*
X47905917Y-35291155D01*
X47905918Y-35291158D01*
X47905920Y-35291162D01*
X47984558Y-35445498D01*
X48086377Y-35585640D01*
X48208859Y-35708122D01*
X48208862Y-35708124D01*
X48349002Y-35809942D01*
X48503345Y-35888583D01*
X48668089Y-35942112D01*
X48839179Y-35969210D01*
X48839182Y-35969210D01*
X49012398Y-35969210D01*
X49012401Y-35969210D01*
X49183491Y-35942112D01*
X49348235Y-35888583D01*
X49502578Y-35809942D01*
X49642718Y-35708124D01*
X49765204Y-35585638D01*
X49867022Y-35445498D01*
X49945663Y-35291155D01*
X49999192Y-35126411D01*
X50026290Y-34955321D01*
X50026290Y-34782099D01*
X49999192Y-34611009D01*
X49945663Y-34446265D01*
X49867022Y-34291922D01*
X49765204Y-34151782D01*
X49765202Y-34151779D01*
X49642720Y-34029297D01*
X49502578Y-33927478D01*
X49348242Y-33848840D01*
X49348238Y-33848838D01*
X49348235Y-33848837D01*
X49183491Y-33795308D01*
X49012401Y-33768210D01*
X48839179Y-33768210D01*
X48668089Y-33795308D01*
X48668086Y-33795308D01*
X48668085Y-33795309D01*
X48589043Y-33820991D01*
X48503345Y-33848837D01*
X48503343Y-33848837D01*
X48503337Y-33848840D01*
X48349001Y-33927478D01*
X48208859Y-34029297D01*
X48086377Y-34151779D01*
X47984558Y-34291921D01*
X47905920Y-34446257D01*
X47905917Y-34446263D01*
X47905917Y-34446265D01*
X47852388Y-34611009D01*
X47825290Y-34782099D01*
X47486290Y-34782099D01*
X47459192Y-34611009D01*
X47405663Y-34446265D01*
X47327022Y-34291922D01*
X47225204Y-34151782D01*
X47225202Y-34151779D01*
X47102720Y-34029297D01*
X46962578Y-33927478D01*
X46808242Y-33848840D01*
X46808238Y-33848838D01*
X46808235Y-33848837D01*
X46643491Y-33795308D01*
X46472401Y-33768210D01*
X46299179Y-33768210D01*
X46128089Y-33795308D01*
X46128086Y-33795308D01*
X46128085Y-33795309D01*
X46049043Y-33820991D01*
X45963345Y-33848837D01*
X45963343Y-33848837D01*
X45963337Y-33848840D01*
X45809001Y-33927478D01*
X45668859Y-34029297D01*
X45546377Y-34151779D01*
X45444558Y-34291921D01*
X45365920Y-34446257D01*
X45365917Y-34446263D01*
X45365917Y-34446265D01*
X45312388Y-34611009D01*
X45285290Y-34782099D01*
X43525500Y-34782099D01*
X43525500Y-32242099D01*
X45285290Y-32242099D01*
X45285290Y-32415321D01*
X45312388Y-32586411D01*
X45365917Y-32751155D01*
X45365918Y-32751158D01*
X45365920Y-32751162D01*
X45444558Y-32905498D01*
X45546377Y-33045640D01*
X45668859Y-33168122D01*
X45668862Y-33168124D01*
X45809002Y-33269942D01*
X45963345Y-33348583D01*
X46128089Y-33402112D01*
X46299179Y-33429210D01*
X46299182Y-33429210D01*
X46472398Y-33429210D01*
X46472401Y-33429210D01*
X46643491Y-33402112D01*
X46808235Y-33348583D01*
X46962578Y-33269942D01*
X47102718Y-33168124D01*
X47225204Y-33045638D01*
X47327022Y-32905498D01*
X47405663Y-32751155D01*
X47459192Y-32586411D01*
X47486290Y-32415321D01*
X47486290Y-32242099D01*
X47825290Y-32242099D01*
X47825290Y-32415321D01*
X47852388Y-32586411D01*
X47905917Y-32751155D01*
X47905918Y-32751158D01*
X47905920Y-32751162D01*
X47984558Y-32905498D01*
X48086377Y-33045640D01*
X48208859Y-33168122D01*
X48208862Y-33168124D01*
X48349002Y-33269942D01*
X48503345Y-33348583D01*
X48668089Y-33402112D01*
X48839179Y-33429210D01*
X48839182Y-33429210D01*
X49012398Y-33429210D01*
X49012401Y-33429210D01*
X49183491Y-33402112D01*
X49348235Y-33348583D01*
X49502578Y-33269942D01*
X49642718Y-33168124D01*
X49765204Y-33045638D01*
X49867022Y-32905498D01*
X49945663Y-32751155D01*
X49999192Y-32586411D01*
X50026290Y-32415321D01*
X50026290Y-32242099D01*
X49999192Y-32071009D01*
X49945663Y-31906265D01*
X49867022Y-31751922D01*
X49765204Y-31611782D01*
X49765202Y-31611779D01*
X49642720Y-31489297D01*
X49502578Y-31387478D01*
X49348242Y-31308840D01*
X49348238Y-31308838D01*
X49348235Y-31308837D01*
X49183491Y-31255308D01*
X49012401Y-31228210D01*
X48839179Y-31228210D01*
X48668089Y-31255308D01*
X48668086Y-31255308D01*
X48668085Y-31255309D01*
X48589043Y-31280991D01*
X48503345Y-31308837D01*
X48503343Y-31308837D01*
X48503337Y-31308840D01*
X48349001Y-31387478D01*
X48208859Y-31489297D01*
X48086377Y-31611779D01*
X47984558Y-31751921D01*
X47905920Y-31906257D01*
X47905917Y-31906263D01*
X47905917Y-31906265D01*
X47852388Y-32071009D01*
X47825290Y-32242099D01*
X47486290Y-32242099D01*
X47459192Y-32071009D01*
X47405663Y-31906265D01*
X47327022Y-31751922D01*
X47225204Y-31611782D01*
X47225202Y-31611779D01*
X47102720Y-31489297D01*
X46962578Y-31387478D01*
X46808242Y-31308840D01*
X46808238Y-31308838D01*
X46808235Y-31308837D01*
X46643491Y-31255308D01*
X46472401Y-31228210D01*
X46299179Y-31228210D01*
X46128089Y-31255308D01*
X46128086Y-31255308D01*
X46128085Y-31255309D01*
X46049043Y-31280991D01*
X45963345Y-31308837D01*
X45963343Y-31308837D01*
X45963337Y-31308840D01*
X45809001Y-31387478D01*
X45668859Y-31489297D01*
X45546377Y-31611779D01*
X45444558Y-31751921D01*
X45365920Y-31906257D01*
X45365917Y-31906263D01*
X45365917Y-31906265D01*
X45312388Y-32071009D01*
X45285290Y-32242099D01*
X43525500Y-32242099D01*
X43525500Y-29702099D01*
X45285290Y-29702099D01*
X45285290Y-29875321D01*
X45312388Y-30046411D01*
X45365917Y-30211155D01*
X45365918Y-30211158D01*
X45365920Y-30211162D01*
X45444558Y-30365498D01*
X45546377Y-30505640D01*
X45668859Y-30628122D01*
X45668862Y-30628124D01*
X45809002Y-30729942D01*
X45963345Y-30808583D01*
X46128089Y-30862112D01*
X46299179Y-30889210D01*
X46299182Y-30889210D01*
X46472398Y-30889210D01*
X46472401Y-30889210D01*
X46643491Y-30862112D01*
X46808235Y-30808583D01*
X46962578Y-30729942D01*
X47102718Y-30628124D01*
X47225204Y-30505638D01*
X47327022Y-30365498D01*
X47405663Y-30211155D01*
X47459192Y-30046411D01*
X47486290Y-29875321D01*
X47486290Y-29702099D01*
X47825290Y-29702099D01*
X47825290Y-29875321D01*
X47852388Y-30046411D01*
X47905917Y-30211155D01*
X47905918Y-30211158D01*
X47905920Y-30211162D01*
X47984558Y-30365498D01*
X48086377Y-30505640D01*
X48208859Y-30628122D01*
X48208862Y-30628124D01*
X48349002Y-30729942D01*
X48503345Y-30808583D01*
X48668089Y-30862112D01*
X48839179Y-30889210D01*
X48839182Y-30889210D01*
X49012398Y-30889210D01*
X49012401Y-30889210D01*
X49183491Y-30862112D01*
X49348235Y-30808583D01*
X49502578Y-30729942D01*
X49642718Y-30628124D01*
X49765204Y-30505638D01*
X49867022Y-30365498D01*
X49945663Y-30211155D01*
X49999192Y-30046411D01*
X50026290Y-29875321D01*
X50026290Y-29702099D01*
X49999192Y-29531009D01*
X49945663Y-29366265D01*
X49867022Y-29211922D01*
X49765204Y-29071782D01*
X49765202Y-29071779D01*
X49642720Y-28949297D01*
X49502578Y-28847478D01*
X49348242Y-28768840D01*
X49348238Y-28768838D01*
X49348235Y-28768837D01*
X49183491Y-28715308D01*
X49012401Y-28688210D01*
X48839179Y-28688210D01*
X48668089Y-28715308D01*
X48668086Y-28715308D01*
X48668085Y-28715309D01*
X48589043Y-28740991D01*
X48503345Y-28768837D01*
X48503343Y-28768837D01*
X48503337Y-28768840D01*
X48349001Y-28847478D01*
X48208859Y-28949297D01*
X48086377Y-29071779D01*
X47984558Y-29211921D01*
X47905920Y-29366257D01*
X47905917Y-29366263D01*
X47905917Y-29366265D01*
X47852388Y-29531009D01*
X47825290Y-29702099D01*
X47486290Y-29702099D01*
X47459192Y-29531009D01*
X47405663Y-29366265D01*
X47327022Y-29211922D01*
X47225204Y-29071782D01*
X47225202Y-29071779D01*
X47102720Y-28949297D01*
X46962578Y-28847478D01*
X46808242Y-28768840D01*
X46808238Y-28768838D01*
X46808235Y-28768837D01*
X46643491Y-28715308D01*
X46472401Y-28688210D01*
X46299179Y-28688210D01*
X46128089Y-28715308D01*
X46128086Y-28715308D01*
X46128085Y-28715309D01*
X46049043Y-28740991D01*
X45963345Y-28768837D01*
X45963343Y-28768837D01*
X45963337Y-28768840D01*
X45809001Y-28847478D01*
X45668859Y-28949297D01*
X45546377Y-29071779D01*
X45444558Y-29211921D01*
X45365920Y-29366257D01*
X45365917Y-29366263D01*
X45365917Y-29366265D01*
X45312388Y-29531009D01*
X45285290Y-29702099D01*
X43525500Y-29702099D01*
X43525500Y-27162099D01*
X45285290Y-27162099D01*
X45285290Y-27335321D01*
X45312388Y-27506411D01*
X45365917Y-27671155D01*
X45365918Y-27671158D01*
X45365920Y-27671162D01*
X45444558Y-27825498D01*
X45546377Y-27965640D01*
X45668859Y-28088122D01*
X45668862Y-28088124D01*
X45809002Y-28189942D01*
X45963345Y-28268583D01*
X46128089Y-28322112D01*
X46299179Y-28349210D01*
X46299182Y-28349210D01*
X46472398Y-28349210D01*
X46472401Y-28349210D01*
X46643491Y-28322112D01*
X46808235Y-28268583D01*
X46962578Y-28189942D01*
X47102718Y-28088124D01*
X47225204Y-27965638D01*
X47327022Y-27825498D01*
X47405663Y-27671155D01*
X47459192Y-27506411D01*
X47486290Y-27335321D01*
X47486290Y-27162099D01*
X47459192Y-26991009D01*
X47405663Y-26826265D01*
X47327022Y-26671922D01*
X47225204Y-26531782D01*
X47225202Y-26531779D01*
X47102720Y-26409297D01*
X47054182Y-26374032D01*
X47825290Y-26374032D01*
X47825290Y-28123387D01*
X47839823Y-28196449D01*
X47839824Y-28196450D01*
X47895189Y-28279311D01*
X47978050Y-28334676D01*
X48051116Y-28349210D01*
X49478418Y-28349210D01*
X49546539Y-28369212D01*
X49567513Y-28386115D01*
X50362595Y-29181197D01*
X50396621Y-29243509D01*
X50399500Y-29270292D01*
X50399500Y-48716145D01*
X50407906Y-48747514D01*
X50407906Y-48747517D01*
X50407907Y-48747517D01*
X50423387Y-48805292D01*
X50469527Y-48885208D01*
X50469529Y-48885210D01*
X50469530Y-48885212D01*
X50929596Y-49345278D01*
X50963620Y-49407589D01*
X50966500Y-49434372D01*
X50966500Y-49558134D01*
X50966499Y-49558134D01*
X51006945Y-49709079D01*
X51006948Y-49709086D01*
X51085079Y-49844413D01*
X51085087Y-49844423D01*
X51195576Y-49954912D01*
X51195581Y-49954916D01*
X51195583Y-49954918D01*
X51330918Y-50033054D01*
X51481864Y-50073500D01*
X51481866Y-50073500D01*
X51638134Y-50073500D01*
X51638136Y-50073500D01*
X51789082Y-50033054D01*
X51924417Y-49954918D01*
X52034918Y-49844417D01*
X52113054Y-49709082D01*
X52153500Y-49558136D01*
X52153500Y-49401864D01*
X52113054Y-49250918D01*
X52034918Y-49115583D01*
X52034916Y-49115581D01*
X52034912Y-49115576D01*
X51924423Y-49005087D01*
X51924413Y-49005079D01*
X51789086Y-48926948D01*
X51789083Y-48926947D01*
X51789082Y-48926946D01*
X51789080Y-48926945D01*
X51789079Y-48926945D01*
X51748633Y-48916107D01*
X51638136Y-48886500D01*
X51514372Y-48886500D01*
X51446251Y-48866498D01*
X51425277Y-48849595D01*
X51137405Y-48561723D01*
X51103379Y-48499411D01*
X51100500Y-48472628D01*
X51100500Y-44818134D01*
X67096499Y-44818134D01*
X67136945Y-44969079D01*
X67136948Y-44969086D01*
X67215079Y-45104413D01*
X67215087Y-45104423D01*
X67325576Y-45214912D01*
X67325581Y-45214916D01*
X67325583Y-45214918D01*
X67460918Y-45293054D01*
X67611864Y-45333500D01*
X67611866Y-45333500D01*
X67723500Y-45333500D01*
X67791621Y-45353502D01*
X67838114Y-45407158D01*
X67849500Y-45459500D01*
X67849500Y-48538974D01*
X67829498Y-48607095D01*
X67812595Y-48628069D01*
X67725087Y-48715576D01*
X67725079Y-48715586D01*
X67646948Y-48850913D01*
X67646945Y-48850920D01*
X67606500Y-49001865D01*
X67606500Y-49158134D01*
X67606499Y-49158134D01*
X67646945Y-49309079D01*
X67646948Y-49309086D01*
X67725079Y-49444413D01*
X67725087Y-49444423D01*
X67835576Y-49554912D01*
X67835581Y-49554916D01*
X67835583Y-49554918D01*
X67835584Y-49554919D01*
X67835586Y-49554920D01*
X67930711Y-49609840D01*
X67970918Y-49633054D01*
X68121864Y-49673500D01*
X68121866Y-49673500D01*
X68278134Y-49673500D01*
X68278136Y-49673500D01*
X68429082Y-49633054D01*
X68564417Y-49554918D01*
X68674918Y-49444417D01*
X68753054Y-49309082D01*
X68793500Y-49158136D01*
X68793500Y-49001864D01*
X68753054Y-48850918D01*
X68693355Y-48747517D01*
X68674920Y-48715586D01*
X68674912Y-48715576D01*
X68587405Y-48628069D01*
X68553379Y-48565757D01*
X68550500Y-48538974D01*
X68550500Y-46808134D01*
X78126499Y-46808134D01*
X78166945Y-46959079D01*
X78166948Y-46959086D01*
X78245079Y-47094413D01*
X78245087Y-47094423D01*
X78355576Y-47204912D01*
X78355581Y-47204916D01*
X78355583Y-47204918D01*
X78490918Y-47283054D01*
X78641864Y-47323500D01*
X78641866Y-47323500D01*
X78798134Y-47323500D01*
X78798136Y-47323500D01*
X78949082Y-47283054D01*
X79011021Y-47247293D01*
X79080014Y-47230556D01*
X79137018Y-47247293D01*
X79250918Y-47313054D01*
X79401864Y-47353500D01*
X79401866Y-47353500D01*
X79558134Y-47353500D01*
X79558136Y-47353500D01*
X79709082Y-47313054D01*
X79844417Y-47234918D01*
X79954918Y-47124417D01*
X80033054Y-46989082D01*
X80073500Y-46838136D01*
X80073500Y-46681864D01*
X80033054Y-46530918D01*
X79990953Y-46457997D01*
X79974216Y-46389005D01*
X79990952Y-46332003D01*
X80033054Y-46259082D01*
X80073500Y-46108136D01*
X80073500Y-45951864D01*
X80033054Y-45800918D01*
X79954918Y-45665583D01*
X79954916Y-45665581D01*
X79954912Y-45665576D01*
X79844423Y-45555087D01*
X79844413Y-45555079D01*
X79709086Y-45476948D01*
X79709083Y-45476947D01*
X79709082Y-45476946D01*
X79709080Y-45476945D01*
X79709079Y-45476945D01*
X79668633Y-45466107D01*
X79558136Y-45436500D01*
X79401864Y-45436500D01*
X79320974Y-45458174D01*
X79250920Y-45476945D01*
X79250913Y-45476948D01*
X79115586Y-45555079D01*
X79115576Y-45555087D01*
X79005087Y-45665576D01*
X79005079Y-45665586D01*
X78926948Y-45800913D01*
X78926945Y-45800920D01*
X78886500Y-45951865D01*
X78886500Y-46010500D01*
X78866498Y-46078621D01*
X78812842Y-46125114D01*
X78760500Y-46136500D01*
X78641864Y-46136500D01*
X78560974Y-46158174D01*
X78490920Y-46176945D01*
X78490913Y-46176948D01*
X78355586Y-46255079D01*
X78355576Y-46255087D01*
X78245087Y-46365576D01*
X78245079Y-46365586D01*
X78166948Y-46500913D01*
X78166945Y-46500920D01*
X78126500Y-46651865D01*
X78126500Y-46808134D01*
X78126499Y-46808134D01*
X68550500Y-46808134D01*
X68550500Y-46288134D01*
X74856499Y-46288134D01*
X74896945Y-46439079D01*
X74896948Y-46439086D01*
X74975079Y-46574413D01*
X74975087Y-46574423D01*
X75085576Y-46684912D01*
X75085581Y-46684916D01*
X75085583Y-46684918D01*
X75220918Y-46763054D01*
X75371864Y-46803500D01*
X75371866Y-46803500D01*
X75528134Y-46803500D01*
X75528136Y-46803500D01*
X75679082Y-46763054D01*
X75814417Y-46684918D01*
X75924918Y-46574417D01*
X75924920Y-46574413D01*
X75924922Y-46574411D01*
X75970592Y-46495308D01*
X76003054Y-46439082D01*
X76043500Y-46288136D01*
X76043500Y-46131864D01*
X76003054Y-45980918D01*
X75924918Y-45845583D01*
X75924916Y-45845581D01*
X75924912Y-45845576D01*
X75814423Y-45735087D01*
X75814413Y-45735079D01*
X75679086Y-45656948D01*
X75679083Y-45656947D01*
X75679082Y-45656946D01*
X75679080Y-45656945D01*
X75679079Y-45656945D01*
X75638633Y-45646107D01*
X75528136Y-45616500D01*
X75371864Y-45616500D01*
X75290974Y-45638174D01*
X75220920Y-45656945D01*
X75220913Y-45656948D01*
X75085586Y-45735079D01*
X75085576Y-45735087D01*
X74975087Y-45845576D01*
X74975079Y-45845586D01*
X74896948Y-45980913D01*
X74896946Y-45980918D01*
X74862859Y-46108134D01*
X74856500Y-46131865D01*
X74856500Y-46288134D01*
X74856499Y-46288134D01*
X68550500Y-46288134D01*
X68550500Y-45203857D01*
X68550500Y-45203856D01*
X68526614Y-45114712D01*
X68519637Y-45102628D01*
X68480470Y-45034788D01*
X68480467Y-45034785D01*
X68480464Y-45034781D01*
X68320405Y-44874722D01*
X68286379Y-44812410D01*
X68283500Y-44785627D01*
X68283500Y-44661865D01*
X68283500Y-44661864D01*
X68243054Y-44510918D01*
X68164918Y-44375583D01*
X68164916Y-44375581D01*
X68164912Y-44375576D01*
X68054423Y-44265087D01*
X68054413Y-44265079D01*
X67919086Y-44186948D01*
X67919083Y-44186947D01*
X67919082Y-44186946D01*
X67919080Y-44186945D01*
X67919079Y-44186945D01*
X67878633Y-44176107D01*
X67768136Y-44146500D01*
X67611864Y-44146500D01*
X67530974Y-44168174D01*
X67460920Y-44186945D01*
X67460913Y-44186948D01*
X67325586Y-44265079D01*
X67325576Y-44265087D01*
X67215087Y-44375576D01*
X67215079Y-44375586D01*
X67136948Y-44510913D01*
X67136945Y-44510920D01*
X67096500Y-44661865D01*
X67096500Y-44818134D01*
X67096499Y-44818134D01*
X51100500Y-44818134D01*
X51100500Y-42770634D01*
X73576499Y-42770634D01*
X73616945Y-42921579D01*
X73616948Y-42921586D01*
X73695079Y-43056913D01*
X73695087Y-43056923D01*
X73805576Y-43167412D01*
X73805581Y-43167416D01*
X73805583Y-43167418D01*
X73940918Y-43245554D01*
X74091864Y-43286000D01*
X74091866Y-43286000D01*
X74248134Y-43286000D01*
X74248136Y-43286000D01*
X74399082Y-43245554D01*
X74534417Y-43167418D01*
X74644918Y-43056917D01*
X74723054Y-42921582D01*
X74763500Y-42770636D01*
X74763500Y-42750634D01*
X75516499Y-42750634D01*
X75556945Y-42901579D01*
X75556948Y-42901586D01*
X75635079Y-43036913D01*
X75635087Y-43036923D01*
X75745576Y-43147412D01*
X75745581Y-43147416D01*
X75745583Y-43147418D01*
X75880918Y-43225554D01*
X76031864Y-43266000D01*
X76031866Y-43266000D01*
X76188134Y-43266000D01*
X76188136Y-43266000D01*
X76339082Y-43225554D01*
X76474417Y-43147418D01*
X76584918Y-43036917D01*
X76663054Y-42901582D01*
X76703500Y-42750636D01*
X76703500Y-42594364D01*
X76663054Y-42443418D01*
X76584918Y-42308083D01*
X76584916Y-42308081D01*
X76584912Y-42308076D01*
X76474423Y-42197587D01*
X76474413Y-42197579D01*
X76339086Y-42119448D01*
X76339083Y-42119447D01*
X76339082Y-42119446D01*
X76339080Y-42119445D01*
X76339079Y-42119445D01*
X76298633Y-42108607D01*
X76188136Y-42079000D01*
X76031864Y-42079000D01*
X75957223Y-42099000D01*
X75880920Y-42119445D01*
X75880913Y-42119448D01*
X75745586Y-42197579D01*
X75745576Y-42197587D01*
X75635087Y-42308076D01*
X75635079Y-42308086D01*
X75556948Y-42443413D01*
X75556945Y-42443420D01*
X75516500Y-42594365D01*
X75516500Y-42750634D01*
X75516499Y-42750634D01*
X74763500Y-42750634D01*
X74763500Y-42614364D01*
X74723054Y-42463418D01*
X74644918Y-42328083D01*
X74644916Y-42328081D01*
X74644912Y-42328076D01*
X74534423Y-42217587D01*
X74534413Y-42217579D01*
X74399086Y-42139448D01*
X74399083Y-42139447D01*
X74399082Y-42139446D01*
X74399080Y-42139445D01*
X74399079Y-42139445D01*
X74358633Y-42128607D01*
X74248136Y-42099000D01*
X74091864Y-42099000D01*
X74015559Y-42119446D01*
X73940920Y-42139445D01*
X73940913Y-42139448D01*
X73805586Y-42217579D01*
X73805576Y-42217587D01*
X73695087Y-42328076D01*
X73695079Y-42328086D01*
X73616948Y-42463413D01*
X73616945Y-42463420D01*
X73576500Y-42614365D01*
X73576500Y-42770634D01*
X73576499Y-42770634D01*
X51100500Y-42770634D01*
X51100500Y-38191494D01*
X62949500Y-38191494D01*
X62949500Y-38528505D01*
X62987233Y-38863398D01*
X63002170Y-38928840D01*
X63062224Y-39191954D01*
X63062226Y-39191960D01*
X63062225Y-39191960D01*
X63173524Y-39510033D01*
X63173535Y-39510060D01*
X63319751Y-39813681D01*
X63319756Y-39813690D01*
X63499051Y-40099036D01*
X63709177Y-40362526D01*
X63947473Y-40600822D01*
X64210963Y-40810948D01*
X64496309Y-40990243D01*
X64496314Y-40990246D01*
X64799949Y-41136469D01*
X64799965Y-41136474D01*
X64799966Y-41136475D01*
X65118039Y-41247774D01*
X65118042Y-41247774D01*
X65118046Y-41247776D01*
X65361239Y-41303282D01*
X65446601Y-41322766D01*
X65446602Y-41322766D01*
X65446606Y-41322767D01*
X65667492Y-41347654D01*
X65781494Y-41360500D01*
X65781496Y-41360500D01*
X66118506Y-41360500D01*
X66215925Y-41349523D01*
X66453394Y-41322767D01*
X66781954Y-41247776D01*
X67100051Y-41136469D01*
X67403686Y-40990246D01*
X67689039Y-40810946D01*
X67952523Y-40600825D01*
X68190825Y-40362523D01*
X68400946Y-40099039D01*
X68580246Y-39813686D01*
X68726469Y-39510051D01*
X68837776Y-39191954D01*
X68912767Y-38863394D01*
X68950500Y-38528504D01*
X68950500Y-38191496D01*
X68912767Y-37856606D01*
X68837776Y-37528046D01*
X68726469Y-37209949D01*
X68580246Y-36906314D01*
X68533502Y-36831921D01*
X68400948Y-36620963D01*
X68190822Y-36357473D01*
X67952526Y-36119177D01*
X67689036Y-35909051D01*
X67403690Y-35729756D01*
X67403681Y-35729751D01*
X67100060Y-35583535D01*
X67100055Y-35583533D01*
X67100051Y-35583531D01*
X67100045Y-35583528D01*
X67100033Y-35583524D01*
X66781960Y-35472225D01*
X66453398Y-35397233D01*
X66118506Y-35359500D01*
X66118504Y-35359500D01*
X65781496Y-35359500D01*
X65781494Y-35359500D01*
X65446601Y-35397233D01*
X65118039Y-35472225D01*
X64799966Y-35583524D01*
X64799939Y-35583535D01*
X64496318Y-35729751D01*
X64496309Y-35729756D01*
X64210963Y-35909051D01*
X63947473Y-36119177D01*
X63709177Y-36357473D01*
X63499051Y-36620963D01*
X63319756Y-36906309D01*
X63319751Y-36906318D01*
X63173535Y-37209939D01*
X63173524Y-37209966D01*
X63062225Y-37528039D01*
X62987233Y-37856601D01*
X62949500Y-38191494D01*
X51100500Y-38191494D01*
X51100500Y-29026777D01*
X51100500Y-29026776D01*
X51076614Y-28937632D01*
X51076611Y-28937626D01*
X51076590Y-28937589D01*
X51076589Y-28937588D01*
X51042595Y-28878709D01*
X51449500Y-28878709D01*
X51449500Y-29121290D01*
X51481160Y-29361782D01*
X51543944Y-29596095D01*
X51543945Y-29596097D01*
X51543946Y-29596100D01*
X51636776Y-29820212D01*
X51636777Y-29820213D01*
X51636782Y-29820224D01*
X51758061Y-30030285D01*
X51758063Y-30030288D01*
X51758064Y-30030289D01*
X51905735Y-30222738D01*
X51905739Y-30222742D01*
X51905744Y-30222748D01*
X52077251Y-30394255D01*
X52077256Y-30394259D01*
X52077262Y-30394265D01*
X52269711Y-30541936D01*
X52269714Y-30541938D01*
X52479775Y-30663217D01*
X52479779Y-30663218D01*
X52479788Y-30663224D01*
X52703900Y-30756054D01*
X52938211Y-30818838D01*
X52938215Y-30818838D01*
X52938217Y-30818839D01*
X53000202Y-30826999D01*
X53178712Y-30850500D01*
X53178719Y-30850500D01*
X53421281Y-30850500D01*
X53421288Y-30850500D01*
X53638637Y-30821885D01*
X53661782Y-30818839D01*
X53661782Y-30818838D01*
X53661789Y-30818838D01*
X53896100Y-30756054D01*
X54120212Y-30663224D01*
X54330289Y-30541936D01*
X54522738Y-30394265D01*
X54694265Y-30222738D01*
X54841936Y-30030289D01*
X54963224Y-29820212D01*
X55056054Y-29596100D01*
X55118838Y-29361789D01*
X55150500Y-29121288D01*
X55150500Y-28878712D01*
X55118838Y-28638211D01*
X55056054Y-28403900D01*
X54963224Y-28179788D01*
X54963218Y-28179779D01*
X54963217Y-28179775D01*
X54841938Y-27969714D01*
X54838812Y-27965640D01*
X54694265Y-27777262D01*
X54694259Y-27777256D01*
X54694255Y-27777251D01*
X54522748Y-27605744D01*
X54522742Y-27605739D01*
X54522738Y-27605735D01*
X54330289Y-27458064D01*
X54330288Y-27458063D01*
X54330285Y-27458061D01*
X54120224Y-27336782D01*
X54120216Y-27336778D01*
X54120212Y-27336776D01*
X53896100Y-27243946D01*
X53896097Y-27243945D01*
X53896095Y-27243944D01*
X53661782Y-27181160D01*
X53421290Y-27149500D01*
X53421288Y-27149500D01*
X53178712Y-27149500D01*
X53178709Y-27149500D01*
X52938217Y-27181160D01*
X52703904Y-27243944D01*
X52703900Y-27243946D01*
X52483311Y-27335317D01*
X52479786Y-27336777D01*
X52479775Y-27336782D01*
X52269714Y-27458061D01*
X52077262Y-27605735D01*
X52077251Y-27605744D01*
X51905744Y-27777251D01*
X51905735Y-27777262D01*
X51758061Y-27969714D01*
X51636782Y-28179775D01*
X51636777Y-28179786D01*
X51636776Y-28179788D01*
X51566600Y-28349209D01*
X51543946Y-28403900D01*
X51543944Y-28403904D01*
X51481160Y-28638217D01*
X51449500Y-28878709D01*
X51042595Y-28878709D01*
X51030470Y-28857708D01*
X51030464Y-28857701D01*
X50063195Y-27890432D01*
X50029169Y-27828120D01*
X50026290Y-27801337D01*
X50026290Y-26374035D01*
X50026289Y-26374032D01*
X50011756Y-26300970D01*
X49956391Y-26218109D01*
X49873530Y-26162744D01*
X49873529Y-26162743D01*
X49800467Y-26148210D01*
X49800464Y-26148210D01*
X48051116Y-26148210D01*
X48051112Y-26148210D01*
X47978050Y-26162743D01*
X47895189Y-26218109D01*
X47839823Y-26300970D01*
X47825290Y-26374032D01*
X47054182Y-26374032D01*
X46962578Y-26307478D01*
X46808242Y-26228840D01*
X46808238Y-26228838D01*
X46808235Y-26228837D01*
X46643491Y-26175308D01*
X46472401Y-26148210D01*
X46299179Y-26148210D01*
X46128089Y-26175308D01*
X46128086Y-26175308D01*
X46128085Y-26175309D01*
X46049043Y-26200991D01*
X45963345Y-26228837D01*
X45963343Y-26228837D01*
X45963337Y-26228840D01*
X45809001Y-26307478D01*
X45668859Y-26409297D01*
X45546377Y-26531779D01*
X45444558Y-26671921D01*
X45365920Y-26826257D01*
X45365917Y-26826263D01*
X45365917Y-26826265D01*
X45312388Y-26991009D01*
X45285290Y-27162099D01*
X43525500Y-27162099D01*
X43525500Y-24151500D01*
X43545502Y-24083379D01*
X43599158Y-24036886D01*
X43651500Y-24025500D01*
X46510562Y-24025500D01*
X46525500Y-24010562D01*
X46525500Y-21928845D01*
X46545502Y-21860724D01*
X46599158Y-21814231D01*
X46659741Y-21803115D01*
X46685956Y-21804833D01*
X47354228Y-21136561D01*
X47356740Y-21142626D01*
X47449762Y-21281844D01*
X47568156Y-21400238D01*
X47707374Y-21493260D01*
X47713436Y-21495771D01*
X47045165Y-22164042D01*
X47045165Y-22164043D01*
X47120074Y-22221522D01*
X47120080Y-22221527D01*
X47321911Y-22338054D01*
X47321921Y-22338059D01*
X47537254Y-22427253D01*
X47537258Y-22427254D01*
X47762391Y-22487579D01*
X47993461Y-22517999D01*
X47993471Y-22518000D01*
X48226529Y-22518000D01*
X48226538Y-22517999D01*
X48457608Y-22487579D01*
X48682741Y-22427254D01*
X48682745Y-22427253D01*
X48898078Y-22338059D01*
X48898089Y-22338054D01*
X49099920Y-22221527D01*
X49174833Y-22164042D01*
X48506562Y-21495771D01*
X48512626Y-21493260D01*
X48651844Y-21400238D01*
X48770238Y-21281844D01*
X48863260Y-21142626D01*
X48865771Y-21136562D01*
X49534042Y-21804833D01*
X49591527Y-21729920D01*
X49708054Y-21528089D01*
X49708059Y-21528078D01*
X49797253Y-21312745D01*
X49797254Y-21312741D01*
X49857579Y-21087608D01*
X49887999Y-20856538D01*
X49888000Y-20856529D01*
X49888000Y-20623471D01*
X49887999Y-20623461D01*
X51412000Y-20623461D01*
X51412000Y-20856538D01*
X51442420Y-21087608D01*
X51502745Y-21312741D01*
X51502746Y-21312745D01*
X51591940Y-21528078D01*
X51591945Y-21528088D01*
X51708472Y-21729919D01*
X51708477Y-21729926D01*
X51765956Y-21804833D01*
X52434228Y-21136561D01*
X52436740Y-21142626D01*
X52529762Y-21281844D01*
X52648156Y-21400238D01*
X52787374Y-21493260D01*
X52793436Y-21495771D01*
X52125165Y-22164042D01*
X52125165Y-22164043D01*
X52200074Y-22221522D01*
X52200080Y-22221527D01*
X52401911Y-22338054D01*
X52401921Y-22338059D01*
X52617254Y-22427253D01*
X52617258Y-22427254D01*
X52842391Y-22487579D01*
X53073461Y-22517999D01*
X53073471Y-22518000D01*
X53306529Y-22518000D01*
X53306538Y-22517999D01*
X53537608Y-22487579D01*
X53762741Y-22427254D01*
X53762745Y-22427253D01*
X53978078Y-22338059D01*
X53978089Y-22338054D01*
X54179920Y-22221527D01*
X54254833Y-22164042D01*
X53586562Y-21495771D01*
X53592626Y-21493260D01*
X53731844Y-21400238D01*
X53850238Y-21281844D01*
X53943260Y-21142626D01*
X53945771Y-21136562D01*
X54614042Y-21804833D01*
X54671527Y-21729920D01*
X54788054Y-21528089D01*
X54788059Y-21528078D01*
X54877253Y-21312745D01*
X54877254Y-21312741D01*
X54937579Y-21087608D01*
X54967999Y-20856538D01*
X54968000Y-20856529D01*
X54968000Y-20623471D01*
X54967999Y-20623461D01*
X54937579Y-20392391D01*
X54877254Y-20167258D01*
X54877253Y-20167254D01*
X54788059Y-19951921D01*
X54788054Y-19951911D01*
X54671527Y-19750080D01*
X54671522Y-19750074D01*
X54614042Y-19675165D01*
X53945771Y-20343436D01*
X53943260Y-20337374D01*
X53850238Y-20198156D01*
X53731844Y-20079762D01*
X53592626Y-19986740D01*
X53586562Y-19984228D01*
X54254833Y-19315956D01*
X54254833Y-19315955D01*
X54179926Y-19258477D01*
X54179919Y-19258472D01*
X53978088Y-19141945D01*
X53978078Y-19141940D01*
X53762745Y-19052746D01*
X53762741Y-19052745D01*
X53537608Y-18992420D01*
X53306538Y-18962000D01*
X53073461Y-18962000D01*
X52842391Y-18992420D01*
X52617258Y-19052745D01*
X52617254Y-19052746D01*
X52401921Y-19141940D01*
X52401911Y-19141945D01*
X52200080Y-19258472D01*
X52125165Y-19315956D01*
X52793437Y-19984228D01*
X52787374Y-19986740D01*
X52648156Y-20079762D01*
X52529762Y-20198156D01*
X52436740Y-20337374D01*
X52434228Y-20343437D01*
X51765956Y-19675165D01*
X51708472Y-19750080D01*
X51591945Y-19951911D01*
X51591940Y-19951921D01*
X51502746Y-20167254D01*
X51502745Y-20167258D01*
X51442420Y-20392391D01*
X51412000Y-20623461D01*
X49887999Y-20623461D01*
X49857579Y-20392391D01*
X49797254Y-20167258D01*
X49797253Y-20167254D01*
X49708059Y-19951921D01*
X49708054Y-19951911D01*
X49591527Y-19750080D01*
X49591522Y-19750074D01*
X49534042Y-19675165D01*
X48865771Y-20343436D01*
X48863260Y-20337374D01*
X48770238Y-20198156D01*
X48651844Y-20079762D01*
X48512626Y-19986740D01*
X48506562Y-19984228D01*
X49174833Y-19315956D01*
X49174833Y-19315955D01*
X49099926Y-19258477D01*
X49099919Y-19258472D01*
X48898088Y-19141945D01*
X48898078Y-19141940D01*
X48682745Y-19052746D01*
X48682741Y-19052745D01*
X48457608Y-18992420D01*
X48226538Y-18962000D01*
X47993461Y-18962000D01*
X47762391Y-18992420D01*
X47537258Y-19052745D01*
X47537254Y-19052746D01*
X47321921Y-19141940D01*
X47321911Y-19141945D01*
X47120080Y-19258472D01*
X47045165Y-19315956D01*
X47713437Y-19984228D01*
X47707374Y-19986740D01*
X47568156Y-20079762D01*
X47449762Y-20198156D01*
X47356740Y-20337374D01*
X47354228Y-20343437D01*
X46685956Y-19675165D01*
X46659741Y-19676884D01*
X46646749Y-19673976D01*
X46633568Y-19675872D01*
X46612767Y-19666372D01*
X46590458Y-19661380D01*
X46581099Y-19651909D01*
X46568988Y-19646378D01*
X46556627Y-19627144D01*
X46540555Y-19610880D01*
X46536928Y-19596493D01*
X46530604Y-19586652D01*
X46525500Y-19551154D01*
X46525500Y-16488845D01*
X46545502Y-16420724D01*
X46599158Y-16374231D01*
X46659741Y-16363115D01*
X46685956Y-16364833D01*
X47354228Y-15696561D01*
X47356740Y-15702626D01*
X47449762Y-15841844D01*
X47568156Y-15960238D01*
X47707374Y-16053260D01*
X47713436Y-16055771D01*
X47045165Y-16724042D01*
X47045165Y-16724043D01*
X47120074Y-16781522D01*
X47120080Y-16781527D01*
X47321911Y-16898054D01*
X47321921Y-16898059D01*
X47537254Y-16987253D01*
X47537258Y-16987254D01*
X47762391Y-17047579D01*
X47993461Y-17077999D01*
X47993471Y-17078000D01*
X48226529Y-17078000D01*
X48226538Y-17077999D01*
X48457608Y-17047579D01*
X48682741Y-16987254D01*
X48682745Y-16987253D01*
X48898078Y-16898059D01*
X48898089Y-16898054D01*
X49099920Y-16781527D01*
X49174833Y-16724042D01*
X48506562Y-16055771D01*
X48512626Y-16053260D01*
X48651844Y-15960238D01*
X48770238Y-15841844D01*
X48863260Y-15702626D01*
X48865771Y-15696562D01*
X49534042Y-16364833D01*
X49591527Y-16289920D01*
X49708054Y-16088089D01*
X49708059Y-16088078D01*
X49797253Y-15872745D01*
X49797254Y-15872741D01*
X49857579Y-15647608D01*
X49887999Y-15416538D01*
X49888000Y-15416529D01*
X49888000Y-15183471D01*
X49887999Y-15183461D01*
X49857579Y-14952391D01*
X49797254Y-14727258D01*
X49797253Y-14727254D01*
X49708059Y-14511921D01*
X49708054Y-14511911D01*
X49591527Y-14310080D01*
X49591522Y-14310074D01*
X49534042Y-14235165D01*
X48865771Y-14903436D01*
X48863260Y-14897374D01*
X48770238Y-14758156D01*
X48651844Y-14639762D01*
X48512626Y-14546740D01*
X48506562Y-14544228D01*
X49174833Y-13875956D01*
X49171805Y-13829740D01*
X49187309Y-13760457D01*
X49237810Y-13710555D01*
X49297535Y-13695500D01*
X52002465Y-13695500D01*
X52070586Y-13715502D01*
G37*
%TD.AperFunction*%
%TA.AperFunction,Conductor*%
G36*
X46990586Y-13715502D02*
G01*
X47037079Y-13769158D01*
X47048195Y-13829741D01*
X47045165Y-13875956D01*
X47713437Y-14544228D01*
X47707374Y-14546740D01*
X47568156Y-14639762D01*
X47449762Y-14758156D01*
X47356740Y-14897374D01*
X47354228Y-14903437D01*
X46685956Y-14235165D01*
X46659741Y-14236884D01*
X46590458Y-14221380D01*
X46540555Y-14170880D01*
X46525500Y-14111154D01*
X46525500Y-13821500D01*
X46545502Y-13753379D01*
X46599158Y-13706886D01*
X46651500Y-13695500D01*
X46922465Y-13695500D01*
X46990586Y-13715502D01*
G37*
%TD.AperFunction*%
%TD*%
%TA.AperFunction,Conductor*%
%TO.N,GND*%
G36*
X90120000Y-55530000D02*
G01*
X90020000Y-55530250D01*
X90020000Y-55530249D01*
X90019999Y-55530249D01*
X86210000Y-55539799D01*
X86130000Y-55540000D01*
X86150000Y-50570000D01*
X90120000Y-50570000D01*
X90120000Y-55530000D01*
G37*
%TD.AperFunction*%
%TD*%
%TA.AperFunction,Conductor*%
%TO.N,GND*%
G36*
X119757539Y-32525185D02*
G01*
X119803294Y-32577989D01*
X119814500Y-32629500D01*
X119814500Y-83350500D01*
X119794815Y-83417539D01*
X119742011Y-83463294D01*
X119690500Y-83474500D01*
X90144000Y-83474500D01*
X90076961Y-83454815D01*
X90031206Y-83402011D01*
X90020000Y-83350500D01*
X90020000Y-79761491D01*
X91899500Y-79761491D01*
X91899500Y-80098508D01*
X91937231Y-80433381D01*
X91937233Y-80433397D01*
X92012223Y-80761953D01*
X92012227Y-80761965D01*
X92123532Y-81080054D01*
X92269752Y-81383683D01*
X92269754Y-81383686D01*
X92449054Y-81669039D01*
X92659175Y-81932523D01*
X92897477Y-82170825D01*
X93160961Y-82380946D01*
X93446314Y-82560246D01*
X93749949Y-82706469D01*
X93988848Y-82790063D01*
X94068034Y-82817772D01*
X94068046Y-82817776D01*
X94396606Y-82892767D01*
X94731492Y-82930499D01*
X94731493Y-82930500D01*
X94731496Y-82930500D01*
X95068507Y-82930500D01*
X95068507Y-82930499D01*
X95403394Y-82892767D01*
X95731954Y-82817776D01*
X96050051Y-82706469D01*
X96353686Y-82560246D01*
X96639039Y-82380946D01*
X96902523Y-82170825D01*
X97140825Y-81932523D01*
X97350946Y-81669039D01*
X97530246Y-81383686D01*
X97676469Y-81080051D01*
X97787776Y-80761954D01*
X97862767Y-80433394D01*
X97900500Y-80098504D01*
X97900500Y-79761496D01*
X97862767Y-79426606D01*
X97787776Y-79098046D01*
X97676469Y-78779949D01*
X97530246Y-78476314D01*
X97350946Y-78190961D01*
X97140825Y-77927477D01*
X96902523Y-77689175D01*
X96639039Y-77479054D01*
X96353686Y-77299754D01*
X96353683Y-77299752D01*
X96050054Y-77153532D01*
X95731965Y-77042227D01*
X95731953Y-77042223D01*
X95403397Y-76967233D01*
X95403381Y-76967231D01*
X95068508Y-76929500D01*
X95068504Y-76929500D01*
X94731496Y-76929500D01*
X94731491Y-76929500D01*
X94396618Y-76967231D01*
X94396602Y-76967233D01*
X94068046Y-77042223D01*
X94068034Y-77042227D01*
X93749945Y-77153532D01*
X93446316Y-77299752D01*
X93160962Y-77479053D01*
X92897477Y-77689174D01*
X92659174Y-77927477D01*
X92449053Y-78190962D01*
X92269752Y-78476316D01*
X92123532Y-78779945D01*
X92012227Y-79098034D01*
X92012223Y-79098046D01*
X91937233Y-79426602D01*
X91937231Y-79426618D01*
X91899500Y-79761491D01*
X90020000Y-79761491D01*
X90020000Y-74164751D01*
X104054500Y-74164751D01*
X104054500Y-74335248D01*
X104087758Y-74502449D01*
X104087760Y-74502457D01*
X104153002Y-74659964D01*
X104153007Y-74659974D01*
X104247721Y-74801723D01*
X104247724Y-74801727D01*
X104368272Y-74922275D01*
X104368276Y-74922278D01*
X104510025Y-75016992D01*
X104510029Y-75016994D01*
X104510032Y-75016996D01*
X104667543Y-75082240D01*
X104834751Y-75115499D01*
X104834755Y-75115500D01*
X104834756Y-75115500D01*
X106105245Y-75115500D01*
X106105246Y-75115499D01*
X106272457Y-75082240D01*
X106429968Y-75016996D01*
X106571724Y-74922278D01*
X106692278Y-74801724D01*
X106786996Y-74659968D01*
X106852240Y-74502457D01*
X106885500Y-74335244D01*
X106885500Y-74164756D01*
X106852240Y-73997543D01*
X106786996Y-73840032D01*
X106786994Y-73840029D01*
X106786992Y-73840025D01*
X106692278Y-73698276D01*
X106692275Y-73698272D01*
X106571727Y-73577724D01*
X106571723Y-73577721D01*
X106429974Y-73483007D01*
X106429964Y-73483002D01*
X106272457Y-73417760D01*
X106272449Y-73417758D01*
X106105248Y-73384500D01*
X106105244Y-73384500D01*
X104834756Y-73384500D01*
X104834751Y-73384500D01*
X104667550Y-73417758D01*
X104667542Y-73417760D01*
X104510035Y-73483002D01*
X104510025Y-73483007D01*
X104368276Y-73577721D01*
X104368272Y-73577724D01*
X104247724Y-73698272D01*
X104247721Y-73698276D01*
X104153007Y-73840025D01*
X104153002Y-73840035D01*
X104087760Y-73997542D01*
X104087758Y-73997550D01*
X104054500Y-74164751D01*
X90020000Y-74164751D01*
X90020000Y-65701864D01*
X100076500Y-65701864D01*
X100076500Y-65858136D01*
X100116946Y-66009082D01*
X100195082Y-66144417D01*
X100305583Y-66254918D01*
X100440918Y-66333054D01*
X100591864Y-66373500D01*
X100591867Y-66373500D01*
X100748133Y-66373500D01*
X100748136Y-66373500D01*
X100899082Y-66333054D01*
X101034417Y-66254918D01*
X101037471Y-66251864D01*
X101676500Y-66251864D01*
X101676500Y-66408136D01*
X101716946Y-66559082D01*
X101795082Y-66694417D01*
X101905583Y-66804918D01*
X102040918Y-66883054D01*
X102191864Y-66923500D01*
X102191867Y-66923500D01*
X102348133Y-66923500D01*
X102348136Y-66923500D01*
X102499082Y-66883054D01*
X102634417Y-66804918D01*
X102744918Y-66694417D01*
X102823054Y-66559082D01*
X102854463Y-66441864D01*
X106846500Y-66441864D01*
X106846500Y-66598136D01*
X106886946Y-66749082D01*
X106965082Y-66884417D01*
X107075583Y-66994918D01*
X107210918Y-67073054D01*
X107361864Y-67113500D01*
X107361867Y-67113500D01*
X107518133Y-67113500D01*
X107518136Y-67113500D01*
X107669082Y-67073054D01*
X107804417Y-66994918D01*
X107837319Y-66962016D01*
X107898642Y-66928531D01*
X107968334Y-66933515D01*
X108012681Y-66962016D01*
X108015583Y-66964918D01*
X108150918Y-67043054D01*
X108301864Y-67083500D01*
X108301867Y-67083500D01*
X108458133Y-67083500D01*
X108458136Y-67083500D01*
X108609082Y-67043054D01*
X108744417Y-66964918D01*
X108854918Y-66854417D01*
X108933054Y-66719082D01*
X108973500Y-66568136D01*
X108973500Y-66411864D01*
X108933054Y-66260918D01*
X108854918Y-66125583D01*
X108744417Y-66015082D01*
X108609082Y-65936946D01*
X108458136Y-65896500D01*
X108301864Y-65896500D01*
X108150918Y-65936946D01*
X108150916Y-65936946D01*
X108150916Y-65936947D01*
X108015583Y-66015082D01*
X108015580Y-66015084D01*
X107982681Y-66047984D01*
X107921358Y-66081469D01*
X107851666Y-66076485D01*
X107807319Y-66047984D01*
X107804419Y-66045084D01*
X107804417Y-66045082D01*
X107669082Y-65966946D01*
X107518136Y-65926500D01*
X107361864Y-65926500D01*
X107210918Y-65966946D01*
X107210916Y-65966946D01*
X107210916Y-65966947D01*
X107075583Y-66045082D01*
X107075580Y-66045084D01*
X106965084Y-66155580D01*
X106965082Y-66155583D01*
X106904267Y-66260918D01*
X106886946Y-66290918D01*
X106846500Y-66441864D01*
X102854463Y-66441864D01*
X102863500Y-66408136D01*
X102863500Y-66251864D01*
X102823054Y-66100918D01*
X102744918Y-65965583D01*
X102634417Y-65855082D01*
X102499082Y-65776946D01*
X102348136Y-65736500D01*
X102191864Y-65736500D01*
X102040918Y-65776946D01*
X102040916Y-65776946D01*
X102040916Y-65776947D01*
X101905583Y-65855082D01*
X101905580Y-65855084D01*
X101795084Y-65965580D01*
X101795082Y-65965583D01*
X101747508Y-66047984D01*
X101716946Y-66100918D01*
X101676500Y-66251864D01*
X101037471Y-66251864D01*
X101144918Y-66144417D01*
X101223054Y-66009082D01*
X101263500Y-65858136D01*
X101263500Y-65701864D01*
X101223054Y-65550918D01*
X101144918Y-65415583D01*
X101034417Y-65305082D01*
X100899082Y-65226946D01*
X100748136Y-65186500D01*
X100591864Y-65186500D01*
X100440918Y-65226946D01*
X100440916Y-65226946D01*
X100440916Y-65226947D01*
X100305583Y-65305082D01*
X100305580Y-65305084D01*
X100195084Y-65415580D01*
X100195082Y-65415583D01*
X100116946Y-65550918D01*
X100076500Y-65701864D01*
X90020000Y-65701864D01*
X90020000Y-64251864D01*
X109536500Y-64251864D01*
X109536500Y-64408136D01*
X109576946Y-64559082D01*
X109655082Y-64694417D01*
X109765583Y-64804918D01*
X109900918Y-64883054D01*
X110051864Y-64923500D01*
X110051867Y-64923500D01*
X110208133Y-64923500D01*
X110208136Y-64923500D01*
X110359082Y-64883054D01*
X110494417Y-64804918D01*
X110604918Y-64694417D01*
X110683054Y-64559082D01*
X110723500Y-64408136D01*
X110723500Y-64251864D01*
X110683054Y-64100918D01*
X110604918Y-63965583D01*
X110602346Y-63963011D01*
X110600871Y-63960310D01*
X110599971Y-63959137D01*
X110600153Y-63958996D01*
X110568861Y-63901688D01*
X110573845Y-63831996D01*
X110602346Y-63787649D01*
X110604976Y-63785019D01*
X110610248Y-63779747D01*
X110688384Y-63644412D01*
X110728830Y-63493466D01*
X110728830Y-63337194D01*
X110688384Y-63186248D01*
X110610248Y-63050913D01*
X110499747Y-62940412D01*
X110364412Y-62862276D01*
X110213466Y-62821830D01*
X110057194Y-62821830D01*
X109906248Y-62862276D01*
X109906246Y-62862276D01*
X109906246Y-62862277D01*
X109770913Y-62940412D01*
X109770910Y-62940414D01*
X109660414Y-63050910D01*
X109660412Y-63050913D01*
X109582276Y-63186248D01*
X109541830Y-63337194D01*
X109541830Y-63493466D01*
X109582276Y-63644412D01*
X109660412Y-63779747D01*
X109660414Y-63779749D01*
X109662984Y-63782319D01*
X109664458Y-63785019D01*
X109665359Y-63786193D01*
X109665176Y-63786333D01*
X109696469Y-63843642D01*
X109691485Y-63913334D01*
X109662984Y-63957681D01*
X109655084Y-63965580D01*
X109655082Y-63965583D01*
X109576946Y-64100918D01*
X109536500Y-64251864D01*
X90020000Y-64251864D01*
X90020000Y-60431864D01*
X105836500Y-60431864D01*
X105836500Y-60588136D01*
X105876946Y-60739082D01*
X105955082Y-60874417D01*
X106065583Y-60984918D01*
X106200918Y-61063054D01*
X106351864Y-61103500D01*
X106351867Y-61103500D01*
X106508133Y-61103500D01*
X106508136Y-61103500D01*
X106659082Y-61063054D01*
X106794417Y-60984918D01*
X106904918Y-60874417D01*
X106983054Y-60739082D01*
X107023500Y-60588136D01*
X107023500Y-60431864D01*
X106983054Y-60280918D01*
X106904918Y-60145583D01*
X106794417Y-60035082D01*
X106659082Y-59956946D01*
X106508136Y-59916500D01*
X106351864Y-59916500D01*
X106200918Y-59956946D01*
X106200916Y-59956946D01*
X106200916Y-59956947D01*
X106065583Y-60035082D01*
X106065580Y-60035084D01*
X105955084Y-60145580D01*
X105955082Y-60145583D01*
X105876946Y-60280918D01*
X105836500Y-60431864D01*
X90020000Y-60431864D01*
X90020000Y-59071864D01*
X91766500Y-59071864D01*
X91766500Y-59228136D01*
X91806946Y-59379082D01*
X91885082Y-59514417D01*
X91995583Y-59624918D01*
X92130918Y-59703054D01*
X92281864Y-59743500D01*
X92281867Y-59743500D01*
X92438133Y-59743500D01*
X92438136Y-59743500D01*
X92589082Y-59703054D01*
X92724417Y-59624918D01*
X92834918Y-59514417D01*
X92913054Y-59379082D01*
X92953500Y-59228136D01*
X92953500Y-59071864D01*
X92945461Y-59041864D01*
X93276500Y-59041864D01*
X93276500Y-59198136D01*
X93316946Y-59349082D01*
X93395082Y-59484417D01*
X93505583Y-59594918D01*
X93640918Y-59673054D01*
X93791864Y-59713500D01*
X93791867Y-59713500D01*
X93948133Y-59713500D01*
X93948136Y-59713500D01*
X94099082Y-59673054D01*
X94234417Y-59594918D01*
X94344918Y-59484417D01*
X94423054Y-59349082D01*
X94463500Y-59198136D01*
X94463500Y-59111864D01*
X108276500Y-59111864D01*
X108276500Y-59268136D01*
X108316946Y-59419082D01*
X108395082Y-59554417D01*
X108505583Y-59664918D01*
X108640918Y-59743054D01*
X108791864Y-59783500D01*
X108791867Y-59783500D01*
X108927803Y-59783500D01*
X108994842Y-59803185D01*
X109040597Y-59855989D01*
X109050541Y-59925147D01*
X109021516Y-59988703D01*
X109015484Y-59995181D01*
X108985084Y-60025580D01*
X108985082Y-60025583D01*
X108906946Y-60160918D01*
X108866500Y-60311864D01*
X108866500Y-60468136D01*
X108906946Y-60619082D01*
X108985082Y-60754417D01*
X109095583Y-60864918D01*
X109230918Y-60943054D01*
X109381864Y-60983500D01*
X109381867Y-60983500D01*
X109538133Y-60983500D01*
X109538136Y-60983500D01*
X109689082Y-60943054D01*
X109824417Y-60864918D01*
X109934918Y-60754417D01*
X110013054Y-60619082D01*
X110053500Y-60468136D01*
X110053500Y-60311864D01*
X110013054Y-60160918D01*
X109934918Y-60025583D01*
X109824417Y-59915082D01*
X109689082Y-59836946D01*
X109538136Y-59796500D01*
X109402197Y-59796500D01*
X109335158Y-59776815D01*
X109289403Y-59724011D01*
X109279459Y-59654853D01*
X109308484Y-59591297D01*
X109314516Y-59584819D01*
X109344918Y-59554417D01*
X109423054Y-59419082D01*
X109463500Y-59268136D01*
X109463500Y-59111864D01*
X109423054Y-58960918D01*
X109344918Y-58825583D01*
X109234417Y-58715082D01*
X109099082Y-58636946D01*
X108948136Y-58596500D01*
X108791864Y-58596500D01*
X108640918Y-58636946D01*
X108640916Y-58636946D01*
X108640916Y-58636947D01*
X108505583Y-58715082D01*
X108505580Y-58715084D01*
X108395084Y-58825580D01*
X108395082Y-58825583D01*
X108316946Y-58960918D01*
X108276500Y-59111864D01*
X94463500Y-59111864D01*
X94463500Y-59041864D01*
X94423054Y-58890918D01*
X94344918Y-58755583D01*
X94234417Y-58645082D01*
X94099082Y-58566946D01*
X93948136Y-58526500D01*
X93791864Y-58526500D01*
X93640918Y-58566946D01*
X93640916Y-58566946D01*
X93640916Y-58566947D01*
X93505583Y-58645082D01*
X93505580Y-58645084D01*
X93395084Y-58755580D01*
X93395082Y-58755583D01*
X93316946Y-58890918D01*
X93276500Y-59041864D01*
X92945461Y-59041864D01*
X92913054Y-58920918D01*
X92834918Y-58785583D01*
X92724417Y-58675082D01*
X92724414Y-58675080D01*
X92724410Y-58675077D01*
X92694127Y-58657593D01*
X92645912Y-58607026D01*
X92632690Y-58538418D01*
X92658658Y-58473554D01*
X92694128Y-58442820D01*
X92794417Y-58384918D01*
X92904918Y-58274417D01*
X92983054Y-58139082D01*
X93001065Y-58071864D01*
X106566500Y-58071864D01*
X106566500Y-58228136D01*
X106606946Y-58379082D01*
X106685082Y-58514417D01*
X106795583Y-58624918D01*
X106930918Y-58703054D01*
X107081864Y-58743500D01*
X107081867Y-58743500D01*
X107238133Y-58743500D01*
X107238136Y-58743500D01*
X107389082Y-58703054D01*
X107524417Y-58624918D01*
X107634918Y-58514417D01*
X107713054Y-58379082D01*
X107753500Y-58228136D01*
X107753500Y-58071864D01*
X107713054Y-57920918D01*
X107688686Y-57878711D01*
X114349500Y-57878711D01*
X114349500Y-58121288D01*
X114369659Y-58274419D01*
X114381162Y-58361789D01*
X114387360Y-58384919D01*
X114443947Y-58596104D01*
X114510006Y-58755583D01*
X114536776Y-58820212D01*
X114658064Y-59030289D01*
X114658066Y-59030292D01*
X114658067Y-59030293D01*
X114805733Y-59222736D01*
X114805739Y-59222743D01*
X114977256Y-59394260D01*
X114977263Y-59394266D01*
X115090321Y-59481018D01*
X115169711Y-59541936D01*
X115379788Y-59663224D01*
X115603900Y-59756054D01*
X115838211Y-59818838D01*
X116018586Y-59842584D01*
X116078711Y-59850500D01*
X116078712Y-59850500D01*
X116321289Y-59850500D01*
X116369388Y-59844167D01*
X116561789Y-59818838D01*
X116796100Y-59756054D01*
X117020212Y-59663224D01*
X117230289Y-59541936D01*
X117422738Y-59394265D01*
X117594265Y-59222738D01*
X117741936Y-59030289D01*
X117863224Y-58820212D01*
X117956054Y-58596100D01*
X118018838Y-58361789D01*
X118050500Y-58121288D01*
X118050500Y-57878712D01*
X118018838Y-57638211D01*
X117956054Y-57403900D01*
X117863224Y-57179788D01*
X117741936Y-56969711D01*
X117594265Y-56777262D01*
X117594260Y-56777256D01*
X117422743Y-56605739D01*
X117422736Y-56605733D01*
X117230293Y-56458067D01*
X117230292Y-56458066D01*
X117230289Y-56458064D01*
X117020212Y-56336776D01*
X117020205Y-56336773D01*
X116796104Y-56243947D01*
X116561785Y-56181161D01*
X116321289Y-56149500D01*
X116321288Y-56149500D01*
X116078712Y-56149500D01*
X116078711Y-56149500D01*
X115838214Y-56181161D01*
X115603895Y-56243947D01*
X115379794Y-56336773D01*
X115379785Y-56336777D01*
X115169706Y-56458067D01*
X114977263Y-56605733D01*
X114977256Y-56605739D01*
X114805739Y-56777256D01*
X114805733Y-56777263D01*
X114658067Y-56969706D01*
X114536777Y-57179785D01*
X114536773Y-57179794D01*
X114443947Y-57403895D01*
X114381161Y-57638214D01*
X114349500Y-57878711D01*
X107688686Y-57878711D01*
X107634918Y-57785583D01*
X107524417Y-57675082D01*
X107389082Y-57596946D01*
X107238136Y-57556500D01*
X107081864Y-57556500D01*
X106930918Y-57596946D01*
X106930916Y-57596946D01*
X106930916Y-57596947D01*
X106795583Y-57675082D01*
X106795580Y-57675084D01*
X106685084Y-57785580D01*
X106685082Y-57785583D01*
X106658362Y-57831864D01*
X106606946Y-57920918D01*
X106566500Y-58071864D01*
X93001065Y-58071864D01*
X93023500Y-57988136D01*
X93023500Y-57831864D01*
X92983054Y-57680918D01*
X92904918Y-57545583D01*
X92794417Y-57435082D01*
X92659082Y-57356946D01*
X92508136Y-57316500D01*
X92351864Y-57316500D01*
X92200918Y-57356946D01*
X92200916Y-57356946D01*
X92200916Y-57356947D01*
X92065583Y-57435082D01*
X92065580Y-57435084D01*
X91955084Y-57545580D01*
X91955082Y-57545583D01*
X91876946Y-57680918D01*
X91836500Y-57831864D01*
X91836500Y-57988136D01*
X91876946Y-58139082D01*
X91955082Y-58274417D01*
X92065583Y-58384918D01*
X92095872Y-58402405D01*
X92144087Y-58452972D01*
X92157309Y-58521580D01*
X92131341Y-58586444D01*
X92095872Y-58617178D01*
X91995589Y-58675077D01*
X91995580Y-58675084D01*
X91885084Y-58785580D01*
X91885082Y-58785583D01*
X91824267Y-58890918D01*
X91806946Y-58920918D01*
X91766500Y-59071864D01*
X90020000Y-59071864D01*
X90020000Y-56761864D01*
X99706500Y-56761864D01*
X99706500Y-56918136D01*
X99746946Y-57069082D01*
X99825082Y-57204417D01*
X99935583Y-57314918D01*
X100070918Y-57393054D01*
X100221864Y-57433500D01*
X100221867Y-57433500D01*
X100378133Y-57433500D01*
X100378136Y-57433500D01*
X100529082Y-57393054D01*
X100664417Y-57314918D01*
X100774918Y-57204417D01*
X100853054Y-57069082D01*
X100893500Y-56918136D01*
X100893500Y-56761864D01*
X100853054Y-56610918D01*
X100850060Y-56605733D01*
X100800989Y-56520739D01*
X100800988Y-56520738D01*
X100774918Y-56475583D01*
X100766199Y-56466864D01*
X102391500Y-56466864D01*
X102391500Y-56623136D01*
X102431946Y-56774082D01*
X102510082Y-56909417D01*
X102620583Y-57019918D01*
X102755918Y-57098054D01*
X102906864Y-57138500D01*
X102906867Y-57138500D01*
X103063133Y-57138500D01*
X103063136Y-57138500D01*
X103214082Y-57098054D01*
X103349417Y-57019918D01*
X103459918Y-56909417D01*
X103538054Y-56774082D01*
X103578500Y-56623136D01*
X103578500Y-56466864D01*
X103538054Y-56315918D01*
X103459918Y-56180583D01*
X103349417Y-56070082D01*
X103214082Y-55991946D01*
X103063136Y-55951500D01*
X102906864Y-55951500D01*
X102755918Y-55991946D01*
X102755916Y-55991946D01*
X102755916Y-55991947D01*
X102620583Y-56070082D01*
X102620580Y-56070084D01*
X102510084Y-56180580D01*
X102510082Y-56180583D01*
X102431946Y-56315918D01*
X102391500Y-56466864D01*
X100766199Y-56466864D01*
X100664417Y-56365082D01*
X100529082Y-56286946D01*
X100378136Y-56246500D01*
X100221864Y-56246500D01*
X100070918Y-56286946D01*
X100070916Y-56286946D01*
X100070916Y-56286947D01*
X99935583Y-56365082D01*
X99935580Y-56365084D01*
X99825084Y-56475580D01*
X99825082Y-56475583D01*
X99749940Y-56605733D01*
X99746946Y-56610918D01*
X99706500Y-56761864D01*
X90020000Y-56761864D01*
X90020000Y-55530250D01*
X90120000Y-55530000D01*
X90120000Y-54361864D01*
X91076500Y-54361864D01*
X91076500Y-54518136D01*
X91116946Y-54669082D01*
X91195082Y-54804417D01*
X91305583Y-54914918D01*
X91440918Y-54993054D01*
X91591864Y-55033500D01*
X91591867Y-55033500D01*
X91748133Y-55033500D01*
X91748136Y-55033500D01*
X91899082Y-54993054D01*
X92034417Y-54914918D01*
X92144918Y-54804417D01*
X92223054Y-54669082D01*
X92263500Y-54518136D01*
X92263500Y-54361864D01*
X92223054Y-54210918D01*
X92144918Y-54075583D01*
X92034417Y-53965082D01*
X91899082Y-53886946D01*
X91748136Y-53846500D01*
X91591864Y-53846500D01*
X91440918Y-53886946D01*
X91440916Y-53886946D01*
X91440916Y-53886947D01*
X91305583Y-53965082D01*
X91305580Y-53965084D01*
X91195084Y-54075580D01*
X91195082Y-54075583D01*
X91116946Y-54210918D01*
X91076500Y-54361864D01*
X90120000Y-54361864D01*
X90120000Y-53321864D01*
X97086500Y-53321864D01*
X97086500Y-53478136D01*
X97126946Y-53629082D01*
X97205082Y-53764417D01*
X97315583Y-53874918D01*
X97450918Y-53953054D01*
X97601864Y-53993500D01*
X97601867Y-53993500D01*
X97758133Y-53993500D01*
X97758136Y-53993500D01*
X97909082Y-53953054D01*
X98044417Y-53874918D01*
X98154918Y-53764417D01*
X98233054Y-53629082D01*
X98273500Y-53478136D01*
X98273500Y-53321864D01*
X98233054Y-53170918D01*
X98154918Y-53035583D01*
X98044417Y-52925082D01*
X97909082Y-52846946D01*
X97758136Y-52806500D01*
X97601864Y-52806500D01*
X97450918Y-52846946D01*
X97450916Y-52846946D01*
X97450916Y-52846947D01*
X97315583Y-52925082D01*
X97315580Y-52925084D01*
X97205084Y-53035580D01*
X97205082Y-53035583D01*
X97126946Y-53170918D01*
X97086500Y-53321864D01*
X90120000Y-53321864D01*
X90120000Y-50756864D01*
X91036500Y-50756864D01*
X91036500Y-50913136D01*
X91076946Y-51064082D01*
X91155082Y-51199417D01*
X91155085Y-51199420D01*
X91160029Y-51205863D01*
X91157230Y-51208010D01*
X91182963Y-51255136D01*
X91177979Y-51324828D01*
X91168025Y-51342898D01*
X91169146Y-51343545D01*
X91165083Y-51350581D01*
X91165082Y-51350583D01*
X91086946Y-51485918D01*
X91046500Y-51636864D01*
X91046500Y-51793136D01*
X91086946Y-51944082D01*
X91165082Y-52079417D01*
X91275583Y-52189918D01*
X91410918Y-52268054D01*
X91561864Y-52308500D01*
X91561867Y-52308500D01*
X91718133Y-52308500D01*
X91718136Y-52308500D01*
X91869082Y-52268054D01*
X92004417Y-52189918D01*
X92114918Y-52079417D01*
X92193054Y-51944082D01*
X92233500Y-51793136D01*
X92233500Y-51636864D01*
X92193054Y-51485918D01*
X92114918Y-51350583D01*
X92114913Y-51350578D01*
X92109971Y-51344137D01*
X92112769Y-51341989D01*
X92087036Y-51294863D01*
X92092020Y-51225171D01*
X92102172Y-51207216D01*
X92100854Y-51206455D01*
X92104916Y-51199418D01*
X92104918Y-51199417D01*
X92183054Y-51064082D01*
X92223500Y-50913136D01*
X92223500Y-50756864D01*
X92183054Y-50605918D01*
X92104918Y-50470583D01*
X91994417Y-50360082D01*
X91859082Y-50281946D01*
X91708136Y-50241500D01*
X91551864Y-50241500D01*
X91400918Y-50281946D01*
X91400916Y-50281946D01*
X91400916Y-50281947D01*
X91265583Y-50360082D01*
X91265580Y-50360084D01*
X91155084Y-50470580D01*
X91155082Y-50470583D01*
X91076946Y-50605918D01*
X91036500Y-50756864D01*
X90120000Y-50756864D01*
X90120000Y-50570000D01*
X90020000Y-50570000D01*
X90020000Y-32629500D01*
X90039685Y-32562461D01*
X90092489Y-32516706D01*
X90144000Y-32505500D01*
X119690500Y-32505500D01*
X119757539Y-32525185D01*
G37*
%TD.AperFunction*%
%TD*%
M02*
