%TF.GenerationSoftware,KiCad,Pcbnew,9.0.1+dfsg-1*%
%TF.CreationDate,2025-04-21T22:05:23+03:00*%
%TF.ProjectId,legacy_av_in,6c656761-6379-45f6-9176-5f696e2e6b69,rev?*%
%TF.SameCoordinates,Original*%
%TF.FileFunction,Copper,L2,Inr*%
%TF.FilePolarity,Positive*%
%FSLAX46Y46*%
G04 Gerber Fmt 4.6, Leading zero omitted, Abs format (unit mm)*
G04 Created by KiCad (PCBNEW 9.0.1+dfsg-1) date 2025-04-21 22:05:23*
%MOMM*%
%LPD*%
G01*
G04 APERTURE LIST*
%TA.AperFunction,ComponentPad*%
%ADD10R,1.700000X1.700000*%
%TD*%
%TA.AperFunction,ComponentPad*%
%ADD11O,1.700000X1.700000*%
%TD*%
%TA.AperFunction,ComponentPad*%
%ADD12C,2.540000*%
%TD*%
%TA.AperFunction,ComponentPad*%
%ADD13C,0.500000*%
%TD*%
%TA.AperFunction,ComponentPad*%
%ADD14C,5.500000*%
%TD*%
%TA.AperFunction,ComponentPad*%
%ADD15R,1.408000X1.408000*%
%TD*%
%TA.AperFunction,ComponentPad*%
%ADD16C,1.408000*%
%TD*%
%TA.AperFunction,ComponentPad*%
%ADD17O,2.730000X1.230000*%
%TD*%
%TA.AperFunction,ComponentPad*%
%ADD18O,1.230000X2.730000*%
%TD*%
%TA.AperFunction,ComponentPad*%
%ADD19O,1.800000X3.600000*%
%TD*%
%TA.AperFunction,ComponentPad*%
%ADD20O,4.200000X2.100000*%
%TD*%
%TA.AperFunction,ComponentPad*%
%ADD21R,1.600000X1.600000*%
%TD*%
%TA.AperFunction,ComponentPad*%
%ADD22C,1.600000*%
%TD*%
%TA.AperFunction,ComponentPad*%
%ADD23C,0.600000*%
%TD*%
%TA.AperFunction,ComponentPad*%
%ADD24C,3.250000*%
%TD*%
%TA.AperFunction,ComponentPad*%
%ADD25C,1.700000*%
%TD*%
%TA.AperFunction,ViaPad*%
%ADD26C,0.686000*%
%TD*%
G04 APERTURE END LIST*
D10*
%TO.N,/ADV_CLKIN*%
%TO.C,J1*%
X48925790Y-27248710D03*
D11*
%TO.N,/PCM_CLKIN*%
X46385790Y-27248710D03*
%TO.N,/ADV_LLC*%
X48925790Y-29788710D03*
%TO.N,unconnected-(J1-Pin_4-Pad4)*%
X46385790Y-29788710D03*
%TO.N,unconnected-(J1-Pin_5-Pad5)*%
X48925790Y-32328710D03*
%TO.N,unconnected-(J1-Pin_6-Pad6)*%
X46385790Y-32328710D03*
%TO.N,unconnected-(J1-Pin_7-Pad7)*%
X48925790Y-34868710D03*
%TO.N,unconnected-(J1-Pin_8-Pad8)*%
X46385790Y-34868710D03*
%TO.N,/ADV_VS*%
X48925790Y-37408710D03*
%TO.N,/ADV_IRQ*%
X46385790Y-37408710D03*
%TO.N,unconnected-(J1-Pin_11-Pad11)*%
X48925790Y-39948710D03*
%TO.N,/ADV_HS*%
X46385790Y-39948710D03*
%TO.N,/ADV_P6*%
X48925790Y-42488710D03*
%TO.N,/ADV_P7*%
X46385790Y-42488710D03*
%TO.N,/ADV_P4*%
X48925790Y-45028710D03*
%TO.N,/ADV_P5*%
X46385790Y-45028710D03*
%TO.N,/DVDD5*%
X48925790Y-47568710D03*
%TO.N,GND*%
X46385790Y-47568710D03*
%TO.N,/ADV_P2*%
X48925790Y-50108710D03*
%TO.N,/ADV_P3*%
X46385790Y-50108710D03*
%TO.N,/ADV_P0*%
X48925790Y-52648710D03*
%TO.N,/ADV_P1*%
X46385790Y-52648710D03*
%TO.N,/I2S_BCK_o*%
X48925790Y-55188710D03*
%TO.N,/I2S_WS_o*%
X46385790Y-55188710D03*
%TO.N,/I2S_DATA_o*%
X48925790Y-57728710D03*
%TO.N,unconnected-(J1-Pin_26-Pad26)*%
X46385790Y-57728710D03*
%TO.N,unconnected-(J1-Pin_27-Pad27)*%
X48925790Y-60268710D03*
%TO.N,unconnected-(J1-Pin_28-Pad28)*%
X46385790Y-60268710D03*
%TO.N,unconnected-(J1-Pin_29-Pad29)*%
X48925790Y-62808710D03*
%TO.N,unconnected-(J1-Pin_30-Pad30)*%
X46385790Y-62808710D03*
%TO.N,unconnected-(J1-Pin_31-Pad31)*%
X48925790Y-65348710D03*
%TO.N,unconnected-(J1-Pin_32-Pad32)*%
X46385790Y-65348710D03*
%TO.N,unconnected-(J1-Pin_33-Pad33)*%
X48925790Y-67888710D03*
%TO.N,unconnected-(J1-Pin_34-Pad34)*%
X46385790Y-67888710D03*
%TO.N,/DVDD3v3*%
X48925790Y-70428710D03*
%TO.N,GND*%
X46385790Y-70428710D03*
%TO.N,unconnected-(J1-Pin_37-Pad37)*%
X48925790Y-72968710D03*
%TO.N,unconnected-(J1-Pin_38-Pad38)*%
X46385790Y-72968710D03*
%TO.N,unconnected-(J1-Pin_39-Pad39)*%
X48925790Y-75508710D03*
%TO.N,unconnected-(J1-Pin_40-Pad40)*%
X46385790Y-75508710D03*
%TO.N,unconnected-(J1-Pin_41-Pad41)*%
X48925790Y-78048710D03*
%TO.N,unconnected-(J1-Pin_42-Pad42)*%
X46385790Y-78048710D03*
%TO.N,unconnected-(J1-Pin_43-Pad43)*%
X48925790Y-80588710D03*
%TO.N,unconnected-(J1-Pin_44-Pad44)*%
X46385790Y-80588710D03*
%TO.N,/I2S_BCK*%
X48925790Y-83128710D03*
%TO.N,/I2S_WS*%
X46385790Y-83128710D03*
%TO.N,/I2S_DATA*%
X48925790Y-85668710D03*
%TO.N,/SPDIF*%
X46385790Y-85668710D03*
%TO.N,/SDA*%
X48925790Y-88208710D03*
%TO.N,/SCL*%
X46385790Y-88208710D03*
%TD*%
D12*
%TO.N,GND*%
%TO.C,ST1*%
X53190000Y-15300000D03*
X48110000Y-15300000D03*
X53190000Y-20740000D03*
X48110000Y-20740000D03*
%TD*%
%TO.N,GND*%
%TO.C,ST2*%
X53190000Y-94720000D03*
X48110000Y-94720000D03*
X53190000Y-100160000D03*
X48110000Y-100160000D03*
%TD*%
D13*
%TO.N,GND*%
%TO.C,U2*%
X91670000Y-64190000D03*
X90720000Y-64190000D03*
X89770000Y-64190000D03*
X91670000Y-65140000D03*
X90720000Y-65140000D03*
X89770000Y-65140000D03*
X91670000Y-66090000D03*
X90720000Y-66090000D03*
X89770000Y-66090000D03*
%TD*%
D14*
%TO.N,N/C*%
%TO.C,MH4*%
X94900000Y-79930000D03*
%TD*%
D15*
%TO.N,GND*%
%TO.C,J4*%
X85190000Y-74890000D03*
D16*
X78390000Y-74890000D03*
%TO.N,/SV_Y*%
X85190000Y-72390000D03*
%TO.N,/SV_C*%
X78390000Y-72390000D03*
D17*
%TO.N,N/C*%
X81790000Y-78690000D03*
D18*
X75040000Y-77890000D03*
X88540000Y-77890000D03*
%TD*%
D19*
%TO.N,/CVBS1*%
%TO.C,J3*%
X61887500Y-75700000D03*
X69387500Y-75700000D03*
D20*
%TO.N,GND*%
X65637500Y-79400000D03*
%TD*%
D21*
%TO.N,Net-(C3-Pad1)*%
%TO.C,C42*%
X56220000Y-68940000D03*
D22*
%TO.N,Net-(J5-Pin_1)*%
X56220000Y-71440000D03*
%TD*%
D23*
%TO.N,GND*%
%TO.C,U1*%
X67100000Y-54277500D03*
X65600000Y-54277500D03*
X64100000Y-54277500D03*
X67100000Y-55777500D03*
X65600000Y-55777500D03*
X64100000Y-55777500D03*
X67100000Y-57277500D03*
X65600000Y-57277500D03*
X64100000Y-57277500D03*
%TD*%
D24*
%TO.N,Net-(D3-TVS2)*%
%TO.C,J2*%
X105780000Y-70000000D03*
%TO.N,GND*%
X110080000Y-74300000D03*
X110080000Y-65700000D03*
X101480000Y-74300000D03*
X101480000Y-65700000D03*
%TD*%
D14*
%TO.N,N/C*%
%TO.C,MH5*%
X65950000Y-38360000D03*
%TD*%
D10*
%TO.N,Net-(J5-Pin_1)*%
%TO.C,J5*%
X57205000Y-76180000D03*
D25*
%TO.N,GND*%
X54665000Y-76180000D03*
%TD*%
D26*
%TO.N,GND*%
X100738408Y-78046427D03*
X60098408Y-78046427D03*
X77878408Y-34866427D03*
X118518408Y-80586427D03*
X93120000Y-73120000D03*
X52478408Y-75506427D03*
X62638408Y-70426427D03*
X88038408Y-39946427D03*
X115978408Y-78046427D03*
X67360000Y-50180000D03*
X70258408Y-37406427D03*
X88038408Y-72966427D03*
X57558408Y-78046427D03*
X85498408Y-37406427D03*
X100738408Y-70426427D03*
X52478408Y-60266427D03*
X72798408Y-47566427D03*
X77878408Y-37406427D03*
X75240000Y-60690000D03*
X86520000Y-67610000D03*
X44858408Y-27246427D03*
X44858408Y-34866427D03*
X80418408Y-72966427D03*
X44858408Y-32326427D03*
X68460000Y-61990000D03*
X72798408Y-34866427D03*
X118518408Y-78046427D03*
X85498408Y-78046427D03*
X84620000Y-56530000D03*
X75338408Y-80586427D03*
X105818408Y-72966427D03*
X75900000Y-51070000D03*
X49938408Y-24706427D03*
X63700000Y-50247000D03*
X118518408Y-72966427D03*
X55018408Y-22166427D03*
X75338408Y-34866427D03*
X44858408Y-83126427D03*
X77878408Y-42486427D03*
X90578408Y-80586427D03*
X67718408Y-34866427D03*
X55018408Y-90746427D03*
X85498408Y-80586427D03*
X62638408Y-39946427D03*
X44858408Y-72966427D03*
X82958408Y-52646427D03*
X113438408Y-65346427D03*
X52478408Y-90746427D03*
X110898408Y-78046427D03*
X103278408Y-80586427D03*
X95658408Y-70426427D03*
X59990000Y-60390000D03*
X59240000Y-57500000D03*
X105818408Y-62806427D03*
X79710000Y-46710000D03*
X93690000Y-69810000D03*
X60098408Y-75506427D03*
X55018408Y-27246427D03*
X85498408Y-39946427D03*
X91160000Y-68900000D03*
X57558408Y-47566427D03*
X108358408Y-70426427D03*
X83930000Y-45280000D03*
X105818408Y-80586427D03*
X65820000Y-62490000D03*
X44858408Y-42486427D03*
X80418408Y-75506427D03*
X89740000Y-60060000D03*
X60098408Y-62806427D03*
X87460000Y-67590000D03*
X113438408Y-72966427D03*
X88038408Y-80586427D03*
X115978408Y-75506427D03*
X44858408Y-70426427D03*
X55018408Y-78046427D03*
X77878408Y-39946427D03*
X55018408Y-45026427D03*
X57558408Y-57726427D03*
X77878408Y-80586427D03*
X44858408Y-80586427D03*
X49938408Y-22166427D03*
X44858408Y-67886427D03*
X98198408Y-78046427D03*
X86680000Y-55430000D03*
X78070000Y-59290000D03*
X80418408Y-37406427D03*
X103278408Y-70426427D03*
X82958408Y-39946427D03*
X82958408Y-37406427D03*
X60098408Y-34866427D03*
X49938408Y-17086427D03*
X115978408Y-65346427D03*
X55018408Y-24706427D03*
X49938408Y-98366427D03*
X57558408Y-62806427D03*
X70258408Y-45026427D03*
X44858408Y-55186427D03*
X62638408Y-34866427D03*
X75338408Y-42486427D03*
X82958408Y-80586427D03*
X118518408Y-62806427D03*
X57558408Y-34866427D03*
X77878408Y-78046427D03*
X85498408Y-70426427D03*
X60098408Y-37406427D03*
X52478408Y-24706427D03*
X55018408Y-62806427D03*
X60098408Y-70426427D03*
X70258408Y-65346427D03*
X118518408Y-70426427D03*
X80418408Y-34866427D03*
X57558408Y-70426427D03*
X75930000Y-52480000D03*
X67718408Y-72966427D03*
X85050000Y-50450000D03*
X55018408Y-32326427D03*
X44858408Y-75506427D03*
X103278408Y-78046427D03*
X85750000Y-62350000D03*
X44858408Y-60266427D03*
X88038408Y-70426427D03*
X108358408Y-67886427D03*
X60098408Y-65346427D03*
X65178408Y-75506427D03*
X108358408Y-78046427D03*
X70258408Y-39946427D03*
X44858408Y-78046427D03*
X65178408Y-34866427D03*
X52478408Y-70426427D03*
X85498408Y-34866427D03*
X52478408Y-62806427D03*
X52478408Y-32326427D03*
X75338408Y-75506427D03*
X118518408Y-65346427D03*
X84450000Y-55690000D03*
X82958408Y-55186427D03*
X47398408Y-24706427D03*
X113438408Y-75506427D03*
X55018408Y-95826427D03*
X44858408Y-45026427D03*
X82958408Y-34866427D03*
X55018408Y-93286427D03*
X55018408Y-19626427D03*
X84430000Y-49480000D03*
X55018408Y-34866427D03*
X72798408Y-42486427D03*
X110898408Y-62806427D03*
X80418408Y-52646427D03*
X81560000Y-43830000D03*
X52478408Y-72966427D03*
X44858408Y-57726427D03*
X55018408Y-98366427D03*
X44858408Y-52646427D03*
X88038408Y-75506427D03*
X72798408Y-39946427D03*
X60098408Y-50106427D03*
X105818408Y-65346427D03*
X113438408Y-80586427D03*
X49938408Y-93286427D03*
X90578408Y-75506427D03*
X115978408Y-62806427D03*
X52478408Y-78046427D03*
X105818408Y-78046427D03*
X118518408Y-67886427D03*
X49938408Y-90746427D03*
X44858408Y-37406427D03*
X110898408Y-80586427D03*
X72798408Y-37406427D03*
X88038408Y-34866427D03*
X49938408Y-95826427D03*
X85150000Y-45400000D03*
X80418408Y-39946427D03*
X113438408Y-62806427D03*
X60098408Y-72966427D03*
X70258408Y-34866427D03*
X75338408Y-65346427D03*
X82958408Y-72966427D03*
X113438408Y-78046427D03*
X44858408Y-85666427D03*
X52478408Y-67886427D03*
X57558408Y-65346427D03*
X100738408Y-80586427D03*
X44858408Y-88206427D03*
X44858408Y-62806427D03*
X47398408Y-90746427D03*
X115978408Y-72966427D03*
X55018408Y-72966427D03*
X75338408Y-39946427D03*
X82958408Y-75506427D03*
X44858408Y-65346427D03*
X88038408Y-37406427D03*
X105818408Y-75506427D03*
X55018408Y-65346427D03*
X80418408Y-80586427D03*
X103278408Y-67886427D03*
X67880000Y-71320000D03*
X44858408Y-47566427D03*
X90578408Y-78046427D03*
X108358408Y-80586427D03*
X75338408Y-37406427D03*
X44858408Y-29786427D03*
X67718408Y-65346427D03*
X113438408Y-70426427D03*
X115978408Y-80586427D03*
X55018408Y-17086427D03*
X96590000Y-60240000D03*
X78030000Y-61420000D03*
X62638408Y-72966427D03*
X118518408Y-75506427D03*
X110898408Y-70426427D03*
X44858408Y-39946427D03*
X52478408Y-42486427D03*
X44858408Y-50106427D03*
X52478408Y-57726427D03*
X49938408Y-19626427D03*
X52478408Y-65346427D03*
%TO.N,/DVDD3v3*%
X82210000Y-59737000D03*
X50910000Y-70260000D03*
X82200000Y-59010000D03*
X50880000Y-71630000D03*
X68070000Y-52940000D03*
X76260000Y-61340000D03*
%TO.N,/DVDD5*%
X82940000Y-43250000D03*
X84880000Y-43230000D03*
X88620000Y-51710000D03*
X84970000Y-51590000D03*
%TO.N,Net-(C3-Pad1)*%
X64980000Y-66310000D03*
%TO.N,/DVDD1v8*%
X87850000Y-47230000D03*
X66500000Y-49780000D03*
X87770000Y-48640000D03*
X86960000Y-47890000D03*
X68280000Y-59890000D03*
X62620000Y-59010000D03*
X61930000Y-56570000D03*
X86310000Y-48840000D03*
%TO.N,/DVDD1v8RF*%
X87730000Y-65680000D03*
X84920000Y-66470000D03*
X83260000Y-66470000D03*
X87610000Y-62650000D03*
%TO.N,/SV_C*%
X77610000Y-67510000D03*
%TO.N,/SDA_F*%
X70500000Y-56510000D03*
X73450000Y-58340000D03*
X56210000Y-80150000D03*
X89911998Y-61420000D03*
X71140000Y-58470000D03*
%TO.N,/SCL_F*%
X70520000Y-55350000D03*
X90960000Y-62030000D03*
X55320000Y-82270000D03*
%TO.N,/ADV_CLKIN*%
X51560000Y-49480000D03*
X55540000Y-60150000D03*
X55110000Y-53100000D03*
%TO.N,/ADV_LLC*%
X67690000Y-44740000D03*
X68200000Y-49080000D03*
%TO.N,/I2S_BCK_o*%
X73770000Y-51810000D03*
%TO.N,/I2S_WS_o*%
X73790000Y-50860000D03*
%TO.N,/I2S_DATA_o*%
X73760000Y-52800000D03*
%TO.N,Net-(U2-ADDR)*%
X93680000Y-65180000D03*
X98510000Y-70220000D03*
%TO.N,/CVBS2*%
X73910000Y-67940000D03*
X86340000Y-63140000D03*
%TO.N,/DVDD3v3RF*%
X85810000Y-59220000D03*
X86250000Y-58180000D03*
X81350000Y-66370000D03*
X84710000Y-64170000D03*
X84860000Y-59220000D03*
X84450000Y-58180000D03*
X92590000Y-68270000D03*
X81340000Y-65600000D03*
X85330000Y-58170000D03*
%TO.N,Net-(U1-~PWRDWN)*%
X80730000Y-55730000D03*
X69530000Y-53190000D03*
%TO.N,Net-(U1-~RESET)*%
X81130000Y-59110000D03*
X69210000Y-57370000D03*
%TO.N,Net-(U2-RSTB)*%
X88140000Y-59410000D03*
X93880000Y-64260000D03*
%TD*%
%TA.AperFunction,Conductor*%
%TO.N,GND*%
G36*
X57156621Y-13715502D02*
G01*
X57203114Y-13769158D01*
X57214500Y-13821500D01*
X57214500Y-32490563D01*
X57229436Y-32505499D01*
X57229438Y-32505500D01*
X89398500Y-32505500D01*
X89466621Y-32525502D01*
X89513114Y-32579158D01*
X89524500Y-32631500D01*
X89524500Y-59510563D01*
X89539436Y-59525499D01*
X89539438Y-59525500D01*
X119688500Y-59525500D01*
X119756621Y-59545502D01*
X119803114Y-59599158D01*
X119814500Y-59651500D01*
X119814500Y-83348500D01*
X119794498Y-83416621D01*
X119740842Y-83463114D01*
X119688500Y-83474500D01*
X57229436Y-83474500D01*
X57214500Y-83489436D01*
X57214500Y-101598500D01*
X57194498Y-101666621D01*
X57140842Y-101713114D01*
X57088500Y-101724500D01*
X46651500Y-101724500D01*
X46583379Y-101704498D01*
X46536886Y-101650842D01*
X46525500Y-101598500D01*
X46525500Y-91489438D01*
X46525499Y-91489436D01*
X46510563Y-91474500D01*
X46510562Y-91474500D01*
X43651500Y-91474500D01*
X43583379Y-91454498D01*
X43536886Y-91400842D01*
X43525500Y-91348500D01*
X43525500Y-88122099D01*
X45285290Y-88122099D01*
X45285290Y-88295321D01*
X45312388Y-88466411D01*
X45365917Y-88631155D01*
X45365918Y-88631158D01*
X45365920Y-88631162D01*
X45444558Y-88785498D01*
X45546377Y-88925640D01*
X45668859Y-89048122D01*
X45668862Y-89048124D01*
X45809002Y-89149942D01*
X45963345Y-89228583D01*
X46128089Y-89282112D01*
X46299179Y-89309210D01*
X46299182Y-89309210D01*
X46472398Y-89309210D01*
X46472401Y-89309210D01*
X46643491Y-89282112D01*
X46808235Y-89228583D01*
X46962578Y-89149942D01*
X47102718Y-89048124D01*
X47225204Y-88925638D01*
X47327022Y-88785498D01*
X47405663Y-88631155D01*
X47459192Y-88466411D01*
X47486290Y-88295321D01*
X47486290Y-88122099D01*
X47825290Y-88122099D01*
X47825290Y-88295321D01*
X47852388Y-88466411D01*
X47905917Y-88631155D01*
X47905918Y-88631158D01*
X47905920Y-88631162D01*
X47984558Y-88785498D01*
X48086377Y-88925640D01*
X48208859Y-89048122D01*
X48208862Y-89048124D01*
X48349002Y-89149942D01*
X48503345Y-89228583D01*
X48668089Y-89282112D01*
X48839179Y-89309210D01*
X48839182Y-89309210D01*
X49012398Y-89309210D01*
X49012401Y-89309210D01*
X49183491Y-89282112D01*
X49348235Y-89228583D01*
X49502578Y-89149942D01*
X49642718Y-89048124D01*
X49765204Y-88925638D01*
X49867022Y-88785498D01*
X49945663Y-88631155D01*
X49999192Y-88466411D01*
X50026290Y-88295321D01*
X50026290Y-88122099D01*
X49999192Y-87951009D01*
X49945663Y-87786265D01*
X49867022Y-87631922D01*
X49765204Y-87491782D01*
X49765202Y-87491779D01*
X49642720Y-87369297D01*
X49502578Y-87267478D01*
X49348242Y-87188840D01*
X49348238Y-87188838D01*
X49348235Y-87188837D01*
X49183491Y-87135308D01*
X49012401Y-87108210D01*
X48839179Y-87108210D01*
X48668089Y-87135308D01*
X48668086Y-87135308D01*
X48668085Y-87135309D01*
X48589043Y-87160991D01*
X48503345Y-87188837D01*
X48503343Y-87188837D01*
X48503337Y-87188840D01*
X48349001Y-87267478D01*
X48208859Y-87369297D01*
X48086377Y-87491779D01*
X47984558Y-87631921D01*
X47905920Y-87786257D01*
X47905917Y-87786263D01*
X47905917Y-87786265D01*
X47852388Y-87951009D01*
X47825290Y-88122099D01*
X47486290Y-88122099D01*
X47459192Y-87951009D01*
X47405663Y-87786265D01*
X47327022Y-87631922D01*
X47225204Y-87491782D01*
X47225202Y-87491779D01*
X47102720Y-87369297D01*
X46962578Y-87267478D01*
X46808242Y-87188840D01*
X46808238Y-87188838D01*
X46808235Y-87188837D01*
X46643491Y-87135308D01*
X46472401Y-87108210D01*
X46299179Y-87108210D01*
X46128089Y-87135308D01*
X46128086Y-87135308D01*
X46128085Y-87135309D01*
X46049043Y-87160991D01*
X45963345Y-87188837D01*
X45963343Y-87188837D01*
X45963337Y-87188840D01*
X45809001Y-87267478D01*
X45668859Y-87369297D01*
X45546377Y-87491779D01*
X45444558Y-87631921D01*
X45365920Y-87786257D01*
X45365917Y-87786263D01*
X45365917Y-87786265D01*
X45312388Y-87951009D01*
X45285290Y-88122099D01*
X43525500Y-88122099D01*
X43525500Y-85582099D01*
X45285290Y-85582099D01*
X45285290Y-85755321D01*
X45312388Y-85926411D01*
X45365917Y-86091155D01*
X45365918Y-86091158D01*
X45365920Y-86091162D01*
X45444558Y-86245498D01*
X45546377Y-86385640D01*
X45668859Y-86508122D01*
X45668862Y-86508124D01*
X45809002Y-86609942D01*
X45963345Y-86688583D01*
X46128089Y-86742112D01*
X46299179Y-86769210D01*
X46299182Y-86769210D01*
X46472398Y-86769210D01*
X46472401Y-86769210D01*
X46643491Y-86742112D01*
X46808235Y-86688583D01*
X46962578Y-86609942D01*
X47102718Y-86508124D01*
X47225204Y-86385638D01*
X47327022Y-86245498D01*
X47405663Y-86091155D01*
X47459192Y-85926411D01*
X47486290Y-85755321D01*
X47486290Y-85582099D01*
X47825290Y-85582099D01*
X47825290Y-85755321D01*
X47852388Y-85926411D01*
X47905917Y-86091155D01*
X47905918Y-86091158D01*
X47905920Y-86091162D01*
X47984558Y-86245498D01*
X48086377Y-86385640D01*
X48208859Y-86508122D01*
X48208862Y-86508124D01*
X48349002Y-86609942D01*
X48503345Y-86688583D01*
X48668089Y-86742112D01*
X48839179Y-86769210D01*
X48839182Y-86769210D01*
X49012398Y-86769210D01*
X49012401Y-86769210D01*
X49183491Y-86742112D01*
X49348235Y-86688583D01*
X49502578Y-86609942D01*
X49642718Y-86508124D01*
X49765204Y-86385638D01*
X49770238Y-86378709D01*
X51449500Y-86378709D01*
X51449500Y-86621290D01*
X51481160Y-86861782D01*
X51543944Y-87096095D01*
X51543945Y-87096097D01*
X51543946Y-87096100D01*
X51636776Y-87320212D01*
X51636777Y-87320213D01*
X51636782Y-87320224D01*
X51758061Y-87530285D01*
X51758063Y-87530288D01*
X51758064Y-87530289D01*
X51905735Y-87722738D01*
X51905739Y-87722742D01*
X51905744Y-87722748D01*
X52077251Y-87894255D01*
X52077256Y-87894259D01*
X52077262Y-87894265D01*
X52269711Y-88041936D01*
X52269714Y-88041938D01*
X52479775Y-88163217D01*
X52479779Y-88163218D01*
X52479788Y-88163224D01*
X52703900Y-88256054D01*
X52938211Y-88318838D01*
X52938215Y-88318838D01*
X52938217Y-88318839D01*
X53000202Y-88326999D01*
X53178712Y-88350500D01*
X53178719Y-88350500D01*
X53421281Y-88350500D01*
X53421288Y-88350500D01*
X53638637Y-88321885D01*
X53661782Y-88318839D01*
X53661782Y-88318838D01*
X53661789Y-88318838D01*
X53896100Y-88256054D01*
X54120212Y-88163224D01*
X54330289Y-88041936D01*
X54522738Y-87894265D01*
X54694265Y-87722738D01*
X54841936Y-87530289D01*
X54963224Y-87320212D01*
X55056054Y-87096100D01*
X55118838Y-86861789D01*
X55150500Y-86621288D01*
X55150500Y-86378712D01*
X55118838Y-86138211D01*
X55056054Y-85903900D01*
X54963224Y-85679788D01*
X54963218Y-85679779D01*
X54963217Y-85679775D01*
X54841938Y-85469714D01*
X54796889Y-85411005D01*
X54694265Y-85277262D01*
X54694259Y-85277256D01*
X54694255Y-85277251D01*
X54522748Y-85105744D01*
X54522742Y-85105739D01*
X54522738Y-85105735D01*
X54330289Y-84958064D01*
X54330288Y-84958063D01*
X54330285Y-84958061D01*
X54120224Y-84836782D01*
X54120216Y-84836778D01*
X54120212Y-84836776D01*
X53896100Y-84743946D01*
X53896097Y-84743945D01*
X53896095Y-84743944D01*
X53661782Y-84681160D01*
X53421290Y-84649500D01*
X53421288Y-84649500D01*
X53178712Y-84649500D01*
X53178709Y-84649500D01*
X52938217Y-84681160D01*
X52703904Y-84743944D01*
X52703900Y-84743946D01*
X52497847Y-84829296D01*
X52479786Y-84836777D01*
X52479775Y-84836782D01*
X52269714Y-84958061D01*
X52077262Y-85105735D01*
X52077251Y-85105744D01*
X51905744Y-85277251D01*
X51905735Y-85277262D01*
X51758061Y-85469714D01*
X51636782Y-85679775D01*
X51636777Y-85679786D01*
X51543946Y-85903900D01*
X51543944Y-85903904D01*
X51481160Y-86138217D01*
X51449500Y-86378709D01*
X49770238Y-86378709D01*
X49867022Y-86245498D01*
X49945663Y-86091155D01*
X49999192Y-85926411D01*
X50026290Y-85755321D01*
X50026290Y-85582099D01*
X49999192Y-85411009D01*
X49945663Y-85246265D01*
X49867022Y-85091922D01*
X49765204Y-84951782D01*
X49765202Y-84951779D01*
X49642720Y-84829297D01*
X49502578Y-84727478D01*
X49348242Y-84648840D01*
X49348238Y-84648838D01*
X49348235Y-84648837D01*
X49183491Y-84595308D01*
X49012401Y-84568210D01*
X48839179Y-84568210D01*
X48668089Y-84595308D01*
X48668086Y-84595308D01*
X48668085Y-84595309D01*
X48589043Y-84620991D01*
X48503345Y-84648837D01*
X48503343Y-84648837D01*
X48503337Y-84648840D01*
X48349001Y-84727478D01*
X48208859Y-84829297D01*
X48086377Y-84951779D01*
X47984558Y-85091921D01*
X47905920Y-85246257D01*
X47905917Y-85246263D01*
X47905917Y-85246265D01*
X47852388Y-85411009D01*
X47825290Y-85582099D01*
X47486290Y-85582099D01*
X47459192Y-85411009D01*
X47405663Y-85246265D01*
X47327022Y-85091922D01*
X47225204Y-84951782D01*
X47225202Y-84951779D01*
X47102720Y-84829297D01*
X46962578Y-84727478D01*
X46808242Y-84648840D01*
X46808238Y-84648838D01*
X46808235Y-84648837D01*
X46643491Y-84595308D01*
X46472401Y-84568210D01*
X46299179Y-84568210D01*
X46128089Y-84595308D01*
X46128086Y-84595308D01*
X46128085Y-84595309D01*
X46049043Y-84620991D01*
X45963345Y-84648837D01*
X45963343Y-84648837D01*
X45963337Y-84648840D01*
X45809001Y-84727478D01*
X45668859Y-84829297D01*
X45546377Y-84951779D01*
X45444558Y-85091921D01*
X45365920Y-85246257D01*
X45365917Y-85246263D01*
X45365917Y-85246265D01*
X45312388Y-85411009D01*
X45285290Y-85582099D01*
X43525500Y-85582099D01*
X43525500Y-83042099D01*
X45285290Y-83042099D01*
X45285290Y-83215321D01*
X45312388Y-83386411D01*
X45365917Y-83551155D01*
X45365918Y-83551158D01*
X45365920Y-83551162D01*
X45444558Y-83705498D01*
X45546377Y-83845640D01*
X45668859Y-83968122D01*
X45668862Y-83968124D01*
X45809002Y-84069942D01*
X45963345Y-84148583D01*
X46128089Y-84202112D01*
X46299179Y-84229210D01*
X46299182Y-84229210D01*
X46472398Y-84229210D01*
X46472401Y-84229210D01*
X46643491Y-84202112D01*
X46808235Y-84148583D01*
X46962578Y-84069942D01*
X47102718Y-83968124D01*
X47225204Y-83845638D01*
X47327022Y-83705498D01*
X47405663Y-83551155D01*
X47459192Y-83386411D01*
X47486290Y-83215321D01*
X47486290Y-83042099D01*
X47825290Y-83042099D01*
X47825290Y-83215321D01*
X47852388Y-83386411D01*
X47905917Y-83551155D01*
X47905918Y-83551158D01*
X47905920Y-83551162D01*
X47984558Y-83705498D01*
X48086377Y-83845640D01*
X48208859Y-83968122D01*
X48208862Y-83968124D01*
X48349002Y-84069942D01*
X48503345Y-84148583D01*
X48668089Y-84202112D01*
X48839179Y-84229210D01*
X48839182Y-84229210D01*
X49012398Y-84229210D01*
X49012401Y-84229210D01*
X49183491Y-84202112D01*
X49348235Y-84148583D01*
X49502578Y-84069942D01*
X49642718Y-83968124D01*
X49765204Y-83845638D01*
X49867022Y-83705498D01*
X49945663Y-83551155D01*
X49999192Y-83386411D01*
X50026290Y-83215321D01*
X50026290Y-83042099D01*
X49999192Y-82871009D01*
X49945663Y-82706265D01*
X49867022Y-82551922D01*
X49765204Y-82411782D01*
X49765202Y-82411779D01*
X49701557Y-82348134D01*
X54726499Y-82348134D01*
X54766945Y-82499079D01*
X54766948Y-82499086D01*
X54845079Y-82634413D01*
X54845087Y-82634423D01*
X54955576Y-82744912D01*
X54955581Y-82744916D01*
X54955583Y-82744918D01*
X55090918Y-82823054D01*
X55241864Y-82863500D01*
X55241866Y-82863500D01*
X55398134Y-82863500D01*
X55398136Y-82863500D01*
X55549082Y-82823054D01*
X55684417Y-82744918D01*
X55794918Y-82634417D01*
X55873054Y-82499082D01*
X55913500Y-82348136D01*
X55913500Y-82191864D01*
X55873054Y-82040918D01*
X55794918Y-81905583D01*
X55794916Y-81905581D01*
X55794912Y-81905576D01*
X55684423Y-81795087D01*
X55684413Y-81795079D01*
X55549086Y-81716948D01*
X55549083Y-81716947D01*
X55549082Y-81716946D01*
X55549080Y-81716945D01*
X55549079Y-81716945D01*
X55508633Y-81706107D01*
X55398136Y-81676500D01*
X55241864Y-81676500D01*
X55160974Y-81698174D01*
X55090920Y-81716945D01*
X55090913Y-81716948D01*
X54955586Y-81795079D01*
X54955576Y-81795087D01*
X54845087Y-81905576D01*
X54845079Y-81905586D01*
X54766948Y-82040913D01*
X54766946Y-82040918D01*
X54732138Y-82170825D01*
X54726500Y-82191865D01*
X54726500Y-82348134D01*
X54726499Y-82348134D01*
X49701557Y-82348134D01*
X49642724Y-82289301D01*
X49642720Y-82289298D01*
X49642718Y-82289296D01*
X49502578Y-82187478D01*
X49348242Y-82108840D01*
X49348238Y-82108838D01*
X49348235Y-82108837D01*
X49183491Y-82055308D01*
X49012401Y-82028210D01*
X48839179Y-82028210D01*
X48668089Y-82055308D01*
X48668086Y-82055308D01*
X48668085Y-82055309D01*
X48589043Y-82080991D01*
X48503345Y-82108837D01*
X48503343Y-82108837D01*
X48503337Y-82108840D01*
X48349001Y-82187478D01*
X48208859Y-82289297D01*
X48086377Y-82411779D01*
X47984558Y-82551921D01*
X47905920Y-82706257D01*
X47905917Y-82706263D01*
X47905917Y-82706265D01*
X47905851Y-82706469D01*
X47869685Y-82817776D01*
X47852388Y-82871009D01*
X47825290Y-83042099D01*
X47486290Y-83042099D01*
X47459192Y-82871009D01*
X47405663Y-82706265D01*
X47327022Y-82551922D01*
X47225204Y-82411782D01*
X47225202Y-82411779D01*
X47102720Y-82289297D01*
X46962578Y-82187478D01*
X46808242Y-82108840D01*
X46808238Y-82108838D01*
X46808235Y-82108837D01*
X46643491Y-82055308D01*
X46472401Y-82028210D01*
X46299179Y-82028210D01*
X46128089Y-82055308D01*
X46128086Y-82055308D01*
X46128085Y-82055309D01*
X46049043Y-82080991D01*
X45963345Y-82108837D01*
X45963343Y-82108837D01*
X45963337Y-82108840D01*
X45809001Y-82187478D01*
X45668859Y-82289297D01*
X45546377Y-82411779D01*
X45444558Y-82551921D01*
X45365920Y-82706257D01*
X45365917Y-82706263D01*
X45365917Y-82706265D01*
X45365851Y-82706469D01*
X45329685Y-82817776D01*
X45312388Y-82871009D01*
X45285290Y-83042099D01*
X43525500Y-83042099D01*
X43525500Y-80502099D01*
X45285290Y-80502099D01*
X45285290Y-80675321D01*
X45312388Y-80846411D01*
X45365917Y-81011155D01*
X45365918Y-81011158D01*
X45365920Y-81011162D01*
X45444558Y-81165498D01*
X45546377Y-81305640D01*
X45668859Y-81428122D01*
X45668862Y-81428124D01*
X45809002Y-81529942D01*
X45963345Y-81608583D01*
X46128089Y-81662112D01*
X46299179Y-81689210D01*
X46299182Y-81689210D01*
X46472398Y-81689210D01*
X46472401Y-81689210D01*
X46643491Y-81662112D01*
X46808235Y-81608583D01*
X46962578Y-81529942D01*
X47102718Y-81428124D01*
X47225204Y-81305638D01*
X47327022Y-81165498D01*
X47405663Y-81011155D01*
X47459192Y-80846411D01*
X47486290Y-80675321D01*
X47486290Y-80502099D01*
X47825290Y-80502099D01*
X47825290Y-80675321D01*
X47852388Y-80846411D01*
X47905917Y-81011155D01*
X47905918Y-81011158D01*
X47905920Y-81011162D01*
X47984558Y-81165498D01*
X48086377Y-81305640D01*
X48208859Y-81428122D01*
X48208862Y-81428124D01*
X48349002Y-81529942D01*
X48503345Y-81608583D01*
X48668089Y-81662112D01*
X48839179Y-81689210D01*
X48839182Y-81689210D01*
X49012398Y-81689210D01*
X49012401Y-81689210D01*
X49183491Y-81662112D01*
X49348235Y-81608583D01*
X49502578Y-81529942D01*
X49642718Y-81428124D01*
X49765204Y-81305638D01*
X49867022Y-81165498D01*
X49945663Y-81011155D01*
X49999192Y-80846411D01*
X50026290Y-80675321D01*
X50026290Y-80502099D01*
X49999192Y-80331009D01*
X49965766Y-80228134D01*
X55616499Y-80228134D01*
X55656945Y-80379079D01*
X55656948Y-80379086D01*
X55735079Y-80514413D01*
X55735087Y-80514423D01*
X55845576Y-80624912D01*
X55845581Y-80624916D01*
X55845583Y-80624918D01*
X55980918Y-80703054D01*
X56131864Y-80743500D01*
X56131866Y-80743500D01*
X56288134Y-80743500D01*
X56288136Y-80743500D01*
X56439082Y-80703054D01*
X56574417Y-80624918D01*
X56684918Y-80514417D01*
X56763054Y-80379082D01*
X56803500Y-80228136D01*
X56803500Y-80071864D01*
X56763054Y-79920918D01*
X56734685Y-79871782D01*
X56705345Y-79820963D01*
X56705344Y-79820962D01*
X56684918Y-79785583D01*
X56684912Y-79785576D01*
X56660830Y-79761494D01*
X91899500Y-79761494D01*
X91899500Y-80098505D01*
X91937233Y-80433398D01*
X91955727Y-80514423D01*
X92012224Y-80761954D01*
X92012226Y-80761960D01*
X92012225Y-80761960D01*
X92123524Y-81080033D01*
X92123535Y-81080060D01*
X92269751Y-81383681D01*
X92269756Y-81383690D01*
X92449051Y-81669036D01*
X92659177Y-81932526D01*
X92897473Y-82170822D01*
X93160963Y-82380948D01*
X93433065Y-82551921D01*
X93446314Y-82560246D01*
X93749949Y-82706469D01*
X93749965Y-82706474D01*
X93749966Y-82706475D01*
X94068039Y-82817774D01*
X94068042Y-82817774D01*
X94068046Y-82817776D01*
X94268378Y-82863500D01*
X94396601Y-82892766D01*
X94396602Y-82892766D01*
X94396606Y-82892767D01*
X94617492Y-82917654D01*
X94731494Y-82930500D01*
X94731496Y-82930500D01*
X95068506Y-82930500D01*
X95165925Y-82919523D01*
X95403394Y-82892767D01*
X95731954Y-82817776D01*
X96050051Y-82706469D01*
X96353686Y-82560246D01*
X96639039Y-82380946D01*
X96902523Y-82170825D01*
X97140825Y-81932523D01*
X97350946Y-81669039D01*
X97530246Y-81383686D01*
X97676469Y-81080051D01*
X97787776Y-80761954D01*
X97862767Y-80433394D01*
X97900500Y-80098504D01*
X97900500Y-79761496D01*
X97899125Y-79749296D01*
X97881960Y-79596946D01*
X97862767Y-79426606D01*
X97787776Y-79098046D01*
X97777466Y-79068583D01*
X97676475Y-78779966D01*
X97676474Y-78779965D01*
X97676469Y-78779949D01*
X97530246Y-78476314D01*
X97527009Y-78471162D01*
X97350948Y-78190963D01*
X97140822Y-77927473D01*
X96902526Y-77689177D01*
X96639036Y-77479051D01*
X96353690Y-77299756D01*
X96353681Y-77299751D01*
X96050060Y-77153535D01*
X96050055Y-77153533D01*
X96050051Y-77153531D01*
X96050045Y-77153528D01*
X96050033Y-77153524D01*
X95731960Y-77042225D01*
X95403398Y-76967233D01*
X95068506Y-76929500D01*
X95068504Y-76929500D01*
X94731496Y-76929500D01*
X94731494Y-76929500D01*
X94396601Y-76967233D01*
X94068039Y-77042225D01*
X93749966Y-77153524D01*
X93749939Y-77153535D01*
X93446318Y-77299751D01*
X93446309Y-77299756D01*
X93160963Y-77479051D01*
X92897473Y-77689177D01*
X92659177Y-77927473D01*
X92449051Y-78190963D01*
X92269756Y-78476309D01*
X92269751Y-78476318D01*
X92123535Y-78779939D01*
X92123524Y-78779966D01*
X92012225Y-79098039D01*
X91937233Y-79426601D01*
X91899500Y-79761494D01*
X56660830Y-79761494D01*
X56574423Y-79675087D01*
X56574413Y-79675079D01*
X56439086Y-79596948D01*
X56439083Y-79596947D01*
X56439082Y-79596946D01*
X56439080Y-79596945D01*
X56439079Y-79596945D01*
X56398633Y-79586107D01*
X56288136Y-79556500D01*
X56131864Y-79556500D01*
X56050974Y-79578174D01*
X55980920Y-79596945D01*
X55980913Y-79596948D01*
X55845586Y-79675079D01*
X55845576Y-79675087D01*
X55735087Y-79785576D01*
X55735079Y-79785586D01*
X55656948Y-79920913D01*
X55656945Y-79920920D01*
X55616500Y-80071865D01*
X55616500Y-80228134D01*
X55616499Y-80228134D01*
X49965766Y-80228134D01*
X49945663Y-80166265D01*
X49867022Y-80011922D01*
X49765204Y-79871782D01*
X49765202Y-79871779D01*
X49642720Y-79749297D01*
X49502578Y-79647478D01*
X49348242Y-79568840D01*
X49348238Y-79568838D01*
X49348235Y-79568837D01*
X49183491Y-79515308D01*
X49012401Y-79488210D01*
X48839179Y-79488210D01*
X48668089Y-79515308D01*
X48668086Y-79515308D01*
X48668085Y-79515309D01*
X48589043Y-79540991D01*
X48503345Y-79568837D01*
X48503343Y-79568837D01*
X48503337Y-79568840D01*
X48349001Y-79647478D01*
X48208859Y-79749297D01*
X48086377Y-79871779D01*
X47984558Y-80011921D01*
X47905920Y-80166257D01*
X47905917Y-80166263D01*
X47905917Y-80166265D01*
X47852388Y-80331009D01*
X47825290Y-80502099D01*
X47486290Y-80502099D01*
X47459192Y-80331009D01*
X47405663Y-80166265D01*
X47327022Y-80011922D01*
X47225204Y-79871782D01*
X47225202Y-79871779D01*
X47102720Y-79749297D01*
X46962578Y-79647478D01*
X46808242Y-79568840D01*
X46808238Y-79568838D01*
X46808235Y-79568837D01*
X46643491Y-79515308D01*
X46472401Y-79488210D01*
X46299179Y-79488210D01*
X46128089Y-79515308D01*
X46128086Y-79515308D01*
X46128085Y-79515309D01*
X46049043Y-79540991D01*
X45963345Y-79568837D01*
X45963343Y-79568837D01*
X45963337Y-79568840D01*
X45809001Y-79647478D01*
X45668859Y-79749297D01*
X45546377Y-79871779D01*
X45444558Y-80011921D01*
X45365920Y-80166257D01*
X45365917Y-80166263D01*
X45365917Y-80166265D01*
X45312388Y-80331009D01*
X45285290Y-80502099D01*
X43525500Y-80502099D01*
X43525500Y-77962099D01*
X45285290Y-77962099D01*
X45285290Y-78135321D01*
X45312388Y-78306411D01*
X45365917Y-78471155D01*
X45365918Y-78471158D01*
X45365920Y-78471162D01*
X45444558Y-78625498D01*
X45546377Y-78765640D01*
X45668859Y-78888122D01*
X45668862Y-78888124D01*
X45809002Y-78989942D01*
X45963345Y-79068583D01*
X46128089Y-79122112D01*
X46299179Y-79149210D01*
X46299182Y-79149210D01*
X46472398Y-79149210D01*
X46472401Y-79149210D01*
X46643491Y-79122112D01*
X46808235Y-79068583D01*
X46962578Y-78989942D01*
X47102718Y-78888124D01*
X47225204Y-78765638D01*
X47327022Y-78625498D01*
X47405663Y-78471155D01*
X47459192Y-78306411D01*
X47486290Y-78135321D01*
X47486290Y-77962099D01*
X47825290Y-77962099D01*
X47825290Y-78135321D01*
X47852388Y-78306411D01*
X47905917Y-78471155D01*
X47905918Y-78471158D01*
X47905920Y-78471162D01*
X47984558Y-78625498D01*
X48086377Y-78765640D01*
X48208859Y-78888122D01*
X48208862Y-78888124D01*
X48349002Y-78989942D01*
X48503345Y-79068583D01*
X48668089Y-79122112D01*
X48839179Y-79149210D01*
X48839182Y-79149210D01*
X49012398Y-79149210D01*
X49012401Y-79149210D01*
X49183491Y-79122112D01*
X49348235Y-79068583D01*
X49502578Y-78989942D01*
X49642718Y-78888124D01*
X49765204Y-78765638D01*
X49867022Y-78625498D01*
X49945663Y-78471155D01*
X49999192Y-78306411D01*
X50026290Y-78135321D01*
X50026290Y-77962099D01*
X49999192Y-77791009D01*
X49945663Y-77626265D01*
X49867022Y-77471922D01*
X49765204Y-77331782D01*
X49765202Y-77331779D01*
X49642720Y-77209297D01*
X49502578Y-77107478D01*
X49348242Y-77028840D01*
X49348238Y-77028838D01*
X49348235Y-77028837D01*
X49183491Y-76975308D01*
X49012401Y-76948210D01*
X48839179Y-76948210D01*
X48668089Y-76975308D01*
X48668086Y-76975308D01*
X48668085Y-76975309D01*
X48589043Y-77000991D01*
X48503345Y-77028837D01*
X48503343Y-77028837D01*
X48503337Y-77028840D01*
X48349001Y-77107478D01*
X48208859Y-77209297D01*
X48086377Y-77331779D01*
X47984558Y-77471921D01*
X47905920Y-77626257D01*
X47905917Y-77626263D01*
X47905917Y-77626265D01*
X47852388Y-77791009D01*
X47825290Y-77962099D01*
X47486290Y-77962099D01*
X47459192Y-77791009D01*
X47405663Y-77626265D01*
X47327022Y-77471922D01*
X47225204Y-77331782D01*
X47225202Y-77331779D01*
X47102720Y-77209297D01*
X46962578Y-77107478D01*
X46808242Y-77028840D01*
X46808238Y-77028838D01*
X46808235Y-77028837D01*
X46643491Y-76975308D01*
X46472401Y-76948210D01*
X46299179Y-76948210D01*
X46128089Y-76975308D01*
X46128086Y-76975308D01*
X46128085Y-76975309D01*
X46049043Y-77000991D01*
X45963345Y-77028837D01*
X45963343Y-77028837D01*
X45963337Y-77028840D01*
X45809001Y-77107478D01*
X45668859Y-77209297D01*
X45546377Y-77331779D01*
X45444558Y-77471921D01*
X45365920Y-77626257D01*
X45365917Y-77626263D01*
X45365917Y-77626265D01*
X45312388Y-77791009D01*
X45285290Y-77962099D01*
X43525500Y-77962099D01*
X43525500Y-75422099D01*
X45285290Y-75422099D01*
X45285290Y-75595321D01*
X45312388Y-75766411D01*
X45365917Y-75931155D01*
X45365918Y-75931158D01*
X45365920Y-75931162D01*
X45444558Y-76085498D01*
X45546377Y-76225640D01*
X45668859Y-76348122D01*
X45668862Y-76348124D01*
X45809002Y-76449942D01*
X45963345Y-76528583D01*
X46128089Y-76582112D01*
X46299179Y-76609210D01*
X46299182Y-76609210D01*
X46472398Y-76609210D01*
X46472401Y-76609210D01*
X46643491Y-76582112D01*
X46808235Y-76528583D01*
X46962578Y-76449942D01*
X47102718Y-76348124D01*
X47225204Y-76225638D01*
X47327022Y-76085498D01*
X47405663Y-75931155D01*
X47459192Y-75766411D01*
X47486290Y-75595321D01*
X47486290Y-75422099D01*
X47825290Y-75422099D01*
X47825290Y-75595321D01*
X47852388Y-75766411D01*
X47905917Y-75931155D01*
X47905918Y-75931158D01*
X47905920Y-75931162D01*
X47984558Y-76085498D01*
X48086377Y-76225640D01*
X48208859Y-76348122D01*
X48208862Y-76348124D01*
X48349002Y-76449942D01*
X48503345Y-76528583D01*
X48668089Y-76582112D01*
X48839179Y-76609210D01*
X48839182Y-76609210D01*
X49012398Y-76609210D01*
X49012401Y-76609210D01*
X49183491Y-76582112D01*
X49348235Y-76528583D01*
X49502578Y-76449942D01*
X49642718Y-76348124D01*
X49765204Y-76225638D01*
X49867022Y-76085498D01*
X49945663Y-75931155D01*
X49999192Y-75766411D01*
X50026290Y-75595321D01*
X50026290Y-75422099D01*
X50007794Y-75305322D01*
X56104500Y-75305322D01*
X56104500Y-77054677D01*
X56119033Y-77127739D01*
X56119034Y-77127740D01*
X56174399Y-77210601D01*
X56257260Y-77265966D01*
X56330326Y-77280500D01*
X58079674Y-77280500D01*
X58152740Y-77265966D01*
X58235601Y-77210601D01*
X58290966Y-77127740D01*
X58305500Y-77054674D01*
X58305500Y-75305326D01*
X58290966Y-75232260D01*
X58235601Y-75149399D01*
X58152740Y-75094034D01*
X58152739Y-75094033D01*
X58079677Y-75079500D01*
X58079674Y-75079500D01*
X56330326Y-75079500D01*
X56330322Y-75079500D01*
X56257260Y-75094033D01*
X56174399Y-75149399D01*
X56119033Y-75232260D01*
X56104500Y-75305322D01*
X50007794Y-75305322D01*
X49999192Y-75251009D01*
X49945663Y-75086265D01*
X49867022Y-74931922D01*
X49765204Y-74791782D01*
X49765202Y-74791779D01*
X49682877Y-74709454D01*
X60737000Y-74709454D01*
X60737000Y-76690546D01*
X60765329Y-76869409D01*
X60765330Y-76869412D01*
X60790932Y-76948210D01*
X60821289Y-77041639D01*
X60903504Y-77202994D01*
X60903506Y-77202997D01*
X60908083Y-77209297D01*
X61009947Y-77349501D01*
X61009949Y-77349503D01*
X61009951Y-77349506D01*
X61137993Y-77477548D01*
X61137996Y-77477550D01*
X61137999Y-77477553D01*
X61284506Y-77583996D01*
X61445861Y-77666211D01*
X61618091Y-77722171D01*
X61796954Y-77750500D01*
X61796957Y-77750500D01*
X61978043Y-77750500D01*
X61978046Y-77750500D01*
X62156909Y-77722171D01*
X62329139Y-77666211D01*
X62490494Y-77583996D01*
X62637001Y-77477553D01*
X62765053Y-77349501D01*
X62871496Y-77202994D01*
X62953711Y-77041639D01*
X63009671Y-76869409D01*
X63038000Y-76690546D01*
X63038000Y-74709454D01*
X68237000Y-74709454D01*
X68237000Y-76690546D01*
X68265329Y-76869409D01*
X68265330Y-76869412D01*
X68290932Y-76948210D01*
X68321289Y-77041639D01*
X68403504Y-77202994D01*
X68403506Y-77202997D01*
X68408083Y-77209297D01*
X68509947Y-77349501D01*
X68509949Y-77349503D01*
X68509951Y-77349506D01*
X68637993Y-77477548D01*
X68637996Y-77477550D01*
X68637999Y-77477553D01*
X68784506Y-77583996D01*
X68945861Y-77666211D01*
X69118091Y-77722171D01*
X69296954Y-77750500D01*
X69296957Y-77750500D01*
X69478043Y-77750500D01*
X69478046Y-77750500D01*
X69656909Y-77722171D01*
X69829139Y-77666211D01*
X69990494Y-77583996D01*
X70137001Y-77477553D01*
X70265053Y-77349501D01*
X70371496Y-77202994D01*
X70447031Y-77054750D01*
X74174500Y-77054750D01*
X74174500Y-78725249D01*
X74207761Y-78892463D01*
X74273001Y-79049963D01*
X74273003Y-79049967D01*
X74306409Y-79099963D01*
X74367722Y-79191724D01*
X74488276Y-79312278D01*
X74563107Y-79362278D01*
X74630032Y-79406996D01*
X74630036Y-79406998D01*
X74787536Y-79472238D01*
X74787540Y-79472238D01*
X74787543Y-79472240D01*
X74914371Y-79497467D01*
X74954750Y-79505499D01*
X74954753Y-79505499D01*
X74954756Y-79505500D01*
X74954757Y-79505500D01*
X75125243Y-79505500D01*
X75125244Y-79505500D01*
X75292457Y-79472240D01*
X75292460Y-79472238D01*
X75292463Y-79472238D01*
X75449963Y-79406998D01*
X75449962Y-79406998D01*
X75449968Y-79406996D01*
X75591724Y-79312278D01*
X75712278Y-79191724D01*
X75806996Y-79049968D01*
X75872240Y-78892457D01*
X75905500Y-78725244D01*
X75905500Y-78604750D01*
X80174500Y-78604750D01*
X80174500Y-78775249D01*
X80207761Y-78942463D01*
X80273001Y-79099963D01*
X80273003Y-79099967D01*
X80273004Y-79099968D01*
X80367722Y-79241724D01*
X80488276Y-79362278D01*
X80584543Y-79426601D01*
X80630032Y-79456996D01*
X80630036Y-79456998D01*
X80787536Y-79522238D01*
X80787540Y-79522238D01*
X80787543Y-79522240D01*
X80914371Y-79547467D01*
X80954750Y-79555499D01*
X80954753Y-79555499D01*
X80954756Y-79555500D01*
X80954757Y-79555500D01*
X82625243Y-79555500D01*
X82625244Y-79555500D01*
X82792457Y-79522240D01*
X82792460Y-79522238D01*
X82792463Y-79522238D01*
X82949963Y-79456998D01*
X82949962Y-79456998D01*
X82949968Y-79456996D01*
X83091724Y-79362278D01*
X83212278Y-79241724D01*
X83306996Y-79099968D01*
X83352571Y-78989942D01*
X83372238Y-78942463D01*
X83372238Y-78942460D01*
X83372240Y-78942457D01*
X83405500Y-78775244D01*
X83405500Y-78604756D01*
X83372240Y-78437543D01*
X83372238Y-78437540D01*
X83372238Y-78437536D01*
X83306998Y-78280036D01*
X83306996Y-78280032D01*
X83247482Y-78190963D01*
X83212278Y-78138276D01*
X83091724Y-78017722D01*
X83019888Y-77969723D01*
X82949967Y-77923003D01*
X82949963Y-77923001D01*
X82792463Y-77857761D01*
X82625249Y-77824500D01*
X82625244Y-77824500D01*
X80954756Y-77824500D01*
X80954750Y-77824500D01*
X80787536Y-77857761D01*
X80630036Y-77923001D01*
X80630032Y-77923003D01*
X80488280Y-78017719D01*
X80488273Y-78017724D01*
X80367724Y-78138273D01*
X80367719Y-78138280D01*
X80273003Y-78280032D01*
X80273001Y-78280036D01*
X80207761Y-78437536D01*
X80174500Y-78604750D01*
X75905500Y-78604750D01*
X75905500Y-77054756D01*
X75905499Y-77054750D01*
X87674500Y-77054750D01*
X87674500Y-78725249D01*
X87707761Y-78892463D01*
X87773001Y-79049963D01*
X87773003Y-79049967D01*
X87806409Y-79099963D01*
X87867722Y-79191724D01*
X87988276Y-79312278D01*
X88063107Y-79362278D01*
X88130032Y-79406996D01*
X88130036Y-79406998D01*
X88287536Y-79472238D01*
X88287540Y-79472238D01*
X88287543Y-79472240D01*
X88414371Y-79497467D01*
X88454750Y-79505499D01*
X88454753Y-79505499D01*
X88454756Y-79505500D01*
X88454757Y-79505500D01*
X88625243Y-79505500D01*
X88625244Y-79505500D01*
X88792457Y-79472240D01*
X88792460Y-79472238D01*
X88792463Y-79472238D01*
X88949963Y-79406998D01*
X88949962Y-79406998D01*
X88949968Y-79406996D01*
X89091724Y-79312278D01*
X89212278Y-79191724D01*
X89306996Y-79049968D01*
X89372240Y-78892457D01*
X89405500Y-78725244D01*
X89405500Y-77054756D01*
X89403007Y-77042225D01*
X89384307Y-76948210D01*
X89372240Y-76887543D01*
X89372238Y-76887540D01*
X89372238Y-76887536D01*
X89306998Y-76730036D01*
X89306996Y-76730032D01*
X89280610Y-76690542D01*
X89212278Y-76588276D01*
X89091724Y-76467722D01*
X88949968Y-76373004D01*
X88949969Y-76373004D01*
X88949967Y-76373003D01*
X88949963Y-76373001D01*
X88792463Y-76307761D01*
X88625249Y-76274500D01*
X88625244Y-76274500D01*
X88454756Y-76274500D01*
X88454750Y-76274500D01*
X88287536Y-76307761D01*
X88130036Y-76373001D01*
X88130032Y-76373003D01*
X87988280Y-76467719D01*
X87988273Y-76467724D01*
X87867724Y-76588273D01*
X87867719Y-76588280D01*
X87773003Y-76730032D01*
X87773001Y-76730036D01*
X87707761Y-76887536D01*
X87674500Y-77054750D01*
X75905499Y-77054750D01*
X75903007Y-77042225D01*
X75884307Y-76948210D01*
X75872240Y-76887543D01*
X75872238Y-76887540D01*
X75872238Y-76887536D01*
X75806998Y-76730036D01*
X75806996Y-76730032D01*
X75780610Y-76690542D01*
X75712278Y-76588276D01*
X75591724Y-76467722D01*
X75449968Y-76373004D01*
X75449969Y-76373004D01*
X75449967Y-76373003D01*
X75449963Y-76373001D01*
X75292463Y-76307761D01*
X75125249Y-76274500D01*
X75125244Y-76274500D01*
X74954756Y-76274500D01*
X74954750Y-76274500D01*
X74787536Y-76307761D01*
X74630036Y-76373001D01*
X74630032Y-76373003D01*
X74488280Y-76467719D01*
X74488273Y-76467724D01*
X74367724Y-76588273D01*
X74367719Y-76588280D01*
X74273003Y-76730032D01*
X74273001Y-76730036D01*
X74207761Y-76887536D01*
X74174500Y-77054750D01*
X70447031Y-77054750D01*
X70453711Y-77041639D01*
X70509671Y-76869409D01*
X70538000Y-76690546D01*
X70538000Y-74709454D01*
X70509671Y-74530591D01*
X70453711Y-74358361D01*
X70371496Y-74197006D01*
X70265053Y-74050499D01*
X70265050Y-74050496D01*
X70265048Y-74050493D01*
X70137006Y-73922451D01*
X70137003Y-73922449D01*
X70137001Y-73922447D01*
X69990494Y-73816004D01*
X69829139Y-73733789D01*
X69829136Y-73733788D01*
X69829134Y-73733787D01*
X69656912Y-73677830D01*
X69656909Y-73677829D01*
X69478046Y-73649500D01*
X69296954Y-73649500D01*
X69118091Y-73677829D01*
X69118088Y-73677829D01*
X69118087Y-73677830D01*
X68945865Y-73733787D01*
X68945859Y-73733790D01*
X68784502Y-73816006D01*
X68637996Y-73922449D01*
X68637993Y-73922451D01*
X68509951Y-74050493D01*
X68509949Y-74050496D01*
X68403506Y-74197002D01*
X68321290Y-74358359D01*
X68321287Y-74358365D01*
X68296287Y-74435309D01*
X68265329Y-74530591D01*
X68237000Y-74709454D01*
X63038000Y-74709454D01*
X63009671Y-74530591D01*
X62953711Y-74358361D01*
X62871496Y-74197006D01*
X62765053Y-74050499D01*
X62765050Y-74050496D01*
X62765048Y-74050493D01*
X62637006Y-73922451D01*
X62637003Y-73922449D01*
X62637001Y-73922447D01*
X62490494Y-73816004D01*
X62329139Y-73733789D01*
X62329136Y-73733788D01*
X62329134Y-73733787D01*
X62156912Y-73677830D01*
X62156909Y-73677829D01*
X61978046Y-73649500D01*
X61796954Y-73649500D01*
X61618091Y-73677829D01*
X61618088Y-73677829D01*
X61618087Y-73677830D01*
X61445865Y-73733787D01*
X61445859Y-73733790D01*
X61284502Y-73816006D01*
X61137996Y-73922449D01*
X61137993Y-73922451D01*
X61009951Y-74050493D01*
X61009949Y-74050496D01*
X60903506Y-74197002D01*
X60821290Y-74358359D01*
X60821287Y-74358365D01*
X60796287Y-74435309D01*
X60765329Y-74530591D01*
X60737000Y-74709454D01*
X49682877Y-74709454D01*
X49642720Y-74669297D01*
X49502578Y-74567478D01*
X49348242Y-74488840D01*
X49348238Y-74488838D01*
X49348235Y-74488837D01*
X49183491Y-74435308D01*
X49012401Y-74408210D01*
X48839179Y-74408210D01*
X48668089Y-74435308D01*
X48668086Y-74435308D01*
X48668085Y-74435309D01*
X48589043Y-74460991D01*
X48503345Y-74488837D01*
X48503343Y-74488837D01*
X48503337Y-74488840D01*
X48349001Y-74567478D01*
X48208859Y-74669297D01*
X48086377Y-74791779D01*
X47984558Y-74931921D01*
X47905920Y-75086257D01*
X47905917Y-75086263D01*
X47905917Y-75086265D01*
X47852388Y-75251009D01*
X47825290Y-75422099D01*
X47486290Y-75422099D01*
X47459192Y-75251009D01*
X47405663Y-75086265D01*
X47327022Y-74931922D01*
X47225204Y-74791782D01*
X47225202Y-74791779D01*
X47102720Y-74669297D01*
X46962578Y-74567478D01*
X46808242Y-74488840D01*
X46808238Y-74488838D01*
X46808235Y-74488837D01*
X46643491Y-74435308D01*
X46472401Y-74408210D01*
X46299179Y-74408210D01*
X46128089Y-74435308D01*
X46128086Y-74435308D01*
X46128085Y-74435309D01*
X46049043Y-74460991D01*
X45963345Y-74488837D01*
X45963343Y-74488837D01*
X45963337Y-74488840D01*
X45809001Y-74567478D01*
X45668859Y-74669297D01*
X45546377Y-74791779D01*
X45444558Y-74931921D01*
X45365920Y-75086257D01*
X45365917Y-75086263D01*
X45365917Y-75086265D01*
X45312388Y-75251009D01*
X45285290Y-75422099D01*
X43525500Y-75422099D01*
X43525500Y-72882099D01*
X45285290Y-72882099D01*
X45285290Y-73055321D01*
X45312388Y-73226411D01*
X45365917Y-73391155D01*
X45365918Y-73391158D01*
X45365920Y-73391162D01*
X45444558Y-73545498D01*
X45546377Y-73685640D01*
X45668859Y-73808122D01*
X45724420Y-73848489D01*
X45809002Y-73909942D01*
X45963345Y-73988583D01*
X46128089Y-74042112D01*
X46299179Y-74069210D01*
X46299182Y-74069210D01*
X46472398Y-74069210D01*
X46472401Y-74069210D01*
X46643491Y-74042112D01*
X46808235Y-73988583D01*
X46962578Y-73909942D01*
X47102718Y-73808124D01*
X47225204Y-73685638D01*
X47327022Y-73545498D01*
X47405663Y-73391155D01*
X47459192Y-73226411D01*
X47486290Y-73055321D01*
X47486290Y-72882099D01*
X47825290Y-72882099D01*
X47825290Y-73055321D01*
X47852388Y-73226411D01*
X47905917Y-73391155D01*
X47905918Y-73391158D01*
X47905920Y-73391162D01*
X47984558Y-73545498D01*
X48086377Y-73685640D01*
X48208859Y-73808122D01*
X48264420Y-73848489D01*
X48349002Y-73909942D01*
X48503345Y-73988583D01*
X48668089Y-74042112D01*
X48839179Y-74069210D01*
X48839182Y-74069210D01*
X49012398Y-74069210D01*
X49012401Y-74069210D01*
X49183491Y-74042112D01*
X49348235Y-73988583D01*
X49502578Y-73909942D01*
X49642718Y-73808124D01*
X49765204Y-73685638D01*
X49867022Y-73545498D01*
X49945663Y-73391155D01*
X49999192Y-73226411D01*
X50026290Y-73055321D01*
X50026290Y-72882099D01*
X49999192Y-72711009D01*
X49945663Y-72546265D01*
X49867022Y-72391922D01*
X49768252Y-72255977D01*
X49765202Y-72251779D01*
X49642720Y-72129297D01*
X49502578Y-72027478D01*
X49348242Y-71948840D01*
X49348238Y-71948838D01*
X49348235Y-71948837D01*
X49183491Y-71895308D01*
X49012401Y-71868210D01*
X48839179Y-71868210D01*
X48668089Y-71895308D01*
X48668086Y-71895308D01*
X48668085Y-71895309D01*
X48589043Y-71920991D01*
X48503345Y-71948837D01*
X48503343Y-71948837D01*
X48503337Y-71948840D01*
X48349001Y-72027478D01*
X48208859Y-72129297D01*
X48086377Y-72251779D01*
X47984558Y-72391921D01*
X47905920Y-72546257D01*
X47905917Y-72546263D01*
X47905917Y-72546265D01*
X47852388Y-72711009D01*
X47825290Y-72882099D01*
X47486290Y-72882099D01*
X47459192Y-72711009D01*
X47405663Y-72546265D01*
X47327022Y-72391922D01*
X47228252Y-72255977D01*
X47225202Y-72251779D01*
X47102720Y-72129297D01*
X46962578Y-72027478D01*
X46808242Y-71948840D01*
X46808238Y-71948838D01*
X46808235Y-71948837D01*
X46643491Y-71895308D01*
X46472401Y-71868210D01*
X46299179Y-71868210D01*
X46128089Y-71895308D01*
X46128086Y-71895308D01*
X46128085Y-71895309D01*
X46049043Y-71920991D01*
X45963345Y-71948837D01*
X45963343Y-71948837D01*
X45963337Y-71948840D01*
X45809001Y-72027478D01*
X45668859Y-72129297D01*
X45546377Y-72251779D01*
X45444558Y-72391921D01*
X45365920Y-72546257D01*
X45365917Y-72546263D01*
X45365917Y-72546265D01*
X45312388Y-72711009D01*
X45285290Y-72882099D01*
X43525500Y-72882099D01*
X43525500Y-71708134D01*
X50286499Y-71708134D01*
X50326945Y-71859079D01*
X50326948Y-71859086D01*
X50405079Y-71994413D01*
X50405087Y-71994423D01*
X50515576Y-72104912D01*
X50515581Y-72104916D01*
X50515583Y-72104918D01*
X50515584Y-72104919D01*
X50515586Y-72104920D01*
X50610711Y-72159840D01*
X50650918Y-72183054D01*
X50801864Y-72223500D01*
X50801866Y-72223500D01*
X50958134Y-72223500D01*
X50958136Y-72223500D01*
X51109082Y-72183054D01*
X51244417Y-72104918D01*
X51354918Y-71994417D01*
X51433054Y-71859082D01*
X51473500Y-71708136D01*
X51473500Y-71551864D01*
X51433054Y-71400918D01*
X51395881Y-71336532D01*
X55169500Y-71336532D01*
X55169500Y-71543467D01*
X55197791Y-71685694D01*
X55209870Y-71746420D01*
X55289059Y-71937598D01*
X55404023Y-72109655D01*
X55404024Y-72109656D01*
X55404029Y-72109662D01*
X55550337Y-72255970D01*
X55550343Y-72255975D01*
X55550345Y-72255977D01*
X55722402Y-72370941D01*
X55913580Y-72450130D01*
X56116535Y-72490500D01*
X56116536Y-72490500D01*
X56323464Y-72490500D01*
X56323465Y-72490500D01*
X56526420Y-72450130D01*
X56717598Y-72370941D01*
X56829775Y-72295987D01*
X77435500Y-72295987D01*
X77435500Y-72484012D01*
X77472181Y-72668417D01*
X77544133Y-72842125D01*
X77570843Y-72882099D01*
X77648591Y-72998457D01*
X77648596Y-72998463D01*
X77781536Y-73131403D01*
X77781542Y-73131408D01*
X77937875Y-73235867D01*
X78111583Y-73307819D01*
X78295990Y-73344500D01*
X78295991Y-73344500D01*
X78484009Y-73344500D01*
X78484010Y-73344500D01*
X78668417Y-73307819D01*
X78842125Y-73235867D01*
X78998458Y-73131408D01*
X79131408Y-72998458D01*
X79235867Y-72842125D01*
X79307819Y-72668417D01*
X79344500Y-72484010D01*
X79344500Y-72295990D01*
X79344499Y-72295987D01*
X84235500Y-72295987D01*
X84235500Y-72484012D01*
X84272181Y-72668417D01*
X84344133Y-72842125D01*
X84370843Y-72882099D01*
X84448591Y-72998457D01*
X84448596Y-72998463D01*
X84581536Y-73131403D01*
X84581542Y-73131408D01*
X84737875Y-73235867D01*
X84911583Y-73307819D01*
X85095990Y-73344500D01*
X85095991Y-73344500D01*
X85284009Y-73344500D01*
X85284010Y-73344500D01*
X85468417Y-73307819D01*
X85642125Y-73235867D01*
X85798458Y-73131408D01*
X85931408Y-72998458D01*
X86035867Y-72842125D01*
X86107819Y-72668417D01*
X86144500Y-72484010D01*
X86144500Y-72295990D01*
X86107819Y-72111583D01*
X86035867Y-71937875D01*
X85931408Y-71781542D01*
X85931403Y-71781536D01*
X85798463Y-71648596D01*
X85798457Y-71648591D01*
X85746583Y-71613930D01*
X85642125Y-71544133D01*
X85468417Y-71472181D01*
X85284012Y-71435500D01*
X85284010Y-71435500D01*
X85095990Y-71435500D01*
X85095987Y-71435500D01*
X84911582Y-71472181D01*
X84911577Y-71472183D01*
X84737875Y-71544133D01*
X84581542Y-71648591D01*
X84581536Y-71648596D01*
X84448596Y-71781536D01*
X84448591Y-71781542D01*
X84344133Y-71937875D01*
X84272183Y-72111577D01*
X84272181Y-72111582D01*
X84235500Y-72295987D01*
X79344499Y-72295987D01*
X79307819Y-72111583D01*
X79235867Y-71937875D01*
X79131408Y-71781542D01*
X79131403Y-71781536D01*
X78998463Y-71648596D01*
X78998457Y-71648591D01*
X78946583Y-71613930D01*
X78842125Y-71544133D01*
X78668417Y-71472181D01*
X78484012Y-71435500D01*
X78484010Y-71435500D01*
X78295990Y-71435500D01*
X78295987Y-71435500D01*
X78111582Y-71472181D01*
X78111577Y-71472183D01*
X77937875Y-71544133D01*
X77781542Y-71648591D01*
X77781536Y-71648596D01*
X77648596Y-71781536D01*
X77648591Y-71781542D01*
X77544133Y-71937875D01*
X77472183Y-72111577D01*
X77472181Y-72111582D01*
X77435500Y-72295987D01*
X56829775Y-72295987D01*
X56889655Y-72255977D01*
X56893853Y-72251779D01*
X56944928Y-72200705D01*
X57035970Y-72109662D01*
X57035977Y-72109655D01*
X57150941Y-71937598D01*
X57230130Y-71746420D01*
X57270500Y-71543465D01*
X57270500Y-71336535D01*
X57230130Y-71133580D01*
X57150941Y-70942402D01*
X57035977Y-70770345D01*
X57035975Y-70770343D01*
X57035970Y-70770337D01*
X56889662Y-70624029D01*
X56889656Y-70624024D01*
X56859917Y-70604153D01*
X56717598Y-70509059D01*
X56526420Y-70429870D01*
X56323467Y-70389500D01*
X56323465Y-70389500D01*
X56116535Y-70389500D01*
X56116532Y-70389500D01*
X55913579Y-70429870D01*
X55913574Y-70429872D01*
X55722402Y-70509059D01*
X55550343Y-70624024D01*
X55550337Y-70624029D01*
X55404029Y-70770337D01*
X55404024Y-70770343D01*
X55289059Y-70942402D01*
X55209872Y-71133574D01*
X55209870Y-71133579D01*
X55169500Y-71336532D01*
X51395881Y-71336532D01*
X51354918Y-71265583D01*
X51354916Y-71265581D01*
X51354912Y-71265576D01*
X51244423Y-71155087D01*
X51244413Y-71155079D01*
X51109086Y-71076948D01*
X51109084Y-71076947D01*
X51109082Y-71076946D01*
X51085863Y-71070724D01*
X51025244Y-71033774D01*
X50994222Y-70969913D01*
X51002651Y-70899419D01*
X51047854Y-70844672D01*
X51085861Y-70827314D01*
X51139082Y-70813054D01*
X51274417Y-70734918D01*
X51384918Y-70624417D01*
X51463054Y-70489082D01*
X51503500Y-70338136D01*
X51503500Y-70298134D01*
X97916499Y-70298134D01*
X97956945Y-70449079D01*
X97956948Y-70449086D01*
X98035079Y-70584413D01*
X98035087Y-70584423D01*
X98145576Y-70694912D01*
X98145581Y-70694916D01*
X98145583Y-70694918D01*
X98280918Y-70773054D01*
X98431864Y-70813500D01*
X98431866Y-70813500D01*
X98588134Y-70813500D01*
X98588136Y-70813500D01*
X98739082Y-70773054D01*
X98874417Y-70694918D01*
X98984918Y-70584417D01*
X99063054Y-70449082D01*
X99103500Y-70298136D01*
X99103500Y-70141864D01*
X99063054Y-69990918D01*
X99008008Y-69895576D01*
X98997324Y-69877070D01*
X103904500Y-69877070D01*
X103904500Y-70122929D01*
X103936589Y-70366669D01*
X103936590Y-70366675D01*
X103936591Y-70366677D01*
X104000222Y-70604153D01*
X104094306Y-70831292D01*
X104094307Y-70831293D01*
X104094312Y-70831304D01*
X104217230Y-71044204D01*
X104217234Y-71044210D01*
X104366894Y-71239250D01*
X104366913Y-71239271D01*
X104540728Y-71413086D01*
X104540738Y-71413095D01*
X104540744Y-71413101D01*
X104540747Y-71413103D01*
X104540749Y-71413105D01*
X104735789Y-71562765D01*
X104735795Y-71562769D01*
X104948695Y-71685687D01*
X104948699Y-71685688D01*
X104948708Y-71685694D01*
X105175847Y-71779778D01*
X105413323Y-71843409D01*
X105413329Y-71843409D01*
X105413330Y-71843410D01*
X105441294Y-71847091D01*
X105657073Y-71875500D01*
X105657080Y-71875500D01*
X105902920Y-71875500D01*
X105902927Y-71875500D01*
X106146677Y-71843409D01*
X106384153Y-71779778D01*
X106611292Y-71685694D01*
X106824208Y-71562767D01*
X107019256Y-71413101D01*
X107193101Y-71239256D01*
X107342767Y-71044208D01*
X107465694Y-70831292D01*
X107559778Y-70604153D01*
X107623409Y-70366677D01*
X107655500Y-70122927D01*
X107655500Y-69877073D01*
X107623409Y-69633323D01*
X107559778Y-69395847D01*
X107465694Y-69168708D01*
X107465688Y-69168699D01*
X107465687Y-69168695D01*
X107342769Y-68955795D01*
X107342765Y-68955789D01*
X107193105Y-68760749D01*
X107193103Y-68760747D01*
X107193101Y-68760744D01*
X107193095Y-68760738D01*
X107193086Y-68760728D01*
X107019271Y-68586913D01*
X107019250Y-68586894D01*
X106824210Y-68437234D01*
X106824204Y-68437230D01*
X106611304Y-68314312D01*
X106611296Y-68314308D01*
X106611292Y-68314306D01*
X106384153Y-68220222D01*
X106146677Y-68156591D01*
X106146675Y-68156590D01*
X106146669Y-68156589D01*
X106086814Y-68148709D01*
X113649500Y-68148709D01*
X113649500Y-68391290D01*
X113681160Y-68631782D01*
X113743944Y-68866095D01*
X113743945Y-68866097D01*
X113743946Y-68866100D01*
X113836776Y-69090212D01*
X113836777Y-69090213D01*
X113836782Y-69090224D01*
X113958061Y-69300285D01*
X113958063Y-69300288D01*
X113958064Y-69300289D01*
X114105735Y-69492738D01*
X114105739Y-69492742D01*
X114105744Y-69492748D01*
X114277251Y-69664255D01*
X114277256Y-69664259D01*
X114277262Y-69664265D01*
X114434721Y-69785087D01*
X114469714Y-69811938D01*
X114679775Y-69933217D01*
X114679779Y-69933218D01*
X114679788Y-69933224D01*
X114903900Y-70026054D01*
X115138211Y-70088838D01*
X115138215Y-70088838D01*
X115138217Y-70088839D01*
X115200202Y-70096999D01*
X115378712Y-70120500D01*
X115378719Y-70120500D01*
X115621281Y-70120500D01*
X115621288Y-70120500D01*
X115838637Y-70091885D01*
X115861782Y-70088839D01*
X115861782Y-70088838D01*
X115861789Y-70088838D01*
X116096100Y-70026054D01*
X116320212Y-69933224D01*
X116530289Y-69811936D01*
X116722738Y-69664265D01*
X116894265Y-69492738D01*
X117041936Y-69300289D01*
X117163224Y-69090212D01*
X117256054Y-68866100D01*
X117318838Y-68631789D01*
X117350500Y-68391288D01*
X117350500Y-68148712D01*
X117318838Y-67908211D01*
X117256054Y-67673900D01*
X117163224Y-67449788D01*
X117163218Y-67449779D01*
X117163217Y-67449775D01*
X117041938Y-67239714D01*
X116969709Y-67145583D01*
X116894265Y-67047262D01*
X116894259Y-67047256D01*
X116894255Y-67047251D01*
X116722748Y-66875744D01*
X116722742Y-66875739D01*
X116722738Y-66875735D01*
X116530289Y-66728064D01*
X116530288Y-66728063D01*
X116530285Y-66728061D01*
X116320224Y-66606782D01*
X116320216Y-66606778D01*
X116320212Y-66606776D01*
X116096100Y-66513946D01*
X116096097Y-66513945D01*
X116096095Y-66513944D01*
X115861782Y-66451160D01*
X115621290Y-66419500D01*
X115621288Y-66419500D01*
X115378712Y-66419500D01*
X115378709Y-66419500D01*
X115138217Y-66451160D01*
X114903904Y-66513944D01*
X114903900Y-66513946D01*
X114698354Y-66599086D01*
X114679786Y-66606777D01*
X114679775Y-66606782D01*
X114469714Y-66728061D01*
X114277262Y-66875735D01*
X114277251Y-66875744D01*
X114105744Y-67047251D01*
X114105735Y-67047262D01*
X113958061Y-67239714D01*
X113836782Y-67449775D01*
X113836777Y-67449786D01*
X113743946Y-67673900D01*
X113743944Y-67673904D01*
X113681160Y-67908217D01*
X113649500Y-68148709D01*
X106086814Y-68148709D01*
X105902929Y-68124500D01*
X105902927Y-68124500D01*
X105657073Y-68124500D01*
X105657070Y-68124500D01*
X105413330Y-68156589D01*
X105175847Y-68220222D01*
X104956299Y-68311162D01*
X104948706Y-68314307D01*
X104948695Y-68314312D01*
X104735795Y-68437230D01*
X104735789Y-68437234D01*
X104540749Y-68586894D01*
X104540728Y-68586913D01*
X104366913Y-68760728D01*
X104366894Y-68760749D01*
X104217234Y-68955789D01*
X104217230Y-68955795D01*
X104094312Y-69168695D01*
X104094307Y-69168706D01*
X104000222Y-69395847D01*
X103936589Y-69633330D01*
X103904500Y-69877070D01*
X98997324Y-69877070D01*
X98984920Y-69855586D01*
X98984912Y-69855576D01*
X98874423Y-69745087D01*
X98874413Y-69745079D01*
X98739086Y-69666948D01*
X98739083Y-69666947D01*
X98739082Y-69666946D01*
X98739080Y-69666945D01*
X98739079Y-69666945D01*
X98698633Y-69656107D01*
X98588136Y-69626500D01*
X98431864Y-69626500D01*
X98350974Y-69648174D01*
X98280920Y-69666945D01*
X98280913Y-69666948D01*
X98145586Y-69745079D01*
X98145576Y-69745087D01*
X98035087Y-69855576D01*
X98035079Y-69855586D01*
X97956948Y-69990913D01*
X97956945Y-69990920D01*
X97947531Y-70026054D01*
X97922225Y-70120500D01*
X97916500Y-70141865D01*
X97916500Y-70298134D01*
X97916499Y-70298134D01*
X51503500Y-70298134D01*
X51503500Y-70181864D01*
X51463054Y-70030918D01*
X51384918Y-69895583D01*
X51384916Y-69895581D01*
X51384912Y-69895576D01*
X51274423Y-69785087D01*
X51274413Y-69785079D01*
X51139086Y-69706948D01*
X51139083Y-69706947D01*
X51139082Y-69706946D01*
X51139080Y-69706945D01*
X51139079Y-69706945D01*
X51098633Y-69696107D01*
X50988136Y-69666500D01*
X50831864Y-69666500D01*
X50750974Y-69688174D01*
X50680920Y-69706945D01*
X50680913Y-69706948D01*
X50545586Y-69785079D01*
X50545576Y-69785087D01*
X50435087Y-69895576D01*
X50435079Y-69895586D01*
X50356948Y-70030913D01*
X50356946Y-70030918D01*
X50316501Y-70181863D01*
X50316500Y-70181865D01*
X50316500Y-70338134D01*
X50316499Y-70338134D01*
X50356945Y-70489079D01*
X50356948Y-70489086D01*
X50435079Y-70624413D01*
X50435087Y-70624423D01*
X50545576Y-70734912D01*
X50545581Y-70734916D01*
X50545583Y-70734918D01*
X50545584Y-70734919D01*
X50545586Y-70734920D01*
X50606944Y-70770345D01*
X50680918Y-70813054D01*
X50704131Y-70819274D01*
X50764753Y-70856223D01*
X50795776Y-70920083D01*
X50787349Y-70990578D01*
X50742147Y-71045326D01*
X50704134Y-71062686D01*
X50650924Y-71076944D01*
X50650919Y-71076945D01*
X50650918Y-71076946D01*
X50650917Y-71076946D01*
X50650913Y-71076948D01*
X50515586Y-71155079D01*
X50515576Y-71155087D01*
X50405087Y-71265576D01*
X50405079Y-71265586D01*
X50326948Y-71400913D01*
X50326945Y-71400920D01*
X50286500Y-71551865D01*
X50286500Y-71708134D01*
X50286499Y-71708134D01*
X43525500Y-71708134D01*
X43525500Y-70342099D01*
X47825290Y-70342099D01*
X47825290Y-70515321D01*
X47852388Y-70686411D01*
X47905917Y-70851155D01*
X47905918Y-70851158D01*
X47905920Y-70851162D01*
X47984558Y-71005498D01*
X48086377Y-71145640D01*
X48208859Y-71268122D01*
X48208862Y-71268124D01*
X48349002Y-71369942D01*
X48503345Y-71448583D01*
X48668089Y-71502112D01*
X48839179Y-71529210D01*
X48839182Y-71529210D01*
X49012398Y-71529210D01*
X49012401Y-71529210D01*
X49183491Y-71502112D01*
X49348235Y-71448583D01*
X49502578Y-71369942D01*
X49642718Y-71268124D01*
X49765204Y-71145638D01*
X49867022Y-71005498D01*
X49945663Y-70851155D01*
X49999192Y-70686411D01*
X50026290Y-70515321D01*
X50026290Y-70342099D01*
X49999192Y-70171009D01*
X49945663Y-70006265D01*
X49867022Y-69851922D01*
X49765204Y-69711782D01*
X49765202Y-69711779D01*
X49642720Y-69589297D01*
X49502578Y-69487478D01*
X49348242Y-69408840D01*
X49348238Y-69408838D01*
X49348235Y-69408837D01*
X49183491Y-69355308D01*
X49012401Y-69328210D01*
X48839179Y-69328210D01*
X48668089Y-69355308D01*
X48668086Y-69355308D01*
X48668085Y-69355309D01*
X48589043Y-69380991D01*
X48503345Y-69408837D01*
X48503343Y-69408837D01*
X48503337Y-69408840D01*
X48349001Y-69487478D01*
X48208859Y-69589297D01*
X48086377Y-69711779D01*
X47984558Y-69851921D01*
X47905920Y-70006257D01*
X47905917Y-70006263D01*
X47905917Y-70006265D01*
X47897907Y-70030918D01*
X47861858Y-70141865D01*
X47852388Y-70171009D01*
X47825290Y-70342099D01*
X43525500Y-70342099D01*
X43525500Y-67802099D01*
X45285290Y-67802099D01*
X45285290Y-67975321D01*
X45312388Y-68146411D01*
X45365917Y-68311155D01*
X45365918Y-68311158D01*
X45365920Y-68311162D01*
X45444558Y-68465498D01*
X45546377Y-68605640D01*
X45668859Y-68728122D01*
X45713737Y-68760728D01*
X45809002Y-68829942D01*
X45963345Y-68908583D01*
X46128089Y-68962112D01*
X46299179Y-68989210D01*
X46299182Y-68989210D01*
X46472398Y-68989210D01*
X46472401Y-68989210D01*
X46643491Y-68962112D01*
X46808235Y-68908583D01*
X46962578Y-68829942D01*
X47102718Y-68728124D01*
X47225204Y-68605638D01*
X47327022Y-68465498D01*
X47405663Y-68311155D01*
X47459192Y-68146411D01*
X47486290Y-67975321D01*
X47486290Y-67802099D01*
X47825290Y-67802099D01*
X47825290Y-67975321D01*
X47852388Y-68146411D01*
X47905917Y-68311155D01*
X47905918Y-68311158D01*
X47905920Y-68311162D01*
X47984558Y-68465498D01*
X48086377Y-68605640D01*
X48208859Y-68728122D01*
X48253737Y-68760728D01*
X48349002Y-68829942D01*
X48503345Y-68908583D01*
X48668089Y-68962112D01*
X48839179Y-68989210D01*
X48839182Y-68989210D01*
X49012398Y-68989210D01*
X49012401Y-68989210D01*
X49183491Y-68962112D01*
X49348235Y-68908583D01*
X49502578Y-68829942D01*
X49642718Y-68728124D01*
X49765204Y-68605638D01*
X49867022Y-68465498D01*
X49945663Y-68311155D01*
X49999192Y-68146411D01*
X50004116Y-68115322D01*
X55169500Y-68115322D01*
X55169500Y-69764677D01*
X55184033Y-69837739D01*
X55184034Y-69837740D01*
X55239399Y-69920601D01*
X55322260Y-69975966D01*
X55395326Y-69990500D01*
X57044674Y-69990500D01*
X57117740Y-69975966D01*
X57200601Y-69920601D01*
X57255966Y-69837740D01*
X57270500Y-69764674D01*
X57270500Y-68115326D01*
X57255966Y-68042260D01*
X57239846Y-68018134D01*
X73316499Y-68018134D01*
X73356945Y-68169079D01*
X73356948Y-68169086D01*
X73435079Y-68304413D01*
X73435087Y-68304423D01*
X73545576Y-68414912D01*
X73545581Y-68414916D01*
X73545583Y-68414918D01*
X73545584Y-68414919D01*
X73545586Y-68414920D01*
X73584235Y-68437234D01*
X73680918Y-68493054D01*
X73831864Y-68533500D01*
X73831866Y-68533500D01*
X73988134Y-68533500D01*
X73988136Y-68533500D01*
X74139082Y-68493054D01*
X74274417Y-68414918D01*
X74341201Y-68348134D01*
X91996499Y-68348134D01*
X92036945Y-68499079D01*
X92036948Y-68499086D01*
X92115079Y-68634413D01*
X92115087Y-68634423D01*
X92225576Y-68744912D01*
X92225581Y-68744916D01*
X92225583Y-68744918D01*
X92225584Y-68744919D01*
X92225586Y-68744920D01*
X92252994Y-68760744D01*
X92360918Y-68823054D01*
X92511864Y-68863500D01*
X92511866Y-68863500D01*
X92668134Y-68863500D01*
X92668136Y-68863500D01*
X92819082Y-68823054D01*
X92954417Y-68744918D01*
X93064918Y-68634417D01*
X93143054Y-68499082D01*
X93183500Y-68348136D01*
X93183500Y-68191864D01*
X93143054Y-68040918D01*
X93066439Y-67908217D01*
X93064920Y-67905586D01*
X93064912Y-67905576D01*
X92954423Y-67795087D01*
X92954413Y-67795079D01*
X92819086Y-67716948D01*
X92819083Y-67716947D01*
X92819082Y-67716946D01*
X92819080Y-67716945D01*
X92819079Y-67716945D01*
X92778633Y-67706107D01*
X92668136Y-67676500D01*
X92511864Y-67676500D01*
X92430974Y-67698174D01*
X92360920Y-67716945D01*
X92360913Y-67716948D01*
X92225586Y-67795079D01*
X92225576Y-67795087D01*
X92115087Y-67905576D01*
X92115079Y-67905586D01*
X92036948Y-68040913D01*
X92036945Y-68040920D01*
X92020177Y-68103500D01*
X92002604Y-68169086D01*
X91996500Y-68191865D01*
X91996500Y-68348134D01*
X91996499Y-68348134D01*
X74341201Y-68348134D01*
X74384918Y-68304417D01*
X74463054Y-68169082D01*
X74503500Y-68018136D01*
X74503500Y-67861864D01*
X74463054Y-67710918D01*
X74392166Y-67588136D01*
X74392165Y-67588134D01*
X77016499Y-67588134D01*
X77056945Y-67739079D01*
X77056948Y-67739086D01*
X77135079Y-67874413D01*
X77135087Y-67874423D01*
X77245576Y-67984912D01*
X77245581Y-67984916D01*
X77245583Y-67984918D01*
X77245584Y-67984919D01*
X77245586Y-67984920D01*
X77303118Y-68018136D01*
X77380918Y-68063054D01*
X77531864Y-68103500D01*
X77531866Y-68103500D01*
X77688134Y-68103500D01*
X77688136Y-68103500D01*
X77839082Y-68063054D01*
X77974417Y-67984918D01*
X78084918Y-67874417D01*
X78163054Y-67739082D01*
X78203500Y-67588136D01*
X78203500Y-67431864D01*
X78163054Y-67280918D01*
X78100044Y-67171782D01*
X78084920Y-67145586D01*
X78084912Y-67145576D01*
X77974423Y-67035087D01*
X77974413Y-67035079D01*
X77839086Y-66956948D01*
X77839083Y-66956947D01*
X77839082Y-66956946D01*
X77839080Y-66956945D01*
X77839079Y-66956945D01*
X77798633Y-66946107D01*
X77688136Y-66916500D01*
X77531864Y-66916500D01*
X77450974Y-66938174D01*
X77380920Y-66956945D01*
X77380913Y-66956948D01*
X77245586Y-67035079D01*
X77245576Y-67035087D01*
X77135087Y-67145576D01*
X77135079Y-67145586D01*
X77056948Y-67280913D01*
X77056945Y-67280920D01*
X77016500Y-67431865D01*
X77016500Y-67588134D01*
X77016499Y-67588134D01*
X74392165Y-67588134D01*
X74384920Y-67575586D01*
X74384912Y-67575576D01*
X74274423Y-67465087D01*
X74274413Y-67465079D01*
X74139086Y-67386948D01*
X74139083Y-67386947D01*
X74139082Y-67386946D01*
X74139080Y-67386945D01*
X74139079Y-67386945D01*
X74098633Y-67376107D01*
X73988136Y-67346500D01*
X73831864Y-67346500D01*
X73750974Y-67368174D01*
X73680920Y-67386945D01*
X73680913Y-67386948D01*
X73545586Y-67465079D01*
X73545576Y-67465087D01*
X73435087Y-67575576D01*
X73435079Y-67575586D01*
X73356948Y-67710913D01*
X73356945Y-67710920D01*
X73316500Y-67861865D01*
X73316500Y-68018134D01*
X73316499Y-68018134D01*
X57239846Y-68018134D01*
X57200601Y-67959399D01*
X57200600Y-67959398D01*
X57199114Y-67958405D01*
X57199062Y-67958371D01*
X57117739Y-67904033D01*
X57044677Y-67889500D01*
X57044674Y-67889500D01*
X55395326Y-67889500D01*
X55395322Y-67889500D01*
X55322260Y-67904033D01*
X55239399Y-67959399D01*
X55184033Y-68042260D01*
X55169500Y-68115322D01*
X50004116Y-68115322D01*
X50026290Y-67975321D01*
X50026290Y-67802099D01*
X49999192Y-67631009D01*
X49945663Y-67466265D01*
X49867022Y-67311922D01*
X49765204Y-67171782D01*
X49765202Y-67171779D01*
X49642720Y-67049297D01*
X49502578Y-66947478D01*
X49348242Y-66868840D01*
X49348238Y-66868838D01*
X49348235Y-66868837D01*
X49183491Y-66815308D01*
X49012401Y-66788210D01*
X48839179Y-66788210D01*
X48668089Y-66815308D01*
X48668086Y-66815308D01*
X48668085Y-66815309D01*
X48589043Y-66840991D01*
X48503345Y-66868837D01*
X48503343Y-66868837D01*
X48503337Y-66868840D01*
X48349001Y-66947478D01*
X48208859Y-67049297D01*
X48086377Y-67171779D01*
X47984558Y-67311921D01*
X47905920Y-67466257D01*
X47905917Y-67466263D01*
X47905917Y-67466265D01*
X47852388Y-67631009D01*
X47825290Y-67802099D01*
X47486290Y-67802099D01*
X47459192Y-67631009D01*
X47405663Y-67466265D01*
X47327022Y-67311922D01*
X47225204Y-67171782D01*
X47225202Y-67171779D01*
X47102720Y-67049297D01*
X46962578Y-66947478D01*
X46808242Y-66868840D01*
X46808238Y-66868838D01*
X46808235Y-66868837D01*
X46643491Y-66815308D01*
X46472401Y-66788210D01*
X46299179Y-66788210D01*
X46128089Y-66815308D01*
X46128086Y-66815308D01*
X46128085Y-66815309D01*
X46049043Y-66840991D01*
X45963345Y-66868837D01*
X45963343Y-66868837D01*
X45963337Y-66868840D01*
X45809001Y-66947478D01*
X45668859Y-67049297D01*
X45546377Y-67171779D01*
X45444558Y-67311921D01*
X45365920Y-67466257D01*
X45365917Y-67466263D01*
X45365917Y-67466265D01*
X45312388Y-67631009D01*
X45285290Y-67802099D01*
X43525500Y-67802099D01*
X43525500Y-65262099D01*
X45285290Y-65262099D01*
X45285290Y-65435321D01*
X45312388Y-65606411D01*
X45365917Y-65771155D01*
X45365918Y-65771158D01*
X45365920Y-65771162D01*
X45444558Y-65925498D01*
X45546377Y-66065640D01*
X45668859Y-66188122D01*
X45668862Y-66188124D01*
X45809002Y-66289942D01*
X45963345Y-66368583D01*
X46128089Y-66422112D01*
X46299179Y-66449210D01*
X46299182Y-66449210D01*
X46472398Y-66449210D01*
X46472401Y-66449210D01*
X46643491Y-66422112D01*
X46808235Y-66368583D01*
X46962578Y-66289942D01*
X47102718Y-66188124D01*
X47225204Y-66065638D01*
X47327022Y-65925498D01*
X47405663Y-65771155D01*
X47459192Y-65606411D01*
X47486290Y-65435321D01*
X47486290Y-65262099D01*
X47825290Y-65262099D01*
X47825290Y-65435321D01*
X47852388Y-65606411D01*
X47905917Y-65771155D01*
X47905918Y-65771158D01*
X47905920Y-65771162D01*
X47984558Y-65925498D01*
X48086377Y-66065640D01*
X48208859Y-66188122D01*
X48208862Y-66188124D01*
X48349002Y-66289942D01*
X48503345Y-66368583D01*
X48668089Y-66422112D01*
X48839179Y-66449210D01*
X48839182Y-66449210D01*
X49012398Y-66449210D01*
X49012401Y-66449210D01*
X49183491Y-66422112D01*
X49288064Y-66388134D01*
X64386499Y-66388134D01*
X64426945Y-66539079D01*
X64426948Y-66539086D01*
X64505079Y-66674413D01*
X64505087Y-66674423D01*
X64615576Y-66784912D01*
X64615581Y-66784916D01*
X64615583Y-66784918D01*
X64615584Y-66784919D01*
X64615586Y-66784920D01*
X64701317Y-66834417D01*
X64750918Y-66863054D01*
X64901864Y-66903500D01*
X64901866Y-66903500D01*
X65058134Y-66903500D01*
X65058136Y-66903500D01*
X65209082Y-66863054D01*
X65344417Y-66784918D01*
X65454918Y-66674417D01*
X65533054Y-66539082D01*
X65573500Y-66388136D01*
X65573500Y-66231864D01*
X65533054Y-66080918D01*
X65454918Y-65945583D01*
X65454916Y-65945581D01*
X65454912Y-65945576D01*
X65344423Y-65835087D01*
X65344413Y-65835079D01*
X65209086Y-65756948D01*
X65209083Y-65756947D01*
X65209082Y-65756946D01*
X65209080Y-65756945D01*
X65209079Y-65756945D01*
X65168633Y-65746107D01*
X65058136Y-65716500D01*
X64901864Y-65716500D01*
X64840084Y-65733054D01*
X64750920Y-65756945D01*
X64750913Y-65756948D01*
X64615586Y-65835079D01*
X64615576Y-65835087D01*
X64505087Y-65945576D01*
X64505079Y-65945586D01*
X64426948Y-66080913D01*
X64426946Y-66080918D01*
X64398222Y-66188119D01*
X64386500Y-66231865D01*
X64386500Y-66388134D01*
X64386499Y-66388134D01*
X49288064Y-66388134D01*
X49348235Y-66368583D01*
X49502578Y-66289942D01*
X49642718Y-66188124D01*
X49642723Y-66188119D01*
X49696333Y-66134510D01*
X49765199Y-66065643D01*
X49765202Y-66065640D01*
X49765204Y-66065638D01*
X49867022Y-65925498D01*
X49945663Y-65771155D01*
X49975888Y-65678134D01*
X80746499Y-65678134D01*
X80786945Y-65829079D01*
X80786948Y-65829086D01*
X80845592Y-65930660D01*
X80862330Y-65999656D01*
X80845593Y-66056659D01*
X80796947Y-66140915D01*
X80796945Y-66140920D01*
X80784297Y-66188124D01*
X80757016Y-66289941D01*
X80756500Y-66291865D01*
X80756500Y-66448134D01*
X80756499Y-66448134D01*
X80796945Y-66599079D01*
X80796948Y-66599086D01*
X80875079Y-66734413D01*
X80875087Y-66734423D01*
X80985576Y-66844912D01*
X80985581Y-66844916D01*
X80985583Y-66844918D01*
X81120918Y-66923054D01*
X81271864Y-66963500D01*
X81271866Y-66963500D01*
X81428134Y-66963500D01*
X81428136Y-66963500D01*
X81579082Y-66923054D01*
X81714417Y-66844918D01*
X81824918Y-66734417D01*
X81903054Y-66599082D01*
X81916706Y-66548134D01*
X82666499Y-66548134D01*
X82706945Y-66699079D01*
X82706948Y-66699086D01*
X82785079Y-66834413D01*
X82785087Y-66834423D01*
X82895576Y-66944912D01*
X82895581Y-66944916D01*
X82895583Y-66944918D01*
X83030918Y-67023054D01*
X83181864Y-67063500D01*
X83181866Y-67063500D01*
X83338134Y-67063500D01*
X83338136Y-67063500D01*
X83489082Y-67023054D01*
X83624417Y-66944918D01*
X83734918Y-66834417D01*
X83813054Y-66699082D01*
X83853500Y-66548136D01*
X83853500Y-66548134D01*
X84326499Y-66548134D01*
X84366945Y-66699079D01*
X84366948Y-66699086D01*
X84445079Y-66834413D01*
X84445087Y-66834423D01*
X84555576Y-66944912D01*
X84555581Y-66944916D01*
X84555583Y-66944918D01*
X84690918Y-67023054D01*
X84841864Y-67063500D01*
X84841866Y-67063500D01*
X84998134Y-67063500D01*
X84998136Y-67063500D01*
X85149082Y-67023054D01*
X85284417Y-66944918D01*
X85394918Y-66834417D01*
X85473054Y-66699082D01*
X85513500Y-66548136D01*
X85513500Y-66391864D01*
X85473054Y-66240918D01*
X85394918Y-66105583D01*
X85394916Y-66105581D01*
X85394912Y-66105576D01*
X85284423Y-65995087D01*
X85284413Y-65995079D01*
X85149086Y-65916948D01*
X85149083Y-65916947D01*
X85149082Y-65916946D01*
X85149080Y-65916945D01*
X85149079Y-65916945D01*
X85108633Y-65906107D01*
X84998136Y-65876500D01*
X84841864Y-65876500D01*
X84760974Y-65898174D01*
X84690920Y-65916945D01*
X84690913Y-65916948D01*
X84555586Y-65995079D01*
X84555576Y-65995087D01*
X84445087Y-66105576D01*
X84445079Y-66105586D01*
X84366948Y-66240913D01*
X84366945Y-66240920D01*
X84353810Y-66289941D01*
X84327500Y-66388134D01*
X84326500Y-66391865D01*
X84326500Y-66548134D01*
X84326499Y-66548134D01*
X83853500Y-66548134D01*
X83853500Y-66391864D01*
X83813054Y-66240918D01*
X83734918Y-66105583D01*
X83734916Y-66105581D01*
X83734912Y-66105576D01*
X83624423Y-65995087D01*
X83624413Y-65995079D01*
X83489086Y-65916948D01*
X83489083Y-65916947D01*
X83489082Y-65916946D01*
X83489080Y-65916945D01*
X83489079Y-65916945D01*
X83448633Y-65906107D01*
X83338136Y-65876500D01*
X83181864Y-65876500D01*
X83100974Y-65898174D01*
X83030920Y-65916945D01*
X83030913Y-65916948D01*
X82895586Y-65995079D01*
X82895576Y-65995087D01*
X82785087Y-66105576D01*
X82785079Y-66105586D01*
X82706948Y-66240913D01*
X82706945Y-66240920D01*
X82693810Y-66289941D01*
X82667500Y-66388134D01*
X82666500Y-66391865D01*
X82666500Y-66548134D01*
X82666499Y-66548134D01*
X81916706Y-66548134D01*
X81943500Y-66448136D01*
X81943500Y-66291864D01*
X81903054Y-66140918D01*
X81844406Y-66039338D01*
X81827669Y-65970344D01*
X81844405Y-65913343D01*
X81893054Y-65829082D01*
X81912065Y-65758134D01*
X87136499Y-65758134D01*
X87176945Y-65909079D01*
X87176948Y-65909086D01*
X87255079Y-66044413D01*
X87255087Y-66044423D01*
X87365576Y-66154912D01*
X87365581Y-66154916D01*
X87365583Y-66154918D01*
X87365584Y-66154919D01*
X87365586Y-66154920D01*
X87423094Y-66188122D01*
X87500918Y-66233054D01*
X87651864Y-66273500D01*
X87651866Y-66273500D01*
X87808134Y-66273500D01*
X87808136Y-66273500D01*
X87959082Y-66233054D01*
X88094417Y-66154918D01*
X88204918Y-66044417D01*
X88283054Y-65909082D01*
X88323500Y-65758136D01*
X88323500Y-65601864D01*
X88283054Y-65450918D01*
X88204918Y-65315583D01*
X88204916Y-65315581D01*
X88204912Y-65315576D01*
X88147470Y-65258134D01*
X93086499Y-65258134D01*
X93126945Y-65409079D01*
X93126948Y-65409086D01*
X93205079Y-65544413D01*
X93205087Y-65544423D01*
X93315576Y-65654912D01*
X93315581Y-65654916D01*
X93315583Y-65654918D01*
X93315584Y-65654919D01*
X93315586Y-65654920D01*
X93410711Y-65709840D01*
X93450918Y-65733054D01*
X93601864Y-65773500D01*
X93601866Y-65773500D01*
X93758134Y-65773500D01*
X93758136Y-65773500D01*
X93909082Y-65733054D01*
X94044417Y-65654918D01*
X94154918Y-65544417D01*
X94233054Y-65409082D01*
X94273500Y-65258136D01*
X94273500Y-65101864D01*
X94233054Y-64950918D01*
X94205362Y-64902954D01*
X94188625Y-64833963D01*
X94211845Y-64766871D01*
X94239464Y-64742029D01*
X94237865Y-64739945D01*
X94244409Y-64734922D01*
X94244417Y-64734918D01*
X94354918Y-64624417D01*
X94433054Y-64489082D01*
X94473500Y-64338136D01*
X94473500Y-64181864D01*
X94433054Y-64030918D01*
X94409840Y-63990711D01*
X94354920Y-63895586D01*
X94354912Y-63895576D01*
X94244423Y-63785087D01*
X94244413Y-63785079D01*
X94109086Y-63706948D01*
X94109083Y-63706947D01*
X94109082Y-63706946D01*
X94109080Y-63706945D01*
X94109079Y-63706945D01*
X94064794Y-63695079D01*
X93958136Y-63666500D01*
X93801864Y-63666500D01*
X93720974Y-63688174D01*
X93650920Y-63706945D01*
X93650913Y-63706948D01*
X93515586Y-63785079D01*
X93515576Y-63785087D01*
X93405087Y-63895576D01*
X93405079Y-63895586D01*
X93326948Y-64030913D01*
X93326945Y-64030920D01*
X93286500Y-64181865D01*
X93286500Y-64338134D01*
X93286499Y-64338134D01*
X93326945Y-64489079D01*
X93326947Y-64489084D01*
X93354636Y-64537042D01*
X93371373Y-64606037D01*
X93348152Y-64673129D01*
X93320789Y-64698296D01*
X93322137Y-64700052D01*
X93315581Y-64705082D01*
X93205087Y-64815576D01*
X93205079Y-64815586D01*
X93126948Y-64950913D01*
X93126945Y-64950920D01*
X93086500Y-65101865D01*
X93086500Y-65258134D01*
X93086499Y-65258134D01*
X88147470Y-65258134D01*
X88094423Y-65205087D01*
X88094419Y-65205084D01*
X88094417Y-65205082D01*
X88090333Y-65202724D01*
X87959086Y-65126948D01*
X87959083Y-65126947D01*
X87959082Y-65126946D01*
X87959080Y-65126945D01*
X87959079Y-65126945D01*
X87918633Y-65116107D01*
X87808136Y-65086500D01*
X87651864Y-65086500D01*
X87570974Y-65108174D01*
X87500920Y-65126945D01*
X87500913Y-65126948D01*
X87365586Y-65205079D01*
X87365576Y-65205087D01*
X87255087Y-65315576D01*
X87255079Y-65315586D01*
X87176948Y-65450913D01*
X87176945Y-65450920D01*
X87136500Y-65601865D01*
X87136500Y-65758134D01*
X87136499Y-65758134D01*
X81912065Y-65758134D01*
X81933500Y-65678136D01*
X81933500Y-65521864D01*
X81893054Y-65370918D01*
X81814918Y-65235583D01*
X81814916Y-65235581D01*
X81814912Y-65235576D01*
X81704423Y-65125087D01*
X81704413Y-65125079D01*
X81569086Y-65046948D01*
X81569083Y-65046947D01*
X81569082Y-65046946D01*
X81569080Y-65046945D01*
X81569079Y-65046945D01*
X81528633Y-65036107D01*
X81418136Y-65006500D01*
X81261864Y-65006500D01*
X81180974Y-65028174D01*
X81110920Y-65046945D01*
X81110913Y-65046948D01*
X80975586Y-65125079D01*
X80975576Y-65125087D01*
X80865087Y-65235576D01*
X80865079Y-65235586D01*
X80786948Y-65370913D01*
X80786945Y-65370920D01*
X80746500Y-65521865D01*
X80746500Y-65678134D01*
X80746499Y-65678134D01*
X49975888Y-65678134D01*
X49999192Y-65606411D01*
X50026290Y-65435321D01*
X50026290Y-65262099D01*
X49999192Y-65091009D01*
X49945663Y-64926265D01*
X49867022Y-64771922D01*
X49765204Y-64631782D01*
X49765202Y-64631779D01*
X49642720Y-64509297D01*
X49502578Y-64407478D01*
X49348242Y-64328840D01*
X49348238Y-64328838D01*
X49348235Y-64328837D01*
X49183491Y-64275308D01*
X49012401Y-64248210D01*
X48839179Y-64248210D01*
X48668089Y-64275308D01*
X48668086Y-64275308D01*
X48668085Y-64275309D01*
X48589043Y-64300991D01*
X48503345Y-64328837D01*
X48503343Y-64328837D01*
X48503337Y-64328840D01*
X48349001Y-64407478D01*
X48208859Y-64509297D01*
X48086377Y-64631779D01*
X47984558Y-64771921D01*
X47905920Y-64926257D01*
X47905917Y-64926263D01*
X47905917Y-64926265D01*
X47852388Y-65091009D01*
X47825290Y-65262099D01*
X47486290Y-65262099D01*
X47459192Y-65091009D01*
X47405663Y-64926265D01*
X47327022Y-64771922D01*
X47225204Y-64631782D01*
X47225202Y-64631779D01*
X47102720Y-64509297D01*
X46962578Y-64407478D01*
X46808242Y-64328840D01*
X46808238Y-64328838D01*
X46808235Y-64328837D01*
X46643491Y-64275308D01*
X46472401Y-64248210D01*
X46299179Y-64248210D01*
X46128089Y-64275308D01*
X46128086Y-64275308D01*
X46128085Y-64275309D01*
X46049043Y-64300991D01*
X45963345Y-64328837D01*
X45963343Y-64328837D01*
X45963337Y-64328840D01*
X45809001Y-64407478D01*
X45668859Y-64509297D01*
X45546377Y-64631779D01*
X45444558Y-64771921D01*
X45365920Y-64926257D01*
X45365917Y-64926263D01*
X45365917Y-64926265D01*
X45312388Y-65091009D01*
X45285290Y-65262099D01*
X43525500Y-65262099D01*
X43525500Y-64248134D01*
X84116499Y-64248134D01*
X84156945Y-64399079D01*
X84156948Y-64399086D01*
X84235079Y-64534413D01*
X84235087Y-64534423D01*
X84345576Y-64644912D01*
X84345581Y-64644916D01*
X84345583Y-64644918D01*
X84345584Y-64644919D01*
X84345586Y-64644920D01*
X84438036Y-64698296D01*
X84480918Y-64723054D01*
X84631864Y-64763500D01*
X84631866Y-64763500D01*
X84788134Y-64763500D01*
X84788136Y-64763500D01*
X84939082Y-64723054D01*
X85074417Y-64644918D01*
X85184918Y-64534417D01*
X85263054Y-64399082D01*
X85303500Y-64248136D01*
X85303500Y-64091864D01*
X85263054Y-63940918D01*
X85184918Y-63805583D01*
X85184916Y-63805581D01*
X85184912Y-63805576D01*
X85074423Y-63695087D01*
X85074413Y-63695079D01*
X84939086Y-63616948D01*
X84939083Y-63616947D01*
X84939082Y-63616946D01*
X84939080Y-63616945D01*
X84939079Y-63616945D01*
X84898633Y-63606107D01*
X84788136Y-63576500D01*
X84631864Y-63576500D01*
X84550974Y-63598174D01*
X84480920Y-63616945D01*
X84480913Y-63616948D01*
X84345586Y-63695079D01*
X84345576Y-63695087D01*
X84235087Y-63805576D01*
X84235079Y-63805586D01*
X84156948Y-63940913D01*
X84156945Y-63940920D01*
X84116500Y-64091865D01*
X84116500Y-64248134D01*
X84116499Y-64248134D01*
X43525500Y-64248134D01*
X43525500Y-62722099D01*
X45285290Y-62722099D01*
X45285290Y-62895321D01*
X45312388Y-63066411D01*
X45365917Y-63231155D01*
X45365918Y-63231158D01*
X45365920Y-63231162D01*
X45444558Y-63385498D01*
X45546377Y-63525640D01*
X45668859Y-63648122D01*
X45668862Y-63648124D01*
X45809002Y-63749942D01*
X45963345Y-63828583D01*
X46128089Y-63882112D01*
X46299179Y-63909210D01*
X46299182Y-63909210D01*
X46472398Y-63909210D01*
X46472401Y-63909210D01*
X46643491Y-63882112D01*
X46808235Y-63828583D01*
X46962578Y-63749942D01*
X47102718Y-63648124D01*
X47225204Y-63525638D01*
X47327022Y-63385498D01*
X47405663Y-63231155D01*
X47459192Y-63066411D01*
X47486290Y-62895321D01*
X47486290Y-62722099D01*
X47825290Y-62722099D01*
X47825290Y-62895321D01*
X47852388Y-63066411D01*
X47905917Y-63231155D01*
X47905918Y-63231158D01*
X47905920Y-63231162D01*
X47984558Y-63385498D01*
X48086377Y-63525640D01*
X48208859Y-63648122D01*
X48208862Y-63648124D01*
X48349002Y-63749942D01*
X48503345Y-63828583D01*
X48668089Y-63882112D01*
X48839179Y-63909210D01*
X48839182Y-63909210D01*
X49012398Y-63909210D01*
X49012401Y-63909210D01*
X49183491Y-63882112D01*
X49348235Y-63828583D01*
X49502578Y-63749942D01*
X49642718Y-63648124D01*
X49765204Y-63525638D01*
X49867022Y-63385498D01*
X49945663Y-63231155D01*
X49949894Y-63218134D01*
X85746499Y-63218134D01*
X85786945Y-63369079D01*
X85786948Y-63369086D01*
X85865079Y-63504413D01*
X85865087Y-63504423D01*
X85975576Y-63614912D01*
X85975581Y-63614916D01*
X85975583Y-63614918D01*
X85975584Y-63614919D01*
X85975586Y-63614920D01*
X85979099Y-63616948D01*
X86110918Y-63693054D01*
X86261864Y-63733500D01*
X86261866Y-63733500D01*
X86418134Y-63733500D01*
X86418136Y-63733500D01*
X86569082Y-63693054D01*
X86704417Y-63614918D01*
X86814918Y-63504417D01*
X86893054Y-63369082D01*
X86933500Y-63218136D01*
X86933500Y-63117026D01*
X86953502Y-63048905D01*
X87007158Y-63002412D01*
X87077432Y-62992308D01*
X87142012Y-63021802D01*
X87148595Y-63027931D01*
X87245576Y-63124912D01*
X87245581Y-63124916D01*
X87245583Y-63124918D01*
X87380918Y-63203054D01*
X87531864Y-63243500D01*
X87531866Y-63243500D01*
X87688134Y-63243500D01*
X87688136Y-63243500D01*
X87839082Y-63203054D01*
X87974417Y-63124918D01*
X88084918Y-63014417D01*
X88163054Y-62879082D01*
X88203500Y-62728136D01*
X88203500Y-62571864D01*
X88163054Y-62420918D01*
X88084918Y-62285583D01*
X88084916Y-62285581D01*
X88084912Y-62285576D01*
X87974423Y-62175087D01*
X87974413Y-62175079D01*
X87839086Y-62096948D01*
X87839083Y-62096947D01*
X87839082Y-62096946D01*
X87839080Y-62096945D01*
X87839079Y-62096945D01*
X87798633Y-62086107D01*
X87688136Y-62056500D01*
X87531864Y-62056500D01*
X87450974Y-62078174D01*
X87380920Y-62096945D01*
X87380913Y-62096948D01*
X87245586Y-62175079D01*
X87245576Y-62175087D01*
X87135087Y-62285576D01*
X87135079Y-62285586D01*
X87056948Y-62420913D01*
X87056945Y-62420920D01*
X87016500Y-62571865D01*
X87016500Y-62672974D01*
X86996498Y-62741095D01*
X86942842Y-62787588D01*
X86872568Y-62797692D01*
X86807988Y-62768198D01*
X86801405Y-62762069D01*
X86704423Y-62665087D01*
X86704413Y-62665079D01*
X86569086Y-62586948D01*
X86569083Y-62586947D01*
X86569082Y-62586946D01*
X86569080Y-62586945D01*
X86569079Y-62586945D01*
X86512795Y-62571864D01*
X86418136Y-62546500D01*
X86261864Y-62546500D01*
X86180974Y-62568174D01*
X86110920Y-62586945D01*
X86110913Y-62586948D01*
X85975586Y-62665079D01*
X85975576Y-62665087D01*
X85865087Y-62775576D01*
X85865079Y-62775586D01*
X85786948Y-62910913D01*
X85786945Y-62910920D01*
X85762430Y-63002412D01*
X85749973Y-63048905D01*
X85746500Y-63061865D01*
X85746500Y-63218134D01*
X85746499Y-63218134D01*
X49949894Y-63218134D01*
X49999192Y-63066411D01*
X50026290Y-62895321D01*
X50026290Y-62722099D01*
X49999192Y-62551009D01*
X49945663Y-62386265D01*
X49867022Y-62231922D01*
X49777086Y-62108136D01*
X49765202Y-62091779D01*
X49642720Y-61969297D01*
X49502578Y-61867478D01*
X49348242Y-61788840D01*
X49348238Y-61788838D01*
X49348235Y-61788837D01*
X49183491Y-61735308D01*
X49012401Y-61708210D01*
X48839179Y-61708210D01*
X48668089Y-61735308D01*
X48668086Y-61735308D01*
X48668085Y-61735309D01*
X48589043Y-61760991D01*
X48503345Y-61788837D01*
X48503343Y-61788837D01*
X48503337Y-61788840D01*
X48349001Y-61867478D01*
X48208859Y-61969297D01*
X48086377Y-62091779D01*
X47984558Y-62231921D01*
X47905920Y-62386257D01*
X47905917Y-62386263D01*
X47905917Y-62386265D01*
X47852388Y-62551009D01*
X47825290Y-62722099D01*
X47486290Y-62722099D01*
X47459192Y-62551009D01*
X47405663Y-62386265D01*
X47327022Y-62231922D01*
X47237086Y-62108136D01*
X47225202Y-62091779D01*
X47102720Y-61969297D01*
X46962578Y-61867478D01*
X46808242Y-61788840D01*
X46808238Y-61788838D01*
X46808235Y-61788837D01*
X46643491Y-61735308D01*
X46472401Y-61708210D01*
X46299179Y-61708210D01*
X46128089Y-61735308D01*
X46128086Y-61735308D01*
X46128085Y-61735309D01*
X46049043Y-61760991D01*
X45963345Y-61788837D01*
X45963343Y-61788837D01*
X45963337Y-61788840D01*
X45809001Y-61867478D01*
X45668859Y-61969297D01*
X45546377Y-62091779D01*
X45444558Y-62231921D01*
X45365920Y-62386257D01*
X45365917Y-62386263D01*
X45365917Y-62386265D01*
X45312388Y-62551009D01*
X45285290Y-62722099D01*
X43525500Y-62722099D01*
X43525500Y-61418134D01*
X75666499Y-61418134D01*
X75706945Y-61569079D01*
X75706948Y-61569086D01*
X75785079Y-61704413D01*
X75785087Y-61704423D01*
X75895576Y-61814912D01*
X75895581Y-61814916D01*
X75895583Y-61814918D01*
X76030918Y-61893054D01*
X76181864Y-61933500D01*
X76181866Y-61933500D01*
X76338134Y-61933500D01*
X76338136Y-61933500D01*
X76489082Y-61893054D01*
X76624417Y-61814918D01*
X76734918Y-61704417D01*
X76813054Y-61569082D01*
X76832065Y-61498134D01*
X89318497Y-61498134D01*
X89358943Y-61649079D01*
X89358946Y-61649086D01*
X89437077Y-61784413D01*
X89437085Y-61784423D01*
X89547574Y-61894912D01*
X89547579Y-61894916D01*
X89547581Y-61894918D01*
X89547582Y-61894919D01*
X89547584Y-61894920D01*
X89642709Y-61949840D01*
X89682916Y-61973054D01*
X89833862Y-62013500D01*
X89833864Y-62013500D01*
X89990132Y-62013500D01*
X89990134Y-62013500D01*
X90141080Y-61973054D01*
X90177500Y-61952026D01*
X90246494Y-61935288D01*
X90313586Y-61958508D01*
X90357474Y-62014314D01*
X90366500Y-62061145D01*
X90366500Y-62108134D01*
X90366499Y-62108134D01*
X90406945Y-62259079D01*
X90406948Y-62259086D01*
X90485079Y-62394413D01*
X90485087Y-62394423D01*
X90595576Y-62504912D01*
X90595581Y-62504916D01*
X90595583Y-62504918D01*
X90730918Y-62583054D01*
X90881864Y-62623500D01*
X90881866Y-62623500D01*
X91038134Y-62623500D01*
X91038136Y-62623500D01*
X91189082Y-62583054D01*
X91324417Y-62504918D01*
X91434918Y-62394417D01*
X91513054Y-62259082D01*
X91553500Y-62108136D01*
X91553500Y-61951864D01*
X91513054Y-61800918D01*
X91489840Y-61760711D01*
X91434920Y-61665586D01*
X91434912Y-61665576D01*
X91324423Y-61555087D01*
X91324413Y-61555079D01*
X91189086Y-61476948D01*
X91189083Y-61476947D01*
X91189082Y-61476946D01*
X91189080Y-61476945D01*
X91189079Y-61476945D01*
X91148633Y-61466107D01*
X91038136Y-61436500D01*
X90881864Y-61436500D01*
X90800974Y-61458174D01*
X90730920Y-61476945D01*
X90730915Y-61476947D01*
X90694497Y-61497974D01*
X90625502Y-61514711D01*
X90558410Y-61491490D01*
X90514523Y-61435683D01*
X90505498Y-61388854D01*
X90505498Y-61341865D01*
X90470149Y-61209941D01*
X90465052Y-61190918D01*
X90386916Y-61055583D01*
X90386914Y-61055581D01*
X90386910Y-61055576D01*
X90276421Y-60945087D01*
X90276411Y-60945079D01*
X90141084Y-60866948D01*
X90141081Y-60866947D01*
X90141080Y-60866946D01*
X90141078Y-60866945D01*
X90141077Y-60866945D01*
X90061035Y-60845498D01*
X89990134Y-60826500D01*
X89833862Y-60826500D01*
X89762961Y-60845498D01*
X89682918Y-60866945D01*
X89682911Y-60866948D01*
X89547584Y-60945079D01*
X89547574Y-60945087D01*
X89437085Y-61055576D01*
X89437077Y-61055586D01*
X89358946Y-61190913D01*
X89358943Y-61190920D01*
X89318498Y-61341865D01*
X89318498Y-61498134D01*
X89318497Y-61498134D01*
X76832065Y-61498134D01*
X76853500Y-61418136D01*
X76853500Y-61261864D01*
X76813054Y-61110918D01*
X76781102Y-61055576D01*
X76734920Y-60975586D01*
X76734912Y-60975576D01*
X76624423Y-60865087D01*
X76624413Y-60865079D01*
X76489086Y-60786948D01*
X76489083Y-60786947D01*
X76489082Y-60786946D01*
X76489080Y-60786945D01*
X76489079Y-60786945D01*
X76448633Y-60776107D01*
X76338136Y-60746500D01*
X76181864Y-60746500D01*
X76100974Y-60768174D01*
X76030920Y-60786945D01*
X76030913Y-60786948D01*
X75895586Y-60865079D01*
X75895576Y-60865087D01*
X75785087Y-60975576D01*
X75785079Y-60975586D01*
X75706948Y-61110913D01*
X75706945Y-61110920D01*
X75666500Y-61261865D01*
X75666500Y-61418134D01*
X75666499Y-61418134D01*
X43525500Y-61418134D01*
X43525500Y-60182099D01*
X45285290Y-60182099D01*
X45285290Y-60355321D01*
X45312388Y-60526411D01*
X45365917Y-60691155D01*
X45365918Y-60691158D01*
X45365920Y-60691162D01*
X45444558Y-60845498D01*
X45546377Y-60985640D01*
X45668859Y-61108122D01*
X45672710Y-61110920D01*
X45809002Y-61209942D01*
X45963345Y-61288583D01*
X46128089Y-61342112D01*
X46299179Y-61369210D01*
X46299182Y-61369210D01*
X46472398Y-61369210D01*
X46472401Y-61369210D01*
X46643491Y-61342112D01*
X46808235Y-61288583D01*
X46962578Y-61209942D01*
X47102718Y-61108124D01*
X47225204Y-60985638D01*
X47327022Y-60845498D01*
X47405663Y-60691155D01*
X47459192Y-60526411D01*
X47486290Y-60355321D01*
X47486290Y-60182099D01*
X47825290Y-60182099D01*
X47825290Y-60355321D01*
X47852388Y-60526411D01*
X47905917Y-60691155D01*
X47905918Y-60691158D01*
X47905920Y-60691162D01*
X47984558Y-60845498D01*
X48086377Y-60985640D01*
X48208859Y-61108122D01*
X48212710Y-61110920D01*
X48349002Y-61209942D01*
X48503345Y-61288583D01*
X48668089Y-61342112D01*
X48839179Y-61369210D01*
X48839182Y-61369210D01*
X49012398Y-61369210D01*
X49012401Y-61369210D01*
X49183491Y-61342112D01*
X49348235Y-61288583D01*
X49502578Y-61209942D01*
X49642718Y-61108124D01*
X49765204Y-60985638D01*
X49867022Y-60845498D01*
X49945663Y-60691155D01*
X49999192Y-60526411D01*
X50026290Y-60355321D01*
X50026290Y-60228134D01*
X54946499Y-60228134D01*
X54986945Y-60379079D01*
X54986948Y-60379086D01*
X55065079Y-60514413D01*
X55065087Y-60514423D01*
X55175576Y-60624912D01*
X55175581Y-60624916D01*
X55175583Y-60624918D01*
X55310918Y-60703054D01*
X55461864Y-60743500D01*
X55461866Y-60743500D01*
X55618134Y-60743500D01*
X55618136Y-60743500D01*
X55769082Y-60703054D01*
X55904417Y-60624918D01*
X56014918Y-60514417D01*
X56093054Y-60379082D01*
X56133500Y-60228136D01*
X56133500Y-60071864D01*
X56105706Y-59968134D01*
X67686499Y-59968134D01*
X67726945Y-60119079D01*
X67726948Y-60119086D01*
X67805079Y-60254413D01*
X67805087Y-60254423D01*
X67915576Y-60364912D01*
X67915581Y-60364916D01*
X67915583Y-60364918D01*
X67915584Y-60364919D01*
X67915586Y-60364920D01*
X68010711Y-60419840D01*
X68050918Y-60443054D01*
X68201864Y-60483500D01*
X68201866Y-60483500D01*
X68358134Y-60483500D01*
X68358136Y-60483500D01*
X68509082Y-60443054D01*
X68644417Y-60364918D01*
X68754918Y-60254417D01*
X68833054Y-60119082D01*
X68873500Y-59968136D01*
X68873500Y-59811864D01*
X68833054Y-59660918D01*
X68789172Y-59584912D01*
X68754920Y-59525586D01*
X68754912Y-59525576D01*
X68644423Y-59415087D01*
X68644413Y-59415079D01*
X68509086Y-59336948D01*
X68509083Y-59336947D01*
X68509082Y-59336946D01*
X68509080Y-59336945D01*
X68509079Y-59336945D01*
X68468633Y-59326107D01*
X68358136Y-59296500D01*
X68201864Y-59296500D01*
X68120974Y-59318174D01*
X68050920Y-59336945D01*
X68050913Y-59336948D01*
X67915586Y-59415079D01*
X67915576Y-59415087D01*
X67805087Y-59525576D01*
X67805079Y-59525586D01*
X67726948Y-59660913D01*
X67726945Y-59660920D01*
X67686500Y-59811865D01*
X67686500Y-59968134D01*
X67686499Y-59968134D01*
X56105706Y-59968134D01*
X56093054Y-59920918D01*
X56038937Y-59827185D01*
X56014920Y-59785586D01*
X56014912Y-59785576D01*
X55904423Y-59675087D01*
X55904413Y-59675079D01*
X55769086Y-59596948D01*
X55769083Y-59596947D01*
X55769082Y-59596946D01*
X55769080Y-59596945D01*
X55769079Y-59596945D01*
X55728633Y-59586107D01*
X55618136Y-59556500D01*
X55461864Y-59556500D01*
X55380974Y-59578174D01*
X55310920Y-59596945D01*
X55310913Y-59596948D01*
X55175586Y-59675079D01*
X55175576Y-59675087D01*
X55065087Y-59785576D01*
X55065079Y-59785586D01*
X54986948Y-59920913D01*
X54986945Y-59920920D01*
X54946500Y-60071865D01*
X54946500Y-60228134D01*
X54946499Y-60228134D01*
X50026290Y-60228134D01*
X50026290Y-60182099D01*
X49999192Y-60011009D01*
X49945663Y-59846265D01*
X49867022Y-59691922D01*
X49789279Y-59584918D01*
X49765202Y-59551779D01*
X49642720Y-59429297D01*
X49502578Y-59327478D01*
X49348242Y-59248840D01*
X49348238Y-59248838D01*
X49348235Y-59248837D01*
X49183491Y-59195308D01*
X49012401Y-59168210D01*
X48839179Y-59168210D01*
X48668089Y-59195308D01*
X48668086Y-59195308D01*
X48668085Y-59195309D01*
X48589043Y-59220991D01*
X48503345Y-59248837D01*
X48503343Y-59248837D01*
X48503337Y-59248840D01*
X48349001Y-59327478D01*
X48208859Y-59429297D01*
X48086377Y-59551779D01*
X47984558Y-59691921D01*
X47905920Y-59846257D01*
X47905917Y-59846263D01*
X47905917Y-59846265D01*
X47852388Y-60011009D01*
X47825290Y-60182099D01*
X47486290Y-60182099D01*
X47459192Y-60011009D01*
X47405663Y-59846265D01*
X47327022Y-59691922D01*
X47249279Y-59584918D01*
X47225202Y-59551779D01*
X47102720Y-59429297D01*
X46962578Y-59327478D01*
X46808242Y-59248840D01*
X46808238Y-59248838D01*
X46808235Y-59248837D01*
X46643491Y-59195308D01*
X46472401Y-59168210D01*
X46299179Y-59168210D01*
X46128089Y-59195308D01*
X46128086Y-59195308D01*
X46128085Y-59195309D01*
X46049043Y-59220991D01*
X45963345Y-59248837D01*
X45963343Y-59248837D01*
X45963337Y-59248840D01*
X45809001Y-59327478D01*
X45668859Y-59429297D01*
X45546377Y-59551779D01*
X45444558Y-59691921D01*
X45365920Y-59846257D01*
X45365917Y-59846263D01*
X45365917Y-59846265D01*
X45312388Y-60011009D01*
X45285290Y-60182099D01*
X43525500Y-60182099D01*
X43525500Y-59088134D01*
X62026499Y-59088134D01*
X62066945Y-59239079D01*
X62066948Y-59239086D01*
X62145079Y-59374413D01*
X62145087Y-59374423D01*
X62255576Y-59484912D01*
X62255581Y-59484916D01*
X62255583Y-59484918D01*
X62255584Y-59484919D01*
X62255586Y-59484920D01*
X62326022Y-59525586D01*
X62390918Y-59563054D01*
X62541864Y-59603500D01*
X62541866Y-59603500D01*
X62698134Y-59603500D01*
X62698136Y-59603500D01*
X62849082Y-59563054D01*
X62984417Y-59484918D01*
X63094918Y-59374417D01*
X63173054Y-59239082D01*
X63186706Y-59188134D01*
X80536499Y-59188134D01*
X80576945Y-59339079D01*
X80576948Y-59339086D01*
X80655079Y-59474413D01*
X80655087Y-59474423D01*
X80765576Y-59584912D01*
X80765581Y-59584916D01*
X80765583Y-59584918D01*
X80900918Y-59663054D01*
X81051864Y-59703500D01*
X81051866Y-59703500D01*
X81208134Y-59703500D01*
X81208136Y-59703500D01*
X81359082Y-59663054D01*
X81427502Y-59623551D01*
X81496495Y-59606814D01*
X81563587Y-59630034D01*
X81607474Y-59685841D01*
X81616500Y-59732671D01*
X81616500Y-59815134D01*
X81616499Y-59815134D01*
X81656945Y-59966079D01*
X81656948Y-59966086D01*
X81735079Y-60101413D01*
X81735087Y-60101423D01*
X81845576Y-60211912D01*
X81845581Y-60211916D01*
X81845583Y-60211918D01*
X81845584Y-60211919D01*
X81845586Y-60211920D01*
X81940711Y-60266840D01*
X81980918Y-60290054D01*
X82131864Y-60330500D01*
X82131866Y-60330500D01*
X82288134Y-60330500D01*
X82288136Y-60330500D01*
X82439082Y-60290054D01*
X82574417Y-60211918D01*
X82684918Y-60101417D01*
X82763054Y-59966082D01*
X82803500Y-59815136D01*
X82803500Y-59658864D01*
X82763054Y-59507918D01*
X82716819Y-59427838D01*
X82700082Y-59358844D01*
X82716820Y-59301839D01*
X82753054Y-59239082D01*
X82793500Y-59088136D01*
X82793500Y-58931864D01*
X82753054Y-58780918D01*
X82709443Y-58705382D01*
X82674920Y-58645586D01*
X82674912Y-58645576D01*
X82564423Y-58535087D01*
X82564413Y-58535079D01*
X82429086Y-58456948D01*
X82429083Y-58456947D01*
X82429082Y-58456946D01*
X82429080Y-58456945D01*
X82429079Y-58456945D01*
X82386880Y-58445638D01*
X82278136Y-58416500D01*
X82121864Y-58416500D01*
X82040974Y-58438174D01*
X81970920Y-58456945D01*
X81970913Y-58456948D01*
X81835586Y-58535079D01*
X81835576Y-58535087D01*
X81725087Y-58645576D01*
X81720055Y-58652135D01*
X81718347Y-58650825D01*
X81675205Y-58691953D01*
X81605490Y-58705382D01*
X81539581Y-58678988D01*
X81528385Y-58669049D01*
X81494423Y-58635087D01*
X81494413Y-58635079D01*
X81359086Y-58556948D01*
X81359083Y-58556947D01*
X81359082Y-58556946D01*
X81359080Y-58556945D01*
X81359079Y-58556945D01*
X81277503Y-58535087D01*
X81208136Y-58516500D01*
X81051864Y-58516500D01*
X80982497Y-58535087D01*
X80900920Y-58556945D01*
X80900913Y-58556948D01*
X80765586Y-58635079D01*
X80765576Y-58635087D01*
X80655087Y-58745576D01*
X80655079Y-58745586D01*
X80576948Y-58880913D01*
X80576945Y-58880920D01*
X80562433Y-58935082D01*
X80538862Y-59023051D01*
X80536500Y-59031865D01*
X80536500Y-59188134D01*
X80536499Y-59188134D01*
X63186706Y-59188134D01*
X63213500Y-59088136D01*
X63213500Y-58931864D01*
X63173054Y-58780918D01*
X63129443Y-58705382D01*
X63094920Y-58645586D01*
X63094912Y-58645576D01*
X62997470Y-58548134D01*
X70546499Y-58548134D01*
X70586945Y-58699079D01*
X70586948Y-58699086D01*
X70665079Y-58834413D01*
X70665087Y-58834423D01*
X70775576Y-58944912D01*
X70775581Y-58944916D01*
X70775583Y-58944918D01*
X70910918Y-59023054D01*
X71061864Y-59063500D01*
X71061866Y-59063500D01*
X71218134Y-59063500D01*
X71218136Y-59063500D01*
X71369082Y-59023054D01*
X71504417Y-58944918D01*
X71614918Y-58834417D01*
X71693054Y-58699082D01*
X71733500Y-58548136D01*
X71733500Y-58418134D01*
X72856499Y-58418134D01*
X72896945Y-58569079D01*
X72896948Y-58569086D01*
X72975079Y-58704413D01*
X72975087Y-58704423D01*
X73085576Y-58814912D01*
X73085581Y-58814916D01*
X73085583Y-58814918D01*
X73085584Y-58814919D01*
X73085586Y-58814920D01*
X73158376Y-58856945D01*
X73220918Y-58893054D01*
X73371864Y-58933500D01*
X73371866Y-58933500D01*
X73528134Y-58933500D01*
X73528136Y-58933500D01*
X73679082Y-58893054D01*
X73814417Y-58814918D01*
X73924918Y-58704417D01*
X74003054Y-58569082D01*
X74043500Y-58418136D01*
X74043500Y-58261864D01*
X74042501Y-58258134D01*
X83856499Y-58258134D01*
X83896945Y-58409079D01*
X83896948Y-58409086D01*
X83975079Y-58544413D01*
X83975087Y-58544423D01*
X84085576Y-58654912D01*
X84085581Y-58654916D01*
X84085583Y-58654918D01*
X84085584Y-58654919D01*
X84085586Y-58654920D01*
X84171317Y-58704417D01*
X84220918Y-58733054D01*
X84265743Y-58745064D01*
X84326363Y-58782014D01*
X84357385Y-58845874D01*
X84348957Y-58916368D01*
X84342250Y-58929769D01*
X84306947Y-58990915D01*
X84306945Y-58990920D01*
X84266500Y-59141865D01*
X84266500Y-59298134D01*
X84266499Y-59298134D01*
X84306945Y-59449079D01*
X84306948Y-59449086D01*
X84385079Y-59584413D01*
X84385087Y-59584423D01*
X84495576Y-59694912D01*
X84495581Y-59694916D01*
X84495583Y-59694918D01*
X84630918Y-59773054D01*
X84781864Y-59813500D01*
X84781866Y-59813500D01*
X84938134Y-59813500D01*
X84938136Y-59813500D01*
X85089082Y-59773054D01*
X85224417Y-59694918D01*
X85233494Y-59685841D01*
X85245905Y-59673431D01*
X85308217Y-59639405D01*
X85379032Y-59644470D01*
X85424095Y-59673431D01*
X85445576Y-59694912D01*
X85445581Y-59694916D01*
X85445583Y-59694918D01*
X85580918Y-59773054D01*
X85731864Y-59813500D01*
X85731866Y-59813500D01*
X85888134Y-59813500D01*
X85888136Y-59813500D01*
X86039082Y-59773054D01*
X86174417Y-59694918D01*
X86284918Y-59584417D01*
X86340507Y-59488134D01*
X87546499Y-59488134D01*
X87586945Y-59639079D01*
X87586948Y-59639086D01*
X87665079Y-59774413D01*
X87665087Y-59774423D01*
X87775576Y-59884912D01*
X87775581Y-59884916D01*
X87775583Y-59884918D01*
X87775584Y-59884919D01*
X87775586Y-59884920D01*
X87837940Y-59920920D01*
X87910918Y-59963054D01*
X88061864Y-60003500D01*
X88061866Y-60003500D01*
X88218134Y-60003500D01*
X88218136Y-60003500D01*
X88369082Y-59963054D01*
X88504417Y-59884918D01*
X88614918Y-59774417D01*
X88693054Y-59639082D01*
X88733500Y-59488136D01*
X88733500Y-59331864D01*
X88693054Y-59180918D01*
X88639485Y-59088134D01*
X88614920Y-59045586D01*
X88614912Y-59045576D01*
X88504423Y-58935087D01*
X88504413Y-58935079D01*
X88369086Y-58856948D01*
X88369083Y-58856947D01*
X88369082Y-58856946D01*
X88369080Y-58856945D01*
X88369079Y-58856945D01*
X88285025Y-58834423D01*
X88218136Y-58816500D01*
X88061864Y-58816500D01*
X87995012Y-58834413D01*
X87910920Y-58856945D01*
X87910913Y-58856948D01*
X87775586Y-58935079D01*
X87775576Y-58935087D01*
X87665087Y-59045576D01*
X87665079Y-59045586D01*
X87586948Y-59180913D01*
X87586946Y-59180918D01*
X87555538Y-59298136D01*
X87546500Y-59331865D01*
X87546500Y-59488134D01*
X87546499Y-59488134D01*
X86340507Y-59488134D01*
X86363054Y-59449082D01*
X86403500Y-59298136D01*
X86403500Y-59141864D01*
X86363054Y-58990918D01*
X86331768Y-58936729D01*
X86315031Y-58867737D01*
X86338251Y-58800645D01*
X86394058Y-58756758D01*
X86408263Y-58752029D01*
X86479082Y-58733054D01*
X86614417Y-58654918D01*
X86724918Y-58544417D01*
X86803054Y-58409082D01*
X86843500Y-58258136D01*
X86843500Y-58101864D01*
X86803054Y-57950918D01*
X86724918Y-57815583D01*
X86724916Y-57815581D01*
X86724912Y-57815576D01*
X86614423Y-57705087D01*
X86614413Y-57705079D01*
X86479086Y-57626948D01*
X86479083Y-57626947D01*
X86479082Y-57626946D01*
X86479080Y-57626945D01*
X86479079Y-57626945D01*
X86438633Y-57616107D01*
X86328136Y-57586500D01*
X86171864Y-57586500D01*
X86124908Y-57599082D01*
X86020920Y-57626945D01*
X86020913Y-57626948D01*
X85885586Y-57705079D01*
X85885577Y-57705086D01*
X85884088Y-57706576D01*
X85882523Y-57707430D01*
X85879031Y-57710110D01*
X85878612Y-57709565D01*
X85821774Y-57740596D01*
X85750958Y-57735527D01*
X85705903Y-57706568D01*
X85694417Y-57695082D01*
X85694414Y-57695080D01*
X85694413Y-57695079D01*
X85559086Y-57616948D01*
X85559083Y-57616947D01*
X85559082Y-57616946D01*
X85559080Y-57616945D01*
X85559079Y-57616945D01*
X85518633Y-57606107D01*
X85408136Y-57576500D01*
X85251864Y-57576500D01*
X85170974Y-57598174D01*
X85100920Y-57616945D01*
X85100913Y-57616948D01*
X84965580Y-57695083D01*
X84960027Y-57699344D01*
X84893804Y-57724940D01*
X84824257Y-57710670D01*
X84820330Y-57708495D01*
X84679086Y-57626948D01*
X84679083Y-57626947D01*
X84679082Y-57626946D01*
X84679080Y-57626945D01*
X84679079Y-57626945D01*
X84638633Y-57616107D01*
X84528136Y-57586500D01*
X84371864Y-57586500D01*
X84324908Y-57599082D01*
X84220920Y-57626945D01*
X84220913Y-57626948D01*
X84085586Y-57705079D01*
X84085576Y-57705087D01*
X83975087Y-57815576D01*
X83975079Y-57815586D01*
X83896948Y-57950913D01*
X83896945Y-57950920D01*
X83856500Y-58101865D01*
X83856500Y-58258134D01*
X83856499Y-58258134D01*
X74042501Y-58258134D01*
X74003054Y-58110918D01*
X73936174Y-57995079D01*
X73924920Y-57975586D01*
X73924912Y-57975576D01*
X73814423Y-57865087D01*
X73814413Y-57865079D01*
X73679086Y-57786948D01*
X73679083Y-57786947D01*
X73679082Y-57786946D01*
X73679080Y-57786945D01*
X73679079Y-57786945D01*
X73636981Y-57775665D01*
X73528136Y-57746500D01*
X73371864Y-57746500D01*
X73290974Y-57768174D01*
X73220920Y-57786945D01*
X73220913Y-57786948D01*
X73085586Y-57865079D01*
X73085576Y-57865087D01*
X72975087Y-57975576D01*
X72975079Y-57975586D01*
X72896948Y-58110913D01*
X72896945Y-58110920D01*
X72871303Y-58206615D01*
X72857500Y-58258134D01*
X72856500Y-58261865D01*
X72856500Y-58418134D01*
X72856499Y-58418134D01*
X71733500Y-58418134D01*
X71733500Y-58391864D01*
X71693054Y-58240918D01*
X71626830Y-58126215D01*
X71614920Y-58105586D01*
X71614912Y-58105576D01*
X71504423Y-57995087D01*
X71504413Y-57995079D01*
X71369086Y-57916948D01*
X71369083Y-57916947D01*
X71369082Y-57916946D01*
X71369080Y-57916945D01*
X71369079Y-57916945D01*
X71328633Y-57906107D01*
X71218136Y-57876500D01*
X71061864Y-57876500D01*
X70980974Y-57898174D01*
X70910920Y-57916945D01*
X70910913Y-57916948D01*
X70775586Y-57995079D01*
X70775576Y-57995087D01*
X70665087Y-58105576D01*
X70665079Y-58105586D01*
X70586948Y-58240913D01*
X70586945Y-58240920D01*
X70546500Y-58391865D01*
X70546500Y-58548134D01*
X70546499Y-58548134D01*
X62997470Y-58548134D01*
X62984423Y-58535087D01*
X62984413Y-58535079D01*
X62911051Y-58492724D01*
X62849086Y-58456948D01*
X62849083Y-58456947D01*
X62849082Y-58456946D01*
X62849080Y-58456945D01*
X62849079Y-58456945D01*
X62806880Y-58445638D01*
X62698136Y-58416500D01*
X62541864Y-58416500D01*
X62460974Y-58438174D01*
X62390920Y-58456945D01*
X62390913Y-58456948D01*
X62255586Y-58535079D01*
X62255576Y-58535087D01*
X62145087Y-58645576D01*
X62145079Y-58645586D01*
X62066948Y-58780913D01*
X62066945Y-58780920D01*
X62046574Y-58856946D01*
X62027062Y-58929769D01*
X62026500Y-58931865D01*
X62026500Y-59088134D01*
X62026499Y-59088134D01*
X43525500Y-59088134D01*
X43525500Y-57642099D01*
X45285290Y-57642099D01*
X45285290Y-57815321D01*
X45312388Y-57986411D01*
X45365917Y-58151155D01*
X45365918Y-58151158D01*
X45365920Y-58151162D01*
X45444558Y-58305498D01*
X45546377Y-58445640D01*
X45668859Y-58568122D01*
X45724420Y-58608489D01*
X45809002Y-58669942D01*
X45932867Y-58733054D01*
X45956436Y-58745063D01*
X45963345Y-58748583D01*
X46128089Y-58802112D01*
X46299179Y-58829210D01*
X46299182Y-58829210D01*
X46472398Y-58829210D01*
X46472401Y-58829210D01*
X46643491Y-58802112D01*
X46808235Y-58748583D01*
X46962578Y-58669942D01*
X47102718Y-58568124D01*
X47225204Y-58445638D01*
X47327022Y-58305498D01*
X47405663Y-58151155D01*
X47459192Y-57986411D01*
X47486290Y-57815321D01*
X47486290Y-57642099D01*
X47825290Y-57642099D01*
X47825290Y-57815321D01*
X47852388Y-57986411D01*
X47905917Y-58151155D01*
X47905918Y-58151158D01*
X47905920Y-58151162D01*
X47984558Y-58305498D01*
X48086377Y-58445640D01*
X48208859Y-58568122D01*
X48264420Y-58608489D01*
X48349002Y-58669942D01*
X48472867Y-58733054D01*
X48496436Y-58745063D01*
X48503345Y-58748583D01*
X48668089Y-58802112D01*
X48839179Y-58829210D01*
X48839182Y-58829210D01*
X49012398Y-58829210D01*
X49012401Y-58829210D01*
X49183491Y-58802112D01*
X49348235Y-58748583D01*
X49502578Y-58669942D01*
X49642718Y-58568124D01*
X49765204Y-58445638D01*
X49867022Y-58305498D01*
X49945663Y-58151155D01*
X49999192Y-57986411D01*
X50026290Y-57815321D01*
X50026290Y-57642099D01*
X49999192Y-57471009D01*
X49991759Y-57448134D01*
X68616499Y-57448134D01*
X68656945Y-57599079D01*
X68656948Y-57599086D01*
X68735079Y-57734413D01*
X68735087Y-57734423D01*
X68845576Y-57844912D01*
X68845581Y-57844916D01*
X68845583Y-57844918D01*
X68845584Y-57844919D01*
X68845586Y-57844920D01*
X68900284Y-57876500D01*
X68980918Y-57923054D01*
X69131864Y-57963500D01*
X69131866Y-57963500D01*
X69288134Y-57963500D01*
X69288136Y-57963500D01*
X69439082Y-57923054D01*
X69574417Y-57844918D01*
X69684918Y-57734417D01*
X69763054Y-57599082D01*
X69803500Y-57448136D01*
X69803500Y-57291864D01*
X69763054Y-57140918D01*
X69688497Y-57011782D01*
X69684920Y-57005586D01*
X69684912Y-57005576D01*
X69574423Y-56895087D01*
X69574413Y-56895079D01*
X69439086Y-56816948D01*
X69439083Y-56816947D01*
X69439082Y-56816946D01*
X69439080Y-56816945D01*
X69439079Y-56816945D01*
X69398633Y-56806107D01*
X69288136Y-56776500D01*
X69131864Y-56776500D01*
X69050974Y-56798174D01*
X68980920Y-56816945D01*
X68980913Y-56816948D01*
X68845586Y-56895079D01*
X68845576Y-56895087D01*
X68735087Y-57005576D01*
X68735079Y-57005586D01*
X68656948Y-57140913D01*
X68656945Y-57140920D01*
X68616500Y-57291865D01*
X68616500Y-57448134D01*
X68616499Y-57448134D01*
X49991759Y-57448134D01*
X49945663Y-57306265D01*
X49867022Y-57151922D01*
X49789279Y-57044918D01*
X49765202Y-57011779D01*
X49642720Y-56889297D01*
X49502578Y-56787478D01*
X49348242Y-56708840D01*
X49348238Y-56708838D01*
X49348235Y-56708837D01*
X49183491Y-56655308D01*
X49138196Y-56648134D01*
X61336499Y-56648134D01*
X61376945Y-56799079D01*
X61376948Y-56799086D01*
X61455079Y-56934413D01*
X61455087Y-56934423D01*
X61565576Y-57044912D01*
X61565581Y-57044916D01*
X61565583Y-57044918D01*
X61700918Y-57123054D01*
X61851864Y-57163500D01*
X61851866Y-57163500D01*
X62008133Y-57163500D01*
X62008136Y-57163500D01*
X62159082Y-57123054D01*
X62294417Y-57044918D01*
X62404918Y-56934417D01*
X62483054Y-56799082D01*
X62523500Y-56648136D01*
X62523500Y-56588134D01*
X69906499Y-56588134D01*
X69946945Y-56739079D01*
X69946948Y-56739086D01*
X70025079Y-56874413D01*
X70025087Y-56874423D01*
X70135576Y-56984912D01*
X70135581Y-56984916D01*
X70135583Y-56984918D01*
X70135584Y-56984919D01*
X70135586Y-56984920D01*
X70230711Y-57039840D01*
X70270918Y-57063054D01*
X70421864Y-57103500D01*
X70421866Y-57103500D01*
X70578134Y-57103500D01*
X70578136Y-57103500D01*
X70729082Y-57063054D01*
X70864417Y-56984918D01*
X70974918Y-56874417D01*
X71053054Y-56739082D01*
X71093500Y-56588136D01*
X71093500Y-56431864D01*
X71053054Y-56280918D01*
X70974918Y-56145583D01*
X70974916Y-56145581D01*
X70974912Y-56145576D01*
X70858578Y-56029242D01*
X70859970Y-56027849D01*
X70824449Y-55979203D01*
X70820225Y-55908332D01*
X70854988Y-55846428D01*
X70880019Y-55827456D01*
X70884417Y-55824918D01*
X70901201Y-55808134D01*
X80136499Y-55808134D01*
X80176945Y-55959079D01*
X80176948Y-55959086D01*
X80255079Y-56094413D01*
X80255087Y-56094423D01*
X80365576Y-56204912D01*
X80365581Y-56204916D01*
X80365583Y-56204918D01*
X80365584Y-56204919D01*
X80365586Y-56204920D01*
X80366740Y-56205586D01*
X80500918Y-56283054D01*
X80651864Y-56323500D01*
X80651866Y-56323500D01*
X80808134Y-56323500D01*
X80808136Y-56323500D01*
X80959082Y-56283054D01*
X81094417Y-56204918D01*
X81204918Y-56094417D01*
X81283054Y-55959082D01*
X81323500Y-55808136D01*
X81323500Y-55651864D01*
X81283054Y-55500918D01*
X81204918Y-55365583D01*
X81204916Y-55365581D01*
X81204912Y-55365576D01*
X81094423Y-55255087D01*
X81094413Y-55255079D01*
X80959086Y-55176948D01*
X80959083Y-55176947D01*
X80959082Y-55176946D01*
X80959080Y-55176945D01*
X80959079Y-55176945D01*
X80918633Y-55166107D01*
X80808136Y-55136500D01*
X80651864Y-55136500D01*
X80570974Y-55158174D01*
X80500920Y-55176945D01*
X80500913Y-55176948D01*
X80365586Y-55255079D01*
X80365576Y-55255087D01*
X80255087Y-55365576D01*
X80255079Y-55365586D01*
X80176948Y-55500913D01*
X80176945Y-55500920D01*
X80136500Y-55651865D01*
X80136500Y-55808134D01*
X80136499Y-55808134D01*
X70901201Y-55808134D01*
X70994918Y-55714417D01*
X71073054Y-55579082D01*
X71113500Y-55428136D01*
X71113500Y-55271864D01*
X71073054Y-55120918D01*
X70994918Y-54985583D01*
X70994916Y-54985581D01*
X70994912Y-54985576D01*
X70884423Y-54875087D01*
X70884413Y-54875079D01*
X70749086Y-54796948D01*
X70749083Y-54796947D01*
X70749082Y-54796946D01*
X70749080Y-54796945D01*
X70749079Y-54796945D01*
X70708633Y-54786107D01*
X70598136Y-54756500D01*
X70441864Y-54756500D01*
X70360974Y-54778174D01*
X70290920Y-54796945D01*
X70290913Y-54796948D01*
X70155586Y-54875079D01*
X70155576Y-54875087D01*
X70045087Y-54985576D01*
X70045079Y-54985586D01*
X69966948Y-55120913D01*
X69966945Y-55120920D01*
X69951933Y-55176946D01*
X69930996Y-55255087D01*
X69926500Y-55271865D01*
X69926500Y-55428134D01*
X69926499Y-55428134D01*
X69966945Y-55579079D01*
X69966948Y-55579086D01*
X70045079Y-55714413D01*
X70045087Y-55714423D01*
X70161422Y-55830758D01*
X70160028Y-55832151D01*
X70195549Y-55880792D01*
X70199774Y-55951663D01*
X70165013Y-56013568D01*
X70139988Y-56032537D01*
X70135592Y-56035075D01*
X70135576Y-56035087D01*
X70025087Y-56145576D01*
X70025079Y-56145586D01*
X69946948Y-56280913D01*
X69946945Y-56280920D01*
X69906500Y-56431865D01*
X69906500Y-56588134D01*
X69906499Y-56588134D01*
X62523500Y-56588134D01*
X62523500Y-56491864D01*
X62483054Y-56340918D01*
X62406650Y-56208583D01*
X62404920Y-56205586D01*
X62404912Y-56205576D01*
X62294423Y-56095087D01*
X62294413Y-56095079D01*
X62159086Y-56016948D01*
X62159083Y-56016947D01*
X62159082Y-56016946D01*
X62159080Y-56016945D01*
X62159079Y-56016945D01*
X62118633Y-56006107D01*
X62008136Y-55976500D01*
X61851864Y-55976500D01*
X61770974Y-55998174D01*
X61700920Y-56016945D01*
X61700913Y-56016948D01*
X61565586Y-56095079D01*
X61565576Y-56095087D01*
X61455087Y-56205576D01*
X61455079Y-56205586D01*
X61376948Y-56340913D01*
X61376946Y-56340918D01*
X61336501Y-56491863D01*
X61336500Y-56491865D01*
X61336500Y-56648134D01*
X61336499Y-56648134D01*
X49138196Y-56648134D01*
X49012401Y-56628210D01*
X48839179Y-56628210D01*
X48668089Y-56655308D01*
X48668086Y-56655308D01*
X48668085Y-56655309D01*
X48589043Y-56680991D01*
X48503345Y-56708837D01*
X48503343Y-56708837D01*
X48503337Y-56708840D01*
X48349001Y-56787478D01*
X48208859Y-56889297D01*
X48086377Y-57011779D01*
X47984558Y-57151921D01*
X47905920Y-57306257D01*
X47905917Y-57306266D01*
X47859821Y-57448134D01*
X47852388Y-57471009D01*
X47825290Y-57642099D01*
X47486290Y-57642099D01*
X47459192Y-57471009D01*
X47405663Y-57306265D01*
X47327022Y-57151922D01*
X47249279Y-57044918D01*
X47225202Y-57011779D01*
X47102720Y-56889297D01*
X46962578Y-56787478D01*
X46808242Y-56708840D01*
X46808238Y-56708838D01*
X46808235Y-56708837D01*
X46643491Y-56655308D01*
X46472401Y-56628210D01*
X46299179Y-56628210D01*
X46128089Y-56655308D01*
X46128086Y-56655308D01*
X46128085Y-56655309D01*
X46049043Y-56680991D01*
X45963345Y-56708837D01*
X45963343Y-56708837D01*
X45963337Y-56708840D01*
X45809001Y-56787478D01*
X45668859Y-56889297D01*
X45546377Y-57011779D01*
X45444558Y-57151921D01*
X45365920Y-57306257D01*
X45365917Y-57306266D01*
X45319821Y-57448134D01*
X45312388Y-57471009D01*
X45285290Y-57642099D01*
X43525500Y-57642099D01*
X43525500Y-55102099D01*
X45285290Y-55102099D01*
X45285290Y-55275321D01*
X45312388Y-55446411D01*
X45365917Y-55611155D01*
X45365918Y-55611158D01*
X45365920Y-55611162D01*
X45444558Y-55765498D01*
X45546377Y-55905640D01*
X45668859Y-56028122D01*
X45668862Y-56028124D01*
X45809002Y-56129942D01*
X45963345Y-56208583D01*
X46128089Y-56262112D01*
X46299179Y-56289210D01*
X46299182Y-56289210D01*
X46472398Y-56289210D01*
X46472401Y-56289210D01*
X46643491Y-56262112D01*
X46808235Y-56208583D01*
X46962578Y-56129942D01*
X47102718Y-56028124D01*
X47225204Y-55905638D01*
X47327022Y-55765498D01*
X47405663Y-55611155D01*
X47459192Y-55446411D01*
X47486290Y-55275321D01*
X47486290Y-55102099D01*
X47825290Y-55102099D01*
X47825290Y-55275321D01*
X47852388Y-55446411D01*
X47905917Y-55611155D01*
X47905918Y-55611158D01*
X47905920Y-55611162D01*
X47984558Y-55765498D01*
X48086377Y-55905640D01*
X48208859Y-56028122D01*
X48208862Y-56028124D01*
X48349002Y-56129942D01*
X48503345Y-56208583D01*
X48668089Y-56262112D01*
X48839179Y-56289210D01*
X48839182Y-56289210D01*
X49012398Y-56289210D01*
X49012401Y-56289210D01*
X49183491Y-56262112D01*
X49348235Y-56208583D01*
X49502578Y-56129942D01*
X49642718Y-56028124D01*
X49765204Y-55905638D01*
X49867022Y-55765498D01*
X49945663Y-55611155D01*
X49999192Y-55446411D01*
X50026290Y-55275321D01*
X50026290Y-55102099D01*
X49999192Y-54931009D01*
X49945663Y-54766265D01*
X49867022Y-54611922D01*
X49765204Y-54471782D01*
X49765202Y-54471779D01*
X49642720Y-54349297D01*
X49502578Y-54247478D01*
X49348242Y-54168840D01*
X49348238Y-54168838D01*
X49348235Y-54168837D01*
X49183491Y-54115308D01*
X49012401Y-54088210D01*
X48839179Y-54088210D01*
X48668089Y-54115308D01*
X48668086Y-54115308D01*
X48668085Y-54115309D01*
X48589043Y-54140991D01*
X48503345Y-54168837D01*
X48503343Y-54168837D01*
X48503337Y-54168840D01*
X48349001Y-54247478D01*
X48208859Y-54349297D01*
X48086377Y-54471779D01*
X47984558Y-54611921D01*
X47905920Y-54766257D01*
X47905917Y-54766263D01*
X47905917Y-54766265D01*
X47852388Y-54931009D01*
X47825290Y-55102099D01*
X47486290Y-55102099D01*
X47459192Y-54931009D01*
X47405663Y-54766265D01*
X47327022Y-54611922D01*
X47225204Y-54471782D01*
X47225202Y-54471779D01*
X47102720Y-54349297D01*
X46962578Y-54247478D01*
X46808242Y-54168840D01*
X46808238Y-54168838D01*
X46808235Y-54168837D01*
X46643491Y-54115308D01*
X46472401Y-54088210D01*
X46299179Y-54088210D01*
X46128089Y-54115308D01*
X46128086Y-54115308D01*
X46128085Y-54115309D01*
X46049043Y-54140991D01*
X45963345Y-54168837D01*
X45963343Y-54168837D01*
X45963337Y-54168840D01*
X45809001Y-54247478D01*
X45668859Y-54349297D01*
X45546377Y-54471779D01*
X45444558Y-54611921D01*
X45365920Y-54766257D01*
X45365917Y-54766263D01*
X45365917Y-54766265D01*
X45312388Y-54931009D01*
X45285290Y-55102099D01*
X43525500Y-55102099D01*
X43525500Y-52562099D01*
X45285290Y-52562099D01*
X45285290Y-52735321D01*
X45312388Y-52906411D01*
X45365917Y-53071155D01*
X45365918Y-53071158D01*
X45365920Y-53071162D01*
X45444558Y-53225498D01*
X45546377Y-53365640D01*
X45668859Y-53488122D01*
X45724420Y-53528489D01*
X45809002Y-53589942D01*
X45963345Y-53668583D01*
X46128089Y-53722112D01*
X46299179Y-53749210D01*
X46299182Y-53749210D01*
X46472398Y-53749210D01*
X46472401Y-53749210D01*
X46643491Y-53722112D01*
X46808235Y-53668583D01*
X46962578Y-53589942D01*
X47102718Y-53488124D01*
X47225204Y-53365638D01*
X47327022Y-53225498D01*
X47405663Y-53071155D01*
X47459192Y-52906411D01*
X47486290Y-52735321D01*
X47486290Y-52562099D01*
X47825290Y-52562099D01*
X47825290Y-52735321D01*
X47852388Y-52906411D01*
X47905917Y-53071155D01*
X47905918Y-53071158D01*
X47905920Y-53071162D01*
X47984558Y-53225498D01*
X48086377Y-53365640D01*
X48208859Y-53488122D01*
X48264420Y-53528489D01*
X48349002Y-53589942D01*
X48503345Y-53668583D01*
X48668089Y-53722112D01*
X48839179Y-53749210D01*
X48839182Y-53749210D01*
X49012398Y-53749210D01*
X49012401Y-53749210D01*
X49183491Y-53722112D01*
X49348235Y-53668583D01*
X49502578Y-53589942D01*
X49642718Y-53488124D01*
X49765204Y-53365638D01*
X49867022Y-53225498D01*
X49891155Y-53178134D01*
X54516499Y-53178134D01*
X54556945Y-53329079D01*
X54556948Y-53329086D01*
X54635079Y-53464413D01*
X54635087Y-53464423D01*
X54745576Y-53574912D01*
X54745581Y-53574916D01*
X54745583Y-53574918D01*
X54880918Y-53653054D01*
X55031864Y-53693500D01*
X55031866Y-53693500D01*
X55188134Y-53693500D01*
X55188136Y-53693500D01*
X55339082Y-53653054D01*
X55474417Y-53574918D01*
X55584918Y-53464417D01*
X55663054Y-53329082D01*
X55703500Y-53178136D01*
X55703500Y-53021864D01*
X55702501Y-53018134D01*
X67476499Y-53018134D01*
X67516945Y-53169079D01*
X67516948Y-53169086D01*
X67595079Y-53304413D01*
X67595087Y-53304423D01*
X67705576Y-53414912D01*
X67705581Y-53414916D01*
X67705583Y-53414918D01*
X67705584Y-53414919D01*
X67705586Y-53414920D01*
X67791317Y-53464417D01*
X67840918Y-53493054D01*
X67991864Y-53533500D01*
X67991866Y-53533500D01*
X68148134Y-53533500D01*
X68148136Y-53533500D01*
X68299082Y-53493054D01*
X68434417Y-53414918D01*
X68544918Y-53304417D01*
X68565866Y-53268134D01*
X68936499Y-53268134D01*
X68976945Y-53419079D01*
X68976948Y-53419086D01*
X69055079Y-53554413D01*
X69055087Y-53554423D01*
X69165576Y-53664912D01*
X69165581Y-53664916D01*
X69165583Y-53664918D01*
X69300918Y-53743054D01*
X69451864Y-53783500D01*
X69451866Y-53783500D01*
X69608134Y-53783500D01*
X69608136Y-53783500D01*
X69759082Y-53743054D01*
X69894417Y-53664918D01*
X70004918Y-53554417D01*
X70083054Y-53419082D01*
X70123500Y-53268136D01*
X70123500Y-53111864D01*
X70083054Y-52960918D01*
X70035260Y-52878136D01*
X70035259Y-52878134D01*
X73166499Y-52878134D01*
X73206945Y-53029079D01*
X73206948Y-53029086D01*
X73285079Y-53164413D01*
X73285087Y-53164423D01*
X73395576Y-53274912D01*
X73395581Y-53274916D01*
X73395583Y-53274918D01*
X73395584Y-53274919D01*
X73395586Y-53274920D01*
X73446687Y-53304423D01*
X73530918Y-53353054D01*
X73681864Y-53393500D01*
X73681866Y-53393500D01*
X73838134Y-53393500D01*
X73838136Y-53393500D01*
X73989082Y-53353054D01*
X74124417Y-53274918D01*
X74234918Y-53164417D01*
X74313054Y-53029082D01*
X74353500Y-52878136D01*
X74353500Y-52721864D01*
X74313054Y-52570918D01*
X74251952Y-52465087D01*
X74234920Y-52435586D01*
X74234912Y-52435576D01*
X74198431Y-52399095D01*
X74164405Y-52336783D01*
X74169470Y-52265968D01*
X74198431Y-52220905D01*
X74244912Y-52174423D01*
X74244918Y-52174417D01*
X74323054Y-52039082D01*
X74363500Y-51888136D01*
X74363500Y-51731864D01*
X74346424Y-51668134D01*
X84376499Y-51668134D01*
X84416945Y-51819079D01*
X84416948Y-51819086D01*
X84495079Y-51954413D01*
X84495087Y-51954423D01*
X84605576Y-52064912D01*
X84605581Y-52064916D01*
X84605583Y-52064918D01*
X84605584Y-52064919D01*
X84605586Y-52064920D01*
X84622046Y-52074423D01*
X84740918Y-52143054D01*
X84891864Y-52183500D01*
X84891866Y-52183500D01*
X85048134Y-52183500D01*
X85048136Y-52183500D01*
X85199082Y-52143054D01*
X85334417Y-52064918D01*
X85444918Y-51954417D01*
X85523054Y-51819082D01*
X85531347Y-51788134D01*
X88026499Y-51788134D01*
X88066945Y-51939079D01*
X88066948Y-51939086D01*
X88145079Y-52074413D01*
X88145087Y-52074423D01*
X88255576Y-52184912D01*
X88255581Y-52184916D01*
X88255583Y-52184918D01*
X88255584Y-52184919D01*
X88255586Y-52184920D01*
X88350711Y-52239840D01*
X88390918Y-52263054D01*
X88541864Y-52303500D01*
X88541866Y-52303500D01*
X88698134Y-52303500D01*
X88698136Y-52303500D01*
X88849082Y-52263054D01*
X88984417Y-52184918D01*
X89094918Y-52074417D01*
X89173054Y-51939082D01*
X89213500Y-51788136D01*
X89213500Y-51631864D01*
X89173054Y-51480918D01*
X89094918Y-51345583D01*
X89094916Y-51345581D01*
X89094912Y-51345576D01*
X88984423Y-51235087D01*
X88984413Y-51235079D01*
X88849086Y-51156948D01*
X88849083Y-51156947D01*
X88849082Y-51156946D01*
X88849080Y-51156945D01*
X88849079Y-51156945D01*
X88808633Y-51146107D01*
X88698136Y-51116500D01*
X88541864Y-51116500D01*
X88460974Y-51138174D01*
X88390920Y-51156945D01*
X88390913Y-51156948D01*
X88255586Y-51235079D01*
X88255576Y-51235087D01*
X88145087Y-51345576D01*
X88145079Y-51345586D01*
X88066948Y-51480913D01*
X88066945Y-51480920D01*
X88048915Y-51548210D01*
X88027311Y-51628840D01*
X88026500Y-51631865D01*
X88026500Y-51788134D01*
X88026499Y-51788134D01*
X85531347Y-51788134D01*
X85563500Y-51668136D01*
X85563500Y-51511864D01*
X85523054Y-51360918D01*
X85499840Y-51320711D01*
X85444920Y-51225586D01*
X85444912Y-51225576D01*
X85334423Y-51115087D01*
X85334413Y-51115079D01*
X85199086Y-51036948D01*
X85199083Y-51036947D01*
X85199082Y-51036946D01*
X85199080Y-51036945D01*
X85199079Y-51036945D01*
X85158633Y-51026107D01*
X85048136Y-50996500D01*
X84891864Y-50996500D01*
X84810974Y-51018174D01*
X84740920Y-51036945D01*
X84740913Y-51036948D01*
X84605586Y-51115079D01*
X84605576Y-51115087D01*
X84495087Y-51225576D01*
X84495079Y-51225586D01*
X84416948Y-51360913D01*
X84416945Y-51360920D01*
X84402698Y-51414093D01*
X84384792Y-51480920D01*
X84376500Y-51511865D01*
X84376500Y-51668134D01*
X84376499Y-51668134D01*
X74346424Y-51668134D01*
X74323054Y-51580918D01*
X74244918Y-51445583D01*
X74223738Y-51424403D01*
X74216361Y-51412862D01*
X74210116Y-51391402D01*
X74199405Y-51371787D01*
X74200391Y-51357982D01*
X74196525Y-51344693D01*
X74202874Y-51323262D01*
X74204468Y-51300971D01*
X74213764Y-51286504D01*
X74216693Y-51276621D01*
X74224371Y-51270000D01*
X74233429Y-51255905D01*
X74264918Y-51224417D01*
X74343054Y-51089082D01*
X74383500Y-50938136D01*
X74383500Y-50781864D01*
X74343054Y-50630918D01*
X74285456Y-50531155D01*
X74264920Y-50495586D01*
X74264912Y-50495576D01*
X74154423Y-50385087D01*
X74154413Y-50385079D01*
X74019086Y-50306948D01*
X74019083Y-50306947D01*
X74019082Y-50306946D01*
X74019080Y-50306945D01*
X74019079Y-50306945D01*
X73978633Y-50296107D01*
X73868136Y-50266500D01*
X73711864Y-50266500D01*
X73630974Y-50288174D01*
X73560920Y-50306945D01*
X73560913Y-50306948D01*
X73425586Y-50385079D01*
X73425576Y-50385087D01*
X73315087Y-50495576D01*
X73315079Y-50495586D01*
X73236948Y-50630913D01*
X73236945Y-50630920D01*
X73196500Y-50781865D01*
X73196500Y-50938134D01*
X73196499Y-50938134D01*
X73236945Y-51089079D01*
X73236948Y-51089086D01*
X73315079Y-51224413D01*
X73315080Y-51224414D01*
X73315082Y-51224417D01*
X73326568Y-51235903D01*
X73360594Y-51298212D01*
X73355531Y-51369028D01*
X73326571Y-51414093D01*
X73295084Y-51445580D01*
X73295079Y-51445586D01*
X73216948Y-51580913D01*
X73216945Y-51580920D01*
X73176500Y-51731865D01*
X73176500Y-51888134D01*
X73176499Y-51888134D01*
X73216945Y-52039079D01*
X73216948Y-52039086D01*
X73295079Y-52174413D01*
X73295087Y-52174423D01*
X73331569Y-52210905D01*
X73365595Y-52273217D01*
X73360530Y-52344032D01*
X73331569Y-52389095D01*
X73285087Y-52435576D01*
X73285079Y-52435586D01*
X73206948Y-52570913D01*
X73206945Y-52570920D01*
X73192433Y-52625082D01*
X73169433Y-52710920D01*
X73166500Y-52721865D01*
X73166500Y-52878134D01*
X73166499Y-52878134D01*
X70035259Y-52878134D01*
X70004920Y-52825586D01*
X70004912Y-52825576D01*
X69894423Y-52715087D01*
X69894413Y-52715079D01*
X69759086Y-52636948D01*
X69759083Y-52636947D01*
X69759082Y-52636946D01*
X69759080Y-52636945D01*
X69759079Y-52636945D01*
X69714794Y-52625079D01*
X69608136Y-52596500D01*
X69451864Y-52596500D01*
X69370974Y-52618174D01*
X69300920Y-52636945D01*
X69300913Y-52636948D01*
X69165586Y-52715079D01*
X69165576Y-52715087D01*
X69055087Y-52825576D01*
X69055079Y-52825586D01*
X68976948Y-52960913D01*
X68976945Y-52960920D01*
X68936500Y-53111865D01*
X68936500Y-53268134D01*
X68936499Y-53268134D01*
X68565866Y-53268134D01*
X68623054Y-53169082D01*
X68663500Y-53018136D01*
X68663500Y-52861864D01*
X68623054Y-52710918D01*
X68573495Y-52625079D01*
X68544920Y-52575586D01*
X68544912Y-52575576D01*
X68434423Y-52465087D01*
X68434413Y-52465079D01*
X68299086Y-52386948D01*
X68299083Y-52386947D01*
X68299082Y-52386946D01*
X68299080Y-52386945D01*
X68299079Y-52386945D01*
X68258633Y-52376107D01*
X68148136Y-52346500D01*
X67991864Y-52346500D01*
X67910974Y-52368174D01*
X67840920Y-52386945D01*
X67840913Y-52386948D01*
X67705586Y-52465079D01*
X67705576Y-52465087D01*
X67595087Y-52575576D01*
X67595079Y-52575586D01*
X67516948Y-52710913D01*
X67516945Y-52710920D01*
X67510408Y-52735317D01*
X67486222Y-52825583D01*
X67476500Y-52861865D01*
X67476500Y-53018134D01*
X67476499Y-53018134D01*
X55702501Y-53018134D01*
X55663054Y-52870918D01*
X55584918Y-52735583D01*
X55584916Y-52735581D01*
X55584912Y-52735576D01*
X55474423Y-52625087D01*
X55474413Y-52625079D01*
X55339086Y-52546948D01*
X55339083Y-52546947D01*
X55339082Y-52546946D01*
X55339080Y-52546945D01*
X55339079Y-52546945D01*
X55298633Y-52536107D01*
X55188136Y-52506500D01*
X55031864Y-52506500D01*
X54950974Y-52528174D01*
X54880920Y-52546945D01*
X54880913Y-52546948D01*
X54745586Y-52625079D01*
X54745576Y-52625087D01*
X54635087Y-52735576D01*
X54635079Y-52735586D01*
X54556948Y-52870913D01*
X54556945Y-52870920D01*
X54547435Y-52906414D01*
X54517500Y-53018134D01*
X54516500Y-53021865D01*
X54516500Y-53178134D01*
X54516499Y-53178134D01*
X49891155Y-53178134D01*
X49945663Y-53071155D01*
X49999192Y-52906411D01*
X50026290Y-52735321D01*
X50026290Y-52562099D01*
X49999192Y-52391009D01*
X49945663Y-52226265D01*
X49867022Y-52071922D01*
X49781649Y-51954417D01*
X49765202Y-51931779D01*
X49642720Y-51809297D01*
X49502578Y-51707478D01*
X49348242Y-51628840D01*
X49348238Y-51628838D01*
X49348235Y-51628837D01*
X49183491Y-51575308D01*
X49012401Y-51548210D01*
X48839179Y-51548210D01*
X48668089Y-51575308D01*
X48668086Y-51575308D01*
X48668085Y-51575309D01*
X48589043Y-51600991D01*
X48503345Y-51628837D01*
X48503343Y-51628837D01*
X48503337Y-51628840D01*
X48349001Y-51707478D01*
X48208859Y-51809297D01*
X48086377Y-51931779D01*
X47984558Y-52071921D01*
X47905920Y-52226257D01*
X47905917Y-52226263D01*
X47905917Y-52226265D01*
X47893017Y-52265968D01*
X47853708Y-52386948D01*
X47852388Y-52391009D01*
X47825290Y-52562099D01*
X47486290Y-52562099D01*
X47459192Y-52391009D01*
X47405663Y-52226265D01*
X47327022Y-52071922D01*
X47241649Y-51954417D01*
X47225202Y-51931779D01*
X47102720Y-51809297D01*
X46962578Y-51707478D01*
X46808242Y-51628840D01*
X46808238Y-51628838D01*
X46808235Y-51628837D01*
X46643491Y-51575308D01*
X46472401Y-51548210D01*
X46299179Y-51548210D01*
X46128089Y-51575308D01*
X46128086Y-51575308D01*
X46128085Y-51575309D01*
X46049043Y-51600991D01*
X45963345Y-51628837D01*
X45963343Y-51628837D01*
X45963337Y-51628840D01*
X45809001Y-51707478D01*
X45668859Y-51809297D01*
X45546377Y-51931779D01*
X45444558Y-52071921D01*
X45365920Y-52226257D01*
X45365917Y-52226263D01*
X45365917Y-52226265D01*
X45353017Y-52265968D01*
X45313708Y-52386948D01*
X45312388Y-52391009D01*
X45285290Y-52562099D01*
X43525500Y-52562099D01*
X43525500Y-50022099D01*
X45285290Y-50022099D01*
X45285290Y-50195321D01*
X45312388Y-50366411D01*
X45365917Y-50531155D01*
X45365918Y-50531158D01*
X45365920Y-50531162D01*
X45444558Y-50685498D01*
X45546377Y-50825640D01*
X45668859Y-50948122D01*
X45668862Y-50948124D01*
X45809002Y-51049942D01*
X45963345Y-51128583D01*
X46128089Y-51182112D01*
X46299179Y-51209210D01*
X46299182Y-51209210D01*
X46472398Y-51209210D01*
X46472401Y-51209210D01*
X46643491Y-51182112D01*
X46808235Y-51128583D01*
X46962578Y-51049942D01*
X47102718Y-50948124D01*
X47225204Y-50825638D01*
X47327022Y-50685498D01*
X47405663Y-50531155D01*
X47459192Y-50366411D01*
X47486290Y-50195321D01*
X47486290Y-50022099D01*
X47825290Y-50022099D01*
X47825290Y-50195321D01*
X47852388Y-50366411D01*
X47905917Y-50531155D01*
X47905918Y-50531158D01*
X47905920Y-50531162D01*
X47984558Y-50685498D01*
X48086377Y-50825640D01*
X48208859Y-50948122D01*
X48208862Y-50948124D01*
X48349002Y-51049942D01*
X48503345Y-51128583D01*
X48668089Y-51182112D01*
X48839179Y-51209210D01*
X48839182Y-51209210D01*
X49012398Y-51209210D01*
X49012401Y-51209210D01*
X49183491Y-51182112D01*
X49348235Y-51128583D01*
X49502578Y-51049942D01*
X49642718Y-50948124D01*
X49765204Y-50825638D01*
X49867022Y-50685498D01*
X49945663Y-50531155D01*
X49999192Y-50366411D01*
X50026290Y-50195321D01*
X50026290Y-50022099D01*
X49999192Y-49851009D01*
X49945663Y-49686265D01*
X49880378Y-49558134D01*
X50966499Y-49558134D01*
X51006945Y-49709079D01*
X51006948Y-49709086D01*
X51085079Y-49844413D01*
X51085087Y-49844423D01*
X51195576Y-49954912D01*
X51195581Y-49954916D01*
X51195583Y-49954918D01*
X51330918Y-50033054D01*
X51481864Y-50073500D01*
X51481866Y-50073500D01*
X51638134Y-50073500D01*
X51638136Y-50073500D01*
X51789082Y-50033054D01*
X51924417Y-49954918D01*
X52021201Y-49858134D01*
X65906499Y-49858134D01*
X65946945Y-50009079D01*
X65946948Y-50009086D01*
X66025079Y-50144413D01*
X66025087Y-50144423D01*
X66135576Y-50254912D01*
X66135581Y-50254916D01*
X66135583Y-50254918D01*
X66135584Y-50254919D01*
X66135586Y-50254920D01*
X66225696Y-50306945D01*
X66270918Y-50333054D01*
X66421864Y-50373500D01*
X66421866Y-50373500D01*
X66578134Y-50373500D01*
X66578136Y-50373500D01*
X66729082Y-50333054D01*
X66864417Y-50254918D01*
X66974918Y-50144417D01*
X67053054Y-50009082D01*
X67093500Y-49858136D01*
X67093500Y-49701864D01*
X67053054Y-49550918D01*
X66991569Y-49444423D01*
X66974920Y-49415586D01*
X66974912Y-49415576D01*
X66864423Y-49305087D01*
X66864413Y-49305079D01*
X66729086Y-49226948D01*
X66729083Y-49226947D01*
X66729082Y-49226946D01*
X66729080Y-49226945D01*
X66729079Y-49226945D01*
X66645025Y-49204423D01*
X66578136Y-49186500D01*
X66421864Y-49186500D01*
X66355012Y-49204413D01*
X66270920Y-49226945D01*
X66270913Y-49226948D01*
X66135586Y-49305079D01*
X66135576Y-49305087D01*
X66025087Y-49415576D01*
X66025079Y-49415586D01*
X65946948Y-49550913D01*
X65946945Y-49550920D01*
X65945012Y-49558134D01*
X65910680Y-49686266D01*
X65906500Y-49701865D01*
X65906500Y-49858134D01*
X65906499Y-49858134D01*
X52021201Y-49858134D01*
X52034918Y-49844417D01*
X52113054Y-49709082D01*
X52153500Y-49558136D01*
X52153500Y-49401864D01*
X52113054Y-49250918D01*
X52059485Y-49158134D01*
X67606499Y-49158134D01*
X67646945Y-49309079D01*
X67646948Y-49309086D01*
X67725079Y-49444413D01*
X67725087Y-49444423D01*
X67835576Y-49554912D01*
X67835581Y-49554916D01*
X67835583Y-49554918D01*
X67835584Y-49554919D01*
X67835586Y-49554920D01*
X67930711Y-49609840D01*
X67970918Y-49633054D01*
X68121864Y-49673500D01*
X68121866Y-49673500D01*
X68278134Y-49673500D01*
X68278136Y-49673500D01*
X68429082Y-49633054D01*
X68564417Y-49554918D01*
X68674918Y-49444417D01*
X68753054Y-49309082D01*
X68793500Y-49158136D01*
X68793500Y-49001864D01*
X68771065Y-48918134D01*
X85716499Y-48918134D01*
X85756945Y-49069079D01*
X85756948Y-49069086D01*
X85835079Y-49204413D01*
X85835087Y-49204423D01*
X85945576Y-49314912D01*
X85945581Y-49314916D01*
X85945583Y-49314918D01*
X86080918Y-49393054D01*
X86231864Y-49433500D01*
X86231866Y-49433500D01*
X86388134Y-49433500D01*
X86388136Y-49433500D01*
X86539082Y-49393054D01*
X86674417Y-49314918D01*
X86784918Y-49204417D01*
X86863054Y-49069082D01*
X86903500Y-48918136D01*
X86903500Y-48761864D01*
X86871412Y-48642110D01*
X86872003Y-48617286D01*
X86868238Y-48592745D01*
X86872833Y-48582426D01*
X86873102Y-48571135D01*
X86887019Y-48550571D01*
X86897121Y-48527889D01*
X86906565Y-48521693D01*
X86912896Y-48512339D01*
X86935720Y-48502565D01*
X86956482Y-48488944D01*
X86973398Y-48486430D01*
X86978161Y-48484391D01*
X86991931Y-48483506D01*
X86992567Y-48483500D01*
X87038136Y-48483500D01*
X87039797Y-48483054D01*
X87049312Y-48482965D01*
X87076379Y-48490636D01*
X87104187Y-48494969D01*
X87110062Y-48500182D01*
X87117618Y-48502324D01*
X87136243Y-48523413D01*
X87157292Y-48542090D01*
X87159487Y-48549731D01*
X87164615Y-48555538D01*
X87168581Y-48581391D01*
X87176500Y-48608959D01*
X87176500Y-48718134D01*
X87176499Y-48718134D01*
X87216945Y-48869079D01*
X87216948Y-48869086D01*
X87295079Y-49004413D01*
X87295087Y-49004423D01*
X87405576Y-49114912D01*
X87405581Y-49114916D01*
X87405583Y-49114918D01*
X87405584Y-49114919D01*
X87405586Y-49114920D01*
X87406740Y-49115586D01*
X87540918Y-49193054D01*
X87691864Y-49233500D01*
X87691866Y-49233500D01*
X87848134Y-49233500D01*
X87848136Y-49233500D01*
X87999082Y-49193054D01*
X88134417Y-49114918D01*
X88244918Y-49004417D01*
X88323054Y-48869082D01*
X88363500Y-48718136D01*
X88363500Y-48561864D01*
X88323054Y-48410918D01*
X88251480Y-48286948D01*
X88244920Y-48275586D01*
X88244912Y-48275576D01*
X88134423Y-48165087D01*
X88134413Y-48165079D01*
X87999086Y-48086948D01*
X87999083Y-48086947D01*
X87999082Y-48086946D01*
X87999080Y-48086945D01*
X87999079Y-48086945D01*
X87978743Y-48081496D01*
X87926225Y-48067424D01*
X87865604Y-48030473D01*
X87834583Y-47966612D01*
X87843011Y-47896118D01*
X87888214Y-47841371D01*
X87926227Y-47824011D01*
X87928134Y-47823500D01*
X87928136Y-47823500D01*
X88079082Y-47783054D01*
X88214417Y-47704918D01*
X88324918Y-47594417D01*
X88403054Y-47459082D01*
X88443500Y-47308136D01*
X88443500Y-47151864D01*
X88403054Y-47000918D01*
X88324918Y-46865583D01*
X88324916Y-46865581D01*
X88324912Y-46865576D01*
X88214423Y-46755087D01*
X88214413Y-46755079D01*
X88079086Y-46676948D01*
X88079083Y-46676947D01*
X88079082Y-46676946D01*
X88079080Y-46676945D01*
X88079079Y-46676945D01*
X88038633Y-46666107D01*
X87928136Y-46636500D01*
X87771864Y-46636500D01*
X87690974Y-46658174D01*
X87620920Y-46676945D01*
X87620913Y-46676948D01*
X87485586Y-46755079D01*
X87485576Y-46755087D01*
X87375087Y-46865576D01*
X87375079Y-46865586D01*
X87296948Y-47000913D01*
X87296946Y-47000918D01*
X87258003Y-47146257D01*
X87256500Y-47151865D01*
X87256500Y-47190804D01*
X87236498Y-47258925D01*
X87182842Y-47305418D01*
X87112568Y-47315522D01*
X87097891Y-47312511D01*
X87038136Y-47296500D01*
X86881864Y-47296500D01*
X86810873Y-47315522D01*
X86730920Y-47336945D01*
X86730913Y-47336948D01*
X86595586Y-47415079D01*
X86595576Y-47415087D01*
X86485087Y-47525576D01*
X86485079Y-47525586D01*
X86406948Y-47660913D01*
X86406945Y-47660920D01*
X86387971Y-47731733D01*
X86374221Y-47783051D01*
X86366500Y-47811865D01*
X86366500Y-47968134D01*
X86366499Y-47968134D01*
X86398588Y-48087889D01*
X86396898Y-48158865D01*
X86357104Y-48217661D01*
X86291839Y-48245609D01*
X86276881Y-48246500D01*
X86231864Y-48246500D01*
X86150974Y-48268174D01*
X86080920Y-48286945D01*
X86080913Y-48286948D01*
X85945586Y-48365079D01*
X85945576Y-48365087D01*
X85835087Y-48475576D01*
X85835079Y-48475586D01*
X85756948Y-48610913D01*
X85756945Y-48610920D01*
X85731303Y-48706615D01*
X85728218Y-48718134D01*
X85716500Y-48761865D01*
X85716500Y-48918134D01*
X85716499Y-48918134D01*
X68771065Y-48918134D01*
X68753054Y-48850918D01*
X68674918Y-48715583D01*
X68674916Y-48715581D01*
X68674912Y-48715576D01*
X68564423Y-48605087D01*
X68564413Y-48605079D01*
X68429086Y-48526948D01*
X68429083Y-48526947D01*
X68429082Y-48526946D01*
X68429080Y-48526945D01*
X68429079Y-48526945D01*
X68365622Y-48509942D01*
X68278136Y-48486500D01*
X68121864Y-48486500D01*
X68061909Y-48502565D01*
X67970920Y-48526945D01*
X67970913Y-48526948D01*
X67835586Y-48605079D01*
X67835576Y-48605087D01*
X67725087Y-48715576D01*
X67725079Y-48715586D01*
X67646948Y-48850913D01*
X67646945Y-48850920D01*
X67606500Y-49001865D01*
X67606500Y-49158134D01*
X67606499Y-49158134D01*
X52059485Y-49158134D01*
X52034918Y-49115583D01*
X52034916Y-49115581D01*
X52034912Y-49115576D01*
X51924423Y-49005087D01*
X51924413Y-49005079D01*
X51789086Y-48926948D01*
X51789083Y-48926947D01*
X51789082Y-48926946D01*
X51789080Y-48926945D01*
X51789079Y-48926945D01*
X51748633Y-48916107D01*
X51638136Y-48886500D01*
X51481864Y-48886500D01*
X51400974Y-48908174D01*
X51330920Y-48926945D01*
X51330913Y-48926948D01*
X51195586Y-49005079D01*
X51195576Y-49005087D01*
X51085087Y-49115576D01*
X51085079Y-49115586D01*
X51006948Y-49250913D01*
X51006945Y-49250920D01*
X50992433Y-49305082D01*
X50968862Y-49393051D01*
X50966500Y-49401865D01*
X50966500Y-49558134D01*
X50966499Y-49558134D01*
X49880378Y-49558134D01*
X49867022Y-49531922D01*
X49765204Y-49391782D01*
X49765201Y-49391779D01*
X49765199Y-49391776D01*
X49642720Y-49269297D01*
X49502578Y-49167478D01*
X49348242Y-49088840D01*
X49348238Y-49088838D01*
X49348235Y-49088837D01*
X49183491Y-49035308D01*
X49012401Y-49008210D01*
X48839179Y-49008210D01*
X48668089Y-49035308D01*
X48668086Y-49035308D01*
X48668085Y-49035309D01*
X48589043Y-49060991D01*
X48503345Y-49088837D01*
X48503343Y-49088837D01*
X48503337Y-49088840D01*
X48349001Y-49167478D01*
X48208859Y-49269297D01*
X48086377Y-49391779D01*
X47984558Y-49531921D01*
X47905920Y-49686257D01*
X47905917Y-49686263D01*
X47905917Y-49686265D01*
X47852388Y-49851009D01*
X47825290Y-50022099D01*
X47486290Y-50022099D01*
X47459192Y-49851009D01*
X47405663Y-49686265D01*
X47327022Y-49531922D01*
X47242499Y-49415586D01*
X47225202Y-49391779D01*
X47102720Y-49269297D01*
X46962578Y-49167478D01*
X46808242Y-49088840D01*
X46808238Y-49088838D01*
X46808235Y-49088837D01*
X46643491Y-49035308D01*
X46472401Y-49008210D01*
X46299179Y-49008210D01*
X46128089Y-49035308D01*
X46128086Y-49035308D01*
X46128085Y-49035309D01*
X46049043Y-49060991D01*
X45963345Y-49088837D01*
X45963343Y-49088837D01*
X45963337Y-49088840D01*
X45809001Y-49167478D01*
X45668859Y-49269297D01*
X45546377Y-49391779D01*
X45444558Y-49531921D01*
X45365920Y-49686257D01*
X45365917Y-49686263D01*
X45365917Y-49686265D01*
X45312388Y-49851009D01*
X45285290Y-50022099D01*
X43525500Y-50022099D01*
X43525500Y-47482099D01*
X47825290Y-47482099D01*
X47825290Y-47655321D01*
X47852388Y-47826411D01*
X47905917Y-47991155D01*
X47905918Y-47991158D01*
X47905920Y-47991162D01*
X47984558Y-48145498D01*
X48086377Y-48285640D01*
X48208859Y-48408122D01*
X48212710Y-48410920D01*
X48349002Y-48509942D01*
X48503345Y-48588583D01*
X48668089Y-48642112D01*
X48839179Y-48669210D01*
X48839182Y-48669210D01*
X49012398Y-48669210D01*
X49012401Y-48669210D01*
X49183491Y-48642112D01*
X49348235Y-48588583D01*
X49502578Y-48509942D01*
X49642718Y-48408124D01*
X49765204Y-48285638D01*
X49867022Y-48145498D01*
X49945663Y-47991155D01*
X49999192Y-47826411D01*
X50026290Y-47655321D01*
X50026290Y-47482099D01*
X49999192Y-47311009D01*
X49945663Y-47146265D01*
X49867022Y-46991922D01*
X49765204Y-46851782D01*
X49765202Y-46851779D01*
X49642720Y-46729297D01*
X49502578Y-46627478D01*
X49348242Y-46548840D01*
X49348238Y-46548838D01*
X49348235Y-46548837D01*
X49183491Y-46495308D01*
X49012401Y-46468210D01*
X48839179Y-46468210D01*
X48668089Y-46495308D01*
X48668086Y-46495308D01*
X48668085Y-46495309D01*
X48589043Y-46520991D01*
X48503345Y-46548837D01*
X48503343Y-46548837D01*
X48503337Y-46548840D01*
X48349001Y-46627478D01*
X48208859Y-46729297D01*
X48086377Y-46851779D01*
X47984558Y-46991921D01*
X47905920Y-47146257D01*
X47905917Y-47146263D01*
X47905917Y-47146265D01*
X47891445Y-47190804D01*
X47853322Y-47308136D01*
X47852388Y-47311009D01*
X47825290Y-47482099D01*
X43525500Y-47482099D01*
X43525500Y-44942099D01*
X45285290Y-44942099D01*
X45285290Y-45115321D01*
X45312388Y-45286411D01*
X45365917Y-45451155D01*
X45365918Y-45451158D01*
X45365920Y-45451162D01*
X45444558Y-45605498D01*
X45546377Y-45745640D01*
X45668859Y-45868122D01*
X45668862Y-45868124D01*
X45809002Y-45969942D01*
X45963345Y-46048583D01*
X46128089Y-46102112D01*
X46299179Y-46129210D01*
X46299182Y-46129210D01*
X46472398Y-46129210D01*
X46472401Y-46129210D01*
X46643491Y-46102112D01*
X46808235Y-46048583D01*
X46962578Y-45969942D01*
X47102718Y-45868124D01*
X47225204Y-45745638D01*
X47327022Y-45605498D01*
X47405663Y-45451155D01*
X47459192Y-45286411D01*
X47486290Y-45115321D01*
X47486290Y-44942099D01*
X47825290Y-44942099D01*
X47825290Y-45115321D01*
X47852388Y-45286411D01*
X47905917Y-45451155D01*
X47905918Y-45451158D01*
X47905920Y-45451162D01*
X47984558Y-45605498D01*
X48086377Y-45745640D01*
X48208859Y-45868122D01*
X48208862Y-45868124D01*
X48349002Y-45969942D01*
X48503345Y-46048583D01*
X48668089Y-46102112D01*
X48839179Y-46129210D01*
X48839182Y-46129210D01*
X49012398Y-46129210D01*
X49012401Y-46129210D01*
X49183491Y-46102112D01*
X49348235Y-46048583D01*
X49502578Y-45969942D01*
X49642718Y-45868124D01*
X49765204Y-45745638D01*
X49867022Y-45605498D01*
X49945663Y-45451155D01*
X49999192Y-45286411D01*
X50026290Y-45115321D01*
X50026290Y-44942099D01*
X50006656Y-44818134D01*
X67096499Y-44818134D01*
X67136945Y-44969079D01*
X67136948Y-44969086D01*
X67215079Y-45104413D01*
X67215087Y-45104423D01*
X67325576Y-45214912D01*
X67325581Y-45214916D01*
X67325583Y-45214918D01*
X67460918Y-45293054D01*
X67611864Y-45333500D01*
X67611866Y-45333500D01*
X67768134Y-45333500D01*
X67768136Y-45333500D01*
X67919082Y-45293054D01*
X68054417Y-45214918D01*
X68164918Y-45104417D01*
X68243054Y-44969082D01*
X68283500Y-44818136D01*
X68283500Y-44661864D01*
X68243054Y-44510918D01*
X68164918Y-44375583D01*
X68164916Y-44375581D01*
X68164912Y-44375576D01*
X68054423Y-44265087D01*
X68054413Y-44265079D01*
X67919086Y-44186948D01*
X67919083Y-44186947D01*
X67919082Y-44186946D01*
X67919080Y-44186945D01*
X67919079Y-44186945D01*
X67878633Y-44176107D01*
X67768136Y-44146500D01*
X67611864Y-44146500D01*
X67530974Y-44168174D01*
X67460920Y-44186945D01*
X67460913Y-44186948D01*
X67325586Y-44265079D01*
X67325576Y-44265087D01*
X67215087Y-44375576D01*
X67215079Y-44375586D01*
X67136948Y-44510913D01*
X67136945Y-44510920D01*
X67096500Y-44661865D01*
X67096500Y-44818134D01*
X67096499Y-44818134D01*
X50006656Y-44818134D01*
X49999192Y-44771009D01*
X49945663Y-44606265D01*
X49867022Y-44451922D01*
X49765204Y-44311782D01*
X49765202Y-44311779D01*
X49642720Y-44189297D01*
X49502578Y-44087478D01*
X49348242Y-44008840D01*
X49348238Y-44008838D01*
X49348235Y-44008837D01*
X49183491Y-43955308D01*
X49012401Y-43928210D01*
X48839179Y-43928210D01*
X48668089Y-43955308D01*
X48668086Y-43955308D01*
X48668085Y-43955309D01*
X48589043Y-43980991D01*
X48503345Y-44008837D01*
X48503343Y-44008837D01*
X48503337Y-44008840D01*
X48349001Y-44087478D01*
X48208859Y-44189297D01*
X48086377Y-44311779D01*
X47984558Y-44451921D01*
X47905920Y-44606257D01*
X47905917Y-44606263D01*
X47905917Y-44606265D01*
X47852388Y-44771009D01*
X47825290Y-44942099D01*
X47486290Y-44942099D01*
X47459192Y-44771009D01*
X47405663Y-44606265D01*
X47327022Y-44451922D01*
X47225204Y-44311782D01*
X47225202Y-44311779D01*
X47102720Y-44189297D01*
X46962578Y-44087478D01*
X46808242Y-44008840D01*
X46808238Y-44008838D01*
X46808235Y-44008837D01*
X46643491Y-43955308D01*
X46472401Y-43928210D01*
X46299179Y-43928210D01*
X46128089Y-43955308D01*
X46128086Y-43955308D01*
X46128085Y-43955309D01*
X46049043Y-43980991D01*
X45963345Y-44008837D01*
X45963343Y-44008837D01*
X45963337Y-44008840D01*
X45809001Y-44087478D01*
X45668859Y-44189297D01*
X45546377Y-44311779D01*
X45444558Y-44451921D01*
X45365920Y-44606257D01*
X45365917Y-44606263D01*
X45365917Y-44606265D01*
X45312388Y-44771009D01*
X45285290Y-44942099D01*
X43525500Y-44942099D01*
X43525500Y-42402099D01*
X45285290Y-42402099D01*
X45285290Y-42575321D01*
X45312388Y-42746411D01*
X45365917Y-42911155D01*
X45365918Y-42911158D01*
X45365920Y-42911162D01*
X45444558Y-43065498D01*
X45546377Y-43205640D01*
X45668859Y-43328122D01*
X45724420Y-43368489D01*
X45809002Y-43429942D01*
X45963345Y-43508583D01*
X46128089Y-43562112D01*
X46299179Y-43589210D01*
X46299182Y-43589210D01*
X46472398Y-43589210D01*
X46472401Y-43589210D01*
X46643491Y-43562112D01*
X46808235Y-43508583D01*
X46962578Y-43429942D01*
X47102718Y-43328124D01*
X47225204Y-43205638D01*
X47327022Y-43065498D01*
X47405663Y-42911155D01*
X47459192Y-42746411D01*
X47486290Y-42575321D01*
X47486290Y-42402099D01*
X47825290Y-42402099D01*
X47825290Y-42575321D01*
X47852388Y-42746411D01*
X47905917Y-42911155D01*
X47905918Y-42911158D01*
X47905920Y-42911162D01*
X47984558Y-43065498D01*
X48086377Y-43205640D01*
X48208859Y-43328122D01*
X48264420Y-43368489D01*
X48349002Y-43429942D01*
X48503345Y-43508583D01*
X48668089Y-43562112D01*
X48839179Y-43589210D01*
X48839182Y-43589210D01*
X49012398Y-43589210D01*
X49012401Y-43589210D01*
X49183491Y-43562112D01*
X49348235Y-43508583D01*
X49502578Y-43429942D01*
X49642704Y-43328134D01*
X82346499Y-43328134D01*
X82386945Y-43479079D01*
X82386948Y-43479086D01*
X82465079Y-43614413D01*
X82465087Y-43614423D01*
X82575576Y-43724912D01*
X82575581Y-43724916D01*
X82575583Y-43724918D01*
X82710918Y-43803054D01*
X82861864Y-43843500D01*
X82861866Y-43843500D01*
X83018134Y-43843500D01*
X83018136Y-43843500D01*
X83169082Y-43803054D01*
X83304417Y-43724918D01*
X83414918Y-43614417D01*
X83493054Y-43479082D01*
X83533500Y-43328136D01*
X83533500Y-43308134D01*
X84286499Y-43308134D01*
X84326945Y-43459079D01*
X84326948Y-43459086D01*
X84405079Y-43594413D01*
X84405087Y-43594423D01*
X84515576Y-43704912D01*
X84515581Y-43704916D01*
X84515583Y-43704918D01*
X84650918Y-43783054D01*
X84801864Y-43823500D01*
X84801866Y-43823500D01*
X84958134Y-43823500D01*
X84958136Y-43823500D01*
X85109082Y-43783054D01*
X85244417Y-43704918D01*
X85354918Y-43594417D01*
X85433054Y-43459082D01*
X85473500Y-43308136D01*
X85473500Y-43151864D01*
X85433054Y-43000918D01*
X85354918Y-42865583D01*
X85354916Y-42865581D01*
X85354912Y-42865576D01*
X85244423Y-42755087D01*
X85244413Y-42755079D01*
X85109086Y-42676948D01*
X85109083Y-42676947D01*
X85109082Y-42676946D01*
X85109080Y-42676945D01*
X85109079Y-42676945D01*
X85068633Y-42666107D01*
X84958136Y-42636500D01*
X84801864Y-42636500D01*
X84727223Y-42656500D01*
X84650920Y-42676945D01*
X84650913Y-42676948D01*
X84515586Y-42755079D01*
X84515576Y-42755087D01*
X84405087Y-42865576D01*
X84405079Y-42865586D01*
X84326948Y-43000913D01*
X84326945Y-43000920D01*
X84286500Y-43151865D01*
X84286500Y-43308134D01*
X84286499Y-43308134D01*
X83533500Y-43308134D01*
X83533500Y-43171864D01*
X83493054Y-43020918D01*
X83414918Y-42885583D01*
X83414916Y-42885581D01*
X83414912Y-42885576D01*
X83304423Y-42775087D01*
X83304413Y-42775079D01*
X83169086Y-42696948D01*
X83169083Y-42696947D01*
X83169082Y-42696946D01*
X83169080Y-42696945D01*
X83169079Y-42696945D01*
X83128633Y-42686107D01*
X83018136Y-42656500D01*
X82861864Y-42656500D01*
X82785559Y-42676946D01*
X82710920Y-42696945D01*
X82710913Y-42696948D01*
X82575586Y-42775079D01*
X82575576Y-42775087D01*
X82465087Y-42885576D01*
X82465079Y-42885586D01*
X82386948Y-43020913D01*
X82386945Y-43020920D01*
X82346500Y-43171865D01*
X82346500Y-43328134D01*
X82346499Y-43328134D01*
X49642704Y-43328134D01*
X49642718Y-43328124D01*
X49765204Y-43205638D01*
X49867022Y-43065498D01*
X49945663Y-42911155D01*
X49999192Y-42746411D01*
X50026290Y-42575321D01*
X50026290Y-42402099D01*
X49999192Y-42231009D01*
X49945663Y-42066265D01*
X49867022Y-41911922D01*
X49765204Y-41771782D01*
X49765202Y-41771779D01*
X49642720Y-41649297D01*
X49502578Y-41547478D01*
X49348242Y-41468840D01*
X49348238Y-41468838D01*
X49348235Y-41468837D01*
X49183491Y-41415308D01*
X49012401Y-41388210D01*
X48839179Y-41388210D01*
X48668089Y-41415308D01*
X48668086Y-41415308D01*
X48668085Y-41415309D01*
X48589043Y-41440991D01*
X48503345Y-41468837D01*
X48503343Y-41468837D01*
X48503337Y-41468840D01*
X48349001Y-41547478D01*
X48208859Y-41649297D01*
X48086377Y-41771779D01*
X47984558Y-41911921D01*
X47905920Y-42066257D01*
X47905917Y-42066263D01*
X47905917Y-42066265D01*
X47852388Y-42231009D01*
X47825290Y-42402099D01*
X47486290Y-42402099D01*
X47459192Y-42231009D01*
X47405663Y-42066265D01*
X47327022Y-41911922D01*
X47225204Y-41771782D01*
X47225202Y-41771779D01*
X47102720Y-41649297D01*
X46962578Y-41547478D01*
X46808242Y-41468840D01*
X46808238Y-41468838D01*
X46808235Y-41468837D01*
X46643491Y-41415308D01*
X46472401Y-41388210D01*
X46299179Y-41388210D01*
X46128089Y-41415308D01*
X46128086Y-41415308D01*
X46128085Y-41415309D01*
X46049043Y-41440991D01*
X45963345Y-41468837D01*
X45963343Y-41468837D01*
X45963337Y-41468840D01*
X45809001Y-41547478D01*
X45668859Y-41649297D01*
X45546377Y-41771779D01*
X45444558Y-41911921D01*
X45365920Y-42066257D01*
X45365917Y-42066263D01*
X45365917Y-42066265D01*
X45312388Y-42231009D01*
X45285290Y-42402099D01*
X43525500Y-42402099D01*
X43525500Y-39862099D01*
X45285290Y-39862099D01*
X45285290Y-40035321D01*
X45312388Y-40206411D01*
X45365917Y-40371155D01*
X45365918Y-40371158D01*
X45365920Y-40371162D01*
X45444558Y-40525498D01*
X45546377Y-40665640D01*
X45668859Y-40788122D01*
X45668862Y-40788124D01*
X45809002Y-40889942D01*
X45963345Y-40968583D01*
X46128089Y-41022112D01*
X46299179Y-41049210D01*
X46299182Y-41049210D01*
X46472398Y-41049210D01*
X46472401Y-41049210D01*
X46643491Y-41022112D01*
X46808235Y-40968583D01*
X46962578Y-40889942D01*
X47102718Y-40788124D01*
X47225204Y-40665638D01*
X47327022Y-40525498D01*
X47405663Y-40371155D01*
X47459192Y-40206411D01*
X47486290Y-40035321D01*
X47486290Y-39862099D01*
X47825290Y-39862099D01*
X47825290Y-40035321D01*
X47852388Y-40206411D01*
X47905917Y-40371155D01*
X47905918Y-40371158D01*
X47905920Y-40371162D01*
X47984558Y-40525498D01*
X48086377Y-40665640D01*
X48208859Y-40788122D01*
X48208862Y-40788124D01*
X48349002Y-40889942D01*
X48503345Y-40968583D01*
X48668089Y-41022112D01*
X48839179Y-41049210D01*
X48839182Y-41049210D01*
X49012398Y-41049210D01*
X49012401Y-41049210D01*
X49183491Y-41022112D01*
X49348235Y-40968583D01*
X49502578Y-40889942D01*
X49642718Y-40788124D01*
X49765204Y-40665638D01*
X49867022Y-40525498D01*
X49945663Y-40371155D01*
X49999192Y-40206411D01*
X50026290Y-40035321D01*
X50026290Y-39862099D01*
X49999192Y-39691009D01*
X49945663Y-39526265D01*
X49867022Y-39371922D01*
X49765204Y-39231782D01*
X49765202Y-39231779D01*
X49642720Y-39109297D01*
X49502578Y-39007478D01*
X49348242Y-38928840D01*
X49348238Y-38928838D01*
X49348235Y-38928837D01*
X49183491Y-38875308D01*
X49012401Y-38848210D01*
X48839179Y-38848210D01*
X48668089Y-38875308D01*
X48668086Y-38875308D01*
X48668085Y-38875309D01*
X48589043Y-38900991D01*
X48503345Y-38928837D01*
X48503343Y-38928837D01*
X48503337Y-38928840D01*
X48349001Y-39007478D01*
X48208859Y-39109297D01*
X48086377Y-39231779D01*
X47984558Y-39371921D01*
X47905920Y-39526257D01*
X47905917Y-39526263D01*
X47905917Y-39526265D01*
X47852388Y-39691009D01*
X47825290Y-39862099D01*
X47486290Y-39862099D01*
X47459192Y-39691009D01*
X47405663Y-39526265D01*
X47327022Y-39371922D01*
X47225204Y-39231782D01*
X47225202Y-39231779D01*
X47102720Y-39109297D01*
X46962578Y-39007478D01*
X46808242Y-38928840D01*
X46808238Y-38928838D01*
X46808235Y-38928837D01*
X46643491Y-38875308D01*
X46472401Y-38848210D01*
X46299179Y-38848210D01*
X46128089Y-38875308D01*
X46128086Y-38875308D01*
X46128085Y-38875309D01*
X46049043Y-38900991D01*
X45963345Y-38928837D01*
X45963343Y-38928837D01*
X45963337Y-38928840D01*
X45809001Y-39007478D01*
X45668859Y-39109297D01*
X45546377Y-39231779D01*
X45444558Y-39371921D01*
X45365920Y-39526257D01*
X45365917Y-39526263D01*
X45365917Y-39526265D01*
X45312388Y-39691009D01*
X45285290Y-39862099D01*
X43525500Y-39862099D01*
X43525500Y-37322099D01*
X45285290Y-37322099D01*
X45285290Y-37495321D01*
X45312388Y-37666411D01*
X45365917Y-37831155D01*
X45365918Y-37831158D01*
X45365920Y-37831162D01*
X45444558Y-37985498D01*
X45546377Y-38125640D01*
X45668859Y-38248122D01*
X45668862Y-38248124D01*
X45809002Y-38349942D01*
X45963345Y-38428583D01*
X46128089Y-38482112D01*
X46299179Y-38509210D01*
X46299182Y-38509210D01*
X46472398Y-38509210D01*
X46472401Y-38509210D01*
X46643491Y-38482112D01*
X46808235Y-38428583D01*
X46962578Y-38349942D01*
X47102718Y-38248124D01*
X47225204Y-38125638D01*
X47327022Y-37985498D01*
X47405663Y-37831155D01*
X47459192Y-37666411D01*
X47486290Y-37495321D01*
X47486290Y-37322099D01*
X47825290Y-37322099D01*
X47825290Y-37495321D01*
X47852388Y-37666411D01*
X47905917Y-37831155D01*
X47905918Y-37831158D01*
X47905920Y-37831162D01*
X47984558Y-37985498D01*
X48086377Y-38125640D01*
X48208859Y-38248122D01*
X48208862Y-38248124D01*
X48349002Y-38349942D01*
X48503345Y-38428583D01*
X48668089Y-38482112D01*
X48839179Y-38509210D01*
X48839182Y-38509210D01*
X49012398Y-38509210D01*
X49012401Y-38509210D01*
X49183491Y-38482112D01*
X49348235Y-38428583D01*
X49502578Y-38349942D01*
X49642718Y-38248124D01*
X49699348Y-38191494D01*
X62949500Y-38191494D01*
X62949500Y-38528505D01*
X62987233Y-38863398D01*
X63002170Y-38928840D01*
X63062224Y-39191954D01*
X63062226Y-39191960D01*
X63062225Y-39191960D01*
X63173524Y-39510033D01*
X63173535Y-39510060D01*
X63319751Y-39813681D01*
X63319756Y-39813690D01*
X63499051Y-40099036D01*
X63709177Y-40362526D01*
X63947473Y-40600822D01*
X64210963Y-40810948D01*
X64496309Y-40990243D01*
X64496314Y-40990246D01*
X64799949Y-41136469D01*
X64799965Y-41136474D01*
X64799966Y-41136475D01*
X65118039Y-41247774D01*
X65118042Y-41247774D01*
X65118046Y-41247776D01*
X65361239Y-41303282D01*
X65446601Y-41322766D01*
X65446602Y-41322766D01*
X65446606Y-41322767D01*
X65667492Y-41347654D01*
X65781494Y-41360500D01*
X65781496Y-41360500D01*
X66118506Y-41360500D01*
X66215925Y-41349523D01*
X66453394Y-41322767D01*
X66781954Y-41247776D01*
X67100051Y-41136469D01*
X67403686Y-40990246D01*
X67689039Y-40810946D01*
X67952523Y-40600825D01*
X68190825Y-40362523D01*
X68400946Y-40099039D01*
X68580246Y-39813686D01*
X68726469Y-39510051D01*
X68837776Y-39191954D01*
X68912767Y-38863394D01*
X68950500Y-38528504D01*
X68950500Y-38191496D01*
X68912767Y-37856606D01*
X68837776Y-37528046D01*
X68726469Y-37209949D01*
X68580246Y-36906314D01*
X68533502Y-36831921D01*
X68400948Y-36620963D01*
X68190822Y-36357473D01*
X67952526Y-36119177D01*
X67689036Y-35909051D01*
X67403690Y-35729756D01*
X67403681Y-35729751D01*
X67100060Y-35583535D01*
X67100055Y-35583533D01*
X67100051Y-35583531D01*
X67100045Y-35583528D01*
X67100033Y-35583524D01*
X66781960Y-35472225D01*
X66453398Y-35397233D01*
X66118506Y-35359500D01*
X66118504Y-35359500D01*
X65781496Y-35359500D01*
X65781494Y-35359500D01*
X65446601Y-35397233D01*
X65118039Y-35472225D01*
X64799966Y-35583524D01*
X64799939Y-35583535D01*
X64496318Y-35729751D01*
X64496309Y-35729756D01*
X64210963Y-35909051D01*
X63947473Y-36119177D01*
X63709177Y-36357473D01*
X63499051Y-36620963D01*
X63319756Y-36906309D01*
X63319751Y-36906318D01*
X63173535Y-37209939D01*
X63173524Y-37209966D01*
X63062225Y-37528039D01*
X62987233Y-37856601D01*
X62949500Y-38191494D01*
X49699348Y-38191494D01*
X49765204Y-38125638D01*
X49867022Y-37985498D01*
X49945663Y-37831155D01*
X49999192Y-37666411D01*
X50026290Y-37495321D01*
X50026290Y-37322099D01*
X49999192Y-37151009D01*
X49945663Y-36986265D01*
X49867022Y-36831922D01*
X49765204Y-36691782D01*
X49765202Y-36691779D01*
X49642720Y-36569297D01*
X49502578Y-36467478D01*
X49348242Y-36388840D01*
X49348238Y-36388838D01*
X49348235Y-36388837D01*
X49183491Y-36335308D01*
X49012401Y-36308210D01*
X48839179Y-36308210D01*
X48668089Y-36335308D01*
X48668086Y-36335308D01*
X48668085Y-36335309D01*
X48599873Y-36357473D01*
X48503345Y-36388837D01*
X48503343Y-36388837D01*
X48503337Y-36388840D01*
X48349001Y-36467478D01*
X48208859Y-36569297D01*
X48086377Y-36691779D01*
X47984558Y-36831921D01*
X47905920Y-36986257D01*
X47905917Y-36986263D01*
X47905917Y-36986265D01*
X47852388Y-37151009D01*
X47825290Y-37322099D01*
X47486290Y-37322099D01*
X47459192Y-37151009D01*
X47405663Y-36986265D01*
X47327022Y-36831922D01*
X47225204Y-36691782D01*
X47225202Y-36691779D01*
X47102720Y-36569297D01*
X46962578Y-36467478D01*
X46808242Y-36388840D01*
X46808238Y-36388838D01*
X46808235Y-36388837D01*
X46643491Y-36335308D01*
X46472401Y-36308210D01*
X46299179Y-36308210D01*
X46128089Y-36335308D01*
X46128086Y-36335308D01*
X46128085Y-36335309D01*
X46059873Y-36357473D01*
X45963345Y-36388837D01*
X45963343Y-36388837D01*
X45963337Y-36388840D01*
X45809001Y-36467478D01*
X45668859Y-36569297D01*
X45546377Y-36691779D01*
X45444558Y-36831921D01*
X45365920Y-36986257D01*
X45365917Y-36986263D01*
X45365917Y-36986265D01*
X45312388Y-37151009D01*
X45285290Y-37322099D01*
X43525500Y-37322099D01*
X43525500Y-34782099D01*
X45285290Y-34782099D01*
X45285290Y-34955321D01*
X45312388Y-35126411D01*
X45365917Y-35291155D01*
X45365918Y-35291158D01*
X45365920Y-35291162D01*
X45444558Y-35445498D01*
X45546377Y-35585640D01*
X45668859Y-35708122D01*
X45668862Y-35708124D01*
X45809002Y-35809942D01*
X45963345Y-35888583D01*
X46128089Y-35942112D01*
X46299179Y-35969210D01*
X46299182Y-35969210D01*
X46472398Y-35969210D01*
X46472401Y-35969210D01*
X46643491Y-35942112D01*
X46808235Y-35888583D01*
X46962578Y-35809942D01*
X47102718Y-35708124D01*
X47225204Y-35585638D01*
X47327022Y-35445498D01*
X47405663Y-35291155D01*
X47459192Y-35126411D01*
X47486290Y-34955321D01*
X47486290Y-34782099D01*
X47825290Y-34782099D01*
X47825290Y-34955321D01*
X47852388Y-35126411D01*
X47905917Y-35291155D01*
X47905918Y-35291158D01*
X47905920Y-35291162D01*
X47984558Y-35445498D01*
X48086377Y-35585640D01*
X48208859Y-35708122D01*
X48208862Y-35708124D01*
X48349002Y-35809942D01*
X48503345Y-35888583D01*
X48668089Y-35942112D01*
X48839179Y-35969210D01*
X48839182Y-35969210D01*
X49012398Y-35969210D01*
X49012401Y-35969210D01*
X49183491Y-35942112D01*
X49348235Y-35888583D01*
X49502578Y-35809942D01*
X49642718Y-35708124D01*
X49765204Y-35585638D01*
X49867022Y-35445498D01*
X49945663Y-35291155D01*
X49999192Y-35126411D01*
X50026290Y-34955321D01*
X50026290Y-34782099D01*
X49999192Y-34611009D01*
X49945663Y-34446265D01*
X49867022Y-34291922D01*
X49765204Y-34151782D01*
X49765202Y-34151779D01*
X49642720Y-34029297D01*
X49502578Y-33927478D01*
X49348242Y-33848840D01*
X49348238Y-33848838D01*
X49348235Y-33848837D01*
X49183491Y-33795308D01*
X49012401Y-33768210D01*
X48839179Y-33768210D01*
X48668089Y-33795308D01*
X48668086Y-33795308D01*
X48668085Y-33795309D01*
X48589043Y-33820991D01*
X48503345Y-33848837D01*
X48503343Y-33848837D01*
X48503337Y-33848840D01*
X48349001Y-33927478D01*
X48208859Y-34029297D01*
X48086377Y-34151779D01*
X47984558Y-34291921D01*
X47905920Y-34446257D01*
X47905917Y-34446263D01*
X47905917Y-34446265D01*
X47852388Y-34611009D01*
X47825290Y-34782099D01*
X47486290Y-34782099D01*
X47459192Y-34611009D01*
X47405663Y-34446265D01*
X47327022Y-34291922D01*
X47225204Y-34151782D01*
X47225202Y-34151779D01*
X47102720Y-34029297D01*
X46962578Y-33927478D01*
X46808242Y-33848840D01*
X46808238Y-33848838D01*
X46808235Y-33848837D01*
X46643491Y-33795308D01*
X46472401Y-33768210D01*
X46299179Y-33768210D01*
X46128089Y-33795308D01*
X46128086Y-33795308D01*
X46128085Y-33795309D01*
X46049043Y-33820991D01*
X45963345Y-33848837D01*
X45963343Y-33848837D01*
X45963337Y-33848840D01*
X45809001Y-33927478D01*
X45668859Y-34029297D01*
X45546377Y-34151779D01*
X45444558Y-34291921D01*
X45365920Y-34446257D01*
X45365917Y-34446263D01*
X45365917Y-34446265D01*
X45312388Y-34611009D01*
X45285290Y-34782099D01*
X43525500Y-34782099D01*
X43525500Y-32242099D01*
X45285290Y-32242099D01*
X45285290Y-32415321D01*
X45312388Y-32586411D01*
X45365917Y-32751155D01*
X45365918Y-32751158D01*
X45365920Y-32751162D01*
X45444558Y-32905498D01*
X45546377Y-33045640D01*
X45668859Y-33168122D01*
X45668862Y-33168124D01*
X45809002Y-33269942D01*
X45963345Y-33348583D01*
X46128089Y-33402112D01*
X46299179Y-33429210D01*
X46299182Y-33429210D01*
X46472398Y-33429210D01*
X46472401Y-33429210D01*
X46643491Y-33402112D01*
X46808235Y-33348583D01*
X46962578Y-33269942D01*
X47102718Y-33168124D01*
X47225204Y-33045638D01*
X47327022Y-32905498D01*
X47405663Y-32751155D01*
X47459192Y-32586411D01*
X47486290Y-32415321D01*
X47486290Y-32242099D01*
X47825290Y-32242099D01*
X47825290Y-32415321D01*
X47852388Y-32586411D01*
X47905917Y-32751155D01*
X47905918Y-32751158D01*
X47905920Y-32751162D01*
X47984558Y-32905498D01*
X48086377Y-33045640D01*
X48208859Y-33168122D01*
X48208862Y-33168124D01*
X48349002Y-33269942D01*
X48503345Y-33348583D01*
X48668089Y-33402112D01*
X48839179Y-33429210D01*
X48839182Y-33429210D01*
X49012398Y-33429210D01*
X49012401Y-33429210D01*
X49183491Y-33402112D01*
X49348235Y-33348583D01*
X49502578Y-33269942D01*
X49642718Y-33168124D01*
X49765204Y-33045638D01*
X49867022Y-32905498D01*
X49945663Y-32751155D01*
X49999192Y-32586411D01*
X50026290Y-32415321D01*
X50026290Y-32242099D01*
X49999192Y-32071009D01*
X49945663Y-31906265D01*
X49867022Y-31751922D01*
X49765204Y-31611782D01*
X49765202Y-31611779D01*
X49642720Y-31489297D01*
X49502578Y-31387478D01*
X49348242Y-31308840D01*
X49348238Y-31308838D01*
X49348235Y-31308837D01*
X49183491Y-31255308D01*
X49012401Y-31228210D01*
X48839179Y-31228210D01*
X48668089Y-31255308D01*
X48668086Y-31255308D01*
X48668085Y-31255309D01*
X48589043Y-31280991D01*
X48503345Y-31308837D01*
X48503343Y-31308837D01*
X48503337Y-31308840D01*
X48349001Y-31387478D01*
X48208859Y-31489297D01*
X48086377Y-31611779D01*
X47984558Y-31751921D01*
X47905920Y-31906257D01*
X47905917Y-31906263D01*
X47905917Y-31906265D01*
X47852388Y-32071009D01*
X47825290Y-32242099D01*
X47486290Y-32242099D01*
X47459192Y-32071009D01*
X47405663Y-31906265D01*
X47327022Y-31751922D01*
X47225204Y-31611782D01*
X47225202Y-31611779D01*
X47102720Y-31489297D01*
X46962578Y-31387478D01*
X46808242Y-31308840D01*
X46808238Y-31308838D01*
X46808235Y-31308837D01*
X46643491Y-31255308D01*
X46472401Y-31228210D01*
X46299179Y-31228210D01*
X46128089Y-31255308D01*
X46128086Y-31255308D01*
X46128085Y-31255309D01*
X46049043Y-31280991D01*
X45963345Y-31308837D01*
X45963343Y-31308837D01*
X45963337Y-31308840D01*
X45809001Y-31387478D01*
X45668859Y-31489297D01*
X45546377Y-31611779D01*
X45444558Y-31751921D01*
X45365920Y-31906257D01*
X45365917Y-31906263D01*
X45365917Y-31906265D01*
X45312388Y-32071009D01*
X45285290Y-32242099D01*
X43525500Y-32242099D01*
X43525500Y-29702099D01*
X45285290Y-29702099D01*
X45285290Y-29875321D01*
X45312388Y-30046411D01*
X45365917Y-30211155D01*
X45365918Y-30211158D01*
X45365920Y-30211162D01*
X45444558Y-30365498D01*
X45546377Y-30505640D01*
X45668859Y-30628122D01*
X45668862Y-30628124D01*
X45809002Y-30729942D01*
X45963345Y-30808583D01*
X46128089Y-30862112D01*
X46299179Y-30889210D01*
X46299182Y-30889210D01*
X46472398Y-30889210D01*
X46472401Y-30889210D01*
X46643491Y-30862112D01*
X46808235Y-30808583D01*
X46962578Y-30729942D01*
X47102718Y-30628124D01*
X47225204Y-30505638D01*
X47327022Y-30365498D01*
X47405663Y-30211155D01*
X47459192Y-30046411D01*
X47486290Y-29875321D01*
X47486290Y-29702099D01*
X47825290Y-29702099D01*
X47825290Y-29875321D01*
X47852388Y-30046411D01*
X47905917Y-30211155D01*
X47905918Y-30211158D01*
X47905920Y-30211162D01*
X47984558Y-30365498D01*
X48086377Y-30505640D01*
X48208859Y-30628122D01*
X48208862Y-30628124D01*
X48349002Y-30729942D01*
X48503345Y-30808583D01*
X48668089Y-30862112D01*
X48839179Y-30889210D01*
X48839182Y-30889210D01*
X49012398Y-30889210D01*
X49012401Y-30889210D01*
X49183491Y-30862112D01*
X49348235Y-30808583D01*
X49502578Y-30729942D01*
X49642718Y-30628124D01*
X49765204Y-30505638D01*
X49867022Y-30365498D01*
X49945663Y-30211155D01*
X49999192Y-30046411D01*
X50026290Y-29875321D01*
X50026290Y-29702099D01*
X49999192Y-29531009D01*
X49945663Y-29366265D01*
X49867022Y-29211922D01*
X49765204Y-29071782D01*
X49765202Y-29071779D01*
X49642720Y-28949297D01*
X49545564Y-28878709D01*
X51449500Y-28878709D01*
X51449500Y-29121290D01*
X51481160Y-29361782D01*
X51543944Y-29596095D01*
X51543945Y-29596097D01*
X51543946Y-29596100D01*
X51636776Y-29820212D01*
X51636777Y-29820213D01*
X51636782Y-29820224D01*
X51758061Y-30030285D01*
X51758063Y-30030288D01*
X51758064Y-30030289D01*
X51905735Y-30222738D01*
X51905739Y-30222742D01*
X51905744Y-30222748D01*
X52077251Y-30394255D01*
X52077256Y-30394259D01*
X52077262Y-30394265D01*
X52269711Y-30541936D01*
X52269714Y-30541938D01*
X52479775Y-30663217D01*
X52479779Y-30663218D01*
X52479788Y-30663224D01*
X52703900Y-30756054D01*
X52938211Y-30818838D01*
X52938215Y-30818838D01*
X52938217Y-30818839D01*
X53000202Y-30826999D01*
X53178712Y-30850500D01*
X53178719Y-30850500D01*
X53421281Y-30850500D01*
X53421288Y-30850500D01*
X53638637Y-30821885D01*
X53661782Y-30818839D01*
X53661782Y-30818838D01*
X53661789Y-30818838D01*
X53896100Y-30756054D01*
X54120212Y-30663224D01*
X54330289Y-30541936D01*
X54522738Y-30394265D01*
X54694265Y-30222738D01*
X54841936Y-30030289D01*
X54963224Y-29820212D01*
X55056054Y-29596100D01*
X55118838Y-29361789D01*
X55150500Y-29121288D01*
X55150500Y-28878712D01*
X55118838Y-28638211D01*
X55056054Y-28403900D01*
X54963224Y-28179788D01*
X54963218Y-28179779D01*
X54963217Y-28179775D01*
X54841938Y-27969714D01*
X54838812Y-27965640D01*
X54694265Y-27777262D01*
X54694259Y-27777256D01*
X54694255Y-27777251D01*
X54522748Y-27605744D01*
X54522742Y-27605739D01*
X54522738Y-27605735D01*
X54330289Y-27458064D01*
X54330288Y-27458063D01*
X54330285Y-27458061D01*
X54120224Y-27336782D01*
X54120216Y-27336778D01*
X54120212Y-27336776D01*
X53896100Y-27243946D01*
X53896097Y-27243945D01*
X53896095Y-27243944D01*
X53661782Y-27181160D01*
X53421290Y-27149500D01*
X53421288Y-27149500D01*
X53178712Y-27149500D01*
X53178709Y-27149500D01*
X52938217Y-27181160D01*
X52703904Y-27243944D01*
X52703900Y-27243946D01*
X52483311Y-27335317D01*
X52479786Y-27336777D01*
X52479775Y-27336782D01*
X52269714Y-27458061D01*
X52077262Y-27605735D01*
X52077251Y-27605744D01*
X51905744Y-27777251D01*
X51905735Y-27777262D01*
X51758061Y-27969714D01*
X51636782Y-28179775D01*
X51636777Y-28179786D01*
X51636776Y-28179788D01*
X51566600Y-28349209D01*
X51543946Y-28403900D01*
X51543944Y-28403904D01*
X51481160Y-28638217D01*
X51449500Y-28878709D01*
X49545564Y-28878709D01*
X49502578Y-28847478D01*
X49348242Y-28768840D01*
X49348238Y-28768838D01*
X49348235Y-28768837D01*
X49183491Y-28715308D01*
X49012401Y-28688210D01*
X48839179Y-28688210D01*
X48668089Y-28715308D01*
X48668086Y-28715308D01*
X48668085Y-28715309D01*
X48589043Y-28740991D01*
X48503345Y-28768837D01*
X48503343Y-28768837D01*
X48503337Y-28768840D01*
X48349001Y-28847478D01*
X48208859Y-28949297D01*
X48086377Y-29071779D01*
X47984558Y-29211921D01*
X47905920Y-29366257D01*
X47905917Y-29366263D01*
X47905917Y-29366265D01*
X47852388Y-29531009D01*
X47825290Y-29702099D01*
X47486290Y-29702099D01*
X47459192Y-29531009D01*
X47405663Y-29366265D01*
X47327022Y-29211922D01*
X47225204Y-29071782D01*
X47225202Y-29071779D01*
X47102720Y-28949297D01*
X46962578Y-28847478D01*
X46808242Y-28768840D01*
X46808238Y-28768838D01*
X46808235Y-28768837D01*
X46643491Y-28715308D01*
X46472401Y-28688210D01*
X46299179Y-28688210D01*
X46128089Y-28715308D01*
X46128086Y-28715308D01*
X46128085Y-28715309D01*
X46049043Y-28740991D01*
X45963345Y-28768837D01*
X45963343Y-28768837D01*
X45963337Y-28768840D01*
X45809001Y-28847478D01*
X45668859Y-28949297D01*
X45546377Y-29071779D01*
X45444558Y-29211921D01*
X45365920Y-29366257D01*
X45365917Y-29366263D01*
X45365917Y-29366265D01*
X45312388Y-29531009D01*
X45285290Y-29702099D01*
X43525500Y-29702099D01*
X43525500Y-27162099D01*
X45285290Y-27162099D01*
X45285290Y-27335321D01*
X45312388Y-27506411D01*
X45365917Y-27671155D01*
X45365918Y-27671158D01*
X45365920Y-27671162D01*
X45444558Y-27825498D01*
X45546377Y-27965640D01*
X45668859Y-28088122D01*
X45668862Y-28088124D01*
X45809002Y-28189942D01*
X45963345Y-28268583D01*
X46128089Y-28322112D01*
X46299179Y-28349210D01*
X46299182Y-28349210D01*
X46472398Y-28349210D01*
X46472401Y-28349210D01*
X46643491Y-28322112D01*
X46808235Y-28268583D01*
X46962578Y-28189942D01*
X47102718Y-28088124D01*
X47225204Y-27965638D01*
X47327022Y-27825498D01*
X47405663Y-27671155D01*
X47459192Y-27506411D01*
X47486290Y-27335321D01*
X47486290Y-27162099D01*
X47459192Y-26991009D01*
X47405663Y-26826265D01*
X47327022Y-26671922D01*
X47225204Y-26531782D01*
X47225202Y-26531779D01*
X47102720Y-26409297D01*
X47054182Y-26374032D01*
X47825290Y-26374032D01*
X47825290Y-28123387D01*
X47839823Y-28196449D01*
X47839824Y-28196450D01*
X47895189Y-28279311D01*
X47978050Y-28334676D01*
X48051116Y-28349210D01*
X49800464Y-28349210D01*
X49873530Y-28334676D01*
X49956391Y-28279311D01*
X50011756Y-28196450D01*
X50026290Y-28123384D01*
X50026290Y-26374036D01*
X50011756Y-26300970D01*
X49956391Y-26218109D01*
X49873530Y-26162744D01*
X49873529Y-26162743D01*
X49800467Y-26148210D01*
X49800464Y-26148210D01*
X48051116Y-26148210D01*
X48051112Y-26148210D01*
X47978050Y-26162743D01*
X47895189Y-26218109D01*
X47839823Y-26300970D01*
X47825290Y-26374032D01*
X47054182Y-26374032D01*
X46962578Y-26307478D01*
X46808242Y-26228840D01*
X46808238Y-26228838D01*
X46808235Y-26228837D01*
X46643491Y-26175308D01*
X46472401Y-26148210D01*
X46299179Y-26148210D01*
X46128089Y-26175308D01*
X46128086Y-26175308D01*
X46128085Y-26175309D01*
X46049043Y-26200991D01*
X45963345Y-26228837D01*
X45963343Y-26228837D01*
X45963337Y-26228840D01*
X45809001Y-26307478D01*
X45668859Y-26409297D01*
X45546377Y-26531779D01*
X45444558Y-26671921D01*
X45365920Y-26826257D01*
X45365917Y-26826263D01*
X45365917Y-26826265D01*
X45312388Y-26991009D01*
X45285290Y-27162099D01*
X43525500Y-27162099D01*
X43525500Y-24151500D01*
X43545502Y-24083379D01*
X43599158Y-24036886D01*
X43651500Y-24025500D01*
X46510562Y-24025500D01*
X46525500Y-24010562D01*
X46525500Y-13821500D01*
X46545502Y-13753379D01*
X46599158Y-13706886D01*
X46651500Y-13695500D01*
X57088500Y-13695500D01*
X57156621Y-13715502D01*
G37*
%TD.AperFunction*%
%TD*%
M02*
