%TF.GenerationSoftware,KiCad,Pcbnew,9.0.2+dfsg-1*%
%TF.CreationDate,2025-08-01T16:41:46+03:00*%
%TF.ProjectId,legacy_av_in,6c656761-6379-45f6-9176-5f696e2e6b69,rev?*%
%TF.SameCoordinates,Original*%
%TF.FileFunction,Legend,Top*%
%TF.FilePolarity,Positive*%
%FSLAX46Y46*%
G04 Gerber Fmt 4.6, Leading zero omitted, Abs format (unit mm)*
G04 Created by KiCad (PCBNEW 9.0.2+dfsg-1) date 2025-08-01 16:41:46*
%MOMM*%
%LPD*%
G01*
G04 APERTURE LIST*
%ADD10C,0.300000*%
%ADD11C,0.150000*%
%ADD12C,0.127000*%
%ADD13C,0.114300*%
%ADD14C,0.125000*%
%ADD15C,0.120000*%
%ADD16C,0.119380*%
%ADD17C,0.200000*%
G04 APERTURE END LIST*
D10*
X118838328Y-82632856D02*
X118766900Y-82775713D01*
X118766900Y-82775713D02*
X118624042Y-82847142D01*
X118624042Y-82847142D02*
X117338328Y-82847142D01*
X118766900Y-81489999D02*
X118838328Y-81632856D01*
X118838328Y-81632856D02*
X118838328Y-81918571D01*
X118838328Y-81918571D02*
X118766900Y-82061428D01*
X118766900Y-82061428D02*
X118624042Y-82132856D01*
X118624042Y-82132856D02*
X118052614Y-82132856D01*
X118052614Y-82132856D02*
X117909757Y-82061428D01*
X117909757Y-82061428D02*
X117838328Y-81918571D01*
X117838328Y-81918571D02*
X117838328Y-81632856D01*
X117838328Y-81632856D02*
X117909757Y-81489999D01*
X117909757Y-81489999D02*
X118052614Y-81418571D01*
X118052614Y-81418571D02*
X118195471Y-81418571D01*
X118195471Y-81418571D02*
X118338328Y-82132856D01*
X117838328Y-80132857D02*
X119052614Y-80132857D01*
X119052614Y-80132857D02*
X119195471Y-80204285D01*
X119195471Y-80204285D02*
X119266900Y-80275714D01*
X119266900Y-80275714D02*
X119338328Y-80418571D01*
X119338328Y-80418571D02*
X119338328Y-80632857D01*
X119338328Y-80632857D02*
X119266900Y-80775714D01*
X118766900Y-80132857D02*
X118838328Y-80275714D01*
X118838328Y-80275714D02*
X118838328Y-80561428D01*
X118838328Y-80561428D02*
X118766900Y-80704285D01*
X118766900Y-80704285D02*
X118695471Y-80775714D01*
X118695471Y-80775714D02*
X118552614Y-80847142D01*
X118552614Y-80847142D02*
X118124042Y-80847142D01*
X118124042Y-80847142D02*
X117981185Y-80775714D01*
X117981185Y-80775714D02*
X117909757Y-80704285D01*
X117909757Y-80704285D02*
X117838328Y-80561428D01*
X117838328Y-80561428D02*
X117838328Y-80275714D01*
X117838328Y-80275714D02*
X117909757Y-80132857D01*
X118838328Y-78775714D02*
X118052614Y-78775714D01*
X118052614Y-78775714D02*
X117909757Y-78847142D01*
X117909757Y-78847142D02*
X117838328Y-78989999D01*
X117838328Y-78989999D02*
X117838328Y-79275714D01*
X117838328Y-79275714D02*
X117909757Y-79418571D01*
X118766900Y-78775714D02*
X118838328Y-78918571D01*
X118838328Y-78918571D02*
X118838328Y-79275714D01*
X118838328Y-79275714D02*
X118766900Y-79418571D01*
X118766900Y-79418571D02*
X118624042Y-79489999D01*
X118624042Y-79489999D02*
X118481185Y-79489999D01*
X118481185Y-79489999D02*
X118338328Y-79418571D01*
X118338328Y-79418571D02*
X118266900Y-79275714D01*
X118266900Y-79275714D02*
X118266900Y-78918571D01*
X118266900Y-78918571D02*
X118195471Y-78775714D01*
X118766900Y-77418571D02*
X118838328Y-77561428D01*
X118838328Y-77561428D02*
X118838328Y-77847142D01*
X118838328Y-77847142D02*
X118766900Y-77989999D01*
X118766900Y-77989999D02*
X118695471Y-78061428D01*
X118695471Y-78061428D02*
X118552614Y-78132856D01*
X118552614Y-78132856D02*
X118124042Y-78132856D01*
X118124042Y-78132856D02*
X117981185Y-78061428D01*
X117981185Y-78061428D02*
X117909757Y-77989999D01*
X117909757Y-77989999D02*
X117838328Y-77847142D01*
X117838328Y-77847142D02*
X117838328Y-77561428D01*
X117838328Y-77561428D02*
X117909757Y-77418571D01*
X117838328Y-76918571D02*
X118838328Y-76561428D01*
X117838328Y-76204285D02*
X118838328Y-76561428D01*
X118838328Y-76561428D02*
X119195471Y-76704285D01*
X119195471Y-76704285D02*
X119266900Y-76775714D01*
X119266900Y-76775714D02*
X119338328Y-76918571D01*
X118981185Y-75990000D02*
X118981185Y-74847142D01*
X118838328Y-73847143D02*
X118052614Y-73847143D01*
X118052614Y-73847143D02*
X117909757Y-73918571D01*
X117909757Y-73918571D02*
X117838328Y-74061428D01*
X117838328Y-74061428D02*
X117838328Y-74347143D01*
X117838328Y-74347143D02*
X117909757Y-74490000D01*
X118766900Y-73847143D02*
X118838328Y-73990000D01*
X118838328Y-73990000D02*
X118838328Y-74347143D01*
X118838328Y-74347143D02*
X118766900Y-74490000D01*
X118766900Y-74490000D02*
X118624042Y-74561428D01*
X118624042Y-74561428D02*
X118481185Y-74561428D01*
X118481185Y-74561428D02*
X118338328Y-74490000D01*
X118338328Y-74490000D02*
X118266900Y-74347143D01*
X118266900Y-74347143D02*
X118266900Y-73990000D01*
X118266900Y-73990000D02*
X118195471Y-73847143D01*
X117838328Y-73275714D02*
X118838328Y-72918571D01*
X118838328Y-72918571D02*
X117838328Y-72561428D01*
X118981185Y-72347143D02*
X118981185Y-71204285D01*
X118838328Y-70847143D02*
X117838328Y-70847143D01*
X117338328Y-70847143D02*
X117409757Y-70918571D01*
X117409757Y-70918571D02*
X117481185Y-70847143D01*
X117481185Y-70847143D02*
X117409757Y-70775714D01*
X117409757Y-70775714D02*
X117338328Y-70847143D01*
X117338328Y-70847143D02*
X117481185Y-70847143D01*
X117838328Y-70132857D02*
X118838328Y-70132857D01*
X117981185Y-70132857D02*
X117909757Y-70061428D01*
X117909757Y-70061428D02*
X117838328Y-69918571D01*
X117838328Y-69918571D02*
X117838328Y-69704285D01*
X117838328Y-69704285D02*
X117909757Y-69561428D01*
X117909757Y-69561428D02*
X118052614Y-69490000D01*
X118052614Y-69490000D02*
X118838328Y-69490000D01*
X117838328Y-67775714D02*
X118838328Y-67418571D01*
X118838328Y-67418571D02*
X117838328Y-67061428D01*
X118838328Y-65704285D02*
X118838328Y-66561428D01*
X118838328Y-66132857D02*
X117338328Y-66132857D01*
X117338328Y-66132857D02*
X117552614Y-66275714D01*
X117552614Y-66275714D02*
X117695471Y-66418571D01*
X117695471Y-66418571D02*
X117766900Y-66561428D01*
X118695471Y-65061429D02*
X118766900Y-64990000D01*
X118766900Y-64990000D02*
X118838328Y-65061429D01*
X118838328Y-65061429D02*
X118766900Y-65132857D01*
X118766900Y-65132857D02*
X118695471Y-65061429D01*
X118695471Y-65061429D02*
X118838328Y-65061429D01*
X117838328Y-63704286D02*
X118838328Y-63704286D01*
X117266900Y-64061428D02*
X118338328Y-64418571D01*
X118338328Y-64418571D02*
X118338328Y-63490000D01*
D11*
X49126666Y-24214819D02*
X49126666Y-24929104D01*
X49126666Y-24929104D02*
X49079047Y-25071961D01*
X49079047Y-25071961D02*
X48983809Y-25167200D01*
X48983809Y-25167200D02*
X48840952Y-25214819D01*
X48840952Y-25214819D02*
X48745714Y-25214819D01*
X50126666Y-25214819D02*
X49555238Y-25214819D01*
X49840952Y-25214819D02*
X49840952Y-24214819D01*
X49840952Y-24214819D02*
X49745714Y-24357676D01*
X49745714Y-24357676D02*
X49650476Y-24452914D01*
X49650476Y-24452914D02*
X49555238Y-24500533D01*
X55532680Y-19444796D02*
X55580299Y-19301939D01*
X55580299Y-19301939D02*
X55580299Y-19063844D01*
X55580299Y-19063844D02*
X55532680Y-18968606D01*
X55532680Y-18968606D02*
X55485060Y-18920987D01*
X55485060Y-18920987D02*
X55389822Y-18873368D01*
X55389822Y-18873368D02*
X55294584Y-18873368D01*
X55294584Y-18873368D02*
X55199346Y-18920987D01*
X55199346Y-18920987D02*
X55151727Y-18968606D01*
X55151727Y-18968606D02*
X55104108Y-19063844D01*
X55104108Y-19063844D02*
X55056489Y-19254320D01*
X55056489Y-19254320D02*
X55008870Y-19349558D01*
X55008870Y-19349558D02*
X54961251Y-19397177D01*
X54961251Y-19397177D02*
X54866013Y-19444796D01*
X54866013Y-19444796D02*
X54770775Y-19444796D01*
X54770775Y-19444796D02*
X54675537Y-19397177D01*
X54675537Y-19397177D02*
X54627918Y-19349558D01*
X54627918Y-19349558D02*
X54580299Y-19254320D01*
X54580299Y-19254320D02*
X54580299Y-19016225D01*
X54580299Y-19016225D02*
X54627918Y-18873368D01*
X54580299Y-18587653D02*
X54580299Y-18016225D01*
X55580299Y-18301939D02*
X54580299Y-18301939D01*
X55580299Y-17159082D02*
X55580299Y-17730510D01*
X55580299Y-17444796D02*
X54580299Y-17444796D01*
X54580299Y-17444796D02*
X54723156Y-17540034D01*
X54723156Y-17540034D02*
X54818394Y-17635272D01*
X54818394Y-17635272D02*
X54866013Y-17730510D01*
X55532680Y-98864796D02*
X55580299Y-98721939D01*
X55580299Y-98721939D02*
X55580299Y-98483844D01*
X55580299Y-98483844D02*
X55532680Y-98388606D01*
X55532680Y-98388606D02*
X55485060Y-98340987D01*
X55485060Y-98340987D02*
X55389822Y-98293368D01*
X55389822Y-98293368D02*
X55294584Y-98293368D01*
X55294584Y-98293368D02*
X55199346Y-98340987D01*
X55199346Y-98340987D02*
X55151727Y-98388606D01*
X55151727Y-98388606D02*
X55104108Y-98483844D01*
X55104108Y-98483844D02*
X55056489Y-98674320D01*
X55056489Y-98674320D02*
X55008870Y-98769558D01*
X55008870Y-98769558D02*
X54961251Y-98817177D01*
X54961251Y-98817177D02*
X54866013Y-98864796D01*
X54866013Y-98864796D02*
X54770775Y-98864796D01*
X54770775Y-98864796D02*
X54675537Y-98817177D01*
X54675537Y-98817177D02*
X54627918Y-98769558D01*
X54627918Y-98769558D02*
X54580299Y-98674320D01*
X54580299Y-98674320D02*
X54580299Y-98436225D01*
X54580299Y-98436225D02*
X54627918Y-98293368D01*
X54580299Y-98007653D02*
X54580299Y-97436225D01*
X55580299Y-97721939D02*
X54580299Y-97721939D01*
X54675537Y-97150510D02*
X54627918Y-97102891D01*
X54627918Y-97102891D02*
X54580299Y-97007653D01*
X54580299Y-97007653D02*
X54580299Y-96769558D01*
X54580299Y-96769558D02*
X54627918Y-96674320D01*
X54627918Y-96674320D02*
X54675537Y-96626701D01*
X54675537Y-96626701D02*
X54770775Y-96579082D01*
X54770775Y-96579082D02*
X54866013Y-96579082D01*
X54866013Y-96579082D02*
X55008870Y-96626701D01*
X55008870Y-96626701D02*
X55580299Y-97198129D01*
X55580299Y-97198129D02*
X55580299Y-96579082D01*
D12*
X70015333Y-61733658D02*
X69845999Y-61455467D01*
X69725047Y-61733658D02*
X69725047Y-61149458D01*
X69725047Y-61149458D02*
X69918571Y-61149458D01*
X69918571Y-61149458D02*
X69966952Y-61177277D01*
X69966952Y-61177277D02*
X69991142Y-61205096D01*
X69991142Y-61205096D02*
X70015333Y-61260734D01*
X70015333Y-61260734D02*
X70015333Y-61344191D01*
X70015333Y-61344191D02*
X69991142Y-61399829D01*
X69991142Y-61399829D02*
X69966952Y-61427648D01*
X69966952Y-61427648D02*
X69918571Y-61455467D01*
X69918571Y-61455467D02*
X69725047Y-61455467D01*
X70184666Y-61149458D02*
X70523333Y-61149458D01*
X70523333Y-61149458D02*
X70305618Y-61733658D01*
D13*
X69991142Y-62969066D02*
X69773428Y-62969066D01*
X69773428Y-62969066D02*
X69751656Y-63210971D01*
X69751656Y-63210971D02*
X69773428Y-63186780D01*
X69773428Y-63186780D02*
X69816971Y-63162590D01*
X69816971Y-63162590D02*
X69925828Y-63162590D01*
X69925828Y-63162590D02*
X69969371Y-63186780D01*
X69969371Y-63186780D02*
X69991142Y-63210971D01*
X69991142Y-63210971D02*
X70012913Y-63259352D01*
X70012913Y-63259352D02*
X70012913Y-63380304D01*
X70012913Y-63380304D02*
X69991142Y-63428685D01*
X69991142Y-63428685D02*
X69969371Y-63452876D01*
X69969371Y-63452876D02*
X69925828Y-63477066D01*
X69925828Y-63477066D02*
X69816971Y-63477066D01*
X69816971Y-63477066D02*
X69773428Y-63452876D01*
X69773428Y-63452876D02*
X69751656Y-63428685D01*
X70448342Y-63477066D02*
X70187085Y-63477066D01*
X70317714Y-63477066D02*
X70317714Y-62969066D01*
X70317714Y-62969066D02*
X70274171Y-63041637D01*
X70274171Y-63041637D02*
X70230628Y-63090018D01*
X70230628Y-63090018D02*
X70187085Y-63114209D01*
D11*
X103204819Y-62361904D02*
X104014342Y-62361904D01*
X104014342Y-62361904D02*
X104109580Y-62314285D01*
X104109580Y-62314285D02*
X104157200Y-62266666D01*
X104157200Y-62266666D02*
X104204819Y-62171428D01*
X104204819Y-62171428D02*
X104204819Y-61980952D01*
X104204819Y-61980952D02*
X104157200Y-61885714D01*
X104157200Y-61885714D02*
X104109580Y-61838095D01*
X104109580Y-61838095D02*
X104014342Y-61790476D01*
X104014342Y-61790476D02*
X103204819Y-61790476D01*
X103300057Y-61361904D02*
X103252438Y-61314285D01*
X103252438Y-61314285D02*
X103204819Y-61219047D01*
X103204819Y-61219047D02*
X103204819Y-60980952D01*
X103204819Y-60980952D02*
X103252438Y-60885714D01*
X103252438Y-60885714D02*
X103300057Y-60838095D01*
X103300057Y-60838095D02*
X103395295Y-60790476D01*
X103395295Y-60790476D02*
X103490533Y-60790476D01*
X103490533Y-60790476D02*
X103633390Y-60838095D01*
X103633390Y-60838095D02*
X104204819Y-61409523D01*
X104204819Y-61409523D02*
X104204819Y-60790476D01*
D12*
X51747648Y-80463333D02*
X51747648Y-80632666D01*
X52053658Y-80632666D02*
X51469458Y-80632666D01*
X51469458Y-80632666D02*
X51469458Y-80390761D01*
X51747648Y-80027904D02*
X51775467Y-79955332D01*
X51775467Y-79955332D02*
X51803286Y-79931142D01*
X51803286Y-79931142D02*
X51858924Y-79906951D01*
X51858924Y-79906951D02*
X51942381Y-79906951D01*
X51942381Y-79906951D02*
X51998019Y-79931142D01*
X51998019Y-79931142D02*
X52025839Y-79955332D01*
X52025839Y-79955332D02*
X52053658Y-80003713D01*
X52053658Y-80003713D02*
X52053658Y-80197237D01*
X52053658Y-80197237D02*
X51469458Y-80197237D01*
X51469458Y-80197237D02*
X51469458Y-80027904D01*
X51469458Y-80027904D02*
X51497277Y-79979523D01*
X51497277Y-79979523D02*
X51525096Y-79955332D01*
X51525096Y-79955332D02*
X51580734Y-79931142D01*
X51580734Y-79931142D02*
X51636372Y-79931142D01*
X51636372Y-79931142D02*
X51692010Y-79955332D01*
X51692010Y-79955332D02*
X51719829Y-79979523D01*
X51719829Y-79979523D02*
X51747648Y-80027904D01*
X51747648Y-80027904D02*
X51747648Y-80197237D01*
X52053658Y-79423142D02*
X52053658Y-79713428D01*
X52053658Y-79568285D02*
X51469458Y-79568285D01*
X51469458Y-79568285D02*
X51552915Y-79616666D01*
X51552915Y-79616666D02*
X51608553Y-79665047D01*
X51608553Y-79665047D02*
X51636372Y-79713428D01*
X58223428Y-61843658D02*
X58054094Y-61565467D01*
X57933142Y-61843658D02*
X57933142Y-61259458D01*
X57933142Y-61259458D02*
X58126666Y-61259458D01*
X58126666Y-61259458D02*
X58175047Y-61287277D01*
X58175047Y-61287277D02*
X58199237Y-61315096D01*
X58199237Y-61315096D02*
X58223428Y-61370734D01*
X58223428Y-61370734D02*
X58223428Y-61454191D01*
X58223428Y-61454191D02*
X58199237Y-61509829D01*
X58199237Y-61509829D02*
X58175047Y-61537648D01*
X58175047Y-61537648D02*
X58126666Y-61565467D01*
X58126666Y-61565467D02*
X57933142Y-61565467D01*
X58707237Y-61843658D02*
X58416951Y-61843658D01*
X58562094Y-61843658D02*
X58562094Y-61259458D01*
X58562094Y-61259458D02*
X58513713Y-61342915D01*
X58513713Y-61342915D02*
X58465332Y-61398553D01*
X58465332Y-61398553D02*
X58416951Y-61426372D01*
X59191047Y-61843658D02*
X58900761Y-61843658D01*
X59045904Y-61843658D02*
X59045904Y-61259458D01*
X59045904Y-61259458D02*
X58997523Y-61342915D01*
X58997523Y-61342915D02*
X58949142Y-61398553D01*
X58949142Y-61398553D02*
X58900761Y-61426372D01*
D13*
X58201657Y-59692399D02*
X58201657Y-60031066D01*
X58092799Y-59498876D02*
X57983942Y-59861733D01*
X57983942Y-59861733D02*
X58266971Y-59861733D01*
X58397600Y-59523066D02*
X58702400Y-59523066D01*
X58702400Y-59523066D02*
X58506457Y-60031066D01*
X58963657Y-59523066D02*
X59007200Y-59523066D01*
X59007200Y-59523066D02*
X59050743Y-59547256D01*
X59050743Y-59547256D02*
X59072515Y-59571447D01*
X59072515Y-59571447D02*
X59094286Y-59619828D01*
X59094286Y-59619828D02*
X59116057Y-59716590D01*
X59116057Y-59716590D02*
X59116057Y-59837542D01*
X59116057Y-59837542D02*
X59094286Y-59934304D01*
X59094286Y-59934304D02*
X59072515Y-59982685D01*
X59072515Y-59982685D02*
X59050743Y-60006876D01*
X59050743Y-60006876D02*
X59007200Y-60031066D01*
X59007200Y-60031066D02*
X58963657Y-60031066D01*
X58963657Y-60031066D02*
X58920115Y-60006876D01*
X58920115Y-60006876D02*
X58898343Y-59982685D01*
X58898343Y-59982685D02*
X58876572Y-59934304D01*
X58876572Y-59934304D02*
X58854800Y-59837542D01*
X58854800Y-59837542D02*
X58854800Y-59716590D01*
X58854800Y-59716590D02*
X58876572Y-59619828D01*
X58876572Y-59619828D02*
X58898343Y-59571447D01*
X58898343Y-59571447D02*
X58920115Y-59547256D01*
X58920115Y-59547256D02*
X58963657Y-59523066D01*
D12*
X51747648Y-82123333D02*
X51747648Y-82292666D01*
X52053658Y-82292666D02*
X51469458Y-82292666D01*
X51469458Y-82292666D02*
X51469458Y-82050761D01*
X51747648Y-81687904D02*
X51775467Y-81615332D01*
X51775467Y-81615332D02*
X51803286Y-81591142D01*
X51803286Y-81591142D02*
X51858924Y-81566951D01*
X51858924Y-81566951D02*
X51942381Y-81566951D01*
X51942381Y-81566951D02*
X51998019Y-81591142D01*
X51998019Y-81591142D02*
X52025839Y-81615332D01*
X52025839Y-81615332D02*
X52053658Y-81663713D01*
X52053658Y-81663713D02*
X52053658Y-81857237D01*
X52053658Y-81857237D02*
X51469458Y-81857237D01*
X51469458Y-81857237D02*
X51469458Y-81687904D01*
X51469458Y-81687904D02*
X51497277Y-81639523D01*
X51497277Y-81639523D02*
X51525096Y-81615332D01*
X51525096Y-81615332D02*
X51580734Y-81591142D01*
X51580734Y-81591142D02*
X51636372Y-81591142D01*
X51636372Y-81591142D02*
X51692010Y-81615332D01*
X51692010Y-81615332D02*
X51719829Y-81639523D01*
X51719829Y-81639523D02*
X51747648Y-81687904D01*
X51747648Y-81687904D02*
X51747648Y-81857237D01*
X51525096Y-81373428D02*
X51497277Y-81349237D01*
X51497277Y-81349237D02*
X51469458Y-81300856D01*
X51469458Y-81300856D02*
X51469458Y-81179904D01*
X51469458Y-81179904D02*
X51497277Y-81131523D01*
X51497277Y-81131523D02*
X51525096Y-81107332D01*
X51525096Y-81107332D02*
X51580734Y-81083142D01*
X51580734Y-81083142D02*
X51636372Y-81083142D01*
X51636372Y-81083142D02*
X51719829Y-81107332D01*
X51719829Y-81107332D02*
X52053658Y-81397618D01*
X52053658Y-81397618D02*
X52053658Y-81083142D01*
D11*
X86913095Y-55839819D02*
X86913095Y-56649342D01*
X86913095Y-56649342D02*
X86960714Y-56744580D01*
X86960714Y-56744580D02*
X87008333Y-56792200D01*
X87008333Y-56792200D02*
X87103571Y-56839819D01*
X87103571Y-56839819D02*
X87294047Y-56839819D01*
X87294047Y-56839819D02*
X87389285Y-56792200D01*
X87389285Y-56792200D02*
X87436904Y-56744580D01*
X87436904Y-56744580D02*
X87484523Y-56649342D01*
X87484523Y-56649342D02*
X87484523Y-55839819D01*
X88389285Y-55839819D02*
X88198809Y-55839819D01*
X88198809Y-55839819D02*
X88103571Y-55887438D01*
X88103571Y-55887438D02*
X88055952Y-55935057D01*
X88055952Y-55935057D02*
X87960714Y-56077914D01*
X87960714Y-56077914D02*
X87913095Y-56268390D01*
X87913095Y-56268390D02*
X87913095Y-56649342D01*
X87913095Y-56649342D02*
X87960714Y-56744580D01*
X87960714Y-56744580D02*
X88008333Y-56792200D01*
X88008333Y-56792200D02*
X88103571Y-56839819D01*
X88103571Y-56839819D02*
X88294047Y-56839819D01*
X88294047Y-56839819D02*
X88389285Y-56792200D01*
X88389285Y-56792200D02*
X88436904Y-56744580D01*
X88436904Y-56744580D02*
X88484523Y-56649342D01*
X88484523Y-56649342D02*
X88484523Y-56411247D01*
X88484523Y-56411247D02*
X88436904Y-56316009D01*
X88436904Y-56316009D02*
X88389285Y-56268390D01*
X88389285Y-56268390D02*
X88294047Y-56220771D01*
X88294047Y-56220771D02*
X88103571Y-56220771D01*
X88103571Y-56220771D02*
X88008333Y-56268390D01*
X88008333Y-56268390D02*
X87960714Y-56316009D01*
X87960714Y-56316009D02*
X87913095Y-56411247D01*
D12*
X62463428Y-50010025D02*
X62439237Y-50034216D01*
X62439237Y-50034216D02*
X62366666Y-50058406D01*
X62366666Y-50058406D02*
X62318285Y-50058406D01*
X62318285Y-50058406D02*
X62245713Y-50034216D01*
X62245713Y-50034216D02*
X62197332Y-49985835D01*
X62197332Y-49985835D02*
X62173142Y-49937454D01*
X62173142Y-49937454D02*
X62148951Y-49840692D01*
X62148951Y-49840692D02*
X62148951Y-49768120D01*
X62148951Y-49768120D02*
X62173142Y-49671358D01*
X62173142Y-49671358D02*
X62197332Y-49622977D01*
X62197332Y-49622977D02*
X62245713Y-49574596D01*
X62245713Y-49574596D02*
X62318285Y-49550406D01*
X62318285Y-49550406D02*
X62366666Y-49550406D01*
X62366666Y-49550406D02*
X62439237Y-49574596D01*
X62439237Y-49574596D02*
X62463428Y-49598787D01*
X62947237Y-50058406D02*
X62656951Y-50058406D01*
X62802094Y-50058406D02*
X62802094Y-49550406D01*
X62802094Y-49550406D02*
X62753713Y-49622977D01*
X62753713Y-49622977D02*
X62705332Y-49671358D01*
X62705332Y-49671358D02*
X62656951Y-49695549D01*
X63406857Y-49550406D02*
X63164952Y-49550406D01*
X63164952Y-49550406D02*
X63140761Y-49792311D01*
X63140761Y-49792311D02*
X63164952Y-49768120D01*
X63164952Y-49768120D02*
X63213333Y-49743930D01*
X63213333Y-49743930D02*
X63334285Y-49743930D01*
X63334285Y-49743930D02*
X63382666Y-49768120D01*
X63382666Y-49768120D02*
X63406857Y-49792311D01*
X63406857Y-49792311D02*
X63431047Y-49840692D01*
X63431047Y-49840692D02*
X63431047Y-49961644D01*
X63431047Y-49961644D02*
X63406857Y-50010025D01*
X63406857Y-50010025D02*
X63382666Y-50034216D01*
X63382666Y-50034216D02*
X63334285Y-50058406D01*
X63334285Y-50058406D02*
X63213333Y-50058406D01*
X63213333Y-50058406D02*
X63164952Y-50034216D01*
X63164952Y-50034216D02*
X63140761Y-50010025D01*
D14*
X110267190Y-58873928D02*
X110291000Y-58897737D01*
X110291000Y-58897737D02*
X110314809Y-58969166D01*
X110314809Y-58969166D02*
X110314809Y-59016785D01*
X110314809Y-59016785D02*
X110291000Y-59088213D01*
X110291000Y-59088213D02*
X110243380Y-59135832D01*
X110243380Y-59135832D02*
X110195761Y-59159642D01*
X110195761Y-59159642D02*
X110100523Y-59183451D01*
X110100523Y-59183451D02*
X110029095Y-59183451D01*
X110029095Y-59183451D02*
X109933857Y-59159642D01*
X109933857Y-59159642D02*
X109886238Y-59135832D01*
X109886238Y-59135832D02*
X109838619Y-59088213D01*
X109838619Y-59088213D02*
X109814809Y-59016785D01*
X109814809Y-59016785D02*
X109814809Y-58969166D01*
X109814809Y-58969166D02*
X109838619Y-58897737D01*
X109838619Y-58897737D02*
X109862428Y-58873928D01*
X109814809Y-58707261D02*
X109814809Y-58397737D01*
X109814809Y-58397737D02*
X110005285Y-58564404D01*
X110005285Y-58564404D02*
X110005285Y-58492975D01*
X110005285Y-58492975D02*
X110029095Y-58445356D01*
X110029095Y-58445356D02*
X110052904Y-58421547D01*
X110052904Y-58421547D02*
X110100523Y-58397737D01*
X110100523Y-58397737D02*
X110219571Y-58397737D01*
X110219571Y-58397737D02*
X110267190Y-58421547D01*
X110267190Y-58421547D02*
X110291000Y-58445356D01*
X110291000Y-58445356D02*
X110314809Y-58492975D01*
X110314809Y-58492975D02*
X110314809Y-58635832D01*
X110314809Y-58635832D02*
X110291000Y-58683451D01*
X110291000Y-58683451D02*
X110267190Y-58707261D01*
X109981476Y-57969166D02*
X110314809Y-57969166D01*
X109791000Y-58088214D02*
X110148142Y-58207261D01*
X110148142Y-58207261D02*
X110148142Y-57897738D01*
D11*
X67201905Y-72224819D02*
X67201905Y-71224819D01*
X67201905Y-71224819D02*
X67440000Y-71224819D01*
X67440000Y-71224819D02*
X67582857Y-71272438D01*
X67582857Y-71272438D02*
X67678095Y-71367676D01*
X67678095Y-71367676D02*
X67725714Y-71462914D01*
X67725714Y-71462914D02*
X67773333Y-71653390D01*
X67773333Y-71653390D02*
X67773333Y-71796247D01*
X67773333Y-71796247D02*
X67725714Y-71986723D01*
X67725714Y-71986723D02*
X67678095Y-72081961D01*
X67678095Y-72081961D02*
X67582857Y-72177200D01*
X67582857Y-72177200D02*
X67440000Y-72224819D01*
X67440000Y-72224819D02*
X67201905Y-72224819D01*
X68630476Y-71558152D02*
X68630476Y-72224819D01*
X68392381Y-71177200D02*
X68154286Y-71891485D01*
X68154286Y-71891485D02*
X68773333Y-71891485D01*
X78804819Y-40781666D02*
X78804819Y-41257856D01*
X78804819Y-41257856D02*
X77804819Y-41257856D01*
X78138152Y-40019761D02*
X78804819Y-40019761D01*
X77757200Y-40257856D02*
X78471485Y-40495951D01*
X78471485Y-40495951D02*
X78471485Y-39876904D01*
D12*
X77545333Y-67013658D02*
X77375999Y-66735467D01*
X77255047Y-67013658D02*
X77255047Y-66429458D01*
X77255047Y-66429458D02*
X77448571Y-66429458D01*
X77448571Y-66429458D02*
X77496952Y-66457277D01*
X77496952Y-66457277D02*
X77521142Y-66485096D01*
X77521142Y-66485096D02*
X77545333Y-66540734D01*
X77545333Y-66540734D02*
X77545333Y-66624191D01*
X77545333Y-66624191D02*
X77521142Y-66679829D01*
X77521142Y-66679829D02*
X77496952Y-66707648D01*
X77496952Y-66707648D02*
X77448571Y-66735467D01*
X77448571Y-66735467D02*
X77255047Y-66735467D01*
X77980761Y-66429458D02*
X77883999Y-66429458D01*
X77883999Y-66429458D02*
X77835618Y-66457277D01*
X77835618Y-66457277D02*
X77811428Y-66485096D01*
X77811428Y-66485096D02*
X77763047Y-66568553D01*
X77763047Y-66568553D02*
X77738856Y-66679829D01*
X77738856Y-66679829D02*
X77738856Y-66902381D01*
X77738856Y-66902381D02*
X77763047Y-66958019D01*
X77763047Y-66958019D02*
X77787237Y-66985839D01*
X77787237Y-66985839D02*
X77835618Y-67013658D01*
X77835618Y-67013658D02*
X77932380Y-67013658D01*
X77932380Y-67013658D02*
X77980761Y-66985839D01*
X77980761Y-66985839D02*
X78004952Y-66958019D01*
X78004952Y-66958019D02*
X78029142Y-66902381D01*
X78029142Y-66902381D02*
X78029142Y-66763286D01*
X78029142Y-66763286D02*
X78004952Y-66707648D01*
X78004952Y-66707648D02*
X77980761Y-66679829D01*
X77980761Y-66679829D02*
X77932380Y-66652010D01*
X77932380Y-66652010D02*
X77835618Y-66652010D01*
X77835618Y-66652010D02*
X77787237Y-66679829D01*
X77787237Y-66679829D02*
X77763047Y-66707648D01*
X77763047Y-66707648D02*
X77738856Y-66763286D01*
D13*
X77281656Y-64741447D02*
X77303428Y-64717256D01*
X77303428Y-64717256D02*
X77346971Y-64693066D01*
X77346971Y-64693066D02*
X77455828Y-64693066D01*
X77455828Y-64693066D02*
X77499371Y-64717256D01*
X77499371Y-64717256D02*
X77521142Y-64741447D01*
X77521142Y-64741447D02*
X77542913Y-64789828D01*
X77542913Y-64789828D02*
X77542913Y-64838209D01*
X77542913Y-64838209D02*
X77521142Y-64910780D01*
X77521142Y-64910780D02*
X77259885Y-65201066D01*
X77259885Y-65201066D02*
X77542913Y-65201066D01*
X77934800Y-64862399D02*
X77934800Y-65201066D01*
X77825942Y-64668876D02*
X77717085Y-65031733D01*
X77717085Y-65031733D02*
X78000114Y-65031733D01*
D12*
X100958406Y-68688666D02*
X100716501Y-68858000D01*
X100958406Y-68978952D02*
X100450406Y-68978952D01*
X100450406Y-68978952D02*
X100450406Y-68785428D01*
X100450406Y-68785428D02*
X100474596Y-68737047D01*
X100474596Y-68737047D02*
X100498787Y-68712857D01*
X100498787Y-68712857D02*
X100547168Y-68688666D01*
X100547168Y-68688666D02*
X100619739Y-68688666D01*
X100619739Y-68688666D02*
X100668120Y-68712857D01*
X100668120Y-68712857D02*
X100692311Y-68737047D01*
X100692311Y-68737047D02*
X100716501Y-68785428D01*
X100716501Y-68785428D02*
X100716501Y-68978952D01*
X100958406Y-68446762D02*
X100958406Y-68350000D01*
X100958406Y-68350000D02*
X100934216Y-68301619D01*
X100934216Y-68301619D02*
X100910025Y-68277428D01*
X100910025Y-68277428D02*
X100837454Y-68229047D01*
X100837454Y-68229047D02*
X100740692Y-68204857D01*
X100740692Y-68204857D02*
X100547168Y-68204857D01*
X100547168Y-68204857D02*
X100498787Y-68229047D01*
X100498787Y-68229047D02*
X100474596Y-68253238D01*
X100474596Y-68253238D02*
X100450406Y-68301619D01*
X100450406Y-68301619D02*
X100450406Y-68398381D01*
X100450406Y-68398381D02*
X100474596Y-68446762D01*
X100474596Y-68446762D02*
X100498787Y-68470952D01*
X100498787Y-68470952D02*
X100547168Y-68495143D01*
X100547168Y-68495143D02*
X100668120Y-68495143D01*
X100668120Y-68495143D02*
X100716501Y-68470952D01*
X100716501Y-68470952D02*
X100740692Y-68446762D01*
X100740692Y-68446762D02*
X100764882Y-68398381D01*
X100764882Y-68398381D02*
X100764882Y-68301619D01*
X100764882Y-68301619D02*
X100740692Y-68253238D01*
X100740692Y-68253238D02*
X100716501Y-68229047D01*
X100716501Y-68229047D02*
X100668120Y-68204857D01*
D14*
X107208571Y-59127190D02*
X107184762Y-59151000D01*
X107184762Y-59151000D02*
X107113333Y-59174809D01*
X107113333Y-59174809D02*
X107065714Y-59174809D01*
X107065714Y-59174809D02*
X106994286Y-59151000D01*
X106994286Y-59151000D02*
X106946667Y-59103380D01*
X106946667Y-59103380D02*
X106922857Y-59055761D01*
X106922857Y-59055761D02*
X106899048Y-58960523D01*
X106899048Y-58960523D02*
X106899048Y-58889095D01*
X106899048Y-58889095D02*
X106922857Y-58793857D01*
X106922857Y-58793857D02*
X106946667Y-58746238D01*
X106946667Y-58746238D02*
X106994286Y-58698619D01*
X106994286Y-58698619D02*
X107065714Y-58674809D01*
X107065714Y-58674809D02*
X107113333Y-58674809D01*
X107113333Y-58674809D02*
X107184762Y-58698619D01*
X107184762Y-58698619D02*
X107208571Y-58722428D01*
X107637143Y-58841476D02*
X107637143Y-59174809D01*
X107518095Y-58651000D02*
X107399048Y-59008142D01*
X107399048Y-59008142D02*
X107708571Y-59008142D01*
X108160952Y-59174809D02*
X107875238Y-59174809D01*
X108018095Y-59174809D02*
X108018095Y-58674809D01*
X108018095Y-58674809D02*
X107970476Y-58746238D01*
X107970476Y-58746238D02*
X107922857Y-58793857D01*
X107922857Y-58793857D02*
X107875238Y-58817666D01*
D12*
X107017658Y-72054666D02*
X107017658Y-72296571D01*
X107017658Y-72296571D02*
X106433458Y-72296571D01*
X106433458Y-71643428D02*
X106433458Y-71885333D01*
X106433458Y-71885333D02*
X106711648Y-71909524D01*
X106711648Y-71909524D02*
X106683829Y-71885333D01*
X106683829Y-71885333D02*
X106656010Y-71836952D01*
X106656010Y-71836952D02*
X106656010Y-71716000D01*
X106656010Y-71716000D02*
X106683829Y-71667619D01*
X106683829Y-71667619D02*
X106711648Y-71643428D01*
X106711648Y-71643428D02*
X106767286Y-71619238D01*
X106767286Y-71619238D02*
X106906381Y-71619238D01*
X106906381Y-71619238D02*
X106962019Y-71643428D01*
X106962019Y-71643428D02*
X106989839Y-71667619D01*
X106989839Y-71667619D02*
X107017658Y-71716000D01*
X107017658Y-71716000D02*
X107017658Y-71836952D01*
X107017658Y-71836952D02*
X106989839Y-71885333D01*
X106989839Y-71885333D02*
X106962019Y-71909524D01*
D13*
X108301447Y-72742886D02*
X108277256Y-72721114D01*
X108277256Y-72721114D02*
X108253066Y-72677572D01*
X108253066Y-72677572D02*
X108253066Y-72568714D01*
X108253066Y-72568714D02*
X108277256Y-72525172D01*
X108277256Y-72525172D02*
X108301447Y-72503400D01*
X108301447Y-72503400D02*
X108349828Y-72481629D01*
X108349828Y-72481629D02*
X108398209Y-72481629D01*
X108398209Y-72481629D02*
X108470780Y-72503400D01*
X108470780Y-72503400D02*
X108761066Y-72764657D01*
X108761066Y-72764657D02*
X108761066Y-72481629D01*
X108253066Y-72329228D02*
X108253066Y-72024428D01*
X108253066Y-72024428D02*
X108761066Y-72220371D01*
X108253066Y-71763171D02*
X108253066Y-71719628D01*
X108253066Y-71719628D02*
X108277256Y-71676085D01*
X108277256Y-71676085D02*
X108301447Y-71654314D01*
X108301447Y-71654314D02*
X108349828Y-71632542D01*
X108349828Y-71632542D02*
X108446590Y-71610771D01*
X108446590Y-71610771D02*
X108567542Y-71610771D01*
X108567542Y-71610771D02*
X108664304Y-71632542D01*
X108664304Y-71632542D02*
X108712685Y-71654314D01*
X108712685Y-71654314D02*
X108736876Y-71676085D01*
X108736876Y-71676085D02*
X108761066Y-71719628D01*
X108761066Y-71719628D02*
X108761066Y-71763171D01*
X108761066Y-71763171D02*
X108736876Y-71806714D01*
X108736876Y-71806714D02*
X108712685Y-71828485D01*
X108712685Y-71828485D02*
X108664304Y-71850256D01*
X108664304Y-71850256D02*
X108567542Y-71872028D01*
X108567542Y-71872028D02*
X108446590Y-71872028D01*
X108446590Y-71872028D02*
X108349828Y-71850256D01*
X108349828Y-71850256D02*
X108301447Y-71828485D01*
X108301447Y-71828485D02*
X108277256Y-71806714D01*
X108277256Y-71806714D02*
X108253066Y-71763171D01*
X108422399Y-71414827D02*
X108761066Y-71414827D01*
X108470780Y-71414827D02*
X108446590Y-71393056D01*
X108446590Y-71393056D02*
X108422399Y-71349513D01*
X108422399Y-71349513D02*
X108422399Y-71284199D01*
X108422399Y-71284199D02*
X108446590Y-71240656D01*
X108446590Y-71240656D02*
X108494971Y-71218885D01*
X108494971Y-71218885D02*
X108761066Y-71218885D01*
D14*
X106727190Y-67571428D02*
X106751000Y-67595237D01*
X106751000Y-67595237D02*
X106774809Y-67666666D01*
X106774809Y-67666666D02*
X106774809Y-67714285D01*
X106774809Y-67714285D02*
X106751000Y-67785713D01*
X106751000Y-67785713D02*
X106703380Y-67833332D01*
X106703380Y-67833332D02*
X106655761Y-67857142D01*
X106655761Y-67857142D02*
X106560523Y-67880951D01*
X106560523Y-67880951D02*
X106489095Y-67880951D01*
X106489095Y-67880951D02*
X106393857Y-67857142D01*
X106393857Y-67857142D02*
X106346238Y-67833332D01*
X106346238Y-67833332D02*
X106298619Y-67785713D01*
X106298619Y-67785713D02*
X106274809Y-67714285D01*
X106274809Y-67714285D02*
X106274809Y-67666666D01*
X106274809Y-67666666D02*
X106298619Y-67595237D01*
X106298619Y-67595237D02*
X106322428Y-67571428D01*
X106774809Y-67095237D02*
X106774809Y-67380951D01*
X106774809Y-67238094D02*
X106274809Y-67238094D01*
X106274809Y-67238094D02*
X106346238Y-67285713D01*
X106346238Y-67285713D02*
X106393857Y-67333332D01*
X106393857Y-67333332D02*
X106417666Y-67380951D01*
X106489095Y-66809523D02*
X106465285Y-66857142D01*
X106465285Y-66857142D02*
X106441476Y-66880952D01*
X106441476Y-66880952D02*
X106393857Y-66904761D01*
X106393857Y-66904761D02*
X106370047Y-66904761D01*
X106370047Y-66904761D02*
X106322428Y-66880952D01*
X106322428Y-66880952D02*
X106298619Y-66857142D01*
X106298619Y-66857142D02*
X106274809Y-66809523D01*
X106274809Y-66809523D02*
X106274809Y-66714285D01*
X106274809Y-66714285D02*
X106298619Y-66666666D01*
X106298619Y-66666666D02*
X106322428Y-66642857D01*
X106322428Y-66642857D02*
X106370047Y-66619047D01*
X106370047Y-66619047D02*
X106393857Y-66619047D01*
X106393857Y-66619047D02*
X106441476Y-66642857D01*
X106441476Y-66642857D02*
X106465285Y-66666666D01*
X106465285Y-66666666D02*
X106489095Y-66714285D01*
X106489095Y-66714285D02*
X106489095Y-66809523D01*
X106489095Y-66809523D02*
X106512904Y-66857142D01*
X106512904Y-66857142D02*
X106536714Y-66880952D01*
X106536714Y-66880952D02*
X106584333Y-66904761D01*
X106584333Y-66904761D02*
X106679571Y-66904761D01*
X106679571Y-66904761D02*
X106727190Y-66880952D01*
X106727190Y-66880952D02*
X106751000Y-66857142D01*
X106751000Y-66857142D02*
X106774809Y-66809523D01*
X106774809Y-66809523D02*
X106774809Y-66714285D01*
X106774809Y-66714285D02*
X106751000Y-66666666D01*
X106751000Y-66666666D02*
X106727190Y-66642857D01*
X106727190Y-66642857D02*
X106679571Y-66619047D01*
X106679571Y-66619047D02*
X106584333Y-66619047D01*
X106584333Y-66619047D02*
X106536714Y-66642857D01*
X106536714Y-66642857D02*
X106512904Y-66666666D01*
X106512904Y-66666666D02*
X106489095Y-66714285D01*
D12*
X68828406Y-63636571D02*
X68586501Y-63805905D01*
X68828406Y-63926857D02*
X68320406Y-63926857D01*
X68320406Y-63926857D02*
X68320406Y-63733333D01*
X68320406Y-63733333D02*
X68344596Y-63684952D01*
X68344596Y-63684952D02*
X68368787Y-63660762D01*
X68368787Y-63660762D02*
X68417168Y-63636571D01*
X68417168Y-63636571D02*
X68489739Y-63636571D01*
X68489739Y-63636571D02*
X68538120Y-63660762D01*
X68538120Y-63660762D02*
X68562311Y-63684952D01*
X68562311Y-63684952D02*
X68586501Y-63733333D01*
X68586501Y-63733333D02*
X68586501Y-63926857D01*
X68828406Y-63152762D02*
X68828406Y-63443048D01*
X68828406Y-63297905D02*
X68320406Y-63297905D01*
X68320406Y-63297905D02*
X68392977Y-63346286D01*
X68392977Y-63346286D02*
X68441358Y-63394667D01*
X68441358Y-63394667D02*
X68465549Y-63443048D01*
X68538120Y-62862476D02*
X68513930Y-62910857D01*
X68513930Y-62910857D02*
X68489739Y-62935047D01*
X68489739Y-62935047D02*
X68441358Y-62959238D01*
X68441358Y-62959238D02*
X68417168Y-62959238D01*
X68417168Y-62959238D02*
X68368787Y-62935047D01*
X68368787Y-62935047D02*
X68344596Y-62910857D01*
X68344596Y-62910857D02*
X68320406Y-62862476D01*
X68320406Y-62862476D02*
X68320406Y-62765714D01*
X68320406Y-62765714D02*
X68344596Y-62717333D01*
X68344596Y-62717333D02*
X68368787Y-62693142D01*
X68368787Y-62693142D02*
X68417168Y-62668952D01*
X68417168Y-62668952D02*
X68441358Y-62668952D01*
X68441358Y-62668952D02*
X68489739Y-62693142D01*
X68489739Y-62693142D02*
X68513930Y-62717333D01*
X68513930Y-62717333D02*
X68538120Y-62765714D01*
X68538120Y-62765714D02*
X68538120Y-62862476D01*
X68538120Y-62862476D02*
X68562311Y-62910857D01*
X68562311Y-62910857D02*
X68586501Y-62935047D01*
X68586501Y-62935047D02*
X68634882Y-62959238D01*
X68634882Y-62959238D02*
X68731644Y-62959238D01*
X68731644Y-62959238D02*
X68780025Y-62935047D01*
X68780025Y-62935047D02*
X68804216Y-62910857D01*
X68804216Y-62910857D02*
X68828406Y-62862476D01*
X68828406Y-62862476D02*
X68828406Y-62765714D01*
X68828406Y-62765714D02*
X68804216Y-62717333D01*
X68804216Y-62717333D02*
X68780025Y-62693142D01*
X68780025Y-62693142D02*
X68731644Y-62668952D01*
X68731644Y-62668952D02*
X68634882Y-62668952D01*
X68634882Y-62668952D02*
X68586501Y-62693142D01*
X68586501Y-62693142D02*
X68562311Y-62717333D01*
X68562311Y-62717333D02*
X68538120Y-62765714D01*
X70258406Y-65706571D02*
X70016501Y-65875905D01*
X70258406Y-65996857D02*
X69750406Y-65996857D01*
X69750406Y-65996857D02*
X69750406Y-65803333D01*
X69750406Y-65803333D02*
X69774596Y-65754952D01*
X69774596Y-65754952D02*
X69798787Y-65730762D01*
X69798787Y-65730762D02*
X69847168Y-65706571D01*
X69847168Y-65706571D02*
X69919739Y-65706571D01*
X69919739Y-65706571D02*
X69968120Y-65730762D01*
X69968120Y-65730762D02*
X69992311Y-65754952D01*
X69992311Y-65754952D02*
X70016501Y-65803333D01*
X70016501Y-65803333D02*
X70016501Y-65996857D01*
X70258406Y-65222762D02*
X70258406Y-65513048D01*
X70258406Y-65367905D02*
X69750406Y-65367905D01*
X69750406Y-65367905D02*
X69822977Y-65416286D01*
X69822977Y-65416286D02*
X69871358Y-65464667D01*
X69871358Y-65464667D02*
X69895549Y-65513048D01*
X69750406Y-64763142D02*
X69750406Y-65005047D01*
X69750406Y-65005047D02*
X69992311Y-65029238D01*
X69992311Y-65029238D02*
X69968120Y-65005047D01*
X69968120Y-65005047D02*
X69943930Y-64956666D01*
X69943930Y-64956666D02*
X69943930Y-64835714D01*
X69943930Y-64835714D02*
X69968120Y-64787333D01*
X69968120Y-64787333D02*
X69992311Y-64763142D01*
X69992311Y-64763142D02*
X70040692Y-64738952D01*
X70040692Y-64738952D02*
X70161644Y-64738952D01*
X70161644Y-64738952D02*
X70210025Y-64763142D01*
X70210025Y-64763142D02*
X70234216Y-64787333D01*
X70234216Y-64787333D02*
X70258406Y-64835714D01*
X70258406Y-64835714D02*
X70258406Y-64956666D01*
X70258406Y-64956666D02*
X70234216Y-65005047D01*
X70234216Y-65005047D02*
X70210025Y-65029238D01*
X76521406Y-58232571D02*
X76279501Y-58401905D01*
X76521406Y-58522857D02*
X76013406Y-58522857D01*
X76013406Y-58522857D02*
X76013406Y-58329333D01*
X76013406Y-58329333D02*
X76037596Y-58280952D01*
X76037596Y-58280952D02*
X76061787Y-58256762D01*
X76061787Y-58256762D02*
X76110168Y-58232571D01*
X76110168Y-58232571D02*
X76182739Y-58232571D01*
X76182739Y-58232571D02*
X76231120Y-58256762D01*
X76231120Y-58256762D02*
X76255311Y-58280952D01*
X76255311Y-58280952D02*
X76279501Y-58329333D01*
X76279501Y-58329333D02*
X76279501Y-58522857D01*
X76521406Y-57748762D02*
X76521406Y-58039048D01*
X76521406Y-57893905D02*
X76013406Y-57893905D01*
X76013406Y-57893905D02*
X76085977Y-57942286D01*
X76085977Y-57942286D02*
X76134358Y-57990667D01*
X76134358Y-57990667D02*
X76158549Y-58039048D01*
X76182739Y-57313333D02*
X76521406Y-57313333D01*
X75989216Y-57434285D02*
X76352073Y-57555238D01*
X76352073Y-57555238D02*
X76352073Y-57240761D01*
D14*
X102187190Y-68471428D02*
X102211000Y-68495237D01*
X102211000Y-68495237D02*
X102234809Y-68566666D01*
X102234809Y-68566666D02*
X102234809Y-68614285D01*
X102234809Y-68614285D02*
X102211000Y-68685713D01*
X102211000Y-68685713D02*
X102163380Y-68733332D01*
X102163380Y-68733332D02*
X102115761Y-68757142D01*
X102115761Y-68757142D02*
X102020523Y-68780951D01*
X102020523Y-68780951D02*
X101949095Y-68780951D01*
X101949095Y-68780951D02*
X101853857Y-68757142D01*
X101853857Y-68757142D02*
X101806238Y-68733332D01*
X101806238Y-68733332D02*
X101758619Y-68685713D01*
X101758619Y-68685713D02*
X101734809Y-68614285D01*
X101734809Y-68614285D02*
X101734809Y-68566666D01*
X101734809Y-68566666D02*
X101758619Y-68495237D01*
X101758619Y-68495237D02*
X101782428Y-68471428D01*
X102234809Y-67995237D02*
X102234809Y-68280951D01*
X102234809Y-68138094D02*
X101734809Y-68138094D01*
X101734809Y-68138094D02*
X101806238Y-68185713D01*
X101806238Y-68185713D02*
X101853857Y-68233332D01*
X101853857Y-68233332D02*
X101877666Y-68280951D01*
X101734809Y-67566666D02*
X101734809Y-67661904D01*
X101734809Y-67661904D02*
X101758619Y-67709523D01*
X101758619Y-67709523D02*
X101782428Y-67733333D01*
X101782428Y-67733333D02*
X101853857Y-67780952D01*
X101853857Y-67780952D02*
X101949095Y-67804761D01*
X101949095Y-67804761D02*
X102139571Y-67804761D01*
X102139571Y-67804761D02*
X102187190Y-67780952D01*
X102187190Y-67780952D02*
X102211000Y-67757142D01*
X102211000Y-67757142D02*
X102234809Y-67709523D01*
X102234809Y-67709523D02*
X102234809Y-67614285D01*
X102234809Y-67614285D02*
X102211000Y-67566666D01*
X102211000Y-67566666D02*
X102187190Y-67542857D01*
X102187190Y-67542857D02*
X102139571Y-67519047D01*
X102139571Y-67519047D02*
X102020523Y-67519047D01*
X102020523Y-67519047D02*
X101972904Y-67542857D01*
X101972904Y-67542857D02*
X101949095Y-67566666D01*
X101949095Y-67566666D02*
X101925285Y-67614285D01*
X101925285Y-67614285D02*
X101925285Y-67709523D01*
X101925285Y-67709523D02*
X101949095Y-67757142D01*
X101949095Y-67757142D02*
X101972904Y-67780952D01*
X101972904Y-67780952D02*
X102020523Y-67804761D01*
D12*
X111593658Y-70084666D02*
X111593658Y-70326571D01*
X111593658Y-70326571D02*
X111009458Y-70326571D01*
X111009458Y-69963714D02*
X111009458Y-69649238D01*
X111009458Y-69649238D02*
X111232010Y-69818571D01*
X111232010Y-69818571D02*
X111232010Y-69746000D01*
X111232010Y-69746000D02*
X111259829Y-69697619D01*
X111259829Y-69697619D02*
X111287648Y-69673428D01*
X111287648Y-69673428D02*
X111343286Y-69649238D01*
X111343286Y-69649238D02*
X111482381Y-69649238D01*
X111482381Y-69649238D02*
X111538019Y-69673428D01*
X111538019Y-69673428D02*
X111565839Y-69697619D01*
X111565839Y-69697619D02*
X111593658Y-69746000D01*
X111593658Y-69746000D02*
X111593658Y-69891143D01*
X111593658Y-69891143D02*
X111565839Y-69939524D01*
X111565839Y-69939524D02*
X111538019Y-69963714D01*
D13*
X110388370Y-68467066D02*
X110127113Y-68467066D01*
X110257742Y-68467066D02*
X110257742Y-67959066D01*
X110257742Y-67959066D02*
X110214199Y-68031637D01*
X110214199Y-68031637D02*
X110170656Y-68080018D01*
X110170656Y-68080018D02*
X110127113Y-68104209D01*
X110649628Y-68176780D02*
X110606085Y-68152590D01*
X110606085Y-68152590D02*
X110584314Y-68128399D01*
X110584314Y-68128399D02*
X110562542Y-68080018D01*
X110562542Y-68080018D02*
X110562542Y-68055828D01*
X110562542Y-68055828D02*
X110584314Y-68007447D01*
X110584314Y-68007447D02*
X110606085Y-67983256D01*
X110606085Y-67983256D02*
X110649628Y-67959066D01*
X110649628Y-67959066D02*
X110736714Y-67959066D01*
X110736714Y-67959066D02*
X110780257Y-67983256D01*
X110780257Y-67983256D02*
X110802028Y-68007447D01*
X110802028Y-68007447D02*
X110823799Y-68055828D01*
X110823799Y-68055828D02*
X110823799Y-68080018D01*
X110823799Y-68080018D02*
X110802028Y-68128399D01*
X110802028Y-68128399D02*
X110780257Y-68152590D01*
X110780257Y-68152590D02*
X110736714Y-68176780D01*
X110736714Y-68176780D02*
X110649628Y-68176780D01*
X110649628Y-68176780D02*
X110606085Y-68200971D01*
X110606085Y-68200971D02*
X110584314Y-68225161D01*
X110584314Y-68225161D02*
X110562542Y-68273542D01*
X110562542Y-68273542D02*
X110562542Y-68370304D01*
X110562542Y-68370304D02*
X110584314Y-68418685D01*
X110584314Y-68418685D02*
X110606085Y-68442876D01*
X110606085Y-68442876D02*
X110649628Y-68467066D01*
X110649628Y-68467066D02*
X110736714Y-68467066D01*
X110736714Y-68467066D02*
X110780257Y-68442876D01*
X110780257Y-68442876D02*
X110802028Y-68418685D01*
X110802028Y-68418685D02*
X110823799Y-68370304D01*
X110823799Y-68370304D02*
X110823799Y-68273542D01*
X110823799Y-68273542D02*
X110802028Y-68225161D01*
X110802028Y-68225161D02*
X110780257Y-68200971D01*
X110780257Y-68200971D02*
X110736714Y-68176780D01*
X111106828Y-67959066D02*
X111150371Y-67959066D01*
X111150371Y-67959066D02*
X111193914Y-67983256D01*
X111193914Y-67983256D02*
X111215686Y-68007447D01*
X111215686Y-68007447D02*
X111237457Y-68055828D01*
X111237457Y-68055828D02*
X111259228Y-68152590D01*
X111259228Y-68152590D02*
X111259228Y-68273542D01*
X111259228Y-68273542D02*
X111237457Y-68370304D01*
X111237457Y-68370304D02*
X111215686Y-68418685D01*
X111215686Y-68418685D02*
X111193914Y-68442876D01*
X111193914Y-68442876D02*
X111150371Y-68467066D01*
X111150371Y-68467066D02*
X111106828Y-68467066D01*
X111106828Y-68467066D02*
X111063286Y-68442876D01*
X111063286Y-68442876D02*
X111041514Y-68418685D01*
X111041514Y-68418685D02*
X111019743Y-68370304D01*
X111019743Y-68370304D02*
X110997971Y-68273542D01*
X110997971Y-68273542D02*
X110997971Y-68152590D01*
X110997971Y-68152590D02*
X111019743Y-68055828D01*
X111019743Y-68055828D02*
X111041514Y-68007447D01*
X111041514Y-68007447D02*
X111063286Y-67983256D01*
X111063286Y-67983256D02*
X111106828Y-67959066D01*
X111455172Y-68128399D02*
X111455172Y-68467066D01*
X111455172Y-68176780D02*
X111476943Y-68152590D01*
X111476943Y-68152590D02*
X111520486Y-68128399D01*
X111520486Y-68128399D02*
X111585800Y-68128399D01*
X111585800Y-68128399D02*
X111629343Y-68152590D01*
X111629343Y-68152590D02*
X111651115Y-68200971D01*
X111651115Y-68200971D02*
X111651115Y-68467066D01*
D11*
X102684819Y-72098094D02*
X101684819Y-72098094D01*
X101684819Y-72098094D02*
X101684819Y-71859999D01*
X101684819Y-71859999D02*
X101732438Y-71717142D01*
X101732438Y-71717142D02*
X101827676Y-71621904D01*
X101827676Y-71621904D02*
X101922914Y-71574285D01*
X101922914Y-71574285D02*
X102113390Y-71526666D01*
X102113390Y-71526666D02*
X102256247Y-71526666D01*
X102256247Y-71526666D02*
X102446723Y-71574285D01*
X102446723Y-71574285D02*
X102541961Y-71621904D01*
X102541961Y-71621904D02*
X102637200Y-71717142D01*
X102637200Y-71717142D02*
X102684819Y-71859999D01*
X102684819Y-71859999D02*
X102684819Y-72098094D01*
X101684819Y-71193332D02*
X101684819Y-70574285D01*
X101684819Y-70574285D02*
X102065771Y-70907618D01*
X102065771Y-70907618D02*
X102065771Y-70764761D01*
X102065771Y-70764761D02*
X102113390Y-70669523D01*
X102113390Y-70669523D02*
X102161009Y-70621904D01*
X102161009Y-70621904D02*
X102256247Y-70574285D01*
X102256247Y-70574285D02*
X102494342Y-70574285D01*
X102494342Y-70574285D02*
X102589580Y-70621904D01*
X102589580Y-70621904D02*
X102637200Y-70669523D01*
X102637200Y-70669523D02*
X102684819Y-70764761D01*
X102684819Y-70764761D02*
X102684819Y-71050475D01*
X102684819Y-71050475D02*
X102637200Y-71145713D01*
X102637200Y-71145713D02*
X102589580Y-71193332D01*
D12*
X80254019Y-61886571D02*
X80281839Y-61910762D01*
X80281839Y-61910762D02*
X80309658Y-61983333D01*
X80309658Y-61983333D02*
X80309658Y-62031714D01*
X80309658Y-62031714D02*
X80281839Y-62104286D01*
X80281839Y-62104286D02*
X80226200Y-62152667D01*
X80226200Y-62152667D02*
X80170562Y-62176857D01*
X80170562Y-62176857D02*
X80059286Y-62201048D01*
X80059286Y-62201048D02*
X79975829Y-62201048D01*
X79975829Y-62201048D02*
X79864553Y-62176857D01*
X79864553Y-62176857D02*
X79808915Y-62152667D01*
X79808915Y-62152667D02*
X79753277Y-62104286D01*
X79753277Y-62104286D02*
X79725458Y-62031714D01*
X79725458Y-62031714D02*
X79725458Y-61983333D01*
X79725458Y-61983333D02*
X79753277Y-61910762D01*
X79753277Y-61910762D02*
X79781096Y-61886571D01*
X79725458Y-61717238D02*
X79725458Y-61402762D01*
X79725458Y-61402762D02*
X79948010Y-61572095D01*
X79948010Y-61572095D02*
X79948010Y-61499524D01*
X79948010Y-61499524D02*
X79975829Y-61451143D01*
X79975829Y-61451143D02*
X80003648Y-61426952D01*
X80003648Y-61426952D02*
X80059286Y-61402762D01*
X80059286Y-61402762D02*
X80198381Y-61402762D01*
X80198381Y-61402762D02*
X80254019Y-61426952D01*
X80254019Y-61426952D02*
X80281839Y-61451143D01*
X80281839Y-61451143D02*
X80309658Y-61499524D01*
X80309658Y-61499524D02*
X80309658Y-61644667D01*
X80309658Y-61644667D02*
X80281839Y-61693048D01*
X80281839Y-61693048D02*
X80254019Y-61717238D01*
X79725458Y-61088285D02*
X79725458Y-61039904D01*
X79725458Y-61039904D02*
X79753277Y-60991523D01*
X79753277Y-60991523D02*
X79781096Y-60967333D01*
X79781096Y-60967333D02*
X79836734Y-60943142D01*
X79836734Y-60943142D02*
X79948010Y-60918952D01*
X79948010Y-60918952D02*
X80087105Y-60918952D01*
X80087105Y-60918952D02*
X80198381Y-60943142D01*
X80198381Y-60943142D02*
X80254019Y-60967333D01*
X80254019Y-60967333D02*
X80281839Y-60991523D01*
X80281839Y-60991523D02*
X80309658Y-61039904D01*
X80309658Y-61039904D02*
X80309658Y-61088285D01*
X80309658Y-61088285D02*
X80281839Y-61136666D01*
X80281839Y-61136666D02*
X80254019Y-61160857D01*
X80254019Y-61160857D02*
X80198381Y-61185047D01*
X80198381Y-61185047D02*
X80087105Y-61209238D01*
X80087105Y-61209238D02*
X79948010Y-61209238D01*
X79948010Y-61209238D02*
X79836734Y-61185047D01*
X79836734Y-61185047D02*
X79781096Y-61160857D01*
X79781096Y-61160857D02*
X79753277Y-61136666D01*
X79753277Y-61136666D02*
X79725458Y-61088285D01*
D13*
X78497066Y-61636200D02*
X78497066Y-61897457D01*
X78497066Y-61766828D02*
X77989066Y-61766828D01*
X77989066Y-61766828D02*
X78061637Y-61810371D01*
X78061637Y-61810371D02*
X78110018Y-61853914D01*
X78110018Y-61853914D02*
X78134209Y-61897457D01*
X78158399Y-61244314D02*
X78497066Y-61244314D01*
X78158399Y-61440256D02*
X78424495Y-61440256D01*
X78424495Y-61440256D02*
X78472876Y-61418485D01*
X78472876Y-61418485D02*
X78497066Y-61374942D01*
X78497066Y-61374942D02*
X78497066Y-61309628D01*
X78497066Y-61309628D02*
X78472876Y-61266085D01*
X78472876Y-61266085D02*
X78448685Y-61244314D01*
D12*
X60310025Y-55364666D02*
X60334216Y-55388857D01*
X60334216Y-55388857D02*
X60358406Y-55461428D01*
X60358406Y-55461428D02*
X60358406Y-55509809D01*
X60358406Y-55509809D02*
X60334216Y-55582381D01*
X60334216Y-55582381D02*
X60285835Y-55630762D01*
X60285835Y-55630762D02*
X60237454Y-55654952D01*
X60237454Y-55654952D02*
X60140692Y-55679143D01*
X60140692Y-55679143D02*
X60068120Y-55679143D01*
X60068120Y-55679143D02*
X59971358Y-55654952D01*
X59971358Y-55654952D02*
X59922977Y-55630762D01*
X59922977Y-55630762D02*
X59874596Y-55582381D01*
X59874596Y-55582381D02*
X59850406Y-55509809D01*
X59850406Y-55509809D02*
X59850406Y-55461428D01*
X59850406Y-55461428D02*
X59874596Y-55388857D01*
X59874596Y-55388857D02*
X59898787Y-55364666D01*
X60068120Y-55074381D02*
X60043930Y-55122762D01*
X60043930Y-55122762D02*
X60019739Y-55146952D01*
X60019739Y-55146952D02*
X59971358Y-55171143D01*
X59971358Y-55171143D02*
X59947168Y-55171143D01*
X59947168Y-55171143D02*
X59898787Y-55146952D01*
X59898787Y-55146952D02*
X59874596Y-55122762D01*
X59874596Y-55122762D02*
X59850406Y-55074381D01*
X59850406Y-55074381D02*
X59850406Y-54977619D01*
X59850406Y-54977619D02*
X59874596Y-54929238D01*
X59874596Y-54929238D02*
X59898787Y-54905047D01*
X59898787Y-54905047D02*
X59947168Y-54880857D01*
X59947168Y-54880857D02*
X59971358Y-54880857D01*
X59971358Y-54880857D02*
X60019739Y-54905047D01*
X60019739Y-54905047D02*
X60043930Y-54929238D01*
X60043930Y-54929238D02*
X60068120Y-54977619D01*
X60068120Y-54977619D02*
X60068120Y-55074381D01*
X60068120Y-55074381D02*
X60092311Y-55122762D01*
X60092311Y-55122762D02*
X60116501Y-55146952D01*
X60116501Y-55146952D02*
X60164882Y-55171143D01*
X60164882Y-55171143D02*
X60261644Y-55171143D01*
X60261644Y-55171143D02*
X60310025Y-55146952D01*
X60310025Y-55146952D02*
X60334216Y-55122762D01*
X60334216Y-55122762D02*
X60358406Y-55074381D01*
X60358406Y-55074381D02*
X60358406Y-54977619D01*
X60358406Y-54977619D02*
X60334216Y-54929238D01*
X60334216Y-54929238D02*
X60310025Y-54905047D01*
X60310025Y-54905047D02*
X60261644Y-54880857D01*
X60261644Y-54880857D02*
X60164882Y-54880857D01*
X60164882Y-54880857D02*
X60116501Y-54905047D01*
X60116501Y-54905047D02*
X60092311Y-54929238D01*
X60092311Y-54929238D02*
X60068120Y-54977619D01*
X66350025Y-63356571D02*
X66374216Y-63380762D01*
X66374216Y-63380762D02*
X66398406Y-63453333D01*
X66398406Y-63453333D02*
X66398406Y-63501714D01*
X66398406Y-63501714D02*
X66374216Y-63574286D01*
X66374216Y-63574286D02*
X66325835Y-63622667D01*
X66325835Y-63622667D02*
X66277454Y-63646857D01*
X66277454Y-63646857D02*
X66180692Y-63671048D01*
X66180692Y-63671048D02*
X66108120Y-63671048D01*
X66108120Y-63671048D02*
X66011358Y-63646857D01*
X66011358Y-63646857D02*
X65962977Y-63622667D01*
X65962977Y-63622667D02*
X65914596Y-63574286D01*
X65914596Y-63574286D02*
X65890406Y-63501714D01*
X65890406Y-63501714D02*
X65890406Y-63453333D01*
X65890406Y-63453333D02*
X65914596Y-63380762D01*
X65914596Y-63380762D02*
X65938787Y-63356571D01*
X66398406Y-62872762D02*
X66398406Y-63163048D01*
X66398406Y-63017905D02*
X65890406Y-63017905D01*
X65890406Y-63017905D02*
X65962977Y-63066286D01*
X65962977Y-63066286D02*
X66011358Y-63114667D01*
X66011358Y-63114667D02*
X66035549Y-63163048D01*
X65938787Y-62679238D02*
X65914596Y-62655047D01*
X65914596Y-62655047D02*
X65890406Y-62606666D01*
X65890406Y-62606666D02*
X65890406Y-62485714D01*
X65890406Y-62485714D02*
X65914596Y-62437333D01*
X65914596Y-62437333D02*
X65938787Y-62413142D01*
X65938787Y-62413142D02*
X65987168Y-62388952D01*
X65987168Y-62388952D02*
X66035549Y-62388952D01*
X66035549Y-62388952D02*
X66108120Y-62413142D01*
X66108120Y-62413142D02*
X66398406Y-62703428D01*
X66398406Y-62703428D02*
X66398406Y-62388952D01*
X76467525Y-48828321D02*
X76491716Y-48852512D01*
X76491716Y-48852512D02*
X76515906Y-48925083D01*
X76515906Y-48925083D02*
X76515906Y-48973464D01*
X76515906Y-48973464D02*
X76491716Y-49046036D01*
X76491716Y-49046036D02*
X76443335Y-49094417D01*
X76443335Y-49094417D02*
X76394954Y-49118607D01*
X76394954Y-49118607D02*
X76298192Y-49142798D01*
X76298192Y-49142798D02*
X76225620Y-49142798D01*
X76225620Y-49142798D02*
X76128858Y-49118607D01*
X76128858Y-49118607D02*
X76080477Y-49094417D01*
X76080477Y-49094417D02*
X76032096Y-49046036D01*
X76032096Y-49046036D02*
X76007906Y-48973464D01*
X76007906Y-48973464D02*
X76007906Y-48925083D01*
X76007906Y-48925083D02*
X76032096Y-48852512D01*
X76032096Y-48852512D02*
X76056287Y-48828321D01*
X76056287Y-48634798D02*
X76032096Y-48610607D01*
X76032096Y-48610607D02*
X76007906Y-48562226D01*
X76007906Y-48562226D02*
X76007906Y-48441274D01*
X76007906Y-48441274D02*
X76032096Y-48392893D01*
X76032096Y-48392893D02*
X76056287Y-48368702D01*
X76056287Y-48368702D02*
X76104668Y-48344512D01*
X76104668Y-48344512D02*
X76153049Y-48344512D01*
X76153049Y-48344512D02*
X76225620Y-48368702D01*
X76225620Y-48368702D02*
X76515906Y-48658988D01*
X76515906Y-48658988D02*
X76515906Y-48344512D01*
X76007906Y-48175178D02*
X76007906Y-47836511D01*
X76007906Y-47836511D02*
X76515906Y-48054226D01*
D11*
X73304819Y-82103333D02*
X74019104Y-82103333D01*
X74019104Y-82103333D02*
X74161961Y-82150952D01*
X74161961Y-82150952D02*
X74257200Y-82246190D01*
X74257200Y-82246190D02*
X74304819Y-82389047D01*
X74304819Y-82389047D02*
X74304819Y-82484285D01*
X73638152Y-81198571D02*
X74304819Y-81198571D01*
X73257200Y-81436666D02*
X73971485Y-81674761D01*
X73971485Y-81674761D02*
X73971485Y-81055714D01*
D14*
X105837190Y-67551428D02*
X105861000Y-67575237D01*
X105861000Y-67575237D02*
X105884809Y-67646666D01*
X105884809Y-67646666D02*
X105884809Y-67694285D01*
X105884809Y-67694285D02*
X105861000Y-67765713D01*
X105861000Y-67765713D02*
X105813380Y-67813332D01*
X105813380Y-67813332D02*
X105765761Y-67837142D01*
X105765761Y-67837142D02*
X105670523Y-67860951D01*
X105670523Y-67860951D02*
X105599095Y-67860951D01*
X105599095Y-67860951D02*
X105503857Y-67837142D01*
X105503857Y-67837142D02*
X105456238Y-67813332D01*
X105456238Y-67813332D02*
X105408619Y-67765713D01*
X105408619Y-67765713D02*
X105384809Y-67694285D01*
X105384809Y-67694285D02*
X105384809Y-67646666D01*
X105384809Y-67646666D02*
X105408619Y-67575237D01*
X105408619Y-67575237D02*
X105432428Y-67551428D01*
X105884809Y-67075237D02*
X105884809Y-67360951D01*
X105884809Y-67218094D02*
X105384809Y-67218094D01*
X105384809Y-67218094D02*
X105456238Y-67265713D01*
X105456238Y-67265713D02*
X105503857Y-67313332D01*
X105503857Y-67313332D02*
X105527666Y-67360951D01*
X105384809Y-66908571D02*
X105384809Y-66575238D01*
X105384809Y-66575238D02*
X105884809Y-66789523D01*
D12*
X56573428Y-61843658D02*
X56404094Y-61565467D01*
X56283142Y-61843658D02*
X56283142Y-61259458D01*
X56283142Y-61259458D02*
X56476666Y-61259458D01*
X56476666Y-61259458D02*
X56525047Y-61287277D01*
X56525047Y-61287277D02*
X56549237Y-61315096D01*
X56549237Y-61315096D02*
X56573428Y-61370734D01*
X56573428Y-61370734D02*
X56573428Y-61454191D01*
X56573428Y-61454191D02*
X56549237Y-61509829D01*
X56549237Y-61509829D02*
X56525047Y-61537648D01*
X56525047Y-61537648D02*
X56476666Y-61565467D01*
X56476666Y-61565467D02*
X56283142Y-61565467D01*
X57057237Y-61843658D02*
X56766951Y-61843658D01*
X56912094Y-61843658D02*
X56912094Y-61259458D01*
X56912094Y-61259458D02*
X56863713Y-61342915D01*
X56863713Y-61342915D02*
X56815332Y-61398553D01*
X56815332Y-61398553D02*
X56766951Y-61426372D01*
X57371714Y-61259458D02*
X57420095Y-61259458D01*
X57420095Y-61259458D02*
X57468476Y-61287277D01*
X57468476Y-61287277D02*
X57492666Y-61315096D01*
X57492666Y-61315096D02*
X57516857Y-61370734D01*
X57516857Y-61370734D02*
X57541047Y-61482010D01*
X57541047Y-61482010D02*
X57541047Y-61621105D01*
X57541047Y-61621105D02*
X57516857Y-61732381D01*
X57516857Y-61732381D02*
X57492666Y-61788019D01*
X57492666Y-61788019D02*
X57468476Y-61815839D01*
X57468476Y-61815839D02*
X57420095Y-61843658D01*
X57420095Y-61843658D02*
X57371714Y-61843658D01*
X57371714Y-61843658D02*
X57323333Y-61815839D01*
X57323333Y-61815839D02*
X57299142Y-61788019D01*
X57299142Y-61788019D02*
X57274952Y-61732381D01*
X57274952Y-61732381D02*
X57250761Y-61621105D01*
X57250761Y-61621105D02*
X57250761Y-61482010D01*
X57250761Y-61482010D02*
X57274952Y-61370734D01*
X57274952Y-61370734D02*
X57299142Y-61315096D01*
X57299142Y-61315096D02*
X57323333Y-61287277D01*
X57323333Y-61287277D02*
X57371714Y-61259458D01*
D13*
X56312171Y-59523066D02*
X56595199Y-59523066D01*
X56595199Y-59523066D02*
X56442799Y-59716590D01*
X56442799Y-59716590D02*
X56508114Y-59716590D01*
X56508114Y-59716590D02*
X56551657Y-59740780D01*
X56551657Y-59740780D02*
X56573428Y-59764971D01*
X56573428Y-59764971D02*
X56595199Y-59813352D01*
X56595199Y-59813352D02*
X56595199Y-59934304D01*
X56595199Y-59934304D02*
X56573428Y-59982685D01*
X56573428Y-59982685D02*
X56551657Y-60006876D01*
X56551657Y-60006876D02*
X56508114Y-60031066D01*
X56508114Y-60031066D02*
X56377485Y-60031066D01*
X56377485Y-60031066D02*
X56333942Y-60006876D01*
X56333942Y-60006876D02*
X56312171Y-59982685D01*
X56747600Y-59523066D02*
X57030628Y-59523066D01*
X57030628Y-59523066D02*
X56878228Y-59716590D01*
X56878228Y-59716590D02*
X56943543Y-59716590D01*
X56943543Y-59716590D02*
X56987086Y-59740780D01*
X56987086Y-59740780D02*
X57008857Y-59764971D01*
X57008857Y-59764971D02*
X57030628Y-59813352D01*
X57030628Y-59813352D02*
X57030628Y-59934304D01*
X57030628Y-59934304D02*
X57008857Y-59982685D01*
X57008857Y-59982685D02*
X56987086Y-60006876D01*
X56987086Y-60006876D02*
X56943543Y-60031066D01*
X56943543Y-60031066D02*
X56812914Y-60031066D01*
X56812914Y-60031066D02*
X56769371Y-60006876D01*
X56769371Y-60006876D02*
X56747600Y-59982685D01*
X57313657Y-59523066D02*
X57357200Y-59523066D01*
X57357200Y-59523066D02*
X57400743Y-59547256D01*
X57400743Y-59547256D02*
X57422515Y-59571447D01*
X57422515Y-59571447D02*
X57444286Y-59619828D01*
X57444286Y-59619828D02*
X57466057Y-59716590D01*
X57466057Y-59716590D02*
X57466057Y-59837542D01*
X57466057Y-59837542D02*
X57444286Y-59934304D01*
X57444286Y-59934304D02*
X57422515Y-59982685D01*
X57422515Y-59982685D02*
X57400743Y-60006876D01*
X57400743Y-60006876D02*
X57357200Y-60031066D01*
X57357200Y-60031066D02*
X57313657Y-60031066D01*
X57313657Y-60031066D02*
X57270115Y-60006876D01*
X57270115Y-60006876D02*
X57248343Y-59982685D01*
X57248343Y-59982685D02*
X57226572Y-59934304D01*
X57226572Y-59934304D02*
X57204800Y-59837542D01*
X57204800Y-59837542D02*
X57204800Y-59716590D01*
X57204800Y-59716590D02*
X57226572Y-59619828D01*
X57226572Y-59619828D02*
X57248343Y-59571447D01*
X57248343Y-59571447D02*
X57270115Y-59547256D01*
X57270115Y-59547256D02*
X57313657Y-59523066D01*
D12*
X67250025Y-63366571D02*
X67274216Y-63390762D01*
X67274216Y-63390762D02*
X67298406Y-63463333D01*
X67298406Y-63463333D02*
X67298406Y-63511714D01*
X67298406Y-63511714D02*
X67274216Y-63584286D01*
X67274216Y-63584286D02*
X67225835Y-63632667D01*
X67225835Y-63632667D02*
X67177454Y-63656857D01*
X67177454Y-63656857D02*
X67080692Y-63681048D01*
X67080692Y-63681048D02*
X67008120Y-63681048D01*
X67008120Y-63681048D02*
X66911358Y-63656857D01*
X66911358Y-63656857D02*
X66862977Y-63632667D01*
X66862977Y-63632667D02*
X66814596Y-63584286D01*
X66814596Y-63584286D02*
X66790406Y-63511714D01*
X66790406Y-63511714D02*
X66790406Y-63463333D01*
X66790406Y-63463333D02*
X66814596Y-63390762D01*
X66814596Y-63390762D02*
X66838787Y-63366571D01*
X67298406Y-62882762D02*
X67298406Y-63173048D01*
X67298406Y-63027905D02*
X66790406Y-63027905D01*
X66790406Y-63027905D02*
X66862977Y-63076286D01*
X66862977Y-63076286D02*
X66911358Y-63124667D01*
X66911358Y-63124667D02*
X66935549Y-63173048D01*
X66790406Y-62713428D02*
X66790406Y-62398952D01*
X66790406Y-62398952D02*
X66983930Y-62568285D01*
X66983930Y-62568285D02*
X66983930Y-62495714D01*
X66983930Y-62495714D02*
X67008120Y-62447333D01*
X67008120Y-62447333D02*
X67032311Y-62423142D01*
X67032311Y-62423142D02*
X67080692Y-62398952D01*
X67080692Y-62398952D02*
X67201644Y-62398952D01*
X67201644Y-62398952D02*
X67250025Y-62423142D01*
X67250025Y-62423142D02*
X67274216Y-62447333D01*
X67274216Y-62447333D02*
X67298406Y-62495714D01*
X67298406Y-62495714D02*
X67298406Y-62640857D01*
X67298406Y-62640857D02*
X67274216Y-62689238D01*
X67274216Y-62689238D02*
X67250025Y-62713428D01*
D11*
X58954819Y-82243333D02*
X59669104Y-82243333D01*
X59669104Y-82243333D02*
X59811961Y-82290952D01*
X59811961Y-82290952D02*
X59907200Y-82386190D01*
X59907200Y-82386190D02*
X59954819Y-82529047D01*
X59954819Y-82529047D02*
X59954819Y-82624285D01*
X58954819Y-81862380D02*
X58954819Y-81243333D01*
X58954819Y-81243333D02*
X59335771Y-81576666D01*
X59335771Y-81576666D02*
X59335771Y-81433809D01*
X59335771Y-81433809D02*
X59383390Y-81338571D01*
X59383390Y-81338571D02*
X59431009Y-81290952D01*
X59431009Y-81290952D02*
X59526247Y-81243333D01*
X59526247Y-81243333D02*
X59764342Y-81243333D01*
X59764342Y-81243333D02*
X59859580Y-81290952D01*
X59859580Y-81290952D02*
X59907200Y-81338571D01*
X59907200Y-81338571D02*
X59954819Y-81433809D01*
X59954819Y-81433809D02*
X59954819Y-81719523D01*
X59954819Y-81719523D02*
X59907200Y-81814761D01*
X59907200Y-81814761D02*
X59859580Y-81862380D01*
D14*
X107228571Y-60017190D02*
X107204762Y-60041000D01*
X107204762Y-60041000D02*
X107133333Y-60064809D01*
X107133333Y-60064809D02*
X107085714Y-60064809D01*
X107085714Y-60064809D02*
X107014286Y-60041000D01*
X107014286Y-60041000D02*
X106966667Y-59993380D01*
X106966667Y-59993380D02*
X106942857Y-59945761D01*
X106942857Y-59945761D02*
X106919048Y-59850523D01*
X106919048Y-59850523D02*
X106919048Y-59779095D01*
X106919048Y-59779095D02*
X106942857Y-59683857D01*
X106942857Y-59683857D02*
X106966667Y-59636238D01*
X106966667Y-59636238D02*
X107014286Y-59588619D01*
X107014286Y-59588619D02*
X107085714Y-59564809D01*
X107085714Y-59564809D02*
X107133333Y-59564809D01*
X107133333Y-59564809D02*
X107204762Y-59588619D01*
X107204762Y-59588619D02*
X107228571Y-59612428D01*
X107395238Y-59564809D02*
X107704762Y-59564809D01*
X107704762Y-59564809D02*
X107538095Y-59755285D01*
X107538095Y-59755285D02*
X107609524Y-59755285D01*
X107609524Y-59755285D02*
X107657143Y-59779095D01*
X107657143Y-59779095D02*
X107680952Y-59802904D01*
X107680952Y-59802904D02*
X107704762Y-59850523D01*
X107704762Y-59850523D02*
X107704762Y-59969571D01*
X107704762Y-59969571D02*
X107680952Y-60017190D01*
X107680952Y-60017190D02*
X107657143Y-60041000D01*
X107657143Y-60041000D02*
X107609524Y-60064809D01*
X107609524Y-60064809D02*
X107466667Y-60064809D01*
X107466667Y-60064809D02*
X107419048Y-60041000D01*
X107419048Y-60041000D02*
X107395238Y-60017190D01*
X107871428Y-59564809D02*
X108204761Y-59564809D01*
X108204761Y-59564809D02*
X107990476Y-60064809D01*
D12*
X74735333Y-61738019D02*
X74711142Y-61765839D01*
X74711142Y-61765839D02*
X74638571Y-61793658D01*
X74638571Y-61793658D02*
X74590190Y-61793658D01*
X74590190Y-61793658D02*
X74517618Y-61765839D01*
X74517618Y-61765839D02*
X74469237Y-61710200D01*
X74469237Y-61710200D02*
X74445047Y-61654562D01*
X74445047Y-61654562D02*
X74420856Y-61543286D01*
X74420856Y-61543286D02*
X74420856Y-61459829D01*
X74420856Y-61459829D02*
X74445047Y-61348553D01*
X74445047Y-61348553D02*
X74469237Y-61292915D01*
X74469237Y-61292915D02*
X74517618Y-61237277D01*
X74517618Y-61237277D02*
X74590190Y-61209458D01*
X74590190Y-61209458D02*
X74638571Y-61209458D01*
X74638571Y-61209458D02*
X74711142Y-61237277D01*
X74711142Y-61237277D02*
X74735333Y-61265096D01*
X75194952Y-61209458D02*
X74953047Y-61209458D01*
X74953047Y-61209458D02*
X74928856Y-61487648D01*
X74928856Y-61487648D02*
X74953047Y-61459829D01*
X74953047Y-61459829D02*
X75001428Y-61432010D01*
X75001428Y-61432010D02*
X75122380Y-61432010D01*
X75122380Y-61432010D02*
X75170761Y-61459829D01*
X75170761Y-61459829D02*
X75194952Y-61487648D01*
X75194952Y-61487648D02*
X75219142Y-61543286D01*
X75219142Y-61543286D02*
X75219142Y-61682381D01*
X75219142Y-61682381D02*
X75194952Y-61738019D01*
X75194952Y-61738019D02*
X75170761Y-61765839D01*
X75170761Y-61765839D02*
X75122380Y-61793658D01*
X75122380Y-61793658D02*
X75001428Y-61793658D01*
X75001428Y-61793658D02*
X74953047Y-61765839D01*
X74953047Y-61765839D02*
X74928856Y-61738019D01*
D13*
X73754828Y-62943066D02*
X73798371Y-62943066D01*
X73798371Y-62943066D02*
X73841914Y-62967256D01*
X73841914Y-62967256D02*
X73863686Y-62991447D01*
X73863686Y-62991447D02*
X73885457Y-63039828D01*
X73885457Y-63039828D02*
X73907228Y-63136590D01*
X73907228Y-63136590D02*
X73907228Y-63257542D01*
X73907228Y-63257542D02*
X73885457Y-63354304D01*
X73885457Y-63354304D02*
X73863686Y-63402685D01*
X73863686Y-63402685D02*
X73841914Y-63426876D01*
X73841914Y-63426876D02*
X73798371Y-63451066D01*
X73798371Y-63451066D02*
X73754828Y-63451066D01*
X73754828Y-63451066D02*
X73711286Y-63426876D01*
X73711286Y-63426876D02*
X73689514Y-63402685D01*
X73689514Y-63402685D02*
X73667743Y-63354304D01*
X73667743Y-63354304D02*
X73645971Y-63257542D01*
X73645971Y-63257542D02*
X73645971Y-63136590D01*
X73645971Y-63136590D02*
X73667743Y-63039828D01*
X73667743Y-63039828D02*
X73689514Y-62991447D01*
X73689514Y-62991447D02*
X73711286Y-62967256D01*
X73711286Y-62967256D02*
X73754828Y-62943066D01*
X74103172Y-63402685D02*
X74124943Y-63426876D01*
X74124943Y-63426876D02*
X74103172Y-63451066D01*
X74103172Y-63451066D02*
X74081400Y-63426876D01*
X74081400Y-63426876D02*
X74103172Y-63402685D01*
X74103172Y-63402685D02*
X74103172Y-63451066D01*
X74560371Y-63451066D02*
X74299114Y-63451066D01*
X74429743Y-63451066D02*
X74429743Y-62943066D01*
X74429743Y-62943066D02*
X74386200Y-63015637D01*
X74386200Y-63015637D02*
X74342657Y-63064018D01*
X74342657Y-63064018D02*
X74299114Y-63088209D01*
X74952258Y-63112399D02*
X74952258Y-63451066D01*
X74756315Y-63112399D02*
X74756315Y-63378495D01*
X74756315Y-63378495D02*
X74778086Y-63426876D01*
X74778086Y-63426876D02*
X74821629Y-63451066D01*
X74821629Y-63451066D02*
X74886943Y-63451066D01*
X74886943Y-63451066D02*
X74930486Y-63426876D01*
X74930486Y-63426876D02*
X74952258Y-63402685D01*
D12*
X101333428Y-58809658D02*
X101164094Y-58531467D01*
X101043142Y-58809658D02*
X101043142Y-58225458D01*
X101043142Y-58225458D02*
X101236666Y-58225458D01*
X101236666Y-58225458D02*
X101285047Y-58253277D01*
X101285047Y-58253277D02*
X101309237Y-58281096D01*
X101309237Y-58281096D02*
X101333428Y-58336734D01*
X101333428Y-58336734D02*
X101333428Y-58420191D01*
X101333428Y-58420191D02*
X101309237Y-58475829D01*
X101309237Y-58475829D02*
X101285047Y-58503648D01*
X101285047Y-58503648D02*
X101236666Y-58531467D01*
X101236666Y-58531467D02*
X101043142Y-58531467D01*
X101526951Y-58281096D02*
X101551142Y-58253277D01*
X101551142Y-58253277D02*
X101599523Y-58225458D01*
X101599523Y-58225458D02*
X101720475Y-58225458D01*
X101720475Y-58225458D02*
X101768856Y-58253277D01*
X101768856Y-58253277D02*
X101793047Y-58281096D01*
X101793047Y-58281096D02*
X101817237Y-58336734D01*
X101817237Y-58336734D02*
X101817237Y-58392372D01*
X101817237Y-58392372D02*
X101793047Y-58475829D01*
X101793047Y-58475829D02*
X101502761Y-58809658D01*
X101502761Y-58809658D02*
X101817237Y-58809658D01*
X102131714Y-58225458D02*
X102180095Y-58225458D01*
X102180095Y-58225458D02*
X102228476Y-58253277D01*
X102228476Y-58253277D02*
X102252666Y-58281096D01*
X102252666Y-58281096D02*
X102276857Y-58336734D01*
X102276857Y-58336734D02*
X102301047Y-58448010D01*
X102301047Y-58448010D02*
X102301047Y-58587105D01*
X102301047Y-58587105D02*
X102276857Y-58698381D01*
X102276857Y-58698381D02*
X102252666Y-58754019D01*
X102252666Y-58754019D02*
X102228476Y-58781839D01*
X102228476Y-58781839D02*
X102180095Y-58809658D01*
X102180095Y-58809658D02*
X102131714Y-58809658D01*
X102131714Y-58809658D02*
X102083333Y-58781839D01*
X102083333Y-58781839D02*
X102059142Y-58754019D01*
X102059142Y-58754019D02*
X102034952Y-58698381D01*
X102034952Y-58698381D02*
X102010761Y-58587105D01*
X102010761Y-58587105D02*
X102010761Y-58448010D01*
X102010761Y-58448010D02*
X102034952Y-58336734D01*
X102034952Y-58336734D02*
X102059142Y-58281096D01*
X102059142Y-58281096D02*
X102083333Y-58253277D01*
X102083333Y-58253277D02*
X102131714Y-58225458D01*
D13*
X101061285Y-56539066D02*
X101344313Y-56539066D01*
X101344313Y-56539066D02*
X101191913Y-56732590D01*
X101191913Y-56732590D02*
X101257228Y-56732590D01*
X101257228Y-56732590D02*
X101300771Y-56756780D01*
X101300771Y-56756780D02*
X101322542Y-56780971D01*
X101322542Y-56780971D02*
X101344313Y-56829352D01*
X101344313Y-56829352D02*
X101344313Y-56950304D01*
X101344313Y-56950304D02*
X101322542Y-56998685D01*
X101322542Y-56998685D02*
X101300771Y-57022876D01*
X101300771Y-57022876D02*
X101257228Y-57047066D01*
X101257228Y-57047066D02*
X101126599Y-57047066D01*
X101126599Y-57047066D02*
X101083056Y-57022876D01*
X101083056Y-57022876D02*
X101061285Y-56998685D01*
X101801514Y-57047066D02*
X101649114Y-56805161D01*
X101540257Y-57047066D02*
X101540257Y-56539066D01*
X101540257Y-56539066D02*
X101714428Y-56539066D01*
X101714428Y-56539066D02*
X101757971Y-56563256D01*
X101757971Y-56563256D02*
X101779742Y-56587447D01*
X101779742Y-56587447D02*
X101801514Y-56635828D01*
X101801514Y-56635828D02*
X101801514Y-56708399D01*
X101801514Y-56708399D02*
X101779742Y-56756780D01*
X101779742Y-56756780D02*
X101757971Y-56780971D01*
X101757971Y-56780971D02*
X101714428Y-56805161D01*
X101714428Y-56805161D02*
X101540257Y-56805161D01*
X101953914Y-56539066D02*
X102236942Y-56539066D01*
X102236942Y-56539066D02*
X102084542Y-56732590D01*
X102084542Y-56732590D02*
X102149857Y-56732590D01*
X102149857Y-56732590D02*
X102193400Y-56756780D01*
X102193400Y-56756780D02*
X102215171Y-56780971D01*
X102215171Y-56780971D02*
X102236942Y-56829352D01*
X102236942Y-56829352D02*
X102236942Y-56950304D01*
X102236942Y-56950304D02*
X102215171Y-56998685D01*
X102215171Y-56998685D02*
X102193400Y-57022876D01*
X102193400Y-57022876D02*
X102149857Y-57047066D01*
X102149857Y-57047066D02*
X102019228Y-57047066D01*
X102019228Y-57047066D02*
X101975685Y-57022876D01*
X101975685Y-57022876D02*
X101953914Y-56998685D01*
D14*
X92144809Y-60551428D02*
X91906714Y-60718094D01*
X92144809Y-60837142D02*
X91644809Y-60837142D01*
X91644809Y-60837142D02*
X91644809Y-60646666D01*
X91644809Y-60646666D02*
X91668619Y-60599047D01*
X91668619Y-60599047D02*
X91692428Y-60575237D01*
X91692428Y-60575237D02*
X91740047Y-60551428D01*
X91740047Y-60551428D02*
X91811476Y-60551428D01*
X91811476Y-60551428D02*
X91859095Y-60575237D01*
X91859095Y-60575237D02*
X91882904Y-60599047D01*
X91882904Y-60599047D02*
X91906714Y-60646666D01*
X91906714Y-60646666D02*
X91906714Y-60837142D01*
X91692428Y-60360951D02*
X91668619Y-60337142D01*
X91668619Y-60337142D02*
X91644809Y-60289523D01*
X91644809Y-60289523D02*
X91644809Y-60170475D01*
X91644809Y-60170475D02*
X91668619Y-60122856D01*
X91668619Y-60122856D02*
X91692428Y-60099047D01*
X91692428Y-60099047D02*
X91740047Y-60075237D01*
X91740047Y-60075237D02*
X91787666Y-60075237D01*
X91787666Y-60075237D02*
X91859095Y-60099047D01*
X91859095Y-60099047D02*
X92144809Y-60384761D01*
X92144809Y-60384761D02*
X92144809Y-60075237D01*
X92144809Y-59599047D02*
X92144809Y-59884761D01*
X92144809Y-59741904D02*
X91644809Y-59741904D01*
X91644809Y-59741904D02*
X91716238Y-59789523D01*
X91716238Y-59789523D02*
X91763857Y-59837142D01*
X91763857Y-59837142D02*
X91787666Y-59884761D01*
D12*
X103990025Y-64916571D02*
X104014216Y-64940762D01*
X104014216Y-64940762D02*
X104038406Y-65013333D01*
X104038406Y-65013333D02*
X104038406Y-65061714D01*
X104038406Y-65061714D02*
X104014216Y-65134286D01*
X104014216Y-65134286D02*
X103965835Y-65182667D01*
X103965835Y-65182667D02*
X103917454Y-65206857D01*
X103917454Y-65206857D02*
X103820692Y-65231048D01*
X103820692Y-65231048D02*
X103748120Y-65231048D01*
X103748120Y-65231048D02*
X103651358Y-65206857D01*
X103651358Y-65206857D02*
X103602977Y-65182667D01*
X103602977Y-65182667D02*
X103554596Y-65134286D01*
X103554596Y-65134286D02*
X103530406Y-65061714D01*
X103530406Y-65061714D02*
X103530406Y-65013333D01*
X103530406Y-65013333D02*
X103554596Y-64940762D01*
X103554596Y-64940762D02*
X103578787Y-64916571D01*
X103530406Y-64747238D02*
X103530406Y-64432762D01*
X103530406Y-64432762D02*
X103723930Y-64602095D01*
X103723930Y-64602095D02*
X103723930Y-64529524D01*
X103723930Y-64529524D02*
X103748120Y-64481143D01*
X103748120Y-64481143D02*
X103772311Y-64456952D01*
X103772311Y-64456952D02*
X103820692Y-64432762D01*
X103820692Y-64432762D02*
X103941644Y-64432762D01*
X103941644Y-64432762D02*
X103990025Y-64456952D01*
X103990025Y-64456952D02*
X104014216Y-64481143D01*
X104014216Y-64481143D02*
X104038406Y-64529524D01*
X104038406Y-64529524D02*
X104038406Y-64674667D01*
X104038406Y-64674667D02*
X104014216Y-64723048D01*
X104014216Y-64723048D02*
X103990025Y-64747238D01*
X103530406Y-63997333D02*
X103530406Y-64094095D01*
X103530406Y-64094095D02*
X103554596Y-64142476D01*
X103554596Y-64142476D02*
X103578787Y-64166666D01*
X103578787Y-64166666D02*
X103651358Y-64215047D01*
X103651358Y-64215047D02*
X103748120Y-64239238D01*
X103748120Y-64239238D02*
X103941644Y-64239238D01*
X103941644Y-64239238D02*
X103990025Y-64215047D01*
X103990025Y-64215047D02*
X104014216Y-64190857D01*
X104014216Y-64190857D02*
X104038406Y-64142476D01*
X104038406Y-64142476D02*
X104038406Y-64045714D01*
X104038406Y-64045714D02*
X104014216Y-63997333D01*
X104014216Y-63997333D02*
X103990025Y-63973142D01*
X103990025Y-63973142D02*
X103941644Y-63948952D01*
X103941644Y-63948952D02*
X103820692Y-63948952D01*
X103820692Y-63948952D02*
X103772311Y-63973142D01*
X103772311Y-63973142D02*
X103748120Y-63997333D01*
X103748120Y-63997333D02*
X103723930Y-64045714D01*
X103723930Y-64045714D02*
X103723930Y-64142476D01*
X103723930Y-64142476D02*
X103748120Y-64190857D01*
X103748120Y-64190857D02*
X103772311Y-64215047D01*
X103772311Y-64215047D02*
X103820692Y-64239238D01*
X109693658Y-67064666D02*
X109693658Y-67306571D01*
X109693658Y-67306571D02*
X109109458Y-67306571D01*
X109165096Y-66919524D02*
X109137277Y-66895333D01*
X109137277Y-66895333D02*
X109109458Y-66846952D01*
X109109458Y-66846952D02*
X109109458Y-66726000D01*
X109109458Y-66726000D02*
X109137277Y-66677619D01*
X109137277Y-66677619D02*
X109165096Y-66653428D01*
X109165096Y-66653428D02*
X109220734Y-66629238D01*
X109220734Y-66629238D02*
X109276372Y-66629238D01*
X109276372Y-66629238D02*
X109359829Y-66653428D01*
X109359829Y-66653428D02*
X109693658Y-66943714D01*
X109693658Y-66943714D02*
X109693658Y-66629238D01*
D13*
X108333066Y-68833400D02*
X108333066Y-69051114D01*
X108333066Y-69051114D02*
X108574971Y-69072886D01*
X108574971Y-69072886D02*
X108550780Y-69051114D01*
X108550780Y-69051114D02*
X108526590Y-69007572D01*
X108526590Y-69007572D02*
X108526590Y-68898714D01*
X108526590Y-68898714D02*
X108550780Y-68855172D01*
X108550780Y-68855172D02*
X108574971Y-68833400D01*
X108574971Y-68833400D02*
X108623352Y-68811629D01*
X108623352Y-68811629D02*
X108744304Y-68811629D01*
X108744304Y-68811629D02*
X108792685Y-68833400D01*
X108792685Y-68833400D02*
X108816876Y-68855172D01*
X108816876Y-68855172D02*
X108841066Y-68898714D01*
X108841066Y-68898714D02*
X108841066Y-69007572D01*
X108841066Y-69007572D02*
X108816876Y-69051114D01*
X108816876Y-69051114D02*
X108792685Y-69072886D01*
X108333066Y-68419743D02*
X108333066Y-68506828D01*
X108333066Y-68506828D02*
X108357256Y-68550371D01*
X108357256Y-68550371D02*
X108381447Y-68572143D01*
X108381447Y-68572143D02*
X108454018Y-68615685D01*
X108454018Y-68615685D02*
X108550780Y-68637457D01*
X108550780Y-68637457D02*
X108744304Y-68637457D01*
X108744304Y-68637457D02*
X108792685Y-68615685D01*
X108792685Y-68615685D02*
X108816876Y-68593914D01*
X108816876Y-68593914D02*
X108841066Y-68550371D01*
X108841066Y-68550371D02*
X108841066Y-68463285D01*
X108841066Y-68463285D02*
X108816876Y-68419743D01*
X108816876Y-68419743D02*
X108792685Y-68397971D01*
X108792685Y-68397971D02*
X108744304Y-68376200D01*
X108744304Y-68376200D02*
X108623352Y-68376200D01*
X108623352Y-68376200D02*
X108574971Y-68397971D01*
X108574971Y-68397971D02*
X108550780Y-68419743D01*
X108550780Y-68419743D02*
X108526590Y-68463285D01*
X108526590Y-68463285D02*
X108526590Y-68550371D01*
X108526590Y-68550371D02*
X108550780Y-68593914D01*
X108550780Y-68593914D02*
X108574971Y-68615685D01*
X108574971Y-68615685D02*
X108623352Y-68637457D01*
X108333066Y-68093171D02*
X108333066Y-68049628D01*
X108333066Y-68049628D02*
X108357256Y-68006085D01*
X108357256Y-68006085D02*
X108381447Y-67984314D01*
X108381447Y-67984314D02*
X108429828Y-67962542D01*
X108429828Y-67962542D02*
X108526590Y-67940771D01*
X108526590Y-67940771D02*
X108647542Y-67940771D01*
X108647542Y-67940771D02*
X108744304Y-67962542D01*
X108744304Y-67962542D02*
X108792685Y-67984314D01*
X108792685Y-67984314D02*
X108816876Y-68006085D01*
X108816876Y-68006085D02*
X108841066Y-68049628D01*
X108841066Y-68049628D02*
X108841066Y-68093171D01*
X108841066Y-68093171D02*
X108816876Y-68136714D01*
X108816876Y-68136714D02*
X108792685Y-68158485D01*
X108792685Y-68158485D02*
X108744304Y-68180256D01*
X108744304Y-68180256D02*
X108647542Y-68202028D01*
X108647542Y-68202028D02*
X108526590Y-68202028D01*
X108526590Y-68202028D02*
X108429828Y-68180256D01*
X108429828Y-68180256D02*
X108381447Y-68158485D01*
X108381447Y-68158485D02*
X108357256Y-68136714D01*
X108357256Y-68136714D02*
X108333066Y-68093171D01*
X108502399Y-67744827D02*
X108841066Y-67744827D01*
X108550780Y-67744827D02*
X108526590Y-67723056D01*
X108526590Y-67723056D02*
X108502399Y-67679513D01*
X108502399Y-67679513D02*
X108502399Y-67614199D01*
X108502399Y-67614199D02*
X108526590Y-67570656D01*
X108526590Y-67570656D02*
X108574971Y-67548885D01*
X108574971Y-67548885D02*
X108841066Y-67548885D01*
D12*
X75250025Y-58216571D02*
X75274216Y-58240762D01*
X75274216Y-58240762D02*
X75298406Y-58313333D01*
X75298406Y-58313333D02*
X75298406Y-58361714D01*
X75298406Y-58361714D02*
X75274216Y-58434286D01*
X75274216Y-58434286D02*
X75225835Y-58482667D01*
X75225835Y-58482667D02*
X75177454Y-58506857D01*
X75177454Y-58506857D02*
X75080692Y-58531048D01*
X75080692Y-58531048D02*
X75008120Y-58531048D01*
X75008120Y-58531048D02*
X74911358Y-58506857D01*
X74911358Y-58506857D02*
X74862977Y-58482667D01*
X74862977Y-58482667D02*
X74814596Y-58434286D01*
X74814596Y-58434286D02*
X74790406Y-58361714D01*
X74790406Y-58361714D02*
X74790406Y-58313333D01*
X74790406Y-58313333D02*
X74814596Y-58240762D01*
X74814596Y-58240762D02*
X74838787Y-58216571D01*
X74790406Y-58047238D02*
X74790406Y-57732762D01*
X74790406Y-57732762D02*
X74983930Y-57902095D01*
X74983930Y-57902095D02*
X74983930Y-57829524D01*
X74983930Y-57829524D02*
X75008120Y-57781143D01*
X75008120Y-57781143D02*
X75032311Y-57756952D01*
X75032311Y-57756952D02*
X75080692Y-57732762D01*
X75080692Y-57732762D02*
X75201644Y-57732762D01*
X75201644Y-57732762D02*
X75250025Y-57756952D01*
X75250025Y-57756952D02*
X75274216Y-57781143D01*
X75274216Y-57781143D02*
X75298406Y-57829524D01*
X75298406Y-57829524D02*
X75298406Y-57974667D01*
X75298406Y-57974667D02*
X75274216Y-58023048D01*
X75274216Y-58023048D02*
X75250025Y-58047238D01*
X75298406Y-57248952D02*
X75298406Y-57539238D01*
X75298406Y-57394095D02*
X74790406Y-57394095D01*
X74790406Y-57394095D02*
X74862977Y-57442476D01*
X74862977Y-57442476D02*
X74911358Y-57490857D01*
X74911358Y-57490857D02*
X74935549Y-57539238D01*
D14*
X109708571Y-70837190D02*
X109684762Y-70861000D01*
X109684762Y-70861000D02*
X109613333Y-70884809D01*
X109613333Y-70884809D02*
X109565714Y-70884809D01*
X109565714Y-70884809D02*
X109494286Y-70861000D01*
X109494286Y-70861000D02*
X109446667Y-70813380D01*
X109446667Y-70813380D02*
X109422857Y-70765761D01*
X109422857Y-70765761D02*
X109399048Y-70670523D01*
X109399048Y-70670523D02*
X109399048Y-70599095D01*
X109399048Y-70599095D02*
X109422857Y-70503857D01*
X109422857Y-70503857D02*
X109446667Y-70456238D01*
X109446667Y-70456238D02*
X109494286Y-70408619D01*
X109494286Y-70408619D02*
X109565714Y-70384809D01*
X109565714Y-70384809D02*
X109613333Y-70384809D01*
X109613333Y-70384809D02*
X109684762Y-70408619D01*
X109684762Y-70408619D02*
X109708571Y-70432428D01*
X109899048Y-70432428D02*
X109922857Y-70408619D01*
X109922857Y-70408619D02*
X109970476Y-70384809D01*
X109970476Y-70384809D02*
X110089524Y-70384809D01*
X110089524Y-70384809D02*
X110137143Y-70408619D01*
X110137143Y-70408619D02*
X110160952Y-70432428D01*
X110160952Y-70432428D02*
X110184762Y-70480047D01*
X110184762Y-70480047D02*
X110184762Y-70527666D01*
X110184762Y-70527666D02*
X110160952Y-70599095D01*
X110160952Y-70599095D02*
X109875238Y-70884809D01*
X109875238Y-70884809D02*
X110184762Y-70884809D01*
X110494285Y-70384809D02*
X110541904Y-70384809D01*
X110541904Y-70384809D02*
X110589523Y-70408619D01*
X110589523Y-70408619D02*
X110613333Y-70432428D01*
X110613333Y-70432428D02*
X110637142Y-70480047D01*
X110637142Y-70480047D02*
X110660952Y-70575285D01*
X110660952Y-70575285D02*
X110660952Y-70694333D01*
X110660952Y-70694333D02*
X110637142Y-70789571D01*
X110637142Y-70789571D02*
X110613333Y-70837190D01*
X110613333Y-70837190D02*
X110589523Y-70861000D01*
X110589523Y-70861000D02*
X110541904Y-70884809D01*
X110541904Y-70884809D02*
X110494285Y-70884809D01*
X110494285Y-70884809D02*
X110446666Y-70861000D01*
X110446666Y-70861000D02*
X110422857Y-70837190D01*
X110422857Y-70837190D02*
X110399047Y-70789571D01*
X110399047Y-70789571D02*
X110375238Y-70694333D01*
X110375238Y-70694333D02*
X110375238Y-70575285D01*
X110375238Y-70575285D02*
X110399047Y-70480047D01*
X110399047Y-70480047D02*
X110422857Y-70432428D01*
X110422857Y-70432428D02*
X110446666Y-70408619D01*
X110446666Y-70408619D02*
X110494285Y-70384809D01*
D12*
X91648019Y-50836571D02*
X91675839Y-50860762D01*
X91675839Y-50860762D02*
X91703658Y-50933333D01*
X91703658Y-50933333D02*
X91703658Y-50981714D01*
X91703658Y-50981714D02*
X91675839Y-51054286D01*
X91675839Y-51054286D02*
X91620200Y-51102667D01*
X91620200Y-51102667D02*
X91564562Y-51126857D01*
X91564562Y-51126857D02*
X91453286Y-51151048D01*
X91453286Y-51151048D02*
X91369829Y-51151048D01*
X91369829Y-51151048D02*
X91258553Y-51126857D01*
X91258553Y-51126857D02*
X91202915Y-51102667D01*
X91202915Y-51102667D02*
X91147277Y-51054286D01*
X91147277Y-51054286D02*
X91119458Y-50981714D01*
X91119458Y-50981714D02*
X91119458Y-50933333D01*
X91119458Y-50933333D02*
X91147277Y-50860762D01*
X91147277Y-50860762D02*
X91175096Y-50836571D01*
X91119458Y-50667238D02*
X91119458Y-50352762D01*
X91119458Y-50352762D02*
X91342010Y-50522095D01*
X91342010Y-50522095D02*
X91342010Y-50449524D01*
X91342010Y-50449524D02*
X91369829Y-50401143D01*
X91369829Y-50401143D02*
X91397648Y-50376952D01*
X91397648Y-50376952D02*
X91453286Y-50352762D01*
X91453286Y-50352762D02*
X91592381Y-50352762D01*
X91592381Y-50352762D02*
X91648019Y-50376952D01*
X91648019Y-50376952D02*
X91675839Y-50401143D01*
X91675839Y-50401143D02*
X91703658Y-50449524D01*
X91703658Y-50449524D02*
X91703658Y-50594667D01*
X91703658Y-50594667D02*
X91675839Y-50643048D01*
X91675839Y-50643048D02*
X91648019Y-50667238D01*
X91703658Y-50110857D02*
X91703658Y-50014095D01*
X91703658Y-50014095D02*
X91675839Y-49965714D01*
X91675839Y-49965714D02*
X91648019Y-49941523D01*
X91648019Y-49941523D02*
X91564562Y-49893142D01*
X91564562Y-49893142D02*
X91453286Y-49868952D01*
X91453286Y-49868952D02*
X91230734Y-49868952D01*
X91230734Y-49868952D02*
X91175096Y-49893142D01*
X91175096Y-49893142D02*
X91147277Y-49917333D01*
X91147277Y-49917333D02*
X91119458Y-49965714D01*
X91119458Y-49965714D02*
X91119458Y-50062476D01*
X91119458Y-50062476D02*
X91147277Y-50110857D01*
X91147277Y-50110857D02*
X91175096Y-50135047D01*
X91175096Y-50135047D02*
X91230734Y-50159238D01*
X91230734Y-50159238D02*
X91369829Y-50159238D01*
X91369829Y-50159238D02*
X91425467Y-50135047D01*
X91425467Y-50135047D02*
X91453286Y-50110857D01*
X91453286Y-50110857D02*
X91481105Y-50062476D01*
X91481105Y-50062476D02*
X91481105Y-49965714D01*
X91481105Y-49965714D02*
X91453286Y-49917333D01*
X91453286Y-49917333D02*
X91425467Y-49893142D01*
X91425467Y-49893142D02*
X91369829Y-49868952D01*
D13*
X93447066Y-50586200D02*
X93447066Y-50847457D01*
X93447066Y-50716828D02*
X92939066Y-50716828D01*
X92939066Y-50716828D02*
X93011637Y-50760371D01*
X93011637Y-50760371D02*
X93060018Y-50803914D01*
X93060018Y-50803914D02*
X93084209Y-50847457D01*
X93108399Y-50194314D02*
X93447066Y-50194314D01*
X93108399Y-50390256D02*
X93374495Y-50390256D01*
X93374495Y-50390256D02*
X93422876Y-50368485D01*
X93422876Y-50368485D02*
X93447066Y-50324942D01*
X93447066Y-50324942D02*
X93447066Y-50259628D01*
X93447066Y-50259628D02*
X93422876Y-50216085D01*
X93422876Y-50216085D02*
X93398685Y-50194314D01*
D11*
X92940595Y-55224819D02*
X92940595Y-56034342D01*
X92940595Y-56034342D02*
X92988214Y-56129580D01*
X92988214Y-56129580D02*
X93035833Y-56177200D01*
X93035833Y-56177200D02*
X93131071Y-56224819D01*
X93131071Y-56224819D02*
X93321547Y-56224819D01*
X93321547Y-56224819D02*
X93416785Y-56177200D01*
X93416785Y-56177200D02*
X93464404Y-56129580D01*
X93464404Y-56129580D02*
X93512023Y-56034342D01*
X93512023Y-56034342D02*
X93512023Y-55224819D01*
X94464404Y-55224819D02*
X93988214Y-55224819D01*
X93988214Y-55224819D02*
X93940595Y-55701009D01*
X93940595Y-55701009D02*
X93988214Y-55653390D01*
X93988214Y-55653390D02*
X94083452Y-55605771D01*
X94083452Y-55605771D02*
X94321547Y-55605771D01*
X94321547Y-55605771D02*
X94416785Y-55653390D01*
X94416785Y-55653390D02*
X94464404Y-55701009D01*
X94464404Y-55701009D02*
X94512023Y-55796247D01*
X94512023Y-55796247D02*
X94512023Y-56034342D01*
X94512023Y-56034342D02*
X94464404Y-56129580D01*
X94464404Y-56129580D02*
X94416785Y-56177200D01*
X94416785Y-56177200D02*
X94321547Y-56224819D01*
X94321547Y-56224819D02*
X94083452Y-56224819D01*
X94083452Y-56224819D02*
X93988214Y-56177200D01*
X93988214Y-56177200D02*
X93940595Y-56129580D01*
D12*
X62200025Y-61796571D02*
X62224216Y-61820762D01*
X62224216Y-61820762D02*
X62248406Y-61893333D01*
X62248406Y-61893333D02*
X62248406Y-61941714D01*
X62248406Y-61941714D02*
X62224216Y-62014286D01*
X62224216Y-62014286D02*
X62175835Y-62062667D01*
X62175835Y-62062667D02*
X62127454Y-62086857D01*
X62127454Y-62086857D02*
X62030692Y-62111048D01*
X62030692Y-62111048D02*
X61958120Y-62111048D01*
X61958120Y-62111048D02*
X61861358Y-62086857D01*
X61861358Y-62086857D02*
X61812977Y-62062667D01*
X61812977Y-62062667D02*
X61764596Y-62014286D01*
X61764596Y-62014286D02*
X61740406Y-61941714D01*
X61740406Y-61941714D02*
X61740406Y-61893333D01*
X61740406Y-61893333D02*
X61764596Y-61820762D01*
X61764596Y-61820762D02*
X61788787Y-61796571D01*
X62248406Y-61312762D02*
X62248406Y-61603048D01*
X62248406Y-61457905D02*
X61740406Y-61457905D01*
X61740406Y-61457905D02*
X61812977Y-61506286D01*
X61812977Y-61506286D02*
X61861358Y-61554667D01*
X61861358Y-61554667D02*
X61885549Y-61603048D01*
X61740406Y-60998285D02*
X61740406Y-60949904D01*
X61740406Y-60949904D02*
X61764596Y-60901523D01*
X61764596Y-60901523D02*
X61788787Y-60877333D01*
X61788787Y-60877333D02*
X61837168Y-60853142D01*
X61837168Y-60853142D02*
X61933930Y-60828952D01*
X61933930Y-60828952D02*
X62054882Y-60828952D01*
X62054882Y-60828952D02*
X62151644Y-60853142D01*
X62151644Y-60853142D02*
X62200025Y-60877333D01*
X62200025Y-60877333D02*
X62224216Y-60901523D01*
X62224216Y-60901523D02*
X62248406Y-60949904D01*
X62248406Y-60949904D02*
X62248406Y-60998285D01*
X62248406Y-60998285D02*
X62224216Y-61046666D01*
X62224216Y-61046666D02*
X62200025Y-61070857D01*
X62200025Y-61070857D02*
X62151644Y-61095047D01*
X62151644Y-61095047D02*
X62054882Y-61119238D01*
X62054882Y-61119238D02*
X61933930Y-61119238D01*
X61933930Y-61119238D02*
X61837168Y-61095047D01*
X61837168Y-61095047D02*
X61788787Y-61070857D01*
X61788787Y-61070857D02*
X61764596Y-61046666D01*
X61764596Y-61046666D02*
X61740406Y-60998285D01*
D11*
X60979580Y-70832857D02*
X61027200Y-70880476D01*
X61027200Y-70880476D02*
X61074819Y-71023333D01*
X61074819Y-71023333D02*
X61074819Y-71118571D01*
X61074819Y-71118571D02*
X61027200Y-71261428D01*
X61027200Y-71261428D02*
X60931961Y-71356666D01*
X60931961Y-71356666D02*
X60836723Y-71404285D01*
X60836723Y-71404285D02*
X60646247Y-71451904D01*
X60646247Y-71451904D02*
X60503390Y-71451904D01*
X60503390Y-71451904D02*
X60312914Y-71404285D01*
X60312914Y-71404285D02*
X60217676Y-71356666D01*
X60217676Y-71356666D02*
X60122438Y-71261428D01*
X60122438Y-71261428D02*
X60074819Y-71118571D01*
X60074819Y-71118571D02*
X60074819Y-71023333D01*
X60074819Y-71023333D02*
X60122438Y-70880476D01*
X60122438Y-70880476D02*
X60170057Y-70832857D01*
X60408152Y-69975714D02*
X61074819Y-69975714D01*
X60027200Y-70213809D02*
X60741485Y-70451904D01*
X60741485Y-70451904D02*
X60741485Y-69832857D01*
X60170057Y-69499523D02*
X60122438Y-69451904D01*
X60122438Y-69451904D02*
X60074819Y-69356666D01*
X60074819Y-69356666D02*
X60074819Y-69118571D01*
X60074819Y-69118571D02*
X60122438Y-69023333D01*
X60122438Y-69023333D02*
X60170057Y-68975714D01*
X60170057Y-68975714D02*
X60265295Y-68928095D01*
X60265295Y-68928095D02*
X60360533Y-68928095D01*
X60360533Y-68928095D02*
X60503390Y-68975714D01*
X60503390Y-68975714D02*
X61074819Y-69547142D01*
X61074819Y-69547142D02*
X61074819Y-68928095D01*
D12*
X65437658Y-69364666D02*
X65159467Y-69534000D01*
X65437658Y-69654952D02*
X64853458Y-69654952D01*
X64853458Y-69654952D02*
X64853458Y-69461428D01*
X64853458Y-69461428D02*
X64881277Y-69413047D01*
X64881277Y-69413047D02*
X64909096Y-69388857D01*
X64909096Y-69388857D02*
X64964734Y-69364666D01*
X64964734Y-69364666D02*
X65048191Y-69364666D01*
X65048191Y-69364666D02*
X65103829Y-69388857D01*
X65103829Y-69388857D02*
X65131648Y-69413047D01*
X65131648Y-69413047D02*
X65159467Y-69461428D01*
X65159467Y-69461428D02*
X65159467Y-69654952D01*
X65048191Y-68929238D02*
X65437658Y-68929238D01*
X64825639Y-69050190D02*
X65242924Y-69171143D01*
X65242924Y-69171143D02*
X65242924Y-68856666D01*
D13*
X66251066Y-68319227D02*
X65743066Y-68319227D01*
X65743066Y-68319227D02*
X66251066Y-68057970D01*
X66251066Y-68057970D02*
X65743066Y-68057970D01*
X66202685Y-67578999D02*
X66226876Y-67600771D01*
X66226876Y-67600771D02*
X66251066Y-67666085D01*
X66251066Y-67666085D02*
X66251066Y-67709628D01*
X66251066Y-67709628D02*
X66226876Y-67774942D01*
X66226876Y-67774942D02*
X66178495Y-67818485D01*
X66178495Y-67818485D02*
X66130114Y-67840256D01*
X66130114Y-67840256D02*
X66033352Y-67862028D01*
X66033352Y-67862028D02*
X65960780Y-67862028D01*
X65960780Y-67862028D02*
X65864018Y-67840256D01*
X65864018Y-67840256D02*
X65815637Y-67818485D01*
X65815637Y-67818485D02*
X65767256Y-67774942D01*
X65767256Y-67774942D02*
X65743066Y-67709628D01*
X65743066Y-67709628D02*
X65743066Y-67666085D01*
X65743066Y-67666085D02*
X65767256Y-67600771D01*
X65767256Y-67600771D02*
X65791447Y-67578999D01*
D14*
X109688571Y-70137190D02*
X109664762Y-70161000D01*
X109664762Y-70161000D02*
X109593333Y-70184809D01*
X109593333Y-70184809D02*
X109545714Y-70184809D01*
X109545714Y-70184809D02*
X109474286Y-70161000D01*
X109474286Y-70161000D02*
X109426667Y-70113380D01*
X109426667Y-70113380D02*
X109402857Y-70065761D01*
X109402857Y-70065761D02*
X109379048Y-69970523D01*
X109379048Y-69970523D02*
X109379048Y-69899095D01*
X109379048Y-69899095D02*
X109402857Y-69803857D01*
X109402857Y-69803857D02*
X109426667Y-69756238D01*
X109426667Y-69756238D02*
X109474286Y-69708619D01*
X109474286Y-69708619D02*
X109545714Y-69684809D01*
X109545714Y-69684809D02*
X109593333Y-69684809D01*
X109593333Y-69684809D02*
X109664762Y-69708619D01*
X109664762Y-69708619D02*
X109688571Y-69732428D01*
X110164762Y-70184809D02*
X109879048Y-70184809D01*
X110021905Y-70184809D02*
X110021905Y-69684809D01*
X110021905Y-69684809D02*
X109974286Y-69756238D01*
X109974286Y-69756238D02*
X109926667Y-69803857D01*
X109926667Y-69803857D02*
X109879048Y-69827666D01*
X110402857Y-70184809D02*
X110498095Y-70184809D01*
X110498095Y-70184809D02*
X110545714Y-70161000D01*
X110545714Y-70161000D02*
X110569523Y-70137190D01*
X110569523Y-70137190D02*
X110617142Y-70065761D01*
X110617142Y-70065761D02*
X110640952Y-69970523D01*
X110640952Y-69970523D02*
X110640952Y-69780047D01*
X110640952Y-69780047D02*
X110617142Y-69732428D01*
X110617142Y-69732428D02*
X110593333Y-69708619D01*
X110593333Y-69708619D02*
X110545714Y-69684809D01*
X110545714Y-69684809D02*
X110450476Y-69684809D01*
X110450476Y-69684809D02*
X110402857Y-69708619D01*
X110402857Y-69708619D02*
X110379047Y-69732428D01*
X110379047Y-69732428D02*
X110355238Y-69780047D01*
X110355238Y-69780047D02*
X110355238Y-69899095D01*
X110355238Y-69899095D02*
X110379047Y-69946714D01*
X110379047Y-69946714D02*
X110402857Y-69970523D01*
X110402857Y-69970523D02*
X110450476Y-69994333D01*
X110450476Y-69994333D02*
X110545714Y-69994333D01*
X110545714Y-69994333D02*
X110593333Y-69970523D01*
X110593333Y-69970523D02*
X110617142Y-69946714D01*
X110617142Y-69946714D02*
X110640952Y-69899095D01*
D12*
X96413428Y-55808019D02*
X96389237Y-55835839D01*
X96389237Y-55835839D02*
X96316666Y-55863658D01*
X96316666Y-55863658D02*
X96268285Y-55863658D01*
X96268285Y-55863658D02*
X96195713Y-55835839D01*
X96195713Y-55835839D02*
X96147332Y-55780200D01*
X96147332Y-55780200D02*
X96123142Y-55724562D01*
X96123142Y-55724562D02*
X96098951Y-55613286D01*
X96098951Y-55613286D02*
X96098951Y-55529829D01*
X96098951Y-55529829D02*
X96123142Y-55418553D01*
X96123142Y-55418553D02*
X96147332Y-55362915D01*
X96147332Y-55362915D02*
X96195713Y-55307277D01*
X96195713Y-55307277D02*
X96268285Y-55279458D01*
X96268285Y-55279458D02*
X96316666Y-55279458D01*
X96316666Y-55279458D02*
X96389237Y-55307277D01*
X96389237Y-55307277D02*
X96413428Y-55335096D01*
X96848856Y-55474191D02*
X96848856Y-55863658D01*
X96727904Y-55251639D02*
X96606951Y-55668924D01*
X96606951Y-55668924D02*
X96921428Y-55668924D01*
X97211714Y-55279458D02*
X97260095Y-55279458D01*
X97260095Y-55279458D02*
X97308476Y-55307277D01*
X97308476Y-55307277D02*
X97332666Y-55335096D01*
X97332666Y-55335096D02*
X97356857Y-55390734D01*
X97356857Y-55390734D02*
X97381047Y-55502010D01*
X97381047Y-55502010D02*
X97381047Y-55641105D01*
X97381047Y-55641105D02*
X97356857Y-55752381D01*
X97356857Y-55752381D02*
X97332666Y-55808019D01*
X97332666Y-55808019D02*
X97308476Y-55835839D01*
X97308476Y-55835839D02*
X97260095Y-55863658D01*
X97260095Y-55863658D02*
X97211714Y-55863658D01*
X97211714Y-55863658D02*
X97163333Y-55835839D01*
X97163333Y-55835839D02*
X97139142Y-55808019D01*
X97139142Y-55808019D02*
X97114952Y-55752381D01*
X97114952Y-55752381D02*
X97090761Y-55641105D01*
X97090761Y-55641105D02*
X97090761Y-55502010D01*
X97090761Y-55502010D02*
X97114952Y-55390734D01*
X97114952Y-55390734D02*
X97139142Y-55335096D01*
X97139142Y-55335096D02*
X97163333Y-55307277D01*
X97163333Y-55307277D02*
X97211714Y-55279458D01*
D13*
X96663799Y-54061066D02*
X96402542Y-54061066D01*
X96533171Y-54061066D02*
X96533171Y-53553066D01*
X96533171Y-53553066D02*
X96489628Y-53625637D01*
X96489628Y-53625637D02*
X96446085Y-53674018D01*
X96446085Y-53674018D02*
X96402542Y-53698209D01*
X97055686Y-53722399D02*
X97055686Y-54061066D01*
X96859743Y-53722399D02*
X96859743Y-53988495D01*
X96859743Y-53988495D02*
X96881514Y-54036876D01*
X96881514Y-54036876D02*
X96925057Y-54061066D01*
X96925057Y-54061066D02*
X96990371Y-54061066D01*
X96990371Y-54061066D02*
X97033914Y-54036876D01*
X97033914Y-54036876D02*
X97055686Y-54012685D01*
D12*
X61805333Y-65208019D02*
X61781142Y-65235839D01*
X61781142Y-65235839D02*
X61708571Y-65263658D01*
X61708571Y-65263658D02*
X61660190Y-65263658D01*
X61660190Y-65263658D02*
X61587618Y-65235839D01*
X61587618Y-65235839D02*
X61539237Y-65180200D01*
X61539237Y-65180200D02*
X61515047Y-65124562D01*
X61515047Y-65124562D02*
X61490856Y-65013286D01*
X61490856Y-65013286D02*
X61490856Y-64929829D01*
X61490856Y-64929829D02*
X61515047Y-64818553D01*
X61515047Y-64818553D02*
X61539237Y-64762915D01*
X61539237Y-64762915D02*
X61587618Y-64707277D01*
X61587618Y-64707277D02*
X61660190Y-64679458D01*
X61660190Y-64679458D02*
X61708571Y-64679458D01*
X61708571Y-64679458D02*
X61781142Y-64707277D01*
X61781142Y-64707277D02*
X61805333Y-64735096D01*
X61998856Y-64735096D02*
X62023047Y-64707277D01*
X62023047Y-64707277D02*
X62071428Y-64679458D01*
X62071428Y-64679458D02*
X62192380Y-64679458D01*
X62192380Y-64679458D02*
X62240761Y-64707277D01*
X62240761Y-64707277D02*
X62264952Y-64735096D01*
X62264952Y-64735096D02*
X62289142Y-64790734D01*
X62289142Y-64790734D02*
X62289142Y-64846372D01*
X62289142Y-64846372D02*
X62264952Y-64929829D01*
X62264952Y-64929829D02*
X61974666Y-65263658D01*
X61974666Y-65263658D02*
X62289142Y-65263658D01*
D13*
X62734828Y-65573066D02*
X62778371Y-65573066D01*
X62778371Y-65573066D02*
X62821914Y-65597256D01*
X62821914Y-65597256D02*
X62843686Y-65621447D01*
X62843686Y-65621447D02*
X62865457Y-65669828D01*
X62865457Y-65669828D02*
X62887228Y-65766590D01*
X62887228Y-65766590D02*
X62887228Y-65887542D01*
X62887228Y-65887542D02*
X62865457Y-65984304D01*
X62865457Y-65984304D02*
X62843686Y-66032685D01*
X62843686Y-66032685D02*
X62821914Y-66056876D01*
X62821914Y-66056876D02*
X62778371Y-66081066D01*
X62778371Y-66081066D02*
X62734828Y-66081066D01*
X62734828Y-66081066D02*
X62691286Y-66056876D01*
X62691286Y-66056876D02*
X62669514Y-66032685D01*
X62669514Y-66032685D02*
X62647743Y-65984304D01*
X62647743Y-65984304D02*
X62625971Y-65887542D01*
X62625971Y-65887542D02*
X62625971Y-65766590D01*
X62625971Y-65766590D02*
X62647743Y-65669828D01*
X62647743Y-65669828D02*
X62669514Y-65621447D01*
X62669514Y-65621447D02*
X62691286Y-65597256D01*
X62691286Y-65597256D02*
X62734828Y-65573066D01*
X63083172Y-66032685D02*
X63104943Y-66056876D01*
X63104943Y-66056876D02*
X63083172Y-66081066D01*
X63083172Y-66081066D02*
X63061400Y-66056876D01*
X63061400Y-66056876D02*
X63083172Y-66032685D01*
X63083172Y-66032685D02*
X63083172Y-66081066D01*
X63540371Y-66081066D02*
X63279114Y-66081066D01*
X63409743Y-66081066D02*
X63409743Y-65573066D01*
X63409743Y-65573066D02*
X63366200Y-65645637D01*
X63366200Y-65645637D02*
X63322657Y-65694018D01*
X63322657Y-65694018D02*
X63279114Y-65718209D01*
X63932258Y-65742399D02*
X63932258Y-66081066D01*
X63736315Y-65742399D02*
X63736315Y-66008495D01*
X63736315Y-66008495D02*
X63758086Y-66056876D01*
X63758086Y-66056876D02*
X63801629Y-66081066D01*
X63801629Y-66081066D02*
X63866943Y-66081066D01*
X63866943Y-66081066D02*
X63910486Y-66056876D01*
X63910486Y-66056876D02*
X63932258Y-66032685D01*
D12*
X62483428Y-50970025D02*
X62459237Y-50994216D01*
X62459237Y-50994216D02*
X62386666Y-51018406D01*
X62386666Y-51018406D02*
X62338285Y-51018406D01*
X62338285Y-51018406D02*
X62265713Y-50994216D01*
X62265713Y-50994216D02*
X62217332Y-50945835D01*
X62217332Y-50945835D02*
X62193142Y-50897454D01*
X62193142Y-50897454D02*
X62168951Y-50800692D01*
X62168951Y-50800692D02*
X62168951Y-50728120D01*
X62168951Y-50728120D02*
X62193142Y-50631358D01*
X62193142Y-50631358D02*
X62217332Y-50582977D01*
X62217332Y-50582977D02*
X62265713Y-50534596D01*
X62265713Y-50534596D02*
X62338285Y-50510406D01*
X62338285Y-50510406D02*
X62386666Y-50510406D01*
X62386666Y-50510406D02*
X62459237Y-50534596D01*
X62459237Y-50534596D02*
X62483428Y-50558787D01*
X62967237Y-51018406D02*
X62676951Y-51018406D01*
X62822094Y-51018406D02*
X62822094Y-50510406D01*
X62822094Y-50510406D02*
X62773713Y-50582977D01*
X62773713Y-50582977D02*
X62725332Y-50631358D01*
X62725332Y-50631358D02*
X62676951Y-50655549D01*
X63402666Y-50679739D02*
X63402666Y-51018406D01*
X63281714Y-50486216D02*
X63160761Y-50849073D01*
X63160761Y-50849073D02*
X63475238Y-50849073D01*
D14*
X110518571Y-65647190D02*
X110494762Y-65671000D01*
X110494762Y-65671000D02*
X110423333Y-65694809D01*
X110423333Y-65694809D02*
X110375714Y-65694809D01*
X110375714Y-65694809D02*
X110304286Y-65671000D01*
X110304286Y-65671000D02*
X110256667Y-65623380D01*
X110256667Y-65623380D02*
X110232857Y-65575761D01*
X110232857Y-65575761D02*
X110209048Y-65480523D01*
X110209048Y-65480523D02*
X110209048Y-65409095D01*
X110209048Y-65409095D02*
X110232857Y-65313857D01*
X110232857Y-65313857D02*
X110256667Y-65266238D01*
X110256667Y-65266238D02*
X110304286Y-65218619D01*
X110304286Y-65218619D02*
X110375714Y-65194809D01*
X110375714Y-65194809D02*
X110423333Y-65194809D01*
X110423333Y-65194809D02*
X110494762Y-65218619D01*
X110494762Y-65218619D02*
X110518571Y-65242428D01*
X110709048Y-65242428D02*
X110732857Y-65218619D01*
X110732857Y-65218619D02*
X110780476Y-65194809D01*
X110780476Y-65194809D02*
X110899524Y-65194809D01*
X110899524Y-65194809D02*
X110947143Y-65218619D01*
X110947143Y-65218619D02*
X110970952Y-65242428D01*
X110970952Y-65242428D02*
X110994762Y-65290047D01*
X110994762Y-65290047D02*
X110994762Y-65337666D01*
X110994762Y-65337666D02*
X110970952Y-65409095D01*
X110970952Y-65409095D02*
X110685238Y-65694809D01*
X110685238Y-65694809D02*
X110994762Y-65694809D01*
X111470952Y-65694809D02*
X111185238Y-65694809D01*
X111328095Y-65694809D02*
X111328095Y-65194809D01*
X111328095Y-65194809D02*
X111280476Y-65266238D01*
X111280476Y-65266238D02*
X111232857Y-65313857D01*
X111232857Y-65313857D02*
X111185238Y-65337666D01*
D12*
X63195333Y-70553658D02*
X63025999Y-70275467D01*
X62905047Y-70553658D02*
X62905047Y-69969458D01*
X62905047Y-69969458D02*
X63098571Y-69969458D01*
X63098571Y-69969458D02*
X63146952Y-69997277D01*
X63146952Y-69997277D02*
X63171142Y-70025096D01*
X63171142Y-70025096D02*
X63195333Y-70080734D01*
X63195333Y-70080734D02*
X63195333Y-70164191D01*
X63195333Y-70164191D02*
X63171142Y-70219829D01*
X63171142Y-70219829D02*
X63146952Y-70247648D01*
X63146952Y-70247648D02*
X63098571Y-70275467D01*
X63098571Y-70275467D02*
X62905047Y-70275467D01*
X63679142Y-70553658D02*
X63388856Y-70553658D01*
X63533999Y-70553658D02*
X63533999Y-69969458D01*
X63533999Y-69969458D02*
X63485618Y-70052915D01*
X63485618Y-70052915D02*
X63437237Y-70108553D01*
X63437237Y-70108553D02*
X63388856Y-70136372D01*
D13*
X62931656Y-68281447D02*
X62953428Y-68257256D01*
X62953428Y-68257256D02*
X62996971Y-68233066D01*
X62996971Y-68233066D02*
X63105828Y-68233066D01*
X63105828Y-68233066D02*
X63149371Y-68257256D01*
X63149371Y-68257256D02*
X63171142Y-68281447D01*
X63171142Y-68281447D02*
X63192913Y-68329828D01*
X63192913Y-68329828D02*
X63192913Y-68378209D01*
X63192913Y-68378209D02*
X63171142Y-68450780D01*
X63171142Y-68450780D02*
X62909885Y-68741066D01*
X62909885Y-68741066D02*
X63192913Y-68741066D01*
X63584800Y-68402399D02*
X63584800Y-68741066D01*
X63475942Y-68208876D02*
X63367085Y-68571733D01*
X63367085Y-68571733D02*
X63650114Y-68571733D01*
D12*
X65100025Y-62434666D02*
X65124216Y-62458857D01*
X65124216Y-62458857D02*
X65148406Y-62531428D01*
X65148406Y-62531428D02*
X65148406Y-62579809D01*
X65148406Y-62579809D02*
X65124216Y-62652381D01*
X65124216Y-62652381D02*
X65075835Y-62700762D01*
X65075835Y-62700762D02*
X65027454Y-62724952D01*
X65027454Y-62724952D02*
X64930692Y-62749143D01*
X64930692Y-62749143D02*
X64858120Y-62749143D01*
X64858120Y-62749143D02*
X64761358Y-62724952D01*
X64761358Y-62724952D02*
X64712977Y-62700762D01*
X64712977Y-62700762D02*
X64664596Y-62652381D01*
X64664596Y-62652381D02*
X64640406Y-62579809D01*
X64640406Y-62579809D02*
X64640406Y-62531428D01*
X64640406Y-62531428D02*
X64664596Y-62458857D01*
X64664596Y-62458857D02*
X64688787Y-62434666D01*
X65148406Y-61950857D02*
X65148406Y-62241143D01*
X65148406Y-62096000D02*
X64640406Y-62096000D01*
X64640406Y-62096000D02*
X64712977Y-62144381D01*
X64712977Y-62144381D02*
X64761358Y-62192762D01*
X64761358Y-62192762D02*
X64785549Y-62241143D01*
D11*
X68874819Y-56539404D02*
X69684342Y-56539404D01*
X69684342Y-56539404D02*
X69779580Y-56491785D01*
X69779580Y-56491785D02*
X69827200Y-56444166D01*
X69827200Y-56444166D02*
X69874819Y-56348928D01*
X69874819Y-56348928D02*
X69874819Y-56158452D01*
X69874819Y-56158452D02*
X69827200Y-56063214D01*
X69827200Y-56063214D02*
X69779580Y-56015595D01*
X69779580Y-56015595D02*
X69684342Y-55967976D01*
X69684342Y-55967976D02*
X68874819Y-55967976D01*
X69874819Y-54967976D02*
X69874819Y-55539404D01*
X69874819Y-55253690D02*
X68874819Y-55253690D01*
X68874819Y-55253690D02*
X69017676Y-55348928D01*
X69017676Y-55348928D02*
X69112914Y-55444166D01*
X69112914Y-55444166D02*
X69160533Y-55539404D01*
D14*
X108428571Y-57337190D02*
X108404762Y-57361000D01*
X108404762Y-57361000D02*
X108333333Y-57384809D01*
X108333333Y-57384809D02*
X108285714Y-57384809D01*
X108285714Y-57384809D02*
X108214286Y-57361000D01*
X108214286Y-57361000D02*
X108166667Y-57313380D01*
X108166667Y-57313380D02*
X108142857Y-57265761D01*
X108142857Y-57265761D02*
X108119048Y-57170523D01*
X108119048Y-57170523D02*
X108119048Y-57099095D01*
X108119048Y-57099095D02*
X108142857Y-57003857D01*
X108142857Y-57003857D02*
X108166667Y-56956238D01*
X108166667Y-56956238D02*
X108214286Y-56908619D01*
X108214286Y-56908619D02*
X108285714Y-56884809D01*
X108285714Y-56884809D02*
X108333333Y-56884809D01*
X108333333Y-56884809D02*
X108404762Y-56908619D01*
X108404762Y-56908619D02*
X108428571Y-56932428D01*
X108595238Y-56884809D02*
X108904762Y-56884809D01*
X108904762Y-56884809D02*
X108738095Y-57075285D01*
X108738095Y-57075285D02*
X108809524Y-57075285D01*
X108809524Y-57075285D02*
X108857143Y-57099095D01*
X108857143Y-57099095D02*
X108880952Y-57122904D01*
X108880952Y-57122904D02*
X108904762Y-57170523D01*
X108904762Y-57170523D02*
X108904762Y-57289571D01*
X108904762Y-57289571D02*
X108880952Y-57337190D01*
X108880952Y-57337190D02*
X108857143Y-57361000D01*
X108857143Y-57361000D02*
X108809524Y-57384809D01*
X108809524Y-57384809D02*
X108666667Y-57384809D01*
X108666667Y-57384809D02*
X108619048Y-57361000D01*
X108619048Y-57361000D02*
X108595238Y-57337190D01*
X109190476Y-57099095D02*
X109142857Y-57075285D01*
X109142857Y-57075285D02*
X109119047Y-57051476D01*
X109119047Y-57051476D02*
X109095238Y-57003857D01*
X109095238Y-57003857D02*
X109095238Y-56980047D01*
X109095238Y-56980047D02*
X109119047Y-56932428D01*
X109119047Y-56932428D02*
X109142857Y-56908619D01*
X109142857Y-56908619D02*
X109190476Y-56884809D01*
X109190476Y-56884809D02*
X109285714Y-56884809D01*
X109285714Y-56884809D02*
X109333333Y-56908619D01*
X109333333Y-56908619D02*
X109357142Y-56932428D01*
X109357142Y-56932428D02*
X109380952Y-56980047D01*
X109380952Y-56980047D02*
X109380952Y-57003857D01*
X109380952Y-57003857D02*
X109357142Y-57051476D01*
X109357142Y-57051476D02*
X109333333Y-57075285D01*
X109333333Y-57075285D02*
X109285714Y-57099095D01*
X109285714Y-57099095D02*
X109190476Y-57099095D01*
X109190476Y-57099095D02*
X109142857Y-57122904D01*
X109142857Y-57122904D02*
X109119047Y-57146714D01*
X109119047Y-57146714D02*
X109095238Y-57194333D01*
X109095238Y-57194333D02*
X109095238Y-57289571D01*
X109095238Y-57289571D02*
X109119047Y-57337190D01*
X109119047Y-57337190D02*
X109142857Y-57361000D01*
X109142857Y-57361000D02*
X109190476Y-57384809D01*
X109190476Y-57384809D02*
X109285714Y-57384809D01*
X109285714Y-57384809D02*
X109333333Y-57361000D01*
X109333333Y-57361000D02*
X109357142Y-57337190D01*
X109357142Y-57337190D02*
X109380952Y-57289571D01*
X109380952Y-57289571D02*
X109380952Y-57194333D01*
X109380952Y-57194333D02*
X109357142Y-57146714D01*
X109357142Y-57146714D02*
X109333333Y-57122904D01*
X109333333Y-57122904D02*
X109285714Y-57099095D01*
D12*
X61170025Y-61766571D02*
X61194216Y-61790762D01*
X61194216Y-61790762D02*
X61218406Y-61863333D01*
X61218406Y-61863333D02*
X61218406Y-61911714D01*
X61218406Y-61911714D02*
X61194216Y-61984286D01*
X61194216Y-61984286D02*
X61145835Y-62032667D01*
X61145835Y-62032667D02*
X61097454Y-62056857D01*
X61097454Y-62056857D02*
X61000692Y-62081048D01*
X61000692Y-62081048D02*
X60928120Y-62081048D01*
X60928120Y-62081048D02*
X60831358Y-62056857D01*
X60831358Y-62056857D02*
X60782977Y-62032667D01*
X60782977Y-62032667D02*
X60734596Y-61984286D01*
X60734596Y-61984286D02*
X60710406Y-61911714D01*
X60710406Y-61911714D02*
X60710406Y-61863333D01*
X60710406Y-61863333D02*
X60734596Y-61790762D01*
X60734596Y-61790762D02*
X60758787Y-61766571D01*
X61218406Y-61282762D02*
X61218406Y-61573048D01*
X61218406Y-61427905D02*
X60710406Y-61427905D01*
X60710406Y-61427905D02*
X60782977Y-61476286D01*
X60782977Y-61476286D02*
X60831358Y-61524667D01*
X60831358Y-61524667D02*
X60855549Y-61573048D01*
X61218406Y-60798952D02*
X61218406Y-61089238D01*
X61218406Y-60944095D02*
X60710406Y-60944095D01*
X60710406Y-60944095D02*
X60782977Y-60992476D01*
X60782977Y-60992476D02*
X60831358Y-61040857D01*
X60831358Y-61040857D02*
X60855549Y-61089238D01*
D14*
X71518571Y-45907309D02*
X71351905Y-45669214D01*
X71232857Y-45907309D02*
X71232857Y-45407309D01*
X71232857Y-45407309D02*
X71423333Y-45407309D01*
X71423333Y-45407309D02*
X71470952Y-45431119D01*
X71470952Y-45431119D02*
X71494762Y-45454928D01*
X71494762Y-45454928D02*
X71518571Y-45502547D01*
X71518571Y-45502547D02*
X71518571Y-45573976D01*
X71518571Y-45573976D02*
X71494762Y-45621595D01*
X71494762Y-45621595D02*
X71470952Y-45645404D01*
X71470952Y-45645404D02*
X71423333Y-45669214D01*
X71423333Y-45669214D02*
X71232857Y-45669214D01*
X71994762Y-45907309D02*
X71709048Y-45907309D01*
X71851905Y-45907309D02*
X71851905Y-45407309D01*
X71851905Y-45407309D02*
X71804286Y-45478738D01*
X71804286Y-45478738D02*
X71756667Y-45526357D01*
X71756667Y-45526357D02*
X71709048Y-45550166D01*
X72423333Y-45407309D02*
X72328095Y-45407309D01*
X72328095Y-45407309D02*
X72280476Y-45431119D01*
X72280476Y-45431119D02*
X72256666Y-45454928D01*
X72256666Y-45454928D02*
X72209047Y-45526357D01*
X72209047Y-45526357D02*
X72185238Y-45621595D01*
X72185238Y-45621595D02*
X72185238Y-45812071D01*
X72185238Y-45812071D02*
X72209047Y-45859690D01*
X72209047Y-45859690D02*
X72232857Y-45883500D01*
X72232857Y-45883500D02*
X72280476Y-45907309D01*
X72280476Y-45907309D02*
X72375714Y-45907309D01*
X72375714Y-45907309D02*
X72423333Y-45883500D01*
X72423333Y-45883500D02*
X72447142Y-45859690D01*
X72447142Y-45859690D02*
X72470952Y-45812071D01*
X72470952Y-45812071D02*
X72470952Y-45693023D01*
X72470952Y-45693023D02*
X72447142Y-45645404D01*
X72447142Y-45645404D02*
X72423333Y-45621595D01*
X72423333Y-45621595D02*
X72375714Y-45597785D01*
X72375714Y-45597785D02*
X72280476Y-45597785D01*
X72280476Y-45597785D02*
X72232857Y-45621595D01*
X72232857Y-45621595D02*
X72209047Y-45645404D01*
X72209047Y-45645404D02*
X72185238Y-45693023D01*
D12*
X103565333Y-69763658D02*
X103323428Y-69763658D01*
X103323428Y-69763658D02*
X103323428Y-69179458D01*
X104000761Y-69763658D02*
X103710475Y-69763658D01*
X103855618Y-69763658D02*
X103855618Y-69179458D01*
X103855618Y-69179458D02*
X103807237Y-69262915D01*
X103807237Y-69262915D02*
X103758856Y-69318553D01*
X103758856Y-69318553D02*
X103710475Y-69346372D01*
D13*
X103726599Y-67519066D02*
X103508885Y-67519066D01*
X103508885Y-67519066D02*
X103487113Y-67760971D01*
X103487113Y-67760971D02*
X103508885Y-67736780D01*
X103508885Y-67736780D02*
X103552428Y-67712590D01*
X103552428Y-67712590D02*
X103661285Y-67712590D01*
X103661285Y-67712590D02*
X103704828Y-67736780D01*
X103704828Y-67736780D02*
X103726599Y-67760971D01*
X103726599Y-67760971D02*
X103748370Y-67809352D01*
X103748370Y-67809352D02*
X103748370Y-67930304D01*
X103748370Y-67930304D02*
X103726599Y-67978685D01*
X103726599Y-67978685D02*
X103704828Y-68002876D01*
X103704828Y-68002876D02*
X103661285Y-68027066D01*
X103661285Y-68027066D02*
X103552428Y-68027066D01*
X103552428Y-68027066D02*
X103508885Y-68002876D01*
X103508885Y-68002876D02*
X103487113Y-67978685D01*
X104140257Y-67519066D02*
X104053171Y-67519066D01*
X104053171Y-67519066D02*
X104009628Y-67543256D01*
X104009628Y-67543256D02*
X103987857Y-67567447D01*
X103987857Y-67567447D02*
X103944314Y-67640018D01*
X103944314Y-67640018D02*
X103922542Y-67736780D01*
X103922542Y-67736780D02*
X103922542Y-67930304D01*
X103922542Y-67930304D02*
X103944314Y-67978685D01*
X103944314Y-67978685D02*
X103966085Y-68002876D01*
X103966085Y-68002876D02*
X104009628Y-68027066D01*
X104009628Y-68027066D02*
X104096714Y-68027066D01*
X104096714Y-68027066D02*
X104140257Y-68002876D01*
X104140257Y-68002876D02*
X104162028Y-67978685D01*
X104162028Y-67978685D02*
X104183799Y-67930304D01*
X104183799Y-67930304D02*
X104183799Y-67809352D01*
X104183799Y-67809352D02*
X104162028Y-67760971D01*
X104162028Y-67760971D02*
X104140257Y-67736780D01*
X104140257Y-67736780D02*
X104096714Y-67712590D01*
X104096714Y-67712590D02*
X104009628Y-67712590D01*
X104009628Y-67712590D02*
X103966085Y-67736780D01*
X103966085Y-67736780D02*
X103944314Y-67760971D01*
X103944314Y-67760971D02*
X103922542Y-67809352D01*
X104466828Y-67519066D02*
X104510371Y-67519066D01*
X104510371Y-67519066D02*
X104553914Y-67543256D01*
X104553914Y-67543256D02*
X104575686Y-67567447D01*
X104575686Y-67567447D02*
X104597457Y-67615828D01*
X104597457Y-67615828D02*
X104619228Y-67712590D01*
X104619228Y-67712590D02*
X104619228Y-67833542D01*
X104619228Y-67833542D02*
X104597457Y-67930304D01*
X104597457Y-67930304D02*
X104575686Y-67978685D01*
X104575686Y-67978685D02*
X104553914Y-68002876D01*
X104553914Y-68002876D02*
X104510371Y-68027066D01*
X104510371Y-68027066D02*
X104466828Y-68027066D01*
X104466828Y-68027066D02*
X104423286Y-68002876D01*
X104423286Y-68002876D02*
X104401514Y-67978685D01*
X104401514Y-67978685D02*
X104379743Y-67930304D01*
X104379743Y-67930304D02*
X104357971Y-67833542D01*
X104357971Y-67833542D02*
X104357971Y-67712590D01*
X104357971Y-67712590D02*
X104379743Y-67615828D01*
X104379743Y-67615828D02*
X104401514Y-67567447D01*
X104401514Y-67567447D02*
X104423286Y-67543256D01*
X104423286Y-67543256D02*
X104466828Y-67519066D01*
X104815172Y-67688399D02*
X104815172Y-68027066D01*
X104815172Y-67736780D02*
X104836943Y-67712590D01*
X104836943Y-67712590D02*
X104880486Y-67688399D01*
X104880486Y-67688399D02*
X104945800Y-67688399D01*
X104945800Y-67688399D02*
X104989343Y-67712590D01*
X104989343Y-67712590D02*
X105011115Y-67760971D01*
X105011115Y-67760971D02*
X105011115Y-68027066D01*
D12*
X72235333Y-61708019D02*
X72211142Y-61735839D01*
X72211142Y-61735839D02*
X72138571Y-61763658D01*
X72138571Y-61763658D02*
X72090190Y-61763658D01*
X72090190Y-61763658D02*
X72017618Y-61735839D01*
X72017618Y-61735839D02*
X71969237Y-61680200D01*
X71969237Y-61680200D02*
X71945047Y-61624562D01*
X71945047Y-61624562D02*
X71920856Y-61513286D01*
X71920856Y-61513286D02*
X71920856Y-61429829D01*
X71920856Y-61429829D02*
X71945047Y-61318553D01*
X71945047Y-61318553D02*
X71969237Y-61262915D01*
X71969237Y-61262915D02*
X72017618Y-61207277D01*
X72017618Y-61207277D02*
X72090190Y-61179458D01*
X72090190Y-61179458D02*
X72138571Y-61179458D01*
X72138571Y-61179458D02*
X72211142Y-61207277D01*
X72211142Y-61207277D02*
X72235333Y-61235096D01*
X72670761Y-61374191D02*
X72670761Y-61763658D01*
X72549809Y-61151639D02*
X72428856Y-61568924D01*
X72428856Y-61568924D02*
X72743333Y-61568924D01*
D13*
X71244828Y-62963066D02*
X71288371Y-62963066D01*
X71288371Y-62963066D02*
X71331914Y-62987256D01*
X71331914Y-62987256D02*
X71353686Y-63011447D01*
X71353686Y-63011447D02*
X71375457Y-63059828D01*
X71375457Y-63059828D02*
X71397228Y-63156590D01*
X71397228Y-63156590D02*
X71397228Y-63277542D01*
X71397228Y-63277542D02*
X71375457Y-63374304D01*
X71375457Y-63374304D02*
X71353686Y-63422685D01*
X71353686Y-63422685D02*
X71331914Y-63446876D01*
X71331914Y-63446876D02*
X71288371Y-63471066D01*
X71288371Y-63471066D02*
X71244828Y-63471066D01*
X71244828Y-63471066D02*
X71201286Y-63446876D01*
X71201286Y-63446876D02*
X71179514Y-63422685D01*
X71179514Y-63422685D02*
X71157743Y-63374304D01*
X71157743Y-63374304D02*
X71135971Y-63277542D01*
X71135971Y-63277542D02*
X71135971Y-63156590D01*
X71135971Y-63156590D02*
X71157743Y-63059828D01*
X71157743Y-63059828D02*
X71179514Y-63011447D01*
X71179514Y-63011447D02*
X71201286Y-62987256D01*
X71201286Y-62987256D02*
X71244828Y-62963066D01*
X71593172Y-63422685D02*
X71614943Y-63446876D01*
X71614943Y-63446876D02*
X71593172Y-63471066D01*
X71593172Y-63471066D02*
X71571400Y-63446876D01*
X71571400Y-63446876D02*
X71593172Y-63422685D01*
X71593172Y-63422685D02*
X71593172Y-63471066D01*
X72050371Y-63471066D02*
X71789114Y-63471066D01*
X71919743Y-63471066D02*
X71919743Y-62963066D01*
X71919743Y-62963066D02*
X71876200Y-63035637D01*
X71876200Y-63035637D02*
X71832657Y-63084018D01*
X71832657Y-63084018D02*
X71789114Y-63108209D01*
X72442258Y-63132399D02*
X72442258Y-63471066D01*
X72246315Y-63132399D02*
X72246315Y-63398495D01*
X72246315Y-63398495D02*
X72268086Y-63446876D01*
X72268086Y-63446876D02*
X72311629Y-63471066D01*
X72311629Y-63471066D02*
X72376943Y-63471066D01*
X72376943Y-63471066D02*
X72420486Y-63446876D01*
X72420486Y-63446876D02*
X72442258Y-63422685D01*
D12*
X80468019Y-48596571D02*
X80495839Y-48620762D01*
X80495839Y-48620762D02*
X80523658Y-48693333D01*
X80523658Y-48693333D02*
X80523658Y-48741714D01*
X80523658Y-48741714D02*
X80495839Y-48814286D01*
X80495839Y-48814286D02*
X80440200Y-48862667D01*
X80440200Y-48862667D02*
X80384562Y-48886857D01*
X80384562Y-48886857D02*
X80273286Y-48911048D01*
X80273286Y-48911048D02*
X80189829Y-48911048D01*
X80189829Y-48911048D02*
X80078553Y-48886857D01*
X80078553Y-48886857D02*
X80022915Y-48862667D01*
X80022915Y-48862667D02*
X79967277Y-48814286D01*
X79967277Y-48814286D02*
X79939458Y-48741714D01*
X79939458Y-48741714D02*
X79939458Y-48693333D01*
X79939458Y-48693333D02*
X79967277Y-48620762D01*
X79967277Y-48620762D02*
X79995096Y-48596571D01*
X79995096Y-48403048D02*
X79967277Y-48378857D01*
X79967277Y-48378857D02*
X79939458Y-48330476D01*
X79939458Y-48330476D02*
X79939458Y-48209524D01*
X79939458Y-48209524D02*
X79967277Y-48161143D01*
X79967277Y-48161143D02*
X79995096Y-48136952D01*
X79995096Y-48136952D02*
X80050734Y-48112762D01*
X80050734Y-48112762D02*
X80106372Y-48112762D01*
X80106372Y-48112762D02*
X80189829Y-48136952D01*
X80189829Y-48136952D02*
X80523658Y-48427238D01*
X80523658Y-48427238D02*
X80523658Y-48112762D01*
X80189829Y-47822476D02*
X80162010Y-47870857D01*
X80162010Y-47870857D02*
X80134191Y-47895047D01*
X80134191Y-47895047D02*
X80078553Y-47919238D01*
X80078553Y-47919238D02*
X80050734Y-47919238D01*
X80050734Y-47919238D02*
X79995096Y-47895047D01*
X79995096Y-47895047D02*
X79967277Y-47870857D01*
X79967277Y-47870857D02*
X79939458Y-47822476D01*
X79939458Y-47822476D02*
X79939458Y-47725714D01*
X79939458Y-47725714D02*
X79967277Y-47677333D01*
X79967277Y-47677333D02*
X79995096Y-47653142D01*
X79995096Y-47653142D02*
X80050734Y-47628952D01*
X80050734Y-47628952D02*
X80078553Y-47628952D01*
X80078553Y-47628952D02*
X80134191Y-47653142D01*
X80134191Y-47653142D02*
X80162010Y-47677333D01*
X80162010Y-47677333D02*
X80189829Y-47725714D01*
X80189829Y-47725714D02*
X80189829Y-47822476D01*
X80189829Y-47822476D02*
X80217648Y-47870857D01*
X80217648Y-47870857D02*
X80245467Y-47895047D01*
X80245467Y-47895047D02*
X80301105Y-47919238D01*
X80301105Y-47919238D02*
X80412381Y-47919238D01*
X80412381Y-47919238D02*
X80468019Y-47895047D01*
X80468019Y-47895047D02*
X80495839Y-47870857D01*
X80495839Y-47870857D02*
X80523658Y-47822476D01*
X80523658Y-47822476D02*
X80523658Y-47725714D01*
X80523658Y-47725714D02*
X80495839Y-47677333D01*
X80495839Y-47677333D02*
X80468019Y-47653142D01*
X80468019Y-47653142D02*
X80412381Y-47628952D01*
X80412381Y-47628952D02*
X80301105Y-47628952D01*
X80301105Y-47628952D02*
X80245467Y-47653142D01*
X80245467Y-47653142D02*
X80217648Y-47677333D01*
X80217648Y-47677333D02*
X80189829Y-47725714D01*
D13*
X78777066Y-48573914D02*
X78777066Y-48835171D01*
X78777066Y-48704542D02*
X78269066Y-48704542D01*
X78269066Y-48704542D02*
X78341637Y-48748085D01*
X78341637Y-48748085D02*
X78390018Y-48791628D01*
X78390018Y-48791628D02*
X78414209Y-48835171D01*
X78269066Y-48290885D02*
X78269066Y-48247342D01*
X78269066Y-48247342D02*
X78293256Y-48203799D01*
X78293256Y-48203799D02*
X78317447Y-48182028D01*
X78317447Y-48182028D02*
X78365828Y-48160256D01*
X78365828Y-48160256D02*
X78462590Y-48138485D01*
X78462590Y-48138485D02*
X78583542Y-48138485D01*
X78583542Y-48138485D02*
X78680304Y-48160256D01*
X78680304Y-48160256D02*
X78728685Y-48182028D01*
X78728685Y-48182028D02*
X78752876Y-48203799D01*
X78752876Y-48203799D02*
X78777066Y-48247342D01*
X78777066Y-48247342D02*
X78777066Y-48290885D01*
X78777066Y-48290885D02*
X78752876Y-48334428D01*
X78752876Y-48334428D02*
X78728685Y-48356199D01*
X78728685Y-48356199D02*
X78680304Y-48377970D01*
X78680304Y-48377970D02*
X78583542Y-48399742D01*
X78583542Y-48399742D02*
X78462590Y-48399742D01*
X78462590Y-48399742D02*
X78365828Y-48377970D01*
X78365828Y-48377970D02*
X78317447Y-48356199D01*
X78317447Y-48356199D02*
X78293256Y-48334428D01*
X78293256Y-48334428D02*
X78269066Y-48290885D01*
X78438399Y-47746599D02*
X78777066Y-47746599D01*
X78438399Y-47942541D02*
X78704495Y-47942541D01*
X78704495Y-47942541D02*
X78752876Y-47920770D01*
X78752876Y-47920770D02*
X78777066Y-47877227D01*
X78777066Y-47877227D02*
X78777066Y-47811913D01*
X78777066Y-47811913D02*
X78752876Y-47768370D01*
X78752876Y-47768370D02*
X78728685Y-47746599D01*
D12*
X67020025Y-49864666D02*
X67044216Y-49888857D01*
X67044216Y-49888857D02*
X67068406Y-49961428D01*
X67068406Y-49961428D02*
X67068406Y-50009809D01*
X67068406Y-50009809D02*
X67044216Y-50082381D01*
X67044216Y-50082381D02*
X66995835Y-50130762D01*
X66995835Y-50130762D02*
X66947454Y-50154952D01*
X66947454Y-50154952D02*
X66850692Y-50179143D01*
X66850692Y-50179143D02*
X66778120Y-50179143D01*
X66778120Y-50179143D02*
X66681358Y-50154952D01*
X66681358Y-50154952D02*
X66632977Y-50130762D01*
X66632977Y-50130762D02*
X66584596Y-50082381D01*
X66584596Y-50082381D02*
X66560406Y-50009809D01*
X66560406Y-50009809D02*
X66560406Y-49961428D01*
X66560406Y-49961428D02*
X66584596Y-49888857D01*
X66584596Y-49888857D02*
X66608787Y-49864666D01*
X66560406Y-49695333D02*
X66560406Y-49356666D01*
X66560406Y-49356666D02*
X67068406Y-49574381D01*
X80428019Y-59926571D02*
X80455839Y-59950762D01*
X80455839Y-59950762D02*
X80483658Y-60023333D01*
X80483658Y-60023333D02*
X80483658Y-60071714D01*
X80483658Y-60071714D02*
X80455839Y-60144286D01*
X80455839Y-60144286D02*
X80400200Y-60192667D01*
X80400200Y-60192667D02*
X80344562Y-60216857D01*
X80344562Y-60216857D02*
X80233286Y-60241048D01*
X80233286Y-60241048D02*
X80149829Y-60241048D01*
X80149829Y-60241048D02*
X80038553Y-60216857D01*
X80038553Y-60216857D02*
X79982915Y-60192667D01*
X79982915Y-60192667D02*
X79927277Y-60144286D01*
X79927277Y-60144286D02*
X79899458Y-60071714D01*
X79899458Y-60071714D02*
X79899458Y-60023333D01*
X79899458Y-60023333D02*
X79927277Y-59950762D01*
X79927277Y-59950762D02*
X79955096Y-59926571D01*
X79955096Y-59733048D02*
X79927277Y-59708857D01*
X79927277Y-59708857D02*
X79899458Y-59660476D01*
X79899458Y-59660476D02*
X79899458Y-59539524D01*
X79899458Y-59539524D02*
X79927277Y-59491143D01*
X79927277Y-59491143D02*
X79955096Y-59466952D01*
X79955096Y-59466952D02*
X80010734Y-59442762D01*
X80010734Y-59442762D02*
X80066372Y-59442762D01*
X80066372Y-59442762D02*
X80149829Y-59466952D01*
X80149829Y-59466952D02*
X80483658Y-59757238D01*
X80483658Y-59757238D02*
X80483658Y-59442762D01*
X80094191Y-59007333D02*
X80483658Y-59007333D01*
X79871639Y-59128285D02*
X80288924Y-59249238D01*
X80288924Y-59249238D02*
X80288924Y-58934761D01*
D13*
X78706085Y-59427066D02*
X78444828Y-59427066D01*
X78575457Y-59427066D02*
X78575457Y-58919066D01*
X78575457Y-58919066D02*
X78531914Y-58991637D01*
X78531914Y-58991637D02*
X78488371Y-59040018D01*
X78488371Y-59040018D02*
X78444828Y-59064209D01*
X78989114Y-58919066D02*
X79032657Y-58919066D01*
X79032657Y-58919066D02*
X79076200Y-58943256D01*
X79076200Y-58943256D02*
X79097972Y-58967447D01*
X79097972Y-58967447D02*
X79119743Y-59015828D01*
X79119743Y-59015828D02*
X79141514Y-59112590D01*
X79141514Y-59112590D02*
X79141514Y-59233542D01*
X79141514Y-59233542D02*
X79119743Y-59330304D01*
X79119743Y-59330304D02*
X79097972Y-59378685D01*
X79097972Y-59378685D02*
X79076200Y-59402876D01*
X79076200Y-59402876D02*
X79032657Y-59427066D01*
X79032657Y-59427066D02*
X78989114Y-59427066D01*
X78989114Y-59427066D02*
X78945572Y-59402876D01*
X78945572Y-59402876D02*
X78923800Y-59378685D01*
X78923800Y-59378685D02*
X78902029Y-59330304D01*
X78902029Y-59330304D02*
X78880257Y-59233542D01*
X78880257Y-59233542D02*
X78880257Y-59112590D01*
X78880257Y-59112590D02*
X78902029Y-59015828D01*
X78902029Y-59015828D02*
X78923800Y-58967447D01*
X78923800Y-58967447D02*
X78945572Y-58943256D01*
X78945572Y-58943256D02*
X78989114Y-58919066D01*
X79533401Y-59088399D02*
X79533401Y-59427066D01*
X79337458Y-59088399D02*
X79337458Y-59354495D01*
X79337458Y-59354495D02*
X79359229Y-59402876D01*
X79359229Y-59402876D02*
X79402772Y-59427066D01*
X79402772Y-59427066D02*
X79468086Y-59427066D01*
X79468086Y-59427066D02*
X79511629Y-59402876D01*
X79511629Y-59402876D02*
X79533401Y-59378685D01*
D12*
X80390025Y-51336571D02*
X80414216Y-51360762D01*
X80414216Y-51360762D02*
X80438406Y-51433333D01*
X80438406Y-51433333D02*
X80438406Y-51481714D01*
X80438406Y-51481714D02*
X80414216Y-51554286D01*
X80414216Y-51554286D02*
X80365835Y-51602667D01*
X80365835Y-51602667D02*
X80317454Y-51626857D01*
X80317454Y-51626857D02*
X80220692Y-51651048D01*
X80220692Y-51651048D02*
X80148120Y-51651048D01*
X80148120Y-51651048D02*
X80051358Y-51626857D01*
X80051358Y-51626857D02*
X80002977Y-51602667D01*
X80002977Y-51602667D02*
X79954596Y-51554286D01*
X79954596Y-51554286D02*
X79930406Y-51481714D01*
X79930406Y-51481714D02*
X79930406Y-51433333D01*
X79930406Y-51433333D02*
X79954596Y-51360762D01*
X79954596Y-51360762D02*
X79978787Y-51336571D01*
X79978787Y-51143048D02*
X79954596Y-51118857D01*
X79954596Y-51118857D02*
X79930406Y-51070476D01*
X79930406Y-51070476D02*
X79930406Y-50949524D01*
X79930406Y-50949524D02*
X79954596Y-50901143D01*
X79954596Y-50901143D02*
X79978787Y-50876952D01*
X79978787Y-50876952D02*
X80027168Y-50852762D01*
X80027168Y-50852762D02*
X80075549Y-50852762D01*
X80075549Y-50852762D02*
X80148120Y-50876952D01*
X80148120Y-50876952D02*
X80438406Y-51167238D01*
X80438406Y-51167238D02*
X80438406Y-50852762D01*
X80438406Y-50610857D02*
X80438406Y-50514095D01*
X80438406Y-50514095D02*
X80414216Y-50465714D01*
X80414216Y-50465714D02*
X80390025Y-50441523D01*
X80390025Y-50441523D02*
X80317454Y-50393142D01*
X80317454Y-50393142D02*
X80220692Y-50368952D01*
X80220692Y-50368952D02*
X80027168Y-50368952D01*
X80027168Y-50368952D02*
X79978787Y-50393142D01*
X79978787Y-50393142D02*
X79954596Y-50417333D01*
X79954596Y-50417333D02*
X79930406Y-50465714D01*
X79930406Y-50465714D02*
X79930406Y-50562476D01*
X79930406Y-50562476D02*
X79954596Y-50610857D01*
X79954596Y-50610857D02*
X79978787Y-50635047D01*
X79978787Y-50635047D02*
X80027168Y-50659238D01*
X80027168Y-50659238D02*
X80148120Y-50659238D01*
X80148120Y-50659238D02*
X80196501Y-50635047D01*
X80196501Y-50635047D02*
X80220692Y-50610857D01*
X80220692Y-50610857D02*
X80244882Y-50562476D01*
X80244882Y-50562476D02*
X80244882Y-50465714D01*
X80244882Y-50465714D02*
X80220692Y-50417333D01*
X80220692Y-50417333D02*
X80196501Y-50393142D01*
X80196501Y-50393142D02*
X80148120Y-50368952D01*
D11*
X96684819Y-73793333D02*
X97399104Y-73793333D01*
X97399104Y-73793333D02*
X97541961Y-73840952D01*
X97541961Y-73840952D02*
X97637200Y-73936190D01*
X97637200Y-73936190D02*
X97684819Y-74079047D01*
X97684819Y-74079047D02*
X97684819Y-74174285D01*
X96780057Y-73364761D02*
X96732438Y-73317142D01*
X96732438Y-73317142D02*
X96684819Y-73221904D01*
X96684819Y-73221904D02*
X96684819Y-72983809D01*
X96684819Y-72983809D02*
X96732438Y-72888571D01*
X96732438Y-72888571D02*
X96780057Y-72840952D01*
X96780057Y-72840952D02*
X96875295Y-72793333D01*
X96875295Y-72793333D02*
X96970533Y-72793333D01*
X96970533Y-72793333D02*
X97113390Y-72840952D01*
X97113390Y-72840952D02*
X97684819Y-73412380D01*
X97684819Y-73412380D02*
X97684819Y-72793333D01*
D12*
X74188406Y-58216571D02*
X73946501Y-58385905D01*
X74188406Y-58506857D02*
X73680406Y-58506857D01*
X73680406Y-58506857D02*
X73680406Y-58313333D01*
X73680406Y-58313333D02*
X73704596Y-58264952D01*
X73704596Y-58264952D02*
X73728787Y-58240762D01*
X73728787Y-58240762D02*
X73777168Y-58216571D01*
X73777168Y-58216571D02*
X73849739Y-58216571D01*
X73849739Y-58216571D02*
X73898120Y-58240762D01*
X73898120Y-58240762D02*
X73922311Y-58264952D01*
X73922311Y-58264952D02*
X73946501Y-58313333D01*
X73946501Y-58313333D02*
X73946501Y-58506857D01*
X74188406Y-57732762D02*
X74188406Y-58023048D01*
X74188406Y-57877905D02*
X73680406Y-57877905D01*
X73680406Y-57877905D02*
X73752977Y-57926286D01*
X73752977Y-57926286D02*
X73801358Y-57974667D01*
X73801358Y-57974667D02*
X73825549Y-58023048D01*
X73680406Y-57563428D02*
X73680406Y-57248952D01*
X73680406Y-57248952D02*
X73873930Y-57418285D01*
X73873930Y-57418285D02*
X73873930Y-57345714D01*
X73873930Y-57345714D02*
X73898120Y-57297333D01*
X73898120Y-57297333D02*
X73922311Y-57273142D01*
X73922311Y-57273142D02*
X73970692Y-57248952D01*
X73970692Y-57248952D02*
X74091644Y-57248952D01*
X74091644Y-57248952D02*
X74140025Y-57273142D01*
X74140025Y-57273142D02*
X74164216Y-57297333D01*
X74164216Y-57297333D02*
X74188406Y-57345714D01*
X74188406Y-57345714D02*
X74188406Y-57490857D01*
X74188406Y-57490857D02*
X74164216Y-57539238D01*
X74164216Y-57539238D02*
X74140025Y-57563428D01*
X75905333Y-61713658D02*
X75735999Y-61435467D01*
X75615047Y-61713658D02*
X75615047Y-61129458D01*
X75615047Y-61129458D02*
X75808571Y-61129458D01*
X75808571Y-61129458D02*
X75856952Y-61157277D01*
X75856952Y-61157277D02*
X75881142Y-61185096D01*
X75881142Y-61185096D02*
X75905333Y-61240734D01*
X75905333Y-61240734D02*
X75905333Y-61324191D01*
X75905333Y-61324191D02*
X75881142Y-61379829D01*
X75881142Y-61379829D02*
X75856952Y-61407648D01*
X75856952Y-61407648D02*
X75808571Y-61435467D01*
X75808571Y-61435467D02*
X75615047Y-61435467D01*
X76195618Y-61379829D02*
X76147237Y-61352010D01*
X76147237Y-61352010D02*
X76123047Y-61324191D01*
X76123047Y-61324191D02*
X76098856Y-61268553D01*
X76098856Y-61268553D02*
X76098856Y-61240734D01*
X76098856Y-61240734D02*
X76123047Y-61185096D01*
X76123047Y-61185096D02*
X76147237Y-61157277D01*
X76147237Y-61157277D02*
X76195618Y-61129458D01*
X76195618Y-61129458D02*
X76292380Y-61129458D01*
X76292380Y-61129458D02*
X76340761Y-61157277D01*
X76340761Y-61157277D02*
X76364952Y-61185096D01*
X76364952Y-61185096D02*
X76389142Y-61240734D01*
X76389142Y-61240734D02*
X76389142Y-61268553D01*
X76389142Y-61268553D02*
X76364952Y-61324191D01*
X76364952Y-61324191D02*
X76340761Y-61352010D01*
X76340761Y-61352010D02*
X76292380Y-61379829D01*
X76292380Y-61379829D02*
X76195618Y-61379829D01*
X76195618Y-61379829D02*
X76147237Y-61407648D01*
X76147237Y-61407648D02*
X76123047Y-61435467D01*
X76123047Y-61435467D02*
X76098856Y-61491105D01*
X76098856Y-61491105D02*
X76098856Y-61602381D01*
X76098856Y-61602381D02*
X76123047Y-61658019D01*
X76123047Y-61658019D02*
X76147237Y-61685839D01*
X76147237Y-61685839D02*
X76195618Y-61713658D01*
X76195618Y-61713658D02*
X76292380Y-61713658D01*
X76292380Y-61713658D02*
X76340761Y-61685839D01*
X76340761Y-61685839D02*
X76364952Y-61658019D01*
X76364952Y-61658019D02*
X76389142Y-61602381D01*
X76389142Y-61602381D02*
X76389142Y-61491105D01*
X76389142Y-61491105D02*
X76364952Y-61435467D01*
X76364952Y-61435467D02*
X76340761Y-61407648D01*
X76340761Y-61407648D02*
X76292380Y-61379829D01*
D13*
X75881142Y-62949066D02*
X75663428Y-62949066D01*
X75663428Y-62949066D02*
X75641656Y-63190971D01*
X75641656Y-63190971D02*
X75663428Y-63166780D01*
X75663428Y-63166780D02*
X75706971Y-63142590D01*
X75706971Y-63142590D02*
X75815828Y-63142590D01*
X75815828Y-63142590D02*
X75859371Y-63166780D01*
X75859371Y-63166780D02*
X75881142Y-63190971D01*
X75881142Y-63190971D02*
X75902913Y-63239352D01*
X75902913Y-63239352D02*
X75902913Y-63360304D01*
X75902913Y-63360304D02*
X75881142Y-63408685D01*
X75881142Y-63408685D02*
X75859371Y-63432876D01*
X75859371Y-63432876D02*
X75815828Y-63457066D01*
X75815828Y-63457066D02*
X75706971Y-63457066D01*
X75706971Y-63457066D02*
X75663428Y-63432876D01*
X75663428Y-63432876D02*
X75641656Y-63408685D01*
X76338342Y-63457066D02*
X76077085Y-63457066D01*
X76207714Y-63457066D02*
X76207714Y-62949066D01*
X76207714Y-62949066D02*
X76164171Y-63021637D01*
X76164171Y-63021637D02*
X76120628Y-63070018D01*
X76120628Y-63070018D02*
X76077085Y-63094209D01*
D12*
X70743658Y-68044666D02*
X70465467Y-68214000D01*
X70743658Y-68334952D02*
X70159458Y-68334952D01*
X70159458Y-68334952D02*
X70159458Y-68141428D01*
X70159458Y-68141428D02*
X70187277Y-68093047D01*
X70187277Y-68093047D02*
X70215096Y-68068857D01*
X70215096Y-68068857D02*
X70270734Y-68044666D01*
X70270734Y-68044666D02*
X70354191Y-68044666D01*
X70354191Y-68044666D02*
X70409829Y-68068857D01*
X70409829Y-68068857D02*
X70437648Y-68093047D01*
X70437648Y-68093047D02*
X70465467Y-68141428D01*
X70465467Y-68141428D02*
X70465467Y-68334952D01*
X70159458Y-67875333D02*
X70159458Y-67560857D01*
X70159458Y-67560857D02*
X70382010Y-67730190D01*
X70382010Y-67730190D02*
X70382010Y-67657619D01*
X70382010Y-67657619D02*
X70409829Y-67609238D01*
X70409829Y-67609238D02*
X70437648Y-67585047D01*
X70437648Y-67585047D02*
X70493286Y-67560857D01*
X70493286Y-67560857D02*
X70632381Y-67560857D01*
X70632381Y-67560857D02*
X70688019Y-67585047D01*
X70688019Y-67585047D02*
X70715839Y-67609238D01*
X70715839Y-67609238D02*
X70743658Y-67657619D01*
X70743658Y-67657619D02*
X70743658Y-67802762D01*
X70743658Y-67802762D02*
X70715839Y-67851143D01*
X70715839Y-67851143D02*
X70688019Y-67875333D01*
D13*
X68423066Y-67981771D02*
X68423066Y-67938228D01*
X68423066Y-67938228D02*
X68447256Y-67894685D01*
X68447256Y-67894685D02*
X68471447Y-67872914D01*
X68471447Y-67872914D02*
X68519828Y-67851142D01*
X68519828Y-67851142D02*
X68616590Y-67829371D01*
X68616590Y-67829371D02*
X68737542Y-67829371D01*
X68737542Y-67829371D02*
X68834304Y-67851142D01*
X68834304Y-67851142D02*
X68882685Y-67872914D01*
X68882685Y-67872914D02*
X68906876Y-67894685D01*
X68906876Y-67894685D02*
X68931066Y-67938228D01*
X68931066Y-67938228D02*
X68931066Y-67981771D01*
X68931066Y-67981771D02*
X68906876Y-68025314D01*
X68906876Y-68025314D02*
X68882685Y-68047085D01*
X68882685Y-68047085D02*
X68834304Y-68068856D01*
X68834304Y-68068856D02*
X68737542Y-68090628D01*
X68737542Y-68090628D02*
X68616590Y-68090628D01*
X68616590Y-68090628D02*
X68519828Y-68068856D01*
X68519828Y-68068856D02*
X68471447Y-68047085D01*
X68471447Y-68047085D02*
X68447256Y-68025314D01*
X68447256Y-68025314D02*
X68423066Y-67981771D01*
D11*
X100966810Y-59710628D02*
X100966810Y-60186819D01*
X100633477Y-59186819D02*
X100966810Y-59710628D01*
X100966810Y-59710628D02*
X101300143Y-59186819D01*
X102157286Y-60186819D02*
X101585858Y-60186819D01*
X101871572Y-60186819D02*
X101871572Y-59186819D01*
X101871572Y-59186819D02*
X101776334Y-59329676D01*
X101776334Y-59329676D02*
X101681096Y-59424914D01*
X101681096Y-59424914D02*
X101585858Y-59472533D01*
D12*
X79164019Y-46926571D02*
X79191839Y-46950762D01*
X79191839Y-46950762D02*
X79219658Y-47023333D01*
X79219658Y-47023333D02*
X79219658Y-47071714D01*
X79219658Y-47071714D02*
X79191839Y-47144286D01*
X79191839Y-47144286D02*
X79136200Y-47192667D01*
X79136200Y-47192667D02*
X79080562Y-47216857D01*
X79080562Y-47216857D02*
X78969286Y-47241048D01*
X78969286Y-47241048D02*
X78885829Y-47241048D01*
X78885829Y-47241048D02*
X78774553Y-47216857D01*
X78774553Y-47216857D02*
X78718915Y-47192667D01*
X78718915Y-47192667D02*
X78663277Y-47144286D01*
X78663277Y-47144286D02*
X78635458Y-47071714D01*
X78635458Y-47071714D02*
X78635458Y-47023333D01*
X78635458Y-47023333D02*
X78663277Y-46950762D01*
X78663277Y-46950762D02*
X78691096Y-46926571D01*
X78635458Y-46757238D02*
X78635458Y-46442762D01*
X78635458Y-46442762D02*
X78858010Y-46612095D01*
X78858010Y-46612095D02*
X78858010Y-46539524D01*
X78858010Y-46539524D02*
X78885829Y-46491143D01*
X78885829Y-46491143D02*
X78913648Y-46466952D01*
X78913648Y-46466952D02*
X78969286Y-46442762D01*
X78969286Y-46442762D02*
X79108381Y-46442762D01*
X79108381Y-46442762D02*
X79164019Y-46466952D01*
X79164019Y-46466952D02*
X79191839Y-46491143D01*
X79191839Y-46491143D02*
X79219658Y-46539524D01*
X79219658Y-46539524D02*
X79219658Y-46684667D01*
X79219658Y-46684667D02*
X79191839Y-46733048D01*
X79191839Y-46733048D02*
X79164019Y-46757238D01*
X78635458Y-46273428D02*
X78635458Y-45958952D01*
X78635458Y-45958952D02*
X78858010Y-46128285D01*
X78858010Y-46128285D02*
X78858010Y-46055714D01*
X78858010Y-46055714D02*
X78885829Y-46007333D01*
X78885829Y-46007333D02*
X78913648Y-45983142D01*
X78913648Y-45983142D02*
X78969286Y-45958952D01*
X78969286Y-45958952D02*
X79108381Y-45958952D01*
X79108381Y-45958952D02*
X79164019Y-45983142D01*
X79164019Y-45983142D02*
X79191839Y-46007333D01*
X79191839Y-46007333D02*
X79219658Y-46055714D01*
X79219658Y-46055714D02*
X79219658Y-46200857D01*
X79219658Y-46200857D02*
X79191839Y-46249238D01*
X79191839Y-46249238D02*
X79164019Y-46273428D01*
D13*
X76947447Y-47155171D02*
X76923256Y-47133399D01*
X76923256Y-47133399D02*
X76899066Y-47089857D01*
X76899066Y-47089857D02*
X76899066Y-46980999D01*
X76899066Y-46980999D02*
X76923256Y-46937457D01*
X76923256Y-46937457D02*
X76947447Y-46915685D01*
X76947447Y-46915685D02*
X76995828Y-46893914D01*
X76995828Y-46893914D02*
X77044209Y-46893914D01*
X77044209Y-46893914D02*
X77116780Y-46915685D01*
X77116780Y-46915685D02*
X77407066Y-47176942D01*
X77407066Y-47176942D02*
X77407066Y-46893914D01*
X76947447Y-46719742D02*
X76923256Y-46697970D01*
X76923256Y-46697970D02*
X76899066Y-46654428D01*
X76899066Y-46654428D02*
X76899066Y-46545570D01*
X76899066Y-46545570D02*
X76923256Y-46502028D01*
X76923256Y-46502028D02*
X76947447Y-46480256D01*
X76947447Y-46480256D02*
X76995828Y-46458485D01*
X76995828Y-46458485D02*
X77044209Y-46458485D01*
X77044209Y-46458485D02*
X77116780Y-46480256D01*
X77116780Y-46480256D02*
X77407066Y-46741513D01*
X77407066Y-46741513D02*
X77407066Y-46458485D01*
X77068399Y-46066599D02*
X77407066Y-46066599D01*
X77068399Y-46262541D02*
X77334495Y-46262541D01*
X77334495Y-46262541D02*
X77382876Y-46240770D01*
X77382876Y-46240770D02*
X77407066Y-46197227D01*
X77407066Y-46197227D02*
X77407066Y-46131913D01*
X77407066Y-46131913D02*
X77382876Y-46088370D01*
X77382876Y-46088370D02*
X77358685Y-46066599D01*
D14*
X110838571Y-61797190D02*
X110814762Y-61821000D01*
X110814762Y-61821000D02*
X110743333Y-61844809D01*
X110743333Y-61844809D02*
X110695714Y-61844809D01*
X110695714Y-61844809D02*
X110624286Y-61821000D01*
X110624286Y-61821000D02*
X110576667Y-61773380D01*
X110576667Y-61773380D02*
X110552857Y-61725761D01*
X110552857Y-61725761D02*
X110529048Y-61630523D01*
X110529048Y-61630523D02*
X110529048Y-61559095D01*
X110529048Y-61559095D02*
X110552857Y-61463857D01*
X110552857Y-61463857D02*
X110576667Y-61416238D01*
X110576667Y-61416238D02*
X110624286Y-61368619D01*
X110624286Y-61368619D02*
X110695714Y-61344809D01*
X110695714Y-61344809D02*
X110743333Y-61344809D01*
X110743333Y-61344809D02*
X110814762Y-61368619D01*
X110814762Y-61368619D02*
X110838571Y-61392428D01*
X111005238Y-61344809D02*
X111314762Y-61344809D01*
X111314762Y-61344809D02*
X111148095Y-61535285D01*
X111148095Y-61535285D02*
X111219524Y-61535285D01*
X111219524Y-61535285D02*
X111267143Y-61559095D01*
X111267143Y-61559095D02*
X111290952Y-61582904D01*
X111290952Y-61582904D02*
X111314762Y-61630523D01*
X111314762Y-61630523D02*
X111314762Y-61749571D01*
X111314762Y-61749571D02*
X111290952Y-61797190D01*
X111290952Y-61797190D02*
X111267143Y-61821000D01*
X111267143Y-61821000D02*
X111219524Y-61844809D01*
X111219524Y-61844809D02*
X111076667Y-61844809D01*
X111076667Y-61844809D02*
X111029048Y-61821000D01*
X111029048Y-61821000D02*
X111005238Y-61797190D01*
X111767142Y-61344809D02*
X111529047Y-61344809D01*
X111529047Y-61344809D02*
X111505238Y-61582904D01*
X111505238Y-61582904D02*
X111529047Y-61559095D01*
X111529047Y-61559095D02*
X111576666Y-61535285D01*
X111576666Y-61535285D02*
X111695714Y-61535285D01*
X111695714Y-61535285D02*
X111743333Y-61559095D01*
X111743333Y-61559095D02*
X111767142Y-61582904D01*
X111767142Y-61582904D02*
X111790952Y-61630523D01*
X111790952Y-61630523D02*
X111790952Y-61749571D01*
X111790952Y-61749571D02*
X111767142Y-61797190D01*
X111767142Y-61797190D02*
X111743333Y-61821000D01*
X111743333Y-61821000D02*
X111695714Y-61844809D01*
X111695714Y-61844809D02*
X111576666Y-61844809D01*
X111576666Y-61844809D02*
X111529047Y-61821000D01*
X111529047Y-61821000D02*
X111505238Y-61797190D01*
X70361071Y-44847309D02*
X70194405Y-44609214D01*
X70075357Y-44847309D02*
X70075357Y-44347309D01*
X70075357Y-44347309D02*
X70265833Y-44347309D01*
X70265833Y-44347309D02*
X70313452Y-44371119D01*
X70313452Y-44371119D02*
X70337262Y-44394928D01*
X70337262Y-44394928D02*
X70361071Y-44442547D01*
X70361071Y-44442547D02*
X70361071Y-44513976D01*
X70361071Y-44513976D02*
X70337262Y-44561595D01*
X70337262Y-44561595D02*
X70313452Y-44585404D01*
X70313452Y-44585404D02*
X70265833Y-44609214D01*
X70265833Y-44609214D02*
X70075357Y-44609214D01*
X70837262Y-44847309D02*
X70551548Y-44847309D01*
X70694405Y-44847309D02*
X70694405Y-44347309D01*
X70694405Y-44347309D02*
X70646786Y-44418738D01*
X70646786Y-44418738D02*
X70599167Y-44466357D01*
X70599167Y-44466357D02*
X70551548Y-44490166D01*
X71003928Y-44347309D02*
X71337261Y-44347309D01*
X71337261Y-44347309D02*
X71122976Y-44847309D01*
D12*
X59583658Y-67264666D02*
X59305467Y-67434000D01*
X59583658Y-67554952D02*
X58999458Y-67554952D01*
X58999458Y-67554952D02*
X58999458Y-67361428D01*
X58999458Y-67361428D02*
X59027277Y-67313047D01*
X59027277Y-67313047D02*
X59055096Y-67288857D01*
X59055096Y-67288857D02*
X59110734Y-67264666D01*
X59110734Y-67264666D02*
X59194191Y-67264666D01*
X59194191Y-67264666D02*
X59249829Y-67288857D01*
X59249829Y-67288857D02*
X59277648Y-67313047D01*
X59277648Y-67313047D02*
X59305467Y-67361428D01*
X59305467Y-67361428D02*
X59305467Y-67554952D01*
X59055096Y-67071143D02*
X59027277Y-67046952D01*
X59027277Y-67046952D02*
X58999458Y-66998571D01*
X58999458Y-66998571D02*
X58999458Y-66877619D01*
X58999458Y-66877619D02*
X59027277Y-66829238D01*
X59027277Y-66829238D02*
X59055096Y-66805047D01*
X59055096Y-66805047D02*
X59110734Y-66780857D01*
X59110734Y-66780857D02*
X59166372Y-66780857D01*
X59166372Y-66780857D02*
X59249829Y-66805047D01*
X59249829Y-66805047D02*
X59583658Y-67095333D01*
X59583658Y-67095333D02*
X59583658Y-66780857D01*
D13*
X60819066Y-67288857D02*
X60819066Y-67506571D01*
X60819066Y-67506571D02*
X61060971Y-67528343D01*
X61060971Y-67528343D02*
X61036780Y-67506571D01*
X61036780Y-67506571D02*
X61012590Y-67463029D01*
X61012590Y-67463029D02*
X61012590Y-67354171D01*
X61012590Y-67354171D02*
X61036780Y-67310629D01*
X61036780Y-67310629D02*
X61060971Y-67288857D01*
X61060971Y-67288857D02*
X61109352Y-67267086D01*
X61109352Y-67267086D02*
X61230304Y-67267086D01*
X61230304Y-67267086D02*
X61278685Y-67288857D01*
X61278685Y-67288857D02*
X61302876Y-67310629D01*
X61302876Y-67310629D02*
X61327066Y-67354171D01*
X61327066Y-67354171D02*
X61327066Y-67463029D01*
X61327066Y-67463029D02*
X61302876Y-67506571D01*
X61302876Y-67506571D02*
X61278685Y-67528343D01*
X61327066Y-66831657D02*
X61327066Y-67092914D01*
X61327066Y-66962285D02*
X60819066Y-66962285D01*
X60819066Y-66962285D02*
X60891637Y-67005828D01*
X60891637Y-67005828D02*
X60940018Y-67049371D01*
X60940018Y-67049371D02*
X60964209Y-67092914D01*
D12*
X76994019Y-41779071D02*
X77021839Y-41803262D01*
X77021839Y-41803262D02*
X77049658Y-41875833D01*
X77049658Y-41875833D02*
X77049658Y-41924214D01*
X77049658Y-41924214D02*
X77021839Y-41996786D01*
X77021839Y-41996786D02*
X76966200Y-42045167D01*
X76966200Y-42045167D02*
X76910562Y-42069357D01*
X76910562Y-42069357D02*
X76799286Y-42093548D01*
X76799286Y-42093548D02*
X76715829Y-42093548D01*
X76715829Y-42093548D02*
X76604553Y-42069357D01*
X76604553Y-42069357D02*
X76548915Y-42045167D01*
X76548915Y-42045167D02*
X76493277Y-41996786D01*
X76493277Y-41996786D02*
X76465458Y-41924214D01*
X76465458Y-41924214D02*
X76465458Y-41875833D01*
X76465458Y-41875833D02*
X76493277Y-41803262D01*
X76493277Y-41803262D02*
X76521096Y-41779071D01*
X76465458Y-41609738D02*
X76465458Y-41295262D01*
X76465458Y-41295262D02*
X76688010Y-41464595D01*
X76688010Y-41464595D02*
X76688010Y-41392024D01*
X76688010Y-41392024D02*
X76715829Y-41343643D01*
X76715829Y-41343643D02*
X76743648Y-41319452D01*
X76743648Y-41319452D02*
X76799286Y-41295262D01*
X76799286Y-41295262D02*
X76938381Y-41295262D01*
X76938381Y-41295262D02*
X76994019Y-41319452D01*
X76994019Y-41319452D02*
X77021839Y-41343643D01*
X77021839Y-41343643D02*
X77049658Y-41392024D01*
X77049658Y-41392024D02*
X77049658Y-41537167D01*
X77049658Y-41537167D02*
X77021839Y-41585548D01*
X77021839Y-41585548D02*
X76994019Y-41609738D01*
X76521096Y-41101738D02*
X76493277Y-41077547D01*
X76493277Y-41077547D02*
X76465458Y-41029166D01*
X76465458Y-41029166D02*
X76465458Y-40908214D01*
X76465458Y-40908214D02*
X76493277Y-40859833D01*
X76493277Y-40859833D02*
X76521096Y-40835642D01*
X76521096Y-40835642D02*
X76576734Y-40811452D01*
X76576734Y-40811452D02*
X76632372Y-40811452D01*
X76632372Y-40811452D02*
X76715829Y-40835642D01*
X76715829Y-40835642D02*
X77049658Y-41125928D01*
X77049658Y-41125928D02*
X77049658Y-40811452D01*
D13*
X74898399Y-41898814D02*
X75237066Y-41898814D01*
X74704876Y-42007671D02*
X75067733Y-42116528D01*
X75067733Y-42116528D02*
X75067733Y-41833499D01*
X75188685Y-41659327D02*
X75212876Y-41637556D01*
X75212876Y-41637556D02*
X75237066Y-41659327D01*
X75237066Y-41659327D02*
X75212876Y-41681099D01*
X75212876Y-41681099D02*
X75188685Y-41659327D01*
X75188685Y-41659327D02*
X75237066Y-41659327D01*
X74729066Y-41485156D02*
X74729066Y-41180356D01*
X74729066Y-41180356D02*
X75237066Y-41376299D01*
X74898399Y-40810242D02*
X75237066Y-40810242D01*
X74898399Y-41006184D02*
X75164495Y-41006184D01*
X75164495Y-41006184D02*
X75212876Y-40984413D01*
X75212876Y-40984413D02*
X75237066Y-40940870D01*
X75237066Y-40940870D02*
X75237066Y-40875556D01*
X75237066Y-40875556D02*
X75212876Y-40832013D01*
X75212876Y-40832013D02*
X75188685Y-40810242D01*
D14*
X93524809Y-60561428D02*
X93286714Y-60728094D01*
X93524809Y-60847142D02*
X93024809Y-60847142D01*
X93024809Y-60847142D02*
X93024809Y-60656666D01*
X93024809Y-60656666D02*
X93048619Y-60609047D01*
X93048619Y-60609047D02*
X93072428Y-60585237D01*
X93072428Y-60585237D02*
X93120047Y-60561428D01*
X93120047Y-60561428D02*
X93191476Y-60561428D01*
X93191476Y-60561428D02*
X93239095Y-60585237D01*
X93239095Y-60585237D02*
X93262904Y-60609047D01*
X93262904Y-60609047D02*
X93286714Y-60656666D01*
X93286714Y-60656666D02*
X93286714Y-60847142D01*
X93072428Y-60370951D02*
X93048619Y-60347142D01*
X93048619Y-60347142D02*
X93024809Y-60299523D01*
X93024809Y-60299523D02*
X93024809Y-60180475D01*
X93024809Y-60180475D02*
X93048619Y-60132856D01*
X93048619Y-60132856D02*
X93072428Y-60109047D01*
X93072428Y-60109047D02*
X93120047Y-60085237D01*
X93120047Y-60085237D02*
X93167666Y-60085237D01*
X93167666Y-60085237D02*
X93239095Y-60109047D01*
X93239095Y-60109047D02*
X93524809Y-60394761D01*
X93524809Y-60394761D02*
X93524809Y-60085237D01*
X93072428Y-59894761D02*
X93048619Y-59870952D01*
X93048619Y-59870952D02*
X93024809Y-59823333D01*
X93024809Y-59823333D02*
X93024809Y-59704285D01*
X93024809Y-59704285D02*
X93048619Y-59656666D01*
X93048619Y-59656666D02*
X93072428Y-59632857D01*
X93072428Y-59632857D02*
X93120047Y-59609047D01*
X93120047Y-59609047D02*
X93167666Y-59609047D01*
X93167666Y-59609047D02*
X93239095Y-59632857D01*
X93239095Y-59632857D02*
X93524809Y-59918571D01*
X93524809Y-59918571D02*
X93524809Y-59609047D01*
D12*
X80430025Y-53726571D02*
X80454216Y-53750762D01*
X80454216Y-53750762D02*
X80478406Y-53823333D01*
X80478406Y-53823333D02*
X80478406Y-53871714D01*
X80478406Y-53871714D02*
X80454216Y-53944286D01*
X80454216Y-53944286D02*
X80405835Y-53992667D01*
X80405835Y-53992667D02*
X80357454Y-54016857D01*
X80357454Y-54016857D02*
X80260692Y-54041048D01*
X80260692Y-54041048D02*
X80188120Y-54041048D01*
X80188120Y-54041048D02*
X80091358Y-54016857D01*
X80091358Y-54016857D02*
X80042977Y-53992667D01*
X80042977Y-53992667D02*
X79994596Y-53944286D01*
X79994596Y-53944286D02*
X79970406Y-53871714D01*
X79970406Y-53871714D02*
X79970406Y-53823333D01*
X79970406Y-53823333D02*
X79994596Y-53750762D01*
X79994596Y-53750762D02*
X80018787Y-53726571D01*
X80018787Y-53533048D02*
X79994596Y-53508857D01*
X79994596Y-53508857D02*
X79970406Y-53460476D01*
X79970406Y-53460476D02*
X79970406Y-53339524D01*
X79970406Y-53339524D02*
X79994596Y-53291143D01*
X79994596Y-53291143D02*
X80018787Y-53266952D01*
X80018787Y-53266952D02*
X80067168Y-53242762D01*
X80067168Y-53242762D02*
X80115549Y-53242762D01*
X80115549Y-53242762D02*
X80188120Y-53266952D01*
X80188120Y-53266952D02*
X80478406Y-53557238D01*
X80478406Y-53557238D02*
X80478406Y-53242762D01*
X79970406Y-52783142D02*
X79970406Y-53025047D01*
X79970406Y-53025047D02*
X80212311Y-53049238D01*
X80212311Y-53049238D02*
X80188120Y-53025047D01*
X80188120Y-53025047D02*
X80163930Y-52976666D01*
X80163930Y-52976666D02*
X80163930Y-52855714D01*
X80163930Y-52855714D02*
X80188120Y-52807333D01*
X80188120Y-52807333D02*
X80212311Y-52783142D01*
X80212311Y-52783142D02*
X80260692Y-52758952D01*
X80260692Y-52758952D02*
X80381644Y-52758952D01*
X80381644Y-52758952D02*
X80430025Y-52783142D01*
X80430025Y-52783142D02*
X80454216Y-52807333D01*
X80454216Y-52807333D02*
X80478406Y-52855714D01*
X80478406Y-52855714D02*
X80478406Y-52976666D01*
X80478406Y-52976666D02*
X80454216Y-53025047D01*
X80454216Y-53025047D02*
X80430025Y-53049238D01*
D11*
X71868095Y-42237319D02*
X71868095Y-43046842D01*
X71868095Y-43046842D02*
X71915714Y-43142080D01*
X71915714Y-43142080D02*
X71963333Y-43189700D01*
X71963333Y-43189700D02*
X72058571Y-43237319D01*
X72058571Y-43237319D02*
X72249047Y-43237319D01*
X72249047Y-43237319D02*
X72344285Y-43189700D01*
X72344285Y-43189700D02*
X72391904Y-43142080D01*
X72391904Y-43142080D02*
X72439523Y-43046842D01*
X72439523Y-43046842D02*
X72439523Y-42237319D01*
X73344285Y-42570652D02*
X73344285Y-43237319D01*
X73106190Y-42189700D02*
X72868095Y-42903985D01*
X72868095Y-42903985D02*
X73487142Y-42903985D01*
D12*
X71725333Y-67953658D02*
X71555999Y-67675467D01*
X71435047Y-67953658D02*
X71435047Y-67369458D01*
X71435047Y-67369458D02*
X71628571Y-67369458D01*
X71628571Y-67369458D02*
X71676952Y-67397277D01*
X71676952Y-67397277D02*
X71701142Y-67425096D01*
X71701142Y-67425096D02*
X71725333Y-67480734D01*
X71725333Y-67480734D02*
X71725333Y-67564191D01*
X71725333Y-67564191D02*
X71701142Y-67619829D01*
X71701142Y-67619829D02*
X71676952Y-67647648D01*
X71676952Y-67647648D02*
X71628571Y-67675467D01*
X71628571Y-67675467D02*
X71435047Y-67675467D01*
X72184952Y-67369458D02*
X71943047Y-67369458D01*
X71943047Y-67369458D02*
X71918856Y-67647648D01*
X71918856Y-67647648D02*
X71943047Y-67619829D01*
X71943047Y-67619829D02*
X71991428Y-67592010D01*
X71991428Y-67592010D02*
X72112380Y-67592010D01*
X72112380Y-67592010D02*
X72160761Y-67619829D01*
X72160761Y-67619829D02*
X72184952Y-67647648D01*
X72184952Y-67647648D02*
X72209142Y-67703286D01*
X72209142Y-67703286D02*
X72209142Y-67842381D01*
X72209142Y-67842381D02*
X72184952Y-67898019D01*
X72184952Y-67898019D02*
X72160761Y-67925839D01*
X72160761Y-67925839D02*
X72112380Y-67953658D01*
X72112380Y-67953658D02*
X71991428Y-67953658D01*
X71991428Y-67953658D02*
X71943047Y-67925839D01*
X71943047Y-67925839D02*
X71918856Y-67898019D01*
D13*
X71461656Y-65681447D02*
X71483428Y-65657256D01*
X71483428Y-65657256D02*
X71526971Y-65633066D01*
X71526971Y-65633066D02*
X71635828Y-65633066D01*
X71635828Y-65633066D02*
X71679371Y-65657256D01*
X71679371Y-65657256D02*
X71701142Y-65681447D01*
X71701142Y-65681447D02*
X71722913Y-65729828D01*
X71722913Y-65729828D02*
X71722913Y-65778209D01*
X71722913Y-65778209D02*
X71701142Y-65850780D01*
X71701142Y-65850780D02*
X71439885Y-66141066D01*
X71439885Y-66141066D02*
X71722913Y-66141066D01*
X72114800Y-65802399D02*
X72114800Y-66141066D01*
X72005942Y-65608876D02*
X71897085Y-65971733D01*
X71897085Y-65971733D02*
X72180114Y-65971733D01*
D12*
X61270025Y-55364666D02*
X61294216Y-55388857D01*
X61294216Y-55388857D02*
X61318406Y-55461428D01*
X61318406Y-55461428D02*
X61318406Y-55509809D01*
X61318406Y-55509809D02*
X61294216Y-55582381D01*
X61294216Y-55582381D02*
X61245835Y-55630762D01*
X61245835Y-55630762D02*
X61197454Y-55654952D01*
X61197454Y-55654952D02*
X61100692Y-55679143D01*
X61100692Y-55679143D02*
X61028120Y-55679143D01*
X61028120Y-55679143D02*
X60931358Y-55654952D01*
X60931358Y-55654952D02*
X60882977Y-55630762D01*
X60882977Y-55630762D02*
X60834596Y-55582381D01*
X60834596Y-55582381D02*
X60810406Y-55509809D01*
X60810406Y-55509809D02*
X60810406Y-55461428D01*
X60810406Y-55461428D02*
X60834596Y-55388857D01*
X60834596Y-55388857D02*
X60858787Y-55364666D01*
X61318406Y-55122762D02*
X61318406Y-55026000D01*
X61318406Y-55026000D02*
X61294216Y-54977619D01*
X61294216Y-54977619D02*
X61270025Y-54953428D01*
X61270025Y-54953428D02*
X61197454Y-54905047D01*
X61197454Y-54905047D02*
X61100692Y-54880857D01*
X61100692Y-54880857D02*
X60907168Y-54880857D01*
X60907168Y-54880857D02*
X60858787Y-54905047D01*
X60858787Y-54905047D02*
X60834596Y-54929238D01*
X60834596Y-54929238D02*
X60810406Y-54977619D01*
X60810406Y-54977619D02*
X60810406Y-55074381D01*
X60810406Y-55074381D02*
X60834596Y-55122762D01*
X60834596Y-55122762D02*
X60858787Y-55146952D01*
X60858787Y-55146952D02*
X60907168Y-55171143D01*
X60907168Y-55171143D02*
X61028120Y-55171143D01*
X61028120Y-55171143D02*
X61076501Y-55146952D01*
X61076501Y-55146952D02*
X61100692Y-55122762D01*
X61100692Y-55122762D02*
X61124882Y-55074381D01*
X61124882Y-55074381D02*
X61124882Y-54977619D01*
X61124882Y-54977619D02*
X61100692Y-54929238D01*
X61100692Y-54929238D02*
X61076501Y-54905047D01*
X61076501Y-54905047D02*
X61028120Y-54880857D01*
X64675333Y-65208019D02*
X64651142Y-65235839D01*
X64651142Y-65235839D02*
X64578571Y-65263658D01*
X64578571Y-65263658D02*
X64530190Y-65263658D01*
X64530190Y-65263658D02*
X64457618Y-65235839D01*
X64457618Y-65235839D02*
X64409237Y-65180200D01*
X64409237Y-65180200D02*
X64385047Y-65124562D01*
X64385047Y-65124562D02*
X64360856Y-65013286D01*
X64360856Y-65013286D02*
X64360856Y-64929829D01*
X64360856Y-64929829D02*
X64385047Y-64818553D01*
X64385047Y-64818553D02*
X64409237Y-64762915D01*
X64409237Y-64762915D02*
X64457618Y-64707277D01*
X64457618Y-64707277D02*
X64530190Y-64679458D01*
X64530190Y-64679458D02*
X64578571Y-64679458D01*
X64578571Y-64679458D02*
X64651142Y-64707277D01*
X64651142Y-64707277D02*
X64675333Y-64735096D01*
X64844666Y-64679458D02*
X65159142Y-64679458D01*
X65159142Y-64679458D02*
X64989809Y-64902010D01*
X64989809Y-64902010D02*
X65062380Y-64902010D01*
X65062380Y-64902010D02*
X65110761Y-64929829D01*
X65110761Y-64929829D02*
X65134952Y-64957648D01*
X65134952Y-64957648D02*
X65159142Y-65013286D01*
X65159142Y-65013286D02*
X65159142Y-65152381D01*
X65159142Y-65152381D02*
X65134952Y-65208019D01*
X65134952Y-65208019D02*
X65110761Y-65235839D01*
X65110761Y-65235839D02*
X65062380Y-65263658D01*
X65062380Y-65263658D02*
X64917237Y-65263658D01*
X64917237Y-65263658D02*
X64868856Y-65235839D01*
X64868856Y-65235839D02*
X64844666Y-65208019D01*
D13*
X65564828Y-65563066D02*
X65608371Y-65563066D01*
X65608371Y-65563066D02*
X65651914Y-65587256D01*
X65651914Y-65587256D02*
X65673686Y-65611447D01*
X65673686Y-65611447D02*
X65695457Y-65659828D01*
X65695457Y-65659828D02*
X65717228Y-65756590D01*
X65717228Y-65756590D02*
X65717228Y-65877542D01*
X65717228Y-65877542D02*
X65695457Y-65974304D01*
X65695457Y-65974304D02*
X65673686Y-66022685D01*
X65673686Y-66022685D02*
X65651914Y-66046876D01*
X65651914Y-66046876D02*
X65608371Y-66071066D01*
X65608371Y-66071066D02*
X65564828Y-66071066D01*
X65564828Y-66071066D02*
X65521286Y-66046876D01*
X65521286Y-66046876D02*
X65499514Y-66022685D01*
X65499514Y-66022685D02*
X65477743Y-65974304D01*
X65477743Y-65974304D02*
X65455971Y-65877542D01*
X65455971Y-65877542D02*
X65455971Y-65756590D01*
X65455971Y-65756590D02*
X65477743Y-65659828D01*
X65477743Y-65659828D02*
X65499514Y-65611447D01*
X65499514Y-65611447D02*
X65521286Y-65587256D01*
X65521286Y-65587256D02*
X65564828Y-65563066D01*
X65913172Y-66022685D02*
X65934943Y-66046876D01*
X65934943Y-66046876D02*
X65913172Y-66071066D01*
X65913172Y-66071066D02*
X65891400Y-66046876D01*
X65891400Y-66046876D02*
X65913172Y-66022685D01*
X65913172Y-66022685D02*
X65913172Y-66071066D01*
X66370371Y-66071066D02*
X66109114Y-66071066D01*
X66239743Y-66071066D02*
X66239743Y-65563066D01*
X66239743Y-65563066D02*
X66196200Y-65635637D01*
X66196200Y-65635637D02*
X66152657Y-65684018D01*
X66152657Y-65684018D02*
X66109114Y-65708209D01*
X66762258Y-65732399D02*
X66762258Y-66071066D01*
X66566315Y-65732399D02*
X66566315Y-65998495D01*
X66566315Y-65998495D02*
X66588086Y-66046876D01*
X66588086Y-66046876D02*
X66631629Y-66071066D01*
X66631629Y-66071066D02*
X66696943Y-66071066D01*
X66696943Y-66071066D02*
X66740486Y-66046876D01*
X66740486Y-66046876D02*
X66762258Y-66022685D01*
D11*
X106334761Y-55576057D02*
X106239523Y-55528438D01*
X106239523Y-55528438D02*
X106144285Y-55433200D01*
X106144285Y-55433200D02*
X106001428Y-55290342D01*
X106001428Y-55290342D02*
X105906190Y-55242723D01*
X105906190Y-55242723D02*
X105810952Y-55242723D01*
X105858571Y-55480819D02*
X105763333Y-55433200D01*
X105763333Y-55433200D02*
X105668095Y-55337961D01*
X105668095Y-55337961D02*
X105620476Y-55147485D01*
X105620476Y-55147485D02*
X105620476Y-54814152D01*
X105620476Y-54814152D02*
X105668095Y-54623676D01*
X105668095Y-54623676D02*
X105763333Y-54528438D01*
X105763333Y-54528438D02*
X105858571Y-54480819D01*
X105858571Y-54480819D02*
X106049047Y-54480819D01*
X106049047Y-54480819D02*
X106144285Y-54528438D01*
X106144285Y-54528438D02*
X106239523Y-54623676D01*
X106239523Y-54623676D02*
X106287142Y-54814152D01*
X106287142Y-54814152D02*
X106287142Y-55147485D01*
X106287142Y-55147485D02*
X106239523Y-55337961D01*
X106239523Y-55337961D02*
X106144285Y-55433200D01*
X106144285Y-55433200D02*
X106049047Y-55480819D01*
X106049047Y-55480819D02*
X105858571Y-55480819D01*
X107239523Y-55480819D02*
X106668095Y-55480819D01*
X106953809Y-55480819D02*
X106953809Y-54480819D01*
X106953809Y-54480819D02*
X106858571Y-54623676D01*
X106858571Y-54623676D02*
X106763333Y-54718914D01*
X106763333Y-54718914D02*
X106668095Y-54766533D01*
D12*
X67990025Y-49814666D02*
X68014216Y-49838857D01*
X68014216Y-49838857D02*
X68038406Y-49911428D01*
X68038406Y-49911428D02*
X68038406Y-49959809D01*
X68038406Y-49959809D02*
X68014216Y-50032381D01*
X68014216Y-50032381D02*
X67965835Y-50080762D01*
X67965835Y-50080762D02*
X67917454Y-50104952D01*
X67917454Y-50104952D02*
X67820692Y-50129143D01*
X67820692Y-50129143D02*
X67748120Y-50129143D01*
X67748120Y-50129143D02*
X67651358Y-50104952D01*
X67651358Y-50104952D02*
X67602977Y-50080762D01*
X67602977Y-50080762D02*
X67554596Y-50032381D01*
X67554596Y-50032381D02*
X67530406Y-49959809D01*
X67530406Y-49959809D02*
X67530406Y-49911428D01*
X67530406Y-49911428D02*
X67554596Y-49838857D01*
X67554596Y-49838857D02*
X67578787Y-49814666D01*
X67530406Y-49379238D02*
X67530406Y-49476000D01*
X67530406Y-49476000D02*
X67554596Y-49524381D01*
X67554596Y-49524381D02*
X67578787Y-49548571D01*
X67578787Y-49548571D02*
X67651358Y-49596952D01*
X67651358Y-49596952D02*
X67748120Y-49621143D01*
X67748120Y-49621143D02*
X67941644Y-49621143D01*
X67941644Y-49621143D02*
X67990025Y-49596952D01*
X67990025Y-49596952D02*
X68014216Y-49572762D01*
X68014216Y-49572762D02*
X68038406Y-49524381D01*
X68038406Y-49524381D02*
X68038406Y-49427619D01*
X68038406Y-49427619D02*
X68014216Y-49379238D01*
X68014216Y-49379238D02*
X67990025Y-49355047D01*
X67990025Y-49355047D02*
X67941644Y-49330857D01*
X67941644Y-49330857D02*
X67820692Y-49330857D01*
X67820692Y-49330857D02*
X67772311Y-49355047D01*
X67772311Y-49355047D02*
X67748120Y-49379238D01*
X67748120Y-49379238D02*
X67723930Y-49427619D01*
X67723930Y-49427619D02*
X67723930Y-49524381D01*
X67723930Y-49524381D02*
X67748120Y-49572762D01*
X67748120Y-49572762D02*
X67772311Y-49596952D01*
X67772311Y-49596952D02*
X67820692Y-49621143D01*
D11*
X59039819Y-76513333D02*
X59754104Y-76513333D01*
X59754104Y-76513333D02*
X59896961Y-76560952D01*
X59896961Y-76560952D02*
X59992200Y-76656190D01*
X59992200Y-76656190D02*
X60039819Y-76799047D01*
X60039819Y-76799047D02*
X60039819Y-76894285D01*
X59039819Y-75560952D02*
X59039819Y-76037142D01*
X59039819Y-76037142D02*
X59516009Y-76084761D01*
X59516009Y-76084761D02*
X59468390Y-76037142D01*
X59468390Y-76037142D02*
X59420771Y-75941904D01*
X59420771Y-75941904D02*
X59420771Y-75703809D01*
X59420771Y-75703809D02*
X59468390Y-75608571D01*
X59468390Y-75608571D02*
X59516009Y-75560952D01*
X59516009Y-75560952D02*
X59611247Y-75513333D01*
X59611247Y-75513333D02*
X59849342Y-75513333D01*
X59849342Y-75513333D02*
X59944580Y-75560952D01*
X59944580Y-75560952D02*
X59992200Y-75608571D01*
X59992200Y-75608571D02*
X60039819Y-75703809D01*
X60039819Y-75703809D02*
X60039819Y-75941904D01*
X60039819Y-75941904D02*
X59992200Y-76037142D01*
X59992200Y-76037142D02*
X59944580Y-76084761D01*
D12*
X72995519Y-47458321D02*
X73023339Y-47482512D01*
X73023339Y-47482512D02*
X73051158Y-47555083D01*
X73051158Y-47555083D02*
X73051158Y-47603464D01*
X73051158Y-47603464D02*
X73023339Y-47676036D01*
X73023339Y-47676036D02*
X72967700Y-47724417D01*
X72967700Y-47724417D02*
X72912062Y-47748607D01*
X72912062Y-47748607D02*
X72800786Y-47772798D01*
X72800786Y-47772798D02*
X72717329Y-47772798D01*
X72717329Y-47772798D02*
X72606053Y-47748607D01*
X72606053Y-47748607D02*
X72550415Y-47724417D01*
X72550415Y-47724417D02*
X72494777Y-47676036D01*
X72494777Y-47676036D02*
X72466958Y-47603464D01*
X72466958Y-47603464D02*
X72466958Y-47555083D01*
X72466958Y-47555083D02*
X72494777Y-47482512D01*
X72494777Y-47482512D02*
X72522596Y-47458321D01*
X72522596Y-47264798D02*
X72494777Y-47240607D01*
X72494777Y-47240607D02*
X72466958Y-47192226D01*
X72466958Y-47192226D02*
X72466958Y-47071274D01*
X72466958Y-47071274D02*
X72494777Y-47022893D01*
X72494777Y-47022893D02*
X72522596Y-46998702D01*
X72522596Y-46998702D02*
X72578234Y-46974512D01*
X72578234Y-46974512D02*
X72633872Y-46974512D01*
X72633872Y-46974512D02*
X72717329Y-46998702D01*
X72717329Y-46998702D02*
X73051158Y-47288988D01*
X73051158Y-47288988D02*
X73051158Y-46974512D01*
X72466958Y-46539083D02*
X72466958Y-46635845D01*
X72466958Y-46635845D02*
X72494777Y-46684226D01*
X72494777Y-46684226D02*
X72522596Y-46708416D01*
X72522596Y-46708416D02*
X72606053Y-46756797D01*
X72606053Y-46756797D02*
X72717329Y-46780988D01*
X72717329Y-46780988D02*
X72939881Y-46780988D01*
X72939881Y-46780988D02*
X72995519Y-46756797D01*
X72995519Y-46756797D02*
X73023339Y-46732607D01*
X73023339Y-46732607D02*
X73051158Y-46684226D01*
X73051158Y-46684226D02*
X73051158Y-46587464D01*
X73051158Y-46587464D02*
X73023339Y-46539083D01*
X73023339Y-46539083D02*
X72995519Y-46514892D01*
X72995519Y-46514892D02*
X72939881Y-46490702D01*
X72939881Y-46490702D02*
X72800786Y-46490702D01*
X72800786Y-46490702D02*
X72745148Y-46514892D01*
X72745148Y-46514892D02*
X72717329Y-46539083D01*
X72717329Y-46539083D02*
X72689510Y-46587464D01*
X72689510Y-46587464D02*
X72689510Y-46684226D01*
X72689510Y-46684226D02*
X72717329Y-46732607D01*
X72717329Y-46732607D02*
X72745148Y-46756797D01*
X72745148Y-46756797D02*
X72800786Y-46780988D01*
D13*
X74788566Y-47405664D02*
X74788566Y-47666921D01*
X74788566Y-47536292D02*
X74280566Y-47536292D01*
X74280566Y-47536292D02*
X74353137Y-47579835D01*
X74353137Y-47579835D02*
X74401518Y-47623378D01*
X74401518Y-47623378D02*
X74425709Y-47666921D01*
X74280566Y-47122635D02*
X74280566Y-47079092D01*
X74280566Y-47079092D02*
X74304756Y-47035549D01*
X74304756Y-47035549D02*
X74328947Y-47013778D01*
X74328947Y-47013778D02*
X74377328Y-46992006D01*
X74377328Y-46992006D02*
X74474090Y-46970235D01*
X74474090Y-46970235D02*
X74595042Y-46970235D01*
X74595042Y-46970235D02*
X74691804Y-46992006D01*
X74691804Y-46992006D02*
X74740185Y-47013778D01*
X74740185Y-47013778D02*
X74764376Y-47035549D01*
X74764376Y-47035549D02*
X74788566Y-47079092D01*
X74788566Y-47079092D02*
X74788566Y-47122635D01*
X74788566Y-47122635D02*
X74764376Y-47166178D01*
X74764376Y-47166178D02*
X74740185Y-47187949D01*
X74740185Y-47187949D02*
X74691804Y-47209720D01*
X74691804Y-47209720D02*
X74595042Y-47231492D01*
X74595042Y-47231492D02*
X74474090Y-47231492D01*
X74474090Y-47231492D02*
X74377328Y-47209720D01*
X74377328Y-47209720D02*
X74328947Y-47187949D01*
X74328947Y-47187949D02*
X74304756Y-47166178D01*
X74304756Y-47166178D02*
X74280566Y-47122635D01*
X74449899Y-46578349D02*
X74788566Y-46578349D01*
X74449899Y-46774291D02*
X74715995Y-46774291D01*
X74715995Y-46774291D02*
X74764376Y-46752520D01*
X74764376Y-46752520D02*
X74788566Y-46708977D01*
X74788566Y-46708977D02*
X74788566Y-46643663D01*
X74788566Y-46643663D02*
X74764376Y-46600120D01*
X74764376Y-46600120D02*
X74740185Y-46578349D01*
D11*
X71648819Y-52131904D02*
X72458342Y-52131904D01*
X72458342Y-52131904D02*
X72553580Y-52084285D01*
X72553580Y-52084285D02*
X72601200Y-52036666D01*
X72601200Y-52036666D02*
X72648819Y-51941428D01*
X72648819Y-51941428D02*
X72648819Y-51750952D01*
X72648819Y-51750952D02*
X72601200Y-51655714D01*
X72601200Y-51655714D02*
X72553580Y-51608095D01*
X72553580Y-51608095D02*
X72458342Y-51560476D01*
X72458342Y-51560476D02*
X71648819Y-51560476D01*
X71648819Y-51179523D02*
X71648819Y-50560476D01*
X71648819Y-50560476D02*
X72029771Y-50893809D01*
X72029771Y-50893809D02*
X72029771Y-50750952D01*
X72029771Y-50750952D02*
X72077390Y-50655714D01*
X72077390Y-50655714D02*
X72125009Y-50608095D01*
X72125009Y-50608095D02*
X72220247Y-50560476D01*
X72220247Y-50560476D02*
X72458342Y-50560476D01*
X72458342Y-50560476D02*
X72553580Y-50608095D01*
X72553580Y-50608095D02*
X72601200Y-50655714D01*
X72601200Y-50655714D02*
X72648819Y-50750952D01*
X72648819Y-50750952D02*
X72648819Y-51036666D01*
X72648819Y-51036666D02*
X72601200Y-51131904D01*
X72601200Y-51131904D02*
X72553580Y-51179523D01*
D12*
X101998406Y-64306571D02*
X101756501Y-64475905D01*
X101998406Y-64596857D02*
X101490406Y-64596857D01*
X101490406Y-64596857D02*
X101490406Y-64403333D01*
X101490406Y-64403333D02*
X101514596Y-64354952D01*
X101514596Y-64354952D02*
X101538787Y-64330762D01*
X101538787Y-64330762D02*
X101587168Y-64306571D01*
X101587168Y-64306571D02*
X101659739Y-64306571D01*
X101659739Y-64306571D02*
X101708120Y-64330762D01*
X101708120Y-64330762D02*
X101732311Y-64354952D01*
X101732311Y-64354952D02*
X101756501Y-64403333D01*
X101756501Y-64403333D02*
X101756501Y-64596857D01*
X101998406Y-63822762D02*
X101998406Y-64113048D01*
X101998406Y-63967905D02*
X101490406Y-63967905D01*
X101490406Y-63967905D02*
X101562977Y-64016286D01*
X101562977Y-64016286D02*
X101611358Y-64064667D01*
X101611358Y-64064667D02*
X101635549Y-64113048D01*
X101998406Y-63580857D02*
X101998406Y-63484095D01*
X101998406Y-63484095D02*
X101974216Y-63435714D01*
X101974216Y-63435714D02*
X101950025Y-63411523D01*
X101950025Y-63411523D02*
X101877454Y-63363142D01*
X101877454Y-63363142D02*
X101780692Y-63338952D01*
X101780692Y-63338952D02*
X101587168Y-63338952D01*
X101587168Y-63338952D02*
X101538787Y-63363142D01*
X101538787Y-63363142D02*
X101514596Y-63387333D01*
X101514596Y-63387333D02*
X101490406Y-63435714D01*
X101490406Y-63435714D02*
X101490406Y-63532476D01*
X101490406Y-63532476D02*
X101514596Y-63580857D01*
X101514596Y-63580857D02*
X101538787Y-63605047D01*
X101538787Y-63605047D02*
X101587168Y-63629238D01*
X101587168Y-63629238D02*
X101708120Y-63629238D01*
X101708120Y-63629238D02*
X101756501Y-63605047D01*
X101756501Y-63605047D02*
X101780692Y-63580857D01*
X101780692Y-63580857D02*
X101804882Y-63532476D01*
X101804882Y-63532476D02*
X101804882Y-63435714D01*
X101804882Y-63435714D02*
X101780692Y-63387333D01*
X101780692Y-63387333D02*
X101756501Y-63363142D01*
X101756501Y-63363142D02*
X101708120Y-63338952D01*
D15*
%TO.C,J1*%
X36295790Y-25918710D02*
X36295790Y-89538710D01*
X36295790Y-25918710D02*
X44925790Y-25918710D01*
X36295790Y-26038710D02*
X44925790Y-26038710D01*
X36295790Y-26156805D02*
X44925790Y-26156805D01*
X36295790Y-26274900D02*
X44925790Y-26274900D01*
X36295790Y-26392995D02*
X44925790Y-26392995D01*
X36295790Y-26511090D02*
X44925790Y-26511090D01*
X36295790Y-26629185D02*
X44925790Y-26629185D01*
X36295790Y-26747280D02*
X44925790Y-26747280D01*
X36295790Y-26865375D02*
X44925790Y-26865375D01*
X36295790Y-26983470D02*
X44925790Y-26983470D01*
X36295790Y-27101565D02*
X44925790Y-27101565D01*
X36295790Y-27219660D02*
X44925790Y-27219660D01*
X36295790Y-27337755D02*
X44925790Y-27337755D01*
X36295790Y-27455850D02*
X44925790Y-27455850D01*
X36295790Y-27573945D02*
X44925790Y-27573945D01*
X36295790Y-27692040D02*
X44925790Y-27692040D01*
X36295790Y-27810135D02*
X44925790Y-27810135D01*
X36295790Y-27928230D02*
X44925790Y-27928230D01*
X36295790Y-28046325D02*
X44925790Y-28046325D01*
X36295790Y-28164420D02*
X44925790Y-28164420D01*
X36295790Y-28282515D02*
X44925790Y-28282515D01*
X36295790Y-28400610D02*
X44925790Y-28400610D01*
X36295790Y-28518710D02*
X44925790Y-28518710D01*
X36295790Y-31058710D02*
X44925790Y-31058710D01*
X36295790Y-33598710D02*
X44925790Y-33598710D01*
X36295790Y-36138710D02*
X44925790Y-36138710D01*
X36295790Y-38678710D02*
X44925790Y-38678710D01*
X36295790Y-41218710D02*
X44925790Y-41218710D01*
X36295790Y-43758710D02*
X44925790Y-43758710D01*
X36295790Y-46298710D02*
X44925790Y-46298710D01*
X36295790Y-48838710D02*
X44925790Y-48838710D01*
X36295790Y-51378710D02*
X44925790Y-51378710D01*
X36295790Y-53918710D02*
X44925790Y-53918710D01*
X36295790Y-56458710D02*
X44925790Y-56458710D01*
X36295790Y-58998710D02*
X44925790Y-58998710D01*
X36295790Y-61538710D02*
X44925790Y-61538710D01*
X36295790Y-64078710D02*
X44925790Y-64078710D01*
X36295790Y-66618710D02*
X44925790Y-66618710D01*
X36295790Y-69158710D02*
X44925790Y-69158710D01*
X36295790Y-71698710D02*
X44925790Y-71698710D01*
X36295790Y-74238710D02*
X44925790Y-74238710D01*
X36295790Y-76778710D02*
X44925790Y-76778710D01*
X36295790Y-79318710D02*
X44925790Y-79318710D01*
X36295790Y-81858710D02*
X44925790Y-81858710D01*
X36295790Y-84398710D02*
X44925790Y-84398710D01*
X36295790Y-86938710D02*
X44925790Y-86938710D01*
X36295790Y-89538710D02*
X44925790Y-89538710D01*
X44925790Y-25918710D02*
X44925790Y-89538710D01*
X44925790Y-26888710D02*
X45335790Y-26888710D01*
X44925790Y-27608710D02*
X45335790Y-27608710D01*
X44925790Y-29428710D02*
X45335790Y-29428710D01*
X44925790Y-30148710D02*
X45335790Y-30148710D01*
X44925790Y-31968710D02*
X45335790Y-31968710D01*
X44925790Y-32688710D02*
X45335790Y-32688710D01*
X44925790Y-34508710D02*
X45335790Y-34508710D01*
X44925790Y-35228710D02*
X45335790Y-35228710D01*
X44925790Y-37048710D02*
X45335790Y-37048710D01*
X44925790Y-37768710D02*
X45335790Y-37768710D01*
X44925790Y-39588710D02*
X45335790Y-39588710D01*
X44925790Y-40308710D02*
X45335790Y-40308710D01*
X44925790Y-42128710D02*
X45335790Y-42128710D01*
X44925790Y-42848710D02*
X45335790Y-42848710D01*
X44925790Y-44668710D02*
X45335790Y-44668710D01*
X44925790Y-45388710D02*
X45335790Y-45388710D01*
X44925790Y-47208710D02*
X45335790Y-47208710D01*
X44925790Y-47928710D02*
X45335790Y-47928710D01*
X44925790Y-49748710D02*
X45335790Y-49748710D01*
X44925790Y-50468710D02*
X45335790Y-50468710D01*
X44925790Y-52288710D02*
X45335790Y-52288710D01*
X44925790Y-53008710D02*
X45335790Y-53008710D01*
X44925790Y-54828710D02*
X45335790Y-54828710D01*
X44925790Y-55548710D02*
X45335790Y-55548710D01*
X44925790Y-57368710D02*
X45335790Y-57368710D01*
X44925790Y-58088710D02*
X45335790Y-58088710D01*
X44925790Y-59908710D02*
X45335790Y-59908710D01*
X44925790Y-60628710D02*
X45335790Y-60628710D01*
X44925790Y-62448710D02*
X45335790Y-62448710D01*
X44925790Y-63168710D02*
X45335790Y-63168710D01*
X44925790Y-64988710D02*
X45335790Y-64988710D01*
X44925790Y-65708710D02*
X45335790Y-65708710D01*
X44925790Y-67528710D02*
X45335790Y-67528710D01*
X44925790Y-68248710D02*
X45335790Y-68248710D01*
X44925790Y-70068710D02*
X45335790Y-70068710D01*
X44925790Y-70788710D02*
X45335790Y-70788710D01*
X44925790Y-72608710D02*
X45335790Y-72608710D01*
X44925790Y-73328710D02*
X45335790Y-73328710D01*
X44925790Y-75148710D02*
X45335790Y-75148710D01*
X44925790Y-75868710D02*
X45335790Y-75868710D01*
X44925790Y-77688710D02*
X45335790Y-77688710D01*
X44925790Y-78408710D02*
X45335790Y-78408710D01*
X44925790Y-80228710D02*
X45335790Y-80228710D01*
X44925790Y-80948710D02*
X45335790Y-80948710D01*
X44925790Y-82768710D02*
X45335790Y-82768710D01*
X44925790Y-83488710D02*
X45335790Y-83488710D01*
X44925790Y-85308710D02*
X45335790Y-85308710D01*
X44925790Y-86028710D02*
X45335790Y-86028710D01*
X44925790Y-87848710D02*
X45335790Y-87848710D01*
X44925790Y-88568710D02*
X45335790Y-88568710D01*
X47435790Y-26888710D02*
X47815790Y-26888710D01*
X47435790Y-27608710D02*
X47815790Y-27608710D01*
X47435790Y-29428710D02*
X47875790Y-29428710D01*
X47435790Y-30148710D02*
X47875790Y-30148710D01*
X47435790Y-31968710D02*
X47875790Y-31968710D01*
X47435790Y-32688710D02*
X47875790Y-32688710D01*
X47435790Y-34508710D02*
X47875790Y-34508710D01*
X47435790Y-35228710D02*
X47875790Y-35228710D01*
X47435790Y-37048710D02*
X47875790Y-37048710D01*
X47435790Y-37768710D02*
X47875790Y-37768710D01*
X47435790Y-39588710D02*
X47875790Y-39588710D01*
X47435790Y-40308710D02*
X47875790Y-40308710D01*
X47435790Y-42128710D02*
X47875790Y-42128710D01*
X47435790Y-42848710D02*
X47875790Y-42848710D01*
X47435790Y-44668710D02*
X47875790Y-44668710D01*
X47435790Y-45388710D02*
X47875790Y-45388710D01*
X47435790Y-47208710D02*
X47875790Y-47208710D01*
X47435790Y-47928710D02*
X47875790Y-47928710D01*
X47435790Y-49748710D02*
X47875790Y-49748710D01*
X47435790Y-50468710D02*
X47875790Y-50468710D01*
X47435790Y-52288710D02*
X47875790Y-52288710D01*
X47435790Y-53008710D02*
X47875790Y-53008710D01*
X47435790Y-54828710D02*
X47875790Y-54828710D01*
X47435790Y-55548710D02*
X47875790Y-55548710D01*
X47435790Y-57368710D02*
X47875790Y-57368710D01*
X47435790Y-58088710D02*
X47875790Y-58088710D01*
X47435790Y-59908710D02*
X47875790Y-59908710D01*
X47435790Y-60628710D02*
X47875790Y-60628710D01*
X47435790Y-62448710D02*
X47875790Y-62448710D01*
X47435790Y-63168710D02*
X47875790Y-63168710D01*
X47435790Y-64988710D02*
X47875790Y-64988710D01*
X47435790Y-65708710D02*
X47875790Y-65708710D01*
X47435790Y-67528710D02*
X47875790Y-67528710D01*
X47435790Y-68248710D02*
X47875790Y-68248710D01*
X47435790Y-70068710D02*
X47875790Y-70068710D01*
X47435790Y-70788710D02*
X47875790Y-70788710D01*
X47435790Y-72608710D02*
X47875790Y-72608710D01*
X47435790Y-73328710D02*
X47875790Y-73328710D01*
X47435790Y-75148710D02*
X47875790Y-75148710D01*
X47435790Y-75868710D02*
X47875790Y-75868710D01*
X47435790Y-77688710D02*
X47875790Y-77688710D01*
X47435790Y-78408710D02*
X47875790Y-78408710D01*
X47435790Y-80228710D02*
X47875790Y-80228710D01*
X47435790Y-80948710D02*
X47875790Y-80948710D01*
X47435790Y-82768710D02*
X47875790Y-82768710D01*
X47435790Y-83488710D02*
X47875790Y-83488710D01*
X47435790Y-85308710D02*
X47875790Y-85308710D01*
X47435790Y-86028710D02*
X47875790Y-86028710D01*
X47435790Y-87848710D02*
X47875790Y-87848710D01*
X47435790Y-88568710D02*
X47875790Y-88568710D01*
X48925790Y-25918710D02*
X50035790Y-25918710D01*
X50035790Y-25918710D02*
X50035790Y-27248710D01*
D11*
%TO.C,ST1*%
X44930000Y-15300000D02*
X44930000Y-20740000D01*
X44930000Y-20740000D02*
X46710000Y-20740000D01*
X46710000Y-15300000D02*
X44930000Y-15300000D01*
X51830000Y-15300000D02*
X49490000Y-15300000D01*
X51830000Y-20740000D02*
X49490000Y-20740000D01*
%TO.C,ST2*%
X44930000Y-94720000D02*
X44930000Y-100160000D01*
X44930000Y-100160000D02*
X46710000Y-100160000D01*
X46710000Y-94720000D02*
X44930000Y-94720000D01*
X51830000Y-94720000D02*
X49490000Y-94720000D01*
X51830000Y-100160000D02*
X49490000Y-100160000D01*
D16*
%TO.C,R7*%
X69363400Y-62008480D02*
X70836600Y-62008480D01*
X69365940Y-62747620D02*
X69365940Y-62049120D01*
X69365940Y-63748380D02*
X69365940Y-64446880D01*
X70834060Y-62049120D02*
X70834060Y-62747620D01*
X70834060Y-63748380D02*
X70834060Y-64446880D01*
X70836600Y-64487520D02*
X69363400Y-64487520D01*
D15*
%TO.C,U2*%
X104860000Y-61390000D02*
X104860000Y-61765000D01*
X104860000Y-65610000D02*
X104860000Y-65235000D01*
X105235000Y-61390000D02*
X104860000Y-61390000D01*
X105235000Y-65610000D02*
X104860000Y-65610000D01*
X108705000Y-61390000D02*
X109080000Y-61390000D01*
X108705000Y-65610000D02*
X109080000Y-65610000D01*
X109080000Y-61390000D02*
X109080000Y-61765000D01*
D16*
%TO.C,FB1*%
X52328480Y-80776600D02*
X52328480Y-79303400D01*
X52369120Y-79305940D02*
X53067620Y-79305940D01*
X53067620Y-80774060D02*
X52369120Y-80774060D01*
X54068380Y-79305940D02*
X54766880Y-79305940D01*
X54068380Y-80774060D02*
X54766880Y-80774060D01*
X54807520Y-79303400D02*
X54807520Y-80776600D01*
%TO.C,R11*%
X57813400Y-58562480D02*
X59286600Y-58562480D01*
X57815940Y-59301620D02*
X57815940Y-58603120D01*
X57815940Y-61000880D02*
X57815940Y-60302380D01*
X59284060Y-59301620D02*
X59284060Y-58603120D01*
X59284060Y-60302380D02*
X59284060Y-61000880D01*
X59286600Y-61041520D02*
X57813400Y-61041520D01*
%TO.C,FB2*%
X52328480Y-82436600D02*
X52328480Y-80963400D01*
X52369120Y-80965940D02*
X53067620Y-80965940D01*
X53067620Y-82434060D02*
X52369120Y-82434060D01*
X54068380Y-80965940D02*
X54766880Y-80965940D01*
X54068380Y-82434060D02*
X54766880Y-82434060D01*
X54807520Y-80963400D02*
X54807520Y-82436600D01*
D15*
%TO.C,U6*%
X87675000Y-57225000D02*
X85725000Y-57225000D01*
X87675000Y-57225000D02*
X89625000Y-57225000D01*
X87675000Y-62345000D02*
X85725000Y-62345000D01*
X87675000Y-62345000D02*
X89625000Y-62345000D01*
X84975000Y-57320000D02*
X84735000Y-56990000D01*
X85215000Y-56990000D01*
X84975000Y-57320000D01*
G36*
X84975000Y-57320000D02*
G01*
X84735000Y-56990000D01*
X85215000Y-56990000D01*
X84975000Y-57320000D01*
G37*
%TO.C,C15*%
X65283335Y-49490000D02*
X65051665Y-49490000D01*
X65283335Y-50210000D02*
X65051665Y-50210000D01*
%TO.C,C34*%
X109730000Y-60298335D02*
X109730000Y-60066665D01*
X110450000Y-60298335D02*
X110450000Y-60066665D01*
%TO.C,D4*%
X67060000Y-70910000D02*
X68960000Y-70910000D01*
X68660000Y-69110000D02*
X67060000Y-69110000D01*
%TO.C,L4*%
X77100000Y-43431248D02*
X77100000Y-43953752D01*
X79320000Y-43431248D02*
X79320000Y-43953752D01*
D16*
%TO.C,R6*%
X76893400Y-63732480D02*
X78366600Y-63732480D01*
X76895940Y-64471620D02*
X76895940Y-63773120D01*
X76895940Y-66170880D02*
X76895940Y-65472380D01*
X78364060Y-64471620D02*
X78364060Y-63773120D01*
X78364060Y-65472380D02*
X78364060Y-66170880D01*
X78366600Y-66211520D02*
X76893400Y-66211520D01*
D15*
%TO.C,R9*%
X100300000Y-67097621D02*
X100300000Y-66762379D01*
X101060000Y-67097621D02*
X101060000Y-66762379D01*
%TO.C,C41*%
X105755835Y-58570000D02*
X105524165Y-58570000D01*
X105755835Y-59290000D02*
X105524165Y-59290000D01*
D16*
%TO.C,L5*%
X107292480Y-72706600D02*
X107292480Y-71233400D01*
X107333120Y-71235940D02*
X108031620Y-71235940D01*
X108031620Y-72704060D02*
X107333120Y-72704060D01*
X109032380Y-71235940D02*
X109730880Y-71235940D01*
X109032380Y-72704060D02*
X109730880Y-72704060D01*
X109771520Y-71233400D02*
X109771520Y-72706600D01*
D15*
%TO.C,C18*%
X106230000Y-69081835D02*
X106230000Y-68850165D01*
X106950000Y-69081835D02*
X106950000Y-68850165D01*
%TO.C,R18*%
X67800000Y-65202379D02*
X67800000Y-65537621D01*
X68560000Y-65202379D02*
X68560000Y-65537621D01*
%TO.C,R15*%
X68750000Y-65202379D02*
X68750000Y-65537621D01*
X69510000Y-65202379D02*
X69510000Y-65537621D01*
%TO.C,R14*%
X75880000Y-59817621D02*
X75880000Y-59482379D01*
X76640000Y-59817621D02*
X76640000Y-59482379D01*
%TO.C,C16*%
X102520000Y-67954165D02*
X102520000Y-68185835D01*
X103240000Y-67954165D02*
X103240000Y-68185835D01*
D16*
%TO.C,L3*%
X110163400Y-66998480D02*
X111636600Y-66998480D01*
X110165940Y-67737620D02*
X110165940Y-67039120D01*
X110165940Y-69436880D02*
X110165940Y-68738380D01*
X111634060Y-67737620D02*
X111634060Y-67039120D01*
X111634060Y-68738380D02*
X111634060Y-69436880D01*
X111636600Y-69477520D02*
X110163400Y-69477520D01*
D15*
%TO.C,D3*%
X103070000Y-70972500D02*
X103070000Y-70322500D01*
X103070000Y-70972500D02*
X103070000Y-72647500D01*
X106190000Y-70972500D02*
X106190000Y-70322500D01*
X106190000Y-70972500D02*
X106190000Y-71622500D01*
D16*
%TO.C,C30*%
X77028480Y-62296600D02*
X77028480Y-60823400D01*
X77767620Y-60825940D02*
X77069120Y-60825940D01*
X77767620Y-62294060D02*
X77069120Y-62294060D01*
X78768380Y-60825940D02*
X79466880Y-60825940D01*
X79466880Y-62294060D02*
X78768380Y-62294060D01*
X79507520Y-60823400D02*
X79507520Y-62296600D01*
D15*
%TO.C,C8*%
X59770000Y-56774165D02*
X59770000Y-57005835D01*
X60490000Y-56774165D02*
X60490000Y-57005835D01*
%TO.C,C12*%
X65760000Y-60556665D02*
X65760000Y-60788335D01*
X66480000Y-60556665D02*
X66480000Y-60788335D01*
%TO.C,C27*%
X74870835Y-48031750D02*
X74639165Y-48031750D01*
X74870835Y-48751750D02*
X74639165Y-48751750D01*
D12*
%TO.C,J4*%
X74790000Y-70390000D02*
X88790000Y-70390000D01*
X74790000Y-76175000D02*
X74790000Y-70390000D01*
X74790000Y-83390000D02*
X74790000Y-79605000D01*
X88790000Y-70390000D02*
X88790000Y-76175000D01*
X88790000Y-83390000D02*
X74790000Y-83390000D01*
X88790000Y-83390000D02*
X88790000Y-79605000D01*
D17*
X90005000Y-74890000D02*
G75*
G02*
X89805000Y-74890000I-100000J0D01*
G01*
X89805000Y-74890000D02*
G75*
G02*
X90005000Y-74890000I100000J0D01*
G01*
D15*
%TO.C,JP2*%
X86270000Y-61110000D02*
X86270000Y-60510000D01*
X86970000Y-59810000D02*
X88370000Y-59810000D01*
X88370000Y-61810000D02*
X86970000Y-61810000D01*
X89070000Y-60510000D02*
X89070000Y-61110000D01*
X86270000Y-60510000D02*
G75*
G02*
X86970000Y-59810000I699999J1D01*
G01*
X86970000Y-61810000D02*
G75*
G02*
X86270000Y-61110000I-1J699999D01*
G01*
X88370000Y-59810000D02*
G75*
G02*
X89070000Y-60510000I0J-700000D01*
G01*
X89070000Y-61110000D02*
G75*
G02*
X88370000Y-61810000I-700000J0D01*
G01*
%TO.C,C17*%
X105300000Y-69071835D02*
X105300000Y-68840165D01*
X106020000Y-69071835D02*
X106020000Y-68840165D01*
D16*
%TO.C,R10*%
X56163400Y-58562480D02*
X57636600Y-58562480D01*
X56165940Y-59301620D02*
X56165940Y-58603120D01*
X56165940Y-61000880D02*
X56165940Y-60302380D01*
X57634060Y-59301620D02*
X57634060Y-58603120D01*
X57634060Y-60302380D02*
X57634060Y-61000880D01*
X57636600Y-61041520D02*
X56163400Y-61041520D01*
D15*
%TO.C,C13*%
X66710000Y-60556665D02*
X66710000Y-60788335D01*
X67430000Y-60556665D02*
X67430000Y-60788335D01*
D12*
%TO.C,J3*%
X60637500Y-73400000D02*
X60637500Y-83400000D01*
X60637500Y-83400000D02*
X70637500Y-83400000D01*
X70637500Y-73400000D02*
X60637500Y-73400000D01*
X70637500Y-83400000D02*
X70637500Y-73400000D01*
D17*
X59987500Y-79400000D02*
G75*
G02*
X59787500Y-79400000I-100000J0D01*
G01*
X59787500Y-79400000D02*
G75*
G02*
X59987500Y-79400000I100000J0D01*
G01*
D15*
%TO.C,C37*%
X105755835Y-59480000D02*
X105524165Y-59480000D01*
X105755835Y-60200000D02*
X105524165Y-60200000D01*
D16*
%TO.C,C5*%
X73573400Y-61982480D02*
X75046600Y-61982480D01*
X73575940Y-62721620D02*
X73575940Y-62023120D01*
X73575940Y-64420880D02*
X73575940Y-63722380D01*
X75044060Y-62721620D02*
X75044060Y-62023120D01*
X75044060Y-63722380D02*
X75044060Y-64420880D01*
X75046600Y-64461520D02*
X73573400Y-64461520D01*
%TO.C,R20*%
X100923400Y-55578480D02*
X102396600Y-55578480D01*
X100925940Y-56317620D02*
X100925940Y-55619120D01*
X100925940Y-58016880D02*
X100925940Y-57318380D01*
X102394060Y-56317620D02*
X102394060Y-55619120D01*
X102394060Y-57318380D02*
X102394060Y-58016880D01*
X102396600Y-58057520D02*
X100923400Y-58057520D01*
D15*
%TO.C,R21*%
X91390000Y-58667621D02*
X91390000Y-58332379D01*
X92150000Y-58667621D02*
X92150000Y-58332379D01*
%TO.C,C36*%
X102560000Y-64705835D02*
X102560000Y-64474165D01*
X103280000Y-64705835D02*
X103280000Y-64474165D01*
D16*
%TO.C,L2*%
X107372480Y-69036600D02*
X107372480Y-67563400D01*
X107413120Y-67565940D02*
X108111620Y-67565940D01*
X108111620Y-69034060D02*
X107413120Y-69034060D01*
X109112380Y-67565940D02*
X109810880Y-67565940D01*
X109112380Y-69034060D02*
X109810880Y-69034060D01*
X109851520Y-67563400D02*
X109851520Y-69036600D01*
D15*
%TO.C,C31*%
X74720000Y-59534165D02*
X74720000Y-59765835D01*
X75440000Y-59534165D02*
X75440000Y-59765835D01*
%TO.C,C20*%
X108244165Y-70260000D02*
X108475835Y-70260000D01*
X108244165Y-70980000D02*
X108475835Y-70980000D01*
D16*
%TO.C,C39*%
X91978480Y-51246600D02*
X91978480Y-49773400D01*
X92019120Y-49775940D02*
X92717620Y-49775940D01*
X92717620Y-51244060D02*
X92019120Y-51244060D01*
X93718380Y-49775940D02*
X94416880Y-49775940D01*
X93718380Y-51244060D02*
X94416880Y-51244060D01*
X94457520Y-49773400D02*
X94457520Y-51246600D01*
D15*
%TO.C,U5*%
X93702500Y-51910000D02*
X92902500Y-51910000D01*
X93702500Y-51910000D02*
X94502500Y-51910000D01*
X93702500Y-55030000D02*
X92902500Y-55030000D01*
X93702500Y-55030000D02*
X94502500Y-55030000D01*
X92402500Y-51960000D02*
X92162500Y-51630000D01*
X92642500Y-51630000D01*
X92402500Y-51960000D01*
G36*
X92402500Y-51960000D02*
G01*
X92162500Y-51630000D01*
X92642500Y-51630000D01*
X92402500Y-51960000D01*
G37*
%TO.C,C10*%
X61610000Y-59486665D02*
X61610000Y-59718335D01*
X62330000Y-59486665D02*
X62330000Y-59718335D01*
%TO.C,C42*%
X55180000Y-70430000D02*
X52999000Y-70430000D01*
X55180000Y-70470000D02*
X53002000Y-70470000D01*
X55180000Y-70510000D02*
X53006000Y-70510000D01*
X55180000Y-70550000D02*
X53010000Y-70550000D01*
X55180000Y-70590000D02*
X53015000Y-70590000D01*
X55180000Y-70630000D02*
X53020000Y-70630000D01*
X55180000Y-70670000D02*
X53025000Y-70670000D01*
X55180000Y-70710000D02*
X53032000Y-70710000D01*
X55180000Y-70750000D02*
X53038000Y-70750000D01*
X55180000Y-70790000D02*
X53046000Y-70790000D01*
X55180000Y-70830000D02*
X53053000Y-70830000D01*
X55180000Y-70870000D02*
X53061000Y-70870000D01*
X55180000Y-70910000D02*
X53070000Y-70910000D01*
X55180000Y-70950000D02*
X53080000Y-70950000D01*
X55180000Y-70990000D02*
X53089000Y-70990000D01*
X55180000Y-71030000D02*
X53100000Y-71030000D01*
X55180000Y-71070000D02*
X53111000Y-71070000D01*
X55180000Y-71110000D02*
X53122000Y-71110000D01*
X55180000Y-71150000D02*
X53134000Y-71150000D01*
X55180000Y-71190000D02*
X53147000Y-71190000D01*
X55180000Y-71230000D02*
X53160000Y-71230000D01*
X55180000Y-71270000D02*
X53173000Y-71270000D01*
X55180000Y-71310000D02*
X53188000Y-71310000D01*
X55180000Y-71350000D02*
X53203000Y-71350000D01*
X55180000Y-71390000D02*
X53218000Y-71390000D01*
X55180000Y-71430000D02*
X53234000Y-71430000D01*
X55180000Y-71470000D02*
X53251000Y-71470000D01*
X55180000Y-71510000D02*
X53268000Y-71510000D01*
X55180000Y-71550000D02*
X53286000Y-71550000D01*
X55180000Y-71590000D02*
X53305000Y-71590000D01*
X55180000Y-71630000D02*
X53324000Y-71630000D01*
X55180000Y-71670000D02*
X53344000Y-71670000D01*
X55180000Y-71710000D02*
X53365000Y-71710000D01*
X55180000Y-71750000D02*
X53386000Y-71750000D01*
X55180000Y-71790000D02*
X53408000Y-71790000D01*
X55180000Y-71830000D02*
X53431000Y-71830000D01*
X55180000Y-71870000D02*
X53455000Y-71870000D01*
X55180000Y-71910000D02*
X53479000Y-71910000D01*
X55180000Y-71950000D02*
X53504000Y-71950000D01*
X55180000Y-71990000D02*
X53530000Y-71990000D01*
X55180000Y-72030000D02*
X53557000Y-72030000D01*
X55180000Y-72070000D02*
X53584000Y-72070000D01*
X55180000Y-72110000D02*
X53613000Y-72110000D01*
X55180000Y-72150000D02*
X53643000Y-72150000D01*
X55180000Y-72190000D02*
X53673000Y-72190000D01*
X55180000Y-72230000D02*
X53704000Y-72230000D01*
X55180000Y-72270000D02*
X53737000Y-72270000D01*
X55180000Y-72310000D02*
X53770000Y-72310000D01*
X55180000Y-72350000D02*
X53805000Y-72350000D01*
X55180000Y-72390000D02*
X53841000Y-72390000D01*
X55180000Y-72430000D02*
X53878000Y-72430000D01*
X55180000Y-72470000D02*
X53916000Y-72470000D01*
X56622000Y-73430000D02*
X55818000Y-73430000D01*
X56853000Y-73390000D02*
X55587000Y-73390000D01*
X57021000Y-73350000D02*
X55419000Y-73350000D01*
X57159000Y-73310000D02*
X55281000Y-73310000D01*
X57278000Y-73270000D02*
X55162000Y-73270000D01*
X57385000Y-73230000D02*
X55055000Y-73230000D01*
X57481000Y-73190000D02*
X54959000Y-73190000D01*
X57570000Y-73150000D02*
X54870000Y-73150000D01*
X57652000Y-73110000D02*
X54788000Y-73110000D01*
X57729000Y-73070000D02*
X54711000Y-73070000D01*
X57801000Y-73030000D02*
X54639000Y-73030000D01*
X57869000Y-72990000D02*
X54571000Y-72990000D01*
X57934000Y-72950000D02*
X54506000Y-72950000D01*
X57995000Y-72910000D02*
X54445000Y-72910000D01*
X58054000Y-72870000D02*
X54386000Y-72870000D01*
X58059000Y-66689759D02*
X58059000Y-67319759D01*
X58110000Y-72830000D02*
X54330000Y-72830000D01*
X58163000Y-72790000D02*
X54277000Y-72790000D01*
X58215000Y-72750000D02*
X54225000Y-72750000D01*
X58264000Y-72710000D02*
X54176000Y-72710000D01*
X58311000Y-72670000D02*
X54129000Y-72670000D01*
X58357000Y-72630000D02*
X54083000Y-72630000D01*
X58374000Y-67004759D02*
X57744000Y-67004759D01*
X58401000Y-72590000D02*
X54039000Y-72590000D01*
X58443000Y-72550000D02*
X53997000Y-72550000D01*
X58484000Y-72510000D02*
X53956000Y-72510000D01*
X58524000Y-72470000D02*
X57260000Y-72470000D01*
X58562000Y-72430000D02*
X57260000Y-72430000D01*
X58599000Y-72390000D02*
X57260000Y-72390000D01*
X58635000Y-72350000D02*
X57260000Y-72350000D01*
X58670000Y-72310000D02*
X57260000Y-72310000D01*
X58703000Y-72270000D02*
X57260000Y-72270000D01*
X58736000Y-72230000D02*
X57260000Y-72230000D01*
X58767000Y-72190000D02*
X57260000Y-72190000D01*
X58797000Y-72150000D02*
X57260000Y-72150000D01*
X58827000Y-72110000D02*
X57260000Y-72110000D01*
X58856000Y-72070000D02*
X57260000Y-72070000D01*
X58883000Y-72030000D02*
X57260000Y-72030000D01*
X58910000Y-71990000D02*
X57260000Y-71990000D01*
X58936000Y-71950000D02*
X57260000Y-71950000D01*
X58961000Y-71910000D02*
X57260000Y-71910000D01*
X58985000Y-71870000D02*
X57260000Y-71870000D01*
X59009000Y-71830000D02*
X57260000Y-71830000D01*
X59032000Y-71790000D02*
X57260000Y-71790000D01*
X59054000Y-71750000D02*
X57260000Y-71750000D01*
X59075000Y-71710000D02*
X57260000Y-71710000D01*
X59096000Y-71670000D02*
X57260000Y-71670000D01*
X59116000Y-71630000D02*
X57260000Y-71630000D01*
X59135000Y-71590000D02*
X57260000Y-71590000D01*
X59154000Y-71550000D02*
X57260000Y-71550000D01*
X59172000Y-71510000D02*
X57260000Y-71510000D01*
X59189000Y-71470000D02*
X57260000Y-71470000D01*
X59206000Y-71430000D02*
X57260000Y-71430000D01*
X59222000Y-71390000D02*
X57260000Y-71390000D01*
X59237000Y-71350000D02*
X57260000Y-71350000D01*
X59252000Y-71310000D02*
X57260000Y-71310000D01*
X59267000Y-71270000D02*
X57260000Y-71270000D01*
X59280000Y-71230000D02*
X57260000Y-71230000D01*
X59293000Y-71190000D02*
X57260000Y-71190000D01*
X59306000Y-71150000D02*
X57260000Y-71150000D01*
X59318000Y-71110000D02*
X57260000Y-71110000D01*
X59329000Y-71070000D02*
X57260000Y-71070000D01*
X59340000Y-71030000D02*
X57260000Y-71030000D01*
X59351000Y-70990000D02*
X57260000Y-70990000D01*
X59360000Y-70950000D02*
X57260000Y-70950000D01*
X59370000Y-70910000D02*
X57260000Y-70910000D01*
X59379000Y-70870000D02*
X57260000Y-70870000D01*
X59387000Y-70830000D02*
X57260000Y-70830000D01*
X59394000Y-70790000D02*
X57260000Y-70790000D01*
X59402000Y-70750000D02*
X57260000Y-70750000D01*
X59408000Y-70710000D02*
X57260000Y-70710000D01*
X59415000Y-70670000D02*
X57260000Y-70670000D01*
X59420000Y-70630000D02*
X57260000Y-70630000D01*
X59425000Y-70590000D02*
X57260000Y-70590000D01*
X59430000Y-70550000D02*
X57260000Y-70550000D01*
X59434000Y-70510000D02*
X57260000Y-70510000D01*
X59438000Y-70470000D02*
X57260000Y-70470000D01*
X59441000Y-70430000D02*
X57260000Y-70430000D01*
X59444000Y-70390000D02*
X52996000Y-70390000D01*
X59446000Y-70350000D02*
X52994000Y-70350000D01*
X59448000Y-70310000D02*
X52992000Y-70310000D01*
X59449000Y-70270000D02*
X52991000Y-70270000D01*
X59450000Y-70190000D02*
X52990000Y-70190000D01*
X59450000Y-70230000D02*
X52990000Y-70230000D01*
X59490000Y-70190000D02*
G75*
G02*
X52950000Y-70190000I-3270000J0D01*
G01*
X52950000Y-70190000D02*
G75*
G02*
X59490000Y-70190000I3270000J0D01*
G01*
D16*
%TO.C,R4*%
X64782480Y-68696600D02*
X64782480Y-67223400D01*
X64823120Y-67225940D02*
X65521620Y-67225940D01*
X65521620Y-68694060D02*
X64823120Y-68694060D01*
X66522380Y-67225940D02*
X67220880Y-67225940D01*
X66522380Y-68694060D02*
X67220880Y-68694060D01*
X67261520Y-67223400D02*
X67261520Y-68696600D01*
D15*
%TO.C,C19*%
X108475835Y-69260000D02*
X108244165Y-69260000D01*
X108475835Y-69980000D02*
X108244165Y-69980000D01*
D16*
%TO.C,C40*%
X96003400Y-52592480D02*
X97476600Y-52592480D01*
X96005940Y-53331620D02*
X96005940Y-52633120D01*
X96005940Y-54332380D02*
X96005940Y-55030880D01*
X97474060Y-52633120D02*
X97474060Y-53331620D01*
X97474060Y-54332380D02*
X97474060Y-55030880D01*
X97476600Y-55071520D02*
X96003400Y-55071520D01*
%TO.C,C2*%
X62553400Y-64612480D02*
X64026600Y-64612480D01*
X62555940Y-65351620D02*
X62555940Y-64653120D01*
X62555940Y-67050880D02*
X62555940Y-66352380D01*
X64024060Y-65351620D02*
X64024060Y-64653120D01*
X64024060Y-66352380D02*
X64024060Y-67050880D01*
X64026600Y-67091520D02*
X62553400Y-67091520D01*
D15*
%TO.C,C14*%
X65293335Y-50470000D02*
X65061665Y-50470000D01*
X65293335Y-51190000D02*
X65061665Y-51190000D01*
%TO.C,C21*%
X110454165Y-66060000D02*
X110685835Y-66060000D01*
X110454165Y-66780000D02*
X110685835Y-66780000D01*
D16*
%TO.C,R1*%
X62543400Y-67272480D02*
X64016600Y-67272480D01*
X62545940Y-68011620D02*
X62545940Y-67313120D01*
X62545940Y-69710880D02*
X62545940Y-69012380D01*
X64014060Y-68011620D02*
X64014060Y-67313120D01*
X64014060Y-69012380D02*
X64014060Y-69710880D01*
X64016600Y-69751520D02*
X62543400Y-69751520D01*
D15*
%TO.C,C1*%
X64510000Y-60334165D02*
X64510000Y-60565835D01*
X65230000Y-60334165D02*
X65230000Y-60565835D01*
%TO.C,U1*%
X62990000Y-53167500D02*
X63465000Y-53167500D01*
X62990000Y-53642500D02*
X62990000Y-53167500D01*
X62990000Y-57912500D02*
X62990000Y-58387500D01*
X62990000Y-58387500D02*
X63465000Y-58387500D01*
X68210000Y-53642500D02*
X68210000Y-53167500D01*
X68210000Y-57912500D02*
X68210000Y-58387500D01*
X68210000Y-58387500D02*
X67735000Y-58387500D01*
%TO.C,C38*%
X108636665Y-57630000D02*
X108868335Y-57630000D01*
X108636665Y-58350000D02*
X108868335Y-58350000D01*
%TO.C,C11*%
X60640000Y-59486665D02*
X60640000Y-59718335D01*
X61360000Y-59486665D02*
X61360000Y-59718335D01*
%TO.C,R16*%
X73582379Y-45282500D02*
X73917621Y-45282500D01*
X73582379Y-46042500D02*
X73917621Y-46042500D01*
D16*
%TO.C,L1*%
X103523400Y-66558480D02*
X104996600Y-66558480D01*
X103525940Y-67297620D02*
X103525940Y-66599120D01*
X103525940Y-68298380D02*
X103525940Y-68996880D01*
X104994060Y-66599120D02*
X104994060Y-67297620D01*
X104994060Y-68298380D02*
X104994060Y-68996880D01*
X104996600Y-69037520D02*
X103523400Y-69037520D01*
%TO.C,C4*%
X71063400Y-62002480D02*
X72536600Y-62002480D01*
X71065940Y-62741620D02*
X71065940Y-62043120D01*
X71065940Y-64440880D02*
X71065940Y-63742380D01*
X72534060Y-62741620D02*
X72534060Y-62043120D01*
X72534060Y-63742380D02*
X72534060Y-64440880D01*
X72536600Y-64481520D02*
X71063400Y-64481520D01*
%TO.C,C28*%
X77308480Y-49016600D02*
X77308480Y-47543400D01*
X78047620Y-47545940D02*
X77349120Y-47545940D01*
X78047620Y-49014060D02*
X77349120Y-49014060D01*
X79048380Y-47545940D02*
X79746880Y-47545940D01*
X79746880Y-49014060D02*
X79048380Y-49014060D01*
X79787520Y-47543400D02*
X79787520Y-49016600D01*
D15*
%TO.C,C7*%
X66450000Y-51578335D02*
X66450000Y-51346665D01*
X67170000Y-51578335D02*
X67170000Y-51346665D01*
D16*
%TO.C,C24*%
X78263400Y-57958480D02*
X79736600Y-57958480D01*
X78265940Y-58697620D02*
X78265940Y-57999120D01*
X78265940Y-59698380D02*
X78265940Y-60396880D01*
X79734060Y-57999120D02*
X79734060Y-58697620D01*
X79734060Y-59698380D02*
X79734060Y-60396880D01*
X79736600Y-60437520D02*
X78263400Y-60437520D01*
D15*
%TO.C,C29*%
X78930000Y-50884165D02*
X78930000Y-51115835D01*
X79650000Y-50884165D02*
X79650000Y-51115835D01*
%TO.C,J2*%
X98470000Y-77750000D02*
X98470000Y-53350000D01*
X112470000Y-53350000D02*
X98470000Y-53350000D01*
X112470000Y-77750000D02*
X98470000Y-77750000D01*
X112470000Y-77750000D02*
X112470000Y-53350000D01*
%TO.C,R13*%
X73540000Y-59512379D02*
X73540000Y-59847621D01*
X74300000Y-59512379D02*
X74300000Y-59847621D01*
D16*
%TO.C,R8*%
X75253400Y-61988480D02*
X76726600Y-61988480D01*
X75255940Y-62727620D02*
X75255940Y-62029120D01*
X75255940Y-63728380D02*
X75255940Y-64426880D01*
X76724060Y-62029120D02*
X76724060Y-62727620D01*
X76724060Y-63728380D02*
X76724060Y-64426880D01*
X76726600Y-64467520D02*
X75253400Y-64467520D01*
%TO.C,R3*%
X67462480Y-68696600D02*
X67462480Y-67223400D01*
X68201620Y-67225940D02*
X67503120Y-67225940D01*
X68201620Y-68694060D02*
X67503120Y-68694060D01*
X69202380Y-67225940D02*
X69900880Y-67225940D01*
X69900880Y-68694060D02*
X69202380Y-68694060D01*
X69941520Y-67223400D02*
X69941520Y-68696600D01*
D15*
%TO.C,Y1*%
X99818001Y-60383000D02*
X99818001Y-62783000D01*
X99818001Y-62783000D02*
X102618001Y-62783000D01*
D16*
%TO.C,C33*%
X75938480Y-47336600D02*
X75938480Y-45863400D01*
X76677620Y-45865940D02*
X75979120Y-45865940D01*
X76677620Y-47334060D02*
X75979120Y-47334060D01*
X77678380Y-45865940D02*
X78376880Y-45865940D01*
X78376880Y-47334060D02*
X77678380Y-47334060D01*
X78417520Y-45863400D02*
X78417520Y-47336600D01*
D15*
%TO.C,C35*%
X110994165Y-62100000D02*
X111225835Y-62100000D01*
X110994165Y-62820000D02*
X111225835Y-62820000D01*
%TO.C,R17*%
X72372379Y-44232500D02*
X72707621Y-44232500D01*
X72372379Y-44992500D02*
X72707621Y-44992500D01*
D16*
%TO.C,R2*%
X59858480Y-67916600D02*
X59858480Y-66443400D01*
X59899120Y-66445940D02*
X60597620Y-66445940D01*
X60597620Y-67914060D02*
X59899120Y-67914060D01*
X61598380Y-66445940D02*
X62296880Y-66445940D01*
X61598380Y-67914060D02*
X62296880Y-67914060D01*
X62337520Y-66443400D02*
X62337520Y-67916600D01*
%TO.C,C32*%
X73768480Y-42189100D02*
X73768480Y-40715900D01*
X74507620Y-40718440D02*
X73809120Y-40718440D01*
X74507620Y-42186560D02*
X73809120Y-42186560D01*
X75508380Y-40718440D02*
X76206880Y-40718440D01*
X76206880Y-42186560D02*
X75508380Y-42186560D01*
X76247520Y-40715900D02*
X76247520Y-42189100D01*
D15*
%TO.C,R22*%
X92890000Y-58667621D02*
X92890000Y-58332379D01*
X93650000Y-58667621D02*
X93650000Y-58332379D01*
%TO.C,C25*%
X78930000Y-53455835D02*
X78930000Y-53224165D01*
X79650000Y-53455835D02*
X79650000Y-53224165D01*
%TO.C,U4*%
X74330000Y-42942500D02*
X75630000Y-42942500D01*
X75880000Y-44742500D02*
X74330000Y-44742500D01*
D16*
%TO.C,R5*%
X71073400Y-64672480D02*
X72546600Y-64672480D01*
X71075940Y-65411620D02*
X71075940Y-64713120D01*
X71075940Y-67110880D02*
X71075940Y-66412380D01*
X72544060Y-65411620D02*
X72544060Y-64713120D01*
X72544060Y-66412380D02*
X72544060Y-67110880D01*
X72546600Y-67151520D02*
X71073400Y-67151520D01*
D15*
%TO.C,C9*%
X60690000Y-56774165D02*
X60690000Y-57005835D01*
X61410000Y-56774165D02*
X61410000Y-57005835D01*
D16*
%TO.C,C3*%
X65383400Y-64602480D02*
X66856600Y-64602480D01*
X65385940Y-65341620D02*
X65385940Y-64643120D01*
X65385940Y-67040880D02*
X65385940Y-66342380D01*
X66854060Y-65341620D02*
X66854060Y-64643120D01*
X66854060Y-66342380D02*
X66854060Y-67040880D01*
X66856600Y-67081520D02*
X65383400Y-67081520D01*
D15*
%TO.C,Q1*%
X104577500Y-55110000D02*
X103927500Y-55110000D01*
X104577500Y-55110000D02*
X105227500Y-55110000D01*
X104577500Y-58230000D02*
X103927500Y-58230000D01*
X104577500Y-58230000D02*
X105227500Y-58230000D01*
X103415000Y-55160000D02*
X103175000Y-54830000D01*
X103655000Y-54830000D01*
X103415000Y-55160000D01*
G36*
X103415000Y-55160000D02*
G01*
X103175000Y-54830000D01*
X103655000Y-54830000D01*
X103415000Y-55160000D01*
G37*
%TO.C,JP1*%
X86270000Y-59110000D02*
X86270000Y-58510000D01*
X86970000Y-57810000D02*
X88370000Y-57810000D01*
X88370000Y-59810000D02*
X86970000Y-59810000D01*
X89070000Y-58510000D02*
X89070000Y-59110000D01*
X86270000Y-58510000D02*
G75*
G02*
X86970000Y-57810000I699999J1D01*
G01*
X86970000Y-59810000D02*
G75*
G02*
X86270000Y-59110000I-1J699999D01*
G01*
X88370000Y-57810000D02*
G75*
G02*
X89070000Y-58510000I0J-700000D01*
G01*
X89070000Y-59110000D02*
G75*
G02*
X88370000Y-59810000I-700000J0D01*
G01*
%TO.C,C6*%
X67420000Y-51573335D02*
X67420000Y-51341665D01*
X68140000Y-51573335D02*
X68140000Y-51341665D01*
%TO.C,J5*%
X53285000Y-74800000D02*
X53285000Y-77560000D01*
X55935000Y-74800000D02*
X53285000Y-74800000D01*
X55935000Y-74800000D02*
X55935000Y-77560000D01*
X55935000Y-77560000D02*
X53285000Y-77560000D01*
X57205000Y-74800000D02*
X58585000Y-74800000D01*
X58585000Y-74800000D02*
X58585000Y-76180000D01*
D16*
%TO.C,C26*%
X73319980Y-47848350D02*
X73319980Y-46375150D01*
X74059120Y-46377690D02*
X73360620Y-46377690D01*
X74059120Y-47845810D02*
X73360620Y-47845810D01*
X75059880Y-46377690D02*
X75758380Y-46377690D01*
X75758380Y-47845810D02*
X75059880Y-47845810D01*
X75799020Y-46375150D02*
X75799020Y-47848350D01*
D15*
%TO.C,U3*%
X73204000Y-53210000D02*
X73204000Y-51010000D01*
X73204000Y-53210000D02*
X73204000Y-55410000D01*
X78424000Y-53210000D02*
X78424000Y-49610000D01*
X78424000Y-53210000D02*
X78424000Y-55410000D01*
%TO.C,R19*%
X101390000Y-65927621D02*
X101390000Y-65592379D01*
X102150000Y-65927621D02*
X102150000Y-65592379D01*
%TD*%
M02*
