%TF.GenerationSoftware,KiCad,Pcbnew,7.0.10+dfsg-1*%
%TF.CreationDate,2024-01-28T21:13:59+02:00*%
%TF.ProjectId,legacy_av_in,6c656761-6379-45f6-9176-5f696e2e6b69,rev?*%
%TF.SameCoordinates,Original*%
%TF.FileFunction,Legend,Bot*%
%TF.FilePolarity,Positive*%
%FSLAX46Y46*%
G04 Gerber Fmt 4.6, Leading zero omitted, Abs format (unit mm)*
G04 Created by KiCad (PCBNEW 7.0.10+dfsg-1) date 2024-01-28 21:13:59*
%MOMM*%
%LPD*%
G01*
G04 APERTURE LIST*
%ADD10C,0.127000*%
%ADD11C,0.114300*%
%ADD12C,0.150000*%
%ADD13C,0.119380*%
%ADD14C,0.120000*%
G04 APERTURE END LIST*
D10*
X94853658Y-67055333D02*
X94575467Y-66885999D01*
X94853658Y-66765047D02*
X94269458Y-66765047D01*
X94269458Y-66765047D02*
X94269458Y-66958571D01*
X94269458Y-66958571D02*
X94297277Y-67006952D01*
X94297277Y-67006952D02*
X94325096Y-67031142D01*
X94325096Y-67031142D02*
X94380734Y-67055333D01*
X94380734Y-67055333D02*
X94464191Y-67055333D01*
X94464191Y-67055333D02*
X94519829Y-67031142D01*
X94519829Y-67031142D02*
X94547648Y-67006952D01*
X94547648Y-67006952D02*
X94575467Y-66958571D01*
X94575467Y-66958571D02*
X94575467Y-66765047D01*
X94853658Y-67297237D02*
X94853658Y-67393999D01*
X94853658Y-67393999D02*
X94825839Y-67442380D01*
X94825839Y-67442380D02*
X94798019Y-67466571D01*
X94798019Y-67466571D02*
X94714562Y-67514952D01*
X94714562Y-67514952D02*
X94603286Y-67539142D01*
X94603286Y-67539142D02*
X94380734Y-67539142D01*
X94380734Y-67539142D02*
X94325096Y-67514952D01*
X94325096Y-67514952D02*
X94297277Y-67490761D01*
X94297277Y-67490761D02*
X94269458Y-67442380D01*
X94269458Y-67442380D02*
X94269458Y-67345618D01*
X94269458Y-67345618D02*
X94297277Y-67297237D01*
X94297277Y-67297237D02*
X94325096Y-67273047D01*
X94325096Y-67273047D02*
X94380734Y-67248856D01*
X94380734Y-67248856D02*
X94519829Y-67248856D01*
X94519829Y-67248856D02*
X94575467Y-67273047D01*
X94575467Y-67273047D02*
X94603286Y-67297237D01*
X94603286Y-67297237D02*
X94631105Y-67345618D01*
X94631105Y-67345618D02*
X94631105Y-67442380D01*
X94631105Y-67442380D02*
X94603286Y-67490761D01*
X94603286Y-67490761D02*
X94575467Y-67514952D01*
X94575467Y-67514952D02*
X94519829Y-67539142D01*
D11*
X96597066Y-66867856D02*
X96597066Y-66606599D01*
X96597066Y-66737228D02*
X96089066Y-66737228D01*
X96089066Y-66737228D02*
X96161637Y-66693685D01*
X96161637Y-66693685D02*
X96210018Y-66650142D01*
X96210018Y-66650142D02*
X96234209Y-66606599D01*
X96089066Y-67150885D02*
X96089066Y-67194428D01*
X96089066Y-67194428D02*
X96113256Y-67237971D01*
X96113256Y-67237971D02*
X96137447Y-67259743D01*
X96137447Y-67259743D02*
X96185828Y-67281514D01*
X96185828Y-67281514D02*
X96282590Y-67303285D01*
X96282590Y-67303285D02*
X96403542Y-67303285D01*
X96403542Y-67303285D02*
X96500304Y-67281514D01*
X96500304Y-67281514D02*
X96548685Y-67259743D01*
X96548685Y-67259743D02*
X96572876Y-67237971D01*
X96572876Y-67237971D02*
X96597066Y-67194428D01*
X96597066Y-67194428D02*
X96597066Y-67150885D01*
X96597066Y-67150885D02*
X96572876Y-67107343D01*
X96572876Y-67107343D02*
X96548685Y-67085571D01*
X96548685Y-67085571D02*
X96500304Y-67063800D01*
X96500304Y-67063800D02*
X96403542Y-67042028D01*
X96403542Y-67042028D02*
X96282590Y-67042028D01*
X96282590Y-67042028D02*
X96185828Y-67063800D01*
X96185828Y-67063800D02*
X96137447Y-67085571D01*
X96137447Y-67085571D02*
X96113256Y-67107343D01*
X96113256Y-67107343D02*
X96089066Y-67150885D01*
X96597066Y-67499229D02*
X96089066Y-67499229D01*
X96403542Y-67542772D02*
X96597066Y-67673400D01*
X96258399Y-67673400D02*
X96451923Y-67499229D01*
D12*
X97153333Y-62814819D02*
X97153333Y-63529104D01*
X97153333Y-63529104D02*
X97200952Y-63671961D01*
X97200952Y-63671961D02*
X97296190Y-63767200D01*
X97296190Y-63767200D02*
X97439047Y-63814819D01*
X97439047Y-63814819D02*
X97534285Y-63814819D01*
X96677142Y-63814819D02*
X96677142Y-62814819D01*
X96677142Y-62814819D02*
X96296190Y-62814819D01*
X96296190Y-62814819D02*
X96200952Y-62862438D01*
X96200952Y-62862438D02*
X96153333Y-62910057D01*
X96153333Y-62910057D02*
X96105714Y-63005295D01*
X96105714Y-63005295D02*
X96105714Y-63148152D01*
X96105714Y-63148152D02*
X96153333Y-63243390D01*
X96153333Y-63243390D02*
X96200952Y-63291009D01*
X96200952Y-63291009D02*
X96296190Y-63338628D01*
X96296190Y-63338628D02*
X96677142Y-63338628D01*
X95153333Y-63814819D02*
X95724761Y-63814819D01*
X95439047Y-63814819D02*
X95439047Y-62814819D01*
X95439047Y-62814819D02*
X95534285Y-62957676D01*
X95534285Y-62957676D02*
X95629523Y-63052914D01*
X95629523Y-63052914D02*
X95724761Y-63100533D01*
D13*
%TO.C,R9*%
X95128480Y-66403400D02*
X95128480Y-67876600D01*
X95169120Y-67874060D02*
X95867620Y-67874060D01*
X95867620Y-66405940D02*
X95169120Y-66405940D01*
X96868380Y-66405940D02*
X97566880Y-66405940D01*
X96868380Y-67874060D02*
X97566880Y-67874060D01*
X97607520Y-67876600D02*
X97607520Y-66403400D01*
D14*
%TO.C,JP1*%
X97720000Y-66160000D02*
X97720000Y-64160000D01*
X97720000Y-64160000D02*
X94920000Y-64160000D01*
X94920000Y-66160000D02*
X97720000Y-66160000D01*
X94920000Y-64160000D02*
X94920000Y-66160000D01*
%TD*%
M02*
