M48
; DRILL file {KiCad 9.0.2+dfsg-1} date 2025-08-01T16:41:57+0300
; FORMAT={-:-/ absolute / inch / decimal}
; #@! TF.CreationDate,2025-08-01T16:41:57+03:00
; #@! TF.GenerationSoftware,Kicad,Pcbnew,9.0.2+dfsg-1
; #@! TF.FileFunction,MixedPlating,1,4
FMAT,2
INCH
; #@! TA.AperFunction,Plated,PTH,ComponentDrill
T1C0.0079
; #@! TA.AperFunction,Plated,PTH,ComponentDrill
T2C0.0118
; #@! TA.AperFunction,Plated,PTH,ViaDrill
T3C0.0130
; #@! TA.AperFunction,Plated,PTH,ComponentDrill
T4C0.0276
; #@! TA.AperFunction,Plated,PTH,ComponentDrill
T5C0.0315
; #@! TA.AperFunction,Plated,PTH,ComponentDrill
T6C0.0354
; #@! TA.AperFunction,Plated,PTH,ComponentDrill
T7C0.0394
; #@! TA.AperFunction,Plated,PTH,ComponentDrill
T8C0.0512
; #@! TA.AperFunction,Plated,PTH,ComponentDrill
T9C0.0669
; #@! TA.AperFunction,Plated,PTH,ComponentDrill
T10C0.1260
; #@! TA.AperFunction,NonPlated,NPTH,ComponentDrill
T11C0.1260
%
G90
G05
T1
X4.174Y-2.4626
X4.174Y-2.5
X4.174Y-2.5374
X4.2114Y-2.4626
X4.2114Y-2.5
X4.2114Y-2.5374
X4.2488Y-2.4626
X4.2488Y-2.5
X4.2488Y-2.5374
T2
X2.5236Y-2.1369
X2.5236Y-2.196
X2.5236Y-2.255
X2.5827Y-2.1369
X2.5827Y-2.196
X2.5827Y-2.255
X2.6417Y-2.1369
X2.6417Y-2.196
X2.6417Y-2.255
T3
X1.7661Y-1.0727
X1.7661Y-1.1727
X1.7661Y-1.2727
X1.7661Y-1.3727
X1.7661Y-1.4727
X1.7661Y-1.5727
X1.7661Y-1.6727
X1.7661Y-1.7727
X1.7661Y-1.8727
X1.7661Y-1.9727
X1.7661Y-2.0727
X1.7661Y-2.1727
X1.7661Y-2.2727
X1.7661Y-2.3727
X1.7661Y-2.4727
X1.7661Y-2.5727
X1.7661Y-2.6727
X1.7661Y-2.7727
X1.7661Y-2.8727
X1.7661Y-2.9727
X1.7661Y-3.0727
X1.7661Y-3.1727
X1.7661Y-3.2727
X1.7661Y-3.3727
X1.7661Y-3.4727
X1.8661Y-0.9727
X1.8661Y-3.5727
X1.9661Y-0.6727
X1.9661Y-0.7727
X1.9661Y-0.8727
X1.9661Y-0.9727
X1.9661Y-3.5727
X1.9661Y-3.6727
X1.9661Y-3.7727
X1.9661Y-3.8727
X2.0031Y-2.8201
X2.0043Y-2.7661
X2.0299Y-1.948
X2.0661Y-0.9727
X2.0661Y-1.2727
X2.0661Y-1.6727
X2.0661Y-2.2727
X2.0661Y-2.3727
X2.0661Y-2.4727
X2.0661Y-2.5727
X2.0661Y-2.6727
X2.0661Y-2.7727
X2.0661Y-2.8727
X2.0661Y-2.9727
X2.0661Y-3.0727
X2.0661Y-3.5727
X2.1661Y-0.6727
X2.1661Y-0.7727
X2.1661Y-0.8727
X2.1661Y-0.9727
X2.1661Y-1.0727
X2.1661Y-1.2727
X2.1661Y-1.3727
X2.1661Y-1.7727
X2.1661Y-2.4727
X2.1661Y-2.5727
X2.1661Y-2.8727
X2.1661Y-3.0727
X2.1661Y-3.5727
X2.1661Y-3.6727
X2.1661Y-3.7727
X2.1661Y-3.8727
X2.1697Y-2.0906
X2.178Y-3.239
X2.1866Y-2.3681
X2.213Y-3.1555
X2.2661Y-1.3727
X2.2661Y-1.8727
X2.2661Y-2.2727
X2.2661Y-2.4727
X2.2661Y-2.5727
X2.2661Y-2.7727
X2.2661Y-3.0727
X2.3323Y-2.2638
X2.3618Y-2.3776
X2.3661Y-1.3727
X2.3661Y-1.4727
X2.3661Y-1.9727
X2.3661Y-2.4727
X2.3661Y-2.5727
X2.3661Y-2.7727
X2.3661Y-2.8727
X2.3661Y-2.9727
X2.3661Y-3.0727
X2.4382Y-2.2272
X2.4654Y-2.3232
X2.4661Y-1.3727
X2.4661Y-1.5727
X2.4661Y-2.7727
X2.4661Y-2.8727
X2.5079Y-1.9782
X2.5583Y-2.6106
X2.5661Y-1.3727
X2.5661Y-2.9727
X2.5913Y-2.4602
X2.6181Y-1.9598
X2.652Y-1.9756
X2.665Y-1.7614
X2.6661Y-1.3727
X2.6661Y-2.8727
X2.6724Y-2.8079
X2.6799Y-2.0843
X2.6839Y-2.5327
X2.685Y-1.9323
X2.6882Y-2.3579
X2.711Y-2.5134
X2.7248Y-2.2587
X2.7366Y-2.4433
X2.7374Y-2.0941
X2.7531Y-2.5913
X2.7661Y-1.3727
X2.7661Y-1.4727
X2.7661Y-1.5727
X2.7661Y-1.6727
X2.7756Y-2.2248
X2.7764Y-2.1791
X2.8513Y-2.1496
X2.8517Y-2.1106
X2.8525Y-2.0732
X2.8661Y-1.3727
X2.8661Y-1.4727
X2.8661Y-1.5727
X2.8661Y-1.6727
X2.8661Y-1.9727
X2.8783Y-1.839
X2.883Y-1.8902
X2.9091Y-2.4098
X2.9098Y-2.6748
X2.9201Y-1.6808
X2.9356Y-2.0815
X2.9368Y-2.137
X2.9449Y-2.3969
X2.9591Y-1.7607
X2.9661Y-1.3727
X2.9661Y-1.4727
X2.9661Y-1.5727
X2.9661Y-2.5727
X2.9661Y-2.9727
X2.9661Y-3.1727
X2.9705Y-1.8193
X2.9965Y-1.68
X3.0071Y-1.7655
X3.0276Y-1.9016
X3.0287Y-1.8724
X3.0398Y-2.3217
X3.0461Y-2.478
X3.0539Y-2.3484
X3.0661Y-1.3727
X3.0661Y-1.4727
X3.0661Y-1.5727
X3.0661Y-3.0727
X3.0661Y-3.1727
X3.0693Y-2.322
X3.0811Y-2.7346
X3.0992Y-1.8398
X3.1291Y-1.8122
X3.1291Y-1.8409
X3.1492Y-2.3524
X3.1496Y-2.3807
X3.1504Y-2.4776
X3.1508Y-2.5161
X3.1512Y-2.4236
X3.1543Y-1.8657
X3.1551Y-2.0417
X3.1559Y-1.9461
X3.1661Y-1.3727
X3.1661Y-1.4727
X3.1661Y-1.5727
X3.1661Y-1.6727
X3.1661Y-2.1727
X3.1661Y-2.5727
X3.1661Y-2.6727
X3.1661Y-2.8727
X3.1661Y-2.9727
X3.1661Y-3.1727
X3.2583Y-2.3319
X3.2587Y-2.3787
X3.2661Y-1.3727
X3.2661Y-1.4727
X3.2661Y-1.5727
X3.2661Y-1.6727
X3.2661Y-1.7727
X3.2661Y-1.8727
X3.2661Y-1.9727
X3.2661Y-2.0727
X3.2661Y-2.1727
X3.2661Y-2.5727
X3.2661Y-2.6727
X3.2661Y-2.8727
X3.2661Y-2.9727
X3.2661Y-3.1727
X3.3122Y-2.4535
X3.3504Y-2.4535
X3.3661Y-1.3727
X3.3661Y-1.4727
X3.3661Y-1.5727
X3.3661Y-1.6727
X3.3661Y-1.7727
X3.3661Y-1.8727
X3.3661Y-1.9727
X3.3661Y-2.0727
X3.3661Y-2.1727
X3.3661Y-2.5727
X3.3661Y-2.6727
X3.3661Y-2.7727
X3.3661Y-3.0727
X3.3661Y-3.1727
X3.5661Y-1.3727
X3.5661Y-1.4727
X3.5661Y-1.5727
X3.5661Y-1.6727
X3.5661Y-1.7727
X3.5661Y-1.8727
X3.5661Y-2.5727
X3.5661Y-2.6727
X3.5661Y-2.7727
X3.5661Y-2.8727
X3.5661Y-2.9727
X3.5661Y-3.0727
X3.5661Y-3.1727
X3.5791Y-2.4555
X3.6075Y-2.0014
X3.6079Y-2.036
X3.6091Y-2.1433
X3.6205Y-2.4567
X3.6362Y-2.3287
X3.639Y-2.2799
X3.6661Y-1.3727
X3.6661Y-1.4727
X3.6661Y-1.5727
X3.6661Y-1.6727
X3.6661Y-1.7727
X3.6661Y-1.8727
X3.6661Y-2.5727
X3.6661Y-2.6727
X3.6661Y-2.7727
X3.6661Y-2.8727
X3.6661Y-2.9727
X3.6957Y-2.3276
X3.7402Y-2.1051
X3.7661Y-1.3727
X3.7661Y-1.4727
X3.7661Y-1.5727
X3.7661Y-1.6727
X3.7661Y-1.7727
X3.7661Y-1.8727
X3.7661Y-2.5727
X3.7661Y-2.6727
X3.7661Y-2.7727
X3.7661Y-2.8727
X3.7661Y-2.9727
X3.7847Y-2.1669
X3.8457Y-2.1024
X3.8661Y-1.3727
X3.8661Y-1.4727
X3.8661Y-1.5727
X3.8661Y-1.6727
X3.8661Y-1.7727
X3.8661Y-1.8727
X3.8764Y-2.8764
X3.8764Y-2.9634
X3.8764Y-3.0602
X3.8768Y-2.7319
X3.8768Y-2.8
X3.8772Y-2.4524
X3.8772Y-2.6677
X3.8774Y-2.3457
X3.9488Y-2.2378
X3.9537Y-2.3613
X3.9634Y-2.5898
X3.9661Y-1.3727
X3.9661Y-1.4727
X3.9661Y-1.5727
X3.9661Y-1.6727
X3.9661Y-1.7727
X3.9661Y-1.8727
X3.9661Y-3.1727
X3.9807Y-3.061
X4.0264Y-2.6114
X4.0283Y-2.5205
X4.0497Y-2.4625
X4.0545Y-2.2262
X4.0661Y-1.3727
X4.0661Y-1.4727
X4.0661Y-1.5727
X4.0661Y-1.6727
X4.0661Y-1.7727
X4.0661Y-1.8727
X4.0661Y-1.9727
X4.0661Y-2.0727
X4.0661Y-3.1727
X4.0929Y-2.3654
X4.1138Y-2.3815
X4.1661Y-1.3727
X4.1661Y-1.4727
X4.1661Y-1.5727
X4.1661Y-1.6727
X4.1661Y-1.7727
X4.1661Y-1.8727
X4.1661Y-1.9727
X4.1661Y-3.1727
X4.1902Y-2.3823
X4.2189Y-2.2894
X4.2299Y-2.6189
X4.2661Y-1.3727
X4.2661Y-1.4727
X4.2661Y-1.5727
X4.2661Y-1.6727
X4.2661Y-1.7727
X4.2661Y-1.8727
X4.2661Y-1.9727
X4.2661Y-3.1727
X4.2669Y-2.6177
X4.2862Y-2.3303
X4.2921Y-2.65
X4.3094Y-2.3776
X4.3157Y-3.0598
X4.3169Y-2.1008
X4.3213Y-2.3043
X4.3217Y-2.3299
X4.3257Y-2.4259
X4.3264Y-2.8287
X4.3303Y-2.5957
X4.3358Y-2.5327
X4.336Y-2.4967
X4.3661Y-1.3727
X4.3661Y-1.4727
X4.3661Y-1.5727
X4.3661Y-1.6727
X4.3661Y-1.7727
X4.3661Y-1.8727
X4.3661Y-1.9727
X4.3661Y-3.1727
X4.4272Y-2.4343
X4.4276Y-2.3543
X4.428Y-2.1874
X4.428Y-2.2669
X4.4283Y-2.1008
X4.4291Y-2.9587
X4.4291Y-3.0591
X4.4299Y-2.6732
X4.4299Y-2.7433
X4.4299Y-2.8783
X4.4307Y-2.8043
X4.4661Y-1.3727
X4.4661Y-1.4727
X4.4661Y-1.5727
X4.4661Y-1.6727
X4.4661Y-1.7727
X4.4661Y-1.8727
X4.4661Y-1.9727
X4.4661Y-3.1727
X4.5661Y-1.3727
X4.5661Y-1.4727
X4.5661Y-1.5727
X4.5661Y-1.6727
X4.5661Y-1.7727
X4.5661Y-1.8727
X4.5661Y-1.9727
X4.5661Y-2.0727
X4.5661Y-2.1727
X4.5661Y-2.3727
X4.5661Y-2.4727
X4.5661Y-2.5727
X4.5661Y-2.6727
X4.5661Y-2.7727
X4.5661Y-2.8727
X4.5661Y-2.9727
X4.5661Y-3.0727
X4.5661Y-3.1727
X4.6661Y-1.3727
X4.6661Y-1.4727
X4.6661Y-1.5727
X4.6661Y-1.6727
X4.6661Y-1.7727
X4.6661Y-1.8727
X4.6661Y-1.9727
X4.6661Y-2.0727
X4.6661Y-2.1727
X4.6661Y-2.2727
X4.6661Y-2.3727
X4.6661Y-2.4727
X4.6661Y-2.5727
X4.6661Y-2.6727
X4.6661Y-2.7727
X4.6661Y-2.8727
X4.6661Y-2.9727
X4.6661Y-3.0727
X4.6661Y-3.1727
T5
X2.2134Y-2.7142
X2.2134Y-2.8126
T6
X3.0862Y-2.85
X3.0862Y-2.9484
X3.3539Y-2.85
X3.3539Y-2.9484
T7
X1.8262Y-1.0728
X1.8262Y-1.1728
X1.8262Y-1.2728
X1.8262Y-1.3728
X1.8262Y-1.4728
X1.8262Y-1.5728
X1.8262Y-1.6728
X1.8262Y-1.7728
X1.8262Y-1.8728
X1.8262Y-1.9728
X1.8262Y-2.0728
X1.8262Y-2.1728
X1.8262Y-2.2728
X1.8262Y-2.3728
X1.8262Y-2.4728
X1.8262Y-2.5728
X1.8262Y-2.6728
X1.8262Y-2.7728
X1.8262Y-2.8728
X1.8262Y-2.9728
X1.8262Y-3.0728
X1.8262Y-3.1728
X1.8262Y-3.2728
X1.8262Y-3.3728
X1.8262Y-3.4728
X1.9262Y-1.0728
X1.9262Y-1.1728
X1.9262Y-1.2728
X1.9262Y-1.3728
X1.9262Y-1.4728
X1.9262Y-1.5728
X1.9262Y-1.6728
X1.9262Y-1.7728
X1.9262Y-1.8728
X1.9262Y-1.9728
X1.9262Y-2.0728
X1.9262Y-2.1728
X1.9262Y-2.2728
X1.9262Y-2.3728
X1.9262Y-2.4728
X1.9262Y-2.5728
X1.9262Y-2.6728
X1.9262Y-2.7728
X1.9262Y-2.8728
X1.9262Y-2.9728
X1.9262Y-3.0728
X1.9262Y-3.1728
X1.9262Y-3.2728
X1.9262Y-3.3728
X1.9262Y-3.4728
X2.1522Y-2.9992
X2.2522Y-2.9992
T9
X1.8941Y-0.6024
X1.8941Y-0.8165
X1.8941Y-3.7291
X1.8941Y-3.9433
X2.0941Y-0.6024
X2.0941Y-0.8165
X2.0941Y-3.7291
X2.0941Y-3.9433
T10
X2.5965Y-1.5102
X3.7362Y-3.1469
T11
X2.0984Y-1.1417
X2.0984Y-3.4055
X4.5748Y-2.2835
T4
G00X2.9543Y-3.037
M15
G01X2.9543Y-3.0961
M16
G05
G00X3.1906Y-3.098
M15
G01X3.2496Y-3.098
M16
G05
G00X3.4858Y-3.037
M15
G01X3.4858Y-3.0961
M16
G05
G00X3.8768Y-2.5925
M15
G01X3.8768Y-2.5217
M16
G05
G00X4.1169Y-2.1004
M15
G01X4.1878Y-2.1004
M16
G05
G00X4.1307Y-2.9232
M15
G01X4.174Y-2.9232
M16
G05
G00X4.1169Y-3.061
M15
G01X4.1878Y-3.061
M16
G05
G00X4.428Y-2.5925
M15
G01X4.428Y-2.5217
M16
G05
T7
G00X2.4365Y-2.9508
M15
G01X2.4365Y-3.0098
M16
G05
G00X2.7318Y-2.9508
M15
G01X2.7318Y-3.0098
M16
G05
T8
G00X2.5655Y-3.126
M15
G01X2.6029Y-3.126
M16
G05
M30
